<?xml version="1.0" encoding="UTF-8" standalone="no"?>
<!DOCTYPE svg PUBLIC "-//W3C//DTD SVG 1.1//EN"
 "http://www.w3.org/Graphics/SVG/1.1/DTD/svg11.dtd">
<!-- Generated by graphviz version 2.38.0 (20140413.2041)
 -->
<!-- Title: bcneusc Pages: 1 -->
<svg width="330pt" height="142pt"
 viewBox="0.00 0.00 330.00 142.00" xmlns="http://www.w3.org/2000/svg" xmlns:xlink="http://www.w3.org/1999/xlink">
<g id="graph0" class="graph" transform="scale(1 1) rotate(0) translate(4 138)">
<title>bcneusc</title>
<polygon fill="white" stroke="none" points="-4,4 -4,-138 326,-138 326,4 -4,4"/>
<!-- Node1 -->
<g id="node1" class="node"><title>Node1</title>
<polygon fill="#bfbfbf" stroke="black" points="0,-57.5 0,-76.5 55,-76.5 55,-57.5 0,-57.5"/>
<text text-anchor="middle" x="27.5" y="-64.5" font-family="Helvetica,sans-Serif" font-size="10.00">bcneusc</text>
</g>
<!-- Node2 -->
<g id="node2" class="node"><title>Node2</title>
<g id="a_node2"><a xlink:href="classctimer.html#abcecbc845c8ee72e13a19eaa30b80d77" target="_top" xlink:title="ctimer::dnekclock">
<polygon fill="white" stroke="black" points="91,-114.5 91,-133.5 188,-133.5 188,-114.5 91,-114.5"/>
<text text-anchor="middle" x="139.5" y="-121.5" font-family="Helvetica,sans-Serif" font-size="10.00">ctimer::dnekclock</text>
</a>
</g>
</g>
<!-- Node1&#45;&gt;Node2 -->
<g id="edge1" class="edge"><title>Node1&#45;&gt;Node2</title>
<path fill="none" stroke="midnightblue" d="M42.7609,-76.6083C55.1844,-84.7482 73.8469,-96.4289 91,-105 94.7541,-106.876 98.7405,-108.706 102.746,-110.445"/>
<polygon fill="midnightblue" stroke="midnightblue" points="101.447,-113.695 112.024,-114.311 104.14,-107.234 101.447,-113.695"/>
</g>
<!-- Node4 -->
<g id="node4" class="node"><title>Node4</title>
<g id="a_node4"><a xlink:href="connect1_8F90.html#aa1c9016b4c28e8a8512be6f6d67eefce" target="_top" xlink:title="ifcase in preprocessor notation ">
<polygon fill="white" stroke="black" points="117,-76.5 117,-95.5 162,-95.5 162,-76.5 117,-76.5"/>
<text text-anchor="middle" x="139.5" y="-83.5" font-family="Helvetica,sans-Serif" font-size="10.00">facind</text>
</a>
</g>
</g>
<!-- Node1&#45;&gt;Node4 -->
<g id="edge3" class="edge"><title>Node1&#45;&gt;Node4</title>
<path fill="none" stroke="midnightblue" d="M55.1279,-71.5994C70.6711,-74.2841 90.3774,-77.6879 106.728,-80.5122"/>
<polygon fill="midnightblue" stroke="midnightblue" points="106.461,-84.0178 116.911,-82.271 107.653,-77.1199 106.461,-84.0178"/>
</g>
<!-- Node5 -->
<g id="node5" class="node"><title>Node5</title>
<g id="a_node5"><a xlink:href="classparallel.html#ac36680315d0622d84df5d5baf3fb0acc" target="_top" xlink:title="parallel::lglel">
<polygon fill="white" stroke="black" points="102.5,-38.5 102.5,-57.5 176.5,-57.5 176.5,-38.5 102.5,-38.5"/>
<text text-anchor="middle" x="139.5" y="-45.5" font-family="Helvetica,sans-Serif" font-size="10.00">parallel::lglel</text>
</a>
</g>
</g>
<!-- Node1&#45;&gt;Node5 -->
<g id="edge4" class="edge"><title>Node1&#45;&gt;Node5</title>
<path fill="none" stroke="midnightblue" d="M55.1279,-62.4006C66.266,-60.4768 79.5418,-58.1837 92.1887,-55.9992"/>
<polygon fill="midnightblue" stroke="midnightblue" points="92.8853,-59.4308 102.144,-54.2797 91.6938,-52.533 92.8853,-59.4308"/>
</g>
<!-- Node7 -->
<g id="node7" class="node"><title>Node7</title>
<g id="a_node7"><a xlink:href="bdry_8F90.html#a2426a0c5d510c19b0aa48112922383c3" target="_top" xlink:title="Assign NEKTON variables for definition (by user) of boundary conditions at collocation point (IX...">
<polygon fill="white" stroke="black" points="111,-0.5 111,-19.5 168,-19.5 168,-0.5 111,-0.5"/>
<text text-anchor="middle" x="139.5" y="-7.5" font-family="Helvetica,sans-Serif" font-size="10.00">nekasgn</text>
</a>
</g>
</g>
<!-- Node1&#45;&gt;Node7 -->
<g id="edge6" class="edge"><title>Node1&#45;&gt;Node7</title>
<path fill="none" stroke="midnightblue" d="M42.7609,-57.3917C55.1844,-49.2518 73.8469,-37.5711 91,-29 94.7541,-27.1242 98.7405,-25.2935 102.746,-23.5553"/>
<polygon fill="midnightblue" stroke="midnightblue" points="104.14,-26.7662 112.024,-19.6893 101.447,-20.3046 104.14,-26.7662"/>
</g>
<!-- Node3 -->
<g id="node3" class="node"><title>Node3</title>
<g id="a_node3"><a xlink:href="mpi__dummy_8F90.html#ae6a5ef945f87c2c27849696b70f3af2a" target="_top" xlink:title="mpi_wtime">
<polygon fill="white" stroke="black" points="240,-114.5 240,-133.5 306,-133.5 306,-114.5 240,-114.5"/>
<text text-anchor="middle" x="273" y="-121.5" font-family="Helvetica,sans-Serif" font-size="10.00">mpi_wtime</text>
</a>
</g>
</g>
<!-- Node2&#45;&gt;Node3 -->
<g id="edge2" class="edge"><title>Node2&#45;&gt;Node3</title>
<path fill="none" stroke="midnightblue" d="M188.347,-124C201.906,-124 216.565,-124 229.767,-124"/>
<polygon fill="midnightblue" stroke="midnightblue" points="229.993,-127.5 239.993,-124 229.993,-120.5 229.993,-127.5"/>
</g>
<!-- Node6 -->
<g id="node6" class="node"><title>Node6</title>
<g id="a_node6"><a xlink:href="classmesh.html#a8b6a250925cdc576e3ff6f7b18dc88c4" target="_top" xlink:title="mesh::xyz_to_ieg">
<polygon fill="white" stroke="black" points="224,-38.5 224,-57.5 322,-57.5 322,-38.5 224,-38.5"/>
<text text-anchor="middle" x="273" y="-45.5" font-family="Helvetica,sans-Serif" font-size="10.00">mesh::xyz_to_ieg</text>
</a>
</g>
</g>
<!-- Node5&#45;&gt;Node6 -->
<g id="edge5" class="edge"><title>Node5&#45;&gt;Node6</title>
<path fill="none" stroke="midnightblue" d="M176.781,-48C188.066,-48 200.81,-48 213.22,-48"/>
<polygon fill="midnightblue" stroke="midnightblue" points="213.526,-51.5001 223.526,-48 213.526,-44.5001 213.526,-51.5001"/>
</g>
</g>
</svg>
