<?xml version="1.0" encoding="UTF-8" standalone="no"?>
<!DOCTYPE svg PUBLIC "-//W3C//DTD SVG 1.1//EN"
 "http://www.w3.org/Graphics/SVG/1.1/DTD/svg11.dtd">
<!-- Generated by graphviz version 2.38.0 (20140413.2041)
 -->
<!-- Title: bcdirsc Pages: 1 -->
<svg width="399pt" height="104pt"
 viewBox="0.00 0.00 399.00 104.00" xmlns="http://www.w3.org/2000/svg" xmlns:xlink="http://www.w3.org/1999/xlink">
<g id="graph0" class="graph" transform="scale(1 1) rotate(0) translate(4 100)">
<title>bcdirsc</title>
<polygon fill="white" stroke="none" points="-4,4 -4,-100 395,-100 395,4 -4,4"/>
<!-- Node1 -->
<g id="node1" class="node"><title>Node1</title>
<polygon fill="#bfbfbf" stroke="black" points="0,-38.5 0,-57.5 50,-57.5 50,-38.5 0,-38.5"/>
<text text-anchor="middle" x="25" y="-45.5" font-family="Helvetica,sans-Serif" font-size="10.00">bcdirsc</text>
</g>
<!-- Node2 -->
<g id="node2" class="node"><title>Node2</title>
<g id="a_node2"><a xlink:href="classctimer.html#abcecbc845c8ee72e13a19eaa30b80d77" target="_top" xlink:title="ctimer::dnekclock">
<polygon fill="white" stroke="black" points="86,-76.5 86,-95.5 183,-95.5 183,-76.5 86,-76.5"/>
<text text-anchor="middle" x="134.5" y="-83.5" font-family="Helvetica,sans-Serif" font-size="10.00">ctimer::dnekclock</text>
</a>
</g>
</g>
<!-- Node1&#45;&gt;Node2 -->
<g id="edge1" class="edge"><title>Node1&#45;&gt;Node2</title>
<path fill="none" stroke="midnightblue" d="M50.1251,-56.5279C63.8357,-61.3745 81.2864,-67.5431 96.6755,-72.983"/>
<polygon fill="midnightblue" stroke="midnightblue" points="95.8359,-76.3984 106.431,-76.4313 98.1689,-69.7986 95.8359,-76.3984"/>
</g>
<!-- Node4 -->
<g id="node4" class="node"><title>Node4</title>
<g id="a_node4"><a xlink:href="dssum_8F90.html#a0f12538ccdb70f55f5cd84c1237eb9d4" target="_top" xlink:title="generalization of dssum to other reducers. ">
<polygon fill="white" stroke="black" points="114.5,-38.5 114.5,-57.5 154.5,-57.5 154.5,-38.5 114.5,-38.5"/>
<text text-anchor="middle" x="134.5" y="-45.5" font-family="Helvetica,sans-Serif" font-size="10.00">dsop</text>
</a>
</g>
</g>
<!-- Node1&#45;&gt;Node4 -->
<g id="edge3" class="edge"><title>Node1&#45;&gt;Node4</title>
<path fill="none" stroke="midnightblue" d="M50.1251,-48C66.0701,-48 87.0733,-48 104.01,-48"/>
<polygon fill="midnightblue" stroke="midnightblue" points="104.458,-51.5001 114.458,-48 104.458,-44.5001 104.458,-51.5001"/>
</g>
<!-- Node7 -->
<g id="node7" class="node"><title>Node7</title>
<g id="a_node7"><a xlink:href="connect1_8F90.html#a1c96db1fac78d436aaab41482ed01aca" target="_top" xlink:title="Assign the value VAL to face(IFACE,IE) of array A. IFACE is the input in the pre&#45;processor ordering s...">
<polygon fill="white" stroke="black" points="113.5,-0.5 113.5,-19.5 155.5,-19.5 155.5,-0.5 113.5,-0.5"/>
<text text-anchor="middle" x="134.5" y="-7.5" font-family="Helvetica,sans-Serif" font-size="10.00">facev</text>
</a>
</g>
</g>
<!-- Node1&#45;&gt;Node7 -->
<g id="edge6" class="edge"><title>Node1&#45;&gt;Node7</title>
<path fill="none" stroke="midnightblue" d="M50.1251,-39.4721C66.0633,-33.8381 87.0554,-26.4176 103.988,-20.4321"/>
<polygon fill="midnightblue" stroke="midnightblue" points="105.158,-23.7308 113.42,-17.0981 102.825,-17.131 105.158,-23.7308"/>
</g>
<!-- Node3 -->
<g id="node3" class="node"><title>Node3</title>
<g id="a_node3"><a xlink:href="mpi__dummy_8F90.html#ae6a5ef945f87c2c27849696b70f3af2a" target="_top" xlink:title="mpi_wtime">
<polygon fill="white" stroke="black" points="219,-76.5 219,-95.5 285,-95.5 285,-76.5 219,-76.5"/>
<text text-anchor="middle" x="252" y="-83.5" font-family="Helvetica,sans-Serif" font-size="10.00">mpi_wtime</text>
</a>
</g>
</g>
<!-- Node2&#45;&gt;Node3 -->
<g id="edge2" class="edge"><title>Node2&#45;&gt;Node3</title>
<path fill="none" stroke="midnightblue" d="M183.145,-86C191.621,-86 200.397,-86 208.712,-86"/>
<polygon fill="midnightblue" stroke="midnightblue" points="208.94,-89.5001 218.939,-86 208.939,-82.5001 208.94,-89.5001"/>
</g>
<!-- Node5 -->
<g id="node5" class="node"><title>Node5</title>
<g id="a_node5"><a xlink:href="comm__mpi_8F90.html#a4acb4d8e379294232e9219bec063d8f3" target="_top" xlink:title="nekgsync">
<polygon fill="white" stroke="black" points="221,-38.5 221,-57.5 283,-57.5 283,-38.5 221,-38.5"/>
<text text-anchor="middle" x="252" y="-45.5" font-family="Helvetica,sans-Serif" font-size="10.00">nekgsync</text>
</a>
</g>
</g>
<!-- Node4&#45;&gt;Node5 -->
<g id="edge4" class="edge"><title>Node4&#45;&gt;Node5</title>
<path fill="none" stroke="midnightblue" d="M154.572,-48C169.71,-48 191.408,-48 210.39,-48"/>
<polygon fill="midnightblue" stroke="midnightblue" points="210.597,-51.5001 220.597,-48 210.597,-44.5001 210.597,-51.5001"/>
</g>
<!-- Node6 -->
<g id="node6" class="node"><title>Node6</title>
<g id="a_node6"><a xlink:href="mpi__dummy_8F90.html#a070afe564196eb48413dbf1a9fbc99aa" target="_top" xlink:title="mpi_barrier">
<polygon fill="white" stroke="black" points="321,-38.5 321,-57.5 391,-57.5 391,-38.5 321,-38.5"/>
<text text-anchor="middle" x="356" y="-45.5" font-family="Helvetica,sans-Serif" font-size="10.00">mpi_barrier</text>
</a>
</g>
</g>
<!-- Node5&#45;&gt;Node6 -->
<g id="edge5" class="edge"><title>Node5&#45;&gt;Node6</title>
<path fill="none" stroke="midnightblue" d="M283.052,-48C291.769,-48 301.475,-48 310.864,-48"/>
<polygon fill="midnightblue" stroke="midnightblue" points="310.867,-51.5001 320.867,-48 310.867,-44.5001 310.867,-51.5001"/>
</g>
<!-- Node8 -->
<g id="node8" class="node"><title>Node8</title>
<g id="a_node8"><a xlink:href="connect1_8F90.html#aa1c9016b4c28e8a8512be6f6d67eefce" target="_top" xlink:title="ifcase in preprocessor notation ">
<polygon fill="white" stroke="black" points="229.5,-0.5 229.5,-19.5 274.5,-19.5 274.5,-0.5 229.5,-0.5"/>
<text text-anchor="middle" x="252" y="-7.5" font-family="Helvetica,sans-Serif" font-size="10.00">facind</text>
</a>
</g>
</g>
<!-- Node7&#45;&gt;Node8 -->
<g id="edge7" class="edge"><title>Node7&#45;&gt;Node8</title>
<path fill="none" stroke="midnightblue" d="M155.619,-10C173.121,-10 198.791,-10 219.092,-10"/>
<polygon fill="midnightblue" stroke="midnightblue" points="219.148,-13.5001 229.148,-10 219.148,-6.5001 219.148,-13.5001"/>
</g>
</g>
</svg>
