<?xml version="1.0" encoding="UTF-8" standalone="no"?>
<!DOCTYPE svg PUBLIC "-//W3C//DTD SVG 1.1//EN"
 "http://www.w3.org/Graphics/SVG/1.1/DTD/svg11.dtd">
<!-- Generated by graphviz version 2.38.0 (20140413.2041)
 -->
<!-- Title: nekasgn Pages: 1 -->
<svg width="1136pt" height="172pt"
 viewBox="0.00 0.00 1136.00 172.00" xmlns="http://www.w3.org/2000/svg" xmlns:xlink="http://www.w3.org/1999/xlink">
<g id="graph0" class="graph" transform="scale(1 1) rotate(0) translate(4 168)">
<title>nekasgn</title>
<polygon fill="white" stroke="none" points="-4,4 -4,-168 1132,-168 1132,4 -4,4"/>
<!-- Node1 -->
<g id="node1" class="node"><title>Node1</title>
<polygon fill="#bfbfbf" stroke="black" points="0,-87.5 0,-106.5 57,-106.5 57,-87.5 0,-87.5"/>
<text text-anchor="middle" x="28.5" y="-94.5" font-family="Helvetica,sans-Serif" font-size="10.00">nekasgn</text>
</g>
<!-- Node2 -->
<g id="node2" class="node"><title>Node2</title>
<g id="a_node2"><a xlink:href="bdry_8F90.html#a8988b35c52124e8bd28cae74f255e98d" target="_top" xlink:title="Apply Neumann boundary conditions to surface of scalar, S. Use IFIELD as a guide to which boundary co...">
<polygon fill="white" stroke="black" points="262,-68.5 262,-87.5 317,-87.5 317,-68.5 262,-68.5"/>
<text text-anchor="middle" x="289.5" y="-75.5" font-family="Helvetica,sans-Serif" font-size="10.00">bcneusc</text>
</a>
</g>
</g>
<!-- Node1&#45;&gt;Node2 -->
<g id="edge1" class="edge"><title>Node1&#45;&gt;Node2</title>
<path fill="none" stroke="midnightblue" d="M67.2301,-94.2322C120.241,-90.3433 215.456,-83.3584 261.758,-79.9618"/>
<polygon fill="midnightblue" stroke="midnightblue" points="66.9346,-90.7443 57.2175,-94.9667 67.4468,-97.7256 66.9346,-90.7443"/>
</g>
<!-- Node11 -->
<g id="node11" class="node"><title>Node11</title>
<g id="a_node11"><a xlink:href="navier1_8F90.html#acfa4c928e27d1e43ed8622586e4ed7e8" target="_top" xlink:title="nekuf">
<polygon fill="white" stroke="black" points="95.5,-144.5 95.5,-163.5 137.5,-163.5 137.5,-144.5 95.5,-144.5"/>
<text text-anchor="middle" x="116.5" y="-151.5" font-family="Helvetica,sans-Serif" font-size="10.00">nekuf</text>
</a>
</g>
</g>
<!-- Node1&#45;&gt;Node11 -->
<g id="edge11" class="edge"><title>Node1&#45;&gt;Node11</title>
<path fill="none" stroke="midnightblue" d="M52.5947,-112.307C68.0463,-122.548 87.8982,-135.706 101.127,-144.474"/>
<polygon fill="midnightblue" stroke="midnightblue" points="54.3578,-109.277 44.0887,-106.669 50.4905,-115.111 54.3578,-109.277"/>
</g>
<!-- Node19 -->
<g id="node19" class="node"><title>Node19</title>
<g id="a_node19"><a xlink:href="ic_8F90.html#a5b4e9125206f5ed1b277fdea8756ac22" target="_top" xlink:title="User specified fortran function (=0 if not specified) ">
<polygon fill="white" stroke="black" points="93,-21.5 93,-40.5 140,-40.5 140,-21.5 93,-21.5"/>
<text text-anchor="middle" x="116.5" y="-28.5" font-family="Helvetica,sans-Serif" font-size="10.00">nekuic</text>
</a>
</g>
</g>
<!-- Node1&#45;&gt;Node19 -->
<g id="edge21" class="edge"><title>Node1&#45;&gt;Node19</title>
<path fill="none" stroke="midnightblue" d="M50.1803,-81.1291C66.6658,-68.4774 89.207,-51.1784 103.038,-40.5639"/>
<polygon fill="midnightblue" stroke="midnightblue" points="47.9918,-78.3967 42.1896,-87.2615 52.2536,-83.9498 47.9918,-78.3967"/>
</g>
<!-- Node22 -->
<g id="node22" class="node"><title>Node22</title>
<g id="a_node22"><a xlink:href="conduct_8F90.html#acb64f74e02714984eec1179c3293fbcc" target="_top" xlink:title="Generate user&#45;specified volumetric source term (temp./p.s.) ">
<polygon fill="white" stroke="black" points="94,-106.5 94,-125.5 139,-125.5 139,-106.5 94,-106.5"/>
<text text-anchor="middle" x="116.5" y="-113.5" font-family="Helvetica,sans-Serif" font-size="10.00">nekuq</text>
</a>
</g>
</g>
<!-- Node1&#45;&gt;Node22 -->
<g id="edge25" class="edge"><title>Node1&#45;&gt;Node22</title>
<path fill="none" stroke="midnightblue" d="M66.9518,-105.274C76.1531,-107.307 85.699,-109.416 93.8662,-111.22"/>
<polygon fill="midnightblue" stroke="midnightblue" points="67.7039,-101.856 57.1843,-103.116 66.1938,-108.691 67.7039,-101.856"/>
</g>
<!-- Node3 -->
<g id="node3" class="node"><title>Node3</title>
<g id="a_node3"><a xlink:href="conduct_8F90.html#a74a7f053381975ed36df8ea959f3aa01" target="_top" xlink:title="Solve the convection&#45;diffusion equation for passive scalar IPSCAL. ">
<polygon fill="white" stroke="black" points="544,-68.5 544,-87.5 591,-87.5 591,-68.5 544,-68.5"/>
<text text-anchor="middle" x="567.5" y="-75.5" font-family="Helvetica,sans-Serif" font-size="10.00">cdscal</text>
</a>
</g>
</g>
<!-- Node2&#45;&gt;Node3 -->
<g id="edge2" class="edge"><title>Node2&#45;&gt;Node3</title>
<path fill="none" stroke="midnightblue" d="M325.566,-65.3617C334.403,-62.7279 343.953,-60.3448 353,-59 421.14,-48.8715 439.959,-48.2275 508,-59 520.129,-60.9203 533.166,-64.9495 543.848,-68.8054"/>
<polygon fill="midnightblue" stroke="midnightblue" points="324.435,-62.0484 315.955,-68.3999 326.545,-68.7229 324.435,-62.0484"/>
</g>
<!-- Node9 -->
<g id="node9" class="node"><title>Node9</title>
<g id="a_node9"><a xlink:href="navier1_8F90.html#a08e5b36029e39242bd7344bd10ed472c" target="_top" xlink:title="compute weak form of the laplacian operator including the boundary contribution ">
<polygon fill="white" stroke="black" points="355.5,-68.5 355.5,-87.5 421.5,-87.5 421.5,-68.5 355.5,-68.5"/>
<text text-anchor="middle" x="388.5" y="-75.5" font-family="Helvetica,sans-Serif" font-size="10.00">wlaplacian</text>
</a>
</g>
</g>
<!-- Node2&#45;&gt;Node9 -->
<g id="edge8" class="edge"><title>Node2&#45;&gt;Node9</title>
<path fill="none" stroke="midnightblue" d="M327.084,-78C336.31,-78 346.149,-78 355.15,-78"/>
<polygon fill="midnightblue" stroke="midnightblue" points="327.006,-74.5001 317.006,-78 327.006,-81.5001 327.006,-74.5001"/>
</g>
<!-- Node4 -->
<g id="node4" class="node"><title>Node4</title>
<g id="a_node4"><a xlink:href="drive2_8F90.html#acce80cd37f20e9b52729eb52d86a9c86" target="_top" xlink:title="Driver for temperature or passive scalar. ">
<polygon fill="white" stroke="black" points="633,-68.5 633,-87.5 671,-87.5 671,-68.5 633,-68.5"/>
<text text-anchor="middle" x="652" y="-75.5" font-family="Helvetica,sans-Serif" font-size="10.00">heat</text>
</a>
</g>
</g>
<!-- Node3&#45;&gt;Node4 -->
<g id="edge3" class="edge"><title>Node3&#45;&gt;Node4</title>
<path fill="none" stroke="midnightblue" d="M601.074,-78C611.913,-78 623.588,-78 632.921,-78"/>
<polygon fill="midnightblue" stroke="midnightblue" points="601.044,-74.5001 591.043,-78 601.043,-81.5001 601.044,-74.5001"/>
</g>
<!-- Node5 -->
<g id="node5" class="node"><title>Node5</title>
<g id="a_node5"><a xlink:href="drive1_8F90.html#ae177ea7efac97f35241521b782a671c0" target="_top" xlink:title="take a single time&#45;step ">
<polygon fill="white" stroke="black" points="713,-87.5 713,-106.5 793,-106.5 793,-87.5 713,-87.5"/>
<text text-anchor="middle" x="753" y="-94.5" font-family="Helvetica,sans-Serif" font-size="10.00">nek_advance</text>
</a>
</g>
</g>
<!-- Node4&#45;&gt;Node5 -->
<g id="edge4" class="edge"><title>Node4&#45;&gt;Node5</title>
<path fill="none" stroke="midnightblue" d="M681.142,-83.4011C690.93,-85.2795 702.096,-87.4225 712.624,-89.4429"/>
<polygon fill="midnightblue" stroke="midnightblue" points="681.639,-79.9325 671.158,-81.4849 680.319,-86.807 681.639,-79.9325"/>
</g>
<!-- Node6 -->
<g id="node6" class="node"><title>Node6</title>
<g id="a_node6"><a xlink:href="drive1_8F90.html#a18d3e839786263fc4cf91f7eeb714371" target="_top" xlink:title="take a chunk of time&#45;steps ">
<polygon fill="white" stroke="black" points="829,-59.5 829,-78.5 942,-78.5 942,-59.5 829,-59.5"/>
<text text-anchor="middle" x="885.5" y="-66.5" font-family="Helvetica,sans-Serif" font-size="10.00">nek__multi_advance</text>
</a>
</g>
</g>
<!-- Node5&#45;&gt;Node6 -->
<g id="edge5" class="edge"><title>Node5&#45;&gt;Node6</title>
<path fill="none" stroke="midnightblue" d="M803.076,-86.4703C815.155,-83.8785 828.024,-81.1174 839.88,-78.5736"/>
<polygon fill="midnightblue" stroke="midnightblue" points="802.198,-83.079 793.154,-88.5991 803.666,-89.9233 802.198,-83.079"/>
</g>
<!-- Node7 -->
<g id="node7" class="node"><title>Node7</title>
<g id="a_node7"><a xlink:href="drive1_8F90.html#a6ad57e0cf728f343e371ef8c9a02cd8a" target="_top" xlink:title="integrate the governing equations in time ">
<polygon fill="white" stroke="black" points="978,-52.5 978,-71.5 1043,-71.5 1043,-52.5 978,-52.5"/>
<text text-anchor="middle" x="1010.5" y="-59.5" font-family="Helvetica,sans-Serif" font-size="10.00">nek_solve</text>
</a>
</g>
</g>
<!-- Node6&#45;&gt;Node7 -->
<g id="edge6" class="edge"><title>Node6&#45;&gt;Node7</title>
<path fill="none" stroke="midnightblue" d="M952.282,-65.2563C961.164,-64.7508 969.927,-64.2521 977.824,-63.8027"/>
<polygon fill="midnightblue" stroke="midnightblue" points="952.027,-61.7651 942.242,-65.8277 952.425,-68.7538 952.027,-61.7651"/>
</g>
<!-- Node8 -->
<g id="node8" class="node"><title>Node8</title>
<g id="a_node8"><a xlink:href="drive_8F90.html#a13048bf28dd0734640412d69349e3857" target="_top" xlink:title="NEK5000: Spectral Element Computational Fluid Dynamics Solver COPYRIGHT (c) 2008&#45;2010 UCHICAGO ARGONN...">
<polygon fill="white" stroke="black" points="1079,-29.5 1079,-48.5 1128,-48.5 1128,-29.5 1079,-29.5"/>
<text text-anchor="middle" x="1103.5" y="-36.5" font-family="Helvetica,sans-Serif" font-size="10.00">nekton</text>
</a>
</g>
</g>
<!-- Node7&#45;&gt;Node8 -->
<g id="edge7" class="edge"><title>Node7&#45;&gt;Node8</title>
<path fill="none" stroke="midnightblue" d="M1052.91,-51.5347C1061.76,-49.2973 1070.82,-47.0072 1078.73,-45.0068"/>
<polygon fill="midnightblue" stroke="midnightblue" points="1051.91,-48.1765 1043.07,-54.0203 1053.62,-54.9631 1051.91,-48.1765"/>
</g>
<!-- Node10 -->
<g id="node10" class="node"><title>Node10</title>
<g id="a_node10"><a xlink:href="makeq_8F90.html#ad52d9adde8f010af2d0a8c1a55543eeb" target="_top" xlink:title="Generate forcing function for the solution of a passive scalar. !! NOTE: Do not change the content of...">
<polygon fill="white" stroke="black" points="460,-68.5 460,-87.5 508,-87.5 508,-68.5 460,-68.5"/>
<text text-anchor="middle" x="484" y="-75.5" font-family="Helvetica,sans-Serif" font-size="10.00">makeq</text>
</a>
</g>
</g>
<!-- Node9&#45;&gt;Node10 -->
<g id="edge9" class="edge"><title>Node9&#45;&gt;Node10</title>
<path fill="none" stroke="midnightblue" d="M431.948,-78C441.575,-78 451.446,-78 459.912,-78"/>
<polygon fill="midnightblue" stroke="midnightblue" points="431.677,-74.5001 421.677,-78 431.677,-81.5001 431.677,-74.5001"/>
</g>
<!-- Node10&#45;&gt;Node3 -->
<g id="edge10" class="edge"><title>Node10&#45;&gt;Node3</title>
<path fill="none" stroke="midnightblue" d="M518.293,-78C526.894,-78 535.954,-78 543.869,-78"/>
<polygon fill="midnightblue" stroke="midnightblue" points="518.137,-74.5001 508.137,-78 518.137,-81.5001 518.137,-74.5001"/>
</g>
<!-- Node12 -->
<g id="node12" class="node"><title>Node12</title>
<g id="a_node12"><a xlink:href="navier1_8F90.html#a04edbb4ba3cfada4513a76a4e65a5561" target="_top" xlink:title="Compute and add: (1) user specified forcing function (FX,FY,FZ) ">
<polygon fill="white" stroke="black" points="363.5,-144.5 363.5,-163.5 413.5,-163.5 413.5,-144.5 363.5,-144.5"/>
<text text-anchor="middle" x="388.5" y="-151.5" font-family="Helvetica,sans-Serif" font-size="10.00">makeuf</text>
</a>
</g>
</g>
<!-- Node11&#45;&gt;Node12 -->
<g id="edge12" class="edge"><title>Node11&#45;&gt;Node12</title>
<path fill="none" stroke="midnightblue" d="M148.127,-154C202.27,-154 313.816,-154 363.134,-154"/>
<polygon fill="midnightblue" stroke="midnightblue" points="147.794,-150.5 137.794,-154 147.794,-157.5 147.794,-150.5"/>
</g>
<!-- Node13 -->
<g id="node13" class="node"><title>Node13</title>
<g id="a_node13"><a xlink:href="navier1_8F90.html#a83189b3d1938d87f00ace2e7e05d9e4c" target="_top" xlink:title="Compute and add: (1) user specified forcing function (FX,FY,FZ) (2) driving force due to natural conv...">
<polygon fill="white" stroke="black" points="461.5,-106.5 461.5,-125.5 506.5,-125.5 506.5,-106.5 461.5,-106.5"/>
<text text-anchor="middle" x="484" y="-113.5" font-family="Helvetica,sans-Serif" font-size="10.00">makef</text>
</a>
</g>
</g>
<!-- Node12&#45;&gt;Node13 -->
<g id="edge13" class="edge"><title>Node12&#45;&gt;Node13</title>
<path fill="none" stroke="midnightblue" d="M422.568,-140.56C435.44,-135.329 449.829,-129.481 461.336,-124.805"/>
<polygon fill="midnightblue" stroke="midnightblue" points="421.04,-137.403 413.094,-144.411 423.676,-143.888 421.04,-137.403"/>
</g>
<!-- Node16 -->
<g id="node16" class="node"><title>Node16</title>
<g id="a_node16"><a xlink:href="subs1_8F90.html#ae9a3fbc5bc373045963d36015efb448d" target="_top" xlink:title="Compute new timestep based on CFL&#45;condition. ">
<polygon fill="white" stroke="black" points="461.5,-144.5 461.5,-163.5 506.5,-163.5 506.5,-144.5 461.5,-144.5"/>
<text text-anchor="middle" x="484" y="-151.5" font-family="Helvetica,sans-Serif" font-size="10.00">setdtc</text>
</a>
</g>
</g>
<!-- Node12&#45;&gt;Node16 -->
<g id="edge17" class="edge"><title>Node12&#45;&gt;Node16</title>
<path fill="none" stroke="midnightblue" d="M423.717,-154C436.255,-154 450.091,-154 461.241,-154"/>
<polygon fill="midnightblue" stroke="midnightblue" points="423.579,-150.5 413.579,-154 423.579,-157.5 423.579,-150.5"/>
</g>
<!-- Node14 -->
<g id="node14" class="node"><title>Node14</title>
<g id="a_node14"><a xlink:href="plan4_8F90.html#a5cbf852b67e73bfa44e028338c4d57ad" target="_top" xlink:title="Splitting scheme . ">
<polygon fill="white" stroke="black" points="546,-106.5 546,-125.5 589,-125.5 589,-106.5 546,-106.5"/>
<text text-anchor="middle" x="567.5" y="-113.5" font-family="Helvetica,sans-Serif" font-size="10.00">plan4</text>
</a>
</g>
</g>
<!-- Node13&#45;&gt;Node14 -->
<g id="edge14" class="edge"><title>Node13&#45;&gt;Node14</title>
<path fill="none" stroke="midnightblue" d="M516.951,-116C526.622,-116 536.986,-116 545.723,-116"/>
<polygon fill="midnightblue" stroke="midnightblue" points="516.841,-112.5 506.841,-116 516.84,-119.5 516.841,-112.5"/>
</g>
<!-- Node15 -->
<g id="node15" class="node"><title>Node15</title>
<g id="a_node15"><a xlink:href="drive2_8F90.html#ab0aeca9ad3db8be87a01ba29d069d71e" target="_top" xlink:title="Driver for solving the incompressible Navier&#45;Stokes equations. ">
<polygon fill="white" stroke="black" points="634.5,-106.5 634.5,-125.5 669.5,-125.5 669.5,-106.5 634.5,-106.5"/>
<text text-anchor="middle" x="652" y="-113.5" font-family="Helvetica,sans-Serif" font-size="10.00">fluid</text>
</a>
</g>
</g>
<!-- Node14&#45;&gt;Node15 -->
<g id="edge15" class="edge"><title>Node14&#45;&gt;Node15</title>
<path fill="none" stroke="midnightblue" d="M599.325,-116C611.196,-116 624.3,-116 634.342,-116"/>
<polygon fill="midnightblue" stroke="midnightblue" points="599.318,-112.5 589.318,-116 599.318,-119.5 599.318,-112.5"/>
</g>
<!-- Node15&#45;&gt;Node5 -->
<g id="edge16" class="edge"><title>Node15&#45;&gt;Node5</title>
<path fill="none" stroke="midnightblue" d="M679.721,-110.872C689.915,-108.915 701.758,-106.642 712.87,-104.51"/>
<polygon fill="midnightblue" stroke="midnightblue" points="678.955,-107.455 669.794,-112.777 680.274,-114.329 678.955,-107.455"/>
</g>
<!-- Node17 -->
<g id="node17" class="node"><title>Node17</title>
<g id="a_node17"><a xlink:href="subs1_8F90.html#a156860172f4c95a65ff7fb5b447d472e" target="_top" xlink:title="Set the new time step. All cases covered. ">
<polygon fill="white" stroke="black" points="547.5,-144.5 547.5,-163.5 587.5,-163.5 587.5,-144.5 547.5,-144.5"/>
<text text-anchor="middle" x="567.5" y="-151.5" font-family="Helvetica,sans-Serif" font-size="10.00">setdt</text>
</a>
</g>
</g>
<!-- Node16&#45;&gt;Node17 -->
<g id="edge18" class="edge"><title>Node16&#45;&gt;Node17</title>
<path fill="none" stroke="midnightblue" d="M517.12,-154C527.36,-154 538.362,-154 547.376,-154"/>
<polygon fill="midnightblue" stroke="midnightblue" points="516.841,-150.5 506.841,-154 516.84,-157.5 516.841,-150.5"/>
</g>
<!-- Node18 -->
<g id="node18" class="node"><title>Node18</title>
<g id="a_node18"><a xlink:href="drive2_8F90.html#a6f905c80a0a2b0d5ed7f0449eda3e127" target="_top" xlink:title="setup time&#45;stepping ">
<polygon fill="white" stroke="black" points="627,-144.5 627,-163.5 677,-163.5 677,-144.5 627,-144.5"/>
<text text-anchor="middle" x="652" y="-151.5" font-family="Helvetica,sans-Serif" font-size="10.00">settime</text>
</a>
</g>
</g>
<!-- Node17&#45;&gt;Node18 -->
<g id="edge19" class="edge"><title>Node17&#45;&gt;Node18</title>
<path fill="none" stroke="midnightblue" d="M597.876,-154C607.402,-154 617.851,-154 626.944,-154"/>
<polygon fill="midnightblue" stroke="midnightblue" points="597.635,-150.5 587.635,-154 597.634,-157.5 597.635,-150.5"/>
</g>
<!-- Node18&#45;&gt;Node5 -->
<g id="edge20" class="edge"><title>Node18&#45;&gt;Node5</title>
<path fill="none" stroke="midnightblue" d="M678.594,-139.264C696.516,-128.945 719.941,-115.458 735.454,-106.526"/>
<polygon fill="midnightblue" stroke="midnightblue" points="676.714,-136.308 669.794,-144.331 680.207,-142.374 676.714,-136.308"/>
</g>
<!-- Node20 -->
<g id="node20" class="node"><title>Node20</title>
<g id="a_node20"><a xlink:href="ic_8F90.html#acaefa33e86633e4a7a4b28347d4620d1" target="_top" xlink:title="Set initial conditions. ">
<polygon fill="white" stroke="black" points="179,-11.5 179,-30.5 223,-30.5 223,-11.5 179,-11.5"/>
<text text-anchor="middle" x="201" y="-18.5" font-family="Helvetica,sans-Serif" font-size="10.00">setics</text>
</a>
</g>
</g>
<!-- Node19&#45;&gt;Node20 -->
<g id="edge22" class="edge"><title>Node19&#45;&gt;Node20</title>
<path fill="none" stroke="midnightblue" d="M150.172,-27.0398C159.842,-25.8677 170.17,-24.6157 178.901,-23.5574"/>
<polygon fill="midnightblue" stroke="midnightblue" points="149.55,-23.5895 140.043,-28.2675 150.392,-30.5386 149.55,-23.5895"/>
</g>
<!-- Node21 -->
<g id="node21" class="node"><title>Node21</title>
<g id="a_node21"><a xlink:href="drive1_8F90.html#a87bd37ae2c18426f28f35cc3f24e4355" target="_top" xlink:title="initialize nek ">
<polygon fill="white" stroke="black" points="726.5,-0.5 726.5,-19.5 779.5,-19.5 779.5,-0.5 726.5,-0.5"/>
<text text-anchor="middle" x="753" y="-7.5" font-family="Helvetica,sans-Serif" font-size="10.00">nek_init</text>
</a>
</g>
</g>
<!-- Node20&#45;&gt;Node21 -->
<g id="edge23" class="edge"><title>Node20&#45;&gt;Node21</title>
<path fill="none" stroke="midnightblue" d="M233.16,-15.8462C269.937,-10.2196 332.99,-2 387.5,-2 387.5,-2 387.5,-2 568.5,-2 624.942,-2 691.056,-5.82434 726.486,-8.18468"/>
<polygon fill="midnightblue" stroke="midnightblue" points="232.409,-12.4211 223.071,-17.4262 233.492,-19.3368 232.409,-12.4211"/>
</g>
<!-- Node21&#45;&gt;Node8 -->
<g id="edge24" class="edge"><title>Node21&#45;&gt;Node8</title>
<path fill="none" stroke="midnightblue" d="M789.891,-12.9866C861.139,-18.9154 1018.72,-32.0283 1078.69,-37.019"/>
<polygon fill="midnightblue" stroke="midnightblue" points="789.882,-9.47386 779.626,-12.1324 789.301,-16.4497 789.882,-9.47386"/>
</g>
<!-- Node23 -->
<g id="node23" class="node"><title>Node23</title>
<g id="a_node23"><a xlink:href="conduct_8F90.html#af0e288fad495f966ca997a13837ba9f0" target="_top" xlink:title="Set user specified volumetric forcing function (e.g. heat source). ">
<polygon fill="white" stroke="black" points="176,-106.5 176,-125.5 226,-125.5 226,-106.5 176,-106.5"/>
<text text-anchor="middle" x="201" y="-113.5" font-family="Helvetica,sans-Serif" font-size="10.00">setqvol</text>
</a>
</g>
</g>
<!-- Node22&#45;&gt;Node23 -->
<g id="edge26" class="edge"><title>Node22&#45;&gt;Node23</title>
<path fill="none" stroke="midnightblue" d="M149.179,-116C158.033,-116 167.51,-116 175.853,-116"/>
<polygon fill="midnightblue" stroke="midnightblue" points="149.176,-112.5 139.176,-116 149.176,-119.5 149.176,-112.5"/>
</g>
<!-- Node24 -->
<g id="node24" class="node"><title>Node24</title>
<g id="a_node24"><a xlink:href="conduct_8F90.html#aa167d71e770cd729d61c955a42f4a2bd" target="_top" xlink:title="Fill up user defined forcing function and collocate will the mass matrix on the Gauss&#45;Lobatto mesh...">
<polygon fill="white" stroke="black" points="263,-106.5 263,-125.5 316,-125.5 316,-106.5 263,-106.5"/>
<text text-anchor="middle" x="289.5" y="-113.5" font-family="Helvetica,sans-Serif" font-size="10.00">makeuq</text>
</a>
</g>
</g>
<!-- Node23&#45;&gt;Node24 -->
<g id="edge27" class="edge"><title>Node23&#45;&gt;Node24</title>
<path fill="none" stroke="midnightblue" d="M236.145,-116C244.995,-116 254.378,-116 262.719,-116"/>
<polygon fill="midnightblue" stroke="midnightblue" points="236.095,-112.5 226.095,-116 236.095,-119.5 236.095,-112.5"/>
</g>
<!-- Node25 -->
<g id="node25" class="node"><title>Node25</title>
<g id="a_node25"><a xlink:href="makeq__aux_8F90.html#a5175a1919b169361f171b8909a169863" target="_top" xlink:title="makeq_aux">
<polygon fill="white" stroke="black" points="353,-106.5 353,-125.5 424,-125.5 424,-106.5 353,-106.5"/>
<text text-anchor="middle" x="388.5" y="-113.5" font-family="Helvetica,sans-Serif" font-size="10.00">makeq_aux</text>
</a>
</g>
</g>
<!-- Node24&#45;&gt;Node25 -->
<g id="edge28" class="edge"><title>Node24&#45;&gt;Node25</title>
<path fill="none" stroke="midnightblue" d="M326.42,-116C335.066,-116 344.285,-116 352.87,-116"/>
<polygon fill="midnightblue" stroke="midnightblue" points="326.24,-112.5 316.24,-116 326.24,-119.5 326.24,-112.5"/>
</g>
<!-- Node25&#45;&gt;Node10 -->
<g id="edge29" class="edge"><title>Node25&#45;&gt;Node10</title>
<path fill="none" stroke="midnightblue" d="M422.574,-102.558C434.854,-97.5672 448.516,-92.0151 459.737,-87.4543"/>
<polygon fill="midnightblue" stroke="midnightblue" points="421.04,-99.4034 413.094,-106.411 423.676,-105.888 421.04,-99.4034"/>
</g>
</g>
</svg>
