<?xml version="1.0" encoding="UTF-8" standalone="no"?>
<!DOCTYPE svg PUBLIC "-//W3C//DTD SVG 1.1//EN"
 "http://www.w3.org/Graphics/SVG/1.1/DTD/svg11.dtd">
<!-- Generated by graphviz version 2.38.0 (20140413.2041)
 -->
<!-- Title: chknord Pages: 1 -->
<svg width="325pt" height="66pt"
 viewBox="0.00 0.00 325.00 66.00" xmlns="http://www.w3.org/2000/svg" xmlns:xlink="http://www.w3.org/1999/xlink">
<g id="graph0" class="graph" transform="scale(1 1) rotate(0) translate(4 62)">
<title>chknord</title>
<polygon fill="white" stroke="none" points="-4,4 -4,-62 321,-62 321,4 -4,4"/>
<!-- Node1 -->
<g id="node1" class="node"><title>Node1</title>
<polygon fill="#bfbfbf" stroke="black" points="0,-19.5 0,-38.5 55,-38.5 55,-19.5 0,-19.5"/>
<text text-anchor="middle" x="27.5" y="-26.5" font-family="Helvetica,sans-Serif" font-size="10.00">chknord</text>
</g>
<!-- Node2 -->
<g id="node2" class="node"><title>Node2</title>
<g id="a_node2"><a xlink:href="bdry_8F90.html#aff6088943a1cc02fb036375d9008b4c7" target="_top" xlink:title="Zero out masks corresponding to Dirichlet boundary points. ">
<polygon fill="white" stroke="black" points="91,-38.5 91,-57.5 143,-57.5 143,-38.5 91,-38.5"/>
<text text-anchor="middle" x="117" y="-45.5" font-family="Helvetica,sans-Serif" font-size="10.00">bcmask</text>
</a>
</g>
</g>
<!-- Node1&#45;&gt;Node2 -->
<g id="edge1" class="edge"><title>Node1&#45;&gt;Node2</title>
<path fill="none" stroke="midnightblue" d="M65.1574,-36.9599C73.8375,-38.8447 82.9003,-40.8126 90.9297,-42.5562"/>
<polygon fill="midnightblue" stroke="midnightblue" points="65.7433,-33.5056 55.2283,-34.8039 64.2579,-40.3462 65.7433,-33.5056"/>
</g>
<!-- Node5 -->
<g id="node5" class="node"><title>Node5</title>
<g id="a_node5"><a xlink:href="bdry_8F90.html#a951bdf0cc92491425c58d31404dca3ad" target="_top" xlink:title="Subroutine to initialize logical flags. ">
<polygon fill="white" stroke="black" points="94.5,-0.5 94.5,-19.5 139.5,-19.5 139.5,-0.5 94.5,-0.5"/>
<text text-anchor="middle" x="117" y="-7.5" font-family="Helvetica,sans-Serif" font-size="10.00">setlog</text>
</a>
</g>
</g>
<!-- Node1&#45;&gt;Node5 -->
<g id="edge4" class="edge"><title>Node1&#45;&gt;Node5</title>
<path fill="none" stroke="midnightblue" d="M65.3002,-21.0091C75.22,-18.8551 85.6289,-16.5949 94.4164,-14.6867"/>
<polygon fill="midnightblue" stroke="midnightblue" points="64.2579,-17.6538 55.2283,-23.1961 65.7433,-24.4944 64.2579,-17.6538"/>
</g>
<!-- Node3 -->
<g id="node3" class="node"><title>Node3</title>
<g id="a_node3"><a xlink:href="drive1_8F90.html#a87bd37ae2c18426f28f35cc3f24e4355" target="_top" xlink:title="initialize nek ">
<polygon fill="white" stroke="black" points="179,-19.5 179,-38.5 232,-38.5 232,-19.5 179,-19.5"/>
<text text-anchor="middle" x="205.5" y="-26.5" font-family="Helvetica,sans-Serif" font-size="10.00">nek_init</text>
</a>
</g>
</g>
<!-- Node2&#45;&gt;Node3 -->
<g id="edge2" class="edge"><title>Node2&#45;&gt;Node3</title>
<path fill="none" stroke="midnightblue" d="M152.926,-40.3285C161.622,-38.4182 170.786,-36.4055 178.937,-34.6151"/>
<polygon fill="midnightblue" stroke="midnightblue" points="152.036,-36.9404 143.019,-42.5044 153.537,-43.7775 152.036,-36.9404"/>
</g>
<!-- Node4 -->
<g id="node4" class="node"><title>Node4</title>
<g id="a_node4"><a xlink:href="drive_8F90.html#a13048bf28dd0734640412d69349e3857" target="_top" xlink:title="NEK5000: Spectral Element Computational Fluid Dynamics Solver COPYRIGHT (c) 2008&#45;2010 UCHICAGO ARGONN...">
<polygon fill="white" stroke="black" points="268,-19.5 268,-38.5 317,-38.5 317,-19.5 268,-19.5"/>
<text text-anchor="middle" x="292.5" y="-26.5" font-family="Helvetica,sans-Serif" font-size="10.00">nekton</text>
</a>
</g>
</g>
<!-- Node3&#45;&gt;Node4 -->
<g id="edge3" class="edge"><title>Node3&#45;&gt;Node4</title>
<path fill="none" stroke="midnightblue" d="M242.227,-29C250.846,-29 259.845,-29 267.759,-29"/>
<polygon fill="midnightblue" stroke="midnightblue" points="242.003,-25.5001 232.003,-29 242.003,-32.5001 242.003,-25.5001"/>
</g>
<!-- Node5&#45;&gt;Node3 -->
<g id="edge5" class="edge"><title>Node5&#45;&gt;Node3</title>
<path fill="none" stroke="midnightblue" d="M149.835,-16.9926C159.441,-19.1026 169.856,-21.3903 178.993,-23.3973"/>
<polygon fill="midnightblue" stroke="midnightblue" points="150.346,-13.5215 139.828,-14.7945 148.844,-20.3585 150.346,-13.5215"/>
</g>
</g>
</svg>
