<?xml version="1.0" encoding="UTF-8" standalone="no"?>
<!DOCTYPE svg PUBLIC "-//W3C//DTD SVG 1.1//EN"
 "http://www.w3.org/Graphics/SVG/1.1/DTD/svg11.dtd">
<!-- Generated by graphviz version 2.38.0 (20140413.2041)
 -->
<!-- Title: byte_write_mpi Pages: 1 -->
<svg width="1439pt" height="246pt"
 viewBox="0.00 0.00 1439.00 246.00" xmlns="http://www.w3.org/2000/svg" xmlns:xlink="http://www.w3.org/1999/xlink">
<g id="graph0" class="graph" transform="scale(1 1) rotate(0) translate(4 242)">
<title>byte_write_mpi</title>
<polygon fill="white" stroke="none" points="-4,4 -4,-242 1435,-242 1435,4 -4,4"/>
<!-- Node1 -->
<g id="node1" class="node"><title>Node1</title>
<polygon fill="#bfbfbf" stroke="black" points="0,-180.5 0,-199.5 87,-199.5 87,-180.5 0,-180.5"/>
<text text-anchor="middle" x="43.5" y="-187.5" font-family="Helvetica,sans-Serif" font-size="10.00">byte_write_mpi</text>
</g>
<!-- Node2 -->
<g id="node2" class="node"><title>Node2</title>
<g id="a_node2"><a xlink:href="prepost_8F90.html#a11cc22eaaef2974cda6a66817880cc13" target="_top" xlink:title="mfo_mdatas">
<polygon fill="white" stroke="black" points="128,-218.5 128,-237.5 202,-237.5 202,-218.5 128,-218.5"/>
<text text-anchor="middle" x="165" y="-225.5" font-family="Helvetica,sans-Serif" font-size="10.00">mfo_mdatas</text>
</a>
</g>
</g>
<!-- Node1&#45;&gt;Node2 -->
<g id="edge1" class="edge"><title>Node1&#45;&gt;Node2</title>
<path fill="none" stroke="midnightblue" d="M84.3766,-202.68C100.523,-207.815 118.854,-213.644 133.855,-218.414"/>
<polygon fill="midnightblue" stroke="midnightblue" points="85.2453,-199.284 74.6549,-199.589 83.124,-205.955 85.2453,-199.284"/>
</g>
<!-- Node20 -->
<g id="node20" class="node"><title>Node20</title>
<g id="a_node20"><a xlink:href="prepost_8F90.html#a604e4beb6bdb81fa2e0633e1233bc1fe" target="_top" xlink:title="mfo_mdatav">
<polygon fill="white" stroke="black" points="128,-180.5 128,-199.5 202,-199.5 202,-180.5 128,-180.5"/>
<text text-anchor="middle" x="165" y="-187.5" font-family="Helvetica,sans-Serif" font-size="10.00">mfo_mdatav</text>
</a>
</g>
</g>
<!-- Node1&#45;&gt;Node20 -->
<g id="edge24" class="edge"><title>Node1&#45;&gt;Node20</title>
<path fill="none" stroke="midnightblue" d="M97.4319,-190C107.695,-190 118.231,-190 127.805,-190"/>
<polygon fill="midnightblue" stroke="midnightblue" points="97.3047,-186.5 87.3047,-190 97.3047,-193.5 97.3047,-186.5"/>
</g>
<!-- Node21 -->
<g id="node21" class="node"><title>Node21</title>
<g id="a_node21"><a xlink:href="prepost_8F90.html#add41841b0b73cf28554519f93a59c688" target="_top" xlink:title="write hdr, byte key, els. ">
<polygon fill="white" stroke="black" points="123,-142.5 123,-161.5 207,-161.5 207,-142.5 123,-142.5"/>
<text text-anchor="middle" x="165" y="-149.5" font-family="Helvetica,sans-Serif" font-size="10.00">mfo_write_hdr</text>
</a>
</g>
</g>
<!-- Node1&#45;&gt;Node21 -->
<g id="edge26" class="edge"><title>Node1&#45;&gt;Node21</title>
<path fill="none" stroke="midnightblue" d="M84.3766,-177.32C100.523,-172.185 118.854,-166.356 133.855,-161.586"/>
<polygon fill="midnightblue" stroke="midnightblue" points="83.124,-174.045 74.6549,-180.411 85.2453,-180.716 83.124,-174.045"/>
</g>
<!-- Node3 -->
<g id="node3" class="node"><title>Node3</title>
<g id="a_node3"><a xlink:href="prepost_8F90.html#a9872fbccba1ed7b2932227287629cf2b" target="_top" xlink:title="mult&#45;file output ">
<polygon fill="white" stroke="black" points="243,-180.5 243,-199.5 308,-199.5 308,-180.5 243,-180.5"/>
<text text-anchor="middle" x="275.5" y="-187.5" font-family="Helvetica,sans-Serif" font-size="10.00">mfo_outfld</text>
</a>
</g>
</g>
<!-- Node2&#45;&gt;Node3 -->
<g id="edge2" class="edge"><title>Node2&#45;&gt;Node3</title>
<path fill="none" stroke="midnightblue" d="M203.038,-215.028C217.493,-209.966 233.767,-204.266 247.13,-199.586"/>
<polygon fill="midnightblue" stroke="midnightblue" points="201.66,-211.802 193.379,-218.411 203.974,-218.409 201.66,-211.802"/>
</g>
<!-- Node4 -->
<g id="node4" class="node"><title>Node4</title>
<g id="a_node4"><a xlink:href="prepost_8F90.html#a78b0361cf9ff06bfe5020c2114ddc924" target="_top" xlink:title="output .fld file ">
<polygon fill="white" stroke="black" points="344,-180.5 344,-199.5 386,-199.5 386,-180.5 344,-180.5"/>
<text text-anchor="middle" x="365" y="-187.5" font-family="Helvetica,sans-Serif" font-size="10.00">outfld</text>
</a>
</g>
</g>
<!-- Node3&#45;&gt;Node4 -->
<g id="edge3" class="edge"><title>Node3&#45;&gt;Node4</title>
<path fill="none" stroke="midnightblue" d="M318.101,-190C327.086,-190 336.192,-190 343.898,-190"/>
<polygon fill="midnightblue" stroke="midnightblue" points="318.09,-186.5 308.09,-190 318.089,-193.5 318.09,-186.5"/>
</g>
<!-- Node5 -->
<g id="node5" class="node"><title>Node5</title>
<g id="a_node5"><a xlink:href="prepost_8F90.html#a4a3b0e4ce35b3381281c0839e5846370" target="_top" xlink:title="Store results for later postprocessing. Recent updates: p65 now indicates the number of parallel i/o ...">
<polygon fill="white" stroke="black" points="422,-180.5 422,-199.5 475,-199.5 475,-180.5 422,-180.5"/>
<text text-anchor="middle" x="448.5" y="-187.5" font-family="Helvetica,sans-Serif" font-size="10.00">prepost</text>
</a>
</g>
</g>
<!-- Node4&#45;&gt;Node5 -->
<g id="edge4" class="edge"><title>Node4&#45;&gt;Node5</title>
<path fill="none" stroke="midnightblue" d="M396.288,-190C404.653,-190 413.648,-190 421.73,-190"/>
<polygon fill="midnightblue" stroke="midnightblue" points="396.146,-186.5 386.146,-190 396.146,-193.5 396.146,-186.5"/>
</g>
<!-- Node6 -->
<g id="node6" class="node"><title>Node6</title>
<g id="a_node6"><a xlink:href="drive1_8F90.html#a6ad57e0cf728f343e371ef8c9a02cd8a" target="_top" xlink:title="integrate the governing equations in time ">
<polygon fill="white" stroke="black" points="1281,-161.5 1281,-180.5 1346,-180.5 1346,-161.5 1281,-161.5"/>
<text text-anchor="middle" x="1313.5" y="-168.5" font-family="Helvetica,sans-Serif" font-size="10.00">nek_solve</text>
</a>
</g>
</g>
<!-- Node5&#45;&gt;Node6 -->
<g id="edge5" class="edge"><title>Node5&#45;&gt;Node6</title>
<path fill="none" stroke="midnightblue" d="M485.223,-196.04C521.269,-201.603 578.582,-209 628.5,-209 628.5,-209 628.5,-209 1039,-209 1130.94,-209 1154.59,-206.748 1245,-190 1257.69,-187.649 1271.44,-183.988 1283.2,-180.504"/>
<polygon fill="midnightblue" stroke="midnightblue" points="485.622,-192.559 475.198,-194.455 484.529,-199.473 485.622,-192.559"/>
</g>
<!-- Node8 -->
<g id="node8" class="node"><title>Node8</title>
<g id="a_node8"><a xlink:href="prepost_8F90.html#aaf4c0f2e1790302116a4c719c2eb50ff" target="_top" xlink:title="outpost2">
<polygon fill="white" stroke="black" points="511,-161.5 511,-180.5 568,-180.5 568,-161.5 511,-161.5"/>
<text text-anchor="middle" x="539.5" y="-168.5" font-family="Helvetica,sans-Serif" font-size="10.00">outpost2</text>
</a>
</g>
</g>
<!-- Node5&#45;&gt;Node8 -->
<g id="edge7" class="edge"><title>Node5&#45;&gt;Node8</title>
<path fill="none" stroke="midnightblue" d="M485.063,-182.408C493.682,-180.568 502.766,-178.629 510.951,-176.881"/>
<polygon fill="midnightblue" stroke="midnightblue" points="484.291,-178.994 475.242,-184.504 485.753,-185.839 484.291,-178.994"/>
</g>
<!-- Node7 -->
<g id="node7" class="node"><title>Node7</title>
<g id="a_node7"><a xlink:href="drive_8F90.html#a13048bf28dd0734640412d69349e3857" target="_top" xlink:title="NEK5000: Spectral Element Computational Fluid Dynamics Solver COPYRIGHT (c) 2008&#45;2010 UCHICAGO ARGONN...">
<polygon fill="white" stroke="black" points="1382,-123.5 1382,-142.5 1431,-142.5 1431,-123.5 1382,-123.5"/>
<text text-anchor="middle" x="1406.5" y="-130.5" font-family="Helvetica,sans-Serif" font-size="10.00">nekton</text>
</a>
</g>
</g>
<!-- Node6&#45;&gt;Node7 -->
<g id="edge6" class="edge"><title>Node6&#45;&gt;Node7</title>
<path fill="none" stroke="midnightblue" d="M1346.97,-157.441C1358.73,-152.529 1371.77,-147.086 1382.54,-142.586"/>
<polygon fill="midnightblue" stroke="midnightblue" points="1345.34,-154.328 1337.46,-161.411 1348.04,-160.787 1345.34,-154.328"/>
</g>
<!-- Node9 -->
<g id="node9" class="node"><title>Node9</title>
<g id="a_node9"><a xlink:href="prepost_8F90.html#aacb528c0b28bc79dff8db48d7ae9ac64" target="_top" xlink:title="outpost">
<polygon fill="white" stroke="black" points="604,-142.5 604,-161.5 655,-161.5 655,-142.5 604,-142.5"/>
<text text-anchor="middle" x="629.5" y="-149.5" font-family="Helvetica,sans-Serif" font-size="10.00">outpost</text>
</a>
</g>
</g>
<!-- Node8&#45;&gt;Node9 -->
<g id="edge8" class="edge"><title>Node8&#45;&gt;Node9</title>
<path fill="none" stroke="midnightblue" d="M578.261,-162.847C586.907,-160.98 595.881,-159.043 603.812,-157.33"/>
<polygon fill="midnightblue" stroke="midnightblue" points="577.38,-159.457 568.344,-164.988 578.857,-166.299 577.38,-159.457"/>
</g>
<!-- Node10 -->
<g id="node10" class="node"><title>Node10</title>
<g id="a_node10"><a xlink:href="coef_8F90.html#ad01cc61ba84d488e68ca9e259c592465" target="_top" xlink:title="Routine to generate mapping data based on mesh 1 (Gauss&#45;Legendre Lobatto meshes). ...">
<polygon fill="white" stroke="black" points="691,-133.5 691,-152.5 750,-152.5 750,-133.5 691,-133.5"/>
<text text-anchor="middle" x="720.5" y="-140.5" font-family="Helvetica,sans-Serif" font-size="10.00">glmapm1</text>
</a>
</g>
</g>
<!-- Node9&#45;&gt;Node10 -->
<g id="edge9" class="edge"><title>Node9&#45;&gt;Node10</title>
<path fill="none" stroke="midnightblue" d="M665.255,-148.485C673.694,-147.632 682.626,-146.729 690.752,-145.907"/>
<polygon fill="midnightblue" stroke="midnightblue" points="664.889,-145.005 655.291,-149.493 665.593,-151.969 664.889,-145.005"/>
</g>
<!-- Node11 -->
<g id="node11" class="node"><title>Node11</title>
<g id="a_node11"><a xlink:href="coef_8F90.html#ac5d2ac0efba4a530fab5387321307d01" target="_top" xlink:title="Routine to generate all elemental geometric data for mesh 1. Velocity formulation : global&#45;to&#45;local m...">
<polygon fill="white" stroke="black" points="786,-128.5 786,-147.5 835,-147.5 835,-128.5 786,-128.5"/>
<text text-anchor="middle" x="810.5" y="-135.5" font-family="Helvetica,sans-Serif" font-size="10.00">geom1</text>
</a>
</g>
</g>
<!-- Node10&#45;&gt;Node11 -->
<g id="edge10" class="edge"><title>Node10&#45;&gt;Node11</title>
<path fill="none" stroke="midnightblue" d="M760.335,-140.793C769.049,-140.298 778.037,-139.788 785.907,-139.341"/>
<polygon fill="midnightblue" stroke="midnightblue" points="760.1,-137.301 750.314,-141.363 760.497,-144.29 760.1,-137.301"/>
</g>
<!-- Node12 -->
<g id="node12" class="node"><title>Node12</title>
<g id="a_node12"><a xlink:href="drive2_8F90.html#aefc07385d7e7539fb57662470f694136" target="_top" xlink:title="Generate geometry data. ">
<polygon fill="white" stroke="black" points="877,-128.5 877,-147.5 938,-147.5 938,-128.5 877,-128.5"/>
<text text-anchor="middle" x="907.5" y="-135.5" font-family="Helvetica,sans-Serif" font-size="10.00">gengeom</text>
</a>
</g>
</g>
<!-- Node11&#45;&gt;Node12 -->
<g id="edge11" class="edge"><title>Node11&#45;&gt;Node12</title>
<path fill="none" stroke="midnightblue" d="M845.661,-138C855.83,-138 866.887,-138 876.751,-138"/>
<polygon fill="midnightblue" stroke="midnightblue" points="845.473,-134.5 835.473,-138 845.472,-141.5 845.473,-134.5"/>
</g>
<!-- Node16 -->
<g id="node16" class="node"><title>Node16</title>
<g id="a_node16"><a xlink:href="ic_8F90.html#aaf47b255d1cfac3451a8473ee6876b4f" target="_top" xlink:title="Generate geometry data. ">
<polygon fill="white" stroke="black" points="871,-63.5 871,-82.5 944,-82.5 944,-63.5 871,-63.5"/>
<text text-anchor="middle" x="907.5" y="-70.5" font-family="Helvetica,sans-Serif" font-size="10.00">geom_reset</text>
</a>
</g>
</g>
<!-- Node11&#45;&gt;Node16 -->
<g id="edge17" class="edge"><title>Node11&#45;&gt;Node16</title>
<path fill="none" stroke="midnightblue" d="M833.794,-122.746C851.929,-110.338 876.966,-93.2077 892.425,-82.6303"/>
<polygon fill="midnightblue" stroke="midnightblue" points="831.794,-119.874 825.518,-128.409 835.747,-125.651 831.794,-119.874"/>
</g>
<!-- Node13 -->
<g id="node13" class="node"><title>Node13</title>
<g id="a_node13"><a xlink:href="drive1_8F90.html#a87bd37ae2c18426f28f35cc3f24e4355" target="_top" xlink:title="initialize nek ">
<polygon fill="white" stroke="black" points="1287,-85.5 1287,-104.5 1340,-104.5 1340,-85.5 1287,-85.5"/>
<text text-anchor="middle" x="1313.5" y="-92.5" font-family="Helvetica,sans-Serif" font-size="10.00">nek_init</text>
</a>
</g>
</g>
<!-- Node12&#45;&gt;Node13 -->
<g id="edge12" class="edge"><title>Node12&#45;&gt;Node13</title>
<path fill="none" stroke="midnightblue" d="M948.518,-134.025C1011.59,-127.718 1137.95,-114.911 1245,-103 1258.84,-101.46 1274.26,-99.6402 1286.87,-98.1255"/>
<polygon fill="midnightblue" stroke="midnightblue" points="947.827,-130.576 938.224,-135.053 948.522,-137.542 947.827,-130.576"/>
</g>
<!-- Node14 -->
<g id="node14" class="node"><title>Node14</title>
<g id="a_node14"><a xlink:href="drive1_8F90.html#ae177ea7efac97f35241521b782a671c0" target="_top" xlink:title="take a single time&#45;step ">
<polygon fill="white" stroke="black" points="998,-161.5 998,-180.5 1078,-180.5 1078,-161.5 998,-161.5"/>
<text text-anchor="middle" x="1038" y="-168.5" font-family="Helvetica,sans-Serif" font-size="10.00">nek_advance</text>
</a>
</g>
</g>
<!-- Node12&#45;&gt;Node14 -->
<g id="edge14" class="edge"><title>Node12&#45;&gt;Node14</title>
<path fill="none" stroke="midnightblue" d="M948.21,-148.198C964.725,-152.439 983.787,-157.334 1000,-161.499"/>
<polygon fill="midnightblue" stroke="midnightblue" points="948.86,-144.751 938.303,-145.654 947.119,-151.531 948.86,-144.751"/>
</g>
<!-- Node13&#45;&gt;Node7 -->
<g id="edge13" class="edge"><title>Node13&#45;&gt;Node7</title>
<path fill="none" stroke="midnightblue" d="M1346.97,-108.559C1358.73,-113.471 1371.77,-118.914 1382.54,-123.414"/>
<polygon fill="midnightblue" stroke="midnightblue" points="1348.04,-105.213 1337.46,-104.589 1345.34,-111.672 1348.04,-105.213"/>
</g>
<!-- Node15 -->
<g id="node15" class="node"><title>Node15</title>
<g id="a_node15"><a xlink:href="drive1_8F90.html#a18d3e839786263fc4cf91f7eeb714371" target="_top" xlink:title="take a chunk of time&#45;steps ">
<polygon fill="white" stroke="black" points="1132,-161.5 1132,-180.5 1245,-180.5 1245,-161.5 1132,-161.5"/>
<text text-anchor="middle" x="1188.5" y="-168.5" font-family="Helvetica,sans-Serif" font-size="10.00">nek__multi_advance</text>
</a>
</g>
</g>
<!-- Node14&#45;&gt;Node15 -->
<g id="edge15" class="edge"><title>Node14&#45;&gt;Node15</title>
<path fill="none" stroke="midnightblue" d="M1088.41,-171C1102.38,-171 1117.68,-171 1131.99,-171"/>
<polygon fill="midnightblue" stroke="midnightblue" points="1088.02,-167.5 1078.02,-171 1088.02,-174.5 1088.02,-167.5"/>
</g>
<!-- Node15&#45;&gt;Node6 -->
<g id="edge16" class="edge"><title>Node15&#45;&gt;Node6</title>
<path fill="none" stroke="midnightblue" d="M1255.28,-171C1264.16,-171 1272.93,-171 1280.82,-171"/>
<polygon fill="midnightblue" stroke="midnightblue" points="1255.24,-167.5 1245.24,-171 1255.24,-174.5 1255.24,-167.5"/>
</g>
<!-- Node16&#45;&gt;Node13 -->
<g id="edge18" class="edge"><title>Node16&#45;&gt;Node13</title>
<path fill="none" stroke="midnightblue" d="M954.528,-75.5065C1039.93,-80.1571 1220.3,-89.9789 1287,-93.6113"/>
<polygon fill="midnightblue" stroke="midnightblue" points="954.528,-72.0014 944.352,-74.9524 954.147,-78.991 954.528,-72.0014"/>
</g>
<!-- Node17 -->
<g id="node17" class="node"><title>Node17</title>
<g id="a_node17"><a xlink:href="classhsmg__routines.html#a91e8aa59d56bbf05d75aa9c48bcd8977" target="_top" xlink:title="Sets up Poisson preconditioner. ">
<polygon fill="white" stroke="black" points="980,-36 980,-66 1096,-66 1096,-36 980,-36"/>
<text text-anchor="start" x="988" y="-54" font-family="Helvetica,sans-Serif" font-size="10.00">hsmg_routines::h1mg</text>
<text text-anchor="middle" x="1038" y="-43" font-family="Helvetica,sans-Serif" font-size="10.00">_setup</text>
</a>
</g>
</g>
<!-- Node16&#45;&gt;Node17 -->
<g id="edge19" class="edge"><title>Node16&#45;&gt;Node17</title>
<path fill="none" stroke="midnightblue" d="M954.406,-65.1406C962.608,-63.7363 971.246,-62.2575 979.72,-60.8067"/>
<polygon fill="midnightblue" stroke="midnightblue" points="953.56,-61.7344 944.294,-66.8718 954.742,-68.634 953.56,-61.7344"/>
</g>
<!-- Node19 -->
<g id="node19" class="node"><title>Node19</title>
<g id="a_node19"><a xlink:href="ic_8F90.html#acaefa33e86633e4a7a4b28347d4620d1" target="_top" xlink:title="Set initial conditions. ">
<polygon fill="white" stroke="black" points="1166.5,-0.5 1166.5,-19.5 1210.5,-19.5 1210.5,-0.5 1166.5,-0.5"/>
<text text-anchor="middle" x="1188.5" y="-7.5" font-family="Helvetica,sans-Serif" font-size="10.00">setics</text>
</a>
</g>
</g>
<!-- Node16&#45;&gt;Node19 -->
<g id="edge22" class="edge"><title>Node16&#45;&gt;Node19</title>
<path fill="none" stroke="midnightblue" d="M927.276,-56.8103C940.934,-46.0453 960.397,-32.6978 980,-26 1045.13,-3.74574 1128.23,-5.75215 1166.49,-8.23573"/>
<polygon fill="midnightblue" stroke="midnightblue" points="924.722,-54.3768 919.195,-63.4157 929.153,-59.7965 924.722,-54.3768"/>
</g>
<!-- Node18 -->
<g id="node18" class="node"><title>Node18</title>
<g id="a_node18"><a xlink:href="navier6_8F90.html#a45317b1def173b8f1db2e5083595d095" target="_top" xlink:title="Set up arrays for overlapping Schwartz algorithm for pressure solver ">
<polygon fill="white" stroke="black" points="1152.5,-44.5 1152.5,-63.5 1224.5,-63.5 1224.5,-44.5 1152.5,-44.5"/>
<text text-anchor="middle" x="1188.5" y="-51.5" font-family="Helvetica,sans-Serif" font-size="10.00">set_overlap</text>
</a>
</g>
</g>
<!-- Node17&#45;&gt;Node18 -->
<g id="edge20" class="edge"><title>Node17&#45;&gt;Node18</title>
<path fill="none" stroke="midnightblue" d="M1106.65,-52.3667C1122.36,-52.684 1138.47,-53.0094 1152.13,-53.2854"/>
<polygon fill="midnightblue" stroke="midnightblue" points="1106.48,-48.8627 1096.41,-52.1599 1106.34,-55.8612 1106.48,-48.8627"/>
</g>
<!-- Node18&#45;&gt;Node13 -->
<g id="edge21" class="edge"><title>Node18&#45;&gt;Node13</title>
<path fill="none" stroke="midnightblue" d="M1227.68,-66.7254C1246.84,-73.1124 1269.54,-80.6813 1286.64,-86.3801"/>
<polygon fill="midnightblue" stroke="midnightblue" points="1228.62,-63.3512 1218.03,-63.5093 1226.41,-69.992 1228.62,-63.3512"/>
</g>
<!-- Node19&#45;&gt;Node13 -->
<g id="edge23" class="edge"><title>Node19&#45;&gt;Node13</title>
<path fill="none" stroke="midnightblue" d="M1219.78,-21.6461C1228.22,-25.4174 1237.2,-29.9479 1245,-35 1268.16,-50.0058 1291.38,-72.738 1303.63,-85.4802"/>
<polygon fill="midnightblue" stroke="midnightblue" points="1221.14,-18.4242 1210.57,-17.7234 1218.4,-24.8638 1221.14,-18.4242"/>
</g>
<!-- Node20&#45;&gt;Node3 -->
<g id="edge25" class="edge"><title>Node20&#45;&gt;Node3</title>
<path fill="none" stroke="midnightblue" d="M212.269,-190C222.597,-190 233.321,-190 242.896,-190"/>
<polygon fill="midnightblue" stroke="midnightblue" points="212.129,-186.5 202.129,-190 212.129,-193.5 212.129,-186.5"/>
</g>
<!-- Node21&#45;&gt;Node3 -->
<g id="edge27" class="edge"><title>Node21&#45;&gt;Node3</title>
<path fill="none" stroke="midnightblue" d="M203.038,-164.972C217.493,-170.034 233.767,-175.734 247.13,-180.414"/>
<polygon fill="midnightblue" stroke="midnightblue" points="203.974,-161.591 193.379,-161.589 201.66,-168.198 203.974,-161.591"/>
</g>
</g>
</svg>
