<?xml version="1.0" encoding="UTF-8" standalone="no"?>
<!DOCTYPE svg PUBLIC "-//W3C//DTD SVG 1.1//EN"
 "http://www.w3.org/Graphics/SVG/1.1/DTD/svg11.dtd">
<!-- Generated by graphviz version 2.38.0 (20140413.2041)
 -->
<!-- Title: jl/c99.h Pages: 1 -->
<!--zoomable 95 -->
<svg id="main" version="1.1" xmlns="http://www.w3.org/2000/svg" xmlns:xlink="http://www.w3.org/1999/xlink" xml:space="preserve" onload="init(evt)">
<style type="text/css"><![CDATA[
.edge:hover path { stroke: red; }
.edge:hover polygon { stroke: red; fill: red; }
]]></style>
<script type="text/javascript"><![CDATA[
var edges = document.getElementsByTagName('g');
if (edges && edges.length) {
  for (var i=0;i<edges.length;i++) {
    if (edges[i].id.substr(0,4)=='edge') {
      edges[i].setAttribute('class','edge');
    }
  }
}
]]></script>
        <defs>
                <circle id="rim" cx="0" cy="0" r="7"/>
                <circle id="rim2" cx="0" cy="0" r="3.5"/>
                <g id="zoomPlus">
                        <use xlink:href="#rim" fill="#404040">
                                <set attributeName="fill" to="#808080" begin="zoomplus.mouseover" end="zoomplus.mouseout"/>
                        </use>
                        <path d="M-4,0h8M0,-4v8" fill="none" stroke="white" stroke-width="1.5" pointer-events="none"/>
                </g>
                <g id="zoomMin">
                        <use xlink:href="#rim" fill="#404040">
                                <set attributeName="fill" to="#808080" begin="zoomminus.mouseover" end="zoomminus.mouseout"/>
                        </use>
                        <path d="M-4,0h8" fill="none" stroke="white" stroke-width="1.5" pointer-events="none"/>
                </g>
                <g id="dirArrow">
                        <path fill="none" stroke="white" stroke-width="1.5" d="M0,-3.0v7 M-2.5,-0.5L0,-3.0L2.5,-0.5"/>
                </g>
               <g id="resetDef">
                       <use xlink:href="#rim2" fill="#404040">
                               <set attributeName="fill" to="#808080" begin="reset.mouseover" end="reset.mouseout"/>
                       </use>
               </g>
        </defs>

<script type="text/javascript">
var viewWidth = 4262;
var viewHeight = 95;
var sectionId = 'dynsection-0';
</script>
<script xlink:href="svgpan.js"/>
<svg id="graph" class="graph">
<g id="viewport">
<title>jl/c99.h</title>
<polygon fill="white" stroke="none" points="-4,4 -4,-91 4257.5,-91 4257.5,4 -4,4"/>
<!-- Node1 -->
<g id="node1" class="node"><title>Node1</title>
<polygon fill="#bfbfbf" stroke="black" points="1844,-67.5 1844,-86.5 1894,-86.5 1894,-67.5 1844,-67.5"/>
<text text-anchor="middle" x="1869" y="-74.5" font-family="Helvetica,sans-Serif" font-size="10.00">jl/c99.h</text>
</g>
<!-- Node2 -->
<g id="node2" class="node"><title>Node2</title>
<g id="a_node2"><a xlink:href="crystal_8c.html" target="_top" xlink:title="jl/crystal.c">
<polygon fill="white" stroke="black" points="0,-6 0,-25 62,-25 62,-6 0,-6"/>
<text text-anchor="middle" x="31" y="-13" font-family="Helvetica,sans-Serif" font-size="10.00">jl/crystal.c</text>
</a>
</g>
</g>
<!-- Node1&#45;&gt;Node2 -->
<g id="edge1" class="edge"><title>Node1&#45;&gt;Node2</title>
<path fill="none" stroke="midnightblue" d="M1833.66,-75.7995C1597.31,-74.368 250.052,-64.7663 71,-31 64.1768,-29.7133 56.9714,-27.4165 50.5843,-25.0249"/>
<polygon fill="midnightblue" stroke="midnightblue" points="1833.74,-79.2999 1843.76,-75.8597 1833.78,-72.3 1833.74,-79.2999"/>
</g>
<!-- Node3 -->
<g id="node3" class="node"><title>Node3</title>
<g id="a_node3"><a xlink:href="findpts__local__ext_8c.html" target="_top" xlink:title="jl/ext/findpts_local\l_ext.c">
<polygon fill="white" stroke="black" points="80.5,-0.5 80.5,-30.5 181.5,-30.5 181.5,-0.5 80.5,-0.5"/>
<text text-anchor="start" x="88.5" y="-18.5" font-family="Helvetica,sans-Serif" font-size="10.00">jl/ext/findpts_local</text>
<text text-anchor="middle" x="131" y="-7.5" font-family="Helvetica,sans-Serif" font-size="10.00">_ext.c</text>
</a>
</g>
</g>
<!-- Node1&#45;&gt;Node3 -->
<g id="edge2" class="edge"><title>Node1&#45;&gt;Node3</title>
<path fill="none" stroke="midnightblue" d="M1833.6,-76.0827C1622.12,-76.4211 523.758,-75.9561 190,-31 187.282,-30.6339 184.508,-30.1926 181.716,-29.6952"/>
<polygon fill="midnightblue" stroke="midnightblue" points="1833.82,-79.5824 1843.81,-76.0646 1833.81,-72.5824 1833.82,-79.5824"/>
</g>
<!-- Node4 -->
<g id="node4" class="node"><title>Node4</title>
<g id="a_node4"><a xlink:href="fcrs_8c.html" target="_top" xlink:title="jl/fcrs.c">
<polygon fill="white" stroke="black" points="199.5,-6 199.5,-25 248.5,-25 248.5,-6 199.5,-6"/>
<text text-anchor="middle" x="224" y="-13" font-family="Helvetica,sans-Serif" font-size="10.00">jl/fcrs.c</text>
</a>
</g>
</g>
<!-- Node1&#45;&gt;Node4 -->
<g id="edge3" class="edge"><title>Node1&#45;&gt;Node4</title>
<path fill="none" stroke="midnightblue" d="M1833.9,-75.829C1612.66,-74.6444 415.57,-66.6181 257,-31 251.261,-29.7108 245.287,-27.4134 240.025,-25.022"/>
<polygon fill="midnightblue" stroke="midnightblue" points="1833.95,-79.3293 1843.97,-75.8818 1833.99,-72.3294 1833.95,-79.3293"/>
</g>
<!-- Node5 -->
<g id="node5" class="node"><title>Node5</title>
<g id="a_node5"><a xlink:href="fcrystal_8c.html" target="_top" xlink:title="jl/fcrystal.c">
<polygon fill="white" stroke="black" points="266.5,-6 266.5,-25 331.5,-25 331.5,-6 266.5,-6"/>
<text text-anchor="middle" x="299" y="-13" font-family="Helvetica,sans-Serif" font-size="10.00">jl/fcrystal.c</text>
</a>
</g>
</g>
<!-- Node1&#45;&gt;Node5 -->
<g id="edge4" class="edge"><title>Node1&#45;&gt;Node5</title>
<path fill="none" stroke="midnightblue" d="M1833.73,-75.6169C1618.94,-73.197 491.062,-59.2191 340,-31 333.024,-29.6968 325.643,-27.3956 319.095,-25.0051"/>
<polygon fill="midnightblue" stroke="midnightblue" points="1833.78,-79.1176 1843.82,-75.7296 1833.86,-72.118 1833.78,-79.1176"/>
</g>
<!-- Node6 -->
<g id="node6" class="node"><title>Node6</title>
<g id="a_node6"><a xlink:href="findpts_8c.html" target="_top" xlink:title="jl/findpts.c">
<polygon fill="white" stroke="black" points="349.5,-6 349.5,-25 412.5,-25 412.5,-6 349.5,-6"/>
<text text-anchor="middle" x="381" y="-13" font-family="Helvetica,sans-Serif" font-size="10.00">jl/findpts.c</text>
</a>
</g>
</g>
<!-- Node1&#45;&gt;Node6 -->
<g id="edge5" class="edge"><title>Node1&#45;&gt;Node6</title>
<path fill="none" stroke="midnightblue" d="M1833.65,-75.5699C1625.45,-72.9483 563.488,-58.3171 421,-31 414.181,-29.6926 406.976,-27.3904 400.589,-25.0001"/>
<polygon fill="midnightblue" stroke="midnightblue" points="1833.68,-79.0705 1843.72,-75.6958 1833.77,-72.0711 1833.68,-79.0705"/>
</g>
<!-- Node7 -->
<g id="node7" class="node"><title>Node7</title>
<g id="a_node7"><a xlink:href="findpts__el__2_8c.html" target="_top" xlink:title="jl/findpts_el_2.c">
<polygon fill="white" stroke="black" points="430.5,-6 430.5,-25 519.5,-25 519.5,-6 430.5,-6"/>
<text text-anchor="middle" x="475" y="-13" font-family="Helvetica,sans-Serif" font-size="10.00">jl/findpts_el_2.c</text>
</a>
</g>
</g>
<!-- Node1&#45;&gt;Node7 -->
<g id="edge6" class="edge"><title>Node1&#45;&gt;Node7</title>
<path fill="none" stroke="midnightblue" d="M1833.71,-75.9295C1648.83,-75.3909 790.515,-70.755 528,-31 519.228,-29.6716 509.835,-27.3948 501.43,-25.0339"/>
<polygon fill="midnightblue" stroke="midnightblue" points="1833.93,-79.43 1843.94,-75.957 1833.95,-72.43 1833.93,-79.43"/>
</g>
<!-- Node8 -->
<g id="node8" class="node"><title>Node8</title>
<g id="a_node8"><a xlink:href="findpts__el__3_8c.html" target="_top" xlink:title="jl/findpts_el_3.c">
<polygon fill="white" stroke="black" points="537.5,-6 537.5,-25 626.5,-25 626.5,-6 537.5,-6"/>
<text text-anchor="middle" x="582" y="-13" font-family="Helvetica,sans-Serif" font-size="10.00">jl/findpts_el_3.c</text>
</a>
</g>
</g>
<!-- Node1&#45;&gt;Node8 -->
<g id="edge7" class="edge"><title>Node1&#45;&gt;Node8</title>
<path fill="none" stroke="midnightblue" d="M1833.77,-75.8109C1658.04,-74.7005 875.261,-67.7422 635,-31 626.23,-29.6589 616.838,-27.3785 608.432,-25.0184"/>
<polygon fill="midnightblue" stroke="midnightblue" points="1833.98,-79.3121 1844,-75.8731 1834.02,-72.3122 1833.98,-79.3121"/>
</g>
<!-- Node9 -->
<g id="node9" class="node"><title>Node9</title>
<g id="a_node9"><a xlink:href="findpts__local_8c.html" target="_top" xlink:title="jl/findpts_local.c">
<polygon fill="white" stroke="black" points="644.5,-6 644.5,-25 735.5,-25 735.5,-6 644.5,-6"/>
<text text-anchor="middle" x="690" y="-13" font-family="Helvetica,sans-Serif" font-size="10.00">jl/findpts_local.c</text>
</a>
</g>
</g>
<!-- Node1&#45;&gt;Node9 -->
<g id="edge8" class="edge"><title>Node1&#45;&gt;Node9</title>
<path fill="none" stroke="midnightblue" d="M1833.74,-75.6443C1667.59,-73.807 961.688,-64.1574 744,-31 735.171,-29.6552 725.714,-27.4044 717.22,-25.0723"/>
<polygon fill="midnightblue" stroke="midnightblue" points="1833.86,-79.1457 1843.9,-75.7542 1833.93,-72.1461 1833.86,-79.1457"/>
</g>
<!-- Node10 -->
<g id="node10" class="node"><title>Node10</title>
<g id="a_node10"><a xlink:href="gs_8c.html" target="_top" xlink:title="jl/gs.c">
<polygon fill="white" stroke="black" points="753.5,-6 753.5,-25 796.5,-25 796.5,-6 753.5,-6"/>
<text text-anchor="middle" x="775" y="-13" font-family="Helvetica,sans-Serif" font-size="10.00">jl/gs.c</text>
</a>
</g>
</g>
<!-- Node1&#45;&gt;Node10 -->
<g id="edge9" class="edge"><title>Node1&#45;&gt;Node10</title>
<path fill="none" stroke="midnightblue" d="M1833.93,-75.362C1661.36,-72.1092 906.538,-56.5213 805,-31 799.839,-29.7027 794.512,-27.4651 789.806,-25.1307"/>
<polygon fill="midnightblue" stroke="midnightblue" points="1833.93,-78.8625 1843.99,-75.5501 1834.06,-71.8638 1833.93,-78.8625"/>
</g>
<!-- Node11 -->
<g id="node11" class="node"><title>Node11</title>
<g id="a_node11"><a xlink:href="gs__local_8c.html" target="_top" xlink:title="jl/gs_local.c">
<polygon fill="white" stroke="black" points="814.5,-6 814.5,-25 885.5,-25 885.5,-6 814.5,-6"/>
<text text-anchor="middle" x="850" y="-13" font-family="Helvetica,sans-Serif" font-size="10.00">jl/gs_local.c</text>
</a>
</g>
</g>
<!-- Node1&#45;&gt;Node11 -->
<g id="edge10" class="edge"><title>Node1&#45;&gt;Node11</title>
<path fill="none" stroke="midnightblue" d="M1833.67,-75.6218C1681.42,-73.7991 1080.65,-64.5795 895,-31 887.569,-29.6559 879.667,-27.4052 872.593,-25.0731"/>
<polygon fill="midnightblue" stroke="midnightblue" points="1833.81,-79.1235 1843.85,-75.7405 1833.89,-72.124 1833.81,-79.1235"/>
</g>
<!-- Node12 -->
<g id="node12" class="node"><title>Node12</title>
<g id="a_node12"><a xlink:href="lob__bnd_8c.html" target="_top" xlink:title="jl/lob_bnd.c">
<polygon fill="white" stroke="black" points="904,-6 904,-25 972,-25 972,-6 904,-6"/>
<text text-anchor="middle" x="938" y="-13" font-family="Helvetica,sans-Serif" font-size="10.00">jl/lob_bnd.c</text>
</a>
</g>
</g>
<!-- Node1&#45;&gt;Node12 -->
<g id="edge11" class="edge"><title>Node1&#45;&gt;Node12</title>
<path fill="none" stroke="midnightblue" d="M1833.56,-75.5001C1689.65,-73.2705 1148.73,-62.8989 981,-31 973.88,-29.6459 966.324,-27.3923 959.564,-25.0607"/>
<polygon fill="midnightblue" stroke="midnightblue" points="1833.55,-79.0003 1843.6,-75.6524 1833.66,-72.0011 1833.55,-79.0003"/>
</g>
<!-- Node13 -->
<g id="node13" class="node"><title>Node13</title>
<g id="a_node13"><a xlink:href="obbox_8c.html" target="_top" xlink:title="jl/obbox.c">
<polygon fill="white" stroke="black" points="990.5,-6 990.5,-25 1049.5,-25 1049.5,-6 990.5,-6"/>
<text text-anchor="middle" x="1020" y="-13" font-family="Helvetica,sans-Serif" font-size="10.00">jl/obbox.c</text>
</a>
</g>
</g>
<!-- Node1&#45;&gt;Node13 -->
<g id="edge12" class="edge"><title>Node1&#45;&gt;Node13</title>
<path fill="none" stroke="midnightblue" d="M1833.57,-75.4855C1697.63,-73.2865 1209.4,-63.2668 1058,-31 1051.65,-29.6459 1044.95,-27.3924 1038.98,-25.0608"/>
<polygon fill="midnightblue" stroke="midnightblue" points="1833.78,-78.989 1843.83,-75.6472 1833.89,-71.9899 1833.78,-78.989"/>
</g>
<!-- Node14 -->
<g id="node14" class="node"><title>Node14</title>
<g id="a_node14"><a xlink:href="poly_8c.html" target="_top" xlink:title="jl/poly.c">
<polygon fill="white" stroke="black" points="1067.5,-6 1067.5,-25 1118.5,-25 1118.5,-6 1067.5,-6"/>
<text text-anchor="middle" x="1093" y="-13" font-family="Helvetica,sans-Serif" font-size="10.00">jl/poly.c</text>
</a>
</g>
</g>
<!-- Node1&#45;&gt;Node14 -->
<g id="edge13" class="edge"><title>Node1&#45;&gt;Node14</title>
<path fill="none" stroke="midnightblue" d="M1833.69,-75.4029C1705.48,-72.9944 1264.81,-62.5582 1128,-31 1122.1,-29.6399 1115.93,-27.3847 1110.43,-25.0534"/>
<polygon fill="midnightblue" stroke="midnightblue" points="1833.69,-78.9033 1843.75,-75.5873 1833.82,-71.9045 1833.69,-78.9033"/>
</g>
<!-- Node15 -->
<g id="node15" class="node"><title>Node15</title>
<g id="a_node15"><a xlink:href="sarray__sort_8c.html" target="_top" xlink:title="jl/sarray_sort.c">
<polygon fill="white" stroke="black" points="1137,-6 1137,-25 1223,-25 1223,-6 1137,-6"/>
<text text-anchor="middle" x="1180" y="-13" font-family="Helvetica,sans-Serif" font-size="10.00">jl/sarray_sort.c</text>
</a>
</g>
</g>
<!-- Node1&#45;&gt;Node15 -->
<g id="edge14" class="edge"><title>Node1&#45;&gt;Node15</title>
<path fill="none" stroke="midnightblue" d="M1833.78,-75.9891C1736.96,-75.4279 1458.92,-70.2396 1232,-31 1223.69,-29.5627 1214.79,-27.3439 1206.75,-25.0706"/>
<polygon fill="midnightblue" stroke="midnightblue" points="1833.88,-79.4895 1843.89,-76.0343 1833.91,-72.4896 1833.88,-79.4895"/>
</g>
<!-- Node16 -->
<g id="node16" class="node"><title>Node16</title>
<g id="a_node16"><a xlink:href="sarray__transfer_8c.html" target="_top" xlink:title="jl/sarray_transfer.c">
<polygon fill="white" stroke="black" points="1241,-6 1241,-25 1345,-25 1345,-6 1241,-6"/>
<text text-anchor="middle" x="1293" y="-13" font-family="Helvetica,sans-Serif" font-size="10.00">jl/sarray_transfer.c</text>
</a>
</g>
</g>
<!-- Node1&#45;&gt;Node16 -->
<g id="edge15" class="edge"><title>Node1&#45;&gt;Node16</title>
<path fill="none" stroke="midnightblue" d="M1833.69,-74.6946C1749.94,-71.2121 1532.88,-59.9169 1354,-31 1344.54,-29.4714 1334.38,-27.2803 1325.11,-25.0628"/>
<polygon fill="midnightblue" stroke="midnightblue" points="1833.79,-78.2013 1843.92,-75.1084 1834.07,-71.207 1833.79,-78.2013"/>
</g>
<!-- Node17 -->
<g id="node17" class="node"><title>Node17</title>
<g id="a_node17"><a xlink:href="sort_8c.html" target="_top" xlink:title="jl/sort.c">
<polygon fill="white" stroke="black" points="1363,-6 1363,-25 1413,-25 1413,-6 1363,-6"/>
<text text-anchor="middle" x="1388" y="-13" font-family="Helvetica,sans-Serif" font-size="10.00">jl/sort.c</text>
</a>
</g>
</g>
<!-- Node1&#45;&gt;Node17 -->
<g id="edge16" class="edge"><title>Node1&#45;&gt;Node17</title>
<path fill="none" stroke="midnightblue" d="M1833.8,-76.0422C1757.5,-75.3594 1571.7,-69.5 1422,-31 1416.41,-29.5615 1410.54,-27.3423 1405.29,-25.0691"/>
<polygon fill="midnightblue" stroke="midnightblue" points="1833.8,-79.5422 1843.82,-76.1071 1833.85,-72.5424 1833.8,-79.5422"/>
</g>
<!-- Node18 -->
<g id="node18" class="node"><title>Node18</title>
<g id="a_node18"><a xlink:href="sparse__cholesky_8c.html" target="_top" xlink:title="jl/sparse_cholesky.c">
<polygon fill="white" stroke="black" points="1431.5,-6 1431.5,-25 1542.5,-25 1542.5,-6 1431.5,-6"/>
<text text-anchor="middle" x="1487" y="-13" font-family="Helvetica,sans-Serif" font-size="10.00">jl/sparse_cholesky.c</text>
</a>
</g>
</g>
<!-- Node1&#45;&gt;Node18 -->
<g id="edge17" class="edge"><title>Node1&#45;&gt;Node18</title>
<path fill="none" stroke="midnightblue" d="M1833.49,-71.9416C1774.56,-64.9915 1652.96,-49.7322 1551,-31 1541.7,-29.2914 1531.7,-27.1665 1522.44,-25.0749"/>
<polygon fill="midnightblue" stroke="midnightblue" points="1833.4,-75.4555 1843.74,-73.1416 1834.21,-68.5029 1833.4,-75.4555"/>
</g>
<!-- Node19 -->
<g id="node19" class="node"><title>Node19</title>
<g id="a_node19"><a xlink:href="tensor_8c.html" target="_top" xlink:title="jl/tensor.c">
<polygon fill="white" stroke="black" points="1560,-6 1560,-25 1622,-25 1622,-6 1560,-6"/>
<text text-anchor="middle" x="1591" y="-13" font-family="Helvetica,sans-Serif" font-size="10.00">jl/tensor.c</text>
</a>
</g>
</g>
<!-- Node1&#45;&gt;Node19 -->
<g id="edge18" class="edge"><title>Node1&#45;&gt;Node19</title>
<path fill="none" stroke="midnightblue" d="M1833.74,-71.1481C1786.92,-64.2947 1701.89,-50.4143 1631,-31 1625.02,-29.361 1618.65,-27.2365 1612.8,-25.1215"/>
<polygon fill="midnightblue" stroke="midnightblue" points="1833.29,-74.6189 1843.68,-72.5818 1834.28,-67.6906 1833.29,-74.6189"/>
</g>
<!-- Node20 -->
<g id="node20" class="node"><title>Node20</title>
<g id="a_node20"><a xlink:href="crs__test_8c.html" target="_top" xlink:title="jl/tests/crs_test.c">
<polygon fill="white" stroke="black" points="1640.5,-6 1640.5,-25 1735.5,-25 1735.5,-6 1640.5,-6"/>
<text text-anchor="middle" x="1688" y="-13" font-family="Helvetica,sans-Serif" font-size="10.00">jl/tests/crs_test.c</text>
</a>
</g>
</g>
<!-- Node1&#45;&gt;Node20 -->
<g id="edge19" class="edge"><title>Node1&#45;&gt;Node20</title>
<path fill="none" stroke="midnightblue" d="M1834.01,-64.4978C1798.92,-52.9629 1745.69,-35.4649 1714.13,-25.0883"/>
<polygon fill="midnightblue" stroke="midnightblue" points="1833.24,-67.9288 1843.83,-67.7268 1835.43,-61.2789 1833.24,-67.9288"/>
</g>
<!-- Node21 -->
<g id="node21" class="node"><title>Node21</title>
<g id="a_node21"><a xlink:href="crystal__test_8c.html" target="_top" xlink:title="jl/tests/crystal_test.c">
<polygon fill="white" stroke="black" points="1753.5,-6 1753.5,-25 1864.5,-25 1864.5,-6 1753.5,-6"/>
<text text-anchor="middle" x="1809" y="-13" font-family="Helvetica,sans-Serif" font-size="10.00">jl/tests/crystal_test.c</text>
</a>
</g>
</g>
<!-- Node1&#45;&gt;Node21 -->
<g id="edge20" class="edge"><title>Node1&#45;&gt;Node21</title>
<path fill="none" stroke="midnightblue" d="M1853.19,-60.3245C1841.79,-49.0202 1826.84,-34.1928 1817.58,-25.0091"/>
<polygon fill="midnightblue" stroke="midnightblue" points="1850.84,-62.9189 1860.4,-67.4751 1855.77,-57.9484 1850.84,-62.9189"/>
</g>
<!-- Node22 -->
<g id="node22" class="node"><title>Node22</title>
<g id="a_node22"><a xlink:href="findpts__el__2__test_8c.html" target="_top" xlink:title="jl/tests/findpts_el\l_2_test.c">
<polygon fill="white" stroke="black" points="1882.5,-0.5 1882.5,-30.5 1977.5,-30.5 1977.5,-0.5 1882.5,-0.5"/>
<text text-anchor="start" x="1890.5" y="-18.5" font-family="Helvetica,sans-Serif" font-size="10.00">jl/tests/findpts_el</text>
<text text-anchor="middle" x="1930" y="-7.5" font-family="Helvetica,sans-Serif" font-size="10.00">_2_test.c</text>
</a>
</g>
</g>
<!-- Node1&#45;&gt;Node22 -->
<g id="edge21" class="edge"><title>Node1&#45;&gt;Node22</title>
<path fill="none" stroke="midnightblue" d="M1885.03,-60.369C1894.51,-51.1127 1906.44,-39.4824 1915.62,-30.523"/>
<polygon fill="midnightblue" stroke="midnightblue" points="1882.45,-57.9871 1877.74,-67.4751 1887.34,-62.9981 1882.45,-57.9871"/>
</g>
<!-- Node23 -->
<g id="node23" class="node"><title>Node23</title>
<g id="a_node23"><a xlink:href="findpts__el__2__test2_8c.html" target="_top" xlink:title="jl/tests/findpts_el\l_2_test2.c">
<polygon fill="white" stroke="black" points="1995.5,-0.5 1995.5,-30.5 2090.5,-30.5 2090.5,-0.5 1995.5,-0.5"/>
<text text-anchor="start" x="2003.5" y="-18.5" font-family="Helvetica,sans-Serif" font-size="10.00">jl/tests/findpts_el</text>
<text text-anchor="middle" x="2043" y="-7.5" font-family="Helvetica,sans-Serif" font-size="10.00">_2_test2.c</text>
</a>
</g>
</g>
<!-- Node1&#45;&gt;Node23 -->
<g id="edge22" class="edge"><title>Node1&#45;&gt;Node23</title>
<path fill="none" stroke="midnightblue" d="M1903.42,-64.2303C1931.75,-54.5417 1971.99,-40.7815 2001.99,-30.523"/>
<polygon fill="midnightblue" stroke="midnightblue" points="1902.26,-60.9277 1893.93,-67.4751 1904.52,-67.5512 1902.26,-60.9277"/>
</g>
<!-- Node24 -->
<g id="node24" class="node"><title>Node24</title>
<g id="a_node24"><a xlink:href="findpts__el__3__test_8c.html" target="_top" xlink:title="jl/tests/findpts_el\l_3_test.c">
<polygon fill="white" stroke="black" points="2108.5,-0.5 2108.5,-30.5 2203.5,-30.5 2203.5,-0.5 2108.5,-0.5"/>
<text text-anchor="start" x="2116.5" y="-18.5" font-family="Helvetica,sans-Serif" font-size="10.00">jl/tests/findpts_el</text>
<text text-anchor="middle" x="2156" y="-7.5" font-family="Helvetica,sans-Serif" font-size="10.00">_3_test.c</text>
</a>
</g>
</g>
<!-- Node1&#45;&gt;Node24 -->
<g id="edge23" class="edge"><title>Node1&#45;&gt;Node24</title>
<path fill="none" stroke="midnightblue" d="M1903.98,-69.8718C1949.35,-61.7665 2030.87,-46.6679 2100,-31 2102.74,-30.3784 2105.55,-29.7194 2108.39,-29.0385"/>
<polygon fill="midnightblue" stroke="midnightblue" points="1903.29,-66.4392 1894.06,-71.6356 1904.52,-73.3311 1903.29,-66.4392"/>
</g>
<!-- Node25 -->
<g id="node25" class="node"><title>Node25</title>
<g id="a_node25"><a xlink:href="findpts__el__3__test2_8c.html" target="_top" xlink:title="jl/tests/findpts_el\l_3_test2.c">
<polygon fill="white" stroke="black" points="2221.5,-0.5 2221.5,-30.5 2316.5,-30.5 2316.5,-0.5 2221.5,-0.5"/>
<text text-anchor="start" x="2229.5" y="-18.5" font-family="Helvetica,sans-Serif" font-size="10.00">jl/tests/findpts_el</text>
<text text-anchor="middle" x="2269" y="-7.5" font-family="Helvetica,sans-Serif" font-size="10.00">_3_test2.c</text>
</a>
</g>
</g>
<!-- Node1&#45;&gt;Node25 -->
<g id="edge24" class="edge"><title>Node1&#45;&gt;Node25</title>
<path fill="none" stroke="midnightblue" d="M1904.33,-72.8296C1966.92,-66.8911 2101.21,-52.6985 2213,-31 2215.76,-30.4642 2218.59,-29.8721 2221.43,-29.2425"/>
<polygon fill="midnightblue" stroke="midnightblue" points="1903.84,-69.3604 1894.21,-73.7772 1904.49,-76.33 1903.84,-69.3604"/>
</g>
<!-- Node26 -->
<g id="node26" class="node"><title>Node26</title>
<g id="a_node26"><a xlink:href="findpts__local__test_8c.html" target="_top" xlink:title="jl/tests/findpts_local\l_test.c">
<polygon fill="white" stroke="black" points="2334.5,-0.5 2334.5,-30.5 2443.5,-30.5 2443.5,-0.5 2334.5,-0.5"/>
<text text-anchor="start" x="2342.5" y="-18.5" font-family="Helvetica,sans-Serif" font-size="10.00">jl/tests/findpts_local</text>
<text text-anchor="middle" x="2389" y="-7.5" font-family="Helvetica,sans-Serif" font-size="10.00">_test.c</text>
</a>
</g>
</g>
<!-- Node1&#45;&gt;Node26 -->
<g id="edge25" class="edge"><title>Node1&#45;&gt;Node26</title>
<path fill="none" stroke="midnightblue" d="M1904.27,-74.071C1981.24,-69.5238 2169.89,-56.5432 2326,-31 2328.77,-30.5469 2331.6,-30.0441 2334.45,-29.5054"/>
<polygon fill="midnightblue" stroke="midnightblue" points="1903.94,-70.5838 1894.16,-74.6571 1904.35,-77.5721 1903.94,-70.5838"/>
</g>
<!-- Node27 -->
<g id="node27" class="node"><title>Node27</title>
<g id="a_node27"><a xlink:href="findpts__test_8c.html" target="_top" xlink:title="jl/tests/findpts_test.c">
<polygon fill="white" stroke="black" points="2462,-6 2462,-25 2574,-25 2574,-6 2462,-6"/>
<text text-anchor="middle" x="2518" y="-13" font-family="Helvetica,sans-Serif" font-size="10.00">jl/tests/findpts_test.c</text>
</a>
</g>
</g>
<!-- Node1&#45;&gt;Node27 -->
<g id="edge26" class="edge"><title>Node1&#45;&gt;Node27</title>
<path fill="none" stroke="midnightblue" d="M1904.26,-75.034C1995.46,-72.1573 2246.45,-61.8352 2453,-31 2463.18,-29.4806 2474.13,-27.2652 2484.1,-25.0212"/>
<polygon fill="midnightblue" stroke="midnightblue" points="1904.08,-71.5378 1894.19,-75.3416 1904.29,-78.5346 1904.08,-71.5378"/>
</g>
<!-- Node28 -->
<g id="node28" class="node"><title>Node28</title>
<g id="a_node28"><a xlink:href="gs__test_8c.html" target="_top" xlink:title="jl/tests/gs_test.c">
<polygon fill="white" stroke="black" points="2592,-6 2592,-25 2684,-25 2684,-6 2592,-6"/>
<text text-anchor="middle" x="2638" y="-13" font-family="Helvetica,sans-Serif" font-size="10.00">jl/tests/gs_test.c</text>
</a>
</g>
</g>
<!-- Node1&#45;&gt;Node28 -->
<g id="edge27" class="edge"><title>Node1&#45;&gt;Node28</title>
<path fill="none" stroke="midnightblue" d="M1904.47,-76.1971C2009.08,-76.2583 2325.14,-72.7076 2583,-31 2591.87,-29.5652 2601.38,-27.3182 2609.96,-25.0178"/>
<polygon fill="midnightblue" stroke="midnightblue" points="1904.18,-72.6967 1894.18,-76.1786 1904.17,-79.6966 1904.18,-72.6967"/>
</g>
<!-- Node29 -->
<g id="node29" class="node"><title>Node29</title>
<g id="a_node29"><a xlink:href="gs__unique__test_8c.html" target="_top" xlink:title="jl/tests/gs_unique\l_test.c">
<polygon fill="white" stroke="black" points="2702,-0.5 2702,-30.5 2800,-30.5 2800,-0.5 2702,-0.5"/>
<text text-anchor="start" x="2710" y="-18.5" font-family="Helvetica,sans-Serif" font-size="10.00">jl/tests/gs_unique</text>
<text text-anchor="middle" x="2751" y="-7.5" font-family="Helvetica,sans-Serif" font-size="10.00">_test.c</text>
</a>
</g>
</g>
<!-- Node1&#45;&gt;Node29 -->
<g id="edge28" class="edge"><title>Node1&#45;&gt;Node29</title>
<path fill="none" stroke="midnightblue" d="M1904.41,-76.4632C2019.08,-77.4535 2390.39,-76.6632 2693,-31 2695.87,-30.5664 2698.81,-30.0541 2701.77,-29.4857"/>
<polygon fill="midnightblue" stroke="midnightblue" points="1904.15,-72.9607 1894.12,-76.3632 1904.09,-79.9603 1904.15,-72.9607"/>
</g>
<!-- Node30 -->
<g id="node30" class="node"><title>Node30</title>
<g id="a_node30"><a xlink:href="lob__bnd__test_8c.html" target="_top" xlink:title="jl/tests/lob_bnd_test.c">
<polygon fill="white" stroke="black" points="2818.5,-6 2818.5,-25 2935.5,-25 2935.5,-6 2818.5,-6"/>
<text text-anchor="middle" x="2877" y="-13" font-family="Helvetica,sans-Serif" font-size="10.00">jl/tests/lob_bnd_test.c</text>
</a>
</g>
</g>
<!-- Node1&#45;&gt;Node30 -->
<g id="edge29" class="edge"><title>Node1&#45;&gt;Node30</title>
<path fill="none" stroke="midnightblue" d="M1904.28,-76.3663C2028.68,-77.2222 2458.31,-76.478 2809,-31 2819.89,-29.5873 2831.63,-27.3468 2842.24,-25.0454"/>
<polygon fill="midnightblue" stroke="midnightblue" points="1904.21,-72.8658 1894.19,-76.2885 1904.16,-79.8656 1904.21,-72.8658"/>
</g>
<!-- Node31 -->
<g id="node31" class="node"><title>Node31</title>
<g id="a_node31"><a xlink:href="obbox__test_8c.html" target="_top" xlink:title="jl/tests/obbox_test.c">
<polygon fill="white" stroke="black" points="2954,-6 2954,-25 3062,-25 3062,-6 2954,-6"/>
<text text-anchor="middle" x="3008" y="-13" font-family="Helvetica,sans-Serif" font-size="10.00">jl/tests/obbox_test.c</text>
</a>
</g>
</g>
<!-- Node1&#45;&gt;Node31 -->
<g id="edge30" class="edge"><title>Node1&#45;&gt;Node31</title>
<path fill="none" stroke="midnightblue" d="M1904.75,-75.3914C2067.25,-72.4891 2737.15,-59.0212 2945,-31 2955.23,-29.6204 2966.25,-27.3597 2976.16,-25.0294"/>
<polygon fill="midnightblue" stroke="midnightblue" points="1904.3,-71.8986 1894.37,-75.5747 1904.43,-78.8975 1904.3,-71.8986"/>
</g>
<!-- Node32 -->
<g id="node32" class="node"><title>Node32</title>
<g id="a_node32"><a xlink:href="poly__test_8c.html" target="_top" xlink:title="jl/tests/poly_test.c">
<polygon fill="white" stroke="black" points="3080,-6 3080,-25 3180,-25 3180,-6 3080,-6"/>
<text text-anchor="middle" x="3130" y="-13" font-family="Helvetica,sans-Serif" font-size="10.00">jl/tests/poly_test.c</text>
</a>
</g>
</g>
<!-- Node1&#45;&gt;Node32 -->
<g id="edge31" class="edge"><title>Node1&#45;&gt;Node32</title>
<path fill="none" stroke="midnightblue" d="M1904.42,-75.6464C2077.68,-73.7683 2837.04,-63.7805 3071,-31 3080.61,-29.6535 3090.93,-27.4021 3100.21,-25.0702"/>
<polygon fill="midnightblue" stroke="midnightblue" points="1904.28,-72.1476 1894.32,-75.7539 1904.35,-79.1472 1904.28,-72.1476"/>
</g>
<!-- Node33 -->
<g id="node33" class="node"><title>Node33</title>
<g id="a_node33"><a xlink:href="poly__test2_8c.html" target="_top" xlink:title="jl/tests/poly_test2.c">
<polygon fill="white" stroke="black" points="3198,-6 3198,-25 3304,-25 3304,-6 3198,-6"/>
<text text-anchor="middle" x="3251" y="-13" font-family="Helvetica,sans-Serif" font-size="10.00">jl/tests/poly_test2.c</text>
</a>
</g>
</g>
<!-- Node1&#45;&gt;Node33 -->
<g id="edge32" class="edge"><title>Node1&#45;&gt;Node33</title>
<path fill="none" stroke="midnightblue" d="M1904.31,-75.7309C2087.39,-74.1933 2930.19,-65.3384 3189,-31 3199.19,-29.6478 3210.16,-27.3645 3220,-25.005"/>
<polygon fill="midnightblue" stroke="midnightblue" points="1904.13,-72.2321 1894.16,-75.8142 1904.19,-79.2319 1904.13,-72.2321"/>
</g>
<!-- Node34 -->
<g id="node34" class="node"><title>Node34</title>
<g id="a_node34"><a xlink:href="rand__elt__test_8c.html" target="_top" xlink:title="jl/tests/rand_elt_test.c">
<polygon fill="white" stroke="black" points="3322.5,-6 3322.5,-25 3441.5,-25 3441.5,-6 3322.5,-6"/>
<text text-anchor="middle" x="3382" y="-13" font-family="Helvetica,sans-Serif" font-size="10.00">jl/tests/rand_elt_test.c</text>
</a>
</g>
</g>
<!-- Node1&#45;&gt;Node34 -->
<g id="edge33" class="edge"><title>Node1&#45;&gt;Node34</title>
<path fill="none" stroke="midnightblue" d="M1904.17,-75.7439C2097.02,-74.2123 3027.8,-65.1416 3313,-31 3324.3,-29.6469 3336.5,-27.3633 3347.45,-25.0038"/>
<polygon fill="midnightblue" stroke="midnightblue" points="1904.01,-72.245 1894.03,-75.8228 1904.06,-79.2448 1904.01,-72.245"/>
</g>
<!-- Node35 -->
<g id="node35" class="node"><title>Node35</title>
<g id="a_node35"><a xlink:href="sarray__sort__test_8c.html" target="_top" xlink:title="jl/tests/sarray_sort\l_test.c">
<polygon fill="white" stroke="black" points="3460,-0.5 3460,-30.5 3564,-30.5 3564,-0.5 3460,-0.5"/>
<text text-anchor="start" x="3468" y="-18.5" font-family="Helvetica,sans-Serif" font-size="10.00">jl/tests/sarray_sort</text>
<text text-anchor="middle" x="3512" y="-7.5" font-family="Helvetica,sans-Serif" font-size="10.00">_test.c</text>
</a>
</g>
</g>
<!-- Node1&#45;&gt;Node35 -->
<g id="edge34" class="edge"><title>Node1&#45;&gt;Node35</title>
<path fill="none" stroke="midnightblue" d="M1904.27,-75.979C2108.11,-75.7091 3137.38,-72.2911 3451,-31 3453.91,-30.6164 3456.89,-30.1524 3459.89,-29.6292"/>
<polygon fill="midnightblue" stroke="midnightblue" points="1904.12,-72.4791 1894.12,-75.9907 1904.13,-79.4791 1904.12,-72.4791"/>
</g>
<!-- Node36 -->
<g id="node36" class="node"><title>Node36</title>
<g id="a_node36"><a xlink:href="sarray__transfer__test_8c.html" target="_top" xlink:title="jl/tests/sarray_transfer\l_test.c">
<polygon fill="white" stroke="black" points="3582,-0.5 3582,-30.5 3704,-30.5 3704,-0.5 3582,-0.5"/>
<text text-anchor="start" x="3590" y="-18.5" font-family="Helvetica,sans-Serif" font-size="10.00">jl/tests/sarray_transfer</text>
<text text-anchor="middle" x="3643" y="-7.5" font-family="Helvetica,sans-Serif" font-size="10.00">_test.c</text>
</a>
</g>
</g>
<!-- Node1&#45;&gt;Node36 -->
<g id="edge35" class="edge"><title>Node1&#45;&gt;Node36</title>
<path fill="none" stroke="midnightblue" d="M1904.25,-75.9234C2117.11,-75.3318 3233.14,-70.3704 3573,-31 3575.84,-30.6715 3578.73,-30.285 3581.64,-29.8536"/>
<polygon fill="midnightblue" stroke="midnightblue" points="1904.24,-72.4233 1894.25,-75.9498 1904.26,-79.4233 1904.24,-72.4233"/>
</g>
<!-- Node37 -->
<g id="node37" class="node"><title>Node37</title>
<g id="a_node37"><a xlink:href="sort__test_8c.html" target="_top" xlink:title="jl/tests/sort_test.c">
<polygon fill="white" stroke="black" points="3722,-6 3722,-25 3820,-25 3820,-6 3722,-6"/>
<text text-anchor="middle" x="3771" y="-13" font-family="Helvetica,sans-Serif" font-size="10.00">jl/tests/sort_test.c</text>
</a>
</g>
</g>
<!-- Node1&#45;&gt;Node37 -->
<g id="edge36" class="edge"><title>Node1&#45;&gt;Node37</title>
<path fill="none" stroke="midnightblue" d="M1904.31,-76.2001C2127.46,-77.3047 3344.58,-80.9243 3713,-31 3722.57,-29.7038 3732.84,-27.4358 3742.04,-25.073"/>
<polygon fill="midnightblue" stroke="midnightblue" points="1904.17,-72.6994 1894.15,-76.1481 1904.13,-79.6993 1904.17,-72.6994"/>
</g>
<!-- Node38 -->
<g id="node38" class="node"><title>Node38</title>
<g id="a_node38"><a xlink:href="sort__test2_8c.html" target="_top" xlink:title="jl/tests/sort_test2.c">
<polygon fill="white" stroke="black" points="3838,-6 3838,-25 3942,-25 3942,-6 3838,-6"/>
<text text-anchor="middle" x="3890" y="-13" font-family="Helvetica,sans-Serif" font-size="10.00">jl/tests/sort_test2.c</text>
</a>
</g>
</g>
<!-- Node1&#45;&gt;Node38 -->
<g id="edge37" class="edge"><title>Node1&#45;&gt;Node38</title>
<path fill="none" stroke="midnightblue" d="M1904.31,-76.204C2135.51,-77.3868 3435.85,-81.6661 3829,-31 3839.04,-29.7061 3849.84,-27.4387 3859.51,-25.0758"/>
<polygon fill="midnightblue" stroke="midnightblue" points="1904.14,-72.7031 1894.12,-76.1502 1904.1,-79.703 1904.14,-72.7031"/>
</g>
<!-- Node39 -->
<g id="node39" class="node"><title>Node39</title>
<g id="a_node39"><a xlink:href="spchol__test_8c.html" target="_top" xlink:title="jl/tests/spchol_test.c">
<polygon fill="white" stroke="black" points="3960.5,-6 3960.5,-25 4071.5,-25 4071.5,-6 3960.5,-6"/>
<text text-anchor="middle" x="4016" y="-13" font-family="Helvetica,sans-Serif" font-size="10.00">jl/tests/spchol_test.c</text>
</a>
</g>
</g>
<!-- Node1&#45;&gt;Node39 -->
<g id="edge38" class="edge"><title>Node1&#45;&gt;Node39</title>
<path fill="none" stroke="midnightblue" d="M1904.22,-76.1922C2143.35,-77.3541 3531.68,-81.7944 3951,-31 3961.79,-29.693 3973.42,-27.3909 3983.82,-25.0006"/>
<polygon fill="midnightblue" stroke="midnightblue" points="1904.04,-72.6913 1894.02,-76.1412 1904,-79.6912 1904.04,-72.6913"/>
</g>
<!-- Node40 -->
<g id="node40" class="node"><title>Node40</title>
<g id="a_node40"><a xlink:href="xxt__test2_8c.html" target="_top" xlink:title="jl/tests/xxt_test2.c">
<polygon fill="white" stroke="black" points="4090,-6 4090,-25 4190,-25 4190,-6 4090,-6"/>
<text text-anchor="middle" x="4140" y="-13" font-family="Helvetica,sans-Serif" font-size="10.00">jl/tests/xxt_test2.c</text>
</a>
</g>
</g>
<!-- Node1&#45;&gt;Node40 -->
<g id="edge39" class="edge"><title>Node1&#45;&gt;Node40</title>
<path fill="none" stroke="midnightblue" d="M1904.6,-75.7501C2171.61,-73.8128 3856.68,-60.4783 4081,-31 4090.83,-29.7082 4101.4,-27.41 4110.83,-25.0188"/>
<polygon fill="midnightblue" stroke="midnightblue" points="1904.29,-72.2521 1894.32,-75.8241 1904.34,-79.2519 1904.29,-72.2521"/>
</g>
<!-- Node41 -->
<g id="node41" class="node"><title>Node41</title>
<g id="a_node41"><a xlink:href="xxt_8c.html" target="_top" xlink:title="jl/xxt.c">
<polygon fill="white" stroke="black" points="4208.5,-6 4208.5,-25 4253.5,-25 4253.5,-6 4208.5,-6"/>
<text text-anchor="middle" x="4231" y="-13" font-family="Helvetica,sans-Serif" font-size="10.00">jl/xxt.c</text>
</a>
</g>
</g>
<!-- Node1&#45;&gt;Node41 -->
<g id="edge40" class="edge"><title>Node1&#45;&gt;Node41</title>
<path fill="none" stroke="midnightblue" d="M1904.28,-75.7252C2187.4,-73.4691 4082.18,-57.4163 4199,-31 4204.59,-29.7355 4210.39,-27.4446 4215.49,-25.0516"/>
<polygon fill="midnightblue" stroke="midnightblue" points="1904.13,-72.2261 1894.16,-75.8053 1904.19,-79.2259 1904.13,-72.2261"/>
</g>
</g>
</svg>
        <g id="navigator" transform="translate(0 0)" fill="#404254">
                <rect fill="#f2f5e9" fill-opacity="0.5" stroke="#606060" stroke-width=".5" x="0" y="0" width="60" height="60"/>
                <use id="zoomplus" xlink:href="#zoomPlus" x="17" y="9" onmousedown="handleZoom(evt,'in')"/>
                <use id="zoomminus" xlink:href="#zoomMin" x="42" y="9" onmousedown="handleZoom(evt,'out')"/>
                <use id="reset" xlink:href="#resetDef" x="30" y="36" onmousedown="handleReset()"/>
                <g id="arrowUp" xlink:href="#dirArrow" transform="translate(30 24)" onmousedown="handlePan(0,-1)">
                  <use xlink:href="#rim" fill="#404040">
                        <set attributeName="fill" to="#808080" begin="arrowUp.mouseover" end="arrowUp.mouseout"/>
                  </use>
                  <path fill="none" stroke="white" stroke-width="1.5" d="M0,-3.0v7 M-2.5,-0.5L0,-3.0L2.5,-0.5"/>
                </g>
                <g id="arrowRight" xlink:href="#dirArrow" transform="rotate(90) translate(36 -43)" onmousedown="handlePan(1,0)">
                  <use xlink:href="#rim" fill="#404040">
                        <set attributeName="fill" to="#808080" begin="arrowRight.mouseover" end="arrowRight.mouseout"/>
                  </use>
                  <path fill="none" stroke="white" stroke-width="1.5" d="M0,-3.0v7 M-2.5,-0.5L0,-3.0L2.5,-0.5"/>
                </g>
                <g id="arrowDown" xlink:href="#dirArrow" transform="rotate(180) translate(-30 -48)" onmousedown="handlePan(0,1)">
                  <use xlink:href="#rim" fill="#404040">
                        <set attributeName="fill" to="#808080" begin="arrowDown.mouseover" end="arrowDown.mouseout"/>
                  </use>
                  <path fill="none" stroke="white" stroke-width="1.5" d="M0,-3.0v7 M-2.5,-0.5L0,-3.0L2.5,-0.5"/>
                </g>
                <g id="arrowLeft" xlink:href="#dirArrow" transform="rotate(270) translate(-36 17)" onmousedown="handlePan(-1,0)">
                  <use xlink:href="#rim" fill="#404040">
                        <set attributeName="fill" to="#808080" begin="arrowLeft.mouseover" end="arrowLeft.mouseout"/>
                  </use>
                  <path fill="none" stroke="white" stroke-width="1.5" d="M0,-3.0v7 M-2.5,-0.5L0,-3.0L2.5,-0.5"/>
                </g>
        </g>
        <svg viewBox="0 0 15 15" width="100%" height="30px" preserveAspectRatio="xMaxYMin meet">
         <g id="arrow_out" transform="scale(0.3 0.3)">
          <a xlink:href="c99_8h__dep__incl_org.svg" target="_base">
           <rect id="button" ry="5" rx="5" y="6" x="6" height="38" width="38"
                fill="#f2f5e9" fill-opacity="0.5" stroke="#606060" stroke-width="1.0"/>
           <path id="arrow"
             d="M 11.500037,31.436501 C 11.940474,20.09759 22.043105,11.32322 32.158766,21.979434 L 37.068811,17.246167 C 37.068811,17.246167 37.088388,32 37.088388,32 L 22.160133,31.978069 C 22.160133,31.978069 26.997745,27.140456 26.997745,27.140456 C 18.528582,18.264221 13.291696,25.230495 11.500037,31.436501 z"
             style="fill:#404040;"/>
          </a>
         </g>
        </svg>
</svg>
