<?xml version="1.0" encoding="UTF-8" standalone="no"?>
<!DOCTYPE svg PUBLIC "-//W3C//DTD SVG 1.1//EN"
 "http://www.w3.org/Graphics/SVG/1.1/DTD/svg11.dtd">
<!-- Generated by graphviz version 2.38.0 (20140413.2041)
 -->
<!-- Title: speclib::zwgj Pages: 1 -->
<!--zoomable 308 -->
<svg id="main" version="1.1" xmlns="http://www.w3.org/2000/svg" xmlns:xlink="http://www.w3.org/1999/xlink" xml:space="preserve" onload="init(evt)">
<style type="text/css"><![CDATA[
.edge:hover path { stroke: red; }
.edge:hover polygon { stroke: red; fill: red; }
]]></style>
<script type="text/javascript"><![CDATA[
var edges = document.getElementsByTagName('g');
if (edges && edges.length) {
  for (var i=0;i<edges.length;i++) {
    if (edges[i].id.substr(0,4)=='edge') {
      edges[i].setAttribute('class','edge');
    }
  }
}
]]></script>
        <defs>
                <circle id="rim" cx="0" cy="0" r="7"/>
                <circle id="rim2" cx="0" cy="0" r="3.5"/>
                <g id="zoomPlus">
                        <use xlink:href="#rim" fill="#404040">
                                <set attributeName="fill" to="#808080" begin="zoomplus.mouseover" end="zoomplus.mouseout"/>
                        </use>
                        <path d="M-4,0h8M0,-4v8" fill="none" stroke="white" stroke-width="1.5" pointer-events="none"/>
                </g>
                <g id="zoomMin">
                        <use xlink:href="#rim" fill="#404040">
                                <set attributeName="fill" to="#808080" begin="zoomminus.mouseover" end="zoomminus.mouseout"/>
                        </use>
                        <path d="M-4,0h8" fill="none" stroke="white" stroke-width="1.5" pointer-events="none"/>
                </g>
                <g id="dirArrow">
                        <path fill="none" stroke="white" stroke-width="1.5" d="M0,-3.0v7 M-2.5,-0.5L0,-3.0L2.5,-0.5"/>
                </g>
               <g id="resetDef">
                       <use xlink:href="#rim2" fill="#404040">
                               <set attributeName="fill" to="#808080" begin="reset.mouseover" end="reset.mouseout"/>
                       </use>
               </g>
        </defs>

<script type="text/javascript">
var viewWidth = 569;
var viewHeight = 308;
var sectionId = 'dynsection-47';
</script>
<script xlink:href="svgpan.js"/>
<svg id="graph" class="graph">
<g id="viewport">
<title>speclib::zwgj</title>
<polygon fill="white" stroke="none" points="-4,4 -4,-304.01 565,-304.01 565,4 -4,4"/>
<!-- Node1 -->
<g id="node1" class="node"><title>Node1</title>
<polygon fill="#bfbfbf" stroke="black" points="0,-109.51 0,-128.51 74,-128.51 74,-109.51 0,-109.51"/>
<text text-anchor="middle" x="37" y="-116.51" font-family="Helvetica,sans-Serif" font-size="10.00">speclib::zwgj</text>
</g>
<!-- Node2 -->
<g id="node2" class="node"><title>Node2</title>
<g id="a_node2"><a xlink:href="byte_8c.html#a2da8eeb074dfd3ffbfb3e9a4d301cda4" target="_top" xlink:title="exitt">
<polygon fill="white" stroke="black" points="251,-157.51 251,-176.51 287,-176.51 287,-157.51 251,-157.51"/>
<text text-anchor="middle" x="269" y="-164.51" font-family="Helvetica,sans-Serif" font-size="10.00">exitt</text>
</a>
</g>
</g>
<!-- Node1&#45;&gt;Node2 -->
<g id="edge1" class="edge"><title>Node1&#45;&gt;Node2</title>
<path fill="none" stroke="midnightblue" d="M74.1905,-126.563C120.508,-136.229 199.689,-152.754 241.048,-161.386"/>
<polygon fill="midnightblue" stroke="midnightblue" points="240.438,-164.834 250.942,-163.45 241.868,-157.981 240.438,-164.834"/>
</g>
<!-- Node12 -->
<g id="node12" class="node"><title>Node12</title>
<g id="a_node12"><a xlink:href="classspeclib.html#a70378dbc00d8034b969f6b8143a9f79b" target="_top" xlink:title="speclib::zwgjd">
<polygon fill="white" stroke="black" points="110,-76.5103 110,-95.5103 190,-95.5103 190,-76.5103 110,-76.5103"/>
<text text-anchor="middle" x="150" y="-83.5103" font-family="Helvetica,sans-Serif" font-size="10.00">speclib::zwgjd</text>
</a>
</g>
</g>
<!-- Node1&#45;&gt;Node12 -->
<g id="edge11" class="edge"><title>Node1&#45;&gt;Node12</title>
<path fill="none" stroke="midnightblue" d="M70.1058,-109.465C81.7259,-106.011 95.0208,-102.058 107.343,-98.3948"/>
<polygon fill="midnightblue" stroke="midnightblue" points="108.378,-101.738 116.966,-95.5338 106.384,-95.0287 108.378,-101.738"/>
</g>
<!-- Node3 -->
<g id="node3" class="node"><title>Node3</title>
<g id="a_node3"><a xlink:href="classctimer.html#abcecbc845c8ee72e13a19eaa30b80d77" target="_top" xlink:title="ctimer::dnekclock">
<polygon fill="white" stroke="black" points="348,-280.51 348,-299.51 445,-299.51 445,-280.51 348,-280.51"/>
<text text-anchor="middle" x="396.5" y="-287.51" font-family="Helvetica,sans-Serif" font-size="10.00">ctimer::dnekclock</text>
</a>
</g>
</g>
<!-- Node2&#45;&gt;Node3 -->
<g id="edge2" class="edge"><title>Node2&#45;&gt;Node3</title>
<path fill="none" stroke="midnightblue" d="M274.896,-176.727C285.544,-196.957 312.71,-243.965 348,-271.01 350.313,-272.783 352.814,-274.414 355.416,-275.909"/>
<polygon fill="midnightblue" stroke="midnightblue" points="354.02,-279.125 364.527,-280.484 357.161,-272.869 354.02,-279.125"/>
</g>
<!-- Node5 -->
<g id="node5" class="node"><title>Node5</title>
<g id="a_node5"><a xlink:href="subs1_8F90.html#a339739b88994e5bb12bd923147f94983" target="_top" xlink:title="flush_io">
<polygon fill="white" stroke="black" points="370,-242.51 370,-261.51 423,-261.51 423,-242.51 370,-242.51"/>
<text text-anchor="middle" x="396.5" y="-249.51" font-family="Helvetica,sans-Serif" font-size="10.00">flush_io</text>
</a>
</g>
</g>
<!-- Node2&#45;&gt;Node5 -->
<g id="edge4" class="edge"><title>Node2&#45;&gt;Node5</title>
<path fill="none" stroke="midnightblue" d="M279.307,-176.657C293.191,-190.611 320.636,-216.556 348,-233.01 351.872,-235.339 356.082,-237.492 360.341,-239.448"/>
<polygon fill="midnightblue" stroke="midnightblue" points="359.062,-242.708 369.634,-243.406 361.805,-236.267 359.062,-242.708"/>
</g>
<!-- Node6 -->
<g id="node6" class="node"><title>Node6</title>
<g id="a_node6"><a xlink:href="singlmesh_8F90.html#aef78ff219741b83c1ca784b869e9cacf" target="_top" xlink:title="Dummy for singlmesh. ">
<polygon fill="white" stroke="black" points="356.5,-204.51 356.5,-223.51 436.5,-223.51 436.5,-204.51 356.5,-204.51"/>
<text text-anchor="middle" x="396.5" y="-211.51" font-family="Helvetica,sans-Serif" font-size="10.00">happy_check</text>
</a>
</g>
</g>
<!-- Node2&#45;&gt;Node6 -->
<g id="edge5" class="edge"><title>Node2&#45;&gt;Node6</title>
<path fill="none" stroke="midnightblue" d="M287.187,-173.447C305.95,-180.474 336.504,-191.916 360.385,-200.86"/>
<polygon fill="midnightblue" stroke="midnightblue" points="359.235,-204.166 369.828,-204.396 361.69,-197.611 359.235,-204.166"/>
</g>
<!-- Node7 -->
<g id="node7" class="node"><title>Node7</title>
<g id="a_node7"><a xlink:href="mpi__dummy_8F90.html#a55e9a1619aadb638b14211ce21d7d566" target="_top" xlink:title="mpi_finalize">
<polygon fill="white" stroke="black" points="360.5,-166.51 360.5,-185.51 432.5,-185.51 432.5,-166.51 360.5,-166.51"/>
<text text-anchor="middle" x="396.5" y="-173.51" font-family="Helvetica,sans-Serif" font-size="10.00">mpi_finalize</text>
</a>
</g>
</g>
<!-- Node2&#45;&gt;Node7 -->
<g id="edge6" class="edge"><title>Node2&#45;&gt;Node7</title>
<path fill="none" stroke="midnightblue" d="M287.187,-168.243C303.356,-169.402 328.282,-171.19 350.147,-172.758"/>
<polygon fill="midnightblue" stroke="midnightblue" points="350.034,-176.259 360.259,-173.483 350.535,-169.277 350.034,-176.259"/>
</g>
<!-- Node8 -->
<g id="node8" class="node"><title>Node8</title>
<g id="a_node8"><a xlink:href="papi_8F90.html#a3a75ccdfbe05912fda48c3b134d114c0" target="_top" xlink:title="nek_flops">
<polygon fill="white" stroke="black" points="365.5,-128.51 365.5,-147.51 427.5,-147.51 427.5,-128.51 365.5,-128.51"/>
<text text-anchor="middle" x="396.5" y="-135.51" font-family="Helvetica,sans-Serif" font-size="10.00">nek_flops</text>
</a>
</g>
</g>
<!-- Node2&#45;&gt;Node8 -->
<g id="edge7" class="edge"><title>Node2&#45;&gt;Node8</title>
<path fill="none" stroke="midnightblue" d="M287.187,-163.039C304.613,-159.012 332.212,-152.635 355.188,-147.326"/>
<polygon fill="midnightblue" stroke="midnightblue" points="356.081,-150.711 365.036,-145.05 354.505,-143.891 356.081,-150.711"/>
</g>
<!-- Node10 -->
<g id="node10" class="node"><title>Node10</title>
<g id="a_node10"><a xlink:href="comm__mpi_8F90.html#a4acb4d8e379294232e9219bec063d8f3" target="_top" xlink:title="nekgsync">
<polygon fill="white" stroke="black" points="365.5,-90.5103 365.5,-109.51 427.5,-109.51 427.5,-90.5103 365.5,-90.5103"/>
<text text-anchor="middle" x="396.5" y="-97.5103" font-family="Helvetica,sans-Serif" font-size="10.00">nekgsync</text>
</a>
</g>
</g>
<!-- Node2&#45;&gt;Node10 -->
<g id="edge9" class="edge"><title>Node2&#45;&gt;Node10</title>
<path fill="none" stroke="midnightblue" d="M283.955,-157.409C299.245,-147.132 324.705,-130.729 348,-119.01 351.749,-117.124 355.732,-115.287 359.736,-113.545"/>
<polygon fill="midnightblue" stroke="midnightblue" points="361.131,-116.756 369.012,-109.675 358.436,-110.295 361.131,-116.756"/>
</g>
<!-- Node4 -->
<g id="node4" class="node"><title>Node4</title>
<g id="a_node4"><a xlink:href="mpi__dummy_8F90.html#ae6a5ef945f87c2c27849696b70f3af2a" target="_top" xlink:title="mpi_wtime">
<polygon fill="white" stroke="black" points="488,-280.51 488,-299.51 554,-299.51 554,-280.51 488,-280.51"/>
<text text-anchor="middle" x="521" y="-287.51" font-family="Helvetica,sans-Serif" font-size="10.00">mpi_wtime</text>
</a>
</g>
</g>
<!-- Node3&#45;&gt;Node4 -->
<g id="edge3" class="edge"><title>Node3&#45;&gt;Node4</title>
<path fill="none" stroke="midnightblue" d="M445.212,-290.01C455.894,-290.01 467.154,-290.01 477.603,-290.01"/>
<polygon fill="midnightblue" stroke="midnightblue" points="477.73,-293.51 487.729,-290.01 477.729,-286.51 477.73,-293.51"/>
</g>
<!-- Node9 -->
<g id="node9" class="node"><title>Node9</title>
<g id="a_node9"><a xlink:href="papi_8F90.html#a838be3d39e287e29002d5a68c6ad2dd8" target="_top" xlink:title="getflops_papi">
<polygon fill="white" stroke="black" points="481,-128.51 481,-147.51 561,-147.51 561,-128.51 481,-128.51"/>
<text text-anchor="middle" x="521" y="-135.51" font-family="Helvetica,sans-Serif" font-size="10.00">getflops_papi</text>
</a>
</g>
</g>
<!-- Node8&#45;&gt;Node9 -->
<g id="edge8" class="edge"><title>Node8&#45;&gt;Node9</title>
<path fill="none" stroke="midnightblue" d="M427.781,-138.01C440.666,-138.01 456.032,-138.01 470.491,-138.01"/>
<polygon fill="midnightblue" stroke="midnightblue" points="470.811,-141.51 480.811,-138.01 470.811,-134.51 470.811,-141.51"/>
</g>
<!-- Node11 -->
<g id="node11" class="node"><title>Node11</title>
<g id="a_node11"><a xlink:href="mpi__dummy_8F90.html#a070afe564196eb48413dbf1a9fbc99aa" target="_top" xlink:title="mpi_barrier">
<polygon fill="white" stroke="black" points="486,-90.5103 486,-109.51 556,-109.51 556,-90.5103 486,-90.5103"/>
<text text-anchor="middle" x="521" y="-97.5103" font-family="Helvetica,sans-Serif" font-size="10.00">mpi_barrier</text>
</a>
</g>
</g>
<!-- Node10&#45;&gt;Node11 -->
<g id="edge10" class="edge"><title>Node10&#45;&gt;Node11</title>
<path fill="none" stroke="midnightblue" d="M427.781,-100.01C442.195,-100.01 459.714,-100.01 475.594,-100.01"/>
<polygon fill="midnightblue" stroke="midnightblue" points="475.745,-103.51 485.745,-100.01 475.745,-96.5104 475.745,-103.51"/>
</g>
<!-- Node12&#45;&gt;Node2 -->
<g id="edge12" class="edge"><title>Node12&#45;&gt;Node2</title>
<path fill="none" stroke="midnightblue" d="M164.881,-95.6201C184.848,-109.443 221.888,-135.087 245.715,-151.582"/>
<polygon fill="midnightblue" stroke="midnightblue" points="243.923,-154.598 254.137,-157.413 247.907,-148.843 243.923,-154.598"/>
</g>
<!-- Node13 -->
<g id="node13" class="node"><title>Node13</title>
<g id="a_node13"><a xlink:href="classspeclib.html#a92a5edfebc973315d00bf6634c853040" target="_top" xlink:title="speclib::gammaf">
<polygon fill="white" stroke="black" points="351,-52.5103 351,-71.5103 442,-71.5103 442,-52.5103 351,-52.5103"/>
<text text-anchor="middle" x="396.5" y="-59.5103" font-family="Helvetica,sans-Serif" font-size="10.00">speclib::gammaf</text>
</a>
</g>
</g>
<!-- Node12&#45;&gt;Node13 -->
<g id="edge13" class="edge"><title>Node12&#45;&gt;Node13</title>
<path fill="none" stroke="midnightblue" d="M190.004,-91.4975C222.793,-95.0919 270.775,-97.9654 312,-91.0103 321.793,-89.3581 343.03,-81.9629 361.634,-75.0546"/>
<polygon fill="midnightblue" stroke="midnightblue" points="362.917,-78.3114 371.049,-71.5193 360.456,-71.7582 362.917,-78.3114"/>
</g>
<!-- Node14 -->
<g id="node14" class="node"><title>Node14</title>
<g id="a_node14"><a xlink:href="classspeclib.html#a6e4006c61e176baff378ff31472b6634" target="_top" xlink:title="speclib::jacg">
<polygon fill="white" stroke="black" points="232.5,-24.5103 232.5,-43.5103 305.5,-43.5103 305.5,-24.5103 232.5,-24.5103"/>
<text text-anchor="middle" x="269" y="-31.5103" font-family="Helvetica,sans-Serif" font-size="10.00">speclib::jacg</text>
</a>
</g>
</g>
<!-- Node12&#45;&gt;Node14 -->
<g id="edge14" class="edge"><title>Node12&#45;&gt;Node14</title>
<path fill="none" stroke="midnightblue" d="M172.46,-76.4727C190.57,-68.4236 216.726,-56.7986 237.094,-47.7464"/>
<polygon fill="midnightblue" stroke="midnightblue" points="238.564,-50.9233 246.28,-43.6635 235.721,-44.5266 238.564,-50.9233"/>
</g>
<!-- Node15 -->
<g id="node15" class="node"><title>Node15</title>
<g id="a_node15"><a xlink:href="classspeclib.html#af7eaf2eb0994474cab3a5582bbf02903" target="_top" xlink:title="speclib::jacobf">
<polygon fill="white" stroke="black" points="356,-0.510298 356,-19.5103 437,-19.5103 437,-0.510298 356,-0.510298"/>
<text text-anchor="middle" x="396.5" y="-7.5103" font-family="Helvetica,sans-Serif" font-size="10.00">speclib::jacobf</text>
</a>
</g>
</g>
<!-- Node12&#45;&gt;Node15 -->
<g id="edge18" class="edge"><title>Node12&#45;&gt;Node15</title>
<path fill="none" stroke="midnightblue" d="M157.475,-76.3804C169.015,-60.1713 194.871,-27.9426 226,-15.0103 263.983,0.769417 310.99,0.815095 345.86,-2.39961"/>
<polygon fill="midnightblue" stroke="midnightblue" points="345.503,-5.88122 355.811,-3.43491 346.227,1.0812 345.503,-5.88122"/>
</g>
<!-- Node16 -->
<g id="node16" class="node"><title>Node16</title>
<g id="a_node16"><a xlink:href="classspeclib.html#aca23f78205002060fe2e03c1f9e2adbc" target="_top" xlink:title="speclib::pnormj">
<polygon fill="white" stroke="black" points="226,-62.5103 226,-81.5103 312,-81.5103 312,-62.5103 226,-62.5103"/>
<text text-anchor="middle" x="269" y="-69.5103" font-family="Helvetica,sans-Serif" font-size="10.00">speclib::pnormj</text>
</a>
</g>
</g>
<!-- Node12&#45;&gt;Node16 -->
<g id="edge16" class="edge"><title>Node12&#45;&gt;Node16</title>
<path fill="none" stroke="midnightblue" d="M190.285,-81.3096C198.492,-80.3275 207.266,-79.2776 215.856,-78.2498"/>
<polygon fill="midnightblue" stroke="midnightblue" points="216.296,-81.7221 225.809,-77.0587 215.464,-74.7717 216.296,-81.7221"/>
</g>
<!-- Node14&#45;&gt;Node15 -->
<g id="edge15" class="edge"><title>Node14&#45;&gt;Node15</title>
<path fill="none" stroke="midnightblue" d="M305.628,-27.1971C318.101,-24.8117 332.345,-22.0878 345.759,-19.5225"/>
<polygon fill="midnightblue" stroke="midnightblue" points="346.648,-22.916 355.813,-17.5999 345.333,-16.0406 346.648,-22.916"/>
</g>
<!-- Node16&#45;&gt;Node13 -->
<g id="edge17" class="edge"><title>Node16&#45;&gt;Node13</title>
<path fill="none" stroke="midnightblue" d="M312.139,-68.6526C321.238,-67.9276 330.988,-67.1507 340.496,-66.3931"/>
<polygon fill="midnightblue" stroke="midnightblue" points="340.987,-69.8651 350.678,-65.5818 340.431,-62.8873 340.987,-69.8651"/>
</g>
</g>
</svg>
        <g id="navigator" transform="translate(0 0)" fill="#404254">
                <rect fill="#f2f5e9" fill-opacity="0.5" stroke="#606060" stroke-width=".5" x="0" y="0" width="60" height="60"/>
                <use id="zoomplus" xlink:href="#zoomPlus" x="17" y="9" onmousedown="handleZoom(evt,'in')"/>
                <use id="zoomminus" xlink:href="#zoomMin" x="42" y="9" onmousedown="handleZoom(evt,'out')"/>
                <use id="reset" xlink:href="#resetDef" x="30" y="36" onmousedown="handleReset()"/>
                <g id="arrowUp" xlink:href="#dirArrow" transform="translate(30 24)" onmousedown="handlePan(0,-1)">
                  <use xlink:href="#rim" fill="#404040">
                        <set attributeName="fill" to="#808080" begin="arrowUp.mouseover" end="arrowUp.mouseout"/>
                  </use>
                  <path fill="none" stroke="white" stroke-width="1.5" d="M0,-3.0v7 M-2.5,-0.5L0,-3.0L2.5,-0.5"/>
                </g>
                <g id="arrowRight" xlink:href="#dirArrow" transform="rotate(90) translate(36 -43)" onmousedown="handlePan(1,0)">
                  <use xlink:href="#rim" fill="#404040">
                        <set attributeName="fill" to="#808080" begin="arrowRight.mouseover" end="arrowRight.mouseout"/>
                  </use>
                  <path fill="none" stroke="white" stroke-width="1.5" d="M0,-3.0v7 M-2.5,-0.5L0,-3.0L2.5,-0.5"/>
                </g>
                <g id="arrowDown" xlink:href="#dirArrow" transform="rotate(180) translate(-30 -48)" onmousedown="handlePan(0,1)">
                  <use xlink:href="#rim" fill="#404040">
                        <set attributeName="fill" to="#808080" begin="arrowDown.mouseover" end="arrowDown.mouseout"/>
                  </use>
                  <path fill="none" stroke="white" stroke-width="1.5" d="M0,-3.0v7 M-2.5,-0.5L0,-3.0L2.5,-0.5"/>
                </g>
                <g id="arrowLeft" xlink:href="#dirArrow" transform="rotate(270) translate(-36 17)" onmousedown="handlePan(-1,0)">
                  <use xlink:href="#rim" fill="#404040">
                        <set attributeName="fill" to="#808080" begin="arrowLeft.mouseover" end="arrowLeft.mouseout"/>
                  </use>
                  <path fill="none" stroke="white" stroke-width="1.5" d="M0,-3.0v7 M-2.5,-0.5L0,-3.0L2.5,-0.5"/>
                </g>
        </g>
        <svg viewBox="0 0 15 15" width="100%" height="30px" preserveAspectRatio="xMaxYMin meet">
         <g id="arrow_out" transform="scale(0.3 0.3)">
          <a xlink:href="classspeclib_a631f538efe1b48d5b557e06446dcb278_cgraph_org.svg" target="_base">
           <rect id="button" ry="5" rx="5" y="6" x="6" height="38" width="38"
                fill="#f2f5e9" fill-opacity="0.5" stroke="#606060" stroke-width="1.0"/>
           <path id="arrow"
             d="M 11.500037,31.436501 C 11.940474,20.09759 22.043105,11.32322 32.158766,21.979434 L 37.068811,17.246167 C 37.068811,17.246167 37.088388,32 37.088388,32 L 22.160133,31.978069 C 22.160133,31.978069 26.997745,27.140456 26.997745,27.140456 C 18.528582,18.264221 13.291696,25.230495 11.500037,31.436501 z"
             style="fill:#404040;"/>
          </a>
         </g>
        </svg>
</svg>
