<?xml version="1.0" encoding="UTF-8" standalone="no"?>
<!DOCTYPE svg PUBLIC "-//W3C//DTD SVG 1.1//EN"
 "http://www.w3.org/Graphics/SVG/1.1/DTD/svg11.dtd">
<!-- Generated by graphviz version 2.38.0 (20140413.2041)
 -->
<!-- Title: speclib::igljm Pages: 1 -->
<svg width="549pt" height="256pt"
 viewBox="0.00 0.00 549.00 256.00" xmlns="http://www.w3.org/2000/svg" xmlns:xlink="http://www.w3.org/1999/xlink">
<g id="graph0" class="graph" transform="scale(1 1) rotate(0) translate(4 252)">
<title>speclib::igljm</title>
<polygon fill="white" stroke="none" points="-4,4 -4,-252 545,-252 545,4 -4,4"/>
<!-- Node1 -->
<g id="node1" class="node"><title>Node1</title>
<polygon fill="#bfbfbf" stroke="black" points="0,-76.5 0,-95.5 74,-95.5 74,-76.5 0,-76.5"/>
<text text-anchor="middle" x="37" y="-83.5" font-family="Helvetica,sans-Serif" font-size="10.00">speclib::igljm</text>
</g>
<!-- Node2 -->
<g id="node2" class="node"><title>Node2</title>
<g id="a_node2"><a xlink:href="classspeclib.html#a1008a167b2a2b0a8ddd99d56885683ee" target="_top" xlink:title="speclib::hglj">
<polygon fill="white" stroke="black" points="110,-76.5 110,-95.5 180,-95.5 180,-76.5 110,-76.5"/>
<text text-anchor="middle" x="145" y="-83.5" font-family="Helvetica,sans-Serif" font-size="10.00">speclib::hglj</text>
</a>
</g>
</g>
<!-- Node1&#45;&gt;Node2 -->
<g id="edge1" class="edge"><title>Node1&#45;&gt;Node2</title>
<path fill="none" stroke="midnightblue" d="M74.1827,-86C82.3694,-86 91.1532,-86 99.634,-86"/>
<polygon fill="midnightblue" stroke="midnightblue" points="99.7678,-89.5001 109.768,-86 99.7678,-82.5001 99.7678,-89.5001"/>
</g>
<!-- Node3 -->
<g id="node3" class="node"><title>Node3</title>
<g id="a_node3"><a xlink:href="byte_8c.html#a2da8eeb074dfd3ffbfb3e9a4d301cda4" target="_top" xlink:title="exitt">
<polygon fill="white" stroke="black" points="236,-114.5 236,-133.5 272,-133.5 272,-114.5 236,-114.5"/>
<text text-anchor="middle" x="254" y="-121.5" font-family="Helvetica,sans-Serif" font-size="10.00">exitt</text>
</a>
</g>
</g>
<!-- Node2&#45;&gt;Node3 -->
<g id="edge2" class="edge"><title>Node2&#45;&gt;Node3</title>
<path fill="none" stroke="midnightblue" d="M173.001,-95.589C189.304,-101.379 210,-108.729 226.257,-114.503"/>
<polygon fill="midnightblue" stroke="midnightblue" points="225.132,-117.817 235.727,-117.866 227.475,-111.221 225.132,-117.817"/>
</g>
<!-- Node13 -->
<g id="node13" class="node"><title>Node13</title>
<g id="a_node13"><a xlink:href="classspeclib.html#acec38e537ff3ac400e04a39c494d8f67" target="_top" xlink:title="speclib::hgljd">
<polygon fill="white" stroke="black" points="216,-38.5 216,-57.5 292,-57.5 292,-38.5 216,-38.5"/>
<text text-anchor="middle" x="254" y="-45.5" font-family="Helvetica,sans-Serif" font-size="10.00">speclib::hgljd</text>
</a>
</g>
</g>
<!-- Node2&#45;&gt;Node13 -->
<g id="edge12" class="edge"><title>Node2&#45;&gt;Node13</title>
<path fill="none" stroke="midnightblue" d="M173.001,-76.411C186.18,-71.7306 202.229,-66.0308 216.484,-60.9685"/>
<polygon fill="midnightblue" stroke="midnightblue" points="217.756,-64.2308 226.008,-57.5859 215.413,-57.6344 217.756,-64.2308"/>
</g>
<!-- Node4 -->
<g id="node4" class="node"><title>Node4</title>
<g id="a_node4"><a xlink:href="classctimer.html#abcecbc845c8ee72e13a19eaa30b80d77" target="_top" xlink:title="ctimer::dnekclock">
<polygon fill="white" stroke="black" points="328,-228.5 328,-247.5 425,-247.5 425,-228.5 328,-228.5"/>
<text text-anchor="middle" x="376.5" y="-235.5" font-family="Helvetica,sans-Serif" font-size="10.00">ctimer::dnekclock</text>
</a>
</g>
</g>
<!-- Node3&#45;&gt;Node4 -->
<g id="edge3" class="edge"><title>Node3&#45;&gt;Node4</title>
<path fill="none" stroke="midnightblue" d="M260.11,-133.731C270.495,-152.645 295.829,-194.642 328,-219 330.323,-220.759 332.832,-222.38 335.439,-223.868"/>
<polygon fill="midnightblue" stroke="midnightblue" points="334.052,-227.088 344.562,-228.428 337.182,-220.826 334.052,-227.088"/>
</g>
<!-- Node6 -->
<g id="node6" class="node"><title>Node6</title>
<g id="a_node6"><a xlink:href="subs1_8F90.html#a339739b88994e5bb12bd923147f94983" target="_top" xlink:title="flush_io">
<polygon fill="white" stroke="black" points="350,-190.5 350,-209.5 403,-209.5 403,-190.5 350,-190.5"/>
<text text-anchor="middle" x="376.5" y="-197.5" font-family="Helvetica,sans-Serif" font-size="10.00">flush_io</text>
</a>
</g>
</g>
<!-- Node3&#45;&gt;Node6 -->
<g id="edge5" class="edge"><title>Node3&#45;&gt;Node6</title>
<path fill="none" stroke="midnightblue" d="M265.205,-133.506C278.737,-145.735 303.744,-167.056 328,-181 331.917,-183.252 336.154,-185.359 340.428,-187.29"/>
<polygon fill="midnightblue" stroke="midnightblue" points="339.161,-190.555 349.734,-191.224 341.886,-184.107 339.161,-190.555"/>
</g>
<!-- Node7 -->
<g id="node7" class="node"><title>Node7</title>
<g id="a_node7"><a xlink:href="singlmesh_8F90.html#aef78ff219741b83c1ca784b869e9cacf" target="_top" xlink:title="Dummy for singlmesh. ">
<polygon fill="white" stroke="black" points="336.5,-152.5 336.5,-171.5 416.5,-171.5 416.5,-152.5 336.5,-152.5"/>
<text text-anchor="middle" x="376.5" y="-159.5" font-family="Helvetica,sans-Serif" font-size="10.00">happy_check</text>
</a>
</g>
</g>
<!-- Node3&#45;&gt;Node7 -->
<g id="edge6" class="edge"><title>Node3&#45;&gt;Node7</title>
<path fill="none" stroke="midnightblue" d="M272.009,-129.364C288.437,-134.544 313.929,-142.583 335.501,-149.386"/>
<polygon fill="midnightblue" stroke="midnightblue" points="334.501,-152.741 345.09,-152.41 336.606,-146.065 334.501,-152.741"/>
</g>
<!-- Node8 -->
<g id="node8" class="node"><title>Node8</title>
<g id="a_node8"><a xlink:href="mpi__dummy_8F90.html#a55e9a1619aadb638b14211ce21d7d566" target="_top" xlink:title="mpi_finalize">
<polygon fill="white" stroke="black" points="340.5,-114.5 340.5,-133.5 412.5,-133.5 412.5,-114.5 340.5,-114.5"/>
<text text-anchor="middle" x="376.5" y="-121.5" font-family="Helvetica,sans-Serif" font-size="10.00">mpi_finalize</text>
</a>
</g>
</g>
<!-- Node3&#45;&gt;Node8 -->
<g id="edge7" class="edge"><title>Node3&#45;&gt;Node8</title>
<path fill="none" stroke="midnightblue" d="M272.009,-124C287.105,-124 309.854,-124 330.183,-124"/>
<polygon fill="midnightblue" stroke="midnightblue" points="330.231,-127.5 340.231,-124 330.231,-120.5 330.231,-127.5"/>
</g>
<!-- Node9 -->
<g id="node9" class="node"><title>Node9</title>
<g id="a_node9"><a xlink:href="papi_8F90.html#a3a75ccdfbe05912fda48c3b134d114c0" target="_top" xlink:title="nek_flops">
<polygon fill="white" stroke="black" points="345.5,-76.5 345.5,-95.5 407.5,-95.5 407.5,-76.5 345.5,-76.5"/>
<text text-anchor="middle" x="376.5" y="-83.5" font-family="Helvetica,sans-Serif" font-size="10.00">nek_flops</text>
</a>
</g>
</g>
<!-- Node3&#45;&gt;Node9 -->
<g id="edge8" class="edge"><title>Node3&#45;&gt;Node9</title>
<path fill="none" stroke="midnightblue" d="M272.009,-118.636C288.437,-113.456 313.929,-105.417 335.501,-98.6137"/>
<polygon fill="midnightblue" stroke="midnightblue" points="336.606,-101.935 345.09,-95.5898 334.501,-95.2594 336.606,-101.935"/>
</g>
<!-- Node11 -->
<g id="node11" class="node"><title>Node11</title>
<g id="a_node11"><a xlink:href="comm__mpi_8F90.html#a4acb4d8e379294232e9219bec063d8f3" target="_top" xlink:title="nekgsync">
<polygon fill="white" stroke="black" points="345.5,-38.5 345.5,-57.5 407.5,-57.5 407.5,-38.5 345.5,-38.5"/>
<text text-anchor="middle" x="376.5" y="-45.5" font-family="Helvetica,sans-Serif" font-size="10.00">nekgsync</text>
</a>
</g>
</g>
<!-- Node3&#45;&gt;Node11 -->
<g id="edge10" class="edge"><title>Node3&#45;&gt;Node11</title>
<path fill="none" stroke="midnightblue" d="M265.205,-114.494C278.737,-102.265 303.744,-80.9436 328,-67 331.273,-65.1188 334.768,-63.3385 338.321,-61.6775"/>
<polygon fill="midnightblue" stroke="midnightblue" points="339.98,-64.7728 347.752,-57.572 337.186,-58.3546 339.98,-64.7728"/>
</g>
<!-- Node5 -->
<g id="node5" class="node"><title>Node5</title>
<g id="a_node5"><a xlink:href="mpi__dummy_8F90.html#ae6a5ef945f87c2c27849696b70f3af2a" target="_top" xlink:title="mpi_wtime">
<polygon fill="white" stroke="black" points="468,-228.5 468,-247.5 534,-247.5 534,-228.5 468,-228.5"/>
<text text-anchor="middle" x="501" y="-235.5" font-family="Helvetica,sans-Serif" font-size="10.00">mpi_wtime</text>
</a>
</g>
</g>
<!-- Node4&#45;&gt;Node5 -->
<g id="edge4" class="edge"><title>Node4&#45;&gt;Node5</title>
<path fill="none" stroke="midnightblue" d="M425.212,-238C435.894,-238 447.154,-238 457.603,-238"/>
<polygon fill="midnightblue" stroke="midnightblue" points="457.73,-241.5 467.729,-238 457.729,-234.5 457.73,-241.5"/>
</g>
<!-- Node10 -->
<g id="node10" class="node"><title>Node10</title>
<g id="a_node10"><a xlink:href="papi_8F90.html#a838be3d39e287e29002d5a68c6ad2dd8" target="_top" xlink:title="getflops_papi">
<polygon fill="white" stroke="black" points="461,-76.5 461,-95.5 541,-95.5 541,-76.5 461,-76.5"/>
<text text-anchor="middle" x="501" y="-83.5" font-family="Helvetica,sans-Serif" font-size="10.00">getflops_papi</text>
</a>
</g>
</g>
<!-- Node9&#45;&gt;Node10 -->
<g id="edge9" class="edge"><title>Node9&#45;&gt;Node10</title>
<path fill="none" stroke="midnightblue" d="M407.781,-86C420.666,-86 436.032,-86 450.491,-86"/>
<polygon fill="midnightblue" stroke="midnightblue" points="450.811,-89.5001 460.811,-86 450.811,-82.5001 450.811,-89.5001"/>
</g>
<!-- Node12 -->
<g id="node12" class="node"><title>Node12</title>
<g id="a_node12"><a xlink:href="mpi__dummy_8F90.html#a070afe564196eb48413dbf1a9fbc99aa" target="_top" xlink:title="mpi_barrier">
<polygon fill="white" stroke="black" points="466,-38.5 466,-57.5 536,-57.5 536,-38.5 466,-38.5"/>
<text text-anchor="middle" x="501" y="-45.5" font-family="Helvetica,sans-Serif" font-size="10.00">mpi_barrier</text>
</a>
</g>
</g>
<!-- Node11&#45;&gt;Node12 -->
<g id="edge11" class="edge"><title>Node11&#45;&gt;Node12</title>
<path fill="none" stroke="midnightblue" d="M407.781,-48C422.195,-48 439.714,-48 455.594,-48"/>
<polygon fill="midnightblue" stroke="midnightblue" points="455.745,-51.5001 465.745,-48 455.745,-44.5001 455.745,-51.5001"/>
</g>
<!-- Node14 -->
<g id="node14" class="node"><title>Node14</title>
<g id="a_node14"><a xlink:href="classspeclib.html#af7eaf2eb0994474cab3a5582bbf02903" target="_top" xlink:title="speclib::jacobf">
<polygon fill="white" stroke="black" points="336,-0.5 336,-19.5 417,-19.5 417,-0.5 336,-0.5"/>
<text text-anchor="middle" x="376.5" y="-7.5" font-family="Helvetica,sans-Serif" font-size="10.00">speclib::jacobf</text>
</a>
</g>
</g>
<!-- Node13&#45;&gt;Node14 -->
<g id="edge13" class="edge"><title>Node13&#45;&gt;Node14</title>
<path fill="none" stroke="midnightblue" d="M285.407,-38.411C300.535,-33.6406 319.02,-27.8112 335.3,-22.6771"/>
<polygon fill="midnightblue" stroke="midnightblue" points="336.618,-25.9315 345.102,-19.5859 334.513,-19.2556 336.618,-25.9315"/>
</g>
</g>
</svg>
