<?xml version="1.0" encoding="UTF-8" standalone="no"?>
<!DOCTYPE svg PUBLIC "-//W3C//DTD SVG 1.1//EN"
 "http://www.w3.org/Graphics/SVG/1.1/DTD/svg11.dtd">
<!-- Generated by graphviz version 2.38.0 (20140413.2041)
 -->
<!-- Title: speclib::endw1 Pages: 1 -->
<!--zoomable 389 -->
<svg id="main" version="1.1" xmlns="http://www.w3.org/2000/svg" xmlns:xlink="http://www.w3.org/1999/xlink" xml:space="preserve" onload="init(evt)">
<style type="text/css"><![CDATA[
.edge:hover path { stroke: red; }
.edge:hover polygon { stroke: red; fill: red; }
]]></style>
<script type="text/javascript"><![CDATA[
var edges = document.getElementsByTagName('g');
if (edges && edges.length) {
  for (var i=0;i<edges.length;i++) {
    if (edges[i].id.substr(0,4)=='edge') {
      edges[i].setAttribute('class','edge');
    }
  }
}
]]></script>
        <defs>
                <circle id="rim" cx="0" cy="0" r="7"/>
                <circle id="rim2" cx="0" cy="0" r="3.5"/>
                <g id="zoomPlus">
                        <use xlink:href="#rim" fill="#404040">
                                <set attributeName="fill" to="#808080" begin="zoomplus.mouseover" end="zoomplus.mouseout"/>
                        </use>
                        <path d="M-4,0h8M0,-4v8" fill="none" stroke="white" stroke-width="1.5" pointer-events="none"/>
                </g>
                <g id="zoomMin">
                        <use xlink:href="#rim" fill="#404040">
                                <set attributeName="fill" to="#808080" begin="zoomminus.mouseover" end="zoomminus.mouseout"/>
                        </use>
                        <path d="M-4,0h8" fill="none" stroke="white" stroke-width="1.5" pointer-events="none"/>
                </g>
                <g id="dirArrow">
                        <path fill="none" stroke="white" stroke-width="1.5" d="M0,-3.0v7 M-2.5,-0.5L0,-3.0L2.5,-0.5"/>
                </g>
               <g id="resetDef">
                       <use xlink:href="#rim2" fill="#404040">
                               <set attributeName="fill" to="#808080" begin="reset.mouseover" end="reset.mouseout"/>
                       </use>
               </g>
        </defs>

<script type="text/javascript">
var viewWidth = 1883;
var viewHeight = 389;
var sectionId = 'dynsection-16';
</script>
<script xlink:href="svgpan.js"/>
<svg id="graph" class="graph">
<g id="viewport">
<title>speclib::endw1</title>
<polygon fill="white" stroke="none" points="-4,4 -4,-384.843 1879,-384.843 1879,4 -4,4"/>
<!-- Node1 -->
<g id="node1" class="node"><title>Node1</title>
<polygon fill="#bfbfbf" stroke="black" points="0,-209.756 0,-228.756 85,-228.756 85,-209.756 0,-209.756"/>
<text text-anchor="middle" x="42.5" y="-216.756" font-family="Helvetica,sans-Serif" font-size="10.00">speclib::endw1</text>
</g>
<!-- Node2 -->
<g id="node2" class="node"><title>Node2</title>
<g id="a_node2"><a xlink:href="classspeclib.html#ae2c64cf28960c6e471641deed404e86e" target="_top" xlink:title="speclib::zwgljd">
<polygon fill="white" stroke="black" points="121,-209.756 121,-228.756 204,-228.756 204,-209.756 121,-209.756"/>
<text text-anchor="middle" x="162.5" y="-216.756" font-family="Helvetica,sans-Serif" font-size="10.00">speclib::zwgljd</text>
</a>
</g>
</g>
<!-- Node1&#45;&gt;Node2 -->
<g id="edge1" class="edge"><title>Node1&#45;&gt;Node2</title>
<path fill="none" stroke="midnightblue" d="M95.3109,-219.256C103.802,-219.256 112.494,-219.256 120.67,-219.256"/>
<polygon fill="midnightblue" stroke="midnightblue" points="95.1024,-215.757 85.1024,-219.256 95.1024,-222.757 95.1024,-215.757"/>
</g>
<!-- Node3 -->
<g id="node3" class="node"><title>Node3</title>
<g id="a_node3"><a xlink:href="classspeclib.html#a7f8bbfa94e61b0b498a78f57a3b2d46d" target="_top" xlink:title="speclib::zwglj">
<polygon fill="white" stroke="black" points="240,-209.756 240,-228.756 317,-228.756 317,-209.756 240,-209.756"/>
<text text-anchor="middle" x="278.5" y="-216.756" font-family="Helvetica,sans-Serif" font-size="10.00">speclib::zwglj</text>
</a>
</g>
</g>
<!-- Node2&#45;&gt;Node3 -->
<g id="edge2" class="edge"><title>Node2&#45;&gt;Node3</title>
<path fill="none" stroke="midnightblue" d="M214.031,-219.256C222.684,-219.256 231.54,-219.256 239.785,-219.256"/>
<polygon fill="midnightblue" stroke="midnightblue" points="214.013,-215.757 204.013,-219.256 214.013,-222.757 214.013,-215.757"/>
</g>
<!-- Node4 -->
<g id="node4" class="node"><title>Node4</title>
<g id="a_node4"><a xlink:href="coef_8F90.html#a0d49b1aee56670901cd4cdfde7245e6c" target="_top" xlink:title="Generate derivative and interpolation operators. GENERATE. ">
<polygon fill="white" stroke="black" points="492.5,-266.756 492.5,-285.756 539.5,-285.756 539.5,-266.756 492.5,-266.756"/>
<text text-anchor="middle" x="516" y="-273.756" font-family="Helvetica,sans-Serif" font-size="10.00">genwz</text>
</a>
</g>
</g>
<!-- Node3&#45;&gt;Node4 -->
<g id="edge3" class="edge"><title>Node3&#45;&gt;Node4</title>
<path fill="none" stroke="midnightblue" d="M327.069,-230.77C377.38,-242.947 454.603,-261.638 492.476,-270.805"/>
<polygon fill="midnightblue" stroke="midnightblue" points="327.619,-227.302 317.076,-228.351 325.972,-234.106 327.619,-227.302"/>
</g>
<!-- Node7 -->
<g id="node7" class="node"><title>Node7</title>
<g id="a_node7"><a xlink:href="classspeclib.html#ab649647711dc444ca710b98bf943b0d8" target="_top" xlink:title="speclib::zwgll">
<polygon fill="white" stroke="black" points="353,-171.756 353,-190.756 430,-190.756 430,-171.756 353,-171.756"/>
<text text-anchor="middle" x="391.5" y="-178.756" font-family="Helvetica,sans-Serif" font-size="10.00">speclib::zwgll</text>
</a>
</g>
</g>
<!-- Node3&#45;&gt;Node7 -->
<g id="edge6" class="edge"><title>Node3&#45;&gt;Node7</title>
<path fill="none" stroke="midnightblue" d="M317.391,-206.285C332.18,-201.222 348.829,-195.522 362.499,-190.842"/>
<polygon fill="midnightblue" stroke="midnightblue" points="315.837,-203.117 307.51,-209.667 318.105,-209.74 315.837,-203.117"/>
</g>
<!-- Node5 -->
<g id="node5" class="node"><title>Node5</title>
<g id="a_node5"><a xlink:href="drive1_8F90.html#a87bd37ae2c18426f28f35cc3f24e4355" target="_top" xlink:title="initialize nek ">
<polygon fill="white" stroke="black" points="1371,-210.756 1371,-229.756 1424,-229.756 1424,-210.756 1371,-210.756"/>
<text text-anchor="middle" x="1397.5" y="-217.756" font-family="Helvetica,sans-Serif" font-size="10.00">nek_init</text>
</a>
</g>
</g>
<!-- Node4&#45;&gt;Node5 -->
<g id="edge4" class="edge"><title>Node4&#45;&gt;Node5</title>
<path fill="none" stroke="midnightblue" d="M529.813,-293.958C544.751,-313.045 571.341,-342.535 602,-356.256 691.175,-396.168 723.301,-375.256 821,-375.256 821,-375.256 821,-375.256 1213,-375.256 1303.49,-375.256 1372.42,-263.886 1391.32,-229.952"/>
<polygon fill="midnightblue" stroke="midnightblue" points="532.447,-291.639 523.622,-285.776 526.865,-295.863 532.447,-291.639"/>
</g>
<!-- Node6 -->
<g id="node6" class="node"><title>Node6</title>
<g id="a_node6"><a xlink:href="drive_8F90.html#a13048bf28dd0734640412d69349e3857" target="_top" xlink:title="NEK5000: Spectral Element Computational Fluid Dynamics Solver COPYRIGHT (c) 2008&#45;2010 UCHICAGO ARGONN...">
<polygon fill="white" stroke="black" points="1826,-155.756 1826,-174.756 1875,-174.756 1875,-155.756 1826,-155.756"/>
<text text-anchor="middle" x="1850.5" y="-162.756" font-family="Helvetica,sans-Serif" font-size="10.00">nekton</text>
</a>
</g>
</g>
<!-- Node5&#45;&gt;Node6 -->
<g id="edge5" class="edge"><title>Node5&#45;&gt;Node6</title>
<path fill="none" stroke="midnightblue" d="M1434.14,-215.91C1522.84,-205.093 1751.67,-177.187 1825.88,-168.136"/>
<polygon fill="midnightblue" stroke="midnightblue" points="1433.54,-212.457 1424.04,-217.142 1434.39,-219.405 1433.54,-212.457"/>
</g>
<!-- Node7&#45;&gt;Node4 -->
<g id="edge7" class="edge"><title>Node7&#45;&gt;Node4</title>
<path fill="none" stroke="midnightblue" d="M405.843,-198.965C419.392,-215.902 441.778,-241.178 466,-257.256 473.906,-262.504 483.475,-266.624 492.051,-269.666"/>
<polygon fill="midnightblue" stroke="midnightblue" points="408.511,-196.694 399.601,-190.961 402.991,-200.999 408.511,-196.694"/>
</g>
<!-- Node8 -->
<g id="node8" class="node"><title>Node8</title>
<g id="a_node8"><a xlink:href="fast3d_8F90.html#a65b70798668bd7b237bc2308bc4daede" target="_top" xlink:title="Generate fast diagonalization matrices for each element. ">
<polygon fill="white" stroke="black" points="771.5,-190.756 771.5,-209.756 872.5,-209.756 872.5,-190.756 771.5,-190.756"/>
<text text-anchor="middle" x="822" y="-197.756" font-family="Helvetica,sans-Serif" font-size="10.00">gen_fast_spacing</text>
</a>
</g>
</g>
<!-- Node7&#45;&gt;Node8 -->
<g id="edge8" class="edge"><title>Node7&#45;&gt;Node8</title>
<path fill="none" stroke="midnightblue" d="M440.483,-178.233C505.74,-174.809 626.032,-170.947 728,-181.256 746.363,-183.113 766.459,-186.982 783.257,-190.747"/>
<polygon fill="midnightblue" stroke="midnightblue" points="439.904,-174.759 430.109,-178.798 440.285,-181.749 439.904,-174.759"/>
</g>
<!-- Node10 -->
<g id="node10" class="node"><title>Node10</title>
<g id="a_node10"><a xlink:href="fast3d_8F90.html#a1ed312943db727bf8a788864dfd14ae3" target="_top" xlink:title="Generate matrices for single element, 1D operators: ">
<polygon fill="white" stroke="black" points="466,-190.756 466,-209.756 566,-209.756 566,-190.756 466,-190.756"/>
<text text-anchor="middle" x="516" y="-197.756" font-family="Helvetica,sans-Serif" font-size="10.00">generate_semhat</text>
</a>
</g>
</g>
<!-- Node7&#45;&gt;Node10 -->
<g id="edge11" class="edge"><title>Node7&#45;&gt;Node10</title>
<path fill="none" stroke="midnightblue" d="M440.275,-188.666C448.672,-189.969 457.425,-191.326 465.858,-192.635"/>
<polygon fill="midnightblue" stroke="midnightblue" points="440.672,-185.186 430.254,-187.112 439.599,-192.104 440.672,-185.186"/>
</g>
<!-- Node16 -->
<g id="node16" class="node"><title>Node16</title>
<g id="a_node16"><a xlink:href="ic_8F90.html#a170de261200bce1070ca719caaf56df0" target="_top" xlink:title="Interpolate Y(NXR,NYR,NZR,NEL) to X(NX1,NY1,NZ1,NEL) (assumes that NXR=NYR=NZR, or NXR=NYR...">
<polygon fill="white" stroke="black" points="636,-114.756 636,-133.756 694,-133.756 694,-114.756 636,-114.756"/>
<text text-anchor="middle" x="665" y="-121.756" font-family="Helvetica,sans-Serif" font-size="10.00">mapab4r</text>
</a>
</g>
</g>
<!-- Node7&#45;&gt;Node16 -->
<g id="edge20" class="edge"><title>Node7&#45;&gt;Node16</title>
<path fill="none" stroke="midnightblue" d="M419.034,-167.003C432.697,-160.274 449.843,-152.751 466,-148.256 525.047,-131.831 597.096,-126.646 635.94,-125.01"/>
<polygon fill="midnightblue" stroke="midnightblue" points="417.097,-164.061 409.764,-171.708 420.265,-170.303 417.097,-164.061"/>
</g>
<!-- Node20 -->
<g id="node20" class="node"><title>Node20</title>
<g id="a_node20"><a xlink:href="interp__mod_8F90.html#a58f02ae257240ef90f8a1c9e5b092d1c" target="_top" xlink:title="Generate interpolation from np GLL points to mp GL points jgl = interpolation matrix, mapping from velocity nodes to pressure jgt = transpose of interpolation matrix w = work array of size (np+mp) np = number of points on GLL grid mp = number of points on GL grid. ">
<polygon fill="white" stroke="black" points="490,-76.7565 490,-95.7565 542,-95.7565 542,-76.7565 490,-76.7565"/>
<text text-anchor="middle" x="516" y="-83.7565" font-family="Helvetica,sans-Serif" font-size="10.00">gen_int</text>
</a>
</g>
</g>
<!-- Node7&#45;&gt;Node20 -->
<g id="edge25" class="edge"><title>Node7&#45;&gt;Node20</title>
<path fill="none" stroke="midnightblue" d="M407.674,-163.766C421.704,-148.326 443.697,-125.904 466,-110.256 473.91,-104.707 483.295,-99.7702 491.725,-95.8382"/>
<polygon fill="midnightblue" stroke="midnightblue" points="404.788,-161.743 400.748,-171.537 410.014,-166.401 404.788,-161.743"/>
</g>
<!-- Node38 -->
<g id="node38" class="node"><title>Node38</title>
<g id="a_node38"><a xlink:href="navier5_8F90.html#a519066c177fc94530849e83d3b9d4cfb" target="_top" xlink:title="filter vx,vy,vz, and p by simple interpolation ">
<polygon fill="white" stroke="black" points="1069,-0.75648 1069,-19.7565 1118,-19.7565 1118,-0.75648 1069,-0.75648"/>
<text text-anchor="middle" x="1093.5" y="-7.75648" font-family="Helvetica,sans-Serif" font-size="10.00">q_filter</text>
</a>
</g>
</g>
<!-- Node7&#45;&gt;Node38 -->
<g id="edge49" class="edge"><title>Node7&#45;&gt;Node38</title>
<path fill="none" stroke="midnightblue" d="M399.683,-162.345C410.304,-136.927 432.612,-92.0742 466,-67.2565 539.494,-12.6267 572.426,-10.2565 664,-10.2565 664,-10.2565 664,-10.2565 823,-10.2565 913.769,-10.2565 1021.73,-10.2565 1068.71,-10.2565"/>
<polygon fill="midnightblue" stroke="midnightblue" points="396.428,-161.057 395.96,-171.642 402.927,-163.66 396.428,-161.057"/>
</g>
<!-- Node39 -->
<g id="node39" class="node"><title>Node39</title>
<g id="a_node39"><a xlink:href="navier8_8F90.html#aae4a347bc7ce7b06fa7abf792db70953" target="_top" xlink:title="gen_crs_basis">
<polygon fill="white" stroke="black" points="473.5,-228.756 473.5,-247.756 558.5,-247.756 558.5,-228.756 473.5,-228.756"/>
<text text-anchor="middle" x="516" y="-235.756" font-family="Helvetica,sans-Serif" font-size="10.00">gen_crs_basis</text>
</a>
</g>
</g>
<!-- Node7&#45;&gt;Node39 -->
<g id="edge51" class="edge"><title>Node7&#45;&gt;Node39</title>
<path fill="none" stroke="midnightblue" d="M418.743,-195.694C432.617,-203.104 450.04,-212.061 466,-219.256 473.32,-222.556 481.397,-225.833 488.847,-228.712"/>
<polygon fill="midnightblue" stroke="midnightblue" points="420.228,-192.519 409.765,-190.851 416.905,-198.679 420.228,-192.519"/>
</g>
<!-- Node9 -->
<g id="node9" class="node"><title>Node9</title>
<g id="a_node9"><a xlink:href="navier6_8F90.html#a45317b1def173b8f1db2e5083595d095" target="_top" xlink:title="Set up arrays for overlapping Schwartz algorithm for pressure solver ">
<polygon fill="white" stroke="black" points="929.5,-234.756 929.5,-253.756 1001.5,-253.756 1001.5,-234.756 929.5,-234.756"/>
<text text-anchor="middle" x="965.5" y="-241.756" font-family="Helvetica,sans-Serif" font-size="10.00">set_overlap</text>
</a>
</g>
</g>
<!-- Node8&#45;&gt;Node9 -->
<g id="edge9" class="edge"><title>Node8&#45;&gt;Node9</title>
<path fill="none" stroke="midnightblue" d="M863.29,-212.785C885.719,-219.759 913.195,-228.303 933.857,-234.728"/>
<polygon fill="midnightblue" stroke="midnightblue" points="864.292,-209.431 853.703,-209.804 862.213,-216.115 864.292,-209.431"/>
</g>
<!-- Node9&#45;&gt;Node5 -->
<g id="edge10" class="edge"><title>Node9&#45;&gt;Node5</title>
<path fill="none" stroke="midnightblue" d="M1011.85,-241.725C1101.86,-236.702 1300.43,-225.618 1371,-221.68"/>
<polygon fill="midnightblue" stroke="midnightblue" points="1011.48,-238.241 1001.69,-242.292 1011.87,-245.23 1011.48,-238.241"/>
</g>
<!-- Node11 -->
<g id="node11" class="node"><title>Node11</title>
<g id="a_node11"><a xlink:href="classhsmg__routines.html#abc50809cf4aae995f61fd0c4ebc44c70" target="_top" xlink:title="SEM hat matrices for each level. ">
<polygon fill="white" stroke="black" points="607,-278.256 607,-308.256 723,-308.256 723,-278.256 607,-278.256"/>
<text text-anchor="start" x="615" y="-296.256" font-family="Helvetica,sans-Serif" font-size="10.00">hsmg_routines::h1mg</text>
<text text-anchor="middle" x="665" y="-285.256" font-family="Helvetica,sans-Serif" font-size="10.00">_setup_semhat</text>
</a>
</g>
</g>
<!-- Node10&#45;&gt;Node11 -->
<g id="edge12" class="edge"><title>Node10&#45;&gt;Node11</title>
<path fill="none" stroke="midnightblue" d="M558.601,-214.38C561.197,-215.866 563.691,-217.488 566,-219.256 587.455,-235.687 580.655,-251.683 602,-268.256 606.859,-272.029 612.363,-275.311 618.037,-278.144"/>
<polygon fill="midnightblue" stroke="midnightblue" points="560.007,-211.17 549.495,-209.844 556.885,-217.436 560.007,-211.17"/>
</g>
<!-- Node13 -->
<g id="node13" class="node"><title>Node13</title>
<g id="a_node13"><a xlink:href="classhsmg__routines.html#a4a764754ca94ae800fbced43543c8b58" target="_top" xlink:title="hsmg_routines::hsmg\l_setup_semhat">
<polygon fill="white" stroke="black" points="607,-229.256 607,-259.256 723,-259.256 723,-229.256 607,-229.256"/>
<text text-anchor="start" x="615" y="-247.256" font-family="Helvetica,sans-Serif" font-size="10.00">hsmg_routines::hsmg</text>
<text text-anchor="middle" x="665" y="-236.256" font-family="Helvetica,sans-Serif" font-size="10.00">_setup_semhat</text>
</a>
</g>
</g>
<!-- Node10&#45;&gt;Node13 -->
<g id="edge15" class="edge"><title>Node10&#45;&gt;Node13</title>
<path fill="none" stroke="midnightblue" d="M558.612,-212.712C575.738,-217.838 595.728,-223.821 613.668,-229.191"/>
<polygon fill="midnightblue" stroke="midnightblue" points="559.481,-209.318 548.897,-209.804 557.473,-216.024 559.481,-209.318"/>
</g>
<!-- Node15 -->
<g id="node15" class="node"><title>Node15</title>
<g id="a_node15"><a xlink:href="fast3d_8F90.html#a4de164b9c3a6daa704d34c01e5e0ec22" target="_top" xlink:title="Note that this routine performs the following matrix multiplies after getting the matrices back from ...">
<polygon fill="white" stroke="black" points="602,-190.756 602,-209.756 728,-209.756 728,-190.756 602,-190.756"/>
<text text-anchor="middle" x="665" y="-197.756" font-family="Helvetica,sans-Serif" font-size="10.00">load_semhat_weighted</text>
</a>
</g>
</g>
<!-- Node10&#45;&gt;Node15 -->
<g id="edge18" class="edge"><title>Node10&#45;&gt;Node15</title>
<path fill="none" stroke="midnightblue" d="M576.456,-200.256C584.863,-200.256 593.525,-200.256 601.979,-200.256"/>
<polygon fill="midnightblue" stroke="midnightblue" points="576.358,-196.757 566.358,-200.256 576.358,-203.757 576.358,-196.757"/>
</g>
<!-- Node12 -->
<g id="node12" class="node"><title>Node12</title>
<g id="a_node12"><a xlink:href="classhsmg__routines.html#a91e8aa59d56bbf05d75aa9c48bcd8977" target="_top" xlink:title="Sets up Poisson preconditioner. ">
<polygon fill="white" stroke="black" points="764,-278.256 764,-308.256 880,-308.256 880,-278.256 764,-278.256"/>
<text text-anchor="start" x="772" y="-296.256" font-family="Helvetica,sans-Serif" font-size="10.00">hsmg_routines::h1mg</text>
<text text-anchor="middle" x="822" y="-285.256" font-family="Helvetica,sans-Serif" font-size="10.00">_setup</text>
</a>
</g>
</g>
<!-- Node11&#45;&gt;Node12 -->
<g id="edge13" class="edge"><title>Node11&#45;&gt;Node12</title>
<path fill="none" stroke="midnightblue" d="M733.369,-293.256C743.569,-293.256 754.007,-293.256 763.96,-293.256"/>
<polygon fill="midnightblue" stroke="midnightblue" points="733.276,-289.757 723.276,-293.256 733.276,-296.757 733.276,-289.757"/>
</g>
<!-- Node12&#45;&gt;Node9 -->
<g id="edge14" class="edge"><title>Node12&#45;&gt;Node9</title>
<path fill="none" stroke="midnightblue" d="M876.222,-274.826C896.854,-267.681 919.609,-259.802 936.849,-253.832"/>
<polygon fill="midnightblue" stroke="midnightblue" points="874.913,-271.575 866.609,-278.155 877.204,-278.19 874.913,-271.575"/>
</g>
<!-- Node14 -->
<g id="node14" class="node"><title>Node14</title>
<g id="a_node14"><a xlink:href="classhsmg__routines.html#ac8f9bca9624d5e550d70acabfa8aef73" target="_top" xlink:title="Sets up hybrid Schwarz multi&#45;grid preconditioner. ">
<polygon fill="white" stroke="black" points="764,-229.256 764,-259.256 880,-259.256 880,-229.256 764,-229.256"/>
<text text-anchor="start" x="772" y="-247.256" font-family="Helvetica,sans-Serif" font-size="10.00">hsmg_routines::hsmg</text>
<text text-anchor="middle" x="822" y="-236.256" font-family="Helvetica,sans-Serif" font-size="10.00">_setup</text>
</a>
</g>
</g>
<!-- Node13&#45;&gt;Node14 -->
<g id="edge16" class="edge"><title>Node13&#45;&gt;Node14</title>
<path fill="none" stroke="midnightblue" d="M733.369,-244.256C743.569,-244.256 754.007,-244.256 763.96,-244.256"/>
<polygon fill="midnightblue" stroke="midnightblue" points="733.276,-240.757 723.276,-244.256 733.276,-247.757 733.276,-240.757"/>
</g>
<!-- Node14&#45;&gt;Node9 -->
<g id="edge17" class="edge"><title>Node14&#45;&gt;Node9</title>
<path fill="none" stroke="midnightblue" d="M890.338,-244.256C903.749,-244.256 917.324,-244.256 929.13,-244.256"/>
<polygon fill="midnightblue" stroke="midnightblue" points="890.146,-240.757 880.146,-244.256 890.146,-247.757 890.146,-240.757"/>
</g>
<!-- Node15&#45;&gt;Node8 -->
<g id="edge19" class="edge"><title>Node15&#45;&gt;Node8</title>
<path fill="none" stroke="midnightblue" d="M738.312,-200.256C749.449,-200.256 760.729,-200.256 771.227,-200.256"/>
<polygon fill="midnightblue" stroke="midnightblue" points="738.151,-196.757 728.151,-200.256 738.151,-203.757 738.151,-196.757"/>
</g>
<!-- Node17 -->
<g id="node17" class="node"><title>Node17</title>
<g id="a_node17"><a xlink:href="ic_8F90.html#a46a0ff5dd0a6f10aa39215385ba21288" target="_top" xlink:title="mapdmp">
<polygon fill="white" stroke="black" points="937,-171.756 937,-190.756 994,-190.756 994,-171.756 937,-171.756"/>
<text text-anchor="middle" x="965.5" y="-178.756" font-family="Helvetica,sans-Serif" font-size="10.00">mapdmp</text>
</a>
</g>
</g>
<!-- Node16&#45;&gt;Node17 -->
<g id="edge21" class="edge"><title>Node16&#45;&gt;Node17</title>
<path fill="none" stroke="midnightblue" d="M704.06,-131.524C764.991,-143.159 883.025,-165.698 936.71,-175.95"/>
<polygon fill="midnightblue" stroke="midnightblue" points="704.561,-128.057 694.082,-129.619 703.248,-134.933 704.561,-128.057"/>
</g>
<!-- Node18 -->
<g id="node18" class="node"><title>Node18</title>
<g id="a_node18"><a xlink:href="ic_8F90.html#af64028aefb1dff2a9f8a84ff024f44b0" target="_top" xlink:title="driver for restarts (1) Open restart file(s) (2) Check previous spatial discretization (3) Map (K1...">
<polygon fill="white" stroke="black" points="1172,-190.756 1172,-209.756 1252,-209.756 1252,-190.756 1172,-190.756"/>
<text text-anchor="middle" x="1212" y="-197.756" font-family="Helvetica,sans-Serif" font-size="10.00">restart_driver</text>
</a>
</g>
</g>
<!-- Node17&#45;&gt;Node18 -->
<g id="edge22" class="edge"><title>Node17&#45;&gt;Node18</title>
<path fill="none" stroke="midnightblue" d="M1004.11,-184.179C1049.58,-187.712 1125.72,-193.63 1171.87,-197.215"/>
<polygon fill="midnightblue" stroke="midnightblue" points="1004.31,-180.684 994.072,-183.399 1003.77,-187.663 1004.31,-180.684"/>
</g>
<!-- Node19 -->
<g id="node19" class="node"><title>Node19</title>
<g id="a_node19"><a xlink:href="ic_8F90.html#acaefa33e86633e4a7a4b28347d4620d1" target="_top" xlink:title="Set initial conditions. ">
<polygon fill="white" stroke="black" points="1289.5,-190.756 1289.5,-209.756 1333.5,-209.756 1333.5,-190.756 1289.5,-190.756"/>
<text text-anchor="middle" x="1311.5" y="-197.756" font-family="Helvetica,sans-Serif" font-size="10.00">setics</text>
</a>
</g>
</g>
<!-- Node18&#45;&gt;Node19 -->
<g id="edge23" class="edge"><title>Node18&#45;&gt;Node19</title>
<path fill="none" stroke="midnightblue" d="M1262.35,-200.256C1271.86,-200.256 1281.33,-200.256 1289.33,-200.256"/>
<polygon fill="midnightblue" stroke="midnightblue" points="1262.1,-196.757 1252.1,-200.256 1262.1,-203.757 1262.1,-196.757"/>
</g>
<!-- Node19&#45;&gt;Node5 -->
<g id="edge24" class="edge"><title>Node19&#45;&gt;Node5</title>
<path fill="none" stroke="midnightblue" d="M1343.45,-207.625C1352.45,-209.768 1362.18,-212.084 1370.81,-214.14"/>
<polygon fill="midnightblue" stroke="midnightblue" points="1344.24,-204.215 1333.7,-205.303 1342.61,-211.024 1344.24,-204.215"/>
</g>
<!-- Node21 -->
<g id="node21" class="node"><title>Node21</title>
<g id="a_node21"><a xlink:href="classinterp.html#a2637cb8249580b149248f7a6b0ededdf" target="_top" xlink:title="Get pointer to jgl() for interpolation pair (mx,md) ">
<polygon fill="white" stroke="black" points="615.5,-76.7565 615.5,-95.7565 714.5,-95.7565 714.5,-76.7565 615.5,-76.7565"/>
<text text-anchor="middle" x="665" y="-83.7565" font-family="Helvetica,sans-Serif" font-size="10.00">interp::get_int_ptr</text>
</a>
</g>
</g>
<!-- Node20&#45;&gt;Node21 -->
<g id="edge26" class="edge"><title>Node20&#45;&gt;Node21</title>
<path fill="none" stroke="midnightblue" d="M552.5,-86.2565C571.35,-86.2565 594.799,-86.2565 615.322,-86.2565"/>
<polygon fill="midnightblue" stroke="midnightblue" points="552.27,-82.7566 542.27,-86.2565 552.27,-89.7566 552.27,-82.7566"/>
</g>
<!-- Node22 -->
<g id="node22" class="node"><title>Node22</title>
<g id="a_node22"><a xlink:href="convect_8F90.html#aef829efeef773567be893471f50529b1" target="_top" xlink:title="Compute dealiased form: J^T Bf *JC .grad Ju w/ correct Jacobians. ">
<polygon fill="white" stroke="black" points="782.5,-38.7565 782.5,-57.7565 861.5,-57.7565 861.5,-38.7565 782.5,-38.7565"/>
<text text-anchor="middle" x="822" y="-45.7565" font-family="Helvetica,sans-Serif" font-size="10.00">convect_new</text>
</a>
</g>
</g>
<!-- Node21&#45;&gt;Node22 -->
<g id="edge27" class="edge"><title>Node21&#45;&gt;Node22</title>
<path fill="none" stroke="midnightblue" d="M714.855,-74.2792C736.662,-68.9328 761.991,-62.7231 782.436,-57.7108"/>
<polygon fill="midnightblue" stroke="midnightblue" points="713.992,-70.887 705.113,-76.6675 715.659,-77.6856 713.992,-70.887"/>
</g>
<!-- Node35 -->
<g id="node35" class="node"><title>Node35</title>
<g id="a_node35"><a xlink:href="convect_8F90.html#a768d72f963bbcaf77ab9725ad7847c72" target="_top" xlink:title="Put vxd,vyd,vzd into rst form on fine mesh For rst form, see eq. (4.8.5) in Deville, Fischer, Mund (2002). ">
<polygon fill="white" stroke="black" points="916,-114.756 916,-133.756 1015,-133.756 1015,-114.756 916,-114.756"/>
<text text-anchor="middle" x="965.5" y="-121.756" font-family="Helvetica,sans-Serif" font-size="10.00">set_convect_new</text>
</a>
</g>
</g>
<!-- Node21&#45;&gt;Node35 -->
<g id="edge42" class="edge"><title>Node21&#45;&gt;Node35</title>
<path fill="none" stroke="midnightblue" d="M720.329,-97.7631C734.499,-100.496 749.782,-103.21 764,-105.256 815.566,-112.681 875.027,-117.899 915.725,-120.964"/>
<polygon fill="midnightblue" stroke="midnightblue" points="720.727,-94.2744 710.24,-95.7784 719.376,-101.143 720.727,-94.2744"/>
</g>
<!-- Node37 -->
<g id="node37" class="node"><title>Node37</title>
<g id="a_node37"><a xlink:href="induct_8F90.html#adcae8f87adfb3b7c619cd72c46ccd4ac" target="_top" xlink:title="Eulerian scheme, add convection term to forcing function. ">
<polygon fill="white" stroke="black" points="779,-76.7565 779,-95.7565 865,-95.7565 865,-76.7565 779,-76.7565"/>
<text text-anchor="middle" x="822" y="-83.7565" font-family="Helvetica,sans-Serif" font-size="10.00">set_dealias_rx</text>
</a>
</g>
</g>
<!-- Node21&#45;&gt;Node37 -->
<g id="edge47" class="edge"><title>Node21&#45;&gt;Node37</title>
<path fill="none" stroke="midnightblue" d="M724.729,-86.2565C742.729,-86.2565 762.167,-86.2565 778.831,-86.2565"/>
<polygon fill="midnightblue" stroke="midnightblue" points="724.618,-82.7566 714.618,-86.2565 724.618,-89.7566 724.618,-82.7566"/>
</g>
<!-- Node23 -->
<g id="node23" class="node"><title>Node23</title>
<g id="a_node23"><a xlink:href="navier1_8F90.html#a38ba376801cfa958294fae8c90db7680" target="_top" xlink:title="Compute the convective term CONV for a passive scalar field FI. ">
<polygon fill="white" stroke="black" points="940,-38.7565 940,-57.7565 991,-57.7565 991,-38.7565 940,-38.7565"/>
<text text-anchor="middle" x="965.5" y="-45.7565" font-family="Helvetica,sans-Serif" font-size="10.00">convop</text>
</a>
</g>
</g>
<!-- Node22&#45;&gt;Node23 -->
<g id="edge28" class="edge"><title>Node22&#45;&gt;Node23</title>
<path fill="none" stroke="midnightblue" d="M871.893,-48.2565C894.755,-48.2565 920.994,-48.2565 939.691,-48.2565"/>
<polygon fill="midnightblue" stroke="midnightblue" points="871.666,-44.7566 861.665,-48.2565 871.665,-51.7566 871.666,-44.7566"/>
</g>
<!-- Node24 -->
<g id="node24" class="node"><title>Node24</title>
<g id="a_node24"><a xlink:href="navier1_8F90.html#a340322c02acf88d19d4d5ffea79154ac" target="_top" xlink:title="Eulerian scheme, add convection term to forcing function at current time step. ">
<polygon fill="white" stroke="black" points="1071,-76.7565 1071,-95.7565 1116,-95.7565 1116,-76.7565 1071,-76.7565"/>
<text text-anchor="middle" x="1093.5" y="-83.7565" font-family="Helvetica,sans-Serif" font-size="10.00">advab</text>
</a>
</g>
</g>
<!-- Node23&#45;&gt;Node24 -->
<g id="edge29" class="edge"><title>Node23&#45;&gt;Node24</title>
<path fill="none" stroke="midnightblue" d="M1000.88,-58.6245C1023.23,-65.3656 1051.69,-73.9476 1070.91,-79.745"/>
<polygon fill="midnightblue" stroke="midnightblue" points="1001.68,-55.21 991.093,-55.6735 999.657,-61.9119 1001.68,-55.21"/>
</g>
<!-- Node31 -->
<g id="node31" class="node"><title>Node31</title>
<g id="a_node31"><a xlink:href="conduct_8F90.html#af2b8d8c53a101a9edd117d1a78a08069" target="_top" xlink:title="Eulerian scheme, add convection term to forcing function at current time step. ">
<polygon fill="white" stroke="black" points="1068.5,-38.7565 1068.5,-57.7565 1118.5,-57.7565 1118.5,-38.7565 1068.5,-38.7565"/>
<text text-anchor="middle" x="1093.5" y="-45.7565" font-family="Helvetica,sans-Serif" font-size="10.00">convab</text>
</a>
</g>
</g>
<!-- Node23&#45;&gt;Node31 -->
<g id="edge37" class="edge"><title>Node23&#45;&gt;Node31</title>
<path fill="none" stroke="midnightblue" d="M1001.37,-48.2565C1022.69,-48.2565 1049.41,-48.2565 1068.4,-48.2565"/>
<polygon fill="midnightblue" stroke="midnightblue" points="1001.09,-44.7566 991.093,-48.2565 1001.09,-51.7566 1001.09,-44.7566"/>
</g>
<!-- Node25 -->
<g id="node25" class="node"><title>Node25</title>
<g id="a_node25"><a xlink:href="navier1_8F90.html#a83189b3d1938d87f00ace2e7e05d9e4c" target="_top" xlink:title="Compute and add: (1) user specified forcing function (FX,FY,FZ) (2) driving force due to natural conv...">
<polygon fill="white" stroke="black" points="1189.5,-76.7565 1189.5,-95.7565 1234.5,-95.7565 1234.5,-76.7565 1189.5,-76.7565"/>
<text text-anchor="middle" x="1212" y="-83.7565" font-family="Helvetica,sans-Serif" font-size="10.00">makef</text>
</a>
</g>
</g>
<!-- Node24&#45;&gt;Node25 -->
<g id="edge30" class="edge"><title>Node24&#45;&gt;Node25</title>
<path fill="none" stroke="midnightblue" d="M1126.37,-86.2565C1146.42,-86.2565 1171.77,-86.2565 1189.48,-86.2565"/>
<polygon fill="midnightblue" stroke="midnightblue" points="1126.14,-82.7566 1116.14,-86.2565 1126.14,-89.7566 1126.14,-82.7566"/>
</g>
<!-- Node26 -->
<g id="node26" class="node"><title>Node26</title>
<g id="a_node26"><a xlink:href="plan4_8F90.html#a5cbf852b67e73bfa44e028338c4d57ad" target="_top" xlink:title="Splitting scheme . ">
<polygon fill="white" stroke="black" points="1290,-76.7565 1290,-95.7565 1333,-95.7565 1333,-76.7565 1290,-76.7565"/>
<text text-anchor="middle" x="1311.5" y="-83.7565" font-family="Helvetica,sans-Serif" font-size="10.00">plan4</text>
</a>
</g>
</g>
<!-- Node25&#45;&gt;Node26 -->
<g id="edge31" class="edge"><title>Node25&#45;&gt;Node26</title>
<path fill="none" stroke="midnightblue" d="M1244.91,-86.2565C1259.71,-86.2565 1276.87,-86.2565 1289.92,-86.2565"/>
<polygon fill="midnightblue" stroke="midnightblue" points="1244.64,-82.7566 1234.64,-86.2565 1244.64,-89.7566 1244.64,-82.7566"/>
</g>
<!-- Node27 -->
<g id="node27" class="node"><title>Node27</title>
<g id="a_node27"><a xlink:href="drive2_8F90.html#ab0aeca9ad3db8be87a01ba29d069d71e" target="_top" xlink:title="Driver for solving the incompressible Navier&#45;Stokes equations. ">
<polygon fill="white" stroke="black" points="1380,-76.7565 1380,-95.7565 1415,-95.7565 1415,-76.7565 1380,-76.7565"/>
<text text-anchor="middle" x="1397.5" y="-83.7565" font-family="Helvetica,sans-Serif" font-size="10.00">fluid</text>
</a>
</g>
</g>
<!-- Node26&#45;&gt;Node27 -->
<g id="edge32" class="edge"><title>Node26&#45;&gt;Node27</title>
<path fill="none" stroke="midnightblue" d="M1343.62,-86.2565C1355.92,-86.2565 1369.56,-86.2565 1379.91,-86.2565"/>
<polygon fill="midnightblue" stroke="midnightblue" points="1343.26,-82.7566 1333.26,-86.2565 1343.26,-89.7566 1343.26,-82.7566"/>
</g>
<!-- Node28 -->
<g id="node28" class="node"><title>Node28</title>
<g id="a_node28"><a xlink:href="drive1_8F90.html#ae177ea7efac97f35241521b782a671c0" target="_top" xlink:title="take a single time&#45;step ">
<polygon fill="white" stroke="black" points="1460,-76.7565 1460,-95.7565 1540,-95.7565 1540,-76.7565 1460,-76.7565"/>
<text text-anchor="middle" x="1500" y="-83.7565" font-family="Helvetica,sans-Serif" font-size="10.00">nek_advance</text>
</a>
</g>
</g>
<!-- Node27&#45;&gt;Node28 -->
<g id="edge33" class="edge"><title>Node27&#45;&gt;Node28</title>
<path fill="none" stroke="midnightblue" d="M1425.36,-86.2565C1435.92,-86.2565 1448.27,-86.2565 1459.8,-86.2565"/>
<polygon fill="midnightblue" stroke="midnightblue" points="1425.1,-82.7566 1415.1,-86.2565 1425.1,-89.7566 1425.1,-82.7566"/>
</g>
<!-- Node29 -->
<g id="node29" class="node"><title>Node29</title>
<g id="a_node29"><a xlink:href="drive1_8F90.html#a18d3e839786263fc4cf91f7eeb714371" target="_top" xlink:title="take a chunk of time&#45;steps ">
<polygon fill="white" stroke="black" points="1576,-100.756 1576,-119.756 1689,-119.756 1689,-100.756 1576,-100.756"/>
<text text-anchor="middle" x="1632.5" y="-107.756" font-family="Helvetica,sans-Serif" font-size="10.00">nek__multi_advance</text>
</a>
</g>
</g>
<!-- Node28&#45;&gt;Node29 -->
<g id="edge34" class="edge"><title>Node28&#45;&gt;Node29</title>
<path fill="none" stroke="midnightblue" d="M1550.06,-95.2785C1559.78,-97.0658 1570.01,-98.9472 1579.81,-100.75"/>
<polygon fill="midnightblue" stroke="midnightblue" points="1550.62,-91.8238 1540.15,-93.4573 1549.36,-98.7084 1550.62,-91.8238"/>
</g>
<!-- Node30 -->
<g id="node30" class="node"><title>Node30</title>
<g id="a_node30"><a xlink:href="drive1_8F90.html#a6ad57e0cf728f343e371ef8c9a02cd8a" target="_top" xlink:title="integrate the governing equations in time ">
<polygon fill="white" stroke="black" points="1725,-124.756 1725,-143.756 1790,-143.756 1790,-124.756 1725,-124.756"/>
<text text-anchor="middle" x="1757.5" y="-131.756" font-family="Helvetica,sans-Serif" font-size="10.00">nek_solve</text>
</a>
</g>
</g>
<!-- Node29&#45;&gt;Node30 -->
<g id="edge35" class="edge"><title>Node29&#45;&gt;Node30</title>
<path fill="none" stroke="midnightblue" d="M1692.56,-121.781C1703.64,-123.942 1714.82,-126.123 1724.66,-128.044"/>
<polygon fill="midnightblue" stroke="midnightblue" points="1692.95,-118.291 1682.47,-119.811 1691.61,-125.161 1692.95,-118.291"/>
</g>
<!-- Node30&#45;&gt;Node6 -->
<g id="edge36" class="edge"><title>Node30&#45;&gt;Node6</title>
<path fill="none" stroke="midnightblue" d="M1796.49,-147.2C1806.43,-150.585 1816.86,-154.138 1825.81,-157.187"/>
<polygon fill="midnightblue" stroke="midnightblue" points="1797.39,-143.807 1786.79,-143.895 1795.13,-150.433 1797.39,-143.807"/>
</g>
<!-- Node32 -->
<g id="node32" class="node"><title>Node32</title>
<g id="a_node32"><a xlink:href="makeq_8F90.html#ad52d9adde8f010af2d0a8c1a55543eeb" target="_top" xlink:title="Generate forcing function for the solution of a passive scalar. !! NOTE: Do not change the content of...">
<polygon fill="white" stroke="black" points="1188,-38.7565 1188,-57.7565 1236,-57.7565 1236,-38.7565 1188,-38.7565"/>
<text text-anchor="middle" x="1212" y="-45.7565" font-family="Helvetica,sans-Serif" font-size="10.00">makeq</text>
</a>
</g>
</g>
<!-- Node31&#45;&gt;Node32 -->
<g id="edge38" class="edge"><title>Node31&#45;&gt;Node32</title>
<path fill="none" stroke="midnightblue" d="M1128.69,-48.2565C1147.67,-48.2565 1170.79,-48.2565 1187.69,-48.2565"/>
<polygon fill="midnightblue" stroke="midnightblue" points="1128.64,-44.7566 1118.64,-48.2565 1128.64,-51.7566 1128.64,-44.7566"/>
</g>
<!-- Node33 -->
<g id="node33" class="node"><title>Node33</title>
<g id="a_node33"><a xlink:href="conduct_8F90.html#a74a7f053381975ed36df8ea959f3aa01" target="_top" xlink:title="Solve the convection&#45;diffusion equation for passive scalar IPSCAL. ">
<polygon fill="white" stroke="black" points="1288,-38.7565 1288,-57.7565 1335,-57.7565 1335,-38.7565 1288,-38.7565"/>
<text text-anchor="middle" x="1311.5" y="-45.7565" font-family="Helvetica,sans-Serif" font-size="10.00">cdscal</text>
</a>
</g>
</g>
<!-- Node32&#45;&gt;Node33 -->
<g id="edge39" class="edge"><title>Node32&#45;&gt;Node33</title>
<path fill="none" stroke="midnightblue" d="M1246.17,-48.2565C1259.92,-48.2565 1275.51,-48.2565 1287.9,-48.2565"/>
<polygon fill="midnightblue" stroke="midnightblue" points="1246.11,-44.7566 1236.11,-48.2565 1246.11,-51.7566 1246.11,-44.7566"/>
</g>
<!-- Node34 -->
<g id="node34" class="node"><title>Node34</title>
<g id="a_node34"><a xlink:href="drive2_8F90.html#acce80cd37f20e9b52729eb52d86a9c86" target="_top" xlink:title="Driver for temperature or passive scalar. ">
<polygon fill="white" stroke="black" points="1378.5,-38.7565 1378.5,-57.7565 1416.5,-57.7565 1416.5,-38.7565 1378.5,-38.7565"/>
<text text-anchor="middle" x="1397.5" y="-45.7565" font-family="Helvetica,sans-Serif" font-size="10.00">heat</text>
</a>
</g>
</g>
<!-- Node33&#45;&gt;Node34 -->
<g id="edge40" class="edge"><title>Node33&#45;&gt;Node34</title>
<path fill="none" stroke="midnightblue" d="M1345.05,-48.2565C1356.4,-48.2565 1368.71,-48.2565 1378.45,-48.2565"/>
<polygon fill="midnightblue" stroke="midnightblue" points="1345.01,-44.7566 1335.01,-48.2565 1345.01,-51.7566 1345.01,-44.7566"/>
</g>
<!-- Node34&#45;&gt;Node28 -->
<g id="edge41" class="edge"><title>Node34&#45;&gt;Node28</title>
<path fill="none" stroke="midnightblue" d="M1426.61,-58.8837C1441.44,-64.4941 1459.5,-71.3219 1473.87,-76.7548"/>
<polygon fill="midnightblue" stroke="midnightblue" points="1427.52,-55.4893 1416.93,-55.2263 1425.05,-62.0368 1427.52,-55.4893"/>
</g>
<!-- Node36 -->
<g id="node36" class="node"><title>Node36</title>
<g id="a_node36"><a xlink:href="convect_8F90.html#a9b58d62988f53102b490531b844a1891" target="_top" xlink:title="setup_convect">
<polygon fill="white" stroke="black" points="1051,-128.756 1051,-147.756 1136,-147.756 1136,-128.756 1051,-128.756"/>
<text text-anchor="middle" x="1093.5" y="-135.756" font-family="Helvetica,sans-Serif" font-size="10.00">setup_convect</text>
</a>
</g>
</g>
<!-- Node35&#45;&gt;Node36 -->
<g id="edge43" class="edge"><title>Node35&#45;&gt;Node36</title>
<path fill="none" stroke="midnightblue" d="M1025.28,-130.787C1033.92,-131.748 1042.67,-132.72 1050.88,-133.632"/>
<polygon fill="midnightblue" stroke="midnightblue" points="1025.54,-127.295 1015.21,-129.669 1024.77,-134.252 1025.54,-127.295"/>
</g>
<!-- Node36&#45;&gt;Node18 -->
<g id="edge45" class="edge"><title>Node36&#45;&gt;Node18</title>
<path fill="none" stroke="midnightblue" d="M1121.56,-152.66C1143.48,-164.322 1173.74,-180.428 1192.84,-190.592"/>
<polygon fill="midnightblue" stroke="midnightblue" points="1122.92,-149.416 1112.45,-147.808 1119.63,-155.596 1122.92,-149.416"/>
</g>
<!-- Node36&#45;&gt;Node19 -->
<g id="edge46" class="edge"><title>Node36&#45;&gt;Node19</title>
<path fill="none" stroke="midnightblue" d="M1141.04,-150.342C1172.48,-158.658 1214.87,-170.166 1252,-181.256 1264.48,-184.985 1278.35,-189.475 1289.46,-193.154"/>
<polygon fill="midnightblue" stroke="midnightblue" points="1141.8,-146.922 1131.24,-147.758 1140.02,-153.691 1141.8,-146.922"/>
</g>
<!-- Node36&#45;&gt;Node28 -->
<g id="edge44" class="edge"><title>Node36&#45;&gt;Node28</title>
<path fill="none" stroke="midnightblue" d="M1146.14,-135.461C1211.28,-131.39 1326.58,-122.377 1424,-105.256 1437.76,-102.839 1452.72,-99.2494 1465.63,-95.8398"/>
<polygon fill="midnightblue" stroke="midnightblue" points="1145.89,-131.969 1136.12,-136.072 1146.32,-138.956 1145.89,-131.969"/>
</g>
<!-- Node37&#45;&gt;Node35 -->
<g id="edge48" class="edge"><title>Node37&#45;&gt;Node35</title>
<path fill="none" stroke="midnightblue" d="M868.601,-98.5027C888.105,-103.741 910.54,-109.766 928.805,-114.671"/>
<polygon fill="midnightblue" stroke="midnightblue" points="869.272,-95.0589 858.706,-95.8455 867.456,-101.819 869.272,-95.0589"/>
</g>
<!-- Node38&#45;&gt;Node28 -->
<g id="edge50" class="edge"><title>Node38&#45;&gt;Node28</title>
<path fill="none" stroke="midnightblue" d="M1128.46,-5.88288C1189.72,0.648098 1321.82,8.47369 1424,-29.2565 1451.31,-39.3406 1476.9,-62.9587 1489.96,-76.4148"/>
<polygon fill="midnightblue" stroke="midnightblue" points="1127.76,-2.43936 1118.22,-7.03512 1128.54,-9.39551 1127.76,-2.43936"/>
</g>
<!-- Node40 -->
<g id="node40" class="node"><title>Node40</title>
<g id="a_node40"><a xlink:href="navier8_8F90.html#aaeec4769efda346366e7e561aa844c88" target="_top" xlink:title="This routine generates Nelv submatrices of order ncl using Galerkin projection. ">
<polygon fill="white" stroke="black" points="603.5,-327.756 603.5,-346.756 726.5,-346.756 726.5,-327.756 603.5,-327.756"/>
<text text-anchor="middle" x="665" y="-334.756" font-family="Helvetica,sans-Serif" font-size="10.00">get_local_crs_galerkin</text>
</a>
</g>
</g>
<!-- Node39&#45;&gt;Node40 -->
<g id="edge52" class="edge"><title>Node39&#45;&gt;Node40</title>
<path fill="none" stroke="midnightblue" d="M559.617,-252.642C561.868,-254.05 564.016,-255.585 566,-257.256 589.783,-277.294 577.648,-297.915 602,-317.256 607.491,-321.618 613.959,-325.039 620.609,-327.721"/>
<polygon fill="midnightblue" stroke="midnightblue" points="561.026,-249.427 550.553,-247.822 557.739,-255.608 561.026,-249.427"/>
</g>
<!-- Node41 -->
<g id="node41" class="node"><title>Node41</title>
<g id="a_node41"><a xlink:href="navier8_8F90.html#a809b9aa647f2046d09131be2f6074ff6" target="_top" xlink:title="? ">
<polygon fill="white" stroke="black" points="779,-327.756 779,-346.756 865,-346.756 865,-327.756 779,-327.756"/>
<text text-anchor="middle" x="822" y="-334.756" font-family="Helvetica,sans-Serif" font-size="10.00">set_up_h1_crs</text>
</a>
</g>
</g>
<!-- Node40&#45;&gt;Node41 -->
<g id="edge53" class="edge"><title>Node40&#45;&gt;Node41</title>
<path fill="none" stroke="midnightblue" d="M737.059,-337.256C751.235,-337.256 765.7,-337.256 778.54,-337.256"/>
<polygon fill="midnightblue" stroke="midnightblue" points="736.815,-333.757 726.815,-337.256 736.815,-340.757 736.815,-333.757"/>
</g>
<!-- Node41&#45;&gt;Node9 -->
<g id="edge54" class="edge"><title>Node41&#45;&gt;Node9</title>
<path fill="none" stroke="midnightblue" d="M866.441,-323.959C871.133,-321.955 875.743,-319.722 880,-317.256 910.867,-299.378 941.016,-269.488 955.532,-254.089"/>
<polygon fill="midnightblue" stroke="midnightblue" points="864.814,-320.838 856.784,-327.75 867.372,-327.354 864.814,-320.838"/>
</g>
</g>
</svg>
        <g id="navigator" transform="translate(0 0)" fill="#404254">
                <rect fill="#f2f5e9" fill-opacity="0.5" stroke="#606060" stroke-width=".5" x="0" y="0" width="60" height="60"/>
                <use id="zoomplus" xlink:href="#zoomPlus" x="17" y="9" onmousedown="handleZoom(evt,'in')"/>
                <use id="zoomminus" xlink:href="#zoomMin" x="42" y="9" onmousedown="handleZoom(evt,'out')"/>
                <use id="reset" xlink:href="#resetDef" x="30" y="36" onmousedown="handleReset()"/>
                <g id="arrowUp" xlink:href="#dirArrow" transform="translate(30 24)" onmousedown="handlePan(0,-1)">
                  <use xlink:href="#rim" fill="#404040">
                        <set attributeName="fill" to="#808080" begin="arrowUp.mouseover" end="arrowUp.mouseout"/>
                  </use>
                  <path fill="none" stroke="white" stroke-width="1.5" d="M0,-3.0v7 M-2.5,-0.5L0,-3.0L2.5,-0.5"/>
                </g>
                <g id="arrowRight" xlink:href="#dirArrow" transform="rotate(90) translate(36 -43)" onmousedown="handlePan(1,0)">
                  <use xlink:href="#rim" fill="#404040">
                        <set attributeName="fill" to="#808080" begin="arrowRight.mouseover" end="arrowRight.mouseout"/>
                  </use>
                  <path fill="none" stroke="white" stroke-width="1.5" d="M0,-3.0v7 M-2.5,-0.5L0,-3.0L2.5,-0.5"/>
                </g>
                <g id="arrowDown" xlink:href="#dirArrow" transform="rotate(180) translate(-30 -48)" onmousedown="handlePan(0,1)">
                  <use xlink:href="#rim" fill="#404040">
                        <set attributeName="fill" to="#808080" begin="arrowDown.mouseover" end="arrowDown.mouseout"/>
                  </use>
                  <path fill="none" stroke="white" stroke-width="1.5" d="M0,-3.0v7 M-2.5,-0.5L0,-3.0L2.5,-0.5"/>
                </g>
                <g id="arrowLeft" xlink:href="#dirArrow" transform="rotate(270) translate(-36 17)" onmousedown="handlePan(-1,0)">
                  <use xlink:href="#rim" fill="#404040">
                        <set attributeName="fill" to="#808080" begin="arrowLeft.mouseover" end="arrowLeft.mouseout"/>
                  </use>
                  <path fill="none" stroke="white" stroke-width="1.5" d="M0,-3.0v7 M-2.5,-0.5L0,-3.0L2.5,-0.5"/>
                </g>
        </g>
        <svg viewBox="0 0 15 15" width="100%" height="30px" preserveAspectRatio="xMaxYMin meet">
         <g id="arrow_out" transform="scale(0.3 0.3)">
          <a xlink:href="classspeclib_a535035f7b05db7324fa207643849cc2e_icgraph_org.svg" target="_base">
           <rect id="button" ry="5" rx="5" y="6" x="6" height="38" width="38"
                fill="#f2f5e9" fill-opacity="0.5" stroke="#606060" stroke-width="1.0"/>
           <path id="arrow"
             d="M 11.500037,31.436501 C 11.940474,20.09759 22.043105,11.32322 32.158766,21.979434 L 37.068811,17.246167 C 37.068811,17.246167 37.088388,32 37.088388,32 L 22.160133,31.978069 C 22.160133,31.978069 26.997745,27.140456 26.997745,27.140456 C 18.528582,18.264221 13.291696,25.230495 11.500037,31.436501 z"
             style="fill:#404040;"/>
          </a>
         </g>
        </svg>
</svg>
