<?xml version="1.0" encoding="UTF-8" standalone="no"?>
<!DOCTYPE svg PUBLIC "-//W3C//DTD SVG 1.1//EN"
 "http://www.w3.org/Graphics/SVG/1.1/DTD/svg11.dtd">
<!-- Generated by graphviz version 2.38.0 (20140413.2041)
 -->
<!-- Title: poisson::transpose_test Pages: 1 -->
<svg width="1805pt" height="66pt"
 viewBox="0.00 0.00 1805.00 66.00" xmlns="http://www.w3.org/2000/svg" xmlns:xlink="http://www.w3.org/1999/xlink">
<g id="graph0" class="graph" transform="scale(1 1) rotate(0) translate(4 62)">
<title>poisson::transpose_test</title>
<polygon fill="white" stroke="none" points="-4,4 -4,-62 1801,-62 1801,4 -4,4"/>
<!-- Node1 -->
<g id="node1" class="node"><title>Node1</title>
<polygon fill="#bfbfbf" stroke="black" points="0,-19.5 0,-38.5 128,-38.5 128,-19.5 0,-19.5"/>
<text text-anchor="middle" x="64" y="-26.5" font-family="Helvetica,sans-Serif" font-size="10.00">poisson::transpose_test</text>
</g>
<!-- Node2 -->
<g id="node2" class="node"><title>Node2</title>
<g id="a_node2"><a xlink:href="classpoisson.html#ace48c9eb09141b029fd923de91c5cbbc" target="_top" xlink:title="one&#45;time setup of communication infrastructure for poisson_mod ">
<polygon fill="white" stroke="black" points="164,-14 164,-44 269,-44 269,-14 164,-14"/>
<text text-anchor="start" x="172" y="-32" font-family="Helvetica,sans-Serif" font-size="10.00">poisson::init_comm</text>
<text text-anchor="middle" x="216.5" y="-21" font-family="Helvetica,sans-Serif" font-size="10.00">_infrastructure</text>
</a>
</g>
</g>
<!-- Node1&#45;&gt;Node2 -->
<g id="edge1" class="edge"><title>Node1&#45;&gt;Node2</title>
<path fill="none" stroke="midnightblue" d="M138.631,-29C147.061,-29 155.519,-29 163.58,-29"/>
<polygon fill="midnightblue" stroke="midnightblue" points="138.389,-25.5001 128.389,-29 138.389,-32.5001 138.389,-25.5001"/>
</g>
<!-- Node3 -->
<g id="node3" class="node"><title>Node3</title>
<g id="a_node3"><a xlink:href="classpoisson.html#a1ab874c434e5694003e378739fb98c65" target="_top" xlink:title="poisson::spectral_solve">
<polygon fill="white" stroke="black" points="305,-19.5 305,-38.5 431,-38.5 431,-19.5 305,-19.5"/>
<text text-anchor="middle" x="368" y="-26.5" font-family="Helvetica,sans-Serif" font-size="10.00">poisson::spectral_solve</text>
</a>
</g>
</g>
<!-- Node2&#45;&gt;Node3 -->
<g id="edge2" class="edge"><title>Node2&#45;&gt;Node3</title>
<path fill="none" stroke="midnightblue" d="M279.484,-29C287.892,-29 296.522,-29 304.931,-29"/>
<polygon fill="midnightblue" stroke="midnightblue" points="279.368,-25.5001 269.368,-29 279.368,-32.5001 279.368,-25.5001"/>
</g>
<!-- Node4 -->
<g id="node4" class="node"><title>Node4</title>
<g id="a_node4"><a xlink:href="classhsmg__routines.html#adb1f241321c99f913f53fefefee82c09" target="_top" xlink:title="hsmg_routines::hsmg\l_coarse_solve">
<polygon fill="white" stroke="black" points="467,-14 467,-44 583,-44 583,-14 467,-14"/>
<text text-anchor="start" x="475" y="-32" font-family="Helvetica,sans-Serif" font-size="10.00">hsmg_routines::hsmg</text>
<text text-anchor="middle" x="525" y="-21" font-family="Helvetica,sans-Serif" font-size="10.00">_coarse_solve</text>
</a>
</g>
</g>
<!-- Node3&#45;&gt;Node4 -->
<g id="edge3" class="edge"><title>Node3&#45;&gt;Node4</title>
<path fill="none" stroke="midnightblue" d="M441.192,-29C449.801,-29 458.498,-29 466.855,-29"/>
<polygon fill="midnightblue" stroke="midnightblue" points="441.151,-25.5001 431.151,-29 441.151,-32.5001 441.151,-25.5001"/>
</g>
<!-- Node5 -->
<g id="node5" class="node"><title>Node5</title>
<g id="a_node5"><a xlink:href="classhsmg__routines.html#abaa25315b11254629ed79c12c169c52f" target="_top" xlink:title="Solve preconditioner: z = M rhs, where . ">
<polygon fill="white" stroke="black" points="619,-14 619,-44 735,-44 735,-14 619,-14"/>
<text text-anchor="start" x="627" y="-32" font-family="Helvetica,sans-Serif" font-size="10.00">hsmg_routines::h1mg</text>
<text text-anchor="middle" x="677" y="-21" font-family="Helvetica,sans-Serif" font-size="10.00">_solve</text>
</a>
</g>
</g>
<!-- Node4&#45;&gt;Node5 -->
<g id="edge4" class="edge"><title>Node4&#45;&gt;Node5</title>
<path fill="none" stroke="midnightblue" d="M593.311,-29C601.728,-29 610.277,-29 618.525,-29"/>
<polygon fill="midnightblue" stroke="midnightblue" points="593.137,-25.5001 583.136,-29 593.136,-32.5001 593.137,-25.5001"/>
</g>
<!-- Node6 -->
<g id="node6" class="node"><title>Node6</title>
<g id="a_node6"><a xlink:href="gmres_8F90.html#a377d8578c6ccd4fddffb699c7a18f603" target="_top" xlink:title="Solve the Helmholtz equation by right&#45;preconditioned GMRES iteration. ">
<polygon fill="white" stroke="black" points="771,-19.5 771,-38.5 843,-38.5 843,-19.5 771,-19.5"/>
<text text-anchor="middle" x="807" y="-26.5" font-family="Helvetica,sans-Serif" font-size="10.00">hmh_gmres</text>
</a>
</g>
</g>
<!-- Node5&#45;&gt;Node6 -->
<g id="edge5" class="edge"><title>Node5&#45;&gt;Node6</title>
<path fill="none" stroke="midnightblue" d="M745.521,-29C754.26,-29 762.911,-29 770.82,-29"/>
<polygon fill="midnightblue" stroke="midnightblue" points="745.261,-25.5001 735.261,-29 745.261,-32.5001 745.261,-25.5001"/>
</g>
<!-- Node7 -->
<g id="node7" class="node"><title>Node7</title>
<g id="a_node7"><a xlink:href="hmholtz_8F90.html#a8734f3cc2d37d6a2ccd1daa8db57513d" target="_top" xlink:title="Solve the Helmholtz equation, H*U = RHS, using preconditioned conjugate gradient iteration. Preconditioner: diag(H). ">
<polygon fill="white" stroke="black" points="879,-19.5 879,-38.5 919,-38.5 919,-19.5 879,-19.5"/>
<text text-anchor="middle" x="899" y="-26.5" font-family="Helvetica,sans-Serif" font-size="10.00">cggo</text>
</a>
</g>
</g>
<!-- Node6&#45;&gt;Node7 -->
<g id="edge6" class="edge"><title>Node6&#45;&gt;Node7</title>
<path fill="none" stroke="midnightblue" d="M853.165,-29C862.185,-29 871.197,-29 878.75,-29"/>
<polygon fill="midnightblue" stroke="midnightblue" points="853.054,-25.5001 843.054,-29 853.054,-32.5001 853.054,-25.5001"/>
</g>
<!-- Node8 -->
<g id="node8" class="node"><title>Node8</title>
<g id="a_node8"><a xlink:href="hmholtz_8F90.html#a52dcac1fe733719d4987d36aac022e4d" target="_top" xlink:title="hmholtz">
<polygon fill="white" stroke="black" points="979,-38.5 979,-57.5 1032,-57.5 1032,-38.5 979,-38.5"/>
<text text-anchor="middle" x="1005.5" y="-45.5" font-family="Helvetica,sans-Serif" font-size="10.00">hmholtz</text>
</a>
</g>
</g>
<!-- Node7&#45;&gt;Node8 -->
<g id="edge7" class="edge"><title>Node7&#45;&gt;Node8</title>
<path fill="none" stroke="midnightblue" d="M929.301,-34.3274C944.85,-37.1545 963.782,-40.5968 978.761,-43.3201"/>
<polygon fill="midnightblue" stroke="midnightblue" points="929.632,-30.8303 919.167,-32.4849 928.379,-37.7174 929.632,-30.8303"/>
</g>
<!-- Node18 -->
<g id="node18" class="node"><title>Node18</title>
<g id="a_node18"><a xlink:href="classhelmholtz.html#ae307c08c70cdc6428553cb85ce68cbbb" target="_top" xlink:title="helmholtz::hmhzpf">
<polygon fill="white" stroke="black" points="955,-0.5 955,-19.5 1056,-19.5 1056,-0.5 955,-0.5"/>
<text text-anchor="middle" x="1005.5" y="-7.5" font-family="Helvetica,sans-Serif" font-size="10.00">helmholtz::hmhzpf</text>
</a>
</g>
</g>
<!-- Node7&#45;&gt;Node18 -->
<g id="edge18" class="edge"><title>Node7&#45;&gt;Node18</title>
<path fill="none" stroke="midnightblue" d="M929.13,-23.7036C937.176,-22.2407 946.138,-20.6112 954.995,-19.001"/>
<polygon fill="midnightblue" stroke="midnightblue" points="928.379,-20.2826 919.167,-25.5151 929.632,-27.1697 928.379,-20.2826"/>
</g>
<!-- Node9 -->
<g id="node9" class="node"><title>Node9</title>
<g id="a_node9"><a xlink:href="classhelmholtz.html#abf98ad104d11790462e9f07b3fa91848" target="_top" xlink:title="Either std. Helmholtz solve, or a projection + Helmholtz solve. ">
<polygon fill="white" stroke="black" points="1092,-19.5 1092,-38.5 1189,-38.5 1189,-19.5 1092,-19.5"/>
<text text-anchor="middle" x="1140.5" y="-26.5" font-family="Helvetica,sans-Serif" font-size="10.00">helmholtz::hsolve</text>
</a>
</g>
</g>
<!-- Node8&#45;&gt;Node9 -->
<g id="edge8" class="edge"><title>Node8&#45;&gt;Node9</title>
<path fill="none" stroke="midnightblue" d="M1042.21,-42.899C1057.46,-40.7197 1075.49,-38.144 1091.86,-35.8058"/>
<polygon fill="midnightblue" stroke="midnightblue" points="1041.55,-39.4575 1032.14,-44.3366 1042.54,-46.3871 1041.55,-39.4575"/>
</g>
<!-- Node10 -->
<g id="node10" class="node"><title>Node10</title>
<g id="a_node10"><a xlink:href="conduct_8F90.html#a74a7f053381975ed36df8ea959f3aa01" target="_top" xlink:title="Solve the convection&#45;diffusion equation for passive scalar IPSCAL. ">
<polygon fill="white" stroke="black" points="1225,-38.5 1225,-57.5 1272,-57.5 1272,-38.5 1225,-38.5"/>
<text text-anchor="middle" x="1248.5" y="-45.5" font-family="Helvetica,sans-Serif" font-size="10.00">cdscal</text>
</a>
</g>
</g>
<!-- Node9&#45;&gt;Node10 -->
<g id="edge9" class="edge"><title>Node9&#45;&gt;Node10</title>
<path fill="none" stroke="midnightblue" d="M1199.16,-39.3345C1208.28,-40.9709 1217.23,-42.5739 1224.89,-43.9475"/>
<polygon fill="midnightblue" stroke="midnightblue" points="1199.69,-35.8744 1189.23,-37.5551 1198.45,-42.7646 1199.69,-35.8744"/>
</g>
<!-- Node16 -->
<g id="node16" class="node"><title>Node16</title>
<g id="a_node16"><a xlink:href="plan4_8F90.html#a5cbf852b67e73bfa44e028338c4d57ad" target="_top" xlink:title="Splitting scheme . ">
<polygon fill="white" stroke="black" points="1227,-0.5 1227,-19.5 1270,-19.5 1270,-0.5 1227,-0.5"/>
<text text-anchor="middle" x="1248.5" y="-7.5" font-family="Helvetica,sans-Serif" font-size="10.00">plan4</text>
</a>
</g>
</g>
<!-- Node9&#45;&gt;Node16 -->
<g id="edge15" class="edge"><title>Node9&#45;&gt;Node16</title>
<path fill="none" stroke="midnightblue" d="M1199.15,-18.6664C1209.05,-16.8917 1218.73,-15.1561 1226.8,-13.7099"/>
<polygon fill="midnightblue" stroke="midnightblue" points="1198.45,-15.2354 1189.23,-20.4449 1199.69,-22.1256 1198.45,-15.2354"/>
</g>
<!-- Node11 -->
<g id="node11" class="node"><title>Node11</title>
<g id="a_node11"><a xlink:href="drive2_8F90.html#acce80cd37f20e9b52729eb52d86a9c86" target="_top" xlink:title="Driver for temperature or passive scalar. ">
<polygon fill="white" stroke="black" points="1308,-38.5 1308,-57.5 1346,-57.5 1346,-38.5 1308,-38.5"/>
<text text-anchor="middle" x="1327" y="-45.5" font-family="Helvetica,sans-Serif" font-size="10.00">heat</text>
</a>
</g>
</g>
<!-- Node10&#45;&gt;Node11 -->
<g id="edge10" class="edge"><title>Node10&#45;&gt;Node11</title>
<path fill="none" stroke="midnightblue" d="M1282.13,-48C1290.99,-48 1300.26,-48 1307.98,-48"/>
<polygon fill="midnightblue" stroke="midnightblue" points="1282.04,-44.5001 1272.04,-48 1282.04,-51.5001 1282.04,-44.5001"/>
</g>
<!-- Node12 -->
<g id="node12" class="node"><title>Node12</title>
<g id="a_node12"><a xlink:href="drive1_8F90.html#ae177ea7efac97f35241521b782a671c0" target="_top" xlink:title="take a single time&#45;step ">
<polygon fill="white" stroke="black" points="1382,-19.5 1382,-38.5 1462,-38.5 1462,-19.5 1382,-19.5"/>
<text text-anchor="middle" x="1422" y="-26.5" font-family="Helvetica,sans-Serif" font-size="10.00">nek_advance</text>
</a>
</g>
</g>
<!-- Node11&#45;&gt;Node12 -->
<g id="edge11" class="edge"><title>Node11&#45;&gt;Node12</title>
<path fill="none" stroke="midnightblue" d="M1356.36,-42.2055C1364.41,-40.5604 1373.33,-38.7395 1381.9,-36.9889"/>
<polygon fill="midnightblue" stroke="midnightblue" points="1355.47,-38.8153 1346.37,-44.2462 1356.87,-45.6736 1355.47,-38.8153"/>
</g>
<!-- Node13 -->
<g id="node13" class="node"><title>Node13</title>
<g id="a_node13"><a xlink:href="drive1_8F90.html#a18d3e839786263fc4cf91f7eeb714371" target="_top" xlink:title="take a chunk of time&#45;steps ">
<polygon fill="white" stroke="black" points="1498,-19.5 1498,-38.5 1611,-38.5 1611,-19.5 1498,-19.5"/>
<text text-anchor="middle" x="1554.5" y="-26.5" font-family="Helvetica,sans-Serif" font-size="10.00">nek__multi_advance</text>
</a>
</g>
</g>
<!-- Node12&#45;&gt;Node13 -->
<g id="edge12" class="edge"><title>Node12&#45;&gt;Node13</title>
<path fill="none" stroke="midnightblue" d="M1472.19,-29C1480.61,-29 1489.4,-29 1497.97,-29"/>
<polygon fill="midnightblue" stroke="midnightblue" points="1472.15,-25.5001 1462.15,-29 1472.15,-32.5001 1472.15,-25.5001"/>
</g>
<!-- Node14 -->
<g id="node14" class="node"><title>Node14</title>
<g id="a_node14"><a xlink:href="drive1_8F90.html#a6ad57e0cf728f343e371ef8c9a02cd8a" target="_top" xlink:title="integrate the governing equations in time ">
<polygon fill="white" stroke="black" points="1647,-19.5 1647,-38.5 1712,-38.5 1712,-19.5 1647,-19.5"/>
<text text-anchor="middle" x="1679.5" y="-26.5" font-family="Helvetica,sans-Serif" font-size="10.00">nek_solve</text>
</a>
</g>
</g>
<!-- Node13&#45;&gt;Node14 -->
<g id="edge13" class="edge"><title>Node13&#45;&gt;Node14</title>
<path fill="none" stroke="midnightblue" d="M1621.28,-29C1630.16,-29 1638.93,-29 1646.82,-29"/>
<polygon fill="midnightblue" stroke="midnightblue" points="1621.24,-25.5001 1611.24,-29 1621.24,-32.5001 1621.24,-25.5001"/>
</g>
<!-- Node15 -->
<g id="node15" class="node"><title>Node15</title>
<g id="a_node15"><a xlink:href="drive_8F90.html#a13048bf28dd0734640412d69349e3857" target="_top" xlink:title="NEK5000: Spectral Element Computational Fluid Dynamics Solver COPYRIGHT (c) 2008&#45;2010 UCHICAGO ARGONN...">
<polygon fill="white" stroke="black" points="1748,-19.5 1748,-38.5 1797,-38.5 1797,-19.5 1748,-19.5"/>
<text text-anchor="middle" x="1772.5" y="-26.5" font-family="Helvetica,sans-Serif" font-size="10.00">nekton</text>
</a>
</g>
</g>
<!-- Node14&#45;&gt;Node15 -->
<g id="edge14" class="edge"><title>Node14&#45;&gt;Node15</title>
<path fill="none" stroke="midnightblue" d="M1722.19,-29C1730.95,-29 1739.9,-29 1747.73,-29"/>
<polygon fill="midnightblue" stroke="midnightblue" points="1722.07,-25.5001 1712.07,-29 1722.07,-32.5001 1722.07,-25.5001"/>
</g>
<!-- Node17 -->
<g id="node17" class="node"><title>Node17</title>
<g id="a_node17"><a xlink:href="drive2_8F90.html#ab0aeca9ad3db8be87a01ba29d069d71e" target="_top" xlink:title="Driver for solving the incompressible Navier&#45;Stokes equations. ">
<polygon fill="white" stroke="black" points="1309.5,-0.5 1309.5,-19.5 1344.5,-19.5 1344.5,-0.5 1309.5,-0.5"/>
<text text-anchor="middle" x="1327" y="-7.5" font-family="Helvetica,sans-Serif" font-size="10.00">fluid</text>
</a>
</g>
</g>
<!-- Node16&#45;&gt;Node17 -->
<g id="edge16" class="edge"><title>Node16&#45;&gt;Node17</title>
<path fill="none" stroke="midnightblue" d="M1280.26,-10C1290.09,-10 1300.6,-10 1309.06,-10"/>
<polygon fill="midnightblue" stroke="midnightblue" points="1280,-6.5001 1270,-10 1280,-13.5001 1280,-6.5001"/>
</g>
<!-- Node17&#45;&gt;Node12 -->
<g id="edge17" class="edge"><title>Node17&#45;&gt;Node12</title>
<path fill="none" stroke="midnightblue" d="M1354.63,-15.4415C1363.08,-17.1662 1372.59,-19.1106 1381.73,-20.9771"/>
<polygon fill="midnightblue" stroke="midnightblue" points="1355.12,-11.9694 1344.63,-13.3968 1353.72,-18.8277 1355.12,-11.9694"/>
</g>
<!-- Node18&#45;&gt;Node9 -->
<g id="edge19" class="edge"><title>Node18&#45;&gt;Node9</title>
<path fill="none" stroke="midnightblue" d="M1066.01,-18.5018C1074.61,-19.7303 1083.37,-20.9814 1091.7,-22.1716"/>
<polygon fill="midnightblue" stroke="midnightblue" points="1066.42,-15.0244 1056.02,-17.0749 1065.43,-21.954 1066.42,-15.0244"/>
</g>
</g>
</svg>
