<?xml version="1.0" encoding="UTF-8" standalone="no"?>
<!DOCTYPE svg PUBLIC "-//W3C//DTD SVG 1.1//EN"
 "http://www.w3.org/Graphics/SVG/1.1/DTD/svg11.dtd">
<!-- Generated by graphviz version 2.38.0 (20140413.2041)
 -->
<!-- Title: parallel::init_gllnid Pages: 1 -->
<!--zoomable 208 -->
<svg id="main" version="1.1" xmlns="http://www.w3.org/2000/svg" xmlns:xlink="http://www.w3.org/1999/xlink" xml:space="preserve" onload="init(evt)">
<style type="text/css"><![CDATA[
.edge:hover path { stroke: red; }
.edge:hover polygon { stroke: red; fill: red; }
]]></style>
<script type="text/javascript"><![CDATA[
var edges = document.getElementsByTagName('g');
if (edges && edges.length) {
  for (var i=0;i<edges.length;i++) {
    if (edges[i].id.substr(0,4)=='edge') {
      edges[i].setAttribute('class','edge');
    }
  }
}
]]></script>
        <defs>
                <circle id="rim" cx="0" cy="0" r="7"/>
                <circle id="rim2" cx="0" cy="0" r="3.5"/>
                <g id="zoomPlus">
                        <use xlink:href="#rim" fill="#404040">
                                <set attributeName="fill" to="#808080" begin="zoomplus.mouseover" end="zoomplus.mouseout"/>
                        </use>
                        <path d="M-4,0h8M0,-4v8" fill="none" stroke="white" stroke-width="1.5" pointer-events="none"/>
                </g>
                <g id="zoomMin">
                        <use xlink:href="#rim" fill="#404040">
                                <set attributeName="fill" to="#808080" begin="zoomminus.mouseover" end="zoomminus.mouseout"/>
                        </use>
                        <path d="M-4,0h8" fill="none" stroke="white" stroke-width="1.5" pointer-events="none"/>
                </g>
                <g id="dirArrow">
                        <path fill="none" stroke="white" stroke-width="1.5" d="M0,-3.0v7 M-2.5,-0.5L0,-3.0L2.5,-0.5"/>
                </g>
               <g id="resetDef">
                       <use xlink:href="#rim2" fill="#404040">
                               <set attributeName="fill" to="#808080" begin="reset.mouseover" end="reset.mouseout"/>
                       </use>
               </g>
        </defs>

<script type="text/javascript">
var viewWidth = 904;
var viewHeight = 208;
var sectionId = 'dynsection-5';
</script>
<script xlink:href="svgpan.js"/>
<svg id="graph" class="graph">
<g id="viewport">
<title>parallel::init_gllnid</title>
<polygon fill="white" stroke="none" points="-4,4 -4,-203.861 900,-203.861 900,4 -4,4"/>
<!-- Node1 -->
<g id="node1" class="node"><title>Node1</title>
<polygon fill="#bfbfbf" stroke="black" points="0,-87.3614 0,-106.361 100,-106.361 100,-87.3614 0,-87.3614"/>
<text text-anchor="middle" x="50" y="-94.3614" font-family="Helvetica,sans-Serif" font-size="10.00">parallel::init_gllnid</text>
</g>
<!-- Node2 -->
<g id="node2" class="node"><title>Node2</title>
<g id="a_node2"><a xlink:href="navier8_8F90.html#a7b711f52527072521e8670492a58ed16" target="_top" xlink:title="get_vert_map">
<polygon fill="white" stroke="black" points="136,-87.3614 136,-106.361 218,-106.361 218,-87.3614 136,-87.3614"/>
<text text-anchor="middle" x="177" y="-94.3614" font-family="Helvetica,sans-Serif" font-size="10.00">get_vert_map</text>
</a>
</g>
</g>
<!-- Node1&#45;&gt;Node2 -->
<g id="edge1" class="edge"><title>Node1&#45;&gt;Node2</title>
<path fill="none" stroke="midnightblue" d="M110.207,-96.8614C118.933,-96.8614 127.745,-96.8614 135.959,-96.8614"/>
<polygon fill="midnightblue" stroke="midnightblue" points="110.045,-93.3615 100.045,-96.8614 110.045,-100.362 110.045,-93.3615"/>
</g>
<!-- Node3 -->
<g id="node3" class="node"><title>Node3</title>
<g id="a_node3"><a xlink:href="navier8_8F90.html#a3126acd6d2b7a3e63f6f0329d5bae424" target="_top" xlink:title="get_vert">
<polygon fill="white" stroke="black" points="254,-87.3614 254,-106.361 310,-106.361 310,-87.3614 254,-87.3614"/>
<text text-anchor="middle" x="282" y="-94.3614" font-family="Helvetica,sans-Serif" font-size="10.00">get_vert</text>
</a>
</g>
</g>
<!-- Node2&#45;&gt;Node3 -->
<g id="edge2" class="edge"><title>Node2&#45;&gt;Node3</title>
<path fill="none" stroke="midnightblue" d="M228.365,-96.8614C237.164,-96.8614 246.007,-96.8614 253.866,-96.8614"/>
<polygon fill="midnightblue" stroke="midnightblue" points="228.117,-93.3615 218.117,-96.8614 228.117,-100.362 228.117,-93.3615"/>
</g>
<!-- Node4 -->
<g id="node4" class="node"><title>Node4</title>
<g id="a_node4"><a xlink:href="navier8_8F90.html#a3c68a6cfc47f9c2602ab5029cae20ac8" target="_top" xlink:title="get_vertex">
<polygon fill="white" stroke="black" points="370.5,-180.361 370.5,-199.361 437.5,-199.361 437.5,-180.361 370.5,-180.361"/>
<text text-anchor="middle" x="404" y="-187.361" font-family="Helvetica,sans-Serif" font-size="10.00">get_vertex</text>
</a>
</g>
</g>
<!-- Node3&#45;&gt;Node4 -->
<g id="edge3" class="edge"><title>Node3&#45;&gt;Node4</title>
<path fill="none" stroke="midnightblue" d="M294.929,-115.539C306.269,-131.933 324.721,-155.362 346,-169.861 353.28,-174.822 361.919,-178.68 370.242,-181.626"/>
<polygon fill="midnightblue" stroke="midnightblue" points="297.571,-113.193 289.106,-106.821 291.75,-117.08 297.571,-113.193"/>
</g>
<!-- Node9 -->
<g id="node9" class="node"><title>Node9</title>
<g id="a_node9"><a xlink:href="classhsmg__routines.html#ae77d2725d2058f12595e58c677dca8f2" target="_top" xlink:title="hsmg_routines::h1mg\l_setup_dssum">
<polygon fill="white" stroke="black" points="346,-130.861 346,-160.861 462,-160.861 462,-130.861 346,-130.861"/>
<text text-anchor="start" x="354" y="-148.861" font-family="Helvetica,sans-Serif" font-size="10.00">hsmg_routines::h1mg</text>
<text text-anchor="middle" x="404" y="-137.861" font-family="Helvetica,sans-Serif" font-size="10.00">_setup_dssum</text>
</a>
</g>
</g>
<!-- Node3&#45;&gt;Node9 -->
<g id="edge8" class="edge"><title>Node3&#45;&gt;Node9</title>
<path fill="none" stroke="midnightblue" d="M316.09,-110.373C331.549,-116.686 350.014,-124.225 365.94,-130.729"/>
<polygon fill="midnightblue" stroke="midnightblue" points="317.003,-106.966 306.422,-106.425 314.357,-113.446 317.003,-106.966"/>
</g>
<!-- Node11 -->
<g id="node11" class="node"><title>Node11</title>
<g id="a_node11"><a xlink:href="classhsmg__routines.html#ac8ad367a9256351c66da876bb6c8d936" target="_top" xlink:title="hsmg_routines::hsmg\l_setup_dssum">
<polygon fill="white" stroke="black" points="346,-81.8614 346,-111.861 462,-111.861 462,-81.8614 346,-81.8614"/>
<text text-anchor="start" x="354" y="-99.8614" font-family="Helvetica,sans-Serif" font-size="10.00">hsmg_routines::hsmg</text>
<text text-anchor="middle" x="404" y="-88.8614" font-family="Helvetica,sans-Serif" font-size="10.00">_setup_dssum</text>
</a>
</g>
</g>
<!-- Node3&#45;&gt;Node11 -->
<g id="edge11" class="edge"><title>Node3&#45;&gt;Node11</title>
<path fill="none" stroke="midnightblue" d="M320.456,-96.8614C328.563,-96.8614 337.313,-96.8614 345.979,-96.8614"/>
<polygon fill="midnightblue" stroke="midnightblue" points="320.23,-93.3615 310.23,-96.8614 320.23,-100.362 320.23,-93.3615"/>
</g>
<!-- Node13 -->
<g id="node13" class="node"><title>Node13</title>
<g id="a_node13"><a xlink:href="map2_8F90.html#a7d36efc1d668447eee63563983385f7a" target="_top" xlink:title="Compute element to processor distribution according to (weighted) physical distribution in an attempt...">
<polygon fill="white" stroke="black" points="362,-43.3614 362,-62.3614 446,-62.3614 446,-43.3614 362,-43.3614"/>
<text text-anchor="middle" x="404" y="-50.3614" font-family="Helvetica,sans-Serif" font-size="10.00">set_proc_map</text>
</a>
</g>
</g>
<!-- Node3&#45;&gt;Node13 -->
<g id="edge14" class="edge"><title>Node3&#45;&gt;Node13</title>
<path fill="none" stroke="midnightblue" d="M315.565,-83.5363C325.31,-79.6578 336.051,-75.4905 346,-71.8614 354.82,-68.6444 364.483,-65.3411 373.307,-62.4097"/>
<polygon fill="midnightblue" stroke="midnightblue" points="314.194,-80.315 306.217,-87.2879 316.802,-86.8114 314.194,-80.315"/>
</g>
<!-- Node16 -->
<g id="node16" class="node"><title>Node16</title>
<g id="a_node16"><a xlink:href="connect1_8F90.html#ad619b0e5766c6f9dd44ae5c8b6f485f0" target="_top" xlink:title="Parallel compatible routine to find connectivity of element structure. On Processor 0: ...">
<polygon fill="white" stroke="black" points="651.5,-5.36144 651.5,-24.3614 720.5,-24.3614 720.5,-5.36144 651.5,-5.36144"/>
<text text-anchor="middle" x="686" y="-12.3614" font-family="Helvetica,sans-Serif" font-size="10.00">setup_topo</text>
</a>
</g>
</g>
<!-- Node3&#45;&gt;Node16 -->
<g id="edge18" class="edge"><title>Node3&#45;&gt;Node16</title>
<path fill="none" stroke="midnightblue" d="M295.404,-78.4906C306.66,-63.5296 324.72,-43.3824 346,-33.8614 449.309,12.3594 588.342,-0.0634966 651.402,-9.16377"/>
<polygon fill="midnightblue" stroke="midnightblue" points="292.29,-76.8279 289.307,-86.9944 297.979,-80.9066 292.29,-76.8279"/>
</g>
<!-- Node5 -->
<g id="node5" class="node"><title>Node5</title>
<g id="a_node5"><a xlink:href="navier8_8F90.html#a809b9aa647f2046d09131be2f6074ff6" target="_top" xlink:title="? ">
<polygon fill="white" stroke="black" points="513,-180.361 513,-199.361 599,-199.361 599,-180.361 513,-180.361"/>
<text text-anchor="middle" x="556" y="-187.361" font-family="Helvetica,sans-Serif" font-size="10.00">set_up_h1_crs</text>
</a>
</g>
</g>
<!-- Node4&#45;&gt;Node5 -->
<g id="edge4" class="edge"><title>Node4&#45;&gt;Node5</title>
<path fill="none" stroke="midnightblue" d="M447.811,-189.861C468.202,-189.861 492.509,-189.861 512.817,-189.861"/>
<polygon fill="midnightblue" stroke="midnightblue" points="447.548,-186.362 437.548,-189.861 447.548,-193.362 447.548,-186.362"/>
</g>
<!-- Node6 -->
<g id="node6" class="node"><title>Node6</title>
<g id="a_node6"><a xlink:href="navier6_8F90.html#a45317b1def173b8f1db2e5083595d095" target="_top" xlink:title="Set up arrays for overlapping Schwartz algorithm for pressure solver ">
<polygon fill="white" stroke="black" points="650,-111.361 650,-130.361 722,-130.361 722,-111.361 650,-111.361"/>
<text text-anchor="middle" x="686" y="-118.361" font-family="Helvetica,sans-Serif" font-size="10.00">set_overlap</text>
</a>
</g>
</g>
<!-- Node5&#45;&gt;Node6 -->
<g id="edge5" class="edge"><title>Node5&#45;&gt;Node6</title>
<path fill="none" stroke="midnightblue" d="M598.489,-176.774C603.802,-174.673 609.093,-172.359 614,-169.861 636.157,-158.585 659.433,-141.33 673.06,-130.591"/>
<polygon fill="midnightblue" stroke="midnightblue" points="597.13,-173.545 588.984,-180.319 599.577,-180.104 597.13,-173.545"/>
</g>
<!-- Node7 -->
<g id="node7" class="node"><title>Node7</title>
<g id="a_node7"><a xlink:href="drive1_8F90.html#a87bd37ae2c18426f28f35cc3f24e4355" target="_top" xlink:title="initialize nek ">
<polygon fill="white" stroke="black" points="758,-43.3614 758,-62.3614 811,-62.3614 811,-43.3614 758,-43.3614"/>
<text text-anchor="middle" x="784.5" y="-50.3614" font-family="Helvetica,sans-Serif" font-size="10.00">nek_init</text>
</a>
</g>
</g>
<!-- Node6&#45;&gt;Node7 -->
<g id="edge6" class="edge"><title>Node6&#45;&gt;Node7</title>
<path fill="none" stroke="midnightblue" d="M709.107,-105.284C727.885,-92.051 754.233,-73.4849 770.011,-62.3669"/>
<polygon fill="midnightblue" stroke="midnightblue" points="706.984,-102.497 700.826,-111.119 711.017,-108.22 706.984,-102.497"/>
</g>
<!-- Node8 -->
<g id="node8" class="node"><title>Node8</title>
<g id="a_node8"><a xlink:href="drive_8F90.html#a13048bf28dd0734640412d69349e3857" target="_top" xlink:title="NEK5000: Spectral Element Computational Fluid Dynamics Solver COPYRIGHT (c) 2008&#45;2010 UCHICAGO ARGONN...">
<polygon fill="white" stroke="black" points="847,-43.3614 847,-62.3614 896,-62.3614 896,-43.3614 847,-43.3614"/>
<text text-anchor="middle" x="871.5" y="-50.3614" font-family="Helvetica,sans-Serif" font-size="10.00">nekton</text>
</a>
</g>
</g>
<!-- Node7&#45;&gt;Node8 -->
<g id="edge7" class="edge"><title>Node7&#45;&gt;Node8</title>
<path fill="none" stroke="midnightblue" d="M821.227,-52.8614C829.846,-52.8614 838.845,-52.8614 846.759,-52.8614"/>
<polygon fill="midnightblue" stroke="midnightblue" points="821.003,-49.3615 811.003,-52.8614 821.003,-56.3615 821.003,-49.3615"/>
</g>
<!-- Node10 -->
<g id="node10" class="node"><title>Node10</title>
<g id="a_node10"><a xlink:href="classhsmg__routines.html#a91e8aa59d56bbf05d75aa9c48bcd8977" target="_top" xlink:title="Sets up Poisson preconditioner. ">
<polygon fill="white" stroke="black" points="498,-130.861 498,-160.861 614,-160.861 614,-130.861 498,-130.861"/>
<text text-anchor="start" x="506" y="-148.861" font-family="Helvetica,sans-Serif" font-size="10.00">hsmg_routines::h1mg</text>
<text text-anchor="middle" x="556" y="-137.861" font-family="Helvetica,sans-Serif" font-size="10.00">_setup</text>
</a>
</g>
</g>
<!-- Node9&#45;&gt;Node10 -->
<g id="edge9" class="edge"><title>Node9&#45;&gt;Node10</title>
<path fill="none" stroke="midnightblue" d="M472.311,-145.861C480.728,-145.861 489.277,-145.861 497.525,-145.861"/>
<polygon fill="midnightblue" stroke="midnightblue" points="472.137,-142.362 462.136,-145.861 472.136,-149.362 472.137,-142.362"/>
</g>
<!-- Node10&#45;&gt;Node6 -->
<g id="edge10" class="edge"><title>Node10&#45;&gt;Node6</title>
<path fill="none" stroke="midnightblue" d="M624.236,-132.729C633.072,-131.004 641.825,-129.294 649.82,-127.733"/>
<polygon fill="midnightblue" stroke="midnightblue" points="623.405,-129.326 614.261,-134.678 624.747,-136.196 623.405,-129.326"/>
</g>
<!-- Node12 -->
<g id="node12" class="node"><title>Node12</title>
<g id="a_node12"><a xlink:href="classhsmg__routines.html#ac8f9bca9624d5e550d70acabfa8aef73" target="_top" xlink:title="Sets up hybrid Schwarz multi&#45;grid preconditioner. ">
<polygon fill="white" stroke="black" points="498,-81.8614 498,-111.861 614,-111.861 614,-81.8614 498,-81.8614"/>
<text text-anchor="start" x="506" y="-99.8614" font-family="Helvetica,sans-Serif" font-size="10.00">hsmg_routines::hsmg</text>
<text text-anchor="middle" x="556" y="-88.8614" font-family="Helvetica,sans-Serif" font-size="10.00">_setup</text>
</a>
</g>
</g>
<!-- Node11&#45;&gt;Node12 -->
<g id="edge12" class="edge"><title>Node11&#45;&gt;Node12</title>
<path fill="none" stroke="midnightblue" d="M472.311,-96.8614C480.728,-96.8614 489.277,-96.8614 497.525,-96.8614"/>
<polygon fill="midnightblue" stroke="midnightblue" points="472.137,-93.3615 462.136,-96.8614 472.136,-100.362 472.137,-93.3615"/>
</g>
<!-- Node12&#45;&gt;Node6 -->
<g id="edge13" class="edge"><title>Node12&#45;&gt;Node6</title>
<path fill="none" stroke="midnightblue" d="M624.236,-109.468C633.072,-111.125 641.825,-112.766 649.82,-114.265"/>
<polygon fill="midnightblue" stroke="midnightblue" points="624.735,-106.001 614.261,-107.598 623.445,-112.881 624.735,-106.001"/>
</g>
<!-- Node14 -->
<g id="node14" class="node"><title>Node14</title>
<g id="a_node14"><a xlink:href="map2_8F90.html#a0a8afb6d7507567621f35bbc8ba36e2c" target="_top" xlink:title="mapelpr">
<polygon fill="white" stroke="black" points="528.5,-43.3614 528.5,-62.3614 583.5,-62.3614 583.5,-43.3614 528.5,-43.3614"/>
<text text-anchor="middle" x="556" y="-50.3614" font-family="Helvetica,sans-Serif" font-size="10.00">mapelpr</text>
</a>
</g>
</g>
<!-- Node13&#45;&gt;Node14 -->
<g id="edge15" class="edge"><title>Node13&#45;&gt;Node14</title>
<path fill="none" stroke="midnightblue" d="M456.495,-52.8614C480.683,-52.8614 508.498,-52.8614 528.39,-52.8614"/>
<polygon fill="midnightblue" stroke="midnightblue" points="456.385,-49.3615 446.385,-52.8614 456.385,-56.3615 456.385,-49.3615"/>
</g>
<!-- Node15 -->
<g id="node15" class="node"><title>Node15</title>
<g id="a_node15"><a xlink:href="connect2_8F90.html#a842357ad1d3581135ffacc57139397d2" target="_top" xlink:title="Read in data from preprocessor input file (.rea) ">
<polygon fill="white" stroke="black" points="662.5,-43.3614 662.5,-62.3614 709.5,-62.3614 709.5,-43.3614 662.5,-43.3614"/>
<text text-anchor="middle" x="686" y="-50.3614" font-family="Helvetica,sans-Serif" font-size="10.00">readat</text>
</a>
</g>
</g>
<!-- Node14&#45;&gt;Node15 -->
<g id="edge16" class="edge"><title>Node14&#45;&gt;Node15</title>
<path fill="none" stroke="midnightblue" d="M593.59,-52.8614C615.755,-52.8614 643.329,-52.8614 662.363,-52.8614"/>
<polygon fill="midnightblue" stroke="midnightblue" points="593.522,-49.3615 583.522,-52.8614 593.522,-56.3615 593.522,-49.3615"/>
</g>
<!-- Node15&#45;&gt;Node7 -->
<g id="edge17" class="edge"><title>Node15&#45;&gt;Node7</title>
<path fill="none" stroke="midnightblue" d="M720.199,-52.8614C732.481,-52.8614 746.209,-52.8614 757.733,-52.8614"/>
<polygon fill="midnightblue" stroke="midnightblue" points="719.869,-49.3615 709.869,-52.8614 719.869,-56.3615 719.869,-49.3615"/>
</g>
<!-- Node16&#45;&gt;Node7 -->
<g id="edge19" class="edge"><title>Node16&#45;&gt;Node7</title>
<path fill="none" stroke="midnightblue" d="M720.685,-28.126C733.354,-33.1147 747.501,-38.6855 759.157,-43.2755"/>
<polygon fill="midnightblue" stroke="midnightblue" points="721.938,-24.8579 711.351,-24.4504 719.373,-31.3711 721.938,-24.8579"/>
</g>
</g>
</svg>
        <g id="navigator" transform="translate(0 0)" fill="#404254">
                <rect fill="#f2f5e9" fill-opacity="0.5" stroke="#606060" stroke-width=".5" x="0" y="0" width="60" height="60"/>
                <use id="zoomplus" xlink:href="#zoomPlus" x="17" y="9" onmousedown="handleZoom(evt,'in')"/>
                <use id="zoomminus" xlink:href="#zoomMin" x="42" y="9" onmousedown="handleZoom(evt,'out')"/>
                <use id="reset" xlink:href="#resetDef" x="30" y="36" onmousedown="handleReset()"/>
                <g id="arrowUp" xlink:href="#dirArrow" transform="translate(30 24)" onmousedown="handlePan(0,-1)">
                  <use xlink:href="#rim" fill="#404040">
                        <set attributeName="fill" to="#808080" begin="arrowUp.mouseover" end="arrowUp.mouseout"/>
                  </use>
                  <path fill="none" stroke="white" stroke-width="1.5" d="M0,-3.0v7 M-2.5,-0.5L0,-3.0L2.5,-0.5"/>
                </g>
                <g id="arrowRight" xlink:href="#dirArrow" transform="rotate(90) translate(36 -43)" onmousedown="handlePan(1,0)">
                  <use xlink:href="#rim" fill="#404040">
                        <set attributeName="fill" to="#808080" begin="arrowRight.mouseover" end="arrowRight.mouseout"/>
                  </use>
                  <path fill="none" stroke="white" stroke-width="1.5" d="M0,-3.0v7 M-2.5,-0.5L0,-3.0L2.5,-0.5"/>
                </g>
                <g id="arrowDown" xlink:href="#dirArrow" transform="rotate(180) translate(-30 -48)" onmousedown="handlePan(0,1)">
                  <use xlink:href="#rim" fill="#404040">
                        <set attributeName="fill" to="#808080" begin="arrowDown.mouseover" end="arrowDown.mouseout"/>
                  </use>
                  <path fill="none" stroke="white" stroke-width="1.5" d="M0,-3.0v7 M-2.5,-0.5L0,-3.0L2.5,-0.5"/>
                </g>
                <g id="arrowLeft" xlink:href="#dirArrow" transform="rotate(270) translate(-36 17)" onmousedown="handlePan(-1,0)">
                  <use xlink:href="#rim" fill="#404040">
                        <set attributeName="fill" to="#808080" begin="arrowLeft.mouseover" end="arrowLeft.mouseout"/>
                  </use>
                  <path fill="none" stroke="white" stroke-width="1.5" d="M0,-3.0v7 M-2.5,-0.5L0,-3.0L2.5,-0.5"/>
                </g>
        </g>
        <svg viewBox="0 0 15 15" width="100%" height="30px" preserveAspectRatio="xMaxYMin meet">
         <g id="arrow_out" transform="scale(0.3 0.3)">
          <a xlink:href="classparallel_a4ec9d2a0bf252d26709cff49bdf4b277_icgraph_org.svg" target="_base">
           <rect id="button" ry="5" rx="5" y="6" x="6" height="38" width="38"
                fill="#f2f5e9" fill-opacity="0.5" stroke="#606060" stroke-width="1.0"/>
           <path id="arrow"
             d="M 11.500037,31.436501 C 11.940474,20.09759 22.043105,11.32322 32.158766,21.979434 L 37.068811,17.246167 C 37.068811,17.246167 37.088388,32 37.088388,32 L 22.160133,31.978069 C 22.160133,31.978069 26.997745,27.140456 26.997745,27.140456 C 18.528582,18.264221 13.291696,25.230495 11.500037,31.436501 z"
             style="fill:#404040;"/>
          </a>
         </g>
        </svg>
</svg>
