<?xml version="1.0" encoding="UTF-8" standalone="no"?>
<!DOCTYPE svg PUBLIC "-//W3C//DTD SVG 1.1//EN"
 "http://www.w3.org/Graphics/SVG/1.1/DTD/svg11.dtd">
<!-- Generated by graphviz version 2.38.0 (20140413.2041)
 -->
<!-- Title: speclib::hglj Pages: 1 -->
<svg width="439pt" height="256pt"
 viewBox="0.00 0.00 439.00 256.00" xmlns="http://www.w3.org/2000/svg" xmlns:xlink="http://www.w3.org/1999/xlink">
<g id="graph0" class="graph" transform="scale(1 1) rotate(0) translate(4 252)">
<title>speclib::hglj</title>
<polygon fill="white" stroke="none" points="-4,4 -4,-252 435,-252 435,4 -4,4"/>
<!-- Node1 -->
<g id="node1" class="node"><title>Node1</title>
<polygon fill="#bfbfbf" stroke="black" points="0,-76.5 0,-95.5 70,-95.5 70,-76.5 0,-76.5"/>
<text text-anchor="middle" x="35" y="-83.5" font-family="Helvetica,sans-Serif" font-size="10.00">speclib::hglj</text>
</g>
<!-- Node2 -->
<g id="node2" class="node"><title>Node2</title>
<g id="a_node2"><a xlink:href="byte_8c.html#a2da8eeb074dfd3ffbfb3e9a4d301cda4" target="_top" xlink:title="exitt">
<polygon fill="white" stroke="black" points="126,-114.5 126,-133.5 162,-133.5 162,-114.5 126,-114.5"/>
<text text-anchor="middle" x="144" y="-121.5" font-family="Helvetica,sans-Serif" font-size="10.00">exitt</text>
</a>
</g>
</g>
<!-- Node1&#45;&gt;Node2 -->
<g id="edge1" class="edge"><title>Node1&#45;&gt;Node2</title>
<path fill="none" stroke="midnightblue" d="M63.0006,-95.589C79.3042,-101.379 100,-108.729 116.257,-114.503"/>
<polygon fill="midnightblue" stroke="midnightblue" points="115.132,-117.817 125.727,-117.866 117.475,-111.221 115.132,-117.817"/>
</g>
<!-- Node12 -->
<g id="node12" class="node"><title>Node12</title>
<g id="a_node12"><a xlink:href="classspeclib.html#acec38e537ff3ac400e04a39c494d8f67" target="_top" xlink:title="speclib::hgljd">
<polygon fill="white" stroke="black" points="106,-38.5 106,-57.5 182,-57.5 182,-38.5 106,-38.5"/>
<text text-anchor="middle" x="144" y="-45.5" font-family="Helvetica,sans-Serif" font-size="10.00">speclib::hgljd</text>
</a>
</g>
</g>
<!-- Node1&#45;&gt;Node12 -->
<g id="edge11" class="edge"><title>Node1&#45;&gt;Node12</title>
<path fill="none" stroke="midnightblue" d="M63.0006,-76.411C76.1797,-71.7306 92.229,-66.0308 106.484,-60.9685"/>
<polygon fill="midnightblue" stroke="midnightblue" points="107.756,-64.2308 116.008,-57.5859 105.413,-57.6344 107.756,-64.2308"/>
</g>
<!-- Node3 -->
<g id="node3" class="node"><title>Node3</title>
<g id="a_node3"><a xlink:href="classctimer.html#abcecbc845c8ee72e13a19eaa30b80d77" target="_top" xlink:title="ctimer::dnekclock">
<polygon fill="white" stroke="black" points="218,-228.5 218,-247.5 315,-247.5 315,-228.5 218,-228.5"/>
<text text-anchor="middle" x="266.5" y="-235.5" font-family="Helvetica,sans-Serif" font-size="10.00">ctimer::dnekclock</text>
</a>
</g>
</g>
<!-- Node2&#45;&gt;Node3 -->
<g id="edge2" class="edge"><title>Node2&#45;&gt;Node3</title>
<path fill="none" stroke="midnightblue" d="M150.11,-133.731C160.495,-152.645 185.829,-194.642 218,-219 220.323,-220.759 222.832,-222.38 225.439,-223.868"/>
<polygon fill="midnightblue" stroke="midnightblue" points="224.052,-227.088 234.562,-228.428 227.182,-220.826 224.052,-227.088"/>
</g>
<!-- Node5 -->
<g id="node5" class="node"><title>Node5</title>
<g id="a_node5"><a xlink:href="subs1_8F90.html#a339739b88994e5bb12bd923147f94983" target="_top" xlink:title="flush_io">
<polygon fill="white" stroke="black" points="240,-190.5 240,-209.5 293,-209.5 293,-190.5 240,-190.5"/>
<text text-anchor="middle" x="266.5" y="-197.5" font-family="Helvetica,sans-Serif" font-size="10.00">flush_io</text>
</a>
</g>
</g>
<!-- Node2&#45;&gt;Node5 -->
<g id="edge4" class="edge"><title>Node2&#45;&gt;Node5</title>
<path fill="none" stroke="midnightblue" d="M155.205,-133.506C168.737,-145.735 193.744,-167.056 218,-181 221.917,-183.252 226.154,-185.359 230.428,-187.29"/>
<polygon fill="midnightblue" stroke="midnightblue" points="229.161,-190.555 239.734,-191.224 231.886,-184.107 229.161,-190.555"/>
</g>
<!-- Node6 -->
<g id="node6" class="node"><title>Node6</title>
<g id="a_node6"><a xlink:href="singlmesh_8F90.html#aef78ff219741b83c1ca784b869e9cacf" target="_top" xlink:title="Dummy for singlmesh. ">
<polygon fill="white" stroke="black" points="226.5,-152.5 226.5,-171.5 306.5,-171.5 306.5,-152.5 226.5,-152.5"/>
<text text-anchor="middle" x="266.5" y="-159.5" font-family="Helvetica,sans-Serif" font-size="10.00">happy_check</text>
</a>
</g>
</g>
<!-- Node2&#45;&gt;Node6 -->
<g id="edge5" class="edge"><title>Node2&#45;&gt;Node6</title>
<path fill="none" stroke="midnightblue" d="M162.009,-129.364C178.437,-134.544 203.929,-142.583 225.501,-149.386"/>
<polygon fill="midnightblue" stroke="midnightblue" points="224.501,-152.741 235.09,-152.41 226.606,-146.065 224.501,-152.741"/>
</g>
<!-- Node7 -->
<g id="node7" class="node"><title>Node7</title>
<g id="a_node7"><a xlink:href="mpi__dummy_8F90.html#a55e9a1619aadb638b14211ce21d7d566" target="_top" xlink:title="mpi_finalize">
<polygon fill="white" stroke="black" points="230.5,-114.5 230.5,-133.5 302.5,-133.5 302.5,-114.5 230.5,-114.5"/>
<text text-anchor="middle" x="266.5" y="-121.5" font-family="Helvetica,sans-Serif" font-size="10.00">mpi_finalize</text>
</a>
</g>
</g>
<!-- Node2&#45;&gt;Node7 -->
<g id="edge6" class="edge"><title>Node2&#45;&gt;Node7</title>
<path fill="none" stroke="midnightblue" d="M162.009,-124C177.105,-124 199.854,-124 220.183,-124"/>
<polygon fill="midnightblue" stroke="midnightblue" points="220.231,-127.5 230.231,-124 220.231,-120.5 220.231,-127.5"/>
</g>
<!-- Node8 -->
<g id="node8" class="node"><title>Node8</title>
<g id="a_node8"><a xlink:href="papi_8F90.html#a3a75ccdfbe05912fda48c3b134d114c0" target="_top" xlink:title="nek_flops">
<polygon fill="white" stroke="black" points="235.5,-76.5 235.5,-95.5 297.5,-95.5 297.5,-76.5 235.5,-76.5"/>
<text text-anchor="middle" x="266.5" y="-83.5" font-family="Helvetica,sans-Serif" font-size="10.00">nek_flops</text>
</a>
</g>
</g>
<!-- Node2&#45;&gt;Node8 -->
<g id="edge7" class="edge"><title>Node2&#45;&gt;Node8</title>
<path fill="none" stroke="midnightblue" d="M162.009,-118.636C178.437,-113.456 203.929,-105.417 225.501,-98.6137"/>
<polygon fill="midnightblue" stroke="midnightblue" points="226.606,-101.935 235.09,-95.5898 224.501,-95.2594 226.606,-101.935"/>
</g>
<!-- Node10 -->
<g id="node10" class="node"><title>Node10</title>
<g id="a_node10"><a xlink:href="comm__mpi_8F90.html#a4acb4d8e379294232e9219bec063d8f3" target="_top" xlink:title="nekgsync">
<polygon fill="white" stroke="black" points="235.5,-38.5 235.5,-57.5 297.5,-57.5 297.5,-38.5 235.5,-38.5"/>
<text text-anchor="middle" x="266.5" y="-45.5" font-family="Helvetica,sans-Serif" font-size="10.00">nekgsync</text>
</a>
</g>
</g>
<!-- Node2&#45;&gt;Node10 -->
<g id="edge9" class="edge"><title>Node2&#45;&gt;Node10</title>
<path fill="none" stroke="midnightblue" d="M155.205,-114.494C168.737,-102.265 193.744,-80.9436 218,-67 221.273,-65.1188 224.768,-63.3385 228.321,-61.6775"/>
<polygon fill="midnightblue" stroke="midnightblue" points="229.98,-64.7728 237.752,-57.572 227.186,-58.3546 229.98,-64.7728"/>
</g>
<!-- Node4 -->
<g id="node4" class="node"><title>Node4</title>
<g id="a_node4"><a xlink:href="mpi__dummy_8F90.html#ae6a5ef945f87c2c27849696b70f3af2a" target="_top" xlink:title="mpi_wtime">
<polygon fill="white" stroke="black" points="358,-228.5 358,-247.5 424,-247.5 424,-228.5 358,-228.5"/>
<text text-anchor="middle" x="391" y="-235.5" font-family="Helvetica,sans-Serif" font-size="10.00">mpi_wtime</text>
</a>
</g>
</g>
<!-- Node3&#45;&gt;Node4 -->
<g id="edge3" class="edge"><title>Node3&#45;&gt;Node4</title>
<path fill="none" stroke="midnightblue" d="M315.212,-238C325.894,-238 337.154,-238 347.603,-238"/>
<polygon fill="midnightblue" stroke="midnightblue" points="347.73,-241.5 357.729,-238 347.729,-234.5 347.73,-241.5"/>
</g>
<!-- Node9 -->
<g id="node9" class="node"><title>Node9</title>
<g id="a_node9"><a xlink:href="papi_8F90.html#a838be3d39e287e29002d5a68c6ad2dd8" target="_top" xlink:title="getflops_papi">
<polygon fill="white" stroke="black" points="351,-76.5 351,-95.5 431,-95.5 431,-76.5 351,-76.5"/>
<text text-anchor="middle" x="391" y="-83.5" font-family="Helvetica,sans-Serif" font-size="10.00">getflops_papi</text>
</a>
</g>
</g>
<!-- Node8&#45;&gt;Node9 -->
<g id="edge8" class="edge"><title>Node8&#45;&gt;Node9</title>
<path fill="none" stroke="midnightblue" d="M297.781,-86C310.666,-86 326.032,-86 340.491,-86"/>
<polygon fill="midnightblue" stroke="midnightblue" points="340.811,-89.5001 350.811,-86 340.811,-82.5001 340.811,-89.5001"/>
</g>
<!-- Node11 -->
<g id="node11" class="node"><title>Node11</title>
<g id="a_node11"><a xlink:href="mpi__dummy_8F90.html#a070afe564196eb48413dbf1a9fbc99aa" target="_top" xlink:title="mpi_barrier">
<polygon fill="white" stroke="black" points="356,-38.5 356,-57.5 426,-57.5 426,-38.5 356,-38.5"/>
<text text-anchor="middle" x="391" y="-45.5" font-family="Helvetica,sans-Serif" font-size="10.00">mpi_barrier</text>
</a>
</g>
</g>
<!-- Node10&#45;&gt;Node11 -->
<g id="edge10" class="edge"><title>Node10&#45;&gt;Node11</title>
<path fill="none" stroke="midnightblue" d="M297.781,-48C312.195,-48 329.714,-48 345.594,-48"/>
<polygon fill="midnightblue" stroke="midnightblue" points="345.745,-51.5001 355.745,-48 345.745,-44.5001 345.745,-51.5001"/>
</g>
<!-- Node13 -->
<g id="node13" class="node"><title>Node13</title>
<g id="a_node13"><a xlink:href="classspeclib.html#af7eaf2eb0994474cab3a5582bbf02903" target="_top" xlink:title="speclib::jacobf">
<polygon fill="white" stroke="black" points="226,-0.5 226,-19.5 307,-19.5 307,-0.5 226,-0.5"/>
<text text-anchor="middle" x="266.5" y="-7.5" font-family="Helvetica,sans-Serif" font-size="10.00">speclib::jacobf</text>
</a>
</g>
</g>
<!-- Node12&#45;&gt;Node13 -->
<g id="edge12" class="edge"><title>Node12&#45;&gt;Node13</title>
<path fill="none" stroke="midnightblue" d="M175.407,-38.411C190.535,-33.6406 209.02,-27.8112 225.3,-22.6771"/>
<polygon fill="midnightblue" stroke="midnightblue" points="226.618,-25.9315 235.102,-19.5859 224.513,-19.2556 226.618,-25.9315"/>
</g>
</g>
</svg>
