<?xml version="1.0" encoding="UTF-8" standalone="no"?>
<!DOCTYPE svg PUBLIC "-//W3C//DTD SVG 1.1//EN"
 "http://www.w3.org/Graphics/SVG/1.1/DTD/svg11.dtd">
<!-- Generated by graphviz version 2.38.0 (20140413.2041)
 -->
<!-- Title: hsmg_routines::h1mg_rstr Pages: 1 -->
<svg width="770pt" height="940pt"
 viewBox="0.00 0.00 770.00 940.00" xmlns="http://www.w3.org/2000/svg" xmlns:xlink="http://www.w3.org/1999/xlink">
<g id="graph0" class="graph" transform="scale(1 1) rotate(0) translate(4 936)">
<title>hsmg_routines::h1mg_rstr</title>
<polygon fill="white" stroke="none" points="-4,4 -4,-936 766,-936 766,4 -4,4"/>
<!-- Node1 -->
<g id="node1" class="node"><title>Node1</title>
<polygon fill="#bfbfbf" stroke="black" points="0,-752.5 0,-771.5 138,-771.5 138,-752.5 0,-752.5"/>
<text text-anchor="middle" x="69" y="-759.5" font-family="Helvetica,sans-Serif" font-size="10.00">hsmg_routines::h1mg_rstr</text>
</g>
<!-- Node2 -->
<g id="node2" class="node"><title>Node2</title>
<g id="a_node2"><a xlink:href="classhsmg__routines.html#a95b4fa69d48864a263ba34d86f11c1ae" target="_top" xlink:title="u = wt .* u ">
<polygon fill="white" stroke="black" points="174,-796 174,-826 290,-826 290,-796 174,-796"/>
<text text-anchor="start" x="182" y="-814" font-family="Helvetica,sans-Serif" font-size="10.00">hsmg_routines::hsmg</text>
<text text-anchor="middle" x="232" y="-803" font-family="Helvetica,sans-Serif" font-size="10.00">_do_wt</text>
</a>
</g>
</g>
<!-- Node1&#45;&gt;Node2 -->
<g id="edge1" class="edge"><title>Node1&#45;&gt;Node2</title>
<path fill="none" stroke="midnightblue" d="M101.425,-771.564C121.452,-777.659 148.032,-785.749 171.904,-793.014"/>
<polygon fill="midnightblue" stroke="midnightblue" points="171.007,-796.4 181.593,-795.963 173.045,-789.703 171.007,-796.4"/>
</g>
<!-- Node3 -->
<g id="node3" class="node"><title>Node3</title>
<g id="a_node3"><a xlink:href="classhsmg__routines.html#a88e7156da5cd6d7172d353620e4b9778" target="_top" xlink:title="hsmg_routines::hsmg\l_dssum">
<polygon fill="white" stroke="black" points="174,-747 174,-777 290,-777 290,-747 174,-747"/>
<text text-anchor="start" x="182" y="-765" font-family="Helvetica,sans-Serif" font-size="10.00">hsmg_routines::hsmg</text>
<text text-anchor="middle" x="232" y="-754" font-family="Helvetica,sans-Serif" font-size="10.00">_dssum</text>
</a>
</g>
</g>
<!-- Node1&#45;&gt;Node3 -->
<g id="edge2" class="edge"><title>Node1&#45;&gt;Node3</title>
<path fill="none" stroke="midnightblue" d="M138.278,-762C146.687,-762 155.277,-762 163.672,-762"/>
<polygon fill="midnightblue" stroke="midnightblue" points="163.788,-765.5 173.788,-762 163.788,-758.5 163.788,-765.5"/>
</g>
<!-- Node8 -->
<g id="node8" class="node"><title>Node8</title>
<g id="a_node8"><a xlink:href="classhsmg__routines.html#a7a84e350749e18aafaacdbdb3d4638d3" target="_top" xlink:title="compute v = [A (x) A] u or v = [A (x) A (x) A] u ">
<polygon fill="white" stroke="black" points="174,-698 174,-728 290,-728 290,-698 174,-698"/>
<text text-anchor="start" x="182" y="-716" font-family="Helvetica,sans-Serif" font-size="10.00">hsmg_routines::hsmg</text>
<text text-anchor="middle" x="232" y="-705" font-family="Helvetica,sans-Serif" font-size="10.00">_tnsr1</text>
</a>
</g>
</g>
<!-- Node1&#45;&gt;Node8 -->
<g id="edge7" class="edge"><title>Node1&#45;&gt;Node8</title>
<path fill="none" stroke="midnightblue" d="M101.425,-752.436C121.452,-746.341 148.032,-738.251 171.904,-730.986"/>
<polygon fill="midnightblue" stroke="midnightblue" points="173.045,-734.297 181.593,-728.037 171.007,-727.6 173.045,-734.297"/>
</g>
<!-- Node4 -->
<g id="node4" class="node"><title>Node4</title>
<g id="a_node4"><a xlink:href="classctimer.html#abcecbc845c8ee72e13a19eaa30b80d77" target="_top" xlink:title="ctimer::dnekclock">
<polygon fill="white" stroke="black" points="335.5,-787.5 335.5,-806.5 432.5,-806.5 432.5,-787.5 335.5,-787.5"/>
<text text-anchor="middle" x="384" y="-794.5" font-family="Helvetica,sans-Serif" font-size="10.00">ctimer::dnekclock</text>
</a>
</g>
</g>
<!-- Node3&#45;&gt;Node4 -->
<g id="edge3" class="edge"><title>Node3&#45;&gt;Node4</title>
<path fill="none" stroke="midnightblue" d="M290.136,-775.332C303.859,-778.534 318.429,-781.934 331.86,-785.067"/>
<polygon fill="midnightblue" stroke="midnightblue" points="331.342,-788.54 341.875,-787.404 332.932,-781.723 331.342,-788.54"/>
</g>
<!-- Node6 -->
<g id="node6" class="node"><title>Node6</title>
<g id="a_node6"><a xlink:href="comm__mpi_8F90.html#a4acb4d8e379294232e9219bec063d8f3" target="_top" xlink:title="nekgsync">
<polygon fill="white" stroke="black" points="353,-749.5 353,-768.5 415,-768.5 415,-749.5 353,-749.5"/>
<text text-anchor="middle" x="384" y="-756.5" font-family="Helvetica,sans-Serif" font-size="10.00">nekgsync</text>
</a>
</g>
</g>
<!-- Node3&#45;&gt;Node6 -->
<g id="edge5" class="edge"><title>Node3&#45;&gt;Node6</title>
<path fill="none" stroke="midnightblue" d="M290.136,-760.857C307.659,-760.507 326.562,-760.129 342.711,-759.806"/>
<polygon fill="midnightblue" stroke="midnightblue" points="342.955,-763.302 352.883,-759.602 342.815,-756.303 342.955,-763.302"/>
</g>
<!-- Node5 -->
<g id="node5" class="node"><title>Node5</title>
<g id="a_node5"><a xlink:href="mpi__dummy_8F90.html#ae6a5ef945f87c2c27849696b70f3af2a" target="_top" xlink:title="mpi_wtime">
<polygon fill="white" stroke="black" points="480,-787.5 480,-806.5 546,-806.5 546,-787.5 480,-787.5"/>
<text text-anchor="middle" x="513" y="-794.5" font-family="Helvetica,sans-Serif" font-size="10.00">mpi_wtime</text>
</a>
</g>
</g>
<!-- Node4&#45;&gt;Node5 -->
<g id="edge4" class="edge"><title>Node4&#45;&gt;Node5</title>
<path fill="none" stroke="midnightblue" d="M432.651,-797C444.846,-797 457.873,-797 469.773,-797"/>
<polygon fill="midnightblue" stroke="midnightblue" points="469.891,-800.5 479.891,-797 469.891,-793.5 469.891,-800.5"/>
</g>
<!-- Node7 -->
<g id="node7" class="node"><title>Node7</title>
<g id="a_node7"><a xlink:href="mpi__dummy_8F90.html#a070afe564196eb48413dbf1a9fbc99aa" target="_top" xlink:title="mpi_barrier">
<polygon fill="white" stroke="black" points="478,-749.5 478,-768.5 548,-768.5 548,-749.5 478,-749.5"/>
<text text-anchor="middle" x="513" y="-756.5" font-family="Helvetica,sans-Serif" font-size="10.00">mpi_barrier</text>
</a>
</g>
</g>
<!-- Node6&#45;&gt;Node7 -->
<g id="edge6" class="edge"><title>Node6&#45;&gt;Node7</title>
<path fill="none" stroke="midnightblue" d="M415.097,-759C430.648,-759 449.934,-759 467.197,-759"/>
<polygon fill="midnightblue" stroke="midnightblue" points="467.632,-762.5 477.632,-759 467.632,-755.5 467.632,-762.5"/>
</g>
<!-- Node9 -->
<g id="node9" class="node"><title>Node9</title>
<g id="a_node9"><a xlink:href="classhsmg__routines.html#ab5b06304a7c7e85094a7b74fb9c5efed" target="_top" xlink:title="compute v = [C (x) B (x) A] v (in&#45;place) ">
<polygon fill="white" stroke="black" points="326,-698 326,-728 442,-728 442,-698 326,-698"/>
<text text-anchor="start" x="334" y="-716" font-family="Helvetica,sans-Serif" font-size="10.00">hsmg_routines::hsmg</text>
<text text-anchor="middle" x="384" y="-705" font-family="Helvetica,sans-Serif" font-size="10.00">_tnsr1_3d</text>
</a>
</g>
</g>
<!-- Node8&#45;&gt;Node9 -->
<g id="edge8" class="edge"><title>Node8&#45;&gt;Node9</title>
<path fill="none" stroke="midnightblue" d="M290.136,-713C298.377,-713 306.923,-713 315.344,-713"/>
<polygon fill="midnightblue" stroke="midnightblue" points="315.526,-716.5 325.525,-713 315.525,-709.5 315.526,-716.5"/>
</g>
<!-- Node10 -->
<g id="node10" class="node"><title>Node10</title>
<g id="a_node10"><a xlink:href="mxm__wrapper_8F90.html#ab9ec2260a10061af6ce1c52f3c8a41da" target="_top" xlink:title="Compute matrix&#45;matrix product C = A*B. ">
<polygon fill="white" stroke="black" points="494,-703.5 494,-722.5 532,-722.5 532,-703.5 494,-703.5"/>
<text text-anchor="middle" x="513" y="-710.5" font-family="Helvetica,sans-Serif" font-size="10.00">mxm</text>
</a>
</g>
</g>
<!-- Node9&#45;&gt;Node10 -->
<g id="edge9" class="edge"><title>Node9&#45;&gt;Node10</title>
<path fill="none" stroke="midnightblue" d="M442.184,-713C456.646,-713 471.549,-713 483.853,-713"/>
<polygon fill="midnightblue" stroke="midnightblue" points="483.92,-716.5 493.92,-713 483.92,-709.5 483.92,-716.5"/>
</g>
<!-- Node11 -->
<g id="node11" class="node"><title>Node11</title>
<g id="a_node11"><a xlink:href="mxm__std_8F90.html#ac63fe7516a18dc57dfe913ad2c1453be" target="_top" xlink:title="mxm44_0">
<polygon fill="white" stroke="black" points="700,-912.5 700,-931.5 762,-931.5 762,-912.5 700,-912.5"/>
<text text-anchor="middle" x="731" y="-919.5" font-family="Helvetica,sans-Serif" font-size="10.00">mxm44_0</text>
</a>
</g>
</g>
<!-- Node10&#45;&gt;Node11 -->
<g id="edge10" class="edge"><title>Node10&#45;&gt;Node11</title>
<path fill="none" stroke="midnightblue" d="M529.347,-722.619C535.775,-727.248 542.918,-733.259 548,-740 573.191,-773.414 557.313,-794.768 584,-827 615.245,-864.736 665.415,-892.757 698.044,-908.246"/>
<polygon fill="midnightblue" stroke="midnightblue" points="696.613,-911.44 707.159,-912.464 699.553,-905.087 696.613,-911.44"/>
</g>
<!-- Node12 -->
<g id="node12" class="node"><title>Node12</title>
<g id="a_node12"><a xlink:href="mxm__std_8F90.html#af07f4b22fdc3488ca321736743f14b01" target="_top" xlink:title="mxm44_2">
<polygon fill="white" stroke="black" points="593,-798.5 593,-817.5 655,-817.5 655,-798.5 593,-798.5"/>
<text text-anchor="middle" x="624" y="-805.5" font-family="Helvetica,sans-Serif" font-size="10.00">mxm44_2</text>
</a>
</g>
</g>
<!-- Node10&#45;&gt;Node12 -->
<g id="edge11" class="edge"><title>Node10&#45;&gt;Node12</title>
<path fill="none" stroke="midnightblue" d="M527.941,-722.743C534.385,-727.568 541.934,-733.702 548,-740 566.747,-759.464 563.249,-771.689 584,-789 585.786,-790.49 587.708,-791.896 589.708,-793.218"/>
<polygon fill="midnightblue" stroke="midnightblue" points="588.381,-796.494 598.79,-798.468 591.884,-790.433 588.381,-796.494"/>
</g>
<!-- Node13 -->
<g id="node13" class="node"><title>Node13</title>
<g id="a_node13"><a xlink:href="mxm__bgq_8F90.html#a8a70163b4dbfdbfcce7bff170597fcad" target="_top" xlink:title="mxm_bgq_10">
<polygon fill="white" stroke="black" points="584,-760.5 584,-779.5 664,-779.5 664,-760.5 584,-760.5"/>
<text text-anchor="middle" x="624" y="-767.5" font-family="Helvetica,sans-Serif" font-size="10.00">mxm_bgq_10</text>
</a>
</g>
</g>
<!-- Node10&#45;&gt;Node13 -->
<g id="edge12" class="edge"><title>Node10&#45;&gt;Node13</title>
<path fill="none" stroke="midnightblue" d="M531.148,-722.582C545.251,-730.397 565.803,-741.634 584,-751 587.108,-752.6 590.37,-754.243 593.629,-755.863"/>
<polygon fill="midnightblue" stroke="midnightblue" points="592.155,-759.039 602.674,-760.307 595.242,-752.756 592.155,-759.039"/>
</g>
<!-- Node14 -->
<g id="node14" class="node"><title>Node14</title>
<g id="a_node14"><a xlink:href="mxm__bgq_8F90.html#a27529ace9834454b8906f29e02718629" target="_top" xlink:title="mxm_bgq_12">
<polygon fill="white" stroke="black" points="584,-722.5 584,-741.5 664,-741.5 664,-722.5 584,-722.5"/>
<text text-anchor="middle" x="624" y="-729.5" font-family="Helvetica,sans-Serif" font-size="10.00">mxm_bgq_12</text>
</a>
</g>
</g>
<!-- Node10&#45;&gt;Node14 -->
<g id="edge13" class="edge"><title>Node10&#45;&gt;Node14</title>
<path fill="none" stroke="midnightblue" d="M532.49,-716.223C543.841,-718.202 558.963,-720.838 573.592,-723.388"/>
<polygon fill="midnightblue" stroke="midnightblue" points="573.136,-726.861 583.588,-725.13 574.338,-719.965 573.136,-726.861"/>
</g>
<!-- Node15 -->
<g id="node15" class="node"><title>Node15</title>
<g id="a_node15"><a xlink:href="mxm__bgq_8F90.html#a3fda9ea4bc7a5713a19d6939fa2b541f" target="_top" xlink:title="mxm_bgq_16">
<polygon fill="white" stroke="black" points="584,-684.5 584,-703.5 664,-703.5 664,-684.5 584,-684.5"/>
<text text-anchor="middle" x="624" y="-691.5" font-family="Helvetica,sans-Serif" font-size="10.00">mxm_bgq_16</text>
</a>
</g>
</g>
<!-- Node10&#45;&gt;Node15 -->
<g id="edge14" class="edge"><title>Node10&#45;&gt;Node15</title>
<path fill="none" stroke="midnightblue" d="M532.49,-709.777C543.841,-707.798 558.963,-705.162 573.592,-702.612"/>
<polygon fill="midnightblue" stroke="midnightblue" points="574.338,-706.035 583.588,-700.87 573.136,-699.139 574.338,-706.035"/>
</g>
<!-- Node16 -->
<g id="node16" class="node"><title>Node16</title>
<g id="a_node16"><a xlink:href="mxm__bgq_8F90.html#af192c3c8b982aa5bbc2a757156718a91" target="_top" xlink:title="mxm_bgq_6">
<polygon fill="white" stroke="black" points="587,-646.5 587,-665.5 661,-665.5 661,-646.5 587,-646.5"/>
<text text-anchor="middle" x="624" y="-653.5" font-family="Helvetica,sans-Serif" font-size="10.00">mxm_bgq_6</text>
</a>
</g>
</g>
<!-- Node10&#45;&gt;Node16 -->
<g id="edge15" class="edge"><title>Node10&#45;&gt;Node16</title>
<path fill="none" stroke="midnightblue" d="M531.148,-703.418C545.251,-695.603 565.803,-684.366 584,-675 587.108,-673.4 590.37,-671.757 593.629,-670.137"/>
<polygon fill="midnightblue" stroke="midnightblue" points="595.242,-673.244 602.674,-665.693 592.155,-666.961 595.242,-673.244"/>
</g>
<!-- Node17 -->
<g id="node17" class="node"><title>Node17</title>
<g id="a_node17"><a xlink:href="mxm__bgq_8F90.html#a8faaef428336095704ece51624bbfe92" target="_top" xlink:title="mxm_bgq_8">
<polygon fill="white" stroke="black" points="587,-608.5 587,-627.5 661,-627.5 661,-608.5 587,-608.5"/>
<text text-anchor="middle" x="624" y="-615.5" font-family="Helvetica,sans-Serif" font-size="10.00">mxm_bgq_8</text>
</a>
</g>
</g>
<!-- Node10&#45;&gt;Node17 -->
<g id="edge16" class="edge"><title>Node10&#45;&gt;Node17</title>
<path fill="none" stroke="midnightblue" d="M521.214,-703.023C532.945,-687.348 557.524,-656.709 584,-637 586.062,-635.465 588.267,-634.002 590.54,-632.619"/>
<polygon fill="midnightblue" stroke="midnightblue" points="592.415,-635.582 599.49,-627.696 589.041,-629.449 592.415,-635.582"/>
</g>
<!-- Node18 -->
<g id="node18" class="node"><title>Node18</title>
<g id="a_node18"><a xlink:href="mxm__std_8F90.html#aa9e8685c4a72f18fb5d1ee88ed17a3d6" target="_top" xlink:title="unrolled loop version ">
<polygon fill="white" stroke="black" points="600.5,-475.5 600.5,-494.5 647.5,-494.5 647.5,-475.5 600.5,-475.5"/>
<text text-anchor="middle" x="624" y="-482.5" font-family="Helvetica,sans-Serif" font-size="10.00">mxmf2</text>
</a>
</g>
</g>
<!-- Node10&#45;&gt;Node18 -->
<g id="edge17" class="edge"><title>Node10&#45;&gt;Node18</title>
<path fill="none" stroke="midnightblue" d="M518.545,-703.493C535.026,-669.018 591.848,-550.162 614.03,-503.763"/>
<polygon fill="midnightblue" stroke="midnightblue" points="617.28,-505.079 618.436,-494.547 610.965,-502.06 617.28,-505.079"/>
</g>
<!-- Node18&#45;&gt;Node11 -->
<g id="edge42" class="edge"><title>Node18&#45;&gt;Node11</title>
<path fill="none" stroke="midnightblue" d="M629.046,-494.559C637.058,-513.901 654.949,-559.227 664,-599 694.189,-731.664 627.493,-787.875 700,-903 700.591,-903.939 701.248,-904.84 701.958,-905.703"/>
<polygon fill="midnightblue" stroke="midnightblue" points="699.687,-908.369 709.45,-912.484 704.384,-903.179 699.687,-908.369"/>
</g>
<!-- Node19 -->
<g id="node19" class="node"><title>Node19</title>
<g id="a_node19"><a xlink:href="mxm__std_8F90.html#a7d3ac03517b3934b98857b22f7f78788" target="_top" xlink:title="mxf1">
<polygon fill="white" stroke="black" points="711.5,-874.5 711.5,-893.5 750.5,-893.5 750.5,-874.5 711.5,-874.5"/>
<text text-anchor="middle" x="731" y="-881.5" font-family="Helvetica,sans-Serif" font-size="10.00">mxf1</text>
</a>
</g>
</g>
<!-- Node18&#45;&gt;Node19 -->
<g id="edge18" class="edge"><title>Node18&#45;&gt;Node19</title>
<path fill="none" stroke="midnightblue" d="M628.99,-494.572C636.901,-513.938 654.619,-559.304 664,-599 691.438,-715.102 635.584,-764.585 700,-865 700.961,-866.498 702.087,-867.9 703.329,-869.209"/>
<polygon fill="midnightblue" stroke="midnightblue" points="701.379,-872.134 711.357,-875.697 705.78,-866.689 701.379,-872.134"/>
</g>
<!-- Node20 -->
<g id="node20" class="node"><title>Node20</title>
<g id="a_node20"><a xlink:href="mxm__std_8F90.html#a5786b175fcbe28ecafe1d878687c3ccf" target="_top" xlink:title="mxf10">
<polygon fill="white" stroke="black" points="708.5,-836.5 708.5,-855.5 753.5,-855.5 753.5,-836.5 708.5,-836.5"/>
<text text-anchor="middle" x="731" y="-843.5" font-family="Helvetica,sans-Serif" font-size="10.00">mxf10</text>
</a>
</g>
</g>
<!-- Node18&#45;&gt;Node20 -->
<g id="edge19" class="edge"><title>Node18&#45;&gt;Node20</title>
<path fill="none" stroke="midnightblue" d="M628.915,-494.59C636.692,-513.988 654.181,-559.41 664,-599 688.696,-698.572 643.658,-741.268 700,-827 700.609,-827.927 701.282,-828.818 702.004,-829.673"/>
<polygon fill="midnightblue" stroke="midnightblue" points="699.769,-832.37 709.562,-836.412 704.428,-827.145 699.769,-832.37"/>
</g>
<!-- Node21 -->
<g id="node21" class="node"><title>Node21</title>
<g id="a_node21"><a xlink:href="mxm__std_8F90.html#a244c7a41b5b7a22acba71c34552c2774" target="_top" xlink:title="mxf11">
<polygon fill="white" stroke="black" points="708.5,-798.5 708.5,-817.5 753.5,-817.5 753.5,-798.5 708.5,-798.5"/>
<text text-anchor="middle" x="731" y="-805.5" font-family="Helvetica,sans-Serif" font-size="10.00">mxf11</text>
</a>
</g>
</g>
<!-- Node18&#45;&gt;Node21 -->
<g id="edge20" class="edge"><title>Node18&#45;&gt;Node21</title>
<path fill="none" stroke="midnightblue" d="M628.812,-494.616C636.404,-514.062 653.575,-559.565 664,-599 685.966,-682.093 651.702,-717.907 700,-789 700.624,-789.918 701.308,-790.801 702.041,-791.649"/>
<polygon fill="midnightblue" stroke="midnightblue" points="699.833,-794.368 709.65,-798.354 704.461,-789.116 699.833,-794.368"/>
</g>
<!-- Node22 -->
<g id="node22" class="node"><title>Node22</title>
<g id="a_node22"><a xlink:href="mxm__std_8F90.html#afb2e2cde9040ab037e3586b0deef3851" target="_top" xlink:title="mxf12">
<polygon fill="white" stroke="black" points="708.5,-760.5 708.5,-779.5 753.5,-779.5 753.5,-760.5 708.5,-760.5"/>
<text text-anchor="middle" x="731" y="-767.5" font-family="Helvetica,sans-Serif" font-size="10.00">mxf12</text>
</a>
</g>
</g>
<!-- Node18&#45;&gt;Node22 -->
<g id="edge21" class="edge"><title>Node18&#45;&gt;Node22</title>
<path fill="none" stroke="midnightblue" d="M628.66,-494.658C635.979,-514.18 652.685,-559.811 664,-599 683.259,-665.7 659.696,-694.472 700,-751 700.745,-752.045 701.567,-753.045 702.449,-754.002"/>
<polygon fill="midnightblue" stroke="midnightblue" points="700.196,-756.68 710.087,-760.477 704.723,-751.341 700.196,-756.68"/>
</g>
<!-- Node23 -->
<g id="node23" class="node"><title>Node23</title>
<g id="a_node23"><a xlink:href="mxm__std_8F90.html#a6a048a62b47a5c2327279e158c1689df" target="_top" xlink:title="mxf13">
<polygon fill="white" stroke="black" points="708.5,-722.5 708.5,-741.5 753.5,-741.5 753.5,-722.5 708.5,-722.5"/>
<text text-anchor="middle" x="731" y="-729.5" font-family="Helvetica,sans-Serif" font-size="10.00">mxf13</text>
</a>
</g>
</g>
<!-- Node18&#45;&gt;Node23 -->
<g id="edge22" class="edge"><title>Node18&#45;&gt;Node23</title>
<path fill="none" stroke="midnightblue" d="M628.417,-494.733C635.298,-514.39 651.256,-560.252 664,-599 680.6,-649.473 667.589,-670.897 700,-713 700.783,-714.017 701.636,-714.994 702.544,-715.931"/>
<polygon fill="midnightblue" stroke="midnightblue" points="700.351,-718.658 710.291,-722.326 704.808,-713.261 700.351,-718.658"/>
</g>
<!-- Node24 -->
<g id="node24" class="node"><title>Node24</title>
<g id="a_node24"><a xlink:href="mxm__std_8F90.html#a6e57628b882cb8bcac215e9a5b523eed" target="_top" xlink:title="mxf14">
<polygon fill="white" stroke="black" points="708.5,-684.5 708.5,-703.5 753.5,-703.5 753.5,-684.5 708.5,-684.5"/>
<text text-anchor="middle" x="731" y="-691.5" font-family="Helvetica,sans-Serif" font-size="10.00">mxf14</text>
</a>
</g>
</g>
<!-- Node18&#45;&gt;Node24 -->
<g id="edge23" class="edge"><title>Node18&#45;&gt;Node24</title>
<path fill="none" stroke="midnightblue" d="M628.383,-494.571C641.325,-531.041 687.596,-660.005 700,-675 700.84,-676.015 701.749,-676.994 702.709,-677.934"/>
<polygon fill="midnightblue" stroke="midnightblue" points="700.792,-680.882 710.792,-684.384 705.158,-675.411 700.792,-680.882"/>
</g>
<!-- Node25 -->
<g id="node25" class="node"><title>Node25</title>
<g id="a_node25"><a xlink:href="mxm__std_8F90.html#a02e79201be026faf756be00e58334c4f" target="_top" xlink:title="mxf15">
<polygon fill="white" stroke="black" points="708.5,-646.5 708.5,-665.5 753.5,-665.5 753.5,-646.5 708.5,-646.5"/>
<text text-anchor="middle" x="731" y="-653.5" font-family="Helvetica,sans-Serif" font-size="10.00">mxf15</text>
</a>
</g>
</g>
<!-- Node18&#45;&gt;Node25 -->
<g id="edge24" class="edge"><title>Node18&#45;&gt;Node25</title>
<path fill="none" stroke="midnightblue" d="M627.715,-494.596C635.373,-520.278 659.275,-591.703 700,-637 701.005,-638.117 702.09,-639.194 703.232,-640.228"/>
<polygon fill="midnightblue" stroke="midnightblue" points="701.248,-643.118 711.321,-646.403 705.496,-637.553 701.248,-643.118"/>
</g>
<!-- Node26 -->
<g id="node26" class="node"><title>Node26</title>
<g id="a_node26"><a xlink:href="mxm__std_8F90.html#a2fbea6eeadc258673ba8ea5708593aee" target="_top" xlink:title="mxf16">
<polygon fill="white" stroke="black" points="708.5,-608.5 708.5,-627.5 753.5,-627.5 753.5,-608.5 708.5,-608.5"/>
<text text-anchor="middle" x="731" y="-615.5" font-family="Helvetica,sans-Serif" font-size="10.00">mxf16</text>
</a>
</g>
</g>
<!-- Node18&#45;&gt;Node26 -->
<g id="edge25" class="edge"><title>Node18&#45;&gt;Node26</title>
<path fill="none" stroke="midnightblue" d="M629.498,-494.523C639.707,-515.398 666.376,-565.954 700,-599 701.099,-600.08 702.27,-601.131 703.488,-602.147"/>
<polygon fill="midnightblue" stroke="midnightblue" points="701.802,-605.25 711.946,-608.309 705.924,-599.592 701.802,-605.25"/>
</g>
<!-- Node27 -->
<g id="node27" class="node"><title>Node27</title>
<g id="a_node27"><a xlink:href="mxm__std_8F90.html#a3829af481cd230e6aadef08feab9a278" target="_top" xlink:title="mxf17">
<polygon fill="white" stroke="black" points="708.5,-570.5 708.5,-589.5 753.5,-589.5 753.5,-570.5 708.5,-570.5"/>
<text text-anchor="middle" x="731" y="-577.5" font-family="Helvetica,sans-Serif" font-size="10.00">mxf17</text>
</a>
</g>
</g>
<!-- Node18&#45;&gt;Node27 -->
<g id="edge26" class="edge"><title>Node18&#45;&gt;Node27</title>
<path fill="none" stroke="midnightblue" d="M633.158,-494.575C646.316,-509.7 673.441,-539.598 700,-561 701.548,-562.248 703.182,-563.482 704.856,-564.688"/>
<polygon fill="midnightblue" stroke="midnightblue" points="703.092,-567.719 713.344,-570.393 706.997,-561.909 703.092,-567.719"/>
</g>
<!-- Node28 -->
<g id="node28" class="node"><title>Node28</title>
<g id="a_node28"><a xlink:href="mxm__std_8F90.html#a48ed8195cc978a87c005b3306a974894" target="_top" xlink:title="mxf18">
<polygon fill="white" stroke="black" points="708.5,-532.5 708.5,-551.5 753.5,-551.5 753.5,-532.5 708.5,-532.5"/>
<text text-anchor="middle" x="731" y="-539.5" font-family="Helvetica,sans-Serif" font-size="10.00">mxf18</text>
</a>
</g>
</g>
<!-- Node18&#45;&gt;Node28 -->
<g id="edge27" class="edge"><title>Node18&#45;&gt;Node28</title>
<path fill="none" stroke="midnightblue" d="M642.812,-494.669C659.429,-503.69 684.44,-517.267 703.418,-527.57"/>
<polygon fill="midnightblue" stroke="midnightblue" points="701.993,-530.779 712.451,-532.474 705.333,-524.627 701.993,-530.779"/>
</g>
<!-- Node29 -->
<g id="node29" class="node"><title>Node29</title>
<g id="a_node29"><a xlink:href="mxm__std_8F90.html#a28a9857286e11804e1a97875028ecb09" target="_top" xlink:title="mxf19">
<polygon fill="white" stroke="black" points="708.5,-494.5 708.5,-513.5 753.5,-513.5 753.5,-494.5 708.5,-494.5"/>
<text text-anchor="middle" x="731" y="-501.5" font-family="Helvetica,sans-Serif" font-size="10.00">mxf19</text>
</a>
</g>
</g>
<!-- Node18&#45;&gt;Node29 -->
<g id="edge28" class="edge"><title>Node18&#45;&gt;Node29</title>
<path fill="none" stroke="midnightblue" d="M647.525,-489.076C662.256,-491.741 681.721,-495.264 698.041,-498.217"/>
<polygon fill="midnightblue" stroke="midnightblue" points="697.768,-501.724 708.231,-500.061 699.014,-494.836 697.768,-501.724"/>
</g>
<!-- Node30 -->
<g id="node30" class="node"><title>Node30</title>
<g id="a_node30"><a xlink:href="mxm__std_8F90.html#acd223c583f3a9242fda7a1b8897b624d" target="_top" xlink:title="mxf2">
<polygon fill="white" stroke="black" points="711.5,-456.5 711.5,-475.5 750.5,-475.5 750.5,-456.5 711.5,-456.5"/>
<text text-anchor="middle" x="731" y="-463.5" font-family="Helvetica,sans-Serif" font-size="10.00">mxf2</text>
</a>
</g>
</g>
<!-- Node18&#45;&gt;Node30 -->
<g id="edge29" class="edge"><title>Node18&#45;&gt;Node30</title>
<path fill="none" stroke="midnightblue" d="M647.525,-480.924C663.294,-478.071 684.489,-474.235 701.444,-471.167"/>
<polygon fill="midnightblue" stroke="midnightblue" points="702.149,-474.597 711.366,-469.372 700.903,-467.708 702.149,-474.597"/>
</g>
<!-- Node31 -->
<g id="node31" class="node"><title>Node31</title>
<g id="a_node31"><a xlink:href="mxm__std_8F90.html#af60059bd60847f48acdf6461fefa3b22" target="_top" xlink:title="mxf20">
<polygon fill="white" stroke="black" points="708.5,-418.5 708.5,-437.5 753.5,-437.5 753.5,-418.5 708.5,-418.5"/>
<text text-anchor="middle" x="731" y="-425.5" font-family="Helvetica,sans-Serif" font-size="10.00">mxf20</text>
</a>
</g>
</g>
<!-- Node18&#45;&gt;Node31 -->
<g id="edge30" class="edge"><title>Node18&#45;&gt;Node31</title>
<path fill="none" stroke="midnightblue" d="M642.812,-475.331C659.429,-466.31 684.44,-452.733 703.418,-442.43"/>
<polygon fill="midnightblue" stroke="midnightblue" points="705.333,-445.373 712.451,-437.526 701.993,-439.221 705.333,-445.373"/>
</g>
<!-- Node32 -->
<g id="node32" class="node"><title>Node32</title>
<g id="a_node32"><a xlink:href="mxm__std_8F90.html#a825db174c5643aef5e4cdf57067ebbbb" target="_top" xlink:title="mxf21">
<polygon fill="white" stroke="black" points="708.5,-380.5 708.5,-399.5 753.5,-399.5 753.5,-380.5 708.5,-380.5"/>
<text text-anchor="middle" x="731" y="-387.5" font-family="Helvetica,sans-Serif" font-size="10.00">mxf21</text>
</a>
</g>
</g>
<!-- Node18&#45;&gt;Node32 -->
<g id="edge31" class="edge"><title>Node18&#45;&gt;Node32</title>
<path fill="none" stroke="midnightblue" d="M633.158,-475.425C646.316,-460.3 673.441,-430.402 700,-409 701.548,-407.752 703.182,-406.518 704.856,-405.312"/>
<polygon fill="midnightblue" stroke="midnightblue" points="706.997,-408.091 713.344,-399.607 703.092,-402.281 706.997,-408.091"/>
</g>
<!-- Node33 -->
<g id="node33" class="node"><title>Node33</title>
<g id="a_node33"><a xlink:href="mxm__std_8F90.html#a1f2059cb835b2818aef861f2f59a0a72" target="_top" xlink:title="mxf22">
<polygon fill="white" stroke="black" points="708.5,-342.5 708.5,-361.5 753.5,-361.5 753.5,-342.5 708.5,-342.5"/>
<text text-anchor="middle" x="731" y="-349.5" font-family="Helvetica,sans-Serif" font-size="10.00">mxf22</text>
</a>
</g>
</g>
<!-- Node18&#45;&gt;Node33 -->
<g id="edge32" class="edge"><title>Node18&#45;&gt;Node33</title>
<path fill="none" stroke="midnightblue" d="M629.498,-475.477C639.707,-454.602 666.376,-404.046 700,-371 701.099,-369.92 702.27,-368.869 703.488,-367.853"/>
<polygon fill="midnightblue" stroke="midnightblue" points="705.924,-370.408 711.946,-361.691 701.802,-364.75 705.924,-370.408"/>
</g>
<!-- Node34 -->
<g id="node34" class="node"><title>Node34</title>
<g id="a_node34"><a xlink:href="mxm__std_8F90.html#a3dc6491b8d44b702dbbb13a01f887c59" target="_top" xlink:title="mxf23">
<polygon fill="white" stroke="black" points="708.5,-304.5 708.5,-323.5 753.5,-323.5 753.5,-304.5 708.5,-304.5"/>
<text text-anchor="middle" x="731" y="-311.5" font-family="Helvetica,sans-Serif" font-size="10.00">mxf23</text>
</a>
</g>
</g>
<!-- Node18&#45;&gt;Node34 -->
<g id="edge33" class="edge"><title>Node18&#45;&gt;Node34</title>
<path fill="none" stroke="midnightblue" d="M627.715,-475.404C635.373,-449.722 659.275,-378.297 700,-333 701.005,-331.883 702.09,-330.806 703.232,-329.772"/>
<polygon fill="midnightblue" stroke="midnightblue" points="705.496,-332.447 711.321,-323.597 701.248,-326.882 705.496,-332.447"/>
</g>
<!-- Node35 -->
<g id="node35" class="node"><title>Node35</title>
<g id="a_node35"><a xlink:href="mxm__std_8F90.html#af0752c9a61343489900f8d812c6980ed" target="_top" xlink:title="mxf24">
<polygon fill="white" stroke="black" points="708.5,-266.5 708.5,-285.5 753.5,-285.5 753.5,-266.5 708.5,-266.5"/>
<text text-anchor="middle" x="731" y="-273.5" font-family="Helvetica,sans-Serif" font-size="10.00">mxf24</text>
</a>
</g>
</g>
<!-- Node18&#45;&gt;Node35 -->
<g id="edge34" class="edge"><title>Node18&#45;&gt;Node35</title>
<path fill="none" stroke="midnightblue" d="M626.638,-475.225C632.093,-445.214 652.081,-352.931 700,-295 700.84,-293.985 701.749,-293.006 702.709,-292.066"/>
<polygon fill="midnightblue" stroke="midnightblue" points="705.158,-294.589 710.792,-285.616 700.792,-289.118 705.158,-294.589"/>
</g>
<!-- Node36 -->
<g id="node36" class="node"><title>Node36</title>
<g id="a_node36"><a xlink:href="mxm__std_8F90.html#abff718a387aa354f77d0e8b0ffa98867" target="_top" xlink:title="mxf3">
<polygon fill="white" stroke="black" points="711.5,-228.5 711.5,-247.5 750.5,-247.5 750.5,-228.5 711.5,-228.5"/>
<text text-anchor="middle" x="731" y="-235.5" font-family="Helvetica,sans-Serif" font-size="10.00">mxf3</text>
</a>
</g>
</g>
<!-- Node18&#45;&gt;Node36 -->
<g id="edge35" class="edge"><title>Node18&#45;&gt;Node36</title>
<path fill="none" stroke="midnightblue" d="M625.869,-475.24C629.317,-441.502 644.672,-327.994 700,-257 700.947,-255.784 701.996,-254.625 703.117,-253.522"/>
<polygon fill="midnightblue" stroke="midnightblue" points="705.589,-256.029 711.257,-247.077 701.244,-250.541 705.589,-256.029"/>
</g>
<!-- Node37 -->
<g id="node37" class="node"><title>Node37</title>
<g id="a_node37"><a xlink:href="mxm__std_8F90.html#a2f4e4e1b4daebbd4d0580029d0f54016" target="_top" xlink:title="mxf4">
<polygon fill="white" stroke="black" points="711.5,-190.5 711.5,-209.5 750.5,-209.5 750.5,-190.5 711.5,-190.5"/>
<text text-anchor="middle" x="731" y="-197.5" font-family="Helvetica,sans-Serif" font-size="10.00">mxf4</text>
</a>
</g>
</g>
<!-- Node18&#45;&gt;Node37 -->
<g id="edge36" class="edge"><title>Node18&#45;&gt;Node37</title>
<path fill="none" stroke="midnightblue" d="M625.301,-475.47C626.914,-438.635 637.06,-303.443 700,-219 701.039,-217.607 702.212,-216.29 703.478,-215.05"/>
<polygon fill="midnightblue" stroke="midnightblue" points="705.751,-217.715 711.449,-208.783 701.425,-212.212 705.751,-217.715"/>
</g>
<!-- Node38 -->
<g id="node38" class="node"><title>Node38</title>
<g id="a_node38"><a xlink:href="mxm__std_8F90.html#a5a6d5c31350c601ba8327b75a72cba0a" target="_top" xlink:title="mxf5">
<polygon fill="white" stroke="black" points="711.5,-152.5 711.5,-171.5 750.5,-171.5 750.5,-152.5 711.5,-152.5"/>
<text text-anchor="middle" x="731" y="-159.5" font-family="Helvetica,sans-Serif" font-size="10.00">mxf5</text>
</a>
</g>
</g>
<!-- Node18&#45;&gt;Node38 -->
<g id="edge37" class="edge"><title>Node18&#45;&gt;Node38</title>
<path fill="none" stroke="midnightblue" d="M624.886,-475.249C624.889,-434.92 629.642,-278.713 700,-181 701.015,-179.59 702.171,-178.26 703.423,-177.009"/>
<polygon fill="midnightblue" stroke="midnightblue" points="705.698,-179.672 711.356,-170.715 701.347,-174.189 705.698,-179.672"/>
</g>
<!-- Node39 -->
<g id="node39" class="node"><title>Node39</title>
<g id="a_node39"><a xlink:href="mxm__std_8F90.html#a38a142edde1e72a918d280747a319f7a" target="_top" xlink:title="mxf6">
<polygon fill="white" stroke="black" points="711.5,-114.5 711.5,-133.5 750.5,-133.5 750.5,-114.5 711.5,-114.5"/>
<text text-anchor="middle" x="731" y="-121.5" font-family="Helvetica,sans-Serif" font-size="10.00">mxf6</text>
</a>
</g>
</g>
<!-- Node18&#45;&gt;Node39 -->
<g id="edge38" class="edge"><title>Node18&#45;&gt;Node39</title>
<path fill="none" stroke="midnightblue" d="M624.551,-475.244C623.043,-431.929 622.055,-254.273 700,-143 700.997,-141.577 702.138,-140.236 703.38,-138.978"/>
<polygon fill="midnightblue" stroke="midnightblue" points="705.656,-141.64 711.282,-132.662 701.285,-136.172 705.656,-141.64"/>
</g>
<!-- Node40 -->
<g id="node40" class="node"><title>Node40</title>
<g id="a_node40"><a xlink:href="mxm__std_8F90.html#a1919ea16c0a7b4e248e45e983c29d965" target="_top" xlink:title="mxf7">
<polygon fill="white" stroke="black" points="711.5,-76.5 711.5,-95.5 750.5,-95.5 750.5,-76.5 711.5,-76.5"/>
<text text-anchor="middle" x="731" y="-83.5" font-family="Helvetica,sans-Serif" font-size="10.00">mxf7</text>
</a>
</g>
</g>
<!-- Node18&#45;&gt;Node40 -->
<g id="edge39" class="edge"><title>Node18&#45;&gt;Node40</title>
<path fill="none" stroke="midnightblue" d="M625.875,-475.33C630.808,-422.47 656.49,-168.523 700,-105 700.982,-103.566 702.111,-102.218 703.344,-100.954"/>
<polygon fill="midnightblue" stroke="midnightblue" points="705.621,-103.614 711.221,-94.6202 701.235,-98.1584 705.621,-103.614"/>
</g>
<!-- Node41 -->
<g id="node41" class="node"><title>Node41</title>
<g id="a_node41"><a xlink:href="mxm__std_8F90.html#af4bd28930a9d674bbcad09ad75fa81ef" target="_top" xlink:title="mxf8">
<polygon fill="white" stroke="black" points="711.5,-38.5 711.5,-57.5 750.5,-57.5 750.5,-38.5 711.5,-38.5"/>
<text text-anchor="middle" x="731" y="-45.5" font-family="Helvetica,sans-Serif" font-size="10.00">mxf8</text>
</a>
</g>
</g>
<!-- Node18&#45;&gt;Node41 -->
<g id="edge40" class="edge"><title>Node18&#45;&gt;Node41</title>
<path fill="none" stroke="midnightblue" d="M625.673,-475.483C629.753,-419.922 652.592,-137.518 700,-67 700.993,-65.5227 702.144,-64.1369 703.404,-62.8408"/>
<polygon fill="midnightblue" stroke="midnightblue" points="705.856,-65.3621 711.483,-56.3853 701.486,-59.8935 705.856,-65.3621"/>
</g>
<!-- Node42 -->
<g id="node42" class="node"><title>Node42</title>
<g id="a_node42"><a xlink:href="mxm__std_8F90.html#a8ab38e8d33e92444b748159b82759c27" target="_top" xlink:title="mxf9">
<polygon fill="white" stroke="black" points="711.5,-0.5 711.5,-19.5 750.5,-19.5 750.5,-0.5 711.5,-0.5"/>
<text text-anchor="middle" x="731" y="-7.5" font-family="Helvetica,sans-Serif" font-size="10.00">mxf9</text>
</a>
</g>
</g>
<!-- Node18&#45;&gt;Node42 -->
<g id="edge41" class="edge"><title>Node18&#45;&gt;Node42</title>
<path fill="none" stroke="midnightblue" d="M625.521,-475.398C628.859,-416.718 648.749,-106.443 700,-29 700.982,-27.5155 702.125,-26.1241 703.379,-24.8238"/>
<polygon fill="midnightblue" stroke="midnightblue" points="705.83,-27.3444 711.441,-18.3571 701.45,-21.8841 705.83,-27.3444"/>
</g>
</g>
</svg>
