<?xml version="1.0" encoding="UTF-8" standalone="no"?>
<!DOCTYPE svg PUBLIC "-//W3C//DTD SVG 1.1//EN"
 "http://www.w3.org/Graphics/SVG/1.1/DTD/svg11.dtd">
<!-- Generated by graphviz version 2.38.0 (20140413.2041)
 -->
<!-- Title: poisson::grid_to_mesh Pages: 1 -->
<svg width="380pt" height="218pt"
 viewBox="0.00 0.00 380.00 218.00" xmlns="http://www.w3.org/2000/svg" xmlns:xlink="http://www.w3.org/1999/xlink">
<g id="graph0" class="graph" transform="scale(1 1) rotate(0) translate(4 214)">
<title>poisson::grid_to_mesh</title>
<polygon fill="white" stroke="none" points="-4,4 -4,-214 376,-214 376,4 -4,4"/>
<!-- Node1 -->
<g id="node1" class="node"><title>Node1</title>
<polygon fill="#bfbfbf" stroke="black" points="0,-95.5 0,-114.5 122,-114.5 122,-95.5 0,-95.5"/>
<text text-anchor="middle" x="61" y="-102.5" font-family="Helvetica,sans-Serif" font-size="10.00">poisson::grid_to_mesh</text>
</g>
<!-- Node2 -->
<g id="node2" class="node"><title>Node2</title>
<g id="a_node2"><a xlink:href="classparallel.html#a9a8fe6b8e5cb33426f1ebc5d75ae256f" target="_top" xlink:title="parallel::gllel">
<polygon fill="white" stroke="black" points="161,-190.5 161,-209.5 235,-209.5 235,-190.5 161,-190.5"/>
<text text-anchor="middle" x="198" y="-197.5" font-family="Helvetica,sans-Serif" font-size="10.00">parallel::gllel</text>
</a>
</g>
</g>
<!-- Node1&#45;&gt;Node2 -->
<g id="edge1" class="edge"><title>Node1&#45;&gt;Node2</title>
<path fill="none" stroke="midnightblue" d="M72.6531,-114.712C89.783,-130.024 124.892,-160.174 158,-181 160.594,-182.632 163.348,-184.225 166.147,-185.75"/>
<polygon fill="midnightblue" stroke="midnightblue" points="164.601,-188.89 175.094,-190.356 167.805,-182.667 164.601,-188.89"/>
</g>
<!-- Node4 -->
<g id="node4" class="node"><title>Node4</title>
<g id="a_node4"><a xlink:href="classparallel.html#a07e279fd1cc6f4e9189bcaad37a0d3b6" target="_top" xlink:title="parallel::gllnid">
<polygon fill="white" stroke="black" points="158,-152.5 158,-171.5 238,-171.5 238,-152.5 158,-152.5"/>
<text text-anchor="middle" x="198" y="-159.5" font-family="Helvetica,sans-Serif" font-size="10.00">parallel::gllnid</text>
</a>
</g>
</g>
<!-- Node1&#45;&gt;Node4 -->
<g id="edge3" class="edge"><title>Node1&#45;&gt;Node4</title>
<path fill="none" stroke="midnightblue" d="M84.596,-114.541C106.596,-123.829 140.243,-138.036 164.993,-148.486"/>
<polygon fill="midnightblue" stroke="midnightblue" points="163.756,-151.763 174.33,-152.428 166.479,-145.314 163.756,-151.763"/>
</g>
<!-- Node5 -->
<g id="node5" class="node"><title>Node5</title>
<g id="a_node5"><a xlink:href="classparallel.html#ac36680315d0622d84df5d5baf3fb0acc" target="_top" xlink:title="parallel::lglel">
<polygon fill="white" stroke="black" points="161,-114.5 161,-133.5 235,-133.5 235,-114.5 161,-114.5"/>
<text text-anchor="middle" x="198" y="-121.5" font-family="Helvetica,sans-Serif" font-size="10.00">parallel::lglel</text>
</a>
</g>
</g>
<!-- Node1&#45;&gt;Node5 -->
<g id="edge5" class="edge"><title>Node1&#45;&gt;Node5</title>
<path fill="none" stroke="midnightblue" d="M122.393,-113.5C131.88,-114.835 141.557,-116.197 150.662,-117.478"/>
<polygon fill="midnightblue" stroke="midnightblue" points="150.269,-120.957 160.659,-118.885 151.244,-114.026 150.269,-120.957"/>
</g>
<!-- Node7 -->
<g id="node7" class="node"><title>Node7</title>
<g id="a_node7"><a xlink:href="mpi__dummy_8F90.html#adf2a055de10dc93a671a453c7190fd10" target="_top" xlink:title="mpi_irecv">
<polygon fill="white" stroke="black" points="167,-76.5 167,-95.5 229,-95.5 229,-76.5 167,-76.5"/>
<text text-anchor="middle" x="198" y="-83.5" font-family="Helvetica,sans-Serif" font-size="10.00">mpi_irecv</text>
</a>
</g>
</g>
<!-- Node1&#45;&gt;Node7 -->
<g id="edge7" class="edge"><title>Node1&#45;&gt;Node7</title>
<path fill="none" stroke="midnightblue" d="M122.393,-96.5003C134.097,-94.853 146.089,-93.1652 156.942,-91.6379"/>
<polygon fill="midnightblue" stroke="midnightblue" points="157.535,-95.0889 166.95,-90.2293 156.56,-88.1572 157.535,-95.0889"/>
</g>
<!-- Node8 -->
<g id="node8" class="node"><title>Node8</title>
<g id="a_node8"><a xlink:href="mpi__dummy_8F90.html#a4c6ff99fbf164179b98c120547561b30" target="_top" xlink:title="mpi_isend">
<polygon fill="white" stroke="black" points="165.5,-38.5 165.5,-57.5 230.5,-57.5 230.5,-38.5 165.5,-38.5"/>
<text text-anchor="middle" x="198" y="-45.5" font-family="Helvetica,sans-Serif" font-size="10.00">mpi_isend</text>
</a>
</g>
</g>
<!-- Node1&#45;&gt;Node8 -->
<g id="edge8" class="edge"><title>Node1&#45;&gt;Node8</title>
<path fill="none" stroke="midnightblue" d="M84.596,-95.4595C106.596,-86.1706 140.243,-71.9642 164.993,-61.5143"/>
<polygon fill="midnightblue" stroke="midnightblue" points="166.479,-64.6858 174.33,-57.5716 163.756,-58.237 166.479,-64.6858"/>
</g>
<!-- Node9 -->
<g id="node9" class="node"><title>Node9</title>
<g id="a_node9"><a xlink:href="mpi__dummy_8F90.html#a90b9c69c5b43af73d8821c11b5d8f22d" target="_top" xlink:title="mpi_wait">
<polygon fill="white" stroke="black" points="169,-0.5 169,-19.5 227,-19.5 227,-0.5 169,-0.5"/>
<text text-anchor="middle" x="198" y="-7.5" font-family="Helvetica,sans-Serif" font-size="10.00">mpi_wait</text>
</a>
</g>
</g>
<!-- Node1&#45;&gt;Node9 -->
<g id="edge9" class="edge"><title>Node1&#45;&gt;Node9</title>
<path fill="none" stroke="midnightblue" d="M72.6531,-95.2885C89.783,-79.9762 124.892,-49.8258 158,-29 160.594,-27.3684 163.348,-25.7754 166.147,-24.2501"/>
<polygon fill="midnightblue" stroke="midnightblue" points="167.805,-27.3332 175.094,-19.6436 164.601,-21.1096 167.805,-27.3332"/>
</g>
<!-- Node3 -->
<g id="node3" class="node"><title>Node3</title>
<g id="a_node3"><a xlink:href="classmesh.html#a383626b86a123c489b00681fcb13d503" target="_top" xlink:title="mesh::ieg_to_xyz">
<polygon fill="white" stroke="black" points="274,-171.5 274,-190.5 372,-190.5 372,-171.5 274,-171.5"/>
<text text-anchor="middle" x="323" y="-178.5" font-family="Helvetica,sans-Serif" font-size="10.00">mesh::ieg_to_xyz</text>
</a>
</g>
</g>
<!-- Node2&#45;&gt;Node3 -->
<g id="edge2" class="edge"><title>Node2&#45;&gt;Node3</title>
<path fill="none" stroke="midnightblue" d="M235.239,-194.402C244.18,-193.021 253.983,-191.507 263.68,-190.009"/>
<polygon fill="midnightblue" stroke="midnightblue" points="264.359,-193.446 273.707,-188.46 263.29,-186.528 264.359,-193.446"/>
</g>
<!-- Node4&#45;&gt;Node3 -->
<g id="edge4" class="edge"><title>Node4&#45;&gt;Node3</title>
<path fill="none" stroke="midnightblue" d="M238.256,-168.064C246.341,-169.313 255.019,-170.653 263.616,-171.981"/>
<polygon fill="midnightblue" stroke="midnightblue" points="263.213,-175.46 273.63,-173.528 264.281,-168.543 263.213,-175.46"/>
</g>
<!-- Node6 -->
<g id="node6" class="node"><title>Node6</title>
<g id="a_node6"><a xlink:href="classmesh.html#a8b6a250925cdc576e3ff6f7b18dc88c4" target="_top" xlink:title="mesh::xyz_to_ieg">
<polygon fill="white" stroke="black" points="274,-114.5 274,-133.5 372,-133.5 372,-114.5 274,-114.5"/>
<text text-anchor="middle" x="323" y="-121.5" font-family="Helvetica,sans-Serif" font-size="10.00">mesh::xyz_to_ieg</text>
</a>
</g>
</g>
<!-- Node5&#45;&gt;Node6 -->
<g id="edge6" class="edge"><title>Node5&#45;&gt;Node6</title>
<path fill="none" stroke="midnightblue" d="M235.239,-124C244.18,-124 253.983,-124 263.68,-124"/>
<polygon fill="midnightblue" stroke="midnightblue" points="263.707,-127.5 273.707,-124 263.707,-120.5 263.707,-127.5"/>
</g>
</g>
</svg>
