<?xml version="1.0" encoding="UTF-8" standalone="no"?>
<!DOCTYPE svg PUBLIC "-//W3C//DTD SVG 1.1//EN"
 "http://www.w3.org/Graphics/SVG/1.1/DTD/svg11.dtd">
<!-- Generated by graphviz version 2.38.0 (20140413.2041)
 -->
<!-- Title: fft::transpose_grid Pages: 1 -->
<svg width="237pt" height="66pt"
 viewBox="0.00 0.00 237.00 66.00" xmlns="http://www.w3.org/2000/svg" xmlns:xlink="http://www.w3.org/1999/xlink">
<g id="graph0" class="graph" transform="scale(1 1) rotate(0) translate(4 62)">
<title>fft::transpose_grid</title>
<polygon fill="white" stroke="none" points="-4,4 -4,-62 233,-62 233,4 -4,4"/>
<!-- Node1 -->
<g id="node1" class="node"><title>Node1</title>
<polygon fill="#bfbfbf" stroke="black" points="0,-19.5 0,-38.5 101,-38.5 101,-19.5 0,-19.5"/>
<text text-anchor="middle" x="50.5" y="-26.5" font-family="Helvetica,sans-Serif" font-size="10.00">fft::transpose_grid</text>
</g>
<!-- Node2 -->
<g id="node2" class="node"><title>Node2</title>
<g id="a_node2"><a xlink:href="mpi__dummy_8F90.html#ac160db4315dd0998ac7f60dd94f35c0e" target="_top" xlink:title="mpi_comm_size">
<polygon fill="white" stroke="black" points="137,-38.5 137,-57.5 229,-57.5 229,-38.5 137,-38.5"/>
<text text-anchor="middle" x="183" y="-45.5" font-family="Helvetica,sans-Serif" font-size="10.00">mpi_comm_size</text>
</a>
</g>
</g>
<!-- Node1&#45;&gt;Node2 -->
<g id="edge1" class="edge"><title>Node1&#45;&gt;Node2</title>
<path fill="none" stroke="midnightblue" d="M101.209,-36.2373C109.505,-37.4451 118.156,-38.7047 126.584,-39.9317"/>
<polygon fill="midnightblue" stroke="midnightblue" points="126.314,-43.4292 136.714,-41.4066 127.322,-36.5023 126.314,-43.4292"/>
</g>
<!-- Node3 -->
<g id="node3" class="node"><title>Node3</title>
<g id="a_node3"><a xlink:href="navier1_8F90.html#a17c0ecae12cc5c6096939885da90ad2b" target="_top" xlink:title="transpose">
<polygon fill="white" stroke="black" points="151,-0.5 151,-19.5 215,-19.5 215,-0.5 151,-0.5"/>
<text text-anchor="middle" x="183" y="-7.5" font-family="Helvetica,sans-Serif" font-size="10.00">transpose</text>
</a>
</g>
</g>
<!-- Node1&#45;&gt;Node3 -->
<g id="edge2" class="edge"><title>Node1&#45;&gt;Node3</title>
<path fill="none" stroke="midnightblue" d="M101.209,-21.7627C114.264,-19.8619 128.201,-17.8328 140.759,-16.0045"/>
<polygon fill="midnightblue" stroke="midnightblue" points="141.542,-19.4274 150.934,-14.5231 140.534,-12.5004 141.542,-19.4274"/>
</g>
</g>
</svg>
