<?xml version="1.0" encoding="UTF-8" standalone="no"?>
<!DOCTYPE svg PUBLIC "-//W3C//DTD SVG 1.1//EN"
 "http://www.w3.org/Graphics/SVG/1.1/DTD/svg11.dtd">
<!-- Generated by graphviz version 2.38.0 (20140413.2041)
 -->
<!-- Title: hsmg_routines::hsmg_setup_solve Pages: 1 -->
<svg width="445pt" height="218pt"
 viewBox="0.00 0.00 445.00 218.00" xmlns="http://www.w3.org/2000/svg" xmlns:xlink="http://www.w3.org/1999/xlink">
<g id="graph0" class="graph" transform="scale(1 1) rotate(0) translate(4 214)">
<title>hsmg_routines::hsmg_setup_solve</title>
<polygon fill="white" stroke="none" points="-4,4 -4,-214 441,-214 441,4 -4,4"/>
<!-- Node1 -->
<g id="node1" class="node"><title>Node1</title>
<polygon fill="#bfbfbf" stroke="black" points="0,-90 0,-120 116,-120 116,-90 0,-90"/>
<text text-anchor="start" x="8" y="-108" font-family="Helvetica,sans-Serif" font-size="10.00">hsmg_routines::hsmg</text>
<text text-anchor="middle" x="58" y="-97" font-family="Helvetica,sans-Serif" font-size="10.00">_setup_solve</text>
</g>
<!-- Node2 -->
<g id="node2" class="node"><title>Node2</title>
<g id="a_node2"><a xlink:href="byte_8c.html#a2da8eeb074dfd3ffbfb3e9a4d301cda4" target="_top" xlink:title="exitt">
<polygon fill="white" stroke="black" points="152,-95.5 152,-114.5 188,-114.5 188,-95.5 152,-95.5"/>
<text text-anchor="middle" x="170" y="-102.5" font-family="Helvetica,sans-Serif" font-size="10.00">exitt</text>
</a>
</g>
</g>
<!-- Node1&#45;&gt;Node2 -->
<g id="edge1" class="edge"><title>Node1&#45;&gt;Node2</title>
<path fill="none" stroke="midnightblue" d="M116.255,-105C125.055,-105 133.777,-105 141.52,-105"/>
<polygon fill="midnightblue" stroke="midnightblue" points="141.718,-108.5 151.718,-105 141.718,-101.5 141.718,-108.5"/>
</g>
<!-- Node3 -->
<g id="node3" class="node"><title>Node3</title>
<g id="a_node3"><a xlink:href="classctimer.html#abcecbc845c8ee72e13a19eaa30b80d77" target="_top" xlink:title="ctimer::dnekclock">
<polygon fill="white" stroke="black" points="224,-190.5 224,-209.5 321,-209.5 321,-190.5 224,-190.5"/>
<text text-anchor="middle" x="272.5" y="-197.5" font-family="Helvetica,sans-Serif" font-size="10.00">ctimer::dnekclock</text>
</a>
</g>
</g>
<!-- Node2&#45;&gt;Node3 -->
<g id="edge2" class="edge"><title>Node2&#45;&gt;Node3</title>
<path fill="none" stroke="midnightblue" d="M175.342,-114.51C183.022,-130.363 200.444,-162.293 224,-181 226.069,-182.643 228.299,-184.161 230.624,-185.561"/>
<polygon fill="midnightblue" stroke="midnightblue" points="229.438,-188.888 239.926,-190.387 232.661,-182.675 229.438,-188.888"/>
</g>
<!-- Node5 -->
<g id="node5" class="node"><title>Node5</title>
<g id="a_node5"><a xlink:href="subs1_8F90.html#a339739b88994e5bb12bd923147f94983" target="_top" xlink:title="flush_io">
<polygon fill="white" stroke="black" points="246,-152.5 246,-171.5 299,-171.5 299,-152.5 246,-152.5"/>
<text text-anchor="middle" x="272.5" y="-159.5" font-family="Helvetica,sans-Serif" font-size="10.00">flush_io</text>
</a>
</g>
</g>
<!-- Node2&#45;&gt;Node5 -->
<g id="edge4" class="edge"><title>Node2&#45;&gt;Node5</title>
<path fill="none" stroke="midnightblue" d="M182.662,-114.624C193.053,-122.884 208.908,-134.73 224,-143 227.963,-145.171 232.226,-147.23 236.515,-149.135"/>
<polygon fill="midnightblue" stroke="midnightblue" points="235.26,-152.404 245.835,-153.044 237.967,-145.949 235.26,-152.404"/>
</g>
<!-- Node6 -->
<g id="node6" class="node"><title>Node6</title>
<g id="a_node6"><a xlink:href="singlmesh_8F90.html#aef78ff219741b83c1ca784b869e9cacf" target="_top" xlink:title="Dummy for singlmesh. ">
<polygon fill="white" stroke="black" points="232.5,-114.5 232.5,-133.5 312.5,-133.5 312.5,-114.5 232.5,-114.5"/>
<text text-anchor="middle" x="272.5" y="-121.5" font-family="Helvetica,sans-Serif" font-size="10.00">happy_check</text>
</a>
</g>
</g>
<!-- Node2&#45;&gt;Node6 -->
<g id="edge5" class="edge"><title>Node2&#45;&gt;Node6</title>
<path fill="none" stroke="midnightblue" d="M188.048,-108.223C197.499,-110.01 209.785,-112.332 222.011,-114.644"/>
<polygon fill="midnightblue" stroke="midnightblue" points="221.727,-118.152 232.203,-116.571 223.028,-111.274 221.727,-118.152"/>
</g>
<!-- Node7 -->
<g id="node7" class="node"><title>Node7</title>
<g id="a_node7"><a xlink:href="mpi__dummy_8F90.html#a55e9a1619aadb638b14211ce21d7d566" target="_top" xlink:title="mpi_finalize">
<polygon fill="white" stroke="black" points="236.5,-76.5 236.5,-95.5 308.5,-95.5 308.5,-76.5 236.5,-76.5"/>
<text text-anchor="middle" x="272.5" y="-83.5" font-family="Helvetica,sans-Serif" font-size="10.00">mpi_finalize</text>
</a>
</g>
</g>
<!-- Node2&#45;&gt;Node7 -->
<g id="edge6" class="edge"><title>Node2&#45;&gt;Node7</title>
<path fill="none" stroke="midnightblue" d="M188.048,-101.777C198.58,-99.7858 212.634,-97.1288 226.202,-94.5638"/>
<polygon fill="midnightblue" stroke="midnightblue" points="227.24,-97.9296 236.416,-92.6328 225.94,-91.0514 227.24,-97.9296"/>
</g>
<!-- Node8 -->
<g id="node8" class="node"><title>Node8</title>
<g id="a_node8"><a xlink:href="papi_8F90.html#a3a75ccdfbe05912fda48c3b134d114c0" target="_top" xlink:title="nek_flops">
<polygon fill="white" stroke="black" points="241.5,-38.5 241.5,-57.5 303.5,-57.5 303.5,-38.5 241.5,-38.5"/>
<text text-anchor="middle" x="272.5" y="-45.5" font-family="Helvetica,sans-Serif" font-size="10.00">nek_flops</text>
</a>
</g>
</g>
<!-- Node2&#45;&gt;Node8 -->
<g id="edge7" class="edge"><title>Node2&#45;&gt;Node8</title>
<path fill="none" stroke="midnightblue" d="M182.662,-95.3757C193.053,-87.1157 208.908,-75.2698 224,-67 227.493,-65.086 231.22,-63.2596 234.991,-61.5488"/>
<polygon fill="midnightblue" stroke="midnightblue" points="236.53,-64.6976 244.35,-57.5502 233.779,-58.2605 236.53,-64.6976"/>
</g>
<!-- Node10 -->
<g id="node10" class="node"><title>Node10</title>
<g id="a_node10"><a xlink:href="comm__mpi_8F90.html#a4acb4d8e379294232e9219bec063d8f3" target="_top" xlink:title="nekgsync">
<polygon fill="white" stroke="black" points="241.5,-0.5 241.5,-19.5 303.5,-19.5 303.5,-0.5 241.5,-0.5"/>
<text text-anchor="middle" x="272.5" y="-7.5" font-family="Helvetica,sans-Serif" font-size="10.00">nekgsync</text>
</a>
</g>
</g>
<!-- Node2&#45;&gt;Node10 -->
<g id="edge9" class="edge"><title>Node2&#45;&gt;Node10</title>
<path fill="none" stroke="midnightblue" d="M175.342,-95.4898C183.022,-79.6369 200.444,-47.7074 224,-29 226.573,-26.9563 229.395,-25.1064 232.34,-23.437"/>
<polygon fill="midnightblue" stroke="midnightblue" points="233.998,-26.5217 241.417,-18.9572 230.9,-20.2446 233.998,-26.5217"/>
</g>
<!-- Node4 -->
<g id="node4" class="node"><title>Node4</title>
<g id="a_node4"><a xlink:href="mpi__dummy_8F90.html#ae6a5ef945f87c2c27849696b70f3af2a" target="_top" xlink:title="mpi_wtime">
<polygon fill="white" stroke="black" points="364,-190.5 364,-209.5 430,-209.5 430,-190.5 364,-190.5"/>
<text text-anchor="middle" x="397" y="-197.5" font-family="Helvetica,sans-Serif" font-size="10.00">mpi_wtime</text>
</a>
</g>
</g>
<!-- Node3&#45;&gt;Node4 -->
<g id="edge3" class="edge"><title>Node3&#45;&gt;Node4</title>
<path fill="none" stroke="midnightblue" d="M321.212,-200C331.894,-200 343.154,-200 353.603,-200"/>
<polygon fill="midnightblue" stroke="midnightblue" points="353.73,-203.5 363.729,-200 353.729,-196.5 353.73,-203.5"/>
</g>
<!-- Node9 -->
<g id="node9" class="node"><title>Node9</title>
<g id="a_node9"><a xlink:href="papi_8F90.html#a838be3d39e287e29002d5a68c6ad2dd8" target="_top" xlink:title="getflops_papi">
<polygon fill="white" stroke="black" points="357,-38.5 357,-57.5 437,-57.5 437,-38.5 357,-38.5"/>
<text text-anchor="middle" x="397" y="-45.5" font-family="Helvetica,sans-Serif" font-size="10.00">getflops_papi</text>
</a>
</g>
</g>
<!-- Node8&#45;&gt;Node9 -->
<g id="edge8" class="edge"><title>Node8&#45;&gt;Node9</title>
<path fill="none" stroke="midnightblue" d="M303.781,-48C316.666,-48 332.032,-48 346.491,-48"/>
<polygon fill="midnightblue" stroke="midnightblue" points="346.811,-51.5001 356.811,-48 346.811,-44.5001 346.811,-51.5001"/>
</g>
<!-- Node11 -->
<g id="node11" class="node"><title>Node11</title>
<g id="a_node11"><a xlink:href="mpi__dummy_8F90.html#a070afe564196eb48413dbf1a9fbc99aa" target="_top" xlink:title="mpi_barrier">
<polygon fill="white" stroke="black" points="362,-0.5 362,-19.5 432,-19.5 432,-0.5 362,-0.5"/>
<text text-anchor="middle" x="397" y="-7.5" font-family="Helvetica,sans-Serif" font-size="10.00">mpi_barrier</text>
</a>
</g>
</g>
<!-- Node10&#45;&gt;Node11 -->
<g id="edge10" class="edge"><title>Node10&#45;&gt;Node11</title>
<path fill="none" stroke="midnightblue" d="M303.781,-10C318.195,-10 335.714,-10 351.594,-10"/>
<polygon fill="midnightblue" stroke="midnightblue" points="351.745,-13.5001 361.745,-10 351.745,-6.5001 351.745,-13.5001"/>
</g>
</g>
</svg>
