<?xml version="1.0" encoding="UTF-8" standalone="no"?>
<!DOCTYPE svg PUBLIC "-//W3C//DTD SVG 1.1//EN"
 "http://www.w3.org/Graphics/SVG/1.1/DTD/svg11.dtd">
<!-- Generated by graphviz version 2.38.0 (20140413.2041)
 -->
<!-- Title: hsmg_routines::hsmg_setup_schwarz_wt Pages: 1 -->
<svg width="726pt" height="345pt"
 viewBox="0.00 0.00 726.00 344.50" xmlns="http://www.w3.org/2000/svg" xmlns:xlink="http://www.w3.org/1999/xlink">
<g id="graph0" class="graph" transform="scale(1 1) rotate(0) translate(4 340.5)">
<title>hsmg_routines::hsmg_setup_schwarz_wt</title>
<polygon fill="white" stroke="none" points="-4,4 -4,-340.5 722,-340.5 722,4 -4,4"/>
<!-- Node1 -->
<g id="node1" class="node"><title>Node1</title>
<polygon fill="#bfbfbf" stroke="black" points="0,-168.5 0,-198.5 116,-198.5 116,-168.5 0,-168.5"/>
<text text-anchor="start" x="8" y="-186.5" font-family="Helvetica,sans-Serif" font-size="10.00">hsmg_routines::hsmg</text>
<text text-anchor="middle" x="58" y="-175.5" font-family="Helvetica,sans-Serif" font-size="10.00">_setup_schwarz_wt</text>
</g>
<!-- Node2 -->
<g id="node2" class="node"><title>Node2</title>
<g id="a_node2"><a xlink:href="byte_8c.html#a2da8eeb074dfd3ffbfb3e9a4d301cda4" target="_top" xlink:title="exitt">
<polygon fill="white" stroke="black" points="353,-246 353,-265 389,-265 389,-246 353,-246"/>
<text text-anchor="middle" x="371" y="-253" font-family="Helvetica,sans-Serif" font-size="10.00">exitt</text>
</a>
</g>
</g>
<!-- Node1&#45;&gt;Node2 -->
<g id="edge1" class="edge"><title>Node1&#45;&gt;Node2</title>
<path fill="none" stroke="midnightblue" d="M116.042,-196.706C183.492,-212.321 292.927,-237.657 343.197,-249.295"/>
<polygon fill="midnightblue" stroke="midnightblue" points="342.457,-252.716 352.989,-251.562 344.036,-245.896 342.457,-252.716"/>
</g>
<!-- Node12 -->
<g id="node12" class="node"><title>Node12</title>
<g id="a_node12"><a xlink:href="classhsmg__routines.html#a13c1cb2ecf3853e551896970bb5c87b5" target="_top" xlink:title="hsmg_routines::h1mg\l_setup_schwarz_wt_1">
<polygon fill="white" stroke="black" points="152,-122.5 152,-152.5 274,-152.5 274,-122.5 152,-122.5"/>
<text text-anchor="start" x="160" y="-140.5" font-family="Helvetica,sans-Serif" font-size="10.00">hsmg_routines::h1mg</text>
<text text-anchor="middle" x="213" y="-129.5" font-family="Helvetica,sans-Serif" font-size="10.00">_setup_schwarz_wt_1</text>
</a>
</g>
</g>
<!-- Node1&#45;&gt;Node12 -->
<g id="edge11" class="edge"><title>Node1&#45;&gt;Node12</title>
<path fill="none" stroke="midnightblue" d="M109.098,-168.438C122.906,-164.286 138.022,-159.742 152.314,-155.445"/>
<polygon fill="midnightblue" stroke="midnightblue" points="153.482,-158.748 162.051,-152.517 151.467,-152.045 153.482,-158.748"/>
</g>
<!-- Node3 -->
<g id="node3" class="node"><title>Node3</title>
<g id="a_node3"><a xlink:href="classctimer.html#abcecbc845c8ee72e13a19eaa30b80d77" target="_top" xlink:title="ctimer::dnekclock">
<polygon fill="white" stroke="black" points="486.5,-157 486.5,-176 583.5,-176 583.5,-157 486.5,-157"/>
<text text-anchor="middle" x="535" y="-164" font-family="Helvetica,sans-Serif" font-size="10.00">ctimer::dnekclock</text>
</a>
</g>
</g>
<!-- Node2&#45;&gt;Node3 -->
<g id="edge2" class="edge"><title>Node2&#45;&gt;Node3</title>
<path fill="none" stroke="midnightblue" d="M389.134,-252.371C401.775,-249.475 418.97,-244.261 432,-235.5 452.402,-221.782 448.066,-207.89 468,-193.5 475.439,-188.13 484.102,-183.606 492.657,-179.889"/>
<polygon fill="midnightblue" stroke="midnightblue" points="494.239,-183.025 502.199,-176.033 491.616,-176.535 494.239,-183.025"/>
</g>
<!-- Node5 -->
<g id="node5" class="node"><title>Node5</title>
<g id="a_node5"><a xlink:href="subs1_8F90.html#a339739b88994e5bb12bd923147f94983" target="_top" xlink:title="flush_io">
<polygon fill="white" stroke="black" points="508.5,-241 508.5,-260 561.5,-260 561.5,-241 508.5,-241"/>
<text text-anchor="middle" x="535" y="-248" font-family="Helvetica,sans-Serif" font-size="10.00">flush_io</text>
</a>
</g>
</g>
<!-- Node2&#45;&gt;Node5 -->
<g id="edge4" class="edge"><title>Node2&#45;&gt;Node5</title>
<path fill="none" stroke="midnightblue" d="M389.031,-254.974C414.76,-254.18 464.132,-252.656 498.05,-251.61"/>
<polygon fill="midnightblue" stroke="midnightblue" points="498.582,-255.095 508.47,-251.288 498.366,-248.098 498.582,-255.095"/>
</g>
<!-- Node6 -->
<g id="node6" class="node"><title>Node6</title>
<g id="a_node6"><a xlink:href="singlmesh_8F90.html#aef78ff219741b83c1ca784b869e9cacf" target="_top" xlink:title="Dummy for singlmesh. ">
<polygon fill="white" stroke="black" points="495,-203 495,-222 575,-222 575,-203 495,-203"/>
<text text-anchor="middle" x="535" y="-210" font-family="Helvetica,sans-Serif" font-size="10.00">happy_check</text>
</a>
</g>
</g>
<!-- Node2&#45;&gt;Node6 -->
<g id="edge5" class="edge"><title>Node2&#45;&gt;Node6</title>
<path fill="none" stroke="midnightblue" d="M389.031,-250.98C412.368,-244.785 455.157,-233.427 488.222,-224.651"/>
<polygon fill="midnightblue" stroke="midnightblue" points="489.371,-227.967 498.139,-222.019 487.576,-221.201 489.371,-227.967"/>
</g>
<!-- Node7 -->
<g id="node7" class="node"><title>Node7</title>
<g id="a_node7"><a xlink:href="mpi__dummy_8F90.html#a55e9a1619aadb638b14211ce21d7d566" target="_top" xlink:title="mpi_finalize">
<polygon fill="white" stroke="black" points="499,-317 499,-336 571,-336 571,-317 499,-317"/>
<text text-anchor="middle" x="535" y="-324" font-family="Helvetica,sans-Serif" font-size="10.00">mpi_finalize</text>
</a>
</g>
</g>
<!-- Node2&#45;&gt;Node7 -->
<g id="edge6" class="edge"><title>Node2&#45;&gt;Node7</title>
<path fill="none" stroke="midnightblue" d="M387.126,-265.031C405.628,-276.371 438.177,-295.298 468,-307.5 474.752,-310.263 482.048,-312.79 489.24,-315.037"/>
<polygon fill="midnightblue" stroke="midnightblue" points="488.341,-318.421 498.924,-317.923 490.34,-311.713 488.341,-318.421"/>
</g>
<!-- Node8 -->
<g id="node8" class="node"><title>Node8</title>
<g id="a_node8"><a xlink:href="papi_8F90.html#a3a75ccdfbe05912fda48c3b134d114c0" target="_top" xlink:title="nek_flops">
<polygon fill="white" stroke="black" points="504,-279 504,-298 566,-298 566,-279 504,-279"/>
<text text-anchor="middle" x="535" y="-286" font-family="Helvetica,sans-Serif" font-size="10.00">nek_flops</text>
</a>
</g>
</g>
<!-- Node2&#45;&gt;Node8 -->
<g id="edge7" class="edge"><title>Node2&#45;&gt;Node8</title>
<path fill="none" stroke="midnightblue" d="M389.031,-258.969C413.693,-263.993 460.079,-273.442 493.755,-280.302"/>
<polygon fill="midnightblue" stroke="midnightblue" points="493.262,-283.773 503.76,-282.34 494.66,-276.914 493.262,-283.773"/>
</g>
<!-- Node10 -->
<g id="node10" class="node"><title>Node10</title>
<g id="a_node10"><a xlink:href="comm__mpi_8F90.html#a4acb4d8e379294232e9219bec063d8f3" target="_top" xlink:title="nekgsync">
<polygon fill="white" stroke="black" points="504,-119 504,-138 566,-138 566,-119 504,-119"/>
<text text-anchor="middle" x="535" y="-126" font-family="Helvetica,sans-Serif" font-size="10.00">nekgsync</text>
</a>
</g>
</g>
<!-- Node2&#45;&gt;Node10 -->
<g id="edge9" class="edge"><title>Node2&#45;&gt;Node10</title>
<path fill="none" stroke="midnightblue" d="M389.229,-253.662C402.424,-251.417 420.293,-246.452 432,-235.5 462.858,-206.63 436.55,-175.724 468,-147.5 475.311,-140.939 484.751,-136.633 494.194,-133.811"/>
<polygon fill="midnightblue" stroke="midnightblue" points="495.092,-137.194 503.945,-131.374 493.395,-130.403 495.092,-137.194"/>
</g>
<!-- Node4 -->
<g id="node4" class="node"><title>Node4</title>
<g id="a_node4"><a xlink:href="mpi__dummy_8F90.html#ae6a5ef945f87c2c27849696b70f3af2a" target="_top" xlink:title="mpi_wtime">
<polygon fill="white" stroke="black" points="645,-157 645,-176 711,-176 711,-157 645,-157"/>
<text text-anchor="middle" x="678" y="-164" font-family="Helvetica,sans-Serif" font-size="10.00">mpi_wtime</text>
</a>
</g>
</g>
<!-- Node3&#45;&gt;Node4 -->
<g id="edge3" class="edge"><title>Node3&#45;&gt;Node4</title>
<path fill="none" stroke="midnightblue" d="M583.736,-166.5C600.252,-166.5 618.634,-166.5 634.684,-166.5"/>
<polygon fill="midnightblue" stroke="midnightblue" points="634.851,-170 644.851,-166.5 634.851,-163 634.851,-170"/>
</g>
<!-- Node9 -->
<g id="node9" class="node"><title>Node9</title>
<g id="a_node9"><a xlink:href="papi_8F90.html#a838be3d39e287e29002d5a68c6ad2dd8" target="_top" xlink:title="getflops_papi">
<polygon fill="white" stroke="black" points="638,-279 638,-298 718,-298 718,-279 638,-279"/>
<text text-anchor="middle" x="678" y="-286" font-family="Helvetica,sans-Serif" font-size="10.00">getflops_papi</text>
</a>
</g>
</g>
<!-- Node8&#45;&gt;Node9 -->
<g id="edge8" class="edge"><title>Node8&#45;&gt;Node9</title>
<path fill="none" stroke="midnightblue" d="M566.248,-288.5C584.177,-288.5 607.329,-288.5 627.826,-288.5"/>
<polygon fill="midnightblue" stroke="midnightblue" points="627.95,-292 637.95,-288.5 627.95,-285 627.95,-292"/>
</g>
<!-- Node11 -->
<g id="node11" class="node"><title>Node11</title>
<g id="a_node11"><a xlink:href="mpi__dummy_8F90.html#a070afe564196eb48413dbf1a9fbc99aa" target="_top" xlink:title="mpi_barrier">
<polygon fill="white" stroke="black" points="643,-119 643,-138 713,-138 713,-119 643,-119"/>
<text text-anchor="middle" x="678" y="-126" font-family="Helvetica,sans-Serif" font-size="10.00">mpi_barrier</text>
</a>
</g>
</g>
<!-- Node10&#45;&gt;Node11 -->
<g id="edge10" class="edge"><title>Node10&#45;&gt;Node11</title>
<path fill="none" stroke="midnightblue" d="M566.248,-128.5C585.58,-128.5 610.985,-128.5 632.586,-128.5"/>
<polygon fill="midnightblue" stroke="midnightblue" points="632.841,-132 642.841,-128.5 632.841,-125 632.841,-132"/>
</g>
<!-- Node13 -->
<g id="node13" class="node"><title>Node13</title>
<g id="a_node13"><a xlink:href="classhsmg__routines.html#a34c1ff761a953553e39774bd29e982e9" target="_top" xlink:title="hsmg_routines::h1mg\l_setup_schwarz_wt_2">
<polygon fill="white" stroke="black" points="310,-0.5 310,-30.5 432,-30.5 432,-0.5 310,-0.5"/>
<text text-anchor="start" x="318" y="-18.5" font-family="Helvetica,sans-Serif" font-size="10.00">hsmg_routines::h1mg</text>
<text text-anchor="middle" x="371" y="-7.5" font-family="Helvetica,sans-Serif" font-size="10.00">_setup_schwarz_wt_2</text>
</a>
</g>
</g>
<!-- Node12&#45;&gt;Node13 -->
<g id="edge12" class="edge"><title>Node12&#45;&gt;Node13</title>
<path fill="none" stroke="midnightblue" d="M225.482,-122.301C242.094,-101.211 274.728,-63.0198 310,-39.5 312.164,-38.0568 314.429,-36.6781 316.758,-35.3641"/>
<polygon fill="midnightblue" stroke="midnightblue" points="318.692,-38.3048 325.983,-30.617 315.489,-32.0806 318.692,-38.3048"/>
</g>
<!-- Node15 -->
<g id="node15" class="node"><title>Node15</title>
<g id="a_node15"><a xlink:href="classhsmg__routines.html#a88e7156da5cd6d7172d353620e4b9778" target="_top" xlink:title="hsmg_routines::hsmg\l_dssum">
<polygon fill="white" stroke="black" points="313,-147.5 313,-177.5 429,-177.5 429,-147.5 313,-147.5"/>
<text text-anchor="start" x="321" y="-165.5" font-family="Helvetica,sans-Serif" font-size="10.00">hsmg_routines::hsmg</text>
<text text-anchor="middle" x="371" y="-154.5" font-family="Helvetica,sans-Serif" font-size="10.00">_dssum</text>
</a>
</g>
</g>
<!-- Node12&#45;&gt;Node15 -->
<g id="edge14" class="edge"><title>Node12&#45;&gt;Node15</title>
<path fill="none" stroke="midnightblue" d="M274.314,-147.166C283.632,-148.659 293.307,-150.209 302.766,-151.725"/>
<polygon fill="midnightblue" stroke="midnightblue" points="302.49,-155.226 312.918,-153.352 303.598,-148.314 302.49,-155.226"/>
</g>
<!-- Node16 -->
<g id="node16" class="node"><title>Node16</title>
<g id="a_node16"><a xlink:href="classhsmg__routines.html#a36161bd1dfdd2c67146846cabf62b89a" target="_top" xlink:title="hsmg_routines::hsmg\l_extrude">
<polygon fill="white" stroke="black" points="313,-196.5 313,-226.5 429,-226.5 429,-196.5 313,-196.5"/>
<text text-anchor="start" x="321" y="-214.5" font-family="Helvetica,sans-Serif" font-size="10.00">hsmg_routines::hsmg</text>
<text text-anchor="middle" x="371" y="-203.5" font-family="Helvetica,sans-Serif" font-size="10.00">_extrude</text>
</a>
</g>
</g>
<!-- Node12&#45;&gt;Node16 -->
<g id="edge17" class="edge"><title>Node12&#45;&gt;Node16</title>
<path fill="none" stroke="midnightblue" d="M242.281,-152.662C261.254,-162.652 286.904,-175.813 310,-186.5 314.317,-188.498 318.84,-190.515 323.383,-192.492"/>
<polygon fill="midnightblue" stroke="midnightblue" points="322.107,-195.753 332.678,-196.474 324.864,-189.319 322.107,-195.753"/>
</g>
<!-- Node17 -->
<g id="node17" class="node"><title>Node17</title>
<g id="a_node17"><a xlink:href="classhsmg__routines.html#aa16d0aaf949c4b90ef80aca11415af87" target="_top" xlink:title="hsmg_routines::hsmg\l_schwarz_dssum">
<polygon fill="white" stroke="black" points="313,-98.5 313,-128.5 429,-128.5 429,-98.5 313,-98.5"/>
<text text-anchor="start" x="321" y="-116.5" font-family="Helvetica,sans-Serif" font-size="10.00">hsmg_routines::hsmg</text>
<text text-anchor="middle" x="371" y="-105.5" font-family="Helvetica,sans-Serif" font-size="10.00">_schwarz_dssum</text>
</a>
</g>
</g>
<!-- Node12&#45;&gt;Node17 -->
<g id="edge18" class="edge"><title>Node12&#45;&gt;Node17</title>
<path fill="none" stroke="midnightblue" d="M274.314,-128.221C283.632,-126.787 293.307,-125.299 302.766,-123.844"/>
<polygon fill="midnightblue" stroke="midnightblue" points="303.567,-127.262 312.918,-122.282 302.502,-120.343 303.567,-127.262"/>
</g>
<!-- Node18 -->
<g id="node18" class="node"><title>Node18</title>
<g id="a_node18"><a xlink:href="classhsmg__routines.html#aec54835d3731eef354ce95153c5d15cf" target="_top" xlink:title="hsmg_routines::hsmg\l_schwarz_toreg3d">
<polygon fill="white" stroke="black" points="313,-49.5 313,-79.5 429,-79.5 429,-49.5 313,-49.5"/>
<text text-anchor="start" x="321" y="-67.5" font-family="Helvetica,sans-Serif" font-size="10.00">hsmg_routines::hsmg</text>
<text text-anchor="middle" x="371" y="-56.5" font-family="Helvetica,sans-Serif" font-size="10.00">_schwarz_toreg3d</text>
</a>
</g>
</g>
<!-- Node12&#45;&gt;Node18 -->
<g id="edge21" class="edge"><title>Node12&#45;&gt;Node18</title>
<path fill="none" stroke="midnightblue" d="M241.815,-122.45C260.805,-112.387 286.658,-99.0988 310,-88.5 313.631,-86.8512 317.411,-85.1975 321.228,-83.5722"/>
<polygon fill="midnightblue" stroke="midnightblue" points="322.847,-86.6892 330.729,-79.6091 320.152,-80.2287 322.847,-86.6892"/>
</g>
<!-- Node14 -->
<g id="node14" class="node"><title>Node14</title>
<g id="a_node14"><a xlink:href="classhsmg__routines.html#a72020bdd377683fcc4fceffd27087c5f" target="_top" xlink:title="hsmg_routines::h1mg\l_setup_schwarz_wt3d_2">
<polygon fill="white" stroke="black" points="468,-0.5 468,-30.5 602,-30.5 602,-0.5 468,-0.5"/>
<text text-anchor="start" x="476" y="-18.5" font-family="Helvetica,sans-Serif" font-size="10.00">hsmg_routines::h1mg</text>
<text text-anchor="middle" x="535" y="-7.5" font-family="Helvetica,sans-Serif" font-size="10.00">_setup_schwarz_wt3d_2</text>
</a>
</g>
</g>
<!-- Node13&#45;&gt;Node14 -->
<g id="edge13" class="edge"><title>Node13&#45;&gt;Node14</title>
<path fill="none" stroke="midnightblue" d="M432.323,-15.5C440.664,-15.5 449.318,-15.5 457.899,-15.5"/>
<polygon fill="midnightblue" stroke="midnightblue" points="457.915,-19.0001 467.915,-15.5 457.915,-12.0001 457.915,-19.0001"/>
</g>
<!-- Node15&#45;&gt;Node3 -->
<g id="edge15" class="edge"><title>Node15&#45;&gt;Node3</title>
<path fill="none" stroke="midnightblue" d="M429.115,-163.91C444.362,-164.287 460.849,-164.694 476.136,-165.071"/>
<polygon fill="midnightblue" stroke="midnightblue" points="476.414,-168.579 486.498,-165.327 476.587,-161.581 476.414,-168.579"/>
</g>
<!-- Node15&#45;&gt;Node10 -->
<g id="edge16" class="edge"><title>Node15&#45;&gt;Node10</title>
<path fill="none" stroke="midnightblue" d="M429.115,-150.513C450.525,-146.019 474.381,-141.013 493.925,-136.911"/>
<polygon fill="midnightblue" stroke="midnightblue" points="494.648,-140.335 503.716,-134.856 493.21,-133.485 494.648,-140.335"/>
</g>
<!-- Node17&#45;&gt;Node3 -->
<g id="edge19" class="edge"><title>Node17&#45;&gt;Node3</title>
<path fill="none" stroke="midnightblue" d="M412.926,-128.605C429.89,-134.706 449.817,-141.669 468,-147.5 474.947,-149.728 482.344,-151.976 489.578,-154.108"/>
<polygon fill="midnightblue" stroke="midnightblue" points="488.706,-157.499 499.285,-156.93 490.66,-150.778 488.706,-157.499"/>
</g>
<!-- Node17&#45;&gt;Node10 -->
<g id="edge20" class="edge"><title>Node17&#45;&gt;Node10</title>
<path fill="none" stroke="midnightblue" d="M429.115,-118.788C450.427,-120.762 474.162,-122.959 493.655,-124.764"/>
<polygon fill="midnightblue" stroke="midnightblue" points="493.436,-128.259 503.716,-125.696 494.081,-121.289 493.436,-128.259"/>
</g>
</g>
</svg>
