<?xml version="1.0" encoding="UTF-8" standalone="no"?>
<!DOCTYPE svg PUBLIC "-//W3C//DTD SVG 1.1//EN"
 "http://www.w3.org/Graphics/SVG/1.1/DTD/svg11.dtd">
<!-- Generated by graphviz version 2.38.0 (20140413.2041)
 -->
<!-- Title: hsmg_routines::hsmg_setup_fast1d Pages: 1 -->
<!--zoomable 298 -->
<svg id="main" version="1.1" xmlns="http://www.w3.org/2000/svg" xmlns:xlink="http://www.w3.org/1999/xlink" xml:space="preserve" onload="init(evt)">
<style type="text/css"><![CDATA[
.edge:hover path { stroke: red; }
.edge:hover polygon { stroke: red; fill: red; }
]]></style>
<script type="text/javascript"><![CDATA[
var edges = document.getElementsByTagName('g');
if (edges && edges.length) {
  for (var i=0;i<edges.length;i++) {
    if (edges[i].id.substr(0,4)=='edge') {
      edges[i].setAttribute('class','edge');
    }
  }
}
]]></script>
        <defs>
                <circle id="rim" cx="0" cy="0" r="7"/>
                <circle id="rim2" cx="0" cy="0" r="3.5"/>
                <g id="zoomPlus">
                        <use xlink:href="#rim" fill="#404040">
                                <set attributeName="fill" to="#808080" begin="zoomplus.mouseover" end="zoomplus.mouseout"/>
                        </use>
                        <path d="M-4,0h8M0,-4v8" fill="none" stroke="white" stroke-width="1.5" pointer-events="none"/>
                </g>
                <g id="zoomMin">
                        <use xlink:href="#rim" fill="#404040">
                                <set attributeName="fill" to="#808080" begin="zoomminus.mouseover" end="zoomminus.mouseout"/>
                        </use>
                        <path d="M-4,0h8" fill="none" stroke="white" stroke-width="1.5" pointer-events="none"/>
                </g>
                <g id="dirArrow">
                        <path fill="none" stroke="white" stroke-width="1.5" d="M0,-3.0v7 M-2.5,-0.5L0,-3.0L2.5,-0.5"/>
                </g>
               <g id="resetDef">
                       <use xlink:href="#rim2" fill="#404040">
                               <set attributeName="fill" to="#808080" begin="reset.mouseover" end="reset.mouseout"/>
                       </use>
               </g>
        </defs>

<script type="text/javascript">
var viewWidth = 615;
var viewHeight = 298;
var sectionId = 'dynsection-58';
</script>
<script xlink:href="svgpan.js"/>
<svg id="graph" class="graph">
<g id="viewport">
<title>hsmg_routines::hsmg_setup_fast1d</title>
<polygon fill="white" stroke="none" points="-4,4 -4,-294 611,-294 611,4 -4,4"/>
<!-- Node1 -->
<g id="node1" class="node"><title>Node1</title>
<polygon fill="#bfbfbf" stroke="black" points="0,-77 0,-107 116,-107 116,-77 0,-77"/>
<text text-anchor="start" x="8" y="-95" font-family="Helvetica,sans-Serif" font-size="10.00">hsmg_routines::hsmg</text>
<text text-anchor="middle" x="58" y="-84" font-family="Helvetica,sans-Serif" font-size="10.00">_setup_fast1d</text>
</g>
<!-- Node2 -->
<g id="node2" class="node"><title>Node2</title>
<g id="a_node2"><a xlink:href="hmholtz_8F90.html#a5a846560cdbe979f8cf9a71599a7f460" target="_top" xlink:title="Solve the generalized eigenvalue problem A x = lam B x. ">
<polygon fill="white" stroke="black" points="178,-175.5 178,-194.5 242,-194.5 242,-175.5 178,-175.5"/>
<text text-anchor="middle" x="210" y="-182.5" font-family="Helvetica,sans-Serif" font-size="10.00">generalev</text>
</a>
</g>
</g>
<!-- Node1&#45;&gt;Node2 -->
<g id="edge1" class="edge"><title>Node1&#45;&gt;Node2</title>
<path fill="none" stroke="midnightblue" d="M74.5548,-107.251C92.0894,-123.72 122.073,-149.77 152,-166 156.986,-168.704 162.425,-171.116 167.901,-173.239"/>
<polygon fill="midnightblue" stroke="midnightblue" points="167.11,-176.674 177.705,-176.748 169.469,-170.083 167.11,-176.674"/>
</g>
<!-- Node15 -->
<g id="node15" class="node"><title>Node15</title>
<g id="a_node15"><a xlink:href="classhsmg__routines.html#a32d1b32b076c1027158869a56f2188b3" target="_top" xlink:title="hsmg_routines::hsmg\l_setup_fast1d_a">
<polygon fill="white" stroke="black" points="152,-126 152,-156 268,-156 268,-126 152,-126"/>
<text text-anchor="start" x="160" y="-144" font-family="Helvetica,sans-Serif" font-size="10.00">hsmg_routines::hsmg</text>
<text text-anchor="middle" x="210" y="-133" font-family="Helvetica,sans-Serif" font-size="10.00">_setup_fast1d_a</text>
</a>
</g>
</g>
<!-- Node1&#45;&gt;Node15 -->
<g id="edge14" class="edge"><title>Node1&#45;&gt;Node15</title>
<path fill="none" stroke="midnightblue" d="M105.229,-107.101C120.413,-112.062 137.451,-117.627 153.264,-122.793"/>
<polygon fill="midnightblue" stroke="midnightblue" points="152.331,-126.17 162.924,-125.948 154.505,-119.516 152.331,-126.17"/>
</g>
<!-- Node16 -->
<g id="node16" class="node"><title>Node16</title>
<g id="a_node16"><a xlink:href="classhsmg__routines.html#ad0c91654efb05b89839c53064735d2bf" target="_top" xlink:title="hsmg_routines::hsmg\l_setup_fast1d_b">
<polygon fill="white" stroke="black" points="152,-77 152,-107 268,-107 268,-77 152,-77"/>
<text text-anchor="start" x="160" y="-95" font-family="Helvetica,sans-Serif" font-size="10.00">hsmg_routines::hsmg</text>
<text text-anchor="middle" x="210" y="-84" font-family="Helvetica,sans-Serif" font-size="10.00">_setup_fast1d_b</text>
</a>
</g>
</g>
<!-- Node1&#45;&gt;Node16 -->
<g id="edge15" class="edge"><title>Node1&#45;&gt;Node16</title>
<path fill="none" stroke="midnightblue" d="M116.136,-92C124.377,-92 132.923,-92 141.344,-92"/>
<polygon fill="midnightblue" stroke="midnightblue" points="141.526,-95.5001 151.525,-92 141.525,-88.5001 141.526,-95.5001"/>
</g>
<!-- Node17 -->
<g id="node17" class="node"><title>Node17</title>
<g id="a_node17"><a xlink:href="fast3d_8F90.html#a85ab5f066f6e3f2c4d37e131c38b4774" target="_top" xlink:title="zero the eth row of a ">
<polygon fill="white" stroke="black" points="179.5,-38.5 179.5,-57.5 240.5,-57.5 240.5,-38.5 179.5,-38.5"/>
<text text-anchor="middle" x="210" y="-45.5" font-family="Helvetica,sans-Serif" font-size="10.00">row_zero</text>
</a>
</g>
</g>
<!-- Node1&#45;&gt;Node17 -->
<g id="edge16" class="edge"><title>Node1&#45;&gt;Node17</title>
<path fill="none" stroke="midnightblue" d="M110.202,-76.9808C129.68,-71.2673 151.547,-64.853 169.747,-59.5141"/>
<polygon fill="midnightblue" stroke="midnightblue" points="170.833,-62.8433 179.443,-56.67 168.862,-56.1263 170.833,-62.8433"/>
</g>
<!-- Node18 -->
<g id="node18" class="node"><title>Node18</title>
<g id="a_node18"><a xlink:href="navier1_8F90.html#a17c0ecae12cc5c6096939885da90ad2b" target="_top" xlink:title="transpose">
<polygon fill="white" stroke="black" points="178,-0.5 178,-19.5 242,-19.5 242,-0.5 178,-0.5"/>
<text text-anchor="middle" x="210" y="-7.5" font-family="Helvetica,sans-Serif" font-size="10.00">transpose</text>
</a>
</g>
</g>
<!-- Node1&#45;&gt;Node18 -->
<g id="edge17" class="edge"><title>Node1&#45;&gt;Node18</title>
<path fill="none" stroke="midnightblue" d="M77.998,-76.8359C96.1535,-62.9157 124.721,-42.4674 152,-29 157.086,-26.4892 162.583,-24.1878 168.087,-22.1201"/>
<polygon fill="midnightblue" stroke="midnightblue" points="169.646,-25.2815 177.914,-18.656 167.319,-18.6797 169.646,-25.2815"/>
</g>
<!-- Node3 -->
<g id="node3" class="node"><title>Node3</title>
<g id="a_node3"><a xlink:href="math_8F90.html#a3b43508554f14bdea8e14473d7d0803c" target="_top" xlink:title="copy">
<polygon fill="white" stroke="black" points="311.5,-213.5 311.5,-232.5 350.5,-232.5 350.5,-213.5 311.5,-213.5"/>
<text text-anchor="middle" x="331" y="-220.5" font-family="Helvetica,sans-Serif" font-size="10.00">copy</text>
</a>
</g>
</g>
<!-- Node2&#45;&gt;Node3 -->
<g id="edge2" class="edge"><title>Node2&#45;&gt;Node3</title>
<path fill="none" stroke="midnightblue" d="M241.029,-194.589C259.735,-200.563 283.641,-208.196 301.961,-214.046"/>
<polygon fill="midnightblue" stroke="midnightblue" points="300.905,-217.383 311.496,-217.091 303.035,-210.715 300.905,-217.383"/>
</g>
<!-- Node4 -->
<g id="node4" class="node"><title>Node4</title>
<g id="a_node4"><a xlink:href="byte_8c.html#a2da8eeb074dfd3ffbfb3e9a4d301cda4" target="_top" xlink:title="exitt">
<polygon fill="white" stroke="black" points="313,-175.5 313,-194.5 349,-194.5 349,-175.5 313,-175.5"/>
<text text-anchor="middle" x="331" y="-182.5" font-family="Helvetica,sans-Serif" font-size="10.00">exitt</text>
</a>
</g>
</g>
<!-- Node2&#45;&gt;Node4 -->
<g id="edge3" class="edge"><title>Node2&#45;&gt;Node4</title>
<path fill="none" stroke="midnightblue" d="M242.266,-185C261.059,-185 284.744,-185 302.767,-185"/>
<polygon fill="midnightblue" stroke="midnightblue" points="302.903,-188.5 312.903,-185 302.903,-181.5 302.903,-188.5"/>
</g>
<!-- Node14 -->
<g id="node14" class="node"><title>Node14</title>
<g id="a_node14"><a xlink:href="hmholtz_8F90.html#a0c12437d60cdcc0814b9bd6af2040c58" target="_top" xlink:title="outmat2">
<polygon fill="white" stroke="black" points="304,-137.5 304,-156.5 358,-156.5 358,-137.5 304,-137.5"/>
<text text-anchor="middle" x="331" y="-144.5" font-family="Helvetica,sans-Serif" font-size="10.00">outmat2</text>
</a>
</g>
</g>
<!-- Node2&#45;&gt;Node14 -->
<g id="edge13" class="edge"><title>Node2&#45;&gt;Node14</title>
<path fill="none" stroke="midnightblue" d="M241.029,-175.411C257.145,-170.265 277.12,-163.886 294.057,-158.477"/>
<polygon fill="midnightblue" stroke="midnightblue" points="295.166,-161.798 303.627,-155.422 293.036,-155.13 295.166,-161.798"/>
</g>
<!-- Node5 -->
<g id="node5" class="node"><title>Node5</title>
<g id="a_node5"><a xlink:href="classctimer.html#abcecbc845c8ee72e13a19eaa30b80d77" target="_top" xlink:title="ctimer::dnekclock">
<polygon fill="white" stroke="black" points="394,-270.5 394,-289.5 491,-289.5 491,-270.5 394,-270.5"/>
<text text-anchor="middle" x="442.5" y="-277.5" font-family="Helvetica,sans-Serif" font-size="10.00">ctimer::dnekclock</text>
</a>
</g>
</g>
<!-- Node4&#45;&gt;Node5 -->
<g id="edge4" class="edge"><title>Node4&#45;&gt;Node5</title>
<path fill="none" stroke="midnightblue" d="M347.097,-194.559C350.892,-197.344 354.794,-200.569 358,-204 378.457,-225.893 370.968,-241.835 394,-261 395.971,-262.64 398.102,-264.152 400.332,-265.544"/>
<polygon fill="midnightblue" stroke="midnightblue" points="398.821,-268.705 409.29,-270.333 402.121,-262.532 398.821,-268.705"/>
</g>
<!-- Node7 -->
<g id="node7" class="node"><title>Node7</title>
<g id="a_node7"><a xlink:href="subs1_8F90.html#a339739b88994e5bb12bd923147f94983" target="_top" xlink:title="flush_io">
<polygon fill="white" stroke="black" points="416,-232.5 416,-251.5 469,-251.5 469,-232.5 416,-232.5"/>
<text text-anchor="middle" x="442.5" y="-239.5" font-family="Helvetica,sans-Serif" font-size="10.00">flush_io</text>
</a>
</g>
</g>
<!-- Node4&#45;&gt;Node7 -->
<g id="edge6" class="edge"><title>Node4&#45;&gt;Node7</title>
<path fill="none" stroke="midnightblue" d="M346.381,-194.781C358.698,-202.919 377.075,-214.505 394,-223 397.84,-224.927 401.925,-226.805 406.025,-228.582"/>
<polygon fill="midnightblue" stroke="midnightblue" points="404.934,-231.919 415.511,-232.525 407.62,-225.455 404.934,-231.919"/>
</g>
<!-- Node8 -->
<g id="node8" class="node"><title>Node8</title>
<g id="a_node8"><a xlink:href="singlmesh_8F90.html#aef78ff219741b83c1ca784b869e9cacf" target="_top" xlink:title="Dummy for singlmesh. ">
<polygon fill="white" stroke="black" points="402.5,-194.5 402.5,-213.5 482.5,-213.5 482.5,-194.5 402.5,-194.5"/>
<text text-anchor="middle" x="442.5" y="-201.5" font-family="Helvetica,sans-Serif" font-size="10.00">happy_check</text>
</a>
</g>
</g>
<!-- Node4&#45;&gt;Node8 -->
<g id="edge7" class="edge"><title>Node4&#45;&gt;Node8</title>
<path fill="none" stroke="midnightblue" d="M349.109,-187.969C360.754,-189.989 376.802,-192.774 392.258,-195.456"/>
<polygon fill="midnightblue" stroke="midnightblue" points="391.826,-198.933 402.277,-197.194 393.023,-192.036 391.826,-198.933"/>
</g>
<!-- Node9 -->
<g id="node9" class="node"><title>Node9</title>
<g id="a_node9"><a xlink:href="mpi__dummy_8F90.html#a55e9a1619aadb638b14211ce21d7d566" target="_top" xlink:title="mpi_finalize">
<polygon fill="white" stroke="black" points="406.5,-156.5 406.5,-175.5 478.5,-175.5 478.5,-156.5 406.5,-156.5"/>
<text text-anchor="middle" x="442.5" y="-163.5" font-family="Helvetica,sans-Serif" font-size="10.00">mpi_finalize</text>
</a>
</g>
</g>
<!-- Node4&#45;&gt;Node9 -->
<g id="edge8" class="edge"><title>Node4&#45;&gt;Node9</title>
<path fill="none" stroke="midnightblue" d="M349.109,-182.031C361.762,-179.836 379.612,-176.739 396.253,-173.851"/>
<polygon fill="midnightblue" stroke="midnightblue" points="397.147,-177.248 406.402,-172.09 395.951,-170.351 397.147,-177.248"/>
</g>
<!-- Node10 -->
<g id="node10" class="node"><title>Node10</title>
<g id="a_node10"><a xlink:href="papi_8F90.html#a3a75ccdfbe05912fda48c3b134d114c0" target="_top" xlink:title="nek_flops">
<polygon fill="white" stroke="black" points="411.5,-118.5 411.5,-137.5 473.5,-137.5 473.5,-118.5 411.5,-118.5"/>
<text text-anchor="middle" x="442.5" y="-125.5" font-family="Helvetica,sans-Serif" font-size="10.00">nek_flops</text>
</a>
</g>
</g>
<!-- Node4&#45;&gt;Node10 -->
<g id="edge9" class="edge"><title>Node4&#45;&gt;Node10</title>
<path fill="none" stroke="midnightblue" d="M346.381,-175.219C358.698,-167.081 377.075,-155.495 394,-147 397.751,-145.117 401.735,-143.283 405.739,-141.542"/>
<polygon fill="midnightblue" stroke="midnightblue" points="407.134,-144.752 415.016,-137.673 404.44,-138.292 407.134,-144.752"/>
</g>
<!-- Node12 -->
<g id="node12" class="node"><title>Node12</title>
<g id="a_node12"><a xlink:href="comm__mpi_8F90.html#a4acb4d8e379294232e9219bec063d8f3" target="_top" xlink:title="nekgsync">
<polygon fill="white" stroke="black" points="411.5,-80.5 411.5,-99.5 473.5,-99.5 473.5,-80.5 411.5,-80.5"/>
<text text-anchor="middle" x="442.5" y="-87.5" font-family="Helvetica,sans-Serif" font-size="10.00">nekgsync</text>
</a>
</g>
</g>
<!-- Node4&#45;&gt;Node12 -->
<g id="edge11" class="edge"><title>Node4&#45;&gt;Node12</title>
<path fill="none" stroke="midnightblue" d="M347.097,-175.441C350.892,-172.656 354.794,-169.431 358,-166 378.457,-144.107 370.968,-128.165 394,-109 396.526,-106.898 399.314,-105.007 402.236,-103.309"/>
<polygon fill="midnightblue" stroke="midnightblue" points="403.901,-106.39 411.273,-98.7808 400.765,-100.132 403.901,-106.39"/>
</g>
<!-- Node6 -->
<g id="node6" class="node"><title>Node6</title>
<g id="a_node6"><a xlink:href="mpi__dummy_8F90.html#ae6a5ef945f87c2c27849696b70f3af2a" target="_top" xlink:title="mpi_wtime">
<polygon fill="white" stroke="black" points="534,-270.5 534,-289.5 600,-289.5 600,-270.5 534,-270.5"/>
<text text-anchor="middle" x="567" y="-277.5" font-family="Helvetica,sans-Serif" font-size="10.00">mpi_wtime</text>
</a>
</g>
</g>
<!-- Node5&#45;&gt;Node6 -->
<g id="edge5" class="edge"><title>Node5&#45;&gt;Node6</title>
<path fill="none" stroke="midnightblue" d="M491.212,-280C501.894,-280 513.154,-280 523.603,-280"/>
<polygon fill="midnightblue" stroke="midnightblue" points="523.73,-283.5 533.729,-280 523.729,-276.5 523.73,-283.5"/>
</g>
<!-- Node11 -->
<g id="node11" class="node"><title>Node11</title>
<g id="a_node11"><a xlink:href="papi_8F90.html#a838be3d39e287e29002d5a68c6ad2dd8" target="_top" xlink:title="getflops_papi">
<polygon fill="white" stroke="black" points="527,-118.5 527,-137.5 607,-137.5 607,-118.5 527,-118.5"/>
<text text-anchor="middle" x="567" y="-125.5" font-family="Helvetica,sans-Serif" font-size="10.00">getflops_papi</text>
</a>
</g>
</g>
<!-- Node10&#45;&gt;Node11 -->
<g id="edge10" class="edge"><title>Node10&#45;&gt;Node11</title>
<path fill="none" stroke="midnightblue" d="M473.781,-128C486.666,-128 502.032,-128 516.491,-128"/>
<polygon fill="midnightblue" stroke="midnightblue" points="516.811,-131.5 526.811,-128 516.811,-124.5 516.811,-131.5"/>
</g>
<!-- Node13 -->
<g id="node13" class="node"><title>Node13</title>
<g id="a_node13"><a xlink:href="mpi__dummy_8F90.html#a070afe564196eb48413dbf1a9fbc99aa" target="_top" xlink:title="mpi_barrier">
<polygon fill="white" stroke="black" points="532,-80.5 532,-99.5 602,-99.5 602,-80.5 532,-80.5"/>
<text text-anchor="middle" x="567" y="-87.5" font-family="Helvetica,sans-Serif" font-size="10.00">mpi_barrier</text>
</a>
</g>
</g>
<!-- Node12&#45;&gt;Node13 -->
<g id="edge12" class="edge"><title>Node12&#45;&gt;Node13</title>
<path fill="none" stroke="midnightblue" d="M473.781,-90C488.195,-90 505.714,-90 521.594,-90"/>
<polygon fill="midnightblue" stroke="midnightblue" points="521.745,-93.5001 531.745,-90 521.745,-86.5001 521.745,-93.5001"/>
</g>
</g>
</svg>
        <g id="navigator" transform="translate(0 0)" fill="#404254">
                <rect fill="#f2f5e9" fill-opacity="0.5" stroke="#606060" stroke-width=".5" x="0" y="0" width="60" height="60"/>
                <use id="zoomplus" xlink:href="#zoomPlus" x="17" y="9" onmousedown="handleZoom(evt,'in')"/>
                <use id="zoomminus" xlink:href="#zoomMin" x="42" y="9" onmousedown="handleZoom(evt,'out')"/>
                <use id="reset" xlink:href="#resetDef" x="30" y="36" onmousedown="handleReset()"/>
                <g id="arrowUp" xlink:href="#dirArrow" transform="translate(30 24)" onmousedown="handlePan(0,-1)">
                  <use xlink:href="#rim" fill="#404040">
                        <set attributeName="fill" to="#808080" begin="arrowUp.mouseover" end="arrowUp.mouseout"/>
                  </use>
                  <path fill="none" stroke="white" stroke-width="1.5" d="M0,-3.0v7 M-2.5,-0.5L0,-3.0L2.5,-0.5"/>
                </g>
                <g id="arrowRight" xlink:href="#dirArrow" transform="rotate(90) translate(36 -43)" onmousedown="handlePan(1,0)">
                  <use xlink:href="#rim" fill="#404040">
                        <set attributeName="fill" to="#808080" begin="arrowRight.mouseover" end="arrowRight.mouseout"/>
                  </use>
                  <path fill="none" stroke="white" stroke-width="1.5" d="M0,-3.0v7 M-2.5,-0.5L0,-3.0L2.5,-0.5"/>
                </g>
                <g id="arrowDown" xlink:href="#dirArrow" transform="rotate(180) translate(-30 -48)" onmousedown="handlePan(0,1)">
                  <use xlink:href="#rim" fill="#404040">
                        <set attributeName="fill" to="#808080" begin="arrowDown.mouseover" end="arrowDown.mouseout"/>
                  </use>
                  <path fill="none" stroke="white" stroke-width="1.5" d="M0,-3.0v7 M-2.5,-0.5L0,-3.0L2.5,-0.5"/>
                </g>
                <g id="arrowLeft" xlink:href="#dirArrow" transform="rotate(270) translate(-36 17)" onmousedown="handlePan(-1,0)">
                  <use xlink:href="#rim" fill="#404040">
                        <set attributeName="fill" to="#808080" begin="arrowLeft.mouseover" end="arrowLeft.mouseout"/>
                  </use>
                  <path fill="none" stroke="white" stroke-width="1.5" d="M0,-3.0v7 M-2.5,-0.5L0,-3.0L2.5,-0.5"/>
                </g>
        </g>
        <svg viewBox="0 0 15 15" width="100%" height="30px" preserveAspectRatio="xMaxYMin meet">
         <g id="arrow_out" transform="scale(0.3 0.3)">
          <a xlink:href="classhsmg__routines_a3df48c7ab66c5291fd70155ce0ca7e11_cgraph_org.svg" target="_base">
           <rect id="button" ry="5" rx="5" y="6" x="6" height="38" width="38"
                fill="#f2f5e9" fill-opacity="0.5" stroke="#606060" stroke-width="1.0"/>
           <path id="arrow"
             d="M 11.500037,31.436501 C 11.940474,20.09759 22.043105,11.32322 32.158766,21.979434 L 37.068811,17.246167 C 37.068811,17.246167 37.088388,32 37.088388,32 L 22.160133,31.978069 C 22.160133,31.978069 26.997745,27.140456 26.997745,27.140456 C 18.528582,18.264221 13.291696,25.230495 11.500037,31.436501 z"
             style="fill:#404040;"/>
          </a>
         </g>
        </svg>
</svg>
