<?xml version="1.0" encoding="UTF-8" standalone="no"?>
<!DOCTYPE svg PUBLIC "-//W3C//DTD SVG 1.1//EN"
 "http://www.w3.org/Graphics/SVG/1.1/DTD/svg11.dtd">
<!-- Generated by graphviz version 2.38.0 (20140413.2041)
 -->
<!-- Title: poisson::cos_test Pages: 1 -->
<svg width="690pt" height="724pt"
 viewBox="0.00 0.00 690.00 724.00" xmlns="http://www.w3.org/2000/svg" xmlns:xlink="http://www.w3.org/1999/xlink">
<g id="graph0" class="graph" transform="scale(1 1) rotate(0) translate(4 720)">
<title>poisson::cos_test</title>
<polygon fill="white" stroke="none" points="-4,4 -4,-720 686,-720 686,4 -4,4"/>
<!-- Node1 -->
<g id="node1" class="node"><title>Node1</title>
<polygon fill="#bfbfbf" stroke="black" points="0,-323.5 0,-342.5 98,-342.5 98,-323.5 0,-323.5"/>
<text text-anchor="middle" x="49" y="-330.5" font-family="Helvetica,sans-Serif" font-size="10.00">poisson::cos_test</text>
</g>
<!-- Node2 -->
<g id="node2" class="node"><title>Node2</title>
<g id="a_node2"><a xlink:href="classfft.html#a7c6e57fe0ec9d9886094d691087156fc" target="_top" xlink:title="Compute a number of 1D FFTs or DCTs. ">
<polygon fill="white" stroke="black" points="169.5,-696.5 169.5,-715.5 228.5,-715.5 228.5,-696.5 169.5,-696.5"/>
<text text-anchor="middle" x="199" y="-703.5" font-family="Helvetica,sans-Serif" font-size="10.00">fft::fft_r2r</text>
</a>
</g>
</g>
<!-- Node1&#45;&gt;Node2 -->
<g id="edge1" class="edge"><title>Node1&#45;&gt;Node2</title>
<path fill="none" stroke="midnightblue" d="M51.1057,-342.702C57.0746,-393.527 86.9346,-628.781 134,-682 140.71,-689.587 150.06,-694.783 159.543,-698.338"/>
<polygon fill="midnightblue" stroke="midnightblue" points="158.778,-701.768 169.369,-701.482 160.911,-695.101 158.778,-701.768"/>
</g>
<!-- Node3 -->
<g id="node3" class="node"><title>Node3</title>
<g id="a_node3"><a xlink:href="classpoisson.html#a5146b4e21e3dc2027ebeec50a7545e71" target="_top" xlink:title="poisson::grid_to_mesh">
<polygon fill="white" stroke="black" points="138,-380.5 138,-399.5 260,-399.5 260,-380.5 138,-380.5"/>
<text text-anchor="middle" x="199" y="-387.5" font-family="Helvetica,sans-Serif" font-size="10.00">poisson::grid_to_mesh</text>
</a>
</g>
</g>
<!-- Node1&#45;&gt;Node3 -->
<g id="edge2" class="edge"><title>Node1&#45;&gt;Node3</title>
<path fill="none" stroke="midnightblue" d="M74.7719,-342.541C99.1037,-351.912 136.431,-366.288 163.628,-376.762"/>
<polygon fill="midnightblue" stroke="midnightblue" points="162.558,-380.1 173.147,-380.428 165.073,-373.568 162.558,-380.1"/>
</g>
<!-- Node4 -->
<g id="node4" class="node"><title>Node4</title>
<g id="a_node4"><a xlink:href="classparallel.html#ac36680315d0622d84df5d5baf3fb0acc" target="_top" xlink:title="parallel::lglel">
<polygon fill="white" stroke="black" points="456.5,-618.5 456.5,-637.5 530.5,-637.5 530.5,-618.5 456.5,-618.5"/>
<text text-anchor="middle" x="493.5" y="-625.5" font-family="Helvetica,sans-Serif" font-size="10.00">parallel::lglel</text>
</a>
</g>
</g>
<!-- Node1&#45;&gt;Node4 -->
<g id="edge13" class="edge"><title>Node1&#45;&gt;Node4</title>
<path fill="none" stroke="midnightblue" d="M52.2536,-342.703C59.5683,-372.508 85.0539,-464.26 134,-523 191.133,-591.566 214.706,-609.724 300,-636 348.374,-650.902 406.822,-645.391 446.532,-638.393"/>
<polygon fill="midnightblue" stroke="midnightblue" points="447.267,-641.816 456.457,-636.544 445.985,-634.934 447.267,-641.816"/>
</g>
<!-- Node7 -->
<g id="node7" class="node"><title>Node7</title>
<g id="a_node7"><a xlink:href="classmesh.html#a383626b86a123c489b00681fcb13d503" target="_top" xlink:title="mesh::ieg_to_xyz">
<polygon fill="white" stroke="black" points="584,-370.5 584,-389.5 682,-389.5 682,-370.5 584,-370.5"/>
<text text-anchor="middle" x="633" y="-377.5" font-family="Helvetica,sans-Serif" font-size="10.00">mesh::ieg_to_xyz</text>
</a>
</g>
</g>
<!-- Node1&#45;&gt;Node7 -->
<g id="edge12" class="edge"><title>Node1&#45;&gt;Node7</title>
<path fill="none" stroke="midnightblue" d="M97.558,-323.48C187.613,-307.39 388.312,-280.833 548,-327 572.599,-334.112 596.925,-350.807 613.017,-363.574"/>
<polygon fill="midnightblue" stroke="midnightblue" points="611.109,-366.536 621.059,-370.177 615.551,-361.126 611.109,-366.536"/>
</g>
<!-- Node12 -->
<g id="node12" class="node"><title>Node12</title>
<g id="a_node12"><a xlink:href="classpoisson.html#ac42cd347ca63e3394556370be60d7360" target="_top" xlink:title="poisson::mesh_to_grid">
<polygon fill="white" stroke="black" points="138,-494.5 138,-513.5 260,-513.5 260,-494.5 138,-494.5"/>
<text text-anchor="middle" x="199" y="-501.5" font-family="Helvetica,sans-Serif" font-size="10.00">poisson::mesh_to_grid</text>
</a>
</g>
</g>
<!-- Node1&#45;&gt;Node12 -->
<g id="edge14" class="edge"><title>Node1&#45;&gt;Node12</title>
<path fill="none" stroke="midnightblue" d="M58.3812,-342.684C82.4974,-370.548 152.301,-451.199 183.099,-486.784"/>
<polygon fill="midnightblue" stroke="midnightblue" points="180.52,-489.152 189.711,-494.423 185.813,-484.571 180.52,-489.152"/>
</g>
<!-- Node17 -->
<g id="node17" class="node"><title>Node17</title>
<g id="a_node17"><a xlink:href="classpoisson.html#aa654d9e7cef9d27772d5b04bb61f43ca" target="_top" xlink:title="poisson::poisson_kernel">
<polygon fill="white" stroke="black" points="134,-228.5 134,-247.5 264,-247.5 264,-228.5 134,-228.5"/>
<text text-anchor="middle" x="199" y="-235.5" font-family="Helvetica,sans-Serif" font-size="10.00">poisson::poisson_kernel</text>
</a>
</g>
</g>
<!-- Node1&#45;&gt;Node17 -->
<g id="edge27" class="edge"><title>Node1&#45;&gt;Node17</title>
<path fill="none" stroke="midnightblue" d="M59.4834,-323.038C74.2112,-308.047 104.02,-279.576 134,-262 141.06,-257.861 148.96,-254.211 156.736,-251.086"/>
<polygon fill="midnightblue" stroke="midnightblue" points="157.985,-254.355 166.094,-247.537 155.503,-247.81 157.985,-254.355"/>
</g>
<!-- Node19 -->
<g id="node19" class="node"><title>Node19</title>
<g id="a_node19"><a xlink:href="xxt_8c.html#a4c650e6ff94275a07fdde3ccc8faf7c4" target="_top" xlink:title="sum">
<polygon fill="white" stroke="black" points="181.5,-152.5 181.5,-171.5 216.5,-171.5 216.5,-152.5 181.5,-152.5"/>
<text text-anchor="middle" x="199" y="-159.5" font-family="Helvetica,sans-Serif" font-size="10.00">sum</text>
</a>
</g>
</g>
<!-- Node1&#45;&gt;Node19 -->
<g id="edge29" class="edge"><title>Node1&#45;&gt;Node19</title>
<path fill="none" stroke="midnightblue" d="M56.13,-323.329C69.2192,-303.007 101.376,-254.794 134,-219 147.484,-204.206 164.47,-189.22 177.554,-178.329"/>
<polygon fill="midnightblue" stroke="midnightblue" points="179.997,-180.852 185.513,-171.806 175.56,-175.438 179.997,-180.852"/>
</g>
<!-- Node24 -->
<g id="node24" class="node"><title>Node24</title>
<g id="a_node24"><a xlink:href="classfft.html#a66358c1a39eaf63e07eca4b8f822dd6a" target="_top" xlink:title="Global (parallel) transform of grid data. ">
<polygon fill="white" stroke="black" points="148.5,-38.5 148.5,-57.5 249.5,-57.5 249.5,-38.5 148.5,-38.5"/>
<text text-anchor="middle" x="199" y="-45.5" font-family="Helvetica,sans-Serif" font-size="10.00">fft::transpose_grid</text>
</a>
</g>
</g>
<!-- Node1&#45;&gt;Node24 -->
<g id="edge34" class="edge"><title>Node1&#45;&gt;Node24</title>
<path fill="none" stroke="midnightblue" d="M53.6153,-323.223C64.3173,-294.68 97.3864,-209.301 134,-143 149.532,-114.874 170.95,-84.4114 184.638,-65.7635"/>
<polygon fill="midnightblue" stroke="midnightblue" points="187.532,-67.7373 190.678,-57.6202 181.91,-63.5675 187.532,-67.7373"/>
</g>
<!-- Node3&#45;&gt;Node4 -->
<g id="edge3" class="edge"><title>Node3&#45;&gt;Node4</title>
<path fill="none" stroke="midnightblue" d="M260.171,-387.879C312.408,-387.388 382.757,-390.42 403,-409 469.217,-469.776 381.372,-539.025 439,-608 441.432,-610.911 444.331,-613.398 447.504,-615.524"/>
<polygon fill="midnightblue" stroke="midnightblue" points="445.95,-618.662 456.41,-620.347 449.284,-612.507 445.95,-618.662"/>
</g>
<!-- Node6 -->
<g id="node6" class="node"><title>Node6</title>
<g id="a_node6"><a xlink:href="classparallel.html#a9a8fe6b8e5cb33426f1ebc5d75ae256f" target="_top" xlink:title="parallel::gllel">
<polygon fill="white" stroke="black" points="456.5,-336.5 456.5,-355.5 530.5,-355.5 530.5,-336.5 456.5,-336.5"/>
<text text-anchor="middle" x="493.5" y="-343.5" font-family="Helvetica,sans-Serif" font-size="10.00">parallel::gllel</text>
</a>
</g>
</g>
<!-- Node3&#45;&gt;Node6 -->
<g id="edge5" class="edge"><title>Node3&#45;&gt;Node6</title>
<path fill="none" stroke="midnightblue" d="M236.835,-380.438C255.631,-375.837 278.921,-370.561 300,-367 349.752,-358.595 407.334,-352.827 446.464,-349.493"/>
<polygon fill="midnightblue" stroke="midnightblue" points="446.818,-352.976 456.493,-348.657 446.237,-346 446.818,-352.976"/>
</g>
<!-- Node8 -->
<g id="node8" class="node"><title>Node8</title>
<g id="a_node8"><a xlink:href="classparallel.html#a07e279fd1cc6f4e9189bcaad37a0d3b6" target="_top" xlink:title="parallel::gllnid">
<polygon fill="white" stroke="black" points="453.5,-405.5 453.5,-424.5 533.5,-424.5 533.5,-405.5 453.5,-405.5"/>
<text text-anchor="middle" x="493.5" y="-412.5" font-family="Helvetica,sans-Serif" font-size="10.00">parallel::gllnid</text>
</a>
</g>
</g>
<!-- Node3&#45;&gt;Node8 -->
<g id="edge7" class="edge"><title>Node3&#45;&gt;Node8</title>
<path fill="none" stroke="midnightblue" d="M242.055,-380.483C283.429,-372.665 348.185,-364.576 403,-376 425.68,-380.727 449.656,-391.524 467.078,-400.562"/>
<polygon fill="midnightblue" stroke="midnightblue" points="465.565,-403.722 476.033,-405.353 468.867,-397.55 465.565,-403.722"/>
</g>
<!-- Node9 -->
<g id="node9" class="node"><title>Node9</title>
<g id="a_node9"><a xlink:href="mpi__dummy_8F90.html#a4c6ff99fbf164179b98c120547561b30" target="_top" xlink:title="mpi_isend">
<polygon fill="white" stroke="black" points="319,-418.5 319,-437.5 384,-437.5 384,-418.5 319,-418.5"/>
<text text-anchor="middle" x="351.5" y="-425.5" font-family="Helvetica,sans-Serif" font-size="10.00">mpi_isend</text>
</a>
</g>
</g>
<!-- Node3&#45;&gt;Node9 -->
<g id="edge9" class="edge"><title>Node3&#45;&gt;Node9</title>
<path fill="none" stroke="midnightblue" d="M237.978,-399.589C259.574,-405.042 286.651,-411.879 308.831,-417.479"/>
<polygon fill="midnightblue" stroke="midnightblue" points="308.088,-420.901 318.64,-419.956 309.801,-414.114 308.088,-420.901"/>
</g>
<!-- Node10 -->
<g id="node10" class="node"><title>Node10</title>
<g id="a_node10"><a xlink:href="mpi__dummy_8F90.html#adf2a055de10dc93a671a453c7190fd10" target="_top" xlink:title="mpi_irecv">
<polygon fill="white" stroke="black" points="320.5,-494.5 320.5,-513.5 382.5,-513.5 382.5,-494.5 320.5,-494.5"/>
<text text-anchor="middle" x="351.5" y="-501.5" font-family="Helvetica,sans-Serif" font-size="10.00">mpi_irecv</text>
</a>
</g>
</g>
<!-- Node3&#45;&gt;Node10 -->
<g id="edge10" class="edge"><title>Node3&#45;&gt;Node10</title>
<path fill="none" stroke="midnightblue" d="M207.829,-399.677C223.505,-418.494 260.635,-460.331 300,-485 303.429,-487.149 307.139,-489.114 310.938,-490.895"/>
<polygon fill="midnightblue" stroke="midnightblue" points="309.88,-494.249 320.452,-494.947 312.623,-487.809 309.88,-494.249"/>
</g>
<!-- Node11 -->
<g id="node11" class="node"><title>Node11</title>
<g id="a_node11"><a xlink:href="mpi__dummy_8F90.html#a90b9c69c5b43af73d8821c11b5d8f22d" target="_top" xlink:title="mpi_wait">
<polygon fill="white" stroke="black" points="322.5,-456.5 322.5,-475.5 380.5,-475.5 380.5,-456.5 322.5,-456.5"/>
<text text-anchor="middle" x="351.5" y="-463.5" font-family="Helvetica,sans-Serif" font-size="10.00">mpi_wait</text>
</a>
</g>
</g>
<!-- Node3&#45;&gt;Node11 -->
<g id="edge11" class="edge"><title>Node3&#45;&gt;Node11</title>
<path fill="none" stroke="midnightblue" d="M215.185,-399.665C234.441,-411.683 268.887,-432.392 300,-447 304.167,-448.956 308.595,-450.862 313.03,-452.664"/>
<polygon fill="midnightblue" stroke="midnightblue" points="312.064,-456.044 322.652,-456.423 314.611,-449.524 312.064,-456.044"/>
</g>
<!-- Node5 -->
<g id="node5" class="node"><title>Node5</title>
<g id="a_node5"><a xlink:href="classmesh.html#a8b6a250925cdc576e3ff6f7b18dc88c4" target="_top" xlink:title="mesh::xyz_to_ieg">
<polygon fill="white" stroke="black" points="584,-618.5 584,-637.5 682,-637.5 682,-618.5 584,-618.5"/>
<text text-anchor="middle" x="633" y="-625.5" font-family="Helvetica,sans-Serif" font-size="10.00">mesh::xyz_to_ieg</text>
</a>
</g>
</g>
<!-- Node4&#45;&gt;Node5 -->
<g id="edge4" class="edge"><title>Node4&#45;&gt;Node5</title>
<path fill="none" stroke="midnightblue" d="M530.627,-628C543.88,-628 559.238,-628 573.93,-628"/>
<polygon fill="midnightblue" stroke="midnightblue" points="573.96,-631.5 583.96,-628 573.96,-624.5 573.96,-631.5"/>
</g>
<!-- Node6&#45;&gt;Node7 -->
<g id="edge6" class="edge"><title>Node6&#45;&gt;Node7</title>
<path fill="none" stroke="midnightblue" d="M530.627,-354.933C546.723,-358.913 565.925,-363.662 583.266,-367.949"/>
<polygon fill="midnightblue" stroke="midnightblue" points="582.676,-371.409 593.224,-370.412 584.356,-364.614 582.676,-371.409"/>
</g>
<!-- Node8&#45;&gt;Node7 -->
<g id="edge8" class="edge"><title>Node8&#45;&gt;Node7</title>
<path fill="none" stroke="midnightblue" d="M532.072,-405.436C548.291,-401.308 567.446,-396.432 584.624,-392.059"/>
<polygon fill="midnightblue" stroke="midnightblue" points="585.645,-395.411 594.473,-389.552 583.919,-388.627 585.645,-395.411"/>
</g>
<!-- Node12&#45;&gt;Node4 -->
<g id="edge15" class="edge"><title>Node12&#45;&gt;Node4</title>
<path fill="none" stroke="midnightblue" d="M205.503,-513.593C218.614,-535.414 254.062,-588.603 300,-611 346.052,-633.453 405.659,-635.168 446.264,-632.897"/>
<polygon fill="midnightblue" stroke="midnightblue" points="446.667,-636.378 456.414,-632.224 446.204,-629.393 446.667,-636.378"/>
</g>
<!-- Node12&#45;&gt;Node8 -->
<g id="edge16" class="edge"><title>Node12&#45;&gt;Node8</title>
<path fill="none" stroke="midnightblue" d="M223.237,-513.534C262.39,-528.041 343.095,-551.158 403,-523 423.394,-513.414 461.079,-461.24 480.394,-433.067"/>
<polygon fill="midnightblue" stroke="midnightblue" points="483.469,-434.769 486.189,-424.529 477.677,-430.838 483.469,-434.769"/>
</g>
<!-- Node12&#45;&gt;Node9 -->
<g id="edge24" class="edge"><title>Node12&#45;&gt;Node9</title>
<path fill="none" stroke="midnightblue" d="M215.185,-494.335C234.441,-482.317 268.887,-461.608 300,-447 304.167,-445.044 308.595,-443.138 313.03,-441.336"/>
<polygon fill="midnightblue" stroke="midnightblue" points="314.611,-444.476 322.652,-437.577 312.064,-437.956 314.611,-444.476"/>
</g>
<!-- Node12&#45;&gt;Node10 -->
<g id="edge25" class="edge"><title>Node12&#45;&gt;Node10</title>
<path fill="none" stroke="midnightblue" d="M260.347,-504C277.091,-504 294.86,-504 310.158,-504"/>
<polygon fill="midnightblue" stroke="midnightblue" points="310.31,-507.5 320.31,-504 310.31,-500.5 310.31,-507.5"/>
</g>
<!-- Node12&#45;&gt;Node11 -->
<g id="edge26" class="edge"><title>Node12&#45;&gt;Node11</title>
<path fill="none" stroke="midnightblue" d="M237.978,-494.411C260.632,-488.691 289.315,-481.449 312.052,-475.708"/>
<polygon fill="midnightblue" stroke="midnightblue" points="313.198,-479.028 322.037,-473.187 311.485,-472.241 313.198,-479.028"/>
</g>
<!-- Node13 -->
<g id="node13" class="node"><title>Node13</title>
<g id="a_node13"><a xlink:href="classpoisson.html#a90f49ac199784d3bf15825d4dff8a5e5" target="_top" xlink:title="poisson::init_mesh\l_to_grid">
<polygon fill="white" stroke="black" points="300,-571 300,-601 403,-601 403,-571 300,-571"/>
<text text-anchor="start" x="308" y="-589" font-family="Helvetica,sans-Serif" font-size="10.00">poisson::init_mesh</text>
<text text-anchor="middle" x="351.5" y="-578" font-family="Helvetica,sans-Serif" font-size="10.00">_to_grid</text>
</a>
</g>
</g>
<!-- Node12&#45;&gt;Node13 -->
<g id="edge17" class="edge"><title>Node12&#45;&gt;Node13</title>
<path fill="none" stroke="midnightblue" d="M217.559,-513.567C241.029,-526.355 283.212,-549.338 313.779,-565.993"/>
<polygon fill="midnightblue" stroke="midnightblue" points="312.403,-569.229 322.859,-570.94 315.752,-563.082 312.403,-569.229"/>
</g>
<!-- Node13&#45;&gt;Node4 -->
<g id="edge18" class="edge"><title>Node13&#45;&gt;Node4</title>
<path fill="none" stroke="midnightblue" d="M402.648,-601.044C418.481,-605.794 435.791,-610.987 450.954,-615.536"/>
<polygon fill="midnightblue" stroke="midnightblue" points="449.988,-618.9 460.572,-618.422 451.999,-612.196 449.988,-618.9"/>
</g>
<!-- Node13&#45;&gt;Node7 -->
<g id="edge20" class="edge"><title>Node13&#45;&gt;Node7</title>
<path fill="none" stroke="midnightblue" d="M403.16,-576.648C453.264,-566.594 525.604,-549.66 548,-532 592.456,-496.945 616.888,-431.538 626.754,-399.164"/>
<polygon fill="midnightblue" stroke="midnightblue" points="630.12,-400.123 629.549,-389.543 623.398,-398.17 630.12,-400.123"/>
</g>
<!-- Node13&#45;&gt;Node8 -->
<g id="edge19" class="edge"><title>Node13&#45;&gt;Node8</title>
<path fill="none" stroke="midnightblue" d="M383.676,-570.856C390.529,-566.645 397.404,-561.652 403,-556 425.419,-533.357 422.056,-520.986 439,-494 452.401,-472.657 468.769,-448.78 479.845,-432.919"/>
<polygon fill="midnightblue" stroke="midnightblue" points="482.813,-434.783 485.692,-424.587 477.083,-430.762 482.813,-434.783"/>
</g>
<!-- Node14 -->
<g id="node14" class="node"><title>Node14</title>
<g id="a_node14"><a xlink:href="classpoisson.html#a7f3f4d5527547189ab948995a746db9f" target="_top" xlink:title="poisson::xyz_to_pid">
<polygon fill="white" stroke="black" points="439,-503.5 439,-522.5 548,-522.5 548,-503.5 439,-503.5"/>
<text text-anchor="middle" x="493.5" y="-510.5" font-family="Helvetica,sans-Serif" font-size="10.00">poisson::xyz_to_pid</text>
</a>
</g>
</g>
<!-- Node13&#45;&gt;Node14 -->
<g id="edge21" class="edge"><title>Node13&#45;&gt;Node14</title>
<path fill="none" stroke="midnightblue" d="M377.895,-570.781C394.953,-560.767 418.057,-547.6 439,-537 445.869,-533.523 453.348,-530.006 460.478,-526.776"/>
<polygon fill="midnightblue" stroke="midnightblue" points="462.184,-529.848 469.894,-522.58 459.335,-523.454 462.184,-529.848"/>
</g>
<!-- Node15 -->
<g id="node15" class="node"><title>Node15</title>
<g id="a_node15"><a xlink:href="comm__mpi_8F90.html#a4acb4d8e379294232e9219bec063d8f3" target="_top" xlink:title="nekgsync">
<polygon fill="white" stroke="black" points="462.5,-579.5 462.5,-598.5 524.5,-598.5 524.5,-579.5 462.5,-579.5"/>
<text text-anchor="middle" x="493.5" y="-586.5" font-family="Helvetica,sans-Serif" font-size="10.00">nekgsync</text>
</a>
</g>
</g>
<!-- Node13&#45;&gt;Node15 -->
<g id="edge22" class="edge"><title>Node13&#45;&gt;Node15</title>
<path fill="none" stroke="midnightblue" d="M403.043,-587.083C419.207,-587.429 436.875,-587.808 452.207,-588.137"/>
<polygon fill="midnightblue" stroke="midnightblue" points="452.329,-591.64 462.402,-588.355 452.479,-584.642 452.329,-591.64"/>
</g>
<!-- Node16 -->
<g id="node16" class="node"><title>Node16</title>
<g id="a_node16"><a xlink:href="mpi__dummy_8F90.html#a070afe564196eb48413dbf1a9fbc99aa" target="_top" xlink:title="mpi_barrier">
<polygon fill="white" stroke="black" points="598,-579.5 598,-598.5 668,-598.5 668,-579.5 598,-579.5"/>
<text text-anchor="middle" x="633" y="-586.5" font-family="Helvetica,sans-Serif" font-size="10.00">mpi_barrier</text>
</a>
</g>
</g>
<!-- Node15&#45;&gt;Node16 -->
<g id="edge23" class="edge"><title>Node15&#45;&gt;Node16</title>
<path fill="none" stroke="midnightblue" d="M524.675,-589C543.07,-589 566.912,-589 587.451,-589"/>
<polygon fill="midnightblue" stroke="midnightblue" points="587.536,-592.5 597.536,-589 587.536,-585.5 587.536,-592.5"/>
</g>
<!-- Node18 -->
<g id="node18" class="node"><title>Node18</title>
<g id="a_node18"><a xlink:href="classfft.html#a0e824b36b18446014471a19572c578a2" target="_top" xlink:title="Get the wavenumber of the ith mode. ">
<polygon fill="white" stroke="black" points="307,-228.5 307,-247.5 396,-247.5 396,-228.5 307,-228.5"/>
<text text-anchor="middle" x="351.5" y="-235.5" font-family="Helvetica,sans-Serif" font-size="10.00">fft::wavenumber</text>
</a>
</g>
</g>
<!-- Node17&#45;&gt;Node18 -->
<g id="edge28" class="edge"><title>Node17&#45;&gt;Node18</title>
<path fill="none" stroke="midnightblue" d="M264.262,-238C275.048,-238 286.141,-238 296.63,-238"/>
<polygon fill="midnightblue" stroke="midnightblue" points="296.884,-241.5 306.884,-238 296.884,-234.5 296.884,-241.5"/>
</g>
<!-- Node20 -->
<g id="node20" class="node"><title>Node20</title>
<g id="a_node20"><a xlink:href="comm_8h.html#a33c610b70409697426693f5d98a8e084" target="_top" xlink:title="comm_isend">
<polygon fill="white" stroke="black" points="313.5,-190.5 313.5,-209.5 389.5,-209.5 389.5,-190.5 313.5,-190.5"/>
<text text-anchor="middle" x="351.5" y="-197.5" font-family="Helvetica,sans-Serif" font-size="10.00">comm_isend</text>
</a>
</g>
</g>
<!-- Node19&#45;&gt;Node20 -->
<g id="edge30" class="edge"><title>Node19&#45;&gt;Node20</title>
<path fill="none" stroke="midnightblue" d="M216.681,-166.212C237.515,-171.472 274.025,-180.691 303.651,-188.171"/>
<polygon fill="midnightblue" stroke="midnightblue" points="302.849,-191.578 313.402,-190.633 304.563,-184.791 302.849,-191.578"/>
</g>
<!-- Node21 -->
<g id="node21" class="node"><title>Node21</title>
<g id="a_node21"><a xlink:href="comm_8h.html#a61f3037ecf23cd5609e3eac2ce0e1b01" target="_top" xlink:title="comm_recv">
<polygon fill="white" stroke="black" points="316,-152.5 316,-171.5 387,-171.5 387,-152.5 316,-152.5"/>
<text text-anchor="middle" x="351.5" y="-159.5" font-family="Helvetica,sans-Serif" font-size="10.00">comm_recv</text>
</a>
</g>
</g>
<!-- Node19&#45;&gt;Node21 -->
<g id="edge31" class="edge"><title>Node19&#45;&gt;Node21</title>
<path fill="none" stroke="midnightblue" d="M216.681,-162C237.972,-162 275.634,-162 305.591,-162"/>
<polygon fill="midnightblue" stroke="midnightblue" points="305.826,-165.5 315.826,-162 305.826,-158.5 305.826,-165.5"/>
</g>
<!-- Node22 -->
<g id="node22" class="node"><title>Node22</title>
<g id="a_node22"><a xlink:href="comm_8h.html#aadc6a8cdf4984083417952ebfbc0ee00" target="_top" xlink:title="comm_send">
<polygon fill="white" stroke="black" points="314.5,-114.5 314.5,-133.5 388.5,-133.5 388.5,-114.5 314.5,-114.5"/>
<text text-anchor="middle" x="351.5" y="-121.5" font-family="Helvetica,sans-Serif" font-size="10.00">comm_send</text>
</a>
</g>
</g>
<!-- Node19&#45;&gt;Node22 -->
<g id="edge32" class="edge"><title>Node19&#45;&gt;Node22</title>
<path fill="none" stroke="midnightblue" d="M216.681,-157.788C237.722,-152.476 274.749,-143.126 304.529,-135.607"/>
<polygon fill="midnightblue" stroke="midnightblue" points="305.478,-138.978 314.317,-133.136 303.764,-132.191 305.478,-138.978"/>
</g>
<!-- Node23 -->
<g id="node23" class="node"><title>Node23</title>
<g id="a_node23"><a xlink:href="comm_8h.html#a0f6e578048ebdc9f0869f9f5af2fd08b" target="_top" xlink:title="comm_wait">
<polygon fill="white" stroke="black" points="317,-76.5 317,-95.5 386,-95.5 386,-76.5 317,-76.5"/>
<text text-anchor="middle" x="351.5" y="-83.5" font-family="Helvetica,sans-Serif" font-size="10.00">comm_wait</text>
</a>
</g>
</g>
<!-- Node19&#45;&gt;Node23 -->
<g id="edge33" class="edge"><title>Node19&#45;&gt;Node23</title>
<path fill="none" stroke="midnightblue" d="M215.185,-152.335C234.441,-140.317 268.887,-119.608 300,-105 304.167,-103.044 308.595,-101.138 313.03,-99.3364"/>
<polygon fill="midnightblue" stroke="midnightblue" points="314.611,-102.476 322.652,-95.5774 312.064,-95.956 314.611,-102.476"/>
</g>
<!-- Node25 -->
<g id="node25" class="node"><title>Node25</title>
<g id="a_node25"><a xlink:href="mpi__dummy_8F90.html#ac160db4315dd0998ac7f60dd94f35c0e" target="_top" xlink:title="mpi_comm_size">
<polygon fill="white" stroke="black" points="305.5,-38.5 305.5,-57.5 397.5,-57.5 397.5,-38.5 305.5,-38.5"/>
<text text-anchor="middle" x="351.5" y="-45.5" font-family="Helvetica,sans-Serif" font-size="10.00">mpi_comm_size</text>
</a>
</g>
</g>
<!-- Node24&#45;&gt;Node25 -->
<g id="edge35" class="edge"><title>Node24&#45;&gt;Node25</title>
<path fill="none" stroke="midnightblue" d="M249.696,-48C264.305,-48 280.372,-48 295.303,-48"/>
<polygon fill="midnightblue" stroke="midnightblue" points="295.426,-51.5001 305.426,-48 295.426,-44.5001 295.426,-51.5001"/>
</g>
<!-- Node26 -->
<g id="node26" class="node"><title>Node26</title>
<g id="a_node26"><a xlink:href="navier1_8F90.html#a17c0ecae12cc5c6096939885da90ad2b" target="_top" xlink:title="transpose">
<polygon fill="white" stroke="black" points="319.5,-0.5 319.5,-19.5 383.5,-19.5 383.5,-0.5 319.5,-0.5"/>
<text text-anchor="middle" x="351.5" y="-7.5" font-family="Helvetica,sans-Serif" font-size="10.00">transpose</text>
</a>
</g>
</g>
<!-- Node24&#45;&gt;Node26 -->
<g id="edge36" class="edge"><title>Node24&#45;&gt;Node26</title>
<path fill="none" stroke="midnightblue" d="M237.978,-38.411C259.725,-32.9198 287.03,-26.0256 309.296,-20.4037"/>
<polygon fill="midnightblue" stroke="midnightblue" points="310.295,-23.7615 319.133,-17.9198 308.581,-16.9745 310.295,-23.7615"/>
</g>
</g>
</svg>
