<?xml version="1.0" encoding="UTF-8" standalone="no"?>
<!DOCTYPE svg PUBLIC "-//W3C//DTD SVG 1.1//EN"
 "http://www.w3.org/Graphics/SVG/1.1/DTD/svg11.dtd">
<!-- Generated by graphviz version 2.38.0 (20140413.2041)
 -->
<!-- Title: speclib::zwgjd Pages: 1 -->
<svg width="459pt" height="314pt"
 viewBox="0.00 0.00 459.00 314.28" xmlns="http://www.w3.org/2000/svg" xmlns:xlink="http://www.w3.org/1999/xlink">
<g id="graph0" class="graph" transform="scale(1 1) rotate(0) translate(4 310.28)">
<title>speclib::zwgjd</title>
<polygon fill="white" stroke="none" points="-4,4 -4,-310.28 455,-310.28 455,4 -4,4"/>
<!-- Node1 -->
<g id="node1" class="node"><title>Node1</title>
<polygon fill="#bfbfbf" stroke="black" points="0,-58.78 0,-77.78 80,-77.78 80,-58.78 0,-58.78"/>
<text text-anchor="middle" x="40" y="-65.78" font-family="Helvetica,sans-Serif" font-size="10.00">speclib::zwgjd</text>
</g>
<!-- Node2 -->
<g id="node2" class="node"><title>Node2</title>
<g id="a_node2"><a xlink:href="byte_8c.html#a2da8eeb074dfd3ffbfb3e9a4d301cda4" target="_top" xlink:title="exitt">
<polygon fill="white" stroke="black" points="141,-172.78 141,-191.78 177,-191.78 177,-172.78 141,-172.78"/>
<text text-anchor="middle" x="159" y="-179.78" font-family="Helvetica,sans-Serif" font-size="10.00">exitt</text>
</a>
</g>
</g>
<!-- Node1&#45;&gt;Node2 -->
<g id="edge1" class="edge"><title>Node1&#45;&gt;Node2</title>
<path fill="none" stroke="midnightblue" d="M50.9754,-77.9996C70.9213,-97.4341 115.933,-141.291 140.757,-165.479"/>
<polygon fill="midnightblue" stroke="midnightblue" points="138.445,-168.113 148.05,-172.585 143.33,-163.1 138.445,-168.113"/>
</g>
<!-- Node12 -->
<g id="node12" class="node"><title>Node12</title>
<g id="a_node12"><a xlink:href="classspeclib.html#a92a5edfebc973315d00bf6634c853040" target="_top" xlink:title="speclib::gammaf">
<polygon fill="white" stroke="black" points="241,-58.78 241,-77.78 332,-77.78 332,-58.78 241,-58.78"/>
<text text-anchor="middle" x="286.5" y="-65.78" font-family="Helvetica,sans-Serif" font-size="10.00">speclib::gammaf</text>
</a>
</g>
</g>
<!-- Node1&#45;&gt;Node12 -->
<g id="edge11" class="edge"><title>Node1&#45;&gt;Node12</title>
<path fill="none" stroke="midnightblue" d="M71.3243,-77.785C84.8501,-81.5491 101.072,-85.4185 116,-87.28 153.928,-92.0096 164.017,-91.5469 202,-87.28 215.057,-85.8133 229.05,-83.0949 241.776,-80.1639"/>
<polygon fill="midnightblue" stroke="midnightblue" points="242.763,-83.5264 251.669,-77.7875 241.129,-76.72 242.763,-83.5264"/>
</g>
<!-- Node13 -->
<g id="node13" class="node"><title>Node13</title>
<g id="a_node13"><a xlink:href="classspeclib.html#a6e4006c61e176baff378ff31472b6634" target="_top" xlink:title="speclib::jacg">
<polygon fill="white" stroke="black" points="122.5,-20.78 122.5,-39.78 195.5,-39.78 195.5,-20.78 122.5,-20.78"/>
<text text-anchor="middle" x="159" y="-27.78" font-family="Helvetica,sans-Serif" font-size="10.00">speclib::jacg</text>
</a>
</g>
</g>
<!-- Node1&#45;&gt;Node13 -->
<g id="edge12" class="edge"><title>Node1&#45;&gt;Node13</title>
<path fill="none" stroke="midnightblue" d="M70.524,-58.691C85.2119,-53.9206 103.16,-48.0912 118.968,-42.9571"/>
<polygon fill="midnightblue" stroke="midnightblue" points="120.056,-46.2839 128.485,-39.8659 117.893,-39.6262 120.056,-46.2839"/>
</g>
<!-- Node14 -->
<g id="node14" class="node"><title>Node14</title>
<g id="a_node14"><a xlink:href="classspeclib.html#af7eaf2eb0994474cab3a5582bbf02903" target="_top" xlink:title="speclib::jacobf">
<polygon fill="white" stroke="black" points="246,-1.77999 246,-20.78 327,-20.78 327,-1.77999 246,-1.77999"/>
<text text-anchor="middle" x="286.5" y="-8.77999" font-family="Helvetica,sans-Serif" font-size="10.00">speclib::jacobf</text>
</a>
</g>
</g>
<!-- Node1&#45;&gt;Node14 -->
<g id="edge14" class="edge"><title>Node1&#45;&gt;Node14</title>
<path fill="none" stroke="midnightblue" d="M49.5293,-58.6766C62.3569,-45.04 88.1024,-20.678 116,-11.28 154.667,1.74609 201.173,0.661647 235.682,-3.06939"/>
<polygon fill="midnightblue" stroke="midnightblue" points="235.64,-6.58918 245.984,-4.29957 236.47,0.361447 235.64,-6.58918"/>
</g>
<!-- Node15 -->
<g id="node15" class="node"><title>Node15</title>
<g id="a_node15"><a xlink:href="classspeclib.html#aca23f78205002060fe2e03c1f9e2adbc" target="_top" xlink:title="speclib::pnormj">
<polygon fill="white" stroke="black" points="116,-58.78 116,-77.78 202,-77.78 202,-58.78 116,-58.78"/>
<text text-anchor="middle" x="159" y="-65.78" font-family="Helvetica,sans-Serif" font-size="10.00">speclib::pnormj</text>
</a>
</g>
</g>
<!-- Node1&#45;&gt;Node15 -->
<g id="edge15" class="edge"><title>Node1&#45;&gt;Node15</title>
<path fill="none" stroke="midnightblue" d="M80.2848,-68.28C88.4026,-68.28 97.0757,-68.28 105.576,-68.28"/>
<polygon fill="midnightblue" stroke="midnightblue" points="105.809,-71.7801 115.809,-68.28 105.809,-64.7801 105.809,-71.7801"/>
</g>
<!-- Node3 -->
<g id="node3" class="node"><title>Node3</title>
<g id="a_node3"><a xlink:href="classctimer.html#abcecbc845c8ee72e13a19eaa30b80d77" target="_top" xlink:title="ctimer::dnekclock">
<polygon fill="white" stroke="black" points="238,-286.78 238,-305.78 335,-305.78 335,-286.78 238,-286.78"/>
<text text-anchor="middle" x="286.5" y="-293.78" font-family="Helvetica,sans-Serif" font-size="10.00">ctimer::dnekclock</text>
</a>
</g>
</g>
<!-- Node2&#45;&gt;Node3 -->
<g id="edge2" class="edge"><title>Node2&#45;&gt;Node3</title>
<path fill="none" stroke="midnightblue" d="M165.631,-191.994C177.026,-210.878 204.595,-252.825 238,-277.28 240.352,-279.001 242.881,-280.594 245.503,-282.062"/>
<polygon fill="midnightblue" stroke="midnightblue" points="244.141,-285.293 254.657,-286.581 247.24,-279.016 244.141,-285.293"/>
</g>
<!-- Node5 -->
<g id="node5" class="node"><title>Node5</title>
<g id="a_node5"><a xlink:href="subs1_8F90.html#a339739b88994e5bb12bd923147f94983" target="_top" xlink:title="flush_io">
<polygon fill="white" stroke="black" points="260,-248.78 260,-267.78 313,-267.78 313,-248.78 260,-248.78"/>
<text text-anchor="middle" x="286.5" y="-255.78" font-family="Helvetica,sans-Serif" font-size="10.00">flush_io</text>
</a>
</g>
</g>
<!-- Node2&#45;&gt;Node5 -->
<g id="edge4" class="edge"><title>Node2&#45;&gt;Node5</title>
<path fill="none" stroke="midnightblue" d="M171.276,-191.937C185.92,-204.133 212.617,-225.222 238,-239.28 241.953,-241.469 246.211,-243.539 250.496,-245.45"/>
<polygon fill="midnightblue" stroke="midnightblue" points="249.238,-248.718 259.813,-249.364 251.95,-242.264 249.238,-248.718"/>
</g>
<!-- Node6 -->
<g id="node6" class="node"><title>Node6</title>
<g id="a_node6"><a xlink:href="singlmesh_8F90.html#aef78ff219741b83c1ca784b869e9cacf" target="_top" xlink:title="Dummy for singlmesh. ">
<polygon fill="white" stroke="black" points="246.5,-210.78 246.5,-229.78 326.5,-229.78 326.5,-210.78 246.5,-210.78"/>
<text text-anchor="middle" x="286.5" y="-217.78" font-family="Helvetica,sans-Serif" font-size="10.00">happy_check</text>
</a>
</g>
</g>
<!-- Node2&#45;&gt;Node6 -->
<g id="edge5" class="edge"><title>Node2&#45;&gt;Node6</title>
<path fill="none" stroke="midnightblue" d="M177.187,-187.484C194.38,-192.69 221.472,-200.893 244.26,-207.793"/>
<polygon fill="midnightblue" stroke="midnightblue" points="243.462,-211.208 254.047,-210.757 245.491,-204.509 243.462,-211.208"/>
</g>
<!-- Node7 -->
<g id="node7" class="node"><title>Node7</title>
<g id="a_node7"><a xlink:href="mpi__dummy_8F90.html#a55e9a1619aadb638b14211ce21d7d566" target="_top" xlink:title="mpi_finalize">
<polygon fill="white" stroke="black" points="250.5,-172.78 250.5,-191.78 322.5,-191.78 322.5,-172.78 250.5,-172.78"/>
<text text-anchor="middle" x="286.5" y="-179.78" font-family="Helvetica,sans-Serif" font-size="10.00">mpi_finalize</text>
</a>
</g>
</g>
<!-- Node2&#45;&gt;Node7 -->
<g id="edge6" class="edge"><title>Node2&#45;&gt;Node7</title>
<path fill="none" stroke="midnightblue" d="M177.187,-182.28C193.356,-182.28 218.282,-182.28 240.147,-182.28"/>
<polygon fill="midnightblue" stroke="midnightblue" points="240.259,-185.78 250.259,-182.28 240.259,-178.78 240.259,-185.78"/>
</g>
<!-- Node8 -->
<g id="node8" class="node"><title>Node8</title>
<g id="a_node8"><a xlink:href="papi_8F90.html#a3a75ccdfbe05912fda48c3b134d114c0" target="_top" xlink:title="nek_flops">
<polygon fill="white" stroke="black" points="255.5,-134.78 255.5,-153.78 317.5,-153.78 317.5,-134.78 255.5,-134.78"/>
<text text-anchor="middle" x="286.5" y="-141.78" font-family="Helvetica,sans-Serif" font-size="10.00">nek_flops</text>
</a>
</g>
</g>
<!-- Node2&#45;&gt;Node8 -->
<g id="edge7" class="edge"><title>Node2&#45;&gt;Node8</title>
<path fill="none" stroke="midnightblue" d="M177.187,-177.076C194.613,-171.799 222.212,-163.443 245.188,-156.486"/>
<polygon fill="midnightblue" stroke="midnightblue" points="246.48,-159.752 255.036,-153.504 244.451,-153.052 246.48,-159.752"/>
</g>
<!-- Node10 -->
<g id="node10" class="node"><title>Node10</title>
<g id="a_node10"><a xlink:href="comm__mpi_8F90.html#a4acb4d8e379294232e9219bec063d8f3" target="_top" xlink:title="nekgsync">
<polygon fill="white" stroke="black" points="255.5,-96.78 255.5,-115.78 317.5,-115.78 317.5,-96.78 255.5,-96.78"/>
<text text-anchor="middle" x="286.5" y="-103.78" font-family="Helvetica,sans-Serif" font-size="10.00">nekgsync</text>
</a>
</g>
</g>
<!-- Node2&#45;&gt;Node10 -->
<g id="edge9" class="edge"><title>Node2&#45;&gt;Node10</title>
<path fill="none" stroke="midnightblue" d="M171.276,-172.623C185.92,-160.427 212.617,-139.338 238,-125.28 241.484,-123.35 245.205,-121.514 248.973,-119.797"/>
<polygon fill="midnightblue" stroke="midnightblue" points="250.514,-122.944 258.328,-115.79 247.758,-116.51 250.514,-122.944"/>
</g>
<!-- Node4 -->
<g id="node4" class="node"><title>Node4</title>
<g id="a_node4"><a xlink:href="mpi__dummy_8F90.html#ae6a5ef945f87c2c27849696b70f3af2a" target="_top" xlink:title="mpi_wtime">
<polygon fill="white" stroke="black" points="378,-286.78 378,-305.78 444,-305.78 444,-286.78 378,-286.78"/>
<text text-anchor="middle" x="411" y="-293.78" font-family="Helvetica,sans-Serif" font-size="10.00">mpi_wtime</text>
</a>
</g>
</g>
<!-- Node3&#45;&gt;Node4 -->
<g id="edge3" class="edge"><title>Node3&#45;&gt;Node4</title>
<path fill="none" stroke="midnightblue" d="M335.212,-296.28C345.894,-296.28 357.154,-296.28 367.603,-296.28"/>
<polygon fill="midnightblue" stroke="midnightblue" points="367.73,-299.78 377.729,-296.28 367.729,-292.78 367.73,-299.78"/>
</g>
<!-- Node9 -->
<g id="node9" class="node"><title>Node9</title>
<g id="a_node9"><a xlink:href="papi_8F90.html#a838be3d39e287e29002d5a68c6ad2dd8" target="_top" xlink:title="getflops_papi">
<polygon fill="white" stroke="black" points="371,-134.78 371,-153.78 451,-153.78 451,-134.78 371,-134.78"/>
<text text-anchor="middle" x="411" y="-141.78" font-family="Helvetica,sans-Serif" font-size="10.00">getflops_papi</text>
</a>
</g>
</g>
<!-- Node8&#45;&gt;Node9 -->
<g id="edge8" class="edge"><title>Node8&#45;&gt;Node9</title>
<path fill="none" stroke="midnightblue" d="M317.781,-144.28C330.666,-144.28 346.032,-144.28 360.491,-144.28"/>
<polygon fill="midnightblue" stroke="midnightblue" points="360.811,-147.78 370.811,-144.28 360.811,-140.78 360.811,-147.78"/>
</g>
<!-- Node11 -->
<g id="node11" class="node"><title>Node11</title>
<g id="a_node11"><a xlink:href="mpi__dummy_8F90.html#a070afe564196eb48413dbf1a9fbc99aa" target="_top" xlink:title="mpi_barrier">
<polygon fill="white" stroke="black" points="376,-96.78 376,-115.78 446,-115.78 446,-96.78 376,-96.78"/>
<text text-anchor="middle" x="411" y="-103.78" font-family="Helvetica,sans-Serif" font-size="10.00">mpi_barrier</text>
</a>
</g>
</g>
<!-- Node10&#45;&gt;Node11 -->
<g id="edge10" class="edge"><title>Node10&#45;&gt;Node11</title>
<path fill="none" stroke="midnightblue" d="M317.781,-106.28C332.195,-106.28 349.714,-106.28 365.594,-106.28"/>
<polygon fill="midnightblue" stroke="midnightblue" points="365.745,-109.78 375.745,-106.28 365.745,-102.78 365.745,-109.78"/>
</g>
<!-- Node13&#45;&gt;Node14 -->
<g id="edge13" class="edge"><title>Node13&#45;&gt;Node14</title>
<path fill="none" stroke="midnightblue" d="M195.628,-24.8862C208.101,-22.9978 222.345,-20.8413 235.759,-18.8105"/>
<polygon fill="midnightblue" stroke="midnightblue" points="236.449,-22.246 245.813,-17.2885 235.401,-15.3249 236.449,-22.246"/>
</g>
<!-- Node15&#45;&gt;Node12 -->
<g id="edge16" class="edge"><title>Node15&#45;&gt;Node12</title>
<path fill="none" stroke="midnightblue" d="M202.139,-68.28C211.238,-68.28 220.988,-68.28 230.496,-68.28"/>
<polygon fill="midnightblue" stroke="midnightblue" points="230.678,-71.7801 240.678,-68.28 230.677,-64.7801 230.678,-71.7801"/>
</g>
</g>
</svg>
