<?xml version="1.0" encoding="UTF-8" standalone="no"?>
<!DOCTYPE svg PUBLIC "-//W3C//DTD SVG 1.1//EN"
 "http://www.w3.org/Graphics/SVG/1.1/DTD/svg11.dtd">
<!-- Generated by graphviz version 2.38.0 (20140413.2041)
 -->
<!-- Title: poisson::mesh_to_grid Pages: 1 -->
<svg width="548pt" height="262pt"
 viewBox="0.00 0.00 548.00 262.00" xmlns="http://www.w3.org/2000/svg" xmlns:xlink="http://www.w3.org/1999/xlink">
<g id="graph0" class="graph" transform="scale(1 1) rotate(0) translate(4 258)">
<title>poisson::mesh_to_grid</title>
<polygon fill="white" stroke="none" points="-4,4 -4,-258 544,-258 544,4 -4,4"/>
<!-- Node1 -->
<g id="node1" class="node"><title>Node1</title>
<polygon fill="#bfbfbf" stroke="black" points="0,-95.5 0,-114.5 122,-114.5 122,-95.5 0,-95.5"/>
<text text-anchor="middle" x="61" y="-102.5" font-family="Helvetica,sans-Serif" font-size="10.00">poisson::mesh_to_grid</text>
</g>
<!-- Node2 -->
<g id="node2" class="node"><title>Node2</title>
<g id="a_node2"><a xlink:href="classparallel.html#a07e279fd1cc6f4e9189bcaad37a0d3b6" target="_top" xlink:title="parallel::gllnid">
<polygon fill="white" stroke="black" points="311.5,-234.5 311.5,-253.5 391.5,-253.5 391.5,-234.5 311.5,-234.5"/>
<text text-anchor="middle" x="351.5" y="-241.5" font-family="Helvetica,sans-Serif" font-size="10.00">parallel::gllnid</text>
</a>
</g>
</g>
<!-- Node1&#45;&gt;Node2 -->
<g id="edge1" class="edge"><title>Node1&#45;&gt;Node2</title>
<path fill="none" stroke="midnightblue" d="M69.6245,-114.561C84.5928,-132.678 119.715,-172.062 158,-193 203.161,-217.699 260.902,-230.919 301.316,-237.658"/>
<polygon fill="midnightblue" stroke="midnightblue" points="300.772,-241.115 311.199,-239.235 301.875,-234.203 300.772,-241.115"/>
</g>
<!-- Node4 -->
<g id="node4" class="node"><title>Node4</title>
<g id="a_node4"><a xlink:href="classpoisson.html#a90f49ac199784d3bf15825d4dff8a5e5" target="_top" xlink:title="poisson::init_mesh\l_to_grid">
<polygon fill="white" stroke="black" points="158,-153 158,-183 261,-183 261,-153 158,-153"/>
<text text-anchor="start" x="166" y="-171" font-family="Helvetica,sans-Serif" font-size="10.00">poisson::init_mesh</text>
<text text-anchor="middle" x="209.5" y="-160" font-family="Helvetica,sans-Serif" font-size="10.00">_to_grid</text>
</a>
</g>
</g>
<!-- Node1&#45;&gt;Node4 -->
<g id="edge3" class="edge"><title>Node1&#45;&gt;Node4</title>
<path fill="none" stroke="midnightblue" d="M84.2502,-114.568C105.352,-123.643 137.664,-137.538 164.047,-148.884"/>
<polygon fill="midnightblue" stroke="midnightblue" points="162.899,-152.2 173.468,-152.935 165.664,-145.769 162.899,-152.2"/>
</g>
<!-- Node5 -->
<g id="node5" class="node"><title>Node5</title>
<g id="a_node5"><a xlink:href="classparallel.html#ac36680315d0622d84df5d5baf3fb0acc" target="_top" xlink:title="parallel::lglel">
<polygon fill="white" stroke="black" points="314.5,-82.5 314.5,-101.5 388.5,-101.5 388.5,-82.5 314.5,-82.5"/>
<text text-anchor="middle" x="351.5" y="-89.5" font-family="Helvetica,sans-Serif" font-size="10.00">parallel::lglel</text>
</a>
</g>
</g>
<!-- Node1&#45;&gt;Node5 -->
<g id="edge11" class="edge"><title>Node1&#45;&gt;Node5</title>
<path fill="none" stroke="midnightblue" d="M122.168,-107.252C161.684,-108.177 214.481,-108.361 261,-105 275.102,-103.981 290.356,-102.071 304.208,-100.022"/>
<polygon fill="midnightblue" stroke="midnightblue" points="305.134,-103.421 314.485,-98.4406 304.069,-96.5021 305.134,-103.421"/>
</g>
<!-- Node10 -->
<g id="node10" class="node"><title>Node10</title>
<g id="a_node10"><a xlink:href="mpi__dummy_8F90.html#adf2a055de10dc93a671a453c7190fd10" target="_top" xlink:title="mpi_irecv">
<polygon fill="white" stroke="black" points="178.5,-76.5 178.5,-95.5 240.5,-95.5 240.5,-76.5 178.5,-76.5"/>
<text text-anchor="middle" x="209.5" y="-83.5" font-family="Helvetica,sans-Serif" font-size="10.00">mpi_irecv</text>
</a>
</g>
</g>
<!-- Node1&#45;&gt;Node10 -->
<g id="edge12" class="edge"><title>Node1&#45;&gt;Node10</title>
<path fill="none" stroke="midnightblue" d="M122.01,-97.2172C137.652,-95.1885 154.127,-93.0517 168.454,-91.1937"/>
<polygon fill="midnightblue" stroke="midnightblue" points="168.996,-94.6528 178.463,-89.8956 168.096,-87.7109 168.996,-94.6528"/>
</g>
<!-- Node11 -->
<g id="node11" class="node"><title>Node11</title>
<g id="a_node11"><a xlink:href="mpi__dummy_8F90.html#a4c6ff99fbf164179b98c120547561b30" target="_top" xlink:title="mpi_isend">
<polygon fill="white" stroke="black" points="177,-38.5 177,-57.5 242,-57.5 242,-38.5 177,-38.5"/>
<text text-anchor="middle" x="209.5" y="-45.5" font-family="Helvetica,sans-Serif" font-size="10.00">mpi_isend</text>
</a>
</g>
</g>
<!-- Node1&#45;&gt;Node11 -->
<g id="edge13" class="edge"><title>Node1&#45;&gt;Node11</title>
<path fill="none" stroke="midnightblue" d="M86.0217,-95.36C105.413,-87.6098 133.418,-76.4887 158,-67 162.899,-65.1089 168.075,-63.1348 173.17,-61.2049"/>
<polygon fill="midnightblue" stroke="midnightblue" points="174.656,-64.3853 182.777,-57.5812 172.185,-57.8357 174.656,-64.3853"/>
</g>
<!-- Node12 -->
<g id="node12" class="node"><title>Node12</title>
<g id="a_node12"><a xlink:href="mpi__dummy_8F90.html#a90b9c69c5b43af73d8821c11b5d8f22d" target="_top" xlink:title="mpi_wait">
<polygon fill="white" stroke="black" points="180.5,-0.5 180.5,-19.5 238.5,-19.5 238.5,-0.5 180.5,-0.5"/>
<text text-anchor="middle" x="209.5" y="-7.5" font-family="Helvetica,sans-Serif" font-size="10.00">mpi_wait</text>
</a>
</g>
</g>
<!-- Node1&#45;&gt;Node12 -->
<g id="edge14" class="edge"><title>Node1&#45;&gt;Node12</title>
<path fill="none" stroke="midnightblue" d="M71.8885,-95.4266C88.5016,-79.765 123.585,-48.4654 158,-29 162.007,-26.7338 166.336,-24.6375 170.716,-22.7294"/>
<polygon fill="midnightblue" stroke="midnightblue" points="172.324,-25.8546 180.282,-18.86 169.699,-19.3655 172.324,-25.8546"/>
</g>
<!-- Node3 -->
<g id="node3" class="node"><title>Node3</title>
<g id="a_node3"><a xlink:href="classmesh.html#a383626b86a123c489b00681fcb13d503" target="_top" xlink:title="mesh::ieg_to_xyz">
<polygon fill="white" stroke="black" points="442,-196.5 442,-215.5 540,-215.5 540,-196.5 442,-196.5"/>
<text text-anchor="middle" x="491" y="-203.5" font-family="Helvetica,sans-Serif" font-size="10.00">mesh::ieg_to_xyz</text>
</a>
</g>
</g>
<!-- Node2&#45;&gt;Node3 -->
<g id="edge2" class="edge"><title>Node2&#45;&gt;Node3</title>
<path fill="none" stroke="midnightblue" d="M387.197,-234.411C404.866,-229.528 426.549,-223.536 445.439,-218.315"/>
<polygon fill="midnightblue" stroke="midnightblue" points="446.608,-221.623 455.314,-215.586 444.743,-214.876 446.608,-221.623"/>
</g>
<!-- Node4&#45;&gt;Node2 -->
<g id="edge4" class="edge"><title>Node4&#45;&gt;Node2</title>
<path fill="none" stroke="midnightblue" d="M230.288,-183.041C247.304,-195.474 272.851,-212.977 297,-225 301.132,-227.057 305.542,-228.997 309.991,-230.795"/>
<polygon fill="midnightblue" stroke="midnightblue" points="309.107,-234.203 319.698,-234.491 311.598,-227.662 309.107,-234.203"/>
</g>
<!-- Node4&#45;&gt;Node3 -->
<g id="edge5" class="edge"><title>Node4&#45;&gt;Node3</title>
<path fill="none" stroke="midnightblue" d="M261.357,-171.185C300.947,-174.087 357.183,-179.139 406,-187 417.994,-188.931 430.836,-191.551 442.779,-194.227"/>
<polygon fill="midnightblue" stroke="midnightblue" points="442.033,-197.646 452.562,-196.474 443.6,-190.824 442.033,-197.646"/>
</g>
<!-- Node4&#45;&gt;Node5 -->
<g id="edge6" class="edge"><title>Node4&#45;&gt;Node5</title>
<path fill="none" stroke="midnightblue" d="M237.042,-152.955C244.866,-148.328 253.373,-143.104 261,-138 277.621,-126.877 279.376,-120.454 297,-111 300.917,-108.899 305.114,-106.948 309.37,-105.161"/>
<polygon fill="midnightblue" stroke="midnightblue" points="310.661,-108.414 318.699,-101.512 308.112,-101.895 310.661,-108.414"/>
</g>
<!-- Node7 -->
<g id="node7" class="node"><title>Node7</title>
<g id="a_node7"><a xlink:href="comm__mpi_8F90.html#a4acb4d8e379294232e9219bec063d8f3" target="_top" xlink:title="nekgsync">
<polygon fill="white" stroke="black" points="320.5,-120.5 320.5,-139.5 382.5,-139.5 382.5,-120.5 320.5,-120.5"/>
<text text-anchor="middle" x="351.5" y="-127.5" font-family="Helvetica,sans-Serif" font-size="10.00">nekgsync</text>
</a>
</g>
</g>
<!-- Node4&#45;&gt;Node7 -->
<g id="edge8" class="edge"><title>Node4&#45;&gt;Node7</title>
<path fill="none" stroke="midnightblue" d="M261.043,-154.281C277.363,-149.852 295.214,-145.006 310.649,-140.817"/>
<polygon fill="midnightblue" stroke="midnightblue" points="311.668,-144.167 320.402,-138.169 309.834,-137.411 311.668,-144.167"/>
</g>
<!-- Node9 -->
<g id="node9" class="node"><title>Node9</title>
<g id="a_node9"><a xlink:href="classpoisson.html#a7f3f4d5527547189ab948995a746db9f" target="_top" xlink:title="poisson::xyz_to_pid">
<polygon fill="white" stroke="black" points="297,-196.5 297,-215.5 406,-215.5 406,-196.5 297,-196.5"/>
<text text-anchor="middle" x="351.5" y="-203.5" font-family="Helvetica,sans-Serif" font-size="10.00">poisson::xyz_to_pid</text>
</a>
</g>
</g>
<!-- Node4&#45;&gt;Node9 -->
<g id="edge10" class="edge"><title>Node4&#45;&gt;Node9</title>
<path fill="none" stroke="midnightblue" d="M261.043,-181.719C275.539,-185.653 291.244,-189.916 305.39,-193.756"/>
<polygon fill="midnightblue" stroke="midnightblue" points="304.808,-197.224 315.375,-196.466 306.641,-190.469 304.808,-197.224"/>
</g>
<!-- Node6 -->
<g id="node6" class="node"><title>Node6</title>
<g id="a_node6"><a xlink:href="classmesh.html#a8b6a250925cdc576e3ff6f7b18dc88c4" target="_top" xlink:title="mesh::xyz_to_ieg">
<polygon fill="white" stroke="black" points="442,-82.5 442,-101.5 540,-101.5 540,-82.5 442,-82.5"/>
<text text-anchor="middle" x="491" y="-89.5" font-family="Helvetica,sans-Serif" font-size="10.00">mesh::xyz_to_ieg</text>
</a>
</g>
</g>
<!-- Node5&#45;&gt;Node6 -->
<g id="edge7" class="edge"><title>Node5&#45;&gt;Node6</title>
<path fill="none" stroke="midnightblue" d="M388.627,-92C401.88,-92 417.238,-92 431.93,-92"/>
<polygon fill="midnightblue" stroke="midnightblue" points="431.96,-95.5001 441.96,-92 431.96,-88.5001 431.96,-95.5001"/>
</g>
<!-- Node8 -->
<g id="node8" class="node"><title>Node8</title>
<g id="a_node8"><a xlink:href="mpi__dummy_8F90.html#a070afe564196eb48413dbf1a9fbc99aa" target="_top" xlink:title="mpi_barrier">
<polygon fill="white" stroke="black" points="456,-120.5 456,-139.5 526,-139.5 526,-120.5 456,-120.5"/>
<text text-anchor="middle" x="491" y="-127.5" font-family="Helvetica,sans-Serif" font-size="10.00">mpi_barrier</text>
</a>
</g>
</g>
<!-- Node7&#45;&gt;Node8 -->
<g id="edge9" class="edge"><title>Node7&#45;&gt;Node8</title>
<path fill="none" stroke="midnightblue" d="M382.675,-130C401.07,-130 424.912,-130 445.451,-130"/>
<polygon fill="midnightblue" stroke="midnightblue" points="445.536,-133.5 455.536,-130 445.536,-126.5 445.536,-133.5"/>
</g>
</g>
</svg>
