<?xml version="1.0" encoding="UTF-8" standalone="no"?>
<!DOCTYPE svg PUBLIC "-//W3C//DTD SVG 1.1//EN"
 "http://www.w3.org/Graphics/SVG/1.1/DTD/svg11.dtd">
<!-- Generated by graphviz version 2.38.0 (20140413.2041)
 -->
<!-- Title: io::load_ic Pages: 1 -->
<svg width="753pt" height="617pt"
 viewBox="0.00 0.00 753.00 617.00" xmlns="http://www.w3.org/2000/svg" xmlns:xlink="http://www.w3.org/1999/xlink">
<g id="graph0" class="graph" transform="scale(1 1) rotate(0) translate(4 613)">
<title>io::load_ic</title>
<polygon fill="white" stroke="none" points="-4,4 -4,-613 749,-613 749,4 -4,4"/>
<!-- Node1 -->
<g id="node1" class="node"><title>Node1</title>
<polygon fill="#bfbfbf" stroke="black" points="0,-342.5 0,-361.5 63,-361.5 63,-342.5 0,-342.5"/>
<text text-anchor="middle" x="31.5" y="-349.5" font-family="Helvetica,sans-Serif" font-size="10.00">io::load_ic</text>
</g>
<!-- Node2 -->
<g id="node2" class="node"><title>Node2</title>
<g id="a_node2"><a xlink:href="classio.html#a7b9fab509eb3310e470c7998ff63c888" target="_top" xlink:title="io::get_restart_name">
<polygon fill="white" stroke="black" points="249,-551.5 249,-570.5 362,-570.5 362,-551.5 249,-551.5"/>
<text text-anchor="middle" x="305.5" y="-558.5" font-family="Helvetica,sans-Serif" font-size="10.00">io::get_restart_name</text>
</a>
</g>
</g>
<!-- Node1&#45;&gt;Node2 -->
<g id="edge1" class="edge"><title>Node1&#45;&gt;Node2</title>
<path fill="none" stroke="midnightblue" d="M37.9165,-361.756C48.151,-379.594 71.7627,-418.018 99,-444 156.622,-498.966 177.443,-507.056 249,-542 253.347,-544.123 257.992,-546.112 262.674,-547.944"/>
<polygon fill="midnightblue" stroke="midnightblue" points="261.66,-551.301 272.254,-551.476 264.082,-544.733 261.66,-551.301"/>
</g>
<!-- Node5 -->
<g id="node5" class="node"><title>Node5</title>
<g id="a_node5"><a xlink:href="ic_8F90.html#a68d933fc6454561483fc9fa2bbac444b" target="_top" xlink:title="open blah000.fldnn ">
<polygon fill="white" stroke="black" points="268.5,-513.5 268.5,-532.5 342.5,-532.5 342.5,-513.5 268.5,-513.5"/>
<text text-anchor="middle" x="305.5" y="-520.5" font-family="Helvetica,sans-Serif" font-size="10.00">mbyte_open</text>
</a>
</g>
</g>
<!-- Node1&#45;&gt;Node5 -->
<g id="edge4" class="edge"><title>Node1&#45;&gt;Node5</title>
<path fill="none" stroke="midnightblue" d="M47.9032,-361.684C93.1601,-390.136 225.963,-473.626 280.6,-507.975"/>
<polygon fill="midnightblue" stroke="midnightblue" points="278.937,-511.063 289.266,-513.423 282.663,-505.137 278.937,-511.063"/>
</g>
<!-- Node8 -->
<g id="node8" class="node"><title>Node8</title>
<g id="a_node8"><a xlink:href="classio.html#a3b8dab7279564c05e092b8194f166d8b" target="_top" xlink:title="Read header and return number of elements and word size. ">
<polygon fill="white" stroke="black" points="99,-342.5 99,-361.5 213,-361.5 213,-342.5 99,-342.5"/>
<text text-anchor="middle" x="156" y="-349.5" font-family="Helvetica,sans-Serif" font-size="10.00">io::mfo_read_header</text>
</a>
</g>
</g>
<!-- Node1&#45;&gt;Node8 -->
<g id="edge9" class="edge"><title>Node1&#45;&gt;Node8</title>
<path fill="none" stroke="midnightblue" d="M63.0959,-352C70.9222,-352 79.6482,-352 88.5216,-352"/>
<polygon fill="midnightblue" stroke="midnightblue" points="88.5626,-355.5 98.5625,-352 88.5625,-348.5 88.5626,-355.5"/>
</g>
<!-- Node29 -->
<g id="node29" class="node"><title>Node29</title>
<g id="a_node29"><a xlink:href="classio.html#a758050a046c3323706e227872dc0bddf" target="_top" xlink:title="Read a scalar field. ">
<polygon fill="white" stroke="black" points="101.5,-171.5 101.5,-190.5 210.5,-190.5 210.5,-171.5 101.5,-171.5"/>
<text text-anchor="middle" x="156" y="-178.5" font-family="Helvetica,sans-Serif" font-size="10.00">io::mfo_read_scalar</text>
</a>
</g>
</g>
<!-- Node1&#45;&gt;Node29 -->
<g id="edge34" class="edge"><title>Node1&#45;&gt;Node29</title>
<path fill="none" stroke="midnightblue" d="M37.1023,-342.341C46.9904,-322.042 71.5999,-273.871 99,-238 110.221,-223.31 124.933,-208.47 136.461,-197.615"/>
<polygon fill="midnightblue" stroke="midnightblue" points="138.881,-200.145 143.852,-190.789 134.131,-195.003 138.881,-200.145"/>
</g>
<!-- Node32 -->
<g id="node32" class="node"><title>Node32</title>
<g id="a_node32"><a xlink:href="classio.html#a73b31838c25a62a2d22ccd660b5f26bb" target="_top" xlink:title="Read a vector field. ">
<polygon fill="white" stroke="black" points="101,-247.5 101,-266.5 211,-266.5 211,-247.5 101,-247.5"/>
<text text-anchor="middle" x="156" y="-254.5" font-family="Helvetica,sans-Serif" font-size="10.00">io::mfo_read_vector</text>
</a>
</g>
</g>
<!-- Node1&#45;&gt;Node32 -->
<g id="edge42" class="edge"><title>Node1&#45;&gt;Node32</title>
<path fill="none" stroke="midnightblue" d="M45.1483,-342.191C66.3479,-325.751 109.227,-292.497 134.691,-272.749"/>
<polygon fill="midnightblue" stroke="midnightblue" points="136.846,-275.508 142.603,-266.614 132.556,-269.977 136.846,-275.508"/>
</g>
<!-- Node3 -->
<g id="node3" class="node"><title>Node3</title>
<g id="a_node3"><a xlink:href="math_8F90.html#ad7fb480cea001849621405f37167aab1" target="_top" xlink:title="chcopy">
<polygon fill="white" stroke="black" points="422,-551.5 422,-570.5 472,-570.5 472,-551.5 422,-551.5"/>
<text text-anchor="middle" x="447" y="-558.5" font-family="Helvetica,sans-Serif" font-size="10.00">chcopy</text>
</a>
</g>
</g>
<!-- Node2&#45;&gt;Node3 -->
<g id="edge2" class="edge"><title>Node2&#45;&gt;Node3</title>
<path fill="none" stroke="midnightblue" d="M362.035,-561C378.787,-561 396.683,-561 411.629,-561"/>
<polygon fill="midnightblue" stroke="midnightblue" points="411.934,-564.5 421.933,-561 411.933,-557.5 411.934,-564.5"/>
</g>
<!-- Node4 -->
<g id="node4" class="node"><title>Node4</title>
<g id="a_node4"><a xlink:href="classstring.html#a788cdffdfd5841a6e4117c4b8e80da77" target="_top" xlink:title="string::ltrunc">
<polygon fill="white" stroke="black" points="410.5,-589.5 410.5,-608.5 483.5,-608.5 483.5,-589.5 410.5,-589.5"/>
<text text-anchor="middle" x="447" y="-596.5" font-family="Helvetica,sans-Serif" font-size="10.00">string::ltrunc</text>
</a>
</g>
</g>
<!-- Node2&#45;&gt;Node4 -->
<g id="edge3" class="edge"><title>Node2&#45;&gt;Node4</title>
<path fill="none" stroke="midnightblue" d="M341.702,-570.589C359.71,-575.494 381.828,-581.52 401.056,-586.757"/>
<polygon fill="midnightblue" stroke="midnightblue" points="400.241,-590.163 410.81,-589.414 402.081,-583.409 400.241,-590.163"/>
</g>
<!-- Node5&#45;&gt;Node3 -->
<g id="edge6" class="edge"><title>Node5&#45;&gt;Node3</title>
<path fill="none" stroke="midnightblue" d="M341.702,-532.589C363.205,-538.446 390.568,-545.9 411.871,-551.703"/>
<polygon fill="midnightblue" stroke="midnightblue" points="411.222,-555.154 421.791,-554.405 413.062,-548.4 411.222,-555.154"/>
</g>
<!-- Node5&#45;&gt;Node4 -->
<g id="edge8" class="edge"><title>Node5&#45;&gt;Node4</title>
<path fill="none" stroke="midnightblue" d="M342.614,-532.522C349.331,-535.07 356.088,-538.201 362,-542 381.572,-554.576 378.729,-566.967 398,-580 400.747,-581.858 403.702,-583.575 406.749,-585.155"/>
<polygon fill="midnightblue" stroke="midnightblue" points="405.5,-588.434 416.044,-589.479 408.453,-582.087 405.5,-588.434"/>
</g>
<!-- Node6 -->
<g id="node6" class="node"><title>Node6</title>
<g id="a_node6"><a xlink:href="byte__mpi_8F90.html#a709c5eb7eaa2afa254a0e8bd62915bfb" target="_top" xlink:title="byte_open_mpi">
<polygon fill="white" stroke="black" points="402.5,-513.5 402.5,-532.5 491.5,-532.5 491.5,-513.5 402.5,-513.5"/>
<text text-anchor="middle" x="447" y="-520.5" font-family="Helvetica,sans-Serif" font-size="10.00">byte_open_mpi</text>
</a>
</g>
</g>
<!-- Node5&#45;&gt;Node6 -->
<g id="edge5" class="edge"><title>Node5&#45;&gt;Node6</title>
<path fill="none" stroke="midnightblue" d="M342.788,-523C357.897,-523 375.751,-523 392.325,-523"/>
<polygon fill="midnightblue" stroke="midnightblue" points="392.443,-526.5 402.443,-523 392.443,-519.5 392.443,-526.5"/>
</g>
<!-- Node7 -->
<g id="node7" class="node"><title>Node7</title>
<g id="a_node7"><a xlink:href="classstring.html#ac6aad97d698bcdbf5c11ffa52d947ad8" target="_top" xlink:title="string::indx1">
<polygon fill="white" stroke="black" points="410.5,-437.5 410.5,-456.5 483.5,-456.5 483.5,-437.5 410.5,-437.5"/>
<text text-anchor="middle" x="447" y="-444.5" font-family="Helvetica,sans-Serif" font-size="10.00">string::indx1</text>
</a>
</g>
</g>
<!-- Node5&#45;&gt;Node7 -->
<g id="edge7" class="edge"><title>Node5&#45;&gt;Node7</title>
<path fill="none" stroke="midnightblue" d="M320.305,-513.298C337.832,-501.242 369.256,-480.493 398,-466 401.826,-464.071 405.898,-462.199 409.989,-460.431"/>
<polygon fill="midnightblue" stroke="midnightblue" points="411.561,-463.569 419.466,-456.516 408.888,-457.1 411.561,-463.569"/>
</g>
<!-- Node9 -->
<g id="node9" class="node"><title>Node9</title>
<g id="a_node9"><a xlink:href="classparallel.html#ac36680315d0622d84df5d5baf3fb0acc" target="_top" xlink:title="parallel::lglel">
<polygon fill="white" stroke="black" points="268.5,-456.5 268.5,-475.5 342.5,-475.5 342.5,-456.5 268.5,-456.5"/>
<text text-anchor="middle" x="305.5" y="-463.5" font-family="Helvetica,sans-Serif" font-size="10.00">parallel::lglel</text>
</a>
</g>
</g>
<!-- Node8&#45;&gt;Node9 -->
<g id="edge10" class="edge"><title>Node8&#45;&gt;Node9</title>
<path fill="none" stroke="midnightblue" d="M168.067,-361.694C185.086,-376.475 218.879,-405.319 249,-428 259.285,-435.744 271.005,-443.866 281.016,-450.604"/>
<polygon fill="midnightblue" stroke="midnightblue" points="279.377,-453.718 289.64,-456.352 283.26,-447.893 279.377,-453.718"/>
</g>
<!-- Node11 -->
<g id="node11" class="node"><title>Node11</title>
<g id="a_node11"><a xlink:href="comm__mpi_8F90.html#a4acb4d8e379294232e9219bec063d8f3" target="_top" xlink:title="nekgsync">
<polygon fill="white" stroke="black" points="549.5,-237.5 549.5,-256.5 611.5,-256.5 611.5,-237.5 549.5,-237.5"/>
<text text-anchor="middle" x="580.5" y="-244.5" font-family="Helvetica,sans-Serif" font-size="10.00">nekgsync</text>
</a>
</g>
</g>
<!-- Node8&#45;&gt;Node11 -->
<g id="edge12" class="edge"><title>Node8&#45;&gt;Node11</title>
<path fill="none" stroke="midnightblue" d="M192.136,-361.507C256.243,-376.866 394.887,-400.779 496,-352 533.058,-334.122 558.734,-290.917 571.089,-265.853"/>
<polygon fill="midnightblue" stroke="midnightblue" points="574.334,-267.178 575.432,-256.641 568.002,-264.193 574.334,-267.178"/>
</g>
<!-- Node13 -->
<g id="node13" class="node"><title>Node13</title>
<g id="a_node13"><a xlink:href="comm__mpi_8F90.html#abd95004b45059acdcc13614c52e60eae" target="_top" xlink:title="csend">
<polygon fill="white" stroke="black" points="283,-247.5 283,-266.5 328,-266.5 328,-247.5 283,-247.5"/>
<text text-anchor="middle" x="305.5" y="-254.5" font-family="Helvetica,sans-Serif" font-size="10.00">csend</text>
</a>
</g>
</g>
<!-- Node8&#45;&gt;Node13 -->
<g id="edge14" class="edge"><title>Node8&#45;&gt;Node13</title>
<path fill="none" stroke="midnightblue" d="M171.955,-342.368C197.575,-325.867 250.058,-292.064 280.738,-272.304"/>
<polygon fill="midnightblue" stroke="midnightblue" points="282.994,-275.015 289.506,-266.657 279.203,-269.13 282.994,-275.015"/>
</g>
<!-- Node15 -->
<g id="node15" class="node"><title>Node15</title>
<g id="a_node15"><a xlink:href="comm__mpi_8F90.html#a243c9bed2592e7cd159fb36be4fda037" target="_top" xlink:title="crecv">
<polygon fill="white" stroke="black" points="284.5,-209.5 284.5,-228.5 326.5,-228.5 326.5,-209.5 284.5,-209.5"/>
<text text-anchor="middle" x="305.5" y="-216.5" font-family="Helvetica,sans-Serif" font-size="10.00">crecv</text>
</a>
</g>
</g>
<!-- Node8&#45;&gt;Node15 -->
<g id="edge16" class="edge"><title>Node8&#45;&gt;Node15</title>
<path fill="none" stroke="midnightblue" d="M163.702,-342.372C181.046,-317.686 227.541,-253.024 249,-238 256.698,-232.61 266.057,-228.637 274.88,-225.76"/>
<polygon fill="midnightblue" stroke="midnightblue" points="275.873,-229.117 284.496,-222.96 273.916,-222.396 275.873,-229.117"/>
</g>
<!-- Node25 -->
<g id="node25" class="node"><title>Node25</title>
<g id="a_node25"><a xlink:href="comm__mpi_8F90.html#ae425c1deb2e82d2007c97e1c4be990c8" target="_top" xlink:title="bcast">
<polygon fill="white" stroke="black" points="285,-399.5 285,-418.5 326,-418.5 326,-399.5 285,-399.5"/>
<text text-anchor="middle" x="305.5" y="-406.5" font-family="Helvetica,sans-Serif" font-size="10.00">bcast</text>
</a>
</g>
</g>
<!-- Node8&#45;&gt;Node25 -->
<g id="edge27" class="edge"><title>Node8&#45;&gt;Node25</title>
<path fill="none" stroke="midnightblue" d="M181.688,-361.541C207.545,-371.533 248.126,-387.215 275.493,-397.791"/>
<polygon fill="midnightblue" stroke="midnightblue" points="274.337,-401.096 284.926,-401.436 276.86,-394.567 274.337,-401.096"/>
</g>
<!-- Node27 -->
<g id="node27" class="node"><title>Node27</title>
<g id="a_node27"><a xlink:href="comm__mpi_8F90.html#a898c3cc227476846bd3216f97a9a8657" target="_top" xlink:title="err_chk">
<polygon fill="white" stroke="black" points="279,-323.5 279,-342.5 332,-342.5 332,-323.5 279,-323.5"/>
<text text-anchor="middle" x="305.5" y="-330.5" font-family="Helvetica,sans-Serif" font-size="10.00">err_chk</text>
</a>
</g>
</g>
<!-- Node8&#45;&gt;Node27 -->
<g id="edge29" class="edge"><title>Node8&#45;&gt;Node27</title>
<path fill="none" stroke="midnightblue" d="M213.184,-344.763C231.75,-342.371 251.893,-339.776 268.525,-337.634"/>
<polygon fill="midnightblue" stroke="midnightblue" points="269.425,-341.047 278.896,-336.298 268.53,-334.105 269.425,-341.047"/>
</g>
<!-- Node10 -->
<g id="node10" class="node"><title>Node10</title>
<g id="a_node10"><a xlink:href="classmesh.html#a8b6a250925cdc576e3ff6f7b18dc88c4" target="_top" xlink:title="mesh::xyz_to_ieg">
<polygon fill="white" stroke="black" points="398,-475.5 398,-494.5 496,-494.5 496,-475.5 398,-475.5"/>
<text text-anchor="middle" x="447" y="-482.5" font-family="Helvetica,sans-Serif" font-size="10.00">mesh::xyz_to_ieg</text>
</a>
</g>
</g>
<!-- Node9&#45;&gt;Node10 -->
<g id="edge11" class="edge"><title>Node9&#45;&gt;Node10</title>
<path fill="none" stroke="midnightblue" d="M342.788,-470.942C356.431,-472.801 372.313,-474.964 387.469,-477.028"/>
<polygon fill="midnightblue" stroke="midnightblue" points="387.428,-480.555 397.809,-478.436 388.373,-473.619 387.428,-480.555"/>
</g>
<!-- Node12 -->
<g id="node12" class="node"><title>Node12</title>
<g id="a_node12"><a xlink:href="mpi__dummy_8F90.html#a070afe564196eb48413dbf1a9fbc99aa" target="_top" xlink:title="mpi_barrier">
<polygon fill="white" stroke="black" points="670,-237.5 670,-256.5 740,-256.5 740,-237.5 670,-237.5"/>
<text text-anchor="middle" x="705" y="-244.5" font-family="Helvetica,sans-Serif" font-size="10.00">mpi_barrier</text>
</a>
</g>
</g>
<!-- Node11&#45;&gt;Node12 -->
<g id="edge13" class="edge"><title>Node11&#45;&gt;Node12</title>
<path fill="none" stroke="midnightblue" d="M611.781,-247C626.195,-247 643.714,-247 659.594,-247"/>
<polygon fill="midnightblue" stroke="midnightblue" points="659.745,-250.5 669.745,-247 659.745,-243.5 659.745,-250.5"/>
</g>
<!-- Node14 -->
<g id="node14" class="node"><title>Node14</title>
<g id="a_node14"><a xlink:href="mpi__dummy_8F90.html#af98c20c7332635506f852083f7ee504a" target="_top" xlink:title="mpi_send">
<polygon fill="white" stroke="black" points="416,-247.5 416,-266.5 478,-266.5 478,-247.5 416,-247.5"/>
<text text-anchor="middle" x="447" y="-254.5" font-family="Helvetica,sans-Serif" font-size="10.00">mpi_send</text>
</a>
</g>
</g>
<!-- Node13&#45;&gt;Node14 -->
<g id="edge15" class="edge"><title>Node13&#45;&gt;Node14</title>
<path fill="none" stroke="midnightblue" d="M328.297,-257C348.973,-257 380.546,-257 405.789,-257"/>
<polygon fill="midnightblue" stroke="midnightblue" points="405.817,-260.5 415.816,-257 405.816,-253.5 405.817,-260.5"/>
</g>
<!-- Node16 -->
<g id="node16" class="node"><title>Node16</title>
<g id="a_node16"><a xlink:href="byte_8c.html#a2da8eeb074dfd3ffbfb3e9a4d301cda4" target="_top" xlink:title="exitt">
<polygon fill="white" stroke="black" points="429,-76.5 429,-95.5 465,-95.5 465,-76.5 429,-76.5"/>
<text text-anchor="middle" x="447" y="-83.5" font-family="Helvetica,sans-Serif" font-size="10.00">exitt</text>
</a>
</g>
</g>
<!-- Node15&#45;&gt;Node16 -->
<g id="edge17" class="edge"><title>Node15&#45;&gt;Node16</title>
<path fill="none" stroke="midnightblue" d="M326.559,-213.096C337.736,-209.157 351.477,-203.187 362,-195 394.814,-169.47 421.832,-128.281 435.771,-104.519"/>
<polygon fill="midnightblue" stroke="midnightblue" points="438.844,-106.196 440.768,-95.7768 432.767,-102.722 438.844,-106.196"/>
</g>
<!-- Node24 -->
<g id="node24" class="node"><title>Node24</title>
<g id="a_node24"><a xlink:href="mpi__dummy_8F90.html#a709ef20e522dddac7afb17999141cfd4" target="_top" xlink:title="mpi_recv">
<polygon fill="white" stroke="black" points="417.5,-209.5 417.5,-228.5 476.5,-228.5 476.5,-209.5 417.5,-209.5"/>
<text text-anchor="middle" x="447" y="-216.5" font-family="Helvetica,sans-Serif" font-size="10.00">mpi_recv</text>
</a>
</g>
</g>
<!-- Node15&#45;&gt;Node24 -->
<g id="edge26" class="edge"><title>Node15&#45;&gt;Node24</title>
<path fill="none" stroke="midnightblue" d="M326.784,-219C347.772,-219 381.069,-219 407.146,-219"/>
<polygon fill="midnightblue" stroke="midnightblue" points="407.462,-222.5 417.462,-219 407.462,-215.5 407.462,-222.5"/>
</g>
<!-- Node16&#45;&gt;Node11 -->
<g id="edge25" class="edge"><title>Node16&#45;&gt;Node11</title>
<path fill="none" stroke="midnightblue" d="M465.196,-91.5121C475.168,-95.4041 487.411,-101.46 496,-110 521.088,-134.947 513.612,-150.774 532,-181 542.373,-198.051 555.776,-216.398 565.698,-229.409"/>
<polygon fill="midnightblue" stroke="midnightblue" points="563.05,-231.706 571.931,-237.483 568.591,-227.428 563.05,-231.706"/>
</g>
<!-- Node17 -->
<g id="node17" class="node"><title>Node17</title>
<g id="a_node17"><a xlink:href="classctimer.html#abcecbc845c8ee72e13a19eaa30b80d77" target="_top" xlink:title="ctimer::dnekclock">
<polygon fill="white" stroke="black" points="532,-38.5 532,-57.5 629,-57.5 629,-38.5 532,-38.5"/>
<text text-anchor="middle" x="580.5" y="-45.5" font-family="Helvetica,sans-Serif" font-size="10.00">ctimer::dnekclock</text>
</a>
</g>
</g>
<!-- Node16&#45;&gt;Node17 -->
<g id="edge18" class="edge"><title>Node16&#45;&gt;Node17</title>
<path fill="none" stroke="midnightblue" d="M465.191,-81.0322C483.242,-75.8161 512.324,-67.412 536.637,-60.3864"/>
<polygon fill="midnightblue" stroke="midnightblue" points="537.737,-63.7115 546.373,-57.5729 535.794,-56.9867 537.737,-63.7115"/>
</g>
<!-- Node19 -->
<g id="node19" class="node"><title>Node19</title>
<g id="a_node19"><a xlink:href="subs1_8F90.html#a339739b88994e5bb12bd923147f94983" target="_top" xlink:title="flush_io">
<polygon fill="white" stroke="black" points="554,-0.5 554,-19.5 607,-19.5 607,-0.5 554,-0.5"/>
<text text-anchor="middle" x="580.5" y="-7.5" font-family="Helvetica,sans-Serif" font-size="10.00">flush_io</text>
</a>
</g>
</g>
<!-- Node16&#45;&gt;Node19 -->
<g id="edge20" class="edge"><title>Node16&#45;&gt;Node19</title>
<path fill="none" stroke="midnightblue" d="M460.273,-76.4212C476.179,-64.3065 505.075,-43.3047 532,-29 535.99,-26.88 540.271,-24.8522 544.568,-22.9638"/>
<polygon fill="midnightblue" stroke="midnightblue" points="546.017,-26.1519 553.897,-19.0704 543.321,-19.6918 546.017,-26.1519"/>
</g>
<!-- Node20 -->
<g id="node20" class="node"><title>Node20</title>
<g id="a_node20"><a xlink:href="singlmesh_8F90.html#aef78ff219741b83c1ca784b869e9cacf" target="_top" xlink:title="Dummy for singlmesh. ">
<polygon fill="white" stroke="black" points="540.5,-152.5 540.5,-171.5 620.5,-171.5 620.5,-152.5 540.5,-152.5"/>
<text text-anchor="middle" x="580.5" y="-159.5" font-family="Helvetica,sans-Serif" font-size="10.00">happy_check</text>
</a>
</g>
</g>
<!-- Node16&#45;&gt;Node20 -->
<g id="edge21" class="edge"><title>Node16&#45;&gt;Node20</title>
<path fill="none" stroke="midnightblue" d="M465.081,-93.1323C474.551,-97.4264 486.33,-103.344 496,-110 513.88,-122.306 513.624,-131.448 532,-143 534.947,-144.852 538.104,-146.583 541.339,-148.185"/>
<polygon fill="midnightblue" stroke="midnightblue" points="539.996,-151.419 550.549,-152.358 542.885,-145.043 539.996,-151.419"/>
</g>
<!-- Node21 -->
<g id="node21" class="node"><title>Node21</title>
<g id="a_node21"><a xlink:href="mpi__dummy_8F90.html#a55e9a1619aadb638b14211ce21d7d566" target="_top" xlink:title="mpi_finalize">
<polygon fill="white" stroke="black" points="544.5,-114.5 544.5,-133.5 616.5,-133.5 616.5,-114.5 544.5,-114.5"/>
<text text-anchor="middle" x="580.5" y="-121.5" font-family="Helvetica,sans-Serif" font-size="10.00">mpi_finalize</text>
</a>
</g>
</g>
<!-- Node16&#45;&gt;Node21 -->
<g id="edge22" class="edge"><title>Node16&#45;&gt;Node21</title>
<path fill="none" stroke="midnightblue" d="M465.191,-90.9678C483.242,-96.1839 512.324,-104.588 536.637,-111.614"/>
<polygon fill="midnightblue" stroke="midnightblue" points="535.794,-115.013 546.373,-114.427 537.737,-108.288 535.794,-115.013"/>
</g>
<!-- Node22 -->
<g id="node22" class="node"><title>Node22</title>
<g id="a_node22"><a xlink:href="papi_8F90.html#a3a75ccdfbe05912fda48c3b134d114c0" target="_top" xlink:title="nek_flops">
<polygon fill="white" stroke="black" points="549.5,-76.5 549.5,-95.5 611.5,-95.5 611.5,-76.5 549.5,-76.5"/>
<text text-anchor="middle" x="580.5" y="-83.5" font-family="Helvetica,sans-Serif" font-size="10.00">nek_flops</text>
</a>
</g>
</g>
<!-- Node16&#45;&gt;Node22 -->
<g id="edge23" class="edge"><title>Node16&#45;&gt;Node22</title>
<path fill="none" stroke="midnightblue" d="M465.191,-86C483.893,-86 514.436,-86 539.247,-86"/>
<polygon fill="midnightblue" stroke="midnightblue" points="539.478,-89.5001 549.478,-86 539.478,-82.5001 539.478,-89.5001"/>
</g>
<!-- Node18 -->
<g id="node18" class="node"><title>Node18</title>
<g id="a_node18"><a xlink:href="mpi__dummy_8F90.html#ae6a5ef945f87c2c27849696b70f3af2a" target="_top" xlink:title="mpi_wtime">
<polygon fill="white" stroke="black" points="672,-38.5 672,-57.5 738,-57.5 738,-38.5 672,-38.5"/>
<text text-anchor="middle" x="705" y="-45.5" font-family="Helvetica,sans-Serif" font-size="10.00">mpi_wtime</text>
</a>
</g>
</g>
<!-- Node17&#45;&gt;Node18 -->
<g id="edge19" class="edge"><title>Node17&#45;&gt;Node18</title>
<path fill="none" stroke="midnightblue" d="M629.212,-48C639.894,-48 651.154,-48 661.603,-48"/>
<polygon fill="midnightblue" stroke="midnightblue" points="661.73,-51.5001 671.729,-48 661.729,-44.5001 661.73,-51.5001"/>
</g>
<!-- Node23 -->
<g id="node23" class="node"><title>Node23</title>
<g id="a_node23"><a xlink:href="papi_8F90.html#a838be3d39e287e29002d5a68c6ad2dd8" target="_top" xlink:title="getflops_papi">
<polygon fill="white" stroke="black" points="665,-76.5 665,-95.5 745,-95.5 745,-76.5 665,-76.5"/>
<text text-anchor="middle" x="705" y="-83.5" font-family="Helvetica,sans-Serif" font-size="10.00">getflops_papi</text>
</a>
</g>
</g>
<!-- Node22&#45;&gt;Node23 -->
<g id="edge24" class="edge"><title>Node22&#45;&gt;Node23</title>
<path fill="none" stroke="midnightblue" d="M611.781,-86C624.666,-86 640.032,-86 654.491,-86"/>
<polygon fill="midnightblue" stroke="midnightblue" points="654.811,-89.5001 664.811,-86 654.811,-82.5001 654.811,-89.5001"/>
</g>
<!-- Node26 -->
<g id="node26" class="node"><title>Node26</title>
<g id="a_node26"><a xlink:href="mpi__dummy_8F90.html#ae0bd4baaea848988f45664ce0de33350" target="_top" xlink:title="mpi_bcast">
<polygon fill="white" stroke="black" points="415,-399.5 415,-418.5 479,-418.5 479,-399.5 415,-399.5"/>
<text text-anchor="middle" x="447" y="-406.5" font-family="Helvetica,sans-Serif" font-size="10.00">mpi_bcast</text>
</a>
</g>
</g>
<!-- Node25&#45;&gt;Node26 -->
<g id="edge28" class="edge"><title>Node25&#45;&gt;Node26</title>
<path fill="none" stroke="midnightblue" d="M326.191,-409C346.456,-409 378.636,-409 404.545,-409"/>
<polygon fill="midnightblue" stroke="midnightblue" points="404.849,-412.5 414.849,-409 404.849,-405.5 404.849,-412.5"/>
</g>
<!-- Node27&#45;&gt;Node3 -->
<g id="edge31" class="edge"><title>Node27&#45;&gt;Node3</title>
<path fill="none" stroke="midnightblue" d="M319.572,-342.864C332.341,-353.207 351.36,-370.631 362,-390 395.425,-450.849 352.577,-489.497 398,-542 401.907,-546.516 407.031,-549.968 412.475,-552.604"/>
<polygon fill="midnightblue" stroke="midnightblue" points="411.194,-555.861 421.779,-556.315 413.787,-549.359 411.194,-555.861"/>
</g>
<!-- Node27&#45;&gt;Node7 -->
<g id="edge33" class="edge"><title>Node27&#45;&gt;Node7</title>
<path fill="none" stroke="midnightblue" d="M315.968,-342.643C327.048,-353.947 345.927,-373.265 362,-390 378.115,-406.779 378.729,-414.967 398,-428 400.747,-429.858 403.702,-431.575 406.749,-433.155"/>
<polygon fill="midnightblue" stroke="midnightblue" points="405.5,-436.434 416.044,-437.479 408.453,-430.087 405.5,-436.434"/>
</g>
<!-- Node27&#45;&gt;Node16 -->
<g id="edge32" class="edge"><title>Node27&#45;&gt;Node16</title>
<path fill="none" stroke="midnightblue" d="M317.938,-323.479C330.108,-312.883 349.319,-294.769 362,-276 372.255,-260.82 419.142,-150.059 438.056,-104.993"/>
<polygon fill="midnightblue" stroke="midnightblue" points="441.299,-106.31 441.936,-95.7342 434.843,-103.604 441.299,-106.31"/>
</g>
<!-- Node28 -->
<g id="node28" class="node"><title>Node28</title>
<g id="a_node28"><a xlink:href="math_8F90.html#a692155d1d2ec380a9fdb2d81ef221625" target="_top" xlink:title="blank a string ">
<polygon fill="white" stroke="black" points="426.5,-323.5 426.5,-342.5 467.5,-342.5 467.5,-323.5 426.5,-323.5"/>
<text text-anchor="middle" x="447" y="-330.5" font-family="Helvetica,sans-Serif" font-size="10.00">blank</text>
</a>
</g>
</g>
<!-- Node27&#45;&gt;Node28 -->
<g id="edge30" class="edge"><title>Node27&#45;&gt;Node28</title>
<path fill="none" stroke="midnightblue" d="M332.086,-333C355.9,-333 391.381,-333 416.404,-333"/>
<polygon fill="midnightblue" stroke="midnightblue" points="416.424,-336.5 426.424,-333 416.424,-329.5 416.424,-336.5"/>
</g>
<!-- Node29&#45;&gt;Node11 -->
<g id="edge35" class="edge"><title>Node29&#45;&gt;Node11</title>
<path fill="none" stroke="midnightblue" d="M162.582,-171.311C174.998,-150.865 207.142,-103.733 249,-86 295.244,-66.4093 314.305,-70.2681 362,-86 384.833,-93.5314 510.226,-191.966 559.555,-231.108"/>
<polygon fill="midnightblue" stroke="midnightblue" points="557.573,-234.003 567.58,-237.485 561.928,-228.523 557.573,-234.003"/>
</g>
<!-- Node29&#45;&gt;Node13 -->
<g id="edge39" class="edge"><title>Node29&#45;&gt;Node13</title>
<path fill="none" stroke="midnightblue" d="M170.477,-190.703C187.936,-202.948 219.622,-224.088 249,-238 256.722,-241.657 265.343,-244.957 273.444,-247.742"/>
<polygon fill="midnightblue" stroke="midnightblue" points="272.38,-251.076 282.973,-250.873 274.565,-244.426 272.38,-251.076"/>
</g>
<!-- Node29&#45;&gt;Node15 -->
<g id="edge40" class="edge"><title>Node29&#45;&gt;Node15</title>
<path fill="none" stroke="midnightblue" d="M194.22,-190.589C218.939,-196.957 250.983,-205.213 274.153,-211.182"/>
<polygon fill="midnightblue" stroke="midnightblue" points="273.56,-214.643 284.117,-213.749 275.306,-207.864 273.56,-214.643"/>
</g>
<!-- Node29&#45;&gt;Node16 -->
<g id="edge36" class="edge"><title>Node29&#45;&gt;Node16</title>
<path fill="none" stroke="midnightblue" d="M160.417,-171.203C169.832,-145.931 198.835,-78.7224 249,-53 304.899,-24.3378 380.329,-52.7625 419.66,-71.835"/>
<polygon fill="midnightblue" stroke="midnightblue" points="418.34,-75.0884 428.848,-76.4421 421.477,-68.831 418.34,-75.0884"/>
</g>
<!-- Node29&#45;&gt;Node27 -->
<g id="edge41" class="edge"><title>Node29&#45;&gt;Node27</title>
<path fill="none" stroke="midnightblue" d="M166.566,-190.63C177.758,-201.921 196.818,-221.227 213,-238 229.153,-254.743 232.885,-259.221 249,-276 261.934,-289.467 276.685,-304.606 287.727,-315.896"/>
<polygon fill="midnightblue" stroke="midnightblue" points="285.535,-318.66 295.032,-323.357 290.537,-313.763 285.535,-318.66"/>
</g>
<!-- Node30 -->
<g id="node30" class="node"><title>Node30</title>
<g id="a_node30"><a xlink:href="prepost_8F90.html#a5802584ce57124068d1ee183348e3275" target="_top" xlink:title="copy4r">
<polygon fill="white" stroke="black" points="281,-133.5 281,-152.5 330,-152.5 330,-133.5 281,-133.5"/>
<text text-anchor="middle" x="305.5" y="-140.5" font-family="Helvetica,sans-Serif" font-size="10.00">copy4r</text>
</a>
</g>
</g>
<!-- Node29&#45;&gt;Node30 -->
<g id="edge37" class="edge"><title>Node29&#45;&gt;Node30</title>
<path fill="none" stroke="midnightblue" d="M194.22,-171.411C217.755,-165.348 247.93,-157.574 270.764,-151.691"/>
<polygon fill="midnightblue" stroke="midnightblue" points="271.878,-155.019 280.689,-149.134 270.132,-148.24 271.878,-155.019"/>
</g>
<!-- Node31 -->
<g id="node31" class="node"><title>Node31</title>
<g id="a_node31"><a xlink:href="math_8F90.html#a3b43508554f14bdea8e14473d7d0803c" target="_top" xlink:title="copy">
<polygon fill="white" stroke="black" points="286,-95.5 286,-114.5 325,-114.5 325,-95.5 286,-95.5"/>
<text text-anchor="middle" x="305.5" y="-102.5" font-family="Helvetica,sans-Serif" font-size="10.00">copy</text>
</a>
</g>
</g>
<!-- Node29&#45;&gt;Node31 -->
<g id="edge38" class="edge"><title>Node29&#45;&gt;Node31</title>
<path fill="none" stroke="midnightblue" d="M170.477,-171.297C187.936,-159.052 219.622,-137.912 249,-124 257.627,-119.915 267.377,-116.274 276.27,-113.3"/>
<polygon fill="midnightblue" stroke="midnightblue" points="277.384,-116.618 285.842,-110.237 275.251,-109.951 277.384,-116.618"/>
</g>
<!-- Node32&#45;&gt;Node11 -->
<g id="edge43" class="edge"><title>Node32&#45;&gt;Node11</title>
<path fill="none" stroke="midnightblue" d="M194.331,-266.509C210.947,-270.274 230.828,-274.143 249,-276 358.209,-287.159 387.752,-294.263 496,-276 513.999,-272.963 533.298,-266.488 548.804,-260.425"/>
<polygon fill="midnightblue" stroke="midnightblue" points="550.439,-263.539 558.394,-256.54 547.811,-257.051 550.439,-263.539"/>
</g>
<!-- Node32&#45;&gt;Node13 -->
<g id="edge47" class="edge"><title>Node32&#45;&gt;Node13</title>
<path fill="none" stroke="midnightblue" d="M211.086,-257C231.746,-257 254.626,-257 272.572,-257"/>
<polygon fill="midnightblue" stroke="midnightblue" points="272.778,-260.5 282.778,-257 272.778,-253.5 272.778,-260.5"/>
</g>
<!-- Node32&#45;&gt;Node15 -->
<g id="edge48" class="edge"><title>Node32&#45;&gt;Node15</title>
<path fill="none" stroke="midnightblue" d="M194.22,-247.411C218.939,-241.043 250.983,-232.787 274.153,-226.818"/>
<polygon fill="midnightblue" stroke="midnightblue" points="275.306,-230.136 284.117,-224.251 273.56,-223.357 275.306,-230.136"/>
</g>
<!-- Node32&#45;&gt;Node16 -->
<g id="edge44" class="edge"><title>Node32&#45;&gt;Node16</title>
<path fill="none" stroke="midnightblue" d="M170.164,-247.484C187.545,-235.245 219.414,-213.912 249,-200 296.949,-177.453 316.281,-188.783 362,-162 389.27,-146.025 415.404,-120.158 431.082,-103.113"/>
<polygon fill="midnightblue" stroke="midnightblue" points="433.812,-105.311 437.898,-95.5359 428.608,-100.63 433.812,-105.311"/>
</g>
<!-- Node32&#45;&gt;Node27 -->
<g id="edge49" class="edge"><title>Node32&#45;&gt;Node27</title>
<path fill="none" stroke="midnightblue" d="M172.679,-266.54C190.772,-277.389 221.563,-295.362 249,-309 256.205,-312.581 264.07,-316.169 271.554,-319.439"/>
<polygon fill="midnightblue" stroke="midnightblue" points="270.182,-322.659 280.752,-323.386 272.943,-316.226 270.182,-322.659"/>
</g>
<!-- Node32&#45;&gt;Node30 -->
<g id="edge45" class="edge"><title>Node32&#45;&gt;Node30</title>
<path fill="none" stroke="midnightblue" d="M166.624,-247.189C188.279,-225.172 239.678,-173.259 249,-167 255.863,-162.392 263.756,-158.348 271.395,-154.957"/>
<polygon fill="midnightblue" stroke="midnightblue" points="272.958,-158.097 280.84,-151.017 270.263,-151.637 272.958,-158.097"/>
</g>
<!-- Node32&#45;&gt;Node31 -->
<g id="edge46" class="edge"><title>Node32&#45;&gt;Node31</title>
<path fill="none" stroke="midnightblue" d="M168.453,-247.434C180.657,-236.801 199.977,-218.655 213,-200 234.395,-169.354 221.127,-148.9 249,-124 256.53,-117.273 266.551,-112.907 276.005,-110.082"/>
<polygon fill="midnightblue" stroke="midnightblue" points="277.058,-113.426 285.896,-107.582 275.343,-106.639 277.058,-113.426"/>
</g>
</g>
</svg>
