<?xml version="1.0" encoding="UTF-8" standalone="no"?>
<!DOCTYPE svg PUBLIC "-//W3C//DTD SVG 1.1//EN"
 "http://www.w3.org/Graphics/SVG/1.1/DTD/svg11.dtd">
<!-- Generated by graphviz version 2.38.0 (20140413.2041)
 -->
<!-- Title: helmholtz::gensh Pages: 1 -->
<!--zoomable 1187 -->
<svg id="main" version="1.1" xmlns="http://www.w3.org/2000/svg" xmlns:xlink="http://www.w3.org/1999/xlink" xml:space="preserve" onload="init(evt)">
<style type="text/css"><![CDATA[
.edge:hover path { stroke: red; }
.edge:hover polygon { stroke: red; fill: red; }
]]></style>
<script type="text/javascript"><![CDATA[
var edges = document.getElementsByTagName('g');
if (edges && edges.length) {
  for (var i=0;i<edges.length;i++) {
    if (edges[i].id.substr(0,4)=='edge') {
      edges[i].setAttribute('class','edge');
    }
  }
}
]]></script>
        <defs>
                <circle id="rim" cx="0" cy="0" r="7"/>
                <circle id="rim2" cx="0" cy="0" r="3.5"/>
                <g id="zoomPlus">
                        <use xlink:href="#rim" fill="#404040">
                                <set attributeName="fill" to="#808080" begin="zoomplus.mouseover" end="zoomplus.mouseout"/>
                        </use>
                        <path d="M-4,0h8M0,-4v8" fill="none" stroke="white" stroke-width="1.5" pointer-events="none"/>
                </g>
                <g id="zoomMin">
                        <use xlink:href="#rim" fill="#404040">
                                <set attributeName="fill" to="#808080" begin="zoomminus.mouseover" end="zoomminus.mouseout"/>
                        </use>
                        <path d="M-4,0h8" fill="none" stroke="white" stroke-width="1.5" pointer-events="none"/>
                </g>
                <g id="dirArrow">
                        <path fill="none" stroke="white" stroke-width="1.5" d="M0,-3.0v7 M-2.5,-0.5L0,-3.0L2.5,-0.5"/>
                </g>
               <g id="resetDef">
                       <use xlink:href="#rim2" fill="#404040">
                               <set attributeName="fill" to="#808080" begin="reset.mouseover" end="reset.mouseout"/>
                       </use>
               </g>
        </defs>

<script type="text/javascript">
var viewWidth = 734;
var viewHeight = 1187;
var sectionId = 'dynsection-0';
</script>
<script xlink:href="svgpan.js"/>
<svg id="graph" class="graph">
<g id="viewport">
<title>helmholtz::gensh</title>
<polygon fill="white" stroke="none" points="-4,4 -4,-1183 730,-1183 730,4 -4,4"/>
<!-- Node1 -->
<g id="node1" class="node"><title>Node1</title>
<polygon fill="#bfbfbf" stroke="black" points="0,-380.5 0,-399.5 95,-399.5 95,-380.5 0,-380.5"/>
<text text-anchor="middle" x="47.5" y="-387.5" font-family="Helvetica,sans-Serif" font-size="10.00">helmholtz::gensh</text>
</g>
<!-- Node2 -->
<g id="node2" class="node"><title>Node2</title>
<g id="a_node2"><a xlink:href="math_8F90.html#a3b43508554f14bdea8e14473d7d0803c" target="_top" xlink:title="copy">
<polygon fill="white" stroke="black" points="366.5,-323.5 366.5,-342.5 405.5,-342.5 405.5,-323.5 366.5,-323.5"/>
<text text-anchor="middle" x="386" y="-330.5" font-family="Helvetica,sans-Serif" font-size="10.00">copy</text>
</a>
</g>
</g>
<!-- Node1&#45;&gt;Node2 -->
<g id="edge1" class="edge"><title>Node1&#45;&gt;Node2</title>
<path fill="none" stroke="midnightblue" d="M95.1521,-394.24C130.506,-396.433 180.147,-397.319 223,-390 271.531,-381.711 324.857,-360.4 356.6,-346.314"/>
<polygon fill="midnightblue" stroke="midnightblue" points="358.439,-349.324 366.114,-342.021 355.559,-342.944 358.439,-349.324"/>
</g>
<!-- Node3 -->
<g id="node3" class="node"><title>Node3</title>
<g id="a_node3"><a xlink:href="classhelmholtz.html#a9609e49232b58a6deb40ed82508c0a45" target="_top" xlink:title="Update the k&#45;th row/column of H_red. ">
<polygon fill="white" stroke="black" points="131,-361.5 131,-380.5 223,-380.5 223,-361.5 131,-361.5"/>
<text text-anchor="middle" x="177" y="-368.5" font-family="Helvetica,sans-Serif" font-size="10.00">helmholtz::hconj</text>
</a>
</g>
</g>
<!-- Node1&#45;&gt;Node3 -->
<g id="edge2" class="edge"><title>Node1&#45;&gt;Node3</title>
<path fill="none" stroke="midnightblue" d="M95.2523,-383.033C103.63,-381.785 112.43,-380.473 121.014,-379.194"/>
<polygon fill="midnightblue" stroke="midnightblue" points="121.578,-382.649 130.953,-377.713 120.546,-375.725 121.578,-382.649"/>
</g>
<!-- Node4 -->
<g id="node4" class="node"><title>Node4</title>
<g id="a_node4"><a xlink:href="classctimer.html#abcecbc845c8ee72e13a19eaa30b80d77" target="_top" xlink:title="ctimer::dnekclock">
<polygon fill="white" stroke="black" points="493,-361.5 493,-380.5 590,-380.5 590,-361.5 493,-361.5"/>
<text text-anchor="middle" x="541.5" y="-368.5" font-family="Helvetica,sans-Serif" font-size="10.00">ctimer::dnekclock</text>
</a>
</g>
</g>
<!-- Node3&#45;&gt;Node4 -->
<g id="edge3" class="edge"><title>Node3&#45;&gt;Node4</title>
<path fill="none" stroke="midnightblue" d="M182.589,-380.65C192.889,-401.022 220.034,-448.017 259,-466 293.41,-481.881 403.871,-465.978 427,-451 452.784,-434.302 438.43,-410.438 463,-392 468.979,-387.513 475.854,-383.985 482.987,-381.21"/>
<polygon fill="midnightblue" stroke="midnightblue" points="484.469,-384.403 492.813,-377.874 482.219,-377.774 484.469,-384.403"/>
</g>
<!-- Node6 -->
<g id="node6" class="node"><title>Node6</title>
<g id="a_node6"><a xlink:href="hmholtz_8F90.html#aa576b5bd623cce50fd6323db12ba5376" target="_top" xlink:title="Compute the (Helmholtz) matrix&#45;vector product, AU = helm1*[A]u + helm2*[B]u, for NEL elements...">
<polygon fill="white" stroke="black" points="259,-437.5 259,-456.5 309,-456.5 309,-437.5 259,-437.5"/>
<text text-anchor="middle" x="284" y="-444.5" font-family="Helvetica,sans-Serif" font-size="10.00">axhelm</text>
</a>
</g>
</g>
<!-- Node3&#45;&gt;Node6 -->
<g id="edge5" class="edge"><title>Node3&#45;&gt;Node6</title>
<path fill="none" stroke="midnightblue" d="M191.298,-380.625C208.971,-393.417 240.412,-416.175 261.484,-431.427"/>
<polygon fill="midnightblue" stroke="midnightblue" points="259.657,-434.425 269.81,-437.453 263.761,-428.754 259.657,-434.425"/>
</g>
<!-- Node37 -->
<g id="node37" class="node"><title>Node37</title>
<g id="a_node37"><a xlink:href="dssum_8F90.html#a0b9da6f19f8f42c7aa2fd9ca723a63ef" target="_top" xlink:title="Direct stiffness sum. ">
<polygon fill="white" stroke="black" points="362.5,-361.5 362.5,-380.5 409.5,-380.5 409.5,-361.5 362.5,-361.5"/>
<text text-anchor="middle" x="386" y="-368.5" font-family="Helvetica,sans-Serif" font-size="10.00">dssum</text>
</a>
</g>
</g>
<!-- Node3&#45;&gt;Node37 -->
<g id="edge39" class="edge"><title>Node3&#45;&gt;Node37</title>
<path fill="none" stroke="midnightblue" d="M223.171,-371C262.09,-371 317.346,-371 352.17,-371"/>
<polygon fill="midnightblue" stroke="midnightblue" points="352.281,-374.5 362.281,-371 352.281,-367.5 352.281,-374.5"/>
</g>
<!-- Node40 -->
<g id="node40" class="node"><title>Node40</title>
<g id="a_node40"><a xlink:href="comm__mpi_8F90.html#a3f652605d55796462e959d17b5a9612b" target="_top" xlink:title="Global vector commutative operation. ">
<polygon fill="white" stroke="black" points="266.5,-266.5 266.5,-285.5 301.5,-285.5 301.5,-266.5 266.5,-266.5"/>
<text text-anchor="middle" x="284" y="-273.5" font-family="Helvetica,sans-Serif" font-size="10.00">gop</text>
</a>
</g>
</g>
<!-- Node3&#45;&gt;Node40 -->
<g id="edge43" class="edge"><title>Node3&#45;&gt;Node40</title>
<path fill="none" stroke="midnightblue" d="M188.841,-361.191C206.776,-344.965 242.811,-312.362 264.731,-292.529"/>
<polygon fill="midnightblue" stroke="midnightblue" points="267.307,-294.919 272.374,-285.614 262.61,-289.728 267.307,-294.919"/>
</g>
<!-- Node5 -->
<g id="node5" class="node"><title>Node5</title>
<g id="a_node5"><a xlink:href="mpi__dummy_8F90.html#ae6a5ef945f87c2c27849696b70f3af2a" target="_top" xlink:title="mpi_wtime">
<polygon fill="white" stroke="black" points="658,-361.5 658,-380.5 724,-380.5 724,-361.5 658,-361.5"/>
<text text-anchor="middle" x="691" y="-368.5" font-family="Helvetica,sans-Serif" font-size="10.00">mpi_wtime</text>
</a>
</g>
</g>
<!-- Node4&#45;&gt;Node5 -->
<g id="edge4" class="edge"><title>Node4&#45;&gt;Node5</title>
<path fill="none" stroke="midnightblue" d="M590.389,-371C608.812,-371 629.701,-371 647.575,-371"/>
<polygon fill="midnightblue" stroke="midnightblue" points="647.709,-374.5 657.709,-371 647.709,-367.5 647.709,-374.5"/>
</g>
<!-- Node6&#45;&gt;Node4 -->
<g id="edge6" class="edge"><title>Node6&#45;&gt;Node4</title>
<path fill="none" stroke="midnightblue" d="M309.083,-448.07C338.353,-448.429 388.586,-445.966 427,-428 446.661,-418.804 444.176,-405.806 463,-395 470.722,-390.567 479.355,-386.86 487.979,-383.791"/>
<polygon fill="midnightblue" stroke="midnightblue" points="489.266,-387.052 497.663,-380.592 487.07,-380.406 489.266,-387.052"/>
</g>
<!-- Node7 -->
<g id="node7" class="node"><title>Node7</title>
<g id="a_node7"><a xlink:href="mxm__wrapper_8F90.html#ab9ec2260a10061af6ce1c52f3c8a41da" target="_top" xlink:title="Compute matrix&#45;matrix product C = A*B. ">
<polygon fill="white" stroke="black" points="367,-513.5 367,-532.5 405,-532.5 405,-513.5 367,-513.5"/>
<text text-anchor="middle" x="386" y="-520.5" font-family="Helvetica,sans-Serif" font-size="10.00">mxm</text>
</a>
</g>
</g>
<!-- Node6&#45;&gt;Node7 -->
<g id="edge7" class="edge"><title>Node6&#45;&gt;Node7</title>
<path fill="none" stroke="midnightblue" d="M297.665,-456.625C314.421,-469.36 344.173,-491.972 364.239,-507.222"/>
<polygon fill="midnightblue" stroke="midnightblue" points="362.358,-510.188 372.438,-513.453 366.594,-504.615 362.358,-510.188"/>
</g>
<!-- Node36 -->
<g id="node36" class="node"><title>Node36</title>
<g id="a_node36"><a xlink:href="hmholtz_8F90.html#a0f322d39d4bdffa3f9ba901f72d4a1d0" target="_top" xlink:title="Set logicals for fast evaluation of A*x. ">
<polygon fill="white" stroke="black" points="362,-399.5 362,-418.5 410,-418.5 410,-399.5 362,-399.5"/>
<text text-anchor="middle" x="386" y="-406.5" font-family="Helvetica,sans-Serif" font-size="10.00">setfast</text>
</a>
</g>
</g>
<!-- Node6&#45;&gt;Node36 -->
<g id="edge37" class="edge"><title>Node6&#45;&gt;Node36</title>
<path fill="none" stroke="midnightblue" d="M309.207,-437.801C322.045,-432.923 338.007,-426.857 351.966,-421.553"/>
<polygon fill="midnightblue" stroke="midnightblue" points="353.6,-424.676 361.704,-417.852 351.113,-418.133 353.6,-424.676"/>
</g>
<!-- Node8 -->
<g id="node8" class="node"><title>Node8</title>
<g id="a_node8"><a xlink:href="mxm__std_8F90.html#ac63fe7516a18dc57dfe913ad2c1453be" target="_top" xlink:title="mxm44_0">
<polygon fill="white" stroke="black" points="660,-399.5 660,-418.5 722,-418.5 722,-399.5 660,-399.5"/>
<text text-anchor="middle" x="691" y="-406.5" font-family="Helvetica,sans-Serif" font-size="10.00">mxm44_0</text>
</a>
</g>
</g>
<!-- Node7&#45;&gt;Node8 -->
<g id="edge8" class="edge"><title>Node7&#45;&gt;Node8</title>
<path fill="none" stroke="midnightblue" d="M405.267,-514.847C412.69,-510.867 420.929,-505.519 427,-499 451.112,-473.108 433.651,-447.758 463,-428 518.931,-390.347 601.045,-394.419 649.66,-401.34"/>
<polygon fill="midnightblue" stroke="midnightblue" points="649.382,-404.838 659.797,-402.895 650.443,-397.919 649.382,-404.838"/>
</g>
<!-- Node9 -->
<g id="node9" class="node"><title>Node9</title>
<g id="a_node9"><a xlink:href="mxm__std_8F90.html#af07f4b22fdc3488ca321736743f14b01" target="_top" xlink:title="mxm44_2">
<polygon fill="white" stroke="black" points="510.5,-627.5 510.5,-646.5 572.5,-646.5 572.5,-627.5 510.5,-627.5"/>
<text text-anchor="middle" x="541.5" y="-634.5" font-family="Helvetica,sans-Serif" font-size="10.00">mxm44_2</text>
</a>
</g>
</g>
<!-- Node7&#45;&gt;Node9 -->
<g id="edge9" class="edge"><title>Node7&#45;&gt;Node9</title>
<path fill="none" stroke="midnightblue" d="M391.817,-532.538C402.094,-551.87 428.108,-595.722 463,-618 474.148,-625.118 487.761,-629.569 500.449,-632.353"/>
<polygon fill="midnightblue" stroke="midnightblue" points="499.882,-635.808 510.361,-634.247 501.196,-628.932 499.882,-635.808"/>
</g>
<!-- Node10 -->
<g id="node10" class="node"><title>Node10</title>
<g id="a_node10"><a xlink:href="mxm__bgq_8F90.html#a8a70163b4dbfdbfcce7bff170597fcad" target="_top" xlink:title="mxm_bgq_10">
<polygon fill="white" stroke="black" points="501.5,-589.5 501.5,-608.5 581.5,-608.5 581.5,-589.5 501.5,-589.5"/>
<text text-anchor="middle" x="541.5" y="-596.5" font-family="Helvetica,sans-Serif" font-size="10.00">mxm_bgq_10</text>
</a>
</g>
</g>
<!-- Node7&#45;&gt;Node10 -->
<g id="edge10" class="edge"><title>Node7&#45;&gt;Node10</title>
<path fill="none" stroke="midnightblue" d="M396.94,-532.583C410.679,-545.299 436.761,-567.584 463,-580 471.829,-584.178 481.674,-587.495 491.305,-590.11"/>
<polygon fill="midnightblue" stroke="midnightblue" points="490.662,-593.557 501.212,-592.587 492.36,-586.766 490.662,-593.557"/>
</g>
<!-- Node11 -->
<g id="node11" class="node"><title>Node11</title>
<g id="a_node11"><a xlink:href="mxm__bgq_8F90.html#a27529ace9834454b8906f29e02718629" target="_top" xlink:title="mxm_bgq_12">
<polygon fill="white" stroke="black" points="501.5,-551.5 501.5,-570.5 581.5,-570.5 581.5,-551.5 501.5,-551.5"/>
<text text-anchor="middle" x="541.5" y="-558.5" font-family="Helvetica,sans-Serif" font-size="10.00">mxm_bgq_12</text>
</a>
</g>
</g>
<!-- Node7&#45;&gt;Node11 -->
<g id="edge11" class="edge"><title>Node7&#45;&gt;Node11</title>
<path fill="none" stroke="midnightblue" d="M405.114,-527.553C420.508,-531.417 443.197,-537.097 463,-542 472.282,-544.298 482.192,-546.738 491.718,-549.076"/>
<polygon fill="midnightblue" stroke="midnightblue" points="490.917,-552.484 501.463,-551.466 492.584,-545.685 490.917,-552.484"/>
</g>
<!-- Node12 -->
<g id="node12" class="node"><title>Node12</title>
<g id="a_node12"><a xlink:href="mxm__bgq_8F90.html#a3fda9ea4bc7a5713a19d6939fa2b541f" target="_top" xlink:title="mxm_bgq_16">
<polygon fill="white" stroke="black" points="501.5,-513.5 501.5,-532.5 581.5,-532.5 581.5,-513.5 501.5,-513.5"/>
<text text-anchor="middle" x="541.5" y="-520.5" font-family="Helvetica,sans-Serif" font-size="10.00">mxm_bgq_16</text>
</a>
</g>
</g>
<!-- Node7&#45;&gt;Node12 -->
<g id="edge12" class="edge"><title>Node7&#45;&gt;Node12</title>
<path fill="none" stroke="midnightblue" d="M405.211,-523C426.31,-523 461.94,-523 491.339,-523"/>
<polygon fill="midnightblue" stroke="midnightblue" points="491.444,-526.5 501.444,-523 491.444,-519.5 491.444,-526.5"/>
</g>
<!-- Node13 -->
<g id="node13" class="node"><title>Node13</title>
<g id="a_node13"><a xlink:href="mxm__bgq_8F90.html#af192c3c8b982aa5bbc2a757156718a91" target="_top" xlink:title="mxm_bgq_6">
<polygon fill="white" stroke="black" points="504.5,-475.5 504.5,-494.5 578.5,-494.5 578.5,-475.5 504.5,-475.5"/>
<text text-anchor="middle" x="541.5" y="-482.5" font-family="Helvetica,sans-Serif" font-size="10.00">mxm_bgq_6</text>
</a>
</g>
</g>
<!-- Node7&#45;&gt;Node13 -->
<g id="edge13" class="edge"><title>Node7&#45;&gt;Node13</title>
<path fill="none" stroke="midnightblue" d="M405.114,-518.447C420.508,-514.583 443.197,-508.903 463,-504 473.191,-501.477 484.139,-498.783 494.504,-496.24"/>
<polygon fill="midnightblue" stroke="midnightblue" points="495.339,-499.639 504.218,-493.859 493.673,-492.84 495.339,-499.639"/>
</g>
<!-- Node14 -->
<g id="node14" class="node"><title>Node14</title>
<g id="a_node14"><a xlink:href="mxm__bgq_8F90.html#a8faaef428336095704ece51624bbfe92" target="_top" xlink:title="mxm_bgq_8">
<polygon fill="white" stroke="black" points="504.5,-437.5 504.5,-456.5 578.5,-456.5 578.5,-437.5 504.5,-437.5"/>
<text text-anchor="middle" x="541.5" y="-444.5" font-family="Helvetica,sans-Serif" font-size="10.00">mxm_bgq_8</text>
</a>
</g>
</g>
<!-- Node7&#45;&gt;Node14 -->
<g id="edge14" class="edge"><title>Node7&#45;&gt;Node14</title>
<path fill="none" stroke="midnightblue" d="M404.621,-513.456C411.776,-509.321 419.991,-504.232 427,-499 444.394,-486.017 443.861,-476.238 463,-466 472.627,-460.85 483.672,-457.071 494.349,-454.305"/>
<polygon fill="midnightblue" stroke="midnightblue" points="495.474,-457.637 504.415,-451.953 493.881,-450.821 495.474,-457.637"/>
</g>
<!-- Node15 -->
<g id="node15" class="node"><title>Node15</title>
<g id="a_node15"><a xlink:href="mxm__std_8F90.html#aa9e8685c4a72f18fb5d1ee88ed17a3d6" target="_top" xlink:title="unrolled loop version ">
<polygon fill="white" stroke="red" points="518,-760.5 518,-779.5 565,-779.5 565,-760.5 518,-760.5"/>
<text text-anchor="middle" x="541.5" y="-767.5" font-family="Helvetica,sans-Serif" font-size="10.00">mxmf2</text>
</a>
</g>
</g>
<!-- Node7&#45;&gt;Node15 -->
<g id="edge15" class="edge"><title>Node7&#45;&gt;Node15</title>
<path fill="none" stroke="midnightblue" d="M392.097,-532.5C403.985,-554.526 434.692,-610.657 463,-656 484.625,-690.638 511.851,-729.745 527.606,-751.977"/>
<polygon fill="midnightblue" stroke="midnightblue" points="524.956,-754.291 533.606,-760.409 530.66,-750.232 524.956,-754.291"/>
</g>
<!-- Node15&#45;&gt;Node8 -->
<g id="edge36" class="edge"><title>Node15&#45;&gt;Node8</title>
<path fill="none" stroke="midnightblue" d="M551.183,-760.489C567.586,-741.933 603.004,-698.948 620,-656 657.75,-560.609 597.323,-512.151 656,-428 656.74,-426.939 657.559,-425.931 658.441,-424.973"/>
<polygon fill="midnightblue" stroke="midnightblue" points="660.693,-427.653 666.177,-418.588 656.237,-422.254 660.693,-427.653"/>
</g>
<!-- Node16 -->
<g id="node16" class="node"><title>Node16</title>
<g id="a_node16"><a xlink:href="mxm__std_8F90.html#a7d3ac03517b3934b98857b22f7f78788" target="_top" xlink:title="mxf1">
<polygon fill="white" stroke="black" points="671.5,-703.5 671.5,-722.5 710.5,-722.5 710.5,-703.5 671.5,-703.5"/>
<text text-anchor="middle" x="691" y="-710.5" font-family="Helvetica,sans-Serif" font-size="10.00">mxf1</text>
</a>
</g>
</g>
<!-- Node15&#45;&gt;Node16 -->
<g id="edge16" class="edge"><title>Node15&#45;&gt;Node16</title>
<path fill="none" stroke="midnightblue" d="M565.224,-761.219C591.133,-751.206 633.524,-734.825 661.594,-723.977"/>
<polygon fill="midnightblue" stroke="midnightblue" points="663.164,-727.123 671.23,-720.253 660.641,-720.593 663.164,-727.123"/>
</g>
<!-- Node17 -->
<g id="node17" class="node"><title>Node17</title>
<g id="a_node17"><a xlink:href="mxm__std_8F90.html#a5786b175fcbe28ecafe1d878687c3ccf" target="_top" xlink:title="mxf10">
<polygon fill="white" stroke="black" points="668.5,-665.5 668.5,-684.5 713.5,-684.5 713.5,-665.5 668.5,-665.5"/>
<text text-anchor="middle" x="691" y="-672.5" font-family="Helvetica,sans-Serif" font-size="10.00">mxf10</text>
</a>
</g>
</g>
<!-- Node15&#45;&gt;Node17 -->
<g id="edge17" class="edge"><title>Node15&#45;&gt;Node17</title>
<path fill="none" stroke="midnightblue" d="M556.244,-760.274C577.359,-745.451 619.201,-716.552 656,-694 658.351,-692.559 660.816,-691.095 663.299,-689.652"/>
<polygon fill="midnightblue" stroke="midnightblue" points="665.233,-692.579 672.197,-684.595 661.774,-686.493 665.233,-692.579"/>
</g>
<!-- Node18 -->
<g id="node18" class="node"><title>Node18</title>
<g id="a_node18"><a xlink:href="mxm__std_8F90.html#a244c7a41b5b7a22acba71c34552c2774" target="_top" xlink:title="mxf11">
<polygon fill="white" stroke="black" points="668.5,-627.5 668.5,-646.5 713.5,-646.5 713.5,-627.5 668.5,-627.5"/>
<text text-anchor="middle" x="691" y="-634.5" font-family="Helvetica,sans-Serif" font-size="10.00">mxf11</text>
</a>
</g>
</g>
<!-- Node15&#45;&gt;Node18 -->
<g id="edge18" class="edge"><title>Node15&#45;&gt;Node18</title>
<path fill="none" stroke="midnightblue" d="M550.552,-760.24C568.135,-739.332 611.931,-689.404 656,-656 657.839,-654.606 659.792,-653.246 661.795,-651.936"/>
<polygon fill="midnightblue" stroke="midnightblue" points="663.955,-654.721 670.71,-646.559 660.339,-648.727 663.955,-654.721"/>
</g>
<!-- Node19 -->
<g id="node19" class="node"><title>Node19</title>
<g id="a_node19"><a xlink:href="mxm__std_8F90.html#afb2e2cde9040ab037e3586b0deef3851" target="_top" xlink:title="mxf12">
<polygon fill="white" stroke="black" points="668.5,-589.5 668.5,-608.5 713.5,-608.5 713.5,-589.5 668.5,-589.5"/>
<text text-anchor="middle" x="691" y="-596.5" font-family="Helvetica,sans-Serif" font-size="10.00">mxf12</text>
</a>
</g>
</g>
<!-- Node15&#45;&gt;Node19 -->
<g id="edge19" class="edge"><title>Node15&#45;&gt;Node19</title>
<path fill="none" stroke="midnightblue" d="M549.079,-760.112C569.137,-730.149 629.743,-641.006 656,-618 657.526,-616.663 659.161,-615.379 660.859,-614.153"/>
<polygon fill="midnightblue" stroke="midnightblue" points="663.109,-616.869 669.655,-608.538 659.343,-610.968 663.109,-616.869"/>
</g>
<!-- Node20 -->
<g id="node20" class="node"><title>Node20</title>
<g id="a_node20"><a xlink:href="mxm__std_8F90.html#a6a048a62b47a5c2327279e158c1689df" target="_top" xlink:title="mxf13">
<polygon fill="white" stroke="black" points="668.5,-551.5 668.5,-570.5 713.5,-570.5 713.5,-551.5 668.5,-551.5"/>
<text text-anchor="middle" x="691" y="-558.5" font-family="Helvetica,sans-Serif" font-size="10.00">mxf13</text>
</a>
</g>
</g>
<!-- Node15&#45;&gt;Node20 -->
<g id="edge20" class="edge"><title>Node15&#45;&gt;Node20</title>
<path fill="none" stroke="midnightblue" d="M549.878,-760.27C564.325,-740.987 596.942,-696.298 620,-656 638.562,-623.559 630.474,-607.302 656,-580 657.206,-578.71 658.521,-577.485 659.908,-576.325"/>
<polygon fill="midnightblue" stroke="midnightblue" points="662.208,-578.989 668.416,-570.403 658.209,-573.244 662.208,-578.989"/>
</g>
<!-- Node21 -->
<g id="node21" class="node"><title>Node21</title>
<g id="a_node21"><a xlink:href="mxm__std_8F90.html#a6e57628b882cb8bcac215e9a5b523eed" target="_top" xlink:title="mxf14">
<polygon fill="white" stroke="black" points="668.5,-513.5 668.5,-532.5 713.5,-532.5 713.5,-513.5 668.5,-513.5"/>
<text text-anchor="middle" x="691" y="-520.5" font-family="Helvetica,sans-Serif" font-size="10.00">mxf14</text>
</a>
</g>
</g>
<!-- Node15&#45;&gt;Node21 -->
<g id="edge21" class="edge"><title>Node15&#45;&gt;Node21</title>
<path fill="none" stroke="midnightblue" d="M550.609,-760.237C566.033,-741.251 599.848,-697.561 620,-656 643.181,-608.191 622.444,-583.196 656,-542 657.249,-540.466 658.657,-539.035 660.17,-537.703"/>
<polygon fill="midnightblue" stroke="midnightblue" points="662.266,-540.507 668.377,-531.852 658.203,-534.808 662.266,-540.507"/>
</g>
<!-- Node22 -->
<g id="node22" class="node"><title>Node22</title>
<g id="a_node22"><a xlink:href="mxm__std_8F90.html#a02e79201be026faf756be00e58334c4f" target="_top" xlink:title="mxf15">
<polygon fill="white" stroke="black" points="668.5,-475.5 668.5,-494.5 713.5,-494.5 713.5,-475.5 668.5,-475.5"/>
<text text-anchor="middle" x="691" y="-482.5" font-family="Helvetica,sans-Serif" font-size="10.00">mxf15</text>
</a>
</g>
</g>
<!-- Node15&#45;&gt;Node22 -->
<g id="edge22" class="edge"><title>Node15&#45;&gt;Node22</title>
<path fill="none" stroke="midnightblue" d="M550.889,-760.366C566.789,-741.6 601.385,-698.272 620,-656 647.979,-592.463 614.158,-559.398 656,-504 657.192,-502.422 658.556,-500.956 660.036,-499.598"/>
<polygon fill="midnightblue" stroke="midnightblue" points="662.137,-502.398 668.156,-493.679 658.013,-496.741 662.137,-502.398"/>
</g>
<!-- Node23 -->
<g id="node23" class="node"><title>Node23</title>
<g id="a_node23"><a xlink:href="mxm__std_8F90.html#a2fbea6eeadc258673ba8ea5708593aee" target="_top" xlink:title="mxf16">
<polygon fill="white" stroke="black" points="668.5,-437.5 668.5,-456.5 713.5,-456.5 713.5,-437.5 668.5,-437.5"/>
<text text-anchor="middle" x="691" y="-444.5" font-family="Helvetica,sans-Serif" font-size="10.00">mxf16</text>
</a>
</g>
</g>
<!-- Node15&#45;&gt;Node23 -->
<g id="edge23" class="edge"><title>Node15&#45;&gt;Node23</title>
<path fill="none" stroke="midnightblue" d="M551.063,-760.441C567.263,-741.803 602.347,-698.683 620,-656 652.847,-576.578 605.766,-535.738 656,-466 657.186,-464.354 658.56,-462.833 660.063,-461.43"/>
<polygon fill="midnightblue" stroke="midnightblue" points="662.354,-464.091 668.369,-455.369 658.228,-458.437 662.354,-464.091"/>
</g>
<!-- Node24 -->
<g id="node24" class="node"><title>Node24</title>
<g id="a_node24"><a xlink:href="mxm__std_8F90.html#a3829af481cd230e6aadef08feab9a278" target="_top" xlink:title="mxf17">
<polygon fill="white" stroke="black" points="668.5,-1159.5 668.5,-1178.5 713.5,-1178.5 713.5,-1159.5 668.5,-1159.5"/>
<text text-anchor="middle" x="691" y="-1166.5" font-family="Helvetica,sans-Serif" font-size="10.00">mxf17</text>
</a>
</g>
</g>
<!-- Node15&#45;&gt;Node24 -->
<g id="edge24" class="edge"><title>Node15&#45;&gt;Node24</title>
<path fill="none" stroke="midnightblue" d="M542.814,-779.738C544.794,-826.287 558.889,-1028.86 656,-1150 657.237,-1151.54 658.635,-1152.98 660.142,-1154.32"/>
<polygon fill="midnightblue" stroke="midnightblue" points="658.163,-1157.21 668.33,-1160.19 662.239,-1151.52 658.163,-1157.21"/>
</g>
<!-- Node25 -->
<g id="node25" class="node"><title>Node25</title>
<g id="a_node25"><a xlink:href="mxm__std_8F90.html#a48ed8195cc978a87c005b3306a974894" target="_top" xlink:title="mxf18">
<polygon fill="white" stroke="black" points="668.5,-1121.5 668.5,-1140.5 713.5,-1140.5 713.5,-1121.5 668.5,-1121.5"/>
<text text-anchor="middle" x="691" y="-1128.5" font-family="Helvetica,sans-Serif" font-size="10.00">mxf18</text>
</a>
</g>
</g>
<!-- Node15&#45;&gt;Node25 -->
<g id="edge25" class="edge"><title>Node15&#45;&gt;Node25</title>
<path fill="none" stroke="midnightblue" d="M543.192,-779.633C546.779,-823.155 566.712,-1004 656,-1112 657.26,-1113.52 658.676,-1114.95 660.196,-1116.28"/>
<polygon fill="midnightblue" stroke="midnightblue" points="658.239,-1119.18 668.42,-1122.11 662.291,-1113.47 658.239,-1119.18"/>
</g>
<!-- Node26 -->
<g id="node26" class="node"><title>Node26</title>
<g id="a_node26"><a xlink:href="mxm__std_8F90.html#a28a9857286e11804e1a97875028ecb09" target="_top" xlink:title="mxf19">
<polygon fill="white" stroke="black" points="668.5,-1083.5 668.5,-1102.5 713.5,-1102.5 713.5,-1083.5 668.5,-1083.5"/>
<text text-anchor="middle" x="691" y="-1090.5" font-family="Helvetica,sans-Serif" font-size="10.00">mxf19</text>
</a>
</g>
</g>
<!-- Node15&#45;&gt;Node26 -->
<g id="edge26" class="edge"><title>Node15&#45;&gt;Node26</title>
<path fill="none" stroke="midnightblue" d="M543.664,-779.64C549.01,-820.178 574.547,-979.095 656,-1074 657.151,-1075.34 658.42,-1076.61 659.773,-1077.8"/>
<polygon fill="midnightblue" stroke="midnightblue" points="658.007,-1080.84 668.175,-1083.81 662.083,-1075.14 658.007,-1080.84"/>
</g>
<!-- Node27 -->
<g id="node27" class="node"><title>Node27</title>
<g id="a_node27"><a xlink:href="mxm__std_8F90.html#acd223c583f3a9242fda7a1b8897b624d" target="_top" xlink:title="mxf2">
<polygon fill="white" stroke="black" points="671.5,-1045.5 671.5,-1064.5 710.5,-1064.5 710.5,-1045.5 671.5,-1045.5"/>
<text text-anchor="middle" x="691" y="-1052.5" font-family="Helvetica,sans-Serif" font-size="10.00">mxf2</text>
</a>
</g>
</g>
<!-- Node15&#45;&gt;Node27 -->
<g id="edge27" class="edge"><title>Node15&#45;&gt;Node27</title>
<path fill="none" stroke="midnightblue" d="M544.271,-779.682C551.548,-817.073 582.321,-954.041 656,-1036 657.992,-1038.22 660.305,-1040.23 662.771,-1042.05"/>
<polygon fill="midnightblue" stroke="midnightblue" points="661.152,-1045.17 671.491,-1047.48 664.853,-1039.22 661.152,-1045.17"/>
</g>
<!-- Node28 -->
<g id="node28" class="node"><title>Node28</title>
<g id="a_node28"><a xlink:href="mxm__std_8F90.html#af60059bd60847f48acdf6461fefa3b22" target="_top" xlink:title="mxf20">
<polygon fill="white" stroke="black" points="668.5,-1007.5 668.5,-1026.5 713.5,-1026.5 713.5,-1007.5 668.5,-1007.5"/>
<text text-anchor="middle" x="691" y="-1014.5" font-family="Helvetica,sans-Serif" font-size="10.00">mxf20</text>
</a>
</g>
</g>
<!-- Node15&#45;&gt;Node28 -->
<g id="edge28" class="edge"><title>Node15&#45;&gt;Node28</title>
<path fill="none" stroke="midnightblue" d="M545.12,-779.897C554.603,-814.082 590.095,-928.874 656,-998 657.219,-999.279 658.543,-1000.49 659.939,-1001.65"/>
<polygon fill="midnightblue" stroke="midnightblue" points="658.254,-1004.74 668.47,-1007.55 662.236,-998.979 658.254,-1004.74"/>
</g>
<!-- Node29 -->
<g id="node29" class="node"><title>Node29</title>
<g id="a_node29"><a xlink:href="mxm__std_8F90.html#a825db174c5643aef5e4cdf57067ebbbb" target="_top" xlink:title="mxf21">
<polygon fill="white" stroke="black" points="668.5,-969.5 668.5,-988.5 713.5,-988.5 713.5,-969.5 668.5,-969.5"/>
<text text-anchor="middle" x="691" y="-976.5" font-family="Helvetica,sans-Serif" font-size="10.00">mxf21</text>
</a>
</g>
</g>
<!-- Node15&#45;&gt;Node29 -->
<g id="edge29" class="edge"><title>Node15&#45;&gt;Node29</title>
<path fill="none" stroke="midnightblue" d="M546.228,-779.879C558.079,-810.188 597.575,-903.239 656,-960 657.267,-961.231 658.63,-962.409 660.055,-963.531"/>
<polygon fill="midnightblue" stroke="midnightblue" points="658.428,-966.655 668.677,-969.341 662.34,-960.85 658.428,-966.655"/>
</g>
<!-- Node30 -->
<g id="node30" class="node"><title>Node30</title>
<g id="a_node30"><a xlink:href="mxm__std_8F90.html#a1f2059cb835b2818aef861f2f59a0a72" target="_top" xlink:title="mxf22">
<polygon fill="white" stroke="black" points="668.5,-931.5 668.5,-950.5 713.5,-950.5 713.5,-931.5 668.5,-931.5"/>
<text text-anchor="middle" x="691" y="-938.5" font-family="Helvetica,sans-Serif" font-size="10.00">mxf22</text>
</a>
</g>
</g>
<!-- Node15&#45;&gt;Node30 -->
<g id="edge30" class="edge"><title>Node15&#45;&gt;Node30</title>
<path fill="none" stroke="midnightblue" d="M547.747,-779.637C562.162,-805.42 604.724,-877.073 656,-922 657.526,-923.337 659.161,-924.621 660.859,-925.847"/>
<polygon fill="midnightblue" stroke="midnightblue" points="659.343,-929.032 669.655,-931.462 663.109,-923.131 659.343,-929.032"/>
</g>
<!-- Node31 -->
<g id="node31" class="node"><title>Node31</title>
<g id="a_node31"><a xlink:href="mxm__std_8F90.html#a3dc6491b8d44b702dbbb13a01f887c59" target="_top" xlink:title="mxf23">
<polygon fill="white" stroke="black" points="668.5,-893.5 668.5,-912.5 713.5,-912.5 713.5,-893.5 668.5,-893.5"/>
<text text-anchor="middle" x="691" y="-900.5" font-family="Helvetica,sans-Serif" font-size="10.00">mxf23</text>
</a>
</g>
</g>
<!-- Node15&#45;&gt;Node31 -->
<g id="edge31" class="edge"><title>Node15&#45;&gt;Node31</title>
<path fill="none" stroke="midnightblue" d="M550.552,-779.76C568.135,-800.668 611.931,-850.596 656,-884 657.839,-885.394 659.792,-886.754 661.795,-888.064"/>
<polygon fill="midnightblue" stroke="midnightblue" points="660.339,-891.273 670.71,-893.441 663.955,-885.279 660.339,-891.273"/>
</g>
<!-- Node32 -->
<g id="node32" class="node"><title>Node32</title>
<g id="a_node32"><a xlink:href="mxm__std_8F90.html#af0752c9a61343489900f8d812c6980ed" target="_top" xlink:title="mxf24">
<polygon fill="white" stroke="black" points="668.5,-855.5 668.5,-874.5 713.5,-874.5 713.5,-855.5 668.5,-855.5"/>
<text text-anchor="middle" x="691" y="-862.5" font-family="Helvetica,sans-Serif" font-size="10.00">mxf24</text>
</a>
</g>
</g>
<!-- Node15&#45;&gt;Node32 -->
<g id="edge32" class="edge"><title>Node15&#45;&gt;Node32</title>
<path fill="none" stroke="midnightblue" d="M556.244,-779.726C577.359,-794.549 619.201,-823.448 656,-846 658.351,-847.441 660.816,-848.905 663.299,-850.348"/>
<polygon fill="midnightblue" stroke="midnightblue" points="661.774,-853.507 672.197,-855.405 665.233,-847.421 661.774,-853.507"/>
</g>
<!-- Node33 -->
<g id="node33" class="node"><title>Node33</title>
<g id="a_node33"><a xlink:href="mxm__std_8F90.html#abff718a387aa354f77d0e8b0ffa98867" target="_top" xlink:title="mxf3">
<polygon fill="white" stroke="black" points="671.5,-817.5 671.5,-836.5 710.5,-836.5 710.5,-817.5 671.5,-817.5"/>
<text text-anchor="middle" x="691" y="-824.5" font-family="Helvetica,sans-Serif" font-size="10.00">mxf3</text>
</a>
</g>
</g>
<!-- Node15&#45;&gt;Node33 -->
<g id="edge33" class="edge"><title>Node15&#45;&gt;Node33</title>
<path fill="none" stroke="midnightblue" d="M565.224,-778.781C591.133,-788.794 633.524,-805.175 661.594,-816.023"/>
<polygon fill="midnightblue" stroke="midnightblue" points="660.641,-819.407 671.23,-819.747 663.164,-812.877 660.641,-819.407"/>
</g>
<!-- Node34 -->
<g id="node34" class="node"><title>Node34</title>
<g id="a_node34"><a xlink:href="mxm__std_8F90.html#a2f4e4e1b4daebbd4d0580029d0f54016" target="_top" xlink:title="mxf4">
<polygon fill="white" stroke="black" points="671.5,-779.5 671.5,-798.5 710.5,-798.5 710.5,-779.5 671.5,-779.5"/>
<text text-anchor="middle" x="691" y="-786.5" font-family="Helvetica,sans-Serif" font-size="10.00">mxf4</text>
</a>
</g>
</g>
<!-- Node15&#45;&gt;Node34 -->
<g id="edge34" class="edge"><title>Node15&#45;&gt;Node34</title>
<path fill="none" stroke="midnightblue" d="M565.224,-772.927C591.02,-776.25 633.153,-781.677 661.224,-785.293"/>
<polygon fill="midnightblue" stroke="midnightblue" points="660.865,-788.776 671.23,-786.582 661.759,-781.833 660.865,-788.776"/>
</g>
<!-- Node35 -->
<g id="node35" class="node"><title>Node35</title>
<g id="a_node35"><a xlink:href="mxm__std_8F90.html#a5a6d5c31350c601ba8327b75a72cba0a" target="_top" xlink:title="mxf5">
<polygon fill="white" stroke="black" points="671.5,-741.5 671.5,-760.5 710.5,-760.5 710.5,-741.5 671.5,-741.5"/>
<text text-anchor="middle" x="691" y="-748.5" font-family="Helvetica,sans-Serif" font-size="10.00">mxf5</text>
</a>
</g>
</g>
<!-- Node15&#45;&gt;Node35 -->
<g id="edge35" class="edge"><title>Node15&#45;&gt;Node35</title>
<path fill="none" stroke="midnightblue" d="M565.224,-767.073C591.02,-763.75 633.153,-758.323 661.224,-754.707"/>
<polygon fill="midnightblue" stroke="midnightblue" points="661.759,-758.167 671.23,-753.418 660.865,-751.224 661.759,-758.167"/>
</g>
<!-- Node36&#45;&gt;Node4 -->
<g id="edge38" class="edge"><title>Node36&#45;&gt;Node4</title>
<path fill="none" stroke="midnightblue" d="M410.313,-403.229C431.975,-397.866 464.912,-389.712 492.235,-382.948"/>
<polygon fill="midnightblue" stroke="midnightblue" points="493.15,-386.327 502.016,-380.527 491.468,-379.533 493.15,-386.327"/>
</g>
<!-- Node37&#45;&gt;Node4 -->
<g id="edge40" class="edge"><title>Node37&#45;&gt;Node4</title>
<path fill="none" stroke="midnightblue" d="M409.649,-371C428.78,-371 457.035,-371 482.397,-371"/>
<polygon fill="midnightblue" stroke="midnightblue" points="482.685,-374.5 492.684,-371 482.684,-367.5 482.685,-374.5"/>
</g>
<!-- Node38 -->
<g id="node38" class="node"><title>Node38</title>
<g id="a_node38"><a xlink:href="comm__mpi_8F90.html#a4acb4d8e379294232e9219bec063d8f3" target="_top" xlink:title="nekgsync">
<polygon fill="white" stroke="black" points="510.5,-304.5 510.5,-323.5 572.5,-323.5 572.5,-304.5 510.5,-304.5"/>
<text text-anchor="middle" x="541.5" y="-311.5" font-family="Helvetica,sans-Serif" font-size="10.00">nekgsync</text>
</a>
</g>
</g>
<!-- Node37&#45;&gt;Node38 -->
<g id="edge41" class="edge"><title>Node37&#45;&gt;Node38</title>
<path fill="none" stroke="midnightblue" d="M409.649,-362.589C434.825,-353.241 475.8,-338.025 505.193,-327.111"/>
<polygon fill="midnightblue" stroke="midnightblue" points="506.522,-330.351 514.678,-323.589 504.085,-323.789 506.522,-330.351"/>
</g>
<!-- Node39 -->
<g id="node39" class="node"><title>Node39</title>
<g id="a_node39"><a xlink:href="mpi__dummy_8F90.html#a070afe564196eb48413dbf1a9fbc99aa" target="_top" xlink:title="mpi_barrier">
<polygon fill="white" stroke="black" points="656,-304.5 656,-323.5 726,-323.5 726,-304.5 656,-304.5"/>
<text text-anchor="middle" x="691" y="-311.5" font-family="Helvetica,sans-Serif" font-size="10.00">mpi_barrier</text>
</a>
</g>
</g>
<!-- Node38&#45;&gt;Node39 -->
<g id="edge42" class="edge"><title>Node38&#45;&gt;Node39</title>
<path fill="none" stroke="midnightblue" d="M572.705,-314C593.776,-314 622.236,-314 645.845,-314"/>
<polygon fill="midnightblue" stroke="midnightblue" points="645.967,-317.5 655.967,-314 645.967,-310.5 645.967,-317.5"/>
</g>
<!-- Node40&#45;&gt;Node2 -->
<g id="edge44" class="edge"><title>Node40&#45;&gt;Node2</title>
<path fill="none" stroke="midnightblue" d="M301.513,-285.412C317.197,-294.352 341.016,-307.929 359.203,-318.296"/>
<polygon fill="midnightblue" stroke="midnightblue" points="357.707,-321.472 368.128,-323.383 361.174,-315.39 357.707,-321.472"/>
</g>
<!-- Node40&#45;&gt;Node4 -->
<g id="edge45" class="edge"><title>Node40&#45;&gt;Node4</title>
<path fill="none" stroke="midnightblue" d="M301.566,-279.172C328.461,-284.599 383.043,-296.771 427,-314 443.844,-320.602 446.876,-324.794 463,-333 478.995,-341.14 496.986,-349.981 511.605,-357.085"/>
<polygon fill="midnightblue" stroke="midnightblue" points="510.145,-360.266 520.67,-361.478 513.197,-353.967 510.145,-360.266"/>
</g>
<!-- Node40&#45;&gt;Node38 -->
<g id="edge58" class="edge"><title>Node40&#45;&gt;Node38</title>
<path fill="none" stroke="midnightblue" d="M301.829,-274.792C328.636,-273.269 382.543,-271.847 427,-281 443.815,-284.462 446.628,-289.834 463,-295 475.076,-298.81 488.409,-302.322 500.561,-305.263"/>
<polygon fill="midnightblue" stroke="midnightblue" points="499.902,-308.703 510.438,-307.592 501.509,-301.89 499.902,-308.703"/>
</g>
<!-- Node41 -->
<g id="node41" class="node"><title>Node41</title>
<g id="a_node41"><a xlink:href="byte_8c.html#a2da8eeb074dfd3ffbfb3e9a4d301cda4" target="_top" xlink:title="exitt">
<polygon fill="white" stroke="black" points="368,-209.5 368,-228.5 404,-228.5 404,-209.5 368,-209.5"/>
<text text-anchor="middle" x="386" y="-216.5" font-family="Helvetica,sans-Serif" font-size="10.00">exitt</text>
</a>
</g>
</g>
<!-- Node40&#45;&gt;Node41 -->
<g id="edge46" class="edge"><title>Node40&#45;&gt;Node41</title>
<path fill="none" stroke="midnightblue" d="M301.513,-266.588C317.197,-257.648 341.016,-244.071 359.203,-233.704"/>
<polygon fill="midnightblue" stroke="midnightblue" points="361.174,-236.61 368.128,-228.617 357.707,-230.528 361.174,-236.61"/>
</g>
<!-- Node46 -->
<g id="node46" class="node"><title>Node46</title>
<g id="a_node46"><a xlink:href="mpi__dummy_8F90.html#acd9229b5fb6a4d16f9917a5b5c2f0909" target="_top" xlink:title="mpi_allreduce">
<polygon fill="white" stroke="black" points="345,-76.5 345,-95.5 427,-95.5 427,-76.5 345,-76.5"/>
<text text-anchor="middle" x="386" y="-83.5" font-family="Helvetica,sans-Serif" font-size="10.00">mpi_allreduce</text>
</a>
</g>
</g>
<!-- Node40&#45;&gt;Node46 -->
<g id="edge53" class="edge"><title>Node40&#45;&gt;Node46</title>
<path fill="none" stroke="midnightblue" d="M290.096,-266.317C305.874,-236.34 354.109,-144.693 375.085,-104.839"/>
<polygon fill="midnightblue" stroke="midnightblue" points="378.234,-106.371 379.794,-95.8917 372.039,-103.111 378.234,-106.371"/>
</g>
<!-- Node41&#45;&gt;Node4 -->
<g id="edge47" class="edge"><title>Node41&#45;&gt;Node4</title>
<path fill="none" stroke="midnightblue" d="M393.272,-228.703C410.628,-255.513 458.325,-328.906 463,-333 474.611,-343.17 489.424,-351.307 502.984,-357.402"/>
<polygon fill="midnightblue" stroke="midnightblue" points="501.999,-360.787 512.572,-361.479 504.738,-354.345 501.999,-360.787"/>
</g>
<!-- Node41&#45;&gt;Node38 -->
<g id="edge52" class="edge"><title>Node41&#45;&gt;Node38</title>
<path fill="none" stroke="midnightblue" d="M404.049,-227.134C411.594,-231.238 420.263,-236.688 427,-243 447.513,-262.219 439.846,-279.063 463,-295 473.985,-302.561 487.668,-307.123 500.465,-309.871"/>
<polygon fill="midnightblue" stroke="midnightblue" points="500.003,-313.344 510.471,-311.709 501.268,-306.46 500.003,-313.344"/>
</g>
<!-- Node42 -->
<g id="node42" class="node"><title>Node42</title>
<g id="a_node42"><a xlink:href="subs1_8F90.html#a339739b88994e5bb12bd923147f94983" target="_top" xlink:title="flush_io">
<polygon fill="white" stroke="black" points="515,-266.5 515,-285.5 568,-285.5 568,-266.5 515,-266.5"/>
<text text-anchor="middle" x="541.5" y="-273.5" font-family="Helvetica,sans-Serif" font-size="10.00">flush_io</text>
</a>
</g>
</g>
<!-- Node41&#45;&gt;Node42 -->
<g id="edge48" class="edge"><title>Node41&#45;&gt;Node42</title>
<path fill="none" stroke="midnightblue" d="M403.425,-228.56C418.504,-237.007 441.675,-249.167 463,-257 476.471,-261.948 491.73,-266.003 505.125,-269.077"/>
<polygon fill="midnightblue" stroke="midnightblue" points="504.425,-272.507 514.944,-271.236 505.928,-265.67 504.425,-272.507"/>
</g>
<!-- Node43 -->
<g id="node43" class="node"><title>Node43</title>
<g id="a_node43"><a xlink:href="singlmesh_8F90.html#aef78ff219741b83c1ca784b869e9cacf" target="_top" xlink:title="Dummy for singlmesh. ">
<polygon fill="white" stroke="black" points="501.5,-228.5 501.5,-247.5 581.5,-247.5 581.5,-228.5 501.5,-228.5"/>
<text text-anchor="middle" x="541.5" y="-235.5" font-family="Helvetica,sans-Serif" font-size="10.00">happy_check</text>
</a>
</g>
</g>
<!-- Node41&#45;&gt;Node43 -->
<g id="edge49" class="edge"><title>Node41&#45;&gt;Node43</title>
<path fill="none" stroke="midnightblue" d="M404.014,-221.106C424.891,-223.69 461.203,-228.185 491.125,-231.888"/>
<polygon fill="midnightblue" stroke="midnightblue" points="491.053,-235.406 501.407,-233.161 491.913,-228.459 491.053,-235.406"/>
</g>
<!-- Node44 -->
<g id="node44" class="node"><title>Node44</title>
<g id="a_node44"><a xlink:href="mpi__dummy_8F90.html#a55e9a1619aadb638b14211ce21d7d566" target="_top" xlink:title="mpi_finalize">
<polygon fill="white" stroke="black" points="505.5,-190.5 505.5,-209.5 577.5,-209.5 577.5,-190.5 505.5,-190.5"/>
<text text-anchor="middle" x="541.5" y="-197.5" font-family="Helvetica,sans-Serif" font-size="10.00">mpi_finalize</text>
</a>
</g>
</g>
<!-- Node41&#45;&gt;Node44 -->
<g id="edge50" class="edge"><title>Node41&#45;&gt;Node44</title>
<path fill="none" stroke="midnightblue" d="M404.014,-216.894C425.894,-214.186 464.727,-209.379 495.391,-205.584"/>
<polygon fill="midnightblue" stroke="midnightblue" points="495.946,-209.042 505.44,-204.34 495.086,-202.095 495.946,-209.042"/>
</g>
<!-- Node45 -->
<g id="node45" class="node"><title>Node45</title>
<g id="a_node45"><a xlink:href="papi_8F90.html#a3a75ccdfbe05912fda48c3b134d114c0" target="_top" xlink:title="nek_flops">
<polygon fill="white" stroke="red" points="510.5,-152.5 510.5,-171.5 572.5,-171.5 572.5,-152.5 510.5,-152.5"/>
<text text-anchor="middle" x="541.5" y="-159.5" font-family="Helvetica,sans-Serif" font-size="10.00">nek_flops</text>
</a>
</g>
</g>
<!-- Node41&#45;&gt;Node45 -->
<g id="edge51" class="edge"><title>Node41&#45;&gt;Node45</title>
<path fill="none" stroke="midnightblue" d="M403.425,-209.44C418.504,-200.993 441.675,-188.833 463,-181 474.886,-176.634 488.165,-172.963 500.326,-170.048"/>
<polygon fill="midnightblue" stroke="midnightblue" points="501.259,-173.425 510.223,-167.779 499.694,-166.602 501.259,-173.425"/>
</g>
<!-- Node47 -->
<g id="node47" class="node"><title>Node47</title>
<g id="a_node47"><a xlink:href="mpi__dummy_8F90.html#a64285f5ce9bed08bfd13bc27264db185" target="_top" xlink:title="mpi_reduce_double_precision">
<polygon fill="white" stroke="black" points="463,-114.5 463,-133.5 620,-133.5 620,-114.5 463,-114.5"/>
<text text-anchor="middle" x="541.5" y="-121.5" font-family="Helvetica,sans-Serif" font-size="10.00">mpi_reduce_double_precision</text>
</a>
</g>
</g>
<!-- Node46&#45;&gt;Node47 -->
<g id="edge54" class="edge"><title>Node46&#45;&gt;Node47</title>
<path fill="none" stroke="midnightblue" d="M424.876,-95.5051C437.047,-98.5498 450.59,-101.928 463,-105 472.282,-107.298 482.192,-109.738 491.718,-112.076"/>
<polygon fill="midnightblue" stroke="midnightblue" points="490.917,-115.484 501.463,-114.466 492.584,-108.685 490.917,-115.484"/>
</g>
<!-- Node48 -->
<g id="node48" class="node"><title>Node48</title>
<g id="a_node48"><a xlink:href="mpi__dummy_8F90.html#aa549a352c5ab9ce53b8dfd222da38fa6" target="_top" xlink:title="mpi_reduce_integer">
<polygon fill="white" stroke="black" points="486.5,-76.5 486.5,-95.5 596.5,-95.5 596.5,-76.5 486.5,-76.5"/>
<text text-anchor="middle" x="541.5" y="-83.5" font-family="Helvetica,sans-Serif" font-size="10.00">mpi_reduce_integer</text>
</a>
</g>
</g>
<!-- Node46&#45;&gt;Node48 -->
<g id="edge55" class="edge"><title>Node46&#45;&gt;Node48</title>
<path fill="none" stroke="midnightblue" d="M427.33,-86C442.263,-86 459.59,-86 476.129,-86"/>
<polygon fill="midnightblue" stroke="midnightblue" points="476.297,-89.5001 486.297,-86 476.297,-82.5001 476.297,-89.5001"/>
</g>
<!-- Node49 -->
<g id="node49" class="node"><title>Node49</title>
<g id="a_node49"><a xlink:href="mpi__dummy_8F90.html#abbddc050d7faafb34959984f69652e0a" target="_top" xlink:title="mpi_reduce_integer8">
<polygon fill="white" stroke="black" points="483.5,-38.5 483.5,-57.5 599.5,-57.5 599.5,-38.5 483.5,-38.5"/>
<text text-anchor="middle" x="541.5" y="-45.5" font-family="Helvetica,sans-Serif" font-size="10.00">mpi_reduce_integer8</text>
</a>
</g>
</g>
<!-- Node46&#45;&gt;Node49 -->
<g id="edge56" class="edge"><title>Node46&#45;&gt;Node49</title>
<path fill="none" stroke="midnightblue" d="M424.876,-76.4949C437.047,-73.4502 450.59,-70.0724 463,-67 472.282,-64.702 482.192,-62.262 491.718,-59.9235"/>
<polygon fill="midnightblue" stroke="midnightblue" points="492.584,-63.3149 501.463,-57.5336 490.917,-56.5164 492.584,-63.3149"/>
</g>
<!-- Node50 -->
<g id="node50" class="node"><title>Node50</title>
<g id="a_node50"><a xlink:href="mpi__dummy_8F90.html#a47f146895b36dc21100a1c42d343762c" target="_top" xlink:title="mpi_reduce_real">
<polygon fill="white" stroke="black" points="494,-0.5 494,-19.5 589,-19.5 589,-0.5 494,-0.5"/>
<text text-anchor="middle" x="541.5" y="-7.5" font-family="Helvetica,sans-Serif" font-size="10.00">mpi_reduce_real</text>
</a>
</g>
</g>
<!-- Node46&#45;&gt;Node50 -->
<g id="edge57" class="edge"><title>Node46&#45;&gt;Node50</title>
<path fill="none" stroke="midnightblue" d="M396.94,-76.4171C410.679,-63.7011 436.761,-41.4155 463,-29 469.629,-25.8633 476.83,-23.2115 484.084,-20.978"/>
<polygon fill="midnightblue" stroke="midnightblue" points="485.288,-24.2747 493.959,-18.1855 483.384,-17.5388 485.288,-24.2747"/>
</g>
</g>
</svg>
        <g id="navigator" transform="translate(0 0)" fill="#404254">
                <rect fill="#f2f5e9" fill-opacity="0.5" stroke="#606060" stroke-width=".5" x="0" y="0" width="60" height="60"/>
                <use id="zoomplus" xlink:href="#zoomPlus" x="17" y="9" onmousedown="handleZoom(evt,'in')"/>
                <use id="zoomminus" xlink:href="#zoomMin" x="42" y="9" onmousedown="handleZoom(evt,'out')"/>
                <use id="reset" xlink:href="#resetDef" x="30" y="36" onmousedown="handleReset()"/>
                <g id="arrowUp" xlink:href="#dirArrow" transform="translate(30 24)" onmousedown="handlePan(0,-1)">
                  <use xlink:href="#rim" fill="#404040">
                        <set attributeName="fill" to="#808080" begin="arrowUp.mouseover" end="arrowUp.mouseout"/>
                  </use>
                  <path fill="none" stroke="white" stroke-width="1.5" d="M0,-3.0v7 M-2.5,-0.5L0,-3.0L2.5,-0.5"/>
                </g>
                <g id="arrowRight" xlink:href="#dirArrow" transform="rotate(90) translate(36 -43)" onmousedown="handlePan(1,0)">
                  <use xlink:href="#rim" fill="#404040">
                        <set attributeName="fill" to="#808080" begin="arrowRight.mouseover" end="arrowRight.mouseout"/>
                  </use>
                  <path fill="none" stroke="white" stroke-width="1.5" d="M0,-3.0v7 M-2.5,-0.5L0,-3.0L2.5,-0.5"/>
                </g>
                <g id="arrowDown" xlink:href="#dirArrow" transform="rotate(180) translate(-30 -48)" onmousedown="handlePan(0,1)">
                  <use xlink:href="#rim" fill="#404040">
                        <set attributeName="fill" to="#808080" begin="arrowDown.mouseover" end="arrowDown.mouseout"/>
                  </use>
                  <path fill="none" stroke="white" stroke-width="1.5" d="M0,-3.0v7 M-2.5,-0.5L0,-3.0L2.5,-0.5"/>
                </g>
                <g id="arrowLeft" xlink:href="#dirArrow" transform="rotate(270) translate(-36 17)" onmousedown="handlePan(-1,0)">
                  <use xlink:href="#rim" fill="#404040">
                        <set attributeName="fill" to="#808080" begin="arrowLeft.mouseover" end="arrowLeft.mouseout"/>
                  </use>
                  <path fill="none" stroke="white" stroke-width="1.5" d="M0,-3.0v7 M-2.5,-0.5L0,-3.0L2.5,-0.5"/>
                </g>
        </g>
        <svg viewBox="0 0 15 15" width="100%" height="30px" preserveAspectRatio="xMaxYMin meet">
         <g id="arrow_out" transform="scale(0.3 0.3)">
          <a xlink:href="classhelmholtz_a5077d115c2aaad42d80aaa089651bb25_cgraph_org.svg" target="_base">
           <rect id="button" ry="5" rx="5" y="6" x="6" height="38" width="38"
                fill="#f2f5e9" fill-opacity="0.5" stroke="#606060" stroke-width="1.0"/>
           <path id="arrow"
             d="M 11.500037,31.436501 C 11.940474,20.09759 22.043105,11.32322 32.158766,21.979434 L 37.068811,17.246167 C 37.068811,17.246167 37.088388,32 37.088388,32 L 22.160133,31.978069 C 22.160133,31.978069 26.997745,27.140456 26.997745,27.140456 C 18.528582,18.264221 13.291696,25.230495 11.500037,31.436501 z"
             style="fill:#404040;"/>
          </a>
         </g>
        </svg>
</svg>
