<?xml version="1.0" encoding="UTF-8" standalone="no"?>
<!DOCTYPE svg PUBLIC "-//W3C//DTD SVG 1.1//EN"
 "http://www.w3.org/Graphics/SVG/1.1/DTD/svg11.dtd">
<!-- Generated by graphviz version 2.38.0 (20140413.2041)
 -->
<!-- Title: hsmg_routines::hsmg_setup_rstr_wt Pages: 1 -->
<svg width="515pt" height="66pt"
 viewBox="0.00 0.00 515.00 66.00" xmlns="http://www.w3.org/2000/svg" xmlns:xlink="http://www.w3.org/1999/xlink">
<g id="graph0" class="graph" transform="scale(1 1) rotate(0) translate(4 62)">
<title>hsmg_routines::hsmg_setup_rstr_wt</title>
<polygon fill="white" stroke="none" points="-4,4 -4,-62 511,-62 511,4 -4,4"/>
<!-- Node1 -->
<g id="node1" class="node"><title>Node1</title>
<polygon fill="#bfbfbf" stroke="black" points="0,-14 0,-44 116,-44 116,-14 0,-14"/>
<text text-anchor="start" x="8" y="-32" font-family="Helvetica,sans-Serif" font-size="10.00">hsmg_routines::hsmg</text>
<text text-anchor="middle" x="58" y="-21" font-family="Helvetica,sans-Serif" font-size="10.00">_setup_rstr_wt</text>
</g>
<!-- Node2 -->
<g id="node2" class="node"><title>Node2</title>
<g id="a_node2"><a xlink:href="classhsmg__routines.html#a88e7156da5cd6d7172d353620e4b9778" target="_top" xlink:title="hsmg_routines::hsmg\l_dssum">
<polygon fill="white" stroke="black" points="152,-14 152,-44 268,-44 268,-14 152,-14"/>
<text text-anchor="start" x="160" y="-32" font-family="Helvetica,sans-Serif" font-size="10.00">hsmg_routines::hsmg</text>
<text text-anchor="middle" x="210" y="-21" font-family="Helvetica,sans-Serif" font-size="10.00">_dssum</text>
</a>
</g>
</g>
<!-- Node1&#45;&gt;Node2 -->
<g id="edge1" class="edge"><title>Node1&#45;&gt;Node2</title>
<path fill="none" stroke="midnightblue" d="M116.136,-29C124.377,-29 132.923,-29 141.344,-29"/>
<polygon fill="midnightblue" stroke="midnightblue" points="141.526,-32.5001 151.525,-29 141.525,-25.5001 141.526,-32.5001"/>
</g>
<!-- Node3 -->
<g id="node3" class="node"><title>Node3</title>
<g id="a_node3"><a xlink:href="classctimer.html#abcecbc845c8ee72e13a19eaa30b80d77" target="_top" xlink:title="ctimer::dnekclock">
<polygon fill="white" stroke="black" points="304,-38.5 304,-57.5 401,-57.5 401,-38.5 304,-38.5"/>
<text text-anchor="middle" x="352.5" y="-45.5" font-family="Helvetica,sans-Serif" font-size="10.00">ctimer::dnekclock</text>
</a>
</g>
</g>
<!-- Node2&#45;&gt;Node3 -->
<g id="edge2" class="edge"><title>Node2&#45;&gt;Node3</title>
<path fill="none" stroke="midnightblue" d="M268.147,-36.728C276.573,-37.8675 285.259,-39.0422 293.698,-40.1834"/>
<polygon fill="midnightblue" stroke="midnightblue" points="293.456,-43.6824 303.835,-41.5542 294.394,-36.7456 293.456,-43.6824"/>
</g>
<!-- Node5 -->
<g id="node5" class="node"><title>Node5</title>
<g id="a_node5"><a xlink:href="comm__mpi_8F90.html#a4acb4d8e379294232e9219bec063d8f3" target="_top" xlink:title="nekgsync">
<polygon fill="white" stroke="black" points="321.5,-0.5 321.5,-19.5 383.5,-19.5 383.5,-0.5 321.5,-0.5"/>
<text text-anchor="middle" x="352.5" y="-7.5" font-family="Helvetica,sans-Serif" font-size="10.00">nekgsync</text>
</a>
</g>
</g>
<!-- Node2&#45;&gt;Node5 -->
<g id="edge4" class="edge"><title>Node2&#45;&gt;Node5</title>
<path fill="none" stroke="midnightblue" d="M268.147,-21.272C282.534,-19.3263 297.682,-17.2779 311.059,-15.4689"/>
<polygon fill="midnightblue" stroke="midnightblue" points="311.918,-18.8846 321.359,-14.076 310.98,-11.9477 311.918,-18.8846"/>
</g>
<!-- Node4 -->
<g id="node4" class="node"><title>Node4</title>
<g id="a_node4"><a xlink:href="mpi__dummy_8F90.html#ae6a5ef945f87c2c27849696b70f3af2a" target="_top" xlink:title="mpi_wtime">
<polygon fill="white" stroke="black" points="439,-38.5 439,-57.5 505,-57.5 505,-38.5 439,-38.5"/>
<text text-anchor="middle" x="472" y="-45.5" font-family="Helvetica,sans-Serif" font-size="10.00">mpi_wtime</text>
</a>
</g>
</g>
<!-- Node3&#45;&gt;Node4 -->
<g id="edge3" class="edge"><title>Node3&#45;&gt;Node4</title>
<path fill="none" stroke="midnightblue" d="M401.292,-48C410.334,-48 419.735,-48 428.597,-48"/>
<polygon fill="midnightblue" stroke="midnightblue" points="428.698,-51.5001 438.698,-48 428.698,-44.5001 428.698,-51.5001"/>
</g>
<!-- Node6 -->
<g id="node6" class="node"><title>Node6</title>
<g id="a_node6"><a xlink:href="mpi__dummy_8F90.html#a070afe564196eb48413dbf1a9fbc99aa" target="_top" xlink:title="mpi_barrier">
<polygon fill="white" stroke="black" points="437,-0.5 437,-19.5 507,-19.5 507,-0.5 437,-0.5"/>
<text text-anchor="middle" x="472" y="-7.5" font-family="Helvetica,sans-Serif" font-size="10.00">mpi_barrier</text>
</a>
</g>
</g>
<!-- Node5&#45;&gt;Node6 -->
<g id="edge5" class="edge"><title>Node5&#45;&gt;Node6</title>
<path fill="none" stroke="midnightblue" d="M383.759,-10C396.782,-10 412.268,-10 426.554,-10"/>
<polygon fill="midnightblue" stroke="midnightblue" points="426.691,-13.5001 436.691,-10 426.691,-6.5001 426.691,-13.5001"/>
</g>
</g>
</svg>
