<?xml version="1.0" encoding="UTF-8" standalone="no"?>
<!DOCTYPE svg PUBLIC "-//W3C//DTD SVG 1.1//EN"
 "http://www.w3.org/Graphics/SVG/1.1/DTD/svg11.dtd">
<!-- Generated by graphviz version 2.38.0 (20140413.2041)
 -->
<!-- Title: string::capit Pages: 1 -->
<!--zoomable 203 -->
<svg id="main" version="1.1" xmlns="http://www.w3.org/2000/svg" xmlns:xlink="http://www.w3.org/1999/xlink" xml:space="preserve" onload="init(evt)">
<style type="text/css"><![CDATA[
.edge:hover path { stroke: red; }
.edge:hover polygon { stroke: red; fill: red; }
]]></style>
<script type="text/javascript"><![CDATA[
var edges = document.getElementsByTagName('g');
if (edges && edges.length) {
  for (var i=0;i<edges.length;i++) {
    if (edges[i].id.substr(0,4)=='edge') {
      edges[i].setAttribute('class','edge');
    }
  }
}
]]></script>
        <defs>
                <circle id="rim" cx="0" cy="0" r="7"/>
                <circle id="rim2" cx="0" cy="0" r="3.5"/>
                <g id="zoomPlus">
                        <use xlink:href="#rim" fill="#404040">
                                <set attributeName="fill" to="#808080" begin="zoomplus.mouseover" end="zoomplus.mouseout"/>
                        </use>
                        <path d="M-4,0h8M0,-4v8" fill="none" stroke="white" stroke-width="1.5" pointer-events="none"/>
                </g>
                <g id="zoomMin">
                        <use xlink:href="#rim" fill="#404040">
                                <set attributeName="fill" to="#808080" begin="zoomminus.mouseover" end="zoomminus.mouseout"/>
                        </use>
                        <path d="M-4,0h8" fill="none" stroke="white" stroke-width="1.5" pointer-events="none"/>
                </g>
                <g id="dirArrow">
                        <path fill="none" stroke="white" stroke-width="1.5" d="M0,-3.0v7 M-2.5,-0.5L0,-3.0L2.5,-0.5"/>
                </g>
               <g id="resetDef">
                       <use xlink:href="#rim2" fill="#404040">
                               <set attributeName="fill" to="#808080" begin="reset.mouseover" end="reset.mouseout"/>
                       </use>
               </g>
        </defs>

<script type="text/javascript">
var viewWidth = 858;
var viewHeight = 203;
var sectionId = 'dynsection-0';
</script>
<script xlink:href="svgpan.js"/>
<svg id="graph" class="graph">
<g id="viewport">
<title>string::capit</title>
<polygon fill="white" stroke="none" points="-4,4 -4,-198.859 854,-198.859 854,4 -4,4"/>
<!-- Node1 -->
<g id="node1" class="node"><title>Node1</title>
<polygon fill="#bfbfbf" stroke="black" points="0,-80.3589 0,-99.3589 70,-99.3589 70,-80.3589 0,-80.3589"/>
<text text-anchor="middle" x="35" y="-87.3589" font-family="Helvetica,sans-Serif" font-size="10.00">string::capit</text>
</g>
<!-- Node2 -->
<g id="node2" class="node"><title>Node2</title>
<g id="a_node2"><a xlink:href="classhelmholtz.html#abf98ad104d11790462e9f07b3fa91848" target="_top" xlink:title="Either std. Helmholtz solve, or a projection + Helmholtz solve. ">
<polygon fill="white" stroke="black" points="106,-175.359 106,-194.359 203,-194.359 203,-175.359 106,-175.359"/>
<text text-anchor="middle" x="154.5" y="-182.359" font-family="Helvetica,sans-Serif" font-size="10.00">helmholtz::hsolve</text>
</a>
</g>
</g>
<!-- Node1&#45;&gt;Node2 -->
<g id="edge1" class="edge"><title>Node1&#45;&gt;Node2</title>
<path fill="none" stroke="midnightblue" d="M48.9207,-108.015C61.754,-124.932 82.8208,-149.882 106,-165.859 111.265,-169.488 117.326,-172.579 123.319,-175.147"/>
<polygon fill="midnightblue" stroke="midnightblue" points="51.43,-105.521 42.6771,-99.5511 45.7969,-109.676 51.43,-105.521"/>
</g>
<!-- Node11 -->
<g id="node11" class="node"><title>Node11</title>
<g id="a_node11"><a xlink:href="connect2_8F90.html#a7d2c5b148e4df32ac60d6de7e4b8610c" target="_top" xlink:title="Read Boundary Conditions (and connectivity data). .Disperse boundary condition data to all processors...">
<polygon fill="white" stroke="black" points="131,-137.359 131,-156.359 178,-156.359 178,-137.359 131,-137.359"/>
<text text-anchor="middle" x="154.5" y="-144.359" font-family="Helvetica,sans-Serif" font-size="10.00">rdbdry</text>
</a>
</g>
</g>
<!-- Node1&#45;&gt;Node11 -->
<g id="edge11" class="edge"><title>Node1&#45;&gt;Node11</title>
<path fill="none" stroke="midnightblue" d="M61.3293,-104.538C74.4684,-111.914 90.8913,-120.766 106,-127.859 113.879,-131.558 122.687,-135.209 130.557,-138.307"/>
<polygon fill="midnightblue" stroke="midnightblue" points="62.8327,-101.367 52.4082,-99.4749 59.3775,-107.455 62.8327,-101.367"/>
</g>
<!-- Node14 -->
<g id="node14" class="node"><title>Node14</title>
<g id="a_node14"><a xlink:href="connect2_8F90.html#a91a147fe67d9a68726d0fdf8b514f294" target="_top" xlink:title="Read Initial Conditions / Drive Force. Broadcast ICFILE to all processors. ">
<polygon fill="white" stroke="black" points="133,-99.3589 133,-118.359 176,-118.359 176,-99.3589 133,-99.3589"/>
<text text-anchor="middle" x="154.5" y="-106.359" font-family="Helvetica,sans-Serif" font-size="10.00">rdicdf</text>
</a>
</g>
</g>
<!-- Node1&#45;&gt;Node14 -->
<g id="edge15" class="edge"><title>Node1&#45;&gt;Node14</title>
<path fill="none" stroke="midnightblue" d="M80.3795,-97.0351C98.4538,-99.9578 118.461,-103.193 132.972,-105.539"/>
<polygon fill="midnightblue" stroke="midnightblue" points="80.7322,-93.5468 70.3017,-95.4055 79.6148,-100.457 80.7322,-93.5468"/>
</g>
<!-- Node15 -->
<g id="node15" class="node"><title>Node15</title>
<g id="a_node15"><a xlink:href="connect2_8F90.html#a530a74e674f77e40a6fe452da105572f" target="_top" xlink:title="Read in parameters supplied by preprocessor and (eventually) echo check. .Broadcast run parameters to...">
<polygon fill="white" stroke="black" points="126.5,-61.3589 126.5,-80.3589 182.5,-80.3589 182.5,-61.3589 126.5,-61.3589"/>
<text text-anchor="middle" x="154.5" y="-68.3589" font-family="Helvetica,sans-Serif" font-size="10.00">rdparam</text>
</a>
</g>
</g>
<!-- Node1&#45;&gt;Node15 -->
<g id="edge17" class="edge"><title>Node1&#45;&gt;Node15</title>
<path fill="none" stroke="midnightblue" d="M80.2484,-82.7038C95.7758,-80.193 112.745,-77.4491 126.437,-75.235"/>
<polygon fill="midnightblue" stroke="midnightblue" points="79.6148,-79.2607 70.3017,-84.3122 80.7322,-86.171 79.6148,-79.2607"/>
</g>
<!-- Node16 -->
<g id="node16" class="node"><title>Node16</title>
<g id="a_node16"><a xlink:href="ic_8F90.html#a8947b3794015310a5f2962f2c8f1c4cb" target="_top" xlink:title="Set IO flags according to Restart Options File, RSOPTS. ">
<polygon fill="white" stroke="black" points="131,-23.3589 131,-42.3589 178,-42.3589 178,-23.3589 131,-23.3589"/>
<text text-anchor="middle" x="154.5" y="-30.3589" font-family="Helvetica,sans-Serif" font-size="10.00">sioflag</text>
</a>
</g>
</g>
<!-- Node1&#45;&gt;Node16 -->
<g id="edge19" class="edge"><title>Node1&#45;&gt;Node16</title>
<path fill="none" stroke="midnightblue" d="M61.3293,-75.1795C74.4684,-67.804 90.8913,-58.9519 106,-51.8589 113.879,-48.1599 122.687,-44.5086 130.557,-41.4105"/>
<polygon fill="midnightblue" stroke="midnightblue" points="59.3775,-72.2628 52.4082,-80.2428 62.8327,-78.3507 59.3775,-72.2628"/>
</g>
<!-- Node19 -->
<g id="node19" class="node"><title>Node19</title>
<g id="a_node19"><a xlink:href="ic_8F90.html#a06b7034f5e516ccf0207189177967c05" target="_top" xlink:title="Set up logicals for initial conditions. ">
<polygon fill="white" stroke="black" points="257,-4.35886 257,-23.3589 301,-23.3589 301,-4.35886 257,-4.35886"/>
<text text-anchor="middle" x="279" y="-11.3589" font-family="Helvetica,sans-Serif" font-size="10.00">slogic</text>
</a>
</g>
</g>
<!-- Node1&#45;&gt;Node19 -->
<g id="edge25" class="edge"><title>Node1&#45;&gt;Node19</title>
<path fill="none" stroke="midnightblue" d="M46.4765,-71.5853C58.256,-53.0823 79.2795,-25.5754 106,-13.8589 156.32,8.20543 223.16,-1.4477 256.778,-8.6229"/>
<polygon fill="midnightblue" stroke="midnightblue" points="43.3777,-69.9452 41.178,-80.3092 49.3607,-73.579 43.3777,-69.9452"/>
</g>
<!-- Node3 -->
<g id="node3" class="node"><title>Node3</title>
<g id="a_node3"><a xlink:href="conduct_8F90.html#a74a7f053381975ed36df8ea959f3aa01" target="_top" xlink:title="Solve the convection&#45;diffusion equation for passive scalar IPSCAL. ">
<polygon fill="white" stroke="black" points="255.5,-175.359 255.5,-194.359 302.5,-194.359 302.5,-175.359 255.5,-175.359"/>
<text text-anchor="middle" x="279" y="-182.359" font-family="Helvetica,sans-Serif" font-size="10.00">cdscal</text>
</a>
</g>
</g>
<!-- Node2&#45;&gt;Node3 -->
<g id="edge2" class="edge"><title>Node2&#45;&gt;Node3</title>
<path fill="none" stroke="midnightblue" d="M213.392,-184.859C228.218,-184.859 243.308,-184.859 255.172,-184.859"/>
<polygon fill="midnightblue" stroke="midnightblue" points="213.213,-181.359 203.212,-184.859 213.212,-188.359 213.213,-181.359"/>
</g>
<!-- Node9 -->
<g id="node9" class="node"><title>Node9</title>
<g id="a_node9"><a xlink:href="plan4_8F90.html#a5cbf852b67e73bfa44e028338c4d57ad" target="_top" xlink:title="Splitting scheme . ">
<polygon fill="white" stroke="black" points="257.5,-137.359 257.5,-156.359 300.5,-156.359 300.5,-137.359 257.5,-137.359"/>
<text text-anchor="middle" x="279" y="-144.359" font-family="Helvetica,sans-Serif" font-size="10.00">plan4</text>
</a>
</g>
</g>
<!-- Node2&#45;&gt;Node9 -->
<g id="edge8" class="edge"><title>Node2&#45;&gt;Node9</title>
<path fill="none" stroke="midnightblue" d="M196.178,-172.241C216.74,-165.862 240.803,-158.397 257.488,-153.222"/>
<polygon fill="midnightblue" stroke="midnightblue" points="194.926,-168.964 186.412,-175.27 197,-175.65 194.926,-168.964"/>
</g>
<!-- Node4 -->
<g id="node4" class="node"><title>Node4</title>
<g id="a_node4"><a xlink:href="drive2_8F90.html#acce80cd37f20e9b52729eb52d86a9c86" target="_top" xlink:title="Driver for temperature or passive scalar. ">
<polygon fill="white" stroke="black" points="358,-175.359 358,-194.359 396,-194.359 396,-175.359 358,-175.359"/>
<text text-anchor="middle" x="377" y="-182.359" font-family="Helvetica,sans-Serif" font-size="10.00">heat</text>
</a>
</g>
</g>
<!-- Node3&#45;&gt;Node4 -->
<g id="edge3" class="edge"><title>Node3&#45;&gt;Node4</title>
<path fill="none" stroke="midnightblue" d="M312.76,-184.859C327.858,-184.859 345.2,-184.859 357.901,-184.859"/>
<polygon fill="midnightblue" stroke="midnightblue" points="312.751,-181.359 302.751,-184.859 312.751,-188.359 312.751,-181.359"/>
</g>
<!-- Node5 -->
<g id="node5" class="node"><title>Node5</title>
<g id="a_node5"><a xlink:href="drive1_8F90.html#ae177ea7efac97f35241521b782a671c0" target="_top" xlink:title="take a single time&#45;step ">
<polygon fill="white" stroke="black" points="435,-137.359 435,-156.359 515,-156.359 515,-137.359 435,-137.359"/>
<text text-anchor="middle" x="475" y="-144.359" font-family="Helvetica,sans-Serif" font-size="10.00">nek_advance</text>
</a>
</g>
</g>
<!-- Node4&#45;&gt;Node5 -->
<g id="edge4" class="edge"><title>Node4&#45;&gt;Node5</title>
<path fill="none" stroke="midnightblue" d="M405.644,-173.917C419.616,-168.386 436.414,-161.737 449.86,-156.414"/>
<polygon fill="midnightblue" stroke="midnightblue" points="404.067,-170.776 396.057,-177.711 406.643,-177.285 404.067,-170.776"/>
</g>
<!-- Node6 -->
<g id="node6" class="node"><title>Node6</title>
<g id="a_node6"><a xlink:href="drive1_8F90.html#a18d3e839786263fc4cf91f7eeb714371" target="_top" xlink:title="take a chunk of time&#45;steps ">
<polygon fill="white" stroke="black" points="551,-137.359 551,-156.359 664,-156.359 664,-137.359 551,-137.359"/>
<text text-anchor="middle" x="607.5" y="-144.359" font-family="Helvetica,sans-Serif" font-size="10.00">nek__multi_advance</text>
</a>
</g>
</g>
<!-- Node5&#45;&gt;Node6 -->
<g id="edge5" class="edge"><title>Node5&#45;&gt;Node6</title>
<path fill="none" stroke="midnightblue" d="M525.191,-146.859C533.607,-146.859 542.403,-146.859 550.97,-146.859"/>
<polygon fill="midnightblue" stroke="midnightblue" points="525.154,-143.359 515.154,-146.859 525.154,-150.359 525.154,-143.359"/>
</g>
<!-- Node7 -->
<g id="node7" class="node"><title>Node7</title>
<g id="a_node7"><a xlink:href="drive1_8F90.html#a6ad57e0cf728f343e371ef8c9a02cd8a" target="_top" xlink:title="integrate the governing equations in time ">
<polygon fill="white" stroke="black" points="700,-137.359 700,-156.359 765,-156.359 765,-137.359 700,-137.359"/>
<text text-anchor="middle" x="732.5" y="-144.359" font-family="Helvetica,sans-Serif" font-size="10.00">nek_solve</text>
</a>
</g>
</g>
<!-- Node6&#45;&gt;Node7 -->
<g id="edge6" class="edge"><title>Node6&#45;&gt;Node7</title>
<path fill="none" stroke="midnightblue" d="M674.282,-146.859C683.164,-146.859 691.927,-146.859 699.824,-146.859"/>
<polygon fill="midnightblue" stroke="midnightblue" points="674.242,-143.359 664.242,-146.859 674.242,-150.359 674.242,-143.359"/>
</g>
<!-- Node8 -->
<g id="node8" class="node"><title>Node8</title>
<g id="a_node8"><a xlink:href="drive_8F90.html#a13048bf28dd0734640412d69349e3857" target="_top" xlink:title="NEK5000: Spectral Element Computational Fluid Dynamics Solver COPYRIGHT (c) 2008&#45;2010 UCHICAGO ARGONN...">
<polygon fill="white" stroke="black" points="801,-118.359 801,-137.359 850,-137.359 850,-118.359 801,-118.359"/>
<text text-anchor="middle" x="825.5" y="-125.359" font-family="Helvetica,sans-Serif" font-size="10.00">nekton</text>
</a>
</g>
</g>
<!-- Node7&#45;&gt;Node8 -->
<g id="edge7" class="edge"><title>Node7&#45;&gt;Node8</title>
<path fill="none" stroke="midnightblue" d="M774.906,-138.214C783.759,-136.365 792.82,-134.473 800.734,-132.821"/>
<polygon fill="midnightblue" stroke="midnightblue" points="774.146,-134.797 765.072,-140.267 775.576,-141.649 774.146,-134.797"/>
</g>
<!-- Node10 -->
<g id="node10" class="node"><title>Node10</title>
<g id="a_node10"><a xlink:href="drive2_8F90.html#ab0aeca9ad3db8be87a01ba29d069d71e" target="_top" xlink:title="Driver for solving the incompressible Navier&#45;Stokes equations. ">
<polygon fill="white" stroke="black" points="359.5,-137.359 359.5,-156.359 394.5,-156.359 394.5,-137.359 359.5,-137.359"/>
<text text-anchor="middle" x="377" y="-144.359" font-family="Helvetica,sans-Serif" font-size="10.00">fluid</text>
</a>
</g>
</g>
<!-- Node9&#45;&gt;Node10 -->
<g id="edge9" class="edge"><title>Node9&#45;&gt;Node10</title>
<path fill="none" stroke="midnightblue" d="M310.891,-146.859C326.987,-146.859 346.035,-146.859 359.355,-146.859"/>
<polygon fill="midnightblue" stroke="midnightblue" points="310.831,-143.359 300.831,-146.859 310.831,-150.359 310.831,-143.359"/>
</g>
<!-- Node10&#45;&gt;Node5 -->
<g id="edge10" class="edge"><title>Node10&#45;&gt;Node5</title>
<path fill="none" stroke="midnightblue" d="M404.881,-146.859C414.142,-146.859 424.713,-146.859 434.754,-146.859"/>
<polygon fill="midnightblue" stroke="midnightblue" points="404.722,-143.359 394.722,-146.859 404.722,-150.359 404.722,-143.359"/>
</g>
<!-- Node12 -->
<g id="node12" class="node"><title>Node12</title>
<g id="a_node12"><a xlink:href="connect2_8F90.html#a842357ad1d3581135ffacc57139397d2" target="_top" xlink:title="Read in data from preprocessor input file (.rea) ">
<polygon fill="white" stroke="black" points="255.5,-99.3589 255.5,-118.359 302.5,-118.359 302.5,-99.3589 255.5,-99.3589"/>
<text text-anchor="middle" x="279" y="-106.359" font-family="Helvetica,sans-Serif" font-size="10.00">readat</text>
</a>
</g>
</g>
<!-- Node11&#45;&gt;Node12 -->
<g id="edge12" class="edge"><title>Node11&#45;&gt;Node12</title>
<path fill="none" stroke="midnightblue" d="M187.847,-136.825C209.112,-130.228 236.409,-121.761 255.368,-115.88"/>
<polygon fill="midnightblue" stroke="midnightblue" points="186.768,-133.495 178.254,-139.8 188.842,-140.18 186.768,-133.495"/>
</g>
<!-- Node13 -->
<g id="node13" class="node"><title>Node13</title>
<g id="a_node13"><a xlink:href="drive1_8F90.html#a87bd37ae2c18426f28f35cc3f24e4355" target="_top" xlink:title="initialize nek ">
<polygon fill="white" stroke="black" points="448.5,-99.3589 448.5,-118.359 501.5,-118.359 501.5,-99.3589 448.5,-99.3589"/>
<text text-anchor="middle" x="475" y="-106.359" font-family="Helvetica,sans-Serif" font-size="10.00">nek_init</text>
</a>
</g>
</g>
<!-- Node12&#45;&gt;Node13 -->
<g id="edge13" class="edge"><title>Node12&#45;&gt;Node13</title>
<path fill="none" stroke="midnightblue" d="M312.743,-108.859C351.02,-108.859 413.561,-108.859 448.442,-108.859"/>
<polygon fill="midnightblue" stroke="midnightblue" points="312.634,-105.359 302.634,-108.859 312.634,-112.359 312.634,-105.359"/>
</g>
<!-- Node13&#45;&gt;Node8 -->
<g id="edge14" class="edge"><title>Node13&#45;&gt;Node8</title>
<path fill="none" stroke="midnightblue" d="M511.891,-110.816C583.139,-114.7 740.72,-123.291 800.694,-126.561"/>
<polygon fill="midnightblue" stroke="midnightblue" points="511.802,-107.306 501.626,-110.256 511.421,-114.295 511.802,-107.306"/>
</g>
<!-- Node14&#45;&gt;Node12 -->
<g id="edge16" class="edge"><title>Node14&#45;&gt;Node12</title>
<path fill="none" stroke="midnightblue" d="M186.238,-108.859C207.712,-108.859 235.907,-108.859 255.348,-108.859"/>
<polygon fill="midnightblue" stroke="midnightblue" points="186.004,-105.359 176.004,-108.859 186.004,-112.359 186.004,-105.359"/>
</g>
<!-- Node15&#45;&gt;Node12 -->
<g id="edge18" class="edge"><title>Node15&#45;&gt;Node12</title>
<path fill="none" stroke="midnightblue" d="M192.357,-82.2922C212.875,-88.6568 237.757,-96.3753 255.402,-101.849"/>
<polygon fill="midnightblue" stroke="midnightblue" points="193.275,-78.9123 182.687,-79.2923 191.201,-85.598 193.275,-78.9123"/>
</g>
<!-- Node17 -->
<g id="node17" class="node"><title>Node17</title>
<g id="a_node17"><a xlink:href="ic_8F90.html#af64028aefb1dff2a9f8a84ff024f44b0" target="_top" xlink:title="driver for restarts (1) Open restart file(s) (2) Check previous spatial discretization (3) Map (K1...">
<polygon fill="white" stroke="black" points="239,-42.3589 239,-61.3589 319,-61.3589 319,-42.3589 239,-42.3589"/>
<text text-anchor="middle" x="279" y="-49.3589" font-family="Helvetica,sans-Serif" font-size="10.00">restart_driver</text>
</a>
</g>
</g>
<!-- Node16&#45;&gt;Node17 -->
<g id="edge20" class="edge"><title>Node16&#45;&gt;Node17</title>
<path fill="none" stroke="midnightblue" d="M188.464,-37.9716C204.031,-40.3861 222.721,-43.2849 238.989,-45.8082"/>
<polygon fill="midnightblue" stroke="midnightblue" points="188.673,-34.4622 178.254,-36.3881 187.6,-41.3795 188.673,-34.4622"/>
</g>
<!-- Node16&#45;&gt;Node19 -->
<g id="edge23" class="edge"><title>Node16&#45;&gt;Node19</title>
<path fill="none" stroke="midnightblue" d="M188.333,-27.7665C209.993,-24.4068 237.746,-20.1024 256.599,-17.1783"/>
<polygon fill="midnightblue" stroke="midnightblue" points="187.6,-24.3382 178.254,-29.3296 188.673,-31.2555 187.6,-24.3382"/>
</g>
<!-- Node18 -->
<g id="node18" class="node"><title>Node18</title>
<g id="a_node18"><a xlink:href="ic_8F90.html#acaefa33e86633e4a7a4b28347d4620d1" target="_top" xlink:title="Set initial conditions. ">
<polygon fill="white" stroke="black" points="355,-42.3589 355,-61.3589 399,-61.3589 399,-42.3589 355,-42.3589"/>
<text text-anchor="middle" x="377" y="-49.3589" font-family="Helvetica,sans-Serif" font-size="10.00">setics</text>
</a>
</g>
</g>
<!-- Node17&#45;&gt;Node18 -->
<g id="edge21" class="edge"><title>Node17&#45;&gt;Node18</title>
<path fill="none" stroke="midnightblue" d="M329.209,-51.8589C338.249,-51.8589 347.231,-51.8589 354.873,-51.8589"/>
<polygon fill="midnightblue" stroke="midnightblue" points="329.047,-48.359 319.047,-51.8589 329.047,-55.359 329.047,-48.359"/>
</g>
<!-- Node18&#45;&gt;Node13 -->
<g id="edge22" class="edge"><title>Node18&#45;&gt;Node13</title>
<path fill="none" stroke="midnightblue" d="M403.298,-66.8794C420.614,-77.1607 443.051,-90.4827 457.955,-99.3324"/>
<polygon fill="midnightblue" stroke="midnightblue" points="404.671,-63.6241 394.285,-61.5281 401.097,-69.6431 404.671,-63.6241"/>
</g>
<!-- Node19&#45;&gt;Node18 -->
<g id="edge24" class="edge"><title>Node19&#45;&gt;Node18</title>
<path fill="none" stroke="midnightblue" d="M310.784,-26.044C325.129,-31.7225 341.84,-38.3371 354.754,-43.449"/>
<polygon fill="midnightblue" stroke="midnightblue" points="311.892,-22.7185 301.306,-22.2923 309.315,-29.2272 311.892,-22.7185"/>
</g>
</g>
</svg>
        <g id="navigator" transform="translate(0 0)" fill="#404254">
                <rect fill="#f2f5e9" fill-opacity="0.5" stroke="#606060" stroke-width=".5" x="0" y="0" width="60" height="60"/>
                <use id="zoomplus" xlink:href="#zoomPlus" x="17" y="9" onmousedown="handleZoom(evt,'in')"/>
                <use id="zoomminus" xlink:href="#zoomMin" x="42" y="9" onmousedown="handleZoom(evt,'out')"/>
                <use id="reset" xlink:href="#resetDef" x="30" y="36" onmousedown="handleReset()"/>
                <g id="arrowUp" xlink:href="#dirArrow" transform="translate(30 24)" onmousedown="handlePan(0,-1)">
                  <use xlink:href="#rim" fill="#404040">
                        <set attributeName="fill" to="#808080" begin="arrowUp.mouseover" end="arrowUp.mouseout"/>
                  </use>
                  <path fill="none" stroke="white" stroke-width="1.5" d="M0,-3.0v7 M-2.5,-0.5L0,-3.0L2.5,-0.5"/>
                </g>
                <g id="arrowRight" xlink:href="#dirArrow" transform="rotate(90) translate(36 -43)" onmousedown="handlePan(1,0)">
                  <use xlink:href="#rim" fill="#404040">
                        <set attributeName="fill" to="#808080" begin="arrowRight.mouseover" end="arrowRight.mouseout"/>
                  </use>
                  <path fill="none" stroke="white" stroke-width="1.5" d="M0,-3.0v7 M-2.5,-0.5L0,-3.0L2.5,-0.5"/>
                </g>
                <g id="arrowDown" xlink:href="#dirArrow" transform="rotate(180) translate(-30 -48)" onmousedown="handlePan(0,1)">
                  <use xlink:href="#rim" fill="#404040">
                        <set attributeName="fill" to="#808080" begin="arrowDown.mouseover" end="arrowDown.mouseout"/>
                  </use>
                  <path fill="none" stroke="white" stroke-width="1.5" d="M0,-3.0v7 M-2.5,-0.5L0,-3.0L2.5,-0.5"/>
                </g>
                <g id="arrowLeft" xlink:href="#dirArrow" transform="rotate(270) translate(-36 17)" onmousedown="handlePan(-1,0)">
                  <use xlink:href="#rim" fill="#404040">
                        <set attributeName="fill" to="#808080" begin="arrowLeft.mouseover" end="arrowLeft.mouseout"/>
                  </use>
                  <path fill="none" stroke="white" stroke-width="1.5" d="M0,-3.0v7 M-2.5,-0.5L0,-3.0L2.5,-0.5"/>
                </g>
        </g>
        <svg viewBox="0 0 15 15" width="100%" height="30px" preserveAspectRatio="xMaxYMin meet">
         <g id="arrow_out" transform="scale(0.3 0.3)">
          <a xlink:href="classstring_ab234b94aa03c5e163fee20a591cd845e_icgraph_org.svg" target="_base">
           <rect id="button" ry="5" rx="5" y="6" x="6" height="38" width="38"
                fill="#f2f5e9" fill-opacity="0.5" stroke="#606060" stroke-width="1.0"/>
           <path id="arrow"
             d="M 11.500037,31.436501 C 11.940474,20.09759 22.043105,11.32322 32.158766,21.979434 L 37.068811,17.246167 C 37.068811,17.246167 37.088388,32 37.088388,32 L 22.160133,31.978069 C 22.160133,31.978069 26.997745,27.140456 26.997745,27.140456 C 18.528582,18.264221 13.291696,25.230495 11.500037,31.436501 z"
             style="fill:#404040;"/>
          </a>
         </g>
        </svg>
</svg>
