<?xml version="1.0" encoding="UTF-8" standalone="no"?>
<!DOCTYPE svg PUBLIC "-//W3C//DTD SVG 1.1//EN"
 "http://www.w3.org/Graphics/SVG/1.1/DTD/svg11.dtd">
<!-- Generated by graphviz version 2.38.0 (20140413.2041)
 -->
<!-- Title: helmholtz::projh Pages: 1 -->
<svg width="869pt" height="1016pt"
 viewBox="0.00 0.00 869.00 1016.00" xmlns="http://www.w3.org/2000/svg" xmlns:xlink="http://www.w3.org/1999/xlink">
<g id="graph0" class="graph" transform="scale(1 1) rotate(0) translate(4 1012)">
<title>helmholtz::projh</title>
<polygon fill="white" stroke="none" points="-4,4 -4,-1012 865,-1012 865,4 -4,4"/>
<!-- Node1 -->
<g id="node1" class="node"><title>Node1</title>
<polygon fill="#bfbfbf" stroke="black" points="0,-323.5 0,-342.5 90,-342.5 90,-323.5 0,-323.5"/>
<text text-anchor="middle" x="45" y="-330.5" font-family="Helvetica,sans-Serif" font-size="10.00">helmholtz::projh</text>
</g>
<!-- Node2 -->
<g id="node2" class="node"><title>Node2</title>
<g id="a_node2"><a xlink:href="hmholtz_8F90.html#aa576b5bd623cce50fd6323db12ba5376" target="_top" xlink:title="Compute the (Helmholtz) matrix&#45;vector product, AU = helm1*[A]u + helm2*[B]u, for NEL elements...">
<polygon fill="white" stroke="black" points="394,-380.5 394,-399.5 444,-399.5 444,-380.5 394,-380.5"/>
<text text-anchor="middle" x="419" y="-387.5" font-family="Helvetica,sans-Serif" font-size="10.00">axhelm</text>
</a>
</g>
</g>
<!-- Node1&#45;&gt;Node2 -->
<g id="edge1" class="edge"><title>Node1&#45;&gt;Node2</title>
<path fill="none" stroke="midnightblue" d="M61.5613,-342.584C77.2078,-351.682 102.338,-364.852 126,-371 216.578,-394.535 328.002,-394.037 383.366,-391.907"/>
<polygon fill="midnightblue" stroke="midnightblue" points="383.828,-395.391 393.669,-391.466 383.528,-388.397 383.828,-395.391"/>
</g>
<!-- Node3 -->
<g id="node3" class="node"><title>Node3</title>
<g id="a_node3"><a xlink:href="classctimer.html#abcecbc845c8ee72e13a19eaa30b80d77" target="_top" xlink:title="ctimer::dnekclock">
<polygon fill="white" stroke="black" points="628,-342.5 628,-361.5 725,-361.5 725,-342.5 628,-342.5"/>
<text text-anchor="middle" x="676.5" y="-349.5" font-family="Helvetica,sans-Serif" font-size="10.00">ctimer::dnekclock</text>
</a>
</g>
</g>
<!-- Node1&#45;&gt;Node3 -->
<g id="edge34" class="edge"><title>Node1&#45;&gt;Node3</title>
<path fill="none" stroke="midnightblue" d="M56.1629,-342.565C89.6743,-373.061 200.841,-466 311,-466 311,-466 311,-466 420,-466 483.674,-466 503.73,-472.67 562,-447 603.078,-428.904 640.943,-391.271 660.854,-369.189"/>
<polygon fill="midnightblue" stroke="midnightblue" points="663.59,-371.377 667.575,-361.56 658.338,-366.75 663.59,-371.377"/>
</g>
<!-- Node33 -->
<g id="node33" class="node"><title>Node33</title>
<g id="a_node33"><a xlink:href="dssum_8F90.html#a0b9da6f19f8f42c7aa2fd9ca723a63ef" target="_top" xlink:title="Direct stiffness sum. ">
<polygon fill="white" stroke="black" points="395.5,-304.5 395.5,-323.5 442.5,-323.5 442.5,-304.5 395.5,-304.5"/>
<text text-anchor="middle" x="419" y="-311.5" font-family="Helvetica,sans-Serif" font-size="10.00">dssum</text>
</a>
</g>
</g>
<!-- Node1&#45;&gt;Node33 -->
<g id="edge35" class="edge"><title>Node1&#45;&gt;Node33</title>
<path fill="none" stroke="midnightblue" d="M90.1341,-330.746C165.61,-326.891 317.818,-319.117 384.931,-315.689"/>
<polygon fill="midnightblue" stroke="midnightblue" points="385.512,-319.164 395.32,-315.158 385.155,-312.173 385.512,-319.164"/>
</g>
<!-- Node36 -->
<g id="node36" class="node"><title>Node36</title>
<g id="a_node36"><a xlink:href="math_8F90.html#a587bbc0d515f4908e972e57fee9bdace" target="_top" xlink:title="Perform inner&#45;product in double precision. ">
<polygon fill="white" stroke="black" points="291.5,-228.5 291.5,-247.5 332.5,-247.5 332.5,-228.5 291.5,-228.5"/>
<text text-anchor="middle" x="312" y="-235.5" font-family="Helvetica,sans-Serif" font-size="10.00">glsc2</text>
</a>
</g>
</g>
<!-- Node1&#45;&gt;Node36 -->
<g id="edge39" class="edge"><title>Node1&#45;&gt;Node36</title>
<path fill="none" stroke="midnightblue" d="M53.4151,-323.444C66.2781,-307.644 94.3985,-276.395 126,-262 176.834,-238.844 243.145,-235.996 281.004,-236.602"/>
<polygon fill="midnightblue" stroke="midnightblue" points="281.255,-240.11 291.342,-236.867 281.434,-233.112 281.255,-240.11"/>
</g>
<!-- Node37 -->
<g id="node37" class="node"><title>Node37</title>
<g id="a_node37"><a xlink:href="comm__mpi_8F90.html#a3f652605d55796462e959d17b5a9612b" target="_top" xlink:title="Global vector commutative operation. ">
<polygon fill="white" stroke="black" points="401.5,-228.5 401.5,-247.5 436.5,-247.5 436.5,-228.5 401.5,-228.5"/>
<text text-anchor="middle" x="419" y="-235.5" font-family="Helvetica,sans-Serif" font-size="10.00">gop</text>
</a>
</g>
</g>
<!-- Node1&#45;&gt;Node37 -->
<g id="edge56" class="edge"><title>Node1&#45;&gt;Node37</title>
<path fill="none" stroke="midnightblue" d="M89.1368,-323.465C149.563,-309.888 262.702,-283.663 358,-257 369.049,-253.909 381.127,-250.157 391.533,-246.807"/>
<polygon fill="midnightblue" stroke="midnightblue" points="392.858,-250.056 401.28,-243.629 390.688,-243.401 392.858,-250.056"/>
</g>
<!-- Node49 -->
<g id="node49" class="node"><title>Node49</title>
<g id="a_node49"><a xlink:href="classhelmholtz.html#a3e09d3a986ea4fbbadab98d300bf9371" target="_top" xlink:title="Recompute H_red if dt has changed. ">
<polygon fill="white" stroke="black" points="126,-342.5 126,-361.5 230,-361.5 230,-342.5 126,-342.5"/>
<text text-anchor="middle" x="178" y="-349.5" font-family="Helvetica,sans-Serif" font-size="10.00">helmholtz::updrhsh</text>
</a>
</g>
</g>
<!-- Node1&#45;&gt;Node49 -->
<g id="edge57" class="edge"><title>Node1&#45;&gt;Node49</title>
<path fill="none" stroke="midnightblue" d="M90.3506,-339.433C98.5666,-340.624 107.28,-341.888 115.892,-343.137"/>
<polygon fill="midnightblue" stroke="midnightblue" points="115.519,-346.62 125.918,-344.591 116.524,-339.692 115.519,-346.62"/>
</g>
<!-- Node2&#45;&gt;Node3 -->
<g id="edge2" class="edge"><title>Node2&#45;&gt;Node3</title>
<path fill="none" stroke="midnightblue" d="M444.037,-386.425C483.448,-380.564 562.888,-368.749 617.618,-360.609"/>
<polygon fill="midnightblue" stroke="midnightblue" points="618.159,-364.067 627.535,-359.134 617.129,-357.143 618.159,-364.067"/>
</g>
<!-- Node5 -->
<g id="node5" class="node"><title>Node5</title>
<g id="a_node5"><a xlink:href="mxm__wrapper_8F90.html#ab9ec2260a10061af6ce1c52f3c8a41da" target="_top" xlink:title="Compute matrix&#45;matrix product C = A*B. ">
<polygon fill="white" stroke="black" points="502,-646.5 502,-665.5 540,-665.5 540,-646.5 502,-646.5"/>
<text text-anchor="middle" x="521" y="-653.5" font-family="Helvetica,sans-Serif" font-size="10.00">mxm</text>
</a>
</g>
</g>
<!-- Node2&#45;&gt;Node5 -->
<g id="edge4" class="edge"><title>Node2&#45;&gt;Node5</title>
<path fill="none" stroke="midnightblue" d="M423.678,-399.783C438.38,-438.892 493.091,-584.422 512.836,-636.943"/>
<polygon fill="midnightblue" stroke="midnightblue" points="509.599,-638.28 516.394,-646.409 516.151,-635.817 509.599,-638.28"/>
</g>
<!-- Node32 -->
<g id="node32" class="node"><title>Node32</title>
<g id="a_node32"><a xlink:href="hmholtz_8F90.html#a0f322d39d4bdffa3f9ba901f72d4a1d0" target="_top" xlink:title="Set logicals for fast evaluation of A*x. ">
<polygon fill="white" stroke="black" points="497,-418.5 497,-437.5 545,-437.5 545,-418.5 497,-418.5"/>
<text text-anchor="middle" x="521" y="-425.5" font-family="Helvetica,sans-Serif" font-size="10.00">setfast</text>
</a>
</g>
</g>
<!-- Node2&#45;&gt;Node32 -->
<g id="edge32" class="edge"><title>Node2&#45;&gt;Node32</title>
<path fill="none" stroke="midnightblue" d="M444.207,-399.199C457.045,-404.077 473.007,-410.143 486.966,-415.447"/>
<polygon fill="midnightblue" stroke="midnightblue" points="486.113,-418.867 496.704,-419.148 488.6,-412.324 486.113,-418.867"/>
</g>
<!-- Node4 -->
<g id="node4" class="node"><title>Node4</title>
<g id="a_node4"><a xlink:href="mpi__dummy_8F90.html#ae6a5ef945f87c2c27849696b70f3af2a" target="_top" xlink:title="mpi_wtime">
<polygon fill="white" stroke="black" points="793,-266.5 793,-285.5 859,-285.5 859,-266.5 793,-266.5"/>
<text text-anchor="middle" x="826" y="-273.5" font-family="Helvetica,sans-Serif" font-size="10.00">mpi_wtime</text>
</a>
</g>
</g>
<!-- Node3&#45;&gt;Node4 -->
<g id="edge3" class="edge"><title>Node3&#45;&gt;Node4</title>
<path fill="none" stroke="midnightblue" d="M725.063,-344.875C735.368,-342.114 745.897,-338.29 755,-333 775.115,-321.311 772.636,-309.282 791,-295 792.778,-293.617 794.669,-292.272 796.614,-290.979"/>
<polygon fill="midnightblue" stroke="midnightblue" points="798.582,-293.879 805.297,-285.683 794.937,-287.903 798.582,-293.879"/>
</g>
<!-- Node6 -->
<g id="node6" class="node"><title>Node6</title>
<g id="a_node6"><a xlink:href="mxm__std_8F90.html#ac63fe7516a18dc57dfe913ad2c1453be" target="_top" xlink:title="mxm44_0">
<polygon fill="white" stroke="black" points="795,-304.5 795,-323.5 857,-323.5 857,-304.5 795,-304.5"/>
<text text-anchor="middle" x="826" y="-311.5" font-family="Helvetica,sans-Serif" font-size="10.00">mxm44_0</text>
</a>
</g>
</g>
<!-- Node5&#45;&gt;Node6 -->
<g id="edge5" class="edge"><title>Node5&#45;&gt;Node6</title>
<path fill="none" stroke="midnightblue" d="M531.934,-646.406C545.668,-633.677 571.743,-611.377 598,-599 662.94,-568.389 706.329,-613.776 755,-561 824.55,-485.586 732.323,-417.151 791,-333 791.74,-331.939 792.559,-330.931 793.441,-329.973"/>
<polygon fill="midnightblue" stroke="midnightblue" points="795.693,-332.653 801.177,-323.588 791.237,-327.254 795.693,-332.653"/>
</g>
<!-- Node7 -->
<g id="node7" class="node"><title>Node7</title>
<g id="a_node7"><a xlink:href="mxm__std_8F90.html#af07f4b22fdc3488ca321736743f14b01" target="_top" xlink:title="mxm44_2">
<polygon fill="white" stroke="black" points="645.5,-532.5 645.5,-551.5 707.5,-551.5 707.5,-532.5 645.5,-532.5"/>
<text text-anchor="middle" x="676.5" y="-539.5" font-family="Helvetica,sans-Serif" font-size="10.00">mxm44_2</text>
</a>
</g>
</g>
<!-- Node5&#45;&gt;Node7 -->
<g id="edge6" class="edge"><title>Node5&#45;&gt;Node7</title>
<path fill="none" stroke="midnightblue" d="M527.564,-646.29C538.606,-627.88 565.092,-587.793 598,-566 609.212,-558.575 622.841,-553.35 635.525,-549.717"/>
<polygon fill="midnightblue" stroke="midnightblue" points="636.637,-553.044 645.429,-547.133 634.87,-546.271 636.637,-553.044"/>
</g>
<!-- Node8 -->
<g id="node8" class="node"><title>Node8</title>
<g id="a_node8"><a xlink:href="mxm__bgq_8F90.html#a8a70163b4dbfdbfcce7bff170597fcad" target="_top" xlink:title="mxm_bgq_10">
<polygon fill="white" stroke="black" points="636.5,-798.5 636.5,-817.5 716.5,-817.5 716.5,-798.5 636.5,-798.5"/>
<text text-anchor="middle" x="676.5" y="-805.5" font-family="Helvetica,sans-Serif" font-size="10.00">mxm_bgq_10</text>
</a>
</g>
</g>
<!-- Node5&#45;&gt;Node8 -->
<g id="edge7" class="edge"><title>Node5&#45;&gt;Node8</title>
<path fill="none" stroke="midnightblue" d="M524.664,-665.825C531.92,-690.636 554.468,-756.179 598,-789 606.213,-795.192 616.182,-799.391 626.196,-802.232"/>
<polygon fill="midnightblue" stroke="midnightblue" points="625.62,-805.693 636.163,-804.643 627.266,-798.89 625.62,-805.693"/>
</g>
<!-- Node9 -->
<g id="node9" class="node"><title>Node9</title>
<g id="a_node9"><a xlink:href="mxm__bgq_8F90.html#a27529ace9834454b8906f29e02718629" target="_top" xlink:title="mxm_bgq_12">
<polygon fill="white" stroke="black" points="636.5,-760.5 636.5,-779.5 716.5,-779.5 716.5,-760.5 636.5,-760.5"/>
<text text-anchor="middle" x="676.5" y="-767.5" font-family="Helvetica,sans-Serif" font-size="10.00">mxm_bgq_12</text>
</a>
</g>
</g>
<!-- Node5&#45;&gt;Node9 -->
<g id="edge8" class="edge"><title>Node5&#45;&gt;Node9</title>
<path fill="none" stroke="midnightblue" d="M526.817,-665.538C537.094,-684.87 563.108,-728.722 598,-751 606.582,-756.48 616.625,-760.379 626.582,-763.154"/>
<polygon fill="midnightblue" stroke="midnightblue" points="625.907,-766.592 636.453,-765.57 627.572,-759.793 625.907,-766.592"/>
</g>
<!-- Node10 -->
<g id="node10" class="node"><title>Node10</title>
<g id="a_node10"><a xlink:href="mxm__bgq_8F90.html#a3fda9ea4bc7a5713a19d6939fa2b541f" target="_top" xlink:title="mxm_bgq_16">
<polygon fill="white" stroke="black" points="636.5,-722.5 636.5,-741.5 716.5,-741.5 716.5,-722.5 636.5,-722.5"/>
<text text-anchor="middle" x="676.5" y="-729.5" font-family="Helvetica,sans-Serif" font-size="10.00">mxm_bgq_16</text>
</a>
</g>
</g>
<!-- Node5&#45;&gt;Node10 -->
<g id="edge9" class="edge"><title>Node5&#45;&gt;Node10</title>
<path fill="none" stroke="midnightblue" d="M531.94,-665.583C545.679,-678.299 571.761,-700.584 598,-713 606.829,-717.178 616.674,-720.495 626.305,-723.11"/>
<polygon fill="midnightblue" stroke="midnightblue" points="625.662,-726.557 636.212,-725.587 627.36,-719.766 625.662,-726.557"/>
</g>
<!-- Node11 -->
<g id="node11" class="node"><title>Node11</title>
<g id="a_node11"><a xlink:href="mxm__bgq_8F90.html#af192c3c8b982aa5bbc2a757156718a91" target="_top" xlink:title="mxm_bgq_6">
<polygon fill="white" stroke="black" points="639.5,-684.5 639.5,-703.5 713.5,-703.5 713.5,-684.5 639.5,-684.5"/>
<text text-anchor="middle" x="676.5" y="-691.5" font-family="Helvetica,sans-Serif" font-size="10.00">mxm_bgq_6</text>
</a>
</g>
</g>
<!-- Node5&#45;&gt;Node11 -->
<g id="edge10" class="edge"><title>Node5&#45;&gt;Node11</title>
<path fill="none" stroke="midnightblue" d="M540.114,-660.553C555.508,-664.417 578.197,-670.097 598,-675 608.191,-677.523 619.139,-680.217 629.504,-682.76"/>
<polygon fill="midnightblue" stroke="midnightblue" points="628.673,-686.16 639.218,-685.141 630.339,-679.361 628.673,-686.16"/>
</g>
<!-- Node12 -->
<g id="node12" class="node"><title>Node12</title>
<g id="a_node12"><a xlink:href="mxm__bgq_8F90.html#a8faaef428336095704ece51624bbfe92" target="_top" xlink:title="mxm_bgq_8">
<polygon fill="white" stroke="black" points="639.5,-646.5 639.5,-665.5 713.5,-665.5 713.5,-646.5 639.5,-646.5"/>
<text text-anchor="middle" x="676.5" y="-653.5" font-family="Helvetica,sans-Serif" font-size="10.00">mxm_bgq_8</text>
</a>
</g>
</g>
<!-- Node5&#45;&gt;Node12 -->
<g id="edge11" class="edge"><title>Node5&#45;&gt;Node12</title>
<path fill="none" stroke="midnightblue" d="M540.211,-656C561.949,-656 599.112,-656 628.994,-656"/>
<polygon fill="midnightblue" stroke="midnightblue" points="629.223,-659.5 639.223,-656 629.223,-652.5 629.223,-659.5"/>
</g>
<!-- Node13 -->
<g id="node13" class="node"><title>Node13</title>
<g id="a_node13"><a xlink:href="mxm__std_8F90.html#aa9e8685c4a72f18fb5d1ee88ed17a3d6" target="_top" xlink:title="unrolled loop version ">
<polygon fill="white" stroke="red" points="653,-608.5 653,-627.5 700,-627.5 700,-608.5 653,-608.5"/>
<text text-anchor="middle" x="676.5" y="-615.5" font-family="Helvetica,sans-Serif" font-size="10.00">mxmf2</text>
</a>
</g>
</g>
<!-- Node5&#45;&gt;Node13 -->
<g id="edge12" class="edge"><title>Node5&#45;&gt;Node13</title>
<path fill="none" stroke="midnightblue" d="M540.114,-651.447C555.508,-647.583 578.197,-641.903 598,-637 612.681,-633.365 628.934,-629.375 642.75,-625.994"/>
<polygon fill="midnightblue" stroke="midnightblue" points="643.89,-629.318 652.773,-623.543 642.227,-622.519 643.89,-629.318"/>
</g>
<!-- Node13&#45;&gt;Node6 -->
<g id="edge31" class="edge"><title>Node13&#45;&gt;Node6</title>
<path fill="none" stroke="midnightblue" d="M700.039,-617.276C717.715,-615.431 741.51,-609.893 755,-594 830.774,-504.724 724.965,-429.703 791,-333 791.729,-331.932 792.539,-330.918 793.414,-329.955"/>
<polygon fill="midnightblue" stroke="midnightblue" points="795.668,-332.633 801.118,-323.547 791.191,-327.251 795.668,-332.633"/>
</g>
<!-- Node14 -->
<g id="node14" class="node"><title>Node14</title>
<g id="a_node14"><a xlink:href="mxm__std_8F90.html#a7d3ac03517b3934b98857b22f7f78788" target="_top" xlink:title="mxf1">
<polygon fill="white" stroke="black" points="806.5,-646.5 806.5,-665.5 845.5,-665.5 845.5,-646.5 806.5,-646.5"/>
<text text-anchor="middle" x="826" y="-653.5" font-family="Helvetica,sans-Serif" font-size="10.00">mxf1</text>
</a>
</g>
</g>
<!-- Node13&#45;&gt;Node14 -->
<g id="edge13" class="edge"><title>Node13&#45;&gt;Node14</title>
<path fill="none" stroke="midnightblue" d="M700.258,-623.423C715.721,-627.147 736.624,-632.254 755,-637 768.621,-640.518 783.685,-644.584 796.338,-648.049"/>
<polygon fill="midnightblue" stroke="midnightblue" points="795.745,-651.516 806.315,-650.794 797.602,-644.767 795.745,-651.516"/>
</g>
<!-- Node15 -->
<g id="node15" class="node"><title>Node15</title>
<g id="a_node15"><a xlink:href="mxm__std_8F90.html#a5786b175fcbe28ecafe1d878687c3ccf" target="_top" xlink:title="mxf10">
<polygon fill="white" stroke="black" points="803.5,-608.5 803.5,-627.5 848.5,-627.5 848.5,-608.5 803.5,-608.5"/>
<text text-anchor="middle" x="826" y="-615.5" font-family="Helvetica,sans-Serif" font-size="10.00">mxf10</text>
</a>
</g>
</g>
<!-- Node13&#45;&gt;Node15 -->
<g id="edge14" class="edge"><title>Node13&#45;&gt;Node15</title>
<path fill="none" stroke="midnightblue" d="M700.224,-618C725.16,-618 765.362,-618 793.371,-618"/>
<polygon fill="midnightblue" stroke="midnightblue" points="793.451,-621.5 803.451,-618 793.451,-614.5 793.451,-621.5"/>
</g>
<!-- Node16 -->
<g id="node16" class="node"><title>Node16</title>
<g id="a_node16"><a xlink:href="mxm__std_8F90.html#a244c7a41b5b7a22acba71c34552c2774" target="_top" xlink:title="mxf11">
<polygon fill="white" stroke="black" points="803.5,-570.5 803.5,-589.5 848.5,-589.5 848.5,-570.5 803.5,-570.5"/>
<text text-anchor="middle" x="826" y="-577.5" font-family="Helvetica,sans-Serif" font-size="10.00">mxf11</text>
</a>
</g>
</g>
<!-- Node13&#45;&gt;Node16 -->
<g id="edge15" class="edge"><title>Node13&#45;&gt;Node16</title>
<path fill="none" stroke="midnightblue" d="M700.224,-612.146C725.27,-605.693 765.716,-595.273 793.74,-588.053"/>
<polygon fill="midnightblue" stroke="midnightblue" points="794.64,-591.436 803.451,-585.552 792.894,-584.657 794.64,-591.436"/>
</g>
<!-- Node17 -->
<g id="node17" class="node"><title>Node17</title>
<g id="a_node17"><a xlink:href="mxm__std_8F90.html#afb2e2cde9040ab037e3586b0deef3851" target="_top" xlink:title="mxf12">
<polygon fill="white" stroke="black" points="803.5,-532.5 803.5,-551.5 848.5,-551.5 848.5,-532.5 803.5,-532.5"/>
<text text-anchor="middle" x="826" y="-539.5" font-family="Helvetica,sans-Serif" font-size="10.00">mxf12</text>
</a>
</g>
</g>
<!-- Node13&#45;&gt;Node17 -->
<g id="edge16" class="edge"><title>Node13&#45;&gt;Node17</title>
<path fill="none" stroke="midnightblue" d="M700.283,-613.73C716.323,-610.075 737.898,-603.817 755,-594 773.824,-583.194 773.408,-573.713 791,-561 793.062,-559.51 795.252,-558.047 797.489,-556.636"/>
<polygon fill="midnightblue" stroke="midnightblue" points="799.344,-559.606 806.169,-551.502 795.78,-553.581 799.344,-559.606"/>
</g>
<!-- Node18 -->
<g id="node18" class="node"><title>Node18</title>
<g id="a_node18"><a xlink:href="mxm__std_8F90.html#a6a048a62b47a5c2327279e158c1689df" target="_top" xlink:title="mxf13">
<polygon fill="white" stroke="black" points="803.5,-494.5 803.5,-513.5 848.5,-513.5 848.5,-494.5 803.5,-494.5"/>
<text text-anchor="middle" x="826" y="-501.5" font-family="Helvetica,sans-Serif" font-size="10.00">mxf13</text>
</a>
</g>
</g>
<!-- Node13&#45;&gt;Node18 -->
<g id="edge17" class="edge"><title>Node13&#45;&gt;Node18</title>
<path fill="none" stroke="midnightblue" d="M700.121,-615.75C716.915,-613.039 739.499,-607.081 755,-594 782.039,-571.183 766.492,-548.517 791,-523 792.224,-521.726 793.552,-520.514 794.95,-519.365"/>
<polygon fill="midnightblue" stroke="midnightblue" points="797.246,-522.033 803.49,-513.473 793.271,-516.271 797.246,-522.033"/>
</g>
<!-- Node19 -->
<g id="node19" class="node"><title>Node19</title>
<g id="a_node19"><a xlink:href="mxm__std_8F90.html#a6e57628b882cb8bcac215e9a5b523eed" target="_top" xlink:title="mxf14">
<polygon fill="white" stroke="black" points="803.5,-456.5 803.5,-475.5 848.5,-475.5 848.5,-456.5 803.5,-456.5"/>
<text text-anchor="middle" x="826" y="-463.5" font-family="Helvetica,sans-Serif" font-size="10.00">mxf14</text>
</a>
</g>
</g>
<!-- Node13&#45;&gt;Node19 -->
<g id="edge18" class="edge"><title>Node13&#45;&gt;Node19</title>
<path fill="none" stroke="midnightblue" d="M700.001,-616.493C717.18,-614.185 740.324,-608.405 755,-594 791.411,-558.263 758.521,-524.344 791,-485 792.259,-483.475 793.674,-482.05 795.194,-480.723"/>
<polygon fill="midnightblue" stroke="midnightblue" points="797.289,-483.528 803.416,-474.884 793.236,-477.82 797.289,-483.528"/>
</g>
<!-- Node20 -->
<g id="node20" class="node"><title>Node20</title>
<g id="a_node20"><a xlink:href="mxm__std_8F90.html#a02e79201be026faf756be00e58334c4f" target="_top" xlink:title="mxf15">
<polygon fill="white" stroke="black" points="803.5,-418.5 803.5,-437.5 848.5,-437.5 848.5,-418.5 803.5,-418.5"/>
<text text-anchor="middle" x="826" y="-425.5" font-family="Helvetica,sans-Serif" font-size="10.00">mxf15</text>
</a>
</g>
</g>
<!-- Node13&#45;&gt;Node20 -->
<g id="edge19" class="edge"><title>Node13&#45;&gt;Node20</title>
<path fill="none" stroke="midnightblue" d="M700.322,-616.807C717.678,-614.673 740.902,-608.972 755,-594 801.111,-545.029 750.256,-500.52 791,-447 792.198,-445.426 793.566,-443.964 795.05,-442.609"/>
<polygon fill="midnightblue" stroke="midnightblue" points="797.15,-445.409 803.179,-436.697 793.033,-439.748 797.15,-445.409"/>
</g>
<!-- Node21 -->
<g id="node21" class="node"><title>Node21</title>
<g id="a_node21"><a xlink:href="mxm__std_8F90.html#a2fbea6eeadc258673ba8ea5708593aee" target="_top" xlink:title="mxf16">
<polygon fill="white" stroke="black" points="803.5,-380.5 803.5,-399.5 848.5,-399.5 848.5,-380.5 803.5,-380.5"/>
<text text-anchor="middle" x="826" y="-387.5" font-family="Helvetica,sans-Serif" font-size="10.00">mxf16</text>
</a>
</g>
</g>
<!-- Node13&#45;&gt;Node21 -->
<g id="edge20" class="edge"><title>Node13&#45;&gt;Node21</title>
<path fill="none" stroke="midnightblue" d="M700.165,-617.034C717.67,-615.037 741.172,-609.411 755,-594 810.944,-531.656 741.874,-476.847 791,-409 792.19,-407.357 793.567,-405.838 795.073,-404.437"/>
<polygon fill="midnightblue" stroke="midnightblue" points="797.364,-407.098 803.384,-398.38 793.241,-401.441 797.364,-407.098"/>
</g>
<!-- Node22 -->
<g id="node22" class="node"><title>Node22</title>
<g id="a_node22"><a xlink:href="mxm__std_8F90.html#a3829af481cd230e6aadef08feab9a278" target="_top" xlink:title="mxf17">
<polygon fill="white" stroke="black" points="803.5,-342.5 803.5,-361.5 848.5,-361.5 848.5,-342.5 803.5,-342.5"/>
<text text-anchor="middle" x="826" y="-349.5" font-family="Helvetica,sans-Serif" font-size="10.00">mxf17</text>
</a>
</g>
</g>
<!-- Node13&#45;&gt;Node22 -->
<g id="edge21" class="edge"><title>Node13&#45;&gt;Node22</title>
<path fill="none" stroke="midnightblue" d="M700.3,-617.153C717.883,-615.224 741.421,-609.631 755,-594 820.841,-518.211 733.436,-453.252 791,-371 792.163,-369.338 793.521,-367.805 795.011,-366.393"/>
<polygon fill="midnightblue" stroke="midnightblue" points="797.301,-369.053 803.284,-360.309 793.154,-363.413 797.301,-369.053"/>
</g>
<!-- Node23 -->
<g id="node23" class="node"><title>Node23</title>
<g id="a_node23"><a xlink:href="mxm__std_8F90.html#a48ed8195cc978a87c005b3306a974894" target="_top" xlink:title="mxf18">
<polygon fill="white" stroke="black" points="803.5,-988.5 803.5,-1007.5 848.5,-1007.5 848.5,-988.5 803.5,-988.5"/>
<text text-anchor="middle" x="826" y="-995.5" font-family="Helvetica,sans-Serif" font-size="10.00">mxf18</text>
</a>
</g>
</g>
<!-- Node13&#45;&gt;Node23 -->
<g id="edge22" class="edge"><title>Node13&#45;&gt;Node23</title>
<path fill="none" stroke="midnightblue" d="M700.043,-617.044C717.721,-617.617 741.517,-621.554 755,-637 805.254,-694.572 748.926,-915.205 791,-979 792.145,-980.736 793.505,-982.329 795.013,-983.788"/>
<polygon fill="midnightblue" stroke="midnightblue" points="793.335,-986.899 803.461,-990.014 797.488,-981.264 793.335,-986.899"/>
</g>
<!-- Node24 -->
<g id="node24" class="node"><title>Node24</title>
<g id="a_node24"><a xlink:href="mxm__std_8F90.html#a28a9857286e11804e1a97875028ecb09" target="_top" xlink:title="mxf19">
<polygon fill="white" stroke="black" points="803.5,-950.5 803.5,-969.5 848.5,-969.5 848.5,-950.5 803.5,-950.5"/>
<text text-anchor="middle" x="826" y="-957.5" font-family="Helvetica,sans-Serif" font-size="10.00">mxf19</text>
</a>
</g>
</g>
<!-- Node13&#45;&gt;Node24 -->
<g id="edge23" class="edge"><title>Node13&#45;&gt;Node24</title>
<path fill="none" stroke="midnightblue" d="M700.348,-617.104C717.958,-617.745 741.509,-621.745 755,-637 845.134,-738.916 715.356,-827.911 791,-941 792.128,-942.686 793.458,-944.238 794.928,-945.664"/>
<polygon fill="midnightblue" stroke="midnightblue" points="793.038,-948.62 803.15,-951.782 797.217,-943.005 793.038,-948.62"/>
</g>
<!-- Node25 -->
<g id="node25" class="node"><title>Node25</title>
<g id="a_node25"><a xlink:href="mxm__std_8F90.html#acd223c583f3a9242fda7a1b8897b624d" target="_top" xlink:title="mxf2">
<polygon fill="white" stroke="black" points="806.5,-912.5 806.5,-931.5 845.5,-931.5 845.5,-912.5 806.5,-912.5"/>
<text text-anchor="middle" x="826" y="-919.5" font-family="Helvetica,sans-Serif" font-size="10.00">mxf2</text>
</a>
</g>
</g>
<!-- Node13&#45;&gt;Node25 -->
<g id="edge24" class="edge"><title>Node13&#45;&gt;Node25</title>
<path fill="none" stroke="midnightblue" d="M700.279,-617.165C717.85,-617.841 741.383,-621.858 755,-637 834.775,-725.704 723.849,-804.394 791,-903 792.748,-905.567 794.964,-907.825 797.423,-909.802"/>
<polygon fill="midnightblue" stroke="midnightblue" points="796.074,-913.09 806.395,-915.48 799.817,-907.175 796.074,-913.09"/>
</g>
<!-- Node26 -->
<g id="node26" class="node"><title>Node26</title>
<g id="a_node26"><a xlink:href="mxm__std_8F90.html#af60059bd60847f48acdf6461fefa3b22" target="_top" xlink:title="mxf20">
<polygon fill="white" stroke="black" points="803.5,-874.5 803.5,-893.5 848.5,-893.5 848.5,-874.5 803.5,-874.5"/>
<text text-anchor="middle" x="826" y="-881.5" font-family="Helvetica,sans-Serif" font-size="10.00">mxf20</text>
</a>
</g>
</g>
<!-- Node13&#45;&gt;Node26 -->
<g id="edge25" class="edge"><title>Node13&#45;&gt;Node26</title>
<path fill="none" stroke="midnightblue" d="M700.189,-617.247C717.708,-617.97 741.216,-622.01 755,-637 824.438,-712.517 732.323,-780.849 791,-865 792.16,-866.664 793.516,-868.199 795.004,-869.612"/>
<polygon fill="midnightblue" stroke="midnightblue" points="793.145,-872.589 803.273,-875.699 797.294,-866.952 793.145,-872.589"/>
</g>
<!-- Node27 -->
<g id="node27" class="node"><title>Node27</title>
<g id="a_node27"><a xlink:href="mxm__std_8F90.html#a825db174c5643aef5e4cdf57067ebbbb" target="_top" xlink:title="mxf21">
<polygon fill="white" stroke="black" points="803.5,-836.5 803.5,-855.5 848.5,-855.5 848.5,-836.5 803.5,-836.5"/>
<text text-anchor="middle" x="826" y="-843.5" font-family="Helvetica,sans-Serif" font-size="10.00">mxf21</text>
</a>
</g>
</g>
<!-- Node13&#45;&gt;Node27 -->
<g id="edge26" class="edge"><title>Node13&#45;&gt;Node27</title>
<path fill="none" stroke="midnightblue" d="M700.065,-617.363C717.514,-618.151 740.988,-622.223 755,-637 814.137,-699.367 740.766,-757.262 791,-827 792.186,-828.646 793.56,-830.167 795.063,-831.57"/>
<polygon fill="midnightblue" stroke="midnightblue" points="793.228,-834.563 803.369,-837.631 797.354,-828.909 793.228,-834.563"/>
</g>
<!-- Node28 -->
<g id="node28" class="node"><title>Node28</title>
<g id="a_node28"><a xlink:href="mxm__std_8F90.html#a1f2059cb835b2818aef861f2f59a0a72" target="_top" xlink:title="mxf22">
<polygon fill="white" stroke="black" points="803.5,-798.5 803.5,-817.5 848.5,-817.5 848.5,-798.5 803.5,-798.5"/>
<text text-anchor="middle" x="826" y="-805.5" font-family="Helvetica,sans-Serif" font-size="10.00">mxf22</text>
</a>
</g>
</g>
<!-- Node13&#45;&gt;Node28 -->
<g id="edge27" class="edge"><title>Node13&#45;&gt;Node28</title>
<path fill="none" stroke="midnightblue" d="M700.24,-617.557C717.55,-618.481 740.755,-622.642 755,-637 803.897,-686.283 749.158,-733.602 791,-789 792.192,-790.578 793.556,-792.044 795.036,-793.402"/>
<polygon fill="midnightblue" stroke="midnightblue" points="793.013,-796.259 803.156,-799.321 797.137,-790.602 793.013,-796.259"/>
</g>
<!-- Node29 -->
<g id="node29" class="node"><title>Node29</title>
<g id="a_node29"><a xlink:href="mxm__std_8F90.html#a3dc6491b8d44b702dbbb13a01f887c59" target="_top" xlink:title="mxf23">
<polygon fill="white" stroke="black" points="803.5,-760.5 803.5,-779.5 848.5,-779.5 848.5,-760.5 803.5,-760.5"/>
<text text-anchor="middle" x="826" y="-767.5" font-family="Helvetica,sans-Serif" font-size="10.00">mxf23</text>
</a>
</g>
</g>
<!-- Node13&#45;&gt;Node29 -->
<g id="edge28" class="edge"><title>Node13&#45;&gt;Node29</title>
<path fill="none" stroke="midnightblue" d="M700.307,-617.874C717.423,-618.997 740.339,-623.269 755,-637 793.78,-673.321 757.444,-709.804 791,-751 792.249,-752.534 793.657,-753.965 795.17,-755.297"/>
<polygon fill="midnightblue" stroke="midnightblue" points="793.203,-758.192 803.377,-761.148 797.266,-752.493 793.203,-758.192"/>
</g>
<!-- Node30 -->
<g id="node30" class="node"><title>Node30</title>
<g id="a_node30"><a xlink:href="mxm__std_8F90.html#af0752c9a61343489900f8d812c6980ed" target="_top" xlink:title="mxf24">
<polygon fill="white" stroke="black" points="803.5,-722.5 803.5,-741.5 848.5,-741.5 848.5,-722.5 803.5,-722.5"/>
<text text-anchor="middle" x="826" y="-729.5" font-family="Helvetica,sans-Serif" font-size="10.00">mxf24</text>
</a>
</g>
</g>
<!-- Node13&#45;&gt;Node30 -->
<g id="edge29" class="edge"><title>Node13&#45;&gt;Node30</title>
<path fill="none" stroke="midnightblue" d="M700.147,-618.486C716.955,-619.953 739.544,-624.388 755,-637 783.958,-660.63 765.474,-685.698 791,-713 792.206,-714.29 793.521,-715.515 794.908,-716.675"/>
<polygon fill="midnightblue" stroke="midnightblue" points="793.209,-719.756 803.416,-722.597 797.208,-714.011 793.209,-719.756"/>
</g>
<!-- Node31 -->
<g id="node31" class="node"><title>Node31</title>
<g id="a_node31"><a xlink:href="mxm__std_8F90.html#abff718a387aa354f77d0e8b0ffa98867" target="_top" xlink:title="mxf3">
<polygon fill="white" stroke="black" points="806.5,-684.5 806.5,-703.5 845.5,-703.5 845.5,-684.5 806.5,-684.5"/>
<text text-anchor="middle" x="826" y="-691.5" font-family="Helvetica,sans-Serif" font-size="10.00">mxf3</text>
</a>
</g>
</g>
<!-- Node13&#45;&gt;Node31 -->
<g id="edge30" class="edge"><title>Node13&#45;&gt;Node31</title>
<path fill="none" stroke="midnightblue" d="M700.143,-620.116C716.316,-622.419 738.111,-627.186 755,-637 775.115,-648.689 772.636,-660.718 791,-675 793.055,-676.598 795.261,-678.145 797.526,-679.621"/>
<polygon fill="midnightblue" stroke="midnightblue" points="795.982,-682.776 806.359,-684.912 799.579,-676.771 795.982,-682.776"/>
</g>
<!-- Node32&#45;&gt;Node3 -->
<g id="edge33" class="edge"><title>Node32&#45;&gt;Node3</title>
<path fill="none" stroke="midnightblue" d="M541.441,-418.375C568.084,-405.183 616.133,-381.393 646.888,-366.166"/>
<polygon fill="midnightblue" stroke="midnightblue" points="648.808,-369.121 656.217,-361.547 645.702,-362.848 648.808,-369.121"/>
</g>
<!-- Node33&#45;&gt;Node3 -->
<g id="edge36" class="edge"><title>Node33&#45;&gt;Node3</title>
<path fill="none" stroke="midnightblue" d="M442.674,-317.372C481.65,-323.169 562.495,-335.193 617.871,-343.429"/>
<polygon fill="midnightblue" stroke="midnightblue" points="617.493,-346.911 627.899,-344.92 618.522,-339.987 617.493,-346.911"/>
</g>
<!-- Node34 -->
<g id="node34" class="node"><title>Node34</title>
<g id="a_node34"><a xlink:href="comm__mpi_8F90.html#a4acb4d8e379294232e9219bec063d8f3" target="_top" xlink:title="nekgsync">
<polygon fill="white" stroke="black" points="645.5,-152.5 645.5,-171.5 707.5,-171.5 707.5,-152.5 645.5,-152.5"/>
<text text-anchor="middle" x="676.5" y="-159.5" font-family="Helvetica,sans-Serif" font-size="10.00">nekgsync</text>
</a>
</g>
</g>
<!-- Node33&#45;&gt;Node34 -->
<g id="edge37" class="edge"><title>Node33&#45;&gt;Node34</title>
<path fill="none" stroke="midnightblue" d="M423.476,-304.359C430.861,-285.228 449.938,-242.308 480,-219 504.309,-200.152 585.899,-180.591 635.667,-169.995"/>
<polygon fill="midnightblue" stroke="midnightblue" points="636.404,-173.417 645.471,-167.936 634.965,-166.566 636.404,-173.417"/>
</g>
<!-- Node35 -->
<g id="node35" class="node"><title>Node35</title>
<g id="a_node35"><a xlink:href="mpi__dummy_8F90.html#a070afe564196eb48413dbf1a9fbc99aa" target="_top" xlink:title="mpi_barrier">
<polygon fill="white" stroke="black" points="791,-152.5 791,-171.5 861,-171.5 861,-152.5 791,-152.5"/>
<text text-anchor="middle" x="826" y="-159.5" font-family="Helvetica,sans-Serif" font-size="10.00">mpi_barrier</text>
</a>
</g>
</g>
<!-- Node34&#45;&gt;Node35 -->
<g id="edge38" class="edge"><title>Node34&#45;&gt;Node35</title>
<path fill="none" stroke="midnightblue" d="M707.705,-162C728.776,-162 757.236,-162 780.845,-162"/>
<polygon fill="midnightblue" stroke="midnightblue" points="780.967,-165.5 790.967,-162 780.967,-158.5 780.967,-165.5"/>
</g>
<!-- Node36&#45;&gt;Node37 -->
<g id="edge40" class="edge"><title>Node36&#45;&gt;Node37</title>
<path fill="none" stroke="midnightblue" d="M332.75,-238C349.336,-238 373.184,-238 391.441,-238"/>
<polygon fill="midnightblue" stroke="midnightblue" points="391.448,-241.5 401.448,-238 391.447,-234.5 391.448,-241.5"/>
</g>
<!-- Node37&#45;&gt;Node3 -->
<g id="edge42" class="edge"><title>Node37&#45;&gt;Node3</title>
<path fill="none" stroke="midnightblue" d="M435.096,-247.746C465.035,-266.684 534.529,-308.722 598,-333 604.433,-335.461 611.291,-337.682 618.165,-339.665"/>
<polygon fill="midnightblue" stroke="midnightblue" points="617.633,-343.147 628.202,-342.398 619.473,-336.393 617.633,-343.147"/>
</g>
<!-- Node37&#45;&gt;Node34 -->
<g id="edge55" class="edge"><title>Node37&#45;&gt;Node34</title>
<path fill="none" stroke="midnightblue" d="M427.778,-228.41C438.24,-216.262 458.081,-195.739 480,-186 530.164,-163.711 594.287,-159.938 635.139,-160.224"/>
<polygon fill="midnightblue" stroke="midnightblue" points="635.2,-163.725 645.254,-160.381 635.309,-156.726 635.2,-163.725"/>
</g>
<!-- Node38 -->
<g id="node38" class="node"><title>Node38</title>
<g id="a_node38"><a xlink:href="math_8F90.html#a3b43508554f14bdea8e14473d7d0803c" target="_top" xlink:title="copy">
<polygon fill="white" stroke="black" points="501.5,-114.5 501.5,-133.5 540.5,-133.5 540.5,-114.5 501.5,-114.5"/>
<text text-anchor="middle" x="521" y="-121.5" font-family="Helvetica,sans-Serif" font-size="10.00">copy</text>
</a>
</g>
</g>
<!-- Node37&#45;&gt;Node38 -->
<g id="edge41" class="edge"><title>Node37&#45;&gt;Node38</title>
<path fill="none" stroke="midnightblue" d="M424.62,-228.327C433.419,-210.668 454.042,-172.752 480,-148 483.786,-144.39 488.208,-141.074 492.704,-138.133"/>
<polygon fill="midnightblue" stroke="midnightblue" points="494.532,-141.118 501.294,-132.962 490.921,-135.121 494.532,-141.118"/>
</g>
<!-- Node39 -->
<g id="node39" class="node"><title>Node39</title>
<g id="a_node39"><a xlink:href="byte_8c.html#a2da8eeb074dfd3ffbfb3e9a4d301cda4" target="_top" xlink:title="exitt">
<polygon fill="white" stroke="black" points="503,-228.5 503,-247.5 539,-247.5 539,-228.5 503,-228.5"/>
<text text-anchor="middle" x="521" y="-235.5" font-family="Helvetica,sans-Serif" font-size="10.00">exitt</text>
</a>
</g>
</g>
<!-- Node37&#45;&gt;Node39 -->
<g id="edge43" class="edge"><title>Node37&#45;&gt;Node39</title>
<path fill="none" stroke="midnightblue" d="M436.513,-238C451.745,-238 474.649,-238 492.617,-238"/>
<polygon fill="midnightblue" stroke="midnightblue" points="492.792,-241.5 502.792,-238 492.792,-234.5 492.792,-241.5"/>
</g>
<!-- Node44 -->
<g id="node44" class="node"><title>Node44</title>
<g id="a_node44"><a xlink:href="mpi__dummy_8F90.html#acd9229b5fb6a4d16f9917a5b5c2f0909" target="_top" xlink:title="mpi_allreduce">
<polygon fill="white" stroke="black" points="480,-76.5 480,-95.5 562,-95.5 562,-76.5 480,-76.5"/>
<text text-anchor="middle" x="521" y="-83.5" font-family="Helvetica,sans-Serif" font-size="10.00">mpi_allreduce</text>
</a>
</g>
</g>
<!-- Node37&#45;&gt;Node44 -->
<g id="edge50" class="edge"><title>Node37&#45;&gt;Node44</title>
<path fill="none" stroke="midnightblue" d="M421.943,-228.334C427.202,-204.446 443.821,-141.898 480,-105 481.373,-103.6 482.869,-102.291 484.45,-101.068"/>
<polygon fill="midnightblue" stroke="midnightblue" points="486.364,-103.998 492.889,-95.651 482.583,-98.1068 486.364,-103.998"/>
</g>
<!-- Node39&#45;&gt;Node3 -->
<g id="edge44" class="edge"><title>Node39&#45;&gt;Node3</title>
<path fill="none" stroke="midnightblue" d="M539.06,-245.514C546.785,-249.553 555.598,-255.125 562,-262 586.112,-287.892 570.29,-311.002 598,-333 603.893,-337.678 610.774,-341.226 617.958,-343.914"/>
<polygon fill="midnightblue" stroke="midnightblue" points="617.288,-347.373 627.879,-347.07 619.41,-340.703 617.288,-347.373"/>
</g>
<!-- Node39&#45;&gt;Node34 -->
<g id="edge49" class="edge"><title>Node39&#45;&gt;Node34</title>
<path fill="none" stroke="midnightblue" d="M539.225,-228.685C546.472,-224.509 554.861,-219.329 562,-214 579.394,-201.017 578.861,-191.238 598,-181 609.357,-174.925 622.686,-170.757 635.057,-167.911"/>
<polygon fill="midnightblue" stroke="midnightblue" points="636.077,-171.275 645.159,-165.82 634.657,-164.42 636.077,-171.275"/>
</g>
<!-- Node40 -->
<g id="node40" class="node"><title>Node40</title>
<g id="a_node40"><a xlink:href="subs1_8F90.html#a339739b88994e5bb12bd923147f94983" target="_top" xlink:title="flush_io">
<polygon fill="white" stroke="black" points="650,-304.5 650,-323.5 703,-323.5 703,-304.5 650,-304.5"/>
<text text-anchor="middle" x="676.5" y="-311.5" font-family="Helvetica,sans-Serif" font-size="10.00">flush_io</text>
</a>
</g>
</g>
<!-- Node39&#45;&gt;Node40 -->
<g id="edge45" class="edge"><title>Node39&#45;&gt;Node40</title>
<path fill="none" stroke="midnightblue" d="M539.225,-247.315C546.472,-251.491 554.861,-256.671 562,-262 579.394,-274.983 578.861,-284.762 598,-295 610.849,-301.873 626.223,-306.306 639.878,-309.143"/>
<polygon fill="midnightblue" stroke="midnightblue" points="639.443,-312.622 649.915,-311.016 640.727,-305.741 639.443,-312.622"/>
</g>
<!-- Node41 -->
<g id="node41" class="node"><title>Node41</title>
<g id="a_node41"><a xlink:href="singlmesh_8F90.html#aef78ff219741b83c1ca784b869e9cacf" target="_top" xlink:title="Dummy for singlmesh. ">
<polygon fill="white" stroke="black" points="636.5,-266.5 636.5,-285.5 716.5,-285.5 716.5,-266.5 636.5,-266.5"/>
<text text-anchor="middle" x="676.5" y="-273.5" font-family="Helvetica,sans-Serif" font-size="10.00">happy_check</text>
</a>
</g>
</g>
<!-- Node39&#45;&gt;Node41 -->
<g id="edge46" class="edge"><title>Node39&#45;&gt;Node41</title>
<path fill="none" stroke="midnightblue" d="M539.199,-242.324C554.599,-246.189 577.801,-251.999 598,-257 607.282,-259.298 617.192,-261.738 626.718,-264.076"/>
<polygon fill="midnightblue" stroke="midnightblue" points="625.917,-267.484 636.463,-266.466 627.584,-260.685 625.917,-267.484"/>
</g>
<!-- Node42 -->
<g id="node42" class="node"><title>Node42</title>
<g id="a_node42"><a xlink:href="mpi__dummy_8F90.html#a55e9a1619aadb638b14211ce21d7d566" target="_top" xlink:title="mpi_finalize">
<polygon fill="white" stroke="black" points="640.5,-228.5 640.5,-247.5 712.5,-247.5 712.5,-228.5 640.5,-228.5"/>
<text text-anchor="middle" x="676.5" y="-235.5" font-family="Helvetica,sans-Serif" font-size="10.00">mpi_finalize</text>
</a>
</g>
</g>
<!-- Node39&#45;&gt;Node42 -->
<g id="edge47" class="edge"><title>Node39&#45;&gt;Node42</title>
<path fill="none" stroke="midnightblue" d="M539.014,-238C560.894,-238 599.727,-238 630.391,-238"/>
<polygon fill="midnightblue" stroke="midnightblue" points="630.44,-241.5 640.44,-238 630.44,-234.5 630.44,-241.5"/>
</g>
<!-- Node43 -->
<g id="node43" class="node"><title>Node43</title>
<g id="a_node43"><a xlink:href="papi_8F90.html#a3a75ccdfbe05912fda48c3b134d114c0" target="_top" xlink:title="nek_flops">
<polygon fill="white" stroke="red" points="645.5,-190.5 645.5,-209.5 707.5,-209.5 707.5,-190.5 645.5,-190.5"/>
<text text-anchor="middle" x="676.5" y="-197.5" font-family="Helvetica,sans-Serif" font-size="10.00">nek_flops</text>
</a>
</g>
</g>
<!-- Node39&#45;&gt;Node43 -->
<g id="edge48" class="edge"><title>Node39&#45;&gt;Node43</title>
<path fill="none" stroke="midnightblue" d="M539.199,-233.676C554.599,-229.811 577.801,-224.001 598,-219 610.187,-215.983 623.457,-212.721 635.517,-209.765"/>
<polygon fill="midnightblue" stroke="midnightblue" points="636.432,-213.145 645.312,-207.367 634.767,-206.346 636.432,-213.145"/>
</g>
<!-- Node45 -->
<g id="node45" class="node"><title>Node45</title>
<g id="a_node45"><a xlink:href="mpi__dummy_8F90.html#a64285f5ce9bed08bfd13bc27264db185" target="_top" xlink:title="mpi_reduce_double_precision">
<polygon fill="white" stroke="black" points="598,-38.5 598,-57.5 755,-57.5 755,-38.5 598,-38.5"/>
<text text-anchor="middle" x="676.5" y="-45.5" font-family="Helvetica,sans-Serif" font-size="10.00">mpi_reduce_double_precision</text>
</a>
</g>
</g>
<!-- Node44&#45;&gt;Node45 -->
<g id="edge51" class="edge"><title>Node44&#45;&gt;Node45</title>
<path fill="none" stroke="midnightblue" d="M559.876,-76.4949C572.047,-73.4502 585.59,-70.0724 598,-67 607.282,-64.702 617.192,-62.262 626.718,-59.9235"/>
<polygon fill="midnightblue" stroke="midnightblue" points="627.584,-63.3149 636.463,-57.5336 625.917,-56.5164 627.584,-63.3149"/>
</g>
<!-- Node46 -->
<g id="node46" class="node"><title>Node46</title>
<g id="a_node46"><a xlink:href="mpi__dummy_8F90.html#aa549a352c5ab9ce53b8dfd222da38fa6" target="_top" xlink:title="mpi_reduce_integer">
<polygon fill="white" stroke="black" points="621.5,-0.5 621.5,-19.5 731.5,-19.5 731.5,-0.5 621.5,-0.5"/>
<text text-anchor="middle" x="676.5" y="-7.5" font-family="Helvetica,sans-Serif" font-size="10.00">mpi_reduce_integer</text>
</a>
</g>
</g>
<!-- Node44&#45;&gt;Node46 -->
<g id="edge52" class="edge"><title>Node44&#45;&gt;Node46</title>
<path fill="none" stroke="midnightblue" d="M531.94,-76.4171C545.679,-63.7011 571.761,-41.4155 598,-29 603.214,-26.5327 608.783,-24.3654 614.452,-22.4657"/>
<polygon fill="midnightblue" stroke="midnightblue" points="615.515,-25.8007 624.044,-19.5156 613.457,-19.11 615.515,-25.8007"/>
</g>
<!-- Node47 -->
<g id="node47" class="node"><title>Node47</title>
<g id="a_node47"><a xlink:href="mpi__dummy_8F90.html#abbddc050d7faafb34959984f69652e0a" target="_top" xlink:title="mpi_reduce_integer8">
<polygon fill="white" stroke="black" points="618.5,-114.5 618.5,-133.5 734.5,-133.5 734.5,-114.5 618.5,-114.5"/>
<text text-anchor="middle" x="676.5" y="-121.5" font-family="Helvetica,sans-Serif" font-size="10.00">mpi_reduce_integer8</text>
</a>
</g>
</g>
<!-- Node44&#45;&gt;Node47 -->
<g id="edge53" class="edge"><title>Node44&#45;&gt;Node47</title>
<path fill="none" stroke="midnightblue" d="M559.876,-95.5051C572.047,-98.5498 585.59,-101.928 598,-105 607.282,-107.298 617.192,-109.738 626.718,-112.076"/>
<polygon fill="midnightblue" stroke="midnightblue" points="625.917,-115.484 636.463,-114.466 627.584,-108.685 625.917,-115.484"/>
</g>
<!-- Node48 -->
<g id="node48" class="node"><title>Node48</title>
<g id="a_node48"><a xlink:href="mpi__dummy_8F90.html#a47f146895b36dc21100a1c42d343762c" target="_top" xlink:title="mpi_reduce_real">
<polygon fill="white" stroke="black" points="629,-76.5 629,-95.5 724,-95.5 724,-76.5 629,-76.5"/>
<text text-anchor="middle" x="676.5" y="-83.5" font-family="Helvetica,sans-Serif" font-size="10.00">mpi_reduce_real</text>
</a>
</g>
</g>
<!-- Node44&#45;&gt;Node48 -->
<g id="edge54" class="edge"><title>Node44&#45;&gt;Node48</title>
<path fill="none" stroke="midnightblue" d="M562.33,-86C579.568,-86 599.997,-86 618.722,-86"/>
<polygon fill="midnightblue" stroke="midnightblue" points="618.918,-89.5001 628.918,-86 618.918,-82.5001 618.918,-89.5001"/>
</g>
<!-- Node50 -->
<g id="node50" class="node"><title>Node50</title>
<g id="a_node50"><a xlink:href="classhelmholtz.html#a9609e49232b58a6deb40ed82508c0a45" target="_top" xlink:title="Update the k&#45;th row/column of H_red. ">
<polygon fill="white" stroke="black" points="266,-342.5 266,-361.5 358,-361.5 358,-342.5 266,-342.5"/>
<text text-anchor="middle" x="312" y="-349.5" font-family="Helvetica,sans-Serif" font-size="10.00">helmholtz::hconj</text>
</a>
</g>
</g>
<!-- Node49&#45;&gt;Node50 -->
<g id="edge58" class="edge"><title>Node49&#45;&gt;Node50</title>
<path fill="none" stroke="midnightblue" d="M230.035,-352C238.39,-352 247.084,-352 255.54,-352"/>
<polygon fill="midnightblue" stroke="midnightblue" points="255.699,-355.5 265.699,-352 255.699,-348.5 255.699,-355.5"/>
</g>
<!-- Node50&#45;&gt;Node2 -->
<g id="edge59" class="edge"><title>Node50&#45;&gt;Node2</title>
<path fill="none" stroke="midnightblue" d="M339.496,-361.589C353.021,-366.484 369.627,-372.493 384.077,-377.723"/>
<polygon fill="midnightblue" stroke="midnightblue" points="383.078,-381.083 393.672,-381.195 385.46,-374.501 383.078,-381.083"/>
</g>
<!-- Node50&#45;&gt;Node3 -->
<g id="edge60" class="edge"><title>Node50&#45;&gt;Node3</title>
<path fill="none" stroke="midnightblue" d="M358.178,-352C423.753,-352 545.328,-352 617.462,-352"/>
<polygon fill="midnightblue" stroke="midnightblue" points="617.733,-355.5 627.733,-352 617.733,-348.5 617.733,-355.5"/>
</g>
<!-- Node50&#45;&gt;Node33 -->
<g id="edge61" class="edge"><title>Node50&#45;&gt;Node33</title>
<path fill="none" stroke="midnightblue" d="M339.496,-342.411C353.515,-337.338 370.843,-331.066 385.65,-325.708"/>
<polygon fill="midnightblue" stroke="midnightblue" points="387.214,-328.864 395.427,-322.169 384.832,-322.281 387.214,-328.864"/>
</g>
<!-- Node50&#45;&gt;Node37 -->
<g id="edge62" class="edge"><title>Node50&#45;&gt;Node37</title>
<path fill="none" stroke="midnightblue" d="M321.952,-342.28C339.775,-322.93 379.898,-279.368 402.235,-255.116"/>
<polygon fill="midnightblue" stroke="midnightblue" points="404.87,-257.422 409.07,-247.695 399.721,-252.679 404.87,-257.422"/>
</g>
</g>
</svg>
