<?xml version="1.0" encoding="UTF-8" standalone="no"?>
<!DOCTYPE svg PUBLIC "-//W3C//DTD SVG 1.1//EN"
 "http://www.w3.org/Graphics/SVG/1.1/DTD/svg11.dtd">
<!-- Generated by graphviz version 2.38.0 (20140413.2041)
 -->
<!-- Title: hsmg_routines::h1mg_setup_schwarz_wt3d_2 Pages: 1 -->
<svg width="1044pt" height="88pt"
 viewBox="0.00 0.00 1044.00 88.00" xmlns="http://www.w3.org/2000/svg" xmlns:xlink="http://www.w3.org/1999/xlink">
<g id="graph0" class="graph" transform="scale(1 1) rotate(0) translate(4 84)">
<title>hsmg_routines::h1mg_setup_schwarz_wt3d_2</title>
<polygon fill="white" stroke="none" points="-4,4 -4,-84 1040,-84 1040,4 -4,4"/>
<!-- Node1 -->
<g id="node1" class="node"><title>Node1</title>
<polygon fill="#bfbfbf" stroke="black" points="0,-24.5 0,-54.5 134,-54.5 134,-24.5 0,-24.5"/>
<text text-anchor="start" x="8" y="-42.5" font-family="Helvetica,sans-Serif" font-size="10.00">hsmg_routines::h1mg</text>
<text text-anchor="middle" x="67" y="-31.5" font-family="Helvetica,sans-Serif" font-size="10.00">_setup_schwarz_wt3d_2</text>
</g>
<!-- Node2 -->
<g id="node2" class="node"><title>Node2</title>
<g id="a_node2"><a xlink:href="classhsmg__routines.html#a34c1ff761a953553e39774bd29e982e9" target="_top" xlink:title="hsmg_routines::h1mg\l_setup_schwarz_wt_2">
<polygon fill="white" stroke="black" points="170,-24.5 170,-54.5 292,-54.5 292,-24.5 170,-24.5"/>
<text text-anchor="start" x="178" y="-42.5" font-family="Helvetica,sans-Serif" font-size="10.00">hsmg_routines::h1mg</text>
<text text-anchor="middle" x="231" y="-31.5" font-family="Helvetica,sans-Serif" font-size="10.00">_setup_schwarz_wt_2</text>
</a>
</g>
</g>
<!-- Node1&#45;&gt;Node2 -->
<g id="edge1" class="edge"><title>Node1&#45;&gt;Node2</title>
<path fill="none" stroke="midnightblue" d="M144.391,-39.5C152.983,-39.5 161.645,-39.5 169.987,-39.5"/>
<polygon fill="midnightblue" stroke="midnightblue" points="144.359,-36.0001 134.359,-39.5 144.359,-43.0001 144.359,-36.0001"/>
</g>
<!-- Node3 -->
<g id="node3" class="node"><title>Node3</title>
<g id="a_node3"><a xlink:href="classhsmg__routines.html#a13c1cb2ecf3853e551896970bb5c87b5" target="_top" xlink:title="hsmg_routines::h1mg\l_setup_schwarz_wt_1">
<polygon fill="white" stroke="black" points="328,-24.5 328,-54.5 450,-54.5 450,-24.5 328,-24.5"/>
<text text-anchor="start" x="336" y="-42.5" font-family="Helvetica,sans-Serif" font-size="10.00">hsmg_routines::h1mg</text>
<text text-anchor="middle" x="389" y="-31.5" font-family="Helvetica,sans-Serif" font-size="10.00">_setup_schwarz_wt_1</text>
</a>
</g>
</g>
<!-- Node2&#45;&gt;Node3 -->
<g id="edge2" class="edge"><title>Node2&#45;&gt;Node3</title>
<path fill="none" stroke="midnightblue" d="M302.538,-39.5C310.99,-39.5 319.56,-39.5 327.847,-39.5"/>
<polygon fill="midnightblue" stroke="midnightblue" points="302.314,-36.0001 292.314,-39.5 302.314,-43.0001 302.314,-36.0001"/>
</g>
<!-- Node4 -->
<g id="node4" class="node"><title>Node4</title>
<g id="a_node4"><a xlink:href="classhsmg__routines.html#ab039b61096238d0ba36bcbe03a2ad1eb" target="_top" xlink:title="hsmg_routines::hsmg\l_setup_schwarz_wt">
<polygon fill="white" stroke="black" points="486,-49.5 486,-79.5 602,-79.5 602,-49.5 486,-49.5"/>
<text text-anchor="start" x="494" y="-67.5" font-family="Helvetica,sans-Serif" font-size="10.00">hsmg_routines::hsmg</text>
<text text-anchor="middle" x="544" y="-56.5" font-family="Helvetica,sans-Serif" font-size="10.00">_setup_schwarz_wt</text>
</a>
</g>
</g>
<!-- Node3&#45;&gt;Node4 -->
<g id="edge3" class="edge"><title>Node3&#45;&gt;Node4</title>
<path fill="none" stroke="midnightblue" d="M460.022,-50.9415C468.599,-52.3429 477.284,-53.7622 485.644,-55.1281"/>
<polygon fill="midnightblue" stroke="midnightblue" points="460.464,-47.4674 450.031,-49.3089 459.335,-54.3758 460.464,-47.4674"/>
</g>
<!-- Node9 -->
<g id="node9" class="node"><title>Node9</title>
<g id="a_node9"><a xlink:href="classhsmg__routines.html#adca849fb5d33cee442c5ac183cffca88" target="_top" xlink:title="hsmg_routines::h1mg\l_setup_schwarz_wt">
<polygon fill="white" stroke="black" points="486,-0.5 486,-30.5 602,-30.5 602,-0.5 486,-0.5"/>
<text text-anchor="start" x="494" y="-18.5" font-family="Helvetica,sans-Serif" font-size="10.00">hsmg_routines::h1mg</text>
<text text-anchor="middle" x="544" y="-7.5" font-family="Helvetica,sans-Serif" font-size="10.00">_setup_schwarz_wt</text>
</a>
</g>
</g>
<!-- Node3&#45;&gt;Node9 -->
<g id="edge8" class="edge"><title>Node3&#45;&gt;Node9</title>
<path fill="none" stroke="midnightblue" d="M460.022,-28.5161C468.599,-27.1708 477.284,-25.8083 485.644,-24.497"/>
<polygon fill="midnightblue" stroke="midnightblue" points="459.367,-25.076 450.031,-30.0834 460.452,-31.9914 459.367,-25.076"/>
</g>
<!-- Node5 -->
<g id="node5" class="node"><title>Node5</title>
<g id="a_node5"><a xlink:href="classhsmg__routines.html#ac8f9bca9624d5e550d70acabfa8aef73" target="_top" xlink:title="Sets up hybrid Schwarz multi&#45;grid preconditioner. ">
<polygon fill="white" stroke="black" points="638,-49.5 638,-79.5 754,-79.5 754,-49.5 638,-49.5"/>
<text text-anchor="start" x="646" y="-67.5" font-family="Helvetica,sans-Serif" font-size="10.00">hsmg_routines::hsmg</text>
<text text-anchor="middle" x="696" y="-56.5" font-family="Helvetica,sans-Serif" font-size="10.00">_setup</text>
</a>
</g>
</g>
<!-- Node4&#45;&gt;Node5 -->
<g id="edge4" class="edge"><title>Node4&#45;&gt;Node5</title>
<path fill="none" stroke="midnightblue" d="M612.311,-64.5C620.728,-64.5 629.277,-64.5 637.525,-64.5"/>
<polygon fill="midnightblue" stroke="midnightblue" points="612.137,-61.0001 602.136,-64.5 612.136,-68.0001 612.137,-61.0001"/>
</g>
<!-- Node6 -->
<g id="node6" class="node"><title>Node6</title>
<g id="a_node6"><a xlink:href="navier6_8F90.html#a45317b1def173b8f1db2e5083595d095" target="_top" xlink:title="Set up arrays for overlapping Schwartz algorithm for pressure solver ">
<polygon fill="white" stroke="black" points="790,-30 790,-49 862,-49 862,-30 790,-30"/>
<text text-anchor="middle" x="826" y="-37" font-family="Helvetica,sans-Serif" font-size="10.00">set_overlap</text>
</a>
</g>
</g>
<!-- Node5&#45;&gt;Node6 -->
<g id="edge5" class="edge"><title>Node5&#45;&gt;Node6</title>
<path fill="none" stroke="midnightblue" d="M764.236,-51.368C773.072,-49.6423 781.825,-47.9326 789.82,-46.3711"/>
<polygon fill="midnightblue" stroke="midnightblue" points="763.405,-47.9641 754.261,-53.3162 764.747,-54.8343 763.405,-47.9641"/>
</g>
<!-- Node7 -->
<g id="node7" class="node"><title>Node7</title>
<g id="a_node7"><a xlink:href="drive1_8F90.html#a87bd37ae2c18426f28f35cc3f24e4355" target="_top" xlink:title="initialize nek ">
<polygon fill="white" stroke="black" points="898,-30 898,-49 951,-49 951,-30 898,-30"/>
<text text-anchor="middle" x="924.5" y="-37" font-family="Helvetica,sans-Serif" font-size="10.00">nek_init</text>
</a>
</g>
</g>
<!-- Node6&#45;&gt;Node7 -->
<g id="edge6" class="edge"><title>Node6&#45;&gt;Node7</title>
<path fill="none" stroke="midnightblue" d="M872.316,-39.5C881.12,-39.5 890.055,-39.5 897.943,-39.5"/>
<polygon fill="midnightblue" stroke="midnightblue" points="872.112,-36.0001 862.112,-39.5 872.112,-43.0001 872.112,-36.0001"/>
</g>
<!-- Node8 -->
<g id="node8" class="node"><title>Node8</title>
<g id="a_node8"><a xlink:href="drive_8F90.html#a13048bf28dd0734640412d69349e3857" target="_top" xlink:title="NEK5000: Spectral Element Computational Fluid Dynamics Solver COPYRIGHT (c) 2008&#45;2010 UCHICAGO ARGONN...">
<polygon fill="white" stroke="black" points="987,-30 987,-49 1036,-49 1036,-30 987,-30"/>
<text text-anchor="middle" x="1011.5" y="-37" font-family="Helvetica,sans-Serif" font-size="10.00">nekton</text>
</a>
</g>
</g>
<!-- Node7&#45;&gt;Node8 -->
<g id="edge7" class="edge"><title>Node7&#45;&gt;Node8</title>
<path fill="none" stroke="midnightblue" d="M961.227,-39.5C969.846,-39.5 978.845,-39.5 986.759,-39.5"/>
<polygon fill="midnightblue" stroke="midnightblue" points="961.003,-36.0001 951.003,-39.5 961.003,-43.0001 961.003,-36.0001"/>
</g>
<!-- Node10 -->
<g id="node10" class="node"><title>Node10</title>
<g id="a_node10"><a xlink:href="classhsmg__routines.html#a91e8aa59d56bbf05d75aa9c48bcd8977" target="_top" xlink:title="Sets up Poisson preconditioner. ">
<polygon fill="white" stroke="black" points="638,-0.5 638,-30.5 754,-30.5 754,-0.5 638,-0.5"/>
<text text-anchor="start" x="646" y="-18.5" font-family="Helvetica,sans-Serif" font-size="10.00">hsmg_routines::h1mg</text>
<text text-anchor="middle" x="696" y="-7.5" font-family="Helvetica,sans-Serif" font-size="10.00">_setup</text>
</a>
</g>
</g>
<!-- Node9&#45;&gt;Node10 -->
<g id="edge9" class="edge"><title>Node9&#45;&gt;Node10</title>
<path fill="none" stroke="midnightblue" d="M612.311,-15.5C620.728,-15.5 629.277,-15.5 637.525,-15.5"/>
<polygon fill="midnightblue" stroke="midnightblue" points="612.137,-12.0001 602.136,-15.5 612.136,-19.0001 612.137,-12.0001"/>
</g>
<!-- Node10&#45;&gt;Node6 -->
<g id="edge10" class="edge"><title>Node10&#45;&gt;Node6</title>
<path fill="none" stroke="midnightblue" d="M764.236,-28.1067C773.072,-29.7634 781.825,-31.4047 789.82,-32.9037"/>
<polygon fill="midnightblue" stroke="midnightblue" points="764.735,-24.6394 754.261,-26.2365 763.445,-31.5195 764.735,-24.6394"/>
</g>
</g>
</svg>
