<?xml version="1.0" encoding="UTF-8" standalone="no"?>
<!DOCTYPE svg PUBLIC "-//W3C//DTD SVG 1.1//EN"
 "http://www.w3.org/Graphics/SVG/1.1/DTD/svg11.dtd">
<!-- Generated by graphviz version 2.38.0 (20140413.2041)
 -->
<!-- Title: speclib::zwgl Pages: 1 -->
<svg width="679pt" height="308pt"
 viewBox="0.00 0.00 679.00 308.01" xmlns="http://www.w3.org/2000/svg" xmlns:xlink="http://www.w3.org/1999/xlink">
<g id="graph0" class="graph" transform="scale(1 1) rotate(0) translate(4 304.01)">
<title>speclib::zwgl</title>
<polygon fill="white" stroke="none" points="-4,4 -4,-304.01 675,-304.01 675,4 -4,4"/>
<!-- Node1 -->
<g id="node1" class="node"><title>Node1</title>
<polygon fill="#bfbfbf" stroke="black" points="0,-109.51 0,-128.51 74,-128.51 74,-109.51 0,-109.51"/>
<text text-anchor="middle" x="37" y="-116.51" font-family="Helvetica,sans-Serif" font-size="10.00">speclib::zwgl</text>
</g>
<!-- Node2 -->
<g id="node2" class="node"><title>Node2</title>
<g id="a_node2"><a xlink:href="classspeclib.html#a631f538efe1b48d5b557e06446dcb278" target="_top" xlink:title="speclib::zwgj">
<polygon fill="white" stroke="black" points="110,-109.51 110,-128.51 184,-128.51 184,-109.51 110,-109.51"/>
<text text-anchor="middle" x="147" y="-116.51" font-family="Helvetica,sans-Serif" font-size="10.00">speclib::zwgj</text>
</a>
</g>
</g>
<!-- Node1&#45;&gt;Node2 -->
<g id="edge1" class="edge"><title>Node1&#45;&gt;Node2</title>
<path fill="none" stroke="midnightblue" d="M74.2629,-119.01C82.3661,-119.01 91.0689,-119.01 99.5209,-119.01"/>
<polygon fill="midnightblue" stroke="midnightblue" points="99.649,-122.51 109.649,-119.01 99.649,-115.51 99.649,-122.51"/>
</g>
<!-- Node3 -->
<g id="node3" class="node"><title>Node3</title>
<g id="a_node3"><a xlink:href="byte_8c.html#a2da8eeb074dfd3ffbfb3e9a4d301cda4" target="_top" xlink:title="exitt">
<polygon fill="white" stroke="black" points="361,-157.51 361,-176.51 397,-176.51 397,-157.51 361,-157.51"/>
<text text-anchor="middle" x="379" y="-164.51" font-family="Helvetica,sans-Serif" font-size="10.00">exitt</text>
</a>
</g>
</g>
<!-- Node2&#45;&gt;Node3 -->
<g id="edge2" class="edge"><title>Node2&#45;&gt;Node3</title>
<path fill="none" stroke="midnightblue" d="M184.191,-126.563C230.508,-136.229 309.689,-152.754 351.048,-161.386"/>
<polygon fill="midnightblue" stroke="midnightblue" points="350.438,-164.834 360.942,-163.45 351.868,-157.981 350.438,-164.834"/>
</g>
<!-- Node13 -->
<g id="node13" class="node"><title>Node13</title>
<g id="a_node13"><a xlink:href="classspeclib.html#a70378dbc00d8034b969f6b8143a9f79b" target="_top" xlink:title="speclib::zwgjd">
<polygon fill="white" stroke="black" points="220,-76.5103 220,-95.5103 300,-95.5103 300,-76.5103 220,-76.5103"/>
<text text-anchor="middle" x="260" y="-83.5103" font-family="Helvetica,sans-Serif" font-size="10.00">speclib::zwgjd</text>
</a>
</g>
</g>
<!-- Node2&#45;&gt;Node13 -->
<g id="edge12" class="edge"><title>Node2&#45;&gt;Node13</title>
<path fill="none" stroke="midnightblue" d="M180.106,-109.465C191.726,-106.011 205.021,-102.058 217.343,-98.3948"/>
<polygon fill="midnightblue" stroke="midnightblue" points="218.378,-101.738 226.966,-95.5338 216.384,-95.0287 218.378,-101.738"/>
</g>
<!-- Node4 -->
<g id="node4" class="node"><title>Node4</title>
<g id="a_node4"><a xlink:href="classctimer.html#abcecbc845c8ee72e13a19eaa30b80d77" target="_top" xlink:title="ctimer::dnekclock">
<polygon fill="white" stroke="black" points="458,-280.51 458,-299.51 555,-299.51 555,-280.51 458,-280.51"/>
<text text-anchor="middle" x="506.5" y="-287.51" font-family="Helvetica,sans-Serif" font-size="10.00">ctimer::dnekclock</text>
</a>
</g>
</g>
<!-- Node3&#45;&gt;Node4 -->
<g id="edge3" class="edge"><title>Node3&#45;&gt;Node4</title>
<path fill="none" stroke="midnightblue" d="M384.896,-176.727C395.544,-196.957 422.71,-243.965 458,-271.01 460.313,-272.783 462.814,-274.414 465.416,-275.909"/>
<polygon fill="midnightblue" stroke="midnightblue" points="464.02,-279.125 474.527,-280.484 467.161,-272.869 464.02,-279.125"/>
</g>
<!-- Node6 -->
<g id="node6" class="node"><title>Node6</title>
<g id="a_node6"><a xlink:href="subs1_8F90.html#a339739b88994e5bb12bd923147f94983" target="_top" xlink:title="flush_io">
<polygon fill="white" stroke="black" points="480,-242.51 480,-261.51 533,-261.51 533,-242.51 480,-242.51"/>
<text text-anchor="middle" x="506.5" y="-249.51" font-family="Helvetica,sans-Serif" font-size="10.00">flush_io</text>
</a>
</g>
</g>
<!-- Node3&#45;&gt;Node6 -->
<g id="edge5" class="edge"><title>Node3&#45;&gt;Node6</title>
<path fill="none" stroke="midnightblue" d="M389.307,-176.657C403.191,-190.611 430.636,-216.556 458,-233.01 461.872,-235.339 466.082,-237.492 470.341,-239.448"/>
<polygon fill="midnightblue" stroke="midnightblue" points="469.062,-242.708 479.634,-243.406 471.805,-236.267 469.062,-242.708"/>
</g>
<!-- Node7 -->
<g id="node7" class="node"><title>Node7</title>
<g id="a_node7"><a xlink:href="singlmesh_8F90.html#aef78ff219741b83c1ca784b869e9cacf" target="_top" xlink:title="Dummy for singlmesh. ">
<polygon fill="white" stroke="black" points="466.5,-204.51 466.5,-223.51 546.5,-223.51 546.5,-204.51 466.5,-204.51"/>
<text text-anchor="middle" x="506.5" y="-211.51" font-family="Helvetica,sans-Serif" font-size="10.00">happy_check</text>
</a>
</g>
</g>
<!-- Node3&#45;&gt;Node7 -->
<g id="edge6" class="edge"><title>Node3&#45;&gt;Node7</title>
<path fill="none" stroke="midnightblue" d="M397.187,-173.447C415.95,-180.474 446.504,-191.916 470.385,-200.86"/>
<polygon fill="midnightblue" stroke="midnightblue" points="469.235,-204.166 479.828,-204.396 471.69,-197.611 469.235,-204.166"/>
</g>
<!-- Node8 -->
<g id="node8" class="node"><title>Node8</title>
<g id="a_node8"><a xlink:href="mpi__dummy_8F90.html#a55e9a1619aadb638b14211ce21d7d566" target="_top" xlink:title="mpi_finalize">
<polygon fill="white" stroke="black" points="470.5,-166.51 470.5,-185.51 542.5,-185.51 542.5,-166.51 470.5,-166.51"/>
<text text-anchor="middle" x="506.5" y="-173.51" font-family="Helvetica,sans-Serif" font-size="10.00">mpi_finalize</text>
</a>
</g>
</g>
<!-- Node3&#45;&gt;Node8 -->
<g id="edge7" class="edge"><title>Node3&#45;&gt;Node8</title>
<path fill="none" stroke="midnightblue" d="M397.187,-168.243C413.356,-169.402 438.282,-171.19 460.147,-172.758"/>
<polygon fill="midnightblue" stroke="midnightblue" points="460.034,-176.259 470.259,-173.483 460.535,-169.277 460.034,-176.259"/>
</g>
<!-- Node9 -->
<g id="node9" class="node"><title>Node9</title>
<g id="a_node9"><a xlink:href="papi_8F90.html#a3a75ccdfbe05912fda48c3b134d114c0" target="_top" xlink:title="nek_flops">
<polygon fill="white" stroke="black" points="475.5,-128.51 475.5,-147.51 537.5,-147.51 537.5,-128.51 475.5,-128.51"/>
<text text-anchor="middle" x="506.5" y="-135.51" font-family="Helvetica,sans-Serif" font-size="10.00">nek_flops</text>
</a>
</g>
</g>
<!-- Node3&#45;&gt;Node9 -->
<g id="edge8" class="edge"><title>Node3&#45;&gt;Node9</title>
<path fill="none" stroke="midnightblue" d="M397.187,-163.039C414.613,-159.012 442.212,-152.635 465.188,-147.326"/>
<polygon fill="midnightblue" stroke="midnightblue" points="466.081,-150.711 475.036,-145.05 464.505,-143.891 466.081,-150.711"/>
</g>
<!-- Node11 -->
<g id="node11" class="node"><title>Node11</title>
<g id="a_node11"><a xlink:href="comm__mpi_8F90.html#a4acb4d8e379294232e9219bec063d8f3" target="_top" xlink:title="nekgsync">
<polygon fill="white" stroke="black" points="475.5,-90.5103 475.5,-109.51 537.5,-109.51 537.5,-90.5103 475.5,-90.5103"/>
<text text-anchor="middle" x="506.5" y="-97.5103" font-family="Helvetica,sans-Serif" font-size="10.00">nekgsync</text>
</a>
</g>
</g>
<!-- Node3&#45;&gt;Node11 -->
<g id="edge10" class="edge"><title>Node3&#45;&gt;Node11</title>
<path fill="none" stroke="midnightblue" d="M393.955,-157.409C409.245,-147.132 434.705,-130.729 458,-119.01 461.749,-117.124 465.732,-115.287 469.736,-113.545"/>
<polygon fill="midnightblue" stroke="midnightblue" points="471.131,-116.756 479.012,-109.675 468.436,-110.295 471.131,-116.756"/>
</g>
<!-- Node5 -->
<g id="node5" class="node"><title>Node5</title>
<g id="a_node5"><a xlink:href="mpi__dummy_8F90.html#ae6a5ef945f87c2c27849696b70f3af2a" target="_top" xlink:title="mpi_wtime">
<polygon fill="white" stroke="black" points="598,-280.51 598,-299.51 664,-299.51 664,-280.51 598,-280.51"/>
<text text-anchor="middle" x="631" y="-287.51" font-family="Helvetica,sans-Serif" font-size="10.00">mpi_wtime</text>
</a>
</g>
</g>
<!-- Node4&#45;&gt;Node5 -->
<g id="edge4" class="edge"><title>Node4&#45;&gt;Node5</title>
<path fill="none" stroke="midnightblue" d="M555.212,-290.01C565.894,-290.01 577.154,-290.01 587.603,-290.01"/>
<polygon fill="midnightblue" stroke="midnightblue" points="587.73,-293.51 597.729,-290.01 587.729,-286.51 587.73,-293.51"/>
</g>
<!-- Node10 -->
<g id="node10" class="node"><title>Node10</title>
<g id="a_node10"><a xlink:href="papi_8F90.html#a838be3d39e287e29002d5a68c6ad2dd8" target="_top" xlink:title="getflops_papi">
<polygon fill="white" stroke="black" points="591,-128.51 591,-147.51 671,-147.51 671,-128.51 591,-128.51"/>
<text text-anchor="middle" x="631" y="-135.51" font-family="Helvetica,sans-Serif" font-size="10.00">getflops_papi</text>
</a>
</g>
</g>
<!-- Node9&#45;&gt;Node10 -->
<g id="edge9" class="edge"><title>Node9&#45;&gt;Node10</title>
<path fill="none" stroke="midnightblue" d="M537.781,-138.01C550.666,-138.01 566.032,-138.01 580.491,-138.01"/>
<polygon fill="midnightblue" stroke="midnightblue" points="580.811,-141.51 590.811,-138.01 580.811,-134.51 580.811,-141.51"/>
</g>
<!-- Node12 -->
<g id="node12" class="node"><title>Node12</title>
<g id="a_node12"><a xlink:href="mpi__dummy_8F90.html#a070afe564196eb48413dbf1a9fbc99aa" target="_top" xlink:title="mpi_barrier">
<polygon fill="white" stroke="black" points="596,-90.5103 596,-109.51 666,-109.51 666,-90.5103 596,-90.5103"/>
<text text-anchor="middle" x="631" y="-97.5103" font-family="Helvetica,sans-Serif" font-size="10.00">mpi_barrier</text>
</a>
</g>
</g>
<!-- Node11&#45;&gt;Node12 -->
<g id="edge11" class="edge"><title>Node11&#45;&gt;Node12</title>
<path fill="none" stroke="midnightblue" d="M537.781,-100.01C552.195,-100.01 569.714,-100.01 585.594,-100.01"/>
<polygon fill="midnightblue" stroke="midnightblue" points="585.745,-103.51 595.745,-100.01 585.745,-96.5104 585.745,-103.51"/>
</g>
<!-- Node13&#45;&gt;Node3 -->
<g id="edge13" class="edge"><title>Node13&#45;&gt;Node3</title>
<path fill="none" stroke="midnightblue" d="M274.881,-95.6201C294.848,-109.443 331.888,-135.087 355.715,-151.582"/>
<polygon fill="midnightblue" stroke="midnightblue" points="353.923,-154.598 364.137,-157.413 357.907,-148.843 353.923,-154.598"/>
</g>
<!-- Node14 -->
<g id="node14" class="node"><title>Node14</title>
<g id="a_node14"><a xlink:href="classspeclib.html#a92a5edfebc973315d00bf6634c853040" target="_top" xlink:title="speclib::gammaf">
<polygon fill="white" stroke="black" points="461,-52.5103 461,-71.5103 552,-71.5103 552,-52.5103 461,-52.5103"/>
<text text-anchor="middle" x="506.5" y="-59.5103" font-family="Helvetica,sans-Serif" font-size="10.00">speclib::gammaf</text>
</a>
</g>
</g>
<!-- Node13&#45;&gt;Node14 -->
<g id="edge14" class="edge"><title>Node13&#45;&gt;Node14</title>
<path fill="none" stroke="midnightblue" d="M300.004,-91.4975C332.793,-95.0919 380.775,-97.9654 422,-91.0103 431.793,-89.3581 453.03,-81.9629 471.634,-75.0546"/>
<polygon fill="midnightblue" stroke="midnightblue" points="472.917,-78.3114 481.049,-71.5193 470.456,-71.7582 472.917,-78.3114"/>
</g>
<!-- Node15 -->
<g id="node15" class="node"><title>Node15</title>
<g id="a_node15"><a xlink:href="classspeclib.html#a6e4006c61e176baff378ff31472b6634" target="_top" xlink:title="speclib::jacg">
<polygon fill="white" stroke="black" points="342.5,-24.5103 342.5,-43.5103 415.5,-43.5103 415.5,-24.5103 342.5,-24.5103"/>
<text text-anchor="middle" x="379" y="-31.5103" font-family="Helvetica,sans-Serif" font-size="10.00">speclib::jacg</text>
</a>
</g>
</g>
<!-- Node13&#45;&gt;Node15 -->
<g id="edge15" class="edge"><title>Node13&#45;&gt;Node15</title>
<path fill="none" stroke="midnightblue" d="M282.46,-76.4727C300.57,-68.4236 326.726,-56.7986 347.094,-47.7464"/>
<polygon fill="midnightblue" stroke="midnightblue" points="348.564,-50.9233 356.28,-43.6635 345.721,-44.5266 348.564,-50.9233"/>
</g>
<!-- Node16 -->
<g id="node16" class="node"><title>Node16</title>
<g id="a_node16"><a xlink:href="classspeclib.html#af7eaf2eb0994474cab3a5582bbf02903" target="_top" xlink:title="speclib::jacobf">
<polygon fill="white" stroke="black" points="466,-0.510298 466,-19.5103 547,-19.5103 547,-0.510298 466,-0.510298"/>
<text text-anchor="middle" x="506.5" y="-7.5103" font-family="Helvetica,sans-Serif" font-size="10.00">speclib::jacobf</text>
</a>
</g>
</g>
<!-- Node13&#45;&gt;Node16 -->
<g id="edge17" class="edge"><title>Node13&#45;&gt;Node16</title>
<path fill="none" stroke="midnightblue" d="M267.475,-76.3804C279.015,-60.1713 304.871,-27.9426 336,-15.0103 373.983,0.769417 420.99,0.815095 455.86,-2.39961"/>
<polygon fill="midnightblue" stroke="midnightblue" points="455.503,-5.88122 465.811,-3.43491 456.227,1.0812 455.503,-5.88122"/>
</g>
<!-- Node17 -->
<g id="node17" class="node"><title>Node17</title>
<g id="a_node17"><a xlink:href="classspeclib.html#aca23f78205002060fe2e03c1f9e2adbc" target="_top" xlink:title="speclib::pnormj">
<polygon fill="white" stroke="black" points="336,-62.5103 336,-81.5103 422,-81.5103 422,-62.5103 336,-62.5103"/>
<text text-anchor="middle" x="379" y="-69.5103" font-family="Helvetica,sans-Serif" font-size="10.00">speclib::pnormj</text>
</a>
</g>
</g>
<!-- Node13&#45;&gt;Node17 -->
<g id="edge18" class="edge"><title>Node13&#45;&gt;Node17</title>
<path fill="none" stroke="midnightblue" d="M300.285,-81.3096C308.492,-80.3275 317.266,-79.2776 325.856,-78.2498"/>
<polygon fill="midnightblue" stroke="midnightblue" points="326.296,-81.7221 335.809,-77.0587 325.464,-74.7717 326.296,-81.7221"/>
</g>
<!-- Node15&#45;&gt;Node16 -->
<g id="edge16" class="edge"><title>Node15&#45;&gt;Node16</title>
<path fill="none" stroke="midnightblue" d="M415.628,-27.1971C428.101,-24.8117 442.345,-22.0878 455.759,-19.5225"/>
<polygon fill="midnightblue" stroke="midnightblue" points="456.648,-22.916 465.813,-17.5999 455.333,-16.0406 456.648,-22.916"/>
</g>
<!-- Node17&#45;&gt;Node14 -->
<g id="edge19" class="edge"><title>Node17&#45;&gt;Node14</title>
<path fill="none" stroke="midnightblue" d="M422.139,-68.6526C431.238,-67.9276 440.988,-67.1507 450.496,-66.3931"/>
<polygon fill="midnightblue" stroke="midnightblue" points="450.987,-69.8651 460.678,-65.5818 450.431,-62.8873 450.987,-69.8651"/>
</g>
</g>
</svg>
