<?xml version="1.0" encoding="UTF-8" standalone="no"?>
<!DOCTYPE svg PUBLIC "-//W3C//DTD SVG 1.1//EN"
 "http://www.w3.org/Graphics/SVG/1.1/DTD/svg11.dtd">
<!-- Generated by graphviz version 2.38.0 (20140413.2041)
 -->
<!-- Title: hsmg_routines::h1mg_schwarz_part1 Pages: 1 -->
<svg width="810pt" height="940pt"
 viewBox="0.00 0.00 810.00 940.00" xmlns="http://www.w3.org/2000/svg" xmlns:xlink="http://www.w3.org/1999/xlink">
<g id="graph0" class="graph" transform="scale(1 1) rotate(0) translate(4 936)">
<title>hsmg_routines::h1mg_schwarz_part1</title>
<polygon fill="white" stroke="none" points="-4,4 -4,-936 806,-936 806,4 -4,4"/>
<!-- Node1 -->
<g id="node1" class="node"><title>Node1</title>
<polygon fill="#bfbfbf" stroke="black" points="0,-443 0,-473 116,-473 116,-443 0,-443"/>
<text text-anchor="start" x="8" y="-461" font-family="Helvetica,sans-Serif" font-size="10.00">hsmg_routines::h1mg</text>
<text text-anchor="middle" x="58" y="-450" font-family="Helvetica,sans-Serif" font-size="10.00">_schwarz_part1</text>
</g>
<!-- Node2 -->
<g id="node2" class="node"><title>Node2</title>
<g id="a_node2"><a xlink:href="classctimer.html#abcecbc845c8ee72e13a19eaa30b80d77" target="_top" xlink:title="ctimer::dnekclock">
<polygon fill="white" stroke="black" points="360,-544.5 360,-563.5 457,-563.5 457,-544.5 360,-544.5"/>
<text text-anchor="middle" x="408.5" y="-551.5" font-family="Helvetica,sans-Serif" font-size="10.00">ctimer::dnekclock</text>
</a>
</g>
</g>
<!-- Node1&#45;&gt;Node2 -->
<g id="edge1" class="edge"><title>Node1&#45;&gt;Node2</title>
<path fill="none" stroke="midnightblue" d="M67.712,-473.379C81.8886,-496.638 112.393,-539.865 152,-557 219.7,-586.289 307.249,-576.264 360.298,-565.639"/>
<polygon fill="midnightblue" stroke="midnightblue" points="361.039,-569.06 370.111,-563.588 359.606,-562.208 361.039,-569.06"/>
</g>
<!-- Node4 -->
<g id="node4" class="node"><title>Node4</title>
<g id="a_node4"><a xlink:href="classhsmg__routines.html#accfa04691196fb45bdb29ed5436503d5" target="_top" xlink:title="hsmg_routines::h1mg_mask">
<polygon fill="white" stroke="black" points="152,-604.5 152,-623.5 299,-623.5 299,-604.5 152,-604.5"/>
<text text-anchor="middle" x="225.5" y="-611.5" font-family="Helvetica,sans-Serif" font-size="10.00">hsmg_routines::h1mg_mask</text>
</a>
</g>
</g>
<!-- Node1&#45;&gt;Node4 -->
<g id="edge3" class="edge"><title>Node1&#45;&gt;Node4</title>
<path fill="none" stroke="midnightblue" d="M65.6257,-473.037C78.3953,-500.32 109,-558.095 152,-590 157.783,-594.291 164.375,-597.841 171.174,-600.772"/>
<polygon fill="midnightblue" stroke="midnightblue" points="169.926,-604.042 180.515,-604.397 172.458,-597.516 169.926,-604.042"/>
</g>
<!-- Node6 -->
<g id="node6" class="node"><title>Node6</title>
<g id="a_node6"><a xlink:href="classhsmg__routines.html#a88e7156da5cd6d7172d353620e4b9778" target="_top" xlink:title="hsmg_routines::hsmg\l_dssum">
<polygon fill="white" stroke="black" points="167.5,-517 167.5,-547 283.5,-547 283.5,-517 167.5,-517"/>
<text text-anchor="start" x="175.5" y="-535" font-family="Helvetica,sans-Serif" font-size="10.00">hsmg_routines::hsmg</text>
<text text-anchor="middle" x="225.5" y="-524" font-family="Helvetica,sans-Serif" font-size="10.00">_dssum</text>
</a>
</g>
</g>
<!-- Node1&#45;&gt;Node6 -->
<g id="edge6" class="edge"><title>Node1&#45;&gt;Node6</title>
<path fill="none" stroke="midnightblue" d="M84.0677,-473.018C102.458,-483.65 128.259,-497.78 152,-508 156.338,-509.868 160.873,-511.68 165.466,-513.417"/>
<polygon fill="midnightblue" stroke="midnightblue" points="164.336,-516.73 174.93,-516.868 166.735,-510.154 164.336,-516.73"/>
</g>
<!-- Node9 -->
<g id="node9" class="node"><title>Node9</title>
<g id="a_node9"><a xlink:href="classhsmg__routines.html#a36161bd1dfdd2c67146846cabf62b89a" target="_top" xlink:title="hsmg_routines::hsmg\l_extrude">
<polygon fill="white" stroke="black" points="167.5,-419 167.5,-449 283.5,-449 283.5,-419 167.5,-419"/>
<text text-anchor="start" x="175.5" y="-437" font-family="Helvetica,sans-Serif" font-size="10.00">hsmg_routines::hsmg</text>
<text text-anchor="middle" x="225.5" y="-426" font-family="Helvetica,sans-Serif" font-size="10.00">_extrude</text>
</a>
</g>
</g>
<!-- Node1&#45;&gt;Node9 -->
<g id="edge10" class="edge"><title>Node1&#45;&gt;Node9</title>
<path fill="none" stroke="midnightblue" d="M116.419,-449.673C129.588,-447.764 143.703,-445.717 157.244,-443.753"/>
<polygon fill="midnightblue" stroke="midnightblue" points="158.068,-447.17 167.462,-442.271 157.063,-440.243 158.068,-447.17"/>
</g>
<!-- Node10 -->
<g id="node10" class="node"><title>Node10</title>
<g id="a_node10"><a xlink:href="classhsmg__routines.html#a56837369bcc1a1278a1da6aae4b5d22b" target="_top" xlink:title="clobbers r ">
<polygon fill="white" stroke="black" points="156,-380.5 156,-399.5 295,-399.5 295,-380.5 156,-380.5"/>
<text text-anchor="middle" x="225.5" y="-387.5" font-family="Helvetica,sans-Serif" font-size="10.00">hsmg_routines::hsmg_fdm</text>
</a>
</g>
</g>
<!-- Node1&#45;&gt;Node10 -->
<g id="edge11" class="edge"><title>Node1&#45;&gt;Node10</title>
<path fill="none" stroke="midnightblue" d="M84.7818,-442.851C103.083,-432.56 128.479,-419.199 152,-410 159.102,-407.222 166.737,-404.671 174.293,-402.387"/>
<polygon fill="midnightblue" stroke="midnightblue" points="175.494,-405.684 184.128,-399.543 173.549,-398.959 175.494,-405.684"/>
</g>
<!-- Node45 -->
<g id="node45" class="node"><title>Node45</title>
<g id="a_node45"><a xlink:href="classhsmg__routines.html#aa16d0aaf949c4b90ef80aca11415af87" target="_top" xlink:title="hsmg_routines::hsmg\l_schwarz_dssum">
<polygon fill="white" stroke="black" points="167.5,-468 167.5,-498 283.5,-498 283.5,-468 167.5,-468"/>
<text text-anchor="start" x="175.5" y="-486" font-family="Helvetica,sans-Serif" font-size="10.00">hsmg_routines::hsmg</text>
<text text-anchor="middle" x="225.5" y="-475" font-family="Helvetica,sans-Serif" font-size="10.00">_schwarz_dssum</text>
</a>
</g>
</g>
<!-- Node1&#45;&gt;Node45 -->
<g id="edge47" class="edge"><title>Node1&#45;&gt;Node45</title>
<path fill="none" stroke="midnightblue" d="M116.419,-466.674C129.588,-468.663 143.703,-470.795 157.244,-472.84"/>
<polygon fill="midnightblue" stroke="midnightblue" points="157.051,-476.351 167.462,-474.384 158.097,-469.43 157.051,-476.351"/>
</g>
<!-- Node46 -->
<g id="node46" class="node"><title>Node46</title>
<g id="a_node46"><a xlink:href="classhsmg__routines.html#ac72f9804b48994f4f21032a4896eb6d9" target="_top" xlink:title="hsmg_routines::hsmg\l_schwarz_toext3d">
<polygon fill="white" stroke="black" points="167.5,-331 167.5,-361 283.5,-361 283.5,-331 167.5,-331"/>
<text text-anchor="start" x="175.5" y="-349" font-family="Helvetica,sans-Serif" font-size="10.00">hsmg_routines::hsmg</text>
<text text-anchor="middle" x="225.5" y="-338" font-family="Helvetica,sans-Serif" font-size="10.00">_schwarz_toext3d</text>
</a>
</g>
</g>
<!-- Node1&#45;&gt;Node46 -->
<g id="edge50" class="edge"><title>Node1&#45;&gt;Node46</title>
<path fill="none" stroke="midnightblue" d="M71.6559,-442.717C88.2821,-423.527 119.234,-390.733 152,-371 155.431,-368.934 159.056,-367.008 162.783,-365.219"/>
<polygon fill="midnightblue" stroke="midnightblue" points="164.476,-368.296 172.203,-361.047 161.642,-361.896 164.476,-368.296"/>
</g>
<!-- Node47 -->
<g id="node47" class="node"><title>Node47</title>
<g id="a_node47"><a xlink:href="classhsmg__routines.html#aec54835d3731eef354ce95153c5d15cf" target="_top" xlink:title="hsmg_routines::hsmg\l_schwarz_toreg3d">
<polygon fill="white" stroke="black" points="167.5,-282 167.5,-312 283.5,-312 283.5,-282 167.5,-282"/>
<text text-anchor="start" x="175.5" y="-300" font-family="Helvetica,sans-Serif" font-size="10.00">hsmg_routines::hsmg</text>
<text text-anchor="middle" x="225.5" y="-289" font-family="Helvetica,sans-Serif" font-size="10.00">_schwarz_toreg3d</text>
</a>
</g>
</g>
<!-- Node1&#45;&gt;Node47 -->
<g id="edge51" class="edge"><title>Node1&#45;&gt;Node47</title>
<path fill="none" stroke="midnightblue" d="M65.3433,-442.994C77.8529,-415.152 108.331,-355.303 152,-322 154.461,-320.123 157.074,-318.38 159.789,-316.764"/>
<polygon fill="midnightblue" stroke="midnightblue" points="161.554,-319.79 168.755,-312.018 158.279,-313.603 161.554,-319.79"/>
</g>
<!-- Node3 -->
<g id="node3" class="node"><title>Node3</title>
<g id="a_node3"><a xlink:href="mpi__dummy_8F90.html#ae6a5ef945f87c2c27849696b70f3af2a" target="_top" xlink:title="mpi_wtime">
<polygon fill="white" stroke="black" points="520,-544.5 520,-563.5 586,-563.5 586,-544.5 520,-544.5"/>
<text text-anchor="middle" x="553" y="-551.5" font-family="Helvetica,sans-Serif" font-size="10.00">mpi_wtime</text>
</a>
</g>
</g>
<!-- Node2&#45;&gt;Node3 -->
<g id="edge2" class="edge"><title>Node2&#45;&gt;Node3</title>
<path fill="none" stroke="midnightblue" d="M457.347,-554C474.194,-554 493.004,-554 509.39,-554"/>
<polygon fill="midnightblue" stroke="midnightblue" points="509.763,-557.5 519.763,-554 509.763,-550.5 509.763,-557.5"/>
</g>
<!-- Node4&#45;&gt;Node2 -->
<g id="edge4" class="edge"><title>Node4&#45;&gt;Node2</title>
<path fill="none" stroke="midnightblue" d="M255.43,-604.428C268.706,-600.034 284.653,-594.755 299,-590 322.151,-582.327 348.078,-573.725 368.781,-566.854"/>
<polygon fill="midnightblue" stroke="midnightblue" points="370.101,-570.104 378.489,-563.632 367.896,-563.46 370.101,-570.104"/>
</g>
<!-- Node5 -->
<g id="node5" class="node"><title>Node5</title>
<g id="a_node5"><a xlink:href="classhsmg__routines.html#a93a3f6b1f2ae5ca83271afd73c2ff4a6" target="_top" xlink:title="hsmg_routines::mg_mask_e">
<polygon fill="white" stroke="black" points="335,-604.5 335,-623.5 482,-623.5 482,-604.5 335,-604.5"/>
<text text-anchor="middle" x="408.5" y="-611.5" font-family="Helvetica,sans-Serif" font-size="10.00">hsmg_routines::mg_mask_e</text>
</a>
</g>
</g>
<!-- Node4&#45;&gt;Node5 -->
<g id="edge5" class="edge"><title>Node4&#45;&gt;Node5</title>
<path fill="none" stroke="midnightblue" d="M299.077,-614C307.559,-614 316.261,-614 324.867,-614"/>
<polygon fill="midnightblue" stroke="midnightblue" points="324.907,-617.5 334.907,-614 324.907,-610.5 324.907,-617.5"/>
</g>
<!-- Node6&#45;&gt;Node2 -->
<g id="edge7" class="edge"><title>Node6&#45;&gt;Node2</title>
<path fill="none" stroke="midnightblue" d="M283.77,-538.961C304.775,-541.514 328.553,-544.404 349.612,-546.964"/>
<polygon fill="midnightblue" stroke="midnightblue" points="349.358,-550.459 359.708,-548.191 350.203,-543.51 349.358,-550.459"/>
</g>
<!-- Node7 -->
<g id="node7" class="node"><title>Node7</title>
<g id="a_node7"><a xlink:href="comm__mpi_8F90.html#a4acb4d8e379294232e9219bec063d8f3" target="_top" xlink:title="nekgsync">
<polygon fill="white" stroke="black" points="377.5,-489.5 377.5,-508.5 439.5,-508.5 439.5,-489.5 377.5,-489.5"/>
<text text-anchor="middle" x="408.5" y="-496.5" font-family="Helvetica,sans-Serif" font-size="10.00">nekgsync</text>
</a>
</g>
</g>
<!-- Node6&#45;&gt;Node7 -->
<g id="edge8" class="edge"><title>Node6&#45;&gt;Node7</title>
<path fill="none" stroke="midnightblue" d="M283.77,-521.559C310.956,-516.602 342.789,-510.798 367.358,-506.319"/>
<polygon fill="midnightblue" stroke="midnightblue" points="368.198,-509.723 377.408,-504.486 366.943,-502.837 368.198,-509.723"/>
</g>
<!-- Node8 -->
<g id="node8" class="node"><title>Node8</title>
<g id="a_node8"><a xlink:href="mpi__dummy_8F90.html#a070afe564196eb48413dbf1a9fbc99aa" target="_top" xlink:title="mpi_barrier">
<polygon fill="white" stroke="black" points="518,-489.5 518,-508.5 588,-508.5 588,-489.5 518,-489.5"/>
<text text-anchor="middle" x="553" y="-496.5" font-family="Helvetica,sans-Serif" font-size="10.00">mpi_barrier</text>
</a>
</g>
</g>
<!-- Node7&#45;&gt;Node8 -->
<g id="edge9" class="edge"><title>Node7&#45;&gt;Node8</title>
<path fill="none" stroke="midnightblue" d="M439.721,-499C459.469,-499 485.596,-499 507.677,-499"/>
<polygon fill="midnightblue" stroke="midnightblue" points="507.822,-502.5 517.822,-499 507.822,-495.5 507.822,-502.5"/>
</g>
<!-- Node11 -->
<g id="node11" class="node"><title>Node11</title>
<g id="a_node11"><a xlink:href="classhsmg__routines.html#a2b034ad4fc2abfbfb9a1667a1d598789" target="_top" xlink:title="clobbers r ">
<polygon fill="white" stroke="black" points="350.5,-375 350.5,-405 466.5,-405 466.5,-375 350.5,-375"/>
<text text-anchor="start" x="358.5" y="-393" font-family="Helvetica,sans-Serif" font-size="10.00">hsmg_routines::hsmg</text>
<text text-anchor="middle" x="408.5" y="-382" font-family="Helvetica,sans-Serif" font-size="10.00">_do_fast</text>
</a>
</g>
</g>
<!-- Node10&#45;&gt;Node11 -->
<g id="edge12" class="edge"><title>Node10&#45;&gt;Node11</title>
<path fill="none" stroke="midnightblue" d="M295.186,-390C309.975,-390 325.59,-390 340.32,-390"/>
<polygon fill="midnightblue" stroke="midnightblue" points="340.356,-393.5 350.356,-390 340.356,-386.5 340.356,-393.5"/>
</g>
<!-- Node12 -->
<g id="node12" class="node"><title>Node12</title>
<g id="a_node12"><a xlink:href="mxm__wrapper_8F90.html#ab9ec2260a10061af6ce1c52f3c8a41da" target="_top" xlink:title="Compute matrix&#45;matrix product C = A*B. ">
<polygon fill="white" stroke="black" points="534,-380.5 534,-399.5 572,-399.5 572,-380.5 534,-380.5"/>
<text text-anchor="middle" x="553" y="-387.5" font-family="Helvetica,sans-Serif" font-size="10.00">mxm</text>
</a>
</g>
</g>
<!-- Node11&#45;&gt;Node12 -->
<g id="edge13" class="edge"><title>Node11&#45;&gt;Node12</title>
<path fill="none" stroke="midnightblue" d="M466.639,-390C486.142,-390 507.114,-390 523.39,-390"/>
<polygon fill="midnightblue" stroke="midnightblue" points="523.832,-393.5 533.832,-390 523.832,-386.5 523.832,-393.5"/>
</g>
<!-- Node13 -->
<g id="node13" class="node"><title>Node13</title>
<g id="a_node13"><a xlink:href="mxm__std_8F90.html#ac63fe7516a18dc57dfe913ad2c1453be" target="_top" xlink:title="mxm44_0">
<polygon fill="white" stroke="black" points="740,-912.5 740,-931.5 802,-931.5 802,-912.5 740,-912.5"/>
<text text-anchor="middle" x="771" y="-919.5" font-family="Helvetica,sans-Serif" font-size="10.00">mxm44_0</text>
</a>
</g>
</g>
<!-- Node12&#45;&gt;Node13 -->
<g id="edge14" class="edge"><title>Node12&#45;&gt;Node13</title>
<path fill="none" stroke="midnightblue" d="M557.725,-399.703C564.036,-416.179 577.199,-450.693 588,-480 657.079,-667.445 615.071,-747.113 740,-903 740.824,-904.028 741.72,-905.017 742.669,-905.967"/>
<polygon fill="midnightblue" stroke="midnightblue" points="740.727,-908.897 750.708,-912.452 745.123,-903.449 740.727,-908.897"/>
</g>
<!-- Node14 -->
<g id="node14" class="node"><title>Node14</title>
<g id="a_node14"><a xlink:href="mxm__std_8F90.html#af07f4b22fdc3488ca321736743f14b01" target="_top" xlink:title="mxm44_2">
<polygon fill="white" stroke="black" points="633,-437.5 633,-456.5 695,-456.5 695,-437.5 633,-437.5"/>
<text text-anchor="middle" x="664" y="-444.5" font-family="Helvetica,sans-Serif" font-size="10.00">mxm44_2</text>
</a>
</g>
</g>
<!-- Node12&#45;&gt;Node14 -->
<g id="edge15" class="edge"><title>Node12&#45;&gt;Node14</title>
<path fill="none" stroke="midnightblue" d="M571.148,-399.582C585.251,-407.397 605.803,-418.634 624,-428 627.108,-429.6 630.37,-431.243 633.629,-432.863"/>
<polygon fill="midnightblue" stroke="midnightblue" points="632.155,-436.039 642.674,-437.307 635.242,-429.756 632.155,-436.039"/>
</g>
<!-- Node15 -->
<g id="node15" class="node"><title>Node15</title>
<g id="a_node15"><a xlink:href="mxm__bgq_8F90.html#a8a70163b4dbfdbfcce7bff170597fcad" target="_top" xlink:title="mxm_bgq_10">
<polygon fill="white" stroke="black" points="624,-399.5 624,-418.5 704,-418.5 704,-399.5 624,-399.5"/>
<text text-anchor="middle" x="664" y="-406.5" font-family="Helvetica,sans-Serif" font-size="10.00">mxm_bgq_10</text>
</a>
</g>
</g>
<!-- Node12&#45;&gt;Node15 -->
<g id="edge16" class="edge"><title>Node12&#45;&gt;Node15</title>
<path fill="none" stroke="midnightblue" d="M572.49,-393.223C583.841,-395.202 598.963,-397.838 613.592,-400.388"/>
<polygon fill="midnightblue" stroke="midnightblue" points="613.136,-403.861 623.588,-402.13 614.338,-396.965 613.136,-403.861"/>
</g>
<!-- Node16 -->
<g id="node16" class="node"><title>Node16</title>
<g id="a_node16"><a xlink:href="mxm__bgq_8F90.html#a27529ace9834454b8906f29e02718629" target="_top" xlink:title="mxm_bgq_12">
<polygon fill="white" stroke="black" points="624,-361.5 624,-380.5 704,-380.5 704,-361.5 624,-361.5"/>
<text text-anchor="middle" x="664" y="-368.5" font-family="Helvetica,sans-Serif" font-size="10.00">mxm_bgq_12</text>
</a>
</g>
</g>
<!-- Node12&#45;&gt;Node16 -->
<g id="edge17" class="edge"><title>Node12&#45;&gt;Node16</title>
<path fill="none" stroke="midnightblue" d="M572.49,-386.777C583.841,-384.798 598.963,-382.162 613.592,-379.612"/>
<polygon fill="midnightblue" stroke="midnightblue" points="614.338,-383.035 623.588,-377.87 613.136,-376.139 614.338,-383.035"/>
</g>
<!-- Node17 -->
<g id="node17" class="node"><title>Node17</title>
<g id="a_node17"><a xlink:href="mxm__bgq_8F90.html#a3fda9ea4bc7a5713a19d6939fa2b541f" target="_top" xlink:title="mxm_bgq_16">
<polygon fill="white" stroke="black" points="624,-323.5 624,-342.5 704,-342.5 704,-323.5 624,-323.5"/>
<text text-anchor="middle" x="664" y="-330.5" font-family="Helvetica,sans-Serif" font-size="10.00">mxm_bgq_16</text>
</a>
</g>
</g>
<!-- Node12&#45;&gt;Node17 -->
<g id="edge18" class="edge"><title>Node12&#45;&gt;Node17</title>
<path fill="none" stroke="midnightblue" d="M571.148,-380.418C585.251,-372.603 605.803,-361.366 624,-352 627.108,-350.4 630.37,-348.757 633.629,-347.137"/>
<polygon fill="midnightblue" stroke="midnightblue" points="635.242,-350.244 642.674,-342.693 632.155,-343.961 635.242,-350.244"/>
</g>
<!-- Node18 -->
<g id="node18" class="node"><title>Node18</title>
<g id="a_node18"><a xlink:href="mxm__bgq_8F90.html#af192c3c8b982aa5bbc2a757156718a91" target="_top" xlink:title="mxm_bgq_6">
<polygon fill="white" stroke="black" points="627,-285.5 627,-304.5 701,-304.5 701,-285.5 627,-285.5"/>
<text text-anchor="middle" x="664" y="-292.5" font-family="Helvetica,sans-Serif" font-size="10.00">mxm_bgq_6</text>
</a>
</g>
</g>
<!-- Node12&#45;&gt;Node18 -->
<g id="edge19" class="edge"><title>Node12&#45;&gt;Node18</title>
<path fill="none" stroke="midnightblue" d="M561.214,-380.023C572.945,-364.348 597.524,-333.709 624,-314 626.062,-312.465 628.267,-311.002 630.54,-309.619"/>
<polygon fill="midnightblue" stroke="midnightblue" points="632.415,-312.582 639.49,-304.696 629.041,-306.449 632.415,-312.582"/>
</g>
<!-- Node19 -->
<g id="node19" class="node"><title>Node19</title>
<g id="a_node19"><a xlink:href="mxm__bgq_8F90.html#a8faaef428336095704ece51624bbfe92" target="_top" xlink:title="mxm_bgq_8">
<polygon fill="white" stroke="black" points="627,-247.5 627,-266.5 701,-266.5 701,-247.5 627,-247.5"/>
<text text-anchor="middle" x="664" y="-254.5" font-family="Helvetica,sans-Serif" font-size="10.00">mxm_bgq_8</text>
</a>
</g>
</g>
<!-- Node12&#45;&gt;Node19 -->
<g id="edge20" class="edge"><title>Node12&#45;&gt;Node19</title>
<path fill="none" stroke="midnightblue" d="M557.774,-380.18C566.458,-358.714 589.768,-307.052 624,-276 625.506,-274.634 627.128,-273.344 628.826,-272.131"/>
<polygon fill="midnightblue" stroke="midnightblue" points="631.03,-274.886 637.744,-266.69 627.385,-268.91 631.03,-274.886"/>
</g>
<!-- Node20 -->
<g id="node20" class="node"><title>Node20</title>
<g id="a_node20"><a xlink:href="mxm__std_8F90.html#aa9e8685c4a72f18fb5d1ee88ed17a3d6" target="_top" xlink:title="unrolled loop version ">
<polygon fill="white" stroke="black" points="640.5,-475.5 640.5,-494.5 687.5,-494.5 687.5,-475.5 640.5,-475.5"/>
<text text-anchor="middle" x="664" y="-482.5" font-family="Helvetica,sans-Serif" font-size="10.00">mxmf2</text>
</a>
</g>
</g>
<!-- Node12&#45;&gt;Node20 -->
<g id="edge21" class="edge"><title>Node12&#45;&gt;Node20</title>
<path fill="none" stroke="midnightblue" d="M561.214,-399.977C572.945,-415.652 597.524,-446.291 624,-466 626.322,-467.729 628.826,-469.367 631.405,-470.902"/>
<polygon fill="midnightblue" stroke="midnightblue" points="629.845,-474.037 640.307,-475.71 633.172,-467.878 629.845,-474.037"/>
</g>
<!-- Node20&#45;&gt;Node13 -->
<g id="edge46" class="edge"><title>Node20&#45;&gt;Node13</title>
<path fill="none" stroke="midnightblue" d="M666.808,-494.808C672.396,-525.152 689.866,-620.196 704,-699 720.253,-789.622 688.743,-826.52 740,-903 740.618,-903.922 741.297,-904.808 742.026,-905.659"/>
<polygon fill="midnightblue" stroke="midnightblue" points="739.807,-908.369 749.614,-912.378 744.448,-903.128 739.807,-908.369"/>
</g>
<!-- Node21 -->
<g id="node21" class="node"><title>Node21</title>
<g id="a_node21"><a xlink:href="mxm__std_8F90.html#a7d3ac03517b3934b98857b22f7f78788" target="_top" xlink:title="mxf1">
<polygon fill="white" stroke="black" points="751.5,-760.5 751.5,-779.5 790.5,-779.5 790.5,-760.5 751.5,-760.5"/>
<text text-anchor="middle" x="771" y="-767.5" font-family="Helvetica,sans-Serif" font-size="10.00">mxf1</text>
</a>
</g>
</g>
<!-- Node20&#45;&gt;Node21 -->
<g id="edge22" class="edge"><title>Node20&#45;&gt;Node21</title>
<path fill="none" stroke="midnightblue" d="M665.301,-494.53C666.914,-531.365 677.06,-666.557 740,-751 741.039,-752.393 742.212,-753.71 743.478,-754.95"/>
<polygon fill="midnightblue" stroke="midnightblue" points="741.425,-757.788 751.449,-761.217 745.751,-752.285 741.425,-757.788"/>
</g>
<!-- Node22 -->
<g id="node22" class="node"><title>Node22</title>
<g id="a_node22"><a xlink:href="mxm__std_8F90.html#a5786b175fcbe28ecafe1d878687c3ccf" target="_top" xlink:title="mxf10">
<polygon fill="white" stroke="black" points="748.5,-722.5 748.5,-741.5 793.5,-741.5 793.5,-722.5 748.5,-722.5"/>
<text text-anchor="middle" x="771" y="-729.5" font-family="Helvetica,sans-Serif" font-size="10.00">mxf10</text>
</a>
</g>
</g>
<!-- Node20&#45;&gt;Node22 -->
<g id="edge23" class="edge"><title>Node20&#45;&gt;Node22</title>
<path fill="none" stroke="midnightblue" d="M665.869,-494.76C669.317,-528.498 684.672,-642.006 740,-713 740.789,-714.012 741.647,-714.985 742.56,-715.919"/>
<polygon fill="midnightblue" stroke="midnightblue" points="740.376,-718.654 750.323,-722.301 744.821,-713.247 740.376,-718.654"/>
</g>
<!-- Node23 -->
<g id="node23" class="node"><title>Node23</title>
<g id="a_node23"><a xlink:href="mxm__std_8F90.html#a244c7a41b5b7a22acba71c34552c2774" target="_top" xlink:title="mxf11">
<polygon fill="white" stroke="black" points="748.5,-684.5 748.5,-703.5 793.5,-703.5 793.5,-684.5 748.5,-684.5"/>
<text text-anchor="middle" x="771" y="-691.5" font-family="Helvetica,sans-Serif" font-size="10.00">mxf11</text>
</a>
</g>
</g>
<!-- Node20&#45;&gt;Node23 -->
<g id="edge24" class="edge"><title>Node20&#45;&gt;Node23</title>
<path fill="none" stroke="midnightblue" d="M666.638,-494.775C672.093,-524.786 692.081,-617.069 740,-675 740.84,-676.015 741.749,-676.994 742.709,-677.934"/>
<polygon fill="midnightblue" stroke="midnightblue" points="740.792,-680.882 750.792,-684.384 745.158,-675.411 740.792,-680.882"/>
</g>
<!-- Node24 -->
<g id="node24" class="node"><title>Node24</title>
<g id="a_node24"><a xlink:href="mxm__std_8F90.html#afb2e2cde9040ab037e3586b0deef3851" target="_top" xlink:title="mxf12">
<polygon fill="white" stroke="black" points="748.5,-646.5 748.5,-665.5 793.5,-665.5 793.5,-646.5 748.5,-646.5"/>
<text text-anchor="middle" x="771" y="-653.5" font-family="Helvetica,sans-Serif" font-size="10.00">mxf12</text>
</a>
</g>
</g>
<!-- Node20&#45;&gt;Node24 -->
<g id="edge25" class="edge"><title>Node20&#45;&gt;Node24</title>
<path fill="none" stroke="midnightblue" d="M667.715,-494.596C675.373,-520.278 699.275,-591.703 740,-637 741.005,-638.117 742.09,-639.194 743.232,-640.228"/>
<polygon fill="midnightblue" stroke="midnightblue" points="741.248,-643.118 751.321,-646.403 745.496,-637.553 741.248,-643.118"/>
</g>
<!-- Node25 -->
<g id="node25" class="node"><title>Node25</title>
<g id="a_node25"><a xlink:href="mxm__std_8F90.html#a6a048a62b47a5c2327279e158c1689df" target="_top" xlink:title="mxf13">
<polygon fill="white" stroke="black" points="748.5,-608.5 748.5,-627.5 793.5,-627.5 793.5,-608.5 748.5,-608.5"/>
<text text-anchor="middle" x="771" y="-615.5" font-family="Helvetica,sans-Serif" font-size="10.00">mxf13</text>
</a>
</g>
</g>
<!-- Node20&#45;&gt;Node25 -->
<g id="edge26" class="edge"><title>Node20&#45;&gt;Node25</title>
<path fill="none" stroke="midnightblue" d="M669.498,-494.523C679.707,-515.398 706.376,-565.954 740,-599 741.099,-600.08 742.27,-601.131 743.488,-602.147"/>
<polygon fill="midnightblue" stroke="midnightblue" points="741.802,-605.25 751.946,-608.309 745.924,-599.592 741.802,-605.25"/>
</g>
<!-- Node26 -->
<g id="node26" class="node"><title>Node26</title>
<g id="a_node26"><a xlink:href="mxm__std_8F90.html#a6e57628b882cb8bcac215e9a5b523eed" target="_top" xlink:title="mxf14">
<polygon fill="white" stroke="black" points="748.5,-570.5 748.5,-589.5 793.5,-589.5 793.5,-570.5 748.5,-570.5"/>
<text text-anchor="middle" x="771" y="-577.5" font-family="Helvetica,sans-Serif" font-size="10.00">mxf14</text>
</a>
</g>
</g>
<!-- Node20&#45;&gt;Node26 -->
<g id="edge27" class="edge"><title>Node20&#45;&gt;Node26</title>
<path fill="none" stroke="midnightblue" d="M673.158,-494.575C686.316,-509.7 713.441,-539.598 740,-561 741.548,-562.248 743.182,-563.482 744.856,-564.688"/>
<polygon fill="midnightblue" stroke="midnightblue" points="743.092,-567.719 753.344,-570.393 746.997,-561.909 743.092,-567.719"/>
</g>
<!-- Node27 -->
<g id="node27" class="node"><title>Node27</title>
<g id="a_node27"><a xlink:href="mxm__std_8F90.html#a02e79201be026faf756be00e58334c4f" target="_top" xlink:title="mxf15">
<polygon fill="white" stroke="black" points="748.5,-532.5 748.5,-551.5 793.5,-551.5 793.5,-532.5 748.5,-532.5"/>
<text text-anchor="middle" x="771" y="-539.5" font-family="Helvetica,sans-Serif" font-size="10.00">mxf15</text>
</a>
</g>
</g>
<!-- Node20&#45;&gt;Node27 -->
<g id="edge28" class="edge"><title>Node20&#45;&gt;Node27</title>
<path fill="none" stroke="midnightblue" d="M682.812,-494.669C699.429,-503.69 724.44,-517.267 743.418,-527.57"/>
<polygon fill="midnightblue" stroke="midnightblue" points="741.993,-530.779 752.451,-532.474 745.333,-524.627 741.993,-530.779"/>
</g>
<!-- Node28 -->
<g id="node28" class="node"><title>Node28</title>
<g id="a_node28"><a xlink:href="mxm__std_8F90.html#a2fbea6eeadc258673ba8ea5708593aee" target="_top" xlink:title="mxf16">
<polygon fill="white" stroke="black" points="748.5,-494.5 748.5,-513.5 793.5,-513.5 793.5,-494.5 748.5,-494.5"/>
<text text-anchor="middle" x="771" y="-501.5" font-family="Helvetica,sans-Serif" font-size="10.00">mxf16</text>
</a>
</g>
</g>
<!-- Node20&#45;&gt;Node28 -->
<g id="edge29" class="edge"><title>Node20&#45;&gt;Node28</title>
<path fill="none" stroke="midnightblue" d="M687.525,-489.076C702.256,-491.741 721.721,-495.264 738.041,-498.217"/>
<polygon fill="midnightblue" stroke="midnightblue" points="737.768,-501.724 748.231,-500.061 739.014,-494.836 737.768,-501.724"/>
</g>
<!-- Node29 -->
<g id="node29" class="node"><title>Node29</title>
<g id="a_node29"><a xlink:href="mxm__std_8F90.html#a3829af481cd230e6aadef08feab9a278" target="_top" xlink:title="mxf17">
<polygon fill="white" stroke="black" points="748.5,-456.5 748.5,-475.5 793.5,-475.5 793.5,-456.5 748.5,-456.5"/>
<text text-anchor="middle" x="771" y="-463.5" font-family="Helvetica,sans-Serif" font-size="10.00">mxf17</text>
</a>
</g>
</g>
<!-- Node20&#45;&gt;Node29 -->
<g id="edge30" class="edge"><title>Node20&#45;&gt;Node29</title>
<path fill="none" stroke="midnightblue" d="M687.525,-480.924C702.256,-478.259 721.721,-474.736 738.041,-471.783"/>
<polygon fill="midnightblue" stroke="midnightblue" points="739.014,-475.164 748.231,-469.939 737.768,-468.276 739.014,-475.164"/>
</g>
<!-- Node30 -->
<g id="node30" class="node"><title>Node30</title>
<g id="a_node30"><a xlink:href="mxm__std_8F90.html#a48ed8195cc978a87c005b3306a974894" target="_top" xlink:title="mxf18">
<polygon fill="white" stroke="black" points="748.5,-418.5 748.5,-437.5 793.5,-437.5 793.5,-418.5 748.5,-418.5"/>
<text text-anchor="middle" x="771" y="-425.5" font-family="Helvetica,sans-Serif" font-size="10.00">mxf18</text>
</a>
</g>
</g>
<!-- Node20&#45;&gt;Node30 -->
<g id="edge31" class="edge"><title>Node20&#45;&gt;Node30</title>
<path fill="none" stroke="midnightblue" d="M685.376,-475.402C691.415,-472.469 698.012,-469.177 704,-466 717.867,-458.641 733.069,-449.934 745.384,-442.712"/>
<polygon fill="midnightblue" stroke="midnightblue" points="747.336,-445.624 754.169,-437.526 743.778,-439.596 747.336,-445.624"/>
</g>
<!-- Node31 -->
<g id="node31" class="node"><title>Node31</title>
<g id="a_node31"><a xlink:href="mxm__std_8F90.html#a28a9857286e11804e1a97875028ecb09" target="_top" xlink:title="mxf19">
<polygon fill="white" stroke="black" points="748.5,-380.5 748.5,-399.5 793.5,-399.5 793.5,-380.5 748.5,-380.5"/>
<text text-anchor="middle" x="771" y="-387.5" font-family="Helvetica,sans-Serif" font-size="10.00">mxf19</text>
</a>
</g>
</g>
<!-- Node20&#45;&gt;Node31 -->
<g id="edge32" class="edge"><title>Node20&#45;&gt;Node31</title>
<path fill="none" stroke="midnightblue" d="M687.777,-476.511C693.468,-473.718 699.287,-470.221 704,-466 726.319,-446.009 718.826,-430.2 740,-409 741.089,-407.909 742.252,-406.851 743.463,-405.828"/>
<polygon fill="midnightblue" stroke="midnightblue" points="745.903,-408.379 751.9,-399.645 741.765,-402.733 745.903,-408.379"/>
</g>
<!-- Node32 -->
<g id="node32" class="node"><title>Node32</title>
<g id="a_node32"><a xlink:href="mxm__std_8F90.html#acd223c583f3a9242fda7a1b8897b624d" target="_top" xlink:title="mxf2">
<polygon fill="white" stroke="black" points="751.5,-342.5 751.5,-361.5 790.5,-361.5 790.5,-342.5 751.5,-342.5"/>
<text text-anchor="middle" x="771" y="-349.5" font-family="Helvetica,sans-Serif" font-size="10.00">mxf2</text>
</a>
</g>
</g>
<!-- Node20&#45;&gt;Node32 -->
<g id="edge33" class="edge"><title>Node20&#45;&gt;Node32</title>
<path fill="none" stroke="midnightblue" d="M687.57,-477.516C693.527,-474.67 699.532,-470.895 704,-466 734.44,-432.652 711.46,-405.989 740,-371 740.974,-369.806 742.044,-368.663 743.182,-367.574"/>
<polygon fill="midnightblue" stroke="midnightblue" points="745.651,-370.087 751.378,-361.174 741.343,-364.57 745.651,-370.087"/>
</g>
<!-- Node33 -->
<g id="node33" class="node"><title>Node33</title>
<g id="a_node33"><a xlink:href="mxm__std_8F90.html#af60059bd60847f48acdf6461fefa3b22" target="_top" xlink:title="mxf20">
<polygon fill="white" stroke="black" points="748.5,-304.5 748.5,-323.5 793.5,-323.5 793.5,-304.5 748.5,-304.5"/>
<text text-anchor="middle" x="771" y="-311.5" font-family="Helvetica,sans-Serif" font-size="10.00">mxf20</text>
</a>
</g>
</g>
<!-- Node20&#45;&gt;Node33 -->
<g id="edge34" class="edge"><title>Node20&#45;&gt;Node33</title>
<path fill="none" stroke="midnightblue" d="M687.886,-477.791C693.848,-474.949 699.777,-471.108 704,-466 743.023,-418.805 703.661,-382.291 740,-333 740.761,-331.967 741.597,-330.977 742.491,-330.029"/>
<polygon fill="midnightblue" stroke="midnightblue" points="744.76,-332.693 750.176,-323.587 740.264,-327.328 744.76,-332.693"/>
</g>
<!-- Node34 -->
<g id="node34" class="node"><title>Node34</title>
<g id="a_node34"><a xlink:href="mxm__std_8F90.html#a825db174c5643aef5e4cdf57067ebbbb" target="_top" xlink:title="mxf21">
<polygon fill="white" stroke="black" points="748.5,-266.5 748.5,-285.5 793.5,-285.5 793.5,-266.5 748.5,-266.5"/>
<text text-anchor="middle" x="771" y="-273.5" font-family="Helvetica,sans-Serif" font-size="10.00">mxf21</text>
</a>
</g>
</g>
<!-- Node20&#45;&gt;Node34 -->
<g id="edge35" class="edge"><title>Node20&#45;&gt;Node34</title>
<path fill="none" stroke="midnightblue" d="M687.669,-478.136C693.773,-475.28 699.831,-471.345 704,-466 751.77,-404.763 695.708,-358.798 740,-295 740.633,-294.088 741.325,-293.211 742.065,-292.368"/>
<polygon fill="midnightblue" stroke="midnightblue" points="744.483,-294.903 749.708,-285.686 739.875,-289.633 744.483,-294.903"/>
</g>
<!-- Node35 -->
<g id="node35" class="node"><title>Node35</title>
<g id="a_node35"><a xlink:href="mxm__std_8F90.html#a1f2059cb835b2818aef861f2f59a0a72" target="_top" xlink:title="mxf22">
<polygon fill="white" stroke="black" points="748.5,-228.5 748.5,-247.5 793.5,-247.5 793.5,-228.5 748.5,-228.5"/>
<text text-anchor="middle" x="771" y="-235.5" font-family="Helvetica,sans-Serif" font-size="10.00">mxf22</text>
</a>
</g>
</g>
<!-- Node20&#45;&gt;Node35 -->
<g id="edge36" class="edge"><title>Node20&#45;&gt;Node35</title>
<path fill="none" stroke="midnightblue" d="M687.795,-478.232C693.902,-475.378 699.93,-471.421 704,-466 760.593,-390.624 687.684,-335.406 740,-257 740.616,-256.077 741.294,-255.19 742.021,-254.338"/>
<polygon fill="midnightblue" stroke="midnightblue" points="744.443,-256.868 749.603,-247.614 739.799,-251.631 744.443,-256.868"/>
</g>
<!-- Node36 -->
<g id="node36" class="node"><title>Node36</title>
<g id="a_node36"><a xlink:href="mxm__std_8F90.html#a3dc6491b8d44b702dbbb13a01f887c59" target="_top" xlink:title="mxf23">
<polygon fill="white" stroke="black" points="748.5,-190.5 748.5,-209.5 793.5,-209.5 793.5,-190.5 748.5,-190.5"/>
<text text-anchor="middle" x="771" y="-197.5" font-family="Helvetica,sans-Serif" font-size="10.00">mxf23</text>
</a>
</g>
</g>
<!-- Node20&#45;&gt;Node36 -->
<g id="edge37" class="edge"><title>Node20&#45;&gt;Node36</title>
<path fill="none" stroke="midnightblue" d="M687.883,-478.297C693.993,-475.446 700.001,-471.473 704,-466 769.456,-376.431 679.624,-312.069 740,-219 740.604,-218.069 741.271,-217.175 741.99,-216.317"/>
<polygon fill="midnightblue" stroke="midnightblue" points="744.415,-218.844 749.528,-209.565 739.744,-213.63 744.415,-218.844"/>
</g>
<!-- Node37 -->
<g id="node37" class="node"><title>Node37</title>
<g id="a_node37"><a xlink:href="mxm__std_8F90.html#af0752c9a61343489900f8d812c6980ed" target="_top" xlink:title="mxf24">
<polygon fill="white" stroke="black" points="748.5,-152.5 748.5,-171.5 793.5,-171.5 793.5,-152.5 748.5,-152.5"/>
<text text-anchor="middle" x="771" y="-159.5" font-family="Helvetica,sans-Serif" font-size="10.00">mxf24</text>
</a>
</g>
</g>
<!-- Node20&#45;&gt;Node37 -->
<g id="edge38" class="edge"><title>Node20&#45;&gt;Node37</title>
<path fill="none" stroke="midnightblue" d="M687.542,-478.533C693.794,-475.671 699.965,-471.633 704,-466 778.344,-362.205 671.541,-288.767 740,-181 740.595,-180.063 741.255,-179.164 741.967,-178.303"/>
<polygon fill="midnightblue" stroke="midnightblue" points="744.393,-180.828 749.473,-171.53 739.704,-175.63 744.393,-180.828"/>
</g>
<!-- Node38 -->
<g id="node38" class="node"><title>Node38</title>
<g id="a_node38"><a xlink:href="mxm__std_8F90.html#abff718a387aa354f77d0e8b0ffa98867" target="_top" xlink:title="mxf3">
<polygon fill="white" stroke="black" points="751.5,-114.5 751.5,-133.5 790.5,-133.5 790.5,-114.5 751.5,-114.5"/>
<text text-anchor="middle" x="771" y="-121.5" font-family="Helvetica,sans-Serif" font-size="10.00">mxf3</text>
</a>
</g>
</g>
<!-- Node20&#45;&gt;Node38 -->
<g id="edge39" class="edge"><title>Node20&#45;&gt;Node38</title>
<path fill="none" stroke="midnightblue" d="M687.593,-478.57C693.847,-475.709 700.007,-471.663 704,-466 787.247,-347.957 663.443,-265.488 740,-143 740.943,-141.49 742.056,-140.08 743.287,-138.765"/>
<polygon fill="midnightblue" stroke="midnightblue" points="745.737,-141.283 751.287,-132.258 741.321,-135.852 745.737,-141.283"/>
</g>
<!-- Node39 -->
<g id="node39" class="node"><title>Node39</title>
<g id="a_node39"><a xlink:href="mxm__std_8F90.html#a2f4e4e1b4daebbd4d0580029d0f54016" target="_top" xlink:title="mxf4">
<polygon fill="white" stroke="black" points="751.5,-76.5 751.5,-95.5 790.5,-95.5 790.5,-76.5 751.5,-76.5"/>
<text text-anchor="middle" x="771" y="-83.5" font-family="Helvetica,sans-Serif" font-size="10.00">mxf4</text>
</a>
</g>
</g>
<!-- Node20&#45;&gt;Node39 -->
<g id="edge40" class="edge"><title>Node20&#45;&gt;Node39</title>
<path fill="none" stroke="midnightblue" d="M687.633,-478.598C693.889,-475.739 700.04,-471.686 704,-466 796.161,-333.695 655.336,-242.224 740,-105 740.935,-103.485 742.04,-102.07 743.266,-100.752"/>
<polygon fill="midnightblue" stroke="midnightblue" points="745.716,-103.27 751.253,-94.2369 741.291,-97.8459 745.716,-103.27"/>
</g>
<!-- Node40 -->
<g id="node40" class="node"><title>Node40</title>
<g id="a_node40"><a xlink:href="mxm__std_8F90.html#a5a6d5c31350c601ba8327b75a72cba0a" target="_top" xlink:title="mxf5">
<polygon fill="white" stroke="black" points="751.5,-38.5 751.5,-57.5 790.5,-57.5 790.5,-38.5 751.5,-38.5"/>
<text text-anchor="middle" x="771" y="-45.5" font-family="Helvetica,sans-Serif" font-size="10.00">mxf5</text>
</a>
</g>
</g>
<!-- Node20&#45;&gt;Node40 -->
<g id="edge41" class="edge"><title>Node20&#45;&gt;Node40</title>
<path fill="none" stroke="midnightblue" d="M687.666,-478.621C693.923,-475.762 700.066,-471.704 704,-466 805.083,-319.421 647.222,-218.971 740,-67 740.928,-65.4806 742.028,-64.0623 743.249,-62.7415"/>
<polygon fill="midnightblue" stroke="midnightblue" points="745.699,-65.2595 751.225,-56.2197 741.268,-59.8407 745.699,-65.2595"/>
</g>
<!-- Node41 -->
<g id="node41" class="node"><title>Node41</title>
<g id="a_node41"><a xlink:href="mxm__std_8F90.html#a38a142edde1e72a918d280747a319f7a" target="_top" xlink:title="mxf6">
<polygon fill="white" stroke="black" points="751.5,-0.5 751.5,-19.5 790.5,-19.5 790.5,-0.5 751.5,-0.5"/>
<text text-anchor="middle" x="771" y="-7.5" font-family="Helvetica,sans-Serif" font-size="10.00">mxf6</text>
</a>
</g>
</g>
<!-- Node20&#45;&gt;Node41 -->
<g id="edge42" class="edge"><title>Node20&#45;&gt;Node41</title>
<path fill="none" stroke="midnightblue" d="M687.694,-478.64C693.952,-475.782 700.089,-471.719 704,-466 759.005,-385.57 689.551,-112.364 740,-29 740.922,-27.477 742.017,-26.0559 743.235,-24.733"/>
<polygon fill="midnightblue" stroke="midnightblue" points="745.685,-27.2509 751.201,-18.2055 741.248,-21.8364 745.685,-27.2509"/>
</g>
<!-- Node42 -->
<g id="node42" class="node"><title>Node42</title>
<g id="a_node42"><a xlink:href="mxm__std_8F90.html#a1919ea16c0a7b4e248e45e983c29d965" target="_top" xlink:title="mxf7">
<polygon fill="white" stroke="black" points="751.5,-874.5 751.5,-893.5 790.5,-893.5 790.5,-874.5 751.5,-874.5"/>
<text text-anchor="middle" x="771" y="-881.5" font-family="Helvetica,sans-Serif" font-size="10.00">mxf7</text>
</a>
</g>
</g>
<!-- Node20&#45;&gt;Node42 -->
<g id="edge43" class="edge"><title>Node20&#45;&gt;Node42</title>
<path fill="none" stroke="midnightblue" d="M666.778,-494.555C677.616,-552.717 734.502,-856.973 740,-865 740.982,-866.434 742.111,-867.782 743.344,-869.046"/>
<polygon fill="midnightblue" stroke="midnightblue" points="741.235,-871.842 751.221,-875.38 745.621,-866.386 741.235,-871.842"/>
</g>
<!-- Node43 -->
<g id="node43" class="node"><title>Node43</title>
<g id="a_node43"><a xlink:href="mxm__std_8F90.html#af4bd28930a9d674bbcad09ad75fa81ef" target="_top" xlink:title="mxf8">
<polygon fill="white" stroke="black" points="751.5,-836.5 751.5,-855.5 790.5,-855.5 790.5,-836.5 751.5,-836.5"/>
<text text-anchor="middle" x="771" y="-843.5" font-family="Helvetica,sans-Serif" font-size="10.00">mxf8</text>
</a>
</g>
</g>
<!-- Node20&#45;&gt;Node43 -->
<g id="edge44" class="edge"><title>Node20&#45;&gt;Node43</title>
<path fill="none" stroke="midnightblue" d="M666.661,-494.659C675.774,-547.324 720.034,-798.497 740,-827 740.997,-828.423 742.138,-829.764 743.38,-831.022"/>
<polygon fill="midnightblue" stroke="midnightblue" points="741.285,-833.828 751.282,-837.338 745.656,-828.36 741.285,-833.828"/>
</g>
<!-- Node44 -->
<g id="node44" class="node"><title>Node44</title>
<g id="a_node44"><a xlink:href="mxm__std_8F90.html#a8ab38e8d33e92444b748159b82759c27" target="_top" xlink:title="mxf9">
<polygon fill="white" stroke="black" points="751.5,-798.5 751.5,-817.5 790.5,-817.5 790.5,-798.5 751.5,-798.5"/>
<text text-anchor="middle" x="771" y="-805.5" font-family="Helvetica,sans-Serif" font-size="10.00">mxf9</text>
</a>
</g>
</g>
<!-- Node20&#45;&gt;Node44 -->
<g id="edge45" class="edge"><title>Node20&#45;&gt;Node44</title>
<path fill="none" stroke="midnightblue" d="M666.415,-494.799C673.273,-541.271 704.186,-739.261 740,-789 741.015,-790.41 742.171,-791.74 743.423,-792.991"/>
<polygon fill="midnightblue" stroke="midnightblue" points="741.347,-795.811 751.356,-799.285 745.698,-790.328 741.347,-795.811"/>
</g>
<!-- Node45&#45;&gt;Node2 -->
<g id="edge48" class="edge"><title>Node45&#45;&gt;Node2</title>
<path fill="none" stroke="midnightblue" d="M271.923,-498.125C280.936,-501.277 290.299,-504.66 299,-508 325.502,-518.174 355.149,-530.832 376.746,-540.293"/>
<polygon fill="midnightblue" stroke="midnightblue" points="375.5,-543.569 386.063,-544.395 378.321,-537.162 375.5,-543.569"/>
</g>
<!-- Node45&#45;&gt;Node7 -->
<g id="edge49" class="edge"><title>Node45&#45;&gt;Node7</title>
<path fill="none" stroke="midnightblue" d="M283.77,-488.062C310.956,-490.466 342.789,-493.28 367.358,-495.452"/>
<polygon fill="midnightblue" stroke="midnightblue" points="367.139,-498.946 377.408,-496.34 367.755,-491.973 367.139,-498.946"/>
</g>
</g>
</svg>
