<?xml version="1.0" encoding="UTF-8" standalone="no"?>
<!DOCTYPE svg PUBLIC "-//W3C//DTD SVG 1.1//EN"
 "http://www.w3.org/Graphics/SVG/1.1/DTD/svg11.dtd">
<!-- Generated by graphviz version 2.38.0 (20140413.2041)
 -->
<!-- Title: speclib::hgj Pages: 1 -->
<svg width="435pt" height="256pt"
 viewBox="0.00 0.00 435.00 256.00" xmlns="http://www.w3.org/2000/svg" xmlns:xlink="http://www.w3.org/1999/xlink">
<g id="graph0" class="graph" transform="scale(1 1) rotate(0) translate(4 252)">
<title>speclib::hgj</title>
<polygon fill="white" stroke="none" points="-4,4 -4,-252 431,-252 431,4 -4,4"/>
<!-- Node1 -->
<g id="node1" class="node"><title>Node1</title>
<polygon fill="#bfbfbf" stroke="black" points="0,-76.5 0,-95.5 68,-95.5 68,-76.5 0,-76.5"/>
<text text-anchor="middle" x="34" y="-83.5" font-family="Helvetica,sans-Serif" font-size="10.00">speclib::hgj</text>
</g>
<!-- Node2 -->
<g id="node2" class="node"><title>Node2</title>
<g id="a_node2"><a xlink:href="byte_8c.html#a2da8eeb074dfd3ffbfb3e9a4d301cda4" target="_top" xlink:title="exitt">
<polygon fill="white" stroke="black" points="123,-114.5 123,-133.5 159,-133.5 159,-114.5 123,-114.5"/>
<text text-anchor="middle" x="141" y="-121.5" font-family="Helvetica,sans-Serif" font-size="10.00">exitt</text>
</a>
</g>
</g>
<!-- Node1&#45;&gt;Node2 -->
<g id="edge1" class="edge"><title>Node1&#45;&gt;Node2</title>
<path fill="none" stroke="midnightblue" d="M61.4959,-95.589C77.2442,-101.288 97.1688,-108.499 113.004,-114.23"/>
<polygon fill="midnightblue" stroke="midnightblue" points="112.141,-117.64 122.735,-117.752 114.523,-111.057 112.141,-117.64"/>
</g>
<!-- Node12 -->
<g id="node12" class="node"><title>Node12</title>
<g id="a_node12"><a xlink:href="classspeclib.html#a7f7e84bc0f75a3b8620781d29143514f" target="_top" xlink:title="speclib::hgjd">
<polygon fill="white" stroke="black" points="104,-38.5 104,-57.5 178,-57.5 178,-38.5 104,-38.5"/>
<text text-anchor="middle" x="141" y="-45.5" font-family="Helvetica,sans-Serif" font-size="10.00">speclib::hgjd</text>
</a>
</g>
</g>
<!-- Node1&#45;&gt;Node12 -->
<g id="edge11" class="edge"><title>Node1&#45;&gt;Node12</title>
<path fill="none" stroke="midnightblue" d="M61.4959,-76.411C74.3043,-71.7756 89.8753,-66.1404 103.762,-61.1147"/>
<polygon fill="midnightblue" stroke="midnightblue" points="105.3,-64.2802 113.513,-57.5859 102.918,-57.6979 105.3,-64.2802"/>
</g>
<!-- Node3 -->
<g id="node3" class="node"><title>Node3</title>
<g id="a_node3"><a xlink:href="classctimer.html#abcecbc845c8ee72e13a19eaa30b80d77" target="_top" xlink:title="ctimer::dnekclock">
<polygon fill="white" stroke="black" points="214,-228.5 214,-247.5 311,-247.5 311,-228.5 214,-228.5"/>
<text text-anchor="middle" x="262.5" y="-235.5" font-family="Helvetica,sans-Serif" font-size="10.00">ctimer::dnekclock</text>
</a>
</g>
</g>
<!-- Node2&#45;&gt;Node3 -->
<g id="edge2" class="edge"><title>Node2&#45;&gt;Node3</title>
<path fill="none" stroke="midnightblue" d="M147.006,-133.734C157.187,-152.653 182.073,-194.659 214,-219 216.318,-220.767 218.821,-222.393 221.426,-223.885"/>
<polygon fill="midnightblue" stroke="midnightblue" points="220.034,-227.103 230.542,-228.454 223.17,-220.845 220.034,-227.103"/>
</g>
<!-- Node5 -->
<g id="node5" class="node"><title>Node5</title>
<g id="a_node5"><a xlink:href="subs1_8F90.html#a339739b88994e5bb12bd923147f94983" target="_top" xlink:title="flush_io">
<polygon fill="white" stroke="black" points="236,-190.5 236,-209.5 289,-209.5 289,-190.5 236,-190.5"/>
<text text-anchor="middle" x="262.5" y="-197.5" font-family="Helvetica,sans-Serif" font-size="10.00">flush_io</text>
</a>
</g>
</g>
<!-- Node2&#45;&gt;Node5 -->
<g id="edge4" class="edge"><title>Node2&#45;&gt;Node5</title>
<path fill="none" stroke="midnightblue" d="M152.041,-133.518C165.36,-145.759 189.996,-167.094 214,-181 217.91,-183.265 222.142,-185.38 226.413,-187.316"/>
<polygon fill="midnightblue" stroke="midnightblue" points="225.144,-190.579 235.717,-191.254 227.873,-184.133 225.144,-190.579"/>
</g>
<!-- Node6 -->
<g id="node6" class="node"><title>Node6</title>
<g id="a_node6"><a xlink:href="singlmesh_8F90.html#aef78ff219741b83c1ca784b869e9cacf" target="_top" xlink:title="Dummy for singlmesh. ">
<polygon fill="white" stroke="black" points="222.5,-152.5 222.5,-171.5 302.5,-171.5 302.5,-152.5 222.5,-152.5"/>
<text text-anchor="middle" x="262.5" y="-159.5" font-family="Helvetica,sans-Serif" font-size="10.00">happy_check</text>
</a>
</g>
</g>
<!-- Node2&#45;&gt;Node6 -->
<g id="edge5" class="edge"><title>Node2&#45;&gt;Node6</title>
<path fill="none" stroke="midnightblue" d="M159.121,-129.444C175.39,-134.618 200.455,-142.588 221.712,-149.348"/>
<polygon fill="midnightblue" stroke="midnightblue" points="220.885,-152.757 231.475,-152.452 223.006,-146.087 220.885,-152.757"/>
</g>
<!-- Node7 -->
<g id="node7" class="node"><title>Node7</title>
<g id="a_node7"><a xlink:href="mpi__dummy_8F90.html#a55e9a1619aadb638b14211ce21d7d566" target="_top" xlink:title="mpi_finalize">
<polygon fill="white" stroke="black" points="226.5,-114.5 226.5,-133.5 298.5,-133.5 298.5,-114.5 226.5,-114.5"/>
<text text-anchor="middle" x="262.5" y="-121.5" font-family="Helvetica,sans-Serif" font-size="10.00">mpi_finalize</text>
</a>
</g>
</g>
<!-- Node2&#45;&gt;Node7 -->
<g id="edge6" class="edge"><title>Node2&#45;&gt;Node7</title>
<path fill="none" stroke="midnightblue" d="M159.121,-124C173.96,-124 196.117,-124 216.028,-124"/>
<polygon fill="midnightblue" stroke="midnightblue" points="216.184,-127.5 226.184,-124 216.184,-120.5 216.184,-127.5"/>
</g>
<!-- Node8 -->
<g id="node8" class="node"><title>Node8</title>
<g id="a_node8"><a xlink:href="papi_8F90.html#a3a75ccdfbe05912fda48c3b134d114c0" target="_top" xlink:title="nek_flops">
<polygon fill="white" stroke="black" points="231.5,-76.5 231.5,-95.5 293.5,-95.5 293.5,-76.5 231.5,-76.5"/>
<text text-anchor="middle" x="262.5" y="-83.5" font-family="Helvetica,sans-Serif" font-size="10.00">nek_flops</text>
</a>
</g>
</g>
<!-- Node2&#45;&gt;Node8 -->
<g id="edge7" class="edge"><title>Node2&#45;&gt;Node8</title>
<path fill="none" stroke="midnightblue" d="M159.121,-118.556C175.39,-113.382 200.455,-105.412 221.712,-98.6521"/>
<polygon fill="midnightblue" stroke="midnightblue" points="223.006,-101.913 231.475,-95.5476 220.885,-95.2426 223.006,-101.913"/>
</g>
<!-- Node10 -->
<g id="node10" class="node"><title>Node10</title>
<g id="a_node10"><a xlink:href="comm__mpi_8F90.html#a4acb4d8e379294232e9219bec063d8f3" target="_top" xlink:title="nekgsync">
<polygon fill="white" stroke="black" points="231.5,-38.5 231.5,-57.5 293.5,-57.5 293.5,-38.5 231.5,-38.5"/>
<text text-anchor="middle" x="262.5" y="-45.5" font-family="Helvetica,sans-Serif" font-size="10.00">nekgsync</text>
</a>
</g>
</g>
<!-- Node2&#45;&gt;Node10 -->
<g id="edge9" class="edge"><title>Node2&#45;&gt;Node10</title>
<path fill="none" stroke="midnightblue" d="M152.041,-114.482C165.36,-102.241 189.996,-80.9058 214,-67 217.266,-65.1078 220.757,-63.3202 224.308,-61.6547"/>
<polygon fill="midnightblue" stroke="midnightblue" points="225.968,-64.7491 233.735,-57.5428 223.17,-58.3329 225.968,-64.7491"/>
</g>
<!-- Node4 -->
<g id="node4" class="node"><title>Node4</title>
<g id="a_node4"><a xlink:href="mpi__dummy_8F90.html#ae6a5ef945f87c2c27849696b70f3af2a" target="_top" xlink:title="mpi_wtime">
<polygon fill="white" stroke="black" points="354,-228.5 354,-247.5 420,-247.5 420,-228.5 354,-228.5"/>
<text text-anchor="middle" x="387" y="-235.5" font-family="Helvetica,sans-Serif" font-size="10.00">mpi_wtime</text>
</a>
</g>
</g>
<!-- Node3&#45;&gt;Node4 -->
<g id="edge3" class="edge"><title>Node3&#45;&gt;Node4</title>
<path fill="none" stroke="midnightblue" d="M311.212,-238C321.894,-238 333.154,-238 343.603,-238"/>
<polygon fill="midnightblue" stroke="midnightblue" points="343.73,-241.5 353.729,-238 343.729,-234.5 343.73,-241.5"/>
</g>
<!-- Node9 -->
<g id="node9" class="node"><title>Node9</title>
<g id="a_node9"><a xlink:href="papi_8F90.html#a838be3d39e287e29002d5a68c6ad2dd8" target="_top" xlink:title="getflops_papi">
<polygon fill="white" stroke="black" points="347,-76.5 347,-95.5 427,-95.5 427,-76.5 347,-76.5"/>
<text text-anchor="middle" x="387" y="-83.5" font-family="Helvetica,sans-Serif" font-size="10.00">getflops_papi</text>
</a>
</g>
</g>
<!-- Node8&#45;&gt;Node9 -->
<g id="edge8" class="edge"><title>Node8&#45;&gt;Node9</title>
<path fill="none" stroke="midnightblue" d="M293.781,-86C306.666,-86 322.032,-86 336.491,-86"/>
<polygon fill="midnightblue" stroke="midnightblue" points="336.811,-89.5001 346.811,-86 336.811,-82.5001 336.811,-89.5001"/>
</g>
<!-- Node11 -->
<g id="node11" class="node"><title>Node11</title>
<g id="a_node11"><a xlink:href="mpi__dummy_8F90.html#a070afe564196eb48413dbf1a9fbc99aa" target="_top" xlink:title="mpi_barrier">
<polygon fill="white" stroke="black" points="352,-38.5 352,-57.5 422,-57.5 422,-38.5 352,-38.5"/>
<text text-anchor="middle" x="387" y="-45.5" font-family="Helvetica,sans-Serif" font-size="10.00">mpi_barrier</text>
</a>
</g>
</g>
<!-- Node10&#45;&gt;Node11 -->
<g id="edge10" class="edge"><title>Node10&#45;&gt;Node11</title>
<path fill="none" stroke="midnightblue" d="M293.781,-48C308.195,-48 325.714,-48 341.594,-48"/>
<polygon fill="midnightblue" stroke="midnightblue" points="341.745,-51.5001 351.745,-48 341.745,-44.5001 341.745,-51.5001"/>
</g>
<!-- Node13 -->
<g id="node13" class="node"><title>Node13</title>
<g id="a_node13"><a xlink:href="classspeclib.html#af7eaf2eb0994474cab3a5582bbf02903" target="_top" xlink:title="speclib::jacobf">
<polygon fill="white" stroke="black" points="222,-0.5 222,-19.5 303,-19.5 303,-0.5 222,-0.5"/>
<text text-anchor="middle" x="262.5" y="-7.5" font-family="Helvetica,sans-Serif" font-size="10.00">speclib::jacobf</text>
</a>
</g>
</g>
<!-- Node12&#45;&gt;Node13 -->
<g id="edge12" class="edge"><title>Node12&#45;&gt;Node13</title>
<path fill="none" stroke="midnightblue" d="M172.155,-38.411C187.157,-33.6406 205.488,-27.8112 221.634,-22.6771"/>
<polygon fill="midnightblue" stroke="midnightblue" points="222.886,-25.9518 231.355,-19.5859 220.764,-19.281 222.886,-25.9518"/>
</g>
</g>
</svg>
