<?xml version="1.0" encoding="UTF-8" standalone="no"?>
<!DOCTYPE svg PUBLIC "-//W3C//DTD SVG 1.1//EN"
 "http://www.w3.org/Graphics/SVG/1.1/DTD/svg11.dtd">
<!-- Generated by graphviz version 2.38.0 (20140413.2041)
 -->
<!-- Title: speclib::dgljgj Pages: 1 -->
<svg width="572pt" height="218pt"
 viewBox="0.00 0.00 572.00 218.00" xmlns="http://www.w3.org/2000/svg" xmlns:xlink="http://www.w3.org/1999/xlink">
<g id="graph0" class="graph" transform="scale(1 1) rotate(0) translate(4 214)">
<title>speclib::dgljgj</title>
<polygon fill="white" stroke="none" points="-4,4 -4,-214 568,-214 568,4 -4,4"/>
<!-- Node1 -->
<g id="node1" class="node"><title>Node1</title>
<polygon fill="#bfbfbf" stroke="black" points="0,-76.5 0,-95.5 78,-95.5 78,-76.5 0,-76.5"/>
<text text-anchor="middle" x="39" y="-83.5" font-family="Helvetica,sans-Serif" font-size="10.00">speclib::dgljgj</text>
</g>
<!-- Node2 -->
<g id="node2" class="node"><title>Node2</title>
<g id="a_node2"><a xlink:href="classspeclib.html#aa155dec8c72ae730ff1df0b63ccf95e2" target="_top" xlink:title="speclib::dgljgjd">
<polygon fill="white" stroke="black" points="114,-57.5 114,-76.5 198,-76.5 198,-57.5 114,-57.5"/>
<text text-anchor="middle" x="156" y="-64.5" font-family="Helvetica,sans-Serif" font-size="10.00">speclib::dgljgjd</text>
</a>
</g>
</g>
<!-- Node1&#45;&gt;Node2 -->
<g id="edge1" class="edge"><title>Node1&#45;&gt;Node2</title>
<path fill="none" stroke="midnightblue" d="M78.2933,-79.6733C86.4648,-78.3232 95.2209,-76.8765 103.789,-75.461"/>
<polygon fill="midnightblue" stroke="midnightblue" points="104.418,-78.9046 113.713,-73.8213 103.277,-71.9982 104.418,-78.9046"/>
</g>
<!-- Node3 -->
<g id="node3" class="node"><title>Node3</title>
<g id="a_node3"><a xlink:href="byte_8c.html#a2da8eeb074dfd3ffbfb3e9a4d301cda4" target="_top" xlink:title="exitt">
<polygon fill="white" stroke="black" points="256.5,-95.5 256.5,-114.5 292.5,-114.5 292.5,-95.5 256.5,-95.5"/>
<text text-anchor="middle" x="274.5" y="-102.5" font-family="Helvetica,sans-Serif" font-size="10.00">exitt</text>
</a>
</g>
</g>
<!-- Node1&#45;&gt;Node3 -->
<g id="edge13" class="edge"><title>Node1&#45;&gt;Node3</title>
<path fill="none" stroke="midnightblue" d="M78.0355,-89.095C125.249,-92.9368 204.611,-99.3945 246.199,-102.779"/>
<polygon fill="midnightblue" stroke="midnightblue" points="246.143,-106.285 256.394,-103.608 246.711,-99.3085 246.143,-106.285"/>
</g>
<!-- Node2&#45;&gt;Node3 -->
<g id="edge2" class="edge"><title>Node2&#45;&gt;Node3</title>
<path fill="none" stroke="midnightblue" d="M186.398,-76.589C204.966,-82.6457 228.768,-90.4092 246.796,-96.2897"/>
<polygon fill="midnightblue" stroke="midnightblue" points="245.811,-99.65 256.404,-99.4236 247.982,-92.995 245.811,-99.65"/>
</g>
<!-- Node13 -->
<g id="node13" class="node"><title>Node13</title>
<g id="a_node13"><a xlink:href="classspeclib.html#af7eaf2eb0994474cab3a5582bbf02903" target="_top" xlink:title="speclib::jacobf">
<polygon fill="white" stroke="black" points="234,-57.5 234,-76.5 315,-76.5 315,-57.5 234,-57.5"/>
<text text-anchor="middle" x="274.5" y="-64.5" font-family="Helvetica,sans-Serif" font-size="10.00">speclib::jacobf</text>
</a>
</g>
</g>
<!-- Node2&#45;&gt;Node13 -->
<g id="edge12" class="edge"><title>Node2&#45;&gt;Node13</title>
<path fill="none" stroke="midnightblue" d="M198.074,-67C206.364,-67 215.163,-67 223.715,-67"/>
<polygon fill="midnightblue" stroke="midnightblue" points="223.971,-70.5001 233.971,-67 223.971,-63.5001 223.971,-70.5001"/>
</g>
<!-- Node4 -->
<g id="node4" class="node"><title>Node4</title>
<g id="a_node4"><a xlink:href="classctimer.html#abcecbc845c8ee72e13a19eaa30b80d77" target="_top" xlink:title="ctimer::dnekclock">
<polygon fill="white" stroke="black" points="351,-190.5 351,-209.5 448,-209.5 448,-190.5 351,-190.5"/>
<text text-anchor="middle" x="399.5" y="-197.5" font-family="Helvetica,sans-Serif" font-size="10.00">ctimer::dnekclock</text>
</a>
</g>
</g>
<!-- Node3&#45;&gt;Node4 -->
<g id="edge3" class="edge"><title>Node3&#45;&gt;Node4</title>
<path fill="none" stroke="midnightblue" d="M282.877,-114.657C295.368,-130.44 322.152,-161.909 351,-181 353.741,-182.814 356.681,-184.5 359.707,-186.058"/>
<polygon fill="midnightblue" stroke="midnightblue" points="358.38,-189.301 368.923,-190.345 361.332,-182.954 358.38,-189.301"/>
</g>
<!-- Node6 -->
<g id="node6" class="node"><title>Node6</title>
<g id="a_node6"><a xlink:href="subs1_8F90.html#a339739b88994e5bb12bd923147f94983" target="_top" xlink:title="flush_io">
<polygon fill="white" stroke="black" points="373,-152.5 373,-171.5 426,-171.5 426,-152.5 373,-152.5"/>
<text text-anchor="middle" x="399.5" y="-159.5" font-family="Helvetica,sans-Serif" font-size="10.00">flush_io</text>
</a>
</g>
</g>
<!-- Node3&#45;&gt;Node6 -->
<g id="edge5" class="edge"><title>Node3&#45;&gt;Node6</title>
<path fill="none" stroke="midnightblue" d="M292.689,-114.182C307.861,-122.158 330.665,-133.836 351,-143 355.12,-144.857 359.478,-146.726 363.817,-148.529"/>
<polygon fill="midnightblue" stroke="midnightblue" points="362.604,-151.814 373.186,-152.341 365.242,-145.33 362.604,-151.814"/>
</g>
<!-- Node7 -->
<g id="node7" class="node"><title>Node7</title>
<g id="a_node7"><a xlink:href="singlmesh_8F90.html#aef78ff219741b83c1ca784b869e9cacf" target="_top" xlink:title="Dummy for singlmesh. ">
<polygon fill="white" stroke="black" points="359.5,-114.5 359.5,-133.5 439.5,-133.5 439.5,-114.5 359.5,-114.5"/>
<text text-anchor="middle" x="399.5" y="-121.5" font-family="Helvetica,sans-Serif" font-size="10.00">happy_check</text>
</a>
</g>
</g>
<!-- Node3&#45;&gt;Node7 -->
<g id="edge6" class="edge"><title>Node3&#45;&gt;Node7</title>
<path fill="none" stroke="midnightblue" d="M292.603,-107.642C307.285,-109.91 329.195,-113.294 349.283,-116.397"/>
<polygon fill="midnightblue" stroke="midnightblue" points="348.848,-119.872 359.265,-117.939 349.917,-112.954 348.848,-119.872"/>
</g>
<!-- Node8 -->
<g id="node8" class="node"><title>Node8</title>
<g id="a_node8"><a xlink:href="mpi__dummy_8F90.html#a55e9a1619aadb638b14211ce21d7d566" target="_top" xlink:title="mpi_finalize">
<polygon fill="white" stroke="black" points="363.5,-76.5 363.5,-95.5 435.5,-95.5 435.5,-76.5 363.5,-76.5"/>
<text text-anchor="middle" x="399.5" y="-83.5" font-family="Helvetica,sans-Serif" font-size="10.00">mpi_finalize</text>
</a>
</g>
</g>
<!-- Node3&#45;&gt;Node8 -->
<g id="edge7" class="edge"><title>Node3&#45;&gt;Node8</title>
<path fill="none" stroke="midnightblue" d="M292.603,-102.358C308.259,-99.9396 332.136,-96.2513 353.257,-92.9887"/>
<polygon fill="midnightblue" stroke="midnightblue" points="354.008,-96.4144 363.356,-91.4287 352.939,-89.4965 354.008,-96.4144"/>
</g>
<!-- Node9 -->
<g id="node9" class="node"><title>Node9</title>
<g id="a_node9"><a xlink:href="papi_8F90.html#a3a75ccdfbe05912fda48c3b134d114c0" target="_top" xlink:title="nek_flops">
<polygon fill="white" stroke="black" points="368.5,-38.5 368.5,-57.5 430.5,-57.5 430.5,-38.5 368.5,-38.5"/>
<text text-anchor="middle" x="399.5" y="-45.5" font-family="Helvetica,sans-Serif" font-size="10.00">nek_flops</text>
</a>
</g>
</g>
<!-- Node3&#45;&gt;Node9 -->
<g id="edge8" class="edge"><title>Node3&#45;&gt;Node9</title>
<path fill="none" stroke="midnightblue" d="M292.873,-96.8151C299.787,-93.5131 307.797,-89.6314 315,-86 331.155,-77.8552 334.578,-74.5922 351,-67 355.101,-65.1037 359.449,-63.2108 363.782,-61.3947"/>
<polygon fill="midnightblue" stroke="midnightblue" points="365.211,-64.5917 373.146,-57.5704 362.565,-58.1114 365.211,-64.5917"/>
</g>
<!-- Node11 -->
<g id="node11" class="node"><title>Node11</title>
<g id="a_node11"><a xlink:href="comm__mpi_8F90.html#a4acb4d8e379294232e9219bec063d8f3" target="_top" xlink:title="nekgsync">
<polygon fill="white" stroke="black" points="368.5,-0.5 368.5,-19.5 430.5,-19.5 430.5,-0.5 368.5,-0.5"/>
<text text-anchor="middle" x="399.5" y="-7.5" font-family="Helvetica,sans-Serif" font-size="10.00">nekgsync</text>
</a>
</g>
</g>
<!-- Node3&#45;&gt;Node11 -->
<g id="edge10" class="edge"><title>Node3&#45;&gt;Node11</title>
<path fill="none" stroke="midnightblue" d="M292.894,-99.1105C300.281,-96.0159 308.637,-91.6704 315,-86 337.369,-66.0653 327.968,-48.1647 351,-29 353.526,-26.8981 356.314,-25.0068 359.236,-23.3093"/>
<polygon fill="midnightblue" stroke="midnightblue" points="360.901,-26.39 368.273,-18.7808 357.765,-20.1317 360.901,-26.39"/>
</g>
<!-- Node5 -->
<g id="node5" class="node"><title>Node5</title>
<g id="a_node5"><a xlink:href="mpi__dummy_8F90.html#ae6a5ef945f87c2c27849696b70f3af2a" target="_top" xlink:title="mpi_wtime">
<polygon fill="white" stroke="black" points="491,-190.5 491,-209.5 557,-209.5 557,-190.5 491,-190.5"/>
<text text-anchor="middle" x="524" y="-197.5" font-family="Helvetica,sans-Serif" font-size="10.00">mpi_wtime</text>
</a>
</g>
</g>
<!-- Node4&#45;&gt;Node5 -->
<g id="edge4" class="edge"><title>Node4&#45;&gt;Node5</title>
<path fill="none" stroke="midnightblue" d="M448.212,-200C458.894,-200 470.154,-200 480.603,-200"/>
<polygon fill="midnightblue" stroke="midnightblue" points="480.73,-203.5 490.729,-200 480.729,-196.5 480.73,-203.5"/>
</g>
<!-- Node10 -->
<g id="node10" class="node"><title>Node10</title>
<g id="a_node10"><a xlink:href="papi_8F90.html#a838be3d39e287e29002d5a68c6ad2dd8" target="_top" xlink:title="getflops_papi">
<polygon fill="white" stroke="black" points="484,-38.5 484,-57.5 564,-57.5 564,-38.5 484,-38.5"/>
<text text-anchor="middle" x="524" y="-45.5" font-family="Helvetica,sans-Serif" font-size="10.00">getflops_papi</text>
</a>
</g>
</g>
<!-- Node9&#45;&gt;Node10 -->
<g id="edge9" class="edge"><title>Node9&#45;&gt;Node10</title>
<path fill="none" stroke="midnightblue" d="M430.781,-48C443.666,-48 459.032,-48 473.491,-48"/>
<polygon fill="midnightblue" stroke="midnightblue" points="473.811,-51.5001 483.811,-48 473.811,-44.5001 473.811,-51.5001"/>
</g>
<!-- Node12 -->
<g id="node12" class="node"><title>Node12</title>
<g id="a_node12"><a xlink:href="mpi__dummy_8F90.html#a070afe564196eb48413dbf1a9fbc99aa" target="_top" xlink:title="mpi_barrier">
<polygon fill="white" stroke="black" points="489,-0.5 489,-19.5 559,-19.5 559,-0.5 489,-0.5"/>
<text text-anchor="middle" x="524" y="-7.5" font-family="Helvetica,sans-Serif" font-size="10.00">mpi_barrier</text>
</a>
</g>
</g>
<!-- Node11&#45;&gt;Node12 -->
<g id="edge11" class="edge"><title>Node11&#45;&gt;Node12</title>
<path fill="none" stroke="midnightblue" d="M430.781,-10C445.195,-10 462.714,-10 478.594,-10"/>
<polygon fill="midnightblue" stroke="midnightblue" points="478.745,-13.5001 488.745,-10 478.745,-6.5001 478.745,-13.5001"/>
</g>
</g>
</svg>
