<?xml version="1.0" encoding="UTF-8" standalone="no"?>
<!DOCTYPE svg PUBLIC "-//W3C//DTD SVG 1.1//EN"
 "http://www.w3.org/Graphics/SVG/1.1/DTD/svg11.dtd">
<!-- Generated by graphviz version 2.38.0 (20140413.2041)
 -->
<!-- Title: poisson::xyz_to_pid Pages: 1 -->
<!--zoomable 131 -->
<svg id="main" version="1.1" xmlns="http://www.w3.org/2000/svg" xmlns:xlink="http://www.w3.org/1999/xlink" xml:space="preserve" onload="init(evt)">
<style type="text/css"><![CDATA[
.edge:hover path { stroke: red; }
.edge:hover polygon { stroke: red; fill: red; }
]]></style>
<script type="text/javascript"><![CDATA[
var edges = document.getElementsByTagName('g');
if (edges && edges.length) {
  for (var i=0;i<edges.length;i++) {
    if (edges[i].id.substr(0,4)=='edge') {
      edges[i].setAttribute('class','edge');
    }
  }
}
]]></script>
        <defs>
                <circle id="rim" cx="0" cy="0" r="7"/>
                <circle id="rim2" cx="0" cy="0" r="3.5"/>
                <g id="zoomPlus">
                        <use xlink:href="#rim" fill="#404040">
                                <set attributeName="fill" to="#808080" begin="zoomplus.mouseover" end="zoomplus.mouseout"/>
                        </use>
                        <path d="M-4,0h8M0,-4v8" fill="none" stroke="white" stroke-width="1.5" pointer-events="none"/>
                </g>
                <g id="zoomMin">
                        <use xlink:href="#rim" fill="#404040">
                                <set attributeName="fill" to="#808080" begin="zoomminus.mouseover" end="zoomminus.mouseout"/>
                        </use>
                        <path d="M-4,0h8" fill="none" stroke="white" stroke-width="1.5" pointer-events="none"/>
                </g>
                <g id="dirArrow">
                        <path fill="none" stroke="white" stroke-width="1.5" d="M0,-3.0v7 M-2.5,-0.5L0,-3.0L2.5,-0.5"/>
                </g>
               <g id="resetDef">
                       <use xlink:href="#rim2" fill="#404040">
                               <set attributeName="fill" to="#808080" begin="reset.mouseover" end="reset.mouseout"/>
                       </use>
               </g>
        </defs>

<script type="text/javascript">
var viewWidth = 2247;
var viewHeight = 131;
var sectionId = 'dynsection-19';
</script>
<script xlink:href="svgpan.js"/>
<svg id="graph" class="graph">
<g id="viewport">
<title>poisson::xyz_to_pid</title>
<polygon fill="white" stroke="none" points="-4,4 -4,-127 2243,-127 2243,4 -4,4"/>
<!-- Node1 -->
<g id="node1" class="node"><title>Node1</title>
<polygon fill="#bfbfbf" stroke="black" points="0,-46.5 0,-65.5 109,-65.5 109,-46.5 0,-46.5"/>
<text text-anchor="middle" x="54.5" y="-53.5" font-family="Helvetica,sans-Serif" font-size="10.00">poisson::xyz_to_pid</text>
</g>
<!-- Node2 -->
<g id="node2" class="node"><title>Node2</title>
<g id="a_node2"><a xlink:href="classpoisson.html#a90f49ac199784d3bf15825d4dff8a5e5" target="_top" xlink:title="poisson::init_mesh\l_to_grid">
<polygon fill="white" stroke="black" points="145,-41 145,-71 248,-71 248,-41 145,-41"/>
<text text-anchor="start" x="153" y="-59" font-family="Helvetica,sans-Serif" font-size="10.00">poisson::init_mesh</text>
<text text-anchor="middle" x="196.5" y="-48" font-family="Helvetica,sans-Serif" font-size="10.00">_to_grid</text>
</a>
</g>
</g>
<!-- Node1&#45;&gt;Node2 -->
<g id="edge1" class="edge"><title>Node1&#45;&gt;Node2</title>
<path fill="none" stroke="midnightblue" d="M119.238,-56C127.843,-56 136.574,-56 144.907,-56"/>
<polygon fill="midnightblue" stroke="midnightblue" points="119.227,-52.5001 109.227,-56 119.227,-59.5001 119.227,-52.5001"/>
</g>
<!-- Node3 -->
<g id="node3" class="node"><title>Node3</title>
<g id="a_node3"><a xlink:href="classpoisson.html#ac42cd347ca63e3394556370be60d7360" target="_top" xlink:title="poisson::mesh_to_grid">
<polygon fill="white" stroke="black" points="284,-46.5 284,-65.5 406,-65.5 406,-46.5 284,-46.5"/>
<text text-anchor="middle" x="345" y="-53.5" font-family="Helvetica,sans-Serif" font-size="10.00">poisson::mesh_to_grid</text>
</a>
</g>
</g>
<!-- Node2&#45;&gt;Node3 -->
<g id="edge2" class="edge"><title>Node2&#45;&gt;Node3</title>
<path fill="none" stroke="midnightblue" d="M258.462,-56C266.887,-56 275.535,-56 283.943,-56"/>
<polygon fill="midnightblue" stroke="midnightblue" points="258.327,-52.5001 248.327,-56 258.327,-59.5001 258.327,-52.5001"/>
</g>
<!-- Node4 -->
<g id="node4" class="node"><title>Node4</title>
<g id="a_node4"><a xlink:href="classpoisson.html#a557b9bfb94e35c8716319d8d8145cacc" target="_top" xlink:title="poisson::cos_test">
<polygon fill="white" stroke="black" points="457,-103.5 457,-122.5 555,-122.5 555,-103.5 457,-103.5"/>
<text text-anchor="middle" x="506" y="-110.5" font-family="Helvetica,sans-Serif" font-size="10.00">poisson::cos_test</text>
</a>
</g>
</g>
<!-- Node3&#45;&gt;Node4 -->
<g id="edge3" class="edge"><title>Node3&#45;&gt;Node4</title>
<path fill="none" stroke="midnightblue" d="M378.12,-69.4963C396.65,-77.085 420.475,-86.5089 442,-94 451.495,-97.3043 461.906,-100.582 471.482,-103.461"/>
<polygon fill="midnightblue" stroke="midnightblue" points="379.265,-66.1826 368.686,-65.6043 376.595,-72.6536 379.265,-66.1826"/>
</g>
<!-- Node6 -->
<g id="node6" class="node"><title>Node6</title>
<g id="a_node6"><a xlink:href="classpoisson.html#a1ab874c434e5694003e378739fb98c65" target="_top" xlink:title="poisson::spectral_solve">
<polygon fill="white" stroke="black" points="747,-19.5 747,-38.5 873,-38.5 873,-19.5 747,-19.5"/>
<text text-anchor="middle" x="810" y="-26.5" font-family="Helvetica,sans-Serif" font-size="10.00">poisson::spectral_solve</text>
</a>
</g>
</g>
<!-- Node3&#45;&gt;Node6 -->
<g id="edge25" class="edge"><title>Node3&#45;&gt;Node6</title>
<path fill="none" stroke="midnightblue" d="M373.267,-42.0025C392.042,-33.1756 417.86,-22.604 442,-18 549.229,2.45042 677.225,-9.38195 750.221,-19.4576"/>
<polygon fill="midnightblue" stroke="midnightblue" points="371.616,-38.9133 364.137,-46.4185 374.664,-45.2149 371.616,-38.9133"/>
</g>
<!-- Node22 -->
<g id="node22" class="node"><title>Node22</title>
<g id="a_node22"><a xlink:href="classpoisson.html#a54094b5009a26b94189d1f7dc4e3010d" target="_top" xlink:title="poisson::shuffle_test">
<polygon fill="white" stroke="black" points="450,-65.5 450,-84.5 562,-84.5 562,-65.5 450,-65.5"/>
<text text-anchor="middle" x="506" y="-72.5" font-family="Helvetica,sans-Serif" font-size="10.00">poisson::shuffle_test</text>
</a>
</g>
</g>
<!-- Node3&#45;&gt;Node22 -->
<g id="edge23" class="edge"><title>Node3&#45;&gt;Node22</title>
<path fill="none" stroke="midnightblue" d="M416.312,-64.402C427.523,-65.7417 438.981,-67.1109 449.778,-68.4012"/>
<polygon fill="midnightblue" stroke="midnightblue" points="416.456,-60.8944 406.111,-63.1831 415.625,-67.845 416.456,-60.8944"/>
</g>
<!-- Node23 -->
<g id="node23" class="node"><title>Node23</title>
<g id="a_node23"><a xlink:href="classpoisson.html#af15535fb56b2a956fc12fd7887ad6ef0" target="_top" xlink:title="poisson::transpose_test">
<polygon fill="white" stroke="black" points="442,-27.5 442,-46.5 570,-46.5 570,-27.5 442,-27.5"/>
<text text-anchor="middle" x="506" y="-34.5" font-family="Helvetica,sans-Serif" font-size="10.00">poisson::transpose_test</text>
</a>
</g>
</g>
<!-- Node3&#45;&gt;Node23 -->
<g id="edge26" class="edge"><title>Node3&#45;&gt;Node23</title>
<path fill="none" stroke="midnightblue" d="M416.097,-47.6237C424.682,-46.5977 433.416,-45.5541 441.89,-44.5415"/>
<polygon fill="midnightblue" stroke="midnightblue" points="415.625,-44.155 406.111,-48.8169 416.456,-51.1056 415.625,-44.155"/>
</g>
<!-- Node5 -->
<g id="node5" class="node"><title>Node5</title>
<g id="a_node5"><a xlink:href="classpoisson.html#ace48c9eb09141b029fd923de91c5cbbc" target="_top" xlink:title="one&#45;time setup of communication infrastructure for poisson_mod ">
<polygon fill="white" stroke="black" points="606,-44 606,-74 711,-74 711,-44 606,-44"/>
<text text-anchor="start" x="614" y="-62" font-family="Helvetica,sans-Serif" font-size="10.00">poisson::init_comm</text>
<text text-anchor="middle" x="658.5" y="-51" font-family="Helvetica,sans-Serif" font-size="10.00">_infrastructure</text>
</a>
</g>
</g>
<!-- Node4&#45;&gt;Node5 -->
<g id="edge4" class="edge"><title>Node4&#45;&gt;Node5</title>
<path fill="none" stroke="midnightblue" d="M550.159,-100.532C556.834,-98.4458 563.625,-96.2316 570,-94 587.296,-87.9459 606.206,-80.4899 622.007,-74.0175"/>
<polygon fill="midnightblue" stroke="midnightblue" points="549.062,-97.2073 540.526,-103.483 551.112,-103.9 549.062,-97.2073"/>
</g>
<!-- Node5&#45;&gt;Node6 -->
<g id="edge5" class="edge"><title>Node5&#45;&gt;Node6</title>
<path fill="none" stroke="midnightblue" d="M721.403,-46.5781C734.705,-43.9087 748.567,-41.127 761.235,-38.585"/>
<polygon fill="midnightblue" stroke="midnightblue" points="720.484,-43.1925 711.368,-48.5916 721.861,-50.0557 720.484,-43.1925"/>
</g>
<!-- Node7 -->
<g id="node7" class="node"><title>Node7</title>
<g id="a_node7"><a xlink:href="classhsmg__routines.html#adb1f241321c99f913f53fefefee82c09" target="_top" xlink:title="hsmg_routines::hsmg\l_coarse_solve">
<polygon fill="white" stroke="black" points="909,-14 909,-44 1025,-44 1025,-14 909,-14"/>
<text text-anchor="start" x="917" y="-32" font-family="Helvetica,sans-Serif" font-size="10.00">hsmg_routines::hsmg</text>
<text text-anchor="middle" x="967" y="-21" font-family="Helvetica,sans-Serif" font-size="10.00">_coarse_solve</text>
</a>
</g>
</g>
<!-- Node6&#45;&gt;Node7 -->
<g id="edge6" class="edge"><title>Node6&#45;&gt;Node7</title>
<path fill="none" stroke="midnightblue" d="M883.192,-29C891.801,-29 900.498,-29 908.855,-29"/>
<polygon fill="midnightblue" stroke="midnightblue" points="883.151,-25.5001 873.151,-29 883.151,-32.5001 883.151,-25.5001"/>
</g>
<!-- Node8 -->
<g id="node8" class="node"><title>Node8</title>
<g id="a_node8"><a xlink:href="classhsmg__routines.html#abaa25315b11254629ed79c12c169c52f" target="_top" xlink:title="Solve preconditioner: z = M rhs, where . ">
<polygon fill="white" stroke="black" points="1061,-14 1061,-44 1177,-44 1177,-14 1061,-14"/>
<text text-anchor="start" x="1069" y="-32" font-family="Helvetica,sans-Serif" font-size="10.00">hsmg_routines::h1mg</text>
<text text-anchor="middle" x="1119" y="-21" font-family="Helvetica,sans-Serif" font-size="10.00">_solve</text>
</a>
</g>
</g>
<!-- Node7&#45;&gt;Node8 -->
<g id="edge7" class="edge"><title>Node7&#45;&gt;Node8</title>
<path fill="none" stroke="midnightblue" d="M1035.31,-29C1043.73,-29 1052.28,-29 1060.53,-29"/>
<polygon fill="midnightblue" stroke="midnightblue" points="1035.14,-25.5001 1025.14,-29 1035.14,-32.5001 1035.14,-25.5001"/>
</g>
<!-- Node9 -->
<g id="node9" class="node"><title>Node9</title>
<g id="a_node9"><a xlink:href="gmres_8F90.html#a377d8578c6ccd4fddffb699c7a18f603" target="_top" xlink:title="Solve the Helmholtz equation by right&#45;preconditioned GMRES iteration. ">
<polygon fill="white" stroke="black" points="1213,-19.5 1213,-38.5 1285,-38.5 1285,-19.5 1213,-19.5"/>
<text text-anchor="middle" x="1249" y="-26.5" font-family="Helvetica,sans-Serif" font-size="10.00">hmh_gmres</text>
</a>
</g>
</g>
<!-- Node8&#45;&gt;Node9 -->
<g id="edge8" class="edge"><title>Node8&#45;&gt;Node9</title>
<path fill="none" stroke="midnightblue" d="M1187.52,-29C1196.26,-29 1204.91,-29 1212.82,-29"/>
<polygon fill="midnightblue" stroke="midnightblue" points="1187.26,-25.5001 1177.26,-29 1187.26,-32.5001 1187.26,-25.5001"/>
</g>
<!-- Node10 -->
<g id="node10" class="node"><title>Node10</title>
<g id="a_node10"><a xlink:href="hmholtz_8F90.html#a8734f3cc2d37d6a2ccd1daa8db57513d" target="_top" xlink:title="Solve the Helmholtz equation, H*U = RHS, using preconditioned conjugate gradient iteration. Preconditioner: diag(H). ">
<polygon fill="white" stroke="black" points="1321,-19.5 1321,-38.5 1361,-38.5 1361,-19.5 1321,-19.5"/>
<text text-anchor="middle" x="1341" y="-26.5" font-family="Helvetica,sans-Serif" font-size="10.00">cggo</text>
</a>
</g>
</g>
<!-- Node9&#45;&gt;Node10 -->
<g id="edge9" class="edge"><title>Node9&#45;&gt;Node10</title>
<path fill="none" stroke="midnightblue" d="M1295.16,-29C1304.19,-29 1313.2,-29 1320.75,-29"/>
<polygon fill="midnightblue" stroke="midnightblue" points="1295.05,-25.5001 1285.05,-29 1295.05,-32.5001 1295.05,-25.5001"/>
</g>
<!-- Node11 -->
<g id="node11" class="node"><title>Node11</title>
<g id="a_node11"><a xlink:href="hmholtz_8F90.html#a52dcac1fe733719d4987d36aac022e4d" target="_top" xlink:title="hmholtz">
<polygon fill="white" stroke="black" points="1421,-38.5 1421,-57.5 1474,-57.5 1474,-38.5 1421,-38.5"/>
<text text-anchor="middle" x="1447.5" y="-45.5" font-family="Helvetica,sans-Serif" font-size="10.00">hmholtz</text>
</a>
</g>
</g>
<!-- Node10&#45;&gt;Node11 -->
<g id="edge10" class="edge"><title>Node10&#45;&gt;Node11</title>
<path fill="none" stroke="midnightblue" d="M1371.3,-34.3274C1386.85,-37.1545 1405.78,-40.5968 1420.76,-43.3201"/>
<polygon fill="midnightblue" stroke="midnightblue" points="1371.63,-30.8303 1361.17,-32.4849 1370.38,-37.7174 1371.63,-30.8303"/>
</g>
<!-- Node21 -->
<g id="node21" class="node"><title>Node21</title>
<g id="a_node21"><a xlink:href="classhelmholtz.html#ae307c08c70cdc6428553cb85ce68cbbb" target="_top" xlink:title="helmholtz::hmhzpf">
<polygon fill="white" stroke="black" points="1397,-0.5 1397,-19.5 1498,-19.5 1498,-0.5 1397,-0.5"/>
<text text-anchor="middle" x="1447.5" y="-7.5" font-family="Helvetica,sans-Serif" font-size="10.00">helmholtz::hmhzpf</text>
</a>
</g>
</g>
<!-- Node10&#45;&gt;Node21 -->
<g id="edge21" class="edge"><title>Node10&#45;&gt;Node21</title>
<path fill="none" stroke="midnightblue" d="M1371.13,-23.7036C1379.18,-22.2407 1388.14,-20.6112 1396.99,-19.001"/>
<polygon fill="midnightblue" stroke="midnightblue" points="1370.38,-20.2826 1361.17,-25.5151 1371.63,-27.1697 1370.38,-20.2826"/>
</g>
<!-- Node12 -->
<g id="node12" class="node"><title>Node12</title>
<g id="a_node12"><a xlink:href="classhelmholtz.html#abf98ad104d11790462e9f07b3fa91848" target="_top" xlink:title="Either std. Helmholtz solve, or a projection + Helmholtz solve. ">
<polygon fill="white" stroke="black" points="1534,-19.5 1534,-38.5 1631,-38.5 1631,-19.5 1534,-19.5"/>
<text text-anchor="middle" x="1582.5" y="-26.5" font-family="Helvetica,sans-Serif" font-size="10.00">helmholtz::hsolve</text>
</a>
</g>
</g>
<!-- Node11&#45;&gt;Node12 -->
<g id="edge11" class="edge"><title>Node11&#45;&gt;Node12</title>
<path fill="none" stroke="midnightblue" d="M1484.21,-42.899C1499.46,-40.7197 1517.49,-38.144 1533.86,-35.8058"/>
<polygon fill="midnightblue" stroke="midnightblue" points="1483.55,-39.4575 1474.14,-44.3366 1484.54,-46.3871 1483.55,-39.4575"/>
</g>
<!-- Node13 -->
<g id="node13" class="node"><title>Node13</title>
<g id="a_node13"><a xlink:href="conduct_8F90.html#a74a7f053381975ed36df8ea959f3aa01" target="_top" xlink:title="Solve the convection&#45;diffusion equation for passive scalar IPSCAL. ">
<polygon fill="white" stroke="black" points="1667,-38.5 1667,-57.5 1714,-57.5 1714,-38.5 1667,-38.5"/>
<text text-anchor="middle" x="1690.5" y="-45.5" font-family="Helvetica,sans-Serif" font-size="10.00">cdscal</text>
</a>
</g>
</g>
<!-- Node12&#45;&gt;Node13 -->
<g id="edge12" class="edge"><title>Node12&#45;&gt;Node13</title>
<path fill="none" stroke="midnightblue" d="M1641.16,-39.3345C1650.28,-40.9709 1659.23,-42.5739 1666.89,-43.9475"/>
<polygon fill="midnightblue" stroke="midnightblue" points="1641.69,-35.8744 1631.23,-37.5551 1640.45,-42.7646 1641.69,-35.8744"/>
</g>
<!-- Node19 -->
<g id="node19" class="node"><title>Node19</title>
<g id="a_node19"><a xlink:href="plan4_8F90.html#a5cbf852b67e73bfa44e028338c4d57ad" target="_top" xlink:title="Splitting scheme . ">
<polygon fill="white" stroke="black" points="1669,-0.5 1669,-19.5 1712,-19.5 1712,-0.5 1669,-0.5"/>
<text text-anchor="middle" x="1690.5" y="-7.5" font-family="Helvetica,sans-Serif" font-size="10.00">plan4</text>
</a>
</g>
</g>
<!-- Node12&#45;&gt;Node19 -->
<g id="edge18" class="edge"><title>Node12&#45;&gt;Node19</title>
<path fill="none" stroke="midnightblue" d="M1641.15,-18.6664C1651.05,-16.8917 1660.73,-15.1561 1668.8,-13.7099"/>
<polygon fill="midnightblue" stroke="midnightblue" points="1640.45,-15.2354 1631.23,-20.4449 1641.69,-22.1256 1640.45,-15.2354"/>
</g>
<!-- Node14 -->
<g id="node14" class="node"><title>Node14</title>
<g id="a_node14"><a xlink:href="drive2_8F90.html#acce80cd37f20e9b52729eb52d86a9c86" target="_top" xlink:title="Driver for temperature or passive scalar. ">
<polygon fill="white" stroke="black" points="1750,-38.5 1750,-57.5 1788,-57.5 1788,-38.5 1750,-38.5"/>
<text text-anchor="middle" x="1769" y="-45.5" font-family="Helvetica,sans-Serif" font-size="10.00">heat</text>
</a>
</g>
</g>
<!-- Node13&#45;&gt;Node14 -->
<g id="edge13" class="edge"><title>Node13&#45;&gt;Node14</title>
<path fill="none" stroke="midnightblue" d="M1724.13,-48C1732.99,-48 1742.26,-48 1749.98,-48"/>
<polygon fill="midnightblue" stroke="midnightblue" points="1724.04,-44.5001 1714.04,-48 1724.04,-51.5001 1724.04,-44.5001"/>
</g>
<!-- Node15 -->
<g id="node15" class="node"><title>Node15</title>
<g id="a_node15"><a xlink:href="drive1_8F90.html#ae177ea7efac97f35241521b782a671c0" target="_top" xlink:title="take a single time&#45;step ">
<polygon fill="white" stroke="black" points="1824,-19.5 1824,-38.5 1904,-38.5 1904,-19.5 1824,-19.5"/>
<text text-anchor="middle" x="1864" y="-26.5" font-family="Helvetica,sans-Serif" font-size="10.00">nek_advance</text>
</a>
</g>
</g>
<!-- Node14&#45;&gt;Node15 -->
<g id="edge14" class="edge"><title>Node14&#45;&gt;Node15</title>
<path fill="none" stroke="midnightblue" d="M1798.36,-42.2055C1806.41,-40.5604 1815.33,-38.7395 1823.9,-36.9889"/>
<polygon fill="midnightblue" stroke="midnightblue" points="1797.47,-38.8153 1788.37,-44.2462 1798.87,-45.6736 1797.47,-38.8153"/>
</g>
<!-- Node16 -->
<g id="node16" class="node"><title>Node16</title>
<g id="a_node16"><a xlink:href="drive1_8F90.html#a18d3e839786263fc4cf91f7eeb714371" target="_top" xlink:title="take a chunk of time&#45;steps ">
<polygon fill="white" stroke="black" points="1940,-19.5 1940,-38.5 2053,-38.5 2053,-19.5 1940,-19.5"/>
<text text-anchor="middle" x="1996.5" y="-26.5" font-family="Helvetica,sans-Serif" font-size="10.00">nek__multi_advance</text>
</a>
</g>
</g>
<!-- Node15&#45;&gt;Node16 -->
<g id="edge15" class="edge"><title>Node15&#45;&gt;Node16</title>
<path fill="none" stroke="midnightblue" d="M1914.19,-29C1922.61,-29 1931.4,-29 1939.97,-29"/>
<polygon fill="midnightblue" stroke="midnightblue" points="1914.15,-25.5001 1904.15,-29 1914.15,-32.5001 1914.15,-25.5001"/>
</g>
<!-- Node17 -->
<g id="node17" class="node"><title>Node17</title>
<g id="a_node17"><a xlink:href="drive1_8F90.html#a6ad57e0cf728f343e371ef8c9a02cd8a" target="_top" xlink:title="integrate the governing equations in time ">
<polygon fill="white" stroke="black" points="2089,-19.5 2089,-38.5 2154,-38.5 2154,-19.5 2089,-19.5"/>
<text text-anchor="middle" x="2121.5" y="-26.5" font-family="Helvetica,sans-Serif" font-size="10.00">nek_solve</text>
</a>
</g>
</g>
<!-- Node16&#45;&gt;Node17 -->
<g id="edge16" class="edge"><title>Node16&#45;&gt;Node17</title>
<path fill="none" stroke="midnightblue" d="M2063.28,-29C2072.16,-29 2080.93,-29 2088.82,-29"/>
<polygon fill="midnightblue" stroke="midnightblue" points="2063.24,-25.5001 2053.24,-29 2063.24,-32.5001 2063.24,-25.5001"/>
</g>
<!-- Node18 -->
<g id="node18" class="node"><title>Node18</title>
<g id="a_node18"><a xlink:href="drive_8F90.html#a13048bf28dd0734640412d69349e3857" target="_top" xlink:title="NEK5000: Spectral Element Computational Fluid Dynamics Solver COPYRIGHT (c) 2008&#45;2010 UCHICAGO ARGONN...">
<polygon fill="white" stroke="black" points="2190,-19.5 2190,-38.5 2239,-38.5 2239,-19.5 2190,-19.5"/>
<text text-anchor="middle" x="2214.5" y="-26.5" font-family="Helvetica,sans-Serif" font-size="10.00">nekton</text>
</a>
</g>
</g>
<!-- Node17&#45;&gt;Node18 -->
<g id="edge17" class="edge"><title>Node17&#45;&gt;Node18</title>
<path fill="none" stroke="midnightblue" d="M2164.19,-29C2172.95,-29 2181.9,-29 2189.73,-29"/>
<polygon fill="midnightblue" stroke="midnightblue" points="2164.07,-25.5001 2154.07,-29 2164.07,-32.5001 2164.07,-25.5001"/>
</g>
<!-- Node20 -->
<g id="node20" class="node"><title>Node20</title>
<g id="a_node20"><a xlink:href="drive2_8F90.html#ab0aeca9ad3db8be87a01ba29d069d71e" target="_top" xlink:title="Driver for solving the incompressible Navier&#45;Stokes equations. ">
<polygon fill="white" stroke="black" points="1751.5,-0.5 1751.5,-19.5 1786.5,-19.5 1786.5,-0.5 1751.5,-0.5"/>
<text text-anchor="middle" x="1769" y="-7.5" font-family="Helvetica,sans-Serif" font-size="10.00">fluid</text>
</a>
</g>
</g>
<!-- Node19&#45;&gt;Node20 -->
<g id="edge19" class="edge"><title>Node19&#45;&gt;Node20</title>
<path fill="none" stroke="midnightblue" d="M1722.26,-10C1732.09,-10 1742.6,-10 1751.06,-10"/>
<polygon fill="midnightblue" stroke="midnightblue" points="1722,-6.5001 1712,-10 1722,-13.5001 1722,-6.5001"/>
</g>
<!-- Node20&#45;&gt;Node15 -->
<g id="edge20" class="edge"><title>Node20&#45;&gt;Node15</title>
<path fill="none" stroke="midnightblue" d="M1796.63,-15.4415C1805.08,-17.1662 1814.59,-19.1106 1823.73,-20.9771"/>
<polygon fill="midnightblue" stroke="midnightblue" points="1797.12,-11.9694 1786.63,-13.3968 1795.72,-18.8277 1797.12,-11.9694"/>
</g>
<!-- Node21&#45;&gt;Node12 -->
<g id="edge22" class="edge"><title>Node21&#45;&gt;Node12</title>
<path fill="none" stroke="midnightblue" d="M1508.01,-18.5018C1516.61,-19.7303 1525.37,-20.9814 1533.7,-22.1716"/>
<polygon fill="midnightblue" stroke="midnightblue" points="1508.42,-15.0244 1498.02,-17.0749 1507.43,-21.954 1508.42,-15.0244"/>
</g>
<!-- Node22&#45;&gt;Node5 -->
<g id="edge24" class="edge"><title>Node22&#45;&gt;Node5</title>
<path fill="none" stroke="midnightblue" d="M572.356,-68.0519C583.552,-66.8616 595.045,-65.6397 605.822,-64.494"/>
<polygon fill="midnightblue" stroke="midnightblue" points="571.76,-64.5954 562.186,-69.133 572.5,-71.5562 571.76,-64.5954"/>
</g>
<!-- Node23&#45;&gt;Node5 -->
<g id="edge27" class="edge"><title>Node23&#45;&gt;Node5</title>
<path fill="none" stroke="midnightblue" d="M580.353,-47.7227C588.875,-48.9685 597.43,-50.219 605.58,-51.4103"/>
<polygon fill="midnightblue" stroke="midnightblue" points="580.79,-44.2495 570.389,-46.2662 579.778,-51.1759 580.79,-44.2495"/>
</g>
</g>
</svg>
        <g id="navigator" transform="translate(0 0)" fill="#404254">
                <rect fill="#f2f5e9" fill-opacity="0.5" stroke="#606060" stroke-width=".5" x="0" y="0" width="60" height="60"/>
                <use id="zoomplus" xlink:href="#zoomPlus" x="17" y="9" onmousedown="handleZoom(evt,'in')"/>
                <use id="zoomminus" xlink:href="#zoomMin" x="42" y="9" onmousedown="handleZoom(evt,'out')"/>
                <use id="reset" xlink:href="#resetDef" x="30" y="36" onmousedown="handleReset()"/>
                <g id="arrowUp" xlink:href="#dirArrow" transform="translate(30 24)" onmousedown="handlePan(0,-1)">
                  <use xlink:href="#rim" fill="#404040">
                        <set attributeName="fill" to="#808080" begin="arrowUp.mouseover" end="arrowUp.mouseout"/>
                  </use>
                  <path fill="none" stroke="white" stroke-width="1.5" d="M0,-3.0v7 M-2.5,-0.5L0,-3.0L2.5,-0.5"/>
                </g>
                <g id="arrowRight" xlink:href="#dirArrow" transform="rotate(90) translate(36 -43)" onmousedown="handlePan(1,0)">
                  <use xlink:href="#rim" fill="#404040">
                        <set attributeName="fill" to="#808080" begin="arrowRight.mouseover" end="arrowRight.mouseout"/>
                  </use>
                  <path fill="none" stroke="white" stroke-width="1.5" d="M0,-3.0v7 M-2.5,-0.5L0,-3.0L2.5,-0.5"/>
                </g>
                <g id="arrowDown" xlink:href="#dirArrow" transform="rotate(180) translate(-30 -48)" onmousedown="handlePan(0,1)">
                  <use xlink:href="#rim" fill="#404040">
                        <set attributeName="fill" to="#808080" begin="arrowDown.mouseover" end="arrowDown.mouseout"/>
                  </use>
                  <path fill="none" stroke="white" stroke-width="1.5" d="M0,-3.0v7 M-2.5,-0.5L0,-3.0L2.5,-0.5"/>
                </g>
                <g id="arrowLeft" xlink:href="#dirArrow" transform="rotate(270) translate(-36 17)" onmousedown="handlePan(-1,0)">
                  <use xlink:href="#rim" fill="#404040">
                        <set attributeName="fill" to="#808080" begin="arrowLeft.mouseover" end="arrowLeft.mouseout"/>
                  </use>
                  <path fill="none" stroke="white" stroke-width="1.5" d="M0,-3.0v7 M-2.5,-0.5L0,-3.0L2.5,-0.5"/>
                </g>
        </g>
        <svg viewBox="0 0 15 15" width="100%" height="30px" preserveAspectRatio="xMaxYMin meet">
         <g id="arrow_out" transform="scale(0.3 0.3)">
          <a xlink:href="classpoisson_a7f3f4d5527547189ab948995a746db9f_icgraph_org.svg" target="_base">
           <rect id="button" ry="5" rx="5" y="6" x="6" height="38" width="38"
                fill="#f2f5e9" fill-opacity="0.5" stroke="#606060" stroke-width="1.0"/>
           <path id="arrow"
             d="M 11.500037,31.436501 C 11.940474,20.09759 22.043105,11.32322 32.158766,21.979434 L 37.068811,17.246167 C 37.068811,17.246167 37.088388,32 37.088388,32 L 22.160133,31.978069 C 22.160133,31.978069 26.997745,27.140456 26.997745,27.140456 C 18.528582,18.264221 13.291696,25.230495 11.500037,31.436501 z"
             style="fill:#404040;"/>
          </a>
         </g>
        </svg>
</svg>
