<?xml version="1.0" encoding="UTF-8" standalone="no"?>
<!DOCTYPE svg PUBLIC "-//W3C//DTD SVG 1.1//EN"
 "http://www.w3.org/Graphics/SVG/1.1/DTD/svg11.dtd">
<!-- Generated by graphviz version 2.38.0 (20140413.2041)
 -->
<!-- Title: speclib::hglj Pages: 1 -->
<svg width="445pt" height="28pt"
 viewBox="0.00 0.00 445.00 28.00" xmlns="http://www.w3.org/2000/svg" xmlns:xlink="http://www.w3.org/1999/xlink">
<g id="graph0" class="graph" transform="scale(1 1) rotate(0) translate(4 24)">
<title>speclib::hglj</title>
<polygon fill="white" stroke="none" points="-4,4 -4,-24 441,-24 441,4 -4,4"/>
<!-- Node1 -->
<g id="node1" class="node"><title>Node1</title>
<polygon fill="#bfbfbf" stroke="black" points="0,-0.5 0,-19.5 70,-19.5 70,-0.5 0,-0.5"/>
<text text-anchor="middle" x="35" y="-7.5" font-family="Helvetica,sans-Serif" font-size="10.00">speclib::hglj</text>
</g>
<!-- Node2 -->
<g id="node2" class="node"><title>Node2</title>
<g id="a_node2"><a xlink:href="classspeclib.html#aa417242e861205a649681dfffda171d4" target="_top" xlink:title="speclib::igljm">
<polygon fill="white" stroke="black" points="106,-0.5 106,-19.5 180,-19.5 180,-0.5 106,-0.5"/>
<text text-anchor="middle" x="143" y="-7.5" font-family="Helvetica,sans-Serif" font-size="10.00">speclib::igljm</text>
</a>
</g>
</g>
<!-- Node1&#45;&gt;Node2 -->
<g id="edge1" class="edge"><title>Node1&#45;&gt;Node2</title>
<path fill="none" stroke="midnightblue" d="M80.2634,-10C88.752,-10 97.548,-10 105.748,-10"/>
<polygon fill="midnightblue" stroke="midnightblue" points="80.1226,-6.5001 70.1225,-10 80.1225,-13.5001 80.1226,-6.5001"/>
</g>
<!-- Node3 -->
<g id="node3" class="node"><title>Node3</title>
<g id="a_node3"><a xlink:href="coef_8F90.html#a0d49b1aee56670901cd4cdfde7245e6c" target="_top" xlink:title="Generate derivative and interpolation operators. GENERATE. ">
<polygon fill="white" stroke="black" points="216,-0.5 216,-19.5 263,-19.5 263,-0.5 216,-0.5"/>
<text text-anchor="middle" x="239.5" y="-7.5" font-family="Helvetica,sans-Serif" font-size="10.00">genwz</text>
</a>
</g>
</g>
<!-- Node2&#45;&gt;Node3 -->
<g id="edge2" class="edge"><title>Node2&#45;&gt;Node3</title>
<path fill="none" stroke="midnightblue" d="M190.529,-10C199.348,-10 208.201,-10 215.857,-10"/>
<polygon fill="midnightblue" stroke="midnightblue" points="190.266,-6.5001 180.266,-10 190.266,-13.5001 190.266,-6.5001"/>
</g>
<!-- Node4 -->
<g id="node4" class="node"><title>Node4</title>
<g id="a_node4"><a xlink:href="drive1_8F90.html#a87bd37ae2c18426f28f35cc3f24e4355" target="_top" xlink:title="initialize nek ">
<polygon fill="white" stroke="black" points="299,-0.5 299,-19.5 352,-19.5 352,-0.5 299,-0.5"/>
<text text-anchor="middle" x="325.5" y="-7.5" font-family="Helvetica,sans-Serif" font-size="10.00">nek_init</text>
</a>
</g>
</g>
<!-- Node3&#45;&gt;Node4 -->
<g id="edge3" class="edge"><title>Node3&#45;&gt;Node4</title>
<path fill="none" stroke="midnightblue" d="M273.099,-10C281.678,-10 290.81,-10 298.959,-10"/>
<polygon fill="midnightblue" stroke="midnightblue" points="273.01,-6.5001 263.01,-10 273.01,-13.5001 273.01,-6.5001"/>
</g>
<!-- Node5 -->
<g id="node5" class="node"><title>Node5</title>
<g id="a_node5"><a xlink:href="drive_8F90.html#a13048bf28dd0734640412d69349e3857" target="_top" xlink:title="NEK5000: Spectral Element Computational Fluid Dynamics Solver COPYRIGHT (c) 2008&#45;2010 UCHICAGO ARGONN...">
<polygon fill="white" stroke="black" points="388,-0.5 388,-19.5 437,-19.5 437,-0.5 388,-0.5"/>
<text text-anchor="middle" x="412.5" y="-7.5" font-family="Helvetica,sans-Serif" font-size="10.00">nekton</text>
</a>
</g>
</g>
<!-- Node4&#45;&gt;Node5 -->
<g id="edge4" class="edge"><title>Node4&#45;&gt;Node5</title>
<path fill="none" stroke="midnightblue" d="M362.227,-10C370.846,-10 379.845,-10 387.759,-10"/>
<polygon fill="midnightblue" stroke="midnightblue" points="362.003,-6.5001 352.003,-10 362.003,-13.5001 362.003,-6.5001"/>
</g>
</g>
</svg>
