<?xml version="1.0" encoding="UTF-8" standalone="no"?>
<!DOCTYPE svg PUBLIC "-//W3C//DTD SVG 1.1//EN"
 "http://www.w3.org/Graphics/SVG/1.1/DTD/svg11.dtd">
<!-- Generated by graphviz version 2.38.0 (20140413.2041)
 -->
<!-- Title: hsmg_routines::hsmg_dssum Pages: 1 -->
<!--zoomable 274 -->
<svg id="main" version="1.1" xmlns="http://www.w3.org/2000/svg" xmlns:xlink="http://www.w3.org/1999/xlink" xml:space="preserve" onload="init(evt)">
<style type="text/css"><![CDATA[
.edge:hover path { stroke: red; }
.edge:hover polygon { stroke: red; fill: red; }
]]></style>
<script type="text/javascript"><![CDATA[
var edges = document.getElementsByTagName('g');
if (edges && edges.length) {
  for (var i=0;i<edges.length;i++) {
    if (edges[i].id.substr(0,4)=='edge') {
      edges[i].setAttribute('class','edge');
    }
  }
}
]]></script>
        <defs>
                <circle id="rim" cx="0" cy="0" r="7"/>
                <circle id="rim2" cx="0" cy="0" r="3.5"/>
                <g id="zoomPlus">
                        <use xlink:href="#rim" fill="#404040">
                                <set attributeName="fill" to="#808080" begin="zoomplus.mouseover" end="zoomplus.mouseout"/>
                        </use>
                        <path d="M-4,0h8M0,-4v8" fill="none" stroke="white" stroke-width="1.5" pointer-events="none"/>
                </g>
                <g id="zoomMin">
                        <use xlink:href="#rim" fill="#404040">
                                <set attributeName="fill" to="#808080" begin="zoomminus.mouseover" end="zoomminus.mouseout"/>
                        </use>
                        <path d="M-4,0h8" fill="none" stroke="white" stroke-width="1.5" pointer-events="none"/>
                </g>
                <g id="dirArrow">
                        <path fill="none" stroke="white" stroke-width="1.5" d="M0,-3.0v7 M-2.5,-0.5L0,-3.0L2.5,-0.5"/>
                </g>
               <g id="resetDef">
                       <use xlink:href="#rim2" fill="#404040">
                               <set attributeName="fill" to="#808080" begin="reset.mouseover" end="reset.mouseout"/>
                       </use>
               </g>
        </defs>

<script type="text/javascript">
var viewWidth = 1664;
var viewHeight = 274;
var sectionId = 'dynsection-38';
</script>
<script xlink:href="svgpan.js"/>
<svg id="graph" class="graph">
<g id="viewport">
<title>hsmg_routines::hsmg_dssum</title>
<polygon fill="white" stroke="none" points="-4,4 -4,-269.5 1660,-269.5 1660,4 -4,4"/>
<!-- Node1 -->
<g id="node1" class="node"><title>Node1</title>
<polygon fill="#bfbfbf" stroke="black" points="0,-171.5 0,-201.5 116,-201.5 116,-171.5 0,-171.5"/>
<text text-anchor="start" x="8" y="-189.5" font-family="Helvetica,sans-Serif" font-size="10.00">hsmg_routines::hsmg</text>
<text text-anchor="middle" x="58" y="-178.5" font-family="Helvetica,sans-Serif" font-size="10.00">_dssum</text>
</g>
<!-- Node2 -->
<g id="node2" class="node"><title>Node2</title>
<g id="a_node2"><a xlink:href="classhsmg__routines.html#a6e79e13064790d22b12b32f86d5fc52d" target="_top" xlink:title="r =J r, l is coarse level ">
<polygon fill="white" stroke="black" points="152,-246 152,-265 290,-265 290,-246 152,-246"/>
<text text-anchor="middle" x="221" y="-253" font-family="Helvetica,sans-Serif" font-size="10.00">hsmg_routines::h1mg_rstr</text>
</a>
</g>
</g>
<!-- Node1&#45;&gt;Node2 -->
<g id="edge1" class="edge"><title>Node1&#45;&gt;Node2</title>
<path fill="none" stroke="midnightblue" d="M93.4879,-206.776C110.682,-216.336 132.024,-227.394 152,-235.5 161.692,-239.433 172.445,-242.959 182.485,-245.915"/>
<polygon fill="midnightblue" stroke="midnightblue" points="94.8265,-203.513 84.3972,-201.647 91.3869,-209.609 94.8265,-203.513"/>
</g>
<!-- Node17 -->
<g id="node17" class="node"><title>Node17</title>
<g id="a_node17"><a xlink:href="classhsmg__routines.html#a4a6db215f45240aeea2ec2541872b472" target="_top" xlink:title="hsmg_routines::h1mg\l_schwarz_part1">
<polygon fill="white" stroke="black" points="163,-196.5 163,-226.5 279,-226.5 279,-196.5 163,-196.5"/>
<text text-anchor="start" x="171" y="-214.5" font-family="Helvetica,sans-Serif" font-size="10.00">hsmg_routines::h1mg</text>
<text text-anchor="middle" x="221" y="-203.5" font-family="Helvetica,sans-Serif" font-size="10.00">_schwarz_part1</text>
</a>
</g>
</g>
<!-- Node1&#45;&gt;Node17 -->
<g id="edge18" class="edge"><title>Node1&#45;&gt;Node17</title>
<path fill="none" stroke="midnightblue" d="M126.329,-196.955C138.514,-198.847 151.113,-200.803 162.968,-202.644"/>
<polygon fill="midnightblue" stroke="midnightblue" points="126.635,-193.46 116.216,-195.384 125.56,-200.377 126.635,-193.46"/>
</g>
<!-- Node19 -->
<g id="node19" class="node"><title>Node19</title>
<g id="a_node19"><a xlink:href="classhsmg__routines.html#a13c1cb2ecf3853e551896970bb5c87b5" target="_top" xlink:title="hsmg_routines::h1mg\l_setup_schwarz_wt_1">
<polygon fill="white" stroke="black" points="160,-147.5 160,-177.5 282,-177.5 282,-147.5 160,-147.5"/>
<text text-anchor="start" x="168" y="-165.5" font-family="Helvetica,sans-Serif" font-size="10.00">hsmg_routines::h1mg</text>
<text text-anchor="middle" x="221" y="-154.5" font-family="Helvetica,sans-Serif" font-size="10.00">_setup_schwarz_wt_1</text>
</a>
</g>
</g>
<!-- Node1&#45;&gt;Node19 -->
<g id="edge21" class="edge"><title>Node1&#45;&gt;Node19</title>
<path fill="none" stroke="midnightblue" d="M126.342,-176.461C137.502,-174.798 149.009,-173.083 159.973,-171.448"/>
<polygon fill="midnightblue" stroke="midnightblue" points="125.591,-173.035 116.216,-177.971 126.623,-179.958 125.591,-173.035"/>
</g>
<!-- Node26 -->
<g id="node26" class="node"><title>Node26</title>
<g id="a_node26"><a xlink:href="classhsmg__routines.html#a8cd19d8e20a7c2d3db0ff9ef8586c8ae" target="_top" xlink:title="hsmg_routines::hsmg\l_setup_rstr_wt">
<polygon fill="white" stroke="black" points="163,-49.5 163,-79.5 279,-79.5 279,-49.5 163,-49.5"/>
<text text-anchor="start" x="171" y="-67.5" font-family="Helvetica,sans-Serif" font-size="10.00">hsmg_routines::hsmg</text>
<text text-anchor="middle" x="221" y="-56.5" font-family="Helvetica,sans-Serif" font-size="10.00">_setup_rstr_wt</text>
</a>
</g>
</g>
<!-- Node1&#45;&gt;Node26 -->
<g id="edge30" class="edge"><title>Node1&#45;&gt;Node26</title>
<path fill="none" stroke="midnightblue" d="M87.2375,-165.103C119.613,-140.57 171.853,-100.984 200.188,-79.5131"/>
<polygon fill="midnightblue" stroke="midnightblue" points="84.9216,-162.466 79.0652,-171.295 89.1493,-168.045 84.9216,-162.466"/>
</g>
<!-- Node3 -->
<g id="node3" class="node"><title>Node3</title>
<g id="a_node3"><a xlink:href="classhsmg__routines.html#abaa25315b11254629ed79c12c169c52f" target="_top" xlink:title="Solve preconditioner: z = M rhs, where . ">
<polygon fill="white" stroke="black" points="478,-202.5 478,-232.5 594,-232.5 594,-202.5 478,-202.5"/>
<text text-anchor="start" x="486" y="-220.5" font-family="Helvetica,sans-Serif" font-size="10.00">hsmg_routines::h1mg</text>
<text text-anchor="middle" x="536" y="-209.5" font-family="Helvetica,sans-Serif" font-size="10.00">_solve</text>
</a>
</g>
</g>
<!-- Node2&#45;&gt;Node3 -->
<g id="edge2" class="edge"><title>Node2&#45;&gt;Node3</title>
<path fill="none" stroke="midnightblue" d="M300.284,-250.306C342.4,-247.028 395.169,-242.144 442,-235.5 453.561,-233.86 465.862,-231.745 477.604,-229.545"/>
<polygon fill="midnightblue" stroke="midnightblue" points="299.797,-246.833 290.092,-251.084 300.33,-253.812 299.797,-246.833"/>
</g>
<!-- Node4 -->
<g id="node4" class="node"><title>Node4</title>
<g id="a_node4"><a xlink:href="gmres_8F90.html#a377d8578c6ccd4fddffb699c7a18f603" target="_top" xlink:title="Solve the Helmholtz equation by right&#45;preconditioned GMRES iteration. ">
<polygon fill="white" stroke="black" points="630,-208 630,-227 702,-227 702,-208 630,-208"/>
<text text-anchor="middle" x="666" y="-215" font-family="Helvetica,sans-Serif" font-size="10.00">hmh_gmres</text>
</a>
</g>
</g>
<!-- Node3&#45;&gt;Node4 -->
<g id="edge3" class="edge"><title>Node3&#45;&gt;Node4</title>
<path fill="none" stroke="midnightblue" d="M604.521,-217.5C613.26,-217.5 621.911,-217.5 629.82,-217.5"/>
<polygon fill="midnightblue" stroke="midnightblue" points="604.261,-214 594.261,-217.5 604.261,-221 604.261,-214"/>
</g>
<!-- Node5 -->
<g id="node5" class="node"><title>Node5</title>
<g id="a_node5"><a xlink:href="hmholtz_8F90.html#a8734f3cc2d37d6a2ccd1daa8db57513d" target="_top" xlink:title="Solve the Helmholtz equation, H*U = RHS, using preconditioned conjugate gradient iteration. Preconditioner: diag(H). ">
<polygon fill="white" stroke="black" points="738,-208 738,-227 778,-227 778,-208 738,-208"/>
<text text-anchor="middle" x="758" y="-215" font-family="Helvetica,sans-Serif" font-size="10.00">cggo</text>
</a>
</g>
</g>
<!-- Node4&#45;&gt;Node5 -->
<g id="edge4" class="edge"><title>Node4&#45;&gt;Node5</title>
<path fill="none" stroke="midnightblue" d="M712.165,-217.5C721.185,-217.5 730.197,-217.5 737.75,-217.5"/>
<polygon fill="midnightblue" stroke="midnightblue" points="712.054,-214 702.054,-217.5 712.054,-221 712.054,-214"/>
</g>
<!-- Node6 -->
<g id="node6" class="node"><title>Node6</title>
<g id="a_node6"><a xlink:href="hmholtz_8F90.html#a52dcac1fe733719d4987d36aac022e4d" target="_top" xlink:title="hmholtz">
<polygon fill="white" stroke="black" points="838,-230 838,-249 891,-249 891,-230 838,-230"/>
<text text-anchor="middle" x="864.5" y="-237" font-family="Helvetica,sans-Serif" font-size="10.00">hmholtz</text>
</a>
</g>
</g>
<!-- Node5&#45;&gt;Node6 -->
<g id="edge5" class="edge"><title>Node5&#45;&gt;Node6</title>
<path fill="none" stroke="midnightblue" d="M788.301,-223.669C803.85,-226.942 822.782,-230.928 837.761,-234.081"/>
<polygon fill="midnightblue" stroke="midnightblue" points="788.673,-220.17 778.167,-221.535 787.231,-227.02 788.673,-220.17"/>
</g>
<!-- Node16 -->
<g id="node16" class="node"><title>Node16</title>
<g id="a_node16"><a xlink:href="classhelmholtz.html#ae307c08c70cdc6428553cb85ce68cbbb" target="_top" xlink:title="helmholtz::hmhzpf">
<polygon fill="white" stroke="black" points="814,-192 814,-211 915,-211 915,-192 814,-192"/>
<text text-anchor="middle" x="864.5" y="-199" font-family="Helvetica,sans-Serif" font-size="10.00">helmholtz::hmhzpf</text>
</a>
</g>
</g>
<!-- Node5&#45;&gt;Node16 -->
<g id="edge16" class="edge"><title>Node5&#45;&gt;Node16</title>
<path fill="none" stroke="midnightblue" d="M788.13,-213.04C796.176,-211.808 805.138,-210.436 813.995,-209.08"/>
<polygon fill="midnightblue" stroke="midnightblue" points="787.522,-209.592 778.167,-214.565 788.581,-216.511 787.522,-209.592"/>
</g>
<!-- Node7 -->
<g id="node7" class="node"><title>Node7</title>
<g id="a_node7"><a xlink:href="classhelmholtz.html#abf98ad104d11790462e9f07b3fa91848" target="_top" xlink:title="Either std. Helmholtz solve, or a projection + Helmholtz solve. ">
<polygon fill="white" stroke="black" points="951,-192 951,-211 1048,-211 1048,-192 951,-192"/>
<text text-anchor="middle" x="999.5" y="-199" font-family="Helvetica,sans-Serif" font-size="10.00">helmholtz::hsolve</text>
</a>
</g>
</g>
<!-- Node6&#45;&gt;Node7 -->
<g id="edge6" class="edge"><title>Node6&#45;&gt;Node7</title>
<path fill="none" stroke="midnightblue" d="M901.023,-229.351C920.836,-223.69 945.374,-216.679 964.874,-211.107"/>
<polygon fill="midnightblue" stroke="midnightblue" points="899.797,-226.061 891.144,-232.173 901.721,-232.791 899.797,-226.061"/>
</g>
<!-- Node8 -->
<g id="node8" class="node"><title>Node8</title>
<g id="a_node8"><a xlink:href="conduct_8F90.html#a74a7f053381975ed36df8ea959f3aa01" target="_top" xlink:title="Solve the convection&#45;diffusion equation for passive scalar IPSCAL. ">
<polygon fill="white" stroke="black" points="1084,-215 1084,-234 1131,-234 1131,-215 1084,-215"/>
<text text-anchor="middle" x="1107.5" y="-222" font-family="Helvetica,sans-Serif" font-size="10.00">cdscal</text>
</a>
</g>
</g>
<!-- Node7&#45;&gt;Node8 -->
<g id="edge7" class="edge"><title>Node7&#45;&gt;Node8</title>
<path fill="none" stroke="midnightblue" d="M1054.46,-213.208C1064.85,-215.463 1075.19,-217.707 1083.89,-219.593"/>
<polygon fill="midnightblue" stroke="midnightblue" points="1055.05,-209.754 1044.53,-211.054 1053.56,-216.595 1055.05,-209.754"/>
</g>
<!-- Node14 -->
<g id="node14" class="node"><title>Node14</title>
<g id="a_node14"><a xlink:href="plan4_8F90.html#a5cbf852b67e73bfa44e028338c4d57ad" target="_top" xlink:title="Splitting scheme . ">
<polygon fill="white" stroke="black" points="1086,-177 1086,-196 1129,-196 1129,-177 1086,-177"/>
<text text-anchor="middle" x="1107.5" y="-184" font-family="Helvetica,sans-Serif" font-size="10.00">plan4</text>
</a>
</g>
</g>
<!-- Node7&#45;&gt;Node14 -->
<g id="edge13" class="edge"><title>Node7&#45;&gt;Node14</title>
<path fill="none" stroke="midnightblue" d="M1058.15,-193.342C1068.05,-191.941 1077.73,-190.571 1085.8,-189.429"/>
<polygon fill="midnightblue" stroke="midnightblue" points="1057.64,-189.879 1048.23,-194.746 1058.62,-196.81 1057.64,-189.879"/>
</g>
<!-- Node9 -->
<g id="node9" class="node"><title>Node9</title>
<g id="a_node9"><a xlink:href="drive2_8F90.html#acce80cd37f20e9b52729eb52d86a9c86" target="_top" xlink:title="Driver for temperature or passive scalar. ">
<polygon fill="white" stroke="black" points="1167,-215 1167,-234 1205,-234 1205,-215 1167,-215"/>
<text text-anchor="middle" x="1186" y="-222" font-family="Helvetica,sans-Serif" font-size="10.00">heat</text>
</a>
</g>
</g>
<!-- Node8&#45;&gt;Node9 -->
<g id="edge8" class="edge"><title>Node8&#45;&gt;Node9</title>
<path fill="none" stroke="midnightblue" d="M1141.13,-224.5C1149.99,-224.5 1159.26,-224.5 1166.98,-224.5"/>
<polygon fill="midnightblue" stroke="midnightblue" points="1141.04,-221 1131.04,-224.5 1141.04,-228 1141.04,-221"/>
</g>
<!-- Node10 -->
<g id="node10" class="node"><title>Node10</title>
<g id="a_node10"><a xlink:href="drive1_8F90.html#ae177ea7efac97f35241521b782a671c0" target="_top" xlink:title="take a single time&#45;step ">
<polygon fill="white" stroke="black" points="1241,-177 1241,-196 1321,-196 1321,-177 1241,-177"/>
<text text-anchor="middle" x="1281" y="-184" font-family="Helvetica,sans-Serif" font-size="10.00">nek_advance</text>
</a>
</g>
</g>
<!-- Node9&#45;&gt;Node10 -->
<g id="edge9" class="edge"><title>Node9&#45;&gt;Node10</title>
<path fill="none" stroke="midnightblue" d="M1215,-213.061C1228.31,-207.619 1244.05,-201.188 1256.71,-196.018"/>
<polygon fill="midnightblue" stroke="midnightblue" points="1213.31,-209.97 1205.37,-216.992 1215.95,-216.45 1213.31,-209.97"/>
</g>
<!-- Node11 -->
<g id="node11" class="node"><title>Node11</title>
<g id="a_node11"><a xlink:href="drive1_8F90.html#a18d3e839786263fc4cf91f7eeb714371" target="_top" xlink:title="take a chunk of time&#45;steps ">
<polygon fill="white" stroke="black" points="1357,-177 1357,-196 1470,-196 1470,-177 1357,-177"/>
<text text-anchor="middle" x="1413.5" y="-184" font-family="Helvetica,sans-Serif" font-size="10.00">nek__multi_advance</text>
</a>
</g>
</g>
<!-- Node10&#45;&gt;Node11 -->
<g id="edge10" class="edge"><title>Node10&#45;&gt;Node11</title>
<path fill="none" stroke="midnightblue" d="M1331.19,-186.5C1339.61,-186.5 1348.4,-186.5 1356.97,-186.5"/>
<polygon fill="midnightblue" stroke="midnightblue" points="1331.15,-183 1321.15,-186.5 1331.15,-190 1331.15,-183"/>
</g>
<!-- Node12 -->
<g id="node12" class="node"><title>Node12</title>
<g id="a_node12"><a xlink:href="drive1_8F90.html#a6ad57e0cf728f343e371ef8c9a02cd8a" target="_top" xlink:title="integrate the governing equations in time ">
<polygon fill="white" stroke="black" points="1506,-177 1506,-196 1571,-196 1571,-177 1506,-177"/>
<text text-anchor="middle" x="1538.5" y="-184" font-family="Helvetica,sans-Serif" font-size="10.00">nek_solve</text>
</a>
</g>
</g>
<!-- Node11&#45;&gt;Node12 -->
<g id="edge11" class="edge"><title>Node11&#45;&gt;Node12</title>
<path fill="none" stroke="midnightblue" d="M1480.28,-186.5C1489.16,-186.5 1497.93,-186.5 1505.82,-186.5"/>
<polygon fill="midnightblue" stroke="midnightblue" points="1480.24,-183 1470.24,-186.5 1480.24,-190 1480.24,-183"/>
</g>
<!-- Node13 -->
<g id="node13" class="node"><title>Node13</title>
<g id="a_node13"><a xlink:href="drive_8F90.html#a13048bf28dd0734640412d69349e3857" target="_top" xlink:title="NEK5000: Spectral Element Computational Fluid Dynamics Solver COPYRIGHT (c) 2008&#45;2010 UCHICAGO ARGONN...">
<polygon fill="white" stroke="black" points="1607,-158 1607,-177 1656,-177 1656,-158 1607,-158"/>
<text text-anchor="middle" x="1631.5" y="-165" font-family="Helvetica,sans-Serif" font-size="10.00">nekton</text>
</a>
</g>
</g>
<!-- Node12&#45;&gt;Node13 -->
<g id="edge12" class="edge"><title>Node12&#45;&gt;Node13</title>
<path fill="none" stroke="midnightblue" d="M1580.91,-177.855C1589.76,-176.006 1598.82,-174.115 1606.73,-172.462"/>
<polygon fill="midnightblue" stroke="midnightblue" points="1580.15,-174.438 1571.07,-179.908 1581.58,-181.29 1580.15,-174.438"/>
</g>
<!-- Node15 -->
<g id="node15" class="node"><title>Node15</title>
<g id="a_node15"><a xlink:href="drive2_8F90.html#ab0aeca9ad3db8be87a01ba29d069d71e" target="_top" xlink:title="Driver for solving the incompressible Navier&#45;Stokes equations. ">
<polygon fill="white" stroke="black" points="1168.5,-177 1168.5,-196 1203.5,-196 1203.5,-177 1168.5,-177"/>
<text text-anchor="middle" x="1186" y="-184" font-family="Helvetica,sans-Serif" font-size="10.00">fluid</text>
</a>
</g>
</g>
<!-- Node14&#45;&gt;Node15 -->
<g id="edge14" class="edge"><title>Node14&#45;&gt;Node15</title>
<path fill="none" stroke="midnightblue" d="M1139.26,-186.5C1149.09,-186.5 1159.6,-186.5 1168.06,-186.5"/>
<polygon fill="midnightblue" stroke="midnightblue" points="1139,-183 1129,-186.5 1139,-190 1139,-183"/>
</g>
<!-- Node15&#45;&gt;Node10 -->
<g id="edge15" class="edge"><title>Node15&#45;&gt;Node10</title>
<path fill="none" stroke="midnightblue" d="M1213.63,-186.5C1222.08,-186.5 1231.59,-186.5 1240.73,-186.5"/>
<polygon fill="midnightblue" stroke="midnightblue" points="1213.63,-183 1203.63,-186.5 1213.63,-190 1213.63,-183"/>
</g>
<!-- Node16&#45;&gt;Node7 -->
<g id="edge17" class="edge"><title>Node16&#45;&gt;Node7</title>
<path fill="none" stroke="midnightblue" d="M925.293,-201.5C933.803,-201.5 942.46,-201.5 950.701,-201.5"/>
<polygon fill="midnightblue" stroke="midnightblue" points="925.024,-198 915.024,-201.5 925.024,-205 925.024,-198"/>
</g>
<!-- Node18 -->
<g id="node18" class="node"><title>Node18</title>
<g id="a_node18"><a xlink:href="classhsmg__routines.html#ae8264b46dc5298c58a281e55ef3b2bc5" target="_top" xlink:title="hsmg_routines::h1mg\l_schwarz">
<polygon fill="white" stroke="black" points="326,-196.5 326,-226.5 442,-226.5 442,-196.5 326,-196.5"/>
<text text-anchor="start" x="334" y="-214.5" font-family="Helvetica,sans-Serif" font-size="10.00">hsmg_routines::h1mg</text>
<text text-anchor="middle" x="384" y="-203.5" font-family="Helvetica,sans-Serif" font-size="10.00">_schwarz</text>
</a>
</g>
</g>
<!-- Node17&#45;&gt;Node18 -->
<g id="edge19" class="edge"><title>Node17&#45;&gt;Node18</title>
<path fill="none" stroke="midnightblue" d="M289.329,-211.5C301.514,-211.5 314.113,-211.5 325.968,-211.5"/>
<polygon fill="midnightblue" stroke="midnightblue" points="289.216,-208 279.216,-211.5 289.216,-215 289.216,-208"/>
</g>
<!-- Node18&#45;&gt;Node3 -->
<g id="edge20" class="edge"><title>Node18&#45;&gt;Node3</title>
<path fill="none" stroke="midnightblue" d="M452.311,-214.192C460.728,-214.529 469.277,-214.871 477.525,-215.201"/>
<polygon fill="midnightblue" stroke="midnightblue" points="452.268,-210.688 442.136,-213.785 451.989,-217.682 452.268,-210.688"/>
</g>
<!-- Node20 -->
<g id="node20" class="node"><title>Node20</title>
<g id="a_node20"><a xlink:href="classhsmg__routines.html#adca849fb5d33cee442c5ac183cffca88" target="_top" xlink:title="hsmg_routines::h1mg\l_setup_schwarz_wt">
<polygon fill="white" stroke="black" points="326,-147.5 326,-177.5 442,-177.5 442,-147.5 326,-147.5"/>
<text text-anchor="start" x="334" y="-165.5" font-family="Helvetica,sans-Serif" font-size="10.00">hsmg_routines::h1mg</text>
<text text-anchor="middle" x="384" y="-154.5" font-family="Helvetica,sans-Serif" font-size="10.00">_setup_schwarz_wt</text>
</a>
</g>
</g>
<!-- Node19&#45;&gt;Node20 -->
<g id="edge22" class="edge"><title>Node19&#45;&gt;Node20</title>
<path fill="none" stroke="midnightblue" d="M292.57,-162.5C303.741,-162.5 315.171,-162.5 325.983,-162.5"/>
<polygon fill="midnightblue" stroke="midnightblue" points="292.409,-159 282.409,-162.5 292.408,-166 292.409,-159"/>
</g>
<!-- Node24 -->
<g id="node24" class="node"><title>Node24</title>
<g id="a_node24"><a xlink:href="classhsmg__routines.html#ab039b61096238d0ba36bcbe03a2ad1eb" target="_top" xlink:title="hsmg_routines::hsmg\l_setup_schwarz_wt">
<polygon fill="white" stroke="black" points="326,-98.5 326,-128.5 442,-128.5 442,-98.5 326,-98.5"/>
<text text-anchor="start" x="334" y="-116.5" font-family="Helvetica,sans-Serif" font-size="10.00">hsmg_routines::hsmg</text>
<text text-anchor="middle" x="384" y="-105.5" font-family="Helvetica,sans-Serif" font-size="10.00">_setup_schwarz_wt</text>
</a>
</g>
</g>
<!-- Node19&#45;&gt;Node24 -->
<g id="edge27" class="edge"><title>Node19&#45;&gt;Node24</title>
<path fill="none" stroke="midnightblue" d="M281.514,-144.387C298.63,-139.178 317.107,-133.554 333.545,-128.552"/>
<polygon fill="midnightblue" stroke="midnightblue" points="280.167,-141.139 271.619,-147.399 282.205,-147.835 280.167,-141.139"/>
</g>
<!-- Node21 -->
<g id="node21" class="node"><title>Node21</title>
<g id="a_node21"><a xlink:href="classhsmg__routines.html#a91e8aa59d56bbf05d75aa9c48bcd8977" target="_top" xlink:title="Sets up Poisson preconditioner. ">
<polygon fill="white" stroke="black" points="478,-140.5 478,-170.5 594,-170.5 594,-140.5 478,-140.5"/>
<text text-anchor="start" x="486" y="-158.5" font-family="Helvetica,sans-Serif" font-size="10.00">hsmg_routines::h1mg</text>
<text text-anchor="middle" x="536" y="-147.5" font-family="Helvetica,sans-Serif" font-size="10.00">_setup</text>
</a>
</g>
</g>
<!-- Node20&#45;&gt;Node21 -->
<g id="edge23" class="edge"><title>Node20&#45;&gt;Node21</title>
<path fill="none" stroke="midnightblue" d="M452.311,-159.359C460.728,-158.966 469.277,-158.567 477.525,-158.182"/>
<polygon fill="midnightblue" stroke="midnightblue" points="451.962,-155.871 442.136,-159.834 452.289,-162.864 451.962,-155.871"/>
</g>
<!-- Node22 -->
<g id="node22" class="node"><title>Node22</title>
<g id="a_node22"><a xlink:href="navier6_8F90.html#a45317b1def173b8f1db2e5083595d095" target="_top" xlink:title="Set up arrays for overlapping Schwartz algorithm for pressure solver ">
<polygon fill="white" stroke="black" points="630,-139 630,-158 702,-158 702,-139 630,-139"/>
<text text-anchor="middle" x="666" y="-146" font-family="Helvetica,sans-Serif" font-size="10.00">set_overlap</text>
</a>
</g>
</g>
<!-- Node21&#45;&gt;Node22 -->
<g id="edge24" class="edge"><title>Node21&#45;&gt;Node22</title>
<path fill="none" stroke="midnightblue" d="M604.521,-151.807C613.26,-151.33 621.911,-150.856 629.82,-150.424"/>
<polygon fill="midnightblue" stroke="midnightblue" points="604.055,-148.328 594.261,-152.369 604.437,-155.317 604.055,-148.328"/>
</g>
<!-- Node23 -->
<g id="node23" class="node"><title>Node23</title>
<g id="a_node23"><a xlink:href="drive1_8F90.html#a87bd37ae2c18426f28f35cc3f24e4355" target="_top" xlink:title="initialize nek ">
<polygon fill="white" stroke="black" points="973,-139 973,-158 1026,-158 1026,-139 973,-139"/>
<text text-anchor="middle" x="999.5" y="-146" font-family="Helvetica,sans-Serif" font-size="10.00">nek_init</text>
</a>
</g>
</g>
<!-- Node22&#45;&gt;Node23 -->
<g id="edge25" class="edge"><title>Node22&#45;&gt;Node23</title>
<path fill="none" stroke="midnightblue" d="M712.51,-148.5C783.054,-148.5 916.509,-148.5 972.618,-148.5"/>
<polygon fill="midnightblue" stroke="midnightblue" points="712.163,-145 702.162,-148.5 712.162,-152 712.163,-145"/>
</g>
<!-- Node23&#45;&gt;Node13 -->
<g id="edge26" class="edge"><title>Node23&#45;&gt;Node13</title>
<path fill="none" stroke="midnightblue" d="M1036.49,-148.5C1073.68,-148.5 1133.4,-148.5 1185,-148.5 1185,-148.5 1185,-148.5 1414.5,-148.5 1484.71,-148.5 1567.26,-158.584 1606.91,-164.059"/>
<polygon fill="midnightblue" stroke="midnightblue" points="1036.17,-145 1026.17,-148.5 1036.17,-152 1036.17,-145"/>
</g>
<!-- Node25 -->
<g id="node25" class="node"><title>Node25</title>
<g id="a_node25"><a xlink:href="classhsmg__routines.html#ac8f9bca9624d5e550d70acabfa8aef73" target="_top" xlink:title="Sets up hybrid Schwarz multi&#45;grid preconditioner. ">
<polygon fill="white" stroke="black" points="478,-91.5 478,-121.5 594,-121.5 594,-91.5 478,-91.5"/>
<text text-anchor="start" x="486" y="-109.5" font-family="Helvetica,sans-Serif" font-size="10.00">hsmg_routines::hsmg</text>
<text text-anchor="middle" x="536" y="-98.5" font-family="Helvetica,sans-Serif" font-size="10.00">_setup</text>
</a>
</g>
</g>
<!-- Node24&#45;&gt;Node25 -->
<g id="edge28" class="edge"><title>Node24&#45;&gt;Node25</title>
<path fill="none" stroke="midnightblue" d="M452.311,-110.359C460.728,-109.966 469.277,-109.567 477.525,-109.182"/>
<polygon fill="midnightblue" stroke="midnightblue" points="451.962,-106.871 442.136,-110.834 452.289,-113.864 451.962,-106.871"/>
</g>
<!-- Node25&#45;&gt;Node22 -->
<g id="edge29" class="edge"><title>Node25&#45;&gt;Node22</title>
<path fill="none" stroke="midnightblue" d="M592.522,-124.718C607.43,-129.61 622.964,-134.707 635.808,-138.922"/>
<polygon fill="midnightblue" stroke="midnightblue" points="593.442,-121.337 582.849,-121.544 591.26,-127.988 593.442,-121.337"/>
</g>
<!-- Node27 -->
<g id="node27" class="node"><title>Node27</title>
<g id="a_node27"><a xlink:href="classhsmg__routines.html#a4814c3115aa7273c8ca6fcd57544af17" target="_top" xlink:title="hsmg_routines::h1mg\l_setup_wtmask">
<polygon fill="white" stroke="black" points="326,-49.5 326,-79.5 442,-79.5 442,-49.5 326,-49.5"/>
<text text-anchor="start" x="334" y="-67.5" font-family="Helvetica,sans-Serif" font-size="10.00">hsmg_routines::h1mg</text>
<text text-anchor="middle" x="384" y="-56.5" font-family="Helvetica,sans-Serif" font-size="10.00">_setup_wtmask</text>
</a>
</g>
</g>
<!-- Node26&#45;&gt;Node27 -->
<g id="edge31" class="edge"><title>Node26&#45;&gt;Node27</title>
<path fill="none" stroke="midnightblue" d="M289.329,-64.5C301.514,-64.5 314.113,-64.5 325.968,-64.5"/>
<polygon fill="midnightblue" stroke="midnightblue" points="289.216,-61.0001 279.216,-64.5 289.216,-68.0001 289.216,-61.0001"/>
</g>
<!-- Node28 -->
<g id="node28" class="node"><title>Node28</title>
<g id="a_node28"><a xlink:href="classhsmg__routines.html#ab6ca71e235e4e1d2d7b5e0a782706b92" target="_top" xlink:title="hsmg_routines::hsmg\l_setup_wtmask">
<polygon fill="white" stroke="black" points="326,-0.5 326,-30.5 442,-30.5 442,-0.5 326,-0.5"/>
<text text-anchor="start" x="334" y="-18.5" font-family="Helvetica,sans-Serif" font-size="10.00">hsmg_routines::hsmg</text>
<text text-anchor="middle" x="384" y="-7.5" font-family="Helvetica,sans-Serif" font-size="10.00">_setup_wtmask</text>
</a>
</g>
</g>
<!-- Node26&#45;&gt;Node28 -->
<g id="edge33" class="edge"><title>Node26&#45;&gt;Node28</title>
<path fill="none" stroke="midnightblue" d="M281.514,-46.3871C298.63,-41.1778 317.107,-35.5543 333.545,-30.5516"/>
<polygon fill="midnightblue" stroke="midnightblue" points="280.167,-43.1385 271.619,-49.3986 282.205,-49.8352 280.167,-43.1385"/>
</g>
<!-- Node27&#45;&gt;Node21 -->
<g id="edge32" class="edge"><title>Node27&#45;&gt;Node21</title>
<path fill="none" stroke="midnightblue" d="M436.158,-84.59C438.176,-85.8341 440.132,-87.1373 442,-88.5 461.861,-102.991 458.247,-115.862 478,-130.5 483.035,-134.232 488.715,-137.555 494.488,-140.465"/>
<polygon fill="midnightblue" stroke="midnightblue" points="437.452,-81.3052 427.01,-79.5124 434.055,-87.4257 437.452,-81.3052"/>
</g>
<!-- Node28&#45;&gt;Node25 -->
<g id="edge34" class="edge"><title>Node28&#45;&gt;Node25</title>
<path fill="none" stroke="midnightblue" d="M433.267,-34.9026C436.258,-36.3869 439.191,-37.9235 442,-39.5 469.418,-54.8877 498.418,-76.8029 516.602,-91.3267"/>
<polygon fill="midnightblue" stroke="midnightblue" points="434.732,-31.7235 424.195,-30.6183 431.743,-38.0533 434.732,-31.7235"/>
</g>
</g>
</svg>
        <g id="navigator" transform="translate(0 0)" fill="#404254">
                <rect fill="#f2f5e9" fill-opacity="0.5" stroke="#606060" stroke-width=".5" x="0" y="0" width="60" height="60"/>
                <use id="zoomplus" xlink:href="#zoomPlus" x="17" y="9" onmousedown="handleZoom(evt,'in')"/>
                <use id="zoomminus" xlink:href="#zoomMin" x="42" y="9" onmousedown="handleZoom(evt,'out')"/>
                <use id="reset" xlink:href="#resetDef" x="30" y="36" onmousedown="handleReset()"/>
                <g id="arrowUp" xlink:href="#dirArrow" transform="translate(30 24)" onmousedown="handlePan(0,-1)">
                  <use xlink:href="#rim" fill="#404040">
                        <set attributeName="fill" to="#808080" begin="arrowUp.mouseover" end="arrowUp.mouseout"/>
                  </use>
                  <path fill="none" stroke="white" stroke-width="1.5" d="M0,-3.0v7 M-2.5,-0.5L0,-3.0L2.5,-0.5"/>
                </g>
                <g id="arrowRight" xlink:href="#dirArrow" transform="rotate(90) translate(36 -43)" onmousedown="handlePan(1,0)">
                  <use xlink:href="#rim" fill="#404040">
                        <set attributeName="fill" to="#808080" begin="arrowRight.mouseover" end="arrowRight.mouseout"/>
                  </use>
                  <path fill="none" stroke="white" stroke-width="1.5" d="M0,-3.0v7 M-2.5,-0.5L0,-3.0L2.5,-0.5"/>
                </g>
                <g id="arrowDown" xlink:href="#dirArrow" transform="rotate(180) translate(-30 -48)" onmousedown="handlePan(0,1)">
                  <use xlink:href="#rim" fill="#404040">
                        <set attributeName="fill" to="#808080" begin="arrowDown.mouseover" end="arrowDown.mouseout"/>
                  </use>
                  <path fill="none" stroke="white" stroke-width="1.5" d="M0,-3.0v7 M-2.5,-0.5L0,-3.0L2.5,-0.5"/>
                </g>
                <g id="arrowLeft" xlink:href="#dirArrow" transform="rotate(270) translate(-36 17)" onmousedown="handlePan(-1,0)">
                  <use xlink:href="#rim" fill="#404040">
                        <set attributeName="fill" to="#808080" begin="arrowLeft.mouseover" end="arrowLeft.mouseout"/>
                  </use>
                  <path fill="none" stroke="white" stroke-width="1.5" d="M0,-3.0v7 M-2.5,-0.5L0,-3.0L2.5,-0.5"/>
                </g>
        </g>
        <svg viewBox="0 0 15 15" width="100%" height="30px" preserveAspectRatio="xMaxYMin meet">
         <g id="arrow_out" transform="scale(0.3 0.3)">
          <a xlink:href="classhsmg__routines_a88e7156da5cd6d7172d353620e4b9778_icgraph_org.svg" target="_base">
           <rect id="button" ry="5" rx="5" y="6" x="6" height="38" width="38"
                fill="#f2f5e9" fill-opacity="0.5" stroke="#606060" stroke-width="1.0"/>
           <path id="arrow"
             d="M 11.500037,31.436501 C 11.940474,20.09759 22.043105,11.32322 32.158766,21.979434 L 37.068811,17.246167 C 37.068811,17.246167 37.088388,32 37.088388,32 L 22.160133,31.978069 C 22.160133,31.978069 26.997745,27.140456 26.997745,27.140456 C 18.528582,18.264221 13.291696,25.230495 11.500037,31.436501 z"
             style="fill:#404040;"/>
          </a>
         </g>
        </svg>
</svg>
