<?xml version="1.0" encoding="UTF-8" standalone="no"?>
<!DOCTYPE svg PUBLIC "-//W3C//DTD SVG 1.1//EN"
 "http://www.w3.org/Graphics/SVG/1.1/DTD/svg11.dtd">
<!-- Generated by graphviz version 2.38.0 (20140413.2041)
 -->
<!-- Title: poisson::mesh_to_grid Pages: 1 -->
<!--zoomable 131 -->
<svg id="main" version="1.1" xmlns="http://www.w3.org/2000/svg" xmlns:xlink="http://www.w3.org/1999/xlink" xml:space="preserve" onload="init(evt)">
<style type="text/css"><![CDATA[
.edge:hover path { stroke: red; }
.edge:hover polygon { stroke: red; fill: red; }
]]></style>
<script type="text/javascript"><![CDATA[
var edges = document.getElementsByTagName('g');
if (edges && edges.length) {
  for (var i=0;i<edges.length;i++) {
    if (edges[i].id.substr(0,4)=='edge') {
      edges[i].setAttribute('class','edge');
    }
  }
}
]]></script>
        <defs>
                <circle id="rim" cx="0" cy="0" r="7"/>
                <circle id="rim2" cx="0" cy="0" r="3.5"/>
                <g id="zoomPlus">
                        <use xlink:href="#rim" fill="#404040">
                                <set attributeName="fill" to="#808080" begin="zoomplus.mouseover" end="zoomplus.mouseout"/>
                        </use>
                        <path d="M-4,0h8M0,-4v8" fill="none" stroke="white" stroke-width="1.5" pointer-events="none"/>
                </g>
                <g id="zoomMin">
                        <use xlink:href="#rim" fill="#404040">
                                <set attributeName="fill" to="#808080" begin="zoomminus.mouseover" end="zoomminus.mouseout"/>
                        </use>
                        <path d="M-4,0h8" fill="none" stroke="white" stroke-width="1.5" pointer-events="none"/>
                </g>
                <g id="dirArrow">
                        <path fill="none" stroke="white" stroke-width="1.5" d="M0,-3.0v7 M-2.5,-0.5L0,-3.0L2.5,-0.5"/>
                </g>
               <g id="resetDef">
                       <use xlink:href="#rim2" fill="#404040">
                               <set attributeName="fill" to="#808080" begin="reset.mouseover" end="reset.mouseout"/>
                       </use>
               </g>
        </defs>

<script type="text/javascript">
var viewWidth = 1963;
var viewHeight = 131;
var sectionId = 'dynsection-10';
</script>
<script xlink:href="svgpan.js"/>
<svg id="graph" class="graph">
<g id="viewport">
<title>poisson::mesh_to_grid</title>
<polygon fill="white" stroke="none" points="-4,4 -4,-127 1959,-127 1959,4 -4,4"/>
<!-- Node1 -->
<g id="node1" class="node"><title>Node1</title>
<polygon fill="#bfbfbf" stroke="black" points="0,-46.5 0,-65.5 122,-65.5 122,-46.5 0,-46.5"/>
<text text-anchor="middle" x="61" y="-53.5" font-family="Helvetica,sans-Serif" font-size="10.00">poisson::mesh_to_grid</text>
</g>
<!-- Node2 -->
<g id="node2" class="node"><title>Node2</title>
<g id="a_node2"><a xlink:href="classpoisson.html#a557b9bfb94e35c8716319d8d8145cacc" target="_top" xlink:title="poisson::cos_test">
<polygon fill="white" stroke="black" points="173,-103.5 173,-122.5 271,-122.5 271,-103.5 173,-103.5"/>
<text text-anchor="middle" x="222" y="-110.5" font-family="Helvetica,sans-Serif" font-size="10.00">poisson::cos_test</text>
</a>
</g>
</g>
<!-- Node1&#45;&gt;Node2 -->
<g id="edge1" class="edge"><title>Node1&#45;&gt;Node2</title>
<path fill="none" stroke="midnightblue" d="M94.1198,-69.4963C112.65,-77.085 136.475,-86.5089 158,-94 167.495,-97.3043 177.906,-100.582 187.482,-103.461"/>
<polygon fill="midnightblue" stroke="midnightblue" points="95.265,-66.1826 84.6859,-65.6043 92.5953,-72.6536 95.265,-66.1826"/>
</g>
<!-- Node4 -->
<g id="node4" class="node"><title>Node4</title>
<g id="a_node4"><a xlink:href="classpoisson.html#a1ab874c434e5694003e378739fb98c65" target="_top" xlink:title="poisson::spectral_solve">
<polygon fill="white" stroke="black" points="463,-19.5 463,-38.5 589,-38.5 589,-19.5 463,-19.5"/>
<text text-anchor="middle" x="526" y="-26.5" font-family="Helvetica,sans-Serif" font-size="10.00">poisson::spectral_solve</text>
</a>
</g>
</g>
<!-- Node1&#45;&gt;Node4 -->
<g id="edge23" class="edge"><title>Node1&#45;&gt;Node4</title>
<path fill="none" stroke="midnightblue" d="M89.2671,-42.0025C108.042,-33.1756 133.86,-22.604 158,-18 265.229,2.45042 393.225,-9.38195 466.221,-19.4576"/>
<polygon fill="midnightblue" stroke="midnightblue" points="87.6155,-38.9133 80.1373,-46.4185 90.6635,-45.2149 87.6155,-38.9133"/>
</g>
<!-- Node20 -->
<g id="node20" class="node"><title>Node20</title>
<g id="a_node20"><a xlink:href="classpoisson.html#a54094b5009a26b94189d1f7dc4e3010d" target="_top" xlink:title="poisson::shuffle_test">
<polygon fill="white" stroke="black" points="166,-65.5 166,-84.5 278,-84.5 278,-65.5 166,-65.5"/>
<text text-anchor="middle" x="222" y="-72.5" font-family="Helvetica,sans-Serif" font-size="10.00">poisson::shuffle_test</text>
</a>
</g>
</g>
<!-- Node1&#45;&gt;Node20 -->
<g id="edge21" class="edge"><title>Node1&#45;&gt;Node20</title>
<path fill="none" stroke="midnightblue" d="M132.312,-64.402C143.523,-65.7417 154.981,-67.1109 165.778,-68.4012"/>
<polygon fill="midnightblue" stroke="midnightblue" points="132.456,-60.8944 122.111,-63.1831 131.625,-67.845 132.456,-60.8944"/>
</g>
<!-- Node21 -->
<g id="node21" class="node"><title>Node21</title>
<g id="a_node21"><a xlink:href="classpoisson.html#af15535fb56b2a956fc12fd7887ad6ef0" target="_top" xlink:title="poisson::transpose_test">
<polygon fill="white" stroke="black" points="158,-27.5 158,-46.5 286,-46.5 286,-27.5 158,-27.5"/>
<text text-anchor="middle" x="222" y="-34.5" font-family="Helvetica,sans-Serif" font-size="10.00">poisson::transpose_test</text>
</a>
</g>
</g>
<!-- Node1&#45;&gt;Node21 -->
<g id="edge24" class="edge"><title>Node1&#45;&gt;Node21</title>
<path fill="none" stroke="midnightblue" d="M132.097,-47.6237C140.682,-46.5977 149.416,-45.5541 157.89,-44.5415"/>
<polygon fill="midnightblue" stroke="midnightblue" points="131.625,-44.155 122.111,-48.8169 132.456,-51.1056 131.625,-44.155"/>
</g>
<!-- Node3 -->
<g id="node3" class="node"><title>Node3</title>
<g id="a_node3"><a xlink:href="classpoisson.html#ace48c9eb09141b029fd923de91c5cbbc" target="_top" xlink:title="one&#45;time setup of communication infrastructure for poisson_mod ">
<polygon fill="white" stroke="black" points="322,-44 322,-74 427,-74 427,-44 322,-44"/>
<text text-anchor="start" x="330" y="-62" font-family="Helvetica,sans-Serif" font-size="10.00">poisson::init_comm</text>
<text text-anchor="middle" x="374.5" y="-51" font-family="Helvetica,sans-Serif" font-size="10.00">_infrastructure</text>
</a>
</g>
</g>
<!-- Node2&#45;&gt;Node3 -->
<g id="edge2" class="edge"><title>Node2&#45;&gt;Node3</title>
<path fill="none" stroke="midnightblue" d="M266.159,-100.532C272.834,-98.4458 279.625,-96.2316 286,-94 303.296,-87.9459 322.206,-80.4899 338.007,-74.0175"/>
<polygon fill="midnightblue" stroke="midnightblue" points="265.062,-97.2073 256.526,-103.483 267.112,-103.9 265.062,-97.2073"/>
</g>
<!-- Node3&#45;&gt;Node4 -->
<g id="edge3" class="edge"><title>Node3&#45;&gt;Node4</title>
<path fill="none" stroke="midnightblue" d="M437.403,-46.5781C450.705,-43.9087 464.567,-41.127 477.235,-38.585"/>
<polygon fill="midnightblue" stroke="midnightblue" points="436.484,-43.1925 427.368,-48.5916 437.861,-50.0557 436.484,-43.1925"/>
</g>
<!-- Node5 -->
<g id="node5" class="node"><title>Node5</title>
<g id="a_node5"><a xlink:href="classhsmg__routines.html#adb1f241321c99f913f53fefefee82c09" target="_top" xlink:title="hsmg_routines::hsmg\l_coarse_solve">
<polygon fill="white" stroke="black" points="625,-14 625,-44 741,-44 741,-14 625,-14"/>
<text text-anchor="start" x="633" y="-32" font-family="Helvetica,sans-Serif" font-size="10.00">hsmg_routines::hsmg</text>
<text text-anchor="middle" x="683" y="-21" font-family="Helvetica,sans-Serif" font-size="10.00">_coarse_solve</text>
</a>
</g>
</g>
<!-- Node4&#45;&gt;Node5 -->
<g id="edge4" class="edge"><title>Node4&#45;&gt;Node5</title>
<path fill="none" stroke="midnightblue" d="M599.192,-29C607.801,-29 616.498,-29 624.855,-29"/>
<polygon fill="midnightblue" stroke="midnightblue" points="599.151,-25.5001 589.151,-29 599.151,-32.5001 599.151,-25.5001"/>
</g>
<!-- Node6 -->
<g id="node6" class="node"><title>Node6</title>
<g id="a_node6"><a xlink:href="classhsmg__routines.html#abaa25315b11254629ed79c12c169c52f" target="_top" xlink:title="Solve preconditioner: z = M rhs, where . ">
<polygon fill="white" stroke="black" points="777,-14 777,-44 893,-44 893,-14 777,-14"/>
<text text-anchor="start" x="785" y="-32" font-family="Helvetica,sans-Serif" font-size="10.00">hsmg_routines::h1mg</text>
<text text-anchor="middle" x="835" y="-21" font-family="Helvetica,sans-Serif" font-size="10.00">_solve</text>
</a>
</g>
</g>
<!-- Node5&#45;&gt;Node6 -->
<g id="edge5" class="edge"><title>Node5&#45;&gt;Node6</title>
<path fill="none" stroke="midnightblue" d="M751.311,-29C759.728,-29 768.277,-29 776.525,-29"/>
<polygon fill="midnightblue" stroke="midnightblue" points="751.137,-25.5001 741.136,-29 751.136,-32.5001 751.137,-25.5001"/>
</g>
<!-- Node7 -->
<g id="node7" class="node"><title>Node7</title>
<g id="a_node7"><a xlink:href="gmres_8F90.html#a377d8578c6ccd4fddffb699c7a18f603" target="_top" xlink:title="Solve the Helmholtz equation by right&#45;preconditioned GMRES iteration. ">
<polygon fill="white" stroke="black" points="929,-19.5 929,-38.5 1001,-38.5 1001,-19.5 929,-19.5"/>
<text text-anchor="middle" x="965" y="-26.5" font-family="Helvetica,sans-Serif" font-size="10.00">hmh_gmres</text>
</a>
</g>
</g>
<!-- Node6&#45;&gt;Node7 -->
<g id="edge6" class="edge"><title>Node6&#45;&gt;Node7</title>
<path fill="none" stroke="midnightblue" d="M903.521,-29C912.26,-29 920.911,-29 928.82,-29"/>
<polygon fill="midnightblue" stroke="midnightblue" points="903.261,-25.5001 893.261,-29 903.261,-32.5001 903.261,-25.5001"/>
</g>
<!-- Node8 -->
<g id="node8" class="node"><title>Node8</title>
<g id="a_node8"><a xlink:href="hmholtz_8F90.html#a8734f3cc2d37d6a2ccd1daa8db57513d" target="_top" xlink:title="Solve the Helmholtz equation, H*U = RHS, using preconditioned conjugate gradient iteration. Preconditioner: diag(H). ">
<polygon fill="white" stroke="black" points="1037,-19.5 1037,-38.5 1077,-38.5 1077,-19.5 1037,-19.5"/>
<text text-anchor="middle" x="1057" y="-26.5" font-family="Helvetica,sans-Serif" font-size="10.00">cggo</text>
</a>
</g>
</g>
<!-- Node7&#45;&gt;Node8 -->
<g id="edge7" class="edge"><title>Node7&#45;&gt;Node8</title>
<path fill="none" stroke="midnightblue" d="M1011.16,-29C1020.19,-29 1029.2,-29 1036.75,-29"/>
<polygon fill="midnightblue" stroke="midnightblue" points="1011.05,-25.5001 1001.05,-29 1011.05,-32.5001 1011.05,-25.5001"/>
</g>
<!-- Node9 -->
<g id="node9" class="node"><title>Node9</title>
<g id="a_node9"><a xlink:href="hmholtz_8F90.html#a52dcac1fe733719d4987d36aac022e4d" target="_top" xlink:title="hmholtz">
<polygon fill="white" stroke="black" points="1137,-38.5 1137,-57.5 1190,-57.5 1190,-38.5 1137,-38.5"/>
<text text-anchor="middle" x="1163.5" y="-45.5" font-family="Helvetica,sans-Serif" font-size="10.00">hmholtz</text>
</a>
</g>
</g>
<!-- Node8&#45;&gt;Node9 -->
<g id="edge8" class="edge"><title>Node8&#45;&gt;Node9</title>
<path fill="none" stroke="midnightblue" d="M1087.3,-34.3274C1102.85,-37.1545 1121.78,-40.5968 1136.76,-43.3201"/>
<polygon fill="midnightblue" stroke="midnightblue" points="1087.63,-30.8303 1077.17,-32.4849 1086.38,-37.7174 1087.63,-30.8303"/>
</g>
<!-- Node19 -->
<g id="node19" class="node"><title>Node19</title>
<g id="a_node19"><a xlink:href="classhelmholtz.html#ae307c08c70cdc6428553cb85ce68cbbb" target="_top" xlink:title="helmholtz::hmhzpf">
<polygon fill="white" stroke="black" points="1113,-0.5 1113,-19.5 1214,-19.5 1214,-0.5 1113,-0.5"/>
<text text-anchor="middle" x="1163.5" y="-7.5" font-family="Helvetica,sans-Serif" font-size="10.00">helmholtz::hmhzpf</text>
</a>
</g>
</g>
<!-- Node8&#45;&gt;Node19 -->
<g id="edge19" class="edge"><title>Node8&#45;&gt;Node19</title>
<path fill="none" stroke="midnightblue" d="M1087.13,-23.7036C1095.18,-22.2407 1104.14,-20.6112 1112.99,-19.001"/>
<polygon fill="midnightblue" stroke="midnightblue" points="1086.38,-20.2826 1077.17,-25.5151 1087.63,-27.1697 1086.38,-20.2826"/>
</g>
<!-- Node10 -->
<g id="node10" class="node"><title>Node10</title>
<g id="a_node10"><a xlink:href="classhelmholtz.html#abf98ad104d11790462e9f07b3fa91848" target="_top" xlink:title="Either std. Helmholtz solve, or a projection + Helmholtz solve. ">
<polygon fill="white" stroke="black" points="1250,-19.5 1250,-38.5 1347,-38.5 1347,-19.5 1250,-19.5"/>
<text text-anchor="middle" x="1298.5" y="-26.5" font-family="Helvetica,sans-Serif" font-size="10.00">helmholtz::hsolve</text>
</a>
</g>
</g>
<!-- Node9&#45;&gt;Node10 -->
<g id="edge9" class="edge"><title>Node9&#45;&gt;Node10</title>
<path fill="none" stroke="midnightblue" d="M1200.21,-42.899C1215.46,-40.7197 1233.49,-38.144 1249.86,-35.8058"/>
<polygon fill="midnightblue" stroke="midnightblue" points="1199.55,-39.4575 1190.14,-44.3366 1200.54,-46.3871 1199.55,-39.4575"/>
</g>
<!-- Node11 -->
<g id="node11" class="node"><title>Node11</title>
<g id="a_node11"><a xlink:href="conduct_8F90.html#a74a7f053381975ed36df8ea959f3aa01" target="_top" xlink:title="Solve the convection&#45;diffusion equation for passive scalar IPSCAL. ">
<polygon fill="white" stroke="black" points="1383,-38.5 1383,-57.5 1430,-57.5 1430,-38.5 1383,-38.5"/>
<text text-anchor="middle" x="1406.5" y="-45.5" font-family="Helvetica,sans-Serif" font-size="10.00">cdscal</text>
</a>
</g>
</g>
<!-- Node10&#45;&gt;Node11 -->
<g id="edge10" class="edge"><title>Node10&#45;&gt;Node11</title>
<path fill="none" stroke="midnightblue" d="M1357.16,-39.3345C1366.28,-40.9709 1375.23,-42.5739 1382.89,-43.9475"/>
<polygon fill="midnightblue" stroke="midnightblue" points="1357.69,-35.8744 1347.23,-37.5551 1356.45,-42.7646 1357.69,-35.8744"/>
</g>
<!-- Node17 -->
<g id="node17" class="node"><title>Node17</title>
<g id="a_node17"><a xlink:href="plan4_8F90.html#a5cbf852b67e73bfa44e028338c4d57ad" target="_top" xlink:title="Splitting scheme . ">
<polygon fill="white" stroke="black" points="1385,-0.5 1385,-19.5 1428,-19.5 1428,-0.5 1385,-0.5"/>
<text text-anchor="middle" x="1406.5" y="-7.5" font-family="Helvetica,sans-Serif" font-size="10.00">plan4</text>
</a>
</g>
</g>
<!-- Node10&#45;&gt;Node17 -->
<g id="edge16" class="edge"><title>Node10&#45;&gt;Node17</title>
<path fill="none" stroke="midnightblue" d="M1357.15,-18.6664C1367.05,-16.8917 1376.73,-15.1561 1384.8,-13.7099"/>
<polygon fill="midnightblue" stroke="midnightblue" points="1356.45,-15.2354 1347.23,-20.4449 1357.69,-22.1256 1356.45,-15.2354"/>
</g>
<!-- Node12 -->
<g id="node12" class="node"><title>Node12</title>
<g id="a_node12"><a xlink:href="drive2_8F90.html#acce80cd37f20e9b52729eb52d86a9c86" target="_top" xlink:title="Driver for temperature or passive scalar. ">
<polygon fill="white" stroke="black" points="1466,-38.5 1466,-57.5 1504,-57.5 1504,-38.5 1466,-38.5"/>
<text text-anchor="middle" x="1485" y="-45.5" font-family="Helvetica,sans-Serif" font-size="10.00">heat</text>
</a>
</g>
</g>
<!-- Node11&#45;&gt;Node12 -->
<g id="edge11" class="edge"><title>Node11&#45;&gt;Node12</title>
<path fill="none" stroke="midnightblue" d="M1440.13,-48C1448.99,-48 1458.26,-48 1465.98,-48"/>
<polygon fill="midnightblue" stroke="midnightblue" points="1440.04,-44.5001 1430.04,-48 1440.04,-51.5001 1440.04,-44.5001"/>
</g>
<!-- Node13 -->
<g id="node13" class="node"><title>Node13</title>
<g id="a_node13"><a xlink:href="drive1_8F90.html#ae177ea7efac97f35241521b782a671c0" target="_top" xlink:title="take a single time&#45;step ">
<polygon fill="white" stroke="black" points="1540,-19.5 1540,-38.5 1620,-38.5 1620,-19.5 1540,-19.5"/>
<text text-anchor="middle" x="1580" y="-26.5" font-family="Helvetica,sans-Serif" font-size="10.00">nek_advance</text>
</a>
</g>
</g>
<!-- Node12&#45;&gt;Node13 -->
<g id="edge12" class="edge"><title>Node12&#45;&gt;Node13</title>
<path fill="none" stroke="midnightblue" d="M1514.36,-42.2055C1522.41,-40.5604 1531.33,-38.7395 1539.9,-36.9889"/>
<polygon fill="midnightblue" stroke="midnightblue" points="1513.47,-38.8153 1504.37,-44.2462 1514.87,-45.6736 1513.47,-38.8153"/>
</g>
<!-- Node14 -->
<g id="node14" class="node"><title>Node14</title>
<g id="a_node14"><a xlink:href="drive1_8F90.html#a18d3e839786263fc4cf91f7eeb714371" target="_top" xlink:title="take a chunk of time&#45;steps ">
<polygon fill="white" stroke="black" points="1656,-19.5 1656,-38.5 1769,-38.5 1769,-19.5 1656,-19.5"/>
<text text-anchor="middle" x="1712.5" y="-26.5" font-family="Helvetica,sans-Serif" font-size="10.00">nek__multi_advance</text>
</a>
</g>
</g>
<!-- Node13&#45;&gt;Node14 -->
<g id="edge13" class="edge"><title>Node13&#45;&gt;Node14</title>
<path fill="none" stroke="midnightblue" d="M1630.19,-29C1638.61,-29 1647.4,-29 1655.97,-29"/>
<polygon fill="midnightblue" stroke="midnightblue" points="1630.15,-25.5001 1620.15,-29 1630.15,-32.5001 1630.15,-25.5001"/>
</g>
<!-- Node15 -->
<g id="node15" class="node"><title>Node15</title>
<g id="a_node15"><a xlink:href="drive1_8F90.html#a6ad57e0cf728f343e371ef8c9a02cd8a" target="_top" xlink:title="integrate the governing equations in time ">
<polygon fill="white" stroke="black" points="1805,-19.5 1805,-38.5 1870,-38.5 1870,-19.5 1805,-19.5"/>
<text text-anchor="middle" x="1837.5" y="-26.5" font-family="Helvetica,sans-Serif" font-size="10.00">nek_solve</text>
</a>
</g>
</g>
<!-- Node14&#45;&gt;Node15 -->
<g id="edge14" class="edge"><title>Node14&#45;&gt;Node15</title>
<path fill="none" stroke="midnightblue" d="M1779.28,-29C1788.16,-29 1796.93,-29 1804.82,-29"/>
<polygon fill="midnightblue" stroke="midnightblue" points="1779.24,-25.5001 1769.24,-29 1779.24,-32.5001 1779.24,-25.5001"/>
</g>
<!-- Node16 -->
<g id="node16" class="node"><title>Node16</title>
<g id="a_node16"><a xlink:href="drive_8F90.html#a13048bf28dd0734640412d69349e3857" target="_top" xlink:title="NEK5000: Spectral Element Computational Fluid Dynamics Solver COPYRIGHT (c) 2008&#45;2010 UCHICAGO ARGONN...">
<polygon fill="white" stroke="black" points="1906,-19.5 1906,-38.5 1955,-38.5 1955,-19.5 1906,-19.5"/>
<text text-anchor="middle" x="1930.5" y="-26.5" font-family="Helvetica,sans-Serif" font-size="10.00">nekton</text>
</a>
</g>
</g>
<!-- Node15&#45;&gt;Node16 -->
<g id="edge15" class="edge"><title>Node15&#45;&gt;Node16</title>
<path fill="none" stroke="midnightblue" d="M1880.19,-29C1888.95,-29 1897.9,-29 1905.73,-29"/>
<polygon fill="midnightblue" stroke="midnightblue" points="1880.07,-25.5001 1870.07,-29 1880.07,-32.5001 1880.07,-25.5001"/>
</g>
<!-- Node18 -->
<g id="node18" class="node"><title>Node18</title>
<g id="a_node18"><a xlink:href="drive2_8F90.html#ab0aeca9ad3db8be87a01ba29d069d71e" target="_top" xlink:title="Driver for solving the incompressible Navier&#45;Stokes equations. ">
<polygon fill="white" stroke="black" points="1467.5,-0.5 1467.5,-19.5 1502.5,-19.5 1502.5,-0.5 1467.5,-0.5"/>
<text text-anchor="middle" x="1485" y="-7.5" font-family="Helvetica,sans-Serif" font-size="10.00">fluid</text>
</a>
</g>
</g>
<!-- Node17&#45;&gt;Node18 -->
<g id="edge17" class="edge"><title>Node17&#45;&gt;Node18</title>
<path fill="none" stroke="midnightblue" d="M1438.26,-10C1448.09,-10 1458.6,-10 1467.06,-10"/>
<polygon fill="midnightblue" stroke="midnightblue" points="1438,-6.5001 1428,-10 1438,-13.5001 1438,-6.5001"/>
</g>
<!-- Node18&#45;&gt;Node13 -->
<g id="edge18" class="edge"><title>Node18&#45;&gt;Node13</title>
<path fill="none" stroke="midnightblue" d="M1512.63,-15.4415C1521.08,-17.1662 1530.59,-19.1106 1539.73,-20.9771"/>
<polygon fill="midnightblue" stroke="midnightblue" points="1513.12,-11.9694 1502.63,-13.3968 1511.72,-18.8277 1513.12,-11.9694"/>
</g>
<!-- Node19&#45;&gt;Node10 -->
<g id="edge20" class="edge"><title>Node19&#45;&gt;Node10</title>
<path fill="none" stroke="midnightblue" d="M1224.01,-18.5018C1232.61,-19.7303 1241.37,-20.9814 1249.7,-22.1716"/>
<polygon fill="midnightblue" stroke="midnightblue" points="1224.42,-15.0244 1214.02,-17.0749 1223.43,-21.954 1224.42,-15.0244"/>
</g>
<!-- Node20&#45;&gt;Node3 -->
<g id="edge22" class="edge"><title>Node20&#45;&gt;Node3</title>
<path fill="none" stroke="midnightblue" d="M288.356,-68.0519C299.552,-66.8616 311.045,-65.6397 321.822,-64.494"/>
<polygon fill="midnightblue" stroke="midnightblue" points="287.76,-64.5954 278.186,-69.133 288.5,-71.5562 287.76,-64.5954"/>
</g>
<!-- Node21&#45;&gt;Node3 -->
<g id="edge25" class="edge"><title>Node21&#45;&gt;Node3</title>
<path fill="none" stroke="midnightblue" d="M296.353,-47.7227C304.875,-48.9685 313.43,-50.219 321.58,-51.4103"/>
<polygon fill="midnightblue" stroke="midnightblue" points="296.79,-44.2495 286.389,-46.2662 295.778,-51.1759 296.79,-44.2495"/>
</g>
</g>
</svg>
        <g id="navigator" transform="translate(0 0)" fill="#404254">
                <rect fill="#f2f5e9" fill-opacity="0.5" stroke="#606060" stroke-width=".5" x="0" y="0" width="60" height="60"/>
                <use id="zoomplus" xlink:href="#zoomPlus" x="17" y="9" onmousedown="handleZoom(evt,'in')"/>
                <use id="zoomminus" xlink:href="#zoomMin" x="42" y="9" onmousedown="handleZoom(evt,'out')"/>
                <use id="reset" xlink:href="#resetDef" x="30" y="36" onmousedown="handleReset()"/>
                <g id="arrowUp" xlink:href="#dirArrow" transform="translate(30 24)" onmousedown="handlePan(0,-1)">
                  <use xlink:href="#rim" fill="#404040">
                        <set attributeName="fill" to="#808080" begin="arrowUp.mouseover" end="arrowUp.mouseout"/>
                  </use>
                  <path fill="none" stroke="white" stroke-width="1.5" d="M0,-3.0v7 M-2.5,-0.5L0,-3.0L2.5,-0.5"/>
                </g>
                <g id="arrowRight" xlink:href="#dirArrow" transform="rotate(90) translate(36 -43)" onmousedown="handlePan(1,0)">
                  <use xlink:href="#rim" fill="#404040">
                        <set attributeName="fill" to="#808080" begin="arrowRight.mouseover" end="arrowRight.mouseout"/>
                  </use>
                  <path fill="none" stroke="white" stroke-width="1.5" d="M0,-3.0v7 M-2.5,-0.5L0,-3.0L2.5,-0.5"/>
                </g>
                <g id="arrowDown" xlink:href="#dirArrow" transform="rotate(180) translate(-30 -48)" onmousedown="handlePan(0,1)">
                  <use xlink:href="#rim" fill="#404040">
                        <set attributeName="fill" to="#808080" begin="arrowDown.mouseover" end="arrowDown.mouseout"/>
                  </use>
                  <path fill="none" stroke="white" stroke-width="1.5" d="M0,-3.0v7 M-2.5,-0.5L0,-3.0L2.5,-0.5"/>
                </g>
                <g id="arrowLeft" xlink:href="#dirArrow" transform="rotate(270) translate(-36 17)" onmousedown="handlePan(-1,0)">
                  <use xlink:href="#rim" fill="#404040">
                        <set attributeName="fill" to="#808080" begin="arrowLeft.mouseover" end="arrowLeft.mouseout"/>
                  </use>
                  <path fill="none" stroke="white" stroke-width="1.5" d="M0,-3.0v7 M-2.5,-0.5L0,-3.0L2.5,-0.5"/>
                </g>
        </g>
        <svg viewBox="0 0 15 15" width="100%" height="30px" preserveAspectRatio="xMaxYMin meet">
         <g id="arrow_out" transform="scale(0.3 0.3)">
          <a xlink:href="classpoisson_ac42cd347ca63e3394556370be60d7360_icgraph_org.svg" target="_base">
           <rect id="button" ry="5" rx="5" y="6" x="6" height="38" width="38"
                fill="#f2f5e9" fill-opacity="0.5" stroke="#606060" stroke-width="1.0"/>
           <path id="arrow"
             d="M 11.500037,31.436501 C 11.940474,20.09759 22.043105,11.32322 32.158766,21.979434 L 37.068811,17.246167 C 37.068811,17.246167 37.088388,32 37.088388,32 L 22.160133,31.978069 C 22.160133,31.978069 26.997745,27.140456 26.997745,27.140456 C 18.528582,18.264221 13.291696,25.230495 11.500037,31.436501 z"
             style="fill:#404040;"/>
          </a>
         </g>
        </svg>
</svg>
