<?xml version="1.0" encoding="UTF-8" standalone="no"?>
<!DOCTYPE svg PUBLIC "-//W3C//DTD SVG 1.1//EN"
 "http://www.w3.org/Graphics/SVG/1.1/DTD/svg11.dtd">
<!-- Generated by graphviz version 2.38.0 (20140413.2041)
 -->
<!-- Title: string::ifgtil Pages: 1 -->
<svg width="183pt" height="66pt"
 viewBox="0.00 0.00 183.00 66.00" xmlns="http://www.w3.org/2000/svg" xmlns:xlink="http://www.w3.org/1999/xlink">
<g id="graph0" class="graph" transform="scale(1 1) rotate(0) translate(4 62)">
<title>string::ifgtil</title>
<polygon fill="white" stroke="none" points="-4,4 -4,-62 179,-62 179,4 -4,4"/>
<!-- Node1 -->
<g id="node1" class="node"><title>Node1</title>
<polygon fill="#bfbfbf" stroke="black" points="0,-19.5 0,-38.5 66,-38.5 66,-19.5 0,-19.5"/>
<text text-anchor="middle" x="33" y="-26.5" font-family="Helvetica,sans-Serif" font-size="10.00">string::ifgtil</text>
</g>
<!-- Node2 -->
<g id="node2" class="node"><title>Node2</title>
<g id="a_node2"><a xlink:href="classstring.html#ac6aad97d698bcdbf5c11ffa52d947ad8" target="_top" xlink:title="string::indx1">
<polygon fill="white" stroke="black" points="102,-38.5 102,-57.5 175,-57.5 175,-38.5 102,-38.5"/>
<text text-anchor="middle" x="138.5" y="-45.5" font-family="Helvetica,sans-Serif" font-size="10.00">string::indx1</text>
</a>
</g>
</g>
<!-- Node1&#45;&gt;Node2 -->
<g id="edge1" class="edge"><title>Node1&#45;&gt;Node2</title>
<path fill="none" stroke="midnightblue" d="M66.1807,-34.9076C74.2845,-36.3952 83.1391,-38.0207 91.7675,-39.6047"/>
<polygon fill="midnightblue" stroke="midnightblue" points="91.2664,-43.0711 101.734,-41.4343 92.5303,-36.1861 91.2664,-43.0711"/>
</g>
<!-- Node3 -->
<g id="node3" class="node"><title>Node3</title>
<g id="a_node3"><a xlink:href="classstring.html#adb36d16763e75aa5052e0d731a63ad14" target="_top" xlink:title="left justify string ">
<polygon fill="white" stroke="black" points="106,-0.5 106,-19.5 171,-19.5 171,-0.5 106,-0.5"/>
<text text-anchor="middle" x="138.5" y="-7.5" font-family="Helvetica,sans-Serif" font-size="10.00">string::ljust</text>
</a>
</g>
</g>
<!-- Node1&#45;&gt;Node3 -->
<g id="edge2" class="edge"><title>Node1&#45;&gt;Node3</title>
<path fill="none" stroke="midnightblue" d="M66.1807,-23.0924C75.5177,-21.3784 85.8513,-19.4814 95.6873,-17.6758"/>
<polygon fill="midnightblue" stroke="midnightblue" points="96.491,-21.0868 105.695,-15.8387 95.2271,-14.2018 96.491,-21.0868"/>
</g>
</g>
</svg>
