<?xml version="1.0" encoding="UTF-8" standalone="no"?>
<!DOCTYPE svg PUBLIC "-//W3C//DTD SVG 1.1//EN"
 "http://www.w3.org/Graphics/SVG/1.1/DTD/svg11.dtd">
<!-- Generated by graphviz version 2.38.0 (20140413.2041)
 -->
<!-- Title: hsmg_routines::hsmg_tnsr1 Pages: 1 -->
<svg width="1512pt" height="66pt"
 viewBox="0.00 0.00 1512.00 66.00" xmlns="http://www.w3.org/2000/svg" xmlns:xlink="http://www.w3.org/1999/xlink">
<g id="graph0" class="graph" transform="scale(1 1) rotate(0) translate(4 62)">
<title>hsmg_routines::hsmg_tnsr1</title>
<polygon fill="white" stroke="none" points="-4,4 -4,-62 1508,-62 1508,4 -4,4"/>
<!-- Node1 -->
<g id="node1" class="node"><title>Node1</title>
<polygon fill="#bfbfbf" stroke="black" points="0,-14 0,-44 116,-44 116,-14 0,-14"/>
<text text-anchor="start" x="8" y="-32" font-family="Helvetica,sans-Serif" font-size="10.00">hsmg_routines::hsmg</text>
<text text-anchor="middle" x="58" y="-21" font-family="Helvetica,sans-Serif" font-size="10.00">_tnsr1</text>
</g>
<!-- Node2 -->
<g id="node2" class="node"><title>Node2</title>
<g id="a_node2"><a xlink:href="classhsmg__routines.html#a6e79e13064790d22b12b32f86d5fc52d" target="_top" xlink:title="r =J r, l is coarse level ">
<polygon fill="white" stroke="black" points="152,-19.5 152,-38.5 290,-38.5 290,-19.5 152,-19.5"/>
<text text-anchor="middle" x="221" y="-26.5" font-family="Helvetica,sans-Serif" font-size="10.00">hsmg_routines::h1mg_rstr</text>
</a>
</g>
</g>
<!-- Node1&#45;&gt;Node2 -->
<g id="edge1" class="edge"><title>Node1&#45;&gt;Node2</title>
<path fill="none" stroke="midnightblue" d="M126.398,-29C134.848,-29 143.495,-29 151.955,-29"/>
<polygon fill="midnightblue" stroke="midnightblue" points="126.216,-25.5001 116.216,-29 126.216,-32.5001 126.216,-25.5001"/>
</g>
<!-- Node3 -->
<g id="node3" class="node"><title>Node3</title>
<g id="a_node3"><a xlink:href="classhsmg__routines.html#abaa25315b11254629ed79c12c169c52f" target="_top" xlink:title="Solve preconditioner: z = M rhs, where . ">
<polygon fill="white" stroke="black" points="326,-14 326,-44 442,-44 442,-14 326,-14"/>
<text text-anchor="start" x="334" y="-32" font-family="Helvetica,sans-Serif" font-size="10.00">hsmg_routines::h1mg</text>
<text text-anchor="middle" x="384" y="-21" font-family="Helvetica,sans-Serif" font-size="10.00">_solve</text>
</a>
</g>
</g>
<!-- Node2&#45;&gt;Node3 -->
<g id="edge2" class="edge"><title>Node2&#45;&gt;Node3</title>
<path fill="none" stroke="midnightblue" d="M300.32,-29C308.906,-29 317.526,-29 325.788,-29"/>
<polygon fill="midnightblue" stroke="midnightblue" points="300.279,-25.5001 290.278,-29 300.278,-32.5001 300.279,-25.5001"/>
</g>
<!-- Node4 -->
<g id="node4" class="node"><title>Node4</title>
<g id="a_node4"><a xlink:href="gmres_8F90.html#a377d8578c6ccd4fddffb699c7a18f603" target="_top" xlink:title="Solve the Helmholtz equation by right&#45;preconditioned GMRES iteration. ">
<polygon fill="white" stroke="black" points="478,-19.5 478,-38.5 550,-38.5 550,-19.5 478,-19.5"/>
<text text-anchor="middle" x="514" y="-26.5" font-family="Helvetica,sans-Serif" font-size="10.00">hmh_gmres</text>
</a>
</g>
</g>
<!-- Node3&#45;&gt;Node4 -->
<g id="edge3" class="edge"><title>Node3&#45;&gt;Node4</title>
<path fill="none" stroke="midnightblue" d="M452.521,-29C461.26,-29 469.911,-29 477.82,-29"/>
<polygon fill="midnightblue" stroke="midnightblue" points="452.261,-25.5001 442.261,-29 452.261,-32.5001 452.261,-25.5001"/>
</g>
<!-- Node5 -->
<g id="node5" class="node"><title>Node5</title>
<g id="a_node5"><a xlink:href="hmholtz_8F90.html#a8734f3cc2d37d6a2ccd1daa8db57513d" target="_top" xlink:title="Solve the Helmholtz equation, H*U = RHS, using preconditioned conjugate gradient iteration. Preconditioner: diag(H). ">
<polygon fill="white" stroke="black" points="586,-19.5 586,-38.5 626,-38.5 626,-19.5 586,-19.5"/>
<text text-anchor="middle" x="606" y="-26.5" font-family="Helvetica,sans-Serif" font-size="10.00">cggo</text>
</a>
</g>
</g>
<!-- Node4&#45;&gt;Node5 -->
<g id="edge4" class="edge"><title>Node4&#45;&gt;Node5</title>
<path fill="none" stroke="midnightblue" d="M560.165,-29C569.185,-29 578.197,-29 585.75,-29"/>
<polygon fill="midnightblue" stroke="midnightblue" points="560.054,-25.5001 550.054,-29 560.054,-32.5001 560.054,-25.5001"/>
</g>
<!-- Node6 -->
<g id="node6" class="node"><title>Node6</title>
<g id="a_node6"><a xlink:href="hmholtz_8F90.html#a52dcac1fe733719d4987d36aac022e4d" target="_top" xlink:title="hmholtz">
<polygon fill="white" stroke="black" points="686,-38.5 686,-57.5 739,-57.5 739,-38.5 686,-38.5"/>
<text text-anchor="middle" x="712.5" y="-45.5" font-family="Helvetica,sans-Serif" font-size="10.00">hmholtz</text>
</a>
</g>
</g>
<!-- Node5&#45;&gt;Node6 -->
<g id="edge5" class="edge"><title>Node5&#45;&gt;Node6</title>
<path fill="none" stroke="midnightblue" d="M636.301,-34.3274C651.85,-37.1545 670.782,-40.5968 685.761,-43.3201"/>
<polygon fill="midnightblue" stroke="midnightblue" points="636.632,-30.8303 626.167,-32.4849 635.379,-37.7174 636.632,-30.8303"/>
</g>
<!-- Node16 -->
<g id="node16" class="node"><title>Node16</title>
<g id="a_node16"><a xlink:href="classhelmholtz.html#ae307c08c70cdc6428553cb85ce68cbbb" target="_top" xlink:title="helmholtz::hmhzpf">
<polygon fill="white" stroke="black" points="662,-0.5 662,-19.5 763,-19.5 763,-0.5 662,-0.5"/>
<text text-anchor="middle" x="712.5" y="-7.5" font-family="Helvetica,sans-Serif" font-size="10.00">helmholtz::hmhzpf</text>
</a>
</g>
</g>
<!-- Node5&#45;&gt;Node16 -->
<g id="edge16" class="edge"><title>Node5&#45;&gt;Node16</title>
<path fill="none" stroke="midnightblue" d="M636.13,-23.7036C644.176,-22.2407 653.138,-20.6112 661.995,-19.001"/>
<polygon fill="midnightblue" stroke="midnightblue" points="635.379,-20.2826 626.167,-25.5151 636.632,-27.1697 635.379,-20.2826"/>
</g>
<!-- Node7 -->
<g id="node7" class="node"><title>Node7</title>
<g id="a_node7"><a xlink:href="classhelmholtz.html#abf98ad104d11790462e9f07b3fa91848" target="_top" xlink:title="Either std. Helmholtz solve, or a projection + Helmholtz solve. ">
<polygon fill="white" stroke="black" points="799,-19.5 799,-38.5 896,-38.5 896,-19.5 799,-19.5"/>
<text text-anchor="middle" x="847.5" y="-26.5" font-family="Helvetica,sans-Serif" font-size="10.00">helmholtz::hsolve</text>
</a>
</g>
</g>
<!-- Node6&#45;&gt;Node7 -->
<g id="edge6" class="edge"><title>Node6&#45;&gt;Node7</title>
<path fill="none" stroke="midnightblue" d="M749.207,-42.899C764.462,-40.7197 782.492,-38.144 798.86,-35.8058"/>
<polygon fill="midnightblue" stroke="midnightblue" points="748.548,-39.4575 739.144,-44.3366 749.538,-46.3871 748.548,-39.4575"/>
</g>
<!-- Node8 -->
<g id="node8" class="node"><title>Node8</title>
<g id="a_node8"><a xlink:href="conduct_8F90.html#a74a7f053381975ed36df8ea959f3aa01" target="_top" xlink:title="Solve the convection&#45;diffusion equation for passive scalar IPSCAL. ">
<polygon fill="white" stroke="black" points="932,-38.5 932,-57.5 979,-57.5 979,-38.5 932,-38.5"/>
<text text-anchor="middle" x="955.5" y="-45.5" font-family="Helvetica,sans-Serif" font-size="10.00">cdscal</text>
</a>
</g>
</g>
<!-- Node7&#45;&gt;Node8 -->
<g id="edge7" class="edge"><title>Node7&#45;&gt;Node8</title>
<path fill="none" stroke="midnightblue" d="M906.156,-39.3345C915.285,-40.9709 924.228,-42.5739 931.891,-43.9475"/>
<polygon fill="midnightblue" stroke="midnightblue" points="906.689,-35.8744 896.228,-37.5551 905.454,-42.7646 906.689,-35.8744"/>
</g>
<!-- Node14 -->
<g id="node14" class="node"><title>Node14</title>
<g id="a_node14"><a xlink:href="plan4_8F90.html#a5cbf852b67e73bfa44e028338c4d57ad" target="_top" xlink:title="Splitting scheme . ">
<polygon fill="white" stroke="black" points="934,-0.5 934,-19.5 977,-19.5 977,-0.5 934,-0.5"/>
<text text-anchor="middle" x="955.5" y="-7.5" font-family="Helvetica,sans-Serif" font-size="10.00">plan4</text>
</a>
</g>
</g>
<!-- Node7&#45;&gt;Node14 -->
<g id="edge13" class="edge"><title>Node7&#45;&gt;Node14</title>
<path fill="none" stroke="midnightblue" d="M906.15,-18.6664C916.051,-16.8917 925.734,-15.1561 933.803,-13.7099"/>
<polygon fill="midnightblue" stroke="midnightblue" points="905.454,-15.2354 896.228,-20.4449 906.689,-22.1256 905.454,-15.2354"/>
</g>
<!-- Node9 -->
<g id="node9" class="node"><title>Node9</title>
<g id="a_node9"><a xlink:href="drive2_8F90.html#acce80cd37f20e9b52729eb52d86a9c86" target="_top" xlink:title="Driver for temperature or passive scalar. ">
<polygon fill="white" stroke="black" points="1015,-38.5 1015,-57.5 1053,-57.5 1053,-38.5 1015,-38.5"/>
<text text-anchor="middle" x="1034" y="-45.5" font-family="Helvetica,sans-Serif" font-size="10.00">heat</text>
</a>
</g>
</g>
<!-- Node8&#45;&gt;Node9 -->
<g id="edge8" class="edge"><title>Node8&#45;&gt;Node9</title>
<path fill="none" stroke="midnightblue" d="M989.131,-48C997.988,-48 1007.26,-48 1014.98,-48"/>
<polygon fill="midnightblue" stroke="midnightblue" points="989.039,-44.5001 979.039,-48 989.039,-51.5001 989.039,-44.5001"/>
</g>
<!-- Node10 -->
<g id="node10" class="node"><title>Node10</title>
<g id="a_node10"><a xlink:href="drive1_8F90.html#ae177ea7efac97f35241521b782a671c0" target="_top" xlink:title="take a single time&#45;step ">
<polygon fill="white" stroke="black" points="1089,-19.5 1089,-38.5 1169,-38.5 1169,-19.5 1089,-19.5"/>
<text text-anchor="middle" x="1129" y="-26.5" font-family="Helvetica,sans-Serif" font-size="10.00">nek_advance</text>
</a>
</g>
</g>
<!-- Node9&#45;&gt;Node10 -->
<g id="edge9" class="edge"><title>Node9&#45;&gt;Node10</title>
<path fill="none" stroke="midnightblue" d="M1063.36,-42.2055C1071.41,-40.5604 1080.33,-38.7395 1088.9,-36.9889"/>
<polygon fill="midnightblue" stroke="midnightblue" points="1062.47,-38.8153 1053.37,-44.2462 1063.87,-45.6736 1062.47,-38.8153"/>
</g>
<!-- Node11 -->
<g id="node11" class="node"><title>Node11</title>
<g id="a_node11"><a xlink:href="drive1_8F90.html#a18d3e839786263fc4cf91f7eeb714371" target="_top" xlink:title="take a chunk of time&#45;steps ">
<polygon fill="white" stroke="black" points="1205,-19.5 1205,-38.5 1318,-38.5 1318,-19.5 1205,-19.5"/>
<text text-anchor="middle" x="1261.5" y="-26.5" font-family="Helvetica,sans-Serif" font-size="10.00">nek__multi_advance</text>
</a>
</g>
</g>
<!-- Node10&#45;&gt;Node11 -->
<g id="edge10" class="edge"><title>Node10&#45;&gt;Node11</title>
<path fill="none" stroke="midnightblue" d="M1179.19,-29C1187.61,-29 1196.4,-29 1204.97,-29"/>
<polygon fill="midnightblue" stroke="midnightblue" points="1179.15,-25.5001 1169.15,-29 1179.15,-32.5001 1179.15,-25.5001"/>
</g>
<!-- Node12 -->
<g id="node12" class="node"><title>Node12</title>
<g id="a_node12"><a xlink:href="drive1_8F90.html#a6ad57e0cf728f343e371ef8c9a02cd8a" target="_top" xlink:title="integrate the governing equations in time ">
<polygon fill="white" stroke="black" points="1354,-19.5 1354,-38.5 1419,-38.5 1419,-19.5 1354,-19.5"/>
<text text-anchor="middle" x="1386.5" y="-26.5" font-family="Helvetica,sans-Serif" font-size="10.00">nek_solve</text>
</a>
</g>
</g>
<!-- Node11&#45;&gt;Node12 -->
<g id="edge11" class="edge"><title>Node11&#45;&gt;Node12</title>
<path fill="none" stroke="midnightblue" d="M1328.28,-29C1337.16,-29 1345.93,-29 1353.82,-29"/>
<polygon fill="midnightblue" stroke="midnightblue" points="1328.24,-25.5001 1318.24,-29 1328.24,-32.5001 1328.24,-25.5001"/>
</g>
<!-- Node13 -->
<g id="node13" class="node"><title>Node13</title>
<g id="a_node13"><a xlink:href="drive_8F90.html#a13048bf28dd0734640412d69349e3857" target="_top" xlink:title="NEK5000: Spectral Element Computational Fluid Dynamics Solver COPYRIGHT (c) 2008&#45;2010 UCHICAGO ARGONN...">
<polygon fill="white" stroke="black" points="1455,-19.5 1455,-38.5 1504,-38.5 1504,-19.5 1455,-19.5"/>
<text text-anchor="middle" x="1479.5" y="-26.5" font-family="Helvetica,sans-Serif" font-size="10.00">nekton</text>
</a>
</g>
</g>
<!-- Node12&#45;&gt;Node13 -->
<g id="edge12" class="edge"><title>Node12&#45;&gt;Node13</title>
<path fill="none" stroke="midnightblue" d="M1429.19,-29C1437.95,-29 1446.9,-29 1454.73,-29"/>
<polygon fill="midnightblue" stroke="midnightblue" points="1429.07,-25.5001 1419.07,-29 1429.07,-32.5001 1429.07,-25.5001"/>
</g>
<!-- Node15 -->
<g id="node15" class="node"><title>Node15</title>
<g id="a_node15"><a xlink:href="drive2_8F90.html#ab0aeca9ad3db8be87a01ba29d069d71e" target="_top" xlink:title="Driver for solving the incompressible Navier&#45;Stokes equations. ">
<polygon fill="white" stroke="black" points="1016.5,-0.5 1016.5,-19.5 1051.5,-19.5 1051.5,-0.5 1016.5,-0.5"/>
<text text-anchor="middle" x="1034" y="-7.5" font-family="Helvetica,sans-Serif" font-size="10.00">fluid</text>
</a>
</g>
</g>
<!-- Node14&#45;&gt;Node15 -->
<g id="edge14" class="edge"><title>Node14&#45;&gt;Node15</title>
<path fill="none" stroke="midnightblue" d="M987.262,-10C997.086,-10 1007.6,-10 1016.06,-10"/>
<polygon fill="midnightblue" stroke="midnightblue" points="987.001,-6.5001 977.001,-10 987.001,-13.5001 987.001,-6.5001"/>
</g>
<!-- Node15&#45;&gt;Node10 -->
<g id="edge15" class="edge"><title>Node15&#45;&gt;Node10</title>
<path fill="none" stroke="midnightblue" d="M1061.63,-15.4415C1070.08,-17.1662 1079.59,-19.1106 1088.73,-20.9771"/>
<polygon fill="midnightblue" stroke="midnightblue" points="1062.12,-11.9694 1051.63,-13.3968 1060.72,-18.8277 1062.12,-11.9694"/>
</g>
<!-- Node16&#45;&gt;Node7 -->
<g id="edge17" class="edge"><title>Node16&#45;&gt;Node7</title>
<path fill="none" stroke="midnightblue" d="M773.012,-18.5018C781.612,-19.7303 790.37,-20.9814 798.701,-22.1716"/>
<polygon fill="midnightblue" stroke="midnightblue" points="773.419,-15.0244 763.024,-17.0749 772.429,-21.954 773.419,-15.0244"/>
</g>
</g>
</svg>
