<?xml version="1.0" encoding="UTF-8" standalone="no"?>
<!DOCTYPE svg PUBLIC "-//W3C//DTD SVG 1.1//EN"
 "http://www.w3.org/Graphics/SVG/1.1/DTD/svg11.dtd">
<!-- Generated by graphviz version 2.38.0 (20140413.2041)
 -->
<!-- Title: hsmg_routines::mg_set_msk Pages: 1 -->
<svg width="954pt" height="304pt"
 viewBox="0.00 0.00 954.00 303.50" xmlns="http://www.w3.org/2000/svg" xmlns:xlink="http://www.w3.org/1999/xlink">
<g id="graph0" class="graph" transform="scale(1 1) rotate(0) translate(4 299.5)">
<title>hsmg_routines::mg_set_msk</title>
<polygon fill="white" stroke="none" points="-4,4 -4,-299.5 950,-299.5 950,4 -4,4"/>
<!-- Node1 -->
<g id="node1" class="node"><title>Node1</title>
<polygon fill="#bfbfbf" stroke="black" points="0,-69 0,-88 149,-88 149,-69 0,-69"/>
<text text-anchor="middle" x="74.5" y="-76" font-family="Helvetica,sans-Serif" font-size="10.00">hsmg_routines::mg_set_msk</text>
</g>
<!-- Node2 -->
<g id="node2" class="node"><title>Node2</title>
<g id="a_node2"><a xlink:href="classhsmg__routines.html#a3d85b7d52a610586965a8a3a9e574862" target="_top" xlink:title="hsmg_routines::h1mg\l_setup_mask">
<polygon fill="white" stroke="black" points="185,-63.5 185,-93.5 301,-93.5 301,-63.5 185,-63.5"/>
<text text-anchor="start" x="193" y="-81.5" font-family="Helvetica,sans-Serif" font-size="10.00">hsmg_routines::h1mg</text>
<text text-anchor="middle" x="243" y="-70.5" font-family="Helvetica,sans-Serif" font-size="10.00">_setup_mask</text>
</a>
</g>
</g>
<!-- Node1&#45;&gt;Node2 -->
<g id="edge1" class="edge"><title>Node1&#45;&gt;Node2</title>
<path fill="none" stroke="midnightblue" d="M149.014,-78.5C157.561,-78.5 166.246,-78.5 174.704,-78.5"/>
<polygon fill="midnightblue" stroke="midnightblue" points="174.882,-82.0001 184.882,-78.5 174.882,-75.0001 174.882,-82.0001"/>
</g>
<!-- Node3 -->
<g id="node3" class="node"><title>Node3</title>
<g id="a_node3"><a xlink:href="comm__mpi_8F90.html#a59fcf8a02fe54ab37f61050e3ca6b197" target="_top" xlink:title="exitti">
<polygon fill="white" stroke="black" points="507,-126 507,-145 545,-145 545,-126 507,-126"/>
<text text-anchor="middle" x="526" y="-133" font-family="Helvetica,sans-Serif" font-size="10.00">exitti</text>
</a>
</g>
</g>
<!-- Node2&#45;&gt;Node3 -->
<g id="edge2" class="edge"><title>Node2&#45;&gt;Node3</title>
<path fill="none" stroke="midnightblue" d="M274.672,-93.6411C292.451,-101.748 315.507,-111.142 337,-116.5 392.48,-130.331 459.56,-134.136 496.727,-135.156"/>
<polygon fill="midnightblue" stroke="midnightblue" points="496.743,-138.657 506.819,-135.383 496.901,-131.659 496.743,-138.657"/>
</g>
<!-- Node17 -->
<g id="node17" class="node"><title>Node17</title>
<g id="a_node17"><a xlink:href="connect1_8F90.html#a1c96db1fac78d436aaab41482ed01aca" target="_top" xlink:title="Assign the value VAL to face(IFACE,IE) of array A. IFACE is the input in the pre&#45;processor ordering s...">
<polygon fill="white" stroke="black" points="374,-50 374,-69 416,-69 416,-50 374,-50"/>
<text text-anchor="middle" x="395" y="-57" font-family="Helvetica,sans-Serif" font-size="10.00">facev</text>
</a>
</g>
</g>
<!-- Node2&#45;&gt;Node17 -->
<g id="edge16" class="edge"><title>Node2&#45;&gt;Node17</title>
<path fill="none" stroke="midnightblue" d="M301.136,-71.2627C322.353,-68.5752 345.596,-65.6312 363.52,-63.3608"/>
<polygon fill="midnightblue" stroke="midnightblue" points="364.185,-66.8047 373.665,-62.0757 363.305,-59.8602 364.185,-66.8047"/>
</g>
<!-- Node19 -->
<g id="node19" class="node"><title>Node19</title>
<g id="a_node19"><a xlink:href="fast3d_8F90.html#ab60c76ed10c432bca639d052ca18f115" target="_top" xlink:title="get_fast_bc">
<polygon fill="white" stroke="black" points="359.5,-88 359.5,-107 430.5,-107 430.5,-88 359.5,-88"/>
<text text-anchor="middle" x="395" y="-95" font-family="Helvetica,sans-Serif" font-size="10.00">get_fast_bc</text>
</a>
</g>
</g>
<!-- Node2&#45;&gt;Node19 -->
<g id="edge18" class="edge"><title>Node2&#45;&gt;Node19</title>
<path fill="none" stroke="midnightblue" d="M301.136,-85.7373C317.012,-87.7482 334.021,-89.9027 349.089,-91.8112"/>
<polygon fill="midnightblue" stroke="midnightblue" points="348.811,-95.3039 359.172,-93.0884 349.691,-88.3594 348.811,-95.3039"/>
</g>
<!-- Node22 -->
<g id="node22" class="node"><title>Node22</title>
<g id="a_node22"><a xlink:href="classhsmg__routines.html#aa152a2f16a6d84bdc3abd3dc97812c3a" target="_top" xlink:title="hsmg_routines::hsmg\l_dsprod">
<polygon fill="white" stroke="black" points="337,-0.5 337,-30.5 453,-30.5 453,-0.5 337,-0.5"/>
<text text-anchor="start" x="345" y="-18.5" font-family="Helvetica,sans-Serif" font-size="10.00">hsmg_routines::hsmg</text>
<text text-anchor="middle" x="395" y="-7.5" font-family="Helvetica,sans-Serif" font-size="10.00">_dsprod</text>
</a>
</g>
</g>
<!-- Node2&#45;&gt;Node22 -->
<g id="edge22" class="edge"><title>Node2&#45;&gt;Node22</title>
<path fill="none" stroke="midnightblue" d="M279.929,-63.4099C300.54,-54.7531 326.614,-43.8023 348.629,-34.5559"/>
<polygon fill="midnightblue" stroke="midnightblue" points="350.24,-37.6753 358.105,-30.576 347.53,-31.2214 350.24,-37.6753"/>
</g>
<!-- Node4 -->
<g id="node4" class="node"><title>Node4</title>
<g id="a_node4"><a xlink:href="math_8F90.html#a692155d1d2ec380a9fdb2d81ef221625" target="_top" xlink:title="blank a string ">
<polygon fill="white" stroke="black" points="627.5,-124 627.5,-143 668.5,-143 668.5,-124 627.5,-124"/>
<text text-anchor="middle" x="648" y="-131" font-family="Helvetica,sans-Serif" font-size="10.00">blank</text>
</a>
</g>
</g>
<!-- Node3&#45;&gt;Node4 -->
<g id="edge3" class="edge"><title>Node3&#45;&gt;Node4</title>
<path fill="none" stroke="midnightblue" d="M545.225,-135.196C564.357,-134.877 594.737,-134.371 617.331,-133.994"/>
<polygon fill="midnightblue" stroke="midnightblue" points="617.464,-137.493 627.405,-133.827 617.348,-130.494 617.464,-137.493"/>
</g>
<!-- Node5 -->
<g id="node5" class="node"><title>Node5</title>
<g id="a_node5"><a xlink:href="math_8F90.html#ad7fb480cea001849621405f37167aab1" target="_top" xlink:title="chcopy">
<polygon fill="white" stroke="black" points="623,-86 623,-105 673,-105 673,-86 623,-86"/>
<text text-anchor="middle" x="648" y="-93" font-family="Helvetica,sans-Serif" font-size="10.00">chcopy</text>
</a>
</g>
</g>
<!-- Node3&#45;&gt;Node5 -->
<g id="edge4" class="edge"><title>Node3&#45;&gt;Node5</title>
<path fill="none" stroke="midnightblue" d="M545.225,-129.425C563.192,-123.436 591.081,-114.14 613.124,-106.792"/>
<polygon fill="midnightblue" stroke="midnightblue" points="614.404,-110.055 622.784,-103.572 612.19,-103.414 614.404,-110.055"/>
</g>
<!-- Node6 -->
<g id="node6" class="node"><title>Node6</title>
<g id="a_node6"><a xlink:href="byte_8c.html#a2da8eeb074dfd3ffbfb3e9a4d301cda4" target="_top" xlink:title="exitt">
<polygon fill="white" stroke="black" points="630,-200 630,-219 666,-219 666,-200 630,-200"/>
<text text-anchor="middle" x="648" y="-207" font-family="Helvetica,sans-Serif" font-size="10.00">exitt</text>
</a>
</g>
</g>
<!-- Node3&#45;&gt;Node6 -->
<g id="edge5" class="edge"><title>Node3&#45;&gt;Node6</title>
<path fill="none" stroke="midnightblue" d="M537.562,-145.078C551.043,-156.933 575.449,-177.183 599,-190.5 605.5,-194.175 612.853,-197.471 619.815,-200.244"/>
<polygon fill="midnightblue" stroke="midnightblue" points="618.999,-203.677 629.591,-203.918 621.462,-197.124 618.999,-203.677"/>
</g>
<!-- Node16 -->
<g id="node16" class="node"><title>Node16</title>
<g id="a_node16"><a xlink:href="classstring.html#ac6aad97d698bcdbf5c11ffa52d947ad8" target="_top" xlink:title="string::indx1">
<polygon fill="white" stroke="black" points="611.5,-162 611.5,-181 684.5,-181 684.5,-162 611.5,-162"/>
<text text-anchor="middle" x="648" y="-169" font-family="Helvetica,sans-Serif" font-size="10.00">string::indx1</text>
</a>
</g>
</g>
<!-- Node3&#45;&gt;Node16 -->
<g id="edge15" class="edge"><title>Node3&#45;&gt;Node16</title>
<path fill="none" stroke="midnightblue" d="M545.225,-140.968C561.115,-145.734 584.764,-152.829 605.267,-158.98"/>
<polygon fill="midnightblue" stroke="midnightblue" points="604.448,-162.388 615.032,-161.91 606.459,-155.684 604.448,-162.388"/>
</g>
<!-- Node7 -->
<g id="node7" class="node"><title>Node7</title>
<g id="a_node7"><a xlink:href="classctimer.html#abcecbc845c8ee72e13a19eaa30b80d77" target="_top" xlink:title="ctimer::dnekclock">
<polygon fill="white" stroke="black" points="733,-238 733,-257 830,-257 830,-238 733,-238"/>
<text text-anchor="middle" x="781.5" y="-245" font-family="Helvetica,sans-Serif" font-size="10.00">ctimer::dnekclock</text>
</a>
</g>
</g>
<!-- Node6&#45;&gt;Node7 -->
<g id="edge6" class="edge"><title>Node6&#45;&gt;Node7</title>
<path fill="none" stroke="midnightblue" d="M666.191,-214.468C684.242,-219.684 713.324,-228.088 737.637,-235.114"/>
<polygon fill="midnightblue" stroke="midnightblue" points="736.794,-238.513 747.373,-237.927 738.737,-231.788 736.794,-238.513"/>
</g>
<!-- Node9 -->
<g id="node9" class="node"><title>Node9</title>
<g id="a_node9"><a xlink:href="subs1_8F90.html#a339739b88994e5bb12bd923147f94983" target="_top" xlink:title="flush_io">
<polygon fill="white" stroke="black" points="755,-200 755,-219 808,-219 808,-200 755,-200"/>
<text text-anchor="middle" x="781.5" y="-207" font-family="Helvetica,sans-Serif" font-size="10.00">flush_io</text>
</a>
</g>
</g>
<!-- Node6&#45;&gt;Node9 -->
<g id="edge8" class="edge"><title>Node6&#45;&gt;Node9</title>
<path fill="none" stroke="midnightblue" d="M666.191,-209.5C686.016,-209.5 719.149,-209.5 744.653,-209.5"/>
<polygon fill="midnightblue" stroke="midnightblue" points="744.706,-213 754.706,-209.5 744.706,-206 744.706,-213"/>
</g>
<!-- Node10 -->
<g id="node10" class="node"><title>Node10</title>
<g id="a_node10"><a xlink:href="singlmesh_8F90.html#aef78ff219741b83c1ca784b869e9cacf" target="_top" xlink:title="Dummy for singlmesh. ">
<polygon fill="white" stroke="black" points="741.5,-162 741.5,-181 821.5,-181 821.5,-162 741.5,-162"/>
<text text-anchor="middle" x="781.5" y="-169" font-family="Helvetica,sans-Serif" font-size="10.00">happy_check</text>
</a>
</g>
</g>
<!-- Node6&#45;&gt;Node10 -->
<g id="edge9" class="edge"><title>Node6&#45;&gt;Node10</title>
<path fill="none" stroke="midnightblue" d="M666.191,-204.532C684.242,-199.316 713.324,-190.912 737.637,-183.886"/>
<polygon fill="midnightblue" stroke="midnightblue" points="738.737,-187.212 747.373,-181.073 736.794,-180.487 738.737,-187.212"/>
</g>
<!-- Node11 -->
<g id="node11" class="node"><title>Node11</title>
<g id="a_node11"><a xlink:href="mpi__dummy_8F90.html#a55e9a1619aadb638b14211ce21d7d566" target="_top" xlink:title="mpi_finalize">
<polygon fill="white" stroke="black" points="745.5,-124 745.5,-143 817.5,-143 817.5,-124 745.5,-124"/>
<text text-anchor="middle" x="781.5" y="-131" font-family="Helvetica,sans-Serif" font-size="10.00">mpi_finalize</text>
</a>
</g>
</g>
<!-- Node6&#45;&gt;Node11 -->
<g id="edge10" class="edge"><title>Node6&#45;&gt;Node11</title>
<path fill="none" stroke="midnightblue" d="M666.326,-204.672C675.872,-201.528 687.646,-196.826 697,-190.5 716.271,-177.467 713.753,-165.568 733,-152.5 735.719,-150.654 738.644,-148.945 741.659,-147.371"/>
<polygon fill="midnightblue" stroke="midnightblue" points="743.29,-150.472 750.857,-143.057 740.317,-144.135 743.29,-150.472"/>
</g>
<!-- Node12 -->
<g id="node12" class="node"><title>Node12</title>
<g id="a_node12"><a xlink:href="papi_8F90.html#a3a75ccdfbe05912fda48c3b134d114c0" target="_top" xlink:title="nek_flops">
<polygon fill="white" stroke="black" points="750.5,-276 750.5,-295 812.5,-295 812.5,-276 750.5,-276"/>
<text text-anchor="middle" x="781.5" y="-283" font-family="Helvetica,sans-Serif" font-size="10.00">nek_flops</text>
</a>
</g>
</g>
<!-- Node6&#45;&gt;Node12 -->
<g id="edge11" class="edge"><title>Node6&#45;&gt;Node12</title>
<path fill="none" stroke="midnightblue" d="M661.273,-219.079C677.179,-231.194 706.075,-252.195 733,-266.5 736.517,-268.369 740.26,-270.166 744.041,-271.859"/>
<polygon fill="midnightblue" stroke="midnightblue" points="742.84,-275.151 753.412,-275.835 745.574,-268.707 742.84,-275.151"/>
</g>
<!-- Node14 -->
<g id="node14" class="node"><title>Node14</title>
<g id="a_node14"><a xlink:href="comm__mpi_8F90.html#a4acb4d8e379294232e9219bec063d8f3" target="_top" xlink:title="nekgsync">
<polygon fill="white" stroke="black" points="750.5,-48 750.5,-67 812.5,-67 812.5,-48 750.5,-48"/>
<text text-anchor="middle" x="781.5" y="-55" font-family="Helvetica,sans-Serif" font-size="10.00">nekgsync</text>
</a>
</g>
</g>
<!-- Node6&#45;&gt;Node14 -->
<g id="edge13" class="edge"><title>Node6&#45;&gt;Node14</title>
<path fill="none" stroke="midnightblue" d="M666.257,-206.011C676.251,-203.24 688.496,-198.465 697,-190.5 724.279,-164.951 712.876,-145.996 733,-114.5 742.174,-100.141 754.55,-85.402 764.369,-74.5097"/>
<polygon fill="midnightblue" stroke="midnightblue" points="767.085,-76.7273 771.284,-67.0001 761.936,-71.9856 767.085,-76.7273"/>
</g>
<!-- Node8 -->
<g id="node8" class="node"><title>Node8</title>
<g id="a_node8"><a xlink:href="mpi__dummy_8F90.html#ae6a5ef945f87c2c27849696b70f3af2a" target="_top" xlink:title="mpi_wtime">
<polygon fill="white" stroke="black" points="873,-238 873,-257 939,-257 939,-238 873,-238"/>
<text text-anchor="middle" x="906" y="-245" font-family="Helvetica,sans-Serif" font-size="10.00">mpi_wtime</text>
</a>
</g>
</g>
<!-- Node7&#45;&gt;Node8 -->
<g id="edge7" class="edge"><title>Node7&#45;&gt;Node8</title>
<path fill="none" stroke="midnightblue" d="M830.212,-247.5C840.894,-247.5 852.154,-247.5 862.603,-247.5"/>
<polygon fill="midnightblue" stroke="midnightblue" points="862.73,-251 872.729,-247.5 862.729,-244 862.73,-251"/>
</g>
<!-- Node13 -->
<g id="node13" class="node"><title>Node13</title>
<g id="a_node13"><a xlink:href="papi_8F90.html#a838be3d39e287e29002d5a68c6ad2dd8" target="_top" xlink:title="getflops_papi">
<polygon fill="white" stroke="black" points="866,-276 866,-295 946,-295 946,-276 866,-276"/>
<text text-anchor="middle" x="906" y="-283" font-family="Helvetica,sans-Serif" font-size="10.00">getflops_papi</text>
</a>
</g>
</g>
<!-- Node12&#45;&gt;Node13 -->
<g id="edge12" class="edge"><title>Node12&#45;&gt;Node13</title>
<path fill="none" stroke="midnightblue" d="M812.781,-285.5C825.666,-285.5 841.032,-285.5 855.491,-285.5"/>
<polygon fill="midnightblue" stroke="midnightblue" points="855.811,-289 865.811,-285.5 855.811,-282 855.811,-289"/>
</g>
<!-- Node15 -->
<g id="node15" class="node"><title>Node15</title>
<g id="a_node15"><a xlink:href="mpi__dummy_8F90.html#a070afe564196eb48413dbf1a9fbc99aa" target="_top" xlink:title="mpi_barrier">
<polygon fill="white" stroke="black" points="871,-48 871,-67 941,-67 941,-48 871,-48"/>
<text text-anchor="middle" x="906" y="-55" font-family="Helvetica,sans-Serif" font-size="10.00">mpi_barrier</text>
</a>
</g>
</g>
<!-- Node14&#45;&gt;Node15 -->
<g id="edge14" class="edge"><title>Node14&#45;&gt;Node15</title>
<path fill="none" stroke="midnightblue" d="M812.781,-57.5C827.195,-57.5 844.714,-57.5 860.594,-57.5"/>
<polygon fill="midnightblue" stroke="midnightblue" points="860.745,-61.0001 870.745,-57.5 860.745,-54.0001 860.745,-61.0001"/>
</g>
<!-- Node18 -->
<g id="node18" class="node"><title>Node18</title>
<g id="a_node18"><a xlink:href="connect1_8F90.html#aa1c9016b4c28e8a8512be6f6d67eefce" target="_top" xlink:title="ifcase in preprocessor notation ">
<polygon fill="white" stroke="black" points="503.5,-50 503.5,-69 548.5,-69 548.5,-50 503.5,-50"/>
<text text-anchor="middle" x="526" y="-57" font-family="Helvetica,sans-Serif" font-size="10.00">facind</text>
</a>
</g>
</g>
<!-- Node17&#45;&gt;Node18 -->
<g id="edge17" class="edge"><title>Node17&#45;&gt;Node18</title>
<path fill="none" stroke="midnightblue" d="M416.156,-59.5C436.773,-59.5 469.106,-59.5 493.182,-59.5"/>
<polygon fill="midnightblue" stroke="midnightblue" points="493.263,-63.0001 503.263,-59.5 493.263,-56.0001 493.263,-63.0001"/>
</g>
<!-- Node19&#45;&gt;Node3 -->
<g id="edge19" class="edge"><title>Node19&#45;&gt;Node3</title>
<path fill="none" stroke="midnightblue" d="M428.552,-107.089C449.654,-113.305 476.859,-121.319 496.994,-127.25"/>
<polygon fill="midnightblue" stroke="midnightblue" points="496.227,-130.673 506.808,-130.141 498.205,-123.958 496.227,-130.673"/>
</g>
<!-- Node20 -->
<g id="node20" class="node"><title>Node20</title>
<g id="a_node20"><a xlink:href="classparallel.html#ac36680315d0622d84df5d5baf3fb0acc" target="_top" xlink:title="parallel::lglel">
<polygon fill="white" stroke="black" points="489,-88 489,-107 563,-107 563,-88 489,-88"/>
<text text-anchor="middle" x="526" y="-95" font-family="Helvetica,sans-Serif" font-size="10.00">parallel::lglel</text>
</a>
</g>
</g>
<!-- Node19&#45;&gt;Node20 -->
<g id="edge20" class="edge"><title>Node19&#45;&gt;Node20</title>
<path fill="none" stroke="midnightblue" d="M430.57,-97.5C445.385,-97.5 462.908,-97.5 478.811,-97.5"/>
<polygon fill="midnightblue" stroke="midnightblue" points="478.983,-101 488.983,-97.5 478.983,-94.0001 478.983,-101"/>
</g>
<!-- Node21 -->
<g id="node21" class="node"><title>Node21</title>
<g id="a_node21"><a xlink:href="classmesh.html#a8b6a250925cdc576e3ff6f7b18dc88c4" target="_top" xlink:title="mesh::xyz_to_ieg">
<polygon fill="white" stroke="black" points="599,-48 599,-67 697,-67 697,-48 599,-48"/>
<text text-anchor="middle" x="648" y="-55" font-family="Helvetica,sans-Serif" font-size="10.00">mesh::xyz_to_ieg</text>
</a>
</g>
</g>
<!-- Node20&#45;&gt;Node21 -->
<g id="edge21" class="edge"><title>Node20&#45;&gt;Node21</title>
<path fill="none" stroke="midnightblue" d="M555.743,-87.919C571.625,-82.6251 591.56,-75.9801 608.743,-70.2522"/>
<polygon fill="midnightblue" stroke="midnightblue" points="610.112,-73.4856 618.492,-67.0028 607.898,-66.8448 610.112,-73.4856"/>
</g>
<!-- Node22&#45;&gt;Node14 -->
<g id="edge23" class="edge"><title>Node22&#45;&gt;Node14</title>
<path fill="none" stroke="midnightblue" d="M453.147,-17.3582C513.904,-19.9181 612.662,-25.7535 697,-38.5 711.174,-40.6422 726.517,-43.8661 740.136,-47.053"/>
<polygon fill="midnightblue" stroke="midnightblue" points="739.627,-50.5301 750.168,-49.4642 741.263,-43.724 739.627,-50.5301"/>
</g>
</g>
</svg>
