<?xml version="1.0" encoding="UTF-8" standalone="no"?>
<!DOCTYPE svg PUBLIC "-//W3C//DTD SVG 1.1//EN"
 "http://www.w3.org/Graphics/SVG/1.1/DTD/svg11.dtd">
<!-- Generated by graphviz version 2.38.0 (20140413.2041)
 -->
<!-- Title: hsmg_routines::hsmg_setup_fast1d Pages: 1 -->
<!--zoomable 88 -->
<svg id="main" version="1.1" xmlns="http://www.w3.org/2000/svg" xmlns:xlink="http://www.w3.org/1999/xlink" xml:space="preserve" onload="init(evt)">
<style type="text/css"><![CDATA[
.edge:hover path { stroke: red; }
.edge:hover polygon { stroke: red; fill: red; }
]]></style>
<script type="text/javascript"><![CDATA[
var edges = document.getElementsByTagName('g');
if (edges && edges.length) {
  for (var i=0;i<edges.length;i++) {
    if (edges[i].id.substr(0,4)=='edge') {
      edges[i].setAttribute('class','edge');
    }
  }
}
]]></script>
        <defs>
                <circle id="rim" cx="0" cy="0" r="7"/>
                <circle id="rim2" cx="0" cy="0" r="3.5"/>
                <g id="zoomPlus">
                        <use xlink:href="#rim" fill="#404040">
                                <set attributeName="fill" to="#808080" begin="zoomplus.mouseover" end="zoomplus.mouseout"/>
                        </use>
                        <path d="M-4,0h8M0,-4v8" fill="none" stroke="white" stroke-width="1.5" pointer-events="none"/>
                </g>
                <g id="zoomMin">
                        <use xlink:href="#rim" fill="#404040">
                                <set attributeName="fill" to="#808080" begin="zoomminus.mouseover" end="zoomminus.mouseout"/>
                        </use>
                        <path d="M-4,0h8" fill="none" stroke="white" stroke-width="1.5" pointer-events="none"/>
                </g>
                <g id="dirArrow">
                        <path fill="none" stroke="white" stroke-width="1.5" d="M0,-3.0v7 M-2.5,-0.5L0,-3.0L2.5,-0.5"/>
                </g>
               <g id="resetDef">
                       <use xlink:href="#rim2" fill="#404040">
                               <set attributeName="fill" to="#808080" begin="reset.mouseover" end="reset.mouseout"/>
                       </use>
               </g>
        </defs>

<script type="text/javascript">
var viewWidth = 862;
var viewHeight = 88;
var sectionId = 'dynsection-59';
</script>
<script xlink:href="svgpan.js"/>
<svg id="graph" class="graph">
<g id="viewport">
<title>hsmg_routines::hsmg_setup_fast1d</title>
<polygon fill="white" stroke="none" points="-4,4 -4,-84 858,-84 858,4 -4,4"/>
<!-- Node1 -->
<g id="node1" class="node"><title>Node1</title>
<polygon fill="#bfbfbf" stroke="black" points="0,-24.5 0,-54.5 116,-54.5 116,-24.5 0,-24.5"/>
<text text-anchor="start" x="8" y="-42.5" font-family="Helvetica,sans-Serif" font-size="10.00">hsmg_routines::hsmg</text>
<text text-anchor="middle" x="58" y="-31.5" font-family="Helvetica,sans-Serif" font-size="10.00">_setup_fast1d</text>
</g>
<!-- Node2 -->
<g id="node2" class="node"><title>Node2</title>
<g id="a_node2"><a xlink:href="classhsmg__routines.html#aee2a36eea92adb36ec686ee9652216e9" target="_top" xlink:title="not sure ">
<polygon fill="white" stroke="black" points="152,-24.5 152,-54.5 268,-54.5 268,-24.5 152,-24.5"/>
<text text-anchor="start" x="160" y="-42.5" font-family="Helvetica,sans-Serif" font-size="10.00">hsmg_routines::hsmg</text>
<text text-anchor="middle" x="210" y="-31.5" font-family="Helvetica,sans-Serif" font-size="10.00">_setup_fast</text>
</a>
</g>
</g>
<!-- Node1&#45;&gt;Node2 -->
<g id="edge1" class="edge"><title>Node1&#45;&gt;Node2</title>
<path fill="none" stroke="midnightblue" d="M126.311,-39.5C134.728,-39.5 143.277,-39.5 151.525,-39.5"/>
<polygon fill="midnightblue" stroke="midnightblue" points="126.137,-36.0001 116.136,-39.5 126.136,-43.0001 126.137,-36.0001"/>
</g>
<!-- Node3 -->
<g id="node3" class="node"><title>Node3</title>
<g id="a_node3"><a xlink:href="classhsmg__routines.html#a58ef718e49a3f4848c3d51307bbccfe0" target="_top" xlink:title="hsmg_routines::h1mg\l_setup_fdm">
<polygon fill="white" stroke="black" points="304,-49.5 304,-79.5 420,-79.5 420,-49.5 304,-49.5"/>
<text text-anchor="start" x="312" y="-67.5" font-family="Helvetica,sans-Serif" font-size="10.00">hsmg_routines::h1mg</text>
<text text-anchor="middle" x="362" y="-56.5" font-family="Helvetica,sans-Serif" font-size="10.00">_setup_fdm</text>
</a>
</g>
</g>
<!-- Node2&#45;&gt;Node3 -->
<g id="edge2" class="edge"><title>Node2&#45;&gt;Node3</title>
<path fill="none" stroke="midnightblue" d="M278.033,-50.6722C286.54,-52.0901 295.186,-53.531 303.525,-54.9209"/>
<polygon fill="midnightblue" stroke="midnightblue" points="278.576,-47.2144 268.136,-49.0227 277.425,-54.1192 278.576,-47.2144"/>
</g>
<!-- Node8 -->
<g id="node8" class="node"><title>Node8</title>
<g id="a_node8"><a xlink:href="classhsmg__routines.html#a96f7ef907486d4f298d8ac372aeddf5e" target="_top" xlink:title="hsmg_routines::hsmg\l_setup_fdm">
<polygon fill="white" stroke="black" points="304,-0.5 304,-30.5 420,-30.5 420,-0.5 304,-0.5"/>
<text text-anchor="start" x="312" y="-18.5" font-family="Helvetica,sans-Serif" font-size="10.00">hsmg_routines::hsmg</text>
<text text-anchor="middle" x="362" y="-7.5" font-family="Helvetica,sans-Serif" font-size="10.00">_setup_fdm</text>
</a>
</g>
</g>
<!-- Node2&#45;&gt;Node8 -->
<g id="edge7" class="edge"><title>Node2&#45;&gt;Node8</title>
<path fill="none" stroke="midnightblue" d="M278.033,-28.7747C286.54,-27.4135 295.186,-26.0302 303.525,-24.6959"/>
<polygon fill="midnightblue" stroke="midnightblue" points="277.458,-25.3221 268.136,-30.3582 278.564,-32.2342 277.458,-25.3221"/>
</g>
<!-- Node4 -->
<g id="node4" class="node"><title>Node4</title>
<g id="a_node4"><a xlink:href="classhsmg__routines.html#a91e8aa59d56bbf05d75aa9c48bcd8977" target="_top" xlink:title="Sets up Poisson preconditioner. ">
<polygon fill="white" stroke="black" points="456,-49.5 456,-79.5 572,-79.5 572,-49.5 456,-49.5"/>
<text text-anchor="start" x="464" y="-67.5" font-family="Helvetica,sans-Serif" font-size="10.00">hsmg_routines::h1mg</text>
<text text-anchor="middle" x="514" y="-56.5" font-family="Helvetica,sans-Serif" font-size="10.00">_setup</text>
</a>
</g>
</g>
<!-- Node3&#45;&gt;Node4 -->
<g id="edge3" class="edge"><title>Node3&#45;&gt;Node4</title>
<path fill="none" stroke="midnightblue" d="M430.311,-64.5C438.728,-64.5 447.277,-64.5 455.525,-64.5"/>
<polygon fill="midnightblue" stroke="midnightblue" points="430.137,-61.0001 420.136,-64.5 430.136,-68.0001 430.137,-61.0001"/>
</g>
<!-- Node5 -->
<g id="node5" class="node"><title>Node5</title>
<g id="a_node5"><a xlink:href="navier6_8F90.html#a45317b1def173b8f1db2e5083595d095" target="_top" xlink:title="Set up arrays for overlapping Schwartz algorithm for pressure solver ">
<polygon fill="white" stroke="black" points="608,-30 608,-49 680,-49 680,-30 608,-30"/>
<text text-anchor="middle" x="644" y="-37" font-family="Helvetica,sans-Serif" font-size="10.00">set_overlap</text>
</a>
</g>
</g>
<!-- Node4&#45;&gt;Node5 -->
<g id="edge4" class="edge"><title>Node4&#45;&gt;Node5</title>
<path fill="none" stroke="midnightblue" d="M582.236,-51.368C591.072,-49.6423 599.825,-47.9326 607.82,-46.3711"/>
<polygon fill="midnightblue" stroke="midnightblue" points="581.405,-47.9641 572.261,-53.3162 582.747,-54.8343 581.405,-47.9641"/>
</g>
<!-- Node6 -->
<g id="node6" class="node"><title>Node6</title>
<g id="a_node6"><a xlink:href="drive1_8F90.html#a87bd37ae2c18426f28f35cc3f24e4355" target="_top" xlink:title="initialize nek ">
<polygon fill="white" stroke="black" points="716,-30 716,-49 769,-49 769,-30 716,-30"/>
<text text-anchor="middle" x="742.5" y="-37" font-family="Helvetica,sans-Serif" font-size="10.00">nek_init</text>
</a>
</g>
</g>
<!-- Node5&#45;&gt;Node6 -->
<g id="edge5" class="edge"><title>Node5&#45;&gt;Node6</title>
<path fill="none" stroke="midnightblue" d="M690.316,-39.5C699.12,-39.5 708.055,-39.5 715.943,-39.5"/>
<polygon fill="midnightblue" stroke="midnightblue" points="690.112,-36.0001 680.112,-39.5 690.112,-43.0001 690.112,-36.0001"/>
</g>
<!-- Node7 -->
<g id="node7" class="node"><title>Node7</title>
<g id="a_node7"><a xlink:href="drive_8F90.html#a13048bf28dd0734640412d69349e3857" target="_top" xlink:title="NEK5000: Spectral Element Computational Fluid Dynamics Solver COPYRIGHT (c) 2008&#45;2010 UCHICAGO ARGONN...">
<polygon fill="white" stroke="black" points="805,-30 805,-49 854,-49 854,-30 805,-30"/>
<text text-anchor="middle" x="829.5" y="-37" font-family="Helvetica,sans-Serif" font-size="10.00">nekton</text>
</a>
</g>
</g>
<!-- Node6&#45;&gt;Node7 -->
<g id="edge6" class="edge"><title>Node6&#45;&gt;Node7</title>
<path fill="none" stroke="midnightblue" d="M779.227,-39.5C787.846,-39.5 796.845,-39.5 804.759,-39.5"/>
<polygon fill="midnightblue" stroke="midnightblue" points="779.003,-36.0001 769.003,-39.5 779.003,-43.0001 779.003,-36.0001"/>
</g>
<!-- Node9 -->
<g id="node9" class="node"><title>Node9</title>
<g id="a_node9"><a xlink:href="classhsmg__routines.html#ac8f9bca9624d5e550d70acabfa8aef73" target="_top" xlink:title="Sets up hybrid Schwarz multi&#45;grid preconditioner. ">
<polygon fill="white" stroke="black" points="456,-0.5 456,-30.5 572,-30.5 572,-0.5 456,-0.5"/>
<text text-anchor="start" x="464" y="-18.5" font-family="Helvetica,sans-Serif" font-size="10.00">hsmg_routines::hsmg</text>
<text text-anchor="middle" x="514" y="-7.5" font-family="Helvetica,sans-Serif" font-size="10.00">_setup</text>
</a>
</g>
</g>
<!-- Node8&#45;&gt;Node9 -->
<g id="edge8" class="edge"><title>Node8&#45;&gt;Node9</title>
<path fill="none" stroke="midnightblue" d="M430.311,-15.5C438.728,-15.5 447.277,-15.5 455.525,-15.5"/>
<polygon fill="midnightblue" stroke="midnightblue" points="430.137,-12.0001 420.136,-15.5 430.136,-19.0001 430.137,-12.0001"/>
</g>
<!-- Node9&#45;&gt;Node5 -->
<g id="edge9" class="edge"><title>Node9&#45;&gt;Node5</title>
<path fill="none" stroke="midnightblue" d="M582.236,-28.1067C591.072,-29.7634 599.825,-31.4047 607.82,-32.9037"/>
<polygon fill="midnightblue" stroke="midnightblue" points="582.735,-24.6394 572.261,-26.2365 581.445,-31.5195 582.735,-24.6394"/>
</g>
</g>
</svg>
        <g id="navigator" transform="translate(0 0)" fill="#404254">
                <rect fill="#f2f5e9" fill-opacity="0.5" stroke="#606060" stroke-width=".5" x="0" y="0" width="60" height="60"/>
                <use id="zoomplus" xlink:href="#zoomPlus" x="17" y="9" onmousedown="handleZoom(evt,'in')"/>
                <use id="zoomminus" xlink:href="#zoomMin" x="42" y="9" onmousedown="handleZoom(evt,'out')"/>
                <use id="reset" xlink:href="#resetDef" x="30" y="36" onmousedown="handleReset()"/>
                <g id="arrowUp" xlink:href="#dirArrow" transform="translate(30 24)" onmousedown="handlePan(0,-1)">
                  <use xlink:href="#rim" fill="#404040">
                        <set attributeName="fill" to="#808080" begin="arrowUp.mouseover" end="arrowUp.mouseout"/>
                  </use>
                  <path fill="none" stroke="white" stroke-width="1.5" d="M0,-3.0v7 M-2.5,-0.5L0,-3.0L2.5,-0.5"/>
                </g>
                <g id="arrowRight" xlink:href="#dirArrow" transform="rotate(90) translate(36 -43)" onmousedown="handlePan(1,0)">
                  <use xlink:href="#rim" fill="#404040">
                        <set attributeName="fill" to="#808080" begin="arrowRight.mouseover" end="arrowRight.mouseout"/>
                  </use>
                  <path fill="none" stroke="white" stroke-width="1.5" d="M0,-3.0v7 M-2.5,-0.5L0,-3.0L2.5,-0.5"/>
                </g>
                <g id="arrowDown" xlink:href="#dirArrow" transform="rotate(180) translate(-30 -48)" onmousedown="handlePan(0,1)">
                  <use xlink:href="#rim" fill="#404040">
                        <set attributeName="fill" to="#808080" begin="arrowDown.mouseover" end="arrowDown.mouseout"/>
                  </use>
                  <path fill="none" stroke="white" stroke-width="1.5" d="M0,-3.0v7 M-2.5,-0.5L0,-3.0L2.5,-0.5"/>
                </g>
                <g id="arrowLeft" xlink:href="#dirArrow" transform="rotate(270) translate(-36 17)" onmousedown="handlePan(-1,0)">
                  <use xlink:href="#rim" fill="#404040">
                        <set attributeName="fill" to="#808080" begin="arrowLeft.mouseover" end="arrowLeft.mouseout"/>
                  </use>
                  <path fill="none" stroke="white" stroke-width="1.5" d="M0,-3.0v7 M-2.5,-0.5L0,-3.0L2.5,-0.5"/>
                </g>
        </g>
        <svg viewBox="0 0 15 15" width="100%" height="30px" preserveAspectRatio="xMaxYMin meet">
         <g id="arrow_out" transform="scale(0.3 0.3)">
          <a xlink:href="classhsmg__routines_a3df48c7ab66c5291fd70155ce0ca7e11_icgraph_org.svg" target="_base">
           <rect id="button" ry="5" rx="5" y="6" x="6" height="38" width="38"
                fill="#f2f5e9" fill-opacity="0.5" stroke="#606060" stroke-width="1.0"/>
           <path id="arrow"
             d="M 11.500037,31.436501 C 11.940474,20.09759 22.043105,11.32322 32.158766,21.979434 L 37.068811,17.246167 C 37.068811,17.246167 37.088388,32 37.088388,32 L 22.160133,31.978069 C 22.160133,31.978069 26.997745,27.140456 26.997745,27.140456 C 18.528582,18.264221 13.291696,25.230495 11.500037,31.436501 z"
             style="fill:#404040;"/>
          </a>
         </g>
        </svg>
</svg>
