<?xml version="1.0" encoding="UTF-8" standalone="no"?>
<!DOCTYPE svg PUBLIC "-//W3C//DTD SVG 1.1//EN"
 "http://www.w3.org/Graphics/SVG/1.1/DTD/svg11.dtd">
<!-- Generated by graphviz version 2.38.0 (20140413.2041)
 -->
<!-- Title: hsmg_routines::hsmg_setup_fast Pages: 1 -->
<svg width="710pt" height="88pt"
 viewBox="0.00 0.00 710.00 88.00" xmlns="http://www.w3.org/2000/svg" xmlns:xlink="http://www.w3.org/1999/xlink">
<g id="graph0" class="graph" transform="scale(1 1) rotate(0) translate(4 84)">
<title>hsmg_routines::hsmg_setup_fast</title>
<polygon fill="white" stroke="none" points="-4,4 -4,-84 706,-84 706,4 -4,4"/>
<!-- Node1 -->
<g id="node1" class="node"><title>Node1</title>
<polygon fill="#bfbfbf" stroke="black" points="0,-24.5 0,-54.5 116,-54.5 116,-24.5 0,-24.5"/>
<text text-anchor="start" x="8" y="-42.5" font-family="Helvetica,sans-Serif" font-size="10.00">hsmg_routines::hsmg</text>
<text text-anchor="middle" x="58" y="-31.5" font-family="Helvetica,sans-Serif" font-size="10.00">_setup_fast</text>
</g>
<!-- Node2 -->
<g id="node2" class="node"><title>Node2</title>
<g id="a_node2"><a xlink:href="classhsmg__routines.html#a58ef718e49a3f4848c3d51307bbccfe0" target="_top" xlink:title="hsmg_routines::h1mg\l_setup_fdm">
<polygon fill="white" stroke="black" points="152,-49.5 152,-79.5 268,-79.5 268,-49.5 152,-49.5"/>
<text text-anchor="start" x="160" y="-67.5" font-family="Helvetica,sans-Serif" font-size="10.00">hsmg_routines::h1mg</text>
<text text-anchor="middle" x="210" y="-56.5" font-family="Helvetica,sans-Serif" font-size="10.00">_setup_fdm</text>
</a>
</g>
</g>
<!-- Node1&#45;&gt;Node2 -->
<g id="edge1" class="edge"><title>Node1&#45;&gt;Node2</title>
<path fill="none" stroke="midnightblue" d="M126.033,-50.6722C134.54,-52.0901 143.186,-53.531 151.525,-54.9209"/>
<polygon fill="midnightblue" stroke="midnightblue" points="126.576,-47.2144 116.136,-49.0227 125.425,-54.1192 126.576,-47.2144"/>
</g>
<!-- Node7 -->
<g id="node7" class="node"><title>Node7</title>
<g id="a_node7"><a xlink:href="classhsmg__routines.html#a96f7ef907486d4f298d8ac372aeddf5e" target="_top" xlink:title="hsmg_routines::hsmg\l_setup_fdm">
<polygon fill="white" stroke="black" points="152,-0.5 152,-30.5 268,-30.5 268,-0.5 152,-0.5"/>
<text text-anchor="start" x="160" y="-18.5" font-family="Helvetica,sans-Serif" font-size="10.00">hsmg_routines::hsmg</text>
<text text-anchor="middle" x="210" y="-7.5" font-family="Helvetica,sans-Serif" font-size="10.00">_setup_fdm</text>
</a>
</g>
</g>
<!-- Node1&#45;&gt;Node7 -->
<g id="edge6" class="edge"><title>Node1&#45;&gt;Node7</title>
<path fill="none" stroke="midnightblue" d="M126.033,-28.7747C134.54,-27.4135 143.186,-26.0302 151.525,-24.6959"/>
<polygon fill="midnightblue" stroke="midnightblue" points="125.458,-25.3221 116.136,-30.3582 126.564,-32.2342 125.458,-25.3221"/>
</g>
<!-- Node3 -->
<g id="node3" class="node"><title>Node3</title>
<g id="a_node3"><a xlink:href="classhsmg__routines.html#a91e8aa59d56bbf05d75aa9c48bcd8977" target="_top" xlink:title="Sets up Poisson preconditioner. ">
<polygon fill="white" stroke="black" points="304,-49.5 304,-79.5 420,-79.5 420,-49.5 304,-49.5"/>
<text text-anchor="start" x="312" y="-67.5" font-family="Helvetica,sans-Serif" font-size="10.00">hsmg_routines::h1mg</text>
<text text-anchor="middle" x="362" y="-56.5" font-family="Helvetica,sans-Serif" font-size="10.00">_setup</text>
</a>
</g>
</g>
<!-- Node2&#45;&gt;Node3 -->
<g id="edge2" class="edge"><title>Node2&#45;&gt;Node3</title>
<path fill="none" stroke="midnightblue" d="M278.311,-64.5C286.728,-64.5 295.277,-64.5 303.525,-64.5"/>
<polygon fill="midnightblue" stroke="midnightblue" points="278.137,-61.0001 268.136,-64.5 278.136,-68.0001 278.137,-61.0001"/>
</g>
<!-- Node4 -->
<g id="node4" class="node"><title>Node4</title>
<g id="a_node4"><a xlink:href="navier6_8F90.html#a45317b1def173b8f1db2e5083595d095" target="_top" xlink:title="Set up arrays for overlapping Schwartz algorithm for pressure solver ">
<polygon fill="white" stroke="black" points="456,-30 456,-49 528,-49 528,-30 456,-30"/>
<text text-anchor="middle" x="492" y="-37" font-family="Helvetica,sans-Serif" font-size="10.00">set_overlap</text>
</a>
</g>
</g>
<!-- Node3&#45;&gt;Node4 -->
<g id="edge3" class="edge"><title>Node3&#45;&gt;Node4</title>
<path fill="none" stroke="midnightblue" d="M430.236,-51.368C439.072,-49.6423 447.825,-47.9326 455.82,-46.3711"/>
<polygon fill="midnightblue" stroke="midnightblue" points="429.405,-47.9641 420.261,-53.3162 430.747,-54.8343 429.405,-47.9641"/>
</g>
<!-- Node5 -->
<g id="node5" class="node"><title>Node5</title>
<g id="a_node5"><a xlink:href="drive1_8F90.html#a87bd37ae2c18426f28f35cc3f24e4355" target="_top" xlink:title="initialize nek ">
<polygon fill="white" stroke="black" points="564,-30 564,-49 617,-49 617,-30 564,-30"/>
<text text-anchor="middle" x="590.5" y="-37" font-family="Helvetica,sans-Serif" font-size="10.00">nek_init</text>
</a>
</g>
</g>
<!-- Node4&#45;&gt;Node5 -->
<g id="edge4" class="edge"><title>Node4&#45;&gt;Node5</title>
<path fill="none" stroke="midnightblue" d="M538.316,-39.5C547.12,-39.5 556.055,-39.5 563.943,-39.5"/>
<polygon fill="midnightblue" stroke="midnightblue" points="538.112,-36.0001 528.112,-39.5 538.112,-43.0001 538.112,-36.0001"/>
</g>
<!-- Node6 -->
<g id="node6" class="node"><title>Node6</title>
<g id="a_node6"><a xlink:href="drive_8F90.html#a13048bf28dd0734640412d69349e3857" target="_top" xlink:title="NEK5000: Spectral Element Computational Fluid Dynamics Solver COPYRIGHT (c) 2008&#45;2010 UCHICAGO ARGONN...">
<polygon fill="white" stroke="black" points="653,-30 653,-49 702,-49 702,-30 653,-30"/>
<text text-anchor="middle" x="677.5" y="-37" font-family="Helvetica,sans-Serif" font-size="10.00">nekton</text>
</a>
</g>
</g>
<!-- Node5&#45;&gt;Node6 -->
<g id="edge5" class="edge"><title>Node5&#45;&gt;Node6</title>
<path fill="none" stroke="midnightblue" d="M627.227,-39.5C635.846,-39.5 644.845,-39.5 652.759,-39.5"/>
<polygon fill="midnightblue" stroke="midnightblue" points="627.003,-36.0001 617.003,-39.5 627.003,-43.0001 627.003,-36.0001"/>
</g>
<!-- Node8 -->
<g id="node8" class="node"><title>Node8</title>
<g id="a_node8"><a xlink:href="classhsmg__routines.html#ac8f9bca9624d5e550d70acabfa8aef73" target="_top" xlink:title="Sets up hybrid Schwarz multi&#45;grid preconditioner. ">
<polygon fill="white" stroke="black" points="304,-0.5 304,-30.5 420,-30.5 420,-0.5 304,-0.5"/>
<text text-anchor="start" x="312" y="-18.5" font-family="Helvetica,sans-Serif" font-size="10.00">hsmg_routines::hsmg</text>
<text text-anchor="middle" x="362" y="-7.5" font-family="Helvetica,sans-Serif" font-size="10.00">_setup</text>
</a>
</g>
</g>
<!-- Node7&#45;&gt;Node8 -->
<g id="edge7" class="edge"><title>Node7&#45;&gt;Node8</title>
<path fill="none" stroke="midnightblue" d="M278.311,-15.5C286.728,-15.5 295.277,-15.5 303.525,-15.5"/>
<polygon fill="midnightblue" stroke="midnightblue" points="278.137,-12.0001 268.136,-15.5 278.136,-19.0001 278.137,-12.0001"/>
</g>
<!-- Node8&#45;&gt;Node4 -->
<g id="edge8" class="edge"><title>Node8&#45;&gt;Node4</title>
<path fill="none" stroke="midnightblue" d="M430.236,-28.1067C439.072,-29.7634 447.825,-31.4047 455.82,-32.9037"/>
<polygon fill="midnightblue" stroke="midnightblue" points="430.735,-24.6394 420.261,-26.2365 429.445,-31.5195 430.735,-24.6394"/>
</g>
</g>
</svg>
