<?xml version="1.0" encoding="UTF-8" standalone="no"?>
<!DOCTYPE svg PUBLIC "-//W3C//DTD SVG 1.1//EN"
 "http://www.w3.org/Graphics/SVG/1.1/DTD/svg11.dtd">
<!-- Generated by graphviz version 2.38.0 (20140413.2041)
 -->
<!-- Title: hsmg_routines::hsmg_coarse_solve Pages: 1 -->
<svg width="1175pt" height="915pt"
 viewBox="0.00 0.00 1175.00 915.29" xmlns="http://www.w3.org/2000/svg" xmlns:xlink="http://www.w3.org/1999/xlink">
<g id="graph0" class="graph" transform="scale(1 1) rotate(0) translate(4 911.291)">
<title>hsmg_routines::hsmg_coarse_solve</title>
<polygon fill="white" stroke="none" points="-4,4 -4,-911.291 1171,-911.291 1171,4 -4,4"/>
<!-- Node1 -->
<g id="node1" class="node"><title>Node1</title>
<polygon fill="#bfbfbf" stroke="black" points="0,-854.291 0,-884.291 116,-884.291 116,-854.291 0,-854.291"/>
<text text-anchor="start" x="8" y="-872.291" font-family="Helvetica,sans-Serif" font-size="10.00">hsmg_routines::hsmg</text>
<text text-anchor="middle" x="58" y="-861.291" font-family="Helvetica,sans-Serif" font-size="10.00">_coarse_solve</text>
</g>
<!-- Node2 -->
<g id="node2" class="node"><title>Node2</title>
<g id="a_node2"><a xlink:href="classctimer.html#abcecbc845c8ee72e13a19eaa30b80d77" target="_top" xlink:title="ctimer::dnekclock">
<polygon fill="white" stroke="black" points="470.5,-859.791 470.5,-878.791 567.5,-878.791 567.5,-859.791 470.5,-859.791"/>
<text text-anchor="middle" x="519" y="-866.791" font-family="Helvetica,sans-Serif" font-size="10.00">ctimer::dnekclock</text>
</a>
</g>
</g>
<!-- Node1&#45;&gt;Node2 -->
<g id="edge1" class="edge"><title>Node1&#45;&gt;Node2</title>
<path fill="none" stroke="midnightblue" d="M116.205,-869.291C204.163,-869.291 371.693,-869.291 460.08,-869.291"/>
<polygon fill="midnightblue" stroke="midnightblue" points="460.197,-872.791 470.197,-869.291 460.197,-865.791 460.197,-872.791"/>
</g>
<!-- Node4 -->
<g id="node4" class="node"><title>Node4</title>
<g id="a_node4"><a xlink:href="comm__mpi_8F90.html#a4acb4d8e379294232e9219bec063d8f3" target="_top" xlink:title="nekgsync">
<polygon fill="white" stroke="black" points="947.5,-726.791 947.5,-745.791 1009.5,-745.791 1009.5,-726.791 947.5,-726.791"/>
<text text-anchor="middle" x="978.5" y="-733.791" font-family="Helvetica,sans-Serif" font-size="10.00">nekgsync</text>
</a>
</g>
</g>
<!-- Node1&#45;&gt;Node4 -->
<g id="edge3" class="edge"><title>Node1&#45;&gt;Node4</title>
<path fill="none" stroke="midnightblue" d="M116.075,-880.641C177.433,-891.838 277.967,-907.291 365.5,-907.291 365.5,-907.291 365.5,-907.291 685,-907.291 778.475,-907.291 810.282,-904.228 888,-852.291 925.527,-827.212 954.031,-781.168 967.991,-755.271"/>
<polygon fill="midnightblue" stroke="midnightblue" points="971.243,-756.604 972.768,-746.12 965.038,-753.365 971.243,-756.604"/>
</g>
<!-- Node6 -->
<g id="node6" class="node"><title>Node6</title>
<g id="a_node6"><a xlink:href="classpoisson.html#a1ab874c434e5694003e378739fb98c65" target="_top" xlink:title="poisson::spectral_solve">
<polygon fill="white" stroke="black" points="152,-650.791 152,-669.791 278,-669.791 278,-650.791 152,-650.791"/>
<text text-anchor="middle" x="215" y="-657.791" font-family="Helvetica,sans-Serif" font-size="10.00">poisson::spectral_solve</text>
</a>
</g>
</g>
<!-- Node1&#45;&gt;Node6 -->
<g id="edge5" class="edge"><title>Node1&#45;&gt;Node6</title>
<path fill="none" stroke="midnightblue" d="M70.1472,-854.26C98.0257,-816.669 170.683,-718.699 200.713,-678.207"/>
<polygon fill="midnightblue" stroke="midnightblue" points="203.612,-680.173 206.758,-670.056 197.99,-676.004 203.612,-680.173"/>
</g>
<!-- Node3 -->
<g id="node3" class="node"><title>Node3</title>
<g id="a_node3"><a xlink:href="mpi__dummy_8F90.html#ae6a5ef945f87c2c27849696b70f3af2a" target="_top" xlink:title="mpi_wtime">
<polygon fill="white" stroke="black" points="651,-859.791 651,-878.791 717,-878.791 717,-859.791 651,-859.791"/>
<text text-anchor="middle" x="684" y="-866.791" font-family="Helvetica,sans-Serif" font-size="10.00">mpi_wtime</text>
</a>
</g>
</g>
<!-- Node2&#45;&gt;Node3 -->
<g id="edge2" class="edge"><title>Node2&#45;&gt;Node3</title>
<path fill="none" stroke="midnightblue" d="M567.585,-869.291C590.704,-869.291 618.255,-869.291 640.64,-869.291"/>
<polygon fill="midnightblue" stroke="midnightblue" points="640.849,-872.791 650.849,-869.291 640.849,-865.791 640.849,-872.791"/>
</g>
<!-- Node5 -->
<g id="node5" class="node"><title>Node5</title>
<g id="a_node5"><a xlink:href="mpi__dummy_8F90.html#a070afe564196eb48413dbf1a9fbc99aa" target="_top" xlink:title="mpi_barrier">
<polygon fill="white" stroke="black" points="1083,-726.791 1083,-745.791 1153,-745.791 1153,-726.791 1083,-726.791"/>
<text text-anchor="middle" x="1118" y="-733.791" font-family="Helvetica,sans-Serif" font-size="10.00">mpi_barrier</text>
</a>
</g>
</g>
<!-- Node4&#45;&gt;Node5 -->
<g id="edge4" class="edge"><title>Node4&#45;&gt;Node5</title>
<path fill="none" stroke="midnightblue" d="M1009.67,-736.291C1028.07,-736.291 1051.91,-736.291 1072.45,-736.291"/>
<polygon fill="midnightblue" stroke="midnightblue" points="1072.54,-739.791 1082.54,-736.291 1072.54,-732.791 1072.54,-739.791"/>
</g>
<!-- Node6&#45;&gt;Node2 -->
<g id="edge8" class="edge"><title>Node6&#45;&gt;Node2</title>
<path fill="none" stroke="midnightblue" d="M219.356,-669.842C229.287,-696.681 261.181,-773.35 314,-812.291 337.17,-829.373 408.3,-846.881 460.062,-857.904"/>
<polygon fill="midnightblue" stroke="midnightblue" points="459.63,-861.39 470.136,-860.02 461.069,-854.539 459.63,-861.39"/>
</g>
<!-- Node7 -->
<g id="node7" class="node"><title>Node7</title>
<g id="a_node7"><a xlink:href="classparallel.html#ac36680315d0622d84df5d5baf3fb0acc" target="_top" xlink:title="parallel::lglel">
<polygon fill="white" stroke="black" points="941.5,-106.791 941.5,-125.791 1015.5,-125.791 1015.5,-106.791 941.5,-106.791"/>
<text text-anchor="middle" x="978.5" y="-113.791" font-family="Helvetica,sans-Serif" font-size="10.00">parallel::lglel</text>
</a>
</g>
</g>
<!-- Node6&#45;&gt;Node7 -->
<g id="edge6" class="edge"><title>Node6&#45;&gt;Node7</title>
<path fill="none" stroke="midnightblue" d="M215.829,-650.736C214.916,-569.819 219.164,-2.29095 518,-2.29095 518,-2.29095 518,-2.29095 685,-2.29095 776.017,-2.29095 806.113,10.4401 888,-29.2909 920.947,-45.2764 949.397,-78.0687 964.929,-98.5126"/>
<polygon fill="midnightblue" stroke="midnightblue" points="962.2,-100.708 970.949,-106.683 967.835,-96.5561 962.2,-100.708"/>
</g>
<!-- Node9 -->
<g id="node9" class="node"><title>Node9</title>
<g id="a_node9"><a xlink:href="classfft.html#a7c6e57fe0ec9d9886094d691087156fc" target="_top" xlink:title="Compute a number of 1D FFTs or DCTs. ">
<polygon fill="white" stroke="black" points="654.5,-68.7909 654.5,-87.7909 713.5,-87.7909 713.5,-68.7909 654.5,-68.7909"/>
<text text-anchor="middle" x="684" y="-75.7909" font-family="Helvetica,sans-Serif" font-size="10.00">fft::fft_r2r</text>
</a>
</g>
</g>
<!-- Node6&#45;&gt;Node9 -->
<g id="edge9" class="edge"><title>Node6&#45;&gt;Node9</title>
<path fill="none" stroke="midnightblue" d="M216.254,-650.722C217.869,-606.646 229.623,-420.339 314,-303.291 409.365,-170.999 472.387,-170.708 619,-99.2909 627.097,-95.3469 636.114,-91.8754 644.765,-88.9489"/>
<polygon fill="midnightblue" stroke="midnightblue" points="645.86,-92.2734 654.309,-85.8803 643.718,-85.6094 645.86,-92.2734"/>
</g>
<!-- Node10 -->
<g id="node10" class="node"><title>Node10</title>
<g id="a_node10"><a xlink:href="classfft.html#a66358c1a39eaf63e07eca4b8f822dd6a" target="_top" xlink:title="Global (parallel) transform of grid data. ">
<polygon fill="white" stroke="black" points="633.5,-498.791 633.5,-517.791 734.5,-517.791 734.5,-498.791 633.5,-498.791"/>
<text text-anchor="middle" x="684" y="-505.791" font-family="Helvetica,sans-Serif" font-size="10.00">fft::transpose_grid</text>
</a>
</g>
</g>
<!-- Node6&#45;&gt;Node10 -->
<g id="edge10" class="edge"><title>Node6&#45;&gt;Node10</title>
<path fill="none" stroke="midnightblue" d="M262.16,-650.757C332.681,-635.489 470.87,-602.793 583,-559.291 609.508,-549.007 638.281,-533.881 658.127,-522.771"/>
<polygon fill="midnightblue" stroke="midnightblue" points="659.868,-525.808 666.841,-517.83 656.416,-519.718 659.868,-525.808"/>
</g>
<!-- Node13 -->
<g id="node13" class="node"><title>Node13</title>
<g id="a_node13"><a xlink:href="classpoisson.html#ace48c9eb09141b029fd923de91c5cbbc" target="_top" xlink:title="one&#45;time setup of communication infrastructure for poisson_mod ">
<polygon fill="white" stroke="black" points="314,-487.291 314,-517.291 419,-517.291 419,-487.291 314,-487.291"/>
<text text-anchor="start" x="322" y="-505.291" font-family="Helvetica,sans-Serif" font-size="10.00">poisson::init_comm</text>
<text text-anchor="middle" x="366.5" y="-494.291" font-family="Helvetica,sans-Serif" font-size="10.00">_infrastructure</text>
</a>
</g>
</g>
<!-- Node6&#45;&gt;Node13 -->
<g id="edge13" class="edge"><title>Node6&#45;&gt;Node13</title>
<path fill="none" stroke="midnightblue" d="M225.352,-650.407C248.886,-625.535 311.038,-559.85 344.103,-524.905"/>
<polygon fill="midnightblue" stroke="midnightblue" points="346.746,-527.204 351.076,-517.535 341.661,-522.393 346.746,-527.204"/>
</g>
<!-- Node18 -->
<g id="node18" class="node"><title>Node18</title>
<g id="a_node18"><a xlink:href="classpoisson.html#ac42cd347ca63e3394556370be60d7360" target="_top" xlink:title="poisson::mesh_to_grid">
<polygon fill="white" stroke="black" points="623,-264.791 623,-283.791 745,-283.791 745,-264.791 623,-264.791"/>
<text text-anchor="middle" x="684" y="-271.791" font-family="Helvetica,sans-Serif" font-size="10.00">poisson::mesh_to_grid</text>
</a>
</g>
</g>
<!-- Node6&#45;&gt;Node18 -->
<g id="edge65" class="edge"><title>Node6&#45;&gt;Node18</title>
<path fill="none" stroke="midnightblue" d="M217.151,-650.656C222.101,-612.796 244.584,-472.013 314,-384.291 360.283,-325.803 384.395,-317.328 455,-293.291 505.863,-275.975 566.633,-271.654 612.639,-271.429"/>
<polygon fill="midnightblue" stroke="midnightblue" points="612.807,-274.929 622.813,-271.444 612.818,-267.929 612.807,-274.929"/>
</g>
<!-- Node27 -->
<g id="node27" class="node"><title>Node27</title>
<g id="a_node27"><a xlink:href="classpoisson.html#a5146b4e21e3dc2027ebeec50a7545e71" target="_top" xlink:title="poisson::grid_to_mesh">
<polygon fill="white" stroke="black" points="623,-302.791 623,-321.791 745,-321.791 745,-302.791 623,-302.791"/>
<text text-anchor="middle" x="684" y="-309.791" font-family="Helvetica,sans-Serif" font-size="10.00">poisson::grid_to_mesh</text>
</a>
</g>
</g>
<!-- Node6&#45;&gt;Node27 -->
<g id="edge68" class="edge"><title>Node6&#45;&gt;Node27</title>
<path fill="none" stroke="midnightblue" d="M219.455,-650.687C230.112,-621.981 264.755,-535.236 314,-477.291 365.119,-417.141 383.897,-403.577 455,-369.291 484.73,-354.955 567.945,-335.974 625.168,-323.944"/>
<polygon fill="midnightblue" stroke="midnightblue" points="626.103,-327.324 635.177,-321.855 624.673,-320.472 626.103,-327.324"/>
</g>
<!-- Node30 -->
<g id="node30" class="node"><title>Node30</title>
<g id="a_node30"><a xlink:href="xxt_8c.html#a4c650e6ff94275a07fdde3ccc8faf7c4" target="_top" xlink:title="sum">
<polygon fill="white" stroke="black" points="666.5,-726.791 666.5,-745.791 701.5,-745.791 701.5,-726.791 666.5,-726.791"/>
<text text-anchor="middle" x="684" y="-733.791" font-family="Helvetica,sans-Serif" font-size="10.00">sum</text>
</a>
</g>
</g>
<!-- Node6&#45;&gt;Node30 -->
<g id="edge67" class="edge"><title>Node6&#45;&gt;Node30</title>
<path fill="none" stroke="midnightblue" d="M241.85,-669.913C261.407,-676.837 289.063,-685.875 314,-691.291 440.165,-718.691 594.479,-730.747 655.905,-734.708"/>
<polygon fill="midnightblue" stroke="midnightblue" points="656.068,-738.225 666.267,-735.356 656.504,-731.239 656.068,-738.225"/>
</g>
<!-- Node35 -->
<g id="node35" class="node"><title>Node35</title>
<g id="a_node35"><a xlink:href="classpoisson.html#aa654d9e7cef9d27772d5b04bb61f43ca" target="_top" xlink:title="poisson::poisson_kernel">
<polygon fill="white" stroke="black" points="619,-650.791 619,-669.791 749,-669.791 749,-650.791 619,-650.791"/>
<text text-anchor="middle" x="684" y="-657.791" font-family="Helvetica,sans-Serif" font-size="10.00">poisson::poisson_kernel</text>
</a>
</g>
</g>
<!-- Node6&#45;&gt;Node35 -->
<g id="edge66" class="edge"><title>Node6&#45;&gt;Node35</title>
<path fill="none" stroke="midnightblue" d="M272.856,-669.806C286.307,-671.67 300.628,-673.341 314,-674.291 433.255,-682.766 463.733,-682.599 583,-674.291 593.337,-673.571 604.232,-672.437 614.876,-671.119"/>
<polygon fill="midnightblue" stroke="midnightblue" points="615.512,-674.565 624.977,-669.806 614.61,-667.624 615.512,-674.565"/>
</g>
<!-- Node37 -->
<g id="node37" class="node"><title>Node37</title>
<g id="a_node37"><a xlink:href="dssum_8F90.html#a0b9da6f19f8f42c7aa2fd9ca723a63ef" target="_top" xlink:title="Direct stiffness sum. ">
<polygon fill="white" stroke="black" points="343,-783.791 343,-802.791 390,-802.791 390,-783.791 343,-783.791"/>
<text text-anchor="middle" x="366.5" y="-790.791" font-family="Helvetica,sans-Serif" font-size="10.00">dssum</text>
</a>
</g>
</g>
<!-- Node6&#45;&gt;Node37 -->
<g id="edge62" class="edge"><title>Node6&#45;&gt;Node37</title>
<path fill="none" stroke="midnightblue" d="M226.155,-669.911C243.792,-686.553 281.33,-721.679 314,-750.291 324.301,-759.313 336.002,-769.117 345.645,-777.082"/>
<polygon fill="midnightblue" stroke="midnightblue" points="343.555,-779.895 353.502,-783.542 348,-774.488 343.555,-779.895"/>
</g>
<!-- Node8 -->
<g id="node8" class="node"><title>Node8</title>
<g id="a_node8"><a xlink:href="classmesh.html#a8b6a250925cdc576e3ff6f7b18dc88c4" target="_top" xlink:title="mesh::xyz_to_ieg">
<polygon fill="white" stroke="black" points="1069,-106.791 1069,-125.791 1167,-125.791 1167,-106.791 1069,-106.791"/>
<text text-anchor="middle" x="1118" y="-113.791" font-family="Helvetica,sans-Serif" font-size="10.00">mesh::xyz_to_ieg</text>
</a>
</g>
</g>
<!-- Node7&#45;&gt;Node8 -->
<g id="edge7" class="edge"><title>Node7&#45;&gt;Node8</title>
<path fill="none" stroke="midnightblue" d="M1015.63,-116.291C1028.88,-116.291 1044.24,-116.291 1058.93,-116.291"/>
<polygon fill="midnightblue" stroke="midnightblue" points="1058.96,-119.791 1068.96,-116.291 1058.96,-112.791 1058.96,-119.791"/>
</g>
<!-- Node11 -->
<g id="node11" class="node"><title>Node11</title>
<g id="a_node11"><a xlink:href="mpi__dummy_8F90.html#ac160db4315dd0998ac7f60dd94f35c0e" target="_top" xlink:title="mpi_comm_size">
<polygon fill="white" stroke="black" points="790.5,-536.791 790.5,-555.791 882.5,-555.791 882.5,-536.791 790.5,-536.791"/>
<text text-anchor="middle" x="836.5" y="-543.791" font-family="Helvetica,sans-Serif" font-size="10.00">mpi_comm_size</text>
</a>
</g>
</g>
<!-- Node10&#45;&gt;Node11 -->
<g id="edge11" class="edge"><title>Node10&#45;&gt;Node11</title>
<path fill="none" stroke="midnightblue" d="M722.978,-517.88C742.659,-522.849 766.891,-528.968 787.821,-534.252"/>
<polygon fill="midnightblue" stroke="midnightblue" points="787.243,-537.716 797.796,-536.771 788.957,-530.929 787.243,-537.716"/>
</g>
<!-- Node12 -->
<g id="node12" class="node"><title>Node12</title>
<g id="a_node12"><a xlink:href="navier1_8F90.html#a17c0ecae12cc5c6096939885da90ad2b" target="_top" xlink:title="transpose">
<polygon fill="white" stroke="black" points="804.5,-498.791 804.5,-517.791 868.5,-517.791 868.5,-498.791 804.5,-498.791"/>
<text text-anchor="middle" x="836.5" y="-505.791" font-family="Helvetica,sans-Serif" font-size="10.00">transpose</text>
</a>
</g>
</g>
<!-- Node10&#45;&gt;Node12 -->
<g id="edge12" class="edge"><title>Node10&#45;&gt;Node12</title>
<path fill="none" stroke="midnightblue" d="M734.696,-508.291C753.968,-508.291 775.776,-508.291 794.167,-508.291"/>
<polygon fill="midnightblue" stroke="midnightblue" points="794.274,-511.791 804.273,-508.291 794.273,-504.791 794.274,-511.791"/>
</g>
<!-- Node13&#45;&gt;Node4 -->
<g id="edge18" class="edge"><title>Node13&#45;&gt;Node4</title>
<path fill="none" stroke="midnightblue" d="M378.911,-517.503C394.03,-536.409 422.599,-568.037 455,-583.291 630.67,-665.993 715.259,-552.635 888,-641.291 922.75,-659.126 951.281,-696.015 966.213,-718.212"/>
<polygon fill="midnightblue" stroke="midnightblue" points="963.368,-720.257 971.758,-726.727 969.234,-716.437 963.368,-720.257"/>
</g>
<!-- Node13&#45;&gt;Node11 -->
<g id="edge15" class="edge"><title>Node13&#45;&gt;Node11</title>
<path fill="none" stroke="midnightblue" d="M384.078,-517.37C400.646,-531.335 427.54,-551.136 455,-559.291 569.375,-593.259 711.635,-572.861 785.59,-557.877"/>
<polygon fill="midnightblue" stroke="midnightblue" points="786.483,-561.266 795.562,-555.805 785.059,-554.412 786.483,-561.266"/>
</g>
<!-- Node14 -->
<g id="node14" class="node"><title>Node14</title>
<g id="a_node14"><a xlink:href="mpi__dummy_8F90.html#aabc99956c6af4e66cc75f4247046594c" target="_top" xlink:title="mpi_comm_rank">
<polygon fill="white" stroke="black" points="472,-378.791 472,-397.791 566,-397.791 566,-378.791 472,-378.791"/>
<text text-anchor="middle" x="519" y="-385.791" font-family="Helvetica,sans-Serif" font-size="10.00">mpi_comm_rank</text>
</a>
</g>
</g>
<!-- Node13&#45;&gt;Node14 -->
<g id="edge14" class="edge"><title>Node13&#45;&gt;Node14</title>
<path fill="none" stroke="midnightblue" d="M377.499,-487.109C392.087,-466.133 421.177,-428.482 455,-407.291 458.335,-405.201 461.914,-403.33 465.61,-401.656"/>
<polygon fill="midnightblue" stroke="midnightblue" points="466.998,-404.87 474.968,-397.89 464.384,-398.377 466.998,-404.87"/>
</g>
<!-- Node15 -->
<g id="node15" class="node"><title>Node15</title>
<g id="a_node15"><a xlink:href="mpi__dummy_8F90.html#a77bc397106150d114482c98abefed0af" target="_top" xlink:title="mpi_comm_split">
<polygon fill="white" stroke="black" points="473,-492.791 473,-511.791 565,-511.791 565,-492.791 473,-492.791"/>
<text text-anchor="middle" x="519" y="-499.791" font-family="Helvetica,sans-Serif" font-size="10.00">mpi_comm_split</text>
</a>
</g>
</g>
<!-- Node13&#45;&gt;Node15 -->
<g id="edge16" class="edge"><title>Node13&#45;&gt;Node15</title>
<path fill="none" stroke="midnightblue" d="M419.294,-502.291C433.251,-502.291 448.406,-502.291 462.554,-502.291"/>
<polygon fill="midnightblue" stroke="midnightblue" points="462.647,-505.791 472.647,-502.291 462.647,-498.791 462.647,-505.791"/>
</g>
<!-- Node16 -->
<g id="node16" class="node"><title>Node16</title>
<g id="a_node16"><a xlink:href="mpi__dummy_8F90.html#aa2326aa8aaf5da5197cd924e92ee2a1a" target="_top" xlink:title="mpi_comm_free">
<polygon fill="white" stroke="black" points="473,-416.791 473,-435.791 565,-435.791 565,-416.791 473,-416.791"/>
<text text-anchor="middle" x="519" y="-423.791" font-family="Helvetica,sans-Serif" font-size="10.00">mpi_comm_free</text>
</a>
</g>
</g>
<!-- Node13&#45;&gt;Node16 -->
<g id="edge17" class="edge"><title>Node13&#45;&gt;Node16</title>
<path fill="none" stroke="midnightblue" d="M387.056,-487.214C404.193,-474.589 430.175,-456.831 455,-445.291 459.921,-443.003 465.184,-440.911 470.494,-439.019"/>
<polygon fill="midnightblue" stroke="midnightblue" points="471.661,-442.32 480.038,-435.833 469.444,-435.68 471.661,-442.32"/>
</g>
<!-- Node17 -->
<g id="node17" class="node"><title>Node17</title>
<g id="a_node17"><a xlink:href="classpoisson.html#af15535fb56b2a956fc12fd7887ad6ef0" target="_top" xlink:title="poisson::transpose_test">
<polygon fill="white" stroke="black" points="455,-454.791 455,-473.791 583,-473.791 583,-454.791 455,-454.791"/>
<text text-anchor="middle" x="519" y="-461.791" font-family="Helvetica,sans-Serif" font-size="10.00">poisson::transpose_test</text>
</a>
</g>
</g>
<!-- Node13&#45;&gt;Node17 -->
<g id="edge19" class="edge"><title>Node13&#45;&gt;Node17</title>
<path fill="none" stroke="midnightblue" d="M419.294,-489.214C435.911,-485.018 454.225,-480.394 470.518,-476.28"/>
<polygon fill="midnightblue" stroke="midnightblue" points="471.529,-479.634 480.368,-473.793 469.816,-472.847 471.529,-479.634"/>
</g>
<!-- Node26 -->
<g id="node26" class="node"><title>Node26</title>
<g id="a_node26"><a xlink:href="classpoisson.html#a54094b5009a26b94189d1f7dc4e3010d" target="_top" xlink:title="poisson::shuffle_test">
<polygon fill="white" stroke="black" points="463,-302.791 463,-321.791 575,-321.791 575,-302.791 463,-302.791"/>
<text text-anchor="middle" x="519" y="-309.791" font-family="Helvetica,sans-Serif" font-size="10.00">poisson::shuffle_test</text>
</a>
</g>
</g>
<!-- Node13&#45;&gt;Node26 -->
<g id="edge35" class="edge"><title>Node13&#45;&gt;Node26</title>
<path fill="none" stroke="midnightblue" d="M375.812,-487.066C390.179,-461.412 421.363,-408.533 455,-369.291 467.914,-354.225 484.653,-339.252 497.631,-328.436"/>
<polygon fill="midnightblue" stroke="midnightblue" points="500.013,-331.009 505.538,-321.969 495.582,-325.59 500.013,-331.009"/>
</g>
<!-- Node29 -->
<g id="node29" class="node"><title>Node29</title>
<g id="a_node29"><a xlink:href="classpoisson.html#a557b9bfb94e35c8716319d8d8145cacc" target="_top" xlink:title="poisson::cos_test">
<polygon fill="white" stroke="black" points="470,-530.791 470,-549.791 568,-549.791 568,-530.791 470,-530.791"/>
<text text-anchor="middle" x="519" y="-537.791" font-family="Helvetica,sans-Serif" font-size="10.00">poisson::cos_test</text>
</a>
</g>
</g>
<!-- Node13&#45;&gt;Node29 -->
<g id="edge48" class="edge"><title>Node13&#45;&gt;Node29</title>
<path fill="none" stroke="midnightblue" d="M419.294,-515.368C435.911,-519.564 454.225,-524.188 470.518,-528.302"/>
<polygon fill="midnightblue" stroke="midnightblue" points="469.816,-531.735 480.368,-530.789 471.529,-524.948 469.816,-531.735"/>
</g>
<!-- Node17&#45;&gt;Node7 -->
<g id="edge20" class="edge"><title>Node17&#45;&gt;Node7</title>
<path fill="none" stroke="midnightblue" d="M571.413,-454.707C575.79,-452.232 579.771,-449.143 583,-445.291 670.692,-340.689 527.81,-241.857 619,-140.291 659.333,-95.3692 827.81,-97.6118 888,-102.291 901.994,-103.379 917.109,-105.41 930.862,-107.594"/>
<polygon fill="midnightblue" stroke="midnightblue" points="930.636,-111.104 941.073,-109.281 931.777,-104.198 930.636,-111.104"/>
</g>
<!-- Node17&#45;&gt;Node10 -->
<g id="edge21" class="edge"><title>Node17&#45;&gt;Node10</title>
<path fill="none" stroke="midnightblue" d="M555.369,-473.838C579.505,-480.354 611.691,-489.042 637.702,-496.063"/>
<polygon fill="midnightblue" stroke="midnightblue" points="637.134,-499.535 647.7,-498.762 638.958,-492.777 637.134,-499.535"/>
</g>
<!-- Node17&#45;&gt;Node18 -->
<g id="edge22" class="edge"><title>Node17&#45;&gt;Node18</title>
<path fill="none" stroke="midnightblue" d="M570.357,-454.635C575.056,-452.182 579.398,-449.117 583,-445.291 630.587,-394.742 571.304,-343.737 619,-293.291 620.374,-291.838 621.853,-290.495 623.417,-289.253"/>
<polygon fill="midnightblue" stroke="midnightblue" points="625.318,-292.191 631.851,-283.85 621.543,-286.297 625.318,-292.191"/>
</g>
<!-- Node18&#45;&gt;Node7 -->
<g id="edge23" class="edge"><title>Node18&#45;&gt;Node7</title>
<path fill="none" stroke="midnightblue" d="M691.839,-264.646C706.554,-244.604 743.285,-198.247 785,-173.291 830.773,-145.908 890.609,-130.894 931.339,-123.247"/>
<polygon fill="midnightblue" stroke="midnightblue" points="932.042,-126.677 941.262,-121.459 930.8,-119.788 932.042,-126.677"/>
</g>
<!-- Node19 -->
<g id="node19" class="node"><title>Node19</title>
<g id="a_node19"><a xlink:href="classparallel.html#a07e279fd1cc6f4e9189bcaad37a0d3b6" target="_top" xlink:title="parallel::gllnid">
<polygon fill="white" stroke="black" points="938.5,-420.791 938.5,-439.791 1018.5,-439.791 1018.5,-420.791 938.5,-420.791"/>
<text text-anchor="middle" x="978.5" y="-427.791" font-family="Helvetica,sans-Serif" font-size="10.00">parallel::gllnid</text>
</a>
</g>
</g>
<!-- Node18&#45;&gt;Node19 -->
<g id="edge24" class="edge"><title>Node18&#45;&gt;Node19</title>
<path fill="none" stroke="midnightblue" d="M733.847,-283.826C739.346,-286.29 744.558,-289.391 749,-293.291 778.603,-319.285 755.326,-348.378 785,-374.291 795.991,-383.889 875.182,-404.941 928.509,-418.324"/>
<polygon fill="midnightblue" stroke="midnightblue" points="927.922,-421.784 938.472,-420.81 929.617,-414.993 927.922,-421.784"/>
</g>
<!-- Node21 -->
<g id="node21" class="node"><title>Node21</title>
<g id="a_node21"><a xlink:href="classpoisson.html#a90f49ac199784d3bf15825d4dff8a5e5" target="_top" xlink:title="poisson::init_mesh\l_to_grid">
<polygon fill="white" stroke="black" points="785,-335.291 785,-365.291 888,-365.291 888,-335.291 785,-335.291"/>
<text text-anchor="start" x="793" y="-353.291" font-family="Helvetica,sans-Serif" font-size="10.00">poisson::init_mesh</text>
<text text-anchor="middle" x="836.5" y="-342.291" font-family="Helvetica,sans-Serif" font-size="10.00">_to_grid</text>
</a>
</g>
</g>
<!-- Node18&#45;&gt;Node21 -->
<g id="edge26" class="edge"><title>Node18&#45;&gt;Node21</title>
<path fill="none" stroke="midnightblue" d="M723.92,-283.853C732.363,-286.473 741.119,-289.623 749,-293.291 769.966,-303.049 791.694,-317.385 808.128,-329.239"/>
<polygon fill="midnightblue" stroke="midnightblue" points="806.076,-332.074 816.207,-335.173 810.22,-326.433 806.076,-332.074"/>
</g>
<!-- Node23 -->
<g id="node23" class="node"><title>Node23</title>
<g id="a_node23"><a xlink:href="mpi__dummy_8F90.html#a4c6ff99fbf164179b98c120547561b30" target="_top" xlink:title="mpi_isend">
<polygon fill="white" stroke="black" points="804,-220.791 804,-239.791 869,-239.791 869,-220.791 804,-220.791"/>
<text text-anchor="middle" x="836.5" y="-227.791" font-family="Helvetica,sans-Serif" font-size="10.00">mpi_isend</text>
</a>
</g>
</g>
<!-- Node18&#45;&gt;Node23 -->
<g id="edge32" class="edge"><title>Node18&#45;&gt;Node23</title>
<path fill="none" stroke="midnightblue" d="M717.656,-264.744C740.147,-258.168 770.207,-249.38 794.338,-242.325"/>
<polygon fill="midnightblue" stroke="midnightblue" points="795.323,-245.684 803.939,-239.518 793.358,-238.965 795.323,-245.684"/>
</g>
<!-- Node24 -->
<g id="node24" class="node"><title>Node24</title>
<g id="a_node24"><a xlink:href="mpi__dummy_8F90.html#adf2a055de10dc93a671a453c7190fd10" target="_top" xlink:title="mpi_irecv">
<polygon fill="white" stroke="black" points="805.5,-182.791 805.5,-201.791 867.5,-201.791 867.5,-182.791 805.5,-182.791"/>
<text text-anchor="middle" x="836.5" y="-189.791" font-family="Helvetica,sans-Serif" font-size="10.00">mpi_irecv</text>
</a>
</g>
</g>
<!-- Node18&#45;&gt;Node24 -->
<g id="edge33" class="edge"><title>Node18&#45;&gt;Node24</title>
<path fill="none" stroke="midnightblue" d="M698.399,-264.611C717.12,-251.379 752.473,-227.448 785,-211.291 789.026,-209.291 793.316,-207.374 797.631,-205.578"/>
<polygon fill="midnightblue" stroke="midnightblue" points="799.016,-208.794 807.023,-201.856 796.437,-202.286 799.016,-208.794"/>
</g>
<!-- Node25 -->
<g id="node25" class="node"><title>Node25</title>
<g id="a_node25"><a xlink:href="mpi__dummy_8F90.html#a90b9c69c5b43af73d8821c11b5d8f22d" target="_top" xlink:title="mpi_wait">
<polygon fill="white" stroke="black" points="807.5,-258.791 807.5,-277.791 865.5,-277.791 865.5,-258.791 807.5,-258.791"/>
<text text-anchor="middle" x="836.5" y="-265.791" font-family="Helvetica,sans-Serif" font-size="10.00">mpi_wait</text>
</a>
</g>
</g>
<!-- Node18&#45;&gt;Node25 -->
<g id="edge34" class="edge"><title>Node18&#45;&gt;Node25</title>
<path fill="none" stroke="midnightblue" d="M745.347,-271.885C762.755,-271.191 781.272,-270.453 796.967,-269.827"/>
<polygon fill="midnightblue" stroke="midnightblue" points="797.48,-273.31 807.333,-269.414 797.201,-266.315 797.48,-273.31"/>
</g>
<!-- Node20 -->
<g id="node20" class="node"><title>Node20</title>
<g id="a_node20"><a xlink:href="classmesh.html#a383626b86a123c489b00681fcb13d503" target="_top" xlink:title="mesh::ieg_to_xyz">
<polygon fill="white" stroke="black" points="1069,-439.791 1069,-458.791 1167,-458.791 1167,-439.791 1069,-439.791"/>
<text text-anchor="middle" x="1118" y="-446.791" font-family="Helvetica,sans-Serif" font-size="10.00">mesh::ieg_to_xyz</text>
</a>
</g>
</g>
<!-- Node19&#45;&gt;Node20 -->
<g id="edge25" class="edge"><title>Node19&#45;&gt;Node20</title>
<path fill="none" stroke="midnightblue" d="M1018.53,-435.685C1031,-437.407 1045.08,-439.352 1058.61,-441.222"/>
<polygon fill="midnightblue" stroke="midnightblue" points="1058.42,-444.73 1068.81,-442.632 1059.38,-437.796 1058.42,-444.73"/>
</g>
<!-- Node21&#45;&gt;Node4 -->
<g id="edge31" class="edge"><title>Node21&#45;&gt;Node4</title>
<path fill="none" stroke="midnightblue" d="M842.959,-365.305C852.226,-390.793 871.624,-444.157 888,-489.291 918.768,-574.091 955.416,-675.293 970.493,-716.936"/>
<polygon fill="midnightblue" stroke="midnightblue" points="967.227,-718.196 973.922,-726.407 973.809,-715.813 967.227,-718.196"/>
</g>
<!-- Node21&#45;&gt;Node7 -->
<g id="edge27" class="edge"><title>Node21&#45;&gt;Node7</title>
<path fill="none" stroke="midnightblue" d="M869.675,-335.264C876.329,-331.099 882.866,-326.097 888,-320.291 938.01,-263.741 963.789,-174.829 973.215,-135.781"/>
<polygon fill="midnightblue" stroke="midnightblue" points="976.644,-136.488 975.491,-125.956 969.824,-134.908 976.644,-136.488"/>
</g>
<!-- Node21&#45;&gt;Node19 -->
<g id="edge28" class="edge"><title>Node21&#45;&gt;Node19</title>
<path fill="none" stroke="midnightblue" d="M863.666,-365.358C871.558,-370.03 880.195,-375.271 888,-380.291 904.384,-390.828 907.115,-395.577 924,-405.291 930.782,-409.192 938.274,-412.989 945.451,-416.397"/>
<polygon fill="midnightblue" stroke="midnightblue" points="944.399,-419.767 954.946,-420.777 947.331,-413.41 944.399,-419.767"/>
</g>
<!-- Node21&#45;&gt;Node20 -->
<g id="edge29" class="edge"><title>Node21&#45;&gt;Node20</title>
<path fill="none" stroke="midnightblue" d="M888.304,-364.29C928.108,-375.702 984.651,-392.891 1033,-411.291 1051.71,-418.41 1072.18,-427.641 1088.23,-435.222"/>
<polygon fill="midnightblue" stroke="midnightblue" points="1087.07,-438.544 1097.6,-439.695 1090.08,-432.228 1087.07,-438.544"/>
</g>
<!-- Node22 -->
<g id="node22" class="node"><title>Node22</title>
<g id="a_node22"><a xlink:href="classpoisson.html#a7f3f4d5527547189ab948995a746db9f" target="_top" xlink:title="poisson::xyz_to_pid">
<polygon fill="white" stroke="black" points="924,-340.791 924,-359.791 1033,-359.791 1033,-340.791 924,-340.791"/>
<text text-anchor="middle" x="978.5" y="-347.791" font-family="Helvetica,sans-Serif" font-size="10.00">poisson::xyz_to_pid</text>
</a>
</g>
</g>
<!-- Node21&#45;&gt;Node22 -->
<g id="edge30" class="edge"><title>Node21&#45;&gt;Node22</title>
<path fill="none" stroke="midnightblue" d="M888.043,-350.291C896.375,-350.291 905.106,-350.291 913.711,-350.291"/>
<polygon fill="midnightblue" stroke="midnightblue" points="913.723,-353.791 923.723,-350.291 913.723,-346.791 913.723,-353.791"/>
</g>
<!-- Node26&#45;&gt;Node7 -->
<g id="edge36" class="edge"><title>Node26&#45;&gt;Node7</title>
<path fill="none" stroke="midnightblue" d="M520.218,-302.692C521.678,-263.908 532.904,-118.054 619,-59.2909 717.764,8.11868 773.119,-31.1137 888,-64.2909 913.729,-71.7213 939.831,-88.122 957.154,-100.531"/>
<polygon fill="midnightblue" stroke="midnightblue" points="955.239,-103.468 965.364,-106.588 959.395,-97.835 955.239,-103.468"/>
</g>
<!-- Node26&#45;&gt;Node9 -->
<g id="edge37" class="edge"><title>Node26&#45;&gt;Node9</title>
<path fill="none" stroke="midnightblue" d="M524.43,-302.639C543.136,-261.92 614.878,-106.089 619,-102.291 626.254,-95.6068 635.545,-90.733 644.786,-87.1986"/>
<polygon fill="midnightblue" stroke="midnightblue" points="645.956,-90.4977 654.309,-83.9806 643.715,-83.8661 645.956,-90.4977"/>
</g>
<!-- Node26&#45;&gt;Node10 -->
<g id="edge38" class="edge"><title>Node26&#45;&gt;Node10</title>
<path fill="none" stroke="midnightblue" d="M532.315,-322.097C545.557,-332.936 566.878,-351.257 583,-369.291 618.98,-409.536 654.232,-462.625 671.685,-490.088"/>
<polygon fill="midnightblue" stroke="midnightblue" points="668.798,-492.072 677.088,-498.669 674.722,-488.342 668.798,-492.072"/>
</g>
<!-- Node26&#45;&gt;Node18 -->
<g id="edge39" class="edge"><title>Node26&#45;&gt;Node18</title>
<path fill="none" stroke="midnightblue" d="M561.132,-302.702C582.738,-297.665 609.409,-291.447 632.286,-286.114"/>
<polygon fill="midnightblue" stroke="midnightblue" points="633.22,-289.49 642.164,-283.811 631.63,-282.673 633.22,-289.49"/>
</g>
<!-- Node26&#45;&gt;Node27 -->
<g id="edge40" class="edge"><title>Node26&#45;&gt;Node27</title>
<path fill="none" stroke="midnightblue" d="M575.184,-312.291C587.162,-312.291 599.989,-312.291 612.467,-312.291"/>
<polygon fill="midnightblue" stroke="midnightblue" points="612.84,-315.791 622.84,-312.291 612.84,-308.791 612.84,-315.791"/>
</g>
<!-- Node27&#45;&gt;Node7 -->
<g id="edge41" class="edge"><title>Node27&#45;&gt;Node7</title>
<path fill="none" stroke="midnightblue" d="M745.251,-318.909C788.619,-320.546 846.543,-315.994 888,-287.291 940.929,-250.645 964.822,-172.691 973.45,-136.072"/>
<polygon fill="midnightblue" stroke="midnightblue" points="976.908,-136.646 975.653,-126.125 970.073,-135.132 976.908,-136.646"/>
</g>
<!-- Node27&#45;&gt;Node19 -->
<g id="edge44" class="edge"><title>Node27&#45;&gt;Node19</title>
<path fill="none" stroke="midnightblue" d="M691.649,-322.024C706.005,-342.146 742.093,-388.123 785,-408.291 830.228,-429.55 887.794,-433.543 928.144,-433.151"/>
<polygon fill="midnightblue" stroke="midnightblue" points="928.34,-436.648 938.271,-432.958 928.206,-429.649 928.34,-436.648"/>
</g>
<!-- Node27&#45;&gt;Node23 -->
<g id="edge45" class="edge"><title>Node27&#45;&gt;Node23</title>
<path fill="none" stroke="midnightblue" d="M729.918,-302.704C736.617,-300.231 743.209,-297.142 749,-293.291 770.04,-279.3 764.472,-264.023 785,-249.291 787.992,-247.144 791.256,-245.208 794.638,-243.47"/>
<polygon fill="midnightblue" stroke="midnightblue" points="796.107,-246.646 803.759,-239.318 793.207,-240.275 796.107,-246.646"/>
</g>
<!-- Node27&#45;&gt;Node24 -->
<g id="edge46" class="edge"><title>Node27&#45;&gt;Node24</title>
<path fill="none" stroke="midnightblue" d="M733.864,-302.775C739.36,-300.308 744.567,-297.201 749,-293.291 778.849,-266.961 756.108,-238.668 785,-211.291 788.302,-208.162 792.169,-205.537 796.267,-203.336"/>
<polygon fill="midnightblue" stroke="midnightblue" points="797.811,-206.479 805.478,-199.167 794.925,-200.102 797.811,-206.479"/>
</g>
<!-- Node27&#45;&gt;Node25 -->
<g id="edge47" class="edge"><title>Node27&#45;&gt;Node25</title>
<path fill="none" stroke="midnightblue" d="M717.656,-302.744C741.211,-295.857 773.068,-286.544 797.721,-279.336"/>
<polygon fill="midnightblue" stroke="midnightblue" points="798.843,-282.654 807.46,-276.489 796.879,-275.936 798.843,-282.654"/>
</g>
<!-- Node28 -->
<g id="node28" class="node"><title>Node28</title>
<g id="a_node28"><a xlink:href="classparallel.html#a9a8fe6b8e5cb33426f1ebc5d75ae256f" target="_top" xlink:title="parallel::gllel">
<polygon fill="white" stroke="black" points="941.5,-459.791 941.5,-478.791 1015.5,-478.791 1015.5,-459.791 941.5,-459.791"/>
<text text-anchor="middle" x="978.5" y="-466.791" font-family="Helvetica,sans-Serif" font-size="10.00">parallel::gllel</text>
</a>
</g>
</g>
<!-- Node27&#45;&gt;Node28 -->
<g id="edge42" class="edge"><title>Node27&#45;&gt;Node28</title>
<path fill="none" stroke="midnightblue" d="M689.742,-321.839C701.939,-345.306 736.853,-405.95 785,-434.291 829.932,-460.739 890.186,-468.054 931.236,-469.672"/>
<polygon fill="midnightblue" stroke="midnightblue" points="931.138,-473.17 941.238,-469.968 931.346,-466.173 931.138,-473.17"/>
</g>
<!-- Node28&#45;&gt;Node20 -->
<g id="edge43" class="edge"><title>Node28&#45;&gt;Node20</title>
<path fill="none" stroke="midnightblue" d="M1015.63,-464.036C1028.88,-462.108 1044.24,-459.874 1058.93,-457.738"/>
<polygon fill="midnightblue" stroke="midnightblue" points="1059.57,-461.182 1068.96,-456.279 1058.56,-454.254 1059.57,-461.182"/>
</g>
<!-- Node29&#45;&gt;Node7 -->
<g id="edge49" class="edge"><title>Node29&#45;&gt;Node7</title>
<path fill="none" stroke="midnightblue" d="M568.295,-532.237C573.879,-529.543 578.997,-525.985 583,-521.291 660.42,-430.524 558.695,-358.227 619,-255.291 665.685,-175.603 698.532,-162.74 785,-130.291 832.619,-112.421 891.443,-110.82 931.445,-112.478"/>
<polygon fill="midnightblue" stroke="midnightblue" points="931.281,-115.974 941.443,-112.977 931.63,-108.983 931.281,-115.974"/>
</g>
<!-- Node29&#45;&gt;Node9 -->
<g id="edge51" class="edge"><title>Node29&#45;&gt;Node9</title>
<path fill="none" stroke="midnightblue" d="M568.164,-532.536C573.842,-529.802 579.02,-526.153 583,-521.291 636.874,-455.488 582.182,-216.952 619,-140.291 628.04,-121.467 645.341,-105.257 659.677,-94.1371"/>
<polygon fill="midnightblue" stroke="midnightblue" points="662.161,-96.6536 668.12,-87.8936 657.999,-91.0253 662.161,-96.6536"/>
</g>
<!-- Node29&#45;&gt;Node10 -->
<g id="edge52" class="edge"><title>Node29&#45;&gt;Node10</title>
<path fill="none" stroke="midnightblue" d="M568.024,-530.863C585.775,-527.378 606.091,-523.39 624.658,-519.745"/>
<polygon fill="midnightblue" stroke="midnightblue" points="625.336,-523.178 634.474,-517.818 623.987,-516.31 625.336,-523.178"/>
</g>
<!-- Node29&#45;&gt;Node18 -->
<g id="edge58" class="edge"><title>Node29&#45;&gt;Node18</title>
<path fill="none" stroke="midnightblue" d="M568.199,-532.154C573.798,-529.473 578.945,-525.94 583,-521.291 650.433,-443.978 551.4,-370.458 619,-293.291 620.155,-291.972 621.397,-290.743 622.712,-289.598"/>
<polygon fill="midnightblue" stroke="midnightblue" points="624.703,-292.476 630.936,-283.908 620.721,-286.719 624.703,-292.476"/>
</g>
<!-- Node29&#45;&gt;Node20 -->
<g id="edge50" class="edge"><title>Node29&#45;&gt;Node20</title>
<path fill="none" stroke="midnightblue" d="M556.117,-549.803C622.74,-565.802 769.037,-593.703 888,-565.291 969.866,-545.739 1055.57,-491.902 1094.9,-465.008"/>
<polygon fill="midnightblue" stroke="midnightblue" points="1097.21,-467.664 1103.44,-459.091 1093.23,-461.91 1097.21,-467.664"/>
</g>
<!-- Node29&#45;&gt;Node27 -->
<g id="edge61" class="edge"><title>Node29&#45;&gt;Node27</title>
<path fill="none" stroke="midnightblue" d="M567.666,-530.69C573.213,-528.237 578.49,-525.157 583,-521.291 643.423,-469.491 670.181,-372.915 679.219,-331.719"/>
<polygon fill="midnightblue" stroke="midnightblue" points="682.659,-332.366 681.27,-321.862 675.806,-330.939 682.659,-332.366"/>
</g>
<!-- Node29&#45;&gt;Node30 -->
<g id="edge53" class="edge"><title>Node29&#45;&gt;Node30</title>
<path fill="none" stroke="midnightblue" d="M525.81,-549.94C540.123,-573.348 578.846,-634.516 619,-679.291 632.364,-694.193 649.357,-709.174 662.473,-720.036"/>
<polygon fill="midnightblue" stroke="midnightblue" points="660.492,-722.936 670.456,-726.536 664.912,-717.508 660.492,-722.936"/>
</g>
<!-- Node29&#45;&gt;Node35 -->
<g id="edge59" class="edge"><title>Node29&#45;&gt;Node35</title>
<path fill="none" stroke="midnightblue" d="M533.063,-549.908C561.08,-570.534 627.176,-619.193 661.487,-644.453"/>
<polygon fill="midnightblue" stroke="midnightblue" points="659.746,-647.518 669.874,-650.628 663.896,-641.881 659.746,-647.518"/>
</g>
<!-- Node31 -->
<g id="node31" class="node"><title>Node31</title>
<g id="a_node31"><a xlink:href="comm_8h.html#a33c610b70409697426693f5d98a8e084" target="_top" xlink:title="comm_isend">
<polygon fill="white" stroke="black" points="798.5,-802.791 798.5,-821.791 874.5,-821.791 874.5,-802.791 798.5,-802.791"/>
<text text-anchor="middle" x="836.5" y="-809.791" font-family="Helvetica,sans-Serif" font-size="10.00">comm_isend</text>
</a>
</g>
</g>
<!-- Node30&#45;&gt;Node31 -->
<g id="edge54" class="edge"><title>Node30&#45;&gt;Node31</title>
<path fill="none" stroke="midnightblue" d="M700.185,-745.956C719.441,-757.974 753.887,-778.683 785,-793.291 789.167,-795.247 793.595,-797.153 798.03,-798.955"/>
<polygon fill="midnightblue" stroke="midnightblue" points="797.064,-802.335 807.652,-802.714 799.611,-795.815 797.064,-802.335"/>
</g>
<!-- Node32 -->
<g id="node32" class="node"><title>Node32</title>
<g id="a_node32"><a xlink:href="comm_8h.html#a61f3037ecf23cd5609e3eac2ce0e1b01" target="_top" xlink:title="comm_recv">
<polygon fill="white" stroke="black" points="801,-764.791 801,-783.791 872,-783.791 872,-764.791 801,-764.791"/>
<text text-anchor="middle" x="836.5" y="-771.791" font-family="Helvetica,sans-Serif" font-size="10.00">comm_recv</text>
</a>
</g>
</g>
<!-- Node30&#45;&gt;Node32 -->
<g id="edge55" class="edge"><title>Node30&#45;&gt;Node32</title>
<path fill="none" stroke="midnightblue" d="M701.681,-740.503C723.065,-745.902 760.964,-755.471 790.983,-763.051"/>
<polygon fill="midnightblue" stroke="midnightblue" points="790.274,-766.481 800.826,-765.536 791.987,-759.694 790.274,-766.481"/>
</g>
<!-- Node33 -->
<g id="node33" class="node"><title>Node33</title>
<g id="a_node33"><a xlink:href="comm_8h.html#aadc6a8cdf4984083417952ebfbc0ee00" target="_top" xlink:title="comm_send">
<polygon fill="white" stroke="black" points="799.5,-726.791 799.5,-745.791 873.5,-745.791 873.5,-726.791 799.5,-726.791"/>
<text text-anchor="middle" x="836.5" y="-733.791" font-family="Helvetica,sans-Serif" font-size="10.00">comm_send</text>
</a>
</g>
</g>
<!-- Node30&#45;&gt;Node33 -->
<g id="edge56" class="edge"><title>Node30&#45;&gt;Node33</title>
<path fill="none" stroke="midnightblue" d="M701.681,-736.291C722.63,-736.291 759.428,-736.291 789.14,-736.291"/>
<polygon fill="midnightblue" stroke="midnightblue" points="789.317,-739.791 799.317,-736.291 789.317,-732.791 789.317,-739.791"/>
</g>
<!-- Node34 -->
<g id="node34" class="node"><title>Node34</title>
<g id="a_node34"><a xlink:href="comm_8h.html#a0f6e578048ebdc9f0869f9f5af2fd08b" target="_top" xlink:title="comm_wait">
<polygon fill="white" stroke="black" points="802,-688.791 802,-707.791 871,-707.791 871,-688.791 802,-688.791"/>
<text text-anchor="middle" x="836.5" y="-695.791" font-family="Helvetica,sans-Serif" font-size="10.00">comm_wait</text>
</a>
</g>
</g>
<!-- Node30&#45;&gt;Node34 -->
<g id="edge57" class="edge"><title>Node30&#45;&gt;Node34</title>
<path fill="none" stroke="midnightblue" d="M701.681,-732.079C723.272,-726.628 761.696,-716.926 791.849,-709.312"/>
<polygon fill="midnightblue" stroke="midnightblue" points="792.883,-712.661 801.722,-706.82 791.169,-705.874 792.883,-712.661"/>
</g>
<!-- Node36 -->
<g id="node36" class="node"><title>Node36</title>
<g id="a_node36"><a xlink:href="classfft.html#a0e824b36b18446014471a19572c578a2" target="_top" xlink:title="Get the wavenumber of the ith mode. ">
<polygon fill="white" stroke="black" points="792,-650.791 792,-669.791 881,-669.791 881,-650.791 792,-650.791"/>
<text text-anchor="middle" x="836.5" y="-657.791" font-family="Helvetica,sans-Serif" font-size="10.00">fft::wavenumber</text>
</a>
</g>
</g>
<!-- Node35&#45;&gt;Node36 -->
<g id="edge60" class="edge"><title>Node35&#45;&gt;Node36</title>
<path fill="none" stroke="midnightblue" d="M749.262,-660.291C760.048,-660.291 771.141,-660.291 781.63,-660.291"/>
<polygon fill="midnightblue" stroke="midnightblue" points="781.884,-663.791 791.884,-660.291 781.884,-656.791 781.884,-663.791"/>
</g>
<!-- Node37&#45;&gt;Node2 -->
<g id="edge63" class="edge"><title>Node37&#45;&gt;Node2</title>
<path fill="none" stroke="midnightblue" d="M390.121,-802.51C399.324,-806.596 409.91,-811.736 419,-817.291 436.296,-827.861 437.335,-835.351 455,-845.291 462.179,-849.33 470.173,-852.963 477.991,-856.107"/>
<polygon fill="midnightblue" stroke="midnightblue" points="476.782,-859.392 487.373,-859.694 479.282,-852.853 476.782,-859.392"/>
</g>
<!-- Node37&#45;&gt;Node4 -->
<g id="edge64" class="edge"><title>Node37&#45;&gt;Node4</title>
<path fill="none" stroke="midnightblue" d="M390.056,-797.678C477.863,-814.339 796.5,-870.799 888,-831.291 924.042,-815.729 952.291,-777.72 966.789,-754.774"/>
<polygon fill="midnightblue" stroke="midnightblue" points="969.936,-756.334 972.142,-745.972 963.956,-752.697 969.936,-756.334"/>
</g>
</g>
</svg>
