<?xml version="1.0" encoding="UTF-8" standalone="no"?>
<!DOCTYPE svg PUBLIC "-//W3C//DTD SVG 1.1//EN"
 "http://www.w3.org/Graphics/SVG/1.1/DTD/svg11.dtd">
<!-- Generated by graphviz version 2.38.0 (20140413.2041)
 -->
<!-- Title: speclib::dgljd Pages: 1 -->
<svg width="447pt" height="28pt"
 viewBox="0.00 0.00 447.00 28.00" xmlns="http://www.w3.org/2000/svg" xmlns:xlink="http://www.w3.org/1999/xlink">
<g id="graph0" class="graph" transform="scale(1 1) rotate(0) translate(4 24)">
<title>speclib::dgljd</title>
<polygon fill="white" stroke="none" points="-4,4 -4,-24 443,-24 443,4 -4,4"/>
<!-- Node1 -->
<g id="node1" class="node"><title>Node1</title>
<polygon fill="#bfbfbf" stroke="black" points="0,-0.5 0,-19.5 76,-19.5 76,-0.5 0,-0.5"/>
<text text-anchor="middle" x="38" y="-7.5" font-family="Helvetica,sans-Serif" font-size="10.00">speclib::dgljd</text>
</g>
<!-- Node2 -->
<g id="node2" class="node"><title>Node2</title>
<g id="a_node2"><a xlink:href="classspeclib.html#a8310d8b6c00f1123b70be8ad9ab9b69f" target="_top" xlink:title="speclib::dglj">
<polygon fill="white" stroke="black" points="112,-0.5 112,-19.5 182,-19.5 182,-0.5 112,-0.5"/>
<text text-anchor="middle" x="147" y="-7.5" font-family="Helvetica,sans-Serif" font-size="10.00">speclib::dglj</text>
</a>
</g>
</g>
<!-- Node1&#45;&gt;Node2 -->
<g id="edge1" class="edge"><title>Node1&#45;&gt;Node2</title>
<path fill="none" stroke="midnightblue" d="M86.3975,-10C94.9556,-10 103.725,-10 111.814,-10"/>
<polygon fill="midnightblue" stroke="midnightblue" points="86.1231,-6.5001 76.1231,-10 86.1231,-13.5001 86.1231,-6.5001"/>
</g>
<!-- Node3 -->
<g id="node3" class="node"><title>Node3</title>
<g id="a_node3"><a xlink:href="coef_8F90.html#a0d49b1aee56670901cd4cdfde7245e6c" target="_top" xlink:title="Generate derivative and interpolation operators. GENERATE. ">
<polygon fill="white" stroke="black" points="218,-0.5 218,-19.5 265,-19.5 265,-0.5 218,-0.5"/>
<text text-anchor="middle" x="241.5" y="-7.5" font-family="Helvetica,sans-Serif" font-size="10.00">genwz</text>
</a>
</g>
</g>
<!-- Node2&#45;&gt;Node3 -->
<g id="edge2" class="edge"><title>Node2&#45;&gt;Node3</title>
<path fill="none" stroke="midnightblue" d="M192.451,-10C201.3,-10 210.238,-10 217.964,-10"/>
<polygon fill="midnightblue" stroke="midnightblue" points="192.181,-6.5001 182.181,-10 192.181,-13.5001 192.181,-6.5001"/>
</g>
<!-- Node4 -->
<g id="node4" class="node"><title>Node4</title>
<g id="a_node4"><a xlink:href="drive1_8F90.html#a87bd37ae2c18426f28f35cc3f24e4355" target="_top" xlink:title="initialize nek ">
<polygon fill="white" stroke="black" points="301,-0.5 301,-19.5 354,-19.5 354,-0.5 301,-0.5"/>
<text text-anchor="middle" x="327.5" y="-7.5" font-family="Helvetica,sans-Serif" font-size="10.00">nek_init</text>
</a>
</g>
</g>
<!-- Node3&#45;&gt;Node4 -->
<g id="edge3" class="edge"><title>Node3&#45;&gt;Node4</title>
<path fill="none" stroke="midnightblue" d="M275.099,-10C283.678,-10 292.81,-10 300.959,-10"/>
<polygon fill="midnightblue" stroke="midnightblue" points="275.01,-6.5001 265.01,-10 275.01,-13.5001 275.01,-6.5001"/>
</g>
<!-- Node5 -->
<g id="node5" class="node"><title>Node5</title>
<g id="a_node5"><a xlink:href="drive_8F90.html#a13048bf28dd0734640412d69349e3857" target="_top" xlink:title="NEK5000: Spectral Element Computational Fluid Dynamics Solver COPYRIGHT (c) 2008&#45;2010 UCHICAGO ARGONN...">
<polygon fill="white" stroke="black" points="390,-0.5 390,-19.5 439,-19.5 439,-0.5 390,-0.5"/>
<text text-anchor="middle" x="414.5" y="-7.5" font-family="Helvetica,sans-Serif" font-size="10.00">nekton</text>
</a>
</g>
</g>
<!-- Node4&#45;&gt;Node5 -->
<g id="edge4" class="edge"><title>Node4&#45;&gt;Node5</title>
<path fill="none" stroke="midnightblue" d="M364.227,-10C372.846,-10 381.845,-10 389.759,-10"/>
<polygon fill="midnightblue" stroke="midnightblue" points="364.003,-6.5001 354.003,-10 364.003,-13.5001 364.003,-6.5001"/>
</g>
</g>
</svg>
