<?xml version="1.0" encoding="UTF-8" standalone="no"?>
<!DOCTYPE svg PUBLIC "-//W3C//DTD SVG 1.1//EN"
 "http://www.w3.org/Graphics/SVG/1.1/DTD/svg11.dtd">
<!-- Generated by graphviz version 2.38.0 (20140413.2041)
 -->
<!-- Title: helmholtz::hconj Pages: 1 -->
<!--zoomable 1215 -->
<svg id="main" version="1.1" xmlns="http://www.w3.org/2000/svg" xmlns:xlink="http://www.w3.org/1999/xlink" xml:space="preserve" onload="init(evt)">
<style type="text/css"><![CDATA[
.edge:hover path { stroke: red; }
.edge:hover polygon { stroke: red; fill: red; }
]]></style>
<script type="text/javascript"><![CDATA[
var edges = document.getElementsByTagName('g');
if (edges && edges.length) {
  for (var i=0;i<edges.length;i++) {
    if (edges[i].id.substr(0,4)=='edge') {
      edges[i].setAttribute('class','edge');
    }
  }
}
]]></script>
        <defs>
                <circle id="rim" cx="0" cy="0" r="7"/>
                <circle id="rim2" cx="0" cy="0" r="3.5"/>
                <g id="zoomPlus">
                        <use xlink:href="#rim" fill="#404040">
                                <set attributeName="fill" to="#808080" begin="zoomplus.mouseover" end="zoomplus.mouseout"/>
                        </use>
                        <path d="M-4,0h8M0,-4v8" fill="none" stroke="white" stroke-width="1.5" pointer-events="none"/>
                </g>
                <g id="zoomMin">
                        <use xlink:href="#rim" fill="#404040">
                                <set attributeName="fill" to="#808080" begin="zoomminus.mouseover" end="zoomminus.mouseout"/>
                        </use>
                        <path d="M-4,0h8" fill="none" stroke="white" stroke-width="1.5" pointer-events="none"/>
                </g>
                <g id="dirArrow">
                        <path fill="none" stroke="white" stroke-width="1.5" d="M0,-3.0v7 M-2.5,-0.5L0,-3.0L2.5,-0.5"/>
                </g>
               <g id="resetDef">
                       <use xlink:href="#rim2" fill="#404040">
                               <set attributeName="fill" to="#808080" begin="reset.mouseover" end="reset.mouseout"/>
                       </use>
               </g>
        </defs>

<script type="text/javascript">
var viewWidth = 603;
var viewHeight = 1215;
var sectionId = 'dynsection-2';
</script>
<script xlink:href="svgpan.js"/>
<svg id="graph" class="graph">
<g id="viewport">
<title>helmholtz::hconj</title>
<polygon fill="white" stroke="none" points="-4,4 -4,-1211 599,-1211 599,4 -4,4"/>
<!-- Node1 -->
<g id="node1" class="node"><title>Node1</title>
<polygon fill="#bfbfbf" stroke="black" points="0,-380.5 0,-399.5 92,-399.5 92,-380.5 0,-380.5"/>
<text text-anchor="middle" x="46" y="-387.5" font-family="Helvetica,sans-Serif" font-size="10.00">helmholtz::hconj</text>
</g>
<!-- Node2 -->
<g id="node2" class="node"><title>Node2</title>
<g id="a_node2"><a xlink:href="hmholtz_8F90.html#aa576b5bd623cce50fd6323db12ba5376" target="_top" xlink:title="Compute the (Helmholtz) matrix&#45;vector product, AU = helm1*[A]u + helm2*[B]u, for NEL elements...">
<polygon fill="white" stroke="black" points="128,-456.5 128,-475.5 178,-475.5 178,-456.5 128,-456.5"/>
<text text-anchor="middle" x="153" y="-463.5" font-family="Helvetica,sans-Serif" font-size="10.00">axhelm</text>
</a>
</g>
</g>
<!-- Node1&#45;&gt;Node2 -->
<g id="edge1" class="edge"><title>Node1&#45;&gt;Node2</title>
<path fill="none" stroke="midnightblue" d="M60.2983,-399.625C77.9709,-412.417 109.412,-435.175 130.484,-450.427"/>
<polygon fill="midnightblue" stroke="midnightblue" points="128.657,-453.425 138.81,-456.453 132.761,-447.754 128.657,-453.425"/>
</g>
<!-- Node3 -->
<g id="node3" class="node"><title>Node3</title>
<g id="a_node3"><a xlink:href="classctimer.html#abcecbc845c8ee72e13a19eaa30b80d77" target="_top" xlink:title="ctimer::dnekclock">
<polygon fill="white" stroke="black" points="362,-361.5 362,-380.5 459,-380.5 459,-361.5 362,-361.5"/>
<text text-anchor="middle" x="410.5" y="-368.5" font-family="Helvetica,sans-Serif" font-size="10.00">ctimer::dnekclock</text>
</a>
</g>
</g>
<!-- Node1&#45;&gt;Node3 -->
<g id="edge37" class="edge"><title>Node1&#45;&gt;Node3</title>
<path fill="none" stroke="midnightblue" d="M92.3879,-393.296C103.992,-394.003 116.452,-394.644 128,-395 202.664,-397.302 221.705,-397.763 296,-390 314.189,-388.1 333.881,-385.129 351.677,-382.097"/>
<polygon fill="midnightblue" stroke="midnightblue" points="352.66,-385.478 361.909,-380.312 351.457,-378.582 352.66,-385.478"/>
</g>
<!-- Node36 -->
<g id="node36" class="node"><title>Node36</title>
<g id="a_node36"><a xlink:href="dssum_8F90.html#a0b9da6f19f8f42c7aa2fd9ca723a63ef" target="_top" xlink:title="Direct stiffness sum. ">
<polygon fill="white" stroke="black" points="231.5,-361.5 231.5,-380.5 278.5,-380.5 278.5,-361.5 231.5,-361.5"/>
<text text-anchor="middle" x="255" y="-368.5" font-family="Helvetica,sans-Serif" font-size="10.00">dssum</text>
</a>
</g>
</g>
<!-- Node1&#45;&gt;Node36 -->
<g id="edge38" class="edge"><title>Node1&#45;&gt;Node36</title>
<path fill="none" stroke="midnightblue" d="M92.1712,-385.854C131.09,-382.282 186.346,-377.21 221.17,-374.013"/>
<polygon fill="midnightblue" stroke="midnightblue" points="221.643,-377.485 231.281,-373.085 221.003,-370.514 221.643,-377.485"/>
</g>
<!-- Node39 -->
<g id="node39" class="node"><title>Node39</title>
<g id="a_node39"><a xlink:href="comm__mpi_8F90.html#a3f652605d55796462e959d17b5a9612b" target="_top" xlink:title="Global vector commutative operation. ">
<polygon fill="white" stroke="black" points="135.5,-266.5 135.5,-285.5 170.5,-285.5 170.5,-266.5 135.5,-266.5"/>
<text text-anchor="middle" x="153" y="-273.5" font-family="Helvetica,sans-Serif" font-size="10.00">gop</text>
</a>
</g>
</g>
<!-- Node1&#45;&gt;Node39 -->
<g id="edge42" class="edge"><title>Node1&#45;&gt;Node39</title>
<path fill="none" stroke="midnightblue" d="M55.9522,-380.28C73.775,-360.93 113.898,-317.368 136.235,-293.116"/>
<polygon fill="midnightblue" stroke="midnightblue" points="138.87,-295.422 143.07,-285.695 133.721,-290.679 138.87,-295.422"/>
</g>
<!-- Node2&#45;&gt;Node3 -->
<g id="edge2" class="edge"><title>Node2&#45;&gt;Node3</title>
<path fill="none" stroke="midnightblue" d="M178.228,-470.887C207.207,-475.642 256.725,-480.268 296,-466 338.404,-450.596 376.03,-411.637 395.486,-388.678"/>
<polygon fill="midnightblue" stroke="midnightblue" points="398.366,-390.687 402.026,-380.744 392.965,-386.235 398.366,-390.687"/>
</g>
<!-- Node5 -->
<g id="node5" class="node"><title>Node5</title>
<g id="a_node5"><a xlink:href="mxm__wrapper_8F90.html#ab9ec2260a10061af6ce1c52f3c8a41da" target="_top" xlink:title="Compute matrix&#45;matrix product C = A*B. ">
<polygon fill="white" stroke="black" points="236,-902.5 236,-921.5 274,-921.5 274,-902.5 236,-902.5"/>
<text text-anchor="middle" x="255" y="-909.5" font-family="Helvetica,sans-Serif" font-size="10.00">mxm</text>
</a>
</g>
</g>
<!-- Node2&#45;&gt;Node5 -->
<g id="edge4" class="edge"><title>Node2&#45;&gt;Node5</title>
<path fill="none" stroke="midnightblue" d="M156.182,-475.73C168.786,-531.946 232.331,-815.355 249.64,-892.555"/>
<polygon fill="midnightblue" stroke="midnightblue" points="246.244,-893.406 251.847,-902.398 253.074,-891.874 246.244,-893.406"/>
</g>
<!-- Node35 -->
<g id="node35" class="node"><title>Node35</title>
<g id="a_node35"><a xlink:href="hmholtz_8F90.html#a0f322d39d4bdffa3f9ba901f72d4a1d0" target="_top" xlink:title="Set logicals for fast evaluation of A*x. ">
<polygon fill="white" stroke="black" points="231,-437.5 231,-456.5 279,-456.5 279,-437.5 231,-437.5"/>
<text text-anchor="middle" x="255" y="-444.5" font-family="Helvetica,sans-Serif" font-size="10.00">setfast</text>
</a>
</g>
</g>
<!-- Node2&#45;&gt;Node35 -->
<g id="edge35" class="edge"><title>Node2&#45;&gt;Node35</title>
<path fill="none" stroke="midnightblue" d="M178.207,-461.401C190.92,-458.985 206.697,-455.988 220.559,-453.354"/>
<polygon fill="midnightblue" stroke="midnightblue" points="221.533,-456.731 230.704,-451.426 220.227,-449.854 221.533,-456.731"/>
</g>
<!-- Node4 -->
<g id="node4" class="node"><title>Node4</title>
<g id="a_node4"><a xlink:href="mpi__dummy_8F90.html#ae6a5ef945f87c2c27849696b70f3af2a" target="_top" xlink:title="mpi_wtime">
<polygon fill="white" stroke="black" points="527,-351.5 527,-370.5 593,-370.5 593,-351.5 527,-351.5"/>
<text text-anchor="middle" x="560" y="-358.5" font-family="Helvetica,sans-Serif" font-size="10.00">mpi_wtime</text>
</a>
</g>
</g>
<!-- Node3&#45;&gt;Node4 -->
<g id="edge3" class="edge"><title>Node3&#45;&gt;Node4</title>
<path fill="none" stroke="midnightblue" d="M459.389,-367.753C477.812,-366.504 498.701,-365.088 516.575,-363.876"/>
<polygon fill="midnightblue" stroke="midnightblue" points="516.969,-367.358 526.709,-363.189 516.495,-360.374 516.969,-367.358"/>
</g>
<!-- Node6 -->
<g id="node6" class="node"><title>Node6</title>
<g id="a_node6"><a xlink:href="mxm__std_8F90.html#ac63fe7516a18dc57dfe913ad2c1453be" target="_top" xlink:title="mxm44_0">
<polygon fill="white" stroke="black" points="529,-1187.5 529,-1206.5 591,-1206.5 591,-1187.5 529,-1187.5"/>
<text text-anchor="middle" x="560" y="-1194.5" font-family="Helvetica,sans-Serif" font-size="10.00">mxm44_0</text>
</a>
</g>
</g>
<!-- Node5&#45;&gt;Node6 -->
<g id="edge5" class="edge"><title>Node5&#45;&gt;Node6</title>
<path fill="none" stroke="midnightblue" d="M264.671,-902.394C277.704,-888.754 303.836,-864.388 332,-855 398.197,-832.934 436.999,-808.473 489,-855 542.823,-903.157 485.053,-1117.83 525,-1178 525.617,-1178.93 526.296,-1179.82 527.026,-1180.67"/>
<polygon fill="midnightblue" stroke="midnightblue" points="524.835,-1183.4 534.694,-1187.28 529.408,-1178.1 524.835,-1183.4"/>
</g>
<!-- Node7 -->
<g id="node7" class="node"><title>Node7</title>
<g id="a_node7"><a xlink:href="mxm__std_8F90.html#af07f4b22fdc3488ca321736743f14b01" target="_top" xlink:title="mxm44_2">
<polygon fill="white" stroke="black" points="379.5,-1054.5 379.5,-1073.5 441.5,-1073.5 441.5,-1054.5 379.5,-1054.5"/>
<text text-anchor="middle" x="410.5" y="-1061.5" font-family="Helvetica,sans-Serif" font-size="10.00">mxm44_2</text>
</a>
</g>
</g>
<!-- Node5&#45;&gt;Node7 -->
<g id="edge6" class="edge"><title>Node5&#45;&gt;Node7</title>
<path fill="none" stroke="midnightblue" d="M258.664,-921.825C265.92,-946.636 288.468,-1012.18 332,-1045 342.736,-1053.09 356.47,-1057.78 369.387,-1060.48"/>
<polygon fill="midnightblue" stroke="midnightblue" points="369.044,-1063.98 379.498,-1062.25 370.25,-1057.08 369.044,-1063.98"/>
</g>
<!-- Node8 -->
<g id="node8" class="node"><title>Node8</title>
<g id="a_node8"><a xlink:href="mxm__bgq_8F90.html#a8a70163b4dbfdbfcce7bff170597fcad" target="_top" xlink:title="mxm_bgq_10">
<polygon fill="white" stroke="black" points="370.5,-1016.5 370.5,-1035.5 450.5,-1035.5 450.5,-1016.5 370.5,-1016.5"/>
<text text-anchor="middle" x="410.5" y="-1023.5" font-family="Helvetica,sans-Serif" font-size="10.00">mxm_bgq_10</text>
</a>
</g>
</g>
<!-- Node5&#45;&gt;Node8 -->
<g id="edge7" class="edge"><title>Node5&#45;&gt;Node8</title>
<path fill="none" stroke="midnightblue" d="M260.817,-921.538C271.094,-940.87 297.108,-984.722 332,-1007 340.582,-1012.48 350.625,-1016.38 360.582,-1019.15"/>
<polygon fill="midnightblue" stroke="midnightblue" points="359.907,-1022.59 370.453,-1021.57 361.572,-1015.79 359.907,-1022.59"/>
</g>
<!-- Node9 -->
<g id="node9" class="node"><title>Node9</title>
<g id="a_node9"><a xlink:href="mxm__bgq_8F90.html#a27529ace9834454b8906f29e02718629" target="_top" xlink:title="mxm_bgq_12">
<polygon fill="white" stroke="black" points="370.5,-978.5 370.5,-997.5 450.5,-997.5 450.5,-978.5 370.5,-978.5"/>
<text text-anchor="middle" x="410.5" y="-985.5" font-family="Helvetica,sans-Serif" font-size="10.00">mxm_bgq_12</text>
</a>
</g>
</g>
<!-- Node5&#45;&gt;Node9 -->
<g id="edge8" class="edge"><title>Node5&#45;&gt;Node9</title>
<path fill="none" stroke="midnightblue" d="M265.94,-921.583C279.679,-934.299 305.761,-956.584 332,-969 340.829,-973.178 350.674,-976.495 360.305,-979.11"/>
<polygon fill="midnightblue" stroke="midnightblue" points="359.662,-982.557 370.212,-981.587 361.36,-975.766 359.662,-982.557"/>
</g>
<!-- Node10 -->
<g id="node10" class="node"><title>Node10</title>
<g id="a_node10"><a xlink:href="mxm__bgq_8F90.html#a3fda9ea4bc7a5713a19d6939fa2b541f" target="_top" xlink:title="mxm_bgq_16">
<polygon fill="white" stroke="black" points="370.5,-940.5 370.5,-959.5 450.5,-959.5 450.5,-940.5 370.5,-940.5"/>
<text text-anchor="middle" x="410.5" y="-947.5" font-family="Helvetica,sans-Serif" font-size="10.00">mxm_bgq_16</text>
</a>
</g>
</g>
<!-- Node5&#45;&gt;Node10 -->
<g id="edge9" class="edge"><title>Node5&#45;&gt;Node10</title>
<path fill="none" stroke="midnightblue" d="M274.114,-916.553C289.508,-920.417 312.197,-926.097 332,-931 341.282,-933.298 351.192,-935.738 360.718,-938.076"/>
<polygon fill="midnightblue" stroke="midnightblue" points="359.917,-941.484 370.463,-940.466 361.584,-934.685 359.917,-941.484"/>
</g>
<!-- Node11 -->
<g id="node11" class="node"><title>Node11</title>
<g id="a_node11"><a xlink:href="mxm__bgq_8F90.html#af192c3c8b982aa5bbc2a757156718a91" target="_top" xlink:title="mxm_bgq_6">
<polygon fill="white" stroke="black" points="373.5,-902.5 373.5,-921.5 447.5,-921.5 447.5,-902.5 373.5,-902.5"/>
<text text-anchor="middle" x="410.5" y="-909.5" font-family="Helvetica,sans-Serif" font-size="10.00">mxm_bgq_6</text>
</a>
</g>
</g>
<!-- Node5&#45;&gt;Node11 -->
<g id="edge10" class="edge"><title>Node5&#45;&gt;Node11</title>
<path fill="none" stroke="midnightblue" d="M274.211,-912C295.949,-912 333.112,-912 362.994,-912"/>
<polygon fill="midnightblue" stroke="midnightblue" points="363.223,-915.5 373.223,-912 363.223,-908.5 363.223,-915.5"/>
</g>
<!-- Node12 -->
<g id="node12" class="node"><title>Node12</title>
<g id="a_node12"><a xlink:href="mxm__bgq_8F90.html#a8faaef428336095704ece51624bbfe92" target="_top" xlink:title="mxm_bgq_8">
<polygon fill="white" stroke="black" points="373.5,-864.5 373.5,-883.5 447.5,-883.5 447.5,-864.5 373.5,-864.5"/>
<text text-anchor="middle" x="410.5" y="-871.5" font-family="Helvetica,sans-Serif" font-size="10.00">mxm_bgq_8</text>
</a>
</g>
</g>
<!-- Node5&#45;&gt;Node12 -->
<g id="edge11" class="edge"><title>Node5&#45;&gt;Node12</title>
<path fill="none" stroke="midnightblue" d="M274.114,-907.447C289.508,-903.583 312.197,-897.903 332,-893 342.191,-890.477 353.139,-887.783 363.504,-885.24"/>
<polygon fill="midnightblue" stroke="midnightblue" points="364.339,-888.639 373.218,-882.859 362.673,-881.84 364.339,-888.639"/>
</g>
<!-- Node13 -->
<g id="node13" class="node"><title>Node13</title>
<g id="a_node13"><a xlink:href="mxm__std_8F90.html#aa9e8685c4a72f18fb5d1ee88ed17a3d6" target="_top" xlink:title="unrolled loop version ">
<polygon fill="white" stroke="red" points="387,-788.5 387,-807.5 434,-807.5 434,-788.5 387,-788.5"/>
<text text-anchor="middle" x="410.5" y="-795.5" font-family="Helvetica,sans-Serif" font-size="10.00">mxmf2</text>
</a>
</g>
</g>
<!-- Node5&#45;&gt;Node13 -->
<g id="edge12" class="edge"><title>Node5&#45;&gt;Node13</title>
<path fill="none" stroke="midnightblue" d="M261.564,-902.29C272.606,-883.88 299.092,-843.793 332,-822 345.324,-813.176 362.061,-807.46 376.569,-803.829"/>
<polygon fill="midnightblue" stroke="midnightblue" points="377.68,-807.166 386.657,-801.54 376.131,-800.34 377.68,-807.166"/>
</g>
<!-- Node13&#45;&gt;Node6 -->
<g id="edge34" class="edge"><title>Node13&#45;&gt;Node6</title>
<path fill="none" stroke="midnightblue" d="M434.194,-798.595C451.961,-800.364 475.801,-805.865 489,-822 589.691,-945.091 437.716,-1045.06 525,-1178 525.612,-1178.93 526.287,-1179.82 527.013,-1180.68"/>
<polygon fill="midnightblue" stroke="midnightblue" points="524.812,-1183.4 534.662,-1187.3 529.396,-1178.11 524.812,-1183.4"/>
</g>
<!-- Node14 -->
<g id="node14" class="node"><title>Node14</title>
<g id="a_node14"><a xlink:href="mxm__std_8F90.html#a7d3ac03517b3934b98857b22f7f78788" target="_top" xlink:title="mxf1">
<polygon fill="white" stroke="black" points="540.5,-807.5 540.5,-826.5 579.5,-826.5 579.5,-807.5 540.5,-807.5"/>
<text text-anchor="middle" x="560" y="-814.5" font-family="Helvetica,sans-Serif" font-size="10.00">mxf1</text>
</a>
</g>
</g>
<!-- Node13&#45;&gt;Node14 -->
<g id="edge13" class="edge"><title>Node13&#45;&gt;Node14</title>
<path fill="none" stroke="midnightblue" d="M434.224,-800.927C460.02,-804.25 502.153,-809.677 530.224,-813.293"/>
<polygon fill="midnightblue" stroke="midnightblue" points="529.865,-816.776 540.23,-814.582 530.759,-809.833 529.865,-816.776"/>
</g>
<!-- Node15 -->
<g id="node15" class="node"><title>Node15</title>
<g id="a_node15"><a xlink:href="mxm__std_8F90.html#a5786b175fcbe28ecafe1d878687c3ccf" target="_top" xlink:title="mxf10">
<polygon fill="white" stroke="black" points="537.5,-769.5 537.5,-788.5 582.5,-788.5 582.5,-769.5 537.5,-769.5"/>
<text text-anchor="middle" x="560" y="-776.5" font-family="Helvetica,sans-Serif" font-size="10.00">mxf10</text>
</a>
</g>
</g>
<!-- Node13&#45;&gt;Node15 -->
<g id="edge14" class="edge"><title>Node13&#45;&gt;Node15</title>
<path fill="none" stroke="midnightblue" d="M434.224,-795.073C459.16,-791.861 499.362,-786.682 527.371,-783.074"/>
<polygon fill="midnightblue" stroke="midnightblue" points="527.98,-786.525 537.451,-781.776 527.086,-779.582 527.98,-786.525"/>
</g>
<!-- Node16 -->
<g id="node16" class="node"><title>Node16</title>
<g id="a_node16"><a xlink:href="mxm__std_8F90.html#a244c7a41b5b7a22acba71c34552c2774" target="_top" xlink:title="mxf11">
<polygon fill="white" stroke="black" points="537.5,-731.5 537.5,-750.5 582.5,-750.5 582.5,-731.5 537.5,-731.5"/>
<text text-anchor="middle" x="560" y="-738.5" font-family="Helvetica,sans-Serif" font-size="10.00">mxf11</text>
</a>
</g>
</g>
<!-- Node13&#45;&gt;Node16 -->
<g id="edge15" class="edge"><title>Node13&#45;&gt;Node16</title>
<path fill="none" stroke="midnightblue" d="M434.224,-789.219C459.38,-779.497 500.071,-763.772 528.108,-752.938"/>
<polygon fill="midnightblue" stroke="midnightblue" points="529.385,-756.197 537.451,-749.327 526.862,-749.667 529.385,-756.197"/>
</g>
<!-- Node17 -->
<g id="node17" class="node"><title>Node17</title>
<g id="a_node17"><a xlink:href="mxm__std_8F90.html#afb2e2cde9040ab037e3586b0deef3851" target="_top" xlink:title="mxf12">
<polygon fill="white" stroke="black" points="537.5,-693.5 537.5,-712.5 582.5,-712.5 582.5,-693.5 537.5,-693.5"/>
<text text-anchor="middle" x="560" y="-700.5" font-family="Helvetica,sans-Serif" font-size="10.00">mxf12</text>
</a>
</g>
</g>
<!-- Node13&#45;&gt;Node17 -->
<g id="edge16" class="edge"><title>Node13&#45;&gt;Node17</title>
<path fill="none" stroke="midnightblue" d="M425.244,-788.274C446.359,-773.451 488.201,-744.552 525,-722 527.351,-720.559 529.816,-719.095 532.299,-717.652"/>
<polygon fill="midnightblue" stroke="midnightblue" points="534.233,-720.579 541.197,-712.595 530.774,-714.493 534.233,-720.579"/>
</g>
<!-- Node18 -->
<g id="node18" class="node"><title>Node18</title>
<g id="a_node18"><a xlink:href="mxm__std_8F90.html#a6a048a62b47a5c2327279e158c1689df" target="_top" xlink:title="mxf13">
<polygon fill="white" stroke="black" points="537.5,-655.5 537.5,-674.5 582.5,-674.5 582.5,-655.5 537.5,-655.5"/>
<text text-anchor="middle" x="560" y="-662.5" font-family="Helvetica,sans-Serif" font-size="10.00">mxf13</text>
</a>
</g>
</g>
<!-- Node13&#45;&gt;Node18 -->
<g id="edge17" class="edge"><title>Node13&#45;&gt;Node18</title>
<path fill="none" stroke="midnightblue" d="M419.552,-788.24C437.135,-767.332 480.931,-717.404 525,-684 526.839,-682.606 528.792,-681.246 530.795,-679.936"/>
<polygon fill="midnightblue" stroke="midnightblue" points="532.955,-682.721 539.71,-674.559 529.339,-676.727 532.955,-682.721"/>
</g>
<!-- Node19 -->
<g id="node19" class="node"><title>Node19</title>
<g id="a_node19"><a xlink:href="mxm__std_8F90.html#a6e57628b882cb8bcac215e9a5b523eed" target="_top" xlink:title="mxf14">
<polygon fill="white" stroke="black" points="537.5,-617.5 537.5,-636.5 582.5,-636.5 582.5,-617.5 537.5,-617.5"/>
<text text-anchor="middle" x="560" y="-624.5" font-family="Helvetica,sans-Serif" font-size="10.00">mxf14</text>
</a>
</g>
</g>
<!-- Node13&#45;&gt;Node19 -->
<g id="edge18" class="edge"><title>Node13&#45;&gt;Node19</title>
<path fill="none" stroke="midnightblue" d="M416.747,-788.363C431.162,-762.58 473.724,-690.927 525,-646 526.526,-644.663 528.161,-643.379 529.859,-642.153"/>
<polygon fill="midnightblue" stroke="midnightblue" points="532.109,-644.869 538.655,-636.538 528.343,-638.968 532.109,-644.869"/>
</g>
<!-- Node20 -->
<g id="node20" class="node"><title>Node20</title>
<g id="a_node20"><a xlink:href="mxm__std_8F90.html#a02e79201be026faf756be00e58334c4f" target="_top" xlink:title="mxf15">
<polygon fill="white" stroke="black" points="537.5,-579.5 537.5,-598.5 582.5,-598.5 582.5,-579.5 537.5,-579.5"/>
<text text-anchor="middle" x="560" y="-586.5" font-family="Helvetica,sans-Serif" font-size="10.00">mxf15</text>
</a>
</g>
</g>
<!-- Node13&#45;&gt;Node20 -->
<g id="edge19" class="edge"><title>Node13&#45;&gt;Node20</title>
<path fill="none" stroke="midnightblue" d="M415.228,-788.121C427.079,-757.812 466.575,-664.761 525,-608 526.267,-606.769 527.63,-605.591 529.055,-604.469"/>
<polygon fill="midnightblue" stroke="midnightblue" points="531.34,-607.15 537.677,-598.659 527.428,-601.345 531.34,-607.15"/>
</g>
<!-- Node21 -->
<g id="node21" class="node"><title>Node21</title>
<g id="a_node21"><a xlink:href="mxm__std_8F90.html#a2fbea6eeadc258673ba8ea5708593aee" target="_top" xlink:title="mxf16">
<polygon fill="white" stroke="black" points="537.5,-541.5 537.5,-560.5 582.5,-560.5 582.5,-541.5 537.5,-541.5"/>
<text text-anchor="middle" x="560" y="-548.5" font-family="Helvetica,sans-Serif" font-size="10.00">mxf16</text>
</a>
</g>
</g>
<!-- Node13&#45;&gt;Node21 -->
<g id="edge20" class="edge"><title>Node13&#45;&gt;Node21</title>
<path fill="none" stroke="midnightblue" d="M414.12,-788.103C423.603,-753.918 459.095,-639.126 525,-570 526.219,-568.721 527.543,-567.506 528.939,-566.354"/>
<polygon fill="midnightblue" stroke="midnightblue" points="531.236,-569.021 537.47,-560.454 527.254,-563.263 531.236,-569.021"/>
</g>
<!-- Node22 -->
<g id="node22" class="node"><title>Node22</title>
<g id="a_node22"><a xlink:href="mxm__std_8F90.html#a3829af481cd230e6aadef08feab9a278" target="_top" xlink:title="mxf17">
<polygon fill="white" stroke="black" points="537.5,-503.5 537.5,-522.5 582.5,-522.5 582.5,-503.5 537.5,-503.5"/>
<text text-anchor="middle" x="560" y="-510.5" font-family="Helvetica,sans-Serif" font-size="10.00">mxf17</text>
</a>
</g>
</g>
<!-- Node13&#45;&gt;Node22 -->
<g id="edge21" class="edge"><title>Node13&#45;&gt;Node22</title>
<path fill="none" stroke="midnightblue" d="M413.271,-788.318C420.548,-750.927 451.321,-613.959 525,-532 526.181,-530.686 527.475,-529.443 528.847,-528.269"/>
<polygon fill="midnightblue" stroke="midnightblue" points="531.152,-530.926 537.306,-522.302 527.117,-525.206 531.152,-530.926"/>
</g>
<!-- Node23 -->
<g id="node23" class="node"><title>Node23</title>
<g id="a_node23"><a xlink:href="mxm__std_8F90.html#a48ed8195cc978a87c005b3306a974894" target="_top" xlink:title="mxf18">
<polygon fill="white" stroke="black" points="537.5,-465.5 537.5,-484.5 582.5,-484.5 582.5,-465.5 537.5,-465.5"/>
<text text-anchor="middle" x="560" y="-472.5" font-family="Helvetica,sans-Serif" font-size="10.00">mxf18</text>
</a>
</g>
</g>
<!-- Node13&#45;&gt;Node23 -->
<g id="edge22" class="edge"><title>Node13&#45;&gt;Node23</title>
<path fill="none" stroke="midnightblue" d="M412.664,-788.36C418.01,-747.822 443.547,-588.905 525,-494 526.151,-492.659 527.42,-491.395 528.773,-490.204"/>
<polygon fill="midnightblue" stroke="midnightblue" points="531.083,-492.855 537.175,-484.187 527.007,-487.164 531.083,-492.855"/>
</g>
<!-- Node24 -->
<g id="node24" class="node"><title>Node24</title>
<g id="a_node24"><a xlink:href="mxm__std_8F90.html#a28a9857286e11804e1a97875028ecb09" target="_top" xlink:title="mxf19">
<polygon fill="white" stroke="black" points="537.5,-427.5 537.5,-446.5 582.5,-446.5 582.5,-427.5 537.5,-427.5"/>
<text text-anchor="middle" x="560" y="-434.5" font-family="Helvetica,sans-Serif" font-size="10.00">mxf19</text>
</a>
</g>
</g>
<!-- Node13&#45;&gt;Node24 -->
<g id="edge23" class="edge"><title>Node13&#45;&gt;Node24</title>
<path fill="none" stroke="midnightblue" d="M412.192,-788.367C415.779,-744.845 435.712,-564.004 525,-456 526.26,-454.476 527.676,-453.052 529.196,-451.725"/>
<polygon fill="midnightblue" stroke="midnightblue" points="531.291,-454.53 537.42,-445.887 527.239,-448.822 531.291,-454.53"/>
</g>
<!-- Node25 -->
<g id="node25" class="node"><title>Node25</title>
<g id="a_node25"><a xlink:href="mxm__std_8F90.html#acd223c583f3a9242fda7a1b8897b624d" target="_top" xlink:title="mxf2">
<polygon fill="white" stroke="black" points="540.5,-389.5 540.5,-408.5 579.5,-408.5 579.5,-389.5 540.5,-389.5"/>
<text text-anchor="middle" x="560" y="-396.5" font-family="Helvetica,sans-Serif" font-size="10.00">mxf2</text>
</a>
</g>
</g>
<!-- Node13&#45;&gt;Node25 -->
<g id="edge24" class="edge"><title>Node13&#45;&gt;Node25</title>
<path fill="none" stroke="midnightblue" d="M411.814,-788.262C413.794,-741.713 427.889,-539.143 525,-418 526.864,-415.675 529.093,-413.588 531.507,-411.725"/>
<polygon fill="midnightblue" stroke="midnightblue" points="533.59,-414.548 540.162,-406.238 529.842,-408.636 533.59,-414.548"/>
</g>
<!-- Node26 -->
<g id="node26" class="node"><title>Node26</title>
<g id="a_node26"><a xlink:href="mxm__std_8F90.html#af60059bd60847f48acdf6461fefa3b22" target="_top" xlink:title="mxf20">
<polygon fill="white" stroke="black" points="537.5,-1149.5 537.5,-1168.5 582.5,-1168.5 582.5,-1149.5 537.5,-1149.5"/>
<text text-anchor="middle" x="560" y="-1156.5" font-family="Helvetica,sans-Serif" font-size="10.00">mxf20</text>
</a>
</g>
</g>
<!-- Node13&#45;&gt;Node26 -->
<g id="edge25" class="edge"><title>Node13&#45;&gt;Node26</title>
<path fill="none" stroke="midnightblue" d="M434.143,-798.637C451.879,-800.431 475.705,-805.944 489,-822 579.715,-931.553 446.224,-1021.57 525,-1140 526.152,-1141.73 527.517,-1143.32 529.028,-1144.78"/>
<polygon fill="midnightblue" stroke="midnightblue" points="527.357,-1147.89 537.486,-1151 531.504,-1142.25 527.357,-1147.89"/>
</g>
<!-- Node27 -->
<g id="node27" class="node"><title>Node27</title>
<g id="a_node27"><a xlink:href="mxm__std_8F90.html#a825db174c5643aef5e4cdf57067ebbbb" target="_top" xlink:title="mxf21">
<polygon fill="white" stroke="black" points="537.5,-1111.5 537.5,-1130.5 582.5,-1130.5 582.5,-1111.5 537.5,-1111.5"/>
<text text-anchor="middle" x="560" y="-1118.5" font-family="Helvetica,sans-Serif" font-size="10.00">mxf21</text>
</a>
</g>
</g>
<!-- Node13&#45;&gt;Node27 -->
<g id="edge26" class="edge"><title>Node13&#45;&gt;Node27</title>
<path fill="none" stroke="midnightblue" d="M434.078,-798.691C451.777,-800.516 475.584,-806.045 489,-822 569.75,-918.03 454.722,-998.061 525,-1102 526.136,-1103.68 527.473,-1105.23 528.948,-1106.65"/>
<polygon fill="midnightblue" stroke="midnightblue" points="527.066,-1109.61 537.182,-1112.76 531.237,-1103.99 527.066,-1109.61"/>
</g>
<!-- Node28 -->
<g id="node28" class="node"><title>Node28</title>
<g id="a_node28"><a xlink:href="mxm__std_8F90.html#a1f2059cb835b2818aef861f2f59a0a72" target="_top" xlink:title="mxf22">
<polygon fill="white" stroke="black" points="537.5,-1073.5 537.5,-1092.5 582.5,-1092.5 582.5,-1073.5 537.5,-1073.5"/>
<text text-anchor="middle" x="560" y="-1080.5" font-family="Helvetica,sans-Serif" font-size="10.00">mxf22</text>
</a>
</g>
</g>
<!-- Node13&#45;&gt;Node28 -->
<g id="edge27" class="edge"><title>Node13&#45;&gt;Node28</title>
<path fill="none" stroke="midnightblue" d="M434.353,-798.801C451.965,-800.705 475.518,-806.285 489,-822 559.804,-904.529 463.203,-974.527 525,-1064 526.153,-1065.67 527.502,-1067.21 528.987,-1068.62"/>
<polygon fill="midnightblue" stroke="midnightblue" points="527.12,-1071.6 537.245,-1074.72 531.277,-1065.96 527.12,-1071.6"/>
</g>
<!-- Node29 -->
<g id="node29" class="node"><title>Node29</title>
<g id="a_node29"><a xlink:href="mxm__std_8F90.html#a3dc6491b8d44b702dbbb13a01f887c59" target="_top" xlink:title="mxf23">
<polygon fill="white" stroke="black" points="537.5,-1035.5 537.5,-1054.5 582.5,-1054.5 582.5,-1035.5 537.5,-1035.5"/>
<text text-anchor="middle" x="560" y="-1042.5" font-family="Helvetica,sans-Serif" font-size="10.00">mxf23</text>
</a>
</g>
</g>
<!-- Node13&#45;&gt;Node29 -->
<g id="edge28" class="edge"><title>Node13&#45;&gt;Node29</title>
<path fill="none" stroke="midnightblue" d="M434.238,-798.901C451.786,-800.861 475.307,-806.469 489,-822 549.886,-891.06 471.66,-950.958 525,-1026 526.175,-1027.65 527.542,-1029.18 529.039,-1030.59"/>
<polygon fill="midnightblue" stroke="midnightblue" points="527.194,-1033.57 537.33,-1036.66 531.33,-1027.93 527.194,-1033.57"/>
</g>
<!-- Node30 -->
<g id="node30" class="node"><title>Node30</title>
<g id="a_node30"><a xlink:href="mxm__std_8F90.html#af0752c9a61343489900f8d812c6980ed" target="_top" xlink:title="mxf24">
<polygon fill="white" stroke="black" points="537.5,-997.5 537.5,-1016.5 582.5,-1016.5 582.5,-997.5 537.5,-997.5"/>
<text text-anchor="middle" x="560" y="-1004.5" font-family="Helvetica,sans-Serif" font-size="10.00">mxf24</text>
</a>
</g>
</g>
<!-- Node13&#45;&gt;Node30 -->
<g id="edge29" class="edge"><title>Node13&#45;&gt;Node30</title>
<path fill="none" stroke="midnightblue" d="M434.075,-799.047C451.531,-801.09 475.008,-806.738 489,-822 540.017,-877.646 480.075,-927.33 525,-988 526.207,-989.63 527.598,-991.139 529.114,-992.533"/>
<polygon fill="midnightblue" stroke="midnightblue" points="527.298,-995.54 537.45,-998.571 531.405,-989.871 527.298,-995.54"/>
</g>
<!-- Node31 -->
<g id="node31" class="node"><title>Node31</title>
<g id="a_node31"><a xlink:href="mxm__std_8F90.html#abff718a387aa354f77d0e8b0ffa98867" target="_top" xlink:title="mxf3">
<polygon fill="white" stroke="black" points="540.5,-959.5 540.5,-978.5 579.5,-978.5 579.5,-959.5 540.5,-959.5"/>
<text text-anchor="middle" x="560" y="-966.5" font-family="Helvetica,sans-Serif" font-size="10.00">mxf3</text>
</a>
</g>
</g>
<!-- Node13&#45;&gt;Node31 -->
<g id="edge30" class="edge"><title>Node13&#45;&gt;Node31</title>
<path fill="none" stroke="midnightblue" d="M434.182,-799.327C451.461,-801.535 474.65,-807.27 489,-822 530.237,-864.33 488.409,-903.594 525,-950 526.884,-952.389 529.156,-954.526 531.622,-956.425"/>
<polygon fill="midnightblue" stroke="midnightblue" points="530.139,-959.626 540.468,-961.985 533.865,-953.7 530.139,-959.626"/>
</g>
<!-- Node32 -->
<g id="node32" class="node"><title>Node32</title>
<g id="a_node32"><a xlink:href="mxm__std_8F90.html#a2f4e4e1b4daebbd4d0580029d0f54016" target="_top" xlink:title="mxf4">
<polygon fill="white" stroke="black" points="540.5,-921.5 540.5,-940.5 579.5,-940.5 579.5,-921.5 540.5,-921.5"/>
<text text-anchor="middle" x="560" y="-928.5" font-family="Helvetica,sans-Serif" font-size="10.00">mxf4</text>
</a>
</g>
</g>
<!-- Node13&#45;&gt;Node32 -->
<g id="edge31" class="edge"><title>Node13&#45;&gt;Node32</title>
<path fill="none" stroke="midnightblue" d="M434.11,-799.811C451.121,-802.289 473.991,-808.149 489,-822 520.66,-851.217 496.565,-879.636 525,-912 526.967,-914.238 529.263,-916.269 531.719,-918.097"/>
<polygon fill="midnightblue" stroke="midnightblue" points="530.091,-921.207 540.426,-923.54 533.802,-915.272 530.091,-921.207"/>
</g>
<!-- Node33 -->
<g id="node33" class="node"><title>Node33</title>
<g id="a_node33"><a xlink:href="mxm__std_8F90.html#a5a6d5c31350c601ba8327b75a72cba0a" target="_top" xlink:title="mxf5">
<polygon fill="white" stroke="black" points="540.5,-883.5 540.5,-902.5 579.5,-902.5 579.5,-883.5 540.5,-883.5"/>
<text text-anchor="middle" x="560" y="-890.5" font-family="Helvetica,sans-Serif" font-size="10.00">mxf5</text>
</a>
</g>
</g>
<!-- Node13&#45;&gt;Node33 -->
<g id="edge32" class="edge"><title>Node13&#45;&gt;Node33</title>
<path fill="none" stroke="midnightblue" d="M434.323,-801.002C450.79,-804.081 472.871,-810.172 489,-822 511.667,-838.623 504.193,-855.1 525,-874 526.971,-875.79 529.14,-877.479 531.399,-879.056"/>
<polygon fill="midnightblue" stroke="midnightblue" points="529.984,-882.294 540.334,-884.555 533.653,-876.333 529.984,-882.294"/>
</g>
<!-- Node34 -->
<g id="node34" class="node"><title>Node34</title>
<g id="a_node34"><a xlink:href="mxm__std_8F90.html#a38a142edde1e72a918d280747a319f7a" target="_top" xlink:title="mxf6">
<polygon fill="white" stroke="black" points="540.5,-845.5 540.5,-864.5 579.5,-864.5 579.5,-845.5 540.5,-845.5"/>
<text text-anchor="middle" x="560" y="-852.5" font-family="Helvetica,sans-Serif" font-size="10.00">mxf6</text>
</a>
</g>
</g>
<!-- Node13&#45;&gt;Node34 -->
<g id="edge33" class="edge"><title>Node13&#45;&gt;Node34</title>
<path fill="none" stroke="midnightblue" d="M434.169,-804.112C449.776,-808.539 470.881,-814.963 489,-822 503.272,-827.542 518.708,-834.689 531.444,-840.914"/>
<polygon fill="midnightblue" stroke="midnightblue" points="530.079,-844.144 540.593,-845.453 533.19,-837.873 530.079,-844.144"/>
</g>
<!-- Node35&#45;&gt;Node3 -->
<g id="edge36" class="edge"><title>Node35&#45;&gt;Node3</title>
<path fill="none" stroke="midnightblue" d="M275.441,-437.375C302.084,-424.183 350.133,-400.393 380.888,-385.166"/>
<polygon fill="midnightblue" stroke="midnightblue" points="382.808,-388.121 390.217,-380.547 379.702,-381.848 382.808,-388.121"/>
</g>
<!-- Node36&#45;&gt;Node3 -->
<g id="edge39" class="edge"><title>Node36&#45;&gt;Node3</title>
<path fill="none" stroke="midnightblue" d="M278.649,-371C297.78,-371 326.035,-371 351.397,-371"/>
<polygon fill="midnightblue" stroke="midnightblue" points="351.685,-374.5 361.684,-371 351.684,-367.5 351.685,-374.5"/>
</g>
<!-- Node37 -->
<g id="node37" class="node"><title>Node37</title>
<g id="a_node37"><a xlink:href="comm__mpi_8F90.html#a4acb4d8e379294232e9219bec063d8f3" target="_top" xlink:title="nekgsync">
<polygon fill="white" stroke="black" points="379.5,-304.5 379.5,-323.5 441.5,-323.5 441.5,-304.5 379.5,-304.5"/>
<text text-anchor="middle" x="410.5" y="-311.5" font-family="Helvetica,sans-Serif" font-size="10.00">nekgsync</text>
</a>
</g>
</g>
<!-- Node36&#45;&gt;Node37 -->
<g id="edge40" class="edge"><title>Node36&#45;&gt;Node37</title>
<path fill="none" stroke="midnightblue" d="M278.649,-362.589C303.825,-353.241 344.8,-338.025 374.193,-327.111"/>
<polygon fill="midnightblue" stroke="midnightblue" points="375.522,-330.351 383.678,-323.589 373.085,-323.789 375.522,-330.351"/>
</g>
<!-- Node38 -->
<g id="node38" class="node"><title>Node38</title>
<g id="a_node38"><a xlink:href="mpi__dummy_8F90.html#a070afe564196eb48413dbf1a9fbc99aa" target="_top" xlink:title="mpi_barrier">
<polygon fill="white" stroke="black" points="525,-304.5 525,-323.5 595,-323.5 595,-304.5 525,-304.5"/>
<text text-anchor="middle" x="560" y="-311.5" font-family="Helvetica,sans-Serif" font-size="10.00">mpi_barrier</text>
</a>
</g>
</g>
<!-- Node37&#45;&gt;Node38 -->
<g id="edge41" class="edge"><title>Node37&#45;&gt;Node38</title>
<path fill="none" stroke="midnightblue" d="M441.705,-314C462.776,-314 491.236,-314 514.845,-314"/>
<polygon fill="midnightblue" stroke="midnightblue" points="514.967,-317.5 524.967,-314 514.967,-310.5 514.967,-317.5"/>
</g>
<!-- Node39&#45;&gt;Node3 -->
<g id="edge44" class="edge"><title>Node39&#45;&gt;Node3</title>
<path fill="none" stroke="midnightblue" d="M170.558,-284.693C182.467,-290.775 199.006,-298.873 214,-305 265.97,-326.235 327.577,-346.206 367.545,-358.501"/>
<polygon fill="midnightblue" stroke="midnightblue" points="366.635,-361.883 377.221,-361.458 368.68,-355.188 366.635,-361.883"/>
</g>
<!-- Node39&#45;&gt;Node37 -->
<g id="edge57" class="edge"><title>Node39&#45;&gt;Node37</title>
<path fill="none" stroke="midnightblue" d="M170.764,-278.493C210.689,-284.431 312.305,-299.544 369.256,-308.015"/>
<polygon fill="midnightblue" stroke="midnightblue" points="368.939,-311.506 379.345,-309.515 369.969,-304.582 368.939,-311.506"/>
</g>
<!-- Node40 -->
<g id="node40" class="node"><title>Node40</title>
<g id="a_node40"><a xlink:href="math_8F90.html#a3b43508554f14bdea8e14473d7d0803c" target="_top" xlink:title="copy">
<polygon fill="white" stroke="black" points="235.5,-247.5 235.5,-266.5 274.5,-266.5 274.5,-247.5 235.5,-247.5"/>
<text text-anchor="middle" x="255" y="-254.5" font-family="Helvetica,sans-Serif" font-size="10.00">copy</text>
</a>
</g>
</g>
<!-- Node39&#45;&gt;Node40 -->
<g id="edge43" class="edge"><title>Node39&#45;&gt;Node40</title>
<path fill="none" stroke="midnightblue" d="M170.513,-272.863C185.445,-270.025 207.752,-265.787 225.552,-262.405"/>
<polygon fill="midnightblue" stroke="midnightblue" points="226.251,-265.835 235.421,-260.53 224.944,-258.958 226.251,-265.835"/>
</g>
<!-- Node41 -->
<g id="node41" class="node"><title>Node41</title>
<g id="a_node41"><a xlink:href="byte_8c.html#a2da8eeb074dfd3ffbfb3e9a4d301cda4" target="_top" xlink:title="exitt">
<polygon fill="white" stroke="black" points="237,-209.5 237,-228.5 273,-228.5 273,-209.5 237,-209.5"/>
<text text-anchor="middle" x="255" y="-216.5" font-family="Helvetica,sans-Serif" font-size="10.00">exitt</text>
</a>
</g>
</g>
<!-- Node39&#45;&gt;Node41 -->
<g id="edge45" class="edge"><title>Node39&#45;&gt;Node41</title>
<path fill="none" stroke="midnightblue" d="M168.012,-266.444C179.989,-258.443 197.805,-246.932 214,-238 218.317,-235.619 222.981,-233.239 227.547,-231.008"/>
<polygon fill="midnightblue" stroke="midnightblue" points="229.111,-234.141 236.641,-226.688 226.106,-227.818 229.111,-234.141"/>
</g>
<!-- Node46 -->
<g id="node46" class="node"><title>Node46</title>
<g id="a_node46"><a xlink:href="mpi__dummy_8F90.html#acd9229b5fb6a4d16f9917a5b5c2f0909" target="_top" xlink:title="mpi_allreduce">
<polygon fill="white" stroke="black" points="214,-76.5 214,-95.5 296,-95.5 296,-76.5 214,-76.5"/>
<text text-anchor="middle" x="255" y="-83.5" font-family="Helvetica,sans-Serif" font-size="10.00">mpi_allreduce</text>
</a>
</g>
</g>
<!-- Node39&#45;&gt;Node46 -->
<g id="edge52" class="edge"><title>Node39&#45;&gt;Node46</title>
<path fill="none" stroke="midnightblue" d="M159.096,-266.317C174.874,-236.34 223.109,-144.693 244.085,-104.839"/>
<polygon fill="midnightblue" stroke="midnightblue" points="247.234,-106.371 248.794,-95.8917 241.039,-103.111 247.234,-106.371"/>
</g>
<!-- Node41&#45;&gt;Node3 -->
<g id="edge46" class="edge"><title>Node41&#45;&gt;Node3</title>
<path fill="none" stroke="midnightblue" d="M273.381,-223.949C281.176,-226.927 289.955,-231.443 296,-238 326.605,-271.197 301.602,-299.613 332,-333 341.742,-343.7 355.161,-351.734 368.097,-357.592"/>
<polygon fill="midnightblue" stroke="midnightblue" points="366.796,-360.841 377.372,-361.479 369.502,-354.385 366.796,-360.841"/>
</g>
<!-- Node41&#45;&gt;Node37 -->
<g id="edge51" class="edge"><title>Node41&#45;&gt;Node37</title>
<path fill="none" stroke="midnightblue" d="M273.215,-224.685C280.793,-227.781 289.443,-232.185 296,-238 318.418,-257.88 307.683,-277.494 332,-295 342.823,-302.791 356.465,-307.41 369.276,-310.14"/>
<polygon fill="midnightblue" stroke="midnightblue" points="368.839,-313.617 379.302,-311.949 370.082,-306.729 368.839,-313.617"/>
</g>
<!-- Node42 -->
<g id="node42" class="node"><title>Node42</title>
<g id="a_node42"><a xlink:href="subs1_8F90.html#a339739b88994e5bb12bd923147f94983" target="_top" xlink:title="flush_io">
<polygon fill="white" stroke="black" points="384,-190.5 384,-209.5 437,-209.5 437,-190.5 384,-190.5"/>
<text text-anchor="middle" x="410.5" y="-197.5" font-family="Helvetica,sans-Serif" font-size="10.00">flush_io</text>
</a>
</g>
</g>
<!-- Node41&#45;&gt;Node42 -->
<g id="edge47" class="edge"><title>Node41&#45;&gt;Node42</title>
<path fill="none" stroke="midnightblue" d="M273.014,-216.894C297.138,-213.908 341.871,-208.371 373.541,-204.451"/>
<polygon fill="midnightblue" stroke="midnightblue" points="374.238,-207.892 383.732,-203.19 373.378,-200.945 374.238,-207.892"/>
</g>
<!-- Node43 -->
<g id="node43" class="node"><title>Node43</title>
<g id="a_node43"><a xlink:href="singlmesh_8F90.html#aef78ff219741b83c1ca784b869e9cacf" target="_top" xlink:title="Dummy for singlmesh. ">
<polygon fill="white" stroke="black" points="370.5,-152.5 370.5,-171.5 450.5,-171.5 450.5,-152.5 370.5,-152.5"/>
<text text-anchor="middle" x="410.5" y="-159.5" font-family="Helvetica,sans-Serif" font-size="10.00">happy_check</text>
</a>
</g>
</g>
<!-- Node41&#45;&gt;Node43 -->
<g id="edge48" class="edge"><title>Node41&#45;&gt;Node43</title>
<path fill="none" stroke="midnightblue" d="M272.425,-209.44C287.504,-200.993 310.675,-188.833 332,-181 341.072,-177.667 350.955,-174.74 360.534,-172.245"/>
<polygon fill="midnightblue" stroke="midnightblue" points="361.499,-175.612 370.358,-169.802 359.809,-168.819 361.499,-175.612"/>
</g>
<!-- Node44 -->
<g id="node44" class="node"><title>Node44</title>
<g id="a_node44"><a xlink:href="mpi__dummy_8F90.html#a55e9a1619aadb638b14211ce21d7d566" target="_top" xlink:title="mpi_finalize">
<polygon fill="white" stroke="black" points="374.5,-266.5 374.5,-285.5 446.5,-285.5 446.5,-266.5 374.5,-266.5"/>
<text text-anchor="middle" x="410.5" y="-273.5" font-family="Helvetica,sans-Serif" font-size="10.00">mpi_finalize</text>
</a>
</g>
</g>
<!-- Node41&#45;&gt;Node44 -->
<g id="edge49" class="edge"><title>Node41&#45;&gt;Node44</title>
<path fill="none" stroke="midnightblue" d="M273.206,-226.979C280.298,-230.317 288.577,-234.28 296,-238 312.174,-246.105 315.087,-250.576 332,-257 342.207,-260.877 353.474,-264.168 364.182,-266.866"/>
<polygon fill="midnightblue" stroke="midnightblue" points="363.684,-270.345 374.224,-269.27 365.314,-263.538 363.684,-270.345"/>
</g>
<!-- Node45 -->
<g id="node45" class="node"><title>Node45</title>
<g id="a_node45"><a xlink:href="papi_8F90.html#a3a75ccdfbe05912fda48c3b134d114c0" target="_top" xlink:title="nek_flops">
<polygon fill="white" stroke="red" points="379.5,-228.5 379.5,-247.5 441.5,-247.5 441.5,-228.5 379.5,-228.5"/>
<text text-anchor="middle" x="410.5" y="-235.5" font-family="Helvetica,sans-Serif" font-size="10.00">nek_flops</text>
</a>
</g>
</g>
<!-- Node41&#45;&gt;Node45 -->
<g id="edge50" class="edge"><title>Node41&#45;&gt;Node45</title>
<path fill="none" stroke="midnightblue" d="M273.014,-221.106C296.086,-223.962 338.009,-229.151 369.326,-233.027"/>
<polygon fill="midnightblue" stroke="midnightblue" points="369.144,-236.531 379.498,-234.286 370.004,-229.584 369.144,-236.531"/>
</g>
<!-- Node47 -->
<g id="node47" class="node"><title>Node47</title>
<g id="a_node47"><a xlink:href="mpi__dummy_8F90.html#a64285f5ce9bed08bfd13bc27264db185" target="_top" xlink:title="mpi_reduce_double_precision">
<polygon fill="white" stroke="black" points="332,-38.5 332,-57.5 489,-57.5 489,-38.5 332,-38.5"/>
<text text-anchor="middle" x="410.5" y="-45.5" font-family="Helvetica,sans-Serif" font-size="10.00">mpi_reduce_double_precision</text>
</a>
</g>
</g>
<!-- Node46&#45;&gt;Node47 -->
<g id="edge53" class="edge"><title>Node46&#45;&gt;Node47</title>
<path fill="none" stroke="midnightblue" d="M293.876,-76.4949C306.047,-73.4502 319.59,-70.0724 332,-67 341.282,-64.702 351.192,-62.262 360.718,-59.9235"/>
<polygon fill="midnightblue" stroke="midnightblue" points="361.584,-63.3149 370.463,-57.5336 359.917,-56.5164 361.584,-63.3149"/>
</g>
<!-- Node48 -->
<g id="node48" class="node"><title>Node48</title>
<g id="a_node48"><a xlink:href="mpi__dummy_8F90.html#aa549a352c5ab9ce53b8dfd222da38fa6" target="_top" xlink:title="mpi_reduce_integer">
<polygon fill="white" stroke="black" points="355.5,-0.5 355.5,-19.5 465.5,-19.5 465.5,-0.5 355.5,-0.5"/>
<text text-anchor="middle" x="410.5" y="-7.5" font-family="Helvetica,sans-Serif" font-size="10.00">mpi_reduce_integer</text>
</a>
</g>
</g>
<!-- Node46&#45;&gt;Node48 -->
<g id="edge54" class="edge"><title>Node46&#45;&gt;Node48</title>
<path fill="none" stroke="midnightblue" d="M265.94,-76.4171C279.679,-63.7011 305.761,-41.4155 332,-29 337.214,-26.5327 342.783,-24.3654 348.452,-22.4657"/>
<polygon fill="midnightblue" stroke="midnightblue" points="349.515,-25.8007 358.044,-19.5156 347.457,-19.11 349.515,-25.8007"/>
</g>
<!-- Node49 -->
<g id="node49" class="node"><title>Node49</title>
<g id="a_node49"><a xlink:href="mpi__dummy_8F90.html#abbddc050d7faafb34959984f69652e0a" target="_top" xlink:title="mpi_reduce_integer8">
<polygon fill="white" stroke="black" points="352.5,-114.5 352.5,-133.5 468.5,-133.5 468.5,-114.5 352.5,-114.5"/>
<text text-anchor="middle" x="410.5" y="-121.5" font-family="Helvetica,sans-Serif" font-size="10.00">mpi_reduce_integer8</text>
</a>
</g>
</g>
<!-- Node46&#45;&gt;Node49 -->
<g id="edge55" class="edge"><title>Node46&#45;&gt;Node49</title>
<path fill="none" stroke="midnightblue" d="M293.876,-95.5051C306.047,-98.5498 319.59,-101.928 332,-105 341.282,-107.298 351.192,-109.738 360.718,-112.076"/>
<polygon fill="midnightblue" stroke="midnightblue" points="359.917,-115.484 370.463,-114.466 361.584,-108.685 359.917,-115.484"/>
</g>
<!-- Node50 -->
<g id="node50" class="node"><title>Node50</title>
<g id="a_node50"><a xlink:href="mpi__dummy_8F90.html#a47f146895b36dc21100a1c42d343762c" target="_top" xlink:title="mpi_reduce_real">
<polygon fill="white" stroke="black" points="363,-76.5 363,-95.5 458,-95.5 458,-76.5 363,-76.5"/>
<text text-anchor="middle" x="410.5" y="-83.5" font-family="Helvetica,sans-Serif" font-size="10.00">mpi_reduce_real</text>
</a>
</g>
</g>
<!-- Node46&#45;&gt;Node50 -->
<g id="edge56" class="edge"><title>Node46&#45;&gt;Node50</title>
<path fill="none" stroke="midnightblue" d="M296.33,-86C313.568,-86 333.997,-86 352.722,-86"/>
<polygon fill="midnightblue" stroke="midnightblue" points="352.918,-89.5001 362.918,-86 352.918,-82.5001 352.918,-89.5001"/>
</g>
</g>
</svg>
        <g id="navigator" transform="translate(0 0)" fill="#404254">
                <rect fill="#f2f5e9" fill-opacity="0.5" stroke="#606060" stroke-width=".5" x="0" y="0" width="60" height="60"/>
                <use id="zoomplus" xlink:href="#zoomPlus" x="17" y="9" onmousedown="handleZoom(evt,'in')"/>
                <use id="zoomminus" xlink:href="#zoomMin" x="42" y="9" onmousedown="handleZoom(evt,'out')"/>
                <use id="reset" xlink:href="#resetDef" x="30" y="36" onmousedown="handleReset()"/>
                <g id="arrowUp" xlink:href="#dirArrow" transform="translate(30 24)" onmousedown="handlePan(0,-1)">
                  <use xlink:href="#rim" fill="#404040">
                        <set attributeName="fill" to="#808080" begin="arrowUp.mouseover" end="arrowUp.mouseout"/>
                  </use>
                  <path fill="none" stroke="white" stroke-width="1.5" d="M0,-3.0v7 M-2.5,-0.5L0,-3.0L2.5,-0.5"/>
                </g>
                <g id="arrowRight" xlink:href="#dirArrow" transform="rotate(90) translate(36 -43)" onmousedown="handlePan(1,0)">
                  <use xlink:href="#rim" fill="#404040">
                        <set attributeName="fill" to="#808080" begin="arrowRight.mouseover" end="arrowRight.mouseout"/>
                  </use>
                  <path fill="none" stroke="white" stroke-width="1.5" d="M0,-3.0v7 M-2.5,-0.5L0,-3.0L2.5,-0.5"/>
                </g>
                <g id="arrowDown" xlink:href="#dirArrow" transform="rotate(180) translate(-30 -48)" onmousedown="handlePan(0,1)">
                  <use xlink:href="#rim" fill="#404040">
                        <set attributeName="fill" to="#808080" begin="arrowDown.mouseover" end="arrowDown.mouseout"/>
                  </use>
                  <path fill="none" stroke="white" stroke-width="1.5" d="M0,-3.0v7 M-2.5,-0.5L0,-3.0L2.5,-0.5"/>
                </g>
                <g id="arrowLeft" xlink:href="#dirArrow" transform="rotate(270) translate(-36 17)" onmousedown="handlePan(-1,0)">
                  <use xlink:href="#rim" fill="#404040">
                        <set attributeName="fill" to="#808080" begin="arrowLeft.mouseover" end="arrowLeft.mouseout"/>
                  </use>
                  <path fill="none" stroke="white" stroke-width="1.5" d="M0,-3.0v7 M-2.5,-0.5L0,-3.0L2.5,-0.5"/>
                </g>
        </g>
        <svg viewBox="0 0 15 15" width="100%" height="30px" preserveAspectRatio="xMaxYMin meet">
         <g id="arrow_out" transform="scale(0.3 0.3)">
          <a xlink:href="classhelmholtz_a9609e49232b58a6deb40ed82508c0a45_cgraph_org.svg" target="_base">
           <rect id="button" ry="5" rx="5" y="6" x="6" height="38" width="38"
                fill="#f2f5e9" fill-opacity="0.5" stroke="#606060" stroke-width="1.0"/>
           <path id="arrow"
             d="M 11.500037,31.436501 C 11.940474,20.09759 22.043105,11.32322 32.158766,21.979434 L 37.068811,17.246167 C 37.068811,17.246167 37.088388,32 37.088388,32 L 22.160133,31.978069 C 22.160133,31.978069 26.997745,27.140456 26.997745,27.140456 C 18.528582,18.264221 13.291696,25.230495 11.500037,31.436501 z"
             style="fill:#404040;"/>
          </a>
         </g>
        </svg>
</svg>
