<?xml version="1.0" encoding="UTF-8" standalone="no"?>
<!DOCTYPE svg PUBLIC "-//W3C//DTD SVG 1.1//EN"
 "http://www.w3.org/Graphics/SVG/1.1/DTD/svg11.dtd">
<!-- Generated by graphviz version 2.38.0 (20140413.2041)
 -->
<!-- Title: hsmg_routines::h1mg_setup_schwarz_wt_2 Pages: 1 -->
<svg width="874pt" height="88pt"
 viewBox="0.00 0.00 874.00 88.00" xmlns="http://www.w3.org/2000/svg" xmlns:xlink="http://www.w3.org/1999/xlink">
<g id="graph0" class="graph" transform="scale(1 1) rotate(0) translate(4 84)">
<title>hsmg_routines::h1mg_setup_schwarz_wt_2</title>
<polygon fill="white" stroke="none" points="-4,4 -4,-84 870,-84 870,4 -4,4"/>
<!-- Node1 -->
<g id="node1" class="node"><title>Node1</title>
<polygon fill="#bfbfbf" stroke="black" points="0,-24.5 0,-54.5 122,-54.5 122,-24.5 0,-24.5"/>
<text text-anchor="start" x="8" y="-42.5" font-family="Helvetica,sans-Serif" font-size="10.00">hsmg_routines::h1mg</text>
<text text-anchor="middle" x="61" y="-31.5" font-family="Helvetica,sans-Serif" font-size="10.00">_setup_schwarz_wt_2</text>
</g>
<!-- Node2 -->
<g id="node2" class="node"><title>Node2</title>
<g id="a_node2"><a xlink:href="classhsmg__routines.html#a13c1cb2ecf3853e551896970bb5c87b5" target="_top" xlink:title="hsmg_routines::h1mg\l_setup_schwarz_wt_1">
<polygon fill="white" stroke="black" points="158,-24.5 158,-54.5 280,-54.5 280,-24.5 158,-24.5"/>
<text text-anchor="start" x="166" y="-42.5" font-family="Helvetica,sans-Serif" font-size="10.00">hsmg_routines::h1mg</text>
<text text-anchor="middle" x="219" y="-31.5" font-family="Helvetica,sans-Serif" font-size="10.00">_setup_schwarz_wt_1</text>
</a>
</g>
</g>
<!-- Node1&#45;&gt;Node2 -->
<g id="edge1" class="edge"><title>Node1&#45;&gt;Node2</title>
<path fill="none" stroke="midnightblue" d="M132.538,-39.5C140.99,-39.5 149.56,-39.5 157.847,-39.5"/>
<polygon fill="midnightblue" stroke="midnightblue" points="132.314,-36.0001 122.314,-39.5 132.314,-43.0001 132.314,-36.0001"/>
</g>
<!-- Node3 -->
<g id="node3" class="node"><title>Node3</title>
<g id="a_node3"><a xlink:href="classhsmg__routines.html#adca849fb5d33cee442c5ac183cffca88" target="_top" xlink:title="hsmg_routines::h1mg\l_setup_schwarz_wt">
<polygon fill="white" stroke="black" points="316,-49.5 316,-79.5 432,-79.5 432,-49.5 316,-49.5"/>
<text text-anchor="start" x="324" y="-67.5" font-family="Helvetica,sans-Serif" font-size="10.00">hsmg_routines::h1mg</text>
<text text-anchor="middle" x="374" y="-56.5" font-family="Helvetica,sans-Serif" font-size="10.00">_setup_schwarz_wt</text>
</a>
</g>
</g>
<!-- Node2&#45;&gt;Node3 -->
<g id="edge2" class="edge"><title>Node2&#45;&gt;Node3</title>
<path fill="none" stroke="midnightblue" d="M290.022,-50.9415C298.599,-52.3429 307.284,-53.7622 315.644,-55.1281"/>
<polygon fill="midnightblue" stroke="midnightblue" points="290.464,-47.4674 280.031,-49.3089 289.335,-54.3758 290.464,-47.4674"/>
</g>
<!-- Node8 -->
<g id="node8" class="node"><title>Node8</title>
<g id="a_node8"><a xlink:href="classhsmg__routines.html#ab039b61096238d0ba36bcbe03a2ad1eb" target="_top" xlink:title="hsmg_routines::hsmg\l_setup_schwarz_wt">
<polygon fill="white" stroke="black" points="316,-0.5 316,-30.5 432,-30.5 432,-0.5 316,-0.5"/>
<text text-anchor="start" x="324" y="-18.5" font-family="Helvetica,sans-Serif" font-size="10.00">hsmg_routines::hsmg</text>
<text text-anchor="middle" x="374" y="-7.5" font-family="Helvetica,sans-Serif" font-size="10.00">_setup_schwarz_wt</text>
</a>
</g>
</g>
<!-- Node2&#45;&gt;Node8 -->
<g id="edge7" class="edge"><title>Node2&#45;&gt;Node8</title>
<path fill="none" stroke="midnightblue" d="M290.022,-28.5161C298.599,-27.1708 307.284,-25.8083 315.644,-24.497"/>
<polygon fill="midnightblue" stroke="midnightblue" points="289.367,-25.076 280.031,-30.0834 290.452,-31.9914 289.367,-25.076"/>
</g>
<!-- Node4 -->
<g id="node4" class="node"><title>Node4</title>
<g id="a_node4"><a xlink:href="classhsmg__routines.html#a91e8aa59d56bbf05d75aa9c48bcd8977" target="_top" xlink:title="Sets up Poisson preconditioner. ">
<polygon fill="white" stroke="black" points="468,-49.5 468,-79.5 584,-79.5 584,-49.5 468,-49.5"/>
<text text-anchor="start" x="476" y="-67.5" font-family="Helvetica,sans-Serif" font-size="10.00">hsmg_routines::h1mg</text>
<text text-anchor="middle" x="526" y="-56.5" font-family="Helvetica,sans-Serif" font-size="10.00">_setup</text>
</a>
</g>
</g>
<!-- Node3&#45;&gt;Node4 -->
<g id="edge3" class="edge"><title>Node3&#45;&gt;Node4</title>
<path fill="none" stroke="midnightblue" d="M442.311,-64.5C450.728,-64.5 459.277,-64.5 467.525,-64.5"/>
<polygon fill="midnightblue" stroke="midnightblue" points="442.137,-61.0001 432.136,-64.5 442.136,-68.0001 442.137,-61.0001"/>
</g>
<!-- Node5 -->
<g id="node5" class="node"><title>Node5</title>
<g id="a_node5"><a xlink:href="navier6_8F90.html#a45317b1def173b8f1db2e5083595d095" target="_top" xlink:title="Set up arrays for overlapping Schwartz algorithm for pressure solver ">
<polygon fill="white" stroke="black" points="620,-30 620,-49 692,-49 692,-30 620,-30"/>
<text text-anchor="middle" x="656" y="-37" font-family="Helvetica,sans-Serif" font-size="10.00">set_overlap</text>
</a>
</g>
</g>
<!-- Node4&#45;&gt;Node5 -->
<g id="edge4" class="edge"><title>Node4&#45;&gt;Node5</title>
<path fill="none" stroke="midnightblue" d="M594.236,-51.368C603.072,-49.6423 611.825,-47.9326 619.82,-46.3711"/>
<polygon fill="midnightblue" stroke="midnightblue" points="593.405,-47.9641 584.261,-53.3162 594.747,-54.8343 593.405,-47.9641"/>
</g>
<!-- Node6 -->
<g id="node6" class="node"><title>Node6</title>
<g id="a_node6"><a xlink:href="drive1_8F90.html#a87bd37ae2c18426f28f35cc3f24e4355" target="_top" xlink:title="initialize nek ">
<polygon fill="white" stroke="black" points="728,-30 728,-49 781,-49 781,-30 728,-30"/>
<text text-anchor="middle" x="754.5" y="-37" font-family="Helvetica,sans-Serif" font-size="10.00">nek_init</text>
</a>
</g>
</g>
<!-- Node5&#45;&gt;Node6 -->
<g id="edge5" class="edge"><title>Node5&#45;&gt;Node6</title>
<path fill="none" stroke="midnightblue" d="M702.316,-39.5C711.12,-39.5 720.055,-39.5 727.943,-39.5"/>
<polygon fill="midnightblue" stroke="midnightblue" points="702.112,-36.0001 692.112,-39.5 702.112,-43.0001 702.112,-36.0001"/>
</g>
<!-- Node7 -->
<g id="node7" class="node"><title>Node7</title>
<g id="a_node7"><a xlink:href="drive_8F90.html#a13048bf28dd0734640412d69349e3857" target="_top" xlink:title="NEK5000: Spectral Element Computational Fluid Dynamics Solver COPYRIGHT (c) 2008&#45;2010 UCHICAGO ARGONN...">
<polygon fill="white" stroke="black" points="817,-30 817,-49 866,-49 866,-30 817,-30"/>
<text text-anchor="middle" x="841.5" y="-37" font-family="Helvetica,sans-Serif" font-size="10.00">nekton</text>
</a>
</g>
</g>
<!-- Node6&#45;&gt;Node7 -->
<g id="edge6" class="edge"><title>Node6&#45;&gt;Node7</title>
<path fill="none" stroke="midnightblue" d="M791.227,-39.5C799.846,-39.5 808.845,-39.5 816.759,-39.5"/>
<polygon fill="midnightblue" stroke="midnightblue" points="791.003,-36.0001 781.003,-39.5 791.003,-43.0001 791.003,-36.0001"/>
</g>
<!-- Node9 -->
<g id="node9" class="node"><title>Node9</title>
<g id="a_node9"><a xlink:href="classhsmg__routines.html#ac8f9bca9624d5e550d70acabfa8aef73" target="_top" xlink:title="Sets up hybrid Schwarz multi&#45;grid preconditioner. ">
<polygon fill="white" stroke="black" points="468,-0.5 468,-30.5 584,-30.5 584,-0.5 468,-0.5"/>
<text text-anchor="start" x="476" y="-18.5" font-family="Helvetica,sans-Serif" font-size="10.00">hsmg_routines::hsmg</text>
<text text-anchor="middle" x="526" y="-7.5" font-family="Helvetica,sans-Serif" font-size="10.00">_setup</text>
</a>
</g>
</g>
<!-- Node8&#45;&gt;Node9 -->
<g id="edge8" class="edge"><title>Node8&#45;&gt;Node9</title>
<path fill="none" stroke="midnightblue" d="M442.311,-15.5C450.728,-15.5 459.277,-15.5 467.525,-15.5"/>
<polygon fill="midnightblue" stroke="midnightblue" points="442.137,-12.0001 432.136,-15.5 442.136,-19.0001 442.137,-12.0001"/>
</g>
<!-- Node9&#45;&gt;Node5 -->
<g id="edge9" class="edge"><title>Node9&#45;&gt;Node5</title>
<path fill="none" stroke="midnightblue" d="M594.236,-28.1067C603.072,-29.7634 611.825,-31.4047 619.82,-32.9037"/>
<polygon fill="midnightblue" stroke="midnightblue" points="594.735,-24.6394 584.261,-26.2365 593.445,-31.5195 594.735,-24.6394"/>
</g>
</g>
</svg>
