<?xml version="1.0" encoding="UTF-8" standalone="no"?>
<!DOCTYPE svg PUBLIC "-//W3C//DTD SVG 1.1//EN"
 "http://www.w3.org/Graphics/SVG/1.1/DTD/svg11.dtd">
<!-- Generated by graphviz version 2.38.0 (20140413.2041)
 -->
<!-- Title: speclib::igjm Pages: 1 -->
<svg width="543pt" height="256pt"
 viewBox="0.00 0.00 543.00 256.00" xmlns="http://www.w3.org/2000/svg" xmlns:xlink="http://www.w3.org/1999/xlink">
<g id="graph0" class="graph" transform="scale(1 1) rotate(0) translate(4 252)">
<title>speclib::igjm</title>
<polygon fill="white" stroke="none" points="-4,4 -4,-252 539,-252 539,4 -4,4"/>
<!-- Node1 -->
<g id="node1" class="node"><title>Node1</title>
<polygon fill="#bfbfbf" stroke="black" points="0,-76.5 0,-95.5 72,-95.5 72,-76.5 0,-76.5"/>
<text text-anchor="middle" x="36" y="-83.5" font-family="Helvetica,sans-Serif" font-size="10.00">speclib::igjm</text>
</g>
<!-- Node2 -->
<g id="node2" class="node"><title>Node2</title>
<g id="a_node2"><a xlink:href="classspeclib.html#a9b5f61ddc531a11d59f6c2fb8f0ad45e" target="_top" xlink:title="speclib::hgj">
<polygon fill="white" stroke="black" points="108,-76.5 108,-95.5 176,-95.5 176,-76.5 108,-76.5"/>
<text text-anchor="middle" x="142" y="-83.5" font-family="Helvetica,sans-Serif" font-size="10.00">speclib::hgj</text>
</a>
</g>
</g>
<!-- Node1&#45;&gt;Node2 -->
<g id="edge1" class="edge"><title>Node1&#45;&gt;Node2</title>
<path fill="none" stroke="midnightblue" d="M72.2097,-86C80.4209,-86 89.2579,-86 97.7719,-86"/>
<polygon fill="midnightblue" stroke="midnightblue" points="97.933,-89.5001 107.933,-86 97.9329,-82.5001 97.933,-89.5001"/>
</g>
<!-- Node3 -->
<g id="node3" class="node"><title>Node3</title>
<g id="a_node3"><a xlink:href="byte_8c.html#a2da8eeb074dfd3ffbfb3e9a4d301cda4" target="_top" xlink:title="exitt">
<polygon fill="white" stroke="black" points="231,-114.5 231,-133.5 267,-133.5 267,-114.5 231,-114.5"/>
<text text-anchor="middle" x="249" y="-121.5" font-family="Helvetica,sans-Serif" font-size="10.00">exitt</text>
</a>
</g>
</g>
<!-- Node2&#45;&gt;Node3 -->
<g id="edge2" class="edge"><title>Node2&#45;&gt;Node3</title>
<path fill="none" stroke="midnightblue" d="M169.496,-95.589C185.244,-101.288 205.169,-108.499 221.004,-114.23"/>
<polygon fill="midnightblue" stroke="midnightblue" points="220.141,-117.64 230.735,-117.752 222.523,-111.057 220.141,-117.64"/>
</g>
<!-- Node13 -->
<g id="node13" class="node"><title>Node13</title>
<g id="a_node13"><a xlink:href="classspeclib.html#a7f7e84bc0f75a3b8620781d29143514f" target="_top" xlink:title="speclib::hgjd">
<polygon fill="white" stroke="black" points="212,-38.5 212,-57.5 286,-57.5 286,-38.5 212,-38.5"/>
<text text-anchor="middle" x="249" y="-45.5" font-family="Helvetica,sans-Serif" font-size="10.00">speclib::hgjd</text>
</a>
</g>
</g>
<!-- Node2&#45;&gt;Node13 -->
<g id="edge12" class="edge"><title>Node2&#45;&gt;Node13</title>
<path fill="none" stroke="midnightblue" d="M169.496,-76.411C182.304,-71.7756 197.875,-66.1404 211.762,-61.1147"/>
<polygon fill="midnightblue" stroke="midnightblue" points="213.3,-64.2802 221.513,-57.5859 210.918,-57.6979 213.3,-64.2802"/>
</g>
<!-- Node4 -->
<g id="node4" class="node"><title>Node4</title>
<g id="a_node4"><a xlink:href="classctimer.html#abcecbc845c8ee72e13a19eaa30b80d77" target="_top" xlink:title="ctimer::dnekclock">
<polygon fill="white" stroke="black" points="322,-228.5 322,-247.5 419,-247.5 419,-228.5 322,-228.5"/>
<text text-anchor="middle" x="370.5" y="-235.5" font-family="Helvetica,sans-Serif" font-size="10.00">ctimer::dnekclock</text>
</a>
</g>
</g>
<!-- Node3&#45;&gt;Node4 -->
<g id="edge3" class="edge"><title>Node3&#45;&gt;Node4</title>
<path fill="none" stroke="midnightblue" d="M255.006,-133.734C265.187,-152.653 290.073,-194.659 322,-219 324.318,-220.767 326.821,-222.393 329.426,-223.885"/>
<polygon fill="midnightblue" stroke="midnightblue" points="328.034,-227.103 338.542,-228.454 331.17,-220.845 328.034,-227.103"/>
</g>
<!-- Node6 -->
<g id="node6" class="node"><title>Node6</title>
<g id="a_node6"><a xlink:href="subs1_8F90.html#a339739b88994e5bb12bd923147f94983" target="_top" xlink:title="flush_io">
<polygon fill="white" stroke="black" points="344,-190.5 344,-209.5 397,-209.5 397,-190.5 344,-190.5"/>
<text text-anchor="middle" x="370.5" y="-197.5" font-family="Helvetica,sans-Serif" font-size="10.00">flush_io</text>
</a>
</g>
</g>
<!-- Node3&#45;&gt;Node6 -->
<g id="edge5" class="edge"><title>Node3&#45;&gt;Node6</title>
<path fill="none" stroke="midnightblue" d="M260.041,-133.518C273.36,-145.759 297.996,-167.094 322,-181 325.91,-183.265 330.142,-185.38 334.413,-187.316"/>
<polygon fill="midnightblue" stroke="midnightblue" points="333.144,-190.579 343.717,-191.254 335.873,-184.133 333.144,-190.579"/>
</g>
<!-- Node7 -->
<g id="node7" class="node"><title>Node7</title>
<g id="a_node7"><a xlink:href="singlmesh_8F90.html#aef78ff219741b83c1ca784b869e9cacf" target="_top" xlink:title="Dummy for singlmesh. ">
<polygon fill="white" stroke="black" points="330.5,-152.5 330.5,-171.5 410.5,-171.5 410.5,-152.5 330.5,-152.5"/>
<text text-anchor="middle" x="370.5" y="-159.5" font-family="Helvetica,sans-Serif" font-size="10.00">happy_check</text>
</a>
</g>
</g>
<!-- Node3&#45;&gt;Node7 -->
<g id="edge6" class="edge"><title>Node3&#45;&gt;Node7</title>
<path fill="none" stroke="midnightblue" d="M267.121,-129.444C283.39,-134.618 308.455,-142.588 329.712,-149.348"/>
<polygon fill="midnightblue" stroke="midnightblue" points="328.885,-152.757 339.475,-152.452 331.006,-146.087 328.885,-152.757"/>
</g>
<!-- Node8 -->
<g id="node8" class="node"><title>Node8</title>
<g id="a_node8"><a xlink:href="mpi__dummy_8F90.html#a55e9a1619aadb638b14211ce21d7d566" target="_top" xlink:title="mpi_finalize">
<polygon fill="white" stroke="black" points="334.5,-114.5 334.5,-133.5 406.5,-133.5 406.5,-114.5 334.5,-114.5"/>
<text text-anchor="middle" x="370.5" y="-121.5" font-family="Helvetica,sans-Serif" font-size="10.00">mpi_finalize</text>
</a>
</g>
</g>
<!-- Node3&#45;&gt;Node8 -->
<g id="edge7" class="edge"><title>Node3&#45;&gt;Node8</title>
<path fill="none" stroke="midnightblue" d="M267.121,-124C281.96,-124 304.117,-124 324.028,-124"/>
<polygon fill="midnightblue" stroke="midnightblue" points="324.184,-127.5 334.184,-124 324.184,-120.5 324.184,-127.5"/>
</g>
<!-- Node9 -->
<g id="node9" class="node"><title>Node9</title>
<g id="a_node9"><a xlink:href="papi_8F90.html#a3a75ccdfbe05912fda48c3b134d114c0" target="_top" xlink:title="nek_flops">
<polygon fill="white" stroke="black" points="339.5,-76.5 339.5,-95.5 401.5,-95.5 401.5,-76.5 339.5,-76.5"/>
<text text-anchor="middle" x="370.5" y="-83.5" font-family="Helvetica,sans-Serif" font-size="10.00">nek_flops</text>
</a>
</g>
</g>
<!-- Node3&#45;&gt;Node9 -->
<g id="edge8" class="edge"><title>Node3&#45;&gt;Node9</title>
<path fill="none" stroke="midnightblue" d="M267.121,-118.556C283.39,-113.382 308.455,-105.412 329.712,-98.6521"/>
<polygon fill="midnightblue" stroke="midnightblue" points="331.006,-101.913 339.475,-95.5476 328.885,-95.2426 331.006,-101.913"/>
</g>
<!-- Node11 -->
<g id="node11" class="node"><title>Node11</title>
<g id="a_node11"><a xlink:href="comm__mpi_8F90.html#a4acb4d8e379294232e9219bec063d8f3" target="_top" xlink:title="nekgsync">
<polygon fill="white" stroke="black" points="339.5,-38.5 339.5,-57.5 401.5,-57.5 401.5,-38.5 339.5,-38.5"/>
<text text-anchor="middle" x="370.5" y="-45.5" font-family="Helvetica,sans-Serif" font-size="10.00">nekgsync</text>
</a>
</g>
</g>
<!-- Node3&#45;&gt;Node11 -->
<g id="edge10" class="edge"><title>Node3&#45;&gt;Node11</title>
<path fill="none" stroke="midnightblue" d="M260.041,-114.482C273.36,-102.241 297.996,-80.9058 322,-67 325.266,-65.1078 328.757,-63.3202 332.308,-61.6547"/>
<polygon fill="midnightblue" stroke="midnightblue" points="333.968,-64.7491 341.735,-57.5428 331.17,-58.3329 333.968,-64.7491"/>
</g>
<!-- Node5 -->
<g id="node5" class="node"><title>Node5</title>
<g id="a_node5"><a xlink:href="mpi__dummy_8F90.html#ae6a5ef945f87c2c27849696b70f3af2a" target="_top" xlink:title="mpi_wtime">
<polygon fill="white" stroke="black" points="462,-228.5 462,-247.5 528,-247.5 528,-228.5 462,-228.5"/>
<text text-anchor="middle" x="495" y="-235.5" font-family="Helvetica,sans-Serif" font-size="10.00">mpi_wtime</text>
</a>
</g>
</g>
<!-- Node4&#45;&gt;Node5 -->
<g id="edge4" class="edge"><title>Node4&#45;&gt;Node5</title>
<path fill="none" stroke="midnightblue" d="M419.212,-238C429.894,-238 441.154,-238 451.603,-238"/>
<polygon fill="midnightblue" stroke="midnightblue" points="451.73,-241.5 461.729,-238 451.729,-234.5 451.73,-241.5"/>
</g>
<!-- Node10 -->
<g id="node10" class="node"><title>Node10</title>
<g id="a_node10"><a xlink:href="papi_8F90.html#a838be3d39e287e29002d5a68c6ad2dd8" target="_top" xlink:title="getflops_papi">
<polygon fill="white" stroke="black" points="455,-76.5 455,-95.5 535,-95.5 535,-76.5 455,-76.5"/>
<text text-anchor="middle" x="495" y="-83.5" font-family="Helvetica,sans-Serif" font-size="10.00">getflops_papi</text>
</a>
</g>
</g>
<!-- Node9&#45;&gt;Node10 -->
<g id="edge9" class="edge"><title>Node9&#45;&gt;Node10</title>
<path fill="none" stroke="midnightblue" d="M401.781,-86C414.666,-86 430.032,-86 444.491,-86"/>
<polygon fill="midnightblue" stroke="midnightblue" points="444.811,-89.5001 454.811,-86 444.811,-82.5001 444.811,-89.5001"/>
</g>
<!-- Node12 -->
<g id="node12" class="node"><title>Node12</title>
<g id="a_node12"><a xlink:href="mpi__dummy_8F90.html#a070afe564196eb48413dbf1a9fbc99aa" target="_top" xlink:title="mpi_barrier">
<polygon fill="white" stroke="black" points="460,-38.5 460,-57.5 530,-57.5 530,-38.5 460,-38.5"/>
<text text-anchor="middle" x="495" y="-45.5" font-family="Helvetica,sans-Serif" font-size="10.00">mpi_barrier</text>
</a>
</g>
</g>
<!-- Node11&#45;&gt;Node12 -->
<g id="edge11" class="edge"><title>Node11&#45;&gt;Node12</title>
<path fill="none" stroke="midnightblue" d="M401.781,-48C416.195,-48 433.714,-48 449.594,-48"/>
<polygon fill="midnightblue" stroke="midnightblue" points="449.745,-51.5001 459.745,-48 449.745,-44.5001 449.745,-51.5001"/>
</g>
<!-- Node14 -->
<g id="node14" class="node"><title>Node14</title>
<g id="a_node14"><a xlink:href="classspeclib.html#af7eaf2eb0994474cab3a5582bbf02903" target="_top" xlink:title="speclib::jacobf">
<polygon fill="white" stroke="black" points="330,-0.5 330,-19.5 411,-19.5 411,-0.5 330,-0.5"/>
<text text-anchor="middle" x="370.5" y="-7.5" font-family="Helvetica,sans-Serif" font-size="10.00">speclib::jacobf</text>
</a>
</g>
</g>
<!-- Node13&#45;&gt;Node14 -->
<g id="edge13" class="edge"><title>Node13&#45;&gt;Node14</title>
<path fill="none" stroke="midnightblue" d="M280.155,-38.411C295.157,-33.6406 313.488,-27.8112 329.634,-22.6771"/>
<polygon fill="midnightblue" stroke="midnightblue" points="330.886,-25.9518 339.355,-19.5859 328.764,-19.281 330.886,-25.9518"/>
</g>
</g>
</svg>
