<?xml version="1.0" encoding="UTF-8" standalone="no"?>
<!DOCTYPE svg PUBLIC "-//W3C//DTD SVG 1.1//EN"
 "http://www.w3.org/Graphics/SVG/1.1/DTD/svg11.dtd">
<!-- Generated by graphviz version 2.38.0 (20140413.2041)
 -->
<!-- Title: poisson::poisson_kernel Pages: 1 -->
<svg width="1941pt" height="75pt"
 viewBox="0.00 0.00 1941.00 74.50" xmlns="http://www.w3.org/2000/svg" xmlns:xlink="http://www.w3.org/1999/xlink">
<g id="graph0" class="graph" transform="scale(1 1) rotate(0) translate(4 70.5)">
<title>poisson::poisson_kernel</title>
<polygon fill="white" stroke="none" points="-4,4 -4,-70.5 1937,-70.5 1937,4 -4,4"/>
<!-- Node1 -->
<g id="node1" class="node"><title>Node1</title>
<polygon fill="#bfbfbf" stroke="black" points="0,-17.5 0,-36.5 130,-36.5 130,-17.5 0,-17.5"/>
<text text-anchor="middle" x="65" y="-24.5" font-family="Helvetica,sans-Serif" font-size="10.00">poisson::poisson_kernel</text>
</g>
<!-- Node2 -->
<g id="node2" class="node"><title>Node2</title>
<g id="a_node2"><a xlink:href="classpoisson.html#a557b9bfb94e35c8716319d8d8145cacc" target="_top" xlink:title="poisson::cos_test">
<polygon fill="white" stroke="black" points="166,-38.5 166,-57.5 264,-57.5 264,-38.5 166,-38.5"/>
<text text-anchor="middle" x="215" y="-45.5" font-family="Helvetica,sans-Serif" font-size="10.00">poisson::cos_test</text>
</a>
</g>
</g>
<!-- Node1&#45;&gt;Node2 -->
<g id="edge1" class="edge"><title>Node1&#45;&gt;Node2</title>
<path fill="none" stroke="midnightblue" d="M139.977,-37.4967C148.789,-38.7471 157.602,-39.9976 165.915,-41.1771"/>
<polygon fill="midnightblue" stroke="midnightblue" points="140.447,-34.0284 130.054,-36.0888 139.463,-40.959 140.447,-34.0284"/>
</g>
<!-- Node4 -->
<g id="node4" class="node"><title>Node4</title>
<g id="a_node4"><a xlink:href="classpoisson.html#a1ab874c434e5694003e378739fb98c65" target="_top" xlink:title="poisson::spectral_solve">
<polygon fill="white" stroke="black" points="441,-19.5 441,-38.5 567,-38.5 567,-19.5 441,-19.5"/>
<text text-anchor="middle" x="504" y="-26.5" font-family="Helvetica,sans-Serif" font-size="10.00">poisson::spectral_solve</text>
</a>
</g>
</g>
<!-- Node1&#45;&gt;Node4 -->
<g id="edge21" class="edge"><title>Node1&#45;&gt;Node4</title>
<path fill="none" stroke="midnightblue" d="M140.333,-26.0013C209.019,-25.2635 313.902,-24.606 405,-26 416.574,-26.1771 428.913,-26.4718 440.795,-26.8091"/>
<polygon fill="midnightblue" stroke="midnightblue" points="140.008,-22.5045 130.048,-26.1152 140.086,-29.5041 140.008,-22.5045"/>
</g>
<!-- Node3 -->
<g id="node3" class="node"><title>Node3</title>
<g id="a_node3"><a xlink:href="classpoisson.html#ace48c9eb09141b029fd923de91c5cbbc" target="_top" xlink:title="one&#45;time setup of communication infrastructure for poisson_mod ">
<polygon fill="white" stroke="black" points="300,-36 300,-66 405,-66 405,-36 300,-36"/>
<text text-anchor="start" x="308" y="-54" font-family="Helvetica,sans-Serif" font-size="10.00">poisson::init_comm</text>
<text text-anchor="middle" x="352.5" y="-43" font-family="Helvetica,sans-Serif" font-size="10.00">_infrastructure</text>
</a>
</g>
</g>
<!-- Node2&#45;&gt;Node3 -->
<g id="edge2" class="edge"><title>Node2&#45;&gt;Node3</title>
<path fill="none" stroke="midnightblue" d="M274.353,-49.2919C282.825,-49.4795 291.498,-49.6715 299.826,-49.8559"/>
<polygon fill="midnightblue" stroke="midnightblue" points="274.229,-45.7884 264.154,-49.0661 274.074,-52.7867 274.229,-45.7884"/>
</g>
<!-- Node3&#45;&gt;Node4 -->
<g id="edge3" class="edge"><title>Node3&#45;&gt;Node4</title>
<path fill="none" stroke="midnightblue" d="M415.484,-41.8786C423.892,-40.6413 432.522,-39.3714 440.931,-38.1339"/>
<polygon fill="midnightblue" stroke="midnightblue" points="414.752,-38.4485 405.368,-43.3672 415.771,-45.3739 414.752,-38.4485"/>
</g>
<!-- Node5 -->
<g id="node5" class="node"><title>Node5</title>
<g id="a_node5"><a xlink:href="classhsmg__routines.html#adb1f241321c99f913f53fefefee82c09" target="_top" xlink:title="hsmg_routines::hsmg\l_coarse_solve">
<polygon fill="white" stroke="black" points="603,-14 603,-44 719,-44 719,-14 603,-14"/>
<text text-anchor="start" x="611" y="-32" font-family="Helvetica,sans-Serif" font-size="10.00">hsmg_routines::hsmg</text>
<text text-anchor="middle" x="661" y="-21" font-family="Helvetica,sans-Serif" font-size="10.00">_coarse_solve</text>
</a>
</g>
</g>
<!-- Node4&#45;&gt;Node5 -->
<g id="edge4" class="edge"><title>Node4&#45;&gt;Node5</title>
<path fill="none" stroke="midnightblue" d="M577.192,-29C585.801,-29 594.498,-29 602.855,-29"/>
<polygon fill="midnightblue" stroke="midnightblue" points="577.151,-25.5001 567.151,-29 577.151,-32.5001 577.151,-25.5001"/>
</g>
<!-- Node6 -->
<g id="node6" class="node"><title>Node6</title>
<g id="a_node6"><a xlink:href="classhsmg__routines.html#abaa25315b11254629ed79c12c169c52f" target="_top" xlink:title="Solve preconditioner: z = M rhs, where . ">
<polygon fill="white" stroke="black" points="755,-14 755,-44 871,-44 871,-14 755,-14"/>
<text text-anchor="start" x="763" y="-32" font-family="Helvetica,sans-Serif" font-size="10.00">hsmg_routines::h1mg</text>
<text text-anchor="middle" x="813" y="-21" font-family="Helvetica,sans-Serif" font-size="10.00">_solve</text>
</a>
</g>
</g>
<!-- Node5&#45;&gt;Node6 -->
<g id="edge5" class="edge"><title>Node5&#45;&gt;Node6</title>
<path fill="none" stroke="midnightblue" d="M729.311,-29C737.728,-29 746.277,-29 754.525,-29"/>
<polygon fill="midnightblue" stroke="midnightblue" points="729.137,-25.5001 719.136,-29 729.136,-32.5001 729.137,-25.5001"/>
</g>
<!-- Node7 -->
<g id="node7" class="node"><title>Node7</title>
<g id="a_node7"><a xlink:href="gmres_8F90.html#a377d8578c6ccd4fddffb699c7a18f603" target="_top" xlink:title="Solve the Helmholtz equation by right&#45;preconditioned GMRES iteration. ">
<polygon fill="white" stroke="black" points="907,-19.5 907,-38.5 979,-38.5 979,-19.5 907,-19.5"/>
<text text-anchor="middle" x="943" y="-26.5" font-family="Helvetica,sans-Serif" font-size="10.00">hmh_gmres</text>
</a>
</g>
</g>
<!-- Node6&#45;&gt;Node7 -->
<g id="edge6" class="edge"><title>Node6&#45;&gt;Node7</title>
<path fill="none" stroke="midnightblue" d="M881.521,-29C890.26,-29 898.911,-29 906.82,-29"/>
<polygon fill="midnightblue" stroke="midnightblue" points="881.261,-25.5001 871.261,-29 881.261,-32.5001 881.261,-25.5001"/>
</g>
<!-- Node8 -->
<g id="node8" class="node"><title>Node8</title>
<g id="a_node8"><a xlink:href="hmholtz_8F90.html#a8734f3cc2d37d6a2ccd1daa8db57513d" target="_top" xlink:title="Solve the Helmholtz equation, H*U = RHS, using preconditioned conjugate gradient iteration. Preconditioner: diag(H). ">
<polygon fill="white" stroke="black" points="1015,-19.5 1015,-38.5 1055,-38.5 1055,-19.5 1015,-19.5"/>
<text text-anchor="middle" x="1035" y="-26.5" font-family="Helvetica,sans-Serif" font-size="10.00">cggo</text>
</a>
</g>
</g>
<!-- Node7&#45;&gt;Node8 -->
<g id="edge7" class="edge"><title>Node7&#45;&gt;Node8</title>
<path fill="none" stroke="midnightblue" d="M989.165,-29C998.185,-29 1007.2,-29 1014.75,-29"/>
<polygon fill="midnightblue" stroke="midnightblue" points="989.054,-25.5001 979.054,-29 989.054,-32.5001 989.054,-25.5001"/>
</g>
<!-- Node9 -->
<g id="node9" class="node"><title>Node9</title>
<g id="a_node9"><a xlink:href="hmholtz_8F90.html#a52dcac1fe733719d4987d36aac022e4d" target="_top" xlink:title="hmholtz">
<polygon fill="white" stroke="black" points="1115,-38.5 1115,-57.5 1168,-57.5 1168,-38.5 1115,-38.5"/>
<text text-anchor="middle" x="1141.5" y="-45.5" font-family="Helvetica,sans-Serif" font-size="10.00">hmholtz</text>
</a>
</g>
</g>
<!-- Node8&#45;&gt;Node9 -->
<g id="edge8" class="edge"><title>Node8&#45;&gt;Node9</title>
<path fill="none" stroke="midnightblue" d="M1065.3,-34.3274C1080.85,-37.1545 1099.78,-40.5968 1114.76,-43.3201"/>
<polygon fill="midnightblue" stroke="midnightblue" points="1065.63,-30.8303 1055.17,-32.4849 1064.38,-37.7174 1065.63,-30.8303"/>
</g>
<!-- Node19 -->
<g id="node19" class="node"><title>Node19</title>
<g id="a_node19"><a xlink:href="classhelmholtz.html#ae307c08c70cdc6428553cb85ce68cbbb" target="_top" xlink:title="helmholtz::hmhzpf">
<polygon fill="white" stroke="black" points="1091,-0.5 1091,-19.5 1192,-19.5 1192,-0.5 1091,-0.5"/>
<text text-anchor="middle" x="1141.5" y="-7.5" font-family="Helvetica,sans-Serif" font-size="10.00">helmholtz::hmhzpf</text>
</a>
</g>
</g>
<!-- Node8&#45;&gt;Node19 -->
<g id="edge19" class="edge"><title>Node8&#45;&gt;Node19</title>
<path fill="none" stroke="midnightblue" d="M1065.13,-23.7036C1073.18,-22.2407 1082.14,-20.6112 1090.99,-19.001"/>
<polygon fill="midnightblue" stroke="midnightblue" points="1064.38,-20.2826 1055.17,-25.5151 1065.63,-27.1697 1064.38,-20.2826"/>
</g>
<!-- Node10 -->
<g id="node10" class="node"><title>Node10</title>
<g id="a_node10"><a xlink:href="classhelmholtz.html#abf98ad104d11790462e9f07b3fa91848" target="_top" xlink:title="Either std. Helmholtz solve, or a projection + Helmholtz solve. ">
<polygon fill="white" stroke="black" points="1228,-19.5 1228,-38.5 1325,-38.5 1325,-19.5 1228,-19.5"/>
<text text-anchor="middle" x="1276.5" y="-26.5" font-family="Helvetica,sans-Serif" font-size="10.00">helmholtz::hsolve</text>
</a>
</g>
</g>
<!-- Node9&#45;&gt;Node10 -->
<g id="edge9" class="edge"><title>Node9&#45;&gt;Node10</title>
<path fill="none" stroke="midnightblue" d="M1178.21,-42.899C1193.46,-40.7197 1211.49,-38.144 1227.86,-35.8058"/>
<polygon fill="midnightblue" stroke="midnightblue" points="1177.55,-39.4575 1168.14,-44.3366 1178.54,-46.3871 1177.55,-39.4575"/>
</g>
<!-- Node11 -->
<g id="node11" class="node"><title>Node11</title>
<g id="a_node11"><a xlink:href="conduct_8F90.html#a74a7f053381975ed36df8ea959f3aa01" target="_top" xlink:title="Solve the convection&#45;diffusion equation for passive scalar IPSCAL. ">
<polygon fill="white" stroke="black" points="1361,-38.5 1361,-57.5 1408,-57.5 1408,-38.5 1361,-38.5"/>
<text text-anchor="middle" x="1384.5" y="-45.5" font-family="Helvetica,sans-Serif" font-size="10.00">cdscal</text>
</a>
</g>
</g>
<!-- Node10&#45;&gt;Node11 -->
<g id="edge10" class="edge"><title>Node10&#45;&gt;Node11</title>
<path fill="none" stroke="midnightblue" d="M1335.16,-39.3345C1344.28,-40.9709 1353.23,-42.5739 1360.89,-43.9475"/>
<polygon fill="midnightblue" stroke="midnightblue" points="1335.69,-35.8744 1325.23,-37.5551 1334.45,-42.7646 1335.69,-35.8744"/>
</g>
<!-- Node17 -->
<g id="node17" class="node"><title>Node17</title>
<g id="a_node17"><a xlink:href="plan4_8F90.html#a5cbf852b67e73bfa44e028338c4d57ad" target="_top" xlink:title="Splitting scheme . ">
<polygon fill="white" stroke="black" points="1363,-0.5 1363,-19.5 1406,-19.5 1406,-0.5 1363,-0.5"/>
<text text-anchor="middle" x="1384.5" y="-7.5" font-family="Helvetica,sans-Serif" font-size="10.00">plan4</text>
</a>
</g>
</g>
<!-- Node10&#45;&gt;Node17 -->
<g id="edge16" class="edge"><title>Node10&#45;&gt;Node17</title>
<path fill="none" stroke="midnightblue" d="M1335.15,-18.6664C1345.05,-16.8917 1354.73,-15.1561 1362.8,-13.7099"/>
<polygon fill="midnightblue" stroke="midnightblue" points="1334.45,-15.2354 1325.23,-20.4449 1335.69,-22.1256 1334.45,-15.2354"/>
</g>
<!-- Node12 -->
<g id="node12" class="node"><title>Node12</title>
<g id="a_node12"><a xlink:href="drive2_8F90.html#acce80cd37f20e9b52729eb52d86a9c86" target="_top" xlink:title="Driver for temperature or passive scalar. ">
<polygon fill="white" stroke="black" points="1444,-38.5 1444,-57.5 1482,-57.5 1482,-38.5 1444,-38.5"/>
<text text-anchor="middle" x="1463" y="-45.5" font-family="Helvetica,sans-Serif" font-size="10.00">heat</text>
</a>
</g>
</g>
<!-- Node11&#45;&gt;Node12 -->
<g id="edge11" class="edge"><title>Node11&#45;&gt;Node12</title>
<path fill="none" stroke="midnightblue" d="M1418.13,-48C1426.99,-48 1436.26,-48 1443.98,-48"/>
<polygon fill="midnightblue" stroke="midnightblue" points="1418.04,-44.5001 1408.04,-48 1418.04,-51.5001 1418.04,-44.5001"/>
</g>
<!-- Node13 -->
<g id="node13" class="node"><title>Node13</title>
<g id="a_node13"><a xlink:href="drive1_8F90.html#ae177ea7efac97f35241521b782a671c0" target="_top" xlink:title="take a single time&#45;step ">
<polygon fill="white" stroke="black" points="1518,-19.5 1518,-38.5 1598,-38.5 1598,-19.5 1518,-19.5"/>
<text text-anchor="middle" x="1558" y="-26.5" font-family="Helvetica,sans-Serif" font-size="10.00">nek_advance</text>
</a>
</g>
</g>
<!-- Node12&#45;&gt;Node13 -->
<g id="edge12" class="edge"><title>Node12&#45;&gt;Node13</title>
<path fill="none" stroke="midnightblue" d="M1492.36,-42.2055C1500.41,-40.5604 1509.33,-38.7395 1517.9,-36.9889"/>
<polygon fill="midnightblue" stroke="midnightblue" points="1491.47,-38.8153 1482.37,-44.2462 1492.87,-45.6736 1491.47,-38.8153"/>
</g>
<!-- Node14 -->
<g id="node14" class="node"><title>Node14</title>
<g id="a_node14"><a xlink:href="drive1_8F90.html#a18d3e839786263fc4cf91f7eeb714371" target="_top" xlink:title="take a chunk of time&#45;steps ">
<polygon fill="white" stroke="black" points="1634,-19.5 1634,-38.5 1747,-38.5 1747,-19.5 1634,-19.5"/>
<text text-anchor="middle" x="1690.5" y="-26.5" font-family="Helvetica,sans-Serif" font-size="10.00">nek__multi_advance</text>
</a>
</g>
</g>
<!-- Node13&#45;&gt;Node14 -->
<g id="edge13" class="edge"><title>Node13&#45;&gt;Node14</title>
<path fill="none" stroke="midnightblue" d="M1608.19,-29C1616.61,-29 1625.4,-29 1633.97,-29"/>
<polygon fill="midnightblue" stroke="midnightblue" points="1608.15,-25.5001 1598.15,-29 1608.15,-32.5001 1608.15,-25.5001"/>
</g>
<!-- Node15 -->
<g id="node15" class="node"><title>Node15</title>
<g id="a_node15"><a xlink:href="drive1_8F90.html#a6ad57e0cf728f343e371ef8c9a02cd8a" target="_top" xlink:title="integrate the governing equations in time ">
<polygon fill="white" stroke="black" points="1783,-19.5 1783,-38.5 1848,-38.5 1848,-19.5 1783,-19.5"/>
<text text-anchor="middle" x="1815.5" y="-26.5" font-family="Helvetica,sans-Serif" font-size="10.00">nek_solve</text>
</a>
</g>
</g>
<!-- Node14&#45;&gt;Node15 -->
<g id="edge14" class="edge"><title>Node14&#45;&gt;Node15</title>
<path fill="none" stroke="midnightblue" d="M1757.28,-29C1766.16,-29 1774.93,-29 1782.82,-29"/>
<polygon fill="midnightblue" stroke="midnightblue" points="1757.24,-25.5001 1747.24,-29 1757.24,-32.5001 1757.24,-25.5001"/>
</g>
<!-- Node16 -->
<g id="node16" class="node"><title>Node16</title>
<g id="a_node16"><a xlink:href="drive_8F90.html#a13048bf28dd0734640412d69349e3857" target="_top" xlink:title="NEK5000: Spectral Element Computational Fluid Dynamics Solver COPYRIGHT (c) 2008&#45;2010 UCHICAGO ARGONN...">
<polygon fill="white" stroke="black" points="1884,-19.5 1884,-38.5 1933,-38.5 1933,-19.5 1884,-19.5"/>
<text text-anchor="middle" x="1908.5" y="-26.5" font-family="Helvetica,sans-Serif" font-size="10.00">nekton</text>
</a>
</g>
</g>
<!-- Node15&#45;&gt;Node16 -->
<g id="edge15" class="edge"><title>Node15&#45;&gt;Node16</title>
<path fill="none" stroke="midnightblue" d="M1858.19,-29C1866.95,-29 1875.9,-29 1883.73,-29"/>
<polygon fill="midnightblue" stroke="midnightblue" points="1858.07,-25.5001 1848.07,-29 1858.07,-32.5001 1858.07,-25.5001"/>
</g>
<!-- Node18 -->
<g id="node18" class="node"><title>Node18</title>
<g id="a_node18"><a xlink:href="drive2_8F90.html#ab0aeca9ad3db8be87a01ba29d069d71e" target="_top" xlink:title="Driver for solving the incompressible Navier&#45;Stokes equations. ">
<polygon fill="white" stroke="black" points="1445.5,-0.5 1445.5,-19.5 1480.5,-19.5 1480.5,-0.5 1445.5,-0.5"/>
<text text-anchor="middle" x="1463" y="-7.5" font-family="Helvetica,sans-Serif" font-size="10.00">fluid</text>
</a>
</g>
</g>
<!-- Node17&#45;&gt;Node18 -->
<g id="edge17" class="edge"><title>Node17&#45;&gt;Node18</title>
<path fill="none" stroke="midnightblue" d="M1416.26,-10C1426.09,-10 1436.6,-10 1445.06,-10"/>
<polygon fill="midnightblue" stroke="midnightblue" points="1416,-6.5001 1406,-10 1416,-13.5001 1416,-6.5001"/>
</g>
<!-- Node18&#45;&gt;Node13 -->
<g id="edge18" class="edge"><title>Node18&#45;&gt;Node13</title>
<path fill="none" stroke="midnightblue" d="M1490.63,-15.4415C1499.08,-17.1662 1508.59,-19.1106 1517.73,-20.9771"/>
<polygon fill="midnightblue" stroke="midnightblue" points="1491.12,-11.9694 1480.63,-13.3968 1489.72,-18.8277 1491.12,-11.9694"/>
</g>
<!-- Node19&#45;&gt;Node10 -->
<g id="edge20" class="edge"><title>Node19&#45;&gt;Node10</title>
<path fill="none" stroke="midnightblue" d="M1202.01,-18.5018C1210.61,-19.7303 1219.37,-20.9814 1227.7,-22.1716"/>
<polygon fill="midnightblue" stroke="midnightblue" points="1202.42,-15.0244 1192.02,-17.0749 1201.43,-21.954 1202.42,-15.0244"/>
</g>
</g>
</svg>
