<?xml version="1.0" encoding="UTF-8" standalone="no"?>
<!DOCTYPE svg PUBLIC "-//W3C//DTD SVG 1.1//EN"
 "http://www.w3.org/Graphics/SVG/1.1/DTD/svg11.dtd">
<!-- Generated by graphviz version 2.38.0 (20140413.2041)
 -->
<!-- Title: poisson::cos_test Pages: 1 -->
<svg width="1775pt" height="66pt"
 viewBox="0.00 0.00 1775.00 66.00" xmlns="http://www.w3.org/2000/svg" xmlns:xlink="http://www.w3.org/1999/xlink">
<g id="graph0" class="graph" transform="scale(1 1) rotate(0) translate(4 62)">
<title>poisson::cos_test</title>
<polygon fill="white" stroke="none" points="-4,4 -4,-62 1771,-62 1771,4 -4,4"/>
<!-- Node1 -->
<g id="node1" class="node"><title>Node1</title>
<polygon fill="#bfbfbf" stroke="black" points="0,-19.5 0,-38.5 98,-38.5 98,-19.5 0,-19.5"/>
<text text-anchor="middle" x="49" y="-26.5" font-family="Helvetica,sans-Serif" font-size="10.00">poisson::cos_test</text>
</g>
<!-- Node2 -->
<g id="node2" class="node"><title>Node2</title>
<g id="a_node2"><a xlink:href="classpoisson.html#ace48c9eb09141b029fd923de91c5cbbc" target="_top" xlink:title="one&#45;time setup of communication infrastructure for poisson_mod ">
<polygon fill="white" stroke="black" points="134,-14 134,-44 239,-44 239,-14 134,-14"/>
<text text-anchor="start" x="142" y="-32" font-family="Helvetica,sans-Serif" font-size="10.00">poisson::init_comm</text>
<text text-anchor="middle" x="186.5" y="-21" font-family="Helvetica,sans-Serif" font-size="10.00">_infrastructure</text>
</a>
</g>
</g>
<!-- Node1&#45;&gt;Node2 -->
<g id="edge1" class="edge"><title>Node1&#45;&gt;Node2</title>
<path fill="none" stroke="midnightblue" d="M108.353,-29C116.825,-29 125.498,-29 133.826,-29"/>
<polygon fill="midnightblue" stroke="midnightblue" points="108.154,-25.5001 98.1538,-29 108.154,-32.5001 108.154,-25.5001"/>
</g>
<!-- Node3 -->
<g id="node3" class="node"><title>Node3</title>
<g id="a_node3"><a xlink:href="classpoisson.html#a1ab874c434e5694003e378739fb98c65" target="_top" xlink:title="poisson::spectral_solve">
<polygon fill="white" stroke="black" points="275,-19.5 275,-38.5 401,-38.5 401,-19.5 275,-19.5"/>
<text text-anchor="middle" x="338" y="-26.5" font-family="Helvetica,sans-Serif" font-size="10.00">poisson::spectral_solve</text>
</a>
</g>
</g>
<!-- Node2&#45;&gt;Node3 -->
<g id="edge2" class="edge"><title>Node2&#45;&gt;Node3</title>
<path fill="none" stroke="midnightblue" d="M249.484,-29C257.892,-29 266.522,-29 274.931,-29"/>
<polygon fill="midnightblue" stroke="midnightblue" points="249.368,-25.5001 239.368,-29 249.368,-32.5001 249.368,-25.5001"/>
</g>
<!-- Node4 -->
<g id="node4" class="node"><title>Node4</title>
<g id="a_node4"><a xlink:href="classhsmg__routines.html#adb1f241321c99f913f53fefefee82c09" target="_top" xlink:title="hsmg_routines::hsmg\l_coarse_solve">
<polygon fill="white" stroke="black" points="437,-14 437,-44 553,-44 553,-14 437,-14"/>
<text text-anchor="start" x="445" y="-32" font-family="Helvetica,sans-Serif" font-size="10.00">hsmg_routines::hsmg</text>
<text text-anchor="middle" x="495" y="-21" font-family="Helvetica,sans-Serif" font-size="10.00">_coarse_solve</text>
</a>
</g>
</g>
<!-- Node3&#45;&gt;Node4 -->
<g id="edge3" class="edge"><title>Node3&#45;&gt;Node4</title>
<path fill="none" stroke="midnightblue" d="M411.192,-29C419.801,-29 428.498,-29 436.855,-29"/>
<polygon fill="midnightblue" stroke="midnightblue" points="411.151,-25.5001 401.151,-29 411.151,-32.5001 411.151,-25.5001"/>
</g>
<!-- Node5 -->
<g id="node5" class="node"><title>Node5</title>
<g id="a_node5"><a xlink:href="classhsmg__routines.html#abaa25315b11254629ed79c12c169c52f" target="_top" xlink:title="Solve preconditioner: z = M rhs, where . ">
<polygon fill="white" stroke="black" points="589,-14 589,-44 705,-44 705,-14 589,-14"/>
<text text-anchor="start" x="597" y="-32" font-family="Helvetica,sans-Serif" font-size="10.00">hsmg_routines::h1mg</text>
<text text-anchor="middle" x="647" y="-21" font-family="Helvetica,sans-Serif" font-size="10.00">_solve</text>
</a>
</g>
</g>
<!-- Node4&#45;&gt;Node5 -->
<g id="edge4" class="edge"><title>Node4&#45;&gt;Node5</title>
<path fill="none" stroke="midnightblue" d="M563.311,-29C571.728,-29 580.277,-29 588.525,-29"/>
<polygon fill="midnightblue" stroke="midnightblue" points="563.137,-25.5001 553.136,-29 563.136,-32.5001 563.137,-25.5001"/>
</g>
<!-- Node6 -->
<g id="node6" class="node"><title>Node6</title>
<g id="a_node6"><a xlink:href="gmres_8F90.html#a377d8578c6ccd4fddffb699c7a18f603" target="_top" xlink:title="Solve the Helmholtz equation by right&#45;preconditioned GMRES iteration. ">
<polygon fill="white" stroke="black" points="741,-19.5 741,-38.5 813,-38.5 813,-19.5 741,-19.5"/>
<text text-anchor="middle" x="777" y="-26.5" font-family="Helvetica,sans-Serif" font-size="10.00">hmh_gmres</text>
</a>
</g>
</g>
<!-- Node5&#45;&gt;Node6 -->
<g id="edge5" class="edge"><title>Node5&#45;&gt;Node6</title>
<path fill="none" stroke="midnightblue" d="M715.521,-29C724.26,-29 732.911,-29 740.82,-29"/>
<polygon fill="midnightblue" stroke="midnightblue" points="715.261,-25.5001 705.261,-29 715.261,-32.5001 715.261,-25.5001"/>
</g>
<!-- Node7 -->
<g id="node7" class="node"><title>Node7</title>
<g id="a_node7"><a xlink:href="hmholtz_8F90.html#a8734f3cc2d37d6a2ccd1daa8db57513d" target="_top" xlink:title="Solve the Helmholtz equation, H*U = RHS, using preconditioned conjugate gradient iteration. Preconditioner: diag(H). ">
<polygon fill="white" stroke="black" points="849,-19.5 849,-38.5 889,-38.5 889,-19.5 849,-19.5"/>
<text text-anchor="middle" x="869" y="-26.5" font-family="Helvetica,sans-Serif" font-size="10.00">cggo</text>
</a>
</g>
</g>
<!-- Node6&#45;&gt;Node7 -->
<g id="edge6" class="edge"><title>Node6&#45;&gt;Node7</title>
<path fill="none" stroke="midnightblue" d="M823.165,-29C832.185,-29 841.197,-29 848.75,-29"/>
<polygon fill="midnightblue" stroke="midnightblue" points="823.054,-25.5001 813.054,-29 823.054,-32.5001 823.054,-25.5001"/>
</g>
<!-- Node8 -->
<g id="node8" class="node"><title>Node8</title>
<g id="a_node8"><a xlink:href="hmholtz_8F90.html#a52dcac1fe733719d4987d36aac022e4d" target="_top" xlink:title="hmholtz">
<polygon fill="white" stroke="black" points="949,-38.5 949,-57.5 1002,-57.5 1002,-38.5 949,-38.5"/>
<text text-anchor="middle" x="975.5" y="-45.5" font-family="Helvetica,sans-Serif" font-size="10.00">hmholtz</text>
</a>
</g>
</g>
<!-- Node7&#45;&gt;Node8 -->
<g id="edge7" class="edge"><title>Node7&#45;&gt;Node8</title>
<path fill="none" stroke="midnightblue" d="M899.301,-34.3274C914.85,-37.1545 933.782,-40.5968 948.761,-43.3201"/>
<polygon fill="midnightblue" stroke="midnightblue" points="899.632,-30.8303 889.167,-32.4849 898.379,-37.7174 899.632,-30.8303"/>
</g>
<!-- Node18 -->
<g id="node18" class="node"><title>Node18</title>
<g id="a_node18"><a xlink:href="classhelmholtz.html#ae307c08c70cdc6428553cb85ce68cbbb" target="_top" xlink:title="helmholtz::hmhzpf">
<polygon fill="white" stroke="black" points="925,-0.5 925,-19.5 1026,-19.5 1026,-0.5 925,-0.5"/>
<text text-anchor="middle" x="975.5" y="-7.5" font-family="Helvetica,sans-Serif" font-size="10.00">helmholtz::hmhzpf</text>
</a>
</g>
</g>
<!-- Node7&#45;&gt;Node18 -->
<g id="edge18" class="edge"><title>Node7&#45;&gt;Node18</title>
<path fill="none" stroke="midnightblue" d="M899.13,-23.7036C907.176,-22.2407 916.138,-20.6112 924.995,-19.001"/>
<polygon fill="midnightblue" stroke="midnightblue" points="898.379,-20.2826 889.167,-25.5151 899.632,-27.1697 898.379,-20.2826"/>
</g>
<!-- Node9 -->
<g id="node9" class="node"><title>Node9</title>
<g id="a_node9"><a xlink:href="classhelmholtz.html#abf98ad104d11790462e9f07b3fa91848" target="_top" xlink:title="Either std. Helmholtz solve, or a projection + Helmholtz solve. ">
<polygon fill="white" stroke="black" points="1062,-19.5 1062,-38.5 1159,-38.5 1159,-19.5 1062,-19.5"/>
<text text-anchor="middle" x="1110.5" y="-26.5" font-family="Helvetica,sans-Serif" font-size="10.00">helmholtz::hsolve</text>
</a>
</g>
</g>
<!-- Node8&#45;&gt;Node9 -->
<g id="edge8" class="edge"><title>Node8&#45;&gt;Node9</title>
<path fill="none" stroke="midnightblue" d="M1012.21,-42.899C1027.46,-40.7197 1045.49,-38.144 1061.86,-35.8058"/>
<polygon fill="midnightblue" stroke="midnightblue" points="1011.55,-39.4575 1002.14,-44.3366 1012.54,-46.3871 1011.55,-39.4575"/>
</g>
<!-- Node10 -->
<g id="node10" class="node"><title>Node10</title>
<g id="a_node10"><a xlink:href="conduct_8F90.html#a74a7f053381975ed36df8ea959f3aa01" target="_top" xlink:title="Solve the convection&#45;diffusion equation for passive scalar IPSCAL. ">
<polygon fill="white" stroke="black" points="1195,-38.5 1195,-57.5 1242,-57.5 1242,-38.5 1195,-38.5"/>
<text text-anchor="middle" x="1218.5" y="-45.5" font-family="Helvetica,sans-Serif" font-size="10.00">cdscal</text>
</a>
</g>
</g>
<!-- Node9&#45;&gt;Node10 -->
<g id="edge9" class="edge"><title>Node9&#45;&gt;Node10</title>
<path fill="none" stroke="midnightblue" d="M1169.16,-39.3345C1178.28,-40.9709 1187.23,-42.5739 1194.89,-43.9475"/>
<polygon fill="midnightblue" stroke="midnightblue" points="1169.69,-35.8744 1159.23,-37.5551 1168.45,-42.7646 1169.69,-35.8744"/>
</g>
<!-- Node16 -->
<g id="node16" class="node"><title>Node16</title>
<g id="a_node16"><a xlink:href="plan4_8F90.html#a5cbf852b67e73bfa44e028338c4d57ad" target="_top" xlink:title="Splitting scheme . ">
<polygon fill="white" stroke="black" points="1197,-0.5 1197,-19.5 1240,-19.5 1240,-0.5 1197,-0.5"/>
<text text-anchor="middle" x="1218.5" y="-7.5" font-family="Helvetica,sans-Serif" font-size="10.00">plan4</text>
</a>
</g>
</g>
<!-- Node9&#45;&gt;Node16 -->
<g id="edge15" class="edge"><title>Node9&#45;&gt;Node16</title>
<path fill="none" stroke="midnightblue" d="M1169.15,-18.6664C1179.05,-16.8917 1188.73,-15.1561 1196.8,-13.7099"/>
<polygon fill="midnightblue" stroke="midnightblue" points="1168.45,-15.2354 1159.23,-20.4449 1169.69,-22.1256 1168.45,-15.2354"/>
</g>
<!-- Node11 -->
<g id="node11" class="node"><title>Node11</title>
<g id="a_node11"><a xlink:href="drive2_8F90.html#acce80cd37f20e9b52729eb52d86a9c86" target="_top" xlink:title="Driver for temperature or passive scalar. ">
<polygon fill="white" stroke="black" points="1278,-38.5 1278,-57.5 1316,-57.5 1316,-38.5 1278,-38.5"/>
<text text-anchor="middle" x="1297" y="-45.5" font-family="Helvetica,sans-Serif" font-size="10.00">heat</text>
</a>
</g>
</g>
<!-- Node10&#45;&gt;Node11 -->
<g id="edge10" class="edge"><title>Node10&#45;&gt;Node11</title>
<path fill="none" stroke="midnightblue" d="M1252.13,-48C1260.99,-48 1270.26,-48 1277.98,-48"/>
<polygon fill="midnightblue" stroke="midnightblue" points="1252.04,-44.5001 1242.04,-48 1252.04,-51.5001 1252.04,-44.5001"/>
</g>
<!-- Node12 -->
<g id="node12" class="node"><title>Node12</title>
<g id="a_node12"><a xlink:href="drive1_8F90.html#ae177ea7efac97f35241521b782a671c0" target="_top" xlink:title="take a single time&#45;step ">
<polygon fill="white" stroke="black" points="1352,-19.5 1352,-38.5 1432,-38.5 1432,-19.5 1352,-19.5"/>
<text text-anchor="middle" x="1392" y="-26.5" font-family="Helvetica,sans-Serif" font-size="10.00">nek_advance</text>
</a>
</g>
</g>
<!-- Node11&#45;&gt;Node12 -->
<g id="edge11" class="edge"><title>Node11&#45;&gt;Node12</title>
<path fill="none" stroke="midnightblue" d="M1326.36,-42.2055C1334.41,-40.5604 1343.33,-38.7395 1351.9,-36.9889"/>
<polygon fill="midnightblue" stroke="midnightblue" points="1325.47,-38.8153 1316.37,-44.2462 1326.87,-45.6736 1325.47,-38.8153"/>
</g>
<!-- Node13 -->
<g id="node13" class="node"><title>Node13</title>
<g id="a_node13"><a xlink:href="drive1_8F90.html#a18d3e839786263fc4cf91f7eeb714371" target="_top" xlink:title="take a chunk of time&#45;steps ">
<polygon fill="white" stroke="black" points="1468,-19.5 1468,-38.5 1581,-38.5 1581,-19.5 1468,-19.5"/>
<text text-anchor="middle" x="1524.5" y="-26.5" font-family="Helvetica,sans-Serif" font-size="10.00">nek__multi_advance</text>
</a>
</g>
</g>
<!-- Node12&#45;&gt;Node13 -->
<g id="edge12" class="edge"><title>Node12&#45;&gt;Node13</title>
<path fill="none" stroke="midnightblue" d="M1442.19,-29C1450.61,-29 1459.4,-29 1467.97,-29"/>
<polygon fill="midnightblue" stroke="midnightblue" points="1442.15,-25.5001 1432.15,-29 1442.15,-32.5001 1442.15,-25.5001"/>
</g>
<!-- Node14 -->
<g id="node14" class="node"><title>Node14</title>
<g id="a_node14"><a xlink:href="drive1_8F90.html#a6ad57e0cf728f343e371ef8c9a02cd8a" target="_top" xlink:title="integrate the governing equations in time ">
<polygon fill="white" stroke="black" points="1617,-19.5 1617,-38.5 1682,-38.5 1682,-19.5 1617,-19.5"/>
<text text-anchor="middle" x="1649.5" y="-26.5" font-family="Helvetica,sans-Serif" font-size="10.00">nek_solve</text>
</a>
</g>
</g>
<!-- Node13&#45;&gt;Node14 -->
<g id="edge13" class="edge"><title>Node13&#45;&gt;Node14</title>
<path fill="none" stroke="midnightblue" d="M1591.28,-29C1600.16,-29 1608.93,-29 1616.82,-29"/>
<polygon fill="midnightblue" stroke="midnightblue" points="1591.24,-25.5001 1581.24,-29 1591.24,-32.5001 1591.24,-25.5001"/>
</g>
<!-- Node15 -->
<g id="node15" class="node"><title>Node15</title>
<g id="a_node15"><a xlink:href="drive_8F90.html#a13048bf28dd0734640412d69349e3857" target="_top" xlink:title="NEK5000: Spectral Element Computational Fluid Dynamics Solver COPYRIGHT (c) 2008&#45;2010 UCHICAGO ARGONN...">
<polygon fill="white" stroke="black" points="1718,-19.5 1718,-38.5 1767,-38.5 1767,-19.5 1718,-19.5"/>
<text text-anchor="middle" x="1742.5" y="-26.5" font-family="Helvetica,sans-Serif" font-size="10.00">nekton</text>
</a>
</g>
</g>
<!-- Node14&#45;&gt;Node15 -->
<g id="edge14" class="edge"><title>Node14&#45;&gt;Node15</title>
<path fill="none" stroke="midnightblue" d="M1692.19,-29C1700.95,-29 1709.9,-29 1717.73,-29"/>
<polygon fill="midnightblue" stroke="midnightblue" points="1692.07,-25.5001 1682.07,-29 1692.07,-32.5001 1692.07,-25.5001"/>
</g>
<!-- Node17 -->
<g id="node17" class="node"><title>Node17</title>
<g id="a_node17"><a xlink:href="drive2_8F90.html#ab0aeca9ad3db8be87a01ba29d069d71e" target="_top" xlink:title="Driver for solving the incompressible Navier&#45;Stokes equations. ">
<polygon fill="white" stroke="black" points="1279.5,-0.5 1279.5,-19.5 1314.5,-19.5 1314.5,-0.5 1279.5,-0.5"/>
<text text-anchor="middle" x="1297" y="-7.5" font-family="Helvetica,sans-Serif" font-size="10.00">fluid</text>
</a>
</g>
</g>
<!-- Node16&#45;&gt;Node17 -->
<g id="edge16" class="edge"><title>Node16&#45;&gt;Node17</title>
<path fill="none" stroke="midnightblue" d="M1250.26,-10C1260.09,-10 1270.6,-10 1279.06,-10"/>
<polygon fill="midnightblue" stroke="midnightblue" points="1250,-6.5001 1240,-10 1250,-13.5001 1250,-6.5001"/>
</g>
<!-- Node17&#45;&gt;Node12 -->
<g id="edge17" class="edge"><title>Node17&#45;&gt;Node12</title>
<path fill="none" stroke="midnightblue" d="M1324.63,-15.4415C1333.08,-17.1662 1342.59,-19.1106 1351.73,-20.9771"/>
<polygon fill="midnightblue" stroke="midnightblue" points="1325.12,-11.9694 1314.63,-13.3968 1323.72,-18.8277 1325.12,-11.9694"/>
</g>
<!-- Node18&#45;&gt;Node9 -->
<g id="edge19" class="edge"><title>Node18&#45;&gt;Node9</title>
<path fill="none" stroke="midnightblue" d="M1036.01,-18.5018C1044.61,-19.7303 1053.37,-20.9814 1061.7,-22.1716"/>
<polygon fill="midnightblue" stroke="midnightblue" points="1036.42,-15.0244 1026.02,-17.0749 1035.43,-21.954 1036.42,-15.0244"/>
</g>
</g>
</svg>
