<?xml version="1.0" encoding="UTF-8" standalone="no"?>
<!DOCTYPE svg PUBLIC "-//W3C//DTD SVG 1.1//EN"
 "http://www.w3.org/Graphics/SVG/1.1/DTD/svg11.dtd">
<!-- Generated by graphviz version 2.38.0 (20140413.2041)
 -->
<!-- Title: speclib::zwgll Pages: 1 -->
<svg width="1530pt" height="469pt"
 viewBox="0.00 0.00 1530.00 468.76" xmlns="http://www.w3.org/2000/svg" xmlns:xlink="http://www.w3.org/1999/xlink">
<g id="graph0" class="graph" transform="scale(1 1) rotate(0) translate(4 464.756)">
<title>speclib::zwgll</title>
<polygon fill="white" stroke="none" points="-4,4 -4,-464.756 1526,-464.756 1526,4 -4,4"/>
<!-- Node1 -->
<g id="node1" class="node"><title>Node1</title>
<polygon fill="#bfbfbf" stroke="black" points="0,-213 0,-232 77,-232 77,-213 0,-213"/>
<text text-anchor="middle" x="38.5" y="-220" font-family="Helvetica,sans-Serif" font-size="10.00">speclib::zwgll</text>
</g>
<!-- Node2 -->
<g id="node2" class="node"><title>Node2</title>
<g id="a_node2"><a xlink:href="navier8_8F90.html#aae4a347bc7ce7b06fa7abf792db70953" target="_top" xlink:title="gen_crs_basis">
<polygon fill="white" stroke="black" points="120.5,-175 120.5,-194 205.5,-194 205.5,-175 120.5,-175"/>
<text text-anchor="middle" x="163" y="-182" font-family="Helvetica,sans-Serif" font-size="10.00">gen_crs_basis</text>
</a>
</g>
</g>
<!-- Node1&#45;&gt;Node2 -->
<g id="edge1" class="edge"><title>Node1&#45;&gt;Node2</title>
<path fill="none" stroke="midnightblue" d="M80.3777,-209.82C96.9294,-204.685 115.721,-198.856 131.098,-194.086"/>
<polygon fill="midnightblue" stroke="midnightblue" points="78.926,-206.605 70.4119,-212.911 80.9999,-213.291 78.926,-206.605"/>
</g>
<!-- Node8 -->
<g id="node8" class="node"><title>Node8</title>
<g id="a_node8"><a xlink:href="fast3d_8F90.html#a65b70798668bd7b237bc2308bc4daede" target="_top" xlink:title="Generate fast diagonalization matrices for each element. ">
<polygon fill="white" stroke="black" points="418.5,-132 418.5,-151 519.5,-151 519.5,-132 418.5,-132"/>
<text text-anchor="middle" x="469" y="-139" font-family="Helvetica,sans-Serif" font-size="10.00">gen_fast_spacing</text>
</a>
</g>
</g>
<!-- Node1&#45;&gt;Node8 -->
<g id="edge7" class="edge"><title>Node1&#45;&gt;Node8</title>
<path fill="none" stroke="midnightblue" d="M55.558,-205.38C69.3606,-191.913 90.543,-174.044 113,-165.5 216.057,-126.289 347.991,-130.091 418.429,-135.986"/>
<polygon fill="midnightblue" stroke="midnightblue" points="52.868,-203.123 48.3302,-212.697 57.8479,-208.042 52.868,-203.123"/>
</g>
<!-- Node9 -->
<g id="node9" class="node"><title>Node9</title>
<g id="a_node9"><a xlink:href="interp__mod_8F90.html#a58f02ae257240ef90f8a1c9e5b092d1c" target="_top" xlink:title="Generate interpolation from np GLL points to mp GL points jgl = interpolation matrix, mapping from velocity nodes to pressure jgt = transpose of interpolation matrix w = work array of size (np+mp) np = number of points on GLL grid mp = number of points on GL grid. ">
<polygon fill="white" stroke="black" points="137,-299 137,-318 189,-318 189,-299 137,-299"/>
<text text-anchor="middle" x="163" y="-306" font-family="Helvetica,sans-Serif" font-size="10.00">gen_int</text>
</a>
</g>
</g>
<!-- Node1&#45;&gt;Node9 -->
<g id="edge9" class="edge"><title>Node1&#45;&gt;Node9</title>
<path fill="none" stroke="midnightblue" d="M61.3933,-238.068C75.9887,-248.427 95.614,-262.318 113,-274.5 124.702,-282.699 138.027,-291.939 147.824,-298.714"/>
<polygon fill="midnightblue" stroke="midnightblue" points="63.2002,-235.058 53.0206,-232.121 59.1469,-240.765 63.2002,-235.058"/>
</g>
<!-- Node29 -->
<g id="node29" class="node"><title>Node29</title>
<g id="a_node29"><a xlink:href="fast3d_8F90.html#a1ed312943db727bf8a788864dfd14ae3" target="_top" xlink:title="Generate matrices for single element, 1D operators: ">
<polygon fill="white" stroke="black" points="113,-77 113,-96 213,-96 213,-77 113,-77"/>
<text text-anchor="middle" x="163" y="-84" font-family="Helvetica,sans-Serif" font-size="10.00">generate_semhat</text>
</a>
</g>
</g>
<!-- Node1&#45;&gt;Node29 -->
<g id="edge35" class="edge"><title>Node1&#45;&gt;Node29</title>
<path fill="none" stroke="midnightblue" d="M52.8215,-204.817C67.0692,-186.241 90.6439,-156.455 113,-132.5 125.26,-119.363 140.502,-105.385 150.701,-96.3321"/>
<polygon fill="midnightblue" stroke="midnightblue" points="49.8945,-202.884 46.6226,-212.961 55.4644,-207.123 49.8945,-202.884"/>
</g>
<!-- Node35 -->
<g id="node35" class="node"><title>Node35</title>
<g id="a_node35"><a xlink:href="coef_8F90.html#a0d49b1aee56670901cd4cdfde7245e6c" target="_top" xlink:title="Generate derivative and interpolation operators. GENERATE. ">
<polygon fill="white" stroke="black" points="835.5,-213 835.5,-232 882.5,-232 882.5,-213 835.5,-213"/>
<text text-anchor="middle" x="859" y="-220" font-family="Helvetica,sans-Serif" font-size="10.00">genwz</text>
</a>
</g>
</g>
<!-- Node1&#45;&gt;Node35 -->
<g id="edge44" class="edge"><title>Node1&#45;&gt;Node35</title>
<path fill="none" stroke="midnightblue" d="M87.2851,-222.5C141.516,-222.5 232.622,-222.5 311,-222.5 311,-222.5 311,-222.5 613.5,-222.5 695.212,-222.5 792.285,-222.5 835.415,-222.5"/>
<polygon fill="midnightblue" stroke="midnightblue" points="87.2725,-219 77.2725,-222.5 87.2725,-226 87.2725,-219"/>
</g>
<!-- Node36 -->
<g id="node36" class="node"><title>Node36</title>
<g id="a_node36"><a xlink:href="ic_8F90.html#a170de261200bce1070ca719caaf56df0" target="_top" xlink:title="Interpolate Y(NXR,NYR,NZR,NEL) to X(NX1,NY1,NZ1,NEL) (assumes that NXR=NYR=NZR, or NXR=NYR...">
<polygon fill="white" stroke="black" points="283,-251 283,-270 341,-270 341,-251 283,-251"/>
<text text-anchor="middle" x="312" y="-258" font-family="Helvetica,sans-Serif" font-size="10.00">mapab4r</text>
</a>
</g>
</g>
<!-- Node1&#45;&gt;Node36 -->
<g id="edge46" class="edge"><title>Node1&#45;&gt;Node36</title>
<path fill="none" stroke="midnightblue" d="M87.0982,-232.052C95.7018,-233.64 104.605,-235.193 113,-236.5 173.218,-245.874 244.222,-253.702 282.719,-257.68"/>
<polygon fill="midnightblue" stroke="midnightblue" points="87.6594,-228.597 77.1843,-230.185 86.3635,-235.476 87.6594,-228.597"/>
</g>
<!-- Node38 -->
<g id="node38" class="node"><title>Node38</title>
<g id="a_node38"><a xlink:href="navier5_8F90.html#a519066c177fc94530849e83d3b9d4cfb" target="_top" xlink:title="filter vx,vy,vz, and p by simple interpolation ">
<polygon fill="white" stroke="black" points="716,-441 716,-460 765,-460 765,-441 716,-441"/>
<text text-anchor="middle" x="740.5" y="-448" font-family="Helvetica,sans-Serif" font-size="10.00">q_filter</text>
</a>
</g>
</g>
<!-- Node1&#45;&gt;Node38 -->
<g id="edge49" class="edge"><title>Node1&#45;&gt;Node38</title>
<path fill="none" stroke="midnightblue" d="M48.8526,-240.984C61.076,-263.682 84.3392,-302.268 113,-327.5 187.608,-393.182 211.599,-431.5 311,-431.5 311,-431.5 311,-431.5 470,-431.5 560.994,-431.5 668.844,-442.411 715.746,-447.696"/>
<polygon fill="midnightblue" stroke="midnightblue" points="51.9108,-239.279 44.1697,-232.045 45.7102,-242.527 51.9108,-239.279"/>
</g>
<!-- Node3 -->
<g id="node3" class="node"><title>Node3</title>
<g id="a_node3"><a xlink:href="navier8_8F90.html#aaeec4769efda346366e7e561aa844c88" target="_top" xlink:title="This routine generates Nelv submatrices of order ncl using Galerkin projection. ">
<polygon fill="white" stroke="black" points="250.5,-175 250.5,-194 373.5,-194 373.5,-175 250.5,-175"/>
<text text-anchor="middle" x="312" y="-182" font-family="Helvetica,sans-Serif" font-size="10.00">get_local_crs_galerkin</text>
</a>
</g>
</g>
<!-- Node2&#45;&gt;Node3 -->
<g id="edge2" class="edge"><title>Node2&#45;&gt;Node3</title>
<path fill="none" stroke="midnightblue" d="M215.733,-184.5C226.884,-184.5 238.771,-184.5 250.231,-184.5"/>
<polygon fill="midnightblue" stroke="midnightblue" points="215.731,-181 205.731,-184.5 215.731,-188 215.731,-181"/>
</g>
<!-- Node4 -->
<g id="node4" class="node"><title>Node4</title>
<g id="a_node4"><a xlink:href="navier8_8F90.html#a809b9aa647f2046d09131be2f6074ff6" target="_top" xlink:title="? ">
<polygon fill="white" stroke="black" points="426,-173 426,-192 512,-192 512,-173 426,-173"/>
<text text-anchor="middle" x="469" y="-180" font-family="Helvetica,sans-Serif" font-size="10.00">set_up_h1_crs</text>
</a>
</g>
</g>
<!-- Node3&#45;&gt;Node4 -->
<g id="edge3" class="edge"><title>Node3&#45;&gt;Node4</title>
<path fill="none" stroke="midnightblue" d="M384.059,-183.583C398.235,-183.4 412.7,-183.214 425.54,-183.048"/>
<polygon fill="midnightblue" stroke="midnightblue" points="383.769,-180.086 373.815,-183.715 383.86,-187.086 383.769,-180.086"/>
</g>
<!-- Node5 -->
<g id="node5" class="node"><title>Node5</title>
<g id="a_node5"><a xlink:href="navier6_8F90.html#a45317b1def173b8f1db2e5083595d095" target="_top" xlink:title="Set up arrays for overlapping Schwartz algorithm for pressure solver ">
<polygon fill="white" stroke="black" points="576.5,-132 576.5,-151 648.5,-151 648.5,-132 576.5,-132"/>
<text text-anchor="middle" x="612.5" y="-139" font-family="Helvetica,sans-Serif" font-size="10.00">set_overlap</text>
</a>
</g>
</g>
<!-- Node4&#45;&gt;Node5 -->
<g id="edge4" class="edge"><title>Node4&#45;&gt;Node5</title>
<path fill="none" stroke="midnightblue" d="M512.505,-170.184C533.606,-164.07 558.718,-156.794 578.369,-151.1"/>
<polygon fill="midnightblue" stroke="midnightblue" points="511.449,-166.846 502.819,-172.991 513.398,-173.569 511.449,-166.846"/>
</g>
<!-- Node6 -->
<g id="node6" class="node"><title>Node6</title>
<g id="a_node6"><a xlink:href="drive1_8F90.html#a87bd37ae2c18426f28f35cc3f24e4355" target="_top" xlink:title="initialize nek ">
<polygon fill="white" stroke="black" points="1018,-220 1018,-239 1071,-239 1071,-220 1018,-220"/>
<text text-anchor="middle" x="1044.5" y="-227" font-family="Helvetica,sans-Serif" font-size="10.00">nek_init</text>
</a>
</g>
</g>
<!-- Node5&#45;&gt;Node6 -->
<g id="edge5" class="edge"><title>Node5&#45;&gt;Node6</title>
<path fill="none" stroke="midnightblue" d="M658.58,-150.726C748.454,-169.118 947.36,-209.825 1018,-224.281"/>
<polygon fill="midnightblue" stroke="midnightblue" points="659.187,-147.278 648.689,-148.701 657.784,-154.135 659.187,-147.278"/>
</g>
<!-- Node7 -->
<g id="node7" class="node"><title>Node7</title>
<g id="a_node7"><a xlink:href="drive_8F90.html#a13048bf28dd0734640412d69349e3857" target="_top" xlink:title="NEK5000: Spectral Element Computational Fluid Dynamics Solver COPYRIGHT (c) 2008&#45;2010 UCHICAGO ARGONN...">
<polygon fill="white" stroke="black" points="1473,-303 1473,-322 1522,-322 1522,-303 1473,-303"/>
<text text-anchor="middle" x="1497.5" y="-310" font-family="Helvetica,sans-Serif" font-size="10.00">nekton</text>
</a>
</g>
</g>
<!-- Node6&#45;&gt;Node7 -->
<g id="edge6" class="edge"><title>Node6&#45;&gt;Node7</title>
<path fill="none" stroke="midnightblue" d="M1081.14,-236.059C1169.84,-252.383 1398.67,-294.496 1472.88,-308.154"/>
<polygon fill="midnightblue" stroke="midnightblue" points="1081.51,-232.568 1071.04,-234.2 1080.24,-239.452 1081.51,-232.568"/>
</g>
<!-- Node8&#45;&gt;Node5 -->
<g id="edge8" class="edge"><title>Node8&#45;&gt;Node5</title>
<path fill="none" stroke="midnightblue" d="M530.096,-141.5C545.839,-141.5 562.302,-141.5 576.271,-141.5"/>
<polygon fill="midnightblue" stroke="midnightblue" points="529.888,-138 519.888,-141.5 529.888,-145 529.888,-138"/>
</g>
<!-- Node10 -->
<g id="node10" class="node"><title>Node10</title>
<g id="a_node10"><a xlink:href="classinterp.html#a2637cb8249580b149248f7a6b0ededdf" target="_top" xlink:title="Get pointer to jgl() for interpolation pair (mx,md) ">
<polygon fill="white" stroke="black" points="262.5,-308 262.5,-327 361.5,-327 361.5,-308 262.5,-308"/>
<text text-anchor="middle" x="312" y="-315" font-family="Helvetica,sans-Serif" font-size="10.00">interp::get_int_ptr</text>
</a>
</g>
</g>
<!-- Node9&#45;&gt;Node10 -->
<g id="edge10" class="edge"><title>Node9&#45;&gt;Node10</title>
<path fill="none" stroke="midnightblue" d="M199.5,-310.673C218.35,-311.828 241.799,-313.263 262.322,-314.52"/>
<polygon fill="midnightblue" stroke="midnightblue" points="199.465,-307.165 189.27,-310.047 199.038,-314.152 199.465,-307.165"/>
</g>
<!-- Node11 -->
<g id="node11" class="node"><title>Node11</title>
<g id="a_node11"><a xlink:href="convect_8F90.html#aef829efeef773567be893471f50529b1" target="_top" xlink:title="Compute dealiased form: J^T Bf *JC .grad Ju w/ correct Jacobians. ">
<polygon fill="white" stroke="black" points="429.5,-365 429.5,-384 508.5,-384 508.5,-365 429.5,-365"/>
<text text-anchor="middle" x="469" y="-372" font-family="Helvetica,sans-Serif" font-size="10.00">convect_new</text>
</a>
</g>
</g>
<!-- Node10&#45;&gt;Node11 -->
<g id="edge11" class="edge"><title>Node10&#45;&gt;Node11</title>
<path fill="none" stroke="midnightblue" d="M348.529,-330.565C377.02,-341.043 416.347,-355.505 441.972,-364.928"/>
<polygon fill="midnightblue" stroke="midnightblue" points="349.537,-327.207 338.944,-327.041 347.121,-333.777 349.537,-327.207"/>
</g>
<!-- Node24 -->
<g id="node24" class="node"><title>Node24</title>
<g id="a_node24"><a xlink:href="convect_8F90.html#a768d72f963bbcaf77ab9725ad7847c72" target="_top" xlink:title="Put vxd,vyd,vzd into rst form on fine mesh For rst form, see eq. (4.8.5) in Deville, Fischer, Mund (2002). ">
<polygon fill="white" stroke="black" points="563,-289 563,-308 662,-308 662,-289 563,-289"/>
<text text-anchor="middle" x="612.5" y="-296" font-family="Helvetica,sans-Serif" font-size="10.00">set_convect_new</text>
</a>
</g>
</g>
<!-- Node10&#45;&gt;Node24 -->
<g id="edge26" class="edge"><title>Node10&#45;&gt;Node24</title>
<path fill="none" stroke="midnightblue" d="M371.646,-320.977C414.758,-322.689 474.697,-323.308 527,-317.5 543.738,-315.641 562.004,-311.772 577.257,-308.008"/>
<polygon fill="midnightblue" stroke="midnightblue" points="371.755,-317.478 361.614,-320.547 371.455,-324.472 371.755,-317.478"/>
</g>
<!-- Node28 -->
<g id="node28" class="node"><title>Node28</title>
<g id="a_node28"><a xlink:href="induct_8F90.html#adcae8f87adfb3b7c619cd72c46ccd4ac" target="_top" xlink:title="Eulerian scheme, add convection term to forcing function. ">
<polygon fill="white" stroke="black" points="426,-289 426,-308 512,-308 512,-289 426,-289"/>
<text text-anchor="middle" x="469" y="-296" font-family="Helvetica,sans-Serif" font-size="10.00">set_dealias_rx</text>
</a>
</g>
</g>
<!-- Node10&#45;&gt;Node28 -->
<g id="edge33" class="edge"><title>Node10&#45;&gt;Node28</title>
<path fill="none" stroke="midnightblue" d="M371.729,-310.301C389.729,-308.094 409.167,-305.712 425.831,-303.669"/>
<polygon fill="midnightblue" stroke="midnightblue" points="371.118,-306.85 361.618,-311.54 371.969,-313.798 371.118,-306.85"/>
</g>
<!-- Node12 -->
<g id="node12" class="node"><title>Node12</title>
<g id="a_node12"><a xlink:href="navier1_8F90.html#a38ba376801cfa958294fae8c90db7680" target="_top" xlink:title="Compute the convective term CONV for a passive scalar field FI. ">
<polygon fill="white" stroke="black" points="587,-365 587,-384 638,-384 638,-365 587,-365"/>
<text text-anchor="middle" x="612.5" y="-372" font-family="Helvetica,sans-Serif" font-size="10.00">convop</text>
</a>
</g>
</g>
<!-- Node11&#45;&gt;Node12 -->
<g id="edge12" class="edge"><title>Node11&#45;&gt;Node12</title>
<path fill="none" stroke="midnightblue" d="M518.893,-374.5C541.755,-374.5 567.994,-374.5 586.691,-374.5"/>
<polygon fill="midnightblue" stroke="midnightblue" points="518.666,-371 508.665,-374.5 518.665,-378 518.666,-371"/>
</g>
<!-- Node13 -->
<g id="node13" class="node"><title>Node13</title>
<g id="a_node13"><a xlink:href="navier1_8F90.html#a340322c02acf88d19d4d5ffea79154ac" target="_top" xlink:title="Eulerian scheme, add convection term to forcing function at current time step. ">
<polygon fill="white" stroke="black" points="718,-365 718,-384 763,-384 763,-365 718,-365"/>
<text text-anchor="middle" x="740.5" y="-372" font-family="Helvetica,sans-Serif" font-size="10.00">advab</text>
</a>
</g>
</g>
<!-- Node12&#45;&gt;Node13 -->
<g id="edge13" class="edge"><title>Node12&#45;&gt;Node13</title>
<path fill="none" stroke="midnightblue" d="M648.181,-374.5C670.486,-374.5 698.773,-374.5 717.909,-374.5"/>
<polygon fill="midnightblue" stroke="midnightblue" points="648.093,-371 638.093,-374.5 648.093,-378 648.093,-371"/>
</g>
<!-- Node20 -->
<g id="node20" class="node"><title>Node20</title>
<g id="a_node20"><a xlink:href="conduct_8F90.html#af2b8d8c53a101a9edd117d1a78a08069" target="_top" xlink:title="Eulerian scheme, add convection term to forcing function at current time step. ">
<polygon fill="white" stroke="black" points="715.5,-403 715.5,-422 765.5,-422 765.5,-403 715.5,-403"/>
<text text-anchor="middle" x="740.5" y="-410" font-family="Helvetica,sans-Serif" font-size="10.00">convab</text>
</a>
</g>
</g>
<!-- Node12&#45;&gt;Node20 -->
<g id="edge21" class="edge"><title>Node12&#45;&gt;Node20</title>
<path fill="none" stroke="midnightblue" d="M647.789,-384.841C669.2,-391.298 696.24,-399.453 715.397,-405.231"/>
<polygon fill="midnightblue" stroke="midnightblue" points="648.678,-381.454 638.093,-381.917 646.657,-388.155 648.678,-381.454"/>
</g>
<!-- Node14 -->
<g id="node14" class="node"><title>Node14</title>
<g id="a_node14"><a xlink:href="navier1_8F90.html#a83189b3d1938d87f00ace2e7e05d9e4c" target="_top" xlink:title="Compute and add: (1) user specified forcing function (FX,FY,FZ) (2) driving force due to natural conv...">
<polygon fill="white" stroke="black" points="836.5,-365 836.5,-384 881.5,-384 881.5,-365 836.5,-365"/>
<text text-anchor="middle" x="859" y="-372" font-family="Helvetica,sans-Serif" font-size="10.00">makef</text>
</a>
</g>
</g>
<!-- Node13&#45;&gt;Node14 -->
<g id="edge14" class="edge"><title>Node13&#45;&gt;Node14</title>
<path fill="none" stroke="midnightblue" d="M773.366,-374.5C793.423,-374.5 818.772,-374.5 836.476,-374.5"/>
<polygon fill="midnightblue" stroke="midnightblue" points="773.14,-371 763.14,-374.5 773.14,-378 773.14,-371"/>
</g>
<!-- Node15 -->
<g id="node15" class="node"><title>Node15</title>
<g id="a_node15"><a xlink:href="plan4_8F90.html#a5cbf852b67e73bfa44e028338c4d57ad" target="_top" xlink:title="Splitting scheme . ">
<polygon fill="white" stroke="black" points="937,-365 937,-384 980,-384 980,-365 937,-365"/>
<text text-anchor="middle" x="958.5" y="-372" font-family="Helvetica,sans-Serif" font-size="10.00">plan4</text>
</a>
</g>
</g>
<!-- Node14&#45;&gt;Node15 -->
<g id="edge15" class="edge"><title>Node14&#45;&gt;Node15</title>
<path fill="none" stroke="midnightblue" d="M891.905,-374.5C906.705,-374.5 923.867,-374.5 936.923,-374.5"/>
<polygon fill="midnightblue" stroke="midnightblue" points="891.638,-371 881.638,-374.5 891.638,-378 891.638,-371"/>
</g>
<!-- Node16 -->
<g id="node16" class="node"><title>Node16</title>
<g id="a_node16"><a xlink:href="drive2_8F90.html#ab0aeca9ad3db8be87a01ba29d069d71e" target="_top" xlink:title="Driver for solving the incompressible Navier&#45;Stokes equations. ">
<polygon fill="white" stroke="black" points="1027,-365 1027,-384 1062,-384 1062,-365 1027,-365"/>
<text text-anchor="middle" x="1044.5" y="-372" font-family="Helvetica,sans-Serif" font-size="10.00">fluid</text>
</a>
</g>
</g>
<!-- Node15&#45;&gt;Node16 -->
<g id="edge16" class="edge"><title>Node15&#45;&gt;Node16</title>
<path fill="none" stroke="midnightblue" d="M990.616,-374.5C1002.92,-374.5 1016.56,-374.5 1026.91,-374.5"/>
<polygon fill="midnightblue" stroke="midnightblue" points="990.264,-371 980.264,-374.5 990.264,-378 990.264,-371"/>
</g>
<!-- Node17 -->
<g id="node17" class="node"><title>Node17</title>
<g id="a_node17"><a xlink:href="drive1_8F90.html#ae177ea7efac97f35241521b782a671c0" target="_top" xlink:title="take a single time&#45;step ">
<polygon fill="white" stroke="black" points="1107,-365 1107,-384 1187,-384 1187,-365 1107,-365"/>
<text text-anchor="middle" x="1147" y="-372" font-family="Helvetica,sans-Serif" font-size="10.00">nek_advance</text>
</a>
</g>
</g>
<!-- Node16&#45;&gt;Node17 -->
<g id="edge17" class="edge"><title>Node16&#45;&gt;Node17</title>
<path fill="none" stroke="midnightblue" d="M1072.36,-374.5C1082.92,-374.5 1095.27,-374.5 1106.8,-374.5"/>
<polygon fill="midnightblue" stroke="midnightblue" points="1072.1,-371 1062.1,-374.5 1072.1,-378 1072.1,-371"/>
</g>
<!-- Node18 -->
<g id="node18" class="node"><title>Node18</title>
<g id="a_node18"><a xlink:href="drive1_8F90.html#a18d3e839786263fc4cf91f7eeb714371" target="_top" xlink:title="take a chunk of time&#45;steps ">
<polygon fill="white" stroke="black" points="1223,-357 1223,-376 1336,-376 1336,-357 1223,-357"/>
<text text-anchor="middle" x="1279.5" y="-364" font-family="Helvetica,sans-Serif" font-size="10.00">nek__multi_advance</text>
</a>
</g>
</g>
<!-- Node17&#45;&gt;Node18 -->
<g id="edge18" class="edge"><title>Node17&#45;&gt;Node18</title>
<path fill="none" stroke="midnightblue" d="M1197.19,-371.484C1205.61,-370.969 1214.4,-370.429 1222.97,-369.904"/>
<polygon fill="midnightblue" stroke="midnightblue" points="1196.92,-367.994 1187.15,-372.1 1197.35,-374.981 1196.92,-367.994"/>
</g>
<!-- Node19 -->
<g id="node19" class="node"><title>Node19</title>
<g id="a_node19"><a xlink:href="drive1_8F90.html#a6ad57e0cf728f343e371ef8c9a02cd8a" target="_top" xlink:title="integrate the governing equations in time ">
<polygon fill="white" stroke="black" points="1372,-329 1372,-348 1437,-348 1437,-329 1372,-329"/>
<text text-anchor="middle" x="1404.5" y="-336" font-family="Helvetica,sans-Serif" font-size="10.00">nek_solve</text>
</a>
</g>
</g>
<!-- Node18&#45;&gt;Node19 -->
<g id="edge19" class="edge"><title>Node18&#45;&gt;Node19</title>
<path fill="none" stroke="midnightblue" d="M1332.53,-354.656C1345.87,-351.618 1359.83,-348.441 1371.8,-345.716"/>
<polygon fill="midnightblue" stroke="midnightblue" points="1331.46,-351.31 1322.49,-356.942 1333.01,-358.135 1331.46,-351.31"/>
</g>
<!-- Node19&#45;&gt;Node7 -->
<g id="edge20" class="edge"><title>Node19&#45;&gt;Node7</title>
<path fill="none" stroke="midnightblue" d="M1446.91,-326.67C1455.76,-324.14 1464.82,-321.552 1472.73,-319.29"/>
<polygon fill="midnightblue" stroke="midnightblue" points="1445.73,-323.367 1437.07,-329.479 1447.65,-330.097 1445.73,-323.367"/>
</g>
<!-- Node21 -->
<g id="node21" class="node"><title>Node21</title>
<g id="a_node21"><a xlink:href="makeq_8F90.html#ad52d9adde8f010af2d0a8c1a55543eeb" target="_top" xlink:title="Generate forcing function for the solution of a passive scalar. !! NOTE: Do not change the content of...">
<polygon fill="white" stroke="black" points="835,-403 835,-422 883,-422 883,-403 835,-403"/>
<text text-anchor="middle" x="859" y="-410" font-family="Helvetica,sans-Serif" font-size="10.00">makeq</text>
</a>
</g>
</g>
<!-- Node20&#45;&gt;Node21 -->
<g id="edge22" class="edge"><title>Node20&#45;&gt;Node21</title>
<path fill="none" stroke="midnightblue" d="M775.693,-412.5C794.675,-412.5 817.791,-412.5 834.687,-412.5"/>
<polygon fill="midnightblue" stroke="midnightblue" points="775.639,-409 765.639,-412.5 775.639,-416 775.639,-409"/>
</g>
<!-- Node22 -->
<g id="node22" class="node"><title>Node22</title>
<g id="a_node22"><a xlink:href="conduct_8F90.html#a74a7f053381975ed36df8ea959f3aa01" target="_top" xlink:title="Solve the convection&#45;diffusion equation for passive scalar IPSCAL. ">
<polygon fill="white" stroke="black" points="935,-403 935,-422 982,-422 982,-403 935,-403"/>
<text text-anchor="middle" x="958.5" y="-410" font-family="Helvetica,sans-Serif" font-size="10.00">cdscal</text>
</a>
</g>
</g>
<!-- Node21&#45;&gt;Node22 -->
<g id="edge23" class="edge"><title>Node21&#45;&gt;Node22</title>
<path fill="none" stroke="midnightblue" d="M893.173,-412.5C906.917,-412.5 922.506,-412.5 934.896,-412.5"/>
<polygon fill="midnightblue" stroke="midnightblue" points="893.106,-409 883.106,-412.5 893.106,-416 893.106,-409"/>
</g>
<!-- Node23 -->
<g id="node23" class="node"><title>Node23</title>
<g id="a_node23"><a xlink:href="drive2_8F90.html#acce80cd37f20e9b52729eb52d86a9c86" target="_top" xlink:title="Driver for temperature or passive scalar. ">
<polygon fill="white" stroke="black" points="1025.5,-403 1025.5,-422 1063.5,-422 1063.5,-403 1025.5,-403"/>
<text text-anchor="middle" x="1044.5" y="-410" font-family="Helvetica,sans-Serif" font-size="10.00">heat</text>
</a>
</g>
</g>
<!-- Node22&#45;&gt;Node23 -->
<g id="edge24" class="edge"><title>Node22&#45;&gt;Node23</title>
<path fill="none" stroke="midnightblue" d="M992.054,-412.5C1003.4,-412.5 1015.71,-412.5 1025.45,-412.5"/>
<polygon fill="midnightblue" stroke="midnightblue" points="992.01,-409 982.01,-412.5 992.01,-416 992.01,-409"/>
</g>
<!-- Node23&#45;&gt;Node17 -->
<g id="edge25" class="edge"><title>Node23&#45;&gt;Node17</title>
<path fill="none" stroke="midnightblue" d="M1073.61,-401.873C1088.44,-396.262 1106.5,-389.435 1120.87,-384.002"/>
<polygon fill="midnightblue" stroke="midnightblue" points="1072.05,-398.72 1063.93,-405.53 1074.52,-405.267 1072.05,-398.72"/>
</g>
<!-- Node25 -->
<g id="node25" class="node"><title>Node25</title>
<g id="a_node25"><a xlink:href="convect_8F90.html#a9b58d62988f53102b490531b844a1891" target="_top" xlink:title="setup_convect">
<polygon fill="white" stroke="black" points="698,-289 698,-308 783,-308 783,-289 698,-289"/>
<text text-anchor="middle" x="740.5" y="-296" font-family="Helvetica,sans-Serif" font-size="10.00">setup_convect</text>
</a>
</g>
</g>
<!-- Node24&#45;&gt;Node25 -->
<g id="edge27" class="edge"><title>Node24&#45;&gt;Node25</title>
<path fill="none" stroke="midnightblue" d="M672.276,-298.5C680.921,-298.5 689.673,-298.5 697.876,-298.5"/>
<polygon fill="midnightblue" stroke="midnightblue" points="672.215,-295 662.215,-298.5 672.215,-302 672.215,-295"/>
</g>
<!-- Node25&#45;&gt;Node17 -->
<g id="edge28" class="edge"><title>Node25&#45;&gt;Node17</title>
<path fill="none" stroke="midnightblue" d="M793.049,-306.162C858.104,-316.118 973.308,-334.708 1071,-355.5 1084.01,-358.268 1098.17,-361.737 1110.65,-364.95"/>
<polygon fill="midnightblue" stroke="midnightblue" points="793.462,-302.684 783.049,-304.639 792.408,-309.604 793.462,-302.684"/>
</g>
<!-- Node26 -->
<g id="node26" class="node"><title>Node26</title>
<g id="a_node26"><a xlink:href="ic_8F90.html#af64028aefb1dff2a9f8a84ff024f44b0" target="_top" xlink:title="driver for restarts (1) Open restart file(s) (2) Check previous spatial discretization (3) Map (K1...">
<polygon fill="white" stroke="black" points="819,-251 819,-270 899,-270 899,-251 819,-251"/>
<text text-anchor="middle" x="859" y="-258" font-family="Helvetica,sans-Serif" font-size="10.00">restart_driver</text>
</a>
</g>
</g>
<!-- Node25&#45;&gt;Node26 -->
<g id="edge29" class="edge"><title>Node25&#45;&gt;Node26</title>
<path fill="none" stroke="midnightblue" d="M780.822,-285.674C796.453,-280.575 814.126,-274.811 828.612,-270.086"/>
<polygon fill="midnightblue" stroke="midnightblue" points="779.32,-282.482 770.898,-288.911 781.49,-289.137 779.32,-282.482"/>
</g>
<!-- Node27 -->
<g id="node27" class="node"><title>Node27</title>
<g id="a_node27"><a xlink:href="ic_8F90.html#acaefa33e86633e4a7a4b28347d4620d1" target="_top" xlink:title="Set initial conditions. ">
<polygon fill="white" stroke="black" points="936.5,-251 936.5,-270 980.5,-270 980.5,-251 936.5,-251"/>
<text text-anchor="middle" x="958.5" y="-258" font-family="Helvetica,sans-Serif" font-size="10.00">setics</text>
</a>
</g>
</g>
<!-- Node25&#45;&gt;Node27 -->
<g id="edge32" class="edge"><title>Node25&#45;&gt;Node27</title>
<path fill="none" stroke="midnightblue" d="M793.441,-294.785C824.352,-291.943 864.204,-287.173 899,-279.5 911.618,-276.718 925.377,-272.321 936.38,-268.457"/>
<polygon fill="midnightblue" stroke="midnightblue" points="792.976,-291.312 783.322,-295.676 793.59,-298.285 792.976,-291.312"/>
</g>
<!-- Node26&#45;&gt;Node27 -->
<g id="edge30" class="edge"><title>Node26&#45;&gt;Node27</title>
<path fill="none" stroke="midnightblue" d="M909.352,-260.5C918.857,-260.5 928.331,-260.5 936.329,-260.5"/>
<polygon fill="midnightblue" stroke="midnightblue" points="909.095,-257 899.095,-260.5 909.095,-264 909.095,-257"/>
</g>
<!-- Node27&#45;&gt;Node6 -->
<g id="edge31" class="edge"><title>Node27&#45;&gt;Node6</title>
<path fill="none" stroke="midnightblue" d="M990.16,-249.185C999.239,-245.834 1009.08,-242.202 1017.81,-238.98"/>
<polygon fill="midnightblue" stroke="midnightblue" points="988.866,-245.932 980.697,-252.677 991.29,-252.499 988.866,-245.932"/>
</g>
<!-- Node28&#45;&gt;Node24 -->
<g id="edge34" class="edge"><title>Node28&#45;&gt;Node24</title>
<path fill="none" stroke="midnightblue" d="M522.45,-298.5C535.685,-298.5 549.837,-298.5 562.875,-298.5"/>
<polygon fill="midnightblue" stroke="midnightblue" points="522.072,-295 512.072,-298.5 522.072,-302 522.072,-295"/>
</g>
<!-- Node30 -->
<g id="node30" class="node"><title>Node30</title>
<g id="a_node30"><a xlink:href="classhsmg__routines.html#abc50809cf4aae995f61fd0c4ebc44c70" target="_top" xlink:title="SEM hat matrices for each level. ">
<polygon fill="white" stroke="black" points="254,-49.5 254,-79.5 370,-79.5 370,-49.5 254,-49.5"/>
<text text-anchor="start" x="262" y="-67.5" font-family="Helvetica,sans-Serif" font-size="10.00">hsmg_routines::h1mg</text>
<text text-anchor="middle" x="312" y="-56.5" font-family="Helvetica,sans-Serif" font-size="10.00">_setup_semhat</text>
</a>
</g>
</g>
<!-- Node29&#45;&gt;Node30 -->
<g id="edge36" class="edge"><title>Node29&#45;&gt;Node30</title>
<path fill="none" stroke="midnightblue" d="M223.3,-77.6252C233.395,-76.1143 243.862,-74.5478 253.9,-73.0456"/>
<polygon fill="midnightblue" stroke="midnightblue" points="222.73,-74.1715 213.358,-79.1131 223.766,-81.0944 222.73,-74.1715"/>
</g>
<!-- Node32 -->
<g id="node32" class="node"><title>Node32</title>
<g id="a_node32"><a xlink:href="classhsmg__routines.html#a4a764754ca94ae800fbced43543c8b58" target="_top" xlink:title="hsmg_routines::hsmg\l_setup_semhat">
<polygon fill="white" stroke="black" points="254,-0.5 254,-30.5 370,-30.5 370,-0.5 254,-0.5"/>
<text text-anchor="start" x="262" y="-18.5" font-family="Helvetica,sans-Serif" font-size="10.00">hsmg_routines::hsmg</text>
<text text-anchor="middle" x="312" y="-7.5" font-family="Helvetica,sans-Serif" font-size="10.00">_setup_semhat</text>
</a>
</g>
</g>
<!-- Node29&#45;&gt;Node32 -->
<g id="edge39" class="edge"><title>Node29&#45;&gt;Node32</title>
<path fill="none" stroke="midnightblue" d="M188.573,-71.7485C205.304,-61.9961 228.119,-49.2594 249,-39.5 255.588,-36.4211 262.688,-33.4041 269.649,-30.605"/>
<polygon fill="midnightblue" stroke="midnightblue" points="186.797,-68.7324 179.955,-76.8216 190.348,-74.7649 186.797,-68.7324"/>
</g>
<!-- Node34 -->
<g id="node34" class="node"><title>Node34</title>
<g id="a_node34"><a xlink:href="fast3d_8F90.html#a4de164b9c3a6daa704d34c01e5e0ec22" target="_top" xlink:title="Note that this routine performs the following matrix multiplies after getting the matrices back from ...">
<polygon fill="white" stroke="black" points="249,-99 249,-118 375,-118 375,-99 249,-99"/>
<text text-anchor="middle" x="312" y="-106" font-family="Helvetica,sans-Serif" font-size="10.00">load_semhat_weighted</text>
</a>
</g>
</g>
<!-- Node29&#45;&gt;Node34 -->
<g id="edge42" class="edge"><title>Node29&#45;&gt;Node34</title>
<path fill="none" stroke="midnightblue" d="M223.456,-95.3981C231.863,-96.6564 240.525,-97.9527 248.979,-99.218"/>
<polygon fill="midnightblue" stroke="midnightblue" points="223.766,-91.9056 213.358,-93.8869 222.73,-98.8285 223.766,-91.9056"/>
</g>
<!-- Node31 -->
<g id="node31" class="node"><title>Node31</title>
<g id="a_node31"><a xlink:href="classhsmg__routines.html#a91e8aa59d56bbf05d75aa9c48bcd8977" target="_top" xlink:title="Sets up Poisson preconditioner. ">
<polygon fill="white" stroke="black" points="411,-73.5 411,-103.5 527,-103.5 527,-73.5 411,-73.5"/>
<text text-anchor="start" x="419" y="-91.5" font-family="Helvetica,sans-Serif" font-size="10.00">hsmg_routines::h1mg</text>
<text text-anchor="middle" x="469" y="-80.5" font-family="Helvetica,sans-Serif" font-size="10.00">_setup</text>
</a>
</g>
</g>
<!-- Node30&#45;&gt;Node31 -->
<g id="edge37" class="edge"><title>Node30&#45;&gt;Node31</title>
<path fill="none" stroke="midnightblue" d="M380.369,-74.9314C390.569,-76.5107 401.007,-78.1268 410.96,-79.6679"/>
<polygon fill="midnightblue" stroke="midnightblue" points="380.694,-71.44 370.276,-73.3685 379.623,-78.3575 380.694,-71.44"/>
</g>
<!-- Node31&#45;&gt;Node5 -->
<g id="edge38" class="edge"><title>Node31&#45;&gt;Node5</title>
<path fill="none" stroke="midnightblue" d="M519.551,-107.06C541.957,-115.452 567.488,-125.015 585.952,-131.931"/>
<polygon fill="midnightblue" stroke="midnightblue" points="520.762,-103.776 510.17,-103.546 518.307,-110.331 520.762,-103.776"/>
</g>
<!-- Node33 -->
<g id="node33" class="node"><title>Node33</title>
<g id="a_node33"><a xlink:href="classhsmg__routines.html#ac8f9bca9624d5e550d70acabfa8aef73" target="_top" xlink:title="Sets up hybrid Schwarz multi&#45;grid preconditioner. ">
<polygon fill="white" stroke="black" points="411,-5.5 411,-35.5 527,-35.5 527,-5.5 411,-5.5"/>
<text text-anchor="start" x="419" y="-23.5" font-family="Helvetica,sans-Serif" font-size="10.00">hsmg_routines::hsmg</text>
<text text-anchor="middle" x="469" y="-12.5" font-family="Helvetica,sans-Serif" font-size="10.00">_setup</text>
</a>
</g>
</g>
<!-- Node32&#45;&gt;Node33 -->
<g id="edge40" class="edge"><title>Node32&#45;&gt;Node33</title>
<path fill="none" stroke="midnightblue" d="M380.369,-17.6732C390.569,-18.0022 401.007,-18.3389 410.96,-18.66"/>
<polygon fill="midnightblue" stroke="midnightblue" points="380.384,-14.1719 370.276,-17.3476 380.158,-21.1683 380.384,-14.1719"/>
</g>
<!-- Node33&#45;&gt;Node5 -->
<g id="edge41" class="edge"><title>Node33&#45;&gt;Node5</title>
<path fill="none" stroke="midnightblue" d="M499.018,-41.5214C508.123,-48.3471 518.113,-56.0776 527,-63.5 555.041,-86.9209 586.172,-116.715 601.646,-131.803"/>
<polygon fill="midnightblue" stroke="midnightblue" points="501.078,-38.6915 490.962,-35.5421 496.906,-44.3125 501.078,-38.6915"/>
</g>
<!-- Node34&#45;&gt;Node8 -->
<g id="edge43" class="edge"><title>Node34&#45;&gt;Node8</title>
<path fill="none" stroke="midnightblue" d="M367.718,-120.15C385.905,-124.022 405.928,-128.285 423.268,-131.976"/>
<polygon fill="midnightblue" stroke="midnightblue" points="368.342,-116.704 357.832,-118.045 366.884,-123.551 368.342,-116.704"/>
</g>
<!-- Node35&#45;&gt;Node6 -->
<g id="edge45" class="edge"><title>Node35&#45;&gt;Node6</title>
<path fill="none" stroke="midnightblue" d="M892.9,-223.755C928.706,-225.121 985.204,-227.276 1017.86,-228.522"/>
<polygon fill="midnightblue" stroke="midnightblue" points="892.627,-220.242 882.501,-223.358 892.36,-227.237 892.627,-220.242"/>
</g>
<!-- Node37 -->
<g id="node37" class="node"><title>Node37</title>
<g id="a_node37"><a xlink:href="ic_8F90.html#a46a0ff5dd0a6f10aa39215385ba21288" target="_top" xlink:title="mapdmp">
<polygon fill="white" stroke="black" points="584,-251 584,-270 641,-270 641,-251 584,-251"/>
<text text-anchor="middle" x="612.5" y="-258" font-family="Helvetica,sans-Serif" font-size="10.00">mapdmp</text>
</a>
</g>
</g>
<!-- Node36&#45;&gt;Node37 -->
<g id="edge47" class="edge"><title>Node36&#45;&gt;Node37</title>
<path fill="none" stroke="midnightblue" d="M351.439,-260.5C412.479,-260.5 530.136,-260.5 583.71,-260.5"/>
<polygon fill="midnightblue" stroke="midnightblue" points="351.082,-257 341.082,-260.5 351.082,-264 351.082,-257"/>
</g>
<!-- Node37&#45;&gt;Node26 -->
<g id="edge48" class="edge"><title>Node37&#45;&gt;Node26</title>
<path fill="none" stroke="midnightblue" d="M651.11,-260.5C696.578,-260.5 772.724,-260.5 818.865,-260.5"/>
<polygon fill="midnightblue" stroke="midnightblue" points="651.072,-257 641.072,-260.5 651.072,-264 651.072,-257"/>
</g>
<!-- Node38&#45;&gt;Node17 -->
<g id="edge50" class="edge"><title>Node38&#45;&gt;Node17</title>
<path fill="none" stroke="midnightblue" d="M775.461,-454.874C836.716,-461.405 968.824,-469.23 1071,-431.5 1098.31,-421.416 1123.9,-397.798 1136.96,-384.342"/>
<polygon fill="midnightblue" stroke="midnightblue" points="775.545,-451.361 765.216,-453.721 774.762,-458.317 775.545,-451.361"/>
</g>
</g>
</svg>
