<?xml version="1.0" encoding="UTF-8" standalone="no"?>
<!DOCTYPE svg PUBLIC "-//W3C//DTD SVG 1.1//EN"
 "http://www.w3.org/Graphics/SVG/1.1/DTD/svg11.dtd">
<!-- Generated by graphviz version 2.38.0 (20140413.2041)
 -->
<!-- Title: string::ljust Pages: 1 -->
<!--zoomable 122 -->
<svg id="main" version="1.1" xmlns="http://www.w3.org/2000/svg" xmlns:xlink="http://www.w3.org/1999/xlink" xml:space="preserve" onload="init(evt)">
<style type="text/css"><![CDATA[
.edge:hover path { stroke: red; }
.edge:hover polygon { stroke: red; fill: red; }
]]></style>
<script type="text/javascript"><![CDATA[
var edges = document.getElementsByTagName('g');
if (edges && edges.length) {
  for (var i=0;i<edges.length;i++) {
    if (edges[i].id.substr(0,4)=='edge') {
      edges[i].setAttribute('class','edge');
    }
  }
}
]]></script>
        <defs>
                <circle id="rim" cx="0" cy="0" r="7"/>
                <circle id="rim2" cx="0" cy="0" r="3.5"/>
                <g id="zoomPlus">
                        <use xlink:href="#rim" fill="#404040">
                                <set attributeName="fill" to="#808080" begin="zoomplus.mouseover" end="zoomplus.mouseout"/>
                        </use>
                        <path d="M-4,0h8M0,-4v8" fill="none" stroke="white" stroke-width="1.5" pointer-events="none"/>
                </g>
                <g id="zoomMin">
                        <use xlink:href="#rim" fill="#404040">
                                <set attributeName="fill" to="#808080" begin="zoomminus.mouseover" end="zoomminus.mouseout"/>
                        </use>
                        <path d="M-4,0h8" fill="none" stroke="white" stroke-width="1.5" pointer-events="none"/>
                </g>
                <g id="dirArrow">
                        <path fill="none" stroke="white" stroke-width="1.5" d="M0,-3.0v7 M-2.5,-0.5L0,-3.0L2.5,-0.5"/>
                </g>
               <g id="resetDef">
                       <use xlink:href="#rim2" fill="#404040">
                               <set attributeName="fill" to="#808080" begin="reset.mouseover" end="reset.mouseout"/>
                       </use>
               </g>
        </defs>

<script type="text/javascript">
var viewWidth = 633;
var viewHeight = 122;
var sectionId = 'dynsection-15';
</script>
<script xlink:href="svgpan.js"/>
<svg id="graph" class="graph">
<g id="viewport">
<title>string::ljust</title>
<polygon fill="white" stroke="none" points="-4,4 -4,-118 629,-118 629,4 -4,4"/>
<!-- Node1 -->
<g id="node1" class="node"><title>Node1</title>
<polygon fill="#bfbfbf" stroke="black" points="0,-37.5 0,-56.5 65,-56.5 65,-37.5 0,-37.5"/>
<text text-anchor="middle" x="32.5" y="-44.5" font-family="Helvetica,sans-Serif" font-size="10.00">string::ljust</text>
</g>
<!-- Node2 -->
<g id="node2" class="node"><title>Node2</title>
<g id="a_node2"><a xlink:href="classstring.html#a7679c47cd5ea263832feb22dd5a41c82" target="_top" xlink:title="Read IVALUE from LINE and set IFGTIL to .TRUE. if successful, IFGTIL to .FALSE. otherwise. This complicated function is necessary thanks to the Ardent, which won&#39;t allow free formatted reads (*) from internal strings! ">
<polygon fill="white" stroke="black" points="102,-94.5 102,-113.5 168,-113.5 168,-94.5 102,-94.5"/>
<text text-anchor="middle" x="135" y="-101.5" font-family="Helvetica,sans-Serif" font-size="10.00">string::ifgtil</text>
</a>
</g>
</g>
<!-- Node1&#45;&gt;Node2 -->
<g id="edge1" class="edge"><title>Node1&#45;&gt;Node2</title>
<path fill="none" stroke="midnightblue" d="M59.4815,-61.7358C77.6755,-72.0548 101.455,-85.5419 117.203,-94.4735"/>
<polygon fill="midnightblue" stroke="midnightblue" points="60.9735,-58.5583 50.5485,-56.6693 57.5201,-64.6472 60.9735,-58.5583"/>
</g>
<!-- Node7 -->
<g id="node7" class="node"><title>Node7</title>
<g id="a_node7"><a xlink:href="classstring.html#adcf0edc178e1e0699323ed1c85b97187" target="_top" xlink:title="Read VALUE from LINE and set IFGTRL to .TRUE. if successful, IFGTRL to .FALSE. otherwise. This complicated function is necessary thanks to the Ardent, which won&#39;t allow free formatted reads (*) from internal strings! ">
<polygon fill="white" stroke="black" points="101,-56.5 101,-75.5 169,-75.5 169,-56.5 101,-56.5"/>
<text text-anchor="middle" x="135" y="-63.5" font-family="Helvetica,sans-Serif" font-size="10.00">string::ifgtrl</text>
</a>
</g>
</g>
<!-- Node1&#45;&gt;Node7 -->
<g id="edge6" class="edge"><title>Node1&#45;&gt;Node7</title>
<path fill="none" stroke="midnightblue" d="M74.9323,-54.833C83.5681,-56.4656 92.5626,-58.1661 100.852,-59.7332"/>
<polygon fill="midnightblue" stroke="midnightblue" points="75.4992,-51.3782 65.0231,-52.9596 74.1988,-58.2564 75.4992,-51.3782"/>
</g>
<!-- Node8 -->
<g id="node8" class="node"><title>Node8</title>
<g id="a_node8"><a xlink:href="ic_8F90.html#a8947b3794015310a5f2962f2c8f1c4cb" target="_top" xlink:title="Set IO flags according to Restart Options File, RSOPTS. ">
<polygon fill="white" stroke="black" points="205,-37.5 205,-56.5 252,-56.5 252,-37.5 205,-37.5"/>
<text text-anchor="middle" x="228.5" y="-44.5" font-family="Helvetica,sans-Serif" font-size="10.00">sioflag</text>
</a>
</g>
</g>
<!-- Node1&#45;&gt;Node8 -->
<g id="edge13" class="edge"><title>Node1&#45;&gt;Node8</title>
<path fill="none" stroke="midnightblue" d="M75.2516,-47C114.883,-47 172.974,-47 204.718,-47"/>
<polygon fill="midnightblue" stroke="midnightblue" points="75.1013,-43.5001 65.1012,-47 75.1012,-50.5001 75.1013,-43.5001"/>
</g>
<!-- Node11 -->
<g id="node11" class="node"><title>Node11</title>
<g id="a_node11"><a xlink:href="ic_8F90.html#a06b7034f5e516ccf0207189177967c05" target="_top" xlink:title="Set up logicals for initial conditions. ">
<polygon fill="white" stroke="black" points="306,-0.5 306,-19.5 350,-19.5 350,-0.5 306,-0.5"/>
<text text-anchor="middle" x="328" y="-7.5" font-family="Helvetica,sans-Serif" font-size="10.00">slogic</text>
</a>
</g>
</g>
<!-- Node1&#45;&gt;Node11 -->
<g id="edge14" class="edge"><title>Node1&#45;&gt;Node11</title>
<path fill="none" stroke="midnightblue" d="M75.2648,-41.7349C138.795,-33.726 257.423,-18.7713 305.72,-12.6827"/>
<polygon fill="midnightblue" stroke="midnightblue" points="74.6722,-38.2818 65.1885,-43.0052 75.5478,-45.2269 74.6722,-38.2818"/>
</g>
<!-- Node3 -->
<g id="node3" class="node"><title>Node3</title>
<g id="a_node3"><a xlink:href="connect2_8F90.html#a91a147fe67d9a68726d0fdf8b514f294" target="_top" xlink:title="Read Initial Conditions / Drive Force. Broadcast ICFILE to all processors. ">
<polygon fill="white" stroke="black" points="207,-92.5 207,-111.5 250,-111.5 250,-92.5 207,-92.5"/>
<text text-anchor="middle" x="228.5" y="-99.5" font-family="Helvetica,sans-Serif" font-size="10.00">rdicdf</text>
</a>
</g>
</g>
<!-- Node2&#45;&gt;Node3 -->
<g id="edge2" class="edge"><title>Node2&#45;&gt;Node3</title>
<path fill="none" stroke="midnightblue" d="M178.207,-103.077C188.154,-102.86 198.326,-102.638 206.827,-102.452"/>
<polygon fill="midnightblue" stroke="midnightblue" points="177.923,-99.5827 168.002,-103.3 178.076,-106.581 177.923,-99.5827"/>
</g>
<!-- Node4 -->
<g id="node4" class="node"><title>Node4</title>
<g id="a_node4"><a xlink:href="connect2_8F90.html#a842357ad1d3581135ffacc57139397d2" target="_top" xlink:title="Read in data from preprocessor input file (.rea) ">
<polygon fill="white" stroke="black" points="404,-78.5 404,-97.5 451,-97.5 451,-78.5 404,-78.5"/>
<text text-anchor="middle" x="427.5" y="-85.5" font-family="Helvetica,sans-Serif" font-size="10.00">readat</text>
</a>
</g>
</g>
<!-- Node3&#45;&gt;Node4 -->
<g id="edge3" class="edge"><title>Node3&#45;&gt;Node4</title>
<path fill="none" stroke="midnightblue" d="M260.408,-99.8035C300.272,-96.9705 368.667,-92.11 403.962,-89.6017"/>
<polygon fill="midnightblue" stroke="midnightblue" points="259.937,-96.3281 250.21,-100.528 260.433,-103.31 259.937,-96.3281"/>
</g>
<!-- Node5 -->
<g id="node5" class="node"><title>Node5</title>
<g id="a_node5"><a xlink:href="drive1_8F90.html#a87bd37ae2c18426f28f35cc3f24e4355" target="_top" xlink:title="initialize nek ">
<polygon fill="white" stroke="black" points="487,-58.5 487,-77.5 540,-77.5 540,-58.5 487,-58.5"/>
<text text-anchor="middle" x="513.5" y="-65.5" font-family="Helvetica,sans-Serif" font-size="10.00">nek_init</text>
</a>
</g>
</g>
<!-- Node4&#45;&gt;Node5 -->
<g id="edge4" class="edge"><title>Node4&#45;&gt;Node5</title>
<path fill="none" stroke="midnightblue" d="M460.816,-80.3057C469.478,-78.2434 478.72,-76.0429 486.959,-74.0813"/>
<polygon fill="midnightblue" stroke="midnightblue" points="459.928,-76.9193 451.01,-82.6404 461.549,-83.7289 459.928,-76.9193"/>
</g>
<!-- Node6 -->
<g id="node6" class="node"><title>Node6</title>
<g id="a_node6"><a xlink:href="drive_8F90.html#a13048bf28dd0734640412d69349e3857" target="_top" xlink:title="NEK5000: Spectral Element Computational Fluid Dynamics Solver COPYRIGHT (c) 2008&#45;2010 UCHICAGO ARGONN...">
<polygon fill="white" stroke="black" points="576,-58.5 576,-77.5 625,-77.5 625,-58.5 576,-58.5"/>
<text text-anchor="middle" x="600.5" y="-65.5" font-family="Helvetica,sans-Serif" font-size="10.00">nekton</text>
</a>
</g>
</g>
<!-- Node5&#45;&gt;Node6 -->
<g id="edge5" class="edge"><title>Node5&#45;&gt;Node6</title>
<path fill="none" stroke="midnightblue" d="M550.227,-68C558.846,-68 567.845,-68 575.759,-68"/>
<polygon fill="midnightblue" stroke="midnightblue" points="550.003,-64.5001 540.003,-68 550.003,-71.5001 550.003,-64.5001"/>
</g>
<!-- Node7&#45;&gt;Node8 -->
<g id="edge7" class="edge"><title>Node7&#45;&gt;Node8</title>
<path fill="none" stroke="midnightblue" d="M178.981,-57.0749C187.91,-55.2209 196.979,-53.3376 204.823,-51.7088"/>
<polygon fill="midnightblue" stroke="midnightblue" points="178.113,-53.6805 169.034,-59.1406 179.536,-60.5343 178.113,-53.6805"/>
</g>
<!-- Node9 -->
<g id="node9" class="node"><title>Node9</title>
<g id="a_node9"><a xlink:href="ic_8F90.html#af64028aefb1dff2a9f8a84ff024f44b0" target="_top" xlink:title="driver for restarts (1) Open restart file(s) (2) Check previous spatial discretization (3) Map (K1...">
<polygon fill="white" stroke="black" points="288,-38.5 288,-57.5 368,-57.5 368,-38.5 288,-38.5"/>
<text text-anchor="middle" x="328" y="-45.5" font-family="Helvetica,sans-Serif" font-size="10.00">restart_driver</text>
</a>
</g>
</g>
<!-- Node8&#45;&gt;Node9 -->
<g id="edge8" class="edge"><title>Node8&#45;&gt;Node9</title>
<path fill="none" stroke="midnightblue" d="M262.341,-47.3368C270.479,-47.4203 279.282,-47.5106 287.694,-47.5969"/>
<polygon fill="midnightblue" stroke="midnightblue" points="262.149,-43.8348 252.114,-47.2319 262.077,-50.8344 262.149,-43.8348"/>
</g>
<!-- Node8&#45;&gt;Node11 -->
<g id="edge11" class="edge"><title>Node8&#45;&gt;Node11</title>
<path fill="none" stroke="midnightblue" d="M261.729,-34.7694C276.237,-29.264 292.958,-22.9185 305.844,-18.0284"/>
<polygon fill="midnightblue" stroke="midnightblue" points="260.221,-31.5981 252.114,-38.4185 262.705,-38.1427 260.221,-31.5981"/>
</g>
<!-- Node10 -->
<g id="node10" class="node"><title>Node10</title>
<g id="a_node10"><a xlink:href="ic_8F90.html#acaefa33e86633e4a7a4b28347d4620d1" target="_top" xlink:title="Set initial conditions. ">
<polygon fill="white" stroke="black" points="405.5,-38.5 405.5,-57.5 449.5,-57.5 449.5,-38.5 405.5,-38.5"/>
<text text-anchor="middle" x="427.5" y="-45.5" font-family="Helvetica,sans-Serif" font-size="10.00">setics</text>
</a>
</g>
</g>
<!-- Node9&#45;&gt;Node10 -->
<g id="edge9" class="edge"><title>Node9&#45;&gt;Node10</title>
<path fill="none" stroke="midnightblue" d="M378.352,-48C387.857,-48 397.331,-48 405.329,-48"/>
<polygon fill="midnightblue" stroke="midnightblue" points="378.095,-44.5001 368.095,-48 378.095,-51.5001 378.095,-44.5001"/>
</g>
<!-- Node10&#45;&gt;Node5 -->
<g id="edge10" class="edge"><title>Node10&#45;&gt;Node5</title>
<path fill="none" stroke="midnightblue" d="M459.45,-55.369C468.448,-57.5115 478.175,-59.8274 486.812,-61.8839"/>
<polygon fill="midnightblue" stroke="midnightblue" points="460.236,-51.9583 449.697,-53.0468 458.614,-58.7679 460.236,-51.9583"/>
</g>
<!-- Node11&#45;&gt;Node10 -->
<g id="edge12" class="edge"><title>Node11&#45;&gt;Node10</title>
<path fill="none" stroke="midnightblue" d="M359.499,-21.8866C374.408,-27.6973 391.978,-34.5454 405.385,-39.7707"/>
<polygon fill="midnightblue" stroke="midnightblue" points="360.744,-18.6158 350.156,-18.2454 358.202,-25.138 360.744,-18.6158"/>
</g>
</g>
</svg>
        <g id="navigator" transform="translate(0 0)" fill="#404254">
                <rect fill="#f2f5e9" fill-opacity="0.5" stroke="#606060" stroke-width=".5" x="0" y="0" width="60" height="60"/>
                <use id="zoomplus" xlink:href="#zoomPlus" x="17" y="9" onmousedown="handleZoom(evt,'in')"/>
                <use id="zoomminus" xlink:href="#zoomMin" x="42" y="9" onmousedown="handleZoom(evt,'out')"/>
                <use id="reset" xlink:href="#resetDef" x="30" y="36" onmousedown="handleReset()"/>
                <g id="arrowUp" xlink:href="#dirArrow" transform="translate(30 24)" onmousedown="handlePan(0,-1)">
                  <use xlink:href="#rim" fill="#404040">
                        <set attributeName="fill" to="#808080" begin="arrowUp.mouseover" end="arrowUp.mouseout"/>
                  </use>
                  <path fill="none" stroke="white" stroke-width="1.5" d="M0,-3.0v7 M-2.5,-0.5L0,-3.0L2.5,-0.5"/>
                </g>
                <g id="arrowRight" xlink:href="#dirArrow" transform="rotate(90) translate(36 -43)" onmousedown="handlePan(1,0)">
                  <use xlink:href="#rim" fill="#404040">
                        <set attributeName="fill" to="#808080" begin="arrowRight.mouseover" end="arrowRight.mouseout"/>
                  </use>
                  <path fill="none" stroke="white" stroke-width="1.5" d="M0,-3.0v7 M-2.5,-0.5L0,-3.0L2.5,-0.5"/>
                </g>
                <g id="arrowDown" xlink:href="#dirArrow" transform="rotate(180) translate(-30 -48)" onmousedown="handlePan(0,1)">
                  <use xlink:href="#rim" fill="#404040">
                        <set attributeName="fill" to="#808080" begin="arrowDown.mouseover" end="arrowDown.mouseout"/>
                  </use>
                  <path fill="none" stroke="white" stroke-width="1.5" d="M0,-3.0v7 M-2.5,-0.5L0,-3.0L2.5,-0.5"/>
                </g>
                <g id="arrowLeft" xlink:href="#dirArrow" transform="rotate(270) translate(-36 17)" onmousedown="handlePan(-1,0)">
                  <use xlink:href="#rim" fill="#404040">
                        <set attributeName="fill" to="#808080" begin="arrowLeft.mouseover" end="arrowLeft.mouseout"/>
                  </use>
                  <path fill="none" stroke="white" stroke-width="1.5" d="M0,-3.0v7 M-2.5,-0.5L0,-3.0L2.5,-0.5"/>
                </g>
        </g>
        <svg viewBox="0 0 15 15" width="100%" height="30px" preserveAspectRatio="xMaxYMin meet">
         <g id="arrow_out" transform="scale(0.3 0.3)">
          <a xlink:href="classstring_adb36d16763e75aa5052e0d731a63ad14_icgraph_org.svg" target="_base">
           <rect id="button" ry="5" rx="5" y="6" x="6" height="38" width="38"
                fill="#f2f5e9" fill-opacity="0.5" stroke="#606060" stroke-width="1.0"/>
           <path id="arrow"
             d="M 11.500037,31.436501 C 11.940474,20.09759 22.043105,11.32322 32.158766,21.979434 L 37.068811,17.246167 C 37.068811,17.246167 37.088388,32 37.088388,32 L 22.160133,31.978069 C 22.160133,31.978069 26.997745,27.140456 26.997745,27.140456 C 18.528582,18.264221 13.291696,25.230495 11.500037,31.436501 z"
             style="fill:#404040;"/>
          </a>
         </g>
        </svg>
</svg>
