<?xml version="1.0" encoding="UTF-8" standalone="no"?>
<!DOCTYPE svg PUBLIC "-//W3C//DTD SVG 1.1//EN"
 "http://www.w3.org/Graphics/SVG/1.1/DTD/svg11.dtd">
<!-- Generated by graphviz version 2.38.0 (20140413.2041)
 -->
<!-- Title: setinvm Pages: 1 -->
<svg width="657pt" height="177pt"
 viewBox="0.00 0.00 657.00 177.06" xmlns="http://www.w3.org/2000/svg" xmlns:xlink="http://www.w3.org/1999/xlink">
<g id="graph0" class="graph" transform="scale(1 1) rotate(0) translate(4 173.057)">
<title>setinvm</title>
<polygon fill="white" stroke="none" points="-4,4 -4,-173.057 653,-173.057 653,4 -4,4"/>
<!-- Node1 -->
<g id="node1" class="node"><title>Node1</title>
<polygon fill="#bfbfbf" stroke="black" points="0,-89.5571 0,-108.557 53,-108.557 53,-89.5571 0,-89.5571"/>
<text text-anchor="middle" x="26.5" y="-96.5571" font-family="Helvetica,sans-Serif" font-size="10.00">setinvm</text>
</g>
<!-- Node2 -->
<g id="node2" class="node"><title>Node2</title>
<g id="a_node2"><a xlink:href="drive2_8F90.html#aefc07385d7e7539fb57662470f694136" target="_top" xlink:title="Generate geometry data. ">
<polygon fill="white" stroke="black" points="95,-111.557 95,-130.557 156,-130.557 156,-111.557 95,-111.557"/>
<text text-anchor="middle" x="125.5" y="-118.557" font-family="Helvetica,sans-Serif" font-size="10.00">gengeom</text>
</a>
</g>
</g>
<!-- Node1&#45;&gt;Node2 -->
<g id="edge1" class="edge"><title>Node1&#45;&gt;Node2</title>
<path fill="none" stroke="midnightblue" d="M63.2721,-107.17C73.6619,-109.527 84.8903,-112.073 94.8594,-114.334"/>
<polygon fill="midnightblue" stroke="midnightblue" points="63.7661,-103.694 53.2396,-104.895 62.2177,-110.52 63.7661,-103.694"/>
</g>
<!-- Node8 -->
<g id="node8" class="node"><title>Node8</title>
<g id="a_node8"><a xlink:href="ic_8F90.html#aaf47b255d1cfac3451a8473ee6876b4f" target="_top" xlink:title="Generate geometry data. ">
<polygon fill="white" stroke="black" points="89,-45.5571 89,-64.5571 162,-64.5571 162,-45.5571 89,-45.5571"/>
<text text-anchor="middle" x="125.5" y="-52.5571" font-family="Helvetica,sans-Serif" font-size="10.00">geom_reset</text>
</a>
</g>
</g>
<!-- Node1&#45;&gt;Node8 -->
<g id="edge8" class="edge"><title>Node1&#45;&gt;Node8</title>
<path fill="none" stroke="midnightblue" d="M57.8421,-85.2936C72.6747,-78.5655 90.1554,-70.6361 103.494,-64.5858"/>
<polygon fill="midnightblue" stroke="midnightblue" points="56.2086,-82.1913 48.5476,-89.5097 59.1003,-88.5661 56.2086,-82.1913"/>
</g>
<!-- Node3 -->
<g id="node3" class="node"><title>Node3</title>
<g id="a_node3"><a xlink:href="drive1_8F90.html#a87bd37ae2c18426f28f35cc3f24e4355" target="_top" xlink:title="initialize nek ">
<polygon fill="white" stroke="black" points="505,-67.5571 505,-86.5571 558,-86.5571 558,-67.5571 505,-67.5571"/>
<text text-anchor="middle" x="531.5" y="-74.5571" font-family="Helvetica,sans-Serif" font-size="10.00">nek_init</text>
</a>
</g>
</g>
<!-- Node2&#45;&gt;Node3 -->
<g id="edge2" class="edge"><title>Node2&#45;&gt;Node3</title>
<path fill="none" stroke="midnightblue" d="M166.33,-120.669C229.64,-119.478 356.922,-114.733 463,-96.0571 477.028,-93.5874 492.333,-89.4064 504.817,-85.5943"/>
<polygon fill="midnightblue" stroke="midnightblue" points="165.941,-117.175 156.001,-120.842 166.059,-124.174 165.941,-117.175"/>
</g>
<!-- Node5 -->
<g id="node5" class="node"><title>Node5</title>
<g id="a_node5"><a xlink:href="drive1_8F90.html#ae177ea7efac97f35241521b782a671c0" target="_top" xlink:title="take a single time&#45;step ">
<polygon fill="white" stroke="black" points="216,-149.557 216,-168.557 296,-168.557 296,-149.557 216,-149.557"/>
<text text-anchor="middle" x="256" y="-156.557" font-family="Helvetica,sans-Serif" font-size="10.00">nek_advance</text>
</a>
</g>
</g>
<!-- Node2&#45;&gt;Node5 -->
<g id="edge4" class="edge"><title>Node2&#45;&gt;Node5</title>
<path fill="none" stroke="midnightblue" d="M166.029,-132.747C184.193,-138.118 205.467,-144.409 222.657,-149.493"/>
<polygon fill="midnightblue" stroke="midnightblue" points="166.886,-129.35 156.303,-129.871 164.9,-136.063 166.886,-129.35"/>
</g>
<!-- Node4 -->
<g id="node4" class="node"><title>Node4</title>
<g id="a_node4"><a xlink:href="drive_8F90.html#a13048bf28dd0734640412d69349e3857" target="_top" xlink:title="NEK5000: Spectral Element Computational Fluid Dynamics Solver COPYRIGHT (c) 2008&#45;2010 UCHICAGO ARGONN...">
<polygon fill="white" stroke="black" points="600,-97.5571 600,-116.557 649,-116.557 649,-97.5571 600,-97.5571"/>
<text text-anchor="middle" x="624.5" y="-104.557" font-family="Helvetica,sans-Serif" font-size="10.00">nekton</text>
</a>
</g>
</g>
<!-- Node3&#45;&gt;Node4 -->
<g id="edge3" class="edge"><title>Node3&#45;&gt;Node4</title>
<path fill="none" stroke="midnightblue" d="M567.863,-88.7151C578.559,-92.2415 590.043,-96.0274 599.784,-99.2386"/>
<polygon fill="midnightblue" stroke="midnightblue" points="568.927,-85.3806 558.334,-85.5736 566.735,-92.0287 568.927,-85.3806"/>
</g>
<!-- Node6 -->
<g id="node6" class="node"><title>Node6</title>
<g id="a_node6"><a xlink:href="drive1_8F90.html#a18d3e839786263fc4cf91f7eeb714371" target="_top" xlink:title="take a chunk of time&#45;steps ">
<polygon fill="white" stroke="black" points="350,-149.557 350,-168.557 463,-168.557 463,-149.557 350,-149.557"/>
<text text-anchor="middle" x="406.5" y="-156.557" font-family="Helvetica,sans-Serif" font-size="10.00">nek__multi_advance</text>
</a>
</g>
</g>
<!-- Node5&#45;&gt;Node6 -->
<g id="edge5" class="edge"><title>Node5&#45;&gt;Node6</title>
<path fill="none" stroke="midnightblue" d="M306.406,-159.057C320.382,-159.057 335.684,-159.057 349.993,-159.057"/>
<polygon fill="midnightblue" stroke="midnightblue" points="306.017,-155.557 296.017,-159.057 306.017,-162.557 306.017,-155.557"/>
</g>
<!-- Node7 -->
<g id="node7" class="node"><title>Node7</title>
<g id="a_node7"><a xlink:href="drive1_8F90.html#a6ad57e0cf728f343e371ef8c9a02cd8a" target="_top" xlink:title="integrate the governing equations in time ">
<polygon fill="white" stroke="black" points="499,-127.557 499,-146.557 564,-146.557 564,-127.557 499,-127.557"/>
<text text-anchor="middle" x="531.5" y="-134.557" font-family="Helvetica,sans-Serif" font-size="10.00">nek_solve</text>
</a>
</g>
</g>
<!-- Node6&#45;&gt;Node7 -->
<g id="edge6" class="edge"><title>Node6&#45;&gt;Node7</title>
<path fill="none" stroke="midnightblue" d="M470.837,-147.729C480.549,-145.991 490.2,-144.265 498.819,-142.724"/>
<polygon fill="midnightblue" stroke="midnightblue" points="469.962,-144.329 460.734,-149.535 471.194,-151.22 469.962,-144.329"/>
</g>
<!-- Node7&#45;&gt;Node4 -->
<g id="edge7" class="edge"><title>Node7&#45;&gt;Node4</title>
<path fill="none" stroke="midnightblue" d="M571.111,-124.328C580.893,-121.103 591.11,-117.735 599.896,-114.839"/>
<polygon fill="midnightblue" stroke="midnightblue" points="569.945,-121.027 561.543,-127.482 572.136,-127.675 569.945,-121.027"/>
</g>
<!-- Node8&#45;&gt;Node3 -->
<g id="edge9" class="edge"><title>Node8&#45;&gt;Node3</title>
<path fill="none" stroke="midnightblue" d="M158.558,-41.876C219.87,-18.7075 357.067,23.2187 463,-17.0571 489.673,-27.1982 512.537,-53.2459 523.527,-67.4573"/>
<polygon fill="midnightblue" stroke="midnightblue" points="157.108,-38.6839 149.042,-45.5535 159.632,-45.2133 157.108,-38.6839"/>
</g>
<!-- Node9 -->
<g id="node9" class="node"><title>Node9</title>
<g id="a_node9"><a xlink:href="classhsmg__routines.html#a91e8aa59d56bbf05d75aa9c48bcd8977" target="_top" xlink:title="Sets up Poisson preconditioner. ">
<polygon fill="white" stroke="black" points="198,-62.0571 198,-92.0571 314,-92.0571 314,-62.0571 198,-62.0571"/>
<text text-anchor="start" x="206" y="-80.0571" font-family="Helvetica,sans-Serif" font-size="10.00">hsmg_routines::h1mg</text>
<text text-anchor="middle" x="256" y="-69.0571" font-family="Helvetica,sans-Serif" font-size="10.00">_setup</text>
</a>
</g>
</g>
<!-- Node8&#45;&gt;Node9 -->
<g id="edge10" class="edge"><title>Node8&#45;&gt;Node9</title>
<path fill="none" stroke="midnightblue" d="M172.406,-62.9165C180.608,-64.3208 189.246,-65.7996 197.72,-67.2504"/>
<polygon fill="midnightblue" stroke="midnightblue" points="172.742,-59.4231 162.294,-61.1853 171.56,-66.3227 172.742,-59.4231"/>
</g>
<!-- Node11 -->
<g id="node11" class="node"><title>Node11</title>
<g id="a_node11"><a xlink:href="ic_8F90.html#acaefa33e86633e4a7a4b28347d4620d1" target="_top" xlink:title="Set initial conditions. ">
<polygon fill="white" stroke="black" points="384.5,-26.5571 384.5,-45.5571 428.5,-45.5571 428.5,-26.5571 384.5,-26.5571"/>
<text text-anchor="middle" x="406.5" y="-33.5571" font-family="Helvetica,sans-Serif" font-size="10.00">setics</text>
</a>
</g>
</g>
<!-- Node8&#45;&gt;Node11 -->
<g id="edge13" class="edge"><title>Node8&#45;&gt;Node11</title>
<path fill="none" stroke="midnightblue" d="M172.275,-51.9398C233.502,-47.7702 339.55,-40.5483 384.449,-37.4907"/>
<polygon fill="midnightblue" stroke="midnightblue" points="171.858,-48.46 162.119,-52.6314 172.334,-55.4438 171.858,-48.46"/>
</g>
<!-- Node10 -->
<g id="node10" class="node"><title>Node10</title>
<g id="a_node10"><a xlink:href="navier6_8F90.html#a45317b1def173b8f1db2e5083595d095" target="_top" xlink:title="Set up arrays for overlapping Schwartz algorithm for pressure solver ">
<polygon fill="white" stroke="black" points="370.5,-67.5571 370.5,-86.5571 442.5,-86.5571 442.5,-67.5571 370.5,-67.5571"/>
<text text-anchor="middle" x="406.5" y="-74.5571" font-family="Helvetica,sans-Serif" font-size="10.00">set_overlap</text>
</a>
</g>
</g>
<!-- Node9&#45;&gt;Node10 -->
<g id="edge11" class="edge"><title>Node9&#45;&gt;Node10</title>
<path fill="none" stroke="midnightblue" d="M324.65,-77.0571C340.359,-77.0571 356.466,-77.0571 370.127,-77.0571"/>
<polygon fill="midnightblue" stroke="midnightblue" points="324.414,-73.5572 314.414,-77.0571 324.414,-80.5572 324.414,-73.5572"/>
</g>
<!-- Node10&#45;&gt;Node3 -->
<g id="edge12" class="edge"><title>Node10&#45;&gt;Node3</title>
<path fill="none" stroke="midnightblue" d="M452.772,-77.0571C470.247,-77.0571 489.606,-77.0571 504.632,-77.0571"/>
<polygon fill="midnightblue" stroke="midnightblue" points="452.747,-73.5572 442.747,-77.0571 452.747,-80.5572 452.747,-73.5572"/>
</g>
<!-- Node11&#45;&gt;Node3 -->
<g id="edge14" class="edge"><title>Node11&#45;&gt;Node3</title>
<path fill="none" stroke="midnightblue" d="M438.187,-46.286C458.761,-53.144 485.539,-62.0699 504.951,-68.5408"/>
<polygon fill="midnightblue" stroke="midnightblue" points="439.238,-42.9472 428.644,-43.1052 437.024,-49.588 439.238,-42.9472"/>
</g>
</g>
</svg>
