<?xml version="1.0" encoding="UTF-8" standalone="no"?>
<!DOCTYPE svg PUBLIC "-//W3C//DTD SVG 1.1//EN"
 "http://www.w3.org/Graphics/SVG/1.1/DTD/svg11.dtd">
<!-- Generated by graphviz version 2.38.0 (20140413.2041)
 -->
<!-- Title: chkjac Pages: 1 -->
<svg width="831pt" height="177pt"
 viewBox="0.00 0.00 831.00 177.06" xmlns="http://www.w3.org/2000/svg" xmlns:xlink="http://www.w3.org/1999/xlink">
<g id="graph0" class="graph" transform="scale(1 1) rotate(0) translate(4 173.057)">
<title>chkjac</title>
<polygon fill="white" stroke="none" points="-4,4 -4,-173.057 827,-173.057 827,4 -4,4"/>
<!-- Node1 -->
<g id="node1" class="node"><title>Node1</title>
<polygon fill="#bfbfbf" stroke="black" points="0,-89.5571 0,-108.557 47,-108.557 47,-89.5571 0,-89.5571"/>
<text text-anchor="middle" x="23.5" y="-96.5571" font-family="Helvetica,sans-Serif" font-size="10.00">chkjac</text>
</g>
<!-- Node2 -->
<g id="node2" class="node"><title>Node2</title>
<g id="a_node2"><a xlink:href="coef_8F90.html#ad01cc61ba84d488e68ca9e259c592465" target="_top" xlink:title="Routine to generate mapping data based on mesh 1 (Gauss&#45;Legendre Lobatto meshes). ...">
<polygon fill="white" stroke="black" points="83,-89.5571 83,-108.557 142,-108.557 142,-89.5571 83,-89.5571"/>
<text text-anchor="middle" x="112.5" y="-96.5571" font-family="Helvetica,sans-Serif" font-size="10.00">glmapm1</text>
</a>
</g>
</g>
<!-- Node1&#45;&gt;Node2 -->
<g id="edge1" class="edge"><title>Node1&#45;&gt;Node2</title>
<path fill="none" stroke="midnightblue" d="M57.5356,-99.0571C65.88,-99.0571 74.7706,-99.0571 82.8774,-99.0571"/>
<polygon fill="midnightblue" stroke="midnightblue" points="57.3583,-95.5572 47.3582,-99.0571 57.3582,-102.557 57.3583,-95.5572"/>
</g>
<!-- Node3 -->
<g id="node3" class="node"><title>Node3</title>
<g id="a_node3"><a xlink:href="coef_8F90.html#ac5d2ac0efba4a530fab5387321307d01" target="_top" xlink:title="Routine to generate all elemental geometric data for mesh 1. Velocity formulation : global&#45;to&#45;local m...">
<polygon fill="white" stroke="black" points="178,-89.5571 178,-108.557 227,-108.557 227,-89.5571 178,-89.5571"/>
<text text-anchor="middle" x="202.5" y="-96.5571" font-family="Helvetica,sans-Serif" font-size="10.00">geom1</text>
</a>
</g>
</g>
<!-- Node2&#45;&gt;Node3 -->
<g id="edge2" class="edge"><title>Node2&#45;&gt;Node3</title>
<path fill="none" stroke="midnightblue" d="M152.335,-99.0571C161.049,-99.0571 170.037,-99.0571 177.907,-99.0571"/>
<polygon fill="midnightblue" stroke="midnightblue" points="152.315,-95.5572 142.314,-99.0571 152.314,-102.557 152.315,-95.5572"/>
</g>
<!-- Node4 -->
<g id="node4" class="node"><title>Node4</title>
<g id="a_node4"><a xlink:href="drive2_8F90.html#aefc07385d7e7539fb57662470f694136" target="_top" xlink:title="Generate geometry data. ">
<polygon fill="white" stroke="black" points="269,-111.557 269,-130.557 330,-130.557 330,-111.557 269,-111.557"/>
<text text-anchor="middle" x="299.5" y="-118.557" font-family="Helvetica,sans-Serif" font-size="10.00">gengeom</text>
</a>
</g>
</g>
<!-- Node3&#45;&gt;Node4 -->
<g id="edge3" class="edge"><title>Node3&#45;&gt;Node4</title>
<path fill="none" stroke="midnightblue" d="M237.34,-106.894C247.597,-109.269 258.783,-111.859 268.751,-114.168"/>
<polygon fill="midnightblue" stroke="midnightblue" points="238.004,-103.455 227.473,-104.609 236.425,-110.275 238.004,-103.455"/>
</g>
<!-- Node10 -->
<g id="node10" class="node"><title>Node10</title>
<g id="a_node10"><a xlink:href="ic_8F90.html#aaf47b255d1cfac3451a8473ee6876b4f" target="_top" xlink:title="Generate geometry data. ">
<polygon fill="white" stroke="black" points="263,-45.5571 263,-64.5571 336,-64.5571 336,-45.5571 263,-45.5571"/>
<text text-anchor="middle" x="299.5" y="-52.5571" font-family="Helvetica,sans-Serif" font-size="10.00">geom_reset</text>
</a>
</g>
</g>
<!-- Node3&#45;&gt;Node10 -->
<g id="edge10" class="edge"><title>Node3&#45;&gt;Node10</title>
<path fill="none" stroke="midnightblue" d="M233.217,-85.2936C247.743,-78.5655 264.864,-70.6361 277.927,-64.5858"/>
<polygon fill="midnightblue" stroke="midnightblue" points="231.717,-82.1311 224.114,-89.5097 234.659,-88.4829 231.717,-82.1311"/>
</g>
<!-- Node5 -->
<g id="node5" class="node"><title>Node5</title>
<g id="a_node5"><a xlink:href="drive1_8F90.html#a87bd37ae2c18426f28f35cc3f24e4355" target="_top" xlink:title="initialize nek ">
<polygon fill="white" stroke="black" points="679,-67.5571 679,-86.5571 732,-86.5571 732,-67.5571 679,-67.5571"/>
<text text-anchor="middle" x="705.5" y="-74.5571" font-family="Helvetica,sans-Serif" font-size="10.00">nek_init</text>
</a>
</g>
</g>
<!-- Node4&#45;&gt;Node5 -->
<g id="edge4" class="edge"><title>Node4&#45;&gt;Node5</title>
<path fill="none" stroke="midnightblue" d="M340.33,-120.669C403.64,-119.478 530.922,-114.733 637,-96.0571 651.028,-93.5874 666.333,-89.4064 678.817,-85.5943"/>
<polygon fill="midnightblue" stroke="midnightblue" points="339.941,-117.175 330.001,-120.842 340.059,-124.174 339.941,-117.175"/>
</g>
<!-- Node7 -->
<g id="node7" class="node"><title>Node7</title>
<g id="a_node7"><a xlink:href="drive1_8F90.html#ae177ea7efac97f35241521b782a671c0" target="_top" xlink:title="take a single time&#45;step ">
<polygon fill="white" stroke="black" points="390,-149.557 390,-168.557 470,-168.557 470,-149.557 390,-149.557"/>
<text text-anchor="middle" x="430" y="-156.557" font-family="Helvetica,sans-Serif" font-size="10.00">nek_advance</text>
</a>
</g>
</g>
<!-- Node4&#45;&gt;Node7 -->
<g id="edge6" class="edge"><title>Node4&#45;&gt;Node7</title>
<path fill="none" stroke="midnightblue" d="M340.029,-132.747C358.193,-138.118 379.467,-144.409 396.657,-149.493"/>
<polygon fill="midnightblue" stroke="midnightblue" points="340.886,-129.35 330.303,-129.871 338.9,-136.063 340.886,-129.35"/>
</g>
<!-- Node6 -->
<g id="node6" class="node"><title>Node6</title>
<g id="a_node6"><a xlink:href="drive_8F90.html#a13048bf28dd0734640412d69349e3857" target="_top" xlink:title="NEK5000: Spectral Element Computational Fluid Dynamics Solver COPYRIGHT (c) 2008&#45;2010 UCHICAGO ARGONN...">
<polygon fill="white" stroke="black" points="774,-97.5571 774,-116.557 823,-116.557 823,-97.5571 774,-97.5571"/>
<text text-anchor="middle" x="798.5" y="-104.557" font-family="Helvetica,sans-Serif" font-size="10.00">nekton</text>
</a>
</g>
</g>
<!-- Node5&#45;&gt;Node6 -->
<g id="edge5" class="edge"><title>Node5&#45;&gt;Node6</title>
<path fill="none" stroke="midnightblue" d="M741.863,-88.7151C752.559,-92.2415 764.043,-96.0274 773.784,-99.2386"/>
<polygon fill="midnightblue" stroke="midnightblue" points="742.927,-85.3806 732.334,-85.5736 740.735,-92.0287 742.927,-85.3806"/>
</g>
<!-- Node8 -->
<g id="node8" class="node"><title>Node8</title>
<g id="a_node8"><a xlink:href="drive1_8F90.html#a18d3e839786263fc4cf91f7eeb714371" target="_top" xlink:title="take a chunk of time&#45;steps ">
<polygon fill="white" stroke="black" points="524,-149.557 524,-168.557 637,-168.557 637,-149.557 524,-149.557"/>
<text text-anchor="middle" x="580.5" y="-156.557" font-family="Helvetica,sans-Serif" font-size="10.00">nek__multi_advance</text>
</a>
</g>
</g>
<!-- Node7&#45;&gt;Node8 -->
<g id="edge7" class="edge"><title>Node7&#45;&gt;Node8</title>
<path fill="none" stroke="midnightblue" d="M480.406,-159.057C494.382,-159.057 509.684,-159.057 523.993,-159.057"/>
<polygon fill="midnightblue" stroke="midnightblue" points="480.017,-155.557 470.017,-159.057 480.017,-162.557 480.017,-155.557"/>
</g>
<!-- Node9 -->
<g id="node9" class="node"><title>Node9</title>
<g id="a_node9"><a xlink:href="drive1_8F90.html#a6ad57e0cf728f343e371ef8c9a02cd8a" target="_top" xlink:title="integrate the governing equations in time ">
<polygon fill="white" stroke="black" points="673,-127.557 673,-146.557 738,-146.557 738,-127.557 673,-127.557"/>
<text text-anchor="middle" x="705.5" y="-134.557" font-family="Helvetica,sans-Serif" font-size="10.00">nek_solve</text>
</a>
</g>
</g>
<!-- Node8&#45;&gt;Node9 -->
<g id="edge8" class="edge"><title>Node8&#45;&gt;Node9</title>
<path fill="none" stroke="midnightblue" d="M644.837,-147.729C654.549,-145.991 664.2,-144.265 672.819,-142.724"/>
<polygon fill="midnightblue" stroke="midnightblue" points="643.962,-144.329 634.734,-149.535 645.194,-151.22 643.962,-144.329"/>
</g>
<!-- Node9&#45;&gt;Node6 -->
<g id="edge9" class="edge"><title>Node9&#45;&gt;Node6</title>
<path fill="none" stroke="midnightblue" d="M745.111,-124.328C754.893,-121.103 765.11,-117.735 773.896,-114.839"/>
<polygon fill="midnightblue" stroke="midnightblue" points="743.945,-121.027 735.543,-127.482 746.136,-127.675 743.945,-121.027"/>
</g>
<!-- Node10&#45;&gt;Node5 -->
<g id="edge11" class="edge"><title>Node10&#45;&gt;Node5</title>
<path fill="none" stroke="midnightblue" d="M332.558,-41.876C393.87,-18.7075 531.067,23.2187 637,-17.0571 663.673,-27.1982 686.537,-53.2459 697.527,-67.4573"/>
<polygon fill="midnightblue" stroke="midnightblue" points="331.108,-38.6839 323.042,-45.5535 333.632,-45.2133 331.108,-38.6839"/>
</g>
<!-- Node11 -->
<g id="node11" class="node"><title>Node11</title>
<g id="a_node11"><a xlink:href="classhsmg__routines.html#a91e8aa59d56bbf05d75aa9c48bcd8977" target="_top" xlink:title="Sets up Poisson preconditioner. ">
<polygon fill="white" stroke="black" points="372,-62.0571 372,-92.0571 488,-92.0571 488,-62.0571 372,-62.0571"/>
<text text-anchor="start" x="380" y="-80.0571" font-family="Helvetica,sans-Serif" font-size="10.00">hsmg_routines::h1mg</text>
<text text-anchor="middle" x="430" y="-69.0571" font-family="Helvetica,sans-Serif" font-size="10.00">_setup</text>
</a>
</g>
</g>
<!-- Node10&#45;&gt;Node11 -->
<g id="edge12" class="edge"><title>Node10&#45;&gt;Node11</title>
<path fill="none" stroke="midnightblue" d="M346.406,-62.9165C354.608,-64.3208 363.246,-65.7996 371.72,-67.2504"/>
<polygon fill="midnightblue" stroke="midnightblue" points="346.742,-59.4231 336.294,-61.1853 345.56,-66.3227 346.742,-59.4231"/>
</g>
<!-- Node13 -->
<g id="node13" class="node"><title>Node13</title>
<g id="a_node13"><a xlink:href="ic_8F90.html#acaefa33e86633e4a7a4b28347d4620d1" target="_top" xlink:title="Set initial conditions. ">
<polygon fill="white" stroke="black" points="558.5,-26.5571 558.5,-45.5571 602.5,-45.5571 602.5,-26.5571 558.5,-26.5571"/>
<text text-anchor="middle" x="580.5" y="-33.5571" font-family="Helvetica,sans-Serif" font-size="10.00">setics</text>
</a>
</g>
</g>
<!-- Node10&#45;&gt;Node13 -->
<g id="edge15" class="edge"><title>Node10&#45;&gt;Node13</title>
<path fill="none" stroke="midnightblue" d="M346.275,-51.9398C407.502,-47.7702 513.55,-40.5483 558.449,-37.4907"/>
<polygon fill="midnightblue" stroke="midnightblue" points="345.858,-48.46 336.119,-52.6314 346.334,-55.4438 345.858,-48.46"/>
</g>
<!-- Node12 -->
<g id="node12" class="node"><title>Node12</title>
<g id="a_node12"><a xlink:href="navier6_8F90.html#a45317b1def173b8f1db2e5083595d095" target="_top" xlink:title="Set up arrays for overlapping Schwartz algorithm for pressure solver ">
<polygon fill="white" stroke="black" points="544.5,-67.5571 544.5,-86.5571 616.5,-86.5571 616.5,-67.5571 544.5,-67.5571"/>
<text text-anchor="middle" x="580.5" y="-74.5571" font-family="Helvetica,sans-Serif" font-size="10.00">set_overlap</text>
</a>
</g>
</g>
<!-- Node11&#45;&gt;Node12 -->
<g id="edge13" class="edge"><title>Node11&#45;&gt;Node12</title>
<path fill="none" stroke="midnightblue" d="M498.65,-77.0571C514.359,-77.0571 530.466,-77.0571 544.127,-77.0571"/>
<polygon fill="midnightblue" stroke="midnightblue" points="498.414,-73.5572 488.414,-77.0571 498.414,-80.5572 498.414,-73.5572"/>
</g>
<!-- Node12&#45;&gt;Node5 -->
<g id="edge14" class="edge"><title>Node12&#45;&gt;Node5</title>
<path fill="none" stroke="midnightblue" d="M626.772,-77.0571C644.247,-77.0571 663.606,-77.0571 678.632,-77.0571"/>
<polygon fill="midnightblue" stroke="midnightblue" points="626.747,-73.5572 616.747,-77.0571 626.747,-80.5572 626.747,-73.5572"/>
</g>
<!-- Node13&#45;&gt;Node5 -->
<g id="edge16" class="edge"><title>Node13&#45;&gt;Node5</title>
<path fill="none" stroke="midnightblue" d="M612.187,-46.286C632.761,-53.144 659.539,-62.0699 678.951,-68.5408"/>
<polygon fill="midnightblue" stroke="midnightblue" points="613.238,-42.9472 602.644,-43.1052 611.024,-49.588 613.238,-42.9472"/>
</g>
</g>
</svg>
