<?xml version="1.0" encoding="UTF-8" standalone="no"?>
<!DOCTYPE svg PUBLIC "-//W3C//DTD SVG 1.1//EN"
 "http://www.w3.org/Graphics/SVG/1.1/DTD/svg11.dtd">
<!-- Generated by graphviz version 2.38.0 (20140413.2041)
 -->
<!-- Title: setarea Pages: 1 -->
<svg width="305pt" height="104pt"
 viewBox="0.00 0.00 305.00 104.00" xmlns="http://www.w3.org/2000/svg" xmlns:xlink="http://www.w3.org/1999/xlink">
<g id="graph0" class="graph" transform="scale(1 1) rotate(0) translate(4 100)">
<title>setarea</title>
<polygon fill="white" stroke="none" points="-4,4 -4,-100 301,-100 301,4 -4,4"/>
<!-- Node1 -->
<g id="node1" class="node"><title>Node1</title>
<polygon fill="#bfbfbf" stroke="black" points="0,-38.5 0,-57.5 53,-57.5 53,-38.5 0,-38.5"/>
<text text-anchor="middle" x="26.5" y="-45.5" font-family="Helvetica,sans-Serif" font-size="10.00">setarea</text>
</g>
<!-- Node2 -->
<g id="node2" class="node"><title>Node2</title>
<g id="a_node2"><a xlink:href="coef_8F90.html#a57986e9c59c455dd25fd8629a418129f" target="_top" xlink:title="Compute areas, normals and tangents (3D geom.) ">
<polygon fill="white" stroke="black" points="89,-38.5 89,-57.5 133,-57.5 133,-38.5 89,-38.5"/>
<text text-anchor="middle" x="111" y="-45.5" font-family="Helvetica,sans-Serif" font-size="10.00">area3</text>
</a>
</g>
</g>
<!-- Node1&#45;&gt;Node2 -->
<g id="edge1" class="edge"><title>Node1&#45;&gt;Node2</title>
<path fill="none" stroke="midnightblue" d="M53.1513,-48C61.1998,-48 70.1775,-48 78.5778,-48"/>
<polygon fill="midnightblue" stroke="midnightblue" points="78.7961,-51.5001 88.7961,-48 78.796,-44.5001 78.7961,-51.5001"/>
</g>
<!-- Node3 -->
<g id="node3" class="node"><title>Node3</title>
<g id="a_node3"><a xlink:href="subs1_8F90.html#a74608551ad6832584488671fd36acad8" target="_top" xlink:title="facexv">
<polygon fill="white" stroke="black" points="170.5,-76.5 170.5,-95.5 217.5,-95.5 217.5,-76.5 170.5,-76.5"/>
<text text-anchor="middle" x="194" y="-83.5" font-family="Helvetica,sans-Serif" font-size="10.00">facexv</text>
</a>
</g>
</g>
<!-- Node2&#45;&gt;Node3 -->
<g id="edge2" class="edge"><title>Node2&#45;&gt;Node3</title>
<path fill="none" stroke="midnightblue" d="M132.44,-57.589C141.841,-61.9994 153.171,-67.3149 163.476,-72.1493"/>
<polygon fill="midnightblue" stroke="midnightblue" points="162.027,-75.3354 172.567,-76.4141 165,-68.9982 162.027,-75.3354"/>
</g>
<!-- Node5 -->
<g id="node5" class="node"><title>Node5</title>
<g id="a_node5"><a xlink:href="bdry_8F90.html#a08a4a461c2a4ae5f28db958154068379" target="_top" xlink:title="unitvec">
<polygon fill="white" stroke="black" points="169,-38.5 169,-57.5 219,-57.5 219,-38.5 169,-38.5"/>
<text text-anchor="middle" x="194" y="-45.5" font-family="Helvetica,sans-Serif" font-size="10.00">unitvec</text>
</a>
</g>
</g>
<!-- Node2&#45;&gt;Node5 -->
<g id="edge4" class="edge"><title>Node2&#45;&gt;Node5</title>
<path fill="none" stroke="midnightblue" d="M133.282,-48C141.013,-48 149.96,-48 158.538,-48"/>
<polygon fill="midnightblue" stroke="midnightblue" points="158.711,-51.5001 168.711,-48 158.711,-44.5001 158.711,-51.5001"/>
</g>
<!-- Node6 -->
<g id="node6" class="node"><title>Node6</title>
<g id="a_node6"><a xlink:href="math_8F90.html#af2f223956e6ec007feaf762d60bbd395" target="_top" xlink:title="Compute a Cartesian vector cross product. ">
<polygon fill="white" stroke="black" points="170.5,-0.5 170.5,-19.5 217.5,-19.5 217.5,-0.5 170.5,-0.5"/>
<text text-anchor="middle" x="194" y="-7.5" font-family="Helvetica,sans-Serif" font-size="10.00">vcross</text>
</a>
</g>
</g>
<!-- Node2&#45;&gt;Node6 -->
<g id="edge5" class="edge"><title>Node2&#45;&gt;Node6</title>
<path fill="none" stroke="midnightblue" d="M132.44,-38.411C141.841,-34.0006 153.171,-28.6851 163.476,-23.8507"/>
<polygon fill="midnightblue" stroke="midnightblue" points="165,-27.0018 172.567,-19.5859 162.027,-20.6646 165,-27.0018"/>
</g>
<!-- Node4 -->
<g id="node4" class="node"><title>Node4</title>
<g id="a_node4"><a xlink:href="connect1_8F90.html#aa6d2ebf2dfdfeae458d41ef4cb6d9fae" target="_top" xlink:title="Set up arrays IXCN,ESKIP,SKPDAT,NEDG,NOFFST for new NX,NY,NZ. ">
<polygon fill="white" stroke="black" points="255,-76.5 255,-95.5 297,-95.5 297,-76.5 255,-76.5"/>
<text text-anchor="middle" x="276" y="-83.5" font-family="Helvetica,sans-Serif" font-size="10.00">dsset</text>
</a>
</g>
</g>
<!-- Node3&#45;&gt;Node4 -->
<g id="edge3" class="edge"><title>Node3&#45;&gt;Node4</title>
<path fill="none" stroke="midnightblue" d="M217.711,-86C226.144,-86 235.847,-86 244.842,-86"/>
<polygon fill="midnightblue" stroke="midnightblue" points="244.958,-89.5001 254.958,-86 244.958,-82.5001 244.958,-89.5001"/>
</g>
</g>
</svg>
