<?xml version="1.0" encoding="UTF-8" standalone="no"?>
<!DOCTYPE svg PUBLIC "-//W3C//DTD SVG 1.1//EN"
 "http://www.w3.org/Graphics/SVG/1.1/DTD/svg11.dtd">
<!-- Generated by graphviz version 2.38.0 (20140413.2041)
 -->
<!-- Title: area3 Pages: 1 -->
<svg width="216pt" height="104pt"
 viewBox="0.00 0.00 216.00 104.00" xmlns="http://www.w3.org/2000/svg" xmlns:xlink="http://www.w3.org/1999/xlink">
<g id="graph0" class="graph" transform="scale(1 1) rotate(0) translate(4 100)">
<title>area3</title>
<polygon fill="white" stroke="none" points="-4,4 -4,-100 212,-100 212,4 -4,4"/>
<!-- Node1 -->
<g id="node1" class="node"><title>Node1</title>
<polygon fill="#bfbfbf" stroke="black" points="0,-38.5 0,-57.5 44,-57.5 44,-38.5 0,-38.5"/>
<text text-anchor="middle" x="22" y="-45.5" font-family="Helvetica,sans-Serif" font-size="10.00">area3</text>
</g>
<!-- Node2 -->
<g id="node2" class="node"><title>Node2</title>
<g id="a_node2"><a xlink:href="subs1_8F90.html#a74608551ad6832584488671fd36acad8" target="_top" xlink:title="facexv">
<polygon fill="white" stroke="black" points="81.5,-76.5 81.5,-95.5 128.5,-95.5 128.5,-76.5 81.5,-76.5"/>
<text text-anchor="middle" x="105" y="-83.5" font-family="Helvetica,sans-Serif" font-size="10.00">facexv</text>
</a>
</g>
</g>
<!-- Node1&#45;&gt;Node2 -->
<g id="edge1" class="edge"><title>Node1&#45;&gt;Node2</title>
<path fill="none" stroke="midnightblue" d="M43.4397,-57.589C52.8408,-61.9994 64.1712,-67.3149 74.4762,-72.1493"/>
<polygon fill="midnightblue" stroke="midnightblue" points="73.027,-75.3354 83.5668,-76.4141 76.0001,-68.9982 73.027,-75.3354"/>
</g>
<!-- Node4 -->
<g id="node4" class="node"><title>Node4</title>
<g id="a_node4"><a xlink:href="bdry_8F90.html#a08a4a461c2a4ae5f28db958154068379" target="_top" xlink:title="unitvec">
<polygon fill="white" stroke="black" points="80,-38.5 80,-57.5 130,-57.5 130,-38.5 80,-38.5"/>
<text text-anchor="middle" x="105" y="-45.5" font-family="Helvetica,sans-Serif" font-size="10.00">unitvec</text>
</a>
</g>
</g>
<!-- Node1&#45;&gt;Node4 -->
<g id="edge3" class="edge"><title>Node1&#45;&gt;Node4</title>
<path fill="none" stroke="midnightblue" d="M44.2818,-48C52.0129,-48 60.9603,-48 69.538,-48"/>
<polygon fill="midnightblue" stroke="midnightblue" points="69.7111,-51.5001 79.7111,-48 69.711,-44.5001 69.7111,-51.5001"/>
</g>
<!-- Node5 -->
<g id="node5" class="node"><title>Node5</title>
<g id="a_node5"><a xlink:href="math_8F90.html#af2f223956e6ec007feaf762d60bbd395" target="_top" xlink:title="Compute a Cartesian vector cross product. ">
<polygon fill="white" stroke="black" points="81.5,-0.5 81.5,-19.5 128.5,-19.5 128.5,-0.5 81.5,-0.5"/>
<text text-anchor="middle" x="105" y="-7.5" font-family="Helvetica,sans-Serif" font-size="10.00">vcross</text>
</a>
</g>
</g>
<!-- Node1&#45;&gt;Node5 -->
<g id="edge4" class="edge"><title>Node1&#45;&gt;Node5</title>
<path fill="none" stroke="midnightblue" d="M43.4397,-38.411C52.8408,-34.0006 64.1712,-28.6851 74.4762,-23.8507"/>
<polygon fill="midnightblue" stroke="midnightblue" points="76.0001,-27.0018 83.5668,-19.5859 73.027,-20.6646 76.0001,-27.0018"/>
</g>
<!-- Node3 -->
<g id="node3" class="node"><title>Node3</title>
<g id="a_node3"><a xlink:href="connect1_8F90.html#aa6d2ebf2dfdfeae458d41ef4cb6d9fae" target="_top" xlink:title="Set up arrays IXCN,ESKIP,SKPDAT,NEDG,NOFFST for new NX,NY,NZ. ">
<polygon fill="white" stroke="black" points="166,-76.5 166,-95.5 208,-95.5 208,-76.5 166,-76.5"/>
<text text-anchor="middle" x="187" y="-83.5" font-family="Helvetica,sans-Serif" font-size="10.00">dsset</text>
</a>
</g>
</g>
<!-- Node2&#45;&gt;Node3 -->
<g id="edge2" class="edge"><title>Node2&#45;&gt;Node3</title>
<path fill="none" stroke="midnightblue" d="M128.711,-86C137.144,-86 146.847,-86 155.842,-86"/>
<polygon fill="midnightblue" stroke="midnightblue" points="155.958,-89.5001 165.958,-86 155.958,-82.5001 155.958,-89.5001"/>
</g>
</g>
</svg>
