<?xml version="1.0" encoding="UTF-8" standalone="no"?>
<!DOCTYPE svg PUBLIC "-//W3C//DTD SVG 1.1//EN"
 "http://www.w3.org/Graphics/SVG/1.1/DTD/svg11.dtd">
<!-- Generated by graphviz version 2.38.0 (20140413.2041)
 -->
<!-- Title: lagmass Pages: 1 -->
<svg width="612pt" height="66pt"
 viewBox="0.00 0.00 612.00 66.00" xmlns="http://www.w3.org/2000/svg" xmlns:xlink="http://www.w3.org/1999/xlink">
<g id="graph0" class="graph" transform="scale(1 1) rotate(0) translate(4 62)">
<title>lagmass</title>
<polygon fill="white" stroke="none" points="-4,4 -4,-62 608,-62 608,4 -4,4"/>
<!-- Node1 -->
<g id="node1" class="node"><title>Node1</title>
<polygon fill="#bfbfbf" stroke="black" points="0,-19.5 0,-38.5 56,-38.5 56,-19.5 0,-19.5"/>
<text text-anchor="middle" x="28" y="-26.5" font-family="Helvetica,sans-Serif" font-size="10.00">lagmass</text>
</g>
<!-- Node2 -->
<g id="node2" class="node"><title>Node2</title>
<g id="a_node2"><a xlink:href="drive2_8F90.html#aefc07385d7e7539fb57662470f694136" target="_top" xlink:title="Generate geometry data. ">
<polygon fill="white" stroke="black" points="92,-19.5 92,-38.5 153,-38.5 153,-19.5 92,-19.5"/>
<text text-anchor="middle" x="122.5" y="-26.5" font-family="Helvetica,sans-Serif" font-size="10.00">gengeom</text>
</a>
</g>
</g>
<!-- Node1&#45;&gt;Node2 -->
<g id="edge1" class="edge"><title>Node1&#45;&gt;Node2</title>
<path fill="none" stroke="midnightblue" d="M66.3268,-29C74.8219,-29 83.7345,-29 91.8587,-29"/>
<polygon fill="midnightblue" stroke="midnightblue" points="66.2528,-25.5001 56.2528,-29 66.2527,-32.5001 66.2528,-25.5001"/>
</g>
<!-- Node3 -->
<g id="node3" class="node"><title>Node3</title>
<g id="a_node3"><a xlink:href="drive1_8F90.html#a87bd37ae2c18426f28f35cc3f24e4355" target="_top" xlink:title="initialize nek ">
<polygon fill="white" stroke="black" points="335,-38.5 335,-57.5 388,-57.5 388,-38.5 335,-38.5"/>
<text text-anchor="middle" x="361.5" y="-45.5" font-family="Helvetica,sans-Serif" font-size="10.00">nek_init</text>
</a>
</g>
</g>
<!-- Node2&#45;&gt;Node3 -->
<g id="edge2" class="edge"><title>Node2&#45;&gt;Node3</title>
<path fill="none" stroke="midnightblue" d="M163.242,-32.186C212.128,-36.1052 293.695,-42.6443 334.945,-45.9513"/>
<polygon fill="midnightblue" stroke="midnightblue" points="163.285,-28.6784 153.037,-31.3679 162.725,-35.656 163.285,-28.6784"/>
</g>
<!-- Node5 -->
<g id="node5" class="node"><title>Node5</title>
<g id="a_node5"><a xlink:href="drive1_8F90.html#ae177ea7efac97f35241521b782a671c0" target="_top" xlink:title="take a single time&#45;step ">
<polygon fill="white" stroke="black" points="189,-0.5 189,-19.5 269,-19.5 269,-0.5 189,-0.5"/>
<text text-anchor="middle" x="229" y="-7.5" font-family="Helvetica,sans-Serif" font-size="10.00">nek_advance</text>
</a>
</g>
</g>
<!-- Node2&#45;&gt;Node5 -->
<g id="edge4" class="edge"><title>Node2&#45;&gt;Node5</title>
<path fill="none" stroke="midnightblue" d="M163.153,-21.7904C171.581,-20.2579 180.475,-18.6409 188.884,-17.1121"/>
<polygon fill="midnightblue" stroke="midnightblue" points="162.379,-18.3737 153.166,-23.6062 163.631,-25.2608 162.379,-18.3737"/>
</g>
<!-- Node4 -->
<g id="node4" class="node"><title>Node4</title>
<g id="a_node4"><a xlink:href="drive_8F90.html#a13048bf28dd0734640412d69349e3857" target="_top" xlink:title="NEK5000: Spectral Element Computational Fluid Dynamics Solver COPYRIGHT (c) 2008&#45;2010 UCHICAGO ARGONN...">
<polygon fill="white" stroke="black" points="555,-19.5 555,-38.5 604,-38.5 604,-19.5 555,-19.5"/>
<text text-anchor="middle" x="579.5" y="-26.5" font-family="Helvetica,sans-Serif" font-size="10.00">nekton</text>
</a>
</g>
</g>
<!-- Node3&#45;&gt;Node4 -->
<g id="edge3" class="edge"><title>Node3&#45;&gt;Node4</title>
<path fill="none" stroke="midnightblue" d="M398.181,-44.8614C442.547,-40.9588 517.036,-34.4065 554.886,-31.0772"/>
<polygon fill="midnightblue" stroke="midnightblue" points="397.781,-41.383 388.126,-45.7458 398.395,-48.356 397.781,-41.383"/>
</g>
<!-- Node6 -->
<g id="node6" class="node"><title>Node6</title>
<g id="a_node6"><a xlink:href="drive1_8F90.html#a18d3e839786263fc4cf91f7eeb714371" target="_top" xlink:title="take a chunk of time&#45;steps ">
<polygon fill="white" stroke="black" points="305,-0.5 305,-19.5 418,-19.5 418,-0.5 305,-0.5"/>
<text text-anchor="middle" x="361.5" y="-7.5" font-family="Helvetica,sans-Serif" font-size="10.00">nek__multi_advance</text>
</a>
</g>
</g>
<!-- Node5&#45;&gt;Node6 -->
<g id="edge5" class="edge"><title>Node5&#45;&gt;Node6</title>
<path fill="none" stroke="midnightblue" d="M279.191,-10C287.607,-10 296.403,-10 304.97,-10"/>
<polygon fill="midnightblue" stroke="midnightblue" points="279.154,-6.5001 269.154,-10 279.154,-13.5001 279.154,-6.5001"/>
</g>
<!-- Node7 -->
<g id="node7" class="node"><title>Node7</title>
<g id="a_node7"><a xlink:href="drive1_8F90.html#a6ad57e0cf728f343e371ef8c9a02cd8a" target="_top" xlink:title="integrate the governing equations in time ">
<polygon fill="white" stroke="black" points="454,-0.5 454,-19.5 519,-19.5 519,-0.5 454,-0.5"/>
<text text-anchor="middle" x="486.5" y="-7.5" font-family="Helvetica,sans-Serif" font-size="10.00">nek_solve</text>
</a>
</g>
</g>
<!-- Node6&#45;&gt;Node7 -->
<g id="edge6" class="edge"><title>Node6&#45;&gt;Node7</title>
<path fill="none" stroke="midnightblue" d="M428.282,-10C437.164,-10 445.927,-10 453.824,-10"/>
<polygon fill="midnightblue" stroke="midnightblue" points="428.242,-6.5001 418.242,-10 428.242,-13.5001 428.242,-6.5001"/>
</g>
<!-- Node7&#45;&gt;Node4 -->
<g id="edge7" class="edge"><title>Node7&#45;&gt;Node4</title>
<path fill="none" stroke="midnightblue" d="M528.906,-18.6452C537.759,-20.4936 546.82,-22.3854 554.734,-24.0378"/>
<polygon fill="midnightblue" stroke="midnightblue" points="529.576,-15.2098 519.072,-16.592 528.146,-22.062 529.576,-15.2098"/>
</g>
</g>
</svg>
