<?xml version="1.0" encoding="UTF-8" standalone="no"?>
<!DOCTYPE svg PUBLIC "-//W3C//DTD SVG 1.1//EN"
 "http://www.w3.org/Graphics/SVG/1.1/DTD/svg11.dtd">
<!-- Generated by graphviz version 2.38.0 (20140413.2041)
 -->
<!-- Title: setarea Pages: 1 -->
<svg width="834pt" height="177pt"
 viewBox="0.00 0.00 834.00 177.06" xmlns="http://www.w3.org/2000/svg" xmlns:xlink="http://www.w3.org/1999/xlink">
<g id="graph0" class="graph" transform="scale(1 1) rotate(0) translate(4 173.057)">
<title>setarea</title>
<polygon fill="white" stroke="none" points="-4,4 -4,-173.057 830,-173.057 830,4 -4,4"/>
<!-- Node1 -->
<g id="node1" class="node"><title>Node1</title>
<polygon fill="#bfbfbf" stroke="black" points="0,-89.5571 0,-108.557 53,-108.557 53,-89.5571 0,-89.5571"/>
<text text-anchor="middle" x="26.5" y="-96.5571" font-family="Helvetica,sans-Serif" font-size="10.00">setarea</text>
</g>
<!-- Node2 -->
<g id="node2" class="node"><title>Node2</title>
<g id="a_node2"><a xlink:href="coef_8F90.html#a545a18fbdd13baf1464557808347be47" target="_top" xlink:title="Routine to generate elemental geometric matrices on mesh 1 (Gauss&#45;Legendre Lobatto mesh)...">
<polygon fill="white" stroke="black" points="89,-89.5571 89,-108.557 145,-108.557 145,-89.5571 89,-89.5571"/>
<text text-anchor="middle" x="117" y="-96.5571" font-family="Helvetica,sans-Serif" font-size="10.00">geodat1</text>
</a>
</g>
</g>
<!-- Node1&#45;&gt;Node2 -->
<g id="edge1" class="edge"><title>Node1&#45;&gt;Node2</title>
<path fill="none" stroke="midnightblue" d="M63.2382,-99.0571C71.8058,-99.0571 80.8158,-99.0571 88.9172,-99.0571"/>
<polygon fill="midnightblue" stroke="midnightblue" points="63.0979,-95.5572 53.0979,-99.0571 63.0978,-102.557 63.0979,-95.5572"/>
</g>
<!-- Node3 -->
<g id="node3" class="node"><title>Node3</title>
<g id="a_node3"><a xlink:href="coef_8F90.html#ac5d2ac0efba4a530fab5387321307d01" target="_top" xlink:title="Routine to generate all elemental geometric data for mesh 1. Velocity formulation : global&#45;to&#45;local m...">
<polygon fill="white" stroke="black" points="181,-89.5571 181,-108.557 230,-108.557 230,-89.5571 181,-89.5571"/>
<text text-anchor="middle" x="205.5" y="-96.5571" font-family="Helvetica,sans-Serif" font-size="10.00">geom1</text>
</a>
</g>
</g>
<!-- Node2&#45;&gt;Node3 -->
<g id="edge2" class="edge"><title>Node2&#45;&gt;Node3</title>
<path fill="none" stroke="midnightblue" d="M155.576,-99.0571C164.143,-99.0571 173.011,-99.0571 180.806,-99.0571"/>
<polygon fill="midnightblue" stroke="midnightblue" points="155.369,-95.5572 145.369,-99.0571 155.369,-102.557 155.369,-95.5572"/>
</g>
<!-- Node4 -->
<g id="node4" class="node"><title>Node4</title>
<g id="a_node4"><a xlink:href="drive2_8F90.html#aefc07385d7e7539fb57662470f694136" target="_top" xlink:title="Generate geometry data. ">
<polygon fill="white" stroke="black" points="272,-111.557 272,-130.557 333,-130.557 333,-111.557 272,-111.557"/>
<text text-anchor="middle" x="302.5" y="-118.557" font-family="Helvetica,sans-Serif" font-size="10.00">gengeom</text>
</a>
</g>
</g>
<!-- Node3&#45;&gt;Node4 -->
<g id="edge3" class="edge"><title>Node3&#45;&gt;Node4</title>
<path fill="none" stroke="midnightblue" d="M240.34,-106.894C250.597,-109.269 261.783,-111.859 271.751,-114.168"/>
<polygon fill="midnightblue" stroke="midnightblue" points="241.004,-103.455 230.473,-104.609 239.425,-110.275 241.004,-103.455"/>
</g>
<!-- Node10 -->
<g id="node10" class="node"><title>Node10</title>
<g id="a_node10"><a xlink:href="ic_8F90.html#aaf47b255d1cfac3451a8473ee6876b4f" target="_top" xlink:title="Generate geometry data. ">
<polygon fill="white" stroke="black" points="266,-45.5571 266,-64.5571 339,-64.5571 339,-45.5571 266,-45.5571"/>
<text text-anchor="middle" x="302.5" y="-52.5571" font-family="Helvetica,sans-Serif" font-size="10.00">geom_reset</text>
</a>
</g>
</g>
<!-- Node3&#45;&gt;Node10 -->
<g id="edge10" class="edge"><title>Node3&#45;&gt;Node10</title>
<path fill="none" stroke="midnightblue" d="M236.217,-85.2936C250.743,-78.5655 267.864,-70.6361 280.927,-64.5858"/>
<polygon fill="midnightblue" stroke="midnightblue" points="234.717,-82.1311 227.114,-89.5097 237.659,-88.4829 234.717,-82.1311"/>
</g>
<!-- Node5 -->
<g id="node5" class="node"><title>Node5</title>
<g id="a_node5"><a xlink:href="drive1_8F90.html#a87bd37ae2c18426f28f35cc3f24e4355" target="_top" xlink:title="initialize nek ">
<polygon fill="white" stroke="black" points="682,-67.5571 682,-86.5571 735,-86.5571 735,-67.5571 682,-67.5571"/>
<text text-anchor="middle" x="708.5" y="-74.5571" font-family="Helvetica,sans-Serif" font-size="10.00">nek_init</text>
</a>
</g>
</g>
<!-- Node4&#45;&gt;Node5 -->
<g id="edge4" class="edge"><title>Node4&#45;&gt;Node5</title>
<path fill="none" stroke="midnightblue" d="M343.33,-120.669C406.64,-119.478 533.922,-114.733 640,-96.0571 654.028,-93.5874 669.333,-89.4064 681.817,-85.5943"/>
<polygon fill="midnightblue" stroke="midnightblue" points="342.941,-117.175 333.001,-120.842 343.059,-124.174 342.941,-117.175"/>
</g>
<!-- Node7 -->
<g id="node7" class="node"><title>Node7</title>
<g id="a_node7"><a xlink:href="drive1_8F90.html#ae177ea7efac97f35241521b782a671c0" target="_top" xlink:title="take a single time&#45;step ">
<polygon fill="white" stroke="black" points="393,-149.557 393,-168.557 473,-168.557 473,-149.557 393,-149.557"/>
<text text-anchor="middle" x="433" y="-156.557" font-family="Helvetica,sans-Serif" font-size="10.00">nek_advance</text>
</a>
</g>
</g>
<!-- Node4&#45;&gt;Node7 -->
<g id="edge6" class="edge"><title>Node4&#45;&gt;Node7</title>
<path fill="none" stroke="midnightblue" d="M343.029,-132.747C361.193,-138.118 382.467,-144.409 399.657,-149.493"/>
<polygon fill="midnightblue" stroke="midnightblue" points="343.886,-129.35 333.303,-129.871 341.9,-136.063 343.886,-129.35"/>
</g>
<!-- Node6 -->
<g id="node6" class="node"><title>Node6</title>
<g id="a_node6"><a xlink:href="drive_8F90.html#a13048bf28dd0734640412d69349e3857" target="_top" xlink:title="NEK5000: Spectral Element Computational Fluid Dynamics Solver COPYRIGHT (c) 2008&#45;2010 UCHICAGO ARGONN...">
<polygon fill="white" stroke="black" points="777,-97.5571 777,-116.557 826,-116.557 826,-97.5571 777,-97.5571"/>
<text text-anchor="middle" x="801.5" y="-104.557" font-family="Helvetica,sans-Serif" font-size="10.00">nekton</text>
</a>
</g>
</g>
<!-- Node5&#45;&gt;Node6 -->
<g id="edge5" class="edge"><title>Node5&#45;&gt;Node6</title>
<path fill="none" stroke="midnightblue" d="M744.863,-88.7151C755.559,-92.2415 767.043,-96.0274 776.784,-99.2386"/>
<polygon fill="midnightblue" stroke="midnightblue" points="745.927,-85.3806 735.334,-85.5736 743.735,-92.0287 745.927,-85.3806"/>
</g>
<!-- Node8 -->
<g id="node8" class="node"><title>Node8</title>
<g id="a_node8"><a xlink:href="drive1_8F90.html#a18d3e839786263fc4cf91f7eeb714371" target="_top" xlink:title="take a chunk of time&#45;steps ">
<polygon fill="white" stroke="black" points="527,-149.557 527,-168.557 640,-168.557 640,-149.557 527,-149.557"/>
<text text-anchor="middle" x="583.5" y="-156.557" font-family="Helvetica,sans-Serif" font-size="10.00">nek__multi_advance</text>
</a>
</g>
</g>
<!-- Node7&#45;&gt;Node8 -->
<g id="edge7" class="edge"><title>Node7&#45;&gt;Node8</title>
<path fill="none" stroke="midnightblue" d="M483.406,-159.057C497.382,-159.057 512.684,-159.057 526.993,-159.057"/>
<polygon fill="midnightblue" stroke="midnightblue" points="483.017,-155.557 473.017,-159.057 483.017,-162.557 483.017,-155.557"/>
</g>
<!-- Node9 -->
<g id="node9" class="node"><title>Node9</title>
<g id="a_node9"><a xlink:href="drive1_8F90.html#a6ad57e0cf728f343e371ef8c9a02cd8a" target="_top" xlink:title="integrate the governing equations in time ">
<polygon fill="white" stroke="black" points="676,-127.557 676,-146.557 741,-146.557 741,-127.557 676,-127.557"/>
<text text-anchor="middle" x="708.5" y="-134.557" font-family="Helvetica,sans-Serif" font-size="10.00">nek_solve</text>
</a>
</g>
</g>
<!-- Node8&#45;&gt;Node9 -->
<g id="edge8" class="edge"><title>Node8&#45;&gt;Node9</title>
<path fill="none" stroke="midnightblue" d="M647.837,-147.729C657.549,-145.991 667.2,-144.265 675.819,-142.724"/>
<polygon fill="midnightblue" stroke="midnightblue" points="646.962,-144.329 637.734,-149.535 648.194,-151.22 646.962,-144.329"/>
</g>
<!-- Node9&#45;&gt;Node6 -->
<g id="edge9" class="edge"><title>Node9&#45;&gt;Node6</title>
<path fill="none" stroke="midnightblue" d="M748.111,-124.328C757.893,-121.103 768.11,-117.735 776.896,-114.839"/>
<polygon fill="midnightblue" stroke="midnightblue" points="746.945,-121.027 738.543,-127.482 749.136,-127.675 746.945,-121.027"/>
</g>
<!-- Node10&#45;&gt;Node5 -->
<g id="edge11" class="edge"><title>Node10&#45;&gt;Node5</title>
<path fill="none" stroke="midnightblue" d="M335.558,-41.876C396.87,-18.7075 534.067,23.2187 640,-17.0571 666.673,-27.1982 689.537,-53.2459 700.527,-67.4573"/>
<polygon fill="midnightblue" stroke="midnightblue" points="334.108,-38.6839 326.042,-45.5535 336.632,-45.2133 334.108,-38.6839"/>
</g>
<!-- Node11 -->
<g id="node11" class="node"><title>Node11</title>
<g id="a_node11"><a xlink:href="classhsmg__routines.html#a91e8aa59d56bbf05d75aa9c48bcd8977" target="_top" xlink:title="Sets up Poisson preconditioner. ">
<polygon fill="white" stroke="black" points="375,-62.0571 375,-92.0571 491,-92.0571 491,-62.0571 375,-62.0571"/>
<text text-anchor="start" x="383" y="-80.0571" font-family="Helvetica,sans-Serif" font-size="10.00">hsmg_routines::h1mg</text>
<text text-anchor="middle" x="433" y="-69.0571" font-family="Helvetica,sans-Serif" font-size="10.00">_setup</text>
</a>
</g>
</g>
<!-- Node10&#45;&gt;Node11 -->
<g id="edge12" class="edge"><title>Node10&#45;&gt;Node11</title>
<path fill="none" stroke="midnightblue" d="M349.406,-62.9165C357.608,-64.3208 366.246,-65.7996 374.72,-67.2504"/>
<polygon fill="midnightblue" stroke="midnightblue" points="349.742,-59.4231 339.294,-61.1853 348.56,-66.3227 349.742,-59.4231"/>
</g>
<!-- Node13 -->
<g id="node13" class="node"><title>Node13</title>
<g id="a_node13"><a xlink:href="ic_8F90.html#acaefa33e86633e4a7a4b28347d4620d1" target="_top" xlink:title="Set initial conditions. ">
<polygon fill="white" stroke="black" points="561.5,-26.5571 561.5,-45.5571 605.5,-45.5571 605.5,-26.5571 561.5,-26.5571"/>
<text text-anchor="middle" x="583.5" y="-33.5571" font-family="Helvetica,sans-Serif" font-size="10.00">setics</text>
</a>
</g>
</g>
<!-- Node10&#45;&gt;Node13 -->
<g id="edge15" class="edge"><title>Node10&#45;&gt;Node13</title>
<path fill="none" stroke="midnightblue" d="M349.275,-51.9398C410.502,-47.7702 516.55,-40.5483 561.449,-37.4907"/>
<polygon fill="midnightblue" stroke="midnightblue" points="348.858,-48.46 339.119,-52.6314 349.334,-55.4438 348.858,-48.46"/>
</g>
<!-- Node12 -->
<g id="node12" class="node"><title>Node12</title>
<g id="a_node12"><a xlink:href="navier6_8F90.html#a45317b1def173b8f1db2e5083595d095" target="_top" xlink:title="Set up arrays for overlapping Schwartz algorithm for pressure solver ">
<polygon fill="white" stroke="black" points="547.5,-67.5571 547.5,-86.5571 619.5,-86.5571 619.5,-67.5571 547.5,-67.5571"/>
<text text-anchor="middle" x="583.5" y="-74.5571" font-family="Helvetica,sans-Serif" font-size="10.00">set_overlap</text>
</a>
</g>
</g>
<!-- Node11&#45;&gt;Node12 -->
<g id="edge13" class="edge"><title>Node11&#45;&gt;Node12</title>
<path fill="none" stroke="midnightblue" d="M501.65,-77.0571C517.359,-77.0571 533.466,-77.0571 547.127,-77.0571"/>
<polygon fill="midnightblue" stroke="midnightblue" points="501.414,-73.5572 491.414,-77.0571 501.414,-80.5572 501.414,-73.5572"/>
</g>
<!-- Node12&#45;&gt;Node5 -->
<g id="edge14" class="edge"><title>Node12&#45;&gt;Node5</title>
<path fill="none" stroke="midnightblue" d="M629.772,-77.0571C647.247,-77.0571 666.606,-77.0571 681.632,-77.0571"/>
<polygon fill="midnightblue" stroke="midnightblue" points="629.747,-73.5572 619.747,-77.0571 629.747,-80.5572 629.747,-73.5572"/>
</g>
<!-- Node13&#45;&gt;Node5 -->
<g id="edge16" class="edge"><title>Node13&#45;&gt;Node5</title>
<path fill="none" stroke="midnightblue" d="M615.187,-46.286C635.761,-53.144 662.539,-62.0699 681.951,-68.5408"/>
<polygon fill="midnightblue" stroke="midnightblue" points="616.238,-42.9472 605.644,-43.1052 614.024,-49.588 616.238,-42.9472"/>
</g>
</g>
</svg>
