<?xml version="1.0" encoding="UTF-8" standalone="no"?>
<!DOCTYPE svg PUBLIC "-//W3C//DTD SVG 1.1//EN"
 "http://www.w3.org/Graphics/SVG/1.1/DTD/svg11.dtd">
<!-- Generated by graphviz version 2.38.0 (20140413.2041)
 -->
<!-- Title: iniproc Pages: 1 -->
<svg width="428pt" height="237pt"
 viewBox="0.00 0.00 428.00 237.00" xmlns="http://www.w3.org/2000/svg" xmlns:xlink="http://www.w3.org/1999/xlink">
<g id="graph0" class="graph" transform="scale(1 1) rotate(0) translate(4 233)">
<title>iniproc</title>
<polygon fill="white" stroke="none" points="-4,4 -4,-233 424,-233 424,4 -4,4"/>
<!-- Node1 -->
<g id="node1" class="node"><title>Node1</title>
<polygon fill="#bfbfbf" stroke="black" points="0,-57.5 0,-76.5 48,-76.5 48,-57.5 0,-57.5"/>
<text text-anchor="middle" x="24" y="-64.5" font-family="Helvetica,sans-Serif" font-size="10.00">iniproc</text>
</g>
<!-- Node2 -->
<g id="node2" class="node"><title>Node2</title>
<g id="a_node2"><a xlink:href="byte_8c.html#a2da8eeb074dfd3ffbfb3e9a4d301cda4" target="_top" xlink:title="exitt">
<polygon fill="white" stroke="black" points="109.5,-114.5 109.5,-133.5 145.5,-133.5 145.5,-114.5 109.5,-114.5"/>
<text text-anchor="middle" x="127.5" y="-121.5" font-family="Helvetica,sans-Serif" font-size="10.00">exitt</text>
</a>
</g>
</g>
<!-- Node1&#45;&gt;Node2 -->
<g id="edge1" class="edge"><title>Node1&#45;&gt;Node2</title>
<path fill="none" stroke="midnightblue" d="M38.7036,-76.6738C50.4354,-84.7471 67.9293,-96.2976 84,-105 89.0638,-107.742 94.6011,-110.43 99.9559,-112.881"/>
<polygon fill="midnightblue" stroke="midnightblue" points="98.6952,-116.15 109.256,-116.997 101.529,-109.749 98.6952,-116.15"/>
</g>
<!-- Node12 -->
<g id="node12" class="node"><title>Node12</title>
<g id="a_node12"><a xlink:href="comm__mpi_8F90.html#a1b39639f2e521752c8545744cb0ac2f6" target="_top" xlink:title="init_nek_comm">
<polygon fill="white" stroke="black" points="84,-76.5 84,-95.5 171,-95.5 171,-76.5 84,-76.5"/>
<text text-anchor="middle" x="127.5" y="-83.5" font-family="Helvetica,sans-Serif" font-size="10.00">init_nek_comm</text>
</a>
</g>
</g>
<!-- Node1&#45;&gt;Node12 -->
<g id="edge11" class="edge"><title>Node1&#45;&gt;Node12</title>
<path fill="none" stroke="midnightblue" d="M48.0319,-71.3114C55.8494,-72.7748 64.9327,-74.4751 74.0882,-76.1889"/>
<polygon fill="midnightblue" stroke="midnightblue" points="73.5215,-79.6436 83.9948,-78.0434 74.8095,-72.7631 73.5215,-79.6436"/>
</g>
<!-- Node13 -->
<g id="node13" class="node"><title>Node13</title>
<g id="a_node13"><a xlink:href="mpi__dummy_8F90.html#a9a7def7ca223d7add4a332ec4d3a4e96" target="_top" xlink:title="mpi_attr_get">
<polygon fill="white" stroke="black" points="89.5,-38.5 89.5,-57.5 165.5,-57.5 165.5,-38.5 89.5,-38.5"/>
<text text-anchor="middle" x="127.5" y="-45.5" font-family="Helvetica,sans-Serif" font-size="10.00">mpi_attr_get</text>
</a>
</g>
</g>
<!-- Node1&#45;&gt;Node13 -->
<g id="edge12" class="edge"><title>Node1&#45;&gt;Node13</title>
<path fill="none" stroke="midnightblue" d="M48.0319,-62.6886C57.3464,-60.945 68.4579,-58.865 79.3473,-56.8266"/>
<polygon fill="midnightblue" stroke="midnightblue" points="80.0423,-60.2574 89.2275,-54.9771 78.7542,-53.3769 80.0423,-60.2574"/>
</g>
<!-- Node14 -->
<g id="node14" class="node"><title>Node14</title>
<g id="a_node14"><a xlink:href="comm__mpi_8F90.html#a18ca1338ab65ed76e2405bf426a32c96" target="_top" xlink:title="printheader">
<polygon fill="white" stroke="black" points="92,-0.5 92,-19.5 163,-19.5 163,-0.5 92,-0.5"/>
<text text-anchor="middle" x="127.5" y="-7.5" font-family="Helvetica,sans-Serif" font-size="10.00">printheader</text>
</a>
</g>
</g>
<!-- Node1&#45;&gt;Node14 -->
<g id="edge13" class="edge"><title>Node1&#45;&gt;Node14</title>
<path fill="none" stroke="midnightblue" d="M38.7036,-57.3262C50.4354,-49.2529 67.9293,-37.7024 84,-29 87.2471,-27.2417 90.6888,-25.5058 94.1523,-23.8404"/>
<polygon fill="midnightblue" stroke="midnightblue" points="95.6468,-27.0054 103.252,-19.6294 92.707,-20.6526 95.6468,-27.0054"/>
</g>
<!-- Node3 -->
<g id="node3" class="node"><title>Node3</title>
<g id="a_node3"><a xlink:href="classctimer.html#abcecbc845c8ee72e13a19eaa30b80d77" target="_top" xlink:title="ctimer::dnekclock">
<polygon fill="white" stroke="black" points="207,-209.5 207,-228.5 304,-228.5 304,-209.5 207,-209.5"/>
<text text-anchor="middle" x="255.5" y="-216.5" font-family="Helvetica,sans-Serif" font-size="10.00">ctimer::dnekclock</text>
</a>
</g>
</g>
<!-- Node2&#45;&gt;Node3 -->
<g id="edge2" class="edge"><title>Node2&#45;&gt;Node3</title>
<path fill="none" stroke="midnightblue" d="M136.256,-133.637C149.367,-149.389 177.388,-180.816 207,-200 209.921,-201.892 213.061,-203.651 216.284,-205.272"/>
<polygon fill="midnightblue" stroke="midnightblue" points="214.926,-208.499 225.476,-209.473 217.836,-202.132 214.926,-208.499"/>
</g>
<!-- Node5 -->
<g id="node5" class="node"><title>Node5</title>
<g id="a_node5"><a xlink:href="subs1_8F90.html#a339739b88994e5bb12bd923147f94983" target="_top" xlink:title="flush_io">
<polygon fill="white" stroke="black" points="229,-171.5 229,-190.5 282,-190.5 282,-171.5 229,-171.5"/>
<text text-anchor="middle" x="255.5" y="-178.5" font-family="Helvetica,sans-Serif" font-size="10.00">flush_io</text>
</a>
</g>
</g>
<!-- Node2&#45;&gt;Node5 -->
<g id="edge4" class="edge"><title>Node2&#45;&gt;Node5</title>
<path fill="none" stroke="midnightblue" d="M145.796,-132.806C161.594,-140.746 185.668,-152.584 207,-162 211.228,-163.866 215.699,-165.758 220.141,-167.589"/>
<polygon fill="midnightblue" stroke="midnightblue" points="219.127,-170.955 229.709,-171.465 221.755,-164.467 219.127,-170.955"/>
</g>
<!-- Node6 -->
<g id="node6" class="node"><title>Node6</title>
<g id="a_node6"><a xlink:href="singlmesh_8F90.html#aef78ff219741b83c1ca784b869e9cacf" target="_top" xlink:title="Dummy for singlmesh. ">
<polygon fill="white" stroke="black" points="215.5,-133.5 215.5,-152.5 295.5,-152.5 295.5,-133.5 215.5,-133.5"/>
<text text-anchor="middle" x="255.5" y="-140.5" font-family="Helvetica,sans-Serif" font-size="10.00">happy_check</text>
</a>
</g>
</g>
<!-- Node2&#45;&gt;Node6 -->
<g id="edge5" class="edge"><title>Node2&#45;&gt;Node6</title>
<path fill="none" stroke="midnightblue" d="M145.756,-126.602C161.105,-128.917 184.313,-132.416 205.354,-135.589"/>
<polygon fill="midnightblue" stroke="midnightblue" points="205.054,-139.083 215.464,-137.114 206.098,-132.162 205.054,-139.083"/>
</g>
<!-- Node7 -->
<g id="node7" class="node"><title>Node7</title>
<g id="a_node7"><a xlink:href="mpi__dummy_8F90.html#a55e9a1619aadb638b14211ce21d7d566" target="_top" xlink:title="mpi_finalize">
<polygon fill="white" stroke="black" points="219.5,-95.5 219.5,-114.5 291.5,-114.5 291.5,-95.5 219.5,-95.5"/>
<text text-anchor="middle" x="255.5" y="-102.5" font-family="Helvetica,sans-Serif" font-size="10.00">mpi_finalize</text>
</a>
</g>
</g>
<!-- Node2&#45;&gt;Node7 -->
<g id="edge6" class="edge"><title>Node2&#45;&gt;Node7</title>
<path fill="none" stroke="midnightblue" d="M145.756,-121.398C162.047,-118.941 187.193,-115.149 209.203,-111.831"/>
<polygon fill="midnightblue" stroke="midnightblue" points="210.01,-115.249 219.376,-110.297 208.966,-108.327 210.01,-115.249"/>
</g>
<!-- Node8 -->
<g id="node8" class="node"><title>Node8</title>
<g id="a_node8"><a xlink:href="papi_8F90.html#a3a75ccdfbe05912fda48c3b134d114c0" target="_top" xlink:title="nek_flops">
<polygon fill="white" stroke="black" points="224.5,-57.5 224.5,-76.5 286.5,-76.5 286.5,-57.5 224.5,-57.5"/>
<text text-anchor="middle" x="255.5" y="-64.5" font-family="Helvetica,sans-Serif" font-size="10.00">nek_flops</text>
</a>
</g>
</g>
<!-- Node2&#45;&gt;Node8 -->
<g id="edge7" class="edge"><title>Node2&#45;&gt;Node8</title>
<path fill="none" stroke="midnightblue" d="M145.576,-116.67C153.382,-113.241 162.716,-109.033 171,-105 187.267,-97.0817 190.578,-93.5922 207,-86 211.101,-84.1037 215.449,-82.2108 219.782,-80.3947"/>
<polygon fill="midnightblue" stroke="midnightblue" points="221.211,-83.5917 229.146,-76.5704 218.565,-77.1114 221.211,-83.5917"/>
</g>
<!-- Node10 -->
<g id="node10" class="node"><title>Node10</title>
<g id="a_node10"><a xlink:href="comm__mpi_8F90.html#a4acb4d8e379294232e9219bec063d8f3" target="_top" xlink:title="nekgsync">
<polygon fill="white" stroke="black" points="224.5,-19.5 224.5,-38.5 286.5,-38.5 286.5,-19.5 224.5,-19.5"/>
<text text-anchor="middle" x="255.5" y="-26.5" font-family="Helvetica,sans-Serif" font-size="10.00">nekgsync</text>
</a>
</g>
</g>
<!-- Node2&#45;&gt;Node10 -->
<g id="edge9" class="edge"><title>Node2&#45;&gt;Node10</title>
<path fill="none" stroke="midnightblue" d="M145.533,-118.988C153.873,-115.923 163.67,-111.351 171,-105 193.646,-85.3797 183.968,-67.1647 207,-48 209.526,-45.8981 212.314,-44.0068 215.236,-42.3093"/>
<polygon fill="midnightblue" stroke="midnightblue" points="216.901,-45.39 224.273,-37.7808 213.765,-39.1317 216.901,-45.39"/>
</g>
<!-- Node4 -->
<g id="node4" class="node"><title>Node4</title>
<g id="a_node4"><a xlink:href="mpi__dummy_8F90.html#ae6a5ef945f87c2c27849696b70f3af2a" target="_top" xlink:title="mpi_wtime">
<polygon fill="white" stroke="black" points="347,-209.5 347,-228.5 413,-228.5 413,-209.5 347,-209.5"/>
<text text-anchor="middle" x="380" y="-216.5" font-family="Helvetica,sans-Serif" font-size="10.00">mpi_wtime</text>
</a>
</g>
</g>
<!-- Node3&#45;&gt;Node4 -->
<g id="edge3" class="edge"><title>Node3&#45;&gt;Node4</title>
<path fill="none" stroke="midnightblue" d="M304.212,-219C314.894,-219 326.154,-219 336.603,-219"/>
<polygon fill="midnightblue" stroke="midnightblue" points="336.73,-222.5 346.729,-219 336.729,-215.5 336.73,-222.5"/>
</g>
<!-- Node9 -->
<g id="node9" class="node"><title>Node9</title>
<g id="a_node9"><a xlink:href="papi_8F90.html#a838be3d39e287e29002d5a68c6ad2dd8" target="_top" xlink:title="getflops_papi">
<polygon fill="white" stroke="black" points="340,-57.5 340,-76.5 420,-76.5 420,-57.5 340,-57.5"/>
<text text-anchor="middle" x="380" y="-64.5" font-family="Helvetica,sans-Serif" font-size="10.00">getflops_papi</text>
</a>
</g>
</g>
<!-- Node8&#45;&gt;Node9 -->
<g id="edge8" class="edge"><title>Node8&#45;&gt;Node9</title>
<path fill="none" stroke="midnightblue" d="M286.781,-67C299.666,-67 315.032,-67 329.491,-67"/>
<polygon fill="midnightblue" stroke="midnightblue" points="329.811,-70.5001 339.811,-67 329.811,-63.5001 329.811,-70.5001"/>
</g>
<!-- Node11 -->
<g id="node11" class="node"><title>Node11</title>
<g id="a_node11"><a xlink:href="mpi__dummy_8F90.html#a070afe564196eb48413dbf1a9fbc99aa" target="_top" xlink:title="mpi_barrier">
<polygon fill="white" stroke="black" points="345,-19.5 345,-38.5 415,-38.5 415,-19.5 345,-19.5"/>
<text text-anchor="middle" x="380" y="-26.5" font-family="Helvetica,sans-Serif" font-size="10.00">mpi_barrier</text>
</a>
</g>
</g>
<!-- Node10&#45;&gt;Node11 -->
<g id="edge10" class="edge"><title>Node10&#45;&gt;Node11</title>
<path fill="none" stroke="midnightblue" d="M286.781,-29C301.195,-29 318.714,-29 334.594,-29"/>
<polygon fill="midnightblue" stroke="midnightblue" points="334.745,-32.5001 344.745,-29 334.745,-25.5001 334.745,-32.5001"/>
</g>
</g>
</svg>
