<?xml version="1.0" encoding="UTF-8" standalone="no"?>
<!DOCTYPE svg PUBLIC "-//W3C//DTD SVG 1.1//EN"
 "http://www.w3.org/Graphics/SVG/1.1/DTD/svg11.dtd">
<!-- Generated by graphviz version 2.38.0 (20140413.2041)
 -->
<!-- Title: igl_running_sum Pages: 1 -->
<svg width="274pt" height="28pt"
 viewBox="0.00 0.00 274.00 28.00" xmlns="http://www.w3.org/2000/svg" xmlns:xlink="http://www.w3.org/1999/xlink">
<g id="graph0" class="graph" transform="scale(1 1) rotate(0) translate(4 24)">
<title>igl_running_sum</title>
<polygon fill="white" stroke="none" points="-4,4 -4,-24 270,-24 270,4 -4,4"/>
<!-- Node1 -->
<g id="node1" class="node"><title>Node1</title>
<polygon fill="#bfbfbf" stroke="black" points="0,-0.5 0,-19.5 93,-19.5 93,-0.5 0,-0.5"/>
<text text-anchor="middle" x="46.5" y="-7.5" font-family="Helvetica,sans-Serif" font-size="10.00">igl_running_sum</text>
</g>
<!-- Node2 -->
<g id="node2" class="node"><title>Node2</title>
<g id="a_node2"><a xlink:href="mpi__dummy_8F90.html#a360ea2d5368e0651d29945de0f055d09" target="_top" xlink:title="mpi_scan">
<polygon fill="white" stroke="black" points="129,-0.5 129,-19.5 191,-19.5 191,-0.5 129,-0.5"/>
<text text-anchor="middle" x="160" y="-7.5" font-family="Helvetica,sans-Serif" font-size="10.00">mpi_scan</text>
</a>
</g>
</g>
<!-- Node1&#45;&gt;Node2 -->
<g id="edge1" class="edge"><title>Node1&#45;&gt;Node2</title>
<path fill="none" stroke="midnightblue" d="M93.173,-10C101.63,-10 110.408,-10 118.691,-10"/>
<polygon fill="midnightblue" stroke="midnightblue" points="118.859,-13.5001 128.859,-10 118.859,-6.5001 118.859,-13.5001"/>
</g>
<!-- Node3 -->
<g id="node3" class="node"><title>Node3</title>
<g id="a_node3"><a xlink:href="math_8F90.html#a3b43508554f14bdea8e14473d7d0803c" target="_top" xlink:title="copy">
<polygon fill="white" stroke="black" points="227,-0.5 227,-19.5 266,-19.5 266,-0.5 227,-0.5"/>
<text text-anchor="middle" x="246.5" y="-7.5" font-family="Helvetica,sans-Serif" font-size="10.00">copy</text>
</a>
</g>
</g>
<!-- Node2&#45;&gt;Node3 -->
<g id="edge2" class="edge"><title>Node2&#45;&gt;Node3</title>
<path fill="none" stroke="midnightblue" d="M191.029,-10C199.435,-10 208.546,-10 216.868,-10"/>
<polygon fill="midnightblue" stroke="midnightblue" points="216.874,-13.5001 226.874,-10 216.874,-6.5001 216.874,-13.5001"/>
</g>
</g>
</svg>
