<?xml version="1.0" encoding="UTF-8" standalone="no"?>
<!DOCTYPE svg PUBLIC "-//W3C//DTD SVG 1.1//EN"
 "http://www.w3.org/Graphics/SVG/1.1/DTD/svg11.dtd">
<!-- Generated by graphviz version 2.38.0 (20140413.2041)
 -->
<!-- Title: init_nek_comm Pages: 1 -->
<svg width="486pt" height="28pt"
 viewBox="0.00 0.00 486.00 28.00" xmlns="http://www.w3.org/2000/svg" xmlns:xlink="http://www.w3.org/1999/xlink">
<g id="graph0" class="graph" transform="scale(1 1) rotate(0) translate(4 24)">
<title>init_nek_comm</title>
<polygon fill="white" stroke="none" points="-4,4 -4,-24 482,-24 482,4 -4,4"/>
<!-- Node1 -->
<g id="node1" class="node"><title>Node1</title>
<polygon fill="#bfbfbf" stroke="black" points="0,-0.5 0,-19.5 87,-19.5 87,-0.5 0,-0.5"/>
<text text-anchor="middle" x="43.5" y="-7.5" font-family="Helvetica,sans-Serif" font-size="10.00">init_nek_comm</text>
</g>
<!-- Node2 -->
<g id="node2" class="node"><title>Node2</title>
<g id="a_node2"><a xlink:href="comm__mpi_8F90.html#ad144041d3b33dd06035861d134cd9c35" target="_top" xlink:title="iniproc">
<polygon fill="white" stroke="black" points="123,-0.5 123,-19.5 171,-19.5 171,-0.5 123,-0.5"/>
<text text-anchor="middle" x="147" y="-7.5" font-family="Helvetica,sans-Serif" font-size="10.00">iniproc</text>
</a>
</g>
</g>
<!-- Node1&#45;&gt;Node2 -->
<g id="edge1" class="edge"><title>Node1&#45;&gt;Node2</title>
<path fill="none" stroke="midnightblue" d="M97.3778,-10C106.367,-10 115.267,-10 122.947,-10"/>
<polygon fill="midnightblue" stroke="midnightblue" points="97.251,-6.5001 87.251,-10 97.2509,-13.5001 97.251,-6.5001"/>
</g>
<!-- Node3 -->
<g id="node3" class="node"><title>Node3</title>
<g id="a_node3"><a xlink:href="singlmesh_8F90.html#a0b340eaa9352e5b5d12ff7d525b30c0a" target="_top" xlink:title="get_session_info">
<polygon fill="white" stroke="black" points="207,-0.5 207,-19.5 304,-19.5 304,-0.5 207,-0.5"/>
<text text-anchor="middle" x="255.5" y="-7.5" font-family="Helvetica,sans-Serif" font-size="10.00">get_session_info</text>
</a>
</g>
</g>
<!-- Node2&#45;&gt;Node3 -->
<g id="edge2" class="edge"><title>Node2&#45;&gt;Node3</title>
<path fill="none" stroke="midnightblue" d="M181.301,-10C189.431,-10 198.287,-10 206.939,-10"/>
<polygon fill="midnightblue" stroke="midnightblue" points="181.109,-6.5001 171.109,-10 181.109,-13.5001 181.109,-6.5001"/>
</g>
<!-- Node4 -->
<g id="node4" class="node"><title>Node4</title>
<g id="a_node4"><a xlink:href="drive1_8F90.html#a87bd37ae2c18426f28f35cc3f24e4355" target="_top" xlink:title="initialize nek ">
<polygon fill="white" stroke="black" points="340,-0.5 340,-19.5 393,-19.5 393,-0.5 340,-0.5"/>
<text text-anchor="middle" x="366.5" y="-7.5" font-family="Helvetica,sans-Serif" font-size="10.00">nek_init</text>
</a>
</g>
</g>
<!-- Node3&#45;&gt;Node4 -->
<g id="edge3" class="edge"><title>Node3&#45;&gt;Node4</title>
<path fill="none" stroke="midnightblue" d="M314.401,-10C323.34,-10 332.156,-10 339.883,-10"/>
<polygon fill="midnightblue" stroke="midnightblue" points="314.309,-6.5001 304.309,-10 314.309,-13.5001 314.309,-6.5001"/>
</g>
<!-- Node5 -->
<g id="node5" class="node"><title>Node5</title>
<g id="a_node5"><a xlink:href="drive_8F90.html#a13048bf28dd0734640412d69349e3857" target="_top" xlink:title="NEK5000: Spectral Element Computational Fluid Dynamics Solver COPYRIGHT (c) 2008&#45;2010 UCHICAGO ARGONN...">
<polygon fill="white" stroke="black" points="429,-0.5 429,-19.5 478,-19.5 478,-0.5 429,-0.5"/>
<text text-anchor="middle" x="453.5" y="-7.5" font-family="Helvetica,sans-Serif" font-size="10.00">nekton</text>
</a>
</g>
</g>
<!-- Node4&#45;&gt;Node5 -->
<g id="edge4" class="edge"><title>Node4&#45;&gt;Node5</title>
<path fill="none" stroke="midnightblue" d="M403.227,-10C411.846,-10 420.845,-10 428.759,-10"/>
<polygon fill="midnightblue" stroke="midnightblue" points="403.003,-6.5001 393.003,-10 403.003,-13.5001 403.003,-6.5001"/>
</g>
</g>
</svg>
