<?xml version="1.0" encoding="UTF-8" standalone="no"?>
<!DOCTYPE svg PUBLIC "-//W3C//DTD SVG 1.1//EN"
 "http://www.w3.org/Graphics/SVG/1.1/DTD/svg11.dtd">
<!-- Generated by graphviz version 2.38.0 (20140413.2041)
 -->
<!-- Title: comm_dot Pages: 1 -->
<svg width="430pt" height="66pt"
 viewBox="0.00 0.00 430.00 66.00" xmlns="http://www.w3.org/2000/svg" xmlns:xlink="http://www.w3.org/1999/xlink">
<g id="graph0" class="graph" transform="scale(1 1) rotate(0) translate(4 62)">
<title>comm_dot</title>
<polygon fill="white" stroke="none" points="-4,4 -4,-62 426,-62 426,4 -4,4"/>
<!-- Node1 -->
<g id="node1" class="node"><title>Node1</title>
<polygon fill="#bfbfbf" stroke="black" points="0,-19.5 0,-38.5 65,-38.5 65,-19.5 0,-19.5"/>
<text text-anchor="middle" x="32.5" y="-26.5" font-family="Helvetica,sans-Serif" font-size="10.00">comm_dot</text>
</g>
<!-- Node2 -->
<g id="node2" class="node"><title>Node2</title>
<g id="a_node2"><a xlink:href="comm_8c.html#ad4bf12272401275660a2becfb36088ea" target="_top" xlink:title="comm_allreduce">
<polygon fill="white" stroke="black" points="101,-19.5 101,-38.5 194,-38.5 194,-19.5 101,-19.5"/>
<text text-anchor="middle" x="147.5" y="-26.5" font-family="Helvetica,sans-Serif" font-size="10.00">comm_allreduce</text>
</a>
</g>
</g>
<!-- Node1&#45;&gt;Node2 -->
<g id="edge1" class="edge"><title>Node1&#45;&gt;Node2</title>
<path fill="none" stroke="midnightblue" d="M65.2775,-29C73.1599,-29 81.8419,-29 90.5081,-29"/>
<polygon fill="midnightblue" stroke="midnightblue" points="90.6252,-32.5001 100.625,-29 90.6251,-25.5001 90.6252,-32.5001"/>
</g>
<!-- Node3 -->
<g id="node3" class="node"><title>Node3</title>
<g id="a_node3"><a xlink:href="comm_8c.html#ae9e39c9ae471f5a2723956dfa7cb95e4" target="_top" xlink:title="allreduce_imp">
<polygon fill="white" stroke="black" points="230,-19.5 230,-38.5 312,-38.5 312,-19.5 230,-19.5"/>
<text text-anchor="middle" x="271" y="-26.5" font-family="Helvetica,sans-Serif" font-size="10.00">allreduce_imp</text>
</a>
</g>
</g>
<!-- Node2&#45;&gt;Node3 -->
<g id="edge2" class="edge"><title>Node2&#45;&gt;Node3</title>
<path fill="none" stroke="midnightblue" d="M194.088,-29C202.417,-29 211.153,-29 219.613,-29"/>
<polygon fill="midnightblue" stroke="midnightblue" points="219.749,-32.5001 229.749,-29 219.749,-25.5001 219.749,-32.5001"/>
</g>
<!-- Node4 -->
<g id="node4" class="node"><title>Node4</title>
<g id="a_node4"><a xlink:href="comm_8h.html#a61f3037ecf23cd5609e3eac2ce0e1b01" target="_top" xlink:title="comm_recv">
<polygon fill="white" stroke="black" points="349.5,-38.5 349.5,-57.5 420.5,-57.5 420.5,-38.5 349.5,-38.5"/>
<text text-anchor="middle" x="385" y="-45.5" font-family="Helvetica,sans-Serif" font-size="10.00">comm_recv</text>
</a>
</g>
</g>
<!-- Node3&#45;&gt;Node4 -->
<g id="edge3" class="edge"><title>Node3&#45;&gt;Node4</title>
<path fill="none" stroke="midnightblue" d="M312.118,-35.8058C320.966,-37.3067 330.389,-38.9054 339.402,-40.4343"/>
<polygon fill="midnightblue" stroke="midnightblue" points="338.905,-43.8999 349.35,-42.1218 340.076,-36.9985 338.905,-43.8999"/>
</g>
<!-- Node5 -->
<g id="node5" class="node"><title>Node5</title>
<g id="a_node5"><a xlink:href="comm_8h.html#aadc6a8cdf4984083417952ebfbc0ee00" target="_top" xlink:title="comm_send">
<polygon fill="white" stroke="black" points="348,-0.5 348,-19.5 422,-19.5 422,-0.5 348,-0.5"/>
<text text-anchor="middle" x="385" y="-7.5" font-family="Helvetica,sans-Serif" font-size="10.00">comm_send</text>
</a>
</g>
</g>
<!-- Node3&#45;&gt;Node5 -->
<g id="edge4" class="edge"><title>Node3&#45;&gt;Node5</title>
<path fill="none" stroke="midnightblue" d="M312.118,-22.1942C320.51,-20.7707 329.419,-19.2592 338.005,-17.8027"/>
<polygon fill="midnightblue" stroke="midnightblue" points="338.611,-21.2501 347.884,-16.1267 337.44,-14.3487 338.611,-21.2501"/>
</g>
</g>
</svg>
