<?xml version="1.0" encoding="UTF-8" standalone="no"?>
<!DOCTYPE svg PUBLIC "-//W3C//DTD SVG 1.1//EN"
 "http://www.w3.org/Graphics/SVG/1.1/DTD/svg11.dtd">
<!-- Generated by graphviz version 2.38.0 (20140413.2041)
 -->
<!-- Title: comm_init Pages: 1 -->
<svg width="212pt" height="66pt"
 viewBox="0.00 0.00 212.00 66.00" xmlns="http://www.w3.org/2000/svg" xmlns:xlink="http://www.w3.org/1999/xlink">
<g id="graph0" class="graph" transform="scale(1 1) rotate(0) translate(4 62)">
<title>comm_init</title>
<polygon fill="white" stroke="none" points="-4,4 -4,-62 208,-62 208,4 -4,4"/>
<!-- Node1 -->
<g id="node1" class="node"><title>Node1</title>
<polygon fill="#bfbfbf" stroke="black" points="0,-19.5 0,-38.5 64,-38.5 64,-19.5 0,-19.5"/>
<text text-anchor="middle" x="32" y="-26.5" font-family="Helvetica,sans-Serif" font-size="10.00">comm_init</text>
</g>
<!-- Node2 -->
<g id="node2" class="node"><title>Node2</title>
<g id="a_node2"><a xlink:href="comm_8h.html#ad084ff77d7d8a47335cfbb02804844b7" target="_top" xlink:title="comm_init_check_">
<polygon fill="white" stroke="black" points="100,-38.5 100,-57.5 204,-57.5 204,-38.5 100,-38.5"/>
<text text-anchor="middle" x="152" y="-45.5" font-family="Helvetica,sans-Serif" font-size="10.00">comm_init_check_</text>
</a>
</g>
</g>
<!-- Node1&#45;&gt;Node2 -->
<g id="edge1" class="edge"><title>Node1&#45;&gt;Node2</title>
<path fill="none" stroke="midnightblue" d="M74.1193,-35.6209C82.3666,-36.9489 91.1287,-38.3597 99.6725,-39.7354"/>
<polygon fill="midnightblue" stroke="midnightblue" points="74.4324,-32.1263 64.0031,-33.992 73.3195,-39.0373 74.4324,-32.1263"/>
</g>
<!-- Node3 -->
<g id="node3" class="node"><title>Node3</title>
<g id="a_node3"><a xlink:href="comm__test_8c.html#a8be6e60ea81f191308e3638d3b2f6fe0" target="_top" xlink:title="main">
<polygon fill="white" stroke="black" points="132.5,-0.5 132.5,-19.5 171.5,-19.5 171.5,-0.5 132.5,-0.5"/>
<text text-anchor="middle" x="152" y="-7.5" font-family="Helvetica,sans-Serif" font-size="10.00">main</text>
</a>
</g>
</g>
<!-- Node1&#45;&gt;Node3 -->
<g id="edge2" class="edge"><title>Node1&#45;&gt;Node3</title>
<path fill="none" stroke="midnightblue" d="M74.054,-22.3896C93.8995,-19.1942 116.739,-15.5166 132.347,-13.0034"/>
<polygon fill="midnightblue" stroke="midnightblue" points="73.3195,-18.9627 64.0031,-24.008 74.4324,-25.8737 73.3195,-18.9627"/>
</g>
</g>
</svg>
