<?xml version="1.0" encoding="UTF-8" standalone="no"?>
<!DOCTYPE svg PUBLIC "-//W3C//DTD SVG 1.1//EN"
 "http://www.w3.org/Graphics/SVG/1.1/DTD/svg11.dtd">
<!-- Generated by graphviz version 2.38.0 (20140413.2041)
 -->
<!-- Title: scan_imp Pages: 1 -->
<svg width="639pt" height="85pt"
 viewBox="0.00 0.00 639.00 85.00" xmlns="http://www.w3.org/2000/svg" xmlns:xlink="http://www.w3.org/1999/xlink">
<g id="graph0" class="graph" transform="scale(1 1) rotate(0) translate(4 81)">
<title>scan_imp</title>
<polygon fill="white" stroke="none" points="-4,4 -4,-81 635,-81 635,4 -4,4"/>
<!-- Node1 -->
<g id="node1" class="node"><title>Node1</title>
<polygon fill="#bfbfbf" stroke="black" points="0,-38.5 0,-57.5 62,-57.5 62,-38.5 0,-38.5"/>
<text text-anchor="middle" x="31" y="-45.5" font-family="Helvetica,sans-Serif" font-size="10.00">scan_imp</text>
</g>
<!-- Node2 -->
<g id="node2" class="node"><title>Node2</title>
<g id="a_node2"><a xlink:href="comm_8c.html#a5186f9cdb78dddc7b2d4f8f5498006dc" target="_top" xlink:title="comm_scan">
<polygon fill="white" stroke="black" points="98,-38.5 98,-57.5 171,-57.5 171,-38.5 98,-38.5"/>
<text text-anchor="middle" x="134.5" y="-45.5" font-family="Helvetica,sans-Serif" font-size="10.00">comm_scan</text>
</a>
</g>
</g>
<!-- Node1&#45;&gt;Node2 -->
<g id="edge1" class="edge"><title>Node1&#45;&gt;Node2</title>
<path fill="none" stroke="midnightblue" d="M72.2456,-48C80.7202,-48 89.6034,-48 97.8933,-48"/>
<polygon fill="midnightblue" stroke="midnightblue" points="72.1786,-44.5001 62.1785,-48 72.1785,-51.5001 72.1786,-44.5001"/>
</g>
<!-- Node3 -->
<g id="node3" class="node"><title>Node3</title>
<g id="a_node3"><a xlink:href="comm__test_8c.html#a8be6e60ea81f191308e3638d3b2f6fe0" target="_top" xlink:title="main">
<polygon fill="white" stroke="black" points="222,-57.5 222,-76.5 261,-76.5 261,-57.5 222,-57.5"/>
<text text-anchor="middle" x="241.5" y="-64.5" font-family="Helvetica,sans-Serif" font-size="10.00">main</text>
</a>
</g>
</g>
<!-- Node2&#45;&gt;Node3 -->
<g id="edge2" class="edge"><title>Node2&#45;&gt;Node3</title>
<path fill="none" stroke="midnightblue" d="M181.261,-56.2806C195.536,-58.8636 210.486,-61.5689 221.796,-63.6155"/>
<polygon fill="midnightblue" stroke="midnightblue" points="181.512,-52.7692 171.048,-54.4325 180.265,-59.6573 181.512,-52.7692"/>
</g>
<!-- Node4 -->
<g id="node4" class="node"><title>Node4</title>
<g id="a_node4"><a xlink:href="gs_8c.html#a86327985e39f3c419725ded66ac5ab90" target="_top" xlink:title="shared_ids">
<polygon fill="white" stroke="black" points="207,-19.5 207,-38.5 276,-38.5 276,-19.5 207,-19.5"/>
<text text-anchor="middle" x="241.5" y="-26.5" font-family="Helvetica,sans-Serif" font-size="10.00">shared_ids</text>
</a>
</g>
</g>
<!-- Node2&#45;&gt;Node4 -->
<g id="edge3" class="edge"><title>Node2&#45;&gt;Node4</title>
<path fill="none" stroke="midnightblue" d="M181.02,-39.7631C189.664,-38.1989 198.565,-36.5883 206.763,-35.1048"/>
<polygon fill="midnightblue" stroke="midnightblue" points="180.265,-36.3427 171.048,-41.5675 181.512,-43.2308 180.265,-36.3427"/>
</g>
<!-- Node5 -->
<g id="node5" class="node"><title>Node5</title>
<g id="a_node5"><a xlink:href="gs_8c.html#acfd245293a8345bc0f7d6951e42d57cd" target="_top" xlink:title="get_topology">
<polygon fill="white" stroke="black" points="312,-19.5 312,-38.5 390,-38.5 390,-19.5 312,-19.5"/>
<text text-anchor="middle" x="351" y="-26.5" font-family="Helvetica,sans-Serif" font-size="10.00">get_topology</text>
</a>
</g>
</g>
<!-- Node4&#45;&gt;Node5 -->
<g id="edge4" class="edge"><title>Node4&#45;&gt;Node5</title>
<path fill="none" stroke="midnightblue" d="M286.332,-29C294.81,-29 303.629,-29 311.906,-29"/>
<polygon fill="midnightblue" stroke="midnightblue" points="286.219,-25.5001 276.219,-29 286.219,-32.5001 286.219,-25.5001"/>
</g>
<!-- Node6 -->
<g id="node6" class="node"><title>Node6</title>
<g id="a_node6"><a xlink:href="gs_8c.html#a00292c49272fb485aaebf8c621982ad3" target="_top" xlink:title="gs_setup_aux">
<polygon fill="white" stroke="black" points="426,-38.5 426,-57.5 508,-57.5 508,-38.5 426,-38.5"/>
<text text-anchor="middle" x="467" y="-45.5" font-family="Helvetica,sans-Serif" font-size="10.00">gs_setup_aux</text>
</a>
</g>
</g>
<!-- Node5&#45;&gt;Node6 -->
<g id="edge5" class="edge"><title>Node5&#45;&gt;Node6</title>
<path fill="none" stroke="midnightblue" d="M400.38,-37.0633C408.808,-38.4681 417.494,-39.9157 425.678,-41.2796"/>
<polygon fill="midnightblue" stroke="midnightblue" points="400.717,-33.5713 390.277,-35.3796 399.566,-40.476 400.717,-33.5713"/>
</g>
<!-- Node9 -->
<g id="node9" class="node"><title>Node9</title>
<g id="a_node9"><a xlink:href="gs_8h.html#a6f3cc4b661b2d2292b128e28a6be1d10" target="_top" xlink:title="gs_unique">
<polygon fill="white" stroke="black" points="434.5,-0.5 434.5,-19.5 499.5,-19.5 499.5,-0.5 434.5,-0.5"/>
<text text-anchor="middle" x="467" y="-7.5" font-family="Helvetica,sans-Serif" font-size="10.00">gs_unique</text>
</a>
</g>
</g>
<!-- Node5&#45;&gt;Node9 -->
<g id="edge8" class="edge"><title>Node5&#45;&gt;Node9</title>
<path fill="none" stroke="midnightblue" d="M400.263,-20.9562C411.826,-19.029 423.88,-17.02 434.461,-15.2565"/>
<polygon fill="midnightblue" stroke="midnightblue" points="399.566,-17.524 390.277,-22.6204 400.717,-24.4287 399.566,-17.524"/>
</g>
<!-- Node7 -->
<g id="node7" class="node"><title>Node7</title>
<g id="a_node7"><a xlink:href="gs_8h.html#a8e2276986935df404e15f3121f00a601" target="_top" xlink:title="gs_setup">
<polygon fill="white" stroke="black" points="558,-57.5 558,-76.5 617,-76.5 617,-57.5 558,-57.5"/>
<text text-anchor="middle" x="587.5" y="-64.5" font-family="Helvetica,sans-Serif" font-size="10.00">gs_setup</text>
</a>
</g>
</g>
<!-- Node6&#45;&gt;Node7 -->
<g id="edge6" class="edge"><title>Node6&#45;&gt;Node7</title>
<path fill="none" stroke="midnightblue" d="M518.239,-56.0552C531.697,-58.2131 545.791,-60.4728 557.654,-62.3749"/>
<polygon fill="midnightblue" stroke="midnightblue" points="518.547,-52.5599 508.119,-54.4325 517.438,-59.4716 518.547,-52.5599"/>
</g>
<!-- Node8 -->
<g id="node8" class="node"><title>Node8</title>
<g id="a_node8"><a xlink:href="gs_8c.html#adff6aa371c7d8e16a6d5ec17697dd637" target="_top" xlink:title="fgs_setup_pick">
<polygon fill="white" stroke="black" points="544,-19.5 544,-38.5 631,-38.5 631,-19.5 544,-19.5"/>
<text text-anchor="middle" x="587.5" y="-26.5" font-family="Helvetica,sans-Serif" font-size="10.00">fgs_setup_pick</text>
</a>
</g>
</g>
<!-- Node6&#45;&gt;Node8 -->
<g id="edge7" class="edge"><title>Node6&#45;&gt;Node8</title>
<path fill="none" stroke="midnightblue" d="M518.076,-39.971C526.7,-38.5882 535.59,-37.1628 543.991,-35.8158"/>
<polygon fill="midnightblue" stroke="midnightblue" points="517.438,-36.5284 508.119,-41.5675 518.547,-43.4401 517.438,-36.5284"/>
</g>
</g>
</svg>
