<?xml version="1.0" encoding="UTF-8" standalone="no"?>
<!DOCTYPE svg PUBLIC "-//W3C//DTD SVG 1.1//EN"
 "http://www.w3.org/Graphics/SVG/1.1/DTD/svg11.dtd">
<!-- Generated by graphviz version 2.38.0 (20140413.2041)
 -->
<!-- Title: comm_free Pages: 1 -->
<svg width="185pt" height="180pt"
 viewBox="0.00 0.00 185.00 180.00" xmlns="http://www.w3.org/2000/svg" xmlns:xlink="http://www.w3.org/1999/xlink">
<g id="graph0" class="graph" transform="scale(1 1) rotate(0) translate(4 176)">
<title>comm_free</title>
<polygon fill="white" stroke="none" points="-4,4 -4,-176 181,-176 181,4 -4,4"/>
<!-- Node1 -->
<g id="node1" class="node"><title>Node1</title>
<polygon fill="#bfbfbf" stroke="black" points="0,-76.5 0,-95.5 69,-95.5 69,-76.5 0,-76.5"/>
<text text-anchor="middle" x="34.5" y="-83.5" font-family="Helvetica,sans-Serif" font-size="10.00">comm_free</text>
</g>
<!-- Node2 -->
<g id="node2" class="node"><title>Node2</title>
<g id="a_node2"><a xlink:href="xxt_8c.html#afd5f2fc3d95402f52361cb67924f723f" target="_top" xlink:title="crs_free">
<polygon fill="white" stroke="black" points="113,-152.5 113,-171.5 169,-171.5 169,-152.5 113,-152.5"/>
<text text-anchor="middle" x="141" y="-159.5" font-family="Helvetica,sans-Serif" font-size="10.00">crs_free</text>
</a>
</g>
</g>
<!-- Node1&#45;&gt;Node2 -->
<g id="edge1" class="edge"><title>Node1&#45;&gt;Node2</title>
<path fill="none" stroke="midnightblue" d="M53.5076,-102.375C67.1214,-114.348 86.5567,-130.594 105,-143 109.934,-146.319 115.503,-149.552 120.723,-152.382"/>
<polygon fill="midnightblue" stroke="midnightblue" points="55.6383,-99.5856 45.8442,-95.5449 50.9808,-104.811 55.6383,-99.5856"/>
</g>
<!-- Node3 -->
<g id="node3" class="node"><title>Node3</title>
<g id="a_node3"><a xlink:href="crystal_8h.html#accdfb0942f053f9a6d435aa29aaff960" target="_top" xlink:title="crystal_free">
<polygon fill="white" stroke="black" points="105,-114.5 105,-133.5 177,-133.5 177,-114.5 105,-114.5"/>
<text text-anchor="middle" x="141" y="-121.5" font-family="Helvetica,sans-Serif" font-size="10.00">crystal_free</text>
</a>
</g>
</g>
<!-- Node1&#45;&gt;Node3 -->
<g id="edge2" class="edge"><title>Node1&#45;&gt;Node3</title>
<path fill="none" stroke="midnightblue" d="M71.5745,-99.118C85.3959,-104.144 100.893,-109.779 113.639,-114.414"/>
<polygon fill="midnightblue" stroke="midnightblue" points="72.4638,-95.7172 61.8698,-95.589 70.0716,-102.296 72.4638,-95.7172"/>
</g>
<!-- Node4 -->
<g id="node4" class="node"><title>Node4</title>
<g id="a_node4"><a xlink:href="fcrs_8c.html#aa1a5a4dc1657f76e775e632f611eb5cd" target="_top" xlink:title="fcrs_setup">
<polygon fill="white" stroke="black" points="108.5,-76.5 108.5,-95.5 173.5,-95.5 173.5,-76.5 108.5,-76.5"/>
<text text-anchor="middle" x="141" y="-83.5" font-family="Helvetica,sans-Serif" font-size="10.00">fcrs_setup</text>
</a>
</g>
</g>
<!-- Node1&#45;&gt;Node4 -->
<g id="edge3" class="edge"><title>Node1&#45;&gt;Node4</title>
<path fill="none" stroke="midnightblue" d="M79.4072,-86C89.0704,-86 99.1245,-86 108.201,-86"/>
<polygon fill="midnightblue" stroke="midnightblue" points="79.1397,-82.5001 69.1397,-86 79.1396,-89.5001 79.1397,-82.5001"/>
</g>
<!-- Node5 -->
<g id="node5" class="node"><title>Node5</title>
<g id="a_node5"><a xlink:href="gs_8h.html#aa0bac0668bf3890a560db84d90bd8094" target="_top" xlink:title="gs_free">
<polygon fill="white" stroke="black" points="114.5,-38.5 114.5,-57.5 167.5,-57.5 167.5,-38.5 114.5,-38.5"/>
<text text-anchor="middle" x="141" y="-45.5" font-family="Helvetica,sans-Serif" font-size="10.00">gs_free</text>
</a>
</g>
</g>
<!-- Node1&#45;&gt;Node5 -->
<g id="edge4" class="edge"><title>Node1&#45;&gt;Node5</title>
<path fill="none" stroke="midnightblue" d="M71.3196,-72.9747C85.4669,-67.8302 101.403,-62.0351 114.361,-57.3232"/>
<polygon fill="midnightblue" stroke="midnightblue" points="70.0716,-69.7042 61.8698,-76.411 72.4638,-76.2828 70.0716,-69.7042"/>
</g>
<!-- Node6 -->
<g id="node6" class="node"><title>Node6</title>
<g id="a_node6"><a xlink:href="comm__test_8c.html#a8be6e60ea81f191308e3638d3b2f6fe0" target="_top" xlink:title="main">
<polygon fill="white" stroke="black" points="121.5,-0.5 121.5,-19.5 160.5,-19.5 160.5,-0.5 121.5,-0.5"/>
<text text-anchor="middle" x="141" y="-7.5" font-family="Helvetica,sans-Serif" font-size="10.00">main</text>
</a>
</g>
</g>
<!-- Node1&#45;&gt;Node6 -->
<g id="edge5" class="edge"><title>Node1&#45;&gt;Node6</title>
<path fill="none" stroke="midnightblue" d="M53.5076,-69.6251C67.1214,-57.6522 86.5567,-41.4056 105,-29 110.163,-25.527 116.022,-22.1477 121.449,-19.2253"/>
<polygon fill="midnightblue" stroke="midnightblue" points="50.9808,-67.1887 45.8442,-76.4551 55.6383,-72.4144 50.9808,-67.1887"/>
</g>
</g>
</svg>
