<?xml version="1.0" encoding="UTF-8" standalone="no"?>
<!DOCTYPE svg PUBLIC "-//W3C//DTD SVG 1.1//EN"
 "http://www.w3.org/Graphics/SVG/1.1/DTD/svg11.dtd">
<!-- Generated by graphviz version 2.38.0 (20140413.2041)
 -->
<!-- Title: igop Pages: 1 -->
<svg width="128pt" height="104pt"
 viewBox="0.00 0.00 128.00 104.00" xmlns="http://www.w3.org/2000/svg" xmlns:xlink="http://www.w3.org/1999/xlink">
<g id="graph0" class="graph" transform="scale(1 1) rotate(0) translate(4 100)">
<title>igop</title>
<polygon fill="white" stroke="none" points="-4,4 -4,-100 124,-100 124,4 -4,4"/>
<!-- Node1 -->
<g id="node1" class="node"><title>Node1</title>
<polygon fill="#bfbfbf" stroke="black" points="0,-38.5 0,-57.5 37,-57.5 37,-38.5 0,-38.5"/>
<text text-anchor="middle" x="18.5" y="-45.5" font-family="Helvetica,sans-Serif" font-size="10.00">igop</text>
</g>
<!-- Node2 -->
<g id="node2" class="node"><title>Node2</title>
<g id="a_node2"><a xlink:href="math_8F90.html#adb40643a7948d6fa7fdeda3a23650711" target="_top" xlink:title="iglmax">
<polygon fill="white" stroke="black" points="73,-76.5 73,-95.5 120,-95.5 120,-76.5 73,-76.5"/>
<text text-anchor="middle" x="96.5" y="-83.5" font-family="Helvetica,sans-Serif" font-size="10.00">iglmax</text>
</a>
</g>
</g>
<!-- Node1&#45;&gt;Node2 -->
<g id="edge1" class="edge"><title>Node1&#45;&gt;Node2</title>
<path fill="none" stroke="midnightblue" d="M46.2142,-61.3571C56.1597,-66.3299 67.2396,-71.8698 76.3711,-76.4355"/>
<polygon fill="midnightblue" stroke="midnightblue" points="47.6365,-58.1552 37.127,-56.8135 44.506,-64.4162 47.6365,-58.1552"/>
</g>
<!-- Node3 -->
<g id="node3" class="node"><title>Node3</title>
<g id="a_node3"><a xlink:href="math_8F90.html#a782f719aafc416faa270e640c0884ef9" target="_top" xlink:title="iglmin">
<polygon fill="white" stroke="black" points="74.5,-38.5 74.5,-57.5 118.5,-57.5 118.5,-38.5 74.5,-38.5"/>
<text text-anchor="middle" x="96.5" y="-45.5" font-family="Helvetica,sans-Serif" font-size="10.00">iglmin</text>
</a>
</g>
</g>
<!-- Node1&#45;&gt;Node3 -->
<g id="edge2" class="edge"><title>Node1&#45;&gt;Node3</title>
<path fill="none" stroke="midnightblue" d="M47.1771,-48C56.18,-48 66.0193,-48 74.4559,-48"/>
<polygon fill="midnightblue" stroke="midnightblue" points="47.127,-44.5001 37.127,-48 47.1269,-51.5001 47.127,-44.5001"/>
</g>
<!-- Node4 -->
<g id="node4" class="node"><title>Node4</title>
<g id="a_node4"><a xlink:href="math_8F90.html#a7daa773b548036efd58a923b85a00489" target="_top" xlink:title="iglsum">
<polygon fill="white" stroke="black" points="73.5,-0.5 73.5,-19.5 119.5,-19.5 119.5,-0.5 73.5,-0.5"/>
<text text-anchor="middle" x="96.5" y="-7.5" font-family="Helvetica,sans-Serif" font-size="10.00">iglsum</text>
</a>
</g>
</g>
<!-- Node1&#45;&gt;Node4 -->
<g id="edge3" class="edge"><title>Node1&#45;&gt;Node4</title>
<path fill="none" stroke="midnightblue" d="M46.2142,-34.6429C56.1597,-29.6701 67.2396,-24.1302 76.3711,-19.5645"/>
<polygon fill="midnightblue" stroke="midnightblue" points="44.506,-31.5838 37.127,-39.1865 47.6365,-37.8448 44.506,-31.5838"/>
</g>
</g>
</svg>
