<?xml version="1.0" encoding="UTF-8" standalone="no"?>
<!DOCTYPE svg PUBLIC "-//W3C//DTD SVG 1.1//EN"
 "http://www.w3.org/Graphics/SVG/1.1/DTD/svg11.dtd">
<!-- Generated by graphviz version 2.38.0 (20140413.2041)
 -->
<!-- Title: lbcast Pages: 1 -->
<svg width="229pt" height="28pt"
 viewBox="0.00 0.00 229.00 28.00" xmlns="http://www.w3.org/2000/svg" xmlns:xlink="http://www.w3.org/1999/xlink">
<g id="graph0" class="graph" transform="scale(1 1) rotate(0) translate(4 24)">
<title>lbcast</title>
<polygon fill="white" stroke="none" points="-4,4 -4,-24 225,-24 225,4 -4,4"/>
<!-- Node1 -->
<g id="node1" class="node"><title>Node1</title>
<polygon fill="#bfbfbf" stroke="black" points="0,-0.5 0,-19.5 44,-19.5 44,-0.5 0,-0.5"/>
<text text-anchor="middle" x="22" y="-7.5" font-family="Helvetica,sans-Serif" font-size="10.00">lbcast</text>
</g>
<!-- Node2 -->
<g id="node2" class="node"><title>Node2</title>
<g id="a_node2"><a xlink:href="comm__mpi_8F90.html#ae425c1deb2e82d2007c97e1c4be990c8" target="_top" xlink:title="bcast">
<polygon fill="white" stroke="black" points="80,-0.5 80,-19.5 121,-19.5 121,-0.5 80,-0.5"/>
<text text-anchor="middle" x="100.5" y="-7.5" font-family="Helvetica,sans-Serif" font-size="10.00">bcast</text>
</a>
</g>
</g>
<!-- Node1&#45;&gt;Node2 -->
<g id="edge1" class="edge"><title>Node1&#45;&gt;Node2</title>
<path fill="none" stroke="midnightblue" d="M44.3095,-10C52.143,-10 61.1645,-10 69.6135,-10"/>
<polygon fill="midnightblue" stroke="midnightblue" points="69.877,-13.5001 79.877,-10 69.8769,-6.5001 69.877,-13.5001"/>
</g>
<!-- Node3 -->
<g id="node3" class="node"><title>Node3</title>
<g id="a_node3"><a xlink:href="mpi__dummy_8F90.html#ae0bd4baaea848988f45664ce0de33350" target="_top" xlink:title="mpi_bcast">
<polygon fill="white" stroke="black" points="157,-0.5 157,-19.5 221,-19.5 221,-0.5 157,-0.5"/>
<text text-anchor="middle" x="189" y="-7.5" font-family="Helvetica,sans-Serif" font-size="10.00">mpi_bcast</text>
</a>
</g>
</g>
<!-- Node2&#45;&gt;Node3 -->
<g id="edge2" class="edge"><title>Node2&#45;&gt;Node3</title>
<path fill="none" stroke="midnightblue" d="M121.128,-10C128.806,-10 137.917,-10 146.903,-10"/>
<polygon fill="midnightblue" stroke="midnightblue" points="146.913,-13.5001 156.913,-10 146.913,-6.5001 146.913,-13.5001"/>
</g>
</g>
</svg>
