<?xml version="1.0" encoding="UTF-8" standalone="no"?>
<!DOCTYPE svg PUBLIC "-//W3C//DTD SVG 1.1//EN"
 "http://www.w3.org/Graphics/SVG/1.1/DTD/svg11.dtd">
<!-- Generated by graphviz version 2.38.0 (20140413.2041)
 -->
<!-- Title: crecv Pages: 1 -->
<!--zoomable 560 -->
<svg id="main" version="1.1" xmlns="http://www.w3.org/2000/svg" xmlns:xlink="http://www.w3.org/1999/xlink" xml:space="preserve" onload="init(evt)">
<style type="text/css"><![CDATA[
.edge:hover path { stroke: red; }
.edge:hover polygon { stroke: red; fill: red; }
]]></style>
<script type="text/javascript"><![CDATA[
var edges = document.getElementsByTagName('g');
if (edges && edges.length) {
  for (var i=0;i<edges.length;i++) {
    if (edges[i].id.substr(0,4)=='edge') {
      edges[i].setAttribute('class','edge');
    }
  }
}
]]></script>
        <defs>
                <circle id="rim" cx="0" cy="0" r="7"/>
                <circle id="rim2" cx="0" cy="0" r="3.5"/>
                <g id="zoomPlus">
                        <use xlink:href="#rim" fill="#404040">
                                <set attributeName="fill" to="#808080" begin="zoomplus.mouseover" end="zoomplus.mouseout"/>
                        </use>
                        <path d="M-4,0h8M0,-4v8" fill="none" stroke="white" stroke-width="1.5" pointer-events="none"/>
                </g>
                <g id="zoomMin">
                        <use xlink:href="#rim" fill="#404040">
                                <set attributeName="fill" to="#808080" begin="zoomminus.mouseover" end="zoomminus.mouseout"/>
                        </use>
                        <path d="M-4,0h8" fill="none" stroke="white" stroke-width="1.5" pointer-events="none"/>
                </g>
                <g id="dirArrow">
                        <path fill="none" stroke="white" stroke-width="1.5" d="M0,-3.0v7 M-2.5,-0.5L0,-3.0L2.5,-0.5"/>
                </g>
               <g id="resetDef">
                       <use xlink:href="#rim2" fill="#404040">
                               <set attributeName="fill" to="#808080" begin="reset.mouseover" end="reset.mouseout"/>
                       </use>
               </g>
        </defs>

<script type="text/javascript">
var viewWidth = 1488;
var viewHeight = 560;
var sectionId = 'dynsection-3';
</script>
<script xlink:href="svgpan.js"/>
<svg id="graph" class="graph">
<g id="viewport">
<title>crecv</title>
<polygon fill="white" stroke="none" points="-4,4 -4,-556 1484,-556 1484,4 -4,4"/>
<!-- Node1 -->
<g id="node1" class="node"><title>Node1</title>
<polygon fill="#bfbfbf" stroke="black" points="0,-266.5 0,-285.5 42,-285.5 42,-266.5 0,-266.5"/>
<text text-anchor="middle" x="21" y="-273.5" font-family="Helvetica,sans-Serif" font-size="10.00">crecv</text>
</g>
<!-- Node2 -->
<g id="node2" class="node"><title>Node2</title>
<g id="a_node2"><a xlink:href="ic_8F90.html#a46a0ff5dd0a6f10aa39215385ba21288" target="_top" xlink:title="mapdmp">
<polygon fill="white" stroke="black" points="106.5,-304.5 106.5,-323.5 163.5,-323.5 163.5,-304.5 106.5,-304.5"/>
<text text-anchor="middle" x="135" y="-311.5" font-family="Helvetica,sans-Serif" font-size="10.00">mapdmp</text>
</a>
</g>
</g>
<!-- Node1&#45;&gt;Node2 -->
<g id="edge1" class="edge"><title>Node1&#45;&gt;Node2</title>
<path fill="none" stroke="midnightblue" d="M51.9127,-286.149C68.7589,-291.865 89.6612,-298.956 106.157,-304.553"/>
<polygon fill="midnightblue" stroke="midnightblue" points="52.6177,-282.692 42.0234,-282.794 50.3686,-289.321 52.6177,-282.692"/>
</g>
<!-- Node7 -->
<g id="node7" class="node"><title>Node7</title>
<g id="a_node7"><a xlink:href="map2_8F90.html#a0a8afb6d7507567621f35bbc8ba36e2c" target="_top" xlink:title="mapelpr">
<polygon fill="white" stroke="black" points="426.5,-447.5 426.5,-466.5 481.5,-466.5 481.5,-447.5 426.5,-447.5"/>
<text text-anchor="middle" x="454" y="-454.5" font-family="Helvetica,sans-Serif" font-size="10.00">mapelpr</text>
</a>
</g>
</g>
<!-- Node1&#45;&gt;Node7 -->
<g id="edge6" class="edge"><title>Node1&#45;&gt;Node7</title>
<path fill="none" stroke="midnightblue" d="M21.7315,-295.926C22.4447,-332.789 29.8776,-411.134 78,-447 132.83,-487.865 350.047,-468.415 426.339,-460.106"/>
<polygon fill="midnightblue" stroke="midnightblue" points="25.2315,-295.895 21.6883,-285.911 18.2316,-295.926 25.2315,-295.895"/>
</g>
<!-- Node9 -->
<g id="node9" class="node"><title>Node9</title>
<g id="a_node9"><a xlink:href="prepost_8F90.html#a11cc22eaaef2974cda6a66817880cc13" target="_top" xlink:title="mfo_mdatas">
<polygon fill="white" stroke="black" points="98,-76.5 98,-95.5 172,-95.5 172,-76.5 98,-76.5"/>
<text text-anchor="middle" x="135" y="-83.5" font-family="Helvetica,sans-Serif" font-size="10.00">mfo_mdatas</text>
</a>
</g>
</g>
<!-- Node1&#45;&gt;Node9 -->
<g id="edge9" class="edge"><title>Node1&#45;&gt;Node9</title>
<path fill="none" stroke="midnightblue" d="M22.9415,-255.936C25.6757,-220.616 36.3483,-147.096 78,-105 83.4157,-99.5265 90.4646,-95.6293 97.725,-92.8547"/>
<polygon fill="midnightblue" stroke="midnightblue" points="19.4212,-256.149 22.2853,-266.35 26.4073,-256.59 19.4212,-256.149"/>
</g>
<!-- Node11 -->
<g id="node11" class="node"><title>Node11</title>
<g id="a_node11"><a xlink:href="prepost_8F90.html#a78b0361cf9ff06bfe5020c2114ddc924" target="_top" xlink:title="output .fld file ">
<polygon fill="white" stroke="black" points="332.5,-152.5 332.5,-171.5 374.5,-171.5 374.5,-152.5 332.5,-152.5"/>
<text text-anchor="middle" x="353.5" y="-159.5" font-family="Helvetica,sans-Serif" font-size="10.00">outfld</text>
</a>
</g>
</g>
<!-- Node1&#45;&gt;Node11 -->
<g id="edge50" class="edge"><title>Node1&#45;&gt;Node11</title>
<path fill="none" stroke="midnightblue" d="M24.2587,-256.292C30.1466,-208.811 47.6509,-90.2878 78,-67 165.618,0.232311 304.214,-117.089 342.446,-152.407"/>
<polygon fill="midnightblue" stroke="midnightblue" points="20.7794,-255.91 23.066,-266.256 27.7298,-256.743 20.7794,-255.91"/>
</g>
<!-- Node24 -->
<g id="node24" class="node"><title>Node24</title>
<g id="a_node24"><a xlink:href="prepost_8F90.html#a604e4beb6bdb81fa2e0633e1233bc1fe" target="_top" xlink:title="mfo_mdatav">
<polygon fill="white" stroke="black" points="98,-228.5 98,-247.5 172,-247.5 172,-228.5 98,-228.5"/>
<text text-anchor="middle" x="135" y="-235.5" font-family="Helvetica,sans-Serif" font-size="10.00">mfo_mdatav</text>
</a>
</g>
</g>
<!-- Node1&#45;&gt;Node24 -->
<g id="edge30" class="edge"><title>Node1&#45;&gt;Node24</title>
<path fill="none" stroke="midnightblue" d="M51.8389,-265.876C68.5546,-260.205 89.2817,-253.172 105.735,-247.59"/>
<polygon fill="midnightblue" stroke="midnightblue" points="50.3686,-262.679 42.0234,-269.206 52.6177,-269.308 50.3686,-262.679"/>
</g>
<!-- Node25 -->
<g id="node25" class="node"><title>Node25</title>
<g id="a_node25"><a xlink:href="prepost_8F90.html#a719f53cbe469f5bf99a53892de48af29" target="_top" xlink:title="output a scalar field ">
<polygon fill="white" stroke="black" points="105.5,-190.5 105.5,-209.5 164.5,-209.5 164.5,-190.5 105.5,-190.5"/>
<text text-anchor="middle" x="135" y="-197.5" font-family="Helvetica,sans-Serif" font-size="10.00">mfo_outs</text>
</a>
</g>
</g>
<!-- Node1&#45;&gt;Node25 -->
<g id="edge32" class="edge"><title>Node1&#45;&gt;Node25</title>
<path fill="none" stroke="midnightblue" d="M35.6374,-258.223C46.0473,-245.723 61.3903,-229.429 78,-219 86.26,-213.814 96.1013,-209.86 105.213,-206.938"/>
<polygon fill="midnightblue" stroke="midnightblue" points="32.8008,-256.166 29.2638,-266.153 38.2568,-260.551 32.8008,-256.166"/>
</g>
<!-- Node26 -->
<g id="node26" class="node"><title>Node26</title>
<g id="a_node26"><a xlink:href="prepost_8F90.html#a3f8a4c9fa971a0386d313d4c79e111f7" target="_top" xlink:title="output a vector field ">
<polygon fill="white" stroke="black" points="105.5,-152.5 105.5,-171.5 164.5,-171.5 164.5,-152.5 105.5,-152.5"/>
<text text-anchor="middle" x="135" y="-159.5" font-family="Helvetica,sans-Serif" font-size="10.00">mfo_outv</text>
</a>
</g>
</g>
<!-- Node1&#45;&gt;Node26 -->
<g id="edge34" class="edge"><title>Node1&#45;&gt;Node26</title>
<path fill="none" stroke="midnightblue" d="M28.6313,-256.78C36.9554,-235.376 53.2191,-201.147 78,-181 85.8067,-174.653 95.8429,-170.381 105.258,-167.526"/>
<polygon fill="midnightblue" stroke="midnightblue" points="25.2599,-255.807 25.0893,-266.4 31.8288,-258.225 25.2599,-255.807"/>
</g>
<!-- Node27 -->
<g id="node27" class="node"><title>Node27</title>
<g id="a_node27"><a xlink:href="classio.html#a3b8dab7279564c05e092b8194f166d8b" target="_top" xlink:title="Read header and return number of elements and word size. ">
<polygon fill="white" stroke="black" points="78,-380.5 78,-399.5 192,-399.5 192,-380.5 78,-380.5"/>
<text text-anchor="middle" x="135" y="-387.5" font-family="Helvetica,sans-Serif" font-size="10.00">io::mfo_read_header</text>
</a>
</g>
</g>
<!-- Node1&#45;&gt;Node27 -->
<g id="edge36" class="edge"><title>Node1&#45;&gt;Node27</title>
<path fill="none" stroke="midnightblue" d="M28.6313,-295.22C36.9554,-316.624 53.2191,-350.853 78,-371 82.7796,-374.886 88.395,-377.994 94.1917,-380.475"/>
<polygon fill="midnightblue" stroke="midnightblue" points="31.8288,-293.775 25.0893,-285.6 25.2599,-296.193 31.8288,-293.775"/>
</g>
<!-- Node29 -->
<g id="node29" class="node"><title>Node29</title>
<g id="a_node29"><a xlink:href="classio.html#a758050a046c3323706e227872dc0bddf" target="_top" xlink:title="Read a scalar field. ">
<polygon fill="white" stroke="black" points="80.5,-342.5 80.5,-361.5 189.5,-361.5 189.5,-342.5 80.5,-342.5"/>
<text text-anchor="middle" x="135" y="-349.5" font-family="Helvetica,sans-Serif" font-size="10.00">io::mfo_read_scalar</text>
</a>
</g>
</g>
<!-- Node1&#45;&gt;Node29 -->
<g id="edge39" class="edge"><title>Node1&#45;&gt;Node29</title>
<path fill="none" stroke="midnightblue" d="M35.6374,-293.777C46.0473,-306.277 61.3903,-322.571 78,-333 83.9994,-336.767 90.8329,-339.884 97.6152,-342.427"/>
<polygon fill="midnightblue" stroke="midnightblue" points="38.2568,-291.449 29.2638,-285.847 32.8008,-295.834 38.2568,-291.449"/>
</g>
<!-- Node30 -->
<g id="node30" class="node"><title>Node30</title>
<g id="a_node30"><a xlink:href="classio.html#a73b31838c25a62a2d22ccd660b5f26bb" target="_top" xlink:title="Read a vector field. ">
<polygon fill="white" stroke="black" points="80,-418.5 80,-437.5 190,-437.5 190,-418.5 80,-418.5"/>
<text text-anchor="middle" x="135" y="-425.5" font-family="Helvetica,sans-Serif" font-size="10.00">io::mfo_read_vector</text>
</a>
</g>
</g>
<!-- Node1&#45;&gt;Node30 -->
<g id="edge41" class="edge"><title>Node1&#45;&gt;Node30</title>
<path fill="none" stroke="midnightblue" d="M25.0593,-295.612C30.5626,-324.423 44.8147,-378.104 78,-409 82.1328,-412.848 87.0746,-415.919 92.287,-418.37"/>
<polygon fill="midnightblue" stroke="midnightblue" points="28.4732,-294.815 23.3064,-285.565 21.5773,-296.018 28.4732,-294.815"/>
</g>
<!-- Node31 -->
<g id="node31" class="node"><title>Node31</title>
<g id="a_node31"><a xlink:href="prepost_8F90.html#add41841b0b73cf28554519f93a59c688" target="_top" xlink:title="write hdr, byte key, els. ">
<polygon fill="white" stroke="black" points="93,-114.5 93,-133.5 177,-133.5 177,-114.5 93,-114.5"/>
<text text-anchor="middle" x="135" y="-121.5" font-family="Helvetica,sans-Serif" font-size="10.00">mfo_write_hdr</text>
</a>
</g>
</g>
<!-- Node1&#45;&gt;Node31 -->
<g id="edge43" class="edge"><title>Node1&#45;&gt;Node31</title>
<path fill="none" stroke="midnightblue" d="M25.0593,-256.388C30.5626,-227.577 44.8147,-173.896 78,-143 82.2831,-139.012 87.4351,-135.859 92.8567,-133.365"/>
<polygon fill="midnightblue" stroke="midnightblue" points="21.5773,-255.982 23.3064,-266.435 28.4732,-257.185 21.5773,-255.982"/>
</g>
<!-- Node32 -->
<g id="node32" class="node"><title>Node32</title>
<g id="a_node32"><a xlink:href="byte__mpi_8F90.html#a462fe2d9aa30417eddfb192c3b1f1ad4" target="_top" xlink:title="nek_comm_io">
<polygon fill="white" stroke="black" points="530,-532.5 530,-551.5 612,-551.5 612,-532.5 530,-532.5"/>
<text text-anchor="middle" x="571" y="-539.5" font-family="Helvetica,sans-Serif" font-size="10.00">nek_comm_io</text>
</a>
</g>
</g>
<!-- Node1&#45;&gt;Node32 -->
<g id="edge45" class="edge"><title>Node1&#45;&gt;Node32</title>
<path fill="none" stroke="midnightblue" d="M23.7174,-295.686C28.6932,-347.894 44.9161,-487.947 78,-518 138.229,-572.712 178.131,-542 259.5,-542 259.5,-542 259.5,-542 354.5,-542 415.671,-542 486.608,-542 529.885,-542"/>
<polygon fill="midnightblue" stroke="midnightblue" points="27.1995,-295.329 22.8016,-285.69 20.2287,-295.968 27.1995,-295.329"/>
</g>
<!-- Node34 -->
<g id="node34" class="node"><title>Node34</title>
<g id="a_node34"><a xlink:href="drive2_8F90.html#ae3e6cc31f5e6b6b2b5062d80ca77519f" target="_top" xlink:title="init opcounter ">
<polygon fill="white" stroke="black" points="830,-477.5 830,-496.5 884,-496.5 884,-477.5 830,-477.5"/>
<text text-anchor="middle" x="857" y="-484.5" font-family="Helvetica,sans-Serif" font-size="10.00">opcount</text>
</a>
</g>
</g>
<!-- Node1&#45;&gt;Node34 -->
<g id="edge48" class="edge"><title>Node1&#45;&gt;Node34</title>
<path fill="none" stroke="midnightblue" d="M21.1851,-295.777C20.7,-335.965 25.773,-427.309 78,-474 138.954,-528.493 177.739,-504 259.5,-504 259.5,-504 259.5,-504 674.5,-504 730.043,-504 794.732,-496.01 829.923,-490.986"/>
<polygon fill="midnightblue" stroke="midnightblue" points="24.6867,-295.756 21.443,-285.67 17.689,-295.578 24.6867,-295.756"/>
</g>
<!-- Node35 -->
<g id="node35" class="node"><title>Node35</title>
<g id="a_node35"><a xlink:href="prepost_8F90.html#aca7eb901ff58b9cec8124535b09c4dc3" target="_top" xlink:title="output time history info. ">
<polygon fill="white" stroke="black" points="331.5,-228.5 331.5,-247.5 375.5,-247.5 375.5,-228.5 331.5,-228.5"/>
<text text-anchor="middle" x="353.5" y="-235.5" font-family="Helvetica,sans-Serif" font-size="10.00">outhis</text>
</a>
</g>
</g>
<!-- Node1&#45;&gt;Node35 -->
<g id="edge51" class="edge"><title>Node1&#45;&gt;Node35</title>
<path fill="none" stroke="midnightblue" d="M52.3594,-272.667C86.3724,-268.92 143.149,-262.621 192,-257 242.036,-251.242 300.813,-244.218 331.473,-240.534"/>
<polygon fill="midnightblue" stroke="midnightblue" points="51.7121,-269.217 42.155,-273.79 52.4779,-276.175 51.7121,-269.217"/>
</g>
<!-- Node36 -->
<g id="node36" class="node"><title>Node36</title>
<g id="a_node36"><a xlink:href="drive2_8F90.html#a584c9fb49aa78285ef4b39ab8bb9014c" target="_top" xlink:title="pretty&#45;print from runstat ">
<polygon fill="white" stroke="black" points="230.5,-0.5 230.5,-19.5 290.5,-19.5 290.5,-0.5 230.5,-0.5"/>
<text text-anchor="middle" x="260.5" y="-7.5" font-family="Helvetica,sans-Serif" font-size="10.00">pprint_all</text>
</a>
</g>
</g>
<!-- Node1&#45;&gt;Node36 -->
<g id="edge53" class="edge"><title>Node1&#45;&gt;Node36</title>
<path fill="none" stroke="midnightblue" d="M23.7174,-256.314C28.6932,-204.106 44.9161,-64.0531 78,-34 119.643,3.82787 190.466,0.819913 230.212,-4.63891"/>
<polygon fill="midnightblue" stroke="midnightblue" points="20.2287,-256.032 22.8016,-266.31 27.1995,-256.671 20.2287,-256.032"/>
</g>
<!-- Node3 -->
<g id="node3" class="node"><title>Node3</title>
<g id="a_node3"><a xlink:href="ic_8F90.html#af64028aefb1dff2a9f8a84ff024f44b0" target="_top" xlink:title="driver for restarts (1) Open restart file(s) (2) Check previous spatial discretization (3) Map (K1...">
<polygon fill="white" stroke="black" points="414,-333.5 414,-352.5 494,-352.5 494,-333.5 414,-333.5"/>
<text text-anchor="middle" x="454" y="-340.5" font-family="Helvetica,sans-Serif" font-size="10.00">restart_driver</text>
</a>
</g>
</g>
<!-- Node2&#45;&gt;Node3 -->
<g id="edge2" class="edge"><title>Node2&#45;&gt;Node3</title>
<path fill="none" stroke="midnightblue" d="M173.834,-317.461C234.368,-322.999 352.407,-333.798 413.796,-339.414"/>
<polygon fill="midnightblue" stroke="midnightblue" points="173.854,-313.948 163.577,-316.523 173.217,-320.919 173.854,-313.948"/>
</g>
<!-- Node4 -->
<g id="node4" class="node"><title>Node4</title>
<g id="a_node4"><a xlink:href="ic_8F90.html#acaefa33e86633e4a7a4b28347d4620d1" target="_top" xlink:title="Set initial conditions. ">
<polygon fill="white" stroke="black" points="1065,-383.5 1065,-402.5 1109,-402.5 1109,-383.5 1065,-383.5"/>
<text text-anchor="middle" x="1087" y="-390.5" font-family="Helvetica,sans-Serif" font-size="10.00">setics</text>
</a>
</g>
</g>
<!-- Node3&#45;&gt;Node4 -->
<g id="edge3" class="edge"><title>Node3&#45;&gt;Node4</title>
<path fill="none" stroke="midnightblue" d="M504.421,-346.568C548.485,-349.44 614.759,-353 672.5,-353 672.5,-353 672.5,-353 858,-353 935.161,-353 1024.83,-375.5 1064.84,-386.75"/>
<polygon fill="midnightblue" stroke="midnightblue" points="504.477,-343.064 494.267,-345.892 504.013,-350.048 504.477,-343.064"/>
</g>
<!-- Node5 -->
<g id="node5" class="node"><title>Node5</title>
<g id="a_node5"><a xlink:href="drive1_8F90.html#a87bd37ae2c18426f28f35cc3f24e4355" target="_top" xlink:title="initialize nek ">
<polygon fill="white" stroke="black" points="1336,-364.5 1336,-383.5 1389,-383.5 1389,-364.5 1336,-364.5"/>
<text text-anchor="middle" x="1362.5" y="-371.5" font-family="Helvetica,sans-Serif" font-size="10.00">nek_init</text>
</a>
</g>
</g>
<!-- Node4&#45;&gt;Node5 -->
<g id="edge4" class="edge"><title>Node4&#45;&gt;Node5</title>
<path fill="none" stroke="midnightblue" d="M1119.1,-390.839C1173.58,-387.055 1285.23,-379.298 1335.71,-375.792"/>
<polygon fill="midnightblue" stroke="midnightblue" points="1118.74,-387.356 1109.01,-391.541 1119.23,-394.339 1118.74,-387.356"/>
</g>
<!-- Node6 -->
<g id="node6" class="node"><title>Node6</title>
<g id="a_node6"><a xlink:href="drive_8F90.html#a13048bf28dd0734640412d69349e3857" target="_top" xlink:title="NEK5000: Spectral Element Computational Fluid Dynamics Solver COPYRIGHT (c) 2008&#45;2010 UCHICAGO ARGONN...">
<polygon fill="white" stroke="black" points="1431,-200.5 1431,-219.5 1480,-219.5 1480,-200.5 1431,-200.5"/>
<text text-anchor="middle" x="1455.5" y="-207.5" font-family="Helvetica,sans-Serif" font-size="10.00">nekton</text>
</a>
</g>
</g>
<!-- Node5&#45;&gt;Node6 -->
<g id="edge5" class="edge"><title>Node5&#45;&gt;Node6</title>
<path fill="none" stroke="midnightblue" d="M1374.02,-355.046C1393.52,-319.902 1434.63,-245.814 1449.22,-219.511"/>
<polygon fill="midnightblue" stroke="midnightblue" points="1370.71,-353.79 1368.92,-364.232 1376.83,-357.186 1370.71,-353.79"/>
</g>
<!-- Node8 -->
<g id="node8" class="node"><title>Node8</title>
<g id="a_node8"><a xlink:href="connect2_8F90.html#a842357ad1d3581135ffacc57139397d2" target="_top" xlink:title="Read in data from preprocessor input file (.rea) ">
<polygon fill="white" stroke="black" points="650,-440.5 650,-459.5 697,-459.5 697,-440.5 650,-440.5"/>
<text text-anchor="middle" x="673.5" y="-447.5" font-family="Helvetica,sans-Serif" font-size="10.00">readat</text>
</a>
</g>
</g>
<!-- Node7&#45;&gt;Node8 -->
<g id="edge7" class="edge"><title>Node7&#45;&gt;Node8</title>
<path fill="none" stroke="midnightblue" d="M491.941,-455.811C537.199,-454.355 612.459,-451.932 649.903,-450.727"/>
<polygon fill="midnightblue" stroke="midnightblue" points="491.552,-452.322 481.67,-456.142 491.777,-459.318 491.552,-452.322"/>
</g>
<!-- Node8&#45;&gt;Node5 -->
<g id="edge8" class="edge"><title>Node8&#45;&gt;Node5</title>
<path fill="none" stroke="midnightblue" d="M707.064,-444.812C743.315,-439.495 803.692,-432 856,-432 856,-432 856,-432 1088,-432 1180.87,-432 1203.98,-419.827 1294,-397 1308.28,-393.379 1323.87,-388.154 1336.47,-383.6"/>
<polygon fill="midnightblue" stroke="midnightblue" points="706.435,-441.368 697.065,-446.314 707.474,-448.29 706.435,-441.368"/>
</g>
<!-- Node10 -->
<g id="node10" class="node"><title>Node10</title>
<g id="a_node10"><a xlink:href="prepost_8F90.html#a9872fbccba1ed7b2932227287629cf2b" target="_top" xlink:title="mult&#45;file output ">
<polygon fill="white" stroke="black" points="228,-152.5 228,-171.5 293,-171.5 293,-152.5 228,-152.5"/>
<text text-anchor="middle" x="260.5" y="-159.5" font-family="Helvetica,sans-Serif" font-size="10.00">mfo_outfld</text>
</a>
</g>
</g>
<!-- Node9&#45;&gt;Node10 -->
<g id="edge10" class="edge"><title>Node9&#45;&gt;Node10</title>
<path fill="none" stroke="midnightblue" d="M180.377,-99.3056C184.396,-101.03 188.329,-102.927 192,-105 215.237,-118.126 238.07,-139.741 250.313,-152.242"/>
<polygon fill="midnightblue" stroke="midnightblue" points="181.52,-95.9941 170.933,-95.5956 178.961,-102.509 181.52,-95.9941"/>
</g>
<!-- Node10&#45;&gt;Node11 -->
<g id="edge11" class="edge"><title>Node10&#45;&gt;Node11</title>
<path fill="none" stroke="midnightblue" d="M303.091,-162C313.275,-162 323.721,-162 332.37,-162"/>
<polygon fill="midnightblue" stroke="midnightblue" points="303.072,-158.5 293.072,-162 303.072,-165.5 303.072,-158.5"/>
</g>
<!-- Node12 -->
<g id="node12" class="node"><title>Node12</title>
<g id="a_node12"><a xlink:href="prepost_8F90.html#a4a3b0e4ce35b3381281c0839e5846370" target="_top" xlink:title="Store results for later postprocessing. Recent updates: p65 now indicates the number of parallel i/o ...">
<polygon fill="white" stroke="black" points="427.5,-191.5 427.5,-210.5 480.5,-210.5 480.5,-191.5 427.5,-191.5"/>
<text text-anchor="middle" x="454" y="-198.5" font-family="Helvetica,sans-Serif" font-size="10.00">prepost</text>
</a>
</g>
</g>
<!-- Node11&#45;&gt;Node12 -->
<g id="edge12" class="edge"><title>Node11&#45;&gt;Node12</title>
<path fill="none" stroke="midnightblue" d="M384.281,-173.792C398.523,-179.43 415.352,-186.094 428.792,-191.415"/>
<polygon fill="midnightblue" stroke="midnightblue" points="385.495,-170.508 374.909,-170.081 382.919,-177.016 385.495,-170.508"/>
</g>
<!-- Node13 -->
<g id="node13" class="node"><title>Node13</title>
<g id="a_node13"><a xlink:href="drive1_8F90.html#a6ad57e0cf728f343e371ef8c9a02cd8a" target="_top" xlink:title="integrate the governing equations in time ">
<polygon fill="white" stroke="black" points="1330,-200.5 1330,-219.5 1395,-219.5 1395,-200.5 1330,-200.5"/>
<text text-anchor="middle" x="1362.5" y="-207.5" font-family="Helvetica,sans-Serif" font-size="10.00">nek_solve</text>
</a>
</g>
</g>
<!-- Node12&#45;&gt;Node13 -->
<g id="edge13" class="edge"><title>Node12&#45;&gt;Node13</title>
<path fill="none" stroke="midnightblue" d="M490.753,-198.348C533.832,-195.385 608.42,-191 672.5,-191 672.5,-191 672.5,-191 1088,-191 1175.82,-191 1279.11,-200.869 1329.96,-206.382"/>
<polygon fill="midnightblue" stroke="midnightblue" points="490.493,-194.857 480.763,-199.048 490.983,-201.84 490.493,-194.857"/>
</g>
<!-- Node14 -->
<g id="node14" class="node"><title>Node14</title>
<g id="a_node14"><a xlink:href="prepost_8F90.html#aaf4c0f2e1790302116a4c719c2eb50ff" target="_top" xlink:title="outpost2">
<polygon fill="white" stroke="black" points="542.5,-238.5 542.5,-257.5 599.5,-257.5 599.5,-238.5 542.5,-238.5"/>
<text text-anchor="middle" x="571" y="-245.5" font-family="Helvetica,sans-Serif" font-size="10.00">outpost2</text>
</a>
</g>
</g>
<!-- Node12&#45;&gt;Node14 -->
<g id="edge15" class="edge"><title>Node12&#45;&gt;Node14</title>
<path fill="none" stroke="midnightblue" d="M487.607,-214.326C506.324,-221.976 529.402,-231.408 546.368,-238.342"/>
<polygon fill="midnightblue" stroke="midnightblue" points="488.853,-211.055 478.272,-210.511 486.205,-217.534 488.853,-211.055"/>
</g>
<!-- Node13&#45;&gt;Node6 -->
<g id="edge14" class="edge"><title>Node13&#45;&gt;Node6</title>
<path fill="none" stroke="midnightblue" d="M1405.19,-210C1413.95,-210 1422.9,-210 1430.73,-210"/>
<polygon fill="midnightblue" stroke="midnightblue" points="1405.07,-206.5 1395.07,-210 1405.07,-213.5 1405.07,-206.5"/>
</g>
<!-- Node15 -->
<g id="node15" class="node"><title>Node15</title>
<g id="a_node15"><a xlink:href="prepost_8F90.html#aacb528c0b28bc79dff8db48d7ae9ac64" target="_top" xlink:title="outpost">
<polygon fill="white" stroke="black" points="648,-240.5 648,-259.5 699,-259.5 699,-240.5 648,-240.5"/>
<text text-anchor="middle" x="673.5" y="-247.5" font-family="Helvetica,sans-Serif" font-size="10.00">outpost</text>
</a>
</g>
</g>
<!-- Node14&#45;&gt;Node15 -->
<g id="edge16" class="edge"><title>Node14&#45;&gt;Node15</title>
<path fill="none" stroke="midnightblue" d="M610.056,-248.757C622.752,-249.01 636.554,-249.285 647.945,-249.511"/>
<polygon fill="midnightblue" stroke="midnightblue" points="609.796,-245.252 599.728,-248.552 609.656,-252.25 609.796,-245.252"/>
</g>
<!-- Node16 -->
<g id="node16" class="node"><title>Node16</title>
<g id="a_node16"><a xlink:href="coef_8F90.html#ad01cc61ba84d488e68ca9e259c592465" target="_top" xlink:title="Routine to generate mapping data based on mesh 1 (Gauss&#45;Legendre Lobatto meshes). ...">
<polygon fill="white" stroke="black" points="735,-245.5 735,-264.5 794,-264.5 794,-245.5 735,-245.5"/>
<text text-anchor="middle" x="764.5" y="-252.5" font-family="Helvetica,sans-Serif" font-size="10.00">glmapm1</text>
</a>
</g>
</g>
<!-- Node15&#45;&gt;Node16 -->
<g id="edge17" class="edge"><title>Node15&#45;&gt;Node16</title>
<path fill="none" stroke="midnightblue" d="M709.533,-251.968C717.89,-252.438 726.715,-252.933 734.752,-253.385"/>
<polygon fill="midnightblue" stroke="midnightblue" points="709.472,-248.459 699.291,-251.393 709.079,-255.448 709.472,-248.459"/>
</g>
<!-- Node17 -->
<g id="node17" class="node"><title>Node17</title>
<g id="a_node17"><a xlink:href="coef_8F90.html#ac5d2ac0efba4a530fab5387321307d01" target="_top" xlink:title="Routine to generate all elemental geometric data for mesh 1. Velocity formulation : global&#45;to&#45;local m...">
<polygon fill="white" stroke="black" points="832.5,-248.5 832.5,-267.5 881.5,-267.5 881.5,-248.5 832.5,-248.5"/>
<text text-anchor="middle" x="857" y="-255.5" font-family="Helvetica,sans-Serif" font-size="10.00">geom1</text>
</a>
</g>
</g>
<!-- Node16&#45;&gt;Node17 -->
<g id="edge18" class="edge"><title>Node16&#45;&gt;Node17</title>
<path fill="none" stroke="midnightblue" d="M804.277,-256.285C813.843,-256.603 823.803,-256.933 832.399,-257.218"/>
<polygon fill="midnightblue" stroke="midnightblue" points="804.245,-252.783 794.135,-255.949 804.013,-259.779 804.245,-252.783"/>
</g>
<!-- Node18 -->
<g id="node18" class="node"><title>Node18</title>
<g id="a_node18"><a xlink:href="drive2_8F90.html#aefc07385d7e7539fb57662470f694136" target="_top" xlink:title="Generate geometry data. ">
<polygon fill="white" stroke="black" points="926,-248.5 926,-267.5 987,-267.5 987,-248.5 926,-248.5"/>
<text text-anchor="middle" x="956.5" y="-255.5" font-family="Helvetica,sans-Serif" font-size="10.00">gengeom</text>
</a>
</g>
</g>
<!-- Node17&#45;&gt;Node18 -->
<g id="edge19" class="edge"><title>Node17&#45;&gt;Node18</title>
<path fill="none" stroke="midnightblue" d="M891.786,-258C902.861,-258 915.077,-258 925.825,-258"/>
<polygon fill="midnightblue" stroke="midnightblue" points="891.602,-254.5 881.602,-258 891.602,-261.5 891.602,-254.5"/>
</g>
<!-- Node21 -->
<g id="node21" class="node"><title>Node21</title>
<g id="a_node21"><a xlink:href="ic_8F90.html#aaf47b255d1cfac3451a8473ee6876b4f" target="_top" xlink:title="Generate geometry data. ">
<polygon fill="white" stroke="black" points="920,-304.5 920,-323.5 993,-323.5 993,-304.5 920,-304.5"/>
<text text-anchor="middle" x="956.5" y="-311.5" font-family="Helvetica,sans-Serif" font-size="10.00">geom_reset</text>
</a>
</g>
</g>
<!-- Node17&#45;&gt;Node21 -->
<g id="edge24" class="edge"><title>Node17&#45;&gt;Node21</title>
<path fill="none" stroke="midnightblue" d="M884.035,-272.954C901.383,-282.918 923.674,-295.721 938.711,-304.357"/>
<polygon fill="midnightblue" stroke="midnightblue" points="885.398,-269.7 874.983,-267.754 881.911,-275.77 885.398,-269.7"/>
</g>
<!-- Node18&#45;&gt;Node5 -->
<g id="edge20" class="edge"><title>Node18&#45;&gt;Node5</title>
<path fill="none" stroke="midnightblue" d="M997.399,-253.333C1063.32,-247.516 1197.3,-243.841 1294,-295 1324.46,-311.113 1347.04,-347.158 1356.55,-364.424"/>
<polygon fill="midnightblue" stroke="midnightblue" points="996.665,-249.886 987.04,-254.315 997.326,-256.855 996.665,-249.886"/>
</g>
<!-- Node19 -->
<g id="node19" class="node"><title>Node19</title>
<g id="a_node19"><a xlink:href="drive1_8F90.html#ae177ea7efac97f35241521b782a671c0" target="_top" xlink:title="take a single time&#45;step ">
<polygon fill="white" stroke="black" points="1047,-219.5 1047,-238.5 1127,-238.5 1127,-219.5 1047,-219.5"/>
<text text-anchor="middle" x="1087" y="-226.5" font-family="Helvetica,sans-Serif" font-size="10.00">nek_advance</text>
</a>
</g>
</g>
<!-- Node18&#45;&gt;Node19 -->
<g id="edge21" class="edge"><title>Node18&#45;&gt;Node19</title>
<path fill="none" stroke="midnightblue" d="M997.244,-249.031C1012.95,-245.487 1030.95,-241.424 1046.62,-237.888"/>
<polygon fill="midnightblue" stroke="midnightblue" points="996.288,-245.658 987.303,-251.274 997.829,-252.487 996.288,-245.658"/>
</g>
<!-- Node20 -->
<g id="node20" class="node"><title>Node20</title>
<g id="a_node20"><a xlink:href="drive1_8F90.html#a18d3e839786263fc4cf91f7eeb714371" target="_top" xlink:title="take a chunk of time&#45;steps ">
<polygon fill="white" stroke="black" points="1181,-219.5 1181,-238.5 1294,-238.5 1294,-219.5 1181,-219.5"/>
<text text-anchor="middle" x="1237.5" y="-226.5" font-family="Helvetica,sans-Serif" font-size="10.00">nek__multi_advance</text>
</a>
</g>
</g>
<!-- Node19&#45;&gt;Node20 -->
<g id="edge22" class="edge"><title>Node19&#45;&gt;Node20</title>
<path fill="none" stroke="midnightblue" d="M1137.41,-229C1151.38,-229 1166.68,-229 1180.99,-229"/>
<polygon fill="midnightblue" stroke="midnightblue" points="1137.02,-225.5 1127.02,-229 1137.02,-232.5 1137.02,-225.5"/>
</g>
<!-- Node20&#45;&gt;Node13 -->
<g id="edge23" class="edge"><title>Node20&#45;&gt;Node13</title>
<path fill="none" stroke="midnightblue" d="M1304.28,-218.839C1313.16,-217.466 1321.93,-216.113 1329.82,-214.893"/>
<polygon fill="midnightblue" stroke="midnightblue" points="1303.59,-215.404 1294.24,-220.389 1304.66,-222.322 1303.59,-215.404"/>
</g>
<!-- Node21&#45;&gt;Node4 -->
<g id="edge29" class="edge"><title>Node21&#45;&gt;Node4</title>
<path fill="none" stroke="midnightblue" d="M980.294,-329.641C984.561,-332.685 988.951,-335.895 993,-339 1009.53,-351.673 1011.21,-358.174 1029,-369 1040.28,-375.865 1053.88,-381.674 1064.97,-385.856"/>
<polygon fill="midnightblue" stroke="midnightblue" points="982.051,-326.598 971.856,-323.716 978.029,-332.327 982.051,-326.598"/>
</g>
<!-- Node21&#45;&gt;Node5 -->
<g id="edge25" class="edge"><title>Node21&#45;&gt;Node5</title>
<path fill="none" stroke="midnightblue" d="M995.928,-326.581C1006.55,-329.703 1018.14,-332.786 1029,-335 1142.04,-358.058 1279.69,-368.806 1335.82,-372.471"/>
<polygon fill="midnightblue" stroke="midnightblue" points="996.682,-323.152 986.097,-323.602 994.652,-329.851 996.682,-323.152"/>
</g>
<!-- Node22 -->
<g id="node22" class="node"><title>Node22</title>
<g id="a_node22"><a xlink:href="classhsmg__routines.html#a91e8aa59d56bbf05d75aa9c48bcd8977" target="_top" xlink:title="Sets up Poisson preconditioner. ">
<polygon fill="white" stroke="black" points="1029,-296 1029,-326 1145,-326 1145,-296 1029,-296"/>
<text text-anchor="start" x="1037" y="-314" font-family="Helvetica,sans-Serif" font-size="10.00">hsmg_routines::h1mg</text>
<text text-anchor="middle" x="1087" y="-303" font-family="Helvetica,sans-Serif" font-size="10.00">_setup</text>
</a>
</g>
</g>
<!-- Node21&#45;&gt;Node22 -->
<g id="edge26" class="edge"><title>Node21&#45;&gt;Node22</title>
<path fill="none" stroke="midnightblue" d="M1003.41,-312.928C1011.61,-312.737 1020.25,-312.535 1028.72,-312.337"/>
<polygon fill="midnightblue" stroke="midnightblue" points="1003.21,-309.432 993.294,-313.164 1003.37,-316.43 1003.21,-309.432"/>
</g>
<!-- Node23 -->
<g id="node23" class="node"><title>Node23</title>
<g id="a_node23"><a xlink:href="navier6_8F90.html#a45317b1def173b8f1db2e5083595d095" target="_top" xlink:title="Set up arrays for overlapping Schwartz algorithm for pressure solver ">
<polygon fill="white" stroke="black" points="1201.5,-304.5 1201.5,-323.5 1273.5,-323.5 1273.5,-304.5 1201.5,-304.5"/>
<text text-anchor="middle" x="1237.5" y="-311.5" font-family="Helvetica,sans-Serif" font-size="10.00">set_overlap</text>
</a>
</g>
</g>
<!-- Node22&#45;&gt;Node23 -->
<g id="edge27" class="edge"><title>Node22&#45;&gt;Node23</title>
<path fill="none" stroke="midnightblue" d="M1155.65,-312.367C1171.36,-312.684 1187.47,-313.009 1201.13,-313.285"/>
<polygon fill="midnightblue" stroke="midnightblue" points="1155.48,-308.863 1145.41,-312.16 1155.34,-315.861 1155.48,-308.863"/>
</g>
<!-- Node23&#45;&gt;Node5 -->
<g id="edge28" class="edge"><title>Node23&#45;&gt;Node5</title>
<path fill="none" stroke="midnightblue" d="M1267.49,-328.091C1276.03,-332.245 1285.39,-336.803 1294,-341 1310.18,-348.891 1328.53,-357.864 1342.01,-364.459"/>
<polygon fill="midnightblue" stroke="midnightblue" points="1268.81,-324.839 1258.28,-323.613 1265.75,-331.134 1268.81,-324.839"/>
</g>
<!-- Node24&#45;&gt;Node10 -->
<g id="edge31" class="edge"><title>Node24&#45;&gt;Node10</title>
<path fill="none" stroke="midnightblue" d="M180.377,-224.694C184.396,-222.97 188.329,-221.073 192,-219 215.237,-205.874 238.07,-184.259 250.313,-171.758"/>
<polygon fill="midnightblue" stroke="midnightblue" points="178.961,-221.491 170.933,-228.404 181.52,-228.006 178.961,-221.491"/>
</g>
<!-- Node25&#45;&gt;Node10 -->
<g id="edge33" class="edge"><title>Node25&#45;&gt;Node10</title>
<path fill="none" stroke="midnightblue" d="M174.476,-188.161C191.826,-182.823 212.047,-176.601 228.415,-171.564"/>
<polygon fill="midnightblue" stroke="midnightblue" points="173.172,-184.9 164.644,-191.187 175.231,-191.591 173.172,-184.9"/>
</g>
<!-- Node26&#45;&gt;Node10 -->
<g id="edge35" class="edge"><title>Node26&#45;&gt;Node10</title>
<path fill="none" stroke="midnightblue" d="M174.883,-162C191.986,-162 211.815,-162 227.976,-162"/>
<polygon fill="midnightblue" stroke="midnightblue" points="174.644,-158.5 164.644,-162 174.644,-165.5 174.644,-158.5"/>
</g>
<!-- Node28 -->
<g id="node28" class="node"><title>Node28</title>
<g id="a_node28"><a xlink:href="classio.html#a8f8da23cfb175a121cf25557d58d1c98" target="_top" xlink:title="Load initial condition from a previous multi&#45;file output. ">
<polygon fill="white" stroke="black" points="229,-381.5 229,-400.5 292,-400.5 292,-381.5 229,-381.5"/>
<text text-anchor="middle" x="260.5" y="-388.5" font-family="Helvetica,sans-Serif" font-size="10.00">io::load_ic</text>
</a>
</g>
</g>
<!-- Node27&#45;&gt;Node28 -->
<g id="edge37" class="edge"><title>Node27&#45;&gt;Node28</title>
<path fill="none" stroke="midnightblue" d="M202.391,-390.538C211.65,-390.613 220.769,-390.686 228.909,-390.752"/>
<polygon fill="midnightblue" stroke="midnightblue" points="202.357,-387.037 192.329,-390.456 202.3,-394.037 202.357,-387.037"/>
</g>
<!-- Node28&#45;&gt;Node4 -->
<g id="edge38" class="edge"><title>Node28&#45;&gt;Node4</title>
<path fill="none" stroke="midnightblue" d="M302.364,-391.337C341.136,-391.627 401.033,-392 453,-392 453,-392 453,-392 858,-392 934.199,-392 1024.72,-392.565 1064.94,-392.846"/>
<polygon fill="midnightblue" stroke="midnightblue" points="302.04,-387.834 292.013,-391.258 301.986,-394.834 302.04,-387.834"/>
</g>
<!-- Node29&#45;&gt;Node28 -->
<g id="edge40" class="edge"><title>Node29&#45;&gt;Node28</title>
<path fill="none" stroke="midnightblue" d="M176.028,-364.641C193.294,-370.093 213.156,-376.365 229.172,-381.423"/>
<polygon fill="midnightblue" stroke="midnightblue" points="176.801,-361.214 166.211,-361.54 174.693,-367.889 176.801,-361.214"/>
</g>
<!-- Node30&#45;&gt;Node28 -->
<g id="edge42" class="edge"><title>Node30&#45;&gt;Node28</title>
<path fill="none" stroke="midnightblue" d="M177.839,-415.465C194.484,-410.478 213.291,-404.844 228.657,-400.24"/>
<polygon fill="midnightblue" stroke="midnightblue" points="176.379,-412.249 167.804,-418.472 178.388,-418.954 176.379,-412.249"/>
</g>
<!-- Node31&#45;&gt;Node10 -->
<g id="edge44" class="edge"><title>Node31&#45;&gt;Node10</title>
<path fill="none" stroke="midnightblue" d="M176.74,-136.535C193.54,-141.705 212.697,-147.599 228.346,-152.414"/>
<polygon fill="midnightblue" stroke="midnightblue" points="177.751,-133.185 167.164,-133.589 175.693,-139.875 177.751,-133.185"/>
</g>
<!-- Node33 -->
<g id="node33" class="node"><title>Node33</title>
<g id="a_node33"><a xlink:href="prepost_8F90.html#abb385320698675796ad307a27f4855af" target="_top" xlink:title="io_init">
<polygon fill="white" stroke="black" points="742.5,-532.5 742.5,-551.5 786.5,-551.5 786.5,-532.5 742.5,-532.5"/>
<text text-anchor="middle" x="764.5" y="-539.5" font-family="Helvetica,sans-Serif" font-size="10.00">io_init</text>
</a>
</g>
</g>
<!-- Node32&#45;&gt;Node33 -->
<g id="edge46" class="edge"><title>Node32&#45;&gt;Node33</title>
<path fill="none" stroke="midnightblue" d="M622.283,-542C661.375,-542 713.636,-542 742.362,-542"/>
<polygon fill="midnightblue" stroke="midnightblue" points="622.145,-538.5 612.145,-542 622.145,-545.5 622.145,-538.5"/>
</g>
<!-- Node33&#45;&gt;Node5 -->
<g id="edge47" class="edge"><title>Node33&#45;&gt;Node5</title>
<path fill="none" stroke="midnightblue" d="M796.831,-537.47C834.433,-532.434 899.435,-525 955.5,-525 955.5,-525 955.5,-525 1088,-525 1181.81,-525 1217.09,-532.708 1294,-479 1329.36,-454.31 1350.53,-404.558 1358.21,-383.626"/>
<polygon fill="midnightblue" stroke="midnightblue" points="795.964,-534.056 786.532,-538.882 796.915,-540.991 795.964,-534.056"/>
</g>
<!-- Node34&#45;&gt;Node5 -->
<g id="edge49" class="edge"><title>Node34&#45;&gt;Node5</title>
<path fill="none" stroke="midnightblue" d="M894.254,-491.85C972.045,-500.553 1158.87,-512.23 1294,-446 1322.93,-431.824 1345.77,-399.639 1355.86,-383.541"/>
<polygon fill="midnightblue" stroke="midnightblue" points="894.358,-488.338 884.018,-490.65 893.543,-495.29 894.358,-488.338"/>
</g>
<!-- Node35&#45;&gt;Node12 -->
<g id="edge52" class="edge"><title>Node35&#45;&gt;Node12</title>
<path fill="none" stroke="midnightblue" d="M385.288,-226.435C398.846,-221.342 414.587,-215.429 427.478,-210.587"/>
<polygon fill="midnightblue" stroke="midnightblue" points="384.004,-223.179 375.873,-229.972 386.465,-229.732 384.004,-223.179"/>
</g>
<!-- Node37 -->
<g id="node37" class="node"><title>Node37</title>
<g id="a_node37"><a xlink:href="drive2_8F90.html#a6637d27bdf1984d5964bd31465cd304a" target="_top" xlink:title="print run statistics from ctimer ">
<polygon fill="white" stroke="black" points="329,-57.5 329,-76.5 378,-76.5 378,-57.5 329,-57.5"/>
<text text-anchor="middle" x="353.5" y="-64.5" font-family="Helvetica,sans-Serif" font-size="10.00">runstat</text>
</a>
</g>
</g>
<!-- Node36&#45;&gt;Node37 -->
<g id="edge54" class="edge"><title>Node36&#45;&gt;Node37</title>
<path fill="none" stroke="midnightblue" d="M285.48,-25.0206C301.894,-35.3018 323.163,-48.6238 337.291,-57.4735"/>
<polygon fill="midnightblue" stroke="midnightblue" points="287.27,-22.0115 276.937,-19.6693 283.554,-27.9438 287.27,-22.0115"/>
</g>
<!-- Node38 -->
<g id="node38" class="node"><title>Node38</title>
<g id="a_node38"><a xlink:href="drive1_8F90.html#a10055f031c0ac540cc534ab2b0363206" target="_top" xlink:title="perform any end&#45;of&#45;run reporting ">
<polygon fill="white" stroke="black" points="542,-132.5 542,-151.5 600,-151.5 600,-132.5 542,-132.5"/>
<text text-anchor="middle" x="571" y="-139.5" font-family="Helvetica,sans-Serif" font-size="10.00">nek_end</text>
</a>
</g>
</g>
<!-- Node37&#45;&gt;Node38 -->
<g id="edge55" class="edge"><title>Node37&#45;&gt;Node38</title>
<path fill="none" stroke="midnightblue" d="M388.01,-78.6624C430.574,-93.476 503.217,-118.758 542.625,-132.473"/>
<polygon fill="midnightblue" stroke="midnightblue" points="388.98,-75.2943 378.386,-75.3129 386.68,-81.9054 388.98,-75.2943"/>
</g>
<!-- Node38&#45;&gt;Node6 -->
<g id="edge56" class="edge"><title>Node38&#45;&gt;Node6</title>
<path fill="none" stroke="midnightblue" d="M610.499,-143.915C649.161,-145.671 710.444,-148 763.5,-148 763.5,-148 763.5,-148 1238.5,-148 1313.6,-148 1397.89,-183.057 1435.09,-200.448"/>
<polygon fill="midnightblue" stroke="midnightblue" points="610.372,-140.405 600.22,-143.437 610.047,-147.398 610.372,-140.405"/>
</g>
</g>
</svg>
        <g id="navigator" transform="translate(0 0)" fill="#404254">
                <rect fill="#f2f5e9" fill-opacity="0.5" stroke="#606060" stroke-width=".5" x="0" y="0" width="60" height="60"/>
                <use id="zoomplus" xlink:href="#zoomPlus" x="17" y="9" onmousedown="handleZoom(evt,'in')"/>
                <use id="zoomminus" xlink:href="#zoomMin" x="42" y="9" onmousedown="handleZoom(evt,'out')"/>
                <use id="reset" xlink:href="#resetDef" x="30" y="36" onmousedown="handleReset()"/>
                <g id="arrowUp" xlink:href="#dirArrow" transform="translate(30 24)" onmousedown="handlePan(0,-1)">
                  <use xlink:href="#rim" fill="#404040">
                        <set attributeName="fill" to="#808080" begin="arrowUp.mouseover" end="arrowUp.mouseout"/>
                  </use>
                  <path fill="none" stroke="white" stroke-width="1.5" d="M0,-3.0v7 M-2.5,-0.5L0,-3.0L2.5,-0.5"/>
                </g>
                <g id="arrowRight" xlink:href="#dirArrow" transform="rotate(90) translate(36 -43)" onmousedown="handlePan(1,0)">
                  <use xlink:href="#rim" fill="#404040">
                        <set attributeName="fill" to="#808080" begin="arrowRight.mouseover" end="arrowRight.mouseout"/>
                  </use>
                  <path fill="none" stroke="white" stroke-width="1.5" d="M0,-3.0v7 M-2.5,-0.5L0,-3.0L2.5,-0.5"/>
                </g>
                <g id="arrowDown" xlink:href="#dirArrow" transform="rotate(180) translate(-30 -48)" onmousedown="handlePan(0,1)">
                  <use xlink:href="#rim" fill="#404040">
                        <set attributeName="fill" to="#808080" begin="arrowDown.mouseover" end="arrowDown.mouseout"/>
                  </use>
                  <path fill="none" stroke="white" stroke-width="1.5" d="M0,-3.0v7 M-2.5,-0.5L0,-3.0L2.5,-0.5"/>
                </g>
                <g id="arrowLeft" xlink:href="#dirArrow" transform="rotate(270) translate(-36 17)" onmousedown="handlePan(-1,0)">
                  <use xlink:href="#rim" fill="#404040">
                        <set attributeName="fill" to="#808080" begin="arrowLeft.mouseover" end="arrowLeft.mouseout"/>
                  </use>
                  <path fill="none" stroke="white" stroke-width="1.5" d="M0,-3.0v7 M-2.5,-0.5L0,-3.0L2.5,-0.5"/>
                </g>
        </g>
        <svg viewBox="0 0 15 15" width="100%" height="30px" preserveAspectRatio="xMaxYMin meet">
         <g id="arrow_out" transform="scale(0.3 0.3)">
          <a xlink:href="comm__mpi_8F90_a243c9bed2592e7cd159fb36be4fda037_icgraph_org.svg" target="_base">
           <rect id="button" ry="5" rx="5" y="6" x="6" height="38" width="38"
                fill="#f2f5e9" fill-opacity="0.5" stroke="#606060" stroke-width="1.0"/>
           <path id="arrow"
             d="M 11.500037,31.436501 C 11.940474,20.09759 22.043105,11.32322 32.158766,21.979434 L 37.068811,17.246167 C 37.068811,17.246167 37.088388,32 37.088388,32 L 22.160133,31.978069 C 22.160133,31.978069 26.997745,27.140456 26.997745,27.140456 C 18.528582,18.264221 13.291696,25.230495 11.500037,31.436501 z"
             style="fill:#404040;"/>
          </a>
         </g>
        </svg>
</svg>
