<?xml version="1.0" encoding="UTF-8" standalone="no"?>
<!DOCTYPE svg PUBLIC "-//W3C//DTD SVG 1.1//EN"
 "http://www.w3.org/Graphics/SVG/1.1/DTD/svg11.dtd">
<!-- Generated by graphviz version 2.38.0 (20140413.2041)
 -->
<!-- Title: rdhist Pages: 1 -->
<svg width="498pt" height="275pt"
 viewBox="0.00 0.00 498.00 275.00" xmlns="http://www.w3.org/2000/svg" xmlns:xlink="http://www.w3.org/1999/xlink">
<g id="graph0" class="graph" transform="scale(1 1) rotate(0) translate(4 271)">
<title>rdhist</title>
<polygon fill="white" stroke="none" points="-4,4 -4,-271 494,-271 494,4 -4,4"/>
<!-- Node1 -->
<g id="node1" class="node"><title>Node1</title>
<polygon fill="#bfbfbf" stroke="black" points="0,-190.5 0,-209.5 43,-209.5 43,-190.5 0,-190.5"/>
<text text-anchor="middle" x="21.5" y="-197.5" font-family="Helvetica,sans-Serif" font-size="10.00">rdhist</text>
</g>
<!-- Node2 -->
<g id="node2" class="node"><title>Node2</title>
<g id="a_node2"><a xlink:href="comm__mpi_8F90.html#ae425c1deb2e82d2007c97e1c4be990c8" target="_top" xlink:title="bcast">
<polygon fill="white" stroke="black" points="85,-247.5 85,-266.5 126,-266.5 126,-247.5 85,-247.5"/>
<text text-anchor="middle" x="105.5" y="-254.5" font-family="Helvetica,sans-Serif" font-size="10.00">bcast</text>
</a>
</g>
</g>
<!-- Node1&#45;&gt;Node2 -->
<g id="edge1" class="edge"><title>Node1&#45;&gt;Node2</title>
<path fill="none" stroke="midnightblue" d="M36.4102,-209.669C48.973,-218.402 67.6777,-231.404 82.3056,-241.572"/>
<polygon fill="midnightblue" stroke="midnightblue" points="80.5864,-244.64 90.7952,-247.474 84.5819,-238.892 80.5864,-244.64"/>
</g>
<!-- Node4 -->
<g id="node4" class="node"><title>Node4</title>
<g id="a_node4"><a xlink:href="math_8F90.html#a692155d1d2ec380a9fdb2d81ef221625" target="_top" xlink:title="blank a string ">
<polygon fill="white" stroke="black" points="184,-209.5 184,-228.5 225,-228.5 225,-209.5 184,-209.5"/>
<text text-anchor="middle" x="204.5" y="-216.5" font-family="Helvetica,sans-Serif" font-size="10.00">blank</text>
</a>
</g>
</g>
<!-- Node1&#45;&gt;Node4 -->
<g id="edge3" class="edge"><title>Node1&#45;&gt;Node4</title>
<path fill="none" stroke="midnightblue" d="M43.263,-202.18C75.294,-205.542 136.898,-212.009 173.687,-215.87"/>
<polygon fill="midnightblue" stroke="midnightblue" points="173.493,-219.369 183.804,-216.932 174.224,-212.408 173.493,-219.369"/>
</g>
<!-- Node5 -->
<g id="node5" class="node"><title>Node5</title>
<g id="a_node5"><a xlink:href="comm__mpi_8F90.html#a898c3cc227476846bd3216f97a9a8657" target="_top" xlink:title="err_chk">
<polygon fill="white" stroke="black" points="79,-171.5 79,-190.5 132,-190.5 132,-171.5 79,-171.5"/>
<text text-anchor="middle" x="105.5" y="-178.5" font-family="Helvetica,sans-Serif" font-size="10.00">err_chk</text>
</a>
</g>
</g>
<!-- Node1&#45;&gt;Node5 -->
<g id="edge4" class="edge"><title>Node1&#45;&gt;Node5</title>
<path fill="none" stroke="midnightblue" d="M43.1921,-195.205C50.9671,-193.404 60.0457,-191.3 68.7968,-189.273"/>
<polygon fill="midnightblue" stroke="midnightblue" points="69.87,-192.617 78.8218,-186.95 68.2898,-185.798 69.87,-192.617"/>
</g>
<!-- Node7 -->
<g id="node7" class="node"><title>Node7</title>
<g id="a_node7"><a xlink:href="byte_8c.html#a2da8eeb074dfd3ffbfb3e9a4d301cda4" target="_top" xlink:title="exitt">
<polygon fill="white" stroke="black" points="186.5,-95.5 186.5,-114.5 222.5,-114.5 222.5,-95.5 186.5,-95.5"/>
<text text-anchor="middle" x="204.5" y="-102.5" font-family="Helvetica,sans-Serif" font-size="10.00">exitt</text>
</a>
</g>
</g>
<!-- Node1&#45;&gt;Node7 -->
<g id="edge18" class="edge"><title>Node1&#45;&gt;Node7</title>
<path fill="none" stroke="midnightblue" d="M35.5821,-190.308C46.7919,-182.224 63.5309,-170.667 79,-162 111.589,-143.741 151.08,-126.421 176.72,-115.767"/>
<polygon fill="midnightblue" stroke="midnightblue" points="178.232,-118.929 186.15,-111.89 175.571,-112.455 178.232,-118.929"/>
</g>
<!-- Node3 -->
<g id="node3" class="node"><title>Node3</title>
<g id="a_node3"><a xlink:href="mpi__dummy_8F90.html#ae0bd4baaea848988f45664ce0de33350" target="_top" xlink:title="mpi_bcast">
<polygon fill="white" stroke="black" points="172.5,-247.5 172.5,-266.5 236.5,-266.5 236.5,-247.5 172.5,-247.5"/>
<text text-anchor="middle" x="204.5" y="-254.5" font-family="Helvetica,sans-Serif" font-size="10.00">mpi_bcast</text>
</a>
</g>
</g>
<!-- Node2&#45;&gt;Node3 -->
<g id="edge2" class="edge"><title>Node2&#45;&gt;Node3</title>
<path fill="none" stroke="midnightblue" d="M126.129,-257C136.509,-257 149.663,-257 162.167,-257"/>
<polygon fill="midnightblue" stroke="midnightblue" points="162.442,-260.5 172.442,-257 162.442,-253.5 162.442,-260.5"/>
</g>
<!-- Node5&#45;&gt;Node4 -->
<g id="edge5" class="edge"><title>Node5&#45;&gt;Node4</title>
<path fill="none" stroke="midnightblue" d="M130.977,-190.589C144.165,-195.755 160.522,-202.163 174.363,-207.585"/>
<polygon fill="midnightblue" stroke="midnightblue" points="173.327,-210.938 183.914,-211.327 175.88,-204.421 173.327,-210.938"/>
</g>
<!-- Node6 -->
<g id="node6" class="node"><title>Node6</title>
<g id="a_node6"><a xlink:href="math_8F90.html#ad7fb480cea001849621405f37167aab1" target="_top" xlink:title="chcopy">
<polygon fill="white" stroke="black" points="179.5,-171.5 179.5,-190.5 229.5,-190.5 229.5,-171.5 179.5,-171.5"/>
<text text-anchor="middle" x="204.5" y="-178.5" font-family="Helvetica,sans-Serif" font-size="10.00">chcopy</text>
</a>
</g>
</g>
<!-- Node5&#45;&gt;Node6 -->
<g id="edge6" class="edge"><title>Node5&#45;&gt;Node6</title>
<path fill="none" stroke="midnightblue" d="M132.24,-181C143.526,-181 156.94,-181 169.068,-181"/>
<polygon fill="midnightblue" stroke="midnightblue" points="169.31,-184.5 179.31,-181 169.31,-177.5 169.31,-184.5"/>
</g>
<!-- Node5&#45;&gt;Node7 -->
<g id="edge7" class="edge"><title>Node5&#45;&gt;Node7</title>
<path fill="none" stroke="midnightblue" d="M115.434,-171.312C126.859,-159.271 147.613,-138.537 168,-124 170.935,-121.907 174.127,-119.887 177.355,-117.994"/>
<polygon fill="midnightblue" stroke="midnightblue" points="179.281,-120.93 186.359,-113.046 175.91,-114.795 179.281,-120.93"/>
</g>
<!-- Node17 -->
<g id="node17" class="node"><title>Node17</title>
<g id="a_node17"><a xlink:href="classstring.html#ac6aad97d698bcdbf5c11ffa52d947ad8" target="_top" xlink:title="string::indx1">
<polygon fill="white" stroke="black" points="168,-133.5 168,-152.5 241,-152.5 241,-133.5 168,-133.5"/>
<text text-anchor="middle" x="204.5" y="-140.5" font-family="Helvetica,sans-Serif" font-size="10.00">string::indx1</text>
</a>
</g>
</g>
<!-- Node5&#45;&gt;Node17 -->
<g id="edge17" class="edge"><title>Node5&#45;&gt;Node17</title>
<path fill="none" stroke="midnightblue" d="M130.977,-171.411C142.695,-166.821 156.915,-161.25 169.649,-156.261"/>
<polygon fill="midnightblue" stroke="midnightblue" points="170.996,-159.492 179.031,-152.586 168.443,-152.975 170.996,-159.492"/>
</g>
<!-- Node8 -->
<g id="node8" class="node"><title>Node8</title>
<g id="a_node8"><a xlink:href="classctimer.html#abcecbc845c8ee72e13a19eaa30b80d77" target="_top" xlink:title="ctimer::dnekclock">
<polygon fill="white" stroke="black" points="277,-190.5 277,-209.5 374,-209.5 374,-190.5 277,-190.5"/>
<text text-anchor="middle" x="325.5" y="-197.5" font-family="Helvetica,sans-Serif" font-size="10.00">ctimer::dnekclock</text>
</a>
</g>
</g>
<!-- Node7&#45;&gt;Node8 -->
<g id="edge8" class="edge"><title>Node7&#45;&gt;Node8</title>
<path fill="none" stroke="midnightblue" d="M222.555,-111.903C228.821,-114.983 235.678,-119.047 241,-124 262.935,-144.412 253.968,-161.835 277,-181 278.971,-182.64 281.102,-184.152 283.332,-185.544"/>
<polygon fill="midnightblue" stroke="midnightblue" points="281.821,-188.705 292.29,-190.333 285.121,-182.532 281.821,-188.705"/>
</g>
<!-- Node10 -->
<g id="node10" class="node"><title>Node10</title>
<g id="a_node10"><a xlink:href="subs1_8F90.html#a339739b88994e5bb12bd923147f94983" target="_top" xlink:title="flush_io">
<polygon fill="white" stroke="black" points="299,-152.5 299,-171.5 352,-171.5 352,-152.5 299,-152.5"/>
<text text-anchor="middle" x="325.5" y="-159.5" font-family="Helvetica,sans-Serif" font-size="10.00">flush_io</text>
</a>
</g>
</g>
<!-- Node7&#45;&gt;Node10 -->
<g id="edge10" class="edge"><title>Node7&#45;&gt;Node10</title>
<path fill="none" stroke="midnightblue" d="M222.657,-114.178C242.925,-125.011 274.258,-141.728 277,-143 281.099,-144.902 285.444,-146.799 289.777,-148.617"/>
<polygon fill="midnightblue" stroke="midnightblue" points="288.559,-151.9 299.139,-152.443 291.207,-145.42 288.559,-151.9"/>
</g>
<!-- Node11 -->
<g id="node11" class="node"><title>Node11</title>
<g id="a_node11"><a xlink:href="singlmesh_8F90.html#aef78ff219741b83c1ca784b869e9cacf" target="_top" xlink:title="Dummy for singlmesh. ">
<polygon fill="white" stroke="black" points="285.5,-114.5 285.5,-133.5 365.5,-133.5 365.5,-114.5 285.5,-114.5"/>
<text text-anchor="middle" x="325.5" y="-121.5" font-family="Helvetica,sans-Serif" font-size="10.00">happy_check</text>
</a>
</g>
</g>
<!-- Node7&#45;&gt;Node11 -->
<g id="edge11" class="edge"><title>Node7&#45;&gt;Node11</title>
<path fill="none" stroke="midnightblue" d="M222.55,-107.722C236.387,-109.931 256.615,-113.161 275.412,-116.162"/>
<polygon fill="midnightblue" stroke="midnightblue" points="274.936,-119.631 285.362,-117.751 276.039,-112.718 274.936,-119.631"/>
</g>
<!-- Node12 -->
<g id="node12" class="node"><title>Node12</title>
<g id="a_node12"><a xlink:href="mpi__dummy_8F90.html#a55e9a1619aadb638b14211ce21d7d566" target="_top" xlink:title="mpi_finalize">
<polygon fill="white" stroke="black" points="289.5,-76.5 289.5,-95.5 361.5,-95.5 361.5,-76.5 289.5,-76.5"/>
<text text-anchor="middle" x="325.5" y="-83.5" font-family="Helvetica,sans-Serif" font-size="10.00">mpi_finalize</text>
</a>
</g>
</g>
<!-- Node7&#45;&gt;Node12 -->
<g id="edge12" class="edge"><title>Node7&#45;&gt;Node12</title>
<path fill="none" stroke="midnightblue" d="M222.55,-102.278C237.326,-99.9185 259.391,-96.3956 279.218,-93.2299"/>
<polygon fill="midnightblue" stroke="midnightblue" points="280.009,-96.6481 289.332,-91.6151 278.905,-89.7356 280.009,-96.6481"/>
</g>
<!-- Node13 -->
<g id="node13" class="node"><title>Node13</title>
<g id="a_node13"><a xlink:href="papi_8F90.html#a3a75ccdfbe05912fda48c3b134d114c0" target="_top" xlink:title="nek_flops">
<polygon fill="white" stroke="black" points="294.5,-38.5 294.5,-57.5 356.5,-57.5 356.5,-38.5 294.5,-38.5"/>
<text text-anchor="middle" x="325.5" y="-45.5" font-family="Helvetica,sans-Serif" font-size="10.00">nek_flops</text>
</a>
</g>
</g>
<!-- Node7&#45;&gt;Node13 -->
<g id="edge13" class="edge"><title>Node7&#45;&gt;Node13</title>
<path fill="none" stroke="midnightblue" d="M222.286,-95.4157C236.613,-87.3971 257.873,-75.8764 277,-67 281.099,-65.0978 285.444,-63.2013 289.777,-61.3834"/>
<polygon fill="midnightblue" stroke="midnightblue" points="291.207,-64.5801 299.139,-57.5572 288.559,-58.1003 291.207,-64.5801"/>
</g>
<!-- Node15 -->
<g id="node15" class="node"><title>Node15</title>
<g id="a_node15"><a xlink:href="comm__mpi_8F90.html#a4acb4d8e379294232e9219bec063d8f3" target="_top" xlink:title="nekgsync">
<polygon fill="white" stroke="black" points="294.5,-0.5 294.5,-19.5 356.5,-19.5 356.5,-0.5 294.5,-0.5"/>
<text text-anchor="middle" x="325.5" y="-7.5" font-family="Helvetica,sans-Serif" font-size="10.00">nekgsync</text>
</a>
</g>
</g>
<!-- Node7&#45;&gt;Node15 -->
<g id="edge15" class="edge"><title>Node7&#45;&gt;Node15</title>
<path fill="none" stroke="midnightblue" d="M212.369,-95.3168C224.028,-79.4972 249.156,-47.9758 277,-29 279.716,-27.1493 282.638,-25.4367 285.652,-23.8609"/>
<polygon fill="midnightblue" stroke="midnightblue" points="287.284,-26.9614 294.848,-19.5427 284.308,-20.6252 287.284,-26.9614"/>
</g>
<!-- Node9 -->
<g id="node9" class="node"><title>Node9</title>
<g id="a_node9"><a xlink:href="mpi__dummy_8F90.html#ae6a5ef945f87c2c27849696b70f3af2a" target="_top" xlink:title="mpi_wtime">
<polygon fill="white" stroke="black" points="417,-190.5 417,-209.5 483,-209.5 483,-190.5 417,-190.5"/>
<text text-anchor="middle" x="450" y="-197.5" font-family="Helvetica,sans-Serif" font-size="10.00">mpi_wtime</text>
</a>
</g>
</g>
<!-- Node8&#45;&gt;Node9 -->
<g id="edge9" class="edge"><title>Node8&#45;&gt;Node9</title>
<path fill="none" stroke="midnightblue" d="M374.212,-200C384.894,-200 396.154,-200 406.603,-200"/>
<polygon fill="midnightblue" stroke="midnightblue" points="406.73,-203.5 416.729,-200 406.729,-196.5 406.73,-203.5"/>
</g>
<!-- Node14 -->
<g id="node14" class="node"><title>Node14</title>
<g id="a_node14"><a xlink:href="papi_8F90.html#a838be3d39e287e29002d5a68c6ad2dd8" target="_top" xlink:title="getflops_papi">
<polygon fill="white" stroke="black" points="410,-38.5 410,-57.5 490,-57.5 490,-38.5 410,-38.5"/>
<text text-anchor="middle" x="450" y="-45.5" font-family="Helvetica,sans-Serif" font-size="10.00">getflops_papi</text>
</a>
</g>
</g>
<!-- Node13&#45;&gt;Node14 -->
<g id="edge14" class="edge"><title>Node13&#45;&gt;Node14</title>
<path fill="none" stroke="midnightblue" d="M356.781,-48C369.666,-48 385.032,-48 399.491,-48"/>
<polygon fill="midnightblue" stroke="midnightblue" points="399.811,-51.5001 409.811,-48 399.811,-44.5001 399.811,-51.5001"/>
</g>
<!-- Node16 -->
<g id="node16" class="node"><title>Node16</title>
<g id="a_node16"><a xlink:href="mpi__dummy_8F90.html#a070afe564196eb48413dbf1a9fbc99aa" target="_top" xlink:title="mpi_barrier">
<polygon fill="white" stroke="black" points="415,-0.5 415,-19.5 485,-19.5 485,-0.5 415,-0.5"/>
<text text-anchor="middle" x="450" y="-7.5" font-family="Helvetica,sans-Serif" font-size="10.00">mpi_barrier</text>
</a>
</g>
</g>
<!-- Node15&#45;&gt;Node16 -->
<g id="edge16" class="edge"><title>Node15&#45;&gt;Node16</title>
<path fill="none" stroke="midnightblue" d="M356.781,-10C371.195,-10 388.714,-10 404.594,-10"/>
<polygon fill="midnightblue" stroke="midnightblue" points="404.745,-13.5001 414.745,-10 404.745,-6.5001 404.745,-13.5001"/>
</g>
</g>
</svg>
