<?xml version="1.0" encoding="UTF-8" standalone="no"?>
<!DOCTYPE svg PUBLIC "-//W3C//DTD SVG 1.1//EN"
 "http://www.w3.org/Graphics/SVG/1.1/DTD/svg11.dtd">
<!-- Generated by graphviz version 2.38.0 (20140413.2041)
 -->
<!-- Title: chk_nel Pages: 1 -->
<svg width="382pt" height="218pt"
 viewBox="0.00 0.00 382.00 218.00" xmlns="http://www.w3.org/2000/svg" xmlns:xlink="http://www.w3.org/1999/xlink">
<g id="graph0" class="graph" transform="scale(1 1) rotate(0) translate(4 214)">
<title>chk_nel</title>
<polygon fill="white" stroke="none" points="-4,4 -4,-214 378,-214 378,4 -4,4"/>
<!-- Node1 -->
<g id="node1" class="node"><title>Node1</title>
<polygon fill="#bfbfbf" stroke="black" points="0,-95.5 0,-114.5 53,-114.5 53,-95.5 0,-95.5"/>
<text text-anchor="middle" x="26.5" y="-102.5" font-family="Helvetica,sans-Serif" font-size="10.00">chk_nel</text>
</g>
<!-- Node2 -->
<g id="node2" class="node"><title>Node2</title>
<g id="a_node2"><a xlink:href="byte_8c.html#a2da8eeb074dfd3ffbfb3e9a4d301cda4" target="_top" xlink:title="exitt">
<polygon fill="white" stroke="black" points="89,-95.5 89,-114.5 125,-114.5 125,-95.5 89,-95.5"/>
<text text-anchor="middle" x="107" y="-102.5" font-family="Helvetica,sans-Serif" font-size="10.00">exitt</text>
</a>
</g>
</g>
<!-- Node1&#45;&gt;Node2 -->
<g id="edge1" class="edge"><title>Node1&#45;&gt;Node2</title>
<path fill="none" stroke="midnightblue" d="M53.2038,-105C61.2874,-105 70.2447,-105 78.451,-105"/>
<polygon fill="midnightblue" stroke="midnightblue" points="78.6696,-108.5 88.6696,-105 78.6695,-101.5 78.6696,-108.5"/>
</g>
<!-- Node3 -->
<g id="node3" class="node"><title>Node3</title>
<g id="a_node3"><a xlink:href="classctimer.html#abcecbc845c8ee72e13a19eaa30b80d77" target="_top" xlink:title="ctimer::dnekclock">
<polygon fill="white" stroke="black" points="161,-190.5 161,-209.5 258,-209.5 258,-190.5 161,-190.5"/>
<text text-anchor="middle" x="209.5" y="-197.5" font-family="Helvetica,sans-Serif" font-size="10.00">ctimer::dnekclock</text>
</a>
</g>
</g>
<!-- Node2&#45;&gt;Node3 -->
<g id="edge2" class="edge"><title>Node2&#45;&gt;Node3</title>
<path fill="none" stroke="midnightblue" d="M112.342,-114.51C120.022,-130.363 137.444,-162.293 161,-181 163.069,-182.643 165.299,-184.161 167.624,-185.561"/>
<polygon fill="midnightblue" stroke="midnightblue" points="166.438,-188.888 176.926,-190.387 169.661,-182.675 166.438,-188.888"/>
</g>
<!-- Node5 -->
<g id="node5" class="node"><title>Node5</title>
<g id="a_node5"><a xlink:href="subs1_8F90.html#a339739b88994e5bb12bd923147f94983" target="_top" xlink:title="flush_io">
<polygon fill="white" stroke="black" points="183,-152.5 183,-171.5 236,-171.5 236,-152.5 183,-152.5"/>
<text text-anchor="middle" x="209.5" y="-159.5" font-family="Helvetica,sans-Serif" font-size="10.00">flush_io</text>
</a>
</g>
</g>
<!-- Node2&#45;&gt;Node5 -->
<g id="edge4" class="edge"><title>Node2&#45;&gt;Node5</title>
<path fill="none" stroke="midnightblue" d="M119.662,-114.624C130.053,-122.884 145.908,-134.73 161,-143 164.963,-145.171 169.226,-147.23 173.515,-149.135"/>
<polygon fill="midnightblue" stroke="midnightblue" points="172.26,-152.404 182.835,-153.044 174.967,-145.949 172.26,-152.404"/>
</g>
<!-- Node6 -->
<g id="node6" class="node"><title>Node6</title>
<g id="a_node6"><a xlink:href="singlmesh_8F90.html#aef78ff219741b83c1ca784b869e9cacf" target="_top" xlink:title="Dummy for singlmesh. ">
<polygon fill="white" stroke="black" points="169.5,-114.5 169.5,-133.5 249.5,-133.5 249.5,-114.5 169.5,-114.5"/>
<text text-anchor="middle" x="209.5" y="-121.5" font-family="Helvetica,sans-Serif" font-size="10.00">happy_check</text>
</a>
</g>
</g>
<!-- Node2&#45;&gt;Node6 -->
<g id="edge5" class="edge"><title>Node2&#45;&gt;Node6</title>
<path fill="none" stroke="midnightblue" d="M125.048,-108.223C134.499,-110.01 146.785,-112.332 159.011,-114.644"/>
<polygon fill="midnightblue" stroke="midnightblue" points="158.727,-118.152 169.203,-116.571 160.028,-111.274 158.727,-118.152"/>
</g>
<!-- Node7 -->
<g id="node7" class="node"><title>Node7</title>
<g id="a_node7"><a xlink:href="mpi__dummy_8F90.html#a55e9a1619aadb638b14211ce21d7d566" target="_top" xlink:title="mpi_finalize">
<polygon fill="white" stroke="black" points="173.5,-76.5 173.5,-95.5 245.5,-95.5 245.5,-76.5 173.5,-76.5"/>
<text text-anchor="middle" x="209.5" y="-83.5" font-family="Helvetica,sans-Serif" font-size="10.00">mpi_finalize</text>
</a>
</g>
</g>
<!-- Node2&#45;&gt;Node7 -->
<g id="edge6" class="edge"><title>Node2&#45;&gt;Node7</title>
<path fill="none" stroke="midnightblue" d="M125.048,-101.777C135.58,-99.7858 149.634,-97.1288 163.202,-94.5638"/>
<polygon fill="midnightblue" stroke="midnightblue" points="164.24,-97.9296 173.416,-92.6328 162.94,-91.0514 164.24,-97.9296"/>
</g>
<!-- Node8 -->
<g id="node8" class="node"><title>Node8</title>
<g id="a_node8"><a xlink:href="papi_8F90.html#a3a75ccdfbe05912fda48c3b134d114c0" target="_top" xlink:title="nek_flops">
<polygon fill="white" stroke="black" points="178.5,-38.5 178.5,-57.5 240.5,-57.5 240.5,-38.5 178.5,-38.5"/>
<text text-anchor="middle" x="209.5" y="-45.5" font-family="Helvetica,sans-Serif" font-size="10.00">nek_flops</text>
</a>
</g>
</g>
<!-- Node2&#45;&gt;Node8 -->
<g id="edge7" class="edge"><title>Node2&#45;&gt;Node8</title>
<path fill="none" stroke="midnightblue" d="M119.662,-95.3757C130.053,-87.1157 145.908,-75.2698 161,-67 164.493,-65.086 168.22,-63.2596 171.991,-61.5488"/>
<polygon fill="midnightblue" stroke="midnightblue" points="173.53,-64.6976 181.35,-57.5502 170.779,-58.2605 173.53,-64.6976"/>
</g>
<!-- Node10 -->
<g id="node10" class="node"><title>Node10</title>
<g id="a_node10"><a xlink:href="comm__mpi_8F90.html#a4acb4d8e379294232e9219bec063d8f3" target="_top" xlink:title="nekgsync">
<polygon fill="white" stroke="black" points="178.5,-0.5 178.5,-19.5 240.5,-19.5 240.5,-0.5 178.5,-0.5"/>
<text text-anchor="middle" x="209.5" y="-7.5" font-family="Helvetica,sans-Serif" font-size="10.00">nekgsync</text>
</a>
</g>
</g>
<!-- Node2&#45;&gt;Node10 -->
<g id="edge9" class="edge"><title>Node2&#45;&gt;Node10</title>
<path fill="none" stroke="midnightblue" d="M112.342,-95.4898C120.022,-79.6369 137.444,-47.7074 161,-29 163.573,-26.9563 166.395,-25.1064 169.34,-23.437"/>
<polygon fill="midnightblue" stroke="midnightblue" points="170.998,-26.5217 178.417,-18.9572 167.9,-20.2446 170.998,-26.5217"/>
</g>
<!-- Node4 -->
<g id="node4" class="node"><title>Node4</title>
<g id="a_node4"><a xlink:href="mpi__dummy_8F90.html#ae6a5ef945f87c2c27849696b70f3af2a" target="_top" xlink:title="mpi_wtime">
<polygon fill="white" stroke="black" points="301,-190.5 301,-209.5 367,-209.5 367,-190.5 301,-190.5"/>
<text text-anchor="middle" x="334" y="-197.5" font-family="Helvetica,sans-Serif" font-size="10.00">mpi_wtime</text>
</a>
</g>
</g>
<!-- Node3&#45;&gt;Node4 -->
<g id="edge3" class="edge"><title>Node3&#45;&gt;Node4</title>
<path fill="none" stroke="midnightblue" d="M258.212,-200C268.894,-200 280.154,-200 290.603,-200"/>
<polygon fill="midnightblue" stroke="midnightblue" points="290.73,-203.5 300.729,-200 290.729,-196.5 290.73,-203.5"/>
</g>
<!-- Node9 -->
<g id="node9" class="node"><title>Node9</title>
<g id="a_node9"><a xlink:href="papi_8F90.html#a838be3d39e287e29002d5a68c6ad2dd8" target="_top" xlink:title="getflops_papi">
<polygon fill="white" stroke="black" points="294,-38.5 294,-57.5 374,-57.5 374,-38.5 294,-38.5"/>
<text text-anchor="middle" x="334" y="-45.5" font-family="Helvetica,sans-Serif" font-size="10.00">getflops_papi</text>
</a>
</g>
</g>
<!-- Node8&#45;&gt;Node9 -->
<g id="edge8" class="edge"><title>Node8&#45;&gt;Node9</title>
<path fill="none" stroke="midnightblue" d="M240.781,-48C253.666,-48 269.032,-48 283.491,-48"/>
<polygon fill="midnightblue" stroke="midnightblue" points="283.811,-51.5001 293.811,-48 283.811,-44.5001 283.811,-51.5001"/>
</g>
<!-- Node11 -->
<g id="node11" class="node"><title>Node11</title>
<g id="a_node11"><a xlink:href="mpi__dummy_8F90.html#a070afe564196eb48413dbf1a9fbc99aa" target="_top" xlink:title="mpi_barrier">
<polygon fill="white" stroke="black" points="299,-0.5 299,-19.5 369,-19.5 369,-0.5 299,-0.5"/>
<text text-anchor="middle" x="334" y="-7.5" font-family="Helvetica,sans-Serif" font-size="10.00">mpi_barrier</text>
</a>
</g>
</g>
<!-- Node10&#45;&gt;Node11 -->
<g id="edge10" class="edge"><title>Node10&#45;&gt;Node11</title>
<path fill="none" stroke="midnightblue" d="M240.781,-10C255.195,-10 272.714,-10 288.594,-10"/>
<polygon fill="midnightblue" stroke="midnightblue" points="288.745,-13.5001 298.745,-10 288.745,-6.5001 288.745,-13.5001"/>
</g>
</g>
</svg>
