<?xml version="1.0" encoding="UTF-8" standalone="no"?>
<!DOCTYPE svg PUBLIC "-//W3C//DTD SVG 1.1//EN"
 "http://www.w3.org/Graphics/SVG/1.1/DTD/svg11.dtd">
<!-- Generated by graphviz version 2.38.0 (20140413.2041)
 -->
<!-- Title: genmesh Pages: 1 -->
<svg width="318pt" height="180pt"
 viewBox="0.00 0.00 318.00 180.00" xmlns="http://www.w3.org/2000/svg" xmlns:xlink="http://www.w3.org/1999/xlink">
<g id="graph0" class="graph" transform="scale(1 1) rotate(0) translate(4 176)">
<title>genmesh</title>
<polygon fill="white" stroke="none" points="-4,4 -4,-176 314,-176 314,4 -4,4"/>
<!-- Node1 -->
<g id="node1" class="node"><title>Node1</title>
<polygon fill="#bfbfbf" stroke="black" points="0,-76.5 0,-95.5 60,-95.5 60,-76.5 0,-76.5"/>
<text text-anchor="middle" x="30" y="-83.5" font-family="Helvetica,sans-Serif" font-size="10.00">genmesh</text>
</g>
<!-- Node2 -->
<g id="node2" class="node"><title>Node2</title>
<g id="a_node2"><a xlink:href="comm__mpi_8F90.html#ae425c1deb2e82d2007c97e1c4be990c8" target="_top" xlink:title="bcast">
<polygon fill="white" stroke="black" points="115.5,-152.5 115.5,-171.5 156.5,-171.5 156.5,-152.5 115.5,-152.5"/>
<text text-anchor="middle" x="136" y="-159.5" font-family="Helvetica,sans-Serif" font-size="10.00">bcast</text>
</a>
</g>
</g>
<!-- Node1&#45;&gt;Node2 -->
<g id="edge1" class="edge"><title>Node1&#45;&gt;Node2</title>
<path fill="none" stroke="midnightblue" d="M40.4579,-95.7677C52.5489,-107.891 74.5005,-128.71 96,-143 99.1989,-145.126 102.671,-147.159 106.181,-149.052"/>
<polygon fill="midnightblue" stroke="midnightblue" points="104.892,-152.322 115.396,-153.702 108.045,-146.073 104.892,-152.322"/>
</g>
<!-- Node4 -->
<g id="node4" class="node"><title>Node4</title>
<g id="a_node4"><a xlink:href="math_8F90.html#a692155d1d2ec380a9fdb2d81ef221625" target="_top" xlink:title="blank a string ">
<polygon fill="white" stroke="black" points="115.5,-114.5 115.5,-133.5 156.5,-133.5 156.5,-114.5 115.5,-114.5"/>
<text text-anchor="middle" x="136" y="-121.5" font-family="Helvetica,sans-Serif" font-size="10.00">blank</text>
</a>
</g>
</g>
<!-- Node1&#45;&gt;Node4 -->
<g id="edge3" class="edge"><title>Node1&#45;&gt;Node4</title>
<path fill="none" stroke="midnightblue" d="M57.2436,-95.589C72.0521,-101 90.5889,-107.773 105.849,-113.349"/>
<polygon fill="midnightblue" stroke="midnightblue" points="104.738,-116.669 115.331,-116.813 107.14,-110.094 104.738,-116.669"/>
</g>
<!-- Node5 -->
<g id="node5" class="node"><title>Node5</title>
<g id="a_node5"><a xlink:href="classparallel.html#a9a8fe6b8e5cb33426f1ebc5d75ae256f" target="_top" xlink:title="parallel::gllel">
<polygon fill="white" stroke="black" points="99,-76.5 99,-95.5 173,-95.5 173,-76.5 99,-76.5"/>
<text text-anchor="middle" x="136" y="-83.5" font-family="Helvetica,sans-Serif" font-size="10.00">parallel::gllel</text>
</a>
</g>
</g>
<!-- Node1&#45;&gt;Node5 -->
<g id="edge4" class="edge"><title>Node1&#45;&gt;Node5</title>
<path fill="none" stroke="midnightblue" d="M60.2466,-86C69.0707,-86 78.9838,-86 88.6348,-86"/>
<polygon fill="midnightblue" stroke="midnightblue" points="88.9405,-89.5001 98.9405,-86 88.9405,-82.5001 88.9405,-89.5001"/>
</g>
<!-- Node7 -->
<g id="node7" class="node"><title>Node7</title>
<g id="a_node7"><a xlink:href="classparallel.html#a07e279fd1cc6f4e9189bcaad37a0d3b6" target="_top" xlink:title="parallel::gllnid">
<polygon fill="white" stroke="black" points="96,-38.5 96,-57.5 176,-57.5 176,-38.5 96,-38.5"/>
<text text-anchor="middle" x="136" y="-45.5" font-family="Helvetica,sans-Serif" font-size="10.00">parallel::gllnid</text>
</a>
</g>
</g>
<!-- Node1&#45;&gt;Node7 -->
<g id="edge6" class="edge"><title>Node1&#45;&gt;Node7</title>
<path fill="none" stroke="midnightblue" d="M57.2436,-76.411C69.93,-71.7756 85.3527,-66.1404 99.1072,-61.1147"/>
<polygon fill="midnightblue" stroke="midnightblue" points="100.573,-64.3054 108.765,-57.5859 98.171,-57.7305 100.573,-64.3054"/>
</g>
<!-- Node8 -->
<g id="node8" class="node"><title>Node8</title>
<g id="a_node8"><a xlink:href="classparallel.html#ac36680315d0622d84df5d5baf3fb0acc" target="_top" xlink:title="parallel::lglel">
<polygon fill="white" stroke="black" points="99,-0.5 99,-19.5 173,-19.5 173,-0.5 99,-0.5"/>
<text text-anchor="middle" x="136" y="-7.5" font-family="Helvetica,sans-Serif" font-size="10.00">parallel::lglel</text>
</a>
</g>
</g>
<!-- Node1&#45;&gt;Node8 -->
<g id="edge8" class="edge"><title>Node1&#45;&gt;Node8</title>
<path fill="none" stroke="midnightblue" d="M40.4579,-76.2323C52.5489,-64.1088 74.5005,-43.2904 96,-29 98.411,-27.3975 100.977,-25.8478 103.598,-24.3713"/>
<polygon fill="midnightblue" stroke="midnightblue" points="105.341,-27.409 112.569,-19.6625 102.088,-21.2109 105.341,-27.409"/>
</g>
<!-- Node3 -->
<g id="node3" class="node"><title>Node3</title>
<g id="a_node3"><a xlink:href="mpi__dummy_8F90.html#ae0bd4baaea848988f45664ce0de33350" target="_top" xlink:title="mpi_bcast">
<polygon fill="white" stroke="black" points="229,-152.5 229,-171.5 293,-171.5 293,-152.5 229,-152.5"/>
<text text-anchor="middle" x="261" y="-159.5" font-family="Helvetica,sans-Serif" font-size="10.00">mpi_bcast</text>
</a>
</g>
</g>
<!-- Node2&#45;&gt;Node3 -->
<g id="edge2" class="edge"><title>Node2&#45;&gt;Node3</title>
<path fill="none" stroke="midnightblue" d="M156.762,-162C173.377,-162 197.687,-162 218.544,-162"/>
<polygon fill="midnightblue" stroke="midnightblue" points="218.766,-165.5 228.766,-162 218.766,-158.5 218.766,-165.5"/>
</g>
<!-- Node6 -->
<g id="node6" class="node"><title>Node6</title>
<g id="a_node6"><a xlink:href="classmesh.html#a383626b86a123c489b00681fcb13d503" target="_top" xlink:title="mesh::ieg_to_xyz">
<polygon fill="white" stroke="black" points="212,-57.5 212,-76.5 310,-76.5 310,-57.5 212,-57.5"/>
<text text-anchor="middle" x="261" y="-64.5" font-family="Helvetica,sans-Serif" font-size="10.00">mesh::ieg_to_xyz</text>
</a>
</g>
</g>
<!-- Node5&#45;&gt;Node6 -->
<g id="edge5" class="edge"><title>Node5&#45;&gt;Node6</title>
<path fill="none" stroke="midnightblue" d="M173.239,-80.4021C182.18,-79.021 191.983,-77.5067 201.68,-76.0087"/>
<polygon fill="midnightblue" stroke="midnightblue" points="202.359,-79.4455 211.707,-74.4599 201.29,-72.5276 202.359,-79.4455"/>
</g>
<!-- Node7&#45;&gt;Node6 -->
<g id="edge7" class="edge"><title>Node7&#45;&gt;Node6</title>
<path fill="none" stroke="midnightblue" d="M176.256,-54.064C184.341,-55.3129 193.019,-56.6534 201.616,-57.9813"/>
<polygon fill="midnightblue" stroke="midnightblue" points="201.213,-61.4605 211.63,-59.5282 202.281,-54.5425 201.213,-61.4605"/>
</g>
<!-- Node9 -->
<g id="node9" class="node"><title>Node9</title>
<g id="a_node9"><a xlink:href="classmesh.html#a8b6a250925cdc576e3ff6f7b18dc88c4" target="_top" xlink:title="mesh::xyz_to_ieg">
<polygon fill="white" stroke="black" points="212,-0.5 212,-19.5 310,-19.5 310,-0.5 212,-0.5"/>
<text text-anchor="middle" x="261" y="-7.5" font-family="Helvetica,sans-Serif" font-size="10.00">mesh::xyz_to_ieg</text>
</a>
</g>
</g>
<!-- Node8&#45;&gt;Node9 -->
<g id="edge9" class="edge"><title>Node8&#45;&gt;Node9</title>
<path fill="none" stroke="midnightblue" d="M173.239,-10C182.18,-10 191.983,-10 201.68,-10"/>
<polygon fill="midnightblue" stroke="midnightblue" points="201.707,-13.5001 211.707,-10 201.707,-6.5001 201.707,-13.5001"/>
</g>
</g>
</svg>
