<?xml version="1.0" encoding="UTF-8" standalone="no"?>
<!DOCTYPE svg PUBLIC "-//W3C//DTD SVG 1.1//EN"
 "http://www.w3.org/Graphics/SVG/1.1/DTD/svg11.dtd">
<!-- Generated by graphviz version 2.38.0 (20140413.2041)
 -->
<!-- Title: setup_convect Pages: 1 -->
<svg width="544pt" height="78pt"
 viewBox="0.00 0.00 544.00 78.04" xmlns="http://www.w3.org/2000/svg" xmlns:xlink="http://www.w3.org/1999/xlink">
<g id="graph0" class="graph" transform="scale(1 1) rotate(0) translate(4 74.0403)">
<title>setup_convect</title>
<polygon fill="white" stroke="none" points="-4,4 -4,-74.0403 540,-74.0403 540,4 -4,4"/>
<!-- Node1 -->
<g id="node1" class="node"><title>Node1</title>
<polygon fill="#bfbfbf" stroke="black" points="0,-12.5403 0,-31.5403 85,-31.5403 85,-12.5403 0,-12.5403"/>
<text text-anchor="middle" x="42.5" y="-19.5403" font-family="Helvetica,sans-Serif" font-size="10.00">setup_convect</text>
</g>
<!-- Node2 -->
<g id="node2" class="node"><title>Node2</title>
<g id="a_node2"><a xlink:href="drive1_8F90.html#ae177ea7efac97f35241521b782a671c0" target="_top" xlink:title="take a single time&#45;step ">
<polygon fill="white" stroke="black" points="121,-50.5403 121,-69.5403 201,-69.5403 201,-50.5403 121,-50.5403"/>
<text text-anchor="middle" x="161" y="-57.5403" font-family="Helvetica,sans-Serif" font-size="10.00">nek_advance</text>
</a>
</g>
</g>
<!-- Node1&#45;&gt;Node2 -->
<g id="edge1" class="edge"><title>Node1&#45;&gt;Node2</title>
<path fill="none" stroke="midnightblue" d="M82.8216,-34.8662C98.4534,-39.965 116.126,-45.7294 130.612,-50.4544"/>
<polygon fill="midnightblue" stroke="midnightblue" points="83.4903,-31.4029 72.8979,-31.6293 81.3195,-38.0578 83.4903,-31.4029"/>
</g>
<!-- Node6 -->
<g id="node6" class="node"><title>Node6</title>
<g id="a_node6"><a xlink:href="ic_8F90.html#af64028aefb1dff2a9f8a84ff024f44b0" target="_top" xlink:title="driver for restarts (1) Open restart file(s) (2) Check previous spatial discretization (3) Map (K1...">
<polygon fill="white" stroke="black" points="121,-12.5403 121,-31.5403 201,-31.5403 201,-12.5403 121,-12.5403"/>
<text text-anchor="middle" x="161" y="-19.5403" font-family="Helvetica,sans-Serif" font-size="10.00">restart_driver</text>
</a>
</g>
</g>
<!-- Node1&#45;&gt;Node6 -->
<g id="edge5" class="edge"><title>Node1&#45;&gt;Node6</title>
<path fill="none" stroke="midnightblue" d="M95.498,-22.0403C104.03,-22.0403 112.744,-22.0403 120.895,-22.0403"/>
<polygon fill="midnightblue" stroke="midnightblue" points="95.2301,-18.5404 85.2301,-22.0403 95.2301,-25.5404 95.2301,-18.5404"/>
</g>
<!-- Node7 -->
<g id="node7" class="node"><title>Node7</title>
<g id="a_node7"><a xlink:href="ic_8F90.html#acaefa33e86633e4a7a4b28347d4620d1" target="_top" xlink:title="Set initial conditions. ">
<polygon fill="white" stroke="black" points="271.5,-12.5403 271.5,-31.5403 315.5,-31.5403 315.5,-12.5403 271.5,-12.5403"/>
<text text-anchor="middle" x="293.5" y="-19.5403" font-family="Helvetica,sans-Serif" font-size="10.00">setics</text>
</a>
</g>
</g>
<!-- Node1&#45;&gt;Node7 -->
<g id="edge9" class="edge"><title>Node1&#45;&gt;Node7</title>
<path fill="none" stroke="midnightblue" d="M84.7385,-9.98437C96.3614,-7.12007 109.086,-4.47938 121,-3.04029 156.299,1.22355 165.631,0.593191 201,-3.04029 225.37,-5.54385 252.826,-11.7044 271.248,-16.3368"/>
<polygon fill="midnightblue" stroke="midnightblue" points="83.6645,-6.64678 74.8563,-12.5345 85.4136,-13.4248 83.6645,-6.64678"/>
</g>
<!-- Node3 -->
<g id="node3" class="node"><title>Node3</title>
<g id="a_node3"><a xlink:href="drive1_8F90.html#a18d3e839786263fc4cf91f7eeb714371" target="_top" xlink:title="take a chunk of time&#45;steps ">
<polygon fill="white" stroke="black" points="237,-50.5403 237,-69.5403 350,-69.5403 350,-50.5403 237,-50.5403"/>
<text text-anchor="middle" x="293.5" y="-57.5403" font-family="Helvetica,sans-Serif" font-size="10.00">nek__multi_advance</text>
</a>
</g>
</g>
<!-- Node2&#45;&gt;Node3 -->
<g id="edge2" class="edge"><title>Node2&#45;&gt;Node3</title>
<path fill="none" stroke="midnightblue" d="M211.191,-60.0403C219.607,-60.0403 228.403,-60.0403 236.97,-60.0403"/>
<polygon fill="midnightblue" stroke="midnightblue" points="211.154,-56.5404 201.154,-60.0403 211.154,-63.5404 211.154,-56.5404"/>
</g>
<!-- Node4 -->
<g id="node4" class="node"><title>Node4</title>
<g id="a_node4"><a xlink:href="drive1_8F90.html#a6ad57e0cf728f343e371ef8c9a02cd8a" target="_top" xlink:title="integrate the governing equations in time ">
<polygon fill="white" stroke="black" points="386,-50.5403 386,-69.5403 451,-69.5403 451,-50.5403 386,-50.5403"/>
<text text-anchor="middle" x="418.5" y="-57.5403" font-family="Helvetica,sans-Serif" font-size="10.00">nek_solve</text>
</a>
</g>
</g>
<!-- Node3&#45;&gt;Node4 -->
<g id="edge3" class="edge"><title>Node3&#45;&gt;Node4</title>
<path fill="none" stroke="midnightblue" d="M360.282,-60.0403C369.164,-60.0403 377.927,-60.0403 385.824,-60.0403"/>
<polygon fill="midnightblue" stroke="midnightblue" points="360.242,-56.5404 350.242,-60.0403 360.242,-63.5404 360.242,-56.5404"/>
</g>
<!-- Node5 -->
<g id="node5" class="node"><title>Node5</title>
<g id="a_node5"><a xlink:href="drive_8F90.html#a13048bf28dd0734640412d69349e3857" target="_top" xlink:title="NEK5000: Spectral Element Computational Fluid Dynamics Solver COPYRIGHT (c) 2008&#45;2010 UCHICAGO ARGONN...">
<polygon fill="white" stroke="black" points="487,-31.5403 487,-50.5403 536,-50.5403 536,-31.5403 487,-31.5403"/>
<text text-anchor="middle" x="511.5" y="-38.5403" font-family="Helvetica,sans-Serif" font-size="10.00">nekton</text>
</a>
</g>
</g>
<!-- Node4&#45;&gt;Node5 -->
<g id="edge4" class="edge"><title>Node4&#45;&gt;Node5</title>
<path fill="none" stroke="midnightblue" d="M460.906,-51.3951C469.759,-49.5467 478.82,-47.6549 486.734,-46.0025"/>
<polygon fill="midnightblue" stroke="midnightblue" points="460.146,-47.9783 451.072,-53.4483 461.576,-54.8305 460.146,-47.9783"/>
</g>
<!-- Node6&#45;&gt;Node7 -->
<g id="edge6" class="edge"><title>Node6&#45;&gt;Node7</title>
<path fill="none" stroke="midnightblue" d="M211.396,-22.0403C232.07,-22.0403 255.004,-22.0403 271.195,-22.0403"/>
<polygon fill="midnightblue" stroke="midnightblue" points="211.154,-18.5404 201.154,-22.0403 211.154,-25.5404 211.154,-18.5404"/>
</g>
<!-- Node8 -->
<g id="node8" class="node"><title>Node8</title>
<g id="a_node8"><a xlink:href="drive1_8F90.html#a87bd37ae2c18426f28f35cc3f24e4355" target="_top" xlink:title="initialize nek ">
<polygon fill="white" stroke="black" points="392,-12.5403 392,-31.5403 445,-31.5403 445,-12.5403 392,-12.5403"/>
<text text-anchor="middle" x="418.5" y="-19.5403" font-family="Helvetica,sans-Serif" font-size="10.00">nek_init</text>
</a>
</g>
</g>
<!-- Node7&#45;&gt;Node8 -->
<g id="edge7" class="edge"><title>Node7&#45;&gt;Node8</title>
<path fill="none" stroke="midnightblue" d="M325.749,-22.0403C346.247,-22.0403 372.715,-22.0403 391.951,-22.0403"/>
<polygon fill="midnightblue" stroke="midnightblue" points="325.644,-18.5404 315.644,-22.0403 325.644,-25.5404 325.644,-18.5404"/>
</g>
<!-- Node8&#45;&gt;Node5 -->
<g id="edge8" class="edge"><title>Node8&#45;&gt;Node5</title>
<path fill="none" stroke="midnightblue" d="M455.191,-29.4922C465.794,-31.706 477.143,-34.0756 486.784,-36.0886"/>
<polygon fill="midnightblue" stroke="midnightblue" points="455.838,-26.0519 445.334,-27.4341 454.407,-32.9041 455.838,-26.0519"/>
</g>
</g>
</svg>
