<?xml version="1.0" encoding="UTF-8" standalone="no"?>
<!DOCTYPE svg PUBLIC "-//W3C//DTD SVG 1.1//EN"
 "http://www.w3.org/Graphics/SVG/1.1/DTD/svg11.dtd">
<!-- Generated by graphviz version 2.38.0 (20140413.2041)
 -->
<!-- Title: setup_convect Pages: 1 -->
<svg width="1242pt" height="892pt"
 viewBox="0.00 0.00 1242.00 892.00" xmlns="http://www.w3.org/2000/svg" xmlns:xlink="http://www.w3.org/1999/xlink">
<g id="graph0" class="graph" transform="scale(1 1) rotate(0) translate(4 888)">
<title>setup_convect</title>
<polygon fill="white" stroke="none" points="-4,4 -4,-888 1238,-888 1238,4 -4,4"/>
<!-- Node1 -->
<g id="node1" class="node"><title>Node1</title>
<polygon fill="#bfbfbf" stroke="black" points="0,-769.5 0,-788.5 85,-788.5 85,-769.5 0,-769.5"/>
<text text-anchor="middle" x="42.5" y="-776.5" font-family="Helvetica,sans-Serif" font-size="10.00">setup_convect</text>
</g>
<!-- Node2 -->
<g id="node2" class="node"><title>Node2</title>
<g id="a_node2"><a xlink:href="comm__mpi_8F90.html#a59fcf8a02fe54ab37f61050e3ca6b197" target="_top" xlink:title="exitti">
<polygon fill="white" stroke="black" points="625,-760.5 625,-779.5 663,-779.5 663,-760.5 625,-760.5"/>
<text text-anchor="middle" x="644" y="-767.5" font-family="Helvetica,sans-Serif" font-size="10.00">exitti</text>
</a>
</g>
</g>
<!-- Node1&#45;&gt;Node2 -->
<g id="edge1" class="edge"><title>Node1&#45;&gt;Node2</title>
<path fill="none" stroke="midnightblue" d="M56.2413,-788.503C92.1997,-814.35 198.344,-884 298,-884 298,-884 298,-884 428.5,-884 510.489,-884 591.657,-818.252 625.966,-786.619"/>
<polygon fill="midnightblue" stroke="midnightblue" points="628.411,-789.124 633.29,-779.72 623.611,-784.028 628.411,-789.124"/>
</g>
<!-- Node16 -->
<g id="node16" class="node"><title>Node16</title>
<g id="a_node16"><a xlink:href="convect_8F90.html#a768d72f963bbcaf77ab9725ad7847c72" target="_top" xlink:title="Put vxd,vyd,vzd into rst form on fine mesh For rst form, see eq. (4.8.5) in Deville, Fischer, Mund (2002). ">
<polygon fill="white" stroke="black" points="121,-665.5 121,-684.5 220,-684.5 220,-665.5 121,-665.5"/>
<text text-anchor="middle" x="170.5" y="-672.5" font-family="Helvetica,sans-Serif" font-size="10.00">set_convect_new</text>
</a>
</g>
</g>
<!-- Node1&#45;&gt;Node16 -->
<g id="edge15" class="edge"><title>Node1&#45;&gt;Node16</title>
<path fill="none" stroke="midnightblue" d="M55.1279,-769.402C76.7873,-751.525 123.513,-712.957 150.051,-691.053"/>
<polygon fill="midnightblue" stroke="midnightblue" points="152.416,-693.639 157.9,-684.574 147.96,-688.241 152.416,-693.639"/>
</g>
<!-- Node3 -->
<g id="node3" class="node"><title>Node3</title>
<g id="a_node3"><a xlink:href="math_8F90.html#a692155d1d2ec380a9fdb2d81ef221625" target="_top" xlink:title="blank a string ">
<polygon fill="white" stroke="black" points="739.5,-722.5 739.5,-741.5 780.5,-741.5 780.5,-722.5 739.5,-722.5"/>
<text text-anchor="middle" x="760" y="-729.5" font-family="Helvetica,sans-Serif" font-size="10.00">blank</text>
</a>
</g>
</g>
<!-- Node2&#45;&gt;Node3 -->
<g id="edge2" class="edge"><title>Node2&#45;&gt;Node3</title>
<path fill="none" stroke="midnightblue" d="M663.064,-763.979C680.976,-758.008 708.716,-748.761 729.769,-741.744"/>
<polygon fill="midnightblue" stroke="midnightblue" points="731.114,-744.985 739.494,-738.502 728.9,-738.344 731.114,-744.985"/>
</g>
<!-- Node4 -->
<g id="node4" class="node"><title>Node4</title>
<g id="a_node4"><a xlink:href="math_8F90.html#ad7fb480cea001849621405f37167aab1" target="_top" xlink:title="chcopy">
<polygon fill="white" stroke="black" points="735,-798.5 735,-817.5 785,-817.5 785,-798.5 735,-798.5"/>
<text text-anchor="middle" x="760" y="-805.5" font-family="Helvetica,sans-Serif" font-size="10.00">chcopy</text>
</a>
</g>
</g>
<!-- Node2&#45;&gt;Node4 -->
<g id="edge3" class="edge"><title>Node2&#45;&gt;Node4</title>
<path fill="none" stroke="midnightblue" d="M663.064,-776.021C679.682,-781.561 704.757,-789.919 725.104,-796.701"/>
<polygon fill="midnightblue" stroke="midnightblue" points="724.062,-800.043 734.656,-799.885 726.276,-793.402 724.062,-800.043"/>
</g>
<!-- Node5 -->
<g id="node5" class="node"><title>Node5</title>
<g id="a_node5"><a xlink:href="byte_8c.html#a2da8eeb074dfd3ffbfb3e9a4d301cda4" target="_top" xlink:title="exitt">
<polygon fill="white" stroke="black" points="949,-627.5 949,-646.5 985,-646.5 985,-627.5 949,-627.5"/>
<text text-anchor="middle" x="967" y="-634.5" font-family="Helvetica,sans-Serif" font-size="10.00">exitt</text>
</a>
</g>
</g>
<!-- Node2&#45;&gt;Node5 -->
<g id="edge4" class="edge"><title>Node2&#45;&gt;Node5</title>
<path fill="none" stroke="midnightblue" d="M663.402,-763.491C671.065,-760.331 679.828,-756.105 687,-751 705.953,-737.509 702.639,-724.254 723,-713 798.371,-671.343 834.011,-709.304 913,-675 925.53,-669.558 938.022,-660.805 947.729,-653.07"/>
<polygon fill="midnightblue" stroke="midnightblue" points="950.012,-655.724 955.473,-646.644 945.542,-650.337 950.012,-655.724"/>
</g>
<!-- Node15 -->
<g id="node15" class="node"><title>Node15</title>
<g id="a_node15"><a xlink:href="classstring.html#ac6aad97d698bcdbf5c11ffa52d947ad8" target="_top" xlink:title="string::indx1">
<polygon fill="white" stroke="black" points="723.5,-760.5 723.5,-779.5 796.5,-779.5 796.5,-760.5 723.5,-760.5"/>
<text text-anchor="middle" x="760" y="-767.5" font-family="Helvetica,sans-Serif" font-size="10.00">string::indx1</text>
</a>
</g>
</g>
<!-- Node2&#45;&gt;Node15 -->
<g id="edge14" class="edge"><title>Node2&#45;&gt;Node15</title>
<path fill="none" stroke="midnightblue" d="M663.064,-770C676.499,-770 695.463,-770 712.987,-770"/>
<polygon fill="midnightblue" stroke="midnightblue" points="713.086,-773.5 723.086,-770 713.086,-766.5 713.086,-773.5"/>
</g>
<!-- Node6 -->
<g id="node6" class="node"><title>Node6</title>
<g id="a_node6"><a xlink:href="classctimer.html#abcecbc845c8ee72e13a19eaa30b80d77" target="_top" xlink:title="ctimer::dnekclock">
<polygon fill="white" stroke="black" points="1021,-779.5 1021,-798.5 1118,-798.5 1118,-779.5 1021,-779.5"/>
<text text-anchor="middle" x="1069.5" y="-786.5" font-family="Helvetica,sans-Serif" font-size="10.00">ctimer::dnekclock</text>
</a>
</g>
</g>
<!-- Node5&#45;&gt;Node6 -->
<g id="edge5" class="edge"><title>Node5&#45;&gt;Node6</title>
<path fill="none" stroke="midnightblue" d="M972.566,-646.512C981.127,-664.018 1000.58,-702.265 1021,-732 1030.65,-746.046 1043.01,-760.795 1052.7,-771.771"/>
<polygon fill="midnightblue" stroke="midnightblue" points="1050.22,-774.248 1059.5,-779.354 1055.43,-769.574 1050.22,-774.248"/>
</g>
<!-- Node8 -->
<g id="node8" class="node"><title>Node8</title>
<g id="a_node8"><a xlink:href="subs1_8F90.html#a339739b88994e5bb12bd923147f94983" target="_top" xlink:title="flush_io">
<polygon fill="white" stroke="black" points="1043,-627.5 1043,-646.5 1096,-646.5 1096,-627.5 1043,-627.5"/>
<text text-anchor="middle" x="1069.5" y="-634.5" font-family="Helvetica,sans-Serif" font-size="10.00">flush_io</text>
</a>
</g>
</g>
<!-- Node5&#45;&gt;Node8 -->
<g id="edge7" class="edge"><title>Node5&#45;&gt;Node8</title>
<path fill="none" stroke="midnightblue" d="M985.048,-637C998.003,-637 1016.29,-637 1032.44,-637"/>
<polygon fill="midnightblue" stroke="midnightblue" points="1032.67,-640.5 1042.67,-637 1032.67,-633.5 1032.67,-640.5"/>
</g>
<!-- Node9 -->
<g id="node9" class="node"><title>Node9</title>
<g id="a_node9"><a xlink:href="singlmesh_8F90.html#aef78ff219741b83c1ca784b869e9cacf" target="_top" xlink:title="Dummy for singlmesh. ">
<polygon fill="white" stroke="black" points="1029.5,-589.5 1029.5,-608.5 1109.5,-608.5 1109.5,-589.5 1029.5,-589.5"/>
<text text-anchor="middle" x="1069.5" y="-596.5" font-family="Helvetica,sans-Serif" font-size="10.00">happy_check</text>
</a>
</g>
</g>
<!-- Node5&#45;&gt;Node9 -->
<g id="edge8" class="edge"><title>Node5&#45;&gt;Node9</title>
<path fill="none" stroke="midnightblue" d="M985.048,-630.554C998.219,-625.574 1016.9,-618.511 1033.25,-612.33"/>
<polygon fill="midnightblue" stroke="midnightblue" points="1034.94,-615.432 1043.05,-608.621 1032.46,-608.884 1034.94,-615.432"/>
</g>
<!-- Node10 -->
<g id="node10" class="node"><title>Node10</title>
<g id="a_node10"><a xlink:href="mpi__dummy_8F90.html#a55e9a1619aadb638b14211ce21d7d566" target="_top" xlink:title="mpi_finalize">
<polygon fill="white" stroke="black" points="1033.5,-551.5 1033.5,-570.5 1105.5,-570.5 1105.5,-551.5 1033.5,-551.5"/>
<text text-anchor="middle" x="1069.5" y="-558.5" font-family="Helvetica,sans-Serif" font-size="10.00">mpi_finalize</text>
</a>
</g>
</g>
<!-- Node5&#45;&gt;Node10 -->
<g id="edge9" class="edge"><title>Node5&#45;&gt;Node10</title>
<path fill="none" stroke="midnightblue" d="M974.861,-627.295C984.093,-614.851 1001.61,-593.298 1021,-580 1023.71,-578.141 1026.63,-576.423 1029.64,-574.843"/>
<polygon fill="midnightblue" stroke="midnightblue" points="1031.27,-577.943 1038.83,-570.519 1028.29,-571.609 1031.27,-577.943"/>
</g>
<!-- Node11 -->
<g id="node11" class="node"><title>Node11</title>
<g id="a_node11"><a xlink:href="papi_8F90.html#a3a75ccdfbe05912fda48c3b134d114c0" target="_top" xlink:title="nek_flops">
<polygon fill="white" stroke="black" points="1038.5,-665.5 1038.5,-684.5 1100.5,-684.5 1100.5,-665.5 1038.5,-665.5"/>
<text text-anchor="middle" x="1069.5" y="-672.5" font-family="Helvetica,sans-Serif" font-size="10.00">nek_flops</text>
</a>
</g>
</g>
<!-- Node5&#45;&gt;Node11 -->
<g id="edge10" class="edge"><title>Node5&#45;&gt;Node11</title>
<path fill="none" stroke="midnightblue" d="M985.048,-643.446C998.219,-648.426 1016.9,-655.489 1033.25,-661.67"/>
<polygon fill="midnightblue" stroke="midnightblue" points="1032.46,-665.116 1043.05,-665.379 1034.94,-658.568 1032.46,-665.116"/>
</g>
<!-- Node13 -->
<g id="node13" class="node"><title>Node13</title>
<g id="a_node13"><a xlink:href="comm__mpi_8F90.html#a4acb4d8e379294232e9219bec063d8f3" target="_top" xlink:title="nekgsync">
<polygon fill="white" stroke="black" points="1038.5,-703.5 1038.5,-722.5 1100.5,-722.5 1100.5,-703.5 1038.5,-703.5"/>
<text text-anchor="middle" x="1069.5" y="-710.5" font-family="Helvetica,sans-Serif" font-size="10.00">nekgsync</text>
</a>
</g>
</g>
<!-- Node5&#45;&gt;Node13 -->
<g id="edge12" class="edge"><title>Node5&#45;&gt;Node13</title>
<path fill="none" stroke="midnightblue" d="M974.861,-646.705C984.093,-659.149 1001.61,-680.702 1021,-694 1023.71,-695.859 1026.63,-697.577 1029.64,-699.157"/>
<polygon fill="midnightblue" stroke="midnightblue" points="1028.29,-702.391 1038.83,-703.481 1031.27,-696.057 1028.29,-702.391"/>
</g>
<!-- Node7 -->
<g id="node7" class="node"><title>Node7</title>
<g id="a_node7"><a xlink:href="mpi__dummy_8F90.html#ae6a5ef945f87c2c27849696b70f3af2a" target="_top" xlink:title="mpi_wtime">
<polygon fill="white" stroke="black" points="1161,-779.5 1161,-798.5 1227,-798.5 1227,-779.5 1161,-779.5"/>
<text text-anchor="middle" x="1194" y="-786.5" font-family="Helvetica,sans-Serif" font-size="10.00">mpi_wtime</text>
</a>
</g>
</g>
<!-- Node6&#45;&gt;Node7 -->
<g id="edge6" class="edge"><title>Node6&#45;&gt;Node7</title>
<path fill="none" stroke="midnightblue" d="M1118.21,-789C1128.89,-789 1140.15,-789 1150.6,-789"/>
<polygon fill="midnightblue" stroke="midnightblue" points="1150.73,-792.5 1160.73,-789 1150.73,-785.5 1150.73,-792.5"/>
</g>
<!-- Node12 -->
<g id="node12" class="node"><title>Node12</title>
<g id="a_node12"><a xlink:href="papi_8F90.html#a838be3d39e287e29002d5a68c6ad2dd8" target="_top" xlink:title="getflops_papi">
<polygon fill="white" stroke="black" points="1154,-665.5 1154,-684.5 1234,-684.5 1234,-665.5 1154,-665.5"/>
<text text-anchor="middle" x="1194" y="-672.5" font-family="Helvetica,sans-Serif" font-size="10.00">getflops_papi</text>
</a>
</g>
</g>
<!-- Node11&#45;&gt;Node12 -->
<g id="edge11" class="edge"><title>Node11&#45;&gt;Node12</title>
<path fill="none" stroke="midnightblue" d="M1100.78,-675C1113.67,-675 1129.03,-675 1143.49,-675"/>
<polygon fill="midnightblue" stroke="midnightblue" points="1143.81,-678.5 1153.81,-675 1143.81,-671.5 1143.81,-678.5"/>
</g>
<!-- Node14 -->
<g id="node14" class="node"><title>Node14</title>
<g id="a_node14"><a xlink:href="mpi__dummy_8F90.html#a070afe564196eb48413dbf1a9fbc99aa" target="_top" xlink:title="mpi_barrier">
<polygon fill="white" stroke="black" points="1159,-703.5 1159,-722.5 1229,-722.5 1229,-703.5 1159,-703.5"/>
<text text-anchor="middle" x="1194" y="-710.5" font-family="Helvetica,sans-Serif" font-size="10.00">mpi_barrier</text>
</a>
</g>
</g>
<!-- Node13&#45;&gt;Node14 -->
<g id="edge13" class="edge"><title>Node13&#45;&gt;Node14</title>
<path fill="none" stroke="midnightblue" d="M1100.78,-713C1115.19,-713 1132.71,-713 1148.59,-713"/>
<polygon fill="midnightblue" stroke="midnightblue" points="1148.74,-716.5 1158.74,-713 1148.74,-709.5 1148.74,-716.5"/>
</g>
<!-- Node16&#45;&gt;Node6 -->
<g id="edge16" class="edge"><title>Node16&#45;&gt;Node6</title>
<path fill="none" stroke="midnightblue" d="M178.625,-684.684C206.141,-720.858 309.766,-846 426.5,-846 426.5,-846 426.5,-846 874,-846 935.21,-846 1003.04,-819.681 1040.23,-802.811"/>
<polygon fill="midnightblue" stroke="midnightblue" points="1041.84,-805.923 1049.44,-798.541 1038.9,-799.572 1041.84,-805.923"/>
</g>
<!-- Node17 -->
<g id="node17" class="node"><title>Node17</title>
<g id="a_node17"><a xlink:href="classinterp.html#a2637cb8249580b149248f7a6b0ededdf" target="_top" xlink:title="Get pointer to jgl() for interpolation pair (mx,md) ">
<polygon fill="white" stroke="black" points="378,-665.5 378,-684.5 477,-684.5 477,-665.5 378,-665.5"/>
<text text-anchor="middle" x="427.5" y="-672.5" font-family="Helvetica,sans-Serif" font-size="10.00">interp::get_int_ptr</text>
</a>
</g>
</g>
<!-- Node16&#45;&gt;Node17 -->
<g id="edge17" class="edge"><title>Node16&#45;&gt;Node17</title>
<path fill="none" stroke="midnightblue" d="M220.064,-675C262.025,-675 322.792,-675 367.536,-675"/>
<polygon fill="midnightblue" stroke="midnightblue" points="367.683,-678.5 377.683,-675 367.683,-671.5 367.683,-678.5"/>
</g>
<!-- Node27 -->
<g id="node27" class="node"><title>Node27</title>
<g id="a_node27"><a xlink:href="induct_8F90.html#adcae8f87adfb3b7c619cd72c46ccd4ac" target="_top" xlink:title="Eulerian scheme, add convection term to forcing function. ">
<polygon fill="white" stroke="black" points="256,-622.5 256,-641.5 342,-641.5 342,-622.5 256,-622.5"/>
<text text-anchor="middle" x="299" y="-629.5" font-family="Helvetica,sans-Serif" font-size="10.00">set_dealias_rx</text>
</a>
</g>
</g>
<!-- Node16&#45;&gt;Node27 -->
<g id="edge31" class="edge"><title>Node16&#45;&gt;Node27</title>
<path fill="none" stroke="midnightblue" d="M199.574,-665.457C217.508,-659.361 240.973,-651.385 260.494,-644.749"/>
<polygon fill="midnightblue" stroke="midnightblue" points="261.663,-648.049 270.004,-641.516 259.41,-641.421 261.663,-648.049"/>
</g>
<!-- Node28 -->
<g id="node28" class="node"><title>Node28</title>
<g id="a_node28"><a xlink:href="navier8_8F90.html#a5c307bcd1af1a0036e75f65db3d06e39" target="_top" xlink:title="Spectral interpolation from A to B via tensor products. ">
<polygon fill="white" stroke="black" points="398,-545.5 398,-564.5 457,-564.5 457,-545.5 398,-545.5"/>
<text text-anchor="middle" x="427.5" y="-552.5" font-family="Helvetica,sans-Serif" font-size="10.00">specmpn</text>
</a>
</g>
</g>
<!-- Node16&#45;&gt;Node28 -->
<g id="edge59" class="edge"><title>Node16&#45;&gt;Node28</title>
<path fill="none" stroke="midnightblue" d="M182.254,-665.409C197.646,-652.096 227.279,-627.969 256,-613 299.027,-590.575 352.54,-574.025 388.017,-564.467"/>
<polygon fill="midnightblue" stroke="midnightblue" points="389.191,-567.777 397.968,-561.842 387.406,-561.009 389.191,-567.777"/>
</g>
<!-- Node18 -->
<g id="node18" class="node"><title>Node18</title>
<g id="a_node18"><a xlink:href="interp__mod_8F90.html#aef5d48d354e9e03de35748eecb7e42f9" target="_top" xlink:title="Check array limits. ">
<polygon fill="white" stroke="black" points="513,-731.5 513,-750.5 565,-750.5 565,-731.5 513,-731.5"/>
<text text-anchor="middle" x="539" y="-738.5" font-family="Helvetica,sans-Serif" font-size="10.00">lim_chk</text>
</a>
</g>
</g>
<!-- Node17&#45;&gt;Node18 -->
<g id="edge18" class="edge"><title>Node17&#45;&gt;Node18</title>
<path fill="none" stroke="midnightblue" d="M444.657,-684.739C462.795,-695.671 492.43,-713.533 513.438,-726.196"/>
<polygon fill="midnightblue" stroke="midnightblue" points="511.761,-729.271 522.133,-731.436 515.375,-723.276 511.761,-729.271"/>
</g>
<!-- Node19 -->
<g id="node19" class="node"><title>Node19</title>
<g id="a_node19"><a xlink:href="interp__mod_8F90.html#a58f02ae257240ef90f8a1c9e5b092d1c" target="_top" xlink:title="Generate interpolation from np GLL points to mp GL points jgl = interpolation matrix, mapping from velocity nodes to pressure jgt = transpose of interpolation matrix w = work array of size (np+mp) np = number of points on GLL grid mp = number of points on GL grid. ">
<polygon fill="white" stroke="black" points="513,-665.5 513,-684.5 565,-684.5 565,-665.5 513,-665.5"/>
<text text-anchor="middle" x="539" y="-672.5" font-family="Helvetica,sans-Serif" font-size="10.00">gen_int</text>
</a>
</g>
</g>
<!-- Node17&#45;&gt;Node19 -->
<g id="edge20" class="edge"><title>Node17&#45;&gt;Node19</title>
<path fill="none" stroke="midnightblue" d="M477.166,-675C485.744,-675 494.525,-675 502.65,-675"/>
<polygon fill="midnightblue" stroke="midnightblue" points="502.883,-678.5 512.883,-675 502.883,-671.5 502.883,-678.5"/>
</g>
<!-- Node18&#45;&gt;Node2 -->
<g id="edge19" class="edge"><title>Node18&#45;&gt;Node2</title>
<path fill="none" stroke="midnightblue" d="M565.197,-748.094C580.197,-752.318 599.268,-757.687 614.774,-762.053"/>
<polygon fill="midnightblue" stroke="midnightblue" points="614.272,-765.547 624.846,-764.889 616.169,-758.809 614.272,-765.547"/>
</g>
<!-- Node20 -->
<g id="node20" class="node"><title>Node20</title>
<g id="a_node20"><a xlink:href="classspeclib.html#a932ca9ca470532f6bae3ed77ca2e1466" target="_top" xlink:title="Generate NP Gauss Legendre points (Z) and weights (W) associated with Jacobi polynomial P(N)(alpha=0...">
<polygon fill="white" stroke="black" points="607,-608.5 607,-627.5 681,-627.5 681,-608.5 607,-608.5"/>
<text text-anchor="middle" x="644" y="-615.5" font-family="Helvetica,sans-Serif" font-size="10.00">speclib::zwgl</text>
</a>
</g>
</g>
<!-- Node19&#45;&gt;Node20 -->
<g id="edge21" class="edge"><title>Node19&#45;&gt;Node20</title>
<path fill="none" stroke="midnightblue" d="M554.225,-665.389C566.389,-657.354 584.495,-645.824 601,-637 604.299,-635.236 607.795,-633.483 611.304,-631.795"/>
<polygon fill="midnightblue" stroke="midnightblue" points="612.909,-634.908 620.501,-627.518 609.958,-628.561 612.909,-634.908"/>
</g>
<!-- Node23 -->
<g id="node23" class="node"><title>Node23</title>
<g id="a_node23"><a xlink:href="classspeclib.html#ab649647711dc444ca710b98bf943b0d8" target="_top" xlink:title="speclib::zwgll">
<polygon fill="white" stroke="black" points="605.5,-646.5 605.5,-665.5 682.5,-665.5 682.5,-646.5 605.5,-646.5"/>
<text text-anchor="middle" x="644" y="-653.5" font-family="Helvetica,sans-Serif" font-size="10.00">speclib::zwgll</text>
</a>
</g>
</g>
<!-- Node19&#45;&gt;Node23 -->
<g id="edge26" class="edge"><title>Node19&#45;&gt;Node23</title>
<path fill="none" stroke="midnightblue" d="M565.197,-670.352C574.313,-668.67 584.934,-666.711 595.343,-664.791"/>
<polygon fill="midnightblue" stroke="midnightblue" points="596.004,-668.228 605.203,-662.972 594.734,-661.344 596.004,-668.228"/>
</g>
<!-- Node25 -->
<g id="node25" class="node"><title>Node25</title>
<g id="a_node25"><a xlink:href="fast3d_8F90.html#ad007f6eca12b1b9307f46e56bcc40a59" target="_top" xlink:title="This routine evaluates the derivative based on all points in the stencils. It is more memory efficien...">
<polygon fill="white" stroke="black" points="601,-722.5 601,-741.5 687,-741.5 687,-722.5 601,-722.5"/>
<text text-anchor="middle" x="644" y="-729.5" font-family="Helvetica,sans-Serif" font-size="10.00">fd_weights_full</text>
</a>
</g>
</g>
<!-- Node19&#45;&gt;Node25 -->
<g id="edge29" class="edge"><title>Node19&#45;&gt;Node25</title>
<path fill="none" stroke="midnightblue" d="M554.225,-684.611C566.389,-692.646 584.495,-704.176 601,-713 604.299,-714.764 607.795,-716.517 611.304,-718.205"/>
<polygon fill="midnightblue" stroke="midnightblue" points="609.958,-721.439 620.501,-722.482 612.909,-715.092 609.958,-721.439"/>
</g>
<!-- Node26 -->
<g id="node26" class="node"><title>Node26</title>
<g id="a_node26"><a xlink:href="navier1_8F90.html#a17c0ecae12cc5c6096939885da90ad2b" target="_top" xlink:title="transpose">
<polygon fill="white" stroke="black" points="612,-684.5 612,-703.5 676,-703.5 676,-684.5 612,-684.5"/>
<text text-anchor="middle" x="644" y="-691.5" font-family="Helvetica,sans-Serif" font-size="10.00">transpose</text>
</a>
</g>
</g>
<!-- Node19&#45;&gt;Node26 -->
<g id="edge30" class="edge"><title>Node19&#45;&gt;Node26</title>
<path fill="none" stroke="midnightblue" d="M565.197,-679.648C576.177,-681.673 589.339,-684.101 601.687,-686.379"/>
<polygon fill="midnightblue" stroke="midnightblue" points="601.333,-689.873 611.802,-688.245 602.603,-682.989 601.333,-689.873"/>
</g>
<!-- Node21 -->
<g id="node21" class="node"><title>Node21</title>
<g id="a_node21"><a xlink:href="classspeclib.html#a631f538efe1b48d5b557e06446dcb278" target="_top" xlink:title="speclib::zwgj">
<polygon fill="white" stroke="black" points="723,-608.5 723,-627.5 797,-627.5 797,-608.5 723,-608.5"/>
<text text-anchor="middle" x="760" y="-615.5" font-family="Helvetica,sans-Serif" font-size="10.00">speclib::zwgj</text>
</a>
</g>
</g>
<!-- Node20&#45;&gt;Node21 -->
<g id="edge22" class="edge"><title>Node20&#45;&gt;Node21</title>
<path fill="none" stroke="midnightblue" d="M681.07,-618C691.051,-618 702.025,-618 712.509,-618"/>
<polygon fill="midnightblue" stroke="midnightblue" points="712.773,-621.5 722.773,-618 712.773,-614.5 712.773,-621.5"/>
</g>
<!-- Node21&#45;&gt;Node5 -->
<g id="edge23" class="edge"><title>Node21&#45;&gt;Node5</title>
<path fill="none" stroke="midnightblue" d="M786.094,-608.414C816.742,-598.159 869.832,-585.124 913,-599 926.339,-603.288 939.166,-612.31 948.86,-620.487"/>
<polygon fill="midnightblue" stroke="midnightblue" points="946.716,-623.265 956.506,-627.315 951.379,-618.044 946.716,-623.265"/>
</g>
<!-- Node22 -->
<g id="node22" class="node"><title>Node22</title>
<g id="a_node22"><a xlink:href="classspeclib.html#a70378dbc00d8034b969f6b8143a9f79b" target="_top" xlink:title="speclib::zwgjd">
<polygon fill="white" stroke="red" points="833,-608.5 833,-627.5 913,-627.5 913,-608.5 833,-608.5"/>
<text text-anchor="middle" x="873" y="-615.5" font-family="Helvetica,sans-Serif" font-size="10.00">speclib::zwgjd</text>
</a>
</g>
</g>
<!-- Node21&#45;&gt;Node22 -->
<g id="edge24" class="edge"><title>Node21&#45;&gt;Node22</title>
<path fill="none" stroke="midnightblue" d="M797.039,-618C805.139,-618 813.874,-618 822.419,-618"/>
<polygon fill="midnightblue" stroke="midnightblue" points="822.692,-621.5 832.692,-618 822.692,-614.5 822.692,-621.5"/>
</g>
<!-- Node22&#45;&gt;Node5 -->
<g id="edge25" class="edge"><title>Node22&#45;&gt;Node5</title>
<path fill="none" stroke="midnightblue" d="M913.016,-626.058C921.734,-627.858 930.794,-629.729 938.904,-631.404"/>
<polygon fill="midnightblue" stroke="midnightblue" points="938.41,-634.876 948.911,-633.471 939.826,-628.02 938.41,-634.876"/>
</g>
<!-- Node24 -->
<g id="node24" class="node"><title>Node24</title>
<g id="a_node24"><a xlink:href="classspeclib.html#a7f8bbfa94e61b0b498a78f57a3b2d46d" target="_top" xlink:title="speclib::zwglj">
<polygon fill="white" stroke="red" points="834.5,-646.5 834.5,-665.5 911.5,-665.5 911.5,-646.5 834.5,-646.5"/>
<text text-anchor="middle" x="873" y="-653.5" font-family="Helvetica,sans-Serif" font-size="10.00">speclib::zwglj</text>
</a>
</g>
</g>
<!-- Node23&#45;&gt;Node24 -->
<g id="edge27" class="edge"><title>Node23&#45;&gt;Node24</title>
<path fill="none" stroke="midnightblue" d="M682.739,-656C721.523,-656 782.027,-656 824.149,-656"/>
<polygon fill="midnightblue" stroke="midnightblue" points="824.171,-659.5 834.171,-656 824.17,-652.5 824.171,-659.5"/>
</g>
<!-- Node24&#45;&gt;Node5 -->
<g id="edge28" class="edge"><title>Node24&#45;&gt;Node5</title>
<path fill="none" stroke="midnightblue" d="M911.685,-648.217C920.858,-646.323 930.487,-644.334 939.047,-642.566"/>
<polygon fill="midnightblue" stroke="midnightblue" points="939.77,-645.991 948.856,-640.541 938.354,-639.136 939.77,-645.991"/>
</g>
<!-- Node27&#45;&gt;Node17 -->
<g id="edge33" class="edge"><title>Node27&#45;&gt;Node17</title>
<path fill="none" stroke="midnightblue" d="M328.074,-641.543C346.008,-647.639 369.473,-655.615 388.994,-662.251"/>
<polygon fill="midnightblue" stroke="midnightblue" points="387.91,-665.579 398.504,-665.484 390.163,-658.951 387.91,-665.579"/>
</g>
<!-- Node27&#45;&gt;Node20 -->
<g id="edge32" class="edge"><title>Node27&#45;&gt;Node20</title>
<path fill="none" stroke="midnightblue" d="M342.059,-630.283C406.584,-627.65 529.556,-622.63 596.598,-619.894"/>
<polygon fill="midnightblue" stroke="midnightblue" points="597.012,-623.38 606.86,-619.475 596.726,-616.386 597.012,-623.38"/>
</g>
<!-- Node27&#45;&gt;Node28 -->
<g id="edge34" class="edge"><title>Node27&#45;&gt;Node28</title>
<path fill="none" stroke="midnightblue" d="M315.766,-622.404C337.355,-609.262 376.339,-585.533 401.817,-570.024"/>
<polygon fill="midnightblue" stroke="midnightblue" points="403.814,-572.907 410.536,-564.717 400.174,-566.927 403.814,-572.907"/>
</g>
<!-- Node28&#45;&gt;Node5 -->
<g id="edge35" class="edge"><title>Node28&#45;&gt;Node5</title>
<path fill="none" stroke="midnightblue" d="M457.263,-552.147C498.394,-548.32 576.405,-542 643,-542 643,-542 643,-542 761,-542 831.581,-542 851.749,-552.927 913,-588 927.558,-596.336 941.384,-609.354 951.263,-619.877"/>
<polygon fill="midnightblue" stroke="midnightblue" points="948.69,-622.25 957.994,-627.319 953.882,-617.555 948.69,-622.25"/>
</g>
<!-- Node29 -->
<g id="node29" class="node"><title>Node29</title>
<g id="a_node29"><a xlink:href="mxm__wrapper_8F90.html#ab9ec2260a10061af6ce1c52f3c8a41da" target="_top" xlink:title="Compute matrix&#45;matrix product C = A*B. ">
<polygon fill="white" stroke="black" points="520,-380.5 520,-399.5 558,-399.5 558,-380.5 520,-380.5"/>
<text text-anchor="middle" x="539" y="-387.5" font-family="Helvetica,sans-Serif" font-size="10.00">mxm</text>
</a>
</g>
</g>
<!-- Node28&#45;&gt;Node29 -->
<g id="edge36" class="edge"><title>Node28&#45;&gt;Node29</title>
<path fill="none" stroke="midnightblue" d="M435.022,-545.173C452.866,-518.284 502.7,-443.191 525.87,-408.278"/>
<polygon fill="midnightblue" stroke="midnightblue" points="529.036,-409.837 531.65,-399.569 523.204,-405.966 529.036,-409.837"/>
</g>
<!-- Node30 -->
<g id="node30" class="node"><title>Node30</title>
<g id="a_node30"><a xlink:href="mxm__bgq_8F90.html#a8faaef428336095704ece51624bbfe92" target="_top" xlink:title="mxm_bgq_8">
<polygon fill="white" stroke="black" points="607,-228.5 607,-247.5 681,-247.5 681,-228.5 607,-228.5"/>
<text text-anchor="middle" x="644" y="-235.5" font-family="Helvetica,sans-Serif" font-size="10.00">mxm_bgq_8</text>
</a>
</g>
</g>
<!-- Node29&#45;&gt;Node30 -->
<g id="edge37" class="edge"><title>Node29&#45;&gt;Node30</title>
<path fill="none" stroke="midnightblue" d="M541.981,-380.291C547.339,-356.304 564.261,-293.549 601,-257 602.404,-255.603 603.93,-254.299 605.539,-253.082"/>
<polygon fill="midnightblue" stroke="midnightblue" points="607.506,-255.98 614.124,-247.706 603.791,-250.047 607.506,-255.98"/>
</g>
<!-- Node31 -->
<g id="node31" class="node"><title>Node31</title>
<g id="a_node31"><a xlink:href="mxm__bgq_8F90.html#a27529ace9834454b8906f29e02718629" target="_top" xlink:title="mxm_bgq_12">
<polygon fill="white" stroke="black" points="604,-494.5 604,-513.5 684,-513.5 684,-494.5 604,-494.5"/>
<text text-anchor="middle" x="644" y="-501.5" font-family="Helvetica,sans-Serif" font-size="10.00">mxm_bgq_12</text>
</a>
</g>
</g>
<!-- Node29&#45;&gt;Node31 -->
<g id="edge38" class="edge"><title>Node29&#45;&gt;Node31</title>
<path fill="none" stroke="midnightblue" d="M543.937,-399.644C552.03,-418.404 572.223,-460.145 601,-485 602.722,-486.488 604.58,-487.879 606.523,-489.178"/>
<polygon fill="midnightblue" stroke="midnightblue" points="605.003,-492.341 615.418,-494.284 608.488,-486.27 605.003,-492.341"/>
</g>
<!-- Node32 -->
<g id="node32" class="node"><title>Node32</title>
<g id="a_node32"><a xlink:href="mxm__bgq_8F90.html#a3fda9ea4bc7a5713a19d6939fa2b541f" target="_top" xlink:title="mxm_bgq_16">
<polygon fill="white" stroke="black" points="604,-456.5 604,-475.5 684,-475.5 684,-456.5 604,-456.5"/>
<text text-anchor="middle" x="644" y="-463.5" font-family="Helvetica,sans-Serif" font-size="10.00">mxm_bgq_16</text>
</a>
</g>
</g>
<!-- Node29&#45;&gt;Node32 -->
<g id="edge39" class="edge"><title>Node29&#45;&gt;Node32</title>
<path fill="none" stroke="midnightblue" d="M548.694,-399.916C559.853,-412.192 580.259,-433.168 601,-447 603.58,-448.721 606.341,-450.356 609.17,-451.892"/>
<polygon fill="midnightblue" stroke="midnightblue" points="607.783,-455.111 618.294,-456.444 610.908,-448.848 607.783,-455.111"/>
</g>
<!-- Node33 -->
<g id="node33" class="node"><title>Node33</title>
<g id="a_node33"><a xlink:href="mxm__bgq_8F90.html#a8a70163b4dbfdbfcce7bff170597fcad" target="_top" xlink:title="mxm_bgq_10">
<polygon fill="white" stroke="black" points="604,-418.5 604,-437.5 684,-437.5 684,-418.5 604,-418.5"/>
<text text-anchor="middle" x="644" y="-425.5" font-family="Helvetica,sans-Serif" font-size="10.00">mxm_bgq_10</text>
</a>
</g>
</g>
<!-- Node29&#45;&gt;Node33 -->
<g id="edge40" class="edge"><title>Node29&#45;&gt;Node33</title>
<path fill="none" stroke="midnightblue" d="M558.414,-396.794C572.055,-401.826 591.066,-408.84 607.61,-414.943"/>
<polygon fill="midnightblue" stroke="midnightblue" points="606.413,-418.233 617.007,-418.41 608.836,-411.665 606.413,-418.233"/>
</g>
<!-- Node34 -->
<g id="node34" class="node"><title>Node34</title>
<g id="a_node34"><a xlink:href="mxm__bgq_8F90.html#af192c3c8b982aa5bbc2a757156718a91" target="_top" xlink:title="mxm_bgq_6">
<polygon fill="white" stroke="black" points="607,-380.5 607,-399.5 681,-399.5 681,-380.5 607,-380.5"/>
<text text-anchor="middle" x="644" y="-387.5" font-family="Helvetica,sans-Serif" font-size="10.00">mxm_bgq_6</text>
</a>
</g>
</g>
<!-- Node29&#45;&gt;Node34 -->
<g id="edge41" class="edge"><title>Node29&#45;&gt;Node34</title>
<path fill="none" stroke="midnightblue" d="M558.414,-390C569.112,-390 583.113,-390 596.636,-390"/>
<polygon fill="midnightblue" stroke="midnightblue" points="596.822,-393.5 606.822,-390 596.822,-386.5 596.822,-393.5"/>
</g>
<!-- Node35 -->
<g id="node35" class="node"><title>Node35</title>
<g id="a_node35"><a xlink:href="mxm__std_8F90.html#af07f4b22fdc3488ca321736743f14b01" target="_top" xlink:title="mxm44_2">
<polygon fill="white" stroke="black" points="613,-342.5 613,-361.5 675,-361.5 675,-342.5 613,-342.5"/>
<text text-anchor="middle" x="644" y="-349.5" font-family="Helvetica,sans-Serif" font-size="10.00">mxm44_2</text>
</a>
</g>
</g>
<!-- Node29&#45;&gt;Node35 -->
<g id="edge42" class="edge"><title>Node29&#45;&gt;Node35</title>
<path fill="none" stroke="midnightblue" d="M558.414,-383.206C572.055,-378.174 591.066,-371.16 607.61,-365.057"/>
<polygon fill="midnightblue" stroke="midnightblue" points="608.836,-368.335 617.007,-361.59 606.413,-361.767 608.836,-368.335"/>
</g>
<!-- Node36 -->
<g id="node36" class="node"><title>Node36</title>
<g id="a_node36"><a xlink:href="mxm__std_8F90.html#ac63fe7516a18dc57dfe913ad2c1453be" target="_top" xlink:title="mxm44_0">
<polygon fill="white" stroke="black" points="729,-494.5 729,-513.5 791,-513.5 791,-494.5 729,-494.5"/>
<text text-anchor="middle" x="760" y="-501.5" font-family="Helvetica,sans-Serif" font-size="10.00">mxm44_0</text>
</a>
</g>
</g>
<!-- Node29&#45;&gt;Node36 -->
<g id="edge43" class="edge"><title>Node29&#45;&gt;Node36</title>
<path fill="none" stroke="midnightblue" d="M546.52,-380.443C556.433,-366.865 576.731,-342.574 601,-333 636.555,-318.973 657.02,-309.291 687,-333 741.454,-376.064 680.497,-430.107 723,-485 723.919,-486.187 724.934,-487.309 726.022,-488.366"/>
<polygon fill="midnightblue" stroke="midnightblue" points="723.952,-491.189 734.031,-494.457 728.19,-485.618 723.952,-491.189"/>
</g>
<!-- Node37 -->
<g id="node37" class="node"><title>Node37</title>
<g id="a_node37"><a xlink:href="mxm__std_8F90.html#aa9e8685c4a72f18fb5d1ee88ed17a3d6" target="_top" xlink:title="unrolled loop version ">
<polygon fill="white" stroke="red" points="620.5,-266.5 620.5,-285.5 667.5,-285.5 667.5,-266.5 620.5,-266.5"/>
<text text-anchor="middle" x="644" y="-273.5" font-family="Helvetica,sans-Serif" font-size="10.00">mxmf2</text>
</a>
</g>
</g>
<!-- Node29&#45;&gt;Node37 -->
<g id="edge44" class="edge"><title>Node29&#45;&gt;Node37</title>
<path fill="none" stroke="midnightblue" d="M544.685,-380.278C553.613,-362.54 574.551,-324.499 601,-300 604.658,-296.611 608.879,-293.504 613.204,-290.729"/>
<polygon fill="midnightblue" stroke="midnightblue" points="615.231,-293.598 622.083,-285.517 611.687,-287.561 615.231,-293.598"/>
</g>
<!-- Node37&#45;&gt;Node36 -->
<g id="edge58" class="edge"><title>Node37&#45;&gt;Node36</title>
<path fill="none" stroke="midnightblue" d="M667.768,-284.497C674.926,-288.226 682.205,-293.311 687,-300 735.801,-368.08 673.065,-417.747 723,-485 723.782,-486.053 724.64,-487.054 725.559,-488.003"/>
<polygon fill="midnightblue" stroke="midnightblue" points="723.528,-490.86 733.54,-494.326 727.875,-485.373 723.528,-490.86"/>
</g>
<!-- Node38 -->
<g id="node38" class="node"><title>Node38</title>
<g id="a_node38"><a xlink:href="mxm__std_8F90.html#af4bd28930a9d674bbcad09ad75fa81ef" target="_top" xlink:title="mxf8">
<polygon fill="white" stroke="black" points="740.5,-152.5 740.5,-171.5 779.5,-171.5 779.5,-152.5 740.5,-152.5"/>
<text text-anchor="middle" x="760" y="-159.5" font-family="Helvetica,sans-Serif" font-size="10.00">mxf8</text>
</a>
</g>
</g>
<!-- Node37&#45;&gt;Node38 -->
<g id="edge45" class="edge"><title>Node37&#45;&gt;Node38</title>
<path fill="none" stroke="midnightblue" d="M667.724,-269.138C674.546,-266.235 681.634,-262.273 687,-257 713.659,-230.804 697.149,-207.994 723,-181 725.47,-178.421 728.367,-176.12 731.427,-174.087"/>
<polygon fill="midnightblue" stroke="midnightblue" points="733.3,-177.049 740.262,-169.063 729.839,-170.964 733.3,-177.049"/>
</g>
<!-- Node39 -->
<g id="node39" class="node"><title>Node39</title>
<g id="a_node39"><a xlink:href="mxm__std_8F90.html#a7d3ac03517b3934b98857b22f7f78788" target="_top" xlink:title="mxf1">
<polygon fill="white" stroke="black" points="740.5,-114.5 740.5,-133.5 779.5,-133.5 779.5,-114.5 740.5,-114.5"/>
<text text-anchor="middle" x="760" y="-121.5" font-family="Helvetica,sans-Serif" font-size="10.00">mxf1</text>
</a>
</g>
</g>
<!-- Node37&#45;&gt;Node39 -->
<g id="edge46" class="edge"><title>Node37&#45;&gt;Node39</title>
<path fill="none" stroke="midnightblue" d="M667.734,-269.745C674.719,-266.854 681.9,-262.746 687,-257 722.271,-217.262 688.953,-183.791 723,-143 725.335,-140.202 728.19,-137.761 731.26,-135.646"/>
<polygon fill="midnightblue" stroke="midnightblue" points="733.284,-138.521 740.233,-130.523 729.813,-132.442 733.284,-138.521"/>
</g>
<!-- Node40 -->
<g id="node40" class="node"><title>Node40</title>
<g id="a_node40"><a xlink:href="mxm__std_8F90.html#acd223c583f3a9242fda7a1b8897b624d" target="_top" xlink:title="mxf2">
<polygon fill="white" stroke="black" points="740.5,-76.5 740.5,-95.5 779.5,-95.5 779.5,-76.5 740.5,-76.5"/>
<text text-anchor="middle" x="760" y="-83.5" font-family="Helvetica,sans-Serif" font-size="10.00">mxf2</text>
</a>
</g>
</g>
<!-- Node37&#45;&gt;Node40 -->
<g id="edge47" class="edge"><title>Node37&#45;&gt;Node40</title>
<path fill="none" stroke="midnightblue" d="M667.548,-270.138C674.688,-267.256 682.012,-263.053 687,-257 731.152,-203.424 680.497,-159.893 723,-105 725.344,-101.972 728.309,-99.3747 731.527,-97.1613"/>
<polygon fill="midnightblue" stroke="midnightblue" points="733.391,-100.128 740.382,-92.1671 729.953,-94.0311 733.391,-100.128"/>
</g>
<!-- Node41 -->
<g id="node41" class="node"><title>Node41</title>
<g id="a_node41"><a xlink:href="mxm__std_8F90.html#abff718a387aa354f77d0e8b0ffa98867" target="_top" xlink:title="mxf3">
<polygon fill="white" stroke="black" points="740.5,-38.5 740.5,-57.5 779.5,-57.5 779.5,-38.5 740.5,-38.5"/>
<text text-anchor="middle" x="760" y="-45.5" font-family="Helvetica,sans-Serif" font-size="10.00">mxf3</text>
</a>
</g>
</g>
<!-- Node37&#45;&gt;Node41 -->
<g id="edge48" class="edge"><title>Node37&#45;&gt;Node41</title>
<path fill="none" stroke="midnightblue" d="M667.706,-270.265C674.859,-267.393 682.15,-263.164 687,-257 740.143,-189.452 671.934,-136.131 723,-67 725.275,-63.9198 728.2,-61.2922 731.398,-59.0638"/>
<polygon fill="midnightblue" stroke="midnightblue" points="733.261,-62.0311 740.241,-54.0601 729.814,-55.9388 733.261,-62.0311"/>
</g>
<!-- Node42 -->
<g id="node42" class="node"><title>Node42</title>
<g id="a_node42"><a xlink:href="mxm__std_8F90.html#a2f4e4e1b4daebbd4d0580029d0f54016" target="_top" xlink:title="mxf4">
<polygon fill="white" stroke="black" points="740.5,-0.5 740.5,-19.5 779.5,-19.5 779.5,-0.5 740.5,-0.5"/>
<text text-anchor="middle" x="760" y="-7.5" font-family="Helvetica,sans-Serif" font-size="10.00">mxf4</text>
</a>
</g>
</g>
<!-- Node37&#45;&gt;Node42 -->
<g id="edge49" class="edge"><title>Node37&#45;&gt;Node42</title>
<path fill="none" stroke="midnightblue" d="M667.814,-270.349C674.976,-267.484 682.246,-263.238 687,-257 749.19,-175.411 663.318,-112.442 723,-29 725.228,-25.8853 728.125,-23.2378 731.31,-20.9994"/>
<polygon fill="midnightblue" stroke="midnightblue" points="733.172,-23.9672 740.144,-15.9896 729.719,-17.8781 733.172,-23.9672"/>
</g>
<!-- Node43 -->
<g id="node43" class="node"><title>Node43</title>
<g id="a_node43"><a xlink:href="mxm__std_8F90.html#a5a6d5c31350c601ba8327b75a72cba0a" target="_top" xlink:title="mxf5">
<polygon fill="white" stroke="black" points="740.5,-456.5 740.5,-475.5 779.5,-475.5 779.5,-456.5 740.5,-456.5"/>
<text text-anchor="middle" x="760" y="-463.5" font-family="Helvetica,sans-Serif" font-size="10.00">mxf5</text>
</a>
</g>
</g>
<!-- Node37&#45;&gt;Node43 -->
<g id="edge50" class="edge"><title>Node37&#45;&gt;Node43</title>
<path fill="none" stroke="midnightblue" d="M667.586,-284.631C674.73,-288.37 682.046,-293.428 687,-300 727.488,-353.714 681.617,-393.972 723,-447 725.356,-450.019 728.328,-452.611 731.549,-454.822"/>
<polygon fill="midnightblue" stroke="midnightblue" points="729.976,-457.953 740.406,-459.815 733.413,-451.855 729.976,-457.953"/>
</g>
<!-- Node44 -->
<g id="node44" class="node"><title>Node44</title>
<g id="a_node44"><a xlink:href="mxm__std_8F90.html#a38a142edde1e72a918d280747a319f7a" target="_top" xlink:title="mxf6">
<polygon fill="white" stroke="black" points="740.5,-418.5 740.5,-437.5 779.5,-437.5 779.5,-418.5 740.5,-418.5"/>
<text text-anchor="middle" x="760" y="-425.5" font-family="Helvetica,sans-Serif" font-size="10.00">mxf6</text>
</a>
</g>
</g>
<!-- Node37&#45;&gt;Node44 -->
<g id="edge51" class="edge"><title>Node37&#45;&gt;Node44</title>
<path fill="none" stroke="midnightblue" d="M667.731,-285.092C674.715,-288.823 681.897,-293.758 687,-300 719.291,-339.499 690.052,-370.048 723,-409 725.353,-411.782 728.219,-414.214 731.295,-416.325"/>
<polygon fill="midnightblue" stroke="midnightblue" points="729.852,-419.53 740.272,-421.443 733.319,-413.45 729.852,-419.53"/>
</g>
<!-- Node45 -->
<g id="node45" class="node"><title>Node45</title>
<g id="a_node45"><a xlink:href="mxm__std_8F90.html#a1919ea16c0a7b4e248e45e983c29d965" target="_top" xlink:title="mxf7">
<polygon fill="white" stroke="black" points="740.5,-380.5 740.5,-399.5 779.5,-399.5 779.5,-380.5 740.5,-380.5"/>
<text text-anchor="middle" x="760" y="-387.5" font-family="Helvetica,sans-Serif" font-size="10.00">mxf7</text>
</a>
</g>
</g>
<!-- Node37&#45;&gt;Node45 -->
<g id="edge52" class="edge"><title>Node37&#45;&gt;Node45</title>
<path fill="none" stroke="midnightblue" d="M667.199,-285.561C674.148,-289.323 681.443,-294.159 687,-300 711.386,-325.634 698.188,-345.779 723,-371 725.504,-373.546 728.423,-375.827 731.494,-377.848"/>
<polygon fill="midnightblue" stroke="midnightblue" points="729.913,-380.975 740.338,-382.863 733.366,-374.886 729.913,-380.975"/>
</g>
<!-- Node46 -->
<g id="node46" class="node"><title>Node46</title>
<g id="a_node46"><a xlink:href="mxm__std_8F90.html#afb2e2cde9040ab037e3586b0deef3851" target="_top" xlink:title="mxf12">
<polygon fill="white" stroke="black" points="737.5,-342.5 737.5,-361.5 782.5,-361.5 782.5,-342.5 737.5,-342.5"/>
<text text-anchor="middle" x="760" y="-349.5" font-family="Helvetica,sans-Serif" font-size="10.00">mxf12</text>
</a>
</g>
</g>
<!-- Node37&#45;&gt;Node46 -->
<g id="edge53" class="edge"><title>Node37&#45;&gt;Node46</title>
<path fill="none" stroke="midnightblue" d="M663.955,-285.657C671.373,-289.735 679.81,-294.751 687,-300 704.531,-312.797 705.257,-320.499 723,-333 725.123,-334.496 727.379,-335.954 729.685,-337.354"/>
<polygon fill="midnightblue" stroke="midnightblue" points="728.228,-340.551 738.656,-342.425 731.673,-334.457 728.228,-340.551"/>
</g>
<!-- Node47 -->
<g id="node47" class="node"><title>Node47</title>
<g id="a_node47"><a xlink:href="mxm__std_8F90.html#a8ab38e8d33e92444b748159b82759c27" target="_top" xlink:title="mxf9">
<polygon fill="white" stroke="black" points="740.5,-304.5 740.5,-323.5 779.5,-323.5 779.5,-304.5 740.5,-304.5"/>
<text text-anchor="middle" x="760" y="-311.5" font-family="Helvetica,sans-Serif" font-size="10.00">mxf9</text>
</a>
</g>
</g>
<!-- Node37&#45;&gt;Node47 -->
<g id="edge54" class="edge"><title>Node37&#45;&gt;Node47</title>
<path fill="none" stroke="midnightblue" d="M667.523,-283.508C685.647,-289.549 711.221,-298.074 730.722,-304.574"/>
<polygon fill="midnightblue" stroke="midnightblue" points="729.701,-307.923 740.295,-307.765 731.915,-301.282 729.701,-307.923"/>
</g>
<!-- Node48 -->
<g id="node48" class="node"><title>Node48</title>
<g id="a_node48"><a xlink:href="mxm__std_8F90.html#a5786b175fcbe28ecafe1d878687c3ccf" target="_top" xlink:title="mxf10">
<polygon fill="white" stroke="black" points="737.5,-266.5 737.5,-285.5 782.5,-285.5 782.5,-266.5 737.5,-266.5"/>
<text text-anchor="middle" x="760" y="-273.5" font-family="Helvetica,sans-Serif" font-size="10.00">mxf10</text>
</a>
</g>
</g>
<!-- Node37&#45;&gt;Node48 -->
<g id="edge55" class="edge"><title>Node37&#45;&gt;Node48</title>
<path fill="none" stroke="midnightblue" d="M667.523,-276C684.526,-276 708.085,-276 727.036,-276"/>
<polygon fill="midnightblue" stroke="midnightblue" points="727.298,-279.5 737.298,-276 727.298,-272.5 727.298,-279.5"/>
</g>
<!-- Node49 -->
<g id="node49" class="node"><title>Node49</title>
<g id="a_node49"><a xlink:href="mxm__std_8F90.html#a244c7a41b5b7a22acba71c34552c2774" target="_top" xlink:title="mxf11">
<polygon fill="white" stroke="black" points="737.5,-228.5 737.5,-247.5 782.5,-247.5 782.5,-228.5 737.5,-228.5"/>
<text text-anchor="middle" x="760" y="-235.5" font-family="Helvetica,sans-Serif" font-size="10.00">mxf11</text>
</a>
</g>
</g>
<!-- Node37&#45;&gt;Node49 -->
<g id="edge56" class="edge"><title>Node37&#45;&gt;Node49</title>
<path fill="none" stroke="midnightblue" d="M667.523,-268.492C684.684,-262.772 708.524,-254.825 727.563,-248.479"/>
<polygon fill="midnightblue" stroke="midnightblue" points="728.918,-251.717 737.298,-245.234 726.704,-245.076 728.918,-251.717"/>
</g>
<!-- Node50 -->
<g id="node50" class="node"><title>Node50</title>
<g id="a_node50"><a xlink:href="mxm__std_8F90.html#a6a048a62b47a5c2327279e158c1689df" target="_top" xlink:title="mxf13">
<polygon fill="white" stroke="black" points="737.5,-190.5 737.5,-209.5 782.5,-209.5 782.5,-190.5 737.5,-190.5"/>
<text text-anchor="middle" x="760" y="-197.5" font-family="Helvetica,sans-Serif" font-size="10.00">mxf13</text>
</a>
</g>
</g>
<!-- Node37&#45;&gt;Node50 -->
<g id="edge57" class="edge"><title>Node37&#45;&gt;Node50</title>
<path fill="none" stroke="midnightblue" d="M667.675,-267.663C674.199,-264.765 681.132,-261.177 687,-257 705.953,-243.509 704.466,-233.061 723,-219 725.02,-217.468 727.181,-215.992 729.403,-214.586"/>
<polygon fill="midnightblue" stroke="midnightblue" points="731.21,-217.584 738.113,-209.546 727.705,-211.525 731.21,-217.584"/>
</g>
</g>
</svg>
