<?xml version="1.0" encoding="UTF-8" standalone="no"?>
<!DOCTYPE svg PUBLIC "-//W3C//DTD SVG 1.1//EN"
 "http://www.w3.org/Graphics/SVG/1.1/DTD/svg11.dtd">
<!-- Generated by graphviz version 2.38.0 (20140413.2041)
 -->
<!-- Title: jl/crs.h Pages: 1 -->
<svg width="401pt" height="84pt"
 viewBox="0.00 0.00 400.50 84.00" xmlns="http://www.w3.org/2000/svg" xmlns:xlink="http://www.w3.org/1999/xlink">
<g id="graph0" class="graph" transform="scale(1 1) rotate(0) translate(4 80)">
<title>jl/crs.h</title>
<polygon fill="white" stroke="none" points="-4,4 -4,-80 396.5,-80 396.5,4 -4,4"/>
<!-- Node1 -->
<g id="node1" class="node"><title>Node1</title>
<polygon fill="#bfbfbf" stroke="black" points="147,-56.5 147,-75.5 194,-75.5 194,-56.5 147,-56.5"/>
<text text-anchor="middle" x="170.5" y="-63.5" font-family="Helvetica,sans-Serif" font-size="10.00">jl/crs.h</text>
</g>
<!-- Node2 -->
<g id="node2" class="node"><title>Node2</title>
<g id="a_node2"><a xlink:href="fcrs_8c.html" target="_top" xlink:title="jl/fcrs.c">
<polygon fill="white" stroke="black" points="0,-0.5 0,-19.5 49,-19.5 49,-0.5 0,-0.5"/>
<text text-anchor="middle" x="24.5" y="-7.5" font-family="Helvetica,sans-Serif" font-size="10.00">jl/fcrs.c</text>
</a>
</g>
</g>
<!-- Node1&#45;&gt;Node2 -->
<g id="edge1" class="edge"><title>Node1&#45;&gt;Node2</title>
<path fill="none" stroke="midnightblue" d="M137.801,-52.9058C110.352,-42.7536 71.8318,-28.5063 47.5259,-19.5164"/>
<polygon fill="midnightblue" stroke="midnightblue" points="136.773,-56.2572 147.366,-56.4435 139.201,-49.6919 136.773,-56.2572"/>
</g>
<!-- Node3 -->
<g id="node3" class="node"><title>Node3</title>
<g id="a_node3"><a xlink:href="crs__test_8c.html" target="_top" xlink:title="jl/tests/crs_test.c">
<polygon fill="white" stroke="black" points="67,-0.5 67,-19.5 162,-19.5 162,-0.5 67,-0.5"/>
<text text-anchor="middle" x="114.5" y="-7.5" font-family="Helvetica,sans-Serif" font-size="10.00">jl/tests/crs_test.c</text>
</a>
</g>
</g>
<!-- Node1&#45;&gt;Node3 -->
<g id="edge2" class="edge"><title>Node1&#45;&gt;Node3</title>
<path fill="none" stroke="midnightblue" d="M154.17,-49.2533C144.235,-39.6731 131.912,-27.7906 123.661,-19.8339"/>
<polygon fill="midnightblue" stroke="midnightblue" points="151.875,-51.902 161.503,-56.324 156.734,-46.8631 151.875,-51.902"/>
</g>
<!-- Node4 -->
<g id="node4" class="node"><title>Node4</title>
<g id="a_node4"><a xlink:href="xxt__test_8c.html" target="_top" xlink:title="jl/tests/xxt_test.c">
<polygon fill="white" stroke="black" points="180.5,-0.5 180.5,-19.5 274.5,-19.5 274.5,-0.5 180.5,-0.5"/>
<text text-anchor="middle" x="227.5" y="-7.5" font-family="Helvetica,sans-Serif" font-size="10.00">jl/tests/xxt_test.c</text>
</a>
</g>
</g>
<!-- Node1&#45;&gt;Node4 -->
<g id="edge3" class="edge"><title>Node1&#45;&gt;Node4</title>
<path fill="none" stroke="midnightblue" d="M187.121,-49.2533C197.234,-39.6731 209.777,-27.7906 218.175,-19.8339"/>
<polygon fill="midnightblue" stroke="midnightblue" points="184.51,-46.9056 179.658,-56.324 189.325,-51.9873 184.51,-46.9056"/>
</g>
<!-- Node5 -->
<g id="node5" class="node"><title>Node5</title>
<g id="a_node5"><a xlink:href="xxt__test2_8c.html" target="_top" xlink:title="jl/tests/xxt_test2.c">
<polygon fill="white" stroke="black" points="292.5,-0.5 292.5,-19.5 392.5,-19.5 392.5,-0.5 292.5,-0.5"/>
<text text-anchor="middle" x="342.5" y="-7.5" font-family="Helvetica,sans-Serif" font-size="10.00">jl/tests/xxt_test2.c</text>
</a>
</g>
</g>
<!-- Node1&#45;&gt;Node5 -->
<g id="edge4" class="edge"><title>Node1&#45;&gt;Node5</title>
<path fill="none" stroke="midnightblue" d="M203.984,-54.4876C236.451,-44.2943 285.1,-29.0209 315.264,-19.5509"/>
<polygon fill="midnightblue" stroke="midnightblue" points="202.548,-51.27 194.055,-57.6048 204.644,-57.9486 202.548,-51.27"/>
</g>
</g>
</svg>
