<?xml version="1.0" encoding="UTF-8" standalone="no"?>
<!DOCTYPE svg PUBLIC "-//W3C//DTD SVG 1.1//EN"
 "http://www.w3.org/Graphics/SVG/1.1/DTD/svg11.dtd">
<!-- Generated by graphviz version 2.38.0 (20140413.2041)
 -->
<!-- Title: jl/crystal.h Pages: 1 -->
<svg width="738pt" height="95pt"
 viewBox="0.00 0.00 737.50 95.00" xmlns="http://www.w3.org/2000/svg" xmlns:xlink="http://www.w3.org/1999/xlink">
<g id="graph0" class="graph" transform="scale(1 1) rotate(0) translate(4 91)">
<title>jl/crystal.h</title>
<polygon fill="white" stroke="none" points="-4,4 -4,-91 733.5,-91 733.5,4 -4,4"/>
<!-- Node1 -->
<g id="node1" class="node"><title>Node1</title>
<polygon fill="#bfbfbf" stroke="black" points="246,-67.5 246,-86.5 309,-86.5 309,-67.5 246,-67.5"/>
<text text-anchor="middle" x="277.5" y="-74.5" font-family="Helvetica,sans-Serif" font-size="10.00">jl/crystal.h</text>
</g>
<!-- Node2 -->
<g id="node2" class="node"><title>Node2</title>
<g id="a_node2"><a xlink:href="fcrystal_8c.html" target="_top" xlink:title="jl/fcrystal.c">
<polygon fill="white" stroke="black" points="0,-6 0,-25 65,-25 65,-6 0,-6"/>
<text text-anchor="middle" x="32.5" y="-13" font-family="Helvetica,sans-Serif" font-size="10.00">jl/fcrystal.c</text>
</a>
</g>
</g>
<!-- Node1&#45;&gt;Node2 -->
<g id="edge1" class="edge"><title>Node1&#45;&gt;Node2</title>
<path fill="none" stroke="midnightblue" d="M235.729,-68.3462C194.23,-60.3777 128.952,-46.8567 73.5,-31 67.5475,-29.2979 61.2017,-27.1985 55.3253,-25.1309"/>
<polygon fill="midnightblue" stroke="midnightblue" points="235.269,-71.8214 245.747,-70.2505 236.576,-64.9445 235.269,-71.8214"/>
</g>
<!-- Node3 -->
<g id="node3" class="node"><title>Node3</title>
<g id="a_node3"><a xlink:href="findpts_8c.html" target="_top" xlink:title="jl/findpts.c">
<polygon fill="white" stroke="black" points="83,-6 83,-25 146,-25 146,-6 83,-6"/>
<text text-anchor="middle" x="114.5" y="-13" font-family="Helvetica,sans-Serif" font-size="10.00">jl/findpts.c</text>
</a>
</g>
</g>
<!-- Node1&#45;&gt;Node3 -->
<g id="edge2" class="edge"><title>Node1&#45;&gt;Node3</title>
<path fill="none" stroke="midnightblue" d="M244.442,-63.9329C212.761,-52.3683 165.751,-35.2083 137.811,-25.0091"/>
<polygon fill="midnightblue" stroke="midnightblue" points="243.552,-67.3338 254.146,-67.4751 245.953,-60.7582 243.552,-67.3338"/>
</g>
<!-- Node4 -->
<g id="node4" class="node"><title>Node4</title>
<g id="a_node4"><a xlink:href="gs_8c.html" target="_top" xlink:title="jl/gs.c">
<polygon fill="white" stroke="black" points="164,-6 164,-25 207,-25 207,-6 164,-6"/>
<text text-anchor="middle" x="185.5" y="-13" font-family="Helvetica,sans-Serif" font-size="10.00">jl/gs.c</text>
</a>
</g>
</g>
<!-- Node1&#45;&gt;Node4 -->
<g id="edge3" class="edge"><title>Node1&#45;&gt;Node4</title>
<path fill="none" stroke="midnightblue" d="M255.744,-61.9295C238.008,-50.4589 213.54,-34.6343 198.657,-25.0091"/>
<polygon fill="midnightblue" stroke="midnightblue" points="254.021,-64.9834 264.319,-67.4751 257.822,-59.1055 254.021,-64.9834"/>
</g>
<!-- Node5 -->
<g id="node5" class="node"><title>Node5</title>
<g id="a_node5"><a xlink:href="sarray__transfer_8c.html" target="_top" xlink:title="jl/sarray_transfer.c">
<polygon fill="white" stroke="black" points="225.5,-6 225.5,-25 329.5,-25 329.5,-6 225.5,-6"/>
<text text-anchor="middle" x="277.5" y="-13" font-family="Helvetica,sans-Serif" font-size="10.00">jl/sarray_transfer.c</text>
</a>
</g>
</g>
<!-- Node1&#45;&gt;Node5 -->
<g id="edge4" class="edge"><title>Node1&#45;&gt;Node5</title>
<path fill="none" stroke="midnightblue" d="M277.5,-57.3165C277.5,-46.4962 277.5,-33.398 277.5,-25.0091"/>
<polygon fill="midnightblue" stroke="midnightblue" points="274,-57.4751 277.5,-67.4751 281,-57.4751 274,-57.4751"/>
</g>
<!-- Node6 -->
<g id="node6" class="node"><title>Node6</title>
<g id="a_node6"><a xlink:href="crystal__test_8c.html" target="_top" xlink:title="jl/tests/crystal_test.c">
<polygon fill="white" stroke="black" points="348,-6 348,-25 459,-25 459,-6 348,-6"/>
<text text-anchor="middle" x="403.5" y="-13" font-family="Helvetica,sans-Serif" font-size="10.00">jl/tests/crystal_test.c</text>
</a>
</g>
</g>
<!-- Node1&#45;&gt;Node6 -->
<g id="edge5" class="edge"><title>Node1&#45;&gt;Node6</title>
<path fill="none" stroke="midnightblue" d="M304.66,-63.1742C329.11,-51.6287 364.35,-34.9875 385.481,-25.0091"/>
<polygon fill="midnightblue" stroke="midnightblue" points="303.101,-60.0401 295.553,-67.4751 306.09,-66.3699 303.101,-60.0401"/>
</g>
<!-- Node7 -->
<g id="node7" class="node"><title>Node7</title>
<g id="a_node7"><a xlink:href="findpts__test_8c.html" target="_top" xlink:title="jl/tests/findpts_test.c">
<polygon fill="white" stroke="black" points="477.5,-6 477.5,-25 589.5,-25 589.5,-6 477.5,-6"/>
<text text-anchor="middle" x="533.5" y="-13" font-family="Helvetica,sans-Serif" font-size="10.00">jl/tests/findpts_test.c</text>
</a>
</g>
</g>
<!-- Node1&#45;&gt;Node7 -->
<g id="edge6" class="edge"><title>Node1&#45;&gt;Node7</title>
<path fill="none" stroke="midnightblue" d="M319.14,-66.3219C368.351,-54.8843 449.477,-36.0287 496.547,-25.0886"/>
<polygon fill="midnightblue" stroke="midnightblue" points="318.095,-62.9714 309.147,-68.6445 319.68,-69.7896 318.095,-62.9714"/>
</g>
<!-- Node8 -->
<g id="node8" class="node"><title>Node8</title>
<g id="a_node8"><a xlink:href="sarray__transfer__test_8c.html" target="_top" xlink:title="jl/tests/sarray_transfer\l_test.c">
<polygon fill="white" stroke="black" points="607.5,-0.5 607.5,-30.5 729.5,-30.5 729.5,-0.5 607.5,-0.5"/>
<text text-anchor="start" x="615.5" y="-18.5" font-family="Helvetica,sans-Serif" font-size="10.00">jl/tests/sarray_transfer</text>
<text text-anchor="middle" x="668.5" y="-7.5" font-family="Helvetica,sans-Serif" font-size="10.00">_test.c</text>
</a>
</g>
</g>
<!-- Node1&#45;&gt;Node8 -->
<g id="edge7" class="edge"><title>Node1&#45;&gt;Node8</title>
<path fill="none" stroke="midnightblue" d="M319.104,-71.0447C380.437,-63.541 498.652,-48.3213 598.5,-31 601.435,-30.4909 604.434,-29.9498 607.461,-29.3872"/>
<polygon fill="midnightblue" stroke="midnightblue" points="318.549,-67.5863 309.045,-72.2684 319.394,-74.535 318.549,-67.5863"/>
</g>
</g>
</svg>
