<?xml version="1.0" encoding="UTF-8" standalone="no"?>
<!DOCTYPE svg PUBLIC "-//W3C//DTD SVG 1.1//EN"
 "http://www.w3.org/Graphics/SVG/1.1/DTD/svg11.dtd">
<!-- Generated by graphviz version 2.38.0 (20140413.2041)
 -->
<!-- Title: G Pages: 1 -->
<svg width="350pt" height="476pt"
 viewBox="0.00 0.00 350.00 476.00" xmlns="http://www.w3.org/2000/svg" xmlns:xlink="http://www.w3.org/1999/xlink">
<g id="graph0" class="graph" transform="scale(1 1) rotate(0) translate(4 472)">
<title>G</title>
<polygon fill="white" stroke="none" points="-4,4 -4,-472 346,-472 346,4 -4,4"/>
<!-- thm -->
<g id="node1" class="node"><title>thm</title>
<polygon fill="none" stroke="black" points="198,-396 144,-396 144,-360 198,-360 198,-396"/>
<text text-anchor="middle" x="171" y="-374.3" font-family="Times,serif" font-size="14.00">H</text>
</g>
<!-- tp -->
<g id="node13" class="node"><title>tp</title>
<polygon fill="none" stroke="black" points="198,-324 144,-324 144,-288 198,-288 198,-324"/>
<text text-anchor="middle" x="171" y="-302.3" font-family="Times,serif" font-size="14.00">t&#39;</text>
</g>
<!-- thm&#45;&gt;tp -->
<g id="edge5" class="edge"><title>thm&#45;&gt;tp</title>
<path fill="none" stroke="black" d="M171,-359.697C171,-351.983 171,-342.712 171,-334.112"/>
<polygon fill="black" stroke="black" points="174.5,-334.104 171,-324.104 167.5,-334.104 174.5,-334.104"/>
</g>
<!-- vx -->
<g id="node2" class="node"><title>vx</title>
<polygon fill="none" stroke="black" points="54,-468 0,-468 0,-432 54,-432 54,-468"/>
<text text-anchor="middle" x="27" y="-446.3" font-family="Times,serif" font-size="14.00">v_x</text>
</g>
<!-- vx&#45;&gt;thm -->
<g id="edge1" class="edge"><title>vx&#45;&gt;thm</title>
<path fill="none" stroke="black" d="M54.0853,-435.834C76.7693,-424.807 109.357,-408.966 134.368,-396.807"/>
<polygon fill="black" stroke="black" points="136.083,-399.865 143.547,-392.345 133.023,-393.57 136.083,-399.865"/>
</g>
<!-- vxe -->
<g id="node7" class="node"><title>vxe</title>
<polygon fill="none" stroke="black" points="54,-324 0,-324 0,-288 54,-288 54,-324"/>
<text text-anchor="middle" x="27" y="-302.3" font-family="Times,serif" font-size="14.00">v_xe</text>
</g>
<!-- vx&#45;&gt;vxe -->
<g id="edge6" class="edge"><title>vx&#45;&gt;vxe</title>
<path fill="none" stroke="black" d="M27,-431.871C27,-407.67 27,-363.211 27,-334.393"/>
<polygon fill="black" stroke="black" points="30.5001,-334.189 27,-324.189 23.5001,-334.189 30.5001,-334.189"/>
</g>
<!-- vy -->
<g id="node3" class="node"><title>vy</title>
<polygon fill="none" stroke="black" points="126,-468 72,-468 72,-432 126,-432 126,-468"/>
<text text-anchor="middle" x="99" y="-446.3" font-family="Times,serif" font-size="14.00">v_y</text>
</g>
<!-- vy&#45;&gt;thm -->
<g id="edge2" class="edge"><title>vy&#45;&gt;thm</title>
<path fill="none" stroke="black" d="M116.798,-431.697C125.604,-423.135 136.382,-412.656 146.001,-403.304"/>
<polygon fill="black" stroke="black" points="148.677,-405.585 153.407,-396.104 143.797,-400.566 148.677,-405.585"/>
</g>
<!-- vye -->
<g id="node8" class="node"><title>vye</title>
<polygon fill="none" stroke="black" points="126,-324 72,-324 72,-288 126,-288 126,-324"/>
<text text-anchor="middle" x="99" y="-302.3" font-family="Times,serif" font-size="14.00">v_ye</text>
</g>
<!-- vy&#45;&gt;vye -->
<g id="edge7" class="edge"><title>vy&#45;&gt;vye</title>
<path fill="none" stroke="black" d="M99,-431.871C99,-407.67 99,-363.211 99,-334.393"/>
<polygon fill="black" stroke="black" points="102.5,-334.189 99,-324.189 95.5001,-334.189 102.5,-334.189"/>
</g>
<!-- vz -->
<g id="node4" class="node"><title>vz</title>
<polygon fill="none" stroke="black" points="270,-468 216,-468 216,-432 270,-432 270,-468"/>
<text text-anchor="middle" x="243" y="-446.3" font-family="Times,serif" font-size="14.00">v_z</text>
</g>
<!-- vz&#45;&gt;thm -->
<g id="edge3" class="edge"><title>vz&#45;&gt;thm</title>
<path fill="none" stroke="black" d="M225.202,-431.697C216.396,-423.135 205.618,-412.656 195.999,-403.304"/>
<polygon fill="black" stroke="black" points="198.203,-400.566 188.593,-396.104 193.323,-405.585 198.203,-400.566"/>
</g>
<!-- vze -->
<g id="node9" class="node"><title>vze</title>
<polygon fill="none" stroke="black" points="270,-324 216,-324 216,-288 270,-288 270,-324"/>
<text text-anchor="middle" x="243" y="-302.3" font-family="Times,serif" font-size="14.00">v_ze</text>
</g>
<!-- vz&#45;&gt;vze -->
<g id="edge8" class="edge"><title>vz&#45;&gt;vze</title>
<path fill="none" stroke="black" d="M243,-431.871C243,-407.67 243,-363.211 243,-334.393"/>
<polygon fill="black" stroke="black" points="246.5,-334.189 243,-324.189 239.5,-334.189 246.5,-334.189"/>
</g>
<!-- t -->
<g id="node5" class="node"><title>t</title>
<polygon fill="none" stroke="black" points="198,-468 144,-468 144,-432 198,-432 198,-468"/>
<text text-anchor="middle" x="171" y="-446.3" font-family="Times,serif" font-size="14.00">t</text>
</g>
<!-- t&#45;&gt;thm -->
<g id="edge4" class="edge"><title>t&#45;&gt;thm</title>
<path fill="none" stroke="black" d="M171,-431.697C171,-423.983 171,-414.712 171,-406.112"/>
<polygon fill="black" stroke="black" points="174.5,-406.104 171,-396.104 167.5,-406.104 174.5,-406.104"/>
</g>
<!-- p -->
<g id="node6" class="node"><title>p</title>
<polygon fill="none" stroke="black" points="342,-468 288,-468 288,-432 342,-432 342,-468"/>
<text text-anchor="middle" x="315" y="-446.3" font-family="Times,serif" font-size="14.00">p</text>
</g>
<!-- pp -->
<g id="node14" class="node"><title>pp</title>
<polygon fill="none" stroke="black" points="197,-180 143,-180 143,-144 197,-144 197,-180"/>
<text text-anchor="middle" x="170" y="-158.3" font-family="Times,serif" font-size="14.00">p&#39;</text>
</g>
<!-- p&#45;&gt;pp -->
<g id="edge14" class="edge"><title>p&#45;&gt;pp</title>
<path fill="none" stroke="black" d="M313.917,-431.613C311.418,-401.036 303.446,-336.298 279,-288 258.732,-247.956 222.735,-210.333 197.677,-187.03"/>
<polygon fill="black" stroke="black" points="200.024,-184.433 190.281,-180.271 195.302,-189.6 200.024,-184.433"/>
</g>
<!-- rhsp -->
<g id="node15" class="node"><title>rhsp</title>
<polygon fill="none" stroke="black" points="198,-252 142,-252 142,-216 198,-216 198,-252"/>
<text text-anchor="middle" x="170" y="-230.3" font-family="Times,serif" font-size="14.00">RHS_p</text>
</g>
<!-- vxe&#45;&gt;rhsp -->
<g id="edge9" class="edge"><title>vxe&#45;&gt;rhsp</title>
<path fill="none" stroke="black" d="M54.2338,-291.669C76.509,-280.765 108.235,-265.235 132.842,-253.189"/>
<polygon fill="black" stroke="black" points="134.448,-256.3 141.89,-248.76 131.37,-250.013 134.448,-256.3"/>
</g>
<!-- rhsvx -->
<g id="node16" class="node"><title>rhsvx</title>
<polygon fill="none" stroke="black" points="90.5,-108 27.5,-108 27.5,-72 90.5,-72 90.5,-108"/>
<text text-anchor="middle" x="59" y="-86.3" font-family="Times,serif" font-size="14.00">RHS_vx</text>
</g>
<!-- vxe&#45;&gt;rhsvx -->
<g id="edge15" class="edge"><title>vxe&#45;&gt;rhsvx</title>
<path fill="none" stroke="black" d="M29.5646,-287.849C35.0999,-250.832 48.2066,-163.181 54.9049,-118.386"/>
<polygon fill="black" stroke="black" points="58.4057,-118.64 56.4232,-108.232 51.4827,-117.605 58.4057,-118.64"/>
</g>
<!-- vye&#45;&gt;rhsp -->
<g id="edge10" class="edge"><title>vye&#45;&gt;rhsp</title>
<path fill="none" stroke="black" d="M116.551,-287.697C125.234,-279.135 135.863,-268.656 145.348,-259.304"/>
<polygon fill="black" stroke="black" points="147.988,-261.617 152.651,-252.104 143.073,-256.633 147.988,-261.617"/>
</g>
<!-- rhsvy -->
<g id="node17" class="node"><title>rhsvy</title>
<polygon fill="none" stroke="black" points="173,-108 111,-108 111,-72 173,-72 173,-108"/>
<text text-anchor="middle" x="142" y="-86.3" font-family="Times,serif" font-size="14.00">RHS_vy</text>
</g>
<!-- vye&#45;&gt;rhsvy -->
<g id="edge16" class="edge"><title>vye&#45;&gt;rhsvy</title>
<path fill="none" stroke="black" d="M102.446,-287.849C109.9,-250.753 127.571,-162.81 136.554,-118.103"/>
<polygon fill="black" stroke="black" points="139.999,-118.726 138.537,-108.232 133.136,-117.347 139.999,-118.726"/>
</g>
<!-- vze&#45;&gt;rhsp -->
<g id="edge11" class="edge"><title>vze&#45;&gt;rhsp</title>
<path fill="none" stroke="black" d="M224.955,-287.697C215.938,-279.05 204.882,-268.449 195.057,-259.027"/>
<polygon fill="black" stroke="black" points="197.478,-256.499 187.837,-252.104 192.633,-261.552 197.478,-256.499"/>
</g>
<!-- rhsvz -->
<g id="node18" class="node"><title>rhsvz</title>
<polygon fill="none" stroke="black" points="254,-108 192,-108 192,-72 254,-72 254,-108"/>
<text text-anchor="middle" x="223" y="-86.3" font-family="Times,serif" font-size="14.00">RHS_vz</text>
</g>
<!-- vze&#45;&gt;rhsvz -->
<g id="edge17" class="edge"><title>vze&#45;&gt;rhsvz</title>
<path fill="none" stroke="black" d="M241.397,-287.849C237.938,-250.832 229.746,-163.181 225.559,-118.386"/>
<polygon fill="black" stroke="black" points="229.026,-117.863 224.611,-108.232 222.056,-118.515 229.026,-117.863"/>
</g>
<!-- vxp -->
<g id="node10" class="node"><title>vxp</title>
<polygon fill="none" stroke="black" points="86,-36 32,-36 32,-0 86,-0 86,-36"/>
<text text-anchor="middle" x="59" y="-14.3" font-family="Times,serif" font-size="14.00">v_x&#39;</text>
</g>
<!-- vyp -->
<g id="node11" class="node"><title>vyp</title>
<polygon fill="none" stroke="black" points="169,-36 115,-36 115,-0 169,-0 169,-36"/>
<text text-anchor="middle" x="142" y="-14.3" font-family="Times,serif" font-size="14.00">v_y&#39;</text>
</g>
<!-- vzp -->
<g id="node12" class="node"><title>vzp</title>
<polygon fill="none" stroke="black" points="250,-36 196,-36 196,-0 250,-0 250,-36"/>
<text text-anchor="middle" x="223" y="-14.3" font-family="Times,serif" font-size="14.00">v_z&#39;</text>
</g>
<!-- tp&#45;&gt;rhsp -->
<g id="edge12" class="edge"><title>tp&#45;&gt;rhsp</title>
<path fill="none" stroke="black" d="M170.753,-287.697C170.643,-279.983 170.51,-270.712 170.387,-262.112"/>
<polygon fill="black" stroke="black" points="173.887,-262.053 170.244,-252.104 166.888,-262.153 173.887,-262.053"/>
</g>
<!-- pp&#45;&gt;rhsvx -->
<g id="edge18" class="edge"><title>pp&#45;&gt;rhsvx</title>
<path fill="none" stroke="black" d="M142.846,-143.876C128.467,-134.808 110.619,-123.552 95.0895,-113.759"/>
<polygon fill="black" stroke="black" points="96.5835,-110.564 86.258,-108.19 92.8496,-116.484 96.5835,-110.564"/>
</g>
<!-- pp&#45;&gt;rhsvy -->
<g id="edge19" class="edge"><title>pp&#45;&gt;rhsvy</title>
<path fill="none" stroke="black" d="M163.079,-143.697C159.925,-135.813 156.122,-126.304 152.619,-117.546"/>
<polygon fill="black" stroke="black" points="155.805,-116.089 148.842,-108.104 149.306,-118.689 155.805,-116.089"/>
</g>
<!-- pp&#45;&gt;rhsvz -->
<g id="edge20" class="edge"><title>pp&#45;&gt;rhsvz</title>
<path fill="none" stroke="black" d="M183.101,-143.697C189.391,-135.389 197.047,-125.277 203.965,-116.141"/>
<polygon fill="black" stroke="black" points="206.804,-118.19 210.05,-108.104 201.223,-113.964 206.804,-118.19"/>
</g>
<!-- rhsp&#45;&gt;pp -->
<g id="edge13" class="edge"><title>rhsp&#45;&gt;pp</title>
<path fill="none" stroke="black" d="M170,-215.697C170,-207.983 170,-198.712 170,-190.112"/>
<polygon fill="black" stroke="black" points="173.5,-190.104 170,-180.104 166.5,-190.104 173.5,-190.104"/>
</g>
<!-- rhsvx&#45;&gt;vxp -->
<g id="edge21" class="edge"><title>rhsvx&#45;&gt;vxp</title>
<path fill="none" stroke="black" d="M59,-71.6966C59,-63.9827 59,-54.7125 59,-46.1124"/>
<polygon fill="black" stroke="black" points="62.5001,-46.1043 59,-36.1043 55.5001,-46.1044 62.5001,-46.1043"/>
</g>
<!-- rhsvy&#45;&gt;vyp -->
<g id="edge22" class="edge"><title>rhsvy&#45;&gt;vyp</title>
<path fill="none" stroke="black" d="M142,-71.6966C142,-63.9827 142,-54.7125 142,-46.1124"/>
<polygon fill="black" stroke="black" points="145.5,-46.1043 142,-36.1043 138.5,-46.1044 145.5,-46.1043"/>
</g>
<!-- rhsvz&#45;&gt;vzp -->
<g id="edge23" class="edge"><title>rhsvz&#45;&gt;vzp</title>
<path fill="none" stroke="black" d="M223,-71.6966C223,-63.9827 223,-54.7125 223,-46.1124"/>
<polygon fill="black" stroke="black" points="226.5,-46.1043 223,-36.1043 219.5,-46.1044 226.5,-46.1043"/>
</g>
</g>
</svg>
