<?xml version="1.0" encoding="UTF-8" standalone="no"?>
<!DOCTYPE svg PUBLIC "-//W3C//DTD SVG 1.1//EN"
 "http://www.w3.org/Graphics/SVG/1.1/DTD/svg11.dtd">
<!-- Generated by graphviz version 2.38.0 (20140413.2041)
 -->
<!-- Title: print_flops Pages: 1 -->
<svg width="338pt" height="28pt"
 viewBox="0.00 0.00 338.00 28.00" xmlns="http://www.w3.org/2000/svg" xmlns:xlink="http://www.w3.org/1999/xlink">
<g id="graph0" class="graph" transform="scale(1 1) rotate(0) translate(4 24)">
<title>print_flops</title>
<polygon fill="white" stroke="none" points="-4,4 -4,-24 334,-24 334,4 -4,4"/>
<!-- Node1 -->
<g id="node1" class="node"><title>Node1</title>
<polygon fill="#bfbfbf" stroke="black" points="0,-0.5 0,-19.5 66,-19.5 66,-0.5 0,-0.5"/>
<text text-anchor="middle" x="33" y="-7.5" font-family="Helvetica,sans-Serif" font-size="10.00">print_flops</text>
</g>
<!-- Node2 -->
<g id="node2" class="node"><title>Node2</title>
<g id="a_node2"><a xlink:href="drive2_8F90.html#a6637d27bdf1984d5964bd31465cd304a" target="_top" xlink:title="print run statistics from ctimer ">
<polygon fill="white" stroke="black" points="102,-0.5 102,-19.5 151,-19.5 151,-0.5 102,-0.5"/>
<text text-anchor="middle" x="126.5" y="-7.5" font-family="Helvetica,sans-Serif" font-size="10.00">runstat</text>
</a>
</g>
</g>
<!-- Node1&#45;&gt;Node2 -->
<g id="edge1" class="edge"><title>Node1&#45;&gt;Node2</title>
<path fill="none" stroke="midnightblue" d="M76.1546,-10C84.9391,-10 93.9015,-10 101.736,-10"/>
<polygon fill="midnightblue" stroke="midnightblue" points="76.0023,-6.5001 66.0023,-10 76.0022,-13.5001 76.0023,-6.5001"/>
</g>
<!-- Node3 -->
<g id="node3" class="node"><title>Node3</title>
<g id="a_node3"><a xlink:href="drive1_8F90.html#a10055f031c0ac540cc534ab2b0363206" target="_top" xlink:title="perform any end&#45;of&#45;run reporting ">
<polygon fill="white" stroke="black" points="187,-0.5 187,-19.5 245,-19.5 245,-0.5 187,-0.5"/>
<text text-anchor="middle" x="216" y="-7.5" font-family="Helvetica,sans-Serif" font-size="10.00">nek_end</text>
</a>
</g>
</g>
<!-- Node2&#45;&gt;Node3 -->
<g id="edge2" class="edge"><title>Node2&#45;&gt;Node3</title>
<path fill="none" stroke="midnightblue" d="M161.601,-10C169.931,-10 178.751,-10 186.772,-10"/>
<polygon fill="midnightblue" stroke="midnightblue" points="161.41,-6.5001 151.41,-10 161.41,-13.5001 161.41,-6.5001"/>
</g>
<!-- Node4 -->
<g id="node4" class="node"><title>Node4</title>
<g id="a_node4"><a xlink:href="drive_8F90.html#a13048bf28dd0734640412d69349e3857" target="_top" xlink:title="NEK5000: Spectral Element Computational Fluid Dynamics Solver COPYRIGHT (c) 2008&#45;2010 UCHICAGO ARGONN...">
<polygon fill="white" stroke="black" points="281,-0.5 281,-19.5 330,-19.5 330,-0.5 281,-0.5"/>
<text text-anchor="middle" x="305.5" y="-7.5" font-family="Helvetica,sans-Serif" font-size="10.00">nekton</text>
</a>
</g>
</g>
<!-- Node3&#45;&gt;Node4 -->
<g id="edge3" class="edge"><title>Node3&#45;&gt;Node4</title>
<path fill="none" stroke="midnightblue" d="M255.169,-10C263.879,-10 272.889,-10 280.787,-10"/>
<polygon fill="midnightblue" stroke="midnightblue" points="255.167,-6.5001 245.167,-10 255.167,-13.5001 255.167,-6.5001"/>
</g>
</g>
</svg>
