<?xml version="1.0" encoding="UTF-8" standalone="no"?>
<!DOCTYPE svg PUBLIC "-//W3C//DTD SVG 1.1//EN"
 "http://www.w3.org/Graphics/SVG/1.1/DTD/svg11.dtd">
<!-- Generated by graphviz version 2.38.0 (20140413.2041)
 -->
<!-- Title: geneig Pages: 1 -->
<!--zoomable 1206 -->
<svg id="main" version="1.1" xmlns="http://www.w3.org/2000/svg" xmlns:xlink="http://www.w3.org/1999/xlink" xml:space="preserve" onload="init(evt)">
<style type="text/css"><![CDATA[
.edge:hover path { stroke: red; }
.edge:hover polygon { stroke: red; fill: red; }
]]></style>
<script type="text/javascript"><![CDATA[
var edges = document.getElementsByTagName('g');
if (edges && edges.length) {
  for (var i=0;i<edges.length;i++) {
    if (edges[i].id.substr(0,4)=='edge') {
      edges[i].setAttribute('class','edge');
    }
  }
}
]]></script>
        <defs>
                <circle id="rim" cx="0" cy="0" r="7"/>
                <circle id="rim2" cx="0" cy="0" r="3.5"/>
                <g id="zoomPlus">
                        <use xlink:href="#rim" fill="#404040">
                                <set attributeName="fill" to="#808080" begin="zoomplus.mouseover" end="zoomplus.mouseout"/>
                        </use>
                        <path d="M-4,0h8M0,-4v8" fill="none" stroke="white" stroke-width="1.5" pointer-events="none"/>
                </g>
                <g id="zoomMin">
                        <use xlink:href="#rim" fill="#404040">
                                <set attributeName="fill" to="#808080" begin="zoomminus.mouseover" end="zoomminus.mouseout"/>
                        </use>
                        <path d="M-4,0h8" fill="none" stroke="white" stroke-width="1.5" pointer-events="none"/>
                </g>
                <g id="dirArrow">
                        <path fill="none" stroke="white" stroke-width="1.5" d="M0,-3.0v7 M-2.5,-0.5L0,-3.0L2.5,-0.5"/>
                </g>
               <g id="resetDef">
                       <use xlink:href="#rim2" fill="#404040">
                               <set attributeName="fill" to="#808080" begin="reset.mouseover" end="reset.mouseout"/>
                       </use>
               </g>
        </defs>

<script type="text/javascript">
var viewWidth = 846;
var viewHeight = 1206;
var sectionId = 'dynsection-9';
</script>
<script xlink:href="svgpan.js"/>
<svg id="graph" class="graph">
<g id="viewport">
<title>geneig</title>
<polygon fill="white" stroke="none" points="-4,4 -4,-1202 842,-1202 842,4 -4,4"/>
<!-- Node1 -->
<g id="node1" class="node"><title>Node1</title>
<polygon fill="#bfbfbf" stroke="black" points="0,-1097.5 0,-1116.5 49,-1116.5 49,-1097.5 0,-1097.5"/>
<text text-anchor="middle" x="24.5" y="-1104.5" font-family="Helvetica,sans-Serif" font-size="10.00">geneig</text>
</g>
<!-- Node2 -->
<g id="node2" class="node"><title>Node2</title>
<g id="a_node2"><a xlink:href="eigsolv_8F90.html#a91ddf7cb5ca6b19d1c736da5bf7386b3" target="_top" xlink:title="Compute the following eigenvalues:. EIGAA = minimum eigenvalue of the matrix A (=Laplacian) EIGAE = m...">
<polygon fill="white" stroke="black" points="85,-1116.5 85,-1135.5 133,-1135.5 133,-1116.5 85,-1116.5"/>
<text text-anchor="middle" x="109" y="-1123.5" font-family="Helvetica,sans-Serif" font-size="10.00">eigenv</text>
</a>
</g>
</g>
<!-- Node1&#45;&gt;Node2 -->
<g id="edge1" class="edge"><title>Node1&#45;&gt;Node2</title>
<path fill="none" stroke="midnightblue" d="M49.3624,-1112.5C57.3662,-1114.34 66.4391,-1116.43 75.0149,-1118.4"/>
<polygon fill="midnightblue" stroke="midnightblue" points="74.2297,-1121.81 84.7601,-1120.65 75.8007,-1114.99 74.2297,-1121.81"/>
</g>
<!-- Node49 -->
<g id="node49" class="node"><title>Node49</title>
<g id="a_node49"><a xlink:href="eigsolv_8F90.html#a1db10d40f8df1de37de90fbff50443f6" target="_top" xlink:title="Estimate eigenvalues. ">
<polygon fill="white" stroke="black" points="86.5,-1078.5 86.5,-1097.5 131.5,-1097.5 131.5,-1078.5 86.5,-1078.5"/>
<text text-anchor="middle" x="109" y="-1085.5" font-family="Helvetica,sans-Serif" font-size="10.00">esteig</text>
</a>
</g>
</g>
<!-- Node1&#45;&gt;Node49 -->
<g id="edge54" class="edge"><title>Node1&#45;&gt;Node49</title>
<path fill="none" stroke="midnightblue" d="M49.3624,-1101.5C57.8681,-1099.55 67.5812,-1097.31 76.622,-1095.23"/>
<polygon fill="midnightblue" stroke="midnightblue" points="77.4843,-1098.62 86.4436,-1092.96 75.9132,-1091.8 77.4843,-1098.62"/>
</g>
<!-- Node3 -->
<g id="node3" class="node"><title>Node3</title>
<g id="a_node3"><a xlink:href="subs1_8F90.html#ae2376b70f309c6118b4e43df9cbe66b1" target="_top" xlink:title="Set the variable property arrays H1 and H2 in the Helmholtz equation. (associated with variable IFIEL...">
<polygon fill="white" stroke="black" points="271,-1168.5 271,-1187.5 318,-1187.5 318,-1168.5 271,-1168.5"/>
<text text-anchor="middle" x="294.5" y="-1175.5" font-family="Helvetica,sans-Serif" font-size="10.00">sethlm</text>
</a>
</g>
</g>
<!-- Node2&#45;&gt;Node3 -->
<g id="edge2" class="edge"><title>Node2&#45;&gt;Node3</title>
<path fill="none" stroke="midnightblue" d="M133.24,-1132.59C165.592,-1141.75 224.347,-1158.4 261.019,-1168.8"/>
<polygon fill="midnightblue" stroke="midnightblue" points="260.161,-1172.19 270.736,-1171.55 262.069,-1165.46 260.161,-1172.19"/>
</g>
<!-- Node5 -->
<g id="node5" class="node"><title>Node5</title>
<g id="a_node5"><a xlink:href="eigsolv_8F90.html#a40aa959fb07551b7b3fe2e5bd7ed6fda" target="_top" xlink:title="Compute maximum eigenvalue of the discrete Helmholtz operator. ">
<polygon fill="white" stroke="black" points="169,-1080.5 169,-1099.5 234,-1099.5 234,-1080.5 169,-1080.5"/>
<text text-anchor="middle" x="201.5" y="-1087.5" font-family="Helvetica,sans-Serif" font-size="10.00">gammam1</text>
</a>
</g>
</g>
<!-- Node2&#45;&gt;Node5 -->
<g id="edge4" class="edge"><title>Node2&#45;&gt;Node5</title>
<path fill="none" stroke="midnightblue" d="M133.306,-1116.73C143.514,-1112.67 155.687,-1107.83 166.85,-1103.39"/>
<polygon fill="midnightblue" stroke="midnightblue" points="168.328,-1106.56 176.326,-1099.62 165.74,-1100.06 168.328,-1106.56"/>
</g>
<!-- Node4 -->
<g id="node4" class="node"><title>Node4</title>
<g id="a_node4"><a xlink:href="math_8F90.html#a3b43508554f14bdea8e14473d7d0803c" target="_top" xlink:title="copy">
<polygon fill="white" stroke="black" points="372.5,-1178.5 372.5,-1197.5 411.5,-1197.5 411.5,-1178.5 372.5,-1178.5"/>
<text text-anchor="middle" x="392" y="-1185.5" font-family="Helvetica,sans-Serif" font-size="10.00">copy</text>
</a>
</g>
</g>
<!-- Node3&#45;&gt;Node4 -->
<g id="edge3" class="edge"><title>Node3&#45;&gt;Node4</title>
<path fill="none" stroke="midnightblue" d="M318.132,-1180.37C331.318,-1181.75 348.077,-1183.51 362.197,-1184.98"/>
<polygon fill="midnightblue" stroke="midnightblue" points="362.068,-1188.49 372.378,-1186.05 362.797,-1181.53 362.068,-1188.49"/>
</g>
<!-- Node6 -->
<g id="node6" class="node"><title>Node6</title>
<g id="a_node6"><a xlink:href="eigsolv_8F90.html#a641903cf1502c362e017e07dcb6cae02" target="_top" xlink:title="Compute startvector for finding an eigenvalue on mesh 1. Normalization: XT*B*X = 1. ">
<polygon fill="white" stroke="black" points="270,-1111.5 270,-1130.5 319,-1130.5 319,-1111.5 270,-1111.5"/>
<text text-anchor="middle" x="294.5" y="-1118.5" font-family="Helvetica,sans-Serif" font-size="10.00">startx1</text>
</a>
</g>
</g>
<!-- Node5&#45;&gt;Node6 -->
<g id="edge5" class="edge"><title>Node5&#45;&gt;Node6</title>
<path fill="none" stroke="midnightblue" d="M230.794,-1099.64C240.088,-1102.8 250.504,-1106.35 260.138,-1109.63"/>
<polygon fill="midnightblue" stroke="midnightblue" points="259.219,-1113.02 269.814,-1112.93 261.476,-1106.39 259.219,-1113.02"/>
</g>
<!-- Node9 -->
<g id="node9" class="node"><title>Node9</title>
<g id="a_node9"><a xlink:href="dssum_8F90.html#a0b9da6f19f8f42c7aa2fd9ca723a63ef" target="_top" xlink:title="Direct stiffness sum. ">
<polygon fill="white" stroke="black" points="551.5,-1102.5 551.5,-1121.5 598.5,-1121.5 598.5,-1102.5 551.5,-1102.5"/>
<text text-anchor="middle" x="575" y="-1109.5" font-family="Helvetica,sans-Serif" font-size="10.00">dssum</text>
</a>
</g>
</g>
<!-- Node5&#45;&gt;Node9 -->
<g id="edge53" class="edge"><title>Node5&#45;&gt;Node9</title>
<path fill="none" stroke="midnightblue" d="M234.174,-1091.88C303.938,-1096.01 470.274,-1105.86 541.128,-1110.05"/>
<polygon fill="midnightblue" stroke="midnightblue" points="541.07,-1113.56 551.259,-1110.65 541.484,-1106.57 541.07,-1113.56"/>
</g>
<!-- Node14 -->
<g id="node14" class="node"><title>Node14</title>
<g id="a_node14"><a xlink:href="hmholtz_8F90.html#aa576b5bd623cce50fd6323db12ba5376" target="_top" xlink:title="Compute the (Helmholtz) matrix&#45;vector product, AU = helm1*[A]u + helm2*[B]u, for NEL elements...">
<polygon fill="white" stroke="black" points="465,-1026.5 465,-1045.5 515,-1045.5 515,-1026.5 465,-1026.5"/>
<text text-anchor="middle" x="490" y="-1033.5" font-family="Helvetica,sans-Serif" font-size="10.00">axhelm</text>
</a>
</g>
</g>
<!-- Node5&#45;&gt;Node14 -->
<g id="edge15" class="edge"><title>Node5&#45;&gt;Node14</title>
<path fill="none" stroke="midnightblue" d="M219.996,-1080.42C233.308,-1073.58 252.295,-1064.78 270,-1060 333.793,-1042.78 411.218,-1037.87 454.826,-1036.5"/>
<polygon fill="midnightblue" stroke="midnightblue" points="454.995,-1040 464.897,-1036.23 454.806,-1033 454.995,-1040"/>
</g>
<!-- Node6&#45;&gt;Node4 -->
<g id="edge6" class="edge"><title>Node6&#45;&gt;Node4</title>
<path fill="none" stroke="midnightblue" d="M305.986,-1130.5C317.514,-1140.7 336.82,-1157.03 355,-1169 357.63,-1170.73 360.436,-1172.44 363.276,-1174.07"/>
<polygon fill="midnightblue" stroke="midnightblue" points="361.839,-1177.27 372.292,-1179 365.197,-1171.13 361.839,-1177.27"/>
</g>
<!-- Node7 -->
<g id="node7" class="node"><title>Node7</title>
<g id="a_node7"><a xlink:href="navier5_8F90.html#a0a5183b7f1b1b44e49ac619b15930223" target="_top" xlink:title="rand_fld_h1">
<polygon fill="white" stroke="black" points="355,-1140.5 355,-1159.5 429,-1159.5 429,-1140.5 355,-1140.5"/>
<text text-anchor="middle" x="392" y="-1147.5" font-family="Helvetica,sans-Serif" font-size="10.00">rand_fld_h1</text>
</a>
</g>
</g>
<!-- Node6&#45;&gt;Node7 -->
<g id="edge7" class="edge"><title>Node6&#45;&gt;Node7</title>
<path fill="none" stroke="midnightblue" d="M319.107,-1128.17C328.315,-1130.96 339.15,-1134.25 349.575,-1137.42"/>
<polygon fill="midnightblue" stroke="midnightblue" points="348.793,-1140.84 359.378,-1140.4 350.827,-1134.14 348.793,-1140.84"/>
</g>
<!-- Node6&#45;&gt;Node9 -->
<g id="edge14" class="edge"><title>Node6&#45;&gt;Node9</title>
<path fill="none" stroke="midnightblue" d="M319.245,-1120.23C369.046,-1118.62 484.494,-1114.89 541.272,-1113.06"/>
<polygon fill="midnightblue" stroke="midnightblue" points="541.604,-1116.55 551.486,-1112.73 541.378,-1109.55 541.604,-1116.55"/>
</g>
<!-- Node8 -->
<g id="node8" class="node"><title>Node8</title>
<g id="a_node8"><a xlink:href="ic_8F90.html#a12fbcc70f37b3490eeda7dfb002dcc7d" target="_top" xlink:title="Take direct stiffness avg of u. ">
<polygon fill="white" stroke="black" points="467.5,-1140.5 467.5,-1159.5 512.5,-1159.5 512.5,-1140.5 467.5,-1140.5"/>
<text text-anchor="middle" x="490" y="-1147.5" font-family="Helvetica,sans-Serif" font-size="10.00">dsavg</text>
</a>
</g>
</g>
<!-- Node7&#45;&gt;Node8 -->
<g id="edge8" class="edge"><title>Node7&#45;&gt;Node8</title>
<path fill="none" stroke="midnightblue" d="M429.02,-1150C438.274,-1150 448.163,-1150 457.187,-1150"/>
<polygon fill="midnightblue" stroke="midnightblue" points="457.294,-1153.5 467.294,-1150 457.294,-1146.5 457.294,-1153.5"/>
</g>
<!-- Node8&#45;&gt;Node9 -->
<g id="edge9" class="edge"><title>Node8&#45;&gt;Node9</title>
<path fill="none" stroke="midnightblue" d="M511.944,-1140.41C521.578,-1136 533.188,-1130.69 543.747,-1125.85"/>
<polygon fill="midnightblue" stroke="midnightblue" points="545.427,-1128.93 553.062,-1121.59 542.513,-1122.57 545.427,-1128.93"/>
</g>
<!-- Node10 -->
<g id="node10" class="node"><title>Node10</title>
<g id="a_node10"><a xlink:href="classctimer.html#abcecbc845c8ee72e13a19eaa30b80d77" target="_top" xlink:title="ctimer::dnekclock">
<polygon fill="white" stroke="black" points="635,-1064.5 635,-1083.5 732,-1083.5 732,-1064.5 635,-1064.5"/>
<text text-anchor="middle" x="683.5" y="-1071.5" font-family="Helvetica,sans-Serif" font-size="10.00">ctimer::dnekclock</text>
</a>
</g>
</g>
<!-- Node9&#45;&gt;Node10 -->
<g id="edge10" class="edge"><title>Node9&#45;&gt;Node10</title>
<path fill="none" stroke="midnightblue" d="M598.586,-1103.94C612.441,-1099 630.496,-1092.56 646.308,-1086.91"/>
<polygon fill="midnightblue" stroke="midnightblue" points="647.564,-1090.18 655.806,-1083.52 645.211,-1083.59 647.564,-1090.18"/>
</g>
<!-- Node12 -->
<g id="node12" class="node"><title>Node12</title>
<g id="a_node12"><a xlink:href="comm__mpi_8F90.html#a4acb4d8e379294232e9219bec063d8f3" target="_top" xlink:title="nekgsync">
<polygon fill="white" stroke="black" points="652.5,-1102.5 652.5,-1121.5 714.5,-1121.5 714.5,-1102.5 652.5,-1102.5"/>
<text text-anchor="middle" x="683.5" y="-1109.5" font-family="Helvetica,sans-Serif" font-size="10.00">nekgsync</text>
</a>
</g>
</g>
<!-- Node9&#45;&gt;Node12 -->
<g id="edge12" class="edge"><title>Node9&#45;&gt;Node12</title>
<path fill="none" stroke="midnightblue" d="M598.586,-1112C611.164,-1112 627.205,-1112 641.886,-1112"/>
<polygon fill="midnightblue" stroke="midnightblue" points="642.266,-1115.5 652.266,-1112 642.266,-1108.5 642.266,-1115.5"/>
</g>
<!-- Node11 -->
<g id="node11" class="node"><title>Node11</title>
<g id="a_node11"><a xlink:href="mpi__dummy_8F90.html#ae6a5ef945f87c2c27849696b70f3af2a" target="_top" xlink:title="mpi_wtime">
<polygon fill="white" stroke="black" points="770,-1064.5 770,-1083.5 836,-1083.5 836,-1064.5 770,-1064.5"/>
<text text-anchor="middle" x="803" y="-1071.5" font-family="Helvetica,sans-Serif" font-size="10.00">mpi_wtime</text>
</a>
</g>
</g>
<!-- Node10&#45;&gt;Node11 -->
<g id="edge11" class="edge"><title>Node10&#45;&gt;Node11</title>
<path fill="none" stroke="midnightblue" d="M732.292,-1074C741.334,-1074 750.735,-1074 759.597,-1074"/>
<polygon fill="midnightblue" stroke="midnightblue" points="759.698,-1077.5 769.698,-1074 759.698,-1070.5 759.698,-1077.5"/>
</g>
<!-- Node13 -->
<g id="node13" class="node"><title>Node13</title>
<g id="a_node13"><a xlink:href="mpi__dummy_8F90.html#a070afe564196eb48413dbf1a9fbc99aa" target="_top" xlink:title="mpi_barrier">
<polygon fill="white" stroke="black" points="768,-1102.5 768,-1121.5 838,-1121.5 838,-1102.5 768,-1102.5"/>
<text text-anchor="middle" x="803" y="-1109.5" font-family="Helvetica,sans-Serif" font-size="10.00">mpi_barrier</text>
</a>
</g>
</g>
<!-- Node12&#45;&gt;Node13 -->
<g id="edge13" class="edge"><title>Node12&#45;&gt;Node13</title>
<path fill="none" stroke="midnightblue" d="M714.759,-1112C727.782,-1112 743.268,-1112 757.554,-1112"/>
<polygon fill="midnightblue" stroke="midnightblue" points="757.691,-1115.5 767.691,-1112 757.691,-1108.5 757.691,-1115.5"/>
</g>
<!-- Node14&#45;&gt;Node10 -->
<g id="edge16" class="edge"><title>Node14&#45;&gt;Node10</title>
<path fill="none" stroke="midnightblue" d="M515.273,-1044.68C526.096,-1048.29 539.071,-1052.27 551,-1055 574.994,-1060.49 601.833,-1064.71 624.976,-1067.76"/>
<polygon fill="midnightblue" stroke="midnightblue" points="624.624,-1071.24 634.986,-1069.03 625.51,-1064.3 624.624,-1071.24"/>
</g>
<!-- Node15 -->
<g id="node15" class="node"><title>Node15</title>
<g id="a_node15"><a xlink:href="hmholtz_8F90.html#a0f322d39d4bdffa3f9ba901f72d4a1d0" target="_top" xlink:title="Set logicals for fast evaluation of A*x. ">
<polygon fill="white" stroke="black" points="551,-1026.5 551,-1045.5 599,-1045.5 599,-1026.5 551,-1026.5"/>
<text text-anchor="middle" x="575" y="-1033.5" font-family="Helvetica,sans-Serif" font-size="10.00">setfast</text>
</a>
</g>
</g>
<!-- Node14&#45;&gt;Node15 -->
<g id="edge17" class="edge"><title>Node14&#45;&gt;Node15</title>
<path fill="none" stroke="midnightblue" d="M515.007,-1036C523.04,-1036 532.143,-1036 540.752,-1036"/>
<polygon fill="midnightblue" stroke="midnightblue" points="540.904,-1039.5 550.904,-1036 540.904,-1032.5 540.904,-1039.5"/>
</g>
<!-- Node16 -->
<g id="node16" class="node"><title>Node16</title>
<g id="a_node16"><a xlink:href="mxm__wrapper_8F90.html#ab9ec2260a10061af6ce1c52f3c8a41da" target="_top" xlink:title="Compute matrix&#45;matrix product C = A*B. ">
<polygon fill="white" stroke="black" points="556,-912.5 556,-931.5 594,-931.5 594,-912.5 556,-912.5"/>
<text text-anchor="middle" x="575" y="-919.5" font-family="Helvetica,sans-Serif" font-size="10.00">mxm</text>
</a>
</g>
</g>
<!-- Node14&#45;&gt;Node16 -->
<g id="edge19" class="edge"><title>Node14&#45;&gt;Node16</title>
<path fill="none" stroke="midnightblue" d="M498.077,-1026.28C511.981,-1007.18 543.057,-964.5 560.84,-940.075"/>
<polygon fill="midnightblue" stroke="midnightblue" points="563.885,-941.839 566.941,-931.695 558.226,-937.719 563.885,-941.839"/>
</g>
<!-- Node15&#45;&gt;Node10 -->
<g id="edge18" class="edge"><title>Node15&#45;&gt;Node10</title>
<path fill="none" stroke="midnightblue" d="M599.109,-1044.25C612.759,-1049.12 630.349,-1055.39 645.853,-1060.92"/>
<polygon fill="midnightblue" stroke="midnightblue" points="645.082,-1064.37 655.677,-1064.43 647.435,-1057.77 645.082,-1064.37"/>
</g>
<!-- Node17 -->
<g id="node17" class="node"><title>Node17</title>
<g id="a_node17"><a xlink:href="mxm__bgq_8F90.html#a8faaef428336095704ece51624bbfe92" target="_top" xlink:title="mxm_bgq_8">
<polygon fill="white" stroke="black" points="646.5,-1026.5 646.5,-1045.5 720.5,-1045.5 720.5,-1026.5 646.5,-1026.5"/>
<text text-anchor="middle" x="683.5" y="-1033.5" font-family="Helvetica,sans-Serif" font-size="10.00">mxm_bgq_8</text>
</a>
</g>
</g>
<!-- Node16&#45;&gt;Node17 -->
<g id="edge20" class="edge"><title>Node16&#45;&gt;Node17</title>
<path fill="none" stroke="midnightblue" d="M579.627,-931.759C587.138,-950.721 606.138,-992.8 635,-1017 636.965,-1018.65 639.091,-1020.17 641.317,-1021.56"/>
<polygon fill="midnightblue" stroke="midnightblue" points="639.8,-1024.72 650.267,-1026.36 643.108,-1018.55 639.8,-1024.72"/>
</g>
<!-- Node18 -->
<g id="node18" class="node"><title>Node18</title>
<g id="a_node18"><a xlink:href="mxm__bgq_8F90.html#a27529ace9834454b8906f29e02718629" target="_top" xlink:title="mxm_bgq_12">
<polygon fill="white" stroke="black" points="643.5,-988.5 643.5,-1007.5 723.5,-1007.5 723.5,-988.5 643.5,-988.5"/>
<text text-anchor="middle" x="683.5" y="-995.5" font-family="Helvetica,sans-Serif" font-size="10.00">mxm_bgq_12</text>
</a>
</g>
</g>
<!-- Node16&#45;&gt;Node18 -->
<g id="edge21" class="edge"><title>Node16&#45;&gt;Node18</title>
<path fill="none" stroke="midnightblue" d="M583.878,-931.654C594.415,-944.042 614.194,-965.537 635,-979 637.922,-980.891 641.063,-982.648 644.286,-984.268"/>
<polygon fill="midnightblue" stroke="midnightblue" points="642.929,-987.496 653.479,-988.468 645.838,-981.129 642.929,-987.496"/>
</g>
<!-- Node19 -->
<g id="node19" class="node"><title>Node19</title>
<g id="a_node19"><a xlink:href="mxm__bgq_8F90.html#a3fda9ea4bc7a5713a19d6939fa2b541f" target="_top" xlink:title="mxm_bgq_16">
<polygon fill="white" stroke="black" points="643.5,-950.5 643.5,-969.5 723.5,-969.5 723.5,-950.5 643.5,-950.5"/>
<text text-anchor="middle" x="683.5" y="-957.5" font-family="Helvetica,sans-Serif" font-size="10.00">mxm_bgq_16</text>
</a>
</g>
</g>
<!-- Node16&#45;&gt;Node19 -->
<g id="edge22" class="edge"><title>Node16&#45;&gt;Node19</title>
<path fill="none" stroke="midnightblue" d="M594.066,-928.446C608.155,-933.473 628.192,-940.623 645.632,-946.845"/>
<polygon fill="midnightblue" stroke="midnightblue" points="644.941,-950.315 655.535,-950.379 647.293,-943.722 644.941,-950.315"/>
</g>
<!-- Node20 -->
<g id="node20" class="node"><title>Node20</title>
<g id="a_node20"><a xlink:href="mxm__bgq_8F90.html#a8a70163b4dbfdbfcce7bff170597fcad" target="_top" xlink:title="mxm_bgq_10">
<polygon fill="white" stroke="black" points="643.5,-912.5 643.5,-931.5 723.5,-931.5 723.5,-912.5 643.5,-912.5"/>
<text text-anchor="middle" x="683.5" y="-919.5" font-family="Helvetica,sans-Serif" font-size="10.00">mxm_bgq_10</text>
</a>
</g>
</g>
<!-- Node16&#45;&gt;Node20 -->
<g id="edge23" class="edge"><title>Node16&#45;&gt;Node20</title>
<path fill="none" stroke="midnightblue" d="M594.066,-922C604.859,-922 619.142,-922 633.073,-922"/>
<polygon fill="midnightblue" stroke="midnightblue" points="633.101,-925.5 643.101,-922 633.101,-918.5 633.101,-925.5"/>
</g>
<!-- Node21 -->
<g id="node21" class="node"><title>Node21</title>
<g id="a_node21"><a xlink:href="mxm__bgq_8F90.html#af192c3c8b982aa5bbc2a757156718a91" target="_top" xlink:title="mxm_bgq_6">
<polygon fill="white" stroke="black" points="646.5,-874.5 646.5,-893.5 720.5,-893.5 720.5,-874.5 646.5,-874.5"/>
<text text-anchor="middle" x="683.5" y="-881.5" font-family="Helvetica,sans-Serif" font-size="10.00">mxm_bgq_6</text>
</a>
</g>
</g>
<!-- Node16&#45;&gt;Node21 -->
<g id="edge24" class="edge"><title>Node16&#45;&gt;Node21</title>
<path fill="none" stroke="midnightblue" d="M594.066,-915.554C608.155,-910.527 628.192,-903.377 645.632,-897.155"/>
<polygon fill="midnightblue" stroke="midnightblue" points="647.293,-900.278 655.535,-893.621 644.941,-893.685 647.293,-900.278"/>
</g>
<!-- Node22 -->
<g id="node22" class="node"><title>Node22</title>
<g id="a_node22"><a xlink:href="mxm__std_8F90.html#af07f4b22fdc3488ca321736743f14b01" target="_top" xlink:title="mxm44_2">
<polygon fill="white" stroke="black" points="652.5,-836.5 652.5,-855.5 714.5,-855.5 714.5,-836.5 652.5,-836.5"/>
<text text-anchor="middle" x="683.5" y="-843.5" font-family="Helvetica,sans-Serif" font-size="10.00">mxm44_2</text>
</a>
</g>
</g>
<!-- Node16&#45;&gt;Node22 -->
<g id="edge25" class="edge"><title>Node16&#45;&gt;Node22</title>
<path fill="none" stroke="midnightblue" d="M583.878,-912.346C594.415,-899.958 614.194,-878.463 635,-865 637.922,-863.109 641.063,-861.352 644.286,-859.732"/>
<polygon fill="midnightblue" stroke="midnightblue" points="645.838,-862.871 653.479,-855.532 642.929,-856.504 645.838,-862.871"/>
</g>
<!-- Node23 -->
<g id="node23" class="node"><title>Node23</title>
<g id="a_node23"><a xlink:href="mxm__std_8F90.html#ac63fe7516a18dc57dfe913ad2c1453be" target="_top" xlink:title="mxm44_0">
<polygon fill="white" stroke="black" points="772,-912.5 772,-931.5 834,-931.5 834,-912.5 772,-912.5"/>
<text text-anchor="middle" x="803" y="-919.5" font-family="Helvetica,sans-Serif" font-size="10.00">mxm44_0</text>
</a>
</g>
</g>
<!-- Node16&#45;&gt;Node23 -->
<g id="edge26" class="edge"><title>Node16&#45;&gt;Node23</title>
<path fill="none" stroke="midnightblue" d="M578.54,-912.457C584.483,-892.295 601.404,-845.683 635,-827 672.677,-806.047 695.571,-803.946 732,-827 763.583,-846.987 742.474,-875.698 768,-903 769.175,-904.256 770.452,-905.451 771.799,-906.583"/>
<polygon fill="midnightblue" stroke="midnightblue" points="769.867,-909.503 780.062,-912.387 773.891,-903.775 769.867,-909.503"/>
</g>
<!-- Node24 -->
<g id="node24" class="node"><title>Node24</title>
<g id="a_node24"><a xlink:href="mxm__std_8F90.html#aa9e8685c4a72f18fb5d1ee88ed17a3d6" target="_top" xlink:title="unrolled loop version ">
<polygon fill="white" stroke="black" points="660,-475.5 660,-494.5 707,-494.5 707,-475.5 660,-475.5"/>
<text text-anchor="middle" x="683.5" y="-482.5" font-family="Helvetica,sans-Serif" font-size="10.00">mxmf2</text>
</a>
</g>
</g>
<!-- Node16&#45;&gt;Node24 -->
<g id="edge27" class="edge"><title>Node16&#45;&gt;Node24</title>
<path fill="none" stroke="midnightblue" d="M578.323,-912.466C591.718,-857.503 659.13,-580.894 677.737,-504.545"/>
<polygon fill="midnightblue" stroke="midnightblue" points="681.148,-505.328 680.116,-494.784 674.347,-503.671 681.148,-505.328"/>
</g>
<!-- Node24&#45;&gt;Node23 -->
<g id="edge52" class="edge"><title>Node24&#45;&gt;Node23</title>
<path fill="none" stroke="midnightblue" d="M685.955,-494.801C694.893,-554.551 742.796,-868.372 768,-903 768.761,-904.046 769.598,-905.041 770.496,-905.988"/>
<polygon fill="midnightblue" stroke="midnightblue" points="768.331,-908.738 778.3,-912.324 772.743,-903.304 768.331,-908.738"/>
</g>
<!-- Node25 -->
<g id="node25" class="node"><title>Node25</title>
<g id="a_node25"><a xlink:href="mxm__std_8F90.html#af4bd28930a9d674bbcad09ad75fa81ef" target="_top" xlink:title="mxf8">
<polygon fill="white" stroke="black" points="783.5,-874.5 783.5,-893.5 822.5,-893.5 822.5,-874.5 783.5,-874.5"/>
<text text-anchor="middle" x="803" y="-881.5" font-family="Helvetica,sans-Serif" font-size="10.00">mxf8</text>
</a>
</g>
</g>
<!-- Node24&#45;&gt;Node25 -->
<g id="edge28" class="edge"><title>Node24&#45;&gt;Node25</title>
<path fill="none" stroke="midnightblue" d="M685.552,-494.717C691.458,-547.832 721.89,-802.908 768,-865 769.814,-867.443 772.041,-869.614 774.48,-871.534"/>
<polygon fill="midnightblue" stroke="midnightblue" points="772.973,-874.722 783.293,-877.119 776.72,-868.81 772.973,-874.722"/>
</g>
<!-- Node26 -->
<g id="node26" class="node"><title>Node26</title>
<g id="a_node26"><a xlink:href="mxm__std_8F90.html#a7d3ac03517b3934b98857b22f7f78788" target="_top" xlink:title="mxf1">
<polygon fill="white" stroke="black" points="783.5,-836.5 783.5,-855.5 822.5,-855.5 822.5,-836.5 783.5,-836.5"/>
<text text-anchor="middle" x="803" y="-843.5" font-family="Helvetica,sans-Serif" font-size="10.00">mxf1</text>
</a>
</g>
</g>
<!-- Node24&#45;&gt;Node26 -->
<g id="edge29" class="edge"><title>Node24&#45;&gt;Node26</title>
<path fill="none" stroke="midnightblue" d="M684.202,-494.588C683.348,-537.916 685.109,-718.039 768,-827 769.842,-829.422 772.088,-831.579 774.537,-833.49"/>
<polygon fill="midnightblue" stroke="midnightblue" points="773.04,-836.685 783.364,-839.066 776.778,-830.766 773.04,-836.685"/>
</g>
<!-- Node27 -->
<g id="node27" class="node"><title>Node27</title>
<g id="a_node27"><a xlink:href="mxm__std_8F90.html#acd223c583f3a9242fda7a1b8897b624d" target="_top" xlink:title="mxf2">
<polygon fill="white" stroke="black" points="783.5,-798.5 783.5,-817.5 822.5,-817.5 822.5,-798.5 783.5,-798.5"/>
<text text-anchor="middle" x="803" y="-805.5" font-family="Helvetica,sans-Serif" font-size="10.00">mxf2</text>
</a>
</g>
</g>
<!-- Node24&#45;&gt;Node27 -->
<g id="edge30" class="edge"><title>Node24&#45;&gt;Node27</title>
<path fill="none" stroke="midnightblue" d="M684.562,-494.601C685.301,-534.983 693.059,-693.357 768,-789 769.877,-791.395 772.144,-793.535 774.607,-795.436"/>
<polygon fill="midnightblue" stroke="midnightblue" points="773.122,-798.637 783.45,-801 776.849,-792.712 773.122,-798.637"/>
</g>
<!-- Node28 -->
<g id="node28" class="node"><title>Node28</title>
<g id="a_node28"><a xlink:href="mxm__std_8F90.html#abff718a387aa354f77d0e8b0ffa98867" target="_top" xlink:title="mxf3">
<polygon fill="white" stroke="black" points="783.5,-760.5 783.5,-779.5 822.5,-779.5 822.5,-760.5 783.5,-760.5"/>
<text text-anchor="middle" x="803" y="-767.5" font-family="Helvetica,sans-Serif" font-size="10.00">mxf3</text>
</a>
</g>
</g>
<!-- Node24&#45;&gt;Node28 -->
<g id="edge31" class="edge"><title>Node24&#45;&gt;Node28</title>
<path fill="none" stroke="midnightblue" d="M685.021,-494.653C687.5,-531.938 700.973,-668.568 768,-751 769.88,-753.312 772.12,-755.391 774.54,-757.248"/>
<polygon fill="midnightblue" stroke="midnightblue" points="772.881,-760.34 783.203,-762.729 776.623,-754.425 772.881,-760.34"/>
</g>
<!-- Node29 -->
<g id="node29" class="node"><title>Node29</title>
<g id="a_node29"><a xlink:href="mxm__std_8F90.html#a2f4e4e1b4daebbd4d0580029d0f54016" target="_top" xlink:title="mxf4">
<polygon fill="white" stroke="black" points="783.5,-722.5 783.5,-741.5 822.5,-741.5 822.5,-722.5 783.5,-722.5"/>
<text text-anchor="middle" x="803" y="-729.5" font-family="Helvetica,sans-Serif" font-size="10.00">mxf4</text>
</a>
</g>
</g>
<!-- Node24&#45;&gt;Node29 -->
<g id="edge32" class="edge"><title>Node24&#45;&gt;Node29</title>
<path fill="none" stroke="midnightblue" d="M685.651,-494.885C690.091,-529.033 708.916,-643.719 768,-713 769.933,-715.267 772.208,-717.317 774.65,-719.156"/>
<polygon fill="midnightblue" stroke="midnightblue" points="773.011,-722.26 783.341,-724.614 776.734,-716.332 773.011,-722.26"/>
</g>
<!-- Node30 -->
<g id="node30" class="node"><title>Node30</title>
<g id="a_node30"><a xlink:href="mxm__std_8F90.html#a5a6d5c31350c601ba8327b75a72cba0a" target="_top" xlink:title="mxf5">
<polygon fill="white" stroke="black" points="783.5,-684.5 783.5,-703.5 822.5,-703.5 822.5,-684.5 783.5,-684.5"/>
<text text-anchor="middle" x="803" y="-691.5" font-family="Helvetica,sans-Serif" font-size="10.00">mxf5</text>
</a>
</g>
</g>
<!-- Node24&#45;&gt;Node30 -->
<g id="edge33" class="edge"><title>Node24&#45;&gt;Node30</title>
<path fill="none" stroke="midnightblue" d="M686.499,-494.899C693.077,-525.267 716.628,-618.47 768,-675 769.961,-677.158 772.226,-679.128 774.638,-680.913"/>
<polygon fill="midnightblue" stroke="midnightblue" points="772.838,-683.915 783.168,-686.266 776.559,-677.986 772.838,-683.915"/>
</g>
<!-- Node31 -->
<g id="node31" class="node"><title>Node31</title>
<g id="a_node31"><a xlink:href="mxm__std_8F90.html#a38a142edde1e72a918d280747a319f7a" target="_top" xlink:title="mxf6">
<polygon fill="white" stroke="black" points="783.5,-646.5 783.5,-665.5 822.5,-665.5 822.5,-646.5 783.5,-646.5"/>
<text text-anchor="middle" x="803" y="-653.5" font-family="Helvetica,sans-Serif" font-size="10.00">mxf6</text>
</a>
</g>
</g>
<!-- Node24&#45;&gt;Node31 -->
<g id="edge34" class="edge"><title>Node24&#45;&gt;Node31</title>
<path fill="none" stroke="midnightblue" d="M687.68,-494.713C696.596,-520.687 724.09,-592.77 768,-637 770.054,-639.069 772.382,-640.981 774.831,-642.729"/>
<polygon fill="midnightblue" stroke="midnightblue" points="773.067,-645.753 783.413,-648.033 776.747,-639.798 773.067,-645.753"/>
</g>
<!-- Node32 -->
<g id="node32" class="node"><title>Node32</title>
<g id="a_node32"><a xlink:href="mxm__std_8F90.html#a1919ea16c0a7b4e248e45e983c29d965" target="_top" xlink:title="mxf7">
<polygon fill="white" stroke="black" points="783.5,-608.5 783.5,-627.5 822.5,-627.5 822.5,-608.5 783.5,-608.5"/>
<text text-anchor="middle" x="803" y="-615.5" font-family="Helvetica,sans-Serif" font-size="10.00">mxf7</text>
</a>
</g>
</g>
<!-- Node24&#45;&gt;Node32 -->
<g id="edge35" class="edge"><title>Node24&#45;&gt;Node32</title>
<path fill="none" stroke="midnightblue" d="M689.636,-494.628C701.259,-515.712 731.429,-566.658 768,-599 769.994,-600.764 772.18,-602.435 774.45,-603.999"/>
<polygon fill="midnightblue" stroke="midnightblue" points="773.046,-607.244 783.403,-609.479 776.701,-601.273 773.046,-607.244"/>
</g>
<!-- Node33 -->
<g id="node33" class="node"><title>Node33</title>
<g id="a_node33"><a xlink:href="mxm__std_8F90.html#afb2e2cde9040ab037e3586b0deef3851" target="_top" xlink:title="mxf12">
<polygon fill="white" stroke="black" points="780.5,-570.5 780.5,-589.5 825.5,-589.5 825.5,-570.5 780.5,-570.5"/>
<text text-anchor="middle" x="803" y="-577.5" font-family="Helvetica,sans-Serif" font-size="10.00">mxf12</text>
</a>
</g>
</g>
<!-- Node24&#45;&gt;Node33 -->
<g id="edge36" class="edge"><title>Node24&#45;&gt;Node33</title>
<path fill="none" stroke="midnightblue" d="M693.654,-494.653C708.399,-509.884 738.729,-539.926 768,-561 770.065,-562.487 772.257,-563.947 774.495,-565.356"/>
<polygon fill="midnightblue" stroke="midnightblue" points="772.787,-568.412 783.177,-570.487 776.349,-562.386 772.787,-568.412"/>
</g>
<!-- Node34 -->
<g id="node34" class="node"><title>Node34</title>
<g id="a_node34"><a xlink:href="mxm__std_8F90.html#a8ab38e8d33e92444b748159b82759c27" target="_top" xlink:title="mxf9">
<polygon fill="white" stroke="black" points="783.5,-532.5 783.5,-551.5 822.5,-551.5 822.5,-532.5 783.5,-532.5"/>
<text text-anchor="middle" x="803" y="-539.5" font-family="Helvetica,sans-Serif" font-size="10.00">mxf9</text>
</a>
</g>
</g>
<!-- Node24&#45;&gt;Node34 -->
<g id="edge37" class="edge"><title>Node24&#45;&gt;Node34</title>
<path fill="none" stroke="midnightblue" d="M704.167,-494.541C723.402,-503.872 752.867,-518.165 774.436,-528.628"/>
<polygon fill="midnightblue" stroke="midnightblue" points="772.909,-531.778 783.433,-532.993 775.964,-525.48 772.909,-531.778"/>
</g>
<!-- Node35 -->
<g id="node35" class="node"><title>Node35</title>
<g id="a_node35"><a xlink:href="mxm__std_8F90.html#a5786b175fcbe28ecafe1d878687c3ccf" target="_top" xlink:title="mxf10">
<polygon fill="white" stroke="black" points="780.5,-494.5 780.5,-513.5 825.5,-513.5 825.5,-494.5 780.5,-494.5"/>
<text text-anchor="middle" x="803" y="-501.5" font-family="Helvetica,sans-Serif" font-size="10.00">mxf10</text>
</a>
</g>
</g>
<!-- Node24&#45;&gt;Node35 -->
<g id="edge38" class="edge"><title>Node24&#45;&gt;Node35</title>
<path fill="none" stroke="midnightblue" d="M707.155,-488.663C725.1,-491.565 750.381,-495.653 770.33,-498.879"/>
<polygon fill="midnightblue" stroke="midnightblue" points="769.778,-502.335 780.209,-500.476 770.896,-495.425 769.778,-502.335"/>
</g>
<!-- Node36 -->
<g id="node36" class="node"><title>Node36</title>
<g id="a_node36"><a xlink:href="mxm__std_8F90.html#a244c7a41b5b7a22acba71c34552c2774" target="_top" xlink:title="mxf11">
<polygon fill="white" stroke="black" points="780.5,-456.5 780.5,-475.5 825.5,-475.5 825.5,-456.5 780.5,-456.5"/>
<text text-anchor="middle" x="803" y="-463.5" font-family="Helvetica,sans-Serif" font-size="10.00">mxf11</text>
</a>
</g>
</g>
<!-- Node24&#45;&gt;Node36 -->
<g id="edge39" class="edge"><title>Node24&#45;&gt;Node36</title>
<path fill="none" stroke="midnightblue" d="M707.155,-481.337C725.1,-478.435 750.381,-474.347 770.33,-471.121"/>
<polygon fill="midnightblue" stroke="midnightblue" points="770.896,-474.575 780.209,-469.524 769.778,-467.665 770.896,-474.575"/>
</g>
<!-- Node37 -->
<g id="node37" class="node"><title>Node37</title>
<g id="a_node37"><a xlink:href="mxm__std_8F90.html#a6a048a62b47a5c2327279e158c1689df" target="_top" xlink:title="mxf13">
<polygon fill="white" stroke="black" points="780.5,-418.5 780.5,-437.5 825.5,-437.5 825.5,-418.5 780.5,-418.5"/>
<text text-anchor="middle" x="803" y="-425.5" font-family="Helvetica,sans-Serif" font-size="10.00">mxf13</text>
</a>
</g>
</g>
<!-- Node24&#45;&gt;Node37 -->
<g id="edge40" class="edge"><title>Node24&#45;&gt;Node37</title>
<path fill="none" stroke="midnightblue" d="M704.167,-475.459C722.976,-466.335 751.567,-452.466 772.991,-442.073"/>
<polygon fill="midnightblue" stroke="midnightblue" points="774.799,-445.085 782.269,-437.572 771.744,-438.787 774.799,-445.085"/>
</g>
<!-- Node38 -->
<g id="node38" class="node"><title>Node38</title>
<g id="a_node38"><a xlink:href="mxm__std_8F90.html#a6e57628b882cb8bcac215e9a5b523eed" target="_top" xlink:title="mxf14">
<polygon fill="white" stroke="black" points="780.5,-380.5 780.5,-399.5 825.5,-399.5 825.5,-380.5 780.5,-380.5"/>
<text text-anchor="middle" x="803" y="-387.5" font-family="Helvetica,sans-Serif" font-size="10.00">mxf14</text>
</a>
</g>
</g>
<!-- Node24&#45;&gt;Node38 -->
<g id="edge41" class="edge"><title>Node24&#45;&gt;Node38</title>
<path fill="none" stroke="midnightblue" d="M693.654,-475.347C708.399,-460.116 738.729,-430.074 768,-409 770.065,-407.513 772.257,-406.053 774.495,-404.644"/>
<polygon fill="midnightblue" stroke="midnightblue" points="776.349,-407.614 783.177,-399.513 772.787,-401.588 776.349,-407.614"/>
</g>
<!-- Node39 -->
<g id="node39" class="node"><title>Node39</title>
<g id="a_node39"><a xlink:href="mxm__std_8F90.html#a02e79201be026faf756be00e58334c4f" target="_top" xlink:title="mxf15">
<polygon fill="white" stroke="black" points="780.5,-342.5 780.5,-361.5 825.5,-361.5 825.5,-342.5 780.5,-342.5"/>
<text text-anchor="middle" x="803" y="-349.5" font-family="Helvetica,sans-Serif" font-size="10.00">mxf15</text>
</a>
</g>
</g>
<!-- Node24&#45;&gt;Node39 -->
<g id="edge42" class="edge"><title>Node24&#45;&gt;Node39</title>
<path fill="none" stroke="midnightblue" d="M689.636,-475.372C701.259,-454.288 731.429,-403.342 768,-371 769.52,-369.656 771.15,-368.366 772.844,-367.136"/>
<polygon fill="midnightblue" stroke="midnightblue" points="775.096,-369.851 781.632,-361.512 771.322,-363.955 775.096,-369.851"/>
</g>
<!-- Node40 -->
<g id="node40" class="node"><title>Node40</title>
<g id="a_node40"><a xlink:href="mxm__std_8F90.html#a2fbea6eeadc258673ba8ea5708593aee" target="_top" xlink:title="mxf16">
<polygon fill="white" stroke="black" points="780.5,-304.5 780.5,-323.5 825.5,-323.5 825.5,-304.5 780.5,-304.5"/>
<text text-anchor="middle" x="803" y="-311.5" font-family="Helvetica,sans-Serif" font-size="10.00">mxf16</text>
</a>
</g>
</g>
<!-- Node24&#45;&gt;Node40 -->
<g id="edge43" class="edge"><title>Node24&#45;&gt;Node40</title>
<path fill="none" stroke="midnightblue" d="M687.68,-475.287C696.596,-449.313 724.09,-377.23 768,-333 769.245,-331.746 770.589,-330.551 772.001,-329.414"/>
<polygon fill="midnightblue" stroke="midnightblue" points="774.292,-332.088 780.581,-323.561 770.347,-326.305 774.292,-332.088"/>
</g>
<!-- Node41 -->
<g id="node41" class="node"><title>Node41</title>
<g id="a_node41"><a xlink:href="mxm__std_8F90.html#a3829af481cd230e6aadef08feab9a278" target="_top" xlink:title="mxf17">
<polygon fill="white" stroke="black" points="780.5,-266.5 780.5,-285.5 825.5,-285.5 825.5,-266.5 780.5,-266.5"/>
<text text-anchor="middle" x="803" y="-273.5" font-family="Helvetica,sans-Serif" font-size="10.00">mxf17</text>
</a>
</g>
</g>
<!-- Node24&#45;&gt;Node41 -->
<g id="edge44" class="edge"><title>Node24&#45;&gt;Node41</title>
<path fill="none" stroke="midnightblue" d="M686.499,-475.101C693.077,-444.733 716.628,-351.53 768,-295 769.188,-293.693 770.488,-292.454 771.864,-291.284"/>
<polygon fill="midnightblue" stroke="midnightblue" points="774.167,-293.943 780.337,-285.33 770.143,-288.216 774.167,-293.943"/>
</g>
<!-- Node42 -->
<g id="node42" class="node"><title>Node42</title>
<g id="a_node42"><a xlink:href="mxm__std_8F90.html#a48ed8195cc978a87c005b3306a974894" target="_top" xlink:title="mxf18">
<polygon fill="white" stroke="black" points="780.5,-228.5 780.5,-247.5 825.5,-247.5 825.5,-228.5 780.5,-228.5"/>
<text text-anchor="middle" x="803" y="-235.5" font-family="Helvetica,sans-Serif" font-size="10.00">mxf18</text>
</a>
</g>
</g>
<!-- Node24&#45;&gt;Node42 -->
<g id="edge45" class="edge"><title>Node24&#45;&gt;Node42</title>
<path fill="none" stroke="midnightblue" d="M685.651,-475.115C690.091,-440.967 708.916,-326.281 768,-257 769.146,-255.656 770.413,-254.388 771.763,-253.195"/>
<polygon fill="midnightblue" stroke="midnightblue" points="774.073,-255.845 780.156,-247.171 769.991,-250.159 774.073,-255.845"/>
</g>
<!-- Node43 -->
<g id="node43" class="node"><title>Node43</title>
<g id="a_node43"><a xlink:href="mxm__std_8F90.html#a28a9857286e11804e1a97875028ecb09" target="_top" xlink:title="mxf19">
<polygon fill="white" stroke="black" points="780.5,-190.5 780.5,-209.5 825.5,-209.5 825.5,-190.5 780.5,-190.5"/>
<text text-anchor="middle" x="803" y="-197.5" font-family="Helvetica,sans-Serif" font-size="10.00">mxf19</text>
</a>
</g>
</g>
<!-- Node24&#45;&gt;Node43 -->
<g id="edge46" class="edge"><title>Node24&#45;&gt;Node43</title>
<path fill="none" stroke="midnightblue" d="M685.021,-475.347C687.5,-438.062 700.973,-301.432 768,-219 769.248,-217.465 770.654,-216.033 772.167,-214.701"/>
<polygon fill="midnightblue" stroke="midnightblue" points="774.263,-217.505 780.372,-208.848 770.198,-211.806 774.263,-217.505"/>
</g>
<!-- Node44 -->
<g id="node44" class="node"><title>Node44</title>
<g id="a_node44"><a xlink:href="mxm__std_8F90.html#af60059bd60847f48acdf6461fefa3b22" target="_top" xlink:title="mxf20">
<polygon fill="white" stroke="black" points="780.5,-152.5 780.5,-171.5 825.5,-171.5 825.5,-152.5 780.5,-152.5"/>
<text text-anchor="middle" x="803" y="-159.5" font-family="Helvetica,sans-Serif" font-size="10.00">mxf20</text>
</a>
</g>
</g>
<!-- Node24&#45;&gt;Node44 -->
<g id="edge47" class="edge"><title>Node24&#45;&gt;Node44</title>
<path fill="none" stroke="midnightblue" d="M684.562,-475.399C685.301,-435.017 693.059,-276.643 768,-181 769.22,-179.443 770.605,-177.994 772.101,-176.648"/>
<polygon fill="midnightblue" stroke="midnightblue" points="774.2,-179.45 780.264,-170.762 770.106,-173.772 774.2,-179.45"/>
</g>
<!-- Node45 -->
<g id="node45" class="node"><title>Node45</title>
<g id="a_node45"><a xlink:href="mxm__std_8F90.html#a825db174c5643aef5e4cdf57067ebbbb" target="_top" xlink:title="mxf21">
<polygon fill="white" stroke="black" points="780.5,-114.5 780.5,-133.5 825.5,-133.5 825.5,-114.5 780.5,-114.5"/>
<text text-anchor="middle" x="803" y="-121.5" font-family="Helvetica,sans-Serif" font-size="10.00">mxf21</text>
</a>
</g>
</g>
<!-- Node24&#45;&gt;Node45 -->
<g id="edge48" class="edge"><title>Node24&#45;&gt;Node45</title>
<path fill="none" stroke="midnightblue" d="M684.202,-475.412C683.348,-432.084 685.109,-251.961 768,-143 769.198,-141.426 770.565,-139.963 772.049,-138.608"/>
<polygon fill="midnightblue" stroke="midnightblue" points="774.149,-141.408 780.177,-132.695 770.031,-135.747 774.149,-141.408"/>
</g>
<!-- Node46 -->
<g id="node46" class="node"><title>Node46</title>
<g id="a_node46"><a xlink:href="mxm__std_8F90.html#a1f2059cb835b2818aef861f2f59a0a72" target="_top" xlink:title="mxf22">
<polygon fill="white" stroke="black" points="780.5,-76.5 780.5,-95.5 825.5,-95.5 825.5,-76.5 780.5,-76.5"/>
<text text-anchor="middle" x="803" y="-83.5" font-family="Helvetica,sans-Serif" font-size="10.00">mxf22</text>
</a>
</g>
</g>
<!-- Node24&#45;&gt;Node46 -->
<g id="edge49" class="edge"><title>Node24&#45;&gt;Node46</title>
<path fill="none" stroke="midnightblue" d="M685.552,-475.283C691.458,-422.168 721.89,-167.092 768,-105 769.209,-103.371 770.602,-101.864 772.119,-100.471"/>
<polygon fill="midnightblue" stroke="midnightblue" points="774.41,-103.133 780.459,-94.435 770.306,-97.4624 774.41,-103.133"/>
</g>
<!-- Node47 -->
<g id="node47" class="node"><title>Node47</title>
<g id="a_node47"><a xlink:href="mxm__std_8F90.html#a3dc6491b8d44b702dbbb13a01f887c59" target="_top" xlink:title="mxf23">
<polygon fill="white" stroke="black" points="780.5,-38.5 780.5,-57.5 825.5,-57.5 825.5,-38.5 780.5,-38.5"/>
<text text-anchor="middle" x="803" y="-45.5" font-family="Helvetica,sans-Serif" font-size="10.00">mxf23</text>
</a>
</g>
</g>
<!-- Node24&#45;&gt;Node47 -->
<g id="edge50" class="edge"><title>Node24&#45;&gt;Node47</title>
<path fill="none" stroke="midnightblue" d="M685.326,-475.437C690.307,-419.611 717.809,-135.957 768,-67 769.194,-65.3599 770.575,-63.8432 772.082,-62.4437"/>
<polygon fill="midnightblue" stroke="midnightblue" points="774.373,-65.1054 780.4,-56.3916 770.255,-59.4453 774.373,-65.1054"/>
</g>
<!-- Node48 -->
<g id="node48" class="node"><title>Node48</title>
<g id="a_node48"><a xlink:href="mxm__std_8F90.html#af0752c9a61343489900f8d812c6980ed" target="_top" xlink:title="mxf24">
<polygon fill="white" stroke="black" points="780.5,-0.5 780.5,-19.5 825.5,-19.5 825.5,-0.5 780.5,-0.5"/>
<text text-anchor="middle" x="803" y="-7.5" font-family="Helvetica,sans-Serif" font-size="10.00">mxf24</text>
</a>
</g>
</g>
<!-- Node24&#45;&gt;Node48 -->
<g id="edge51" class="edge"><title>Node24&#45;&gt;Node48</title>
<path fill="none" stroke="midnightblue" d="M685.158,-475.351C689.34,-416.396 713.784,-104.758 768,-29 769.181,-27.3503 770.551,-25.8264 772.052,-24.4214"/>
<polygon fill="midnightblue" stroke="midnightblue" points="774.342,-27.0824 780.35,-18.3555 770.211,-21.4313 774.342,-27.0824"/>
</g>
</g>
</svg>
        <g id="navigator" transform="translate(0 0)" fill="#404254">
                <rect fill="#f2f5e9" fill-opacity="0.5" stroke="#606060" stroke-width=".5" x="0" y="0" width="60" height="60"/>
                <use id="zoomplus" xlink:href="#zoomPlus" x="17" y="9" onmousedown="handleZoom(evt,'in')"/>
                <use id="zoomminus" xlink:href="#zoomMin" x="42" y="9" onmousedown="handleZoom(evt,'out')"/>
                <use id="reset" xlink:href="#resetDef" x="30" y="36" onmousedown="handleReset()"/>
                <g id="arrowUp" xlink:href="#dirArrow" transform="translate(30 24)" onmousedown="handlePan(0,-1)">
                  <use xlink:href="#rim" fill="#404040">
                        <set attributeName="fill" to="#808080" begin="arrowUp.mouseover" end="arrowUp.mouseout"/>
                  </use>
                  <path fill="none" stroke="white" stroke-width="1.5" d="M0,-3.0v7 M-2.5,-0.5L0,-3.0L2.5,-0.5"/>
                </g>
                <g id="arrowRight" xlink:href="#dirArrow" transform="rotate(90) translate(36 -43)" onmousedown="handlePan(1,0)">
                  <use xlink:href="#rim" fill="#404040">
                        <set attributeName="fill" to="#808080" begin="arrowRight.mouseover" end="arrowRight.mouseout"/>
                  </use>
                  <path fill="none" stroke="white" stroke-width="1.5" d="M0,-3.0v7 M-2.5,-0.5L0,-3.0L2.5,-0.5"/>
                </g>
                <g id="arrowDown" xlink:href="#dirArrow" transform="rotate(180) translate(-30 -48)" onmousedown="handlePan(0,1)">
                  <use xlink:href="#rim" fill="#404040">
                        <set attributeName="fill" to="#808080" begin="arrowDown.mouseover" end="arrowDown.mouseout"/>
                  </use>
                  <path fill="none" stroke="white" stroke-width="1.5" d="M0,-3.0v7 M-2.5,-0.5L0,-3.0L2.5,-0.5"/>
                </g>
                <g id="arrowLeft" xlink:href="#dirArrow" transform="rotate(270) translate(-36 17)" onmousedown="handlePan(-1,0)">
                  <use xlink:href="#rim" fill="#404040">
                        <set attributeName="fill" to="#808080" begin="arrowLeft.mouseover" end="arrowLeft.mouseout"/>
                  </use>
                  <path fill="none" stroke="white" stroke-width="1.5" d="M0,-3.0v7 M-2.5,-0.5L0,-3.0L2.5,-0.5"/>
                </g>
        </g>
        <svg viewBox="0 0 15 15" width="100%" height="30px" preserveAspectRatio="xMaxYMin meet">
         <g id="arrow_out" transform="scale(0.3 0.3)">
          <a xlink:href="drive2_8F90_a7f0d055bb47546a4859ac7d63339197e_cgraph_org.svg" target="_base">
           <rect id="button" ry="5" rx="5" y="6" x="6" height="38" width="38"
                fill="#f2f5e9" fill-opacity="0.5" stroke="#606060" stroke-width="1.0"/>
           <path id="arrow"
             d="M 11.500037,31.436501 C 11.940474,20.09759 22.043105,11.32322 32.158766,21.979434 L 37.068811,17.246167 C 37.068811,17.246167 37.088388,32 37.088388,32 L 22.160133,31.978069 C 22.160133,31.978069 26.997745,27.140456 26.997745,27.140456 C 18.528582,18.264221 13.291696,25.230495 11.500037,31.436501 z"
             style="fill:#404040;"/>
          </a>
         </g>
        </svg>
</svg>
