<?xml version="1.0" encoding="UTF-8" standalone="no"?>
<!DOCTYPE svg PUBLIC "-//W3C//DTD SVG 1.1//EN"
 "http://www.w3.org/Graphics/SVG/1.1/DTD/svg11.dtd">
<!-- Generated by graphviz version 2.38.0 (20140413.2041)
 -->
<!-- Title: settime Pages: 1 -->
<!--zoomable 579 -->
<svg id="main" version="1.1" xmlns="http://www.w3.org/2000/svg" xmlns:xlink="http://www.w3.org/1999/xlink" xml:space="preserve" onload="init(evt)">
<style type="text/css"><![CDATA[
.edge:hover path { stroke: red; }
.edge:hover polygon { stroke: red; fill: red; }
]]></style>
<script type="text/javascript"><![CDATA[
var edges = document.getElementsByTagName('g');
if (edges && edges.length) {
  for (var i=0;i<edges.length;i++) {
    if (edges[i].id.substr(0,4)=='edge') {
      edges[i].setAttribute('class','edge');
    }
  }
}
]]></script>
        <defs>
                <circle id="rim" cx="0" cy="0" r="7"/>
                <circle id="rim2" cx="0" cy="0" r="3.5"/>
                <g id="zoomPlus">
                        <use xlink:href="#rim" fill="#404040">
                                <set attributeName="fill" to="#808080" begin="zoomplus.mouseover" end="zoomplus.mouseout"/>
                        </use>
                        <path d="M-4,0h8M0,-4v8" fill="none" stroke="white" stroke-width="1.5" pointer-events="none"/>
                </g>
                <g id="zoomMin">
                        <use xlink:href="#rim" fill="#404040">
                                <set attributeName="fill" to="#808080" begin="zoomminus.mouseover" end="zoomminus.mouseout"/>
                        </use>
                        <path d="M-4,0h8" fill="none" stroke="white" stroke-width="1.5" pointer-events="none"/>
                </g>
                <g id="dirArrow">
                        <path fill="none" stroke="white" stroke-width="1.5" d="M0,-3.0v7 M-2.5,-0.5L0,-3.0L2.5,-0.5"/>
                </g>
               <g id="resetDef">
                       <use xlink:href="#rim2" fill="#404040">
                               <set attributeName="fill" to="#808080" begin="reset.mouseover" end="reset.mouseout"/>
                       </use>
               </g>
        </defs>

<script type="text/javascript">
var viewWidth = 804;
var viewHeight = 579;
var sectionId = 'dynsection-26';
</script>
<script xlink:href="svgpan.js"/>
<svg id="graph" class="graph">
<g id="viewport">
<title>settime</title>
<polygon fill="white" stroke="none" points="-4,4 -4,-575 800,-575 800,4 -4,4"/>
<!-- Node1 -->
<g id="node1" class="node"><title>Node1</title>
<polygon fill="#bfbfbf" stroke="black" points="0,-437.5 0,-456.5 50,-456.5 50,-437.5 0,-437.5"/>
<text text-anchor="middle" x="25" y="-444.5" font-family="Helvetica,sans-Serif" font-size="10.00">settime</text>
</g>
<!-- Node2 -->
<g id="node2" class="node"><title>Node2</title>
<g id="a_node2"><a xlink:href="navier1_8F90.html#aa71f20507ee0dc93df08d95490287fca" target="_top" xlink:title="Compute Adams&#45;Bashforth coefficients (order NAB, less or equal to 3). NBD .EQ. 1 Standard Adams&#45;Bashf...">
<polygon fill="white" stroke="black" points="88.5,-494.5 88.5,-513.5 141.5,-513.5 141.5,-494.5 88.5,-494.5"/>
<text text-anchor="middle" x="115" y="-501.5" font-family="Helvetica,sans-Serif" font-size="10.00">setabbd</text>
</a>
</g>
</g>
<!-- Node1&#45;&gt;Node2 -->
<g id="edge1" class="edge"><title>Node1&#45;&gt;Node2</title>
<path fill="none" stroke="midnightblue" d="M40.928,-456.669C54.5372,-465.484 74.8627,-478.65 90.6247,-488.859"/>
<polygon fill="midnightblue" stroke="midnightblue" points="88.9965,-491.975 99.2925,-494.474 92.8021,-486.099 88.9965,-491.975"/>
</g>
<!-- Node3 -->
<g id="node3" class="node"><title>Node3</title>
<g id="a_node3"><a xlink:href="navier1_8F90.html#a9fd820e79a347554aa280e9956f8797b" target="_top" xlink:title="Compute backwards&#45;difference (BDF) coefficients, order NBD. ">
<polygon fill="white" stroke="black" points="94,-456.5 94,-475.5 136,-475.5 136,-456.5 94,-456.5"/>
<text text-anchor="middle" x="115" y="-463.5" font-family="Helvetica,sans-Serif" font-size="10.00">setbd</text>
</a>
</g>
</g>
<!-- Node1&#45;&gt;Node3 -->
<g id="edge2" class="edge"><title>Node1&#45;&gt;Node3</title>
<path fill="none" stroke="midnightblue" d="M50.0464,-452.192C60.4588,-454.44 72.7625,-457.096 83.7831,-459.476"/>
<polygon fill="midnightblue" stroke="midnightblue" points="83.339,-462.961 93.8524,-461.65 84.8163,-456.118 83.339,-462.961"/>
</g>
<!-- Node17 -->
<g id="node17" class="node"><title>Node17</title>
<g id="a_node17"><a xlink:href="subs1_8F90.html#a156860172f4c95a65ff7fb5b447d472e" target="_top" xlink:title="Set the new time step. All cases covered. ">
<polygon fill="white" stroke="black" points="95,-418.5 95,-437.5 135,-437.5 135,-418.5 95,-418.5"/>
<text text-anchor="middle" x="115" y="-425.5" font-family="Helvetica,sans-Serif" font-size="10.00">setdt</text>
</a>
</g>
</g>
<!-- Node1&#45;&gt;Node17 -->
<g id="edge16" class="edge"><title>Node1&#45;&gt;Node17</title>
<path fill="none" stroke="midnightblue" d="M50.0464,-441.808C60.7999,-439.486 73.5707,-436.729 84.862,-434.291"/>
<polygon fill="midnightblue" stroke="midnightblue" points="85.6792,-437.695 94.7152,-432.164 84.2018,-430.853 85.6792,-437.695"/>
</g>
<!-- Node50 -->
<g id="node50" class="node"><title>Node50</title>
<g id="a_node50"><a xlink:href="navier1_8F90.html#a89c75c05d50853b69faee420ccfa6c71" target="_top" xlink:title="Set up parameters for backward differentiation scheme. ">
<polygon fill="white" stroke="black" points="86,-380.5 86,-399.5 144,-399.5 144,-380.5 86,-380.5"/>
<text text-anchor="middle" x="115" y="-387.5" font-family="Helvetica,sans-Serif" font-size="10.00">setordbd</text>
</a>
</g>
</g>
<!-- Node1&#45;&gt;Node50 -->
<g id="edge56" class="edge"><title>Node1&#45;&gt;Node50</title>
<path fill="none" stroke="midnightblue" d="M40.928,-437.331C54.5372,-428.516 74.8627,-415.35 90.6247,-405.141"/>
<polygon fill="midnightblue" stroke="midnightblue" points="92.8021,-407.901 99.2925,-399.526 88.9965,-402.025 92.8021,-407.901"/>
</g>
<!-- Node4 -->
<g id="node4" class="node"><title>Node4</title>
<g id="a_node4"><a xlink:href="navier1_8F90.html#a647a8bb2f501c95d5b36df655be7a373" target="_top" xlink:title="Setup the linear system that defines BDF coefficients. ">
<polygon fill="white" stroke="black" points="194.5,-494.5 194.5,-513.5 238.5,-513.5 238.5,-494.5 194.5,-494.5"/>
<text text-anchor="middle" x="216.5" y="-501.5" font-family="Helvetica,sans-Serif" font-size="10.00">bdsys</text>
</a>
</g>
</g>
<!-- Node3&#45;&gt;Node4 -->
<g id="edge3" class="edge"><title>Node3&#45;&gt;Node4</title>
<path fill="none" stroke="midnightblue" d="M136.135,-473.69C150.149,-479.042 169.091,-486.276 184.956,-492.335"/>
<polygon fill="midnightblue" stroke="midnightblue" points="183.774,-495.63 194.364,-495.928 186.271,-489.091 183.774,-495.63"/>
</g>
<!-- Node5 -->
<g id="node5" class="node"><title>Node5</title>
<g id="a_node5"><a xlink:href="gauss_8F90.html#a6e7991707a9db17139b2e8ea84d79ee4" target="_top" xlink:title="the first subroutine to compute the matrix inverse ">
<polygon fill="white" stroke="black" points="202,-532.5 202,-551.5 231,-551.5 231,-532.5 202,-532.5"/>
<text text-anchor="middle" x="216.5" y="-539.5" font-family="Helvetica,sans-Serif" font-size="10.00">lu</text>
</a>
</g>
</g>
<!-- Node3&#45;&gt;Node5 -->
<g id="edge4" class="edge"><title>Node3&#45;&gt;Node5</title>
<path fill="none" stroke="midnightblue" d="M131.55,-475.68C135.727,-478.511 140.15,-481.729 144,-485 161.729,-500.064 161.507,-508.885 180,-523 183.855,-525.942 188.228,-528.685 192.554,-531.121"/>
<polygon fill="midnightblue" stroke="midnightblue" points="191.25,-534.388 201.734,-535.92 194.493,-528.185 191.25,-534.388"/>
</g>
<!-- Node6 -->
<g id="node6" class="node"><title>Node6</title>
<g id="a_node6"><a xlink:href="gauss_8F90.html#aeb06a1409214a8741a4645d0110afe8b" target="_top" xlink:title="second part of the matrix inverse ">
<polygon fill="white" stroke="black" points="196,-456.5 196,-475.5 237,-475.5 237,-456.5 196,-456.5"/>
<text text-anchor="middle" x="216.5" y="-463.5" font-family="Helvetica,sans-Serif" font-size="10.00">solve</text>
</a>
</g>
</g>
<!-- Node3&#45;&gt;Node6 -->
<g id="edge5" class="edge"><title>Node3&#45;&gt;Node6</title>
<path fill="none" stroke="midnightblue" d="M136.135,-466C150.254,-466 169.375,-466 185.311,-466"/>
<polygon fill="midnightblue" stroke="midnightblue" points="185.734,-469.5 195.734,-466 185.734,-462.5 185.734,-469.5"/>
</g>
<!-- Node7 -->
<g id="node7" class="node"><title>Node7</title>
<g id="a_node7"><a xlink:href="byte_8c.html#a2da8eeb074dfd3ffbfb3e9a4d301cda4" target="_top" xlink:title="exitt">
<polygon fill="white" stroke="black" points="491,-418.5 491,-437.5 527,-437.5 527,-418.5 491,-418.5"/>
<text text-anchor="middle" x="509" y="-425.5" font-family="Helvetica,sans-Serif" font-size="10.00">exitt</text>
</a>
</g>
</g>
<!-- Node6&#45;&gt;Node7 -->
<g id="edge6" class="edge"><title>Node6&#45;&gt;Node7</title>
<path fill="none" stroke="midnightblue" d="M237.232,-465.415C275.723,-464.026 363.413,-459.638 436,-447 450.974,-444.393 467.38,-440.173 480.745,-436.372"/>
<polygon fill="midnightblue" stroke="midnightblue" points="482.111,-439.619 490.726,-433.452 480.145,-432.901 482.111,-439.619"/>
</g>
<!-- Node8 -->
<g id="node8" class="node"><title>Node8</title>
<g id="a_node8"><a xlink:href="classctimer.html#abcecbc845c8ee72e13a19eaa30b80d77" target="_top" xlink:title="ctimer::dnekclock">
<polygon fill="white" stroke="black" points="582.5,-342.5 582.5,-361.5 679.5,-361.5 679.5,-342.5 582.5,-342.5"/>
<text text-anchor="middle" x="631" y="-349.5" font-family="Helvetica,sans-Serif" font-size="10.00">ctimer::dnekclock</text>
</a>
</g>
</g>
<!-- Node7&#45;&gt;Node8 -->
<g id="edge7" class="edge"><title>Node7&#45;&gt;Node8</title>
<path fill="none" stroke="midnightblue" d="M525.427,-418.46C531.937,-414.247 539.498,-409.098 546,-404 563.08,-390.607 563.604,-382.519 582,-371 585.016,-369.112 588.251,-367.352 591.564,-365.726"/>
<polygon fill="midnightblue" stroke="midnightblue" points="593.297,-368.786 600.994,-361.506 590.437,-362.397 593.297,-368.786"/>
</g>
<!-- Node10 -->
<g id="node10" class="node"><title>Node10</title>
<g id="a_node10"><a xlink:href="subs1_8F90.html#a339739b88994e5bb12bd923147f94983" target="_top" xlink:title="flush_io">
<polygon fill="white" stroke="black" points="604.5,-418.5 604.5,-437.5 657.5,-437.5 657.5,-418.5 604.5,-418.5"/>
<text text-anchor="middle" x="631" y="-425.5" font-family="Helvetica,sans-Serif" font-size="10.00">flush_io</text>
</a>
</g>
</g>
<!-- Node7&#45;&gt;Node10 -->
<g id="edge9" class="edge"><title>Node7&#45;&gt;Node10</title>
<path fill="none" stroke="midnightblue" d="M527.193,-428C544.648,-428 572.189,-428 594.374,-428"/>
<polygon fill="midnightblue" stroke="midnightblue" points="594.45,-431.5 604.45,-428 594.45,-424.5 594.45,-431.5"/>
</g>
<!-- Node11 -->
<g id="node11" class="node"><title>Node11</title>
<g id="a_node11"><a xlink:href="singlmesh_8F90.html#aef78ff219741b83c1ca784b869e9cacf" target="_top" xlink:title="Dummy for singlmesh. ">
<polygon fill="white" stroke="black" points="591,-380.5 591,-399.5 671,-399.5 671,-380.5 591,-380.5"/>
<text text-anchor="middle" x="631" y="-387.5" font-family="Helvetica,sans-Serif" font-size="10.00">happy_check</text>
</a>
</g>
</g>
<!-- Node7&#45;&gt;Node11 -->
<g id="edge10" class="edge"><title>Node7&#45;&gt;Node11</title>
<path fill="none" stroke="midnightblue" d="M527.193,-422.556C543.529,-417.382 568.7,-409.412 590.046,-402.652"/>
<polygon fill="midnightblue" stroke="midnightblue" points="591.373,-405.903 599.85,-399.548 589.26,-399.23 591.373,-405.903"/>
</g>
<!-- Node12 -->
<g id="node12" class="node"><title>Node12</title>
<g id="a_node12"><a xlink:href="mpi__dummy_8F90.html#a55e9a1619aadb638b14211ce21d7d566" target="_top" xlink:title="mpi_finalize">
<polygon fill="white" stroke="black" points="595,-494.5 595,-513.5 667,-513.5 667,-494.5 595,-494.5"/>
<text text-anchor="middle" x="631" y="-501.5" font-family="Helvetica,sans-Serif" font-size="10.00">mpi_finalize</text>
</a>
</g>
</g>
<!-- Node7&#45;&gt;Node12 -->
<g id="edge11" class="edge"><title>Node7&#45;&gt;Node12</title>
<path fill="none" stroke="midnightblue" d="M520.033,-437.531C533.344,-449.787 557.971,-471.137 582,-485 585.396,-486.959 589.034,-488.804 592.731,-490.516"/>
<polygon fill="midnightblue" stroke="midnightblue" points="591.371,-493.741 601.939,-494.487 594.143,-487.313 591.371,-493.741"/>
</g>
<!-- Node13 -->
<g id="node13" class="node"><title>Node13</title>
<g id="a_node13"><a xlink:href="papi_8F90.html#a3a75ccdfbe05912fda48c3b134d114c0" target="_top" xlink:title="nek_flops">
<polygon fill="white" stroke="black" points="600,-456.5 600,-475.5 662,-475.5 662,-456.5 600,-456.5"/>
<text text-anchor="middle" x="631" y="-463.5" font-family="Helvetica,sans-Serif" font-size="10.00">nek_flops</text>
</a>
</g>
</g>
<!-- Node7&#45;&gt;Node13 -->
<g id="edge12" class="edge"><title>Node7&#45;&gt;Node13</title>
<path fill="none" stroke="midnightblue" d="M527.193,-433.444C543.529,-438.618 568.7,-446.588 590.046,-453.348"/>
<polygon fill="midnightblue" stroke="midnightblue" points="589.26,-456.77 599.85,-456.452 591.373,-450.097 589.26,-456.77"/>
</g>
<!-- Node15 -->
<g id="node15" class="node"><title>Node15</title>
<g id="a_node15"><a xlink:href="comm__mpi_8F90.html#a4acb4d8e379294232e9219bec063d8f3" target="_top" xlink:title="nekgsync">
<polygon fill="white" stroke="black" points="600,-304.5 600,-323.5 662,-323.5 662,-304.5 600,-304.5"/>
<text text-anchor="middle" x="631" y="-311.5" font-family="Helvetica,sans-Serif" font-size="10.00">nekgsync</text>
</a>
</g>
</g>
<!-- Node7&#45;&gt;Node15 -->
<g id="edge14" class="edge"><title>Node7&#45;&gt;Node15</title>
<path fill="none" stroke="midnightblue" d="M514.998,-418.255C525.166,-399.319 550.029,-357.284 582,-333 584.76,-330.904 587.782,-329.007 590.923,-327.298"/>
<polygon fill="midnightblue" stroke="midnightblue" points="592.464,-330.44 599.973,-322.966 589.442,-324.126 592.464,-330.44"/>
</g>
<!-- Node9 -->
<g id="node9" class="node"><title>Node9</title>
<g id="a_node9"><a xlink:href="mpi__dummy_8F90.html#ae6a5ef945f87c2c27849696b70f3af2a" target="_top" xlink:title="mpi_wtime">
<polygon fill="white" stroke="black" points="723,-342.5 723,-361.5 789,-361.5 789,-342.5 723,-342.5"/>
<text text-anchor="middle" x="756" y="-349.5" font-family="Helvetica,sans-Serif" font-size="10.00">mpi_wtime</text>
</a>
</g>
</g>
<!-- Node8&#45;&gt;Node9 -->
<g id="edge8" class="edge"><title>Node8&#45;&gt;Node9</title>
<path fill="none" stroke="midnightblue" d="M679.555,-352C690.405,-352 701.867,-352 712.49,-352"/>
<polygon fill="midnightblue" stroke="midnightblue" points="712.78,-355.5 722.78,-352 712.78,-348.5 712.78,-355.5"/>
</g>
<!-- Node14 -->
<g id="node14" class="node"><title>Node14</title>
<g id="a_node14"><a xlink:href="papi_8F90.html#a838be3d39e287e29002d5a68c6ad2dd8" target="_top" xlink:title="getflops_papi">
<polygon fill="white" stroke="black" points="716,-456.5 716,-475.5 796,-475.5 796,-456.5 716,-456.5"/>
<text text-anchor="middle" x="756" y="-463.5" font-family="Helvetica,sans-Serif" font-size="10.00">getflops_papi</text>
</a>
</g>
</g>
<!-- Node13&#45;&gt;Node14 -->
<g id="edge13" class="edge"><title>Node13&#45;&gt;Node14</title>
<path fill="none" stroke="midnightblue" d="M662.089,-466C675.264,-466 691.069,-466 705.875,-466"/>
<polygon fill="midnightblue" stroke="midnightblue" points="705.921,-469.5 715.921,-466 705.921,-462.5 705.921,-469.5"/>
</g>
<!-- Node16 -->
<g id="node16" class="node"><title>Node16</title>
<g id="a_node16"><a xlink:href="mpi__dummy_8F90.html#a070afe564196eb48413dbf1a9fbc99aa" target="_top" xlink:title="mpi_barrier">
<polygon fill="white" stroke="black" points="721,-304.5 721,-323.5 791,-323.5 791,-304.5 721,-304.5"/>
<text text-anchor="middle" x="756" y="-311.5" font-family="Helvetica,sans-Serif" font-size="10.00">mpi_barrier</text>
</a>
</g>
</g>
<!-- Node15&#45;&gt;Node16 -->
<g id="edge15" class="edge"><title>Node15&#45;&gt;Node16</title>
<path fill="none" stroke="midnightblue" d="M662.089,-314C676.675,-314 694.482,-314 710.59,-314"/>
<polygon fill="midnightblue" stroke="midnightblue" points="710.879,-317.5 720.879,-314 710.879,-310.5 710.879,-317.5"/>
</g>
<!-- Node18 -->
<g id="node18" class="node"><title>Node18</title>
<g id="a_node18"><a xlink:href="induct_8F90.html#ad9f4f0bccae8f16bc99748c359b489db" target="_top" xlink:title="Given velocity field (u,v,w) and dt, compute current CFL number. ">
<polygon fill="white" stroke="black" points="180,-418.5 180,-437.5 253,-437.5 253,-418.5 180,-418.5"/>
<text text-anchor="middle" x="216.5" y="-425.5" font-family="Helvetica,sans-Serif" font-size="10.00">compute_cfl</text>
</a>
</g>
</g>
<!-- Node17&#45;&gt;Node18 -->
<g id="edge17" class="edge"><title>Node17&#45;&gt;Node18</title>
<path fill="none" stroke="midnightblue" d="M135.185,-428C145.067,-428 157.577,-428 169.763,-428"/>
<polygon fill="midnightblue" stroke="midnightblue" points="169.859,-431.5 179.859,-428 169.859,-424.5 169.859,-431.5"/>
</g>
<!-- Node20 -->
<g id="node20" class="node"><title>Node20</title>
<g id="a_node20"><a xlink:href="subs1_8F90.html#ae9a3fbc5bc373045963d36015efb448d" target="_top" xlink:title="Compute new timestep based on CFL&#45;condition. ">
<polygon fill="white" stroke="black" points="194,-323.5 194,-342.5 239,-342.5 239,-323.5 194,-323.5"/>
<text text-anchor="middle" x="216.5" y="-330.5" font-family="Helvetica,sans-Serif" font-size="10.00">setdtc</text>
</a>
</g>
</g>
<!-- Node17&#45;&gt;Node20 -->
<g id="edge19" class="edge"><title>Node17&#45;&gt;Node20</title>
<path fill="none" stroke="midnightblue" d="M131.557,-418.329C135.734,-415.498 140.156,-412.278 144,-409 165.401,-390.752 187.141,-366.686 200.938,-350.569"/>
<polygon fill="midnightblue" stroke="midnightblue" points="203.956,-352.42 207.733,-342.521 198.608,-347.904 203.956,-352.42"/>
</g>
<!-- Node19 -->
<g id="node19" class="node"><title>Node19</title>
<g id="a_node19"><a xlink:href="induct_8F90.html#a4a4dfee71db47c3a19014e78f9a3b4b1" target="_top" xlink:title="getdr">
<polygon fill="white" stroke="black" points="298,-418.5 298,-437.5 339,-437.5 339,-418.5 298,-418.5"/>
<text text-anchor="middle" x="318.5" y="-425.5" font-family="Helvetica,sans-Serif" font-size="10.00">getdr</text>
</a>
</g>
</g>
<!-- Node18&#45;&gt;Node19 -->
<g id="edge18" class="edge"><title>Node18&#45;&gt;Node19</title>
<path fill="none" stroke="midnightblue" d="M253.038,-428C264.322,-428 276.681,-428 287.532,-428"/>
<polygon fill="midnightblue" stroke="midnightblue" points="287.784,-431.5 297.784,-428 287.784,-424.5 287.784,-431.5"/>
</g>
<!-- Node21 -->
<g id="node21" class="node"><title>Node21</title>
<g id="a_node21"><a xlink:href="bdry_8F90.html#aaa0d4258b1292dd19b9fc931df83bd68" target="_top" xlink:title="Apply Dirichlet boundary conditions to surface of vector (V1,V2,V3). Use IFIELD as a guide to which b...">
<polygon fill="white" stroke="black" points="293.5,-266.5 293.5,-285.5 343.5,-285.5 343.5,-266.5 293.5,-266.5"/>
<text text-anchor="middle" x="318.5" y="-273.5" font-family="Helvetica,sans-Serif" font-size="10.00">bcdirvc</text>
</a>
</g>
</g>
<!-- Node20&#45;&gt;Node21 -->
<g id="edge20" class="edge"><title>Node20&#45;&gt;Node21</title>
<path fill="none" stroke="midnightblue" d="M234.464,-323.331C250.218,-314.351 273.892,-300.857 291.936,-290.571"/>
<polygon fill="midnightblue" stroke="midnightblue" points="293.832,-293.519 300.787,-285.526 290.366,-287.438 293.832,-293.519"/>
</g>
<!-- Node27 -->
<g id="node27" class="node"><title>Node27</title>
<g id="a_node27"><a xlink:href="subs1_8F90.html#a5baa6d4c73be0e83acdc6c1f11eeae81" target="_top" xlink:title="compute max(U/dx) and max(U * dx) ">
<polygon fill="white" stroke="black" points="295,-190.5 295,-209.5 342,-209.5 342,-190.5 295,-190.5"/>
<text text-anchor="middle" x="318.5" y="-197.5" font-family="Helvetica,sans-Serif" font-size="10.00">cumax</text>
</a>
</g>
</g>
<!-- Node20&#45;&gt;Node27 -->
<g id="edge28" class="edge"><title>Node20&#45;&gt;Node27</title>
<path fill="none" stroke="midnightblue" d="M224.692,-323.435C241.26,-301.399 282.342,-246.761 303.86,-218.141"/>
<polygon fill="midnightblue" stroke="midnightblue" points="306.891,-219.933 310.104,-209.837 301.296,-215.727 306.891,-219.933"/>
</g>
<!-- Node41 -->
<g id="node41" class="node"><title>Node41</title>
<g id="a_node41"><a xlink:href="setprop_8F90.html#af114fff998975a6e77422a65106222ca" target="_top" xlink:title="Set variable property arrays. ">
<polygon fill="white" stroke="black" points="292,-342.5 292,-361.5 345,-361.5 345,-342.5 292,-342.5"/>
<text text-anchor="middle" x="318.5" y="-349.5" font-family="Helvetica,sans-Serif" font-size="10.00">setprop</text>
</a>
</g>
</g>
<!-- Node20&#45;&gt;Node41 -->
<g id="edge43" class="edge"><title>Node20&#45;&gt;Node41</title>
<path fill="none" stroke="midnightblue" d="M239.199,-337.123C251.679,-339.494 267.667,-342.532 281.939,-345.243"/>
<polygon fill="midnightblue" stroke="midnightblue" points="281.475,-348.718 291.952,-347.146 282.781,-341.841 281.475,-348.718"/>
</g>
<!-- Node43 -->
<g id="node43" class="node"><title>Node43</title>
<g id="a_node43"><a xlink:href="navier1_8F90.html#a04edbb4ba3cfada4513a76a4e65a5561" target="_top" xlink:title="Compute and add: (1) user specified forcing function (FX,FY,FZ) ">
<polygon fill="white" stroke="black" points="293.5,-380.5 293.5,-399.5 343.5,-399.5 343.5,-380.5 293.5,-380.5"/>
<text text-anchor="middle" x="318.5" y="-387.5" font-family="Helvetica,sans-Serif" font-size="10.00">makeuf</text>
</a>
</g>
</g>
<!-- Node20&#45;&gt;Node43 -->
<g id="edge47" class="edge"><title>Node20&#45;&gt;Node43</title>
<path fill="none" stroke="midnightblue" d="M234.464,-342.669C250.218,-351.649 273.892,-365.143 291.936,-375.429"/>
<polygon fill="midnightblue" stroke="midnightblue" points="290.366,-378.562 300.787,-380.474 293.832,-372.481 290.366,-378.562"/>
</g>
<!-- Node48 -->
<g id="node48" class="node"><title>Node48</title>
<g id="a_node48"><a xlink:href="navier1_8F90.html#a2f89b54d1ceda6fb201432d7a61bc907" target="_top" xlink:title="opdssum">
<polygon fill="white" stroke="black" points="289,-304.5 289,-323.5 348,-323.5 348,-304.5 289,-304.5"/>
<text text-anchor="middle" x="318.5" y="-311.5" font-family="Helvetica,sans-Serif" font-size="10.00">opdssum</text>
</a>
</g>
</g>
<!-- Node20&#45;&gt;Node48 -->
<g id="edge52" class="edge"><title>Node20&#45;&gt;Node48</title>
<path fill="none" stroke="midnightblue" d="M239.199,-328.877C250.734,-326.686 265.266,-323.925 278.669,-321.378"/>
<polygon fill="midnightblue" stroke="midnightblue" points="279.459,-324.79 288.63,-319.485 278.153,-317.913 279.459,-324.79"/>
</g>
<!-- Node21&#45;&gt;Node8 -->
<g id="edge22" class="edge"><title>Node21&#45;&gt;Node8</title>
<path fill="none" stroke="midnightblue" d="M340.217,-285.555C369.097,-298.451 423.39,-321.172 472,-333 504.659,-340.947 541.959,-345.631 572.114,-348.36"/>
<polygon fill="midnightblue" stroke="midnightblue" points="572.201,-351.88 582.463,-349.245 572.798,-344.905 572.201,-351.88"/>
</g>
<!-- Node22 -->
<g id="node22" class="node"><title>Node22</title>
<g id="a_node22"><a xlink:href="math_8F90.html#a3b43508554f14bdea8e14473d7d0803c" target="_top" xlink:title="copy">
<polygon fill="white" stroke="black" points="390.5,-228.5 390.5,-247.5 429.5,-247.5 429.5,-228.5 390.5,-228.5"/>
<text text-anchor="middle" x="410" y="-235.5" font-family="Helvetica,sans-Serif" font-size="10.00">copy</text>
</a>
</g>
</g>
<!-- Node21&#45;&gt;Node22 -->
<g id="edge21" class="edge"><title>Node21&#45;&gt;Node22</title>
<path fill="none" stroke="midnightblue" d="M342.085,-266.411C353.853,-261.415 368.357,-255.256 380.85,-249.952"/>
<polygon fill="midnightblue" stroke="midnightblue" points="382.51,-253.05 390.347,-245.92 379.774,-246.606 382.51,-253.05"/>
</g>
<!-- Node23 -->
<g id="node23" class="node"><title>Node23</title>
<g id="a_node23"><a xlink:href="connect1_8F90.html#a1c96db1fac78d436aaab41482ed01aca" target="_top" xlink:title="Assign the value VAL to face(IFACE,IE) of array A. IFACE is the input in the pre&#45;processor ordering s...">
<polygon fill="white" stroke="black" points="389,-266.5 389,-285.5 431,-285.5 431,-266.5 389,-266.5"/>
<text text-anchor="middle" x="410" y="-273.5" font-family="Helvetica,sans-Serif" font-size="10.00">facev</text>
</a>
</g>
</g>
<!-- Node21&#45;&gt;Node23 -->
<g id="edge23" class="edge"><title>Node21&#45;&gt;Node23</title>
<path fill="none" stroke="midnightblue" d="M343.956,-276C354.625,-276 367.245,-276 378.517,-276"/>
<polygon fill="midnightblue" stroke="midnightblue" points="378.803,-279.5 388.803,-276 378.803,-272.5 378.803,-279.5"/>
</g>
<!-- Node25 -->
<g id="node25" class="node"><title>Node25</title>
<g id="a_node25"><a xlink:href="navier1_8F90.html#ac796a0447b86c61f9851e9abd09f9e4b" target="_top" xlink:title="opdsop">
<polygon fill="white" stroke="black" points="384,-190.5 384,-209.5 436,-209.5 436,-190.5 384,-190.5"/>
<text text-anchor="middle" x="410" y="-197.5" font-family="Helvetica,sans-Serif" font-size="10.00">opdsop</text>
</a>
</g>
</g>
<!-- Node21&#45;&gt;Node25 -->
<g id="edge25" class="edge"><title>Node21&#45;&gt;Node25</title>
<path fill="none" stroke="midnightblue" d="M329.796,-266.478C342.358,-254.959 364.355,-235.108 384,-219 385.186,-218.028 386.412,-217.04 387.657,-216.051"/>
<polygon fill="midnightblue" stroke="midnightblue" points="390.119,-218.572 395.883,-209.682 385.833,-213.037 390.119,-218.572"/>
</g>
<!-- Node24 -->
<g id="node24" class="node"><title>Node24</title>
<g id="a_node24"><a xlink:href="connect1_8F90.html#aa1c9016b4c28e8a8512be6f6d67eefce" target="_top" xlink:title="ifcase in preprocessor notation ">
<polygon fill="white" stroke="black" points="486.5,-266.5 486.5,-285.5 531.5,-285.5 531.5,-266.5 486.5,-266.5"/>
<text text-anchor="middle" x="509" y="-273.5" font-family="Helvetica,sans-Serif" font-size="10.00">facind</text>
</a>
</g>
</g>
<!-- Node23&#45;&gt;Node24 -->
<g id="edge24" class="edge"><title>Node23&#45;&gt;Node24</title>
<path fill="none" stroke="midnightblue" d="M431.098,-276C444.048,-276 461.168,-276 475.968,-276"/>
<polygon fill="midnightblue" stroke="midnightblue" points="476.241,-279.5 486.241,-276 476.241,-272.5 476.241,-279.5"/>
</g>
<!-- Node26 -->
<g id="node26" class="node"><title>Node26</title>
<g id="a_node26"><a xlink:href="dssum_8F90.html#ae25c615abe30524ab6ed778fb5b69fb7" target="_top" xlink:title="Direct stiffness summation of the face data, for field U. Boundary condition data corresponds to comp...">
<polygon fill="white" stroke="black" points="478,-209.5 478,-228.5 540,-228.5 540,-209.5 478,-209.5"/>
<text text-anchor="middle" x="509" y="-216.5" font-family="Helvetica,sans-Serif" font-size="10.00">vec_dsop</text>
</a>
</g>
</g>
<!-- Node25&#45;&gt;Node26 -->
<g id="edge26" class="edge"><title>Node25&#45;&gt;Node26</title>
<path fill="none" stroke="midnightblue" d="M436.232,-204.942C445.846,-206.826 457.059,-209.022 467.724,-211.111"/>
<polygon fill="midnightblue" stroke="midnightblue" points="467.226,-214.58 477.713,-213.067 468.572,-207.71 467.226,-214.58"/>
</g>
<!-- Node26&#45;&gt;Node15 -->
<g id="edge27" class="edge"><title>Node26&#45;&gt;Node15</title>
<path fill="none" stroke="midnightblue" d="M519.101,-228.614C538.441,-249.041 581.883,-294.921 582,-295 584.747,-296.858 587.702,-298.575 590.749,-300.155"/>
<polygon fill="midnightblue" stroke="midnightblue" points="589.5,-303.434 600.044,-304.479 592.453,-297.087 589.5,-303.434"/>
</g>
<!-- Node28 -->
<g id="node28" class="node"><title>Node28</title>
<g id="a_node28"><a xlink:href="coef_8F90.html#a82cf1663c9a821049d0aad836343591a" target="_top" xlink:title="Compute global&#45;to&#45;local derivatives on mesh 1. ">
<polygon fill="white" stroke="black" points="388,-152.5 388,-171.5 432,-171.5 432,-152.5 388,-152.5"/>
<text text-anchor="middle" x="410" y="-159.5" font-family="Helvetica,sans-Serif" font-size="10.00">xyzrst</text>
</a>
</g>
</g>
<!-- Node27&#45;&gt;Node28 -->
<g id="edge29" class="edge"><title>Node27&#45;&gt;Node28</title>
<path fill="none" stroke="midnightblue" d="M342.085,-190.411C353.199,-185.692 366.754,-179.937 378.75,-174.844"/>
<polygon fill="midnightblue" stroke="midnightblue" points="380.123,-178.063 387.96,-170.933 377.387,-171.62 380.123,-178.063"/>
</g>
<!-- Node29 -->
<g id="node29" class="node"><title>Node29</title>
<g id="a_node29"><a xlink:href="mxm__wrapper_8F90.html#ab9ec2260a10061af6ce1c52f3c8a41da" target="_top" xlink:title="Compute matrix&#45;matrix product C = A*B. ">
<polygon fill="white" stroke="black" points="490,-152.5 490,-171.5 528,-171.5 528,-152.5 490,-152.5"/>
<text text-anchor="middle" x="509" y="-159.5" font-family="Helvetica,sans-Serif" font-size="10.00">mxm</text>
</a>
</g>
</g>
<!-- Node28&#45;&gt;Node29 -->
<g id="edge30" class="edge"><title>Node28&#45;&gt;Node29</title>
<path fill="none" stroke="midnightblue" d="M432.048,-162C445.947,-162 464.332,-162 479.532,-162"/>
<polygon fill="midnightblue" stroke="midnightblue" points="479.927,-165.5 489.927,-162 479.927,-158.5 479.927,-165.5"/>
</g>
<!-- Node30 -->
<g id="node30" class="node"><title>Node30</title>
<g id="a_node30"><a xlink:href="mxm__bgq_8F90.html#a8faaef428336095704ece51624bbfe92" target="_top" xlink:title="mxm_bgq_8">
<polygon fill="white" stroke="black" points="594,-76.5 594,-95.5 668,-95.5 668,-76.5 594,-76.5"/>
<text text-anchor="middle" x="631" y="-83.5" font-family="Helvetica,sans-Serif" font-size="10.00">mxm_bgq_8</text>
</a>
</g>
</g>
<!-- Node29&#45;&gt;Node30 -->
<g id="edge31" class="edge"><title>Node29&#45;&gt;Node30</title>
<path fill="none" stroke="midnightblue" d="M520.033,-152.469C533.344,-140.213 557.971,-118.863 582,-105 585.396,-103.041 589.034,-101.196 592.731,-99.4841"/>
<polygon fill="midnightblue" stroke="midnightblue" points="594.143,-102.687 601.939,-95.5127 591.371,-96.2591 594.143,-102.687"/>
</g>
<!-- Node31 -->
<g id="node31" class="node"><title>Node31</title>
<g id="a_node31"><a xlink:href="mxm__bgq_8F90.html#a27529ace9834454b8906f29e02718629" target="_top" xlink:title="mxm_bgq_12">
<polygon fill="white" stroke="black" points="591,-38.5 591,-57.5 671,-57.5 671,-38.5 591,-38.5"/>
<text text-anchor="middle" x="631" y="-45.5" font-family="Helvetica,sans-Serif" font-size="10.00">mxm_bgq_12</text>
</a>
</g>
</g>
<!-- Node29&#45;&gt;Node31 -->
<g id="edge32" class="edge"><title>Node29&#45;&gt;Node31</title>
<path fill="none" stroke="midnightblue" d="M514.998,-152.255C525.166,-133.319 550.029,-91.2836 582,-67 584.342,-65.2212 586.872,-63.5863 589.504,-62.0876"/>
<polygon fill="midnightblue" stroke="midnightblue" points="591.321,-65.0927 598.716,-57.5055 588.204,-58.8252 591.321,-65.0927"/>
</g>
<!-- Node32 -->
<g id="node32" class="node"><title>Node32</title>
<g id="a_node32"><a xlink:href="mxm__bgq_8F90.html#a3fda9ea4bc7a5713a19d6939fa2b541f" target="_top" xlink:title="mxm_bgq_16">
<polygon fill="white" stroke="black" points="591,-0.5 591,-19.5 671,-19.5 671,-0.5 591,-0.5"/>
<text text-anchor="middle" x="631" y="-7.5" font-family="Helvetica,sans-Serif" font-size="10.00">mxm_bgq_16</text>
</a>
</g>
</g>
<!-- Node29&#45;&gt;Node32 -->
<g id="edge33" class="edge"><title>Node29&#45;&gt;Node32</title>
<path fill="none" stroke="midnightblue" d="M512.746,-152.167C520.003,-127.899 541.935,-64.5504 582,-29 583.743,-27.4534 585.627,-26.025 587.606,-24.7067"/>
<polygon fill="midnightblue" stroke="midnightblue" points="589.715,-27.5377 596.74,-19.607 586.303,-21.4257 589.715,-27.5377"/>
</g>
<!-- Node33 -->
<g id="node33" class="node"><title>Node33</title>
<g id="a_node33"><a xlink:href="mxm__bgq_8F90.html#a8a70163b4dbfdbfcce7bff170597fcad" target="_top" xlink:title="mxm_bgq_10">
<polygon fill="white" stroke="black" points="591,-266.5 591,-285.5 671,-285.5 671,-266.5 591,-266.5"/>
<text text-anchor="middle" x="631" y="-273.5" font-family="Helvetica,sans-Serif" font-size="10.00">mxm_bgq_10</text>
</a>
</g>
</g>
<!-- Node29&#45;&gt;Node33 -->
<g id="edge34" class="edge"><title>Node29&#45;&gt;Node33</title>
<path fill="none" stroke="midnightblue" d="M520.03,-171.524C527.581,-178.937 537.968,-189.669 546,-200 564.391,-223.655 558.933,-237.877 582,-257 584.022,-258.677 586.211,-260.219 588.501,-261.634"/>
<polygon fill="midnightblue" stroke="midnightblue" points="587.224,-264.918 597.702,-266.49 590.491,-258.727 587.224,-264.918"/>
</g>
<!-- Node34 -->
<g id="node34" class="node"><title>Node34</title>
<g id="a_node34"><a xlink:href="mxm__bgq_8F90.html#af192c3c8b982aa5bbc2a757156718a91" target="_top" xlink:title="mxm_bgq_6">
<polygon fill="white" stroke="black" points="594,-228.5 594,-247.5 668,-247.5 668,-228.5 594,-228.5"/>
<text text-anchor="middle" x="631" y="-235.5" font-family="Helvetica,sans-Serif" font-size="10.00">mxm_bgq_6</text>
</a>
</g>
</g>
<!-- Node29&#45;&gt;Node34 -->
<g id="edge35" class="edge"><title>Node29&#45;&gt;Node34</title>
<path fill="none" stroke="midnightblue" d="M520.033,-171.531C533.344,-183.787 557.971,-205.137 582,-219 585.396,-220.959 589.034,-222.804 592.731,-224.516"/>
<polygon fill="midnightblue" stroke="midnightblue" points="591.371,-227.741 601.939,-228.487 594.143,-221.313 591.371,-227.741"/>
</g>
<!-- Node35 -->
<g id="node35" class="node"><title>Node35</title>
<g id="a_node35"><a xlink:href="mxm__std_8F90.html#af07f4b22fdc3488ca321736743f14b01" target="_top" xlink:title="mxm44_2">
<polygon fill="white" stroke="black" points="600,-190.5 600,-209.5 662,-209.5 662,-190.5 600,-190.5"/>
<text text-anchor="middle" x="631" y="-197.5" font-family="Helvetica,sans-Serif" font-size="10.00">mxm44_2</text>
</a>
</g>
</g>
<!-- Node29&#45;&gt;Node35 -->
<g id="edge36" class="edge"><title>Node29&#45;&gt;Node35</title>
<path fill="none" stroke="midnightblue" d="M528.225,-167.771C544.64,-172.969 569.335,-180.79 590.289,-187.425"/>
<polygon fill="midnightblue" stroke="midnightblue" points="589.325,-190.791 599.915,-190.473 591.438,-184.117 589.325,-190.791"/>
</g>
<!-- Node36 -->
<g id="node36" class="node"><title>Node36</title>
<g id="a_node36"><a xlink:href="mxm__std_8F90.html#ac63fe7516a18dc57dfe913ad2c1453be" target="_top" xlink:title="mxm44_0">
<polygon fill="white" stroke="black" points="725,-152.5 725,-171.5 787,-171.5 787,-152.5 725,-152.5"/>
<text text-anchor="middle" x="756" y="-159.5" font-family="Helvetica,sans-Serif" font-size="10.00">mxm44_0</text>
</a>
</g>
</g>
<!-- Node29&#45;&gt;Node36 -->
<g id="edge37" class="edge"><title>Node29&#45;&gt;Node36</title>
<path fill="none" stroke="midnightblue" d="M528.015,-162C567.073,-162 660.371,-162 714.412,-162"/>
<polygon fill="midnightblue" stroke="midnightblue" points="714.669,-165.5 724.669,-162 714.669,-158.5 714.669,-165.5"/>
</g>
<!-- Node37 -->
<g id="node37" class="node"><title>Node37</title>
<g id="a_node37"><a xlink:href="mxm__std_8F90.html#aa9e8685c4a72f18fb5d1ee88ed17a3d6" target="_top" xlink:title="unrolled loop version ">
<polygon fill="white" stroke="red" points="607.5,-114.5 607.5,-133.5 654.5,-133.5 654.5,-114.5 607.5,-114.5"/>
<text text-anchor="middle" x="631" y="-121.5" font-family="Helvetica,sans-Serif" font-size="10.00">mxmf2</text>
</a>
</g>
</g>
<!-- Node29&#45;&gt;Node37 -->
<g id="edge38" class="edge"><title>Node29&#45;&gt;Node37</title>
<path fill="none" stroke="midnightblue" d="M528.225,-156.229C546.534,-150.431 575.144,-141.371 597.373,-134.332"/>
<polygon fill="midnightblue" stroke="midnightblue" points="598.601,-137.614 607.078,-131.259 596.488,-130.941 598.601,-137.614"/>
</g>
<!-- Node37&#45;&gt;Node36 -->
<g id="edge42" class="edge"><title>Node37&#45;&gt;Node36</title>
<path fill="none" stroke="midnightblue" d="M654.56,-130.97C671.41,-136.175 694.884,-143.428 714.902,-149.612"/>
<polygon fill="midnightblue" stroke="midnightblue" points="714.116,-153.032 724.704,-152.64 716.183,-146.344 714.116,-153.032"/>
</g>
<!-- Node38 -->
<g id="node38" class="node"><title>Node38</title>
<g id="a_node38"><a xlink:href="mxm__std_8F90.html#af4bd28930a9d674bbcad09ad75fa81ef" target="_top" xlink:title="mxf8">
<polygon fill="white" stroke="black" points="736.5,-114.5 736.5,-133.5 775.5,-133.5 775.5,-114.5 736.5,-114.5"/>
<text text-anchor="middle" x="756" y="-121.5" font-family="Helvetica,sans-Serif" font-size="10.00">mxf8</text>
</a>
</g>
</g>
<!-- Node37&#45;&gt;Node38 -->
<g id="edge39" class="edge"><title>Node37&#45;&gt;Node38</title>
<path fill="none" stroke="midnightblue" d="M654.56,-124C674.705,-124 704.32,-124 726.176,-124"/>
<polygon fill="midnightblue" stroke="midnightblue" points="726.206,-127.5 736.206,-124 726.206,-120.5 726.206,-127.5"/>
</g>
<!-- Node39 -->
<g id="node39" class="node"><title>Node39</title>
<g id="a_node39"><a xlink:href="mxm__std_8F90.html#a7d3ac03517b3934b98857b22f7f78788" target="_top" xlink:title="mxf1">
<polygon fill="white" stroke="black" points="736.5,-76.5 736.5,-95.5 775.5,-95.5 775.5,-76.5 736.5,-76.5"/>
<text text-anchor="middle" x="756" y="-83.5" font-family="Helvetica,sans-Serif" font-size="10.00">mxf1</text>
</a>
</g>
</g>
<!-- Node37&#45;&gt;Node39 -->
<g id="edge40" class="edge"><title>Node37&#45;&gt;Node39</title>
<path fill="none" stroke="midnightblue" d="M654.56,-117.03C674.797,-110.778 704.589,-101.574 726.473,-94.8132"/>
<polygon fill="midnightblue" stroke="midnightblue" points="727.685,-98.1022 736.206,-91.8063 725.618,-91.4141 727.685,-98.1022"/>
</g>
<!-- Node40 -->
<g id="node40" class="node"><title>Node40</title>
<g id="a_node40"><a xlink:href="mxm__std_8F90.html#acd223c583f3a9242fda7a1b8897b624d" target="_top" xlink:title="mxf2">
<polygon fill="white" stroke="black" points="736.5,-38.5 736.5,-57.5 775.5,-57.5 775.5,-38.5 736.5,-38.5"/>
<text text-anchor="middle" x="756" y="-45.5" font-family="Helvetica,sans-Serif" font-size="10.00">mxf2</text>
</a>
</g>
</g>
<!-- Node37&#45;&gt;Node40 -->
<g id="edge41" class="edge"><title>Node37&#45;&gt;Node40</title>
<path fill="none" stroke="midnightblue" d="M654.505,-117.382C662.91,-114.337 672.279,-110.222 680,-105 699.271,-91.9665 697.241,-80.7602 716,-67 719.484,-64.4441 723.366,-62.0795 727.291,-59.9488"/>
<polygon fill="midnightblue" stroke="midnightblue" points="728.98,-63.0181 736.365,-55.4218 725.854,-56.7544 728.98,-63.0181"/>
</g>
<!-- Node41&#45;&gt;Node8 -->
<g id="edge44" class="edge"><title>Node41&#45;&gt;Node8</title>
<path fill="none" stroke="midnightblue" d="M345.031,-358.858C356.8,-361.678 371.012,-364.607 384,-366 455.589,-373.68 474.245,-371.939 546,-366 554.472,-365.299 563.376,-364.206 572.091,-362.934"/>
<polygon fill="midnightblue" stroke="midnightblue" points="572.849,-366.358 582.196,-361.37 571.779,-359.44 572.849,-366.358"/>
</g>
<!-- Node42 -->
<g id="node42" class="node"><title>Node42</title>
<g id="a_node42"><a xlink:href="subs1_8F90.html#a895c417a4106672b662bf2fb96b26f06" target="_top" xlink:title="Set material properties Material type: 0 for default (PARAM and PCOND/PRHOCP) 1 for constant props; 2...">
<polygon fill="white" stroke="black" points="385.5,-418.5 385.5,-437.5 434.5,-437.5 434.5,-418.5 385.5,-418.5"/>
<text text-anchor="middle" x="410" y="-425.5" font-family="Helvetica,sans-Serif" font-size="10.00">vprops</text>
</a>
</g>
</g>
<!-- Node41&#45;&gt;Node42 -->
<g id="edge45" class="edge"><title>Node41&#45;&gt;Node42</title>
<path fill="none" stroke="midnightblue" d="M334.912,-361.611C339.248,-364.491 343.897,-367.751 348,-371 352.541,-374.596 375.193,-395.923 391.569,-411.438"/>
<polygon fill="midnightblue" stroke="midnightblue" points="389.333,-414.141 398.997,-418.484 394.15,-409.062 389.333,-414.141"/>
</g>
<!-- Node42&#45;&gt;Node7 -->
<g id="edge46" class="edge"><title>Node42&#45;&gt;Node7</title>
<path fill="none" stroke="midnightblue" d="M434.978,-428C448.837,-428 466.321,-428 480.706,-428"/>
<polygon fill="midnightblue" stroke="midnightblue" points="480.991,-431.5 490.991,-428 480.991,-424.5 480.991,-431.5"/>
</g>
<!-- Node44 -->
<g id="node44" class="node"><title>Node44</title>
<g id="a_node44"><a xlink:href="navier1_8F90.html#acfa4c928e27d1e43ed8622586e4ed7e8" target="_top" xlink:title="nekuf">
<polygon fill="white" stroke="black" points="389,-513.5 389,-532.5 431,-532.5 431,-513.5 389,-513.5"/>
<text text-anchor="middle" x="410" y="-520.5" font-family="Helvetica,sans-Serif" font-size="10.00">nekuf</text>
</a>
</g>
</g>
<!-- Node43&#45;&gt;Node44 -->
<g id="edge48" class="edge"><title>Node43&#45;&gt;Node44</title>
<path fill="none" stroke="midnightblue" d="M336.856,-399.598C340.82,-402.301 344.803,-405.477 348,-409 374.153,-437.812 392.857,-479.875 402.209,-504.033"/>
<polygon fill="midnightblue" stroke="midnightblue" points="398.96,-505.339 405.74,-513.481 405.517,-502.889 398.96,-505.339"/>
</g>
<!-- Node45 -->
<g id="node45" class="node"><title>Node45</title>
<g id="a_node45"><a xlink:href="classparallel.html#ac36680315d0622d84df5d5baf3fb0acc" target="_top" xlink:title="parallel::lglel">
<polygon fill="white" stroke="black" points="472,-513.5 472,-532.5 546,-532.5 546,-513.5 472,-513.5"/>
<text text-anchor="middle" x="509" y="-520.5" font-family="Helvetica,sans-Serif" font-size="10.00">parallel::lglel</text>
</a>
</g>
</g>
<!-- Node44&#45;&gt;Node45 -->
<g id="edge49" class="edge"><title>Node44&#45;&gt;Node45</title>
<path fill="none" stroke="midnightblue" d="M431.098,-523C440.014,-523 450.906,-523 461.656,-523"/>
<polygon fill="midnightblue" stroke="midnightblue" points="461.851,-526.5 471.851,-523 461.851,-519.5 461.851,-526.5"/>
</g>
<!-- Node47 -->
<g id="node47" class="node"><title>Node47</title>
<g id="a_node47"><a xlink:href="bdry_8F90.html#a2426a0c5d510c19b0aa48112922383c3" target="_top" xlink:title="Assign NEKTON variables for definition (by user) of boundary conditions at collocation point (IX...">
<polygon fill="white" stroke="black" points="480.5,-551.5 480.5,-570.5 537.5,-570.5 537.5,-551.5 480.5,-551.5"/>
<text text-anchor="middle" x="509" y="-558.5" font-family="Helvetica,sans-Serif" font-size="10.00">nekasgn</text>
</a>
</g>
</g>
<!-- Node44&#45;&gt;Node47 -->
<g id="edge51" class="edge"><title>Node44&#45;&gt;Node47</title>
<path fill="none" stroke="midnightblue" d="M431.098,-530.874C443.452,-535.713 459.602,-542.04 473.911,-547.646"/>
<polygon fill="midnightblue" stroke="midnightblue" points="472.867,-550.995 483.454,-551.384 475.42,-544.478 472.867,-550.995"/>
</g>
<!-- Node46 -->
<g id="node46" class="node"><title>Node46</title>
<g id="a_node46"><a xlink:href="classmesh.html#a8b6a250925cdc576e3ff6f7b18dc88c4" target="_top" xlink:title="mesh::xyz_to_ieg">
<polygon fill="white" stroke="black" points="582,-532.5 582,-551.5 680,-551.5 680,-532.5 582,-532.5"/>
<text text-anchor="middle" x="631" y="-539.5" font-family="Helvetica,sans-Serif" font-size="10.00">mesh::xyz_to_ieg</text>
</a>
</g>
</g>
<!-- Node45&#45;&gt;Node46 -->
<g id="edge50" class="edge"><title>Node45&#45;&gt;Node46</title>
<path fill="none" stroke="midnightblue" d="M546.004,-528.701C554.042,-529.973 562.769,-531.355 571.455,-532.73"/>
<polygon fill="midnightblue" stroke="midnightblue" points="571.164,-536.228 581.589,-534.335 572.259,-529.314 571.164,-536.228"/>
</g>
<!-- Node49 -->
<g id="node49" class="node"><title>Node49</title>
<g id="a_node49"><a xlink:href="dssum_8F90.html#aab5cbea45cf919be4147d3f722cd56c3" target="_top" xlink:title="Direct stiffness summation of the face data, for field U. ">
<polygon fill="white" stroke="black" points="474.5,-304.5 474.5,-323.5 543.5,-323.5 543.5,-304.5 474.5,-304.5"/>
<text text-anchor="middle" x="509" y="-311.5" font-family="Helvetica,sans-Serif" font-size="10.00">vec_dssum</text>
</a>
</g>
</g>
<!-- Node48&#45;&gt;Node49 -->
<g id="edge53" class="edge"><title>Node48&#45;&gt;Node49</title>
<path fill="none" stroke="midnightblue" d="M348.129,-314C378.969,-314 428.419,-314 464.162,-314"/>
<polygon fill="midnightblue" stroke="midnightblue" points="464.315,-317.5 474.315,-314 464.315,-310.5 464.315,-317.5"/>
</g>
<!-- Node49&#45;&gt;Node8 -->
<g id="edge54" class="edge"><title>Node49&#45;&gt;Node8</title>
<path fill="none" stroke="midnightblue" d="M540.281,-323.589C555.346,-328.359 573.754,-334.189 589.967,-339.323"/>
<polygon fill="midnightblue" stroke="midnightblue" points="589.139,-342.732 599.729,-342.414 591.252,-336.058 589.139,-342.732"/>
</g>
<!-- Node49&#45;&gt;Node15 -->
<g id="edge55" class="edge"><title>Node49&#45;&gt;Node15</title>
<path fill="none" stroke="midnightblue" d="M543.746,-314C557.915,-314 574.517,-314 589.351,-314"/>
<polygon fill="midnightblue" stroke="midnightblue" points="589.781,-317.5 599.781,-314 589.781,-310.5 589.781,-317.5"/>
</g>
</g>
</svg>
        <g id="navigator" transform="translate(0 0)" fill="#404254">
                <rect fill="#f2f5e9" fill-opacity="0.5" stroke="#606060" stroke-width=".5" x="0" y="0" width="60" height="60"/>
                <use id="zoomplus" xlink:href="#zoomPlus" x="17" y="9" onmousedown="handleZoom(evt,'in')"/>
                <use id="zoomminus" xlink:href="#zoomMin" x="42" y="9" onmousedown="handleZoom(evt,'out')"/>
                <use id="reset" xlink:href="#resetDef" x="30" y="36" onmousedown="handleReset()"/>
                <g id="arrowUp" xlink:href="#dirArrow" transform="translate(30 24)" onmousedown="handlePan(0,-1)">
                  <use xlink:href="#rim" fill="#404040">
                        <set attributeName="fill" to="#808080" begin="arrowUp.mouseover" end="arrowUp.mouseout"/>
                  </use>
                  <path fill="none" stroke="white" stroke-width="1.5" d="M0,-3.0v7 M-2.5,-0.5L0,-3.0L2.5,-0.5"/>
                </g>
                <g id="arrowRight" xlink:href="#dirArrow" transform="rotate(90) translate(36 -43)" onmousedown="handlePan(1,0)">
                  <use xlink:href="#rim" fill="#404040">
                        <set attributeName="fill" to="#808080" begin="arrowRight.mouseover" end="arrowRight.mouseout"/>
                  </use>
                  <path fill="none" stroke="white" stroke-width="1.5" d="M0,-3.0v7 M-2.5,-0.5L0,-3.0L2.5,-0.5"/>
                </g>
                <g id="arrowDown" xlink:href="#dirArrow" transform="rotate(180) translate(-30 -48)" onmousedown="handlePan(0,1)">
                  <use xlink:href="#rim" fill="#404040">
                        <set attributeName="fill" to="#808080" begin="arrowDown.mouseover" end="arrowDown.mouseout"/>
                  </use>
                  <path fill="none" stroke="white" stroke-width="1.5" d="M0,-3.0v7 M-2.5,-0.5L0,-3.0L2.5,-0.5"/>
                </g>
                <g id="arrowLeft" xlink:href="#dirArrow" transform="rotate(270) translate(-36 17)" onmousedown="handlePan(-1,0)">
                  <use xlink:href="#rim" fill="#404040">
                        <set attributeName="fill" to="#808080" begin="arrowLeft.mouseover" end="arrowLeft.mouseout"/>
                  </use>
                  <path fill="none" stroke="white" stroke-width="1.5" d="M0,-3.0v7 M-2.5,-0.5L0,-3.0L2.5,-0.5"/>
                </g>
        </g>
        <svg viewBox="0 0 15 15" width="100%" height="30px" preserveAspectRatio="xMaxYMin meet">
         <g id="arrow_out" transform="scale(0.3 0.3)">
          <a xlink:href="drive2_8F90_a6f905c80a0a2b0d5ed7f0449eda3e127_cgraph_org.svg" target="_base">
           <rect id="button" ry="5" rx="5" y="6" x="6" height="38" width="38"
                fill="#f2f5e9" fill-opacity="0.5" stroke="#606060" stroke-width="1.0"/>
           <path id="arrow"
             d="M 11.500037,31.436501 C 11.940474,20.09759 22.043105,11.32322 32.158766,21.979434 L 37.068811,17.246167 C 37.068811,17.246167 37.088388,32 37.088388,32 L 22.160133,31.978069 C 22.160133,31.978069 26.997745,27.140456 26.997745,27.140456 C 18.528582,18.264221 13.291696,25.230495 11.500037,31.436501 z"
             style="fill:#404040;"/>
          </a>
         </g>
        </svg>
</svg>
