<?xml version="1.0" encoding="UTF-8" standalone="no"?>
<!DOCTYPE svg PUBLIC "-//W3C//DTD SVG 1.1//EN"
 "http://www.w3.org/Graphics/SVG/1.1/DTD/svg11.dtd">
<!-- Generated by graphviz version 2.38.0 (20140413.2041)
 -->
<!-- Title: runstat Pages: 1 -->
<svg width="726pt" height="446pt"
 viewBox="0.00 0.00 726.00 446.00" xmlns="http://www.w3.org/2000/svg" xmlns:xlink="http://www.w3.org/1999/xlink">
<g id="graph0" class="graph" transform="scale(1 1) rotate(0) translate(4 442)">
<title>runstat</title>
<polygon fill="white" stroke="none" points="-4,4 -4,-442 722,-442 722,4 -4,4"/>
<!-- Node1 -->
<g id="node1" class="node"><title>Node1</title>
<polygon fill="#bfbfbf" stroke="black" points="0,-114.5 0,-133.5 49,-133.5 49,-114.5 0,-114.5"/>
<text text-anchor="middle" x="24.5" y="-121.5" font-family="Helvetica,sans-Serif" font-size="10.00">runstat</text>
</g>
<!-- Node2 -->
<g id="node2" class="node"><title>Node2</title>
<g id="a_node2"><a xlink:href="math_8F90.html#a692155d1d2ec380a9fdb2d81ef221625" target="_top" xlink:title="blank a string ">
<polygon fill="white" stroke="black" points="234,-152.5 234,-171.5 275,-171.5 275,-152.5 234,-152.5"/>
<text text-anchor="middle" x="254.5" y="-159.5" font-family="Helvetica,sans-Serif" font-size="10.00">blank</text>
</a>
</g>
</g>
<!-- Node1&#45;&gt;Node2 -->
<g id="edge1" class="edge"><title>Node1&#45;&gt;Node2</title>
<path fill="none" stroke="midnightblue" d="M49.239,-132.763C60.0204,-136.435 73.0175,-140.437 85,-143 132.927,-153.25 189.78,-158.204 223.68,-160.415"/>
<polygon fill="midnightblue" stroke="midnightblue" points="223.643,-163.919 233.839,-161.04 224.073,-156.932 223.643,-163.919"/>
</g>
<!-- Node3 -->
<g id="node3" class="node"><title>Node3</title>
<g id="a_node3"><a xlink:href="classctimer.html#abcecbc845c8ee72e13a19eaa30b80d77" target="_top" xlink:title="ctimer::dnekclock">
<polygon fill="white" stroke="black" points="475,-266.5 475,-285.5 572,-285.5 572,-266.5 475,-266.5"/>
<text text-anchor="middle" x="523.5" y="-273.5" font-family="Helvetica,sans-Serif" font-size="10.00">ctimer::dnekclock</text>
</a>
</g>
</g>
<!-- Node1&#45;&gt;Node3 -->
<g id="edge2" class="edge"><title>Node1&#45;&gt;Node3</title>
<path fill="none" stroke="midnightblue" d="M31.2251,-133.563C40.6394,-148.514 60.7817,-177.424 85,-194 178.952,-258.304 214.734,-259.07 327,-278 372.78,-285.719 425.448,-284.619 464.576,-281.92"/>
<polygon fill="midnightblue" stroke="midnightblue" points="465.015,-285.397 474.727,-281.163 464.494,-278.417 465.015,-285.397"/>
</g>
<!-- Node5 -->
<g id="node5" class="node"><title>Node5</title>
<g id="a_node5"><a xlink:href="comm__mpi_8F90.html#a3f652605d55796462e959d17b5a9612b" target="_top" xlink:title="Global vector commutative operation. ">
<polygon fill="white" stroke="black" points="237,-209.5 237,-228.5 272,-228.5 272,-209.5 237,-209.5"/>
<text text-anchor="middle" x="254.5" y="-216.5" font-family="Helvetica,sans-Serif" font-size="10.00">gop</text>
</a>
</g>
</g>
<!-- Node1&#45;&gt;Node5 -->
<g id="edge4" class="edge"><title>Node1&#45;&gt;Node5</title>
<path fill="none" stroke="midnightblue" d="M38.1554,-133.696C49.8236,-142.287 67.8773,-154.718 85,-163 132.828,-186.135 192.628,-203.501 226.603,-212.38"/>
<polygon fill="midnightblue" stroke="midnightblue" points="226.123,-215.87 236.679,-214.961 227.86,-209.089 226.123,-215.87"/>
</g>
<!-- Node20 -->
<g id="node20" class="node"><title>Node20</title>
<g id="a_node20"><a xlink:href="drive2_8F90.html#a584c9fb49aa78285ef4b39ab8bb9014c" target="_top" xlink:title="pretty&#45;print from runstat ">
<polygon fill="white" stroke="black" points="103.5,-114.5 103.5,-133.5 163.5,-133.5 163.5,-114.5 103.5,-114.5"/>
<text text-anchor="middle" x="133.5" y="-121.5" font-family="Helvetica,sans-Serif" font-size="10.00">pprint_all</text>
</a>
</g>
</g>
<!-- Node1&#45;&gt;Node20 -->
<g id="edge22" class="edge"><title>Node1&#45;&gt;Node20</title>
<path fill="none" stroke="midnightblue" d="M49.2468,-124C62.1281,-124 78.3835,-124 93.1046,-124"/>
<polygon fill="midnightblue" stroke="midnightblue" points="93.4826,-127.5 103.483,-124 93.4825,-120.5 93.4826,-127.5"/>
</g>
<!-- Node26 -->
<g id="node26" class="node"><title>Node26</title>
<g id="a_node26"><a xlink:href="drive2_8F90.html#a5a2aa8ad62a2c229d3f75ef7e1fbb706" target="_top" xlink:title="print_flops">
<polygon fill="white" stroke="black" points="100.5,-76.5 100.5,-95.5 166.5,-95.5 166.5,-76.5 100.5,-76.5"/>
<text text-anchor="middle" x="133.5" y="-83.5" font-family="Helvetica,sans-Serif" font-size="10.00">print_flops</text>
</a>
</g>
</g>
<!-- Node1&#45;&gt;Node26 -->
<g id="edge31" class="edge"><title>Node1&#45;&gt;Node26</title>
<path fill="none" stroke="midnightblue" d="M49.2468,-115.567C62.8832,-110.724 80.3011,-104.538 95.6769,-99.0774"/>
<polygon fill="midnightblue" stroke="midnightblue" points="97.1739,-102.26 105.426,-95.6151 94.8312,-95.6636 97.1739,-102.26"/>
</g>
<!-- Node27 -->
<g id="node27" class="node"><title>Node27</title>
<g id="a_node27"><a xlink:href="drive2_8F90.html#a0631476522a612635f80b4fe44e78dd3" target="_top" xlink:title="print_times">
<polygon fill="white" stroke="black" points="99.5,-38.5 99.5,-57.5 167.5,-57.5 167.5,-38.5 99.5,-38.5"/>
<text text-anchor="middle" x="133.5" y="-45.5" font-family="Helvetica,sans-Serif" font-size="10.00">print_times</text>
</a>
</g>
</g>
<!-- Node1&#45;&gt;Node27 -->
<g id="edge32" class="edge"><title>Node1&#45;&gt;Node27</title>
<path fill="none" stroke="midnightblue" d="M33.4624,-114.351C44.107,-101.967 64.0744,-80.4784 85,-67 87.9261,-65.1153 91.0694,-63.3623 94.2948,-61.745"/>
<polygon fill="midnightblue" stroke="midnightblue" points="95.8454,-64.8847 103.49,-57.5493 92.9396,-58.5163 95.8454,-64.8847"/>
</g>
<!-- Node28 -->
<g id="node28" class="node"><title>Node28</title>
<g id="a_node28"><a xlink:href="classctimer.html#a14267edfdf76f21798beda85dd4ddec5" target="_top" xlink:title="ctimer::sum_flops">
<polygon fill="white" stroke="black" points="85,-0.5 85,-19.5 182,-19.5 182,-0.5 85,-0.5"/>
<text text-anchor="middle" x="133.5" y="-7.5" font-family="Helvetica,sans-Serif" font-size="10.00">ctimer::sum_flops</text>
</a>
</g>
</g>
<!-- Node1&#45;&gt;Node28 -->
<g id="edge33" class="edge"><title>Node1&#45;&gt;Node28</title>
<path fill="none" stroke="midnightblue" d="M29.1807,-114.241C36.7951,-95.2798 56.024,-53.2027 85,-29 86.9683,-27.3559 89.0969,-25.841 91.3246,-24.447"/>
<polygon fill="midnightblue" stroke="midnightblue" points="93.1149,-27.4586 100.278,-19.6525 89.8105,-21.2876 93.1149,-27.4586"/>
</g>
<!-- Node4 -->
<g id="node4" class="node"><title>Node4</title>
<g id="a_node4"><a xlink:href="mpi__dummy_8F90.html#ae6a5ef945f87c2c27849696b70f3af2a" target="_top" xlink:title="mpi_wtime">
<polygon fill="white" stroke="black" points="645,-266.5 645,-285.5 711,-285.5 711,-266.5 645,-266.5"/>
<text text-anchor="middle" x="678" y="-273.5" font-family="Helvetica,sans-Serif" font-size="10.00">mpi_wtime</text>
</a>
</g>
</g>
<!-- Node3&#45;&gt;Node4 -->
<g id="edge3" class="edge"><title>Node3&#45;&gt;Node4</title>
<path fill="none" stroke="midnightblue" d="M572.334,-276C592.325,-276 615.358,-276 634.718,-276"/>
<polygon fill="midnightblue" stroke="midnightblue" points="634.762,-279.5 644.762,-276 634.762,-272.5 634.762,-279.5"/>
</g>
<!-- Node5&#45;&gt;Node3 -->
<g id="edge6" class="edge"><title>Node5&#45;&gt;Node3</title>
<path fill="none" stroke="midnightblue" d="M269.562,-228.625C283.482,-237.619 305.734,-250.591 327,-257 372.054,-270.577 425.339,-275.038 464.891,-276.265"/>
<polygon fill="midnightblue" stroke="midnightblue" points="464.809,-279.764 474.893,-276.516 464.984,-272.766 464.809,-279.764"/>
</g>
<!-- Node6 -->
<g id="node6" class="node"><title>Node6</title>
<g id="a_node6"><a xlink:href="math_8F90.html#a3b43508554f14bdea8e14473d7d0803c" target="_top" xlink:title="copy">
<polygon fill="white" stroke="black" points="348.5,-228.5 348.5,-247.5 387.5,-247.5 387.5,-228.5 348.5,-228.5"/>
<text text-anchor="middle" x="368" y="-235.5" font-family="Helvetica,sans-Serif" font-size="10.00">copy</text>
</a>
</g>
</g>
<!-- Node5&#45;&gt;Node6 -->
<g id="edge5" class="edge"><title>Node5&#45;&gt;Node6</title>
<path fill="none" stroke="midnightblue" d="M272.434,-221.886C289.946,-224.87 317.6,-229.582 338.489,-233.142"/>
<polygon fill="midnightblue" stroke="midnightblue" points="337.97,-236.604 348.416,-234.833 339.146,-229.703 337.97,-236.604"/>
</g>
<!-- Node7 -->
<g id="node7" class="node"><title>Node7</title>
<g id="a_node7"><a xlink:href="byte_8c.html#a2da8eeb074dfd3ffbfb3e9a4d301cda4" target="_top" xlink:title="exitt">
<polygon fill="white" stroke="black" points="350,-190.5 350,-209.5 386,-209.5 386,-190.5 350,-190.5"/>
<text text-anchor="middle" x="368" y="-197.5" font-family="Helvetica,sans-Serif" font-size="10.00">exitt</text>
</a>
</g>
</g>
<!-- Node5&#45;&gt;Node7 -->
<g id="edge7" class="edge"><title>Node5&#45;&gt;Node7</title>
<path fill="none" stroke="midnightblue" d="M272.434,-216.114C290.362,-213.059 318.922,-208.193 339.969,-204.606"/>
<polygon fill="midnightblue" stroke="midnightblue" points="340.636,-208.043 349.906,-202.913 339.46,-201.142 340.636,-208.043"/>
</g>
<!-- Node13 -->
<g id="node13" class="node"><title>Node13</title>
<g id="a_node13"><a xlink:href="comm__mpi_8F90.html#a4acb4d8e379294232e9219bec063d8f3" target="_top" xlink:title="nekgsync">
<polygon fill="white" stroke="black" points="492.5,-76.5 492.5,-95.5 554.5,-95.5 554.5,-76.5 492.5,-76.5"/>
<text text-anchor="middle" x="523.5" y="-83.5" font-family="Helvetica,sans-Serif" font-size="10.00">nekgsync</text>
</a>
</g>
</g>
<!-- Node5&#45;&gt;Node13 -->
<g id="edge21" class="edge"><title>Node5&#45;&gt;Node13</title>
<path fill="none" stroke="midnightblue" d="M272.125,-209.834C286.531,-201.97 307.991,-190.447 327,-181 362.97,-163.123 376.383,-166.443 409,-143 427.891,-129.422 424.885,-116.689 445,-105 456.341,-98.4093 469.896,-94.0947 482.474,-91.2742"/>
<polygon fill="midnightblue" stroke="midnightblue" points="483.168,-94.7047 492.291,-89.3175 481.8,-87.8397 483.168,-94.7047"/>
</g>
<!-- Node15 -->
<g id="node15" class="node"><title>Node15</title>
<g id="a_node15"><a xlink:href="mpi__dummy_8F90.html#acd9229b5fb6a4d16f9917a5b5c2f0909" target="_top" xlink:title="mpi_allreduce">
<polygon fill="white" stroke="black" points="327,-342.5 327,-361.5 409,-361.5 409,-342.5 327,-342.5"/>
<text text-anchor="middle" x="368" y="-349.5" font-family="Helvetica,sans-Serif" font-size="10.00">mpi_allreduce</text>
</a>
</g>
</g>
<!-- Node5&#45;&gt;Node15 -->
<g id="edge16" class="edge"><title>Node5&#45;&gt;Node15</title>
<path fill="none" stroke="midnightblue" d="M263.519,-228.565C282.072,-250.696 328.195,-305.713 352.102,-334.229"/>
<polygon fill="midnightblue" stroke="midnightblue" points="349.646,-336.748 358.753,-342.163 355.011,-332.251 349.646,-336.748"/>
</g>
<!-- Node7&#45;&gt;Node3 -->
<g id="edge8" class="edge"><title>Node7&#45;&gt;Node3</title>
<path fill="none" stroke="midnightblue" d="M386.116,-206.47C393.505,-209.672 402.032,-213.941 409,-219 427.827,-232.667 424.885,-245.311 445,-257 451.258,-260.637 458.19,-263.581 465.261,-265.963"/>
<polygon fill="midnightblue" stroke="midnightblue" points="464.353,-269.344 474.937,-268.875 466.37,-262.641 464.353,-269.344"/>
</g>
<!-- Node8 -->
<g id="node8" class="node"><title>Node8</title>
<g id="a_node8"><a xlink:href="subs1_8F90.html#a339739b88994e5bb12bd923147f94983" target="_top" xlink:title="flush_io">
<polygon fill="white" stroke="black" points="497,-152.5 497,-171.5 550,-171.5 550,-152.5 497,-152.5"/>
<text text-anchor="middle" x="523.5" y="-159.5" font-family="Helvetica,sans-Serif" font-size="10.00">flush_io</text>
</a>
</g>
</g>
<!-- Node7&#45;&gt;Node8 -->
<g id="edge9" class="edge"><title>Node7&#45;&gt;Node8</title>
<path fill="none" stroke="midnightblue" d="M386.199,-195.676C401.599,-191.811 424.801,-186.001 445,-181 458.582,-177.637 473.51,-173.971 486.608,-170.763"/>
<polygon fill="midnightblue" stroke="midnightblue" points="487.778,-174.08 496.659,-168.304 486.114,-167.281 487.778,-174.08"/>
</g>
<!-- Node9 -->
<g id="node9" class="node"><title>Node9</title>
<g id="a_node9"><a xlink:href="singlmesh_8F90.html#aef78ff219741b83c1ca784b869e9cacf" target="_top" xlink:title="Dummy for singlmesh. ">
<polygon fill="white" stroke="black" points="483.5,-114.5 483.5,-133.5 563.5,-133.5 563.5,-114.5 483.5,-114.5"/>
<text text-anchor="middle" x="523.5" y="-121.5" font-family="Helvetica,sans-Serif" font-size="10.00">happy_check</text>
</a>
</g>
</g>
<!-- Node7&#45;&gt;Node9 -->
<g id="edge10" class="edge"><title>Node7&#45;&gt;Node9</title>
<path fill="none" stroke="midnightblue" d="M386.225,-190.685C393.472,-186.509 401.861,-181.329 409,-176 426.394,-163.017 425.861,-153.238 445,-143 453.704,-138.344 463.566,-134.809 473.267,-132.13"/>
<polygon fill="midnightblue" stroke="midnightblue" points="474.408,-135.453 483.264,-129.637 472.714,-128.66 474.408,-135.453"/>
</g>
<!-- Node10 -->
<g id="node10" class="node"><title>Node10</title>
<g id="a_node10"><a xlink:href="mpi__dummy_8F90.html#a55e9a1619aadb638b14211ce21d7d566" target="_top" xlink:title="mpi_finalize">
<polygon fill="white" stroke="black" points="487.5,-228.5 487.5,-247.5 559.5,-247.5 559.5,-228.5 487.5,-228.5"/>
<text text-anchor="middle" x="523.5" y="-235.5" font-family="Helvetica,sans-Serif" font-size="10.00">mpi_finalize</text>
</a>
</g>
</g>
<!-- Node7&#45;&gt;Node10 -->
<g id="edge11" class="edge"><title>Node7&#45;&gt;Node10</title>
<path fill="none" stroke="midnightblue" d="M386.199,-204.324C401.599,-208.189 424.801,-213.999 445,-219 455.496,-221.599 466.797,-224.379 477.435,-226.989"/>
<polygon fill="midnightblue" stroke="midnightblue" points="476.838,-230.446 487.384,-229.427 478.504,-223.647 476.838,-230.446"/>
</g>
<!-- Node11 -->
<g id="node11" class="node"><title>Node11</title>
<g id="a_node11"><a xlink:href="papi_8F90.html#a3a75ccdfbe05912fda48c3b134d114c0" target="_top" xlink:title="nek_flops">
<polygon fill="white" stroke="black" points="492.5,-190.5 492.5,-209.5 554.5,-209.5 554.5,-190.5 492.5,-190.5"/>
<text text-anchor="middle" x="523.5" y="-197.5" font-family="Helvetica,sans-Serif" font-size="10.00">nek_flops</text>
</a>
</g>
</g>
<!-- Node7&#45;&gt;Node11 -->
<g id="edge12" class="edge"><title>Node7&#45;&gt;Node11</title>
<path fill="none" stroke="midnightblue" d="M386.014,-200C409.086,-200 451.009,-200 482.326,-200"/>
<polygon fill="midnightblue" stroke="midnightblue" points="482.498,-203.5 492.498,-200 482.498,-196.5 482.498,-203.5"/>
</g>
<!-- Node7&#45;&gt;Node13 -->
<g id="edge14" class="edge"><title>Node7&#45;&gt;Node13</title>
<path fill="none" stroke="midnightblue" d="M386.06,-192.486C393.785,-188.447 402.598,-182.875 409,-176 433.112,-150.108 417.29,-126.998 445,-105 455.531,-96.6404 469.216,-91.8885 482.15,-89.2103"/>
<polygon fill="midnightblue" stroke="midnightblue" points="483.02,-92.6124 492.287,-87.4777 481.84,-85.7125 483.02,-92.6124"/>
</g>
<!-- Node12 -->
<g id="node12" class="node"><title>Node12</title>
<g id="a_node12"><a xlink:href="papi_8F90.html#a838be3d39e287e29002d5a68c6ad2dd8" target="_top" xlink:title="getflops_papi">
<polygon fill="white" stroke="black" points="638,-190.5 638,-209.5 718,-209.5 718,-190.5 638,-190.5"/>
<text text-anchor="middle" x="678" y="-197.5" font-family="Helvetica,sans-Serif" font-size="10.00">getflops_papi</text>
</a>
</g>
</g>
<!-- Node11&#45;&gt;Node12 -->
<g id="edge13" class="edge"><title>Node11&#45;&gt;Node12</title>
<path fill="none" stroke="midnightblue" d="M554.629,-200C575.516,-200 603.799,-200 627.913,-200"/>
<polygon fill="midnightblue" stroke="midnightblue" points="627.958,-203.5 637.958,-200 627.958,-196.5 627.958,-203.5"/>
</g>
<!-- Node14 -->
<g id="node14" class="node"><title>Node14</title>
<g id="a_node14"><a xlink:href="mpi__dummy_8F90.html#a070afe564196eb48413dbf1a9fbc99aa" target="_top" xlink:title="mpi_barrier">
<polygon fill="white" stroke="black" points="643,-76.5 643,-95.5 713,-95.5 713,-76.5 643,-76.5"/>
<text text-anchor="middle" x="678" y="-83.5" font-family="Helvetica,sans-Serif" font-size="10.00">mpi_barrier</text>
</a>
</g>
</g>
<!-- Node13&#45;&gt;Node14 -->
<g id="edge15" class="edge"><title>Node13&#45;&gt;Node14</title>
<path fill="none" stroke="midnightblue" d="M554.629,-86C576.983,-86 607.807,-86 632.926,-86"/>
<polygon fill="midnightblue" stroke="midnightblue" points="632.947,-89.5001 642.947,-86 632.947,-82.5001 632.947,-89.5001"/>
</g>
<!-- Node16 -->
<g id="node16" class="node"><title>Node16</title>
<g id="a_node16"><a xlink:href="mpi__dummy_8F90.html#a64285f5ce9bed08bfd13bc27264db185" target="_top" xlink:title="mpi_reduce_double_precision">
<polygon fill="white" stroke="black" points="445,-418.5 445,-437.5 602,-437.5 602,-418.5 445,-418.5"/>
<text text-anchor="middle" x="523.5" y="-425.5" font-family="Helvetica,sans-Serif" font-size="10.00">mpi_reduce_double_precision</text>
</a>
</g>
</g>
<!-- Node15&#45;&gt;Node16 -->
<g id="edge17" class="edge"><title>Node15&#45;&gt;Node16</title>
<path fill="none" stroke="midnightblue" d="M378.94,-361.583C392.679,-374.299 418.761,-396.584 445,-409 450.214,-411.467 455.783,-413.635 461.452,-415.534"/>
<polygon fill="midnightblue" stroke="midnightblue" points="460.457,-418.89 471.044,-418.484 462.515,-412.199 460.457,-418.89"/>
</g>
<!-- Node17 -->
<g id="node17" class="node"><title>Node17</title>
<g id="a_node17"><a xlink:href="mpi__dummy_8F90.html#aa549a352c5ab9ce53b8dfd222da38fa6" target="_top" xlink:title="mpi_reduce_integer">
<polygon fill="white" stroke="black" points="468.5,-380.5 468.5,-399.5 578.5,-399.5 578.5,-380.5 468.5,-380.5"/>
<text text-anchor="middle" x="523.5" y="-387.5" font-family="Helvetica,sans-Serif" font-size="10.00">mpi_reduce_integer</text>
</a>
</g>
</g>
<!-- Node15&#45;&gt;Node17 -->
<g id="edge18" class="edge"><title>Node15&#45;&gt;Node17</title>
<path fill="none" stroke="midnightblue" d="M406.876,-361.505C419.047,-364.55 432.59,-367.928 445,-371 454.282,-373.298 464.192,-375.738 473.718,-378.076"/>
<polygon fill="midnightblue" stroke="midnightblue" points="472.917,-381.484 483.463,-380.466 474.584,-374.685 472.917,-381.484"/>
</g>
<!-- Node18 -->
<g id="node18" class="node"><title>Node18</title>
<g id="a_node18"><a xlink:href="mpi__dummy_8F90.html#abbddc050d7faafb34959984f69652e0a" target="_top" xlink:title="mpi_reduce_integer8">
<polygon fill="white" stroke="black" points="465.5,-342.5 465.5,-361.5 581.5,-361.5 581.5,-342.5 465.5,-342.5"/>
<text text-anchor="middle" x="523.5" y="-349.5" font-family="Helvetica,sans-Serif" font-size="10.00">mpi_reduce_integer8</text>
</a>
</g>
</g>
<!-- Node15&#45;&gt;Node18 -->
<g id="edge19" class="edge"><title>Node15&#45;&gt;Node18</title>
<path fill="none" stroke="midnightblue" d="M409.33,-352C423.393,-352 439.58,-352 455.233,-352"/>
<polygon fill="midnightblue" stroke="midnightblue" points="455.414,-355.5 465.414,-352 455.414,-348.5 455.414,-355.5"/>
</g>
<!-- Node19 -->
<g id="node19" class="node"><title>Node19</title>
<g id="a_node19"><a xlink:href="mpi__dummy_8F90.html#a47f146895b36dc21100a1c42d343762c" target="_top" xlink:title="mpi_reduce_real">
<polygon fill="white" stroke="black" points="476,-304.5 476,-323.5 571,-323.5 571,-304.5 476,-304.5"/>
<text text-anchor="middle" x="523.5" y="-311.5" font-family="Helvetica,sans-Serif" font-size="10.00">mpi_reduce_real</text>
</a>
</g>
</g>
<!-- Node15&#45;&gt;Node19 -->
<g id="edge20" class="edge"><title>Node15&#45;&gt;Node19</title>
<path fill="none" stroke="midnightblue" d="M406.876,-342.495C419.047,-339.45 432.59,-336.072 445,-333 454.282,-330.702 464.192,-328.262 473.718,-325.924"/>
<polygon fill="midnightblue" stroke="midnightblue" points="474.584,-329.315 483.463,-323.534 472.917,-322.516 474.584,-329.315"/>
</g>
<!-- Node20&#45;&gt;Node2 -->
<g id="edge23" class="edge"><title>Node20&#45;&gt;Node2</title>
<path fill="none" stroke="midnightblue" d="M163.611,-133.296C182.073,-139.191 205.871,-146.791 224.342,-152.689"/>
<polygon fill="midnightblue" stroke="midnightblue" points="223.397,-156.061 233.988,-155.769 225.527,-149.393 223.397,-156.061"/>
</g>
<!-- Node20&#45;&gt;Node13 -->
<g id="edge30" class="edge"><title>Node20&#45;&gt;Node13</title>
<path fill="none" stroke="midnightblue" d="M163.652,-116.151C179.592,-112.168 199.753,-107.628 218,-105 311.774,-91.4957 423.159,-87.5868 481.767,-86.4573"/>
<polygon fill="midnightblue" stroke="midnightblue" points="482.143,-89.9514 492.081,-86.2771 482.021,-82.9525 482.143,-89.9514"/>
</g>
<!-- Node21 -->
<g id="node21" class="node"><title>Node21</title>
<g id="a_node21"><a xlink:href="comm__mpi_8F90.html#a243c9bed2592e7cd159fb36be4fda037" target="_top" xlink:title="crecv">
<polygon fill="white" stroke="black" points="233.5,-114.5 233.5,-133.5 275.5,-133.5 275.5,-114.5 233.5,-114.5"/>
<text text-anchor="middle" x="254.5" y="-121.5" font-family="Helvetica,sans-Serif" font-size="10.00">crecv</text>
</a>
</g>
</g>
<!-- Node20&#45;&gt;Node21 -->
<g id="edge24" class="edge"><title>Node20&#45;&gt;Node21</title>
<path fill="none" stroke="midnightblue" d="M163.611,-124C181.672,-124 204.839,-124 223.131,-124"/>
<polygon fill="midnightblue" stroke="midnightblue" points="223.262,-127.5 233.262,-124 223.262,-120.5 223.262,-127.5"/>
</g>
<!-- Node23 -->
<g id="node23" class="node"><title>Node23</title>
<g id="a_node23"><a xlink:href="comm__mpi_8F90.html#abd95004b45059acdcc13614c52e60eae" target="_top" xlink:title="csend">
<polygon fill="white" stroke="black" points="232,-38.5 232,-57.5 277,-57.5 277,-38.5 232,-38.5"/>
<text text-anchor="middle" x="254.5" y="-45.5" font-family="Helvetica,sans-Serif" font-size="10.00">csend</text>
</a>
</g>
</g>
<!-- Node20&#45;&gt;Node23 -->
<g id="edge27" class="edge"><title>Node20&#45;&gt;Node23</title>
<path fill="none" stroke="midnightblue" d="M163.451,-114.358C169.777,-111.727 176.285,-108.593 182,-105 200.376,-93.448 200.963,-85.4481 218,-72 221.714,-69.0687 225.773,-66.1128 229.777,-63.3253"/>
<polygon fill="midnightblue" stroke="midnightblue" points="231.972,-66.066 238.298,-57.5671 228.053,-60.266 231.972,-66.066"/>
</g>
<!-- Node25 -->
<g id="node25" class="node"><title>Node25</title>
<g id="a_node25"><a xlink:href="classstring.html#a788cdffdfd5841a6e4117c4b8e80da77" target="_top" xlink:title="string::ltrunc">
<polygon fill="white" stroke="black" points="218,-0.5 218,-19.5 291,-19.5 291,-0.5 218,-0.5"/>
<text text-anchor="middle" x="254.5" y="-7.5" font-family="Helvetica,sans-Serif" font-size="10.00">string::ltrunc</text>
</a>
</g>
</g>
<!-- Node20&#45;&gt;Node25 -->
<g id="edge29" class="edge"><title>Node20&#45;&gt;Node25</title>
<path fill="none" stroke="midnightblue" d="M163.642,-116.307C170.243,-113.547 176.823,-109.866 182,-105 209.233,-79.4015 192.227,-56.0686 218,-29 219.193,-27.747 220.487,-26.5587 221.852,-25.4342"/>
<polygon fill="midnightblue" stroke="midnightblue" points="223.96,-28.2324 230.224,-19.6874 219.998,-22.4613 223.96,-28.2324"/>
</g>
<!-- Node21&#45;&gt;Node7 -->
<g id="edge25" class="edge"><title>Node21&#45;&gt;Node7</title>
<path fill="none" stroke="midnightblue" d="M274.597,-133.536C279.997,-136.415 285.813,-139.694 291,-143 310.881,-155.672 332.256,-171.964 347.257,-183.883"/>
<polygon fill="midnightblue" stroke="midnightblue" points="345.305,-186.804 355.294,-190.335 349.687,-181.345 345.305,-186.804"/>
</g>
<!-- Node22 -->
<g id="node22" class="node"><title>Node22</title>
<g id="a_node22"><a xlink:href="mpi__dummy_8F90.html#a709ef20e522dddac7afb17999141cfd4" target="_top" xlink:title="mpi_recv">
<polygon fill="white" stroke="black" points="338.5,-114.5 338.5,-133.5 397.5,-133.5 397.5,-114.5 338.5,-114.5"/>
<text text-anchor="middle" x="368" y="-121.5" font-family="Helvetica,sans-Serif" font-size="10.00">mpi_recv</text>
</a>
</g>
</g>
<!-- Node21&#45;&gt;Node22 -->
<g id="edge26" class="edge"><title>Node21&#45;&gt;Node22</title>
<path fill="none" stroke="midnightblue" d="M275.692,-124C290.276,-124 310.432,-124 328.097,-124"/>
<polygon fill="midnightblue" stroke="midnightblue" points="328.149,-127.5 338.149,-124 328.149,-120.5 328.149,-127.5"/>
</g>
<!-- Node24 -->
<g id="node24" class="node"><title>Node24</title>
<g id="a_node24"><a xlink:href="mpi__dummy_8F90.html#af98c20c7332635506f852083f7ee504a" target="_top" xlink:title="mpi_send">
<polygon fill="white" stroke="black" points="337,-38.5 337,-57.5 399,-57.5 399,-38.5 337,-38.5"/>
<text text-anchor="middle" x="368" y="-45.5" font-family="Helvetica,sans-Serif" font-size="10.00">mpi_send</text>
</a>
</g>
</g>
<!-- Node23&#45;&gt;Node24 -->
<g id="edge28" class="edge"><title>Node23&#45;&gt;Node24</title>
<path fill="none" stroke="midnightblue" d="M277.263,-48C291.329,-48 310.061,-48 326.772,-48"/>
<polygon fill="midnightblue" stroke="midnightblue" points="326.856,-51.5001 336.856,-48 326.856,-44.5001 326.856,-51.5001"/>
</g>
</g>
</svg>
