<?xml version="1.0" encoding="UTF-8" standalone="no"?>
<!DOCTYPE svg PUBLIC "-//W3C//DTD SVG 1.1//EN"
 "http://www.w3.org/Graphics/SVG/1.1/DTD/svg11.dtd">
<!-- Generated by graphviz version 2.38.0 (20140413.2041)
 -->
<!-- Title: echopar Pages: 1 -->
<svg width="422pt" height="218pt"
 viewBox="0.00 0.00 422.00 218.00" xmlns="http://www.w3.org/2000/svg" xmlns:xlink="http://www.w3.org/1999/xlink">
<g id="graph0" class="graph" transform="scale(1 1) rotate(0) translate(4 214)">
<title>echopar</title>
<polygon fill="white" stroke="none" points="-4,4 -4,-214 418,-214 418,4 -4,4"/>
<!-- Node1 -->
<g id="node1" class="node"><title>Node1</title>
<polygon fill="#bfbfbf" stroke="black" points="0,-114.5 0,-133.5 56,-133.5 56,-114.5 0,-114.5"/>
<text text-anchor="middle" x="28" y="-121.5" font-family="Helvetica,sans-Serif" font-size="10.00">echopar</text>
</g>
<!-- Node2 -->
<g id="node2" class="node"><title>Node2</title>
<g id="a_node2"><a xlink:href="math_8F90.html#a692155d1d2ec380a9fdb2d81ef221625" target="_top" xlink:title="blank a string ">
<polygon fill="white" stroke="black" points="108,-171.5 108,-190.5 149,-190.5 149,-171.5 108,-171.5"/>
<text text-anchor="middle" x="128.5" y="-178.5" font-family="Helvetica,sans-Serif" font-size="10.00">blank</text>
</a>
</g>
</g>
<!-- Node1&#45;&gt;Node2 -->
<g id="edge1" class="edge"><title>Node1&#45;&gt;Node2</title>
<path fill="none" stroke="midnightblue" d="M44.4032,-133.593C57.0785,-141.414 75.5673,-152.655 92,-162 94.5635,-163.458 97.2462,-164.951 99.9392,-166.429"/>
<polygon fill="midnightblue" stroke="midnightblue" points="98.5155,-169.638 108.976,-171.317 101.846,-163.481 98.5155,-169.638"/>
</g>
<!-- Node3 -->
<g id="node3" class="node"><title>Node3</title>
<g id="a_node3"><a xlink:href="math_8F90.html#ad7fb480cea001849621405f37167aab1" target="_top" xlink:title="chcopy">
<polygon fill="white" stroke="black" points="103.5,-133.5 103.5,-152.5 153.5,-152.5 153.5,-133.5 103.5,-133.5"/>
<text text-anchor="middle" x="128.5" y="-140.5" font-family="Helvetica,sans-Serif" font-size="10.00">chcopy</text>
</a>
</g>
</g>
<!-- Node1&#45;&gt;Node3 -->
<g id="edge2" class="edge"><title>Node1&#45;&gt;Node3</title>
<path fill="none" stroke="midnightblue" d="M56.1763,-129.242C67.7431,-131.473 81.358,-134.1 93.5754,-136.456"/>
<polygon fill="midnightblue" stroke="midnightblue" points="92.9518,-139.9 103.434,-138.358 94.2777,-133.027 92.9518,-139.9"/>
</g>
<!-- Node4 -->
<g id="node4" class="node"><title>Node4</title>
<g id="a_node4"><a xlink:href="byte_8c.html#a2da8eeb074dfd3ffbfb3e9a4d301cda4" target="_top" xlink:title="exitt">
<polygon fill="white" stroke="black" points="110.5,-95.5 110.5,-114.5 146.5,-114.5 146.5,-95.5 110.5,-95.5"/>
<text text-anchor="middle" x="128.5" y="-102.5" font-family="Helvetica,sans-Serif" font-size="10.00">exitt</text>
</a>
</g>
</g>
<!-- Node1&#45;&gt;Node4 -->
<g id="edge3" class="edge"><title>Node1&#45;&gt;Node4</title>
<path fill="none" stroke="midnightblue" d="M56.1763,-118.758C69.971,-116.097 86.6789,-112.874 100.455,-110.217"/>
<polygon fill="midnightblue" stroke="midnightblue" points="101.165,-113.644 110.321,-108.314 99.8396,-106.771 101.165,-113.644"/>
</g>
<!-- Node14 -->
<g id="node14" class="node"><title>Node14</title>
<g id="a_node14"><a xlink:href="classstring.html#a788cdffdfd5841a6e4117c4b8e80da77" target="_top" xlink:title="string::ltrunc">
<polygon fill="white" stroke="black" points="92,-57.5 92,-76.5 165,-76.5 165,-57.5 92,-57.5"/>
<text text-anchor="middle" x="128.5" y="-64.5" font-family="Helvetica,sans-Serif" font-size="10.00">string::ltrunc</text>
</a>
</g>
</g>
<!-- Node1&#45;&gt;Node14 -->
<g id="edge13" class="edge"><title>Node1&#45;&gt;Node14</title>
<path fill="none" stroke="midnightblue" d="M44.4032,-114.407C57.0785,-106.586 75.5673,-95.3452 92,-86 94.5635,-84.5421 97.2462,-83.0488 99.9392,-81.5712"/>
<polygon fill="midnightblue" stroke="midnightblue" points="101.846,-84.5192 108.976,-76.683 98.5155,-78.3621 101.846,-84.5192"/>
</g>
<!-- Node5 -->
<g id="node5" class="node"><title>Node5</title>
<g id="a_node5"><a xlink:href="classctimer.html#abcecbc845c8ee72e13a19eaa30b80d77" target="_top" xlink:title="ctimer::dnekclock">
<polygon fill="white" stroke="black" points="201,-190.5 201,-209.5 298,-209.5 298,-190.5 201,-190.5"/>
<text text-anchor="middle" x="249.5" y="-197.5" font-family="Helvetica,sans-Serif" font-size="10.00">ctimer::dnekclock</text>
</a>
</g>
</g>
<!-- Node4&#45;&gt;Node5 -->
<g id="edge4" class="edge"><title>Node4&#45;&gt;Node5</title>
<path fill="none" stroke="midnightblue" d="M146.555,-111.903C152.821,-114.983 159.678,-119.047 165,-124 186.935,-144.412 177.968,-161.835 201,-181 202.971,-182.64 205.102,-184.152 207.332,-185.544"/>
<polygon fill="midnightblue" stroke="midnightblue" points="205.821,-188.705 216.29,-190.333 209.121,-182.532 205.821,-188.705"/>
</g>
<!-- Node7 -->
<g id="node7" class="node"><title>Node7</title>
<g id="a_node7"><a xlink:href="subs1_8F90.html#a339739b88994e5bb12bd923147f94983" target="_top" xlink:title="flush_io">
<polygon fill="white" stroke="black" points="223,-152.5 223,-171.5 276,-171.5 276,-152.5 223,-152.5"/>
<text text-anchor="middle" x="249.5" y="-159.5" font-family="Helvetica,sans-Serif" font-size="10.00">flush_io</text>
</a>
</g>
</g>
<!-- Node4&#45;&gt;Node7 -->
<g id="edge6" class="edge"><title>Node4&#45;&gt;Node7</title>
<path fill="none" stroke="midnightblue" d="M146.657,-114.178C166.925,-125.011 198.258,-141.728 201,-143 205.099,-144.902 209.444,-146.799 213.777,-148.617"/>
<polygon fill="midnightblue" stroke="midnightblue" points="212.559,-151.9 223.139,-152.443 215.207,-145.42 212.559,-151.9"/>
</g>
<!-- Node8 -->
<g id="node8" class="node"><title>Node8</title>
<g id="a_node8"><a xlink:href="singlmesh_8F90.html#aef78ff219741b83c1ca784b869e9cacf" target="_top" xlink:title="Dummy for singlmesh. ">
<polygon fill="white" stroke="black" points="209.5,-114.5 209.5,-133.5 289.5,-133.5 289.5,-114.5 209.5,-114.5"/>
<text text-anchor="middle" x="249.5" y="-121.5" font-family="Helvetica,sans-Serif" font-size="10.00">happy_check</text>
</a>
</g>
</g>
<!-- Node4&#45;&gt;Node8 -->
<g id="edge7" class="edge"><title>Node4&#45;&gt;Node8</title>
<path fill="none" stroke="midnightblue" d="M146.55,-107.722C160.387,-109.931 180.615,-113.161 199.412,-116.162"/>
<polygon fill="midnightblue" stroke="midnightblue" points="198.936,-119.631 209.362,-117.751 200.039,-112.718 198.936,-119.631"/>
</g>
<!-- Node9 -->
<g id="node9" class="node"><title>Node9</title>
<g id="a_node9"><a xlink:href="mpi__dummy_8F90.html#a55e9a1619aadb638b14211ce21d7d566" target="_top" xlink:title="mpi_finalize">
<polygon fill="white" stroke="black" points="213.5,-76.5 213.5,-95.5 285.5,-95.5 285.5,-76.5 213.5,-76.5"/>
<text text-anchor="middle" x="249.5" y="-83.5" font-family="Helvetica,sans-Serif" font-size="10.00">mpi_finalize</text>
</a>
</g>
</g>
<!-- Node4&#45;&gt;Node9 -->
<g id="edge8" class="edge"><title>Node4&#45;&gt;Node9</title>
<path fill="none" stroke="midnightblue" d="M146.55,-102.278C161.326,-99.9185 183.391,-96.3956 203.218,-93.2299"/>
<polygon fill="midnightblue" stroke="midnightblue" points="204.009,-96.6481 213.332,-91.6151 202.905,-89.7356 204.009,-96.6481"/>
</g>
<!-- Node10 -->
<g id="node10" class="node"><title>Node10</title>
<g id="a_node10"><a xlink:href="papi_8F90.html#a3a75ccdfbe05912fda48c3b134d114c0" target="_top" xlink:title="nek_flops">
<polygon fill="white" stroke="black" points="218.5,-38.5 218.5,-57.5 280.5,-57.5 280.5,-38.5 218.5,-38.5"/>
<text text-anchor="middle" x="249.5" y="-45.5" font-family="Helvetica,sans-Serif" font-size="10.00">nek_flops</text>
</a>
</g>
</g>
<!-- Node4&#45;&gt;Node10 -->
<g id="edge9" class="edge"><title>Node4&#45;&gt;Node10</title>
<path fill="none" stroke="midnightblue" d="M146.657,-95.8219C166.925,-84.9887 198.258,-68.2723 201,-67 205.099,-65.0978 209.444,-63.2013 213.777,-61.3834"/>
<polygon fill="midnightblue" stroke="midnightblue" points="215.207,-64.5801 223.139,-57.5572 212.559,-58.1003 215.207,-64.5801"/>
</g>
<!-- Node12 -->
<g id="node12" class="node"><title>Node12</title>
<g id="a_node12"><a xlink:href="comm__mpi_8F90.html#a4acb4d8e379294232e9219bec063d8f3" target="_top" xlink:title="nekgsync">
<polygon fill="white" stroke="black" points="218.5,-0.5 218.5,-19.5 280.5,-19.5 280.5,-0.5 218.5,-0.5"/>
<text text-anchor="middle" x="249.5" y="-7.5" font-family="Helvetica,sans-Serif" font-size="10.00">nekgsync</text>
</a>
</g>
</g>
<!-- Node4&#45;&gt;Node12 -->
<g id="edge11" class="edge"><title>Node4&#45;&gt;Node12</title>
<path fill="none" stroke="midnightblue" d="M146.555,-98.0974C152.821,-95.017 159.678,-90.9526 165,-86 186.935,-65.5882 177.968,-48.1647 201,-29 203.526,-26.8981 206.314,-25.0068 209.236,-23.3093"/>
<polygon fill="midnightblue" stroke="midnightblue" points="210.901,-26.39 218.273,-18.7808 207.765,-20.1317 210.901,-26.39"/>
</g>
<!-- Node6 -->
<g id="node6" class="node"><title>Node6</title>
<g id="a_node6"><a xlink:href="mpi__dummy_8F90.html#ae6a5ef945f87c2c27849696b70f3af2a" target="_top" xlink:title="mpi_wtime">
<polygon fill="white" stroke="black" points="341,-190.5 341,-209.5 407,-209.5 407,-190.5 341,-190.5"/>
<text text-anchor="middle" x="374" y="-197.5" font-family="Helvetica,sans-Serif" font-size="10.00">mpi_wtime</text>
</a>
</g>
</g>
<!-- Node5&#45;&gt;Node6 -->
<g id="edge5" class="edge"><title>Node5&#45;&gt;Node6</title>
<path fill="none" stroke="midnightblue" d="M298.212,-200C308.894,-200 320.154,-200 330.603,-200"/>
<polygon fill="midnightblue" stroke="midnightblue" points="330.73,-203.5 340.729,-200 330.729,-196.5 330.73,-203.5"/>
</g>
<!-- Node11 -->
<g id="node11" class="node"><title>Node11</title>
<g id="a_node11"><a xlink:href="papi_8F90.html#a838be3d39e287e29002d5a68c6ad2dd8" target="_top" xlink:title="getflops_papi">
<polygon fill="white" stroke="black" points="334,-38.5 334,-57.5 414,-57.5 414,-38.5 334,-38.5"/>
<text text-anchor="middle" x="374" y="-45.5" font-family="Helvetica,sans-Serif" font-size="10.00">getflops_papi</text>
</a>
</g>
</g>
<!-- Node10&#45;&gt;Node11 -->
<g id="edge10" class="edge"><title>Node10&#45;&gt;Node11</title>
<path fill="none" stroke="midnightblue" d="M280.781,-48C293.666,-48 309.032,-48 323.491,-48"/>
<polygon fill="midnightblue" stroke="midnightblue" points="323.811,-51.5001 333.811,-48 323.811,-44.5001 323.811,-51.5001"/>
</g>
<!-- Node13 -->
<g id="node13" class="node"><title>Node13</title>
<g id="a_node13"><a xlink:href="mpi__dummy_8F90.html#a070afe564196eb48413dbf1a9fbc99aa" target="_top" xlink:title="mpi_barrier">
<polygon fill="white" stroke="black" points="339,-0.5 339,-19.5 409,-19.5 409,-0.5 339,-0.5"/>
<text text-anchor="middle" x="374" y="-7.5" font-family="Helvetica,sans-Serif" font-size="10.00">mpi_barrier</text>
</a>
</g>
</g>
<!-- Node12&#45;&gt;Node13 -->
<g id="edge12" class="edge"><title>Node12&#45;&gt;Node13</title>
<path fill="none" stroke="midnightblue" d="M280.781,-10C295.195,-10 312.714,-10 328.594,-10"/>
<polygon fill="midnightblue" stroke="midnightblue" points="328.745,-13.5001 338.745,-10 328.745,-6.5001 328.745,-13.5001"/>
</g>
</g>
</svg>
