<?xml version="1.0" encoding="UTF-8" standalone="no"?>
<!DOCTYPE svg PUBLIC "-//W3C//DTD SVG 1.1//EN"
 "http://www.w3.org/Graphics/SVG/1.1/DTD/svg11.dtd">
<!-- Generated by graphviz version 2.38.0 (20140413.2041)
 -->
<!-- Title: comment Pages: 1 -->
<svg width="518pt" height="104pt"
 viewBox="0.00 0.00 518.00 104.00" xmlns="http://www.w3.org/2000/svg" xmlns:xlink="http://www.w3.org/1999/xlink">
<g id="graph0" class="graph" transform="scale(1 1) rotate(0) translate(4 100)">
<title>comment</title>
<polygon fill="white" stroke="none" points="-4,4 -4,-100 514,-100 514,4 -4,4"/>
<!-- Node1 -->
<g id="node1" class="node"><title>Node1</title>
<polygon fill="#bfbfbf" stroke="black" points="0,-38.5 0,-57.5 59,-57.5 59,-38.5 0,-38.5"/>
<text text-anchor="middle" x="29.5" y="-45.5" font-family="Helvetica,sans-Serif" font-size="10.00">comment</text>
</g>
<!-- Node2 -->
<g id="node2" class="node"><title>Node2</title>
<g id="a_node2"><a xlink:href="drive1_8F90.html#ae177ea7efac97f35241521b782a671c0" target="_top" xlink:title="take a single time&#45;step ">
<polygon fill="white" stroke="black" points="95,-76.5 95,-95.5 175,-95.5 175,-76.5 95,-76.5"/>
<text text-anchor="middle" x="135" y="-83.5" font-family="Helvetica,sans-Serif" font-size="10.00">nek_advance</text>
</a>
</g>
</g>
<!-- Node1&#45;&gt;Node2 -->
<g id="edge1" class="edge"><title>Node1&#45;&gt;Node2</title>
<path fill="none" stroke="midnightblue" d="M66.2293,-61.118C79.9184,-66.1439 95.2667,-71.7791 107.891,-76.4141"/>
<polygon fill="midnightblue" stroke="midnightblue" points="67.211,-57.7501 56.6174,-57.589 64.7984,-64.3212 67.211,-57.7501"/>
</g>
<!-- Node4 -->
<g id="node4" class="node"><title>Node4</title>
<g id="a_node4"><a xlink:href="drive1_8F90.html#a6ad57e0cf728f343e371ef8c9a02cd8a" target="_top" xlink:title="integrate the governing equations in time ">
<polygon fill="white" stroke="black" points="360,-38.5 360,-57.5 425,-57.5 425,-38.5 360,-38.5"/>
<text text-anchor="middle" x="392.5" y="-45.5" font-family="Helvetica,sans-Serif" font-size="10.00">nek_solve</text>
</a>
</g>
</g>
<!-- Node1&#45;&gt;Node4 -->
<g id="edge7" class="edge"><title>Node1&#45;&gt;Node4</title>
<path fill="none" stroke="midnightblue" d="M69.5553,-48C141.524,-48 293.741,-48 359.8,-48"/>
<polygon fill="midnightblue" stroke="midnightblue" points="69.1288,-44.5001 59.1288,-48 69.1288,-51.5001 69.1288,-44.5001"/>
</g>
<!-- Node6 -->
<g id="node6" class="node"><title>Node6</title>
<g id="a_node6"><a xlink:href="drive1_8F90.html#a87bd37ae2c18426f28f35cc3f24e4355" target="_top" xlink:title="initialize nek ">
<polygon fill="white" stroke="black" points="241,-0.5 241,-19.5 294,-19.5 294,-0.5 241,-0.5"/>
<text text-anchor="middle" x="267.5" y="-7.5" font-family="Helvetica,sans-Serif" font-size="10.00">nek_init</text>
</a>
</g>
</g>
<!-- Node1&#45;&gt;Node6 -->
<g id="edge5" class="edge"><title>Node1&#45;&gt;Node6</title>
<path fill="none" stroke="midnightblue" d="M69.3111,-39.0847C77.756,-37.2824 86.6592,-35.4867 95,-34 146.5,-24.8205 207.221,-17.032 240.836,-12.9843"/>
<polygon fill="midnightblue" stroke="midnightblue" points="68.3309,-35.7161 59.3059,-41.266 69.822,-42.5554 68.3309,-35.7161"/>
</g>
<!-- Node3 -->
<g id="node3" class="node"><title>Node3</title>
<g id="a_node3"><a xlink:href="drive1_8F90.html#a18d3e839786263fc4cf91f7eeb714371" target="_top" xlink:title="take a chunk of time&#45;steps ">
<polygon fill="white" stroke="black" points="211,-76.5 211,-95.5 324,-95.5 324,-76.5 211,-76.5"/>
<text text-anchor="middle" x="267.5" y="-83.5" font-family="Helvetica,sans-Serif" font-size="10.00">nek__multi_advance</text>
</a>
</g>
</g>
<!-- Node2&#45;&gt;Node3 -->
<g id="edge2" class="edge"><title>Node2&#45;&gt;Node3</title>
<path fill="none" stroke="midnightblue" d="M185.191,-86C193.607,-86 202.403,-86 210.97,-86"/>
<polygon fill="midnightblue" stroke="midnightblue" points="185.154,-82.5001 175.154,-86 185.154,-89.5001 185.154,-82.5001"/>
</g>
<!-- Node3&#45;&gt;Node4 -->
<g id="edge3" class="edge"><title>Node3&#45;&gt;Node4</title>
<path fill="none" stroke="midnightblue" d="M309.545,-73.3196C326.164,-68.1852 345.032,-62.3559 360.472,-57.5859"/>
<polygon fill="midnightblue" stroke="midnightblue" points="308.059,-70.1151 299.538,-76.411 310.126,-76.8032 308.059,-70.1151"/>
</g>
<!-- Node5 -->
<g id="node5" class="node"><title>Node5</title>
<g id="a_node5"><a xlink:href="drive_8F90.html#a13048bf28dd0734640412d69349e3857" target="_top" xlink:title="NEK5000: Spectral Element Computational Fluid Dynamics Solver COPYRIGHT (c) 2008&#45;2010 UCHICAGO ARGONN...">
<polygon fill="white" stroke="black" points="461,-19.5 461,-38.5 510,-38.5 510,-19.5 461,-19.5"/>
<text text-anchor="middle" x="485.5" y="-26.5" font-family="Helvetica,sans-Serif" font-size="10.00">nekton</text>
</a>
</g>
</g>
<!-- Node4&#45;&gt;Node5 -->
<g id="edge4" class="edge"><title>Node4&#45;&gt;Node5</title>
<path fill="none" stroke="midnightblue" d="M434.906,-39.3548C443.759,-37.5064 452.82,-35.6146 460.734,-33.9622"/>
<polygon fill="midnightblue" stroke="midnightblue" points="434.146,-35.938 425.072,-41.408 435.576,-42.7902 434.146,-35.938"/>
</g>
<!-- Node6&#45;&gt;Node5 -->
<g id="edge6" class="edge"><title>Node6&#45;&gt;Node5</title>
<path fill="none" stroke="midnightblue" d="M304.181,-13.1386C348.547,-17.0412 423.036,-23.5935 460.886,-26.9228"/>
<polygon fill="midnightblue" stroke="midnightblue" points="304.395,-9.64396 294.126,-12.2542 303.781,-16.617 304.395,-9.64396"/>
</g>
</g>
</svg>
