<?xml version="1.0" encoding="UTF-8" standalone="no"?>
<!DOCTYPE svg PUBLIC "-//W3C//DTD SVG 1.1//EN"
 "http://www.w3.org/Graphics/SVG/1.1/DTD/svg11.dtd">
<!-- Generated by graphviz version 2.38.0 (20140413.2041)
 -->
<!-- Title: pprint_all Pages: 1 -->
<svg width="524pt" height="294pt"
 viewBox="0.00 0.00 524.00 294.00" xmlns="http://www.w3.org/2000/svg" xmlns:xlink="http://www.w3.org/1999/xlink">
<g id="graph0" class="graph" transform="scale(1 1) rotate(0) translate(4 290)">
<title>pprint_all</title>
<polygon fill="white" stroke="none" points="-4,4 -4,-290 520,-290 520,4 -4,4"/>
<!-- Node1 -->
<g id="node1" class="node"><title>Node1</title>
<polygon fill="#bfbfbf" stroke="black" points="0,-76.5 0,-95.5 60,-95.5 60,-76.5 0,-76.5"/>
<text text-anchor="middle" x="30" y="-83.5" font-family="Helvetica,sans-Serif" font-size="10.00">pprint_all</text>
</g>
<!-- Node2 -->
<g id="node2" class="node"><title>Node2</title>
<g id="a_node2"><a xlink:href="math_8F90.html#a692155d1d2ec380a9fdb2d81ef221625" target="_top" xlink:title="blank a string ">
<polygon fill="white" stroke="black" points="112,-152.5 112,-171.5 153,-171.5 153,-152.5 112,-152.5"/>
<text text-anchor="middle" x="132.5" y="-159.5" font-family="Helvetica,sans-Serif" font-size="10.00">blank</text>
</a>
</g>
</g>
<!-- Node1&#45;&gt;Node2 -->
<g id="edge1" class="edge"><title>Node1&#45;&gt;Node2</title>
<path fill="none" stroke="midnightblue" d="M40.5471,-95.6364C52.73,-107.624 74.7764,-128.303 96,-143 98.2395,-144.551 100.62,-146.07 103.046,-147.531"/>
<polygon fill="midnightblue" stroke="midnightblue" points="101.439,-150.642 111.866,-152.52 104.885,-144.55 101.439,-150.642"/>
</g>
<!-- Node3 -->
<g id="node3" class="node"><title>Node3</title>
<g id="a_node3"><a xlink:href="comm__mpi_8F90.html#a243c9bed2592e7cd159fb36be4fda037" target="_top" xlink:title="crecv">
<polygon fill="white" stroke="black" points="111.5,-114.5 111.5,-133.5 153.5,-133.5 153.5,-114.5 111.5,-114.5"/>
<text text-anchor="middle" x="132.5" y="-121.5" font-family="Helvetica,sans-Serif" font-size="10.00">crecv</text>
</a>
</g>
</g>
<!-- Node1&#45;&gt;Node3 -->
<g id="edge2" class="edge"><title>Node1&#45;&gt;Node3</title>
<path fill="none" stroke="midnightblue" d="M56.3604,-95.589C70.1562,-100.805 87.3007,-107.288 101.728,-112.743"/>
<polygon fill="midnightblue" stroke="midnightblue" points="100.616,-116.064 111.208,-116.327 103.092,-109.517 100.616,-116.064"/>
</g>
<!-- Node12 -->
<g id="node12" class="node"><title>Node12</title>
<g id="a_node12"><a xlink:href="comm__mpi_8F90.html#a4acb4d8e379294232e9219bec063d8f3" target="_top" xlink:title="nekgsync">
<polygon fill="white" stroke="black" points="320.5,-76.5 320.5,-95.5 382.5,-95.5 382.5,-76.5 320.5,-76.5"/>
<text text-anchor="middle" x="351.5" y="-83.5" font-family="Helvetica,sans-Serif" font-size="10.00">nekgsync</text>
</a>
</g>
</g>
<!-- Node1&#45;&gt;Node12 -->
<g id="edge17" class="edge"><title>Node1&#45;&gt;Node12</title>
<path fill="none" stroke="midnightblue" d="M60.2005,-86C117.403,-86 244.327,-86 309.754,-86"/>
<polygon fill="midnightblue" stroke="midnightblue" points="310.087,-89.5001 320.086,-86 310.086,-82.5001 310.087,-89.5001"/>
</g>
<!-- Node15 -->
<g id="node15" class="node"><title>Node15</title>
<g id="a_node15"><a xlink:href="comm__mpi_8F90.html#abd95004b45059acdcc13614c52e60eae" target="_top" xlink:title="csend">
<polygon fill="white" stroke="black" points="110,-38.5 110,-57.5 155,-57.5 155,-38.5 110,-38.5"/>
<text text-anchor="middle" x="132.5" y="-45.5" font-family="Helvetica,sans-Serif" font-size="10.00">csend</text>
</a>
</g>
</g>
<!-- Node1&#45;&gt;Node15 -->
<g id="edge14" class="edge"><title>Node1&#45;&gt;Node15</title>
<path fill="none" stroke="midnightblue" d="M56.3604,-76.411C69.7783,-71.3376 86.3638,-65.0664 100.536,-59.7077"/>
<polygon fill="midnightblue" stroke="midnightblue" points="101.778,-62.98 109.894,-56.1695 99.3024,-56.4324 101.778,-62.98"/>
</g>
<!-- Node17 -->
<g id="node17" class="node"><title>Node17</title>
<g id="a_node17"><a xlink:href="classstring.html#a788cdffdfd5841a6e4117c4b8e80da77" target="_top" xlink:title="string::ltrunc">
<polygon fill="white" stroke="black" points="96,-0.5 96,-19.5 169,-19.5 169,-0.5 96,-0.5"/>
<text text-anchor="middle" x="132.5" y="-7.5" font-family="Helvetica,sans-Serif" font-size="10.00">string::ltrunc</text>
</a>
</g>
</g>
<!-- Node1&#45;&gt;Node17 -->
<g id="edge16" class="edge"><title>Node1&#45;&gt;Node17</title>
<path fill="none" stroke="midnightblue" d="M40.5471,-76.3636C52.73,-64.3757 74.7764,-43.6971 96,-29 98.112,-27.5375 100.349,-26.1033 102.632,-24.7194"/>
<polygon fill="midnightblue" stroke="midnightblue" points="104.534,-27.6645 111.496,-19.6783 101.073,-21.5798 104.534,-27.6645"/>
</g>
<!-- Node4 -->
<g id="node4" class="node"><title>Node4</title>
<g id="a_node4"><a xlink:href="byte_8c.html#a2da8eeb074dfd3ffbfb3e9a4d301cda4" target="_top" xlink:title="exitt">
<polygon fill="white" stroke="black" points="218,-152.5 218,-171.5 254,-171.5 254,-152.5 218,-152.5"/>
<text text-anchor="middle" x="236" y="-159.5" font-family="Helvetica,sans-Serif" font-size="10.00">exitt</text>
</a>
</g>
</g>
<!-- Node3&#45;&gt;Node4 -->
<g id="edge3" class="edge"><title>Node3&#45;&gt;Node4</title>
<path fill="none" stroke="midnightblue" d="M153.553,-131.508C169.201,-137.366 191.085,-145.559 208.229,-151.977"/>
<polygon fill="midnightblue" stroke="midnightblue" points="207.1,-155.292 217.692,-155.52 209.554,-148.736 207.1,-155.292"/>
</g>
<!-- Node14 -->
<g id="node14" class="node"><title>Node14</title>
<g id="a_node14"><a xlink:href="mpi__dummy_8F90.html#a709ef20e522dddac7afb17999141cfd4" target="_top" xlink:title="mpi_recv">
<polygon fill="white" stroke="black" points="206.5,-114.5 206.5,-133.5 265.5,-133.5 265.5,-114.5 206.5,-114.5"/>
<text text-anchor="middle" x="236" y="-121.5" font-family="Helvetica,sans-Serif" font-size="10.00">mpi_recv</text>
</a>
</g>
</g>
<!-- Node3&#45;&gt;Node14 -->
<g id="edge13" class="edge"><title>Node3&#45;&gt;Node14</title>
<path fill="none" stroke="midnightblue" d="M153.553,-124C165.641,-124 181.449,-124 195.92,-124"/>
<polygon fill="midnightblue" stroke="midnightblue" points="196.148,-127.5 206.148,-124 196.148,-120.5 196.148,-127.5"/>
</g>
<!-- Node5 -->
<g id="node5" class="node"><title>Node5</title>
<g id="a_node5"><a xlink:href="classctimer.html#abcecbc845c8ee72e13a19eaa30b80d77" target="_top" xlink:title="ctimer::dnekclock">
<polygon fill="white" stroke="black" points="303,-266.5 303,-285.5 400,-285.5 400,-266.5 303,-266.5"/>
<text text-anchor="middle" x="351.5" y="-273.5" font-family="Helvetica,sans-Serif" font-size="10.00">ctimer::dnekclock</text>
</a>
</g>
</g>
<!-- Node4&#45;&gt;Node5 -->
<g id="edge4" class="edge"><title>Node4&#45;&gt;Node5</title>
<path fill="none" stroke="midnightblue" d="M241.374,-171.749C250.33,-190.694 272.512,-232.743 303,-257 305.068,-258.645 307.296,-260.164 309.621,-261.565"/>
<polygon fill="midnightblue" stroke="midnightblue" points="308.433,-264.892 318.921,-266.393 311.658,-258.679 308.433,-264.892"/>
</g>
<!-- Node7 -->
<g id="node7" class="node"><title>Node7</title>
<g id="a_node7"><a xlink:href="subs1_8F90.html#a339739b88994e5bb12bd923147f94983" target="_top" xlink:title="flush_io">
<polygon fill="white" stroke="black" points="325,-228.5 325,-247.5 378,-247.5 378,-228.5 325,-228.5"/>
<text text-anchor="middle" x="351.5" y="-235.5" font-family="Helvetica,sans-Serif" font-size="10.00">flush_io</text>
</a>
</g>
</g>
<!-- Node4&#45;&gt;Node7 -->
<g id="edge6" class="edge"><title>Node4&#45;&gt;Node7</title>
<path fill="none" stroke="midnightblue" d="M246.049,-171.585C258.091,-183.898 280.492,-205.311 303,-219 306.861,-221.348 311.063,-223.513 315.318,-225.475"/>
<polygon fill="midnightblue" stroke="midnightblue" points="314.036,-228.734 324.607,-229.439 316.783,-222.295 314.036,-228.734"/>
</g>
<!-- Node8 -->
<g id="node8" class="node"><title>Node8</title>
<g id="a_node8"><a xlink:href="singlmesh_8F90.html#aef78ff219741b83c1ca784b869e9cacf" target="_top" xlink:title="Dummy for singlmesh. ">
<polygon fill="white" stroke="black" points="311.5,-190.5 311.5,-209.5 391.5,-209.5 391.5,-190.5 311.5,-190.5"/>
<text text-anchor="middle" x="351.5" y="-197.5" font-family="Helvetica,sans-Serif" font-size="10.00">happy_check</text>
</a>
</g>
</g>
<!-- Node4&#45;&gt;Node8 -->
<g id="edge7" class="edge"><title>Node4&#45;&gt;Node8</title>
<path fill="none" stroke="midnightblue" d="M254.238,-167.771C269.623,-172.922 292.699,-180.648 312.401,-187.244"/>
<polygon fill="midnightblue" stroke="midnightblue" points="311.451,-190.617 322.045,-190.473 313.673,-183.979 311.451,-190.617"/>
</g>
<!-- Node9 -->
<g id="node9" class="node"><title>Node9</title>
<g id="a_node9"><a xlink:href="mpi__dummy_8F90.html#a55e9a1619aadb638b14211ce21d7d566" target="_top" xlink:title="mpi_finalize">
<polygon fill="white" stroke="black" points="315.5,-152.5 315.5,-171.5 387.5,-171.5 387.5,-152.5 315.5,-152.5"/>
<text text-anchor="middle" x="351.5" y="-159.5" font-family="Helvetica,sans-Serif" font-size="10.00">mpi_finalize</text>
</a>
</g>
</g>
<!-- Node4&#45;&gt;Node9 -->
<g id="edge8" class="edge"><title>Node4&#45;&gt;Node9</title>
<path fill="none" stroke="midnightblue" d="M254.238,-162C267.78,-162 287.279,-162 305.192,-162"/>
<polygon fill="midnightblue" stroke="midnightblue" points="305.215,-165.5 315.215,-162 305.215,-158.5 305.215,-165.5"/>
</g>
<!-- Node10 -->
<g id="node10" class="node"><title>Node10</title>
<g id="a_node10"><a xlink:href="papi_8F90.html#a3a75ccdfbe05912fda48c3b134d114c0" target="_top" xlink:title="nek_flops">
<polygon fill="white" stroke="black" points="320.5,-114.5 320.5,-133.5 382.5,-133.5 382.5,-114.5 320.5,-114.5"/>
<text text-anchor="middle" x="351.5" y="-121.5" font-family="Helvetica,sans-Serif" font-size="10.00">nek_flops</text>
</a>
</g>
</g>
<!-- Node4&#45;&gt;Node10 -->
<g id="edge9" class="edge"><title>Node4&#45;&gt;Node10</title>
<path fill="none" stroke="midnightblue" d="M254.238,-156.229C269.623,-151.078 292.699,-143.352 312.401,-136.756"/>
<polygon fill="midnightblue" stroke="midnightblue" points="313.673,-140.021 322.045,-133.527 311.451,-133.383 313.673,-140.021"/>
</g>
<!-- Node4&#45;&gt;Node12 -->
<g id="edge11" class="edge"><title>Node4&#45;&gt;Node12</title>
<path fill="none" stroke="midnightblue" d="M253.702,-152.449C258.177,-149.618 262.906,-146.369 267,-143 284.965,-128.218 283.753,-118.068 303,-105 305.719,-103.154 308.644,-101.445 311.659,-99.8713"/>
<polygon fill="midnightblue" stroke="midnightblue" points="313.29,-102.972 320.857,-95.557 310.317,-96.6347 313.29,-102.972"/>
</g>
<!-- Node6 -->
<g id="node6" class="node"><title>Node6</title>
<g id="a_node6"><a xlink:href="mpi__dummy_8F90.html#ae6a5ef945f87c2c27849696b70f3af2a" target="_top" xlink:title="mpi_wtime">
<polygon fill="white" stroke="black" points="443,-266.5 443,-285.5 509,-285.5 509,-266.5 443,-266.5"/>
<text text-anchor="middle" x="476" y="-273.5" font-family="Helvetica,sans-Serif" font-size="10.00">mpi_wtime</text>
</a>
</g>
</g>
<!-- Node5&#45;&gt;Node6 -->
<g id="edge5" class="edge"><title>Node5&#45;&gt;Node6</title>
<path fill="none" stroke="midnightblue" d="M400.212,-276C410.894,-276 422.154,-276 432.603,-276"/>
<polygon fill="midnightblue" stroke="midnightblue" points="432.73,-279.5 442.729,-276 432.729,-272.5 432.73,-279.5"/>
</g>
<!-- Node11 -->
<g id="node11" class="node"><title>Node11</title>
<g id="a_node11"><a xlink:href="papi_8F90.html#a838be3d39e287e29002d5a68c6ad2dd8" target="_top" xlink:title="getflops_papi">
<polygon fill="white" stroke="black" points="436,-114.5 436,-133.5 516,-133.5 516,-114.5 436,-114.5"/>
<text text-anchor="middle" x="476" y="-121.5" font-family="Helvetica,sans-Serif" font-size="10.00">getflops_papi</text>
</a>
</g>
</g>
<!-- Node10&#45;&gt;Node11 -->
<g id="edge10" class="edge"><title>Node10&#45;&gt;Node11</title>
<path fill="none" stroke="midnightblue" d="M382.781,-124C395.666,-124 411.032,-124 425.491,-124"/>
<polygon fill="midnightblue" stroke="midnightblue" points="425.811,-127.5 435.811,-124 425.811,-120.5 425.811,-127.5"/>
</g>
<!-- Node13 -->
<g id="node13" class="node"><title>Node13</title>
<g id="a_node13"><a xlink:href="mpi__dummy_8F90.html#a070afe564196eb48413dbf1a9fbc99aa" target="_top" xlink:title="mpi_barrier">
<polygon fill="white" stroke="black" points="441,-76.5 441,-95.5 511,-95.5 511,-76.5 441,-76.5"/>
<text text-anchor="middle" x="476" y="-83.5" font-family="Helvetica,sans-Serif" font-size="10.00">mpi_barrier</text>
</a>
</g>
</g>
<!-- Node12&#45;&gt;Node13 -->
<g id="edge12" class="edge"><title>Node12&#45;&gt;Node13</title>
<path fill="none" stroke="midnightblue" d="M382.781,-86C397.195,-86 414.714,-86 430.594,-86"/>
<polygon fill="midnightblue" stroke="midnightblue" points="430.745,-89.5001 440.745,-86 430.745,-82.5001 430.745,-89.5001"/>
</g>
<!-- Node16 -->
<g id="node16" class="node"><title>Node16</title>
<g id="a_node16"><a xlink:href="mpi__dummy_8F90.html#af98c20c7332635506f852083f7ee504a" target="_top" xlink:title="mpi_send">
<polygon fill="white" stroke="black" points="205,-38.5 205,-57.5 267,-57.5 267,-38.5 205,-38.5"/>
<text text-anchor="middle" x="236" y="-45.5" font-family="Helvetica,sans-Serif" font-size="10.00">mpi_send</text>
</a>
</g>
</g>
<!-- Node15&#45;&gt;Node16 -->
<g id="edge15" class="edge"><title>Node15&#45;&gt;Node16</title>
<path fill="none" stroke="midnightblue" d="M155.026,-48C166.526,-48 181.063,-48 194.58,-48"/>
<polygon fill="midnightblue" stroke="midnightblue" points="194.65,-51.5001 204.65,-48 194.65,-44.5001 194.65,-51.5001"/>
</g>
</g>
</svg>
