<?xml version="1.0" encoding="UTF-8" standalone="no"?>
<!DOCTYPE svg PUBLIC "-//W3C//DTD SVG 1.1//EN"
 "http://www.w3.org/Graphics/SVG/1.1/DTD/svg11.dtd">
<!-- Generated by graphviz version 2.38.0 (20140413.2041)
 -->
<!-- Title: esteig Pages: 1 -->
<svg width="589pt" height="66pt"
 viewBox="0.00 0.00 589.00 66.00" xmlns="http://www.w3.org/2000/svg" xmlns:xlink="http://www.w3.org/1999/xlink">
<g id="graph0" class="graph" transform="scale(1 1) rotate(0) translate(4 62)">
<title>esteig</title>
<polygon fill="white" stroke="none" points="-4,4 -4,-62 585,-62 585,4 -4,4"/>
<!-- Node1 -->
<g id="node1" class="node"><title>Node1</title>
<polygon fill="#bfbfbf" stroke="black" points="0,-19.5 0,-38.5 45,-38.5 45,-19.5 0,-19.5"/>
<text text-anchor="middle" x="22.5" y="-26.5" font-family="Helvetica,sans-Serif" font-size="10.00">esteig</text>
</g>
<!-- Node2 -->
<g id="node2" class="node"><title>Node2</title>
<g id="a_node2"><a xlink:href="drive2_8F90.html#a7f0d055bb47546a4859ac7d63339197e" target="_top" xlink:title="Compute eigenvalues. ">
<polygon fill="white" stroke="black" points="81,-19.5 81,-38.5 130,-38.5 130,-19.5 81,-19.5"/>
<text text-anchor="middle" x="105.5" y="-26.5" font-family="Helvetica,sans-Serif" font-size="10.00">geneig</text>
</a>
</g>
</g>
<!-- Node1&#45;&gt;Node2 -->
<g id="edge1" class="edge"><title>Node1&#45;&gt;Node2</title>
<path fill="none" stroke="midnightblue" d="M55.4808,-29C63.9013,-29 72.8364,-29 80.7395,-29"/>
<polygon fill="midnightblue" stroke="midnightblue" points="55.2065,-25.5001 45.2065,-29 55.2065,-32.5001 55.2065,-25.5001"/>
</g>
<!-- Node3 -->
<g id="node3" class="node"><title>Node3</title>
<g id="a_node3"><a xlink:href="drive1_8F90.html#ae177ea7efac97f35241521b782a671c0" target="_top" xlink:title="take a single time&#45;step ">
<polygon fill="white" stroke="black" points="166,-38.5 166,-57.5 246,-57.5 246,-38.5 166,-38.5"/>
<text text-anchor="middle" x="206" y="-45.5" font-family="Helvetica,sans-Serif" font-size="10.00">nek_advance</text>
</a>
</g>
</g>
<!-- Node2&#45;&gt;Node3 -->
<g id="edge2" class="edge"><title>Node2&#45;&gt;Node3</title>
<path fill="none" stroke="midnightblue" d="M140.135,-35.4879C148.403,-37.0827 157.325,-38.8039 165.829,-40.4442"/>
<polygon fill="midnightblue" stroke="midnightblue" points="140.575,-32.0084 130.093,-33.551 139.249,-38.8817 140.575,-32.0084"/>
</g>
<!-- Node7 -->
<g id="node7" class="node"><title>Node7</title>
<g id="a_node7"><a xlink:href="drive1_8F90.html#a87bd37ae2c18426f28f35cc3f24e4355" target="_top" xlink:title="initialize nek ">
<polygon fill="white" stroke="black" points="312,-0.5 312,-19.5 365,-19.5 365,-0.5 312,-0.5"/>
<text text-anchor="middle" x="338.5" y="-7.5" font-family="Helvetica,sans-Serif" font-size="10.00">nek_init</text>
</a>
</g>
</g>
<!-- Node2&#45;&gt;Node7 -->
<g id="edge6" class="edge"><title>Node2&#45;&gt;Node7</title>
<path fill="none" stroke="midnightblue" d="M140.551,-26.1992C187.164,-22.3653 269.816,-15.5671 311.672,-12.1244"/>
<polygon fill="midnightblue" stroke="midnightblue" points="140.03,-22.7302 130.351,-27.0382 140.604,-29.7066 140.03,-22.7302"/>
</g>
<!-- Node4 -->
<g id="node4" class="node"><title>Node4</title>
<g id="a_node4"><a xlink:href="drive1_8F90.html#a18d3e839786263fc4cf91f7eeb714371" target="_top" xlink:title="take a chunk of time&#45;steps ">
<polygon fill="white" stroke="black" points="282,-38.5 282,-57.5 395,-57.5 395,-38.5 282,-38.5"/>
<text text-anchor="middle" x="338.5" y="-45.5" font-family="Helvetica,sans-Serif" font-size="10.00">nek__multi_advance</text>
</a>
</g>
</g>
<!-- Node3&#45;&gt;Node4 -->
<g id="edge3" class="edge"><title>Node3&#45;&gt;Node4</title>
<path fill="none" stroke="midnightblue" d="M256.191,-48C264.607,-48 273.403,-48 281.97,-48"/>
<polygon fill="midnightblue" stroke="midnightblue" points="256.154,-44.5001 246.154,-48 256.154,-51.5001 256.154,-44.5001"/>
</g>
<!-- Node5 -->
<g id="node5" class="node"><title>Node5</title>
<g id="a_node5"><a xlink:href="drive1_8F90.html#a6ad57e0cf728f343e371ef8c9a02cd8a" target="_top" xlink:title="integrate the governing equations in time ">
<polygon fill="white" stroke="black" points="431,-38.5 431,-57.5 496,-57.5 496,-38.5 431,-38.5"/>
<text text-anchor="middle" x="463.5" y="-45.5" font-family="Helvetica,sans-Serif" font-size="10.00">nek_solve</text>
</a>
</g>
</g>
<!-- Node4&#45;&gt;Node5 -->
<g id="edge4" class="edge"><title>Node4&#45;&gt;Node5</title>
<path fill="none" stroke="midnightblue" d="M405.282,-48C414.164,-48 422.927,-48 430.824,-48"/>
<polygon fill="midnightblue" stroke="midnightblue" points="405.242,-44.5001 395.242,-48 405.242,-51.5001 405.242,-44.5001"/>
</g>
<!-- Node6 -->
<g id="node6" class="node"><title>Node6</title>
<g id="a_node6"><a xlink:href="drive_8F90.html#a13048bf28dd0734640412d69349e3857" target="_top" xlink:title="NEK5000: Spectral Element Computational Fluid Dynamics Solver COPYRIGHT (c) 2008&#45;2010 UCHICAGO ARGONN...">
<polygon fill="white" stroke="black" points="532,-19.5 532,-38.5 581,-38.5 581,-19.5 532,-19.5"/>
<text text-anchor="middle" x="556.5" y="-26.5" font-family="Helvetica,sans-Serif" font-size="10.00">nekton</text>
</a>
</g>
</g>
<!-- Node5&#45;&gt;Node6 -->
<g id="edge5" class="edge"><title>Node5&#45;&gt;Node6</title>
<path fill="none" stroke="midnightblue" d="M505.906,-39.3548C514.759,-37.5064 523.82,-35.6146 531.734,-33.9622"/>
<polygon fill="midnightblue" stroke="midnightblue" points="505.146,-35.938 496.072,-41.408 506.576,-42.7902 505.146,-35.938"/>
</g>
<!-- Node7&#45;&gt;Node6 -->
<g id="edge7" class="edge"><title>Node7&#45;&gt;Node6</title>
<path fill="none" stroke="midnightblue" d="M375.181,-13.1386C419.547,-17.0412 494.036,-23.5935 531.886,-26.9228"/>
<polygon fill="midnightblue" stroke="midnightblue" points="375.395,-9.64396 365.126,-12.2542 374.781,-16.617 375.395,-9.64396"/>
</g>
</g>
</svg>
