<?xml version="1.0" encoding="UTF-8" standalone="no"?>
<!DOCTYPE svg PUBLIC "-//W3C//DTD SVG 1.1//EN"
 "http://www.w3.org/Graphics/SVG/1.1/DTD/svg11.dtd">
<!-- Generated by graphviz version 2.38.0 (20140413.2041)
 -->
<!-- Title: eigenv Pages: 1 -->
<svg width="761pt" height="1092pt"
 viewBox="0.00 0.00 761.00 1092.00" xmlns="http://www.w3.org/2000/svg" xmlns:xlink="http://www.w3.org/1999/xlink">
<g id="graph0" class="graph" transform="scale(1 1) rotate(0) translate(4 1088)">
<title>eigenv</title>
<polygon fill="white" stroke="none" points="-4,4 -4,-1088 757,-1088 757,4 -4,4"/>
<!-- Node1 -->
<g id="node1" class="node"><title>Node1</title>
<polygon fill="#bfbfbf" stroke="black" points="0,-38.5 0,-57.5 48,-57.5 48,-38.5 0,-38.5"/>
<text text-anchor="middle" x="24" y="-45.5" font-family="Helvetica,sans-Serif" font-size="10.00">eigenv</text>
</g>
<!-- Node2 -->
<g id="node2" class="node"><title>Node2</title>
<g id="a_node2"><a xlink:href="eigsolv_8F90.html#a40aa959fb07551b7b3fe2e5bd7ed6fda" target="_top" xlink:title="Compute maximum eigenvalue of the discrete Helmholtz operator. ">
<polygon fill="white" stroke="black" points="84,-57.5 84,-76.5 149,-76.5 149,-57.5 84,-57.5"/>
<text text-anchor="middle" x="116.5" y="-64.5" font-family="Helvetica,sans-Serif" font-size="10.00">gammam1</text>
</a>
</g>
</g>
<!-- Node1&#45;&gt;Node2 -->
<g id="edge1" class="edge"><title>Node1&#45;&gt;Node2</title>
<path fill="none" stroke="midnightblue" d="M48.306,-52.893C56.1446,-54.5387 65.1425,-56.4277 73.9519,-58.2772"/>
<polygon fill="midnightblue" stroke="midnightblue" points="73.2404,-61.704 83.7462,-60.3335 74.6787,-54.8534 73.2404,-61.704"/>
</g>
<!-- Node47 -->
<g id="node47" class="node"><title>Node47</title>
<g id="a_node47"><a xlink:href="subs1_8F90.html#ae2376b70f309c6118b4e43df9cbe66b1" target="_top" xlink:title="Set the variable property arrays H1 and H2 in the Helmholtz equation. (associated with variable IFIEL...">
<polygon fill="white" stroke="black" points="186,-19.5 186,-38.5 233,-38.5 233,-19.5 186,-19.5"/>
<text text-anchor="middle" x="209.5" y="-26.5" font-family="Helvetica,sans-Serif" font-size="10.00">sethlm</text>
</a>
</g>
</g>
<!-- Node1&#45;&gt;Node47 -->
<g id="edge51" class="edge"><title>Node1&#45;&gt;Node47</title>
<path fill="none" stroke="midnightblue" d="M48.2404,-45.5936C80.454,-42.2582 138.845,-36.2122 175.547,-32.412"/>
<polygon fill="midnightblue" stroke="midnightblue" points="176.15,-35.8684 185.736,-31.357 175.429,-28.9057 176.15,-35.8684"/>
</g>
<!-- Node3 -->
<g id="node3" class="node"><title>Node3</title>
<g id="a_node3"><a xlink:href="eigsolv_8F90.html#a641903cf1502c362e017e07dcb6cae02" target="_top" xlink:title="Compute startvector for finding an eigenvalue on mesh 1. Normalization: XT*B*X = 1. ">
<polygon fill="white" stroke="black" points="185,-57.5 185,-76.5 234,-76.5 234,-57.5 185,-57.5"/>
<text text-anchor="middle" x="209.5" y="-64.5" font-family="Helvetica,sans-Serif" font-size="10.00">startx1</text>
</a>
</g>
</g>
<!-- Node2&#45;&gt;Node3 -->
<g id="edge2" class="edge"><title>Node2&#45;&gt;Node3</title>
<path fill="none" stroke="midnightblue" d="M149.072,-67C157.301,-67 166.204,-67 174.551,-67"/>
<polygon fill="midnightblue" stroke="midnightblue" points="174.734,-70.5001 184.734,-67 174.734,-63.5001 174.734,-70.5001"/>
</g>
<!-- Node7 -->
<g id="node7" class="node"><title>Node7</title>
<g id="a_node7"><a xlink:href="dssum_8F90.html#a0b9da6f19f8f42c7aa2fd9ca723a63ef" target="_top" xlink:title="Direct stiffness sum. ">
<polygon fill="white" stroke="black" points="466.5,-76.5 466.5,-95.5 513.5,-95.5 513.5,-76.5 466.5,-76.5"/>
<text text-anchor="middle" x="490" y="-83.5" font-family="Helvetica,sans-Serif" font-size="10.00">dssum</text>
</a>
</g>
</g>
<!-- Node2&#45;&gt;Node7 -->
<g id="edge50" class="edge"><title>Node2&#45;&gt;Node7</title>
<path fill="none" stroke="midnightblue" d="M149.337,-76.3464C160.571,-79.542 173.314,-83.0515 185,-86 290.897,-112.719 322.107,-121.944 430,-105 438.863,-103.608 448.212,-101.107 456.789,-98.368"/>
<polygon fill="midnightblue" stroke="midnightblue" points="458.085,-101.624 466.428,-95.0944 455.834,-94.996 458.085,-101.624"/>
</g>
<!-- Node12 -->
<g id="node12" class="node"><title>Node12</title>
<g id="a_node12"><a xlink:href="hmholtz_8F90.html#aa576b5bd623cce50fd6323db12ba5376" target="_top" xlink:title="Compute the (Helmholtz) matrix&#45;vector product, AU = helm1*[A]u + helm2*[B]u, for NEL elements...">
<polygon fill="white" stroke="black" points="380,-152.5 380,-171.5 430,-171.5 430,-152.5 380,-152.5"/>
<text text-anchor="middle" x="405" y="-159.5" font-family="Helvetica,sans-Serif" font-size="10.00">axhelm</text>
</a>
</g>
</g>
<!-- Node2&#45;&gt;Node12 -->
<g id="edge12" class="edge"><title>Node2&#45;&gt;Node12</title>
<path fill="none" stroke="midnightblue" d="M123.356,-76.6167C133.62,-92.5055 156.5,-123.883 185,-138 244.812,-167.627 324.845,-168.014 369.737,-165.259"/>
<polygon fill="midnightblue" stroke="midnightblue" points="370.098,-168.742 379.828,-164.549 369.607,-161.759 370.098,-168.742"/>
</g>
<!-- Node4 -->
<g id="node4" class="node"><title>Node4</title>
<g id="a_node4"><a xlink:href="math_8F90.html#a3b43508554f14bdea8e14473d7d0803c" target="_top" xlink:title="copy">
<polygon fill="white" stroke="black" points="287.5,-0.5 287.5,-19.5 326.5,-19.5 326.5,-0.5 287.5,-0.5"/>
<text text-anchor="middle" x="307" y="-7.5" font-family="Helvetica,sans-Serif" font-size="10.00">copy</text>
</a>
</g>
</g>
<!-- Node3&#45;&gt;Node4 -->
<g id="edge3" class="edge"><title>Node3&#45;&gt;Node4</title>
<path fill="none" stroke="midnightblue" d="M226.7,-57.3307C241.607,-48.4333 263.94,-35.1038 281.111,-24.8554"/>
<polygon fill="midnightblue" stroke="midnightblue" points="283.246,-27.657 290.039,-19.5265 279.658,-21.6462 283.246,-27.657"/>
</g>
<!-- Node5 -->
<g id="node5" class="node"><title>Node5</title>
<g id="a_node5"><a xlink:href="navier5_8F90.html#a0a5183b7f1b1b44e49ac619b15930223" target="_top" xlink:title="rand_fld_h1">
<polygon fill="white" stroke="black" points="270,-76.5 270,-95.5 344,-95.5 344,-76.5 270,-76.5"/>
<text text-anchor="middle" x="307" y="-83.5" font-family="Helvetica,sans-Serif" font-size="10.00">rand_fld_h1</text>
</a>
</g>
</g>
<!-- Node3&#45;&gt;Node5 -->
<g id="edge4" class="edge"><title>Node3&#45;&gt;Node5</title>
<path fill="none" stroke="midnightblue" d="M234.107,-71.6966C241.892,-73.2456 250.84,-75.0257 259.72,-76.7924"/>
<polygon fill="midnightblue" stroke="midnightblue" points="259.16,-80.2496 269.651,-78.7682 260.526,-73.3841 259.16,-80.2496"/>
</g>
<!-- Node3&#45;&gt;Node7 -->
<g id="edge11" class="edge"><title>Node3&#45;&gt;Node7</title>
<path fill="none" stroke="midnightblue" d="M234.075,-64.6189C274.476,-61.0676 359.413,-55.9147 430,-67 438.863,-68.392 448.212,-70.8926 456.789,-73.632"/>
<polygon fill="midnightblue" stroke="midnightblue" points="455.834,-77.004 466.428,-76.9056 458.085,-70.3757 455.834,-77.004"/>
</g>
<!-- Node6 -->
<g id="node6" class="node"><title>Node6</title>
<g id="a_node6"><a xlink:href="ic_8F90.html#a12fbcc70f37b3490eeda7dfb002dcc7d" target="_top" xlink:title="Take direct stiffness avg of u. ">
<polygon fill="white" stroke="black" points="382.5,-76.5 382.5,-95.5 427.5,-95.5 427.5,-76.5 382.5,-76.5"/>
<text text-anchor="middle" x="405" y="-83.5" font-family="Helvetica,sans-Serif" font-size="10.00">dsavg</text>
</a>
</g>
</g>
<!-- Node5&#45;&gt;Node6 -->
<g id="edge5" class="edge"><title>Node5&#45;&gt;Node6</title>
<path fill="none" stroke="midnightblue" d="M344.02,-86C353.274,-86 363.163,-86 372.187,-86"/>
<polygon fill="midnightblue" stroke="midnightblue" points="372.294,-89.5001 382.294,-86 372.294,-82.5001 372.294,-89.5001"/>
</g>
<!-- Node6&#45;&gt;Node7 -->
<g id="edge6" class="edge"><title>Node6&#45;&gt;Node7</title>
<path fill="none" stroke="midnightblue" d="M427.807,-86C436.555,-86 446.822,-86 456.421,-86"/>
<polygon fill="midnightblue" stroke="midnightblue" points="456.471,-89.5001 466.471,-86 456.471,-82.5001 456.471,-89.5001"/>
</g>
<!-- Node8 -->
<g id="node8" class="node"><title>Node8</title>
<g id="a_node8"><a xlink:href="classctimer.html#abcecbc845c8ee72e13a19eaa30b80d77" target="_top" xlink:title="ctimer::dnekclock">
<polygon fill="white" stroke="black" points="550,-114.5 550,-133.5 647,-133.5 647,-114.5 550,-114.5"/>
<text text-anchor="middle" x="598.5" y="-121.5" font-family="Helvetica,sans-Serif" font-size="10.00">ctimer::dnekclock</text>
</a>
</g>
</g>
<!-- Node7&#45;&gt;Node8 -->
<g id="edge7" class="edge"><title>Node7&#45;&gt;Node8</title>
<path fill="none" stroke="midnightblue" d="M513.586,-94.0588C527.441,-99.0023 545.496,-105.445 561.308,-111.087"/>
<polygon fill="midnightblue" stroke="midnightblue" points="560.211,-114.411 570.806,-114.475 562.564,-107.818 560.211,-114.411"/>
</g>
<!-- Node10 -->
<g id="node10" class="node"><title>Node10</title>
<g id="a_node10"><a xlink:href="comm__mpi_8F90.html#a4acb4d8e379294232e9219bec063d8f3" target="_top" xlink:title="nekgsync">
<polygon fill="white" stroke="black" points="567.5,-76.5 567.5,-95.5 629.5,-95.5 629.5,-76.5 567.5,-76.5"/>
<text text-anchor="middle" x="598.5" y="-83.5" font-family="Helvetica,sans-Serif" font-size="10.00">nekgsync</text>
</a>
</g>
</g>
<!-- Node7&#45;&gt;Node10 -->
<g id="edge9" class="edge"><title>Node7&#45;&gt;Node10</title>
<path fill="none" stroke="midnightblue" d="M513.586,-86C526.164,-86 542.205,-86 556.886,-86"/>
<polygon fill="midnightblue" stroke="midnightblue" points="557.266,-89.5001 567.266,-86 557.266,-82.5001 557.266,-89.5001"/>
</g>
<!-- Node9 -->
<g id="node9" class="node"><title>Node9</title>
<g id="a_node9"><a xlink:href="mpi__dummy_8F90.html#ae6a5ef945f87c2c27849696b70f3af2a" target="_top" xlink:title="mpi_wtime">
<polygon fill="white" stroke="black" points="685,-114.5 685,-133.5 751,-133.5 751,-114.5 685,-114.5"/>
<text text-anchor="middle" x="718" y="-121.5" font-family="Helvetica,sans-Serif" font-size="10.00">mpi_wtime</text>
</a>
</g>
</g>
<!-- Node8&#45;&gt;Node9 -->
<g id="edge8" class="edge"><title>Node8&#45;&gt;Node9</title>
<path fill="none" stroke="midnightblue" d="M647.292,-124C656.334,-124 665.735,-124 674.597,-124"/>
<polygon fill="midnightblue" stroke="midnightblue" points="674.698,-127.5 684.698,-124 674.698,-120.5 674.698,-127.5"/>
</g>
<!-- Node11 -->
<g id="node11" class="node"><title>Node11</title>
<g id="a_node11"><a xlink:href="mpi__dummy_8F90.html#a070afe564196eb48413dbf1a9fbc99aa" target="_top" xlink:title="mpi_barrier">
<polygon fill="white" stroke="black" points="683,-76.5 683,-95.5 753,-95.5 753,-76.5 683,-76.5"/>
<text text-anchor="middle" x="718" y="-83.5" font-family="Helvetica,sans-Serif" font-size="10.00">mpi_barrier</text>
</a>
</g>
</g>
<!-- Node10&#45;&gt;Node11 -->
<g id="edge10" class="edge"><title>Node10&#45;&gt;Node11</title>
<path fill="none" stroke="midnightblue" d="M629.759,-86C642.782,-86 658.268,-86 672.554,-86"/>
<polygon fill="midnightblue" stroke="midnightblue" points="672.691,-89.5001 682.691,-86 672.691,-82.5001 672.691,-89.5001"/>
</g>
<!-- Node12&#45;&gt;Node8 -->
<g id="edge13" class="edge"><title>Node12&#45;&gt;Node8</title>
<path fill="none" stroke="midnightblue" d="M430.085,-158.114C452.015,-154.493 485.26,-148.794 514,-143 524.823,-140.818 536.394,-138.303 547.368,-135.832"/>
<polygon fill="midnightblue" stroke="midnightblue" points="548.265,-139.217 557.239,-133.585 546.712,-132.392 548.265,-139.217"/>
</g>
<!-- Node13 -->
<g id="node13" class="node"><title>Node13</title>
<g id="a_node13"><a xlink:href="hmholtz_8F90.html#a0f322d39d4bdffa3f9ba901f72d4a1d0" target="_top" xlink:title="Set logicals for fast evaluation of A*x. ">
<polygon fill="white" stroke="black" points="466,-114.5 466,-133.5 514,-133.5 514,-114.5 466,-114.5"/>
<text text-anchor="middle" x="490" y="-121.5" font-family="Helvetica,sans-Serif" font-size="10.00">setfast</text>
</a>
</g>
</g>
<!-- Node12&#45;&gt;Node13 -->
<g id="edge14" class="edge"><title>Node12&#45;&gt;Node13</title>
<path fill="none" stroke="midnightblue" d="M426.944,-152.411C436.578,-148.001 448.188,-142.685 458.747,-137.851"/>
<polygon fill="midnightblue" stroke="midnightblue" points="460.427,-140.931 468.062,-133.586 457.513,-134.566 460.427,-140.931"/>
</g>
<!-- Node14 -->
<g id="node14" class="node"><title>Node14</title>
<g id="a_node14"><a xlink:href="mxm__wrapper_8F90.html#ab9ec2260a10061af6ce1c52f3c8a41da" target="_top" xlink:title="Compute matrix&#45;matrix product C = A*B. ">
<polygon fill="white" stroke="black" points="471,-494.5 471,-513.5 509,-513.5 509,-494.5 471,-494.5"/>
<text text-anchor="middle" x="490" y="-501.5" font-family="Helvetica,sans-Serif" font-size="10.00">mxm</text>
</a>
</g>
</g>
<!-- Node12&#45;&gt;Node14 -->
<g id="edge16" class="edge"><title>Node12&#45;&gt;Node14</title>
<path fill="none" stroke="midnightblue" d="M408.307,-171.504C419.545,-217.81 468.652,-420.157 484.236,-484.371"/>
<polygon fill="midnightblue" stroke="midnightblue" points="480.906,-485.487 486.665,-494.38 487.708,-483.836 480.906,-485.487"/>
</g>
<!-- Node13&#45;&gt;Node8 -->
<g id="edge15" class="edge"><title>Node13&#45;&gt;Node8</title>
<path fill="none" stroke="midnightblue" d="M514.109,-124C521.754,-124 530.635,-124 539.694,-124"/>
<polygon fill="midnightblue" stroke="midnightblue" points="539.939,-127.5 549.939,-124 539.939,-120.5 539.939,-127.5"/>
</g>
<!-- Node15 -->
<g id="node15" class="node"><title>Node15</title>
<g id="a_node15"><a xlink:href="mxm__bgq_8F90.html#a8faaef428336095704ece51624bbfe92" target="_top" xlink:title="mxm_bgq_8">
<polygon fill="white" stroke="black" points="561.5,-570.5 561.5,-589.5 635.5,-589.5 635.5,-570.5 561.5,-570.5"/>
<text text-anchor="middle" x="598.5" y="-577.5" font-family="Helvetica,sans-Serif" font-size="10.00">mxm_bgq_8</text>
</a>
</g>
</g>
<!-- Node14&#45;&gt;Node15 -->
<g id="edge17" class="edge"><title>Node14&#45;&gt;Node15</title>
<path fill="none" stroke="midnightblue" d="M498.878,-513.654C509.415,-526.042 529.194,-547.537 550,-561 552.922,-562.891 556.063,-564.648 559.286,-566.268"/>
<polygon fill="midnightblue" stroke="midnightblue" points="557.929,-569.496 568.479,-570.468 560.838,-563.129 557.929,-569.496"/>
</g>
<!-- Node16 -->
<g id="node16" class="node"><title>Node16</title>
<g id="a_node16"><a xlink:href="mxm__bgq_8F90.html#a27529ace9834454b8906f29e02718629" target="_top" xlink:title="mxm_bgq_12">
<polygon fill="white" stroke="black" points="558.5,-532.5 558.5,-551.5 638.5,-551.5 638.5,-532.5 558.5,-532.5"/>
<text text-anchor="middle" x="598.5" y="-539.5" font-family="Helvetica,sans-Serif" font-size="10.00">mxm_bgq_12</text>
</a>
</g>
</g>
<!-- Node14&#45;&gt;Node16 -->
<g id="edge18" class="edge"><title>Node14&#45;&gt;Node16</title>
<path fill="none" stroke="midnightblue" d="M509.066,-510.446C523.155,-515.473 543.192,-522.623 560.632,-528.845"/>
<polygon fill="midnightblue" stroke="midnightblue" points="559.941,-532.315 570.535,-532.379 562.293,-525.722 559.941,-532.315"/>
</g>
<!-- Node17 -->
<g id="node17" class="node"><title>Node17</title>
<g id="a_node17"><a xlink:href="mxm__bgq_8F90.html#a3fda9ea4bc7a5713a19d6939fa2b541f" target="_top" xlink:title="mxm_bgq_16">
<polygon fill="white" stroke="black" points="558.5,-494.5 558.5,-513.5 638.5,-513.5 638.5,-494.5 558.5,-494.5"/>
<text text-anchor="middle" x="598.5" y="-501.5" font-family="Helvetica,sans-Serif" font-size="10.00">mxm_bgq_16</text>
</a>
</g>
</g>
<!-- Node14&#45;&gt;Node17 -->
<g id="edge19" class="edge"><title>Node14&#45;&gt;Node17</title>
<path fill="none" stroke="midnightblue" d="M509.066,-504C519.859,-504 534.142,-504 548.073,-504"/>
<polygon fill="midnightblue" stroke="midnightblue" points="548.101,-507.5 558.101,-504 548.101,-500.5 548.101,-507.5"/>
</g>
<!-- Node18 -->
<g id="node18" class="node"><title>Node18</title>
<g id="a_node18"><a xlink:href="mxm__bgq_8F90.html#a8a70163b4dbfdbfcce7bff170597fcad" target="_top" xlink:title="mxm_bgq_10">
<polygon fill="white" stroke="black" points="558.5,-456.5 558.5,-475.5 638.5,-475.5 638.5,-456.5 558.5,-456.5"/>
<text text-anchor="middle" x="598.5" y="-463.5" font-family="Helvetica,sans-Serif" font-size="10.00">mxm_bgq_10</text>
</a>
</g>
</g>
<!-- Node14&#45;&gt;Node18 -->
<g id="edge20" class="edge"><title>Node14&#45;&gt;Node18</title>
<path fill="none" stroke="midnightblue" d="M509.066,-497.554C523.155,-492.527 543.192,-485.377 560.632,-479.155"/>
<polygon fill="midnightblue" stroke="midnightblue" points="562.293,-482.278 570.535,-475.621 559.941,-475.685 562.293,-482.278"/>
</g>
<!-- Node19 -->
<g id="node19" class="node"><title>Node19</title>
<g id="a_node19"><a xlink:href="mxm__bgq_8F90.html#af192c3c8b982aa5bbc2a757156718a91" target="_top" xlink:title="mxm_bgq_6">
<polygon fill="white" stroke="black" points="561.5,-418.5 561.5,-437.5 635.5,-437.5 635.5,-418.5 561.5,-418.5"/>
<text text-anchor="middle" x="598.5" y="-425.5" font-family="Helvetica,sans-Serif" font-size="10.00">mxm_bgq_6</text>
</a>
</g>
</g>
<!-- Node14&#45;&gt;Node19 -->
<g id="edge21" class="edge"><title>Node14&#45;&gt;Node19</title>
<path fill="none" stroke="midnightblue" d="M498.878,-494.346C509.415,-481.958 529.194,-460.463 550,-447 552.922,-445.109 556.063,-443.352 559.286,-441.732"/>
<polygon fill="midnightblue" stroke="midnightblue" points="560.838,-444.871 568.479,-437.532 557.929,-438.504 560.838,-444.871"/>
</g>
<!-- Node20 -->
<g id="node20" class="node"><title>Node20</title>
<g id="a_node20"><a xlink:href="mxm__std_8F90.html#af07f4b22fdc3488ca321736743f14b01" target="_top" xlink:title="mxm44_2">
<polygon fill="white" stroke="black" points="567.5,-380.5 567.5,-399.5 629.5,-399.5 629.5,-380.5 567.5,-380.5"/>
<text text-anchor="middle" x="598.5" y="-387.5" font-family="Helvetica,sans-Serif" font-size="10.00">mxm44_2</text>
</a>
</g>
</g>
<!-- Node14&#45;&gt;Node20 -->
<g id="edge22" class="edge"><title>Node14&#45;&gt;Node20</title>
<path fill="none" stroke="midnightblue" d="M494.627,-494.241C502.138,-475.279 521.138,-433.2 550,-409 552.518,-406.889 555.301,-404.991 558.219,-403.288"/>
<polygon fill="midnightblue" stroke="midnightblue" points="559.884,-406.368 567.249,-398.752 556.742,-400.113 559.884,-406.368"/>
</g>
<!-- Node21 -->
<g id="node21" class="node"><title>Node21</title>
<g id="a_node21"><a xlink:href="mxm__std_8F90.html#ac63fe7516a18dc57dfe913ad2c1453be" target="_top" xlink:title="mxm44_0">
<polygon fill="white" stroke="black" points="687,-1064.5 687,-1083.5 749,-1083.5 749,-1064.5 687,-1064.5"/>
<text text-anchor="middle" x="718" y="-1071.5" font-family="Helvetica,sans-Serif" font-size="10.00">mxm44_0</text>
</a>
</g>
</g>
<!-- Node14&#45;&gt;Node21 -->
<g id="edge23" class="edge"><title>Node14&#45;&gt;Node21</title>
<path fill="none" stroke="midnightblue" d="M491.831,-513.61C497.287,-571.355 532.563,-875.76 683,-1055 683.978,-1056.17 685.047,-1057.27 686.183,-1058.32"/>
<polygon fill="midnightblue" stroke="midnightblue" points="684.294,-1061.28 694.406,-1064.44 688.474,-1055.66 684.294,-1061.28"/>
</g>
<!-- Node22 -->
<g id="node22" class="node"><title>Node22</title>
<g id="a_node22"><a xlink:href="mxm__std_8F90.html#aa9e8685c4a72f18fb5d1ee88ed17a3d6" target="_top" xlink:title="unrolled loop version ">
<polygon fill="white" stroke="black" points="575,-608.5 575,-627.5 622,-627.5 622,-608.5 575,-608.5"/>
<text text-anchor="middle" x="598.5" y="-615.5" font-family="Helvetica,sans-Serif" font-size="10.00">mxmf2</text>
</a>
</g>
</g>
<!-- Node14&#45;&gt;Node22 -->
<g id="edge24" class="edge"><title>Node14&#45;&gt;Node22</title>
<path fill="none" stroke="midnightblue" d="M494.627,-513.759C502.138,-532.721 521.138,-574.8 550,-599 554.424,-602.709 559.663,-605.76 565.019,-608.247"/>
<polygon fill="midnightblue" stroke="midnightblue" points="564.052,-611.631 574.635,-612.136 566.677,-605.142 564.052,-611.631"/>
</g>
<!-- Node22&#45;&gt;Node21 -->
<g id="edge49" class="edge"><title>Node22&#45;&gt;Node21</title>
<path fill="none" stroke="midnightblue" d="M601.584,-627.748C608.393,-659.703 630.498,-764.208 647,-851 664.197,-941.447 629.66,-979.958 683,-1055 683.749,-1056.05 684.576,-1057.06 685.465,-1058.01"/>
<polygon fill="midnightblue" stroke="midnightblue" points="683.279,-1060.74 693.232,-1064.37 687.715,-1055.33 683.279,-1060.74"/>
</g>
<!-- Node23 -->
<g id="node23" class="node"><title>Node23</title>
<g id="a_node23"><a xlink:href="mxm__std_8F90.html#af4bd28930a9d674bbcad09ad75fa81ef" target="_top" xlink:title="mxf8">
<polygon fill="white" stroke="black" points="698.5,-912.5 698.5,-931.5 737.5,-931.5 737.5,-912.5 698.5,-912.5"/>
<text text-anchor="middle" x="718" y="-919.5" font-family="Helvetica,sans-Serif" font-size="10.00">mxf8</text>
</a>
</g>
</g>
<!-- Node22&#45;&gt;Node23 -->
<g id="edge25" class="edge"><title>Node22&#45;&gt;Node23</title>
<path fill="none" stroke="midnightblue" d="M599.772,-627.529C601.347,-666.241 611.964,-813.907 683,-903 684.857,-905.33 687.083,-907.42 689.494,-909.285"/>
<polygon fill="midnightblue" stroke="midnightblue" points="687.827,-912.372 698.146,-914.774 691.578,-906.462 687.827,-912.372"/>
</g>
<!-- Node24 -->
<g id="node24" class="node"><title>Node24</title>
<g id="a_node24"><a xlink:href="mxm__std_8F90.html#a7d3ac03517b3934b98857b22f7f78788" target="_top" xlink:title="mxf1">
<polygon fill="white" stroke="black" points="698.5,-874.5 698.5,-893.5 737.5,-893.5 737.5,-874.5 698.5,-874.5"/>
<text text-anchor="middle" x="718" y="-881.5" font-family="Helvetica,sans-Serif" font-size="10.00">mxf1</text>
</a>
</g>
</g>
<!-- Node22&#45;&gt;Node24 -->
<g id="edge26" class="edge"><title>Node22&#45;&gt;Node24</title>
<path fill="none" stroke="midnightblue" d="M600.303,-627.696C603.72,-663.359 619.913,-789.12 683,-865 684.905,-867.291 687.161,-869.356 689.592,-871.206"/>
<polygon fill="midnightblue" stroke="midnightblue" points="687.942,-874.303 698.268,-876.676 691.675,-868.382 687.942,-874.303"/>
</g>
<!-- Node25 -->
<g id="node25" class="node"><title>Node25</title>
<g id="a_node25"><a xlink:href="mxm__std_8F90.html#acd223c583f3a9242fda7a1b8897b624d" target="_top" xlink:title="mxf2">
<polygon fill="white" stroke="black" points="698.5,-836.5 698.5,-855.5 737.5,-855.5 737.5,-836.5 698.5,-836.5"/>
<text text-anchor="middle" x="718" y="-843.5" font-family="Helvetica,sans-Serif" font-size="10.00">mxf2</text>
</a>
</g>
</g>
<!-- Node22&#45;&gt;Node25 -->
<g id="edge27" class="edge"><title>Node22&#45;&gt;Node25</title>
<path fill="none" stroke="midnightblue" d="M600.974,-627.508C606.348,-659.366 627.566,-763.878 683,-827 684.966,-829.239 687.263,-831.27 689.718,-833.098"/>
<polygon fill="midnightblue" stroke="midnightblue" points="688.09,-836.208 698.425,-838.541 691.801,-830.273 688.09,-836.208"/>
</g>
<!-- Node26 -->
<g id="node26" class="node"><title>Node26</title>
<g id="a_node26"><a xlink:href="mxm__std_8F90.html#abff718a387aa354f77d0e8b0ffa98867" target="_top" xlink:title="mxf3">
<polygon fill="white" stroke="black" points="698.5,-798.5 698.5,-817.5 737.5,-817.5 737.5,-798.5 698.5,-798.5"/>
<text text-anchor="middle" x="718" y="-805.5" font-family="Helvetica,sans-Serif" font-size="10.00">mxf3</text>
</a>
</g>
</g>
<!-- Node22&#45;&gt;Node26 -->
<g id="edge28" class="edge"><title>Node22&#45;&gt;Node26</title>
<path fill="none" stroke="midnightblue" d="M602.001,-627.698C609.676,-655.82 635.318,-738.603 683,-789 685.004,-791.118 687.298,-793.062 689.727,-794.83"/>
<polygon fill="midnightblue" stroke="midnightblue" points="687.943,-797.842 698.281,-800.162 691.646,-791.902 687.943,-797.842"/>
</g>
<!-- Node27 -->
<g id="node27" class="node"><title>Node27</title>
<g id="a_node27"><a xlink:href="mxm__std_8F90.html#a2f4e4e1b4daebbd4d0580029d0f54016" target="_top" xlink:title="mxf4">
<polygon fill="white" stroke="black" points="698.5,-760.5 698.5,-779.5 737.5,-779.5 737.5,-760.5 698.5,-760.5"/>
<text text-anchor="middle" x="718" y="-767.5" font-family="Helvetica,sans-Serif" font-size="10.00">mxf4</text>
</a>
</g>
</g>
<!-- Node22&#45;&gt;Node27 -->
<g id="edge29" class="edge"><title>Node22&#45;&gt;Node27</title>
<path fill="none" stroke="midnightblue" d="M603.596,-627.839C613.883,-651.584 642.879,-712.876 683,-751 684.93,-752.834 687.071,-754.553 689.312,-756.15"/>
<polygon fill="midnightblue" stroke="midnightblue" points="687.876,-759.378 698.217,-761.682 691.569,-753.432 687.876,-759.378"/>
</g>
<!-- Node28 -->
<g id="node28" class="node"><title>Node28</title>
<g id="a_node28"><a xlink:href="mxm__std_8F90.html#a5a6d5c31350c601ba8327b75a72cba0a" target="_top" xlink:title="mxf5">
<polygon fill="white" stroke="black" points="698.5,-722.5 698.5,-741.5 737.5,-741.5 737.5,-722.5 698.5,-722.5"/>
<text text-anchor="middle" x="718" y="-729.5" font-family="Helvetica,sans-Serif" font-size="10.00">mxf5</text>
</a>
</g>
</g>
<!-- Node22&#45;&gt;Node28 -->
<g id="edge30" class="edge"><title>Node22&#45;&gt;Node28</title>
<path fill="none" stroke="midnightblue" d="M606.193,-627.589C619.317,-645.894 650.038,-686.363 683,-713 685.025,-714.636 687.21,-716.21 689.46,-717.703"/>
<polygon fill="midnightblue" stroke="midnightblue" points="687.901,-720.85 698.27,-723.024 691.52,-714.858 687.901,-720.85"/>
</g>
<!-- Node29 -->
<g id="node29" class="node"><title>Node29</title>
<g id="a_node29"><a xlink:href="mxm__std_8F90.html#a38a142edde1e72a918d280747a319f7a" target="_top" xlink:title="mxf6">
<polygon fill="white" stroke="black" points="698.5,-684.5 698.5,-703.5 737.5,-703.5 737.5,-684.5 698.5,-684.5"/>
<text text-anchor="middle" x="718" y="-691.5" font-family="Helvetica,sans-Serif" font-size="10.00">mxf6</text>
</a>
</g>
</g>
<!-- Node22&#45;&gt;Node29 -->
<g id="edge31" class="edge"><title>Node22&#45;&gt;Node29</title>
<path fill="none" stroke="midnightblue" d="M612.849,-627.659C629.132,-639.312 657.629,-659.295 683,-675 685.345,-676.451 687.805,-677.923 690.285,-679.37"/>
<polygon fill="midnightblue" stroke="midnightblue" points="688.757,-682.528 699.179,-684.434 692.221,-676.445 688.757,-682.528"/>
</g>
<!-- Node30 -->
<g id="node30" class="node"><title>Node30</title>
<g id="a_node30"><a xlink:href="mxm__std_8F90.html#a1919ea16c0a7b4e248e45e983c29d965" target="_top" xlink:title="mxf7">
<polygon fill="white" stroke="black" points="698.5,-646.5 698.5,-665.5 737.5,-665.5 737.5,-646.5 698.5,-646.5"/>
<text text-anchor="middle" x="718" y="-653.5" font-family="Helvetica,sans-Serif" font-size="10.00">mxf7</text>
</a>
</g>
</g>
<!-- Node22&#45;&gt;Node30 -->
<g id="edge32" class="edge"><title>Node22&#45;&gt;Node30</title>
<path fill="none" stroke="midnightblue" d="M622.155,-625.327C641.096,-631.452 668.208,-640.22 688.597,-646.814"/>
<polygon fill="midnightblue" stroke="midnightblue" points="687.693,-650.2 698.284,-649.947 689.847,-643.54 687.693,-650.2"/>
</g>
<!-- Node31 -->
<g id="node31" class="node"><title>Node31</title>
<g id="a_node31"><a xlink:href="mxm__std_8F90.html#afb2e2cde9040ab037e3586b0deef3851" target="_top" xlink:title="mxf12">
<polygon fill="white" stroke="black" points="695.5,-608.5 695.5,-627.5 740.5,-627.5 740.5,-608.5 695.5,-608.5"/>
<text text-anchor="middle" x="718" y="-615.5" font-family="Helvetica,sans-Serif" font-size="10.00">mxf12</text>
</a>
</g>
</g>
<!-- Node22&#45;&gt;Node31 -->
<g id="edge33" class="edge"><title>Node22&#45;&gt;Node31</title>
<path fill="none" stroke="midnightblue" d="M622.155,-618C640.018,-618 665.15,-618 685.055,-618"/>
<polygon fill="midnightblue" stroke="midnightblue" points="685.209,-621.5 695.209,-618 685.209,-614.5 685.209,-621.5"/>
</g>
<!-- Node32 -->
<g id="node32" class="node"><title>Node32</title>
<g id="a_node32"><a xlink:href="mxm__std_8F90.html#a8ab38e8d33e92444b748159b82759c27" target="_top" xlink:title="mxf9">
<polygon fill="white" stroke="black" points="698.5,-570.5 698.5,-589.5 737.5,-589.5 737.5,-570.5 698.5,-570.5"/>
<text text-anchor="middle" x="718" y="-577.5" font-family="Helvetica,sans-Serif" font-size="10.00">mxf9</text>
</a>
</g>
</g>
<!-- Node22&#45;&gt;Node32 -->
<g id="edge34" class="edge"><title>Node22&#45;&gt;Node32</title>
<path fill="none" stroke="midnightblue" d="M622.155,-610.673C641.096,-604.548 668.208,-595.78 688.597,-589.186"/>
<polygon fill="midnightblue" stroke="midnightblue" points="689.847,-592.46 698.284,-586.053 687.693,-585.8 689.847,-592.46"/>
</g>
<!-- Node33 -->
<g id="node33" class="node"><title>Node33</title>
<g id="a_node33"><a xlink:href="mxm__std_8F90.html#a5786b175fcbe28ecafe1d878687c3ccf" target="_top" xlink:title="mxf10">
<polygon fill="white" stroke="black" points="695.5,-532.5 695.5,-551.5 740.5,-551.5 740.5,-532.5 695.5,-532.5"/>
<text text-anchor="middle" x="718" y="-539.5" font-family="Helvetica,sans-Serif" font-size="10.00">mxf10</text>
</a>
</g>
</g>
<!-- Node22&#45;&gt;Node33 -->
<g id="edge35" class="edge"><title>Node22&#45;&gt;Node33</title>
<path fill="none" stroke="midnightblue" d="M622.25,-611.17C630.442,-608.139 639.505,-604.089 647,-599 666.247,-585.932 664.636,-575.282 683,-561 684.778,-559.617 686.669,-558.272 688.614,-556.979"/>
<polygon fill="midnightblue" stroke="midnightblue" points="690.582,-559.879 697.297,-551.683 686.937,-553.903 690.582,-559.879"/>
</g>
<!-- Node34 -->
<g id="node34" class="node"><title>Node34</title>
<g id="a_node34"><a xlink:href="mxm__std_8F90.html#a244c7a41b5b7a22acba71c34552c2774" target="_top" xlink:title="mxf11">
<polygon fill="white" stroke="black" points="695.5,-494.5 695.5,-513.5 740.5,-513.5 740.5,-494.5 695.5,-494.5"/>
<text text-anchor="middle" x="718" y="-501.5" font-family="Helvetica,sans-Serif" font-size="10.00">mxf11</text>
</a>
</g>
</g>
<!-- Node22&#45;&gt;Node34 -->
<g id="edge36" class="edge"><title>Node22&#45;&gt;Node34</title>
<path fill="none" stroke="midnightblue" d="M622.247,-612.716C630.817,-609.814 640.14,-605.448 647,-599 674.233,-573.401 657.474,-550.302 683,-523 684.206,-521.71 685.521,-520.485 686.908,-519.325"/>
<polygon fill="midnightblue" stroke="midnightblue" points="689.208,-521.989 695.416,-513.403 685.209,-516.244 689.208,-521.989"/>
</g>
<!-- Node35 -->
<g id="node35" class="node"><title>Node35</title>
<g id="a_node35"><a xlink:href="mxm__std_8F90.html#a6a048a62b47a5c2327279e158c1689df" target="_top" xlink:title="mxf13">
<polygon fill="white" stroke="black" points="695.5,-456.5 695.5,-475.5 740.5,-475.5 740.5,-456.5 695.5,-456.5"/>
<text text-anchor="middle" x="718" y="-463.5" font-family="Helvetica,sans-Serif" font-size="10.00">mxf13</text>
</a>
</g>
</g>
<!-- Node22&#45;&gt;Node35 -->
<g id="edge37" class="edge"><title>Node22&#45;&gt;Node35</title>
<path fill="none" stroke="midnightblue" d="M622.229,-613.342C631.001,-610.511 640.475,-606.031 647,-599 683.143,-560.054 649.444,-526.196 683,-485 684.249,-483.466 685.657,-482.035 687.17,-480.703"/>
<polygon fill="midnightblue" stroke="midnightblue" points="689.266,-483.507 695.377,-474.852 685.203,-477.808 689.266,-483.507"/>
</g>
<!-- Node36 -->
<g id="node36" class="node"><title>Node36</title>
<g id="a_node36"><a xlink:href="mxm__std_8F90.html#a6e57628b882cb8bcac215e9a5b523eed" target="_top" xlink:title="mxf14">
<polygon fill="white" stroke="black" points="695.5,-418.5 695.5,-437.5 740.5,-437.5 740.5,-418.5 695.5,-418.5"/>
<text text-anchor="middle" x="718" y="-425.5" font-family="Helvetica,sans-Serif" font-size="10.00">mxf14</text>
</a>
</g>
</g>
<!-- Node22&#45;&gt;Node36 -->
<g id="edge38" class="edge"><title>Node22&#45;&gt;Node36</title>
<path fill="none" stroke="midnightblue" d="M622.002,-613.73C630.954,-610.949 640.621,-606.4 647,-599 692.328,-546.416 641.158,-502.398 683,-447 684.192,-445.422 685.556,-443.956 687.036,-442.598"/>
<polygon fill="midnightblue" stroke="midnightblue" points="689.137,-445.398 695.156,-436.679 685.013,-439.741 689.137,-445.398"/>
</g>
<!-- Node37 -->
<g id="node37" class="node"><title>Node37</title>
<g id="a_node37"><a xlink:href="mxm__std_8F90.html#a02e79201be026faf756be00e58334c4f" target="_top" xlink:title="mxf15">
<polygon fill="white" stroke="black" points="695.5,-380.5 695.5,-399.5 740.5,-399.5 740.5,-380.5 695.5,-380.5"/>
<text text-anchor="middle" x="718" y="-387.5" font-family="Helvetica,sans-Serif" font-size="10.00">mxf15</text>
</a>
</g>
</g>
<!-- Node22&#45;&gt;Node37 -->
<g id="edge39" class="edge"><title>Node22&#45;&gt;Node37</title>
<path fill="none" stroke="midnightblue" d="M622.168,-613.869C631.147,-611.111 640.79,-606.543 647,-599 701.627,-532.647 632.766,-478.738 683,-409 684.186,-407.354 685.56,-405.833 687.063,-404.43"/>
<polygon fill="midnightblue" stroke="midnightblue" points="689.354,-407.091 695.369,-398.369 685.228,-401.437 689.354,-407.091"/>
</g>
<!-- Node38 -->
<g id="node38" class="node"><title>Node38</title>
<g id="a_node38"><a xlink:href="mxm__std_8F90.html#a2fbea6eeadc258673ba8ea5708593aee" target="_top" xlink:title="mxf16">
<polygon fill="white" stroke="black" points="695.5,-342.5 695.5,-361.5 740.5,-361.5 740.5,-342.5 695.5,-342.5"/>
<text text-anchor="middle" x="718" y="-349.5" font-family="Helvetica,sans-Serif" font-size="10.00">mxf16</text>
</a>
</g>
</g>
<!-- Node22&#45;&gt;Node38 -->
<g id="edge40" class="edge"><title>Node22&#45;&gt;Node38</title>
<path fill="none" stroke="midnightblue" d="M622.281,-613.961C631.28,-611.219 640.907,-606.637 647,-599 710.983,-518.809 624.323,-455.151 683,-371 684.16,-369.336 685.516,-367.801 687.004,-366.388"/>
<polygon fill="midnightblue" stroke="midnightblue" points="689.294,-369.048 695.273,-360.301 685.145,-363.411 689.294,-369.048"/>
</g>
<!-- Node39 -->
<g id="node39" class="node"><title>Node39</title>
<g id="a_node39"><a xlink:href="mxm__std_8F90.html#a3829af481cd230e6aadef08feab9a278" target="_top" xlink:title="mxf17">
<polygon fill="white" stroke="black" points="695.5,-304.5 695.5,-323.5 740.5,-323.5 740.5,-304.5 695.5,-304.5"/>
<text text-anchor="middle" x="718" y="-311.5" font-family="Helvetica,sans-Serif" font-size="10.00">mxf17</text>
</a>
</g>
</g>
<!-- Node22&#45;&gt;Node39 -->
<g id="edge41" class="edge"><title>Node22&#45;&gt;Node39</title>
<path fill="none" stroke="midnightblue" d="M622.364,-614.026C631.376,-611.295 640.991,-606.704 647,-599 720.371,-504.93 615.849,-431.606 683,-333 684.142,-331.323 685.483,-329.779 686.961,-328.358"/>
<polygon fill="midnightblue" stroke="midnightblue" points="689.251,-331.018 695.203,-322.253 685.084,-325.393 689.251,-331.018"/>
</g>
<!-- Node40 -->
<g id="node40" class="node"><title>Node40</title>
<g id="a_node40"><a xlink:href="mxm__std_8F90.html#a48ed8195cc978a87c005b3306a974894" target="_top" xlink:title="mxf18">
<polygon fill="white" stroke="black" points="695.5,-266.5 695.5,-285.5 740.5,-285.5 740.5,-266.5 695.5,-266.5"/>
<text text-anchor="middle" x="718" y="-273.5" font-family="Helvetica,sans-Serif" font-size="10.00">mxf18</text>
</a>
</g>
</g>
<!-- Node22&#45;&gt;Node40 -->
<g id="edge42" class="edge"><title>Node22&#45;&gt;Node40</title>
<path fill="none" stroke="midnightblue" d="M622.426,-614.075C631.45,-611.352 641.056,-606.754 647,-599 729.78,-491.026 607.356,-408.089 683,-295 684.128,-293.314 685.458,-291.762 686.928,-290.336"/>
<polygon fill="midnightblue" stroke="midnightblue" points="689.217,-292.995 695.15,-284.218 685.038,-287.38 689.217,-292.995"/>
</g>
<!-- Node41 -->
<g id="node41" class="node"><title>Node41</title>
<g id="a_node41"><a xlink:href="mxm__std_8F90.html#a28a9857286e11804e1a97875028ecb09" target="_top" xlink:title="mxf19">
<polygon fill="white" stroke="black" points="695.5,-228.5 695.5,-247.5 740.5,-247.5 740.5,-228.5 695.5,-228.5"/>
<text text-anchor="middle" x="718" y="-235.5" font-family="Helvetica,sans-Serif" font-size="10.00">mxf19</text>
</a>
</g>
</g>
<!-- Node22&#45;&gt;Node41 -->
<g id="edge43" class="edge"><title>Node22&#45;&gt;Node41</title>
<path fill="none" stroke="midnightblue" d="M622.476,-614.112C631.507,-611.396 641.106,-606.792 647,-599 739.202,-477.104 598.852,-384.59 683,-257 684.145,-255.264 685.505,-253.671 687.013,-252.212"/>
<polygon fill="midnightblue" stroke="midnightblue" points="689.488,-254.736 695.461,-245.986 685.335,-249.101 689.488,-254.736"/>
</g>
<!-- Node42 -->
<g id="node42" class="node"><title>Node42</title>
<g id="a_node42"><a xlink:href="mxm__std_8F90.html#af60059bd60847f48acdf6461fefa3b22" target="_top" xlink:title="mxf20">
<polygon fill="white" stroke="black" points="695.5,-190.5 695.5,-209.5 740.5,-209.5 740.5,-190.5 695.5,-190.5"/>
<text text-anchor="middle" x="718" y="-197.5" font-family="Helvetica,sans-Serif" font-size="10.00">mxf20</text>
</a>
</g>
</g>
<!-- Node22&#45;&gt;Node42 -->
<g id="edge44" class="edge"><title>Node22&#45;&gt;Node42</title>
<path fill="none" stroke="midnightblue" d="M622.023,-614.288C631.204,-611.597 641.04,-606.965 647,-599 748.634,-463.169 590.339,-361.103 683,-219 684.136,-217.258 685.489,-215.661 686.992,-214.198"/>
<polygon fill="midnightblue" stroke="midnightblue" points="689.466,-216.722 695.428,-207.964 685.305,-211.092 689.466,-216.722"/>
</g>
<!-- Node43 -->
<g id="node43" class="node"><title>Node43</title>
<g id="a_node43"><a xlink:href="mxm__std_8F90.html#a825db174c5643aef5e4cdf57067ebbbb" target="_top" xlink:title="mxf21">
<polygon fill="white" stroke="black" points="695.5,-152.5 695.5,-171.5 740.5,-171.5 740.5,-152.5 695.5,-152.5"/>
<text text-anchor="middle" x="718" y="-159.5" font-family="Helvetica,sans-Serif" font-size="10.00">mxf21</text>
</a>
</g>
</g>
<!-- Node22&#45;&gt;Node43 -->
<g id="edge45" class="edge"><title>Node22&#45;&gt;Node43</title>
<path fill="none" stroke="midnightblue" d="M622.055,-614.312C631.242,-611.626 641.075,-606.99 647,-599 702.536,-524.113 632.41,-259.313 683,-181 684.128,-179.253 685.476,-177.652 686.974,-176.187"/>
<polygon fill="midnightblue" stroke="midnightblue" points="689.448,-178.71 695.4,-169.946 685.281,-173.085 689.448,-178.71"/>
</g>
<!-- Node44 -->
<g id="node44" class="node"><title>Node44</title>
<g id="a_node44"><a xlink:href="mxm__std_8F90.html#a1f2059cb835b2818aef861f2f59a0a72" target="_top" xlink:title="mxf22">
<polygon fill="white" stroke="black" points="695.5,-1026.5 695.5,-1045.5 740.5,-1045.5 740.5,-1026.5 695.5,-1026.5"/>
<text text-anchor="middle" x="718" y="-1033.5" font-family="Helvetica,sans-Serif" font-size="10.00">mxf22</text>
</a>
</g>
</g>
<!-- Node22&#45;&gt;Node44 -->
<g id="edge46" class="edge"><title>Node22&#45;&gt;Node44</title>
<path fill="none" stroke="midnightblue" d="M601.484,-627.754C613.853,-688.53 679.962,-1012.87 683,-1017 684.201,-1018.63 685.588,-1020.15 687.1,-1021.54"/>
<polygon fill="midnightblue" stroke="midnightblue" points="685.279,-1024.55 695.428,-1027.59 689.391,-1018.88 685.279,-1024.55"/>
</g>
<!-- Node45 -->
<g id="node45" class="node"><title>Node45</title>
<g id="a_node45"><a xlink:href="mxm__std_8F90.html#a3dc6491b8d44b702dbbb13a01f887c59" target="_top" xlink:title="mxf23">
<polygon fill="white" stroke="black" points="695.5,-988.5 695.5,-1007.5 740.5,-1007.5 740.5,-988.5 695.5,-988.5"/>
<text text-anchor="middle" x="718" y="-995.5" font-family="Helvetica,sans-Serif" font-size="10.00">mxf23</text>
</a>
</g>
</g>
<!-- Node22&#45;&gt;Node45 -->
<g id="edge47" class="edge"><title>Node22&#45;&gt;Node45</title>
<path fill="none" stroke="midnightblue" d="M601.489,-627.591C613.089,-683.384 671.868,-964.181 683,-979 684.218,-980.622 685.618,-982.125 687.14,-983.514"/>
<polygon fill="midnightblue" stroke="midnightblue" points="685.335,-986.527 695.493,-989.54 689.431,-980.851 685.335,-986.527"/>
</g>
<!-- Node46 -->
<g id="node46" class="node"><title>Node46</title>
<g id="a_node46"><a xlink:href="mxm__std_8F90.html#af0752c9a61343489900f8d812c6980ed" target="_top" xlink:title="mxf24">
<polygon fill="white" stroke="black" points="695.5,-950.5 695.5,-969.5 740.5,-969.5 740.5,-950.5 695.5,-950.5"/>
<text text-anchor="middle" x="718" y="-957.5" font-family="Helvetica,sans-Serif" font-size="10.00">mxf24</text>
</a>
</g>
</g>
<!-- Node22&#45;&gt;Node46 -->
<g id="edge48" class="edge"><title>Node22&#45;&gt;Node46</title>
<path fill="none" stroke="midnightblue" d="M601.554,-627.809C612.355,-679.074 662.834,-914.86 683,-941 684.208,-942.566 685.584,-944.022 687.074,-945.373"/>
<polygon fill="midnightblue" stroke="midnightblue" points="685.067,-948.241 695.218,-951.274 689.173,-942.572 685.067,-948.241"/>
</g>
<!-- Node47&#45;&gt;Node4 -->
<g id="edge52" class="edge"><title>Node47&#45;&gt;Node4</title>
<path fill="none" stroke="midnightblue" d="M233.132,-24.4973C246.318,-21.8739 263.077,-18.5397 277.197,-15.7304"/>
<polygon fill="midnightblue" stroke="midnightblue" points="278.253,-19.0891 287.378,-13.705 276.887,-12.2236 278.253,-19.0891"/>
</g>
</g>
</svg>
