<?xml version="1.0" encoding="UTF-8" standalone="no"?>
<!DOCTYPE svg PUBLIC "-//W3C//DTD SVG 1.1//EN"
 "http://www.w3.org/Graphics/SVG/1.1/DTD/svg11.dtd">
<!-- Generated by graphviz version 2.38.0 (20140413.2041)
 -->
<!-- Title: jl/fail.h Pages: 1 -->
<!--zoomable 95 -->
<svg id="main" version="1.1" xmlns="http://www.w3.org/2000/svg" xmlns:xlink="http://www.w3.org/1999/xlink" xml:space="preserve" onload="init(evt)">
<style type="text/css"><![CDATA[
.edge:hover path { stroke: red; }
.edge:hover polygon { stroke: red; fill: red; }
]]></style>
<script type="text/javascript"><![CDATA[
var edges = document.getElementsByTagName('g');
if (edges && edges.length) {
  for (var i=0;i<edges.length;i++) {
    if (edges[i].id.substr(0,4)=='edge') {
      edges[i].setAttribute('class','edge');
    }
  }
}
]]></script>
        <defs>
                <circle id="rim" cx="0" cy="0" r="7"/>
                <circle id="rim2" cx="0" cy="0" r="3.5"/>
                <g id="zoomPlus">
                        <use xlink:href="#rim" fill="#404040">
                                <set attributeName="fill" to="#808080" begin="zoomplus.mouseover" end="zoomplus.mouseout"/>
                        </use>
                        <path d="M-4,0h8M0,-4v8" fill="none" stroke="white" stroke-width="1.5" pointer-events="none"/>
                </g>
                <g id="zoomMin">
                        <use xlink:href="#rim" fill="#404040">
                                <set attributeName="fill" to="#808080" begin="zoomminus.mouseover" end="zoomminus.mouseout"/>
                        </use>
                        <path d="M-4,0h8" fill="none" stroke="white" stroke-width="1.5" pointer-events="none"/>
                </g>
                <g id="dirArrow">
                        <path fill="none" stroke="white" stroke-width="1.5" d="M0,-3.0v7 M-2.5,-0.5L0,-3.0L2.5,-0.5"/>
                </g>
               <g id="resetDef">
                       <use xlink:href="#rim2" fill="#404040">
                               <set attributeName="fill" to="#808080" begin="reset.mouseover" end="reset.mouseout"/>
                       </use>
               </g>
        </defs>

<script type="text/javascript">
var viewWidth = 4216;
var viewHeight = 95;
var sectionId = 'dynsection-0';
</script>
<script xlink:href="svgpan.js"/>
<svg id="graph" class="graph">
<g id="viewport">
<title>jl/fail.h</title>
<polygon fill="white" stroke="none" points="-4,4 -4,-91 4212,-91 4212,4 -4,4"/>
<!-- Node1 -->
<g id="node1" class="node"><title>Node1</title>
<polygon fill="#bfbfbf" stroke="black" points="1823.5,-67.5 1823.5,-86.5 1869.5,-86.5 1869.5,-67.5 1823.5,-67.5"/>
<text text-anchor="middle" x="1846.5" y="-74.5" font-family="Helvetica,sans-Serif" font-size="10.00">jl/fail.h</text>
</g>
<!-- Node2 -->
<g id="node2" class="node"><title>Node2</title>
<g id="a_node2"><a xlink:href="comm_8c.html" target="_top" xlink:title="jl/comm.c">
<polygon fill="white" stroke="black" points="0,-6 0,-25 59,-25 59,-6 0,-6"/>
<text text-anchor="middle" x="29.5" y="-13" font-family="Helvetica,sans-Serif" font-size="10.00">jl/comm.c</text>
</a>
</g>
</g>
<!-- Node1&#45;&gt;Node2 -->
<g id="edge1" class="edge"><title>Node1&#45;&gt;Node2</title>
<path fill="none" stroke="midnightblue" d="M1813.4,-75.819C1584.92,-74.4834 245.89,-65.2317 68.5,-31 61.8328,-29.7134 54.8035,-27.4167 48.5771,-25.0251"/>
<polygon fill="midnightblue" stroke="midnightblue" points="1813.41,-79.3191 1823.43,-75.8767 1813.45,-72.3192 1813.41,-79.3191"/>
</g>
<!-- Node3 -->
<g id="node3" class="node"><title>Node3</title>
<g id="a_node3"><a xlink:href="crystal_8c.html" target="_top" xlink:title="jl/crystal.c">
<polygon fill="white" stroke="black" points="77.5,-6 77.5,-25 139.5,-25 139.5,-6 77.5,-6"/>
<text text-anchor="middle" x="108.5" y="-13" font-family="Helvetica,sans-Serif" font-size="10.00">jl/crystal.c</text>
</a>
</g>
</g>
<!-- Node1&#45;&gt;Node3 -->
<g id="edge2" class="edge"><title>Node1&#45;&gt;Node3</title>
<path fill="none" stroke="midnightblue" d="M1813.17,-75.7589C1590.08,-74.0601 317.587,-63.016 148.5,-31 141.678,-29.7082 134.473,-27.4101 128.085,-25.0189"/>
<polygon fill="midnightblue" stroke="midnightblue" points="1813.25,-79.2595 1823.27,-75.8348 1813.3,-72.2597 1813.25,-79.2595"/>
</g>
<!-- Node4 -->
<g id="node4" class="node"><title>Node4</title>
<g id="a_node4"><a xlink:href="findpts__local__ext_8c.html" target="_top" xlink:title="jl/ext/findpts_local\l_ext.c">
<polygon fill="white" stroke="black" points="158,-0.5 158,-30.5 259,-30.5 259,-0.5 158,-0.5"/>
<text text-anchor="start" x="166" y="-18.5" font-family="Helvetica,sans-Serif" font-size="10.00">jl/ext/findpts_local</text>
<text text-anchor="middle" x="208.5" y="-7.5" font-family="Helvetica,sans-Serif" font-size="10.00">_ext.c</text>
</a>
</g>
</g>
<!-- Node1&#45;&gt;Node4 -->
<g id="edge3" class="edge"><title>Node1&#45;&gt;Node4</title>
<path fill="none" stroke="midnightblue" d="M1813.25,-76.0137C1614.46,-75.9506 581.38,-73.5497 267.5,-31 264.782,-30.6316 262.008,-30.1885 259.217,-29.6896"/>
<polygon fill="midnightblue" stroke="midnightblue" points="1813.36,-79.5136 1823.36,-76.0151 1813.36,-72.5136 1813.36,-79.5136"/>
</g>
<!-- Node5 -->
<g id="node5" class="node"><title>Node5</title>
<g id="a_node5"><a xlink:href="fail_8c.html" target="_top" xlink:title="jl/fail.c">
<polygon fill="white" stroke="black" points="277,-6 277,-25 322,-25 322,-6 277,-6"/>
<text text-anchor="middle" x="299.5" y="-13" font-family="Helvetica,sans-Serif" font-size="10.00">jl/fail.c</text>
</a>
</g>
</g>
<!-- Node1&#45;&gt;Node5 -->
<g id="edge4" class="edge"><title>Node1&#45;&gt;Node5</title>
<path fill="none" stroke="midnightblue" d="M1813.19,-75.8212C1604.3,-74.5926 479.13,-66.3643 330.5,-31 325.067,-29.7072 319.444,-27.4088 314.503,-25.0176"/>
<polygon fill="midnightblue" stroke="midnightblue" points="1813.22,-79.3213 1823.24,-75.879 1813.26,-72.3214 1813.22,-79.3213"/>
</g>
<!-- Node6 -->
<g id="node6" class="node"><title>Node6</title>
<g id="a_node6"><a xlink:href="fcrs_8c.html" target="_top" xlink:title="jl/fcrs.c">
<polygon fill="white" stroke="black" points="340,-6 340,-25 389,-25 389,-6 340,-6"/>
<text text-anchor="middle" x="364.5" y="-13" font-family="Helvetica,sans-Serif" font-size="10.00">jl/fcrs.c</text>
</a>
</g>
</g>
<!-- Node1&#45;&gt;Node6 -->
<g id="edge5" class="edge"><title>Node1&#45;&gt;Node6</title>
<path fill="none" stroke="midnightblue" d="M1813.41,-75.7281C1610.6,-73.9618 539.636,-63.1609 397.5,-31 391.763,-29.7018 385.789,-27.402 380.527,-25.0112"/>
<polygon fill="midnightblue" stroke="midnightblue" points="1813.42,-79.2283 1823.45,-75.8143 1813.48,-72.2285 1813.42,-79.2283"/>
</g>
<!-- Node7 -->
<g id="node7" class="node"><title>Node7</title>
<g id="a_node7"><a xlink:href="fcrystal_8c.html" target="_top" xlink:title="jl/fcrystal.c">
<polygon fill="white" stroke="black" points="407,-6 407,-25 472,-25 472,-6 407,-6"/>
<text text-anchor="middle" x="439.5" y="-13" font-family="Helvetica,sans-Serif" font-size="10.00">jl/fcrystal.c</text>
</a>
</g>
</g>
<!-- Node1&#45;&gt;Node7 -->
<g id="edge6" class="edge"><title>Node1&#45;&gt;Node7</title>
<path fill="none" stroke="midnightblue" d="M1813.18,-76.2833C1630.35,-77.6287 747.552,-81.3716 480.5,-31 473.674,-29.7125 466.459,-27.4777 460.017,-25.1428"/>
<polygon fill="midnightblue" stroke="midnightblue" points="1813.29,-79.7827 1823.26,-76.2062 1813.23,-72.7829 1813.29,-79.7827"/>
</g>
<!-- Node8 -->
<g id="node8" class="node"><title>Node8</title>
<g id="a_node8"><a xlink:href="findpts_8c.html" target="_top" xlink:title="jl/findpts.c">
<polygon fill="white" stroke="black" points="490,-6 490,-25 553,-25 553,-6 490,-6"/>
<text text-anchor="middle" x="521.5" y="-13" font-family="Helvetica,sans-Serif" font-size="10.00">jl/findpts.c</text>
</a>
</g>
</g>
<!-- Node1&#45;&gt;Node8 -->
<g id="edge7" class="edge"><title>Node1&#45;&gt;Node8</title>
<path fill="none" stroke="midnightblue" d="M1813.23,-76.237C1637.03,-77.2794 811.575,-79.454 561.5,-31 554.828,-29.7073 547.786,-27.4711 541.501,-25.1364"/>
<polygon fill="midnightblue" stroke="midnightblue" points="1813.45,-79.7358 1823.43,-76.1735 1813.41,-72.7359 1813.45,-79.7358"/>
</g>
<!-- Node9 -->
<g id="node9" class="node"><title>Node9</title>
<g id="a_node9"><a xlink:href="findpts__el__2_8c.html" target="_top" xlink:title="jl/findpts_el_2.c">
<polygon fill="white" stroke="black" points="571,-6 571,-25 660,-25 660,-6 571,-6"/>
<text text-anchor="middle" x="615.5" y="-13" font-family="Helvetica,sans-Serif" font-size="10.00">jl/findpts_el_2.c</text>
</a>
</g>
</g>
<!-- Node1&#45;&gt;Node9 -->
<g id="edge8" class="edge"><title>Node1&#45;&gt;Node9</title>
<path fill="none" stroke="midnightblue" d="M1812.91,-75.7538C1645.23,-74.3667 897.861,-66.2785 668.5,-31 659.731,-29.6513 650.339,-27.3689 641.934,-25.0092"/>
<polygon fill="midnightblue" stroke="midnightblue" points="1813.07,-79.2551 1823.1,-75.8357 1813.13,-72.2553 1813.07,-79.2551"/>
</g>
<!-- Node10 -->
<g id="node10" class="node"><title>Node10</title>
<g id="a_node10"><a xlink:href="findpts__el__3_8c.html" target="_top" xlink:title="jl/findpts_el_3.c">
<polygon fill="white" stroke="black" points="678,-6 678,-25 767,-25 767,-6 678,-6"/>
<text text-anchor="middle" x="722.5" y="-13" font-family="Helvetica,sans-Serif" font-size="10.00">jl/findpts_el_3.c</text>
</a>
</g>
</g>
<!-- Node1&#45;&gt;Node10 -->
<g id="edge9" class="edge"><title>Node1&#45;&gt;Node10</title>
<path fill="none" stroke="midnightblue" d="M1813.48,-75.6129C1656.31,-73.6173 982.891,-63.3038 775.5,-31 766.828,-29.6493 757.544,-27.3967 749.208,-25.0649"/>
<polygon fill="midnightblue" stroke="midnightblue" points="1813.45,-79.1126 1823.49,-75.7375 1813.53,-72.1132 1813.45,-79.1126"/>
</g>
<!-- Node11 -->
<g id="node11" class="node"><title>Node11</title>
<g id="a_node11"><a xlink:href="findpts__local_8c.html" target="_top" xlink:title="jl/findpts_local.c">
<polygon fill="white" stroke="black" points="785,-6 785,-25 876,-25 876,-6 785,-6"/>
<text text-anchor="middle" x="830.5" y="-13" font-family="Helvetica,sans-Serif" font-size="10.00">jl/findpts_local.c</text>
</a>
</g>
</g>
<!-- Node1&#45;&gt;Node11 -->
<g id="edge10" class="edge"><title>Node1&#45;&gt;Node11</title>
<path fill="none" stroke="midnightblue" d="M1813.15,-75.4046C1665.44,-72.6192 1069.24,-59.7789 884.5,-31 875.676,-29.6254 866.22,-27.3661 857.726,-25.0355"/>
<polygon fill="midnightblue" stroke="midnightblue" points="1813.32,-78.9083 1823.39,-75.5949 1813.45,-71.9095 1813.32,-78.9083"/>
</g>
<!-- Node12 -->
<g id="node12" class="node"><title>Node12</title>
<g id="a_node12"><a xlink:href="gs_8c.html" target="_top" xlink:title="jl/gs.c">
<polygon fill="white" stroke="black" points="894,-6 894,-25 937,-25 937,-6 894,-6"/>
<text text-anchor="middle" x="915.5" y="-13" font-family="Helvetica,sans-Serif" font-size="10.00">jl/gs.c</text>
</a>
</g>
</g>
<!-- Node1&#45;&gt;Node12 -->
<g id="edge11" class="edge"><title>Node1&#45;&gt;Node12</title>
<path fill="none" stroke="midnightblue" d="M1812.89,-76.0476C1670.34,-75.9847 1115.37,-72.9934 946.5,-31 941.195,-29.6808 935.7,-27.4371 930.835,-25.1038"/>
<polygon fill="midnightblue" stroke="midnightblue" points="1813.17,-79.5477 1823.17,-76.0472 1813.17,-72.5477 1813.17,-79.5477"/>
</g>
<!-- Node13 -->
<g id="node13" class="node"><title>Node13</title>
<g id="a_node13"><a xlink:href="lob__bnd_8c.html" target="_top" xlink:title="jl/lob_bnd.c">
<polygon fill="white" stroke="black" points="955.5,-6 955.5,-25 1023.5,-25 1023.5,-6 955.5,-6"/>
<text text-anchor="middle" x="989.5" y="-13" font-family="Helvetica,sans-Serif" font-size="10.00">jl/lob_bnd.c</text>
</a>
</g>
</g>
<!-- Node1&#45;&gt;Node13 -->
<g id="edge12" class="edge"><title>Node1&#45;&gt;Node13</title>
<path fill="none" stroke="midnightblue" d="M1813.21,-75.3563C1680.11,-72.5977 1185.92,-60.5417 1032.5,-31 1025.38,-29.6295 1017.83,-27.3714 1011.07,-25.0406"/>
<polygon fill="midnightblue" stroke="midnightblue" points="1813.15,-78.8557 1823.22,-75.5602 1813.29,-71.8571 1813.15,-78.8557"/>
</g>
<!-- Node14 -->
<g id="node14" class="node"><title>Node14</title>
<g id="a_node14"><a xlink:href="obbox_8c.html" target="_top" xlink:title="jl/obbox.c">
<polygon fill="white" stroke="black" points="1042,-6 1042,-25 1101,-25 1101,-6 1042,-6"/>
<text text-anchor="middle" x="1071.5" y="-13" font-family="Helvetica,sans-Serif" font-size="10.00">jl/obbox.c</text>
</a>
</g>
</g>
<!-- Node1&#45;&gt;Node14 -->
<g id="edge13" class="edge"><title>Node1&#45;&gt;Node14</title>
<path fill="none" stroke="midnightblue" d="M1813.14,-75.3041C1688,-72.4857 1246.62,-60.6216 1109.5,-31 1103.15,-29.6283 1096.46,-27.3698 1090.49,-25.0391"/>
<polygon fill="midnightblue" stroke="midnightblue" points="1813.19,-78.8059 1823.26,-75.5277 1813.34,-71.8076 1813.19,-78.8059"/>
</g>
<!-- Node15 -->
<g id="node15" class="node"><title>Node15</title>
<g id="a_node15"><a xlink:href="poly_8c.html" target="_top" xlink:title="jl/poly.c">
<polygon fill="white" stroke="black" points="1119,-6 1119,-25 1170,-25 1170,-6 1119,-6"/>
<text text-anchor="middle" x="1144.5" y="-13" font-family="Helvetica,sans-Serif" font-size="10.00">jl/poly.c</text>
</a>
</g>
</g>
<!-- Node1&#45;&gt;Node15 -->
<g id="edge14" class="edge"><title>Node1&#45;&gt;Node15</title>
<path fill="none" stroke="midnightblue" d="M1813.27,-75.1834C1696.03,-72.0802 1302.1,-59.7131 1179.5,-31 1173.61,-29.6201 1167.43,-27.3594 1161.93,-25.0291"/>
<polygon fill="midnightblue" stroke="midnightblue" points="1813.34,-78.6863 1823.43,-75.4472 1813.52,-71.6886 1813.34,-78.6863"/>
</g>
<!-- Node16 -->
<g id="node16" class="node"><title>Node16</title>
<g id="a_node16"><a xlink:href="sarray__sort_8c.html" target="_top" xlink:title="jl/sarray_sort.c">
<polygon fill="white" stroke="black" points="1188.5,-6 1188.5,-25 1274.5,-25 1274.5,-6 1188.5,-6"/>
<text text-anchor="middle" x="1231.5" y="-13" font-family="Helvetica,sans-Serif" font-size="10.00">jl/sarray_sort.c</text>
</a>
</g>
</g>
<!-- Node1&#45;&gt;Node16 -->
<g id="edge15" class="edge"><title>Node1&#45;&gt;Node16</title>
<path fill="none" stroke="midnightblue" d="M1813.11,-75.5627C1725.53,-73.9356 1482.29,-66.3223 1283.5,-31 1275.2,-29.5244 1266.3,-27.2941 1258.26,-25.0223"/>
<polygon fill="midnightblue" stroke="midnightblue" points="1813.18,-79.0643 1823.24,-75.7366 1813.3,-72.0654 1813.18,-79.0643"/>
</g>
<!-- Node17 -->
<g id="node17" class="node"><title>Node17</title>
<g id="a_node17"><a xlink:href="sarray__transfer_8c.html" target="_top" xlink:title="jl/sarray_transfer.c">
<polygon fill="white" stroke="black" points="1292.5,-6 1292.5,-25 1396.5,-25 1396.5,-6 1292.5,-6"/>
<text text-anchor="middle" x="1344.5" y="-13" font-family="Helvetica,sans-Serif" font-size="10.00">jl/sarray_transfer.c</text>
</a>
</g>
</g>
<!-- Node1&#45;&gt;Node17 -->
<g id="edge16" class="edge"><title>Node1&#45;&gt;Node17</title>
<path fill="none" stroke="midnightblue" d="M1813.33,-74.1127C1739.6,-69.5907 1556.66,-56.5637 1405.5,-31 1396.16,-29.4208 1386.13,-27.2404 1376.94,-25.0496"/>
<polygon fill="midnightblue" stroke="midnightblue" points="1813.21,-77.6116 1823.4,-74.7187 1813.63,-70.6242 1813.21,-77.6116"/>
</g>
<!-- Node18 -->
<g id="node18" class="node"><title>Node18</title>
<g id="a_node18"><a xlink:href="sort_8c.html" target="_top" xlink:title="jl/sort.c">
<polygon fill="white" stroke="black" points="1414.5,-6 1414.5,-25 1464.5,-25 1464.5,-6 1414.5,-6"/>
<text text-anchor="middle" x="1439.5" y="-13" font-family="Helvetica,sans-Serif" font-size="10.00">jl/sort.c</text>
</a>
</g>
</g>
<!-- Node1&#45;&gt;Node18 -->
<g id="edge17" class="edge"><title>Node1&#45;&gt;Node18</title>
<path fill="none" stroke="midnightblue" d="M1813.16,-75.1256C1747.21,-72.7113 1595.85,-63.7571 1473.5,-31 1468.05,-29.5396 1462.32,-27.3698 1457.16,-25.1509"/>
<polygon fill="midnightblue" stroke="midnightblue" points="1813.25,-78.6306 1823.37,-75.471 1813.49,-71.6346 1813.25,-78.6306"/>
</g>
<!-- Node19 -->
<g id="node19" class="node"><title>Node19</title>
<g id="a_node19"><a xlink:href="sparse__cholesky_8c.html" target="_top" xlink:title="jl/sparse_cholesky.c">
<polygon fill="white" stroke="black" points="1483,-6 1483,-25 1594,-25 1594,-6 1483,-6"/>
<text text-anchor="middle" x="1538.5" y="-13" font-family="Helvetica,sans-Serif" font-size="10.00">jl/sparse_cholesky.c</text>
</a>
</g>
</g>
<!-- Node1&#45;&gt;Node19 -->
<g id="edge18" class="edge"><title>Node1&#45;&gt;Node19</title>
<path fill="none" stroke="midnightblue" d="M1813.44,-70.2705C1766.61,-62.0668 1678.34,-46.2726 1603.5,-31 1594.44,-29.1506 1584.69,-27.0411 1575.57,-25.0146"/>
<polygon fill="midnightblue" stroke="midnightblue" points="1812.87,-73.7249 1823.33,-71.9981 1814.08,-66.8293 1812.87,-73.7249"/>
</g>
<!-- Node20 -->
<g id="node20" class="node"><title>Node20</title>
<g id="a_node20"><a xlink:href="comm__test_8c.html" target="_top" xlink:title="jl/tests/comm_test.c">
<polygon fill="white" stroke="black" points="1612.5,-6 1612.5,-25 1720.5,-25 1720.5,-6 1612.5,-6"/>
<text text-anchor="middle" x="1666.5" y="-13" font-family="Helvetica,sans-Serif" font-size="10.00">jl/tests/comm_test.c</text>
</a>
</g>
</g>
<!-- Node1&#45;&gt;Node20 -->
<g id="edge19" class="edge"><title>Node1&#45;&gt;Node20</title>
<path fill="none" stroke="midnightblue" d="M1813.63,-65.1337C1778.78,-53.6153 1724.46,-35.6591 1692.49,-25.0898"/>
<polygon fill="midnightblue" stroke="midnightblue" points="1812.74,-68.5278 1823.34,-68.3432 1814.94,-61.8815 1812.74,-68.5278"/>
</g>
<!-- Node21 -->
<g id="node21" class="node"><title>Node21</title>
<g id="a_node21"><a xlink:href="crs__test_8c.html" target="_top" xlink:title="jl/tests/crs_test.c">
<polygon fill="white" stroke="black" points="1739,-6 1739,-25 1834,-25 1834,-6 1739,-6"/>
<text text-anchor="middle" x="1786.5" y="-13" font-family="Helvetica,sans-Serif" font-size="10.00">jl/tests/crs_test.c</text>
</a>
</g>
</g>
<!-- Node1&#45;&gt;Node21 -->
<g id="edge20" class="edge"><title>Node1&#45;&gt;Node21</title>
<path fill="none" stroke="midnightblue" d="M1830.69,-60.3245C1819.29,-49.0202 1804.34,-34.1928 1795.08,-25.0091"/>
<polygon fill="midnightblue" stroke="midnightblue" points="1828.34,-62.9189 1837.9,-67.4751 1833.27,-57.9484 1828.34,-62.9189"/>
</g>
<!-- Node22 -->
<g id="node22" class="node"><title>Node22</title>
<g id="a_node22"><a xlink:href="crystal__test_8c.html" target="_top" xlink:title="jl/tests/crystal_test.c">
<polygon fill="white" stroke="black" points="1852,-6 1852,-25 1963,-25 1963,-6 1852,-6"/>
<text text-anchor="middle" x="1907.5" y="-13" font-family="Helvetica,sans-Serif" font-size="10.00">jl/tests/crystal_test.c</text>
</a>
</g>
</g>
<!-- Node1&#45;&gt;Node22 -->
<g id="edge21" class="edge"><title>Node1&#45;&gt;Node22</title>
<path fill="none" stroke="midnightblue" d="M1862.57,-60.3245C1874.16,-49.0202 1889.36,-34.1928 1898.78,-25.0091"/>
<polygon fill="midnightblue" stroke="midnightblue" points="1859.95,-57.9871 1855.24,-67.4751 1864.84,-62.9981 1859.95,-57.9871"/>
</g>
<!-- Node23 -->
<g id="node23" class="node"><title>Node23</title>
<g id="a_node23"><a xlink:href="findpts__el__2__test_8c.html" target="_top" xlink:title="jl/tests/findpts_el\l_2_test.c">
<polygon fill="white" stroke="black" points="1981,-0.5 1981,-30.5 2076,-30.5 2076,-0.5 1981,-0.5"/>
<text text-anchor="start" x="1989" y="-18.5" font-family="Helvetica,sans-Serif" font-size="10.00">jl/tests/findpts_el</text>
<text text-anchor="middle" x="2028.5" y="-7.5" font-family="Helvetica,sans-Serif" font-size="10.00">_2_test.c</text>
</a>
</g>
</g>
<!-- Node1&#45;&gt;Node23 -->
<g id="edge22" class="edge"><title>Node1&#45;&gt;Node23</title>
<path fill="none" stroke="midnightblue" d="M1879.43,-65.2355C1909.14,-55.5216 1953.04,-41.1693 1985.51,-30.5536"/>
<polygon fill="midnightblue" stroke="midnightblue" points="1877.97,-62.0301 1869.55,-68.4643 1880.14,-68.6836 1877.97,-62.0301"/>
</g>
<!-- Node24 -->
<g id="node24" class="node"><title>Node24</title>
<g id="a_node24"><a xlink:href="findpts__el__2__test2_8c.html" target="_top" xlink:title="jl/tests/findpts_el\l_2_test2.c">
<polygon fill="white" stroke="black" points="2094,-0.5 2094,-30.5 2189,-30.5 2189,-0.5 2094,-0.5"/>
<text text-anchor="start" x="2102" y="-18.5" font-family="Helvetica,sans-Serif" font-size="10.00">jl/tests/findpts_el</text>
<text text-anchor="middle" x="2141.5" y="-7.5" font-family="Helvetica,sans-Serif" font-size="10.00">_2_test2.c</text>
</a>
</g>
</g>
<!-- Node1&#45;&gt;Node24 -->
<g id="edge23" class="edge"><title>Node1&#45;&gt;Node24</title>
<path fill="none" stroke="midnightblue" d="M1879.74,-70.4689C1926.04,-62.5997 2012.48,-47.3078 2085.5,-31 2088.24,-30.3871 2091.06,-29.7348 2093.89,-29.059"/>
<polygon fill="midnightblue" stroke="midnightblue" points="1878.95,-67.0521 1869.68,-72.1697 1880.12,-73.9542 1878.95,-67.0521"/>
</g>
<!-- Node25 -->
<g id="node25" class="node"><title>Node25</title>
<g id="a_node25"><a xlink:href="findpts__el__3__test_8c.html" target="_top" xlink:title="jl/tests/findpts_el\l_3_test.c">
<polygon fill="white" stroke="black" points="2207,-0.5 2207,-30.5 2302,-30.5 2302,-0.5 2207,-0.5"/>
<text text-anchor="start" x="2215" y="-18.5" font-family="Helvetica,sans-Serif" font-size="10.00">jl/tests/findpts_el</text>
<text text-anchor="middle" x="2254.5" y="-7.5" font-family="Helvetica,sans-Serif" font-size="10.00">_3_test.c</text>
</a>
</g>
</g>
<!-- Node1&#45;&gt;Node25 -->
<g id="edge24" class="edge"><title>Node1&#45;&gt;Node25</title>
<path fill="none" stroke="midnightblue" d="M1879.82,-73.1541C1942.57,-67.4824 2082.41,-53.3579 2198.5,-31 2201.26,-30.4682 2204.09,-29.8793 2206.93,-29.2521"/>
<polygon fill="midnightblue" stroke="midnightblue" points="1879.37,-69.6799 1869.72,-74.0535 1879.99,-76.6523 1879.37,-69.6799"/>
</g>
<!-- Node26 -->
<g id="node26" class="node"><title>Node26</title>
<g id="a_node26"><a xlink:href="findpts__el__3__test2_8c.html" target="_top" xlink:title="jl/tests/findpts_el\l_3_test2.c">
<polygon fill="white" stroke="black" points="2320,-0.5 2320,-30.5 2415,-30.5 2415,-0.5 2320,-0.5"/>
<text text-anchor="start" x="2328" y="-18.5" font-family="Helvetica,sans-Serif" font-size="10.00">jl/tests/findpts_el</text>
<text text-anchor="middle" x="2367.5" y="-7.5" font-family="Helvetica,sans-Serif" font-size="10.00">_3_test2.c</text>
</a>
</g>
</g>
<!-- Node1&#45;&gt;Node26 -->
<g id="edge25" class="edge"><title>Node1&#45;&gt;Node26</title>
<path fill="none" stroke="midnightblue" d="M1879.93,-74.566C1956.7,-70.8818 2151.31,-59.3095 2311.5,-31 2314.27,-30.5106 2317.1,-29.9549 2319.95,-29.353"/>
<polygon fill="midnightblue" stroke="midnightblue" points="1879.73,-71.0718 1869.9,-75.0344 1880.05,-78.0642 1879.73,-71.0718"/>
</g>
<!-- Node27 -->
<g id="node27" class="node"><title>Node27</title>
<g id="a_node27"><a xlink:href="findpts__local__test_8c.html" target="_top" xlink:title="jl/tests/findpts_local\l_test.c">
<polygon fill="white" stroke="black" points="2433,-0.5 2433,-30.5 2542,-30.5 2542,-0.5 2433,-0.5"/>
<text text-anchor="start" x="2441" y="-18.5" font-family="Helvetica,sans-Serif" font-size="10.00">jl/tests/findpts_local</text>
<text text-anchor="middle" x="2487.5" y="-7.5" font-family="Helvetica,sans-Serif" font-size="10.00">_test.c</text>
</a>
</g>
</g>
<!-- Node1&#45;&gt;Node27 -->
<g id="edge26" class="edge"><title>Node1&#45;&gt;Node27</title>
<path fill="none" stroke="midnightblue" d="M1879.8,-75.1362C1968.72,-72.457 2218.95,-62.4777 2424.5,-31 2427.27,-30.5753 2430.11,-30.0952 2432.96,-29.5747"/>
<polygon fill="midnightblue" stroke="midnightblue" points="1879.66,-71.6385 1869.77,-75.4276 1879.87,-78.6356 1879.66,-71.6385"/>
</g>
<!-- Node28 -->
<g id="node28" class="node"><title>Node28</title>
<g id="a_node28"><a xlink:href="findpts__test_8c.html" target="_top" xlink:title="jl/tests/findpts_test.c">
<polygon fill="white" stroke="black" points="2560.5,-6 2560.5,-25 2672.5,-25 2672.5,-6 2560.5,-6"/>
<text text-anchor="middle" x="2616.5" y="-13" font-family="Helvetica,sans-Serif" font-size="10.00">jl/tests/findpts_test.c</text>
</a>
</g>
</g>
<!-- Node1&#45;&gt;Node28 -->
<g id="edge27" class="edge"><title>Node1&#45;&gt;Node28</title>
<path fill="none" stroke="midnightblue" d="M1880.01,-75.7087C1981.61,-74.4303 2294.94,-67.5765 2551.5,-31 2561.8,-29.5313 2572.89,-27.3031 2582.95,-25.031"/>
<polygon fill="midnightblue" stroke="midnightblue" points="1879.72,-72.2117 1869.76,-75.8274 1879.8,-79.2112 1879.72,-72.2117"/>
</g>
<!-- Node29 -->
<g id="node29" class="node"><title>Node29</title>
<g id="a_node29"><a xlink:href="gs__test_8c.html" target="_top" xlink:title="jl/tests/gs_test.c">
<polygon fill="white" stroke="black" points="2690.5,-6 2690.5,-25 2782.5,-25 2782.5,-6 2690.5,-6"/>
<text text-anchor="middle" x="2736.5" y="-13" font-family="Helvetica,sans-Serif" font-size="10.00">jl/tests/gs_test.c</text>
</a>
</g>
</g>
<!-- Node1&#45;&gt;Node29 -->
<g id="edge28" class="edge"><title>Node1&#45;&gt;Node29</title>
<path fill="none" stroke="midnightblue" d="M1879.7,-75.1156C2014.69,-71.3793 2522.84,-55.9223 2681.5,-31 2690.38,-29.6056 2699.89,-27.3703 2708.47,-25.0682"/>
<polygon fill="midnightblue" stroke="midnightblue" points="1879.46,-71.6206 1869.56,-75.3933 1879.65,-78.6179 1879.46,-71.6206"/>
</g>
<!-- Node30 -->
<g id="node30" class="node"><title>Node30</title>
<g id="a_node30"><a xlink:href="gs__unique__test_8c.html" target="_top" xlink:title="jl/tests/gs_unique\l_test.c">
<polygon fill="white" stroke="black" points="2800.5,-0.5 2800.5,-30.5 2898.5,-30.5 2898.5,-0.5 2800.5,-0.5"/>
<text text-anchor="start" x="2808.5" y="-18.5" font-family="Helvetica,sans-Serif" font-size="10.00">jl/tests/gs_unique</text>
<text text-anchor="middle" x="2849.5" y="-7.5" font-family="Helvetica,sans-Serif" font-size="10.00">_test.c</text>
</a>
</g>
</g>
<!-- Node1&#45;&gt;Node30 -->
<g id="edge29" class="edge"><title>Node1&#45;&gt;Node30</title>
<path fill="none" stroke="midnightblue" d="M1879.72,-75.298C2025.58,-72.0808 2609.99,-57.743 2791.5,-31 2794.38,-30.5764 2797.32,-30.072 2800.27,-29.5095"/>
<polygon fill="midnightblue" stroke="midnightblue" points="1879.53,-71.8013 1869.61,-75.5187 1879.68,-78.7996 1879.53,-71.8013"/>
</g>
<!-- Node31 -->
<g id="node31" class="node"><title>Node31</title>
<g id="a_node31"><a xlink:href="lob__bnd__test_8c.html" target="_top" xlink:title="jl/tests/lob_bnd_test.c">
<polygon fill="white" stroke="black" points="2917,-6 2917,-25 3034,-25 3034,-6 2917,-6"/>
<text text-anchor="middle" x="2975.5" y="-13" font-family="Helvetica,sans-Serif" font-size="10.00">jl/tests/lob_bnd_test.c</text>
</a>
</g>
</g>
<!-- Node1&#45;&gt;Node31 -->
<g id="edge30" class="edge"><title>Node1&#45;&gt;Node31</title>
<path fill="none" stroke="midnightblue" d="M1880.15,-75.3332C2037.49,-72.0989 2701.65,-57.1253 2907.5,-31 2918.52,-29.6018 2930.4,-27.3359 2941.1,-25.0065"/>
<polygon fill="midnightblue" stroke="midnightblue" points="1879.64,-71.8428 1869.71,-75.5458 1879.78,-78.8414 1879.64,-71.8428"/>
</g>
<!-- Node32 -->
<g id="node32" class="node"><title>Node32</title>
<g id="a_node32"><a xlink:href="obbox__test_8c.html" target="_top" xlink:title="jl/tests/obbox_test.c">
<polygon fill="white" stroke="black" points="3052.5,-6 3052.5,-25 3160.5,-25 3160.5,-6 3052.5,-6"/>
<text text-anchor="middle" x="3106.5" y="-13" font-family="Helvetica,sans-Serif" font-size="10.00">jl/tests/obbox_test.c</text>
</a>
</g>
</g>
<!-- Node1&#45;&gt;Node32 -->
<g id="edge31" class="edge"><title>Node1&#45;&gt;Node32</title>
<path fill="none" stroke="midnightblue" d="M1879.81,-75.5972C2048.46,-73.428 2809.38,-62.0598 3043.5,-31 3053.74,-29.642 3064.75,-27.3874 3074.66,-25.056"/>
<polygon fill="midnightblue" stroke="midnightblue" points="1879.74,-72.0977 1869.78,-75.7242 1879.83,-79.0971 1879.74,-72.0977"/>
</g>
<!-- Node33 -->
<g id="node33" class="node"><title>Node33</title>
<g id="a_node33"><a xlink:href="poly__test2_8c.html" target="_top" xlink:title="jl/tests/poly_test2.c">
<polygon fill="white" stroke="black" points="3178.5,-6 3178.5,-25 3284.5,-25 3284.5,-6 3178.5,-6"/>
<text text-anchor="middle" x="3231.5" y="-13" font-family="Helvetica,sans-Serif" font-size="10.00">jl/tests/poly_test2.c</text>
</a>
</g>
</g>
<!-- Node1&#45;&gt;Node33 -->
<g id="edge32" class="edge"><title>Node1&#45;&gt;Node33</title>
<path fill="none" stroke="midnightblue" d="M1879.82,-75.7505C2058.95,-74.275 2909.12,-65.5373 3169.5,-31 3179.69,-29.6482 3190.66,-27.365 3200.5,-25.0054"/>
<polygon fill="midnightblue" stroke="midnightblue" points="1879.66,-72.2515 1869.69,-75.832 1879.72,-79.2513 1879.66,-72.2515"/>
</g>
<!-- Node34 -->
<g id="node34" class="node"><title>Node34</title>
<g id="a_node34"><a xlink:href="sarray__sort__test_8c.html" target="_top" xlink:title="jl/tests/sarray_sort\l_test.c">
<polygon fill="white" stroke="black" points="3302.5,-0.5 3302.5,-30.5 3406.5,-30.5 3406.5,-0.5 3302.5,-0.5"/>
<text text-anchor="start" x="3310.5" y="-18.5" font-family="Helvetica,sans-Serif" font-size="10.00">jl/tests/sarray_sort</text>
<text text-anchor="middle" x="3354.5" y="-7.5" font-family="Helvetica,sans-Serif" font-size="10.00">_test.c</text>
</a>
</g>
</g>
<!-- Node1&#45;&gt;Node34 -->
<g id="edge33" class="edge"><title>Node1&#45;&gt;Node34</title>
<path fill="none" stroke="midnightblue" d="M1879.9,-75.8788C2069.02,-75.0534 3007.25,-69.0736 3293.5,-31 3296.41,-30.6125 3299.39,-30.1454 3302.39,-29.6199"/>
<polygon fill="midnightblue" stroke="midnightblue" points="1879.73,-72.3794 1869.74,-75.9212 1879.76,-79.3793 1879.73,-72.3794"/>
</g>
<!-- Node35 -->
<g id="node35" class="node"><title>Node35</title>
<g id="a_node35"><a xlink:href="sarray__transfer__test_8c.html" target="_top" xlink:title="jl/tests/sarray_transfer\l_test.c">
<polygon fill="white" stroke="black" points="3424.5,-0.5 3424.5,-30.5 3546.5,-30.5 3546.5,-0.5 3424.5,-0.5"/>
<text text-anchor="start" x="3432.5" y="-18.5" font-family="Helvetica,sans-Serif" font-size="10.00">jl/tests/sarray_transfer</text>
<text text-anchor="middle" x="3485.5" y="-7.5" font-family="Helvetica,sans-Serif" font-size="10.00">_test.c</text>
</a>
</g>
</g>
<!-- Node1&#45;&gt;Node35 -->
<g id="edge34" class="edge"><title>Node1&#45;&gt;Node35</title>
<path fill="none" stroke="midnightblue" d="M1879.84,-75.841C2078.02,-74.7757 3103.05,-67.5542 3415.5,-31 3418.34,-30.6683 3421.23,-30.2792 3424.14,-29.8456"/>
<polygon fill="midnightblue" stroke="midnightblue" points="1879.73,-72.3415 1869.75,-75.8937 1879.77,-79.3414 1879.73,-72.3415"/>
</g>
<!-- Node36 -->
<g id="node36" class="node"><title>Node36</title>
<g id="a_node36"><a xlink:href="sort__test_8c.html" target="_top" xlink:title="jl/tests/sort_test.c">
<polygon fill="white" stroke="black" points="3564.5,-6 3564.5,-25 3662.5,-25 3662.5,-6 3564.5,-6"/>
<text text-anchor="middle" x="3613.5" y="-13" font-family="Helvetica,sans-Serif" font-size="10.00">jl/tests/sort_test.c</text>
</a>
</g>
</g>
<!-- Node1&#45;&gt;Node36 -->
<g id="edge35" class="edge"><title>Node1&#45;&gt;Node36</title>
<path fill="none" stroke="midnightblue" d="M1879.82,-76.1155C2088.2,-76.6884 3214.41,-77.5557 3555.5,-31 3565.06,-29.6946 3575.33,-27.424 3584.53,-25.0618"/>
<polygon fill="midnightblue" stroke="midnightblue" points="1879.54,-72.6148 1869.53,-76.0853 1879.51,-79.6147 1879.54,-72.6148"/>
</g>
<!-- Node37 -->
<g id="node37" class="node"><title>Node37</title>
<g id="a_node37"><a xlink:href="sort__test2_8c.html" target="_top" xlink:title="jl/tests/sort_test2.c">
<polygon fill="white" stroke="black" points="3680.5,-6 3680.5,-25 3784.5,-25 3784.5,-6 3680.5,-6"/>
<text text-anchor="middle" x="3732.5" y="-13" font-family="Helvetica,sans-Serif" font-size="10.00">jl/tests/sort_test2.c</text>
</a>
</g>
</g>
<!-- Node1&#45;&gt;Node37 -->
<g id="edge36" class="edge"><title>Node1&#45;&gt;Node37</title>
<path fill="none" stroke="midnightblue" d="M1879.68,-76.1275C2095.78,-76.8157 3305.62,-78.4669 3671.5,-31 3681.54,-29.6976 3692.33,-27.4278 3702.01,-25.0655"/>
<polygon fill="midnightblue" stroke="midnightblue" points="1879.61,-72.6273 1869.59,-76.0937 1879.58,-79.6273 1879.61,-72.6273"/>
</g>
<!-- Node38 -->
<g id="node38" class="node"><title>Node38</title>
<g id="a_node38"><a xlink:href="spchol__test_8c.html" target="_top" xlink:title="jl/tests/spchol_test.c">
<polygon fill="white" stroke="black" points="3803,-6 3803,-25 3914,-25 3914,-6 3803,-6"/>
<text text-anchor="middle" x="3858.5" y="-13" font-family="Helvetica,sans-Serif" font-size="10.00">jl/tests/spchol_test.c</text>
</a>
</g>
</g>
<!-- Node1&#45;&gt;Node38 -->
<g id="edge37" class="edge"><title>Node1&#45;&gt;Node38</title>
<path fill="none" stroke="midnightblue" d="M1879.75,-76.1247C2104.27,-76.8326 3401.57,-78.7738 3793.5,-31 3804.17,-29.6989 3815.67,-27.4296 3825.98,-25.0671"/>
<polygon fill="midnightblue" stroke="midnightblue" points="1879.6,-72.6243 1869.59,-76.0911 1879.58,-79.6242 1879.6,-72.6243"/>
</g>
<!-- Node39 -->
<g id="node39" class="node"><title>Node39</title>
<g id="a_node39"><a xlink:href="xxt__test_8c.html" target="_top" xlink:title="jl/tests/xxt_test.c">
<polygon fill="white" stroke="black" points="3932.5,-6 3932.5,-25 4026.5,-25 4026.5,-6 3932.5,-6"/>
<text text-anchor="middle" x="3979.5" y="-13" font-family="Helvetica,sans-Serif" font-size="10.00">jl/tests/xxt_test.c</text>
</a>
</g>
</g>
<!-- Node1&#45;&gt;Node39 -->
<g id="edge38" class="edge"><title>Node1&#45;&gt;Node39</title>
<path fill="none" stroke="midnightblue" d="M1879.89,-75.7436C2130.5,-73.7576 3713.05,-60.1238 3923.5,-31 3932.85,-29.7059 3942.89,-27.4072 3951.84,-25.0161"/>
<polygon fill="midnightblue" stroke="midnightblue" points="1879.57,-72.2459 1869.6,-75.8245 1879.63,-79.2456 1879.57,-72.2459"/>
</g>
<!-- Node40 -->
<g id="node40" class="node"><title>Node40</title>
<g id="a_node40"><a xlink:href="xxt__test2_8c.html" target="_top" xlink:title="jl/tests/xxt_test2.c">
<polygon fill="white" stroke="black" points="4044.5,-6 4044.5,-25 4144.5,-25 4144.5,-6 4044.5,-6"/>
<text text-anchor="middle" x="4094.5" y="-13" font-family="Helvetica,sans-Serif" font-size="10.00">jl/tests/xxt_test2.c</text>
</a>
</g>
</g>
<!-- Node1&#45;&gt;Node40 -->
<g id="edge39" class="edge"><title>Node1&#45;&gt;Node40</title>
<path fill="none" stroke="midnightblue" d="M1880.06,-75.7571C2138.89,-73.8253 3813.04,-60.2576 4035.5,-31 4045.33,-29.7071 4055.9,-27.4087 4065.33,-25.0175"/>
<polygon fill="midnightblue" stroke="midnightblue" points="1879.77,-72.2591 1869.8,-75.8331 1879.82,-79.2589 1879.77,-72.2591"/>
</g>
<!-- Node41 -->
<g id="node41" class="node"><title>Node41</title>
<g id="a_node41"><a xlink:href="xxt_8c.html" target="_top" xlink:title="jl/xxt.c">
<polygon fill="white" stroke="black" points="4163,-6 4163,-25 4208,-25 4208,-6 4163,-6"/>
<text text-anchor="middle" x="4185.5" y="-13" font-family="Helvetica,sans-Serif" font-size="10.00">jl/xxt.c</text>
</a>
</g>
</g>
<!-- Node1&#45;&gt;Node41 -->
<g id="edge40" class="edge"><title>Node1&#45;&gt;Node41</title>
<path fill="none" stroke="midnightblue" d="M1879.85,-76.1628C2146.1,-77.3563 3922.27,-83.3089 4153.5,-31 4159.09,-29.735 4164.89,-27.444 4169.99,-25.051"/>
<polygon fill="midnightblue" stroke="midnightblue" points="1879.68,-72.6621 1869.66,-76.1161 1879.65,-79.662 1879.68,-72.6621"/>
</g>
</g>
</svg>
        <g id="navigator" transform="translate(0 0)" fill="#404254">
                <rect fill="#f2f5e9" fill-opacity="0.5" stroke="#606060" stroke-width=".5" x="0" y="0" width="60" height="60"/>
                <use id="zoomplus" xlink:href="#zoomPlus" x="17" y="9" onmousedown="handleZoom(evt,'in')"/>
                <use id="zoomminus" xlink:href="#zoomMin" x="42" y="9" onmousedown="handleZoom(evt,'out')"/>
                <use id="reset" xlink:href="#resetDef" x="30" y="36" onmousedown="handleReset()"/>
                <g id="arrowUp" xlink:href="#dirArrow" transform="translate(30 24)" onmousedown="handlePan(0,-1)">
                  <use xlink:href="#rim" fill="#404040">
                        <set attributeName="fill" to="#808080" begin="arrowUp.mouseover" end="arrowUp.mouseout"/>
                  </use>
                  <path fill="none" stroke="white" stroke-width="1.5" d="M0,-3.0v7 M-2.5,-0.5L0,-3.0L2.5,-0.5"/>
                </g>
                <g id="arrowRight" xlink:href="#dirArrow" transform="rotate(90) translate(36 -43)" onmousedown="handlePan(1,0)">
                  <use xlink:href="#rim" fill="#404040">
                        <set attributeName="fill" to="#808080" begin="arrowRight.mouseover" end="arrowRight.mouseout"/>
                  </use>
                  <path fill="none" stroke="white" stroke-width="1.5" d="M0,-3.0v7 M-2.5,-0.5L0,-3.0L2.5,-0.5"/>
                </g>
                <g id="arrowDown" xlink:href="#dirArrow" transform="rotate(180) translate(-30 -48)" onmousedown="handlePan(0,1)">
                  <use xlink:href="#rim" fill="#404040">
                        <set attributeName="fill" to="#808080" begin="arrowDown.mouseover" end="arrowDown.mouseout"/>
                  </use>
                  <path fill="none" stroke="white" stroke-width="1.5" d="M0,-3.0v7 M-2.5,-0.5L0,-3.0L2.5,-0.5"/>
                </g>
                <g id="arrowLeft" xlink:href="#dirArrow" transform="rotate(270) translate(-36 17)" onmousedown="handlePan(-1,0)">
                  <use xlink:href="#rim" fill="#404040">
                        <set attributeName="fill" to="#808080" begin="arrowLeft.mouseover" end="arrowLeft.mouseout"/>
                  </use>
                  <path fill="none" stroke="white" stroke-width="1.5" d="M0,-3.0v7 M-2.5,-0.5L0,-3.0L2.5,-0.5"/>
                </g>
        </g>
        <svg viewBox="0 0 15 15" width="100%" height="30px" preserveAspectRatio="xMaxYMin meet">
         <g id="arrow_out" transform="scale(0.3 0.3)">
          <a xlink:href="fail_8h__dep__incl_org.svg" target="_base">
           <rect id="button" ry="5" rx="5" y="6" x="6" height="38" width="38"
                fill="#f2f5e9" fill-opacity="0.5" stroke="#606060" stroke-width="1.0"/>
           <path id="arrow"
             d="M 11.500037,31.436501 C 11.940474,20.09759 22.043105,11.32322 32.158766,21.979434 L 37.068811,17.246167 C 37.068811,17.246167 37.088388,32 37.088388,32 L 22.160133,31.978069 C 22.160133,31.978069 26.997745,27.140456 26.997745,27.140456 C 18.528582,18.264221 13.291696,25.230495 11.500037,31.436501 z"
             style="fill:#404040;"/>
          </a>
         </g>
        </svg>
</svg>
