<?xml version="1.0" encoding="UTF-8" standalone="no"?>
<!DOCTYPE svg PUBLIC "-//W3C//DTD SVG 1.1//EN"
 "http://www.w3.org/Graphics/SVG/1.1/DTD/svg11.dtd">
<!-- Generated by graphviz version 2.38.0 (20140413.2041)
 -->
<!-- Title: vfail Pages: 1 -->
<svg width="149pt" height="66pt"
 viewBox="0.00 0.00 149.00 66.00" xmlns="http://www.w3.org/2000/svg" xmlns:xlink="http://www.w3.org/1999/xlink">
<g id="graph0" class="graph" transform="scale(1 1) rotate(0) translate(4 62)">
<title>vfail</title>
<polygon fill="white" stroke="none" points="-4,4 -4,-62 145,-62 145,4 -4,4"/>
<!-- Node1 -->
<g id="node1" class="node"><title>Node1</title>
<polygon fill="#bfbfbf" stroke="black" points="0,-19.5 0,-38.5 35,-38.5 35,-19.5 0,-19.5"/>
<text text-anchor="middle" x="17.5" y="-26.5" font-family="Helvetica,sans-Serif" font-size="10.00">vfail</text>
</g>
<!-- Node2 -->
<g id="node2" class="node"><title>Node2</title>
<g id="a_node2"><a xlink:href="fail_8c.html#a6a96bcb04cc5efcd64cbeed06a292419" target="_top" xlink:title="die">
<polygon fill="white" stroke="black" points="90.5,-38.5 90.5,-57.5 121.5,-57.5 121.5,-38.5 90.5,-38.5"/>
<text text-anchor="middle" x="106" y="-45.5" font-family="Helvetica,sans-Serif" font-size="10.00">die</text>
</a>
</g>
</g>
<!-- Node1&#45;&gt;Node2 -->
<g id="edge1" class="edge"><title>Node1&#45;&gt;Node2</title>
<path fill="none" stroke="midnightblue" d="M35.1781,-32.6634C48.0567,-35.4922 66.0675,-39.4483 80.5706,-42.634"/>
<polygon fill="midnightblue" stroke="midnightblue" points="79.8695,-46.0634 90.3876,-44.7903 81.3714,-39.2264 79.8695,-46.0634"/>
</g>
<!-- Node3 -->
<g id="node3" class="node"><title>Node3</title>
<g id="a_node3"><a xlink:href="fail_8c.html#a92d8c60ba2ef526cc6aca428bc8770ce" target="_top" xlink:title="vdiagnostic">
<polygon fill="white" stroke="black" points="71,-0.5 71,-19.5 141,-19.5 141,-0.5 71,-0.5"/>
<text text-anchor="middle" x="106" y="-7.5" font-family="Helvetica,sans-Serif" font-size="10.00">vdiagnostic</text>
</a>
</g>
</g>
<!-- Node1&#45;&gt;Node3 -->
<g id="edge2" class="edge"><title>Node1&#45;&gt;Node3</title>
<path fill="none" stroke="midnightblue" d="M35.1781,-25.3366C42.605,-23.7053 51.7387,-21.699 60.9222,-19.6818"/>
<polygon fill="midnightblue" stroke="midnightblue" points="61.8122,-23.0699 70.8284,-17.5059 60.3104,-16.2329 61.8122,-23.0699"/>
</g>
</g>
</svg>
