<?xml version="1.0" encoding="UTF-8" standalone="no"?>
<!DOCTYPE svg PUBLIC "-//W3C//DTD SVG 1.1//EN"
 "http://www.w3.org/Graphics/SVG/1.1/DTD/svg11.dtd">
<!-- Generated by graphviz version 2.38.0 (20140413.2041)
 -->
<!-- Title: vdiagnostic Pages: 1 -->
<!--zoomable 446 -->
<svg id="main" version="1.1" xmlns="http://www.w3.org/2000/svg" xmlns:xlink="http://www.w3.org/1999/xlink" xml:space="preserve" onload="init(evt)">
<style type="text/css"><![CDATA[
.edge:hover path { stroke: red; }
.edge:hover polygon { stroke: red; fill: red; }
]]></style>
<script type="text/javascript"><![CDATA[
var edges = document.getElementsByTagName('g');
if (edges && edges.length) {
  for (var i=0;i<edges.length;i++) {
    if (edges[i].id.substr(0,4)=='edge') {
      edges[i].setAttribute('class','edge');
    }
  }
}
]]></script>
        <defs>
                <circle id="rim" cx="0" cy="0" r="7"/>
                <circle id="rim2" cx="0" cy="0" r="3.5"/>
                <g id="zoomPlus">
                        <use xlink:href="#rim" fill="#404040">
                                <set attributeName="fill" to="#808080" begin="zoomplus.mouseover" end="zoomplus.mouseout"/>
                        </use>
                        <path d="M-4,0h8M0,-4v8" fill="none" stroke="white" stroke-width="1.5" pointer-events="none"/>
                </g>
                <g id="zoomMin">
                        <use xlink:href="#rim" fill="#404040">
                                <set attributeName="fill" to="#808080" begin="zoomminus.mouseover" end="zoomminus.mouseout"/>
                        </use>
                        <path d="M-4,0h8" fill="none" stroke="white" stroke-width="1.5" pointer-events="none"/>
                </g>
                <g id="dirArrow">
                        <path fill="none" stroke="white" stroke-width="1.5" d="M0,-3.0v7 M-2.5,-0.5L0,-3.0L2.5,-0.5"/>
                </g>
               <g id="resetDef">
                       <use xlink:href="#rim2" fill="#404040">
                               <set attributeName="fill" to="#808080" begin="reset.mouseover" end="reset.mouseout"/>
                       </use>
               </g>
        </defs>

<script type="text/javascript">
var viewWidth = 848;
var viewHeight = 446;
var sectionId = 'dynsection-6';
</script>
<script xlink:href="svgpan.js"/>
<svg id="graph" class="graph">
<g id="viewport">
<title>vdiagnostic</title>
<polygon fill="white" stroke="none" points="-4,4 -4,-442 844,-442 844,4 -4,4"/>
<!-- Node1 -->
<g id="node1" class="node"><title>Node1</title>
<polygon fill="#bfbfbf" stroke="black" points="0,-351.5 0,-370.5 70,-370.5 70,-351.5 0,-351.5"/>
<text text-anchor="middle" x="35" y="-358.5" font-family="Helvetica,sans-Serif" font-size="10.00">vdiagnostic</text>
</g>
<!-- Node2 -->
<g id="node2" class="node"><title>Node2</title>
<g id="a_node2"><a xlink:href="fail_8c.html#a3f0e9aca2bcb9ac0274be889ea70adc6" target="_top" xlink:title="diagnostic">
<polygon fill="white" stroke="black" points="177,-408.5 177,-427.5 242,-427.5 242,-408.5 177,-408.5"/>
<text text-anchor="middle" x="209.5" y="-415.5" font-family="Helvetica,sans-Serif" font-size="10.00">diagnostic</text>
</a>
</g>
</g>
<!-- Node1&#45;&gt;Node2 -->
<g id="edge1" class="edge"><title>Node1&#45;&gt;Node2</title>
<path fill="none" stroke="midnightblue" d="M74.7123,-373.792C106.482,-384.29 150.766,-398.923 179.533,-408.428"/>
<polygon fill="midnightblue" stroke="midnightblue" points="75.4658,-370.355 64.8726,-370.541 73.2695,-377.001 75.4658,-370.355"/>
</g>
<!-- Node4 -->
<g id="node4" class="node"><title>Node4</title>
<g id="a_node4"><a xlink:href="fail_8c.html#a016d8836ade99456457a913955d1dc3b" target="_top" xlink:title="vfail">
<polygon fill="white" stroke="black" points="106,-313.5 106,-332.5 141,-332.5 141,-313.5 106,-313.5"/>
<text text-anchor="middle" x="123.5" y="-320.5" font-family="Helvetica,sans-Serif" font-size="10.00">vfail</text>
</a>
</g>
</g>
<!-- Node1&#45;&gt;Node4 -->
<g id="edge3" class="edge"><title>Node1&#45;&gt;Node4</title>
<path fill="none" stroke="midnightblue" d="M67.0099,-347.377C80.1231,-341.616 94.8722,-335.137 105.867,-330.307"/>
<polygon fill="midnightblue" stroke="midnightblue" points="65.5754,-344.184 57.8276,-351.411 68.3908,-350.593 65.5754,-344.184"/>
</g>
<!-- Node3 -->
<g id="node3" class="node"><title>Node3</title>
<g id="a_node3"><a xlink:href="crystal__test_8c.html#a8be6e60ea81f191308e3638d3b2f6fe0" target="_top" xlink:title="main">
<polygon fill="white" stroke="black" points="310.5,-418.5 310.5,-437.5 349.5,-437.5 349.5,-418.5 310.5,-418.5"/>
<text text-anchor="middle" x="330" y="-425.5" font-family="Helvetica,sans-Serif" font-size="10.00">main</text>
</a>
</g>
</g>
<!-- Node2&#45;&gt;Node3 -->
<g id="edge2" class="edge"><title>Node2&#45;&gt;Node3</title>
<path fill="none" stroke="midnightblue" d="M252.332,-421.53C272.204,-423.207 294.945,-425.126 310.466,-426.436"/>
<polygon fill="midnightblue" stroke="midnightblue" points="252.515,-418.033 242.256,-420.68 251.926,-425.008 252.515,-418.033"/>
</g>
<!-- Node5 -->
<g id="node5" class="node"><title>Node5</title>
<g id="a_node5"><a xlink:href="fail_8c.html#a9e0caa24596d5da82c0d6e25260e2ef0" target="_top" xlink:title="fail">
<polygon fill="white" stroke="black" points="194.5,-237.5 194.5,-256.5 224.5,-256.5 224.5,-237.5 194.5,-237.5"/>
<text text-anchor="middle" x="209.5" y="-244.5" font-family="Helvetica,sans-Serif" font-size="10.00">fail</text>
</a>
</g>
</g>
<!-- Node4&#45;&gt;Node5 -->
<g id="edge4" class="edge"><title>Node4&#45;&gt;Node5</title>
<path fill="none" stroke="midnightblue" d="M142.729,-306.507C159.602,-291.241 184.106,-269.07 197.948,-256.547"/>
<polygon fill="midnightblue" stroke="midnightblue" points="140.206,-304.07 135.139,-313.375 144.902,-309.261 140.206,-304.07"/>
</g>
<!-- Node5&#45;&gt;Node3 -->
<g id="edge17" class="edge"><title>Node5&#45;&gt;Node3</title>
<path fill="none" stroke="midnightblue" d="M213.457,-266.45C219.551,-300.037 236.583,-369.134 278,-409 286.714,-417.387 299.464,-422.137 310.035,-424.79"/>
<polygon fill="midnightblue" stroke="midnightblue" points="216.896,-265.797 211.79,-256.514 209.993,-266.955 216.896,-265.797"/>
</g>
<!-- Node6 -->
<g id="node6" class="node"><title>Node6</title>
<g id="a_node6"><a xlink:href="comm_8h.html#aba6feeb1a92297535adcd21197193470" target="_top" xlink:title="comm_dup_">
<polygon fill="white" stroke="black" points="293,-380.5 293,-399.5 367,-399.5 367,-380.5 293,-380.5"/>
<text text-anchor="middle" x="330" y="-387.5" font-family="Helvetica,sans-Serif" font-size="10.00">comm_dup_</text>
</a>
</g>
</g>
<!-- Node5&#45;&gt;Node6 -->
<g id="edge5" class="edge"><title>Node5&#45;&gt;Node6</title>
<path fill="none" stroke="midnightblue" d="M216.238,-266.368C225.189,-293.402 244.963,-342.347 278,-371 282.426,-374.838 287.699,-377.932 293.15,-380.416"/>
<polygon fill="midnightblue" stroke="midnightblue" points="219.489,-265.04 213.148,-256.552 212.812,-267.141 219.489,-265.04"/>
</g>
<!-- Node7 -->
<g id="node7" class="node"><title>Node7</title>
<g id="a_node7"><a xlink:href="comm_8h.html#ad084ff77d7d8a47335cfbb02804844b7" target="_top" xlink:title="comm_init_check_">
<polygon fill="white" stroke="black" points="278,-342.5 278,-361.5 382,-361.5 382,-342.5 278,-342.5"/>
<text text-anchor="middle" x="330" y="-349.5" font-family="Helvetica,sans-Serif" font-size="10.00">comm_init_check_</text>
</a>
</g>
</g>
<!-- Node5&#45;&gt;Node7 -->
<g id="edge6" class="edge"><title>Node5&#45;&gt;Node7</title>
<path fill="none" stroke="midnightblue" d="M220.778,-265.437C232.385,-284.729 252.959,-314.704 278,-333 283.188,-336.79 289.218,-339.908 295.277,-342.442"/>
<polygon fill="midnightblue" stroke="midnightblue" points="223.738,-263.565 215.684,-256.681 217.687,-267.085 223.738,-263.565"/>
</g>
<!-- Node8 -->
<g id="node8" class="node"><title>Node8</title>
<g id="a_node8"><a xlink:href="fcrystal_8c.html#a59119af37c72c604d33ef4ed59afe43e" target="_top" xlink:title="fcrystal_tuple_sort">
<polygon fill="white" stroke="black" points="278.5,-304.5 278.5,-323.5 381.5,-323.5 381.5,-304.5 278.5,-304.5"/>
<text text-anchor="middle" x="330" y="-311.5" font-family="Helvetica,sans-Serif" font-size="10.00">fcrystal_tuple_sort</text>
</a>
</g>
</g>
<!-- Node5&#45;&gt;Node8 -->
<g id="edge7" class="edge"><title>Node5&#45;&gt;Node8</title>
<path fill="none" stroke="midnightblue" d="M230.498,-263.335C243.477,-273.39 261.07,-286.027 278,-295 284.679,-298.54 292.164,-301.723 299.299,-304.426"/>
<polygon fill="midnightblue" stroke="midnightblue" points="232.329,-260.321 222.314,-256.863 227.986,-265.811 232.329,-260.321"/>
</g>
<!-- Node9 -->
<g id="node9" class="node"><title>Node9</title>
<g id="a_node9"><a xlink:href="findpts_8c.html#ad26f5ee553bed3b34f14320bca42ad5e" target="_top" xlink:title="ffindpts_setup">
<polygon fill="white" stroke="black" points="288.5,-266.5 288.5,-285.5 371.5,-285.5 371.5,-266.5 288.5,-266.5"/>
<text text-anchor="middle" x="330" y="-273.5" font-family="Helvetica,sans-Serif" font-size="10.00">ffindpts_setup</text>
</a>
</g>
</g>
<!-- Node5&#45;&gt;Node9 -->
<g id="edge8" class="edge"><title>Node5&#45;&gt;Node9</title>
<path fill="none" stroke="midnightblue" d="M234.643,-252.908C250.579,-256.808 271.814,-262.005 290.104,-266.481"/>
<polygon fill="midnightblue" stroke="midnightblue" points="235.104,-249.418 224.559,-250.441 233.44,-256.217 235.104,-249.418"/>
</g>
<!-- Node10 -->
<g id="node10" class="node"><title>Node10</title>
<g id="a_node10"><a xlink:href="gs_8c.html#a45bd3c31c2247bc74bdc2dcee194a841" target="_top" xlink:title="fgs_check_handle">
<polygon fill="white" stroke="black" points="278.5,-190.5 278.5,-209.5 381.5,-209.5 381.5,-190.5 278.5,-190.5"/>
<text text-anchor="middle" x="330" y="-197.5" font-family="Helvetica,sans-Serif" font-size="10.00">fgs_check_handle</text>
</a>
</g>
</g>
<!-- Node5&#45;&gt;Node10 -->
<g id="edge9" class="edge"><title>Node5&#45;&gt;Node10</title>
<path fill="none" stroke="midnightblue" d="M234.065,-237.654C254.518,-229.542 284.012,-217.844 304.682,-209.645"/>
<polygon fill="midnightblue" stroke="midnightblue" points="232.564,-234.484 224.559,-241.424 235.145,-240.99 232.564,-234.484"/>
</g>
<!-- Node11 -->
<g id="node11" class="node"><title>Node11</title>
<g id="a_node11"><a xlink:href="gs_8c.html#a72a849f5aec0c3de64fc04f96b89a1e5" target="_top" xlink:title="fgs_check_parms">
<polygon fill="white" stroke="black" points="418,-228.5 418,-247.5 518,-247.5 518,-228.5 418,-228.5"/>
<text text-anchor="middle" x="468" y="-235.5" font-family="Helvetica,sans-Serif" font-size="10.00">fgs_check_parms</text>
</a>
</g>
</g>
<!-- Node5&#45;&gt;Node11 -->
<g id="edge16" class="edge"><title>Node5&#45;&gt;Node11</title>
<path fill="none" stroke="midnightblue" d="M234.737,-246.15C276.533,-244.683 362.945,-241.651 417.776,-239.727"/>
<polygon fill="midnightblue" stroke="midnightblue" points="234.527,-242.655 224.656,-246.503 234.773,-249.65 234.527,-242.655"/>
</g>
<!-- Node17 -->
<g id="node17" class="node"><title>Node17</title>
<g id="a_node17"><a xlink:href="mem_8h.html#ad94e7874a0972f470fafad92ae817e00" target="_top" xlink:title="scalloc">
<polygon fill="white" stroke="black" points="305.5,-152.5 305.5,-171.5 354.5,-171.5 354.5,-152.5 305.5,-152.5"/>
<text text-anchor="middle" x="330" y="-159.5" font-family="Helvetica,sans-Serif" font-size="10.00">scalloc</text>
</a>
</g>
</g>
<!-- Node5&#45;&gt;Node17 -->
<g id="edge18" class="edge"><title>Node5&#45;&gt;Node17</title>
<path fill="none" stroke="midnightblue" d="M224.839,-229.336C237.512,-214.694 257.176,-194.212 278,-181 286.377,-175.685 296.462,-171.533 305.445,-168.485"/>
<polygon fill="midnightblue" stroke="midnightblue" points="221.995,-227.279 218.229,-237.182 227.348,-231.789 221.995,-227.279"/>
</g>
<!-- Node18 -->
<g id="node18" class="node"><title>Node18</title>
<g id="a_node18"><a xlink:href="mem_8h.html#a43243a859ec383327ff475d1e0681637" target="_top" xlink:title="smalloc">
<polygon fill="white" stroke="black" points="304,-114.5 304,-133.5 356,-133.5 356,-114.5 304,-114.5"/>
<text text-anchor="middle" x="330" y="-121.5" font-family="Helvetica,sans-Serif" font-size="10.00">smalloc</text>
</a>
</g>
</g>
<!-- Node5&#45;&gt;Node18 -->
<g id="edge19" class="edge"><title>Node5&#45;&gt;Node18</title>
<path fill="none" stroke="midnightblue" d="M218.415,-227.766C228.852,-204.619 249.311,-166.004 278,-143 285.445,-137.03 294.954,-132.813 303.739,-129.896"/>
<polygon fill="midnightblue" stroke="midnightblue" points="215.092,-226.634 214.332,-237.201 221.516,-229.414 215.092,-226.634"/>
</g>
<!-- Node20 -->
<g id="node20" class="node"><title>Node20</title>
<g id="a_node20"><a xlink:href="sort__imp_8h.html#a505134c756da7e5a1312fa13487435b4" target="_top" xlink:title="sortv">
<polygon fill="white" stroke="black" points="310,-76.5 310,-95.5 350,-95.5 350,-76.5 310,-76.5"/>
<text text-anchor="middle" x="330" y="-83.5" font-family="Helvetica,sans-Serif" font-size="10.00">sortv</text>
</a>
</g>
</g>
<!-- Node5&#45;&gt;Node20 -->
<g id="edge21" class="edge"><title>Node5&#45;&gt;Node20</title>
<path fill="none" stroke="midnightblue" d="M214.794,-227.411C222.409,-197.108 241.08,-138.836 278,-105 286.777,-96.9562 299.269,-92.2278 309.692,-89.4998"/>
<polygon fill="midnightblue" stroke="midnightblue" points="211.371,-226.676 212.475,-237.213 218.183,-228.288 211.371,-226.676"/>
</g>
<!-- Node24 -->
<g id="node24" class="node"><title>Node24</title>
<g id="a_node24"><a xlink:href="mem_8h.html#a26c5de30a903dc2bafdd27ecbdae07e5" target="_top" xlink:title="srealloc">
<polygon fill="white" stroke="black" points="303.5,-38.5 303.5,-57.5 356.5,-57.5 356.5,-38.5 303.5,-38.5"/>
<text text-anchor="middle" x="330" y="-45.5" font-family="Helvetica,sans-Serif" font-size="10.00">srealloc</text>
</a>
</g>
</g>
<!-- Node5&#45;&gt;Node24 -->
<g id="edge25" class="edge"><title>Node5&#45;&gt;Node24</title>
<path fill="none" stroke="midnightblue" d="M212.595,-226.959C217.464,-190.306 232.806,-112.097 278,-67 284.822,-60.1925 294.304,-55.7934 303.244,-52.9643"/>
<polygon fill="midnightblue" stroke="midnightblue" points="209.07,-226.96 211.358,-237.305 216.021,-227.791 209.07,-226.96"/>
</g>
<!-- Node10&#45;&gt;Node11 -->
<g id="edge10" class="edge"><title>Node10&#45;&gt;Node11</title>
<path fill="none" stroke="midnightblue" d="M375.087,-212.318C393.772,-217.539 415.218,-223.532 432.692,-228.414"/>
<polygon fill="midnightblue" stroke="midnightblue" points="375.892,-208.909 365.319,-209.589 374.008,-215.651 375.892,-208.909"/>
</g>
<!-- Node16 -->
<g id="node16" class="node"><title>Node16</title>
<g id="a_node16"><a xlink:href="gs__test__old_8c.html#a84d561ed8e726b6ffd7515db82f0e1b3" target="_top" xlink:title="fgs_free">
<polygon fill="white" stroke="black" points="440,-190.5 440,-209.5 496,-209.5 496,-190.5 440,-190.5"/>
<text text-anchor="middle" x="468" y="-197.5" font-family="Helvetica,sans-Serif" font-size="10.00">fgs_free</text>
</a>
</g>
</g>
<!-- Node10&#45;&gt;Node16 -->
<g id="edge15" class="edge"><title>Node10&#45;&gt;Node16</title>
<path fill="none" stroke="midnightblue" d="M391.993,-200C408.797,-200 426.179,-200 439.973,-200"/>
<polygon fill="midnightblue" stroke="midnightblue" points="391.641,-196.5 381.641,-200 391.641,-203.5 391.641,-196.5"/>
</g>
<!-- Node12 -->
<g id="node12" class="node"><title>Node12</title>
<g id="a_node12"><a xlink:href="gs_8c.html#aa139041cef7b25cc7df64740521b2133" target="_top" xlink:title="fgs">
<polygon fill="white" stroke="black" points="603,-285.5 603,-304.5 634,-304.5 634,-285.5 603,-285.5"/>
<text text-anchor="middle" x="618.5" y="-292.5" font-family="Helvetica,sans-Serif" font-size="10.00">fgs</text>
</a>
</g>
</g>
<!-- Node11&#45;&gt;Node12 -->
<g id="edge11" class="edge"><title>Node11&#45;&gt;Node12</title>
<path fill="none" stroke="midnightblue" d="M498.096,-252.134C514.333,-259.734 535.051,-268.963 554,-276 570.505,-282.129 589.963,-287.719 602.949,-291.224"/>
<polygon fill="midnightblue" stroke="midnightblue" points="499.156,-248.763 488.62,-247.646 496.16,-255.089 499.156,-248.763"/>
</g>
<!-- Node13 -->
<g id="node13" class="node"><title>Node13</title>
<g id="a_node13"><a xlink:href="gs_8c.html#a8adbacaba87cb9aacbfc6808b9ab8438" target="_top" xlink:title="fgs_vec">
<polygon fill="white" stroke="black" points="592,-247.5 592,-266.5 645,-266.5 645,-247.5 592,-247.5"/>
<text text-anchor="middle" x="618.5" y="-254.5" font-family="Helvetica,sans-Serif" font-size="10.00">fgs_vec</text>
</a>
</g>
</g>
<!-- Node11&#45;&gt;Node13 -->
<g id="edge12" class="edge"><title>Node11&#45;&gt;Node13</title>
<path fill="none" stroke="midnightblue" d="M528.058,-245.556C550.225,-248.392 574.279,-251.47 591.853,-253.719"/>
<polygon fill="midnightblue" stroke="midnightblue" points="528.399,-242.071 518.036,-244.274 527.511,-249.015 528.399,-242.071"/>
</g>
<!-- Node14 -->
<g id="node14" class="node"><title>Node14</title>
<g id="a_node14"><a xlink:href="gs_8c.html#ad4976e7ec8d490e299956314f2df143e" target="_top" xlink:title="fgs_many">
<polygon fill="white" stroke="black" points="587.5,-209.5 587.5,-228.5 649.5,-228.5 649.5,-209.5 587.5,-209.5"/>
<text text-anchor="middle" x="618.5" y="-216.5" font-family="Helvetica,sans-Serif" font-size="10.00">fgs_many</text>
</a>
</g>
</g>
<!-- Node11&#45;&gt;Node14 -->
<g id="edge13" class="edge"><title>Node11&#45;&gt;Node14</title>
<path fill="none" stroke="midnightblue" d="M528.121,-230.436C548.344,-227.848 570.131,-225.061 587.131,-222.886"/>
<polygon fill="midnightblue" stroke="midnightblue" points="527.511,-226.985 518.036,-231.726 528.399,-233.929 527.511,-226.985"/>
</g>
<!-- Node15 -->
<g id="node15" class="node"><title>Node15</title>
<g id="a_node15"><a xlink:href="gs_8c.html#ae94931808a851149dcc5ca4995915a7b" target="_top" xlink:title="fgs_fields">
<polygon fill="white" stroke="black" points="587.5,-171.5 587.5,-190.5 649.5,-190.5 649.5,-171.5 587.5,-171.5"/>
<text text-anchor="middle" x="618.5" y="-178.5" font-family="Helvetica,sans-Serif" font-size="10.00">fgs_fields</text>
</a>
</g>
</g>
<!-- Node11&#45;&gt;Node15 -->
<g id="edge14" class="edge"><title>Node11&#45;&gt;Node15</title>
<path fill="none" stroke="midnightblue" d="M504.828,-224.662C509.296,-222.836 513.776,-220.926 518,-219 534.462,-211.495 537.254,-206.848 554,-200 564.651,-195.644 576.67,-191.793 587.364,-188.715"/>
<polygon fill="midnightblue" stroke="midnightblue" points="503.175,-221.553 495.172,-228.495 505.757,-228.059 503.175,-221.553"/>
</g>
<!-- Node19 -->
<g id="node19" class="node"><title>Node19</title>
<g id="a_node19"><a xlink:href="mem_8h.html#af52545f5c16fb2eff031799d8f8f0292" target="_top" xlink:title="array_init_">
<polygon fill="white" stroke="black" points="434.5,-133.5 434.5,-152.5 501.5,-152.5 501.5,-133.5 434.5,-133.5"/>
<text text-anchor="middle" x="468" y="-140.5" font-family="Helvetica,sans-Serif" font-size="10.00">array_init_</text>
</a>
</g>
</g>
<!-- Node18&#45;&gt;Node19 -->
<g id="edge20" class="edge"><title>Node18&#45;&gt;Node19</title>
<path fill="none" stroke="midnightblue" d="M366.398,-128.945C387.424,-131.883 413.899,-135.582 434.412,-138.447"/>
<polygon fill="midnightblue" stroke="midnightblue" points="366.65,-125.447 356.262,-127.529 365.681,-132.379 366.65,-125.447"/>
</g>
<!-- Node21 -->
<g id="node21" class="node"><title>Node21</title>
<g id="a_node21"><a xlink:href="sparse__cholesky_8c.html#a626a3f92f73332ec24054e9f517ea6bc" target="_top" xlink:title="factor_symbolic">
<polygon fill="white" stroke="black" points="423.5,-95.5 423.5,-114.5 512.5,-114.5 512.5,-95.5 423.5,-95.5"/>
<text text-anchor="middle" x="468" y="-102.5" font-family="Helvetica,sans-Serif" font-size="10.00">factor_symbolic</text>
</a>
</g>
</g>
<!-- Node20&#45;&gt;Node21 -->
<g id="edge22" class="edge"><title>Node20&#45;&gt;Node21</title>
<path fill="none" stroke="midnightblue" d="M360.284,-90.0911C378.64,-92.6556 402.64,-96.0085 423.23,-98.8851"/>
<polygon fill="midnightblue" stroke="midnightblue" points="360.585,-86.5993 350.197,-88.6819 359.617,-93.532 360.585,-86.5993"/>
</g>
<!-- Node23 -->
<g id="node23" class="node"><title>Node23</title>
<g id="a_node23"><a xlink:href="sort__test_8c.html#ae66f6b31b5ad750f1fe042a706a4e3d4" target="_top" xlink:title="main">
<polygon fill="white" stroke="black" points="448.5,-57.5 448.5,-76.5 487.5,-76.5 487.5,-57.5 448.5,-57.5"/>
<text text-anchor="middle" x="468" y="-64.5" font-family="Helvetica,sans-Serif" font-size="10.00">main</text>
</a>
</g>
</g>
<!-- Node20&#45;&gt;Node23 -->
<g id="edge24" class="edge"><title>Node20&#45;&gt;Node23</title>
<path fill="none" stroke="midnightblue" d="M360.128,-81.9306C386.83,-78.2002 425.572,-72.7877 448.337,-69.6073"/>
<polygon fill="midnightblue" stroke="midnightblue" points="359.617,-78.468 350.197,-83.3181 360.585,-85.4007 359.617,-78.468"/>
</g>
<!-- Node22 -->
<g id="node22" class="node"><title>Node22</title>
<g id="a_node22"><a xlink:href="sparse__cholesky_8h.html#aa4f9f9e732b179adc01ed3b8a887dfe1" target="_top" xlink:title="sparse_cholesky_factor">
<polygon fill="white" stroke="black" points="554,-95.5 554,-114.5 683,-114.5 683,-95.5 554,-95.5"/>
<text text-anchor="middle" x="618.5" y="-102.5" font-family="Helvetica,sans-Serif" font-size="10.00">sparse_cholesky_factor</text>
</a>
</g>
</g>
<!-- Node21&#45;&gt;Node22 -->
<g id="edge23" class="edge"><title>Node21&#45;&gt;Node22</title>
<path fill="none" stroke="midnightblue" d="M523.006,-105C533.066,-105 543.663,-105 553.977,-105"/>
<polygon fill="midnightblue" stroke="midnightblue" points="522.752,-101.5 512.752,-105 522.752,-108.5 522.752,-101.5"/>
</g>
<!-- Node25 -->
<g id="node25" class="node"><title>Node25</title>
<g id="a_node25"><a xlink:href="mem_8h.html#af00024f2f513ee3aeb5c11ff7057626b" target="_top" xlink:title="array_resize_">
<polygon fill="white" stroke="black" points="427,-19.5 427,-38.5 509,-38.5 509,-19.5 427,-19.5"/>
<text text-anchor="middle" x="468" y="-26.5" font-family="Helvetica,sans-Serif" font-size="10.00">array_resize_</text>
</a>
</g>
</g>
<!-- Node24&#45;&gt;Node25 -->
<g id="edge26" class="edge"><title>Node24&#45;&gt;Node25</title>
<path fill="none" stroke="midnightblue" d="M366.642,-43.0207C385.114,-40.44 407.74,-37.279 426.829,-34.6121"/>
<polygon fill="midnightblue" stroke="midnightblue" points="366,-39.5762 356.581,-44.4262 366.969,-46.5089 366,-39.5762"/>
</g>
<!-- Node26 -->
<g id="node26" class="node"><title>Node26</title>
<g id="a_node26"><a xlink:href="mem_8h.html#ae8987de29908d81ee663ab67d4635dad" target="_top" xlink:title="array_reserve_">
<polygon fill="white" stroke="black" points="574,-19.5 574,-38.5 663,-38.5 663,-19.5 574,-19.5"/>
<text text-anchor="middle" x="618.5" y="-26.5" font-family="Helvetica,sans-Serif" font-size="10.00">array_reserve_</text>
</a>
</g>
</g>
<!-- Node25&#45;&gt;Node26 -->
<g id="edge27" class="edge"><title>Node25&#45;&gt;Node26</title>
<path fill="none" stroke="midnightblue" d="M519.342,-29C537.049,-29 556.787,-29 573.893,-29"/>
<polygon fill="midnightblue" stroke="midnightblue" points="519.186,-25.5001 509.186,-29 519.186,-32.5001 519.186,-25.5001"/>
</g>
<!-- Node27 -->
<g id="node27" class="node"><title>Node27</title>
<g id="a_node27"><a xlink:href="mem_8h.html#af25cc60e366fa6bbaa4b4cd3fa24c159" target="_top" xlink:title="array_cat_">
<polygon fill="white" stroke="black" points="745.5,-38.5 745.5,-57.5 813.5,-57.5 813.5,-38.5 745.5,-38.5"/>
<text text-anchor="middle" x="779.5" y="-45.5" font-family="Helvetica,sans-Serif" font-size="10.00">array_cat_</text>
</a>
</g>
</g>
<!-- Node26&#45;&gt;Node27 -->
<g id="edge28" class="edge"><title>Node26&#45;&gt;Node27</title>
<path fill="none" stroke="midnightblue" d="M673.359,-35.4359C697.23,-38.2885 724.556,-41.5539 745.366,-44.0406"/>
<polygon fill="midnightblue" stroke="midnightblue" points="673.713,-31.9535 663.368,-34.2421 672.882,-38.904 673.713,-31.9535"/>
</g>
<!-- Node28 -->
<g id="node28" class="node"><title>Node28</title>
<g id="a_node28"><a xlink:href="sarray__transfer_8h.html#adc44e0c45eec7d8055ccc6cd6fb5f86b" target="_top" xlink:title="sarray_transfer_many">
<polygon fill="white" stroke="black" points="719,-0.5 719,-19.5 840,-19.5 840,-0.5 719,-0.5"/>
<text text-anchor="middle" x="779.5" y="-7.5" font-family="Helvetica,sans-Serif" font-size="10.00">sarray_transfer_many</text>
</a>
</g>
</g>
<!-- Node26&#45;&gt;Node28 -->
<g id="edge29" class="edge"><title>Node26&#45;&gt;Node28</title>
<path fill="none" stroke="midnightblue" d="M673.672,-22.5267C688.17,-20.7942 703.923,-18.9117 718.706,-17.1452"/>
<polygon fill="midnightblue" stroke="midnightblue" points="672.882,-19.096 663.368,-23.7579 673.713,-26.0465 672.882,-19.096"/>
</g>
</g>
</svg>
        <g id="navigator" transform="translate(0 0)" fill="#404254">
                <rect fill="#f2f5e9" fill-opacity="0.5" stroke="#606060" stroke-width=".5" x="0" y="0" width="60" height="60"/>
                <use id="zoomplus" xlink:href="#zoomPlus" x="17" y="9" onmousedown="handleZoom(evt,'in')"/>
                <use id="zoomminus" xlink:href="#zoomMin" x="42" y="9" onmousedown="handleZoom(evt,'out')"/>
                <use id="reset" xlink:href="#resetDef" x="30" y="36" onmousedown="handleReset()"/>
                <g id="arrowUp" xlink:href="#dirArrow" transform="translate(30 24)" onmousedown="handlePan(0,-1)">
                  <use xlink:href="#rim" fill="#404040">
                        <set attributeName="fill" to="#808080" begin="arrowUp.mouseover" end="arrowUp.mouseout"/>
                  </use>
                  <path fill="none" stroke="white" stroke-width="1.5" d="M0,-3.0v7 M-2.5,-0.5L0,-3.0L2.5,-0.5"/>
                </g>
                <g id="arrowRight" xlink:href="#dirArrow" transform="rotate(90) translate(36 -43)" onmousedown="handlePan(1,0)">
                  <use xlink:href="#rim" fill="#404040">
                        <set attributeName="fill" to="#808080" begin="arrowRight.mouseover" end="arrowRight.mouseout"/>
                  </use>
                  <path fill="none" stroke="white" stroke-width="1.5" d="M0,-3.0v7 M-2.5,-0.5L0,-3.0L2.5,-0.5"/>
                </g>
                <g id="arrowDown" xlink:href="#dirArrow" transform="rotate(180) translate(-30 -48)" onmousedown="handlePan(0,1)">
                  <use xlink:href="#rim" fill="#404040">
                        <set attributeName="fill" to="#808080" begin="arrowDown.mouseover" end="arrowDown.mouseout"/>
                  </use>
                  <path fill="none" stroke="white" stroke-width="1.5" d="M0,-3.0v7 M-2.5,-0.5L0,-3.0L2.5,-0.5"/>
                </g>
                <g id="arrowLeft" xlink:href="#dirArrow" transform="rotate(270) translate(-36 17)" onmousedown="handlePan(-1,0)">
                  <use xlink:href="#rim" fill="#404040">
                        <set attributeName="fill" to="#808080" begin="arrowLeft.mouseover" end="arrowLeft.mouseout"/>
                  </use>
                  <path fill="none" stroke="white" stroke-width="1.5" d="M0,-3.0v7 M-2.5,-0.5L0,-3.0L2.5,-0.5"/>
                </g>
        </g>
        <svg viewBox="0 0 15 15" width="100%" height="30px" preserveAspectRatio="xMaxYMin meet">
         <g id="arrow_out" transform="scale(0.3 0.3)">
          <a xlink:href="fail_8c_a92d8c60ba2ef526cc6aca428bc8770ce_icgraph_org.svg" target="_base">
           <rect id="button" ry="5" rx="5" y="6" x="6" height="38" width="38"
                fill="#f2f5e9" fill-opacity="0.5" stroke="#606060" stroke-width="1.0"/>
           <path id="arrow"
             d="M 11.500037,31.436501 C 11.940474,20.09759 22.043105,11.32322 32.158766,21.979434 L 37.068811,17.246167 C 37.068811,17.246167 37.088388,32 37.088388,32 L 22.160133,31.978069 C 22.160133,31.978069 26.997745,27.140456 26.997745,27.140456 C 18.528582,18.264221 13.291696,25.230495 11.500037,31.436501 z"
             style="fill:#404040;"/>
          </a>
         </g>
        </svg>
</svg>
