<?xml version="1.0" encoding="UTF-8" standalone="no"?>
<!DOCTYPE svg PUBLIC "-//W3C//DTD SVG 1.1//EN"
 "http://www.w3.org/Graphics/SVG/1.1/DTD/svg11.dtd">
<!-- Generated by graphviz version 2.38.0 (20140413.2041)
 -->
<!-- Title: generate_semhat Pages: 1 -->
<!--zoomable 417 -->
<svg id="main" version="1.1" xmlns="http://www.w3.org/2000/svg" xmlns:xlink="http://www.w3.org/1999/xlink" xml:space="preserve" onload="init(evt)">
<style type="text/css"><![CDATA[
.edge:hover path { stroke: red; }
.edge:hover polygon { stroke: red; fill: red; }
]]></style>
<script type="text/javascript"><![CDATA[
var edges = document.getElementsByTagName('g');
if (edges && edges.length) {
  for (var i=0;i<edges.length;i++) {
    if (edges[i].id.substr(0,4)=='edge') {
      edges[i].setAttribute('class','edge');
    }
  }
}
]]></script>
        <defs>
                <circle id="rim" cx="0" cy="0" r="7"/>
                <circle id="rim2" cx="0" cy="0" r="3.5"/>
                <g id="zoomPlus">
                        <use xlink:href="#rim" fill="#404040">
                                <set attributeName="fill" to="#808080" begin="zoomplus.mouseover" end="zoomplus.mouseout"/>
                        </use>
                        <path d="M-4,0h8M0,-4v8" fill="none" stroke="white" stroke-width="1.5" pointer-events="none"/>
                </g>
                <g id="zoomMin">
                        <use xlink:href="#rim" fill="#404040">
                                <set attributeName="fill" to="#808080" begin="zoomminus.mouseover" end="zoomminus.mouseout"/>
                        </use>
                        <path d="M-4,0h8" fill="none" stroke="white" stroke-width="1.5" pointer-events="none"/>
                </g>
                <g id="dirArrow">
                        <path fill="none" stroke="white" stroke-width="1.5" d="M0,-3.0v7 M-2.5,-0.5L0,-3.0L2.5,-0.5"/>
                </g>
               <g id="resetDef">
                       <use xlink:href="#rim2" fill="#404040">
                               <set attributeName="fill" to="#808080" begin="reset.mouseover" end="reset.mouseout"/>
                       </use>
               </g>
        </defs>

<script type="text/javascript">
var viewWidth = 954;
var viewHeight = 417;
var sectionId = 'dynsection-4';
</script>
<script xlink:href="svgpan.js"/>
<svg id="graph" class="graph">
<g id="viewport">
<title>generate_semhat</title>
<polygon fill="white" stroke="none" points="-4,4 -4,-413.051 950,-413.051 950,4 -4,4"/>
<!-- Node1 -->
<g id="node1" class="node"><title>Node1</title>
<polygon fill="#bfbfbf" stroke="black" points="0,-294.551 0,-313.551 100,-313.551 100,-294.551 0,-294.551"/>
<text text-anchor="middle" x="50" y="-301.551" font-family="Helvetica,sans-Serif" font-size="10.00">generate_semhat</text>
</g>
<!-- Node2 -->
<g id="node2" class="node"><title>Node2</title>
<g id="a_node2"><a xlink:href="fast3d_8F90.html#ad007f6eca12b1b9307f46e56bcc40a59" target="_top" xlink:title="This routine evaluates the derivative based on all points in the stencils. It is more memory efficien...">
<polygon fill="white" stroke="black" points="136,-332.551 136,-351.551 222,-351.551 222,-332.551 136,-332.551"/>
<text text-anchor="middle" x="179" y="-339.551" font-family="Helvetica,sans-Serif" font-size="10.00">fd_weights_full</text>
</a>
</g>
</g>
<!-- Node1&#45;&gt;Node2 -->
<g id="edge1" class="edge"><title>Node1&#45;&gt;Node2</title>
<path fill="none" stroke="midnightblue" d="M83.0475,-313.64C99.1411,-318.456 118.841,-324.35 136.117,-329.519"/>
<polygon fill="midnightblue" stroke="midnightblue" points="135.379,-332.952 145.963,-332.465 137.386,-326.246 135.379,-332.952"/>
</g>
<!-- Node3 -->
<g id="node3" class="node"><title>Node3</title>
<g id="a_node3"><a xlink:href="classspeclib.html#a932ca9ca470532f6bae3ed77ca2e1466" target="_top" xlink:title="Generate NP Gauss Legendre points (Z) and weights (W) associated with Jacobi polynomial P(N)(alpha=0...">
<polygon fill="white" stroke="black" points="142,-256.551 142,-275.551 216,-275.551 216,-256.551 142,-256.551"/>
<text text-anchor="middle" x="179" y="-263.551" font-family="Helvetica,sans-Serif" font-size="10.00">speclib::zwgl</text>
</a>
</g>
</g>
<!-- Node1&#45;&gt;Node3 -->
<g id="edge2" class="edge"><title>Node1&#45;&gt;Node3</title>
<path fill="none" stroke="midnightblue" d="M83.0475,-294.462C99.1411,-289.647 118.841,-283.752 136.117,-278.583"/>
<polygon fill="midnightblue" stroke="midnightblue" points="137.386,-281.857 145.963,-275.637 135.379,-275.151 137.386,-281.857"/>
</g>
<!-- Node20 -->
<g id="node20" class="node"><title>Node20</title>
<g id="a_node20"><a xlink:href="classspeclib.html#ab649647711dc444ca710b98bf943b0d8" target="_top" xlink:title="speclib::zwgll">
<polygon fill="white" stroke="black" points="140.5,-294.551 140.5,-313.551 217.5,-313.551 217.5,-294.551 140.5,-294.551"/>
<text text-anchor="middle" x="179" y="-301.551" font-family="Helvetica,sans-Serif" font-size="10.00">speclib::zwgll</text>
</a>
</g>
</g>
<!-- Node1&#45;&gt;Node20 -->
<g id="edge22" class="edge"><title>Node1&#45;&gt;Node20</title>
<path fill="none" stroke="midnightblue" d="M100.102,-304.051C110.048,-304.051 120.492,-304.051 130.386,-304.051"/>
<polygon fill="midnightblue" stroke="midnightblue" points="130.454,-307.551 140.454,-304.051 130.454,-300.551 130.454,-307.551"/>
</g>
<!-- Node4 -->
<g id="node4" class="node"><title>Node4</title>
<g id="a_node4"><a xlink:href="classspeclib.html#a631f538efe1b48d5b557e06446dcb278" target="_top" xlink:title="speclib::zwgj">
<polygon fill="white" stroke="black" points="375.5,-256.551 375.5,-275.551 449.5,-275.551 449.5,-256.551 375.5,-256.551"/>
<text text-anchor="middle" x="412.5" y="-263.551" font-family="Helvetica,sans-Serif" font-size="10.00">speclib::zwgj</text>
</a>
</g>
</g>
<!-- Node3&#45;&gt;Node4 -->
<g id="edge3" class="edge"><title>Node3&#45;&gt;Node4</title>
<path fill="none" stroke="midnightblue" d="M216.172,-266.051C256.317,-266.051 321.216,-266.051 365.08,-266.051"/>
<polygon fill="midnightblue" stroke="midnightblue" points="365.201,-269.551 375.201,-266.051 365.201,-262.551 365.201,-269.551"/>
</g>
<!-- Node5 -->
<g id="node5" class="node"><title>Node5</title>
<g id="a_node5"><a xlink:href="byte_8c.html#a2da8eeb074dfd3ffbfb3e9a4d301cda4" target="_top" xlink:title="exitt">
<polygon fill="white" stroke="black" points="636,-275.551 636,-294.551 672,-294.551 672,-275.551 636,-275.551"/>
<text text-anchor="middle" x="654" y="-282.551" font-family="Helvetica,sans-Serif" font-size="10.00">exitt</text>
</a>
</g>
</g>
<!-- Node4&#45;&gt;Node5 -->
<g id="edge4" class="edge"><title>Node4&#45;&gt;Node5</title>
<path fill="none" stroke="midnightblue" d="M449.615,-268.916C497.922,-272.749 582.498,-279.458 625.787,-282.892"/>
<polygon fill="midnightblue" stroke="midnightblue" points="625.61,-286.389 635.856,-283.691 626.164,-279.411 625.61,-286.389"/>
</g>
<!-- Node15 -->
<g id="node15" class="node"><title>Node15</title>
<g id="a_node15"><a xlink:href="classspeclib.html#a70378dbc00d8034b969f6b8143a9f79b" target="_top" xlink:title="speclib::zwgjd">
<polygon fill="white" stroke="black" points="492.5,-161.551 492.5,-180.551 572.5,-180.551 572.5,-161.551 492.5,-161.551"/>
<text text-anchor="middle" x="532.5" y="-168.551" font-family="Helvetica,sans-Serif" font-size="10.00">speclib::zwgjd</text>
</a>
</g>
</g>
<!-- Node4&#45;&gt;Node15 -->
<g id="edge14" class="edge"><title>Node4&#45;&gt;Node15</title>
<path fill="none" stroke="midnightblue" d="M425.684,-256.242C446.016,-239.873 487.05,-206.837 511.617,-187.059"/>
<polygon fill="midnightblue" stroke="midnightblue" points="513.964,-189.663 519.558,-180.665 509.574,-184.21 513.964,-189.663"/>
</g>
<!-- Node6 -->
<g id="node6" class="node"><title>Node6</title>
<g id="a_node6"><a xlink:href="classctimer.html#abcecbc845c8ee72e13a19eaa30b80d77" target="_top" xlink:title="ctimer::dnekclock">
<polygon fill="white" stroke="black" points="733,-237.551 733,-256.551 830,-256.551 830,-237.551 733,-237.551"/>
<text text-anchor="middle" x="781.5" y="-244.551" font-family="Helvetica,sans-Serif" font-size="10.00">ctimer::dnekclock</text>
</a>
</g>
</g>
<!-- Node5&#45;&gt;Node6 -->
<g id="edge5" class="edge"><title>Node5&#45;&gt;Node6</title>
<path fill="none" stroke="midnightblue" d="M672.187,-279.847C689.38,-274.641 716.472,-266.438 739.26,-259.538"/>
<polygon fill="midnightblue" stroke="midnightblue" points="740.491,-262.823 749.047,-256.575 738.462,-256.123 740.491,-262.823"/>
</g>
<!-- Node8 -->
<g id="node8" class="node"><title>Node8</title>
<g id="a_node8"><a xlink:href="subs1_8F90.html#a339739b88994e5bb12bd923147f94983" target="_top" xlink:title="flush_io">
<polygon fill="white" stroke="black" points="755,-199.551 755,-218.551 808,-218.551 808,-199.551 755,-199.551"/>
<text text-anchor="middle" x="781.5" y="-206.551" font-family="Helvetica,sans-Serif" font-size="10.00">flush_io</text>
</a>
</g>
</g>
<!-- Node5&#45;&gt;Node8 -->
<g id="edge7" class="edge"><title>Node5&#45;&gt;Node8</title>
<path fill="none" stroke="midnightblue" d="M666.276,-275.395C680.92,-263.198 707.617,-242.109 733,-228.051 736.953,-225.862 741.211,-223.792 745.496,-221.882"/>
<polygon fill="midnightblue" stroke="midnightblue" points="746.95,-225.067 754.813,-217.967 744.238,-218.614 746.95,-225.067"/>
</g>
<!-- Node9 -->
<g id="node9" class="node"><title>Node9</title>
<g id="a_node9"><a xlink:href="singlmesh_8F90.html#aef78ff219741b83c1ca784b869e9cacf" target="_top" xlink:title="Dummy for singlmesh. ">
<polygon fill="white" stroke="black" points="741.5,-389.551 741.5,-408.551 821.5,-408.551 821.5,-389.551 741.5,-389.551"/>
<text text-anchor="middle" x="781.5" y="-396.551" font-family="Helvetica,sans-Serif" font-size="10.00">happy_check</text>
</a>
</g>
</g>
<!-- Node5&#45;&gt;Node9 -->
<g id="edge8" class="edge"><title>Node5&#45;&gt;Node9</title>
<path fill="none" stroke="midnightblue" d="M660.631,-294.766C672.026,-313.649 699.595,-355.596 733,-380.051 735.352,-381.773 737.881,-383.365 740.503,-384.833"/>
<polygon fill="midnightblue" stroke="midnightblue" points="739.141,-388.064 749.657,-389.352 742.24,-381.787 739.141,-388.064"/>
</g>
<!-- Node10 -->
<g id="node10" class="node"><title>Node10</title>
<g id="a_node10"><a xlink:href="mpi__dummy_8F90.html#a55e9a1619aadb638b14211ce21d7d566" target="_top" xlink:title="mpi_finalize">
<polygon fill="white" stroke="black" points="745.5,-351.551 745.5,-370.551 817.5,-370.551 817.5,-351.551 745.5,-351.551"/>
<text text-anchor="middle" x="781.5" y="-358.551" font-family="Helvetica,sans-Serif" font-size="10.00">mpi_finalize</text>
</a>
</g>
</g>
<!-- Node5&#45;&gt;Node10 -->
<g id="edge9" class="edge"><title>Node5&#45;&gt;Node10</title>
<path fill="none" stroke="midnightblue" d="M666.276,-294.708C680.92,-306.905 707.617,-327.993 733,-342.051 736.484,-343.981 740.205,-345.818 743.973,-347.535"/>
<polygon fill="midnightblue" stroke="midnightblue" points="742.758,-350.822 753.328,-351.541 745.514,-344.387 742.758,-350.822"/>
</g>
<!-- Node11 -->
<g id="node11" class="node"><title>Node11</title>
<g id="a_node11"><a xlink:href="papi_8F90.html#a3a75ccdfbe05912fda48c3b134d114c0" target="_top" xlink:title="nek_flops">
<polygon fill="white" stroke="black" points="750.5,-313.551 750.5,-332.551 812.5,-332.551 812.5,-313.551 750.5,-313.551"/>
<text text-anchor="middle" x="781.5" y="-320.551" font-family="Helvetica,sans-Serif" font-size="10.00">nek_flops</text>
</a>
</g>
</g>
<!-- Node5&#45;&gt;Node11 -->
<g id="edge10" class="edge"><title>Node5&#45;&gt;Node11</title>
<path fill="none" stroke="midnightblue" d="M672.187,-290.255C689.613,-295.532 717.212,-303.888 740.188,-310.845"/>
<polygon fill="midnightblue" stroke="midnightblue" points="739.451,-314.279 750.036,-313.827 741.48,-307.579 739.451,-314.279"/>
</g>
<!-- Node13 -->
<g id="node13" class="node"><title>Node13</title>
<g id="a_node13"><a xlink:href="comm__mpi_8F90.html#a4acb4d8e379294232e9219bec063d8f3" target="_top" xlink:title="nekgsync">
<polygon fill="white" stroke="black" points="750.5,-275.551 750.5,-294.551 812.5,-294.551 812.5,-275.551 750.5,-275.551"/>
<text text-anchor="middle" x="781.5" y="-282.551" font-family="Helvetica,sans-Serif" font-size="10.00">nekgsync</text>
</a>
</g>
</g>
<!-- Node5&#45;&gt;Node13 -->
<g id="edge12" class="edge"><title>Node5&#45;&gt;Node13</title>
<path fill="none" stroke="midnightblue" d="M672.187,-285.051C689.535,-285.051 716.964,-285.051 739.878,-285.051"/>
<polygon fill="midnightblue" stroke="midnightblue" points="740.036,-288.551 750.036,-285.051 740.036,-281.551 740.036,-288.551"/>
</g>
<!-- Node7 -->
<g id="node7" class="node"><title>Node7</title>
<g id="a_node7"><a xlink:href="mpi__dummy_8F90.html#ae6a5ef945f87c2c27849696b70f3af2a" target="_top" xlink:title="mpi_wtime">
<polygon fill="white" stroke="black" points="873,-237.551 873,-256.551 939,-256.551 939,-237.551 873,-237.551"/>
<text text-anchor="middle" x="906" y="-244.551" font-family="Helvetica,sans-Serif" font-size="10.00">mpi_wtime</text>
</a>
</g>
</g>
<!-- Node6&#45;&gt;Node7 -->
<g id="edge6" class="edge"><title>Node6&#45;&gt;Node7</title>
<path fill="none" stroke="midnightblue" d="M830.212,-247.051C840.894,-247.051 852.154,-247.051 862.603,-247.051"/>
<polygon fill="midnightblue" stroke="midnightblue" points="862.73,-250.551 872.729,-247.051 862.729,-243.551 862.73,-250.551"/>
</g>
<!-- Node12 -->
<g id="node12" class="node"><title>Node12</title>
<g id="a_node12"><a xlink:href="papi_8F90.html#a838be3d39e287e29002d5a68c6ad2dd8" target="_top" xlink:title="getflops_papi">
<polygon fill="white" stroke="black" points="866,-313.551 866,-332.551 946,-332.551 946,-313.551 866,-313.551"/>
<text text-anchor="middle" x="906" y="-320.551" font-family="Helvetica,sans-Serif" font-size="10.00">getflops_papi</text>
</a>
</g>
</g>
<!-- Node11&#45;&gt;Node12 -->
<g id="edge11" class="edge"><title>Node11&#45;&gt;Node12</title>
<path fill="none" stroke="midnightblue" d="M812.781,-323.051C825.666,-323.051 841.032,-323.051 855.491,-323.051"/>
<polygon fill="midnightblue" stroke="midnightblue" points="855.811,-326.551 865.811,-323.051 855.811,-319.551 855.811,-326.551"/>
</g>
<!-- Node14 -->
<g id="node14" class="node"><title>Node14</title>
<g id="a_node14"><a xlink:href="mpi__dummy_8F90.html#a070afe564196eb48413dbf1a9fbc99aa" target="_top" xlink:title="mpi_barrier">
<polygon fill="white" stroke="black" points="871,-275.551 871,-294.551 941,-294.551 941,-275.551 871,-275.551"/>
<text text-anchor="middle" x="906" y="-282.551" font-family="Helvetica,sans-Serif" font-size="10.00">mpi_barrier</text>
</a>
</g>
</g>
<!-- Node13&#45;&gt;Node14 -->
<g id="edge13" class="edge"><title>Node13&#45;&gt;Node14</title>
<path fill="none" stroke="midnightblue" d="M812.781,-285.051C827.195,-285.051 844.714,-285.051 860.594,-285.051"/>
<polygon fill="midnightblue" stroke="midnightblue" points="860.745,-288.551 870.745,-285.051 860.745,-281.551 860.745,-288.551"/>
</g>
<!-- Node15&#45;&gt;Node5 -->
<g id="edge15" class="edge"><title>Node15&#45;&gt;Node5</title>
<path fill="none" stroke="midnightblue" d="M543.689,-180.771C564.061,-200.205 610.034,-244.062 635.388,-268.25"/>
<polygon fill="midnightblue" stroke="midnightblue" points="633.186,-270.986 642.837,-275.356 638.018,-265.921 633.186,-270.986"/>
</g>
<!-- Node16 -->
<g id="node16" class="node"><title>Node16</title>
<g id="a_node16"><a xlink:href="classspeclib.html#a92a5edfebc973315d00bf6634c853040" target="_top" xlink:title="speclib::gammaf">
<polygon fill="white" stroke="black" points="736,-28.5512 736,-47.5512 827,-47.5512 827,-28.5512 736,-28.5512"/>
<text text-anchor="middle" x="781.5" y="-35.5512" font-family="Helvetica,sans-Serif" font-size="10.00">speclib::gammaf</text>
</a>
</g>
</g>
<!-- Node15&#45;&gt;Node16 -->
<g id="edge16" class="edge"><title>Node15&#45;&gt;Node16</title>
<path fill="none" stroke="midnightblue" d="M542.314,-161.525C550.877,-152.165 564.14,-137.388 575,-124.051 591.839,-103.373 588.606,-90.5293 611,-76.0512 645.23,-53.9213 690.563,-44.5666 725.733,-40.6661"/>
<polygon fill="midnightblue" stroke="midnightblue" points="726.226,-44.1345 735.831,-39.6634 725.534,-37.1687 726.226,-44.1345"/>
</g>
<!-- Node17 -->
<g id="node17" class="node"><title>Node17</title>
<g id="a_node17"><a xlink:href="classspeclib.html#a6e4006c61e176baff378ff31472b6634" target="_top" xlink:title="speclib::jacg">
<polygon fill="white" stroke="black" points="617.5,-123.551 617.5,-142.551 690.5,-142.551 690.5,-123.551 617.5,-123.551"/>
<text text-anchor="middle" x="654" y="-130.551" font-family="Helvetica,sans-Serif" font-size="10.00">speclib::jacg</text>
</a>
</g>
</g>
<!-- Node15&#45;&gt;Node17 -->
<g id="edge17" class="edge"><title>Node15&#45;&gt;Node17</title>
<path fill="none" stroke="midnightblue" d="M563.655,-161.462C578.657,-156.692 596.988,-150.862 613.134,-145.728"/>
<polygon fill="midnightblue" stroke="midnightblue" points="614.386,-149.003 622.855,-142.637 612.264,-142.332 614.386,-149.003"/>
</g>
<!-- Node18 -->
<g id="node18" class="node"><title>Node18</title>
<g id="a_node18"><a xlink:href="classspeclib.html#af7eaf2eb0994474cab3a5582bbf02903" target="_top" xlink:title="speclib::jacobf">
<polygon fill="white" stroke="black" points="741,-161.551 741,-180.551 822,-180.551 822,-161.551 741,-161.551"/>
<text text-anchor="middle" x="781.5" y="-168.551" font-family="Helvetica,sans-Serif" font-size="10.00">speclib::jacobf</text>
</a>
</g>
</g>
<!-- Node15&#45;&gt;Node18 -->
<g id="edge21" class="edge"><title>Node15&#45;&gt;Node18</title>
<path fill="none" stroke="midnightblue" d="M572.638,-171.051C615.383,-171.051 683.956,-171.051 730.553,-171.051"/>
<polygon fill="midnightblue" stroke="midnightblue" points="730.727,-174.551 740.727,-171.051 730.727,-167.551 730.727,-174.551"/>
</g>
<!-- Node19 -->
<g id="node19" class="node"><title>Node19</title>
<g id="a_node19"><a xlink:href="classspeclib.html#aca23f78205002060fe2e03c1f9e2adbc" target="_top" xlink:title="speclib::pnormj">
<polygon fill="white" stroke="black" points="611,-85.5512 611,-104.551 697,-104.551 697,-85.5512 611,-85.5512"/>
<text text-anchor="middle" x="654" y="-92.5512" font-family="Helvetica,sans-Serif" font-size="10.00">speclib::pnormj</text>
</a>
</g>
</g>
<!-- Node15&#45;&gt;Node19 -->
<g id="edge19" class="edge"><title>Node15&#45;&gt;Node19</title>
<path fill="none" stroke="midnightblue" d="M545.048,-161.354C559.744,-149.304 586.206,-128.561 611,-114.051 613.992,-112.3 617.173,-110.598 620.395,-108.978"/>
<polygon fill="midnightblue" stroke="midnightblue" points="621.935,-112.121 629.456,-104.658 618.923,-105.803 621.935,-112.121"/>
</g>
<!-- Node17&#45;&gt;Node18 -->
<g id="edge18" class="edge"><title>Node17&#45;&gt;Node18</title>
<path fill="none" stroke="midnightblue" d="M686.669,-142.64C702.573,-147.456 722.04,-153.35 739.111,-158.519"/>
<polygon fill="midnightblue" stroke="midnightblue" points="738.256,-161.917 748.841,-161.465 740.285,-155.217 738.256,-161.917"/>
</g>
<!-- Node19&#45;&gt;Node16 -->
<g id="edge20" class="edge"><title>Node19&#45;&gt;Node16</title>
<path fill="none" stroke="midnightblue" d="M676.006,-85.5107C696.277,-76.3041 727.184,-62.2665 750.132,-51.8438"/>
<polygon fill="midnightblue" stroke="midnightblue" points="751.768,-54.9449 759.426,-47.6229 748.873,-48.5715 751.768,-54.9449"/>
</g>
<!-- Node21 -->
<g id="node21" class="node"><title>Node21</title>
<g id="a_node21"><a xlink:href="classspeclib.html#a7f8bbfa94e61b0b498a78f57a3b2d46d" target="_top" xlink:title="speclib::zwglj">
<polygon fill="white" stroke="black" points="258,-294.551 258,-313.551 335,-313.551 335,-294.551 258,-294.551"/>
<text text-anchor="middle" x="296.5" y="-301.551" font-family="Helvetica,sans-Serif" font-size="10.00">speclib::zwglj</text>
</a>
</g>
</g>
<!-- Node20&#45;&gt;Node21 -->
<g id="edge23" class="edge"><title>Node20&#45;&gt;Node21</title>
<path fill="none" stroke="midnightblue" d="M217.819,-304.051C227.389,-304.051 237.792,-304.051 247.782,-304.051"/>
<polygon fill="midnightblue" stroke="midnightblue" points="247.991,-307.551 257.99,-304.051 247.99,-300.551 247.991,-307.551"/>
</g>
<!-- Node21&#45;&gt;Node5 -->
<g id="edge24" class="edge"><title>Node21&#45;&gt;Node5</title>
<path fill="none" stroke="midnightblue" d="M335.212,-302.312C388.602,-299.812 489.276,-294.961 575,-290.051 591.897,-289.083 610.845,-287.872 625.834,-286.884"/>
<polygon fill="midnightblue" stroke="midnightblue" points="626.216,-290.366 635.962,-286.21 625.752,-283.381 626.216,-290.366"/>
</g>
<!-- Node22 -->
<g id="node22" class="node"><title>Node22</title>
<g id="a_node22"><a xlink:href="classspeclib.html#ae2c64cf28960c6e471641deed404e86e" target="_top" xlink:title="speclib::zwgljd">
<polygon fill="white" stroke="black" points="371,-180.551 371,-199.551 454,-199.551 454,-180.551 371,-180.551"/>
<text text-anchor="middle" x="412.5" y="-187.551" font-family="Helvetica,sans-Serif" font-size="10.00">speclib::zwgljd</text>
</a>
</g>
</g>
<!-- Node21&#45;&gt;Node22 -->
<g id="edge25" class="edge"><title>Node21&#45;&gt;Node22</title>
<path fill="none" stroke="midnightblue" d="M307.22,-294.332C326.654,-274.897 370.511,-231.04 394.699,-206.852"/>
<polygon fill="midnightblue" stroke="midnightblue" points="397.209,-209.292 401.805,-199.746 392.259,-204.342 397.209,-209.292"/>
</g>
<!-- Node22&#45;&gt;Node5 -->
<g id="edge26" class="edge"><title>Node22&#45;&gt;Node5</title>
<path fill="none" stroke="midnightblue" d="M435.157,-199.694C450.417,-206.414 471.369,-215.494 490,-223.051 537.595,-242.358 593.687,-263.302 626.116,-275.236"/>
<polygon fill="midnightblue" stroke="midnightblue" points="625.179,-278.62 635.772,-278.781 627.591,-272.049 625.179,-278.62"/>
</g>
<!-- Node22&#45;&gt;Node15 -->
<g id="edge27" class="edge"><title>Node22&#45;&gt;Node15</title>
<path fill="none" stroke="midnightblue" d="M454.109,-183.513C463.215,-182.046 472.971,-180.475 482.381,-178.96"/>
<polygon fill="midnightblue" stroke="midnightblue" points="483.094,-182.391 492.41,-177.345 481.981,-175.48 483.094,-182.391"/>
</g>
<!-- Node22&#45;&gt;Node18 -->
<g id="edge28" class="edge"><title>Node22&#45;&gt;Node18</title>
<path fill="none" stroke="midnightblue" d="M454.007,-191.515C509.143,-193.011 610.826,-194.006 697,-185.051 707.97,-183.911 719.682,-182.237 730.759,-180.439"/>
<polygon fill="midnightblue" stroke="midnightblue" points="731.433,-183.875 740.714,-178.766 730.272,-176.972 731.433,-183.875"/>
</g>
<!-- Node23 -->
<g id="node23" class="node"><title>Node23</title>
<g id="a_node23"><a xlink:href="classspeclib.html#a535035f7b05db7324fa207643849cc2e" target="_top" xlink:title="speclib::endw1">
<polygon fill="white" stroke="black" points="490,-95.5512 490,-114.551 575,-114.551 575,-95.5512 490,-95.5512"/>
<text text-anchor="middle" x="532.5" y="-102.551" font-family="Helvetica,sans-Serif" font-size="10.00">speclib::endw1</text>
</a>
</g>
</g>
<!-- Node22&#45;&gt;Node23 -->
<g id="edge29" class="edge"><title>Node22&#45;&gt;Node23</title>
<path fill="none" stroke="midnightblue" d="M427.036,-180.301C447.308,-165.698 485.75,-138.006 509.922,-120.595"/>
<polygon fill="midnightblue" stroke="midnightblue" points="512.053,-123.373 518.122,-114.688 507.962,-117.693 512.053,-123.373"/>
</g>
<!-- Node24 -->
<g id="node24" class="node"><title>Node24</title>
<g id="a_node24"><a xlink:href="classspeclib.html#ac41843ee02e494a1a479da4d307c2db1" target="_top" xlink:title="speclib::endw2">
<polygon fill="white" stroke="black" points="490,-0.551223 490,-19.5512 575,-19.5512 575,-0.551223 490,-0.551223"/>
<text text-anchor="middle" x="532.5" y="-7.55122" font-family="Helvetica,sans-Serif" font-size="10.00">speclib::endw2</text>
</a>
</g>
</g>
<!-- Node22&#45;&gt;Node24 -->
<g id="edge31" class="edge"><title>Node22&#45;&gt;Node24</title>
<path fill="none" stroke="midnightblue" d="M419.844,-180.374C438.732,-151.561 494.818,-66.0069 519.553,-28.2754"/>
<polygon fill="midnightblue" stroke="midnightblue" points="522.569,-30.0587 525.124,-19.7767 516.715,-26.2209 522.569,-30.0587"/>
</g>
<!-- Node23&#45;&gt;Node16 -->
<g id="edge30" class="edge"><title>Node23&#45;&gt;Node16</title>
<path fill="none" stroke="midnightblue" d="M541.805,-95.2157C554.812,-80.6407 581.564,-53.8667 611,-43.0512 647.563,-29.6171 691.609,-28.734 725.637,-31.0168"/>
<polygon fill="midnightblue" stroke="midnightblue" points="725.613,-34.5256 735.856,-31.8165 726.16,-27.5469 725.613,-34.5256"/>
</g>
<!-- Node24&#45;&gt;Node16 -->
<g id="edge32" class="edge"><title>Node24&#45;&gt;Node16</title>
<path fill="none" stroke="midnightblue" d="M575.218,-3.81751C608.493,-0.0304364 656.13,2.73191 697,-5.05122 716.401,-8.74597 737.052,-16.8671 752.963,-24.128"/>
<polygon fill="midnightblue" stroke="midnightblue" points="751.666,-27.3863 762.204,-28.4905 754.655,-21.0562 751.666,-27.3863"/>
</g>
</g>
</svg>
        <g id="navigator" transform="translate(0 0)" fill="#404254">
                <rect fill="#f2f5e9" fill-opacity="0.5" stroke="#606060" stroke-width=".5" x="0" y="0" width="60" height="60"/>
                <use id="zoomplus" xlink:href="#zoomPlus" x="17" y="9" onmousedown="handleZoom(evt,'in')"/>
                <use id="zoomminus" xlink:href="#zoomMin" x="42" y="9" onmousedown="handleZoom(evt,'out')"/>
                <use id="reset" xlink:href="#resetDef" x="30" y="36" onmousedown="handleReset()"/>
                <g id="arrowUp" xlink:href="#dirArrow" transform="translate(30 24)" onmousedown="handlePan(0,-1)">
                  <use xlink:href="#rim" fill="#404040">
                        <set attributeName="fill" to="#808080" begin="arrowUp.mouseover" end="arrowUp.mouseout"/>
                  </use>
                  <path fill="none" stroke="white" stroke-width="1.5" d="M0,-3.0v7 M-2.5,-0.5L0,-3.0L2.5,-0.5"/>
                </g>
                <g id="arrowRight" xlink:href="#dirArrow" transform="rotate(90) translate(36 -43)" onmousedown="handlePan(1,0)">
                  <use xlink:href="#rim" fill="#404040">
                        <set attributeName="fill" to="#808080" begin="arrowRight.mouseover" end="arrowRight.mouseout"/>
                  </use>
                  <path fill="none" stroke="white" stroke-width="1.5" d="M0,-3.0v7 M-2.5,-0.5L0,-3.0L2.5,-0.5"/>
                </g>
                <g id="arrowDown" xlink:href="#dirArrow" transform="rotate(180) translate(-30 -48)" onmousedown="handlePan(0,1)">
                  <use xlink:href="#rim" fill="#404040">
                        <set attributeName="fill" to="#808080" begin="arrowDown.mouseover" end="arrowDown.mouseout"/>
                  </use>
                  <path fill="none" stroke="white" stroke-width="1.5" d="M0,-3.0v7 M-2.5,-0.5L0,-3.0L2.5,-0.5"/>
                </g>
                <g id="arrowLeft" xlink:href="#dirArrow" transform="rotate(270) translate(-36 17)" onmousedown="handlePan(-1,0)">
                  <use xlink:href="#rim" fill="#404040">
                        <set attributeName="fill" to="#808080" begin="arrowLeft.mouseover" end="arrowLeft.mouseout"/>
                  </use>
                  <path fill="none" stroke="white" stroke-width="1.5" d="M0,-3.0v7 M-2.5,-0.5L0,-3.0L2.5,-0.5"/>
                </g>
        </g>
        <svg viewBox="0 0 15 15" width="100%" height="30px" preserveAspectRatio="xMaxYMin meet">
         <g id="arrow_out" transform="scale(0.3 0.3)">
          <a xlink:href="fast3d_8F90_a1ed312943db727bf8a788864dfd14ae3_cgraph_org.svg" target="_base">
           <rect id="button" ry="5" rx="5" y="6" x="6" height="38" width="38"
                fill="#f2f5e9" fill-opacity="0.5" stroke="#606060" stroke-width="1.0"/>
           <path id="arrow"
             d="M 11.500037,31.436501 C 11.940474,20.09759 22.043105,11.32322 32.158766,21.979434 L 37.068811,17.246167 C 37.068811,17.246167 37.088388,32 37.088388,32 L 22.160133,31.978069 C 22.160133,31.978069 26.997745,27.140456 26.997745,27.140456 C 18.528582,18.264221 13.291696,25.230495 11.500037,31.436501 z"
             style="fill:#404040;"/>
          </a>
         </g>
        </svg>
</svg>
