<?xml version="1.0" encoding="UTF-8" standalone="no"?>
<!DOCTYPE svg PUBLIC "-//W3C//DTD SVG 1.1//EN"
 "http://www.w3.org/Graphics/SVG/1.1/DTD/svg11.dtd">
<!-- Generated by graphviz version 2.38.0 (20140413.2041)
 -->
<!-- Title: generate_semhat Pages: 1 -->
<svg width="704pt" height="127pt"
 viewBox="0.00 0.00 704.00 126.50" xmlns="http://www.w3.org/2000/svg" xmlns:xlink="http://www.w3.org/1999/xlink">
<g id="graph0" class="graph" transform="scale(1 1) rotate(0) translate(4 122.5)">
<title>generate_semhat</title>
<polygon fill="white" stroke="none" points="-4,4 -4,-122.5 700,-122.5 700,4 -4,4"/>
<!-- Node1 -->
<g id="node1" class="node"><title>Node1</title>
<polygon fill="#bfbfbf" stroke="black" points="0,-44.5 0,-63.5 100,-63.5 100,-44.5 0,-44.5"/>
<text text-anchor="middle" x="50" y="-51.5" font-family="Helvetica,sans-Serif" font-size="10.00">generate_semhat</text>
</g>
<!-- Node2 -->
<g id="node2" class="node"><title>Node2</title>
<g id="a_node2"><a xlink:href="classhsmg__routines.html#abc50809cf4aae995f61fd0c4ebc44c70" target="_top" xlink:title="SEM hat matrices for each level. ">
<polygon fill="white" stroke="black" points="141,-88 141,-118 257,-118 257,-88 141,-88"/>
<text text-anchor="start" x="149" y="-106" font-family="Helvetica,sans-Serif" font-size="10.00">hsmg_routines::h1mg</text>
<text text-anchor="middle" x="199" y="-95" font-family="Helvetica,sans-Serif" font-size="10.00">_setup_semhat</text>
</a>
</g>
</g>
<!-- Node1&#45;&gt;Node2 -->
<g id="edge1" class="edge"><title>Node1&#45;&gt;Node2</title>
<path fill="none" stroke="midnightblue" d="M89.428,-66.8093C108.869,-73.2897 132.586,-81.1955 152.889,-87.963"/>
<polygon fill="midnightblue" stroke="midnightblue" points="90.2857,-63.406 79.692,-63.564 88.0721,-70.0468 90.2857,-63.406"/>
</g>
<!-- Node7 -->
<g id="node7" class="node"><title>Node7</title>
<g id="a_node7"><a xlink:href="classhsmg__routines.html#a4a764754ca94ae800fbced43543c8b58" target="_top" xlink:title="hsmg_routines::hsmg\l_setup_semhat">
<polygon fill="white" stroke="black" points="141,-39 141,-69 257,-69 257,-39 141,-39"/>
<text text-anchor="start" x="149" y="-57" font-family="Helvetica,sans-Serif" font-size="10.00">hsmg_routines::hsmg</text>
<text text-anchor="middle" x="199" y="-46" font-family="Helvetica,sans-Serif" font-size="10.00">_setup_semhat</text>
</a>
</g>
</g>
<!-- Node1&#45;&gt;Node7 -->
<g id="edge6" class="edge"><title>Node1&#45;&gt;Node7</title>
<path fill="none" stroke="midnightblue" d="M110.615,-54C120.613,-54 130.967,-54 140.9,-54"/>
<polygon fill="midnightblue" stroke="midnightblue" points="110.358,-50.5001 100.358,-54 110.358,-57.5001 110.358,-50.5001"/>
</g>
<!-- Node9 -->
<g id="node9" class="node"><title>Node9</title>
<g id="a_node9"><a xlink:href="fast3d_8F90.html#a4de164b9c3a6daa704d34c01e5e0ec22" target="_top" xlink:title="Note that this routine performs the following matrix multiplies after getting the matrices back from ...">
<polygon fill="white" stroke="black" points="136,-0.5 136,-19.5 262,-19.5 262,-0.5 136,-0.5"/>
<text text-anchor="middle" x="199" y="-7.5" font-family="Helvetica,sans-Serif" font-size="10.00">load_semhat_weighted</text>
</a>
</g>
</g>
<!-- Node1&#45;&gt;Node9 -->
<g id="edge9" class="edge"><title>Node1&#45;&gt;Node9</title>
<path fill="none" stroke="midnightblue" d="M92.5433,-41.5653C115.901,-34.574 144.604,-25.9823 166.165,-19.5287"/>
<polygon fill="midnightblue" stroke="midnightblue" points="91.4732,-38.2321 82.8968,-44.4527 93.4805,-44.9381 91.4732,-38.2321"/>
</g>
<!-- Node3 -->
<g id="node3" class="node"><title>Node3</title>
<g id="a_node3"><a xlink:href="classhsmg__routines.html#a91e8aa59d56bbf05d75aa9c48bcd8977" target="_top" xlink:title="Sets up Poisson preconditioner. ">
<polygon fill="white" stroke="black" points="298,-88 298,-118 414,-118 414,-88 298,-88"/>
<text text-anchor="start" x="306" y="-106" font-family="Helvetica,sans-Serif" font-size="10.00">hsmg_routines::h1mg</text>
<text text-anchor="middle" x="356" y="-95" font-family="Helvetica,sans-Serif" font-size="10.00">_setup</text>
</a>
</g>
</g>
<!-- Node2&#45;&gt;Node3 -->
<g id="edge2" class="edge"><title>Node2&#45;&gt;Node3</title>
<path fill="none" stroke="midnightblue" d="M267.369,-103C277.569,-103 288.007,-103 297.96,-103"/>
<polygon fill="midnightblue" stroke="midnightblue" points="267.276,-99.5001 257.276,-103 267.276,-106.5 267.276,-99.5001"/>
</g>
<!-- Node4 -->
<g id="node4" class="node"><title>Node4</title>
<g id="a_node4"><a xlink:href="navier6_8F90.html#a45317b1def173b8f1db2e5083595d095" target="_top" xlink:title="Set up arrays for overlapping Schwartz algorithm for pressure solver ">
<polygon fill="white" stroke="black" points="450,-44.5 450,-63.5 522,-63.5 522,-44.5 450,-44.5"/>
<text text-anchor="middle" x="486" y="-51.5" font-family="Helvetica,sans-Serif" font-size="10.00">set_overlap</text>
</a>
</g>
</g>
<!-- Node3&#45;&gt;Node4 -->
<g id="edge3" class="edge"><title>Node3&#45;&gt;Node4</title>
<path fill="none" stroke="midnightblue" d="M405.905,-84.2784C424.366,-77.2114 444.604,-69.4642 459.987,-63.5754"/>
<polygon fill="midnightblue" stroke="midnightblue" points="404.536,-81.0547 396.449,-87.8986 407.039,-87.5921 404.536,-81.0547"/>
</g>
<!-- Node5 -->
<g id="node5" class="node"><title>Node5</title>
<g id="a_node5"><a xlink:href="drive1_8F90.html#a87bd37ae2c18426f28f35cc3f24e4355" target="_top" xlink:title="initialize nek ">
<polygon fill="white" stroke="black" points="558,-44.5 558,-63.5 611,-63.5 611,-44.5 558,-44.5"/>
<text text-anchor="middle" x="584.5" y="-51.5" font-family="Helvetica,sans-Serif" font-size="10.00">nek_init</text>
</a>
</g>
</g>
<!-- Node4&#45;&gt;Node5 -->
<g id="edge4" class="edge"><title>Node4&#45;&gt;Node5</title>
<path fill="none" stroke="midnightblue" d="M532.316,-54C541.12,-54 550.055,-54 557.943,-54"/>
<polygon fill="midnightblue" stroke="midnightblue" points="532.112,-50.5001 522.112,-54 532.112,-57.5001 532.112,-50.5001"/>
</g>
<!-- Node6 -->
<g id="node6" class="node"><title>Node6</title>
<g id="a_node6"><a xlink:href="drive_8F90.html#a13048bf28dd0734640412d69349e3857" target="_top" xlink:title="NEK5000: Spectral Element Computational Fluid Dynamics Solver COPYRIGHT (c) 2008&#45;2010 UCHICAGO ARGONN...">
<polygon fill="white" stroke="black" points="647,-44.5 647,-63.5 696,-63.5 696,-44.5 647,-44.5"/>
<text text-anchor="middle" x="671.5" y="-51.5" font-family="Helvetica,sans-Serif" font-size="10.00">nekton</text>
</a>
</g>
</g>
<!-- Node5&#45;&gt;Node6 -->
<g id="edge5" class="edge"><title>Node5&#45;&gt;Node6</title>
<path fill="none" stroke="midnightblue" d="M621.227,-54C629.846,-54 638.845,-54 646.759,-54"/>
<polygon fill="midnightblue" stroke="midnightblue" points="621.003,-50.5001 611.003,-54 621.003,-57.5001 621.003,-50.5001"/>
</g>
<!-- Node8 -->
<g id="node8" class="node"><title>Node8</title>
<g id="a_node8"><a xlink:href="classhsmg__routines.html#ac8f9bca9624d5e550d70acabfa8aef73" target="_top" xlink:title="Sets up hybrid Schwarz multi&#45;grid preconditioner. ">
<polygon fill="white" stroke="black" points="298,-39 298,-69 414,-69 414,-39 298,-39"/>
<text text-anchor="start" x="306" y="-57" font-family="Helvetica,sans-Serif" font-size="10.00">hsmg_routines::hsmg</text>
<text text-anchor="middle" x="356" y="-46" font-family="Helvetica,sans-Serif" font-size="10.00">_setup</text>
</a>
</g>
</g>
<!-- Node7&#45;&gt;Node8 -->
<g id="edge7" class="edge"><title>Node7&#45;&gt;Node8</title>
<path fill="none" stroke="midnightblue" d="M267.369,-54C277.569,-54 288.007,-54 297.96,-54"/>
<polygon fill="midnightblue" stroke="midnightblue" points="267.276,-50.5001 257.276,-54 267.276,-57.5001 267.276,-50.5001"/>
</g>
<!-- Node8&#45;&gt;Node4 -->
<g id="edge8" class="edge"><title>Node8&#45;&gt;Node4</title>
<path fill="none" stroke="midnightblue" d="M424.521,-54C433.26,-54 441.911,-54 449.82,-54"/>
<polygon fill="midnightblue" stroke="midnightblue" points="424.261,-50.5001 414.261,-54 424.261,-57.5001 424.261,-50.5001"/>
</g>
<!-- Node10 -->
<g id="node10" class="node"><title>Node10</title>
<g id="a_node10"><a xlink:href="fast3d_8F90.html#a65b70798668bd7b237bc2308bc4daede" target="_top" xlink:title="Generate fast diagonalization matrices for each element. ">
<polygon fill="white" stroke="black" points="305.5,-0.5 305.5,-19.5 406.5,-19.5 406.5,-0.5 305.5,-0.5"/>
<text text-anchor="middle" x="356" y="-7.5" font-family="Helvetica,sans-Serif" font-size="10.00">gen_fast_spacing</text>
</a>
</g>
</g>
<!-- Node9&#45;&gt;Node10 -->
<g id="edge10" class="edge"><title>Node9&#45;&gt;Node10</title>
<path fill="none" stroke="midnightblue" d="M272.312,-10C283.449,-10 294.729,-10 305.227,-10"/>
<polygon fill="midnightblue" stroke="midnightblue" points="272.151,-6.5001 262.151,-10 272.151,-13.5001 272.151,-6.5001"/>
</g>
<!-- Node10&#45;&gt;Node4 -->
<g id="edge11" class="edge"><title>Node10&#45;&gt;Node4</title>
<path fill="none" stroke="midnightblue" d="M395.548,-22.7515C401.724,-24.8229 408.042,-26.9583 414,-29 428.588,-33.9991 444.812,-39.7013 458.065,-44.3962"/>
<polygon fill="midnightblue" stroke="midnightblue" points="396.623,-19.4206 386.029,-19.5717 394.405,-26.06 396.623,-19.4206"/>
</g>
</g>
</svg>
