<?xml version="1.0" encoding="UTF-8" standalone="no"?>
<!DOCTYPE svg PUBLIC "-//W3C//DTD SVG 1.1//EN"
 "http://www.w3.org/Graphics/SVG/1.1/DTD/svg11.dtd">
<!-- Generated by graphviz version 2.38.0 (20140413.2041)
 -->
<!-- Title: get_fast_bc Pages: 1 -->
<svg width="850pt" height="132pt"
 viewBox="0.00 0.00 850.00 132.00" xmlns="http://www.w3.org/2000/svg" xmlns:xlink="http://www.w3.org/1999/xlink">
<g id="graph0" class="graph" transform="scale(1 1) rotate(0) translate(4 128)">
<title>get_fast_bc</title>
<polygon fill="white" stroke="none" points="-4,4 -4,-128 846,-128 846,4 -4,4"/>
<!-- Node1 -->
<g id="node1" class="node"><title>Node1</title>
<polygon fill="#bfbfbf" stroke="black" points="0,-74 0,-93 71,-93 71,-74 0,-74"/>
<text text-anchor="middle" x="35.5" y="-81" font-family="Helvetica,sans-Serif" font-size="10.00">get_fast_bc</text>
</g>
<!-- Node2 -->
<g id="node2" class="node"><title>Node2</title>
<g id="a_node2"><a xlink:href="classhsmg__routines.html#a3d85b7d52a610586965a8a3a9e574862" target="_top" xlink:title="hsmg_routines::h1mg\l_setup_mask">
<polygon fill="white" stroke="black" points="107,-93.5 107,-123.5 223,-123.5 223,-93.5 107,-93.5"/>
<text text-anchor="start" x="115" y="-111.5" font-family="Helvetica,sans-Serif" font-size="10.00">hsmg_routines::h1mg</text>
<text text-anchor="middle" x="165" y="-100.5" font-family="Helvetica,sans-Serif" font-size="10.00">_setup_mask</text>
</a>
</g>
</g>
<!-- Node1&#45;&gt;Node2 -->
<g id="edge1" class="edge"><title>Node1&#45;&gt;Node2</title>
<path fill="none" stroke="midnightblue" d="M80.9284,-92.2114C89.301,-93.8531 98.1647,-95.5911 106.862,-97.2965"/>
<polygon fill="midnightblue" stroke="midnightblue" points="81.49,-88.755 71.0033,-90.2654 80.143,-95.6242 81.49,-88.755"/>
</g>
<!-- Node8 -->
<g id="node8" class="node"><title>Node8</title>
<g id="a_node8"><a xlink:href="classhsmg__routines.html#aee2a36eea92adb36ec686ee9652216e9" target="_top" xlink:title="not sure ">
<polygon fill="white" stroke="black" points="107,-44.5 107,-74.5 223,-74.5 223,-44.5 107,-44.5"/>
<text text-anchor="start" x="115" y="-62.5" font-family="Helvetica,sans-Serif" font-size="10.00">hsmg_routines::hsmg</text>
<text text-anchor="middle" x="165" y="-51.5" font-family="Helvetica,sans-Serif" font-size="10.00">_setup_fast</text>
</a>
</g>
</g>
<!-- Node1&#45;&gt;Node8 -->
<g id="edge7" class="edge"><title>Node1&#45;&gt;Node8</title>
<path fill="none" stroke="midnightblue" d="M80.9284,-75.137C89.301,-73.561 98.1647,-71.8925 106.862,-70.2553"/>
<polygon fill="midnightblue" stroke="midnightblue" points="80.1833,-71.7157 71.0033,-77.0053 81.4782,-78.5949 80.1833,-71.7157"/>
</g>
<!-- Node3 -->
<g id="node3" class="node"><title>Node3</title>
<g id="a_node3"><a xlink:href="classhsmg__routines.html#a10a1b85712e207e590a20ca4221c781d" target="_top" xlink:title="hsmg_routines::mg_set_msk">
<polygon fill="white" stroke="black" points="259,-99 259,-118 408,-118 408,-99 259,-99"/>
<text text-anchor="middle" x="333.5" y="-106" font-family="Helvetica,sans-Serif" font-size="10.00">hsmg_routines::mg_set_msk</text>
</a>
</g>
</g>
<!-- Node2&#45;&gt;Node3 -->
<g id="edge2" class="edge"><title>Node2&#45;&gt;Node3</title>
<path fill="none" stroke="midnightblue" d="M233.411,-108.5C241.811,-108.5 250.434,-108.5 258.922,-108.5"/>
<polygon fill="midnightblue" stroke="midnightblue" points="233.3,-105 223.3,-108.5 233.3,-112 233.3,-105"/>
</g>
<!-- Node4 -->
<g id="node4" class="node"><title>Node4</title>
<g id="a_node4"><a xlink:href="classhsmg__routines.html#a91e8aa59d56bbf05d75aa9c48bcd8977" target="_top" xlink:title="Sets up Poisson preconditioner. ">
<polygon fill="white" stroke="black" points="444,-49.5 444,-79.5 560,-79.5 560,-49.5 444,-49.5"/>
<text text-anchor="start" x="452" y="-67.5" font-family="Helvetica,sans-Serif" font-size="10.00">hsmg_routines::h1mg</text>
<text text-anchor="middle" x="502" y="-56.5" font-family="Helvetica,sans-Serif" font-size="10.00">_setup</text>
</a>
</g>
</g>
<!-- Node3&#45;&gt;Node4 -->
<g id="edge3" class="edge"><title>Node3&#45;&gt;Node4</title>
<path fill="none" stroke="midnightblue" d="M381.631,-96.3884C390.4,-94.1145 399.481,-91.746 408,-89.5 420.125,-86.3032 433.128,-82.8338 445.453,-79.5258"/>
<polygon fill="midnightblue" stroke="midnightblue" points="380.714,-93.0103 371.91,-98.9039 382.467,-99.7871 380.714,-93.0103"/>
</g>
<!-- Node5 -->
<g id="node5" class="node"><title>Node5</title>
<g id="a_node5"><a xlink:href="navier6_8F90.html#a45317b1def173b8f1db2e5083595d095" target="_top" xlink:title="Set up arrays for overlapping Schwartz algorithm for pressure solver ">
<polygon fill="white" stroke="black" points="596,-30 596,-49 668,-49 668,-30 596,-30"/>
<text text-anchor="middle" x="632" y="-37" font-family="Helvetica,sans-Serif" font-size="10.00">set_overlap</text>
</a>
</g>
</g>
<!-- Node4&#45;&gt;Node5 -->
<g id="edge4" class="edge"><title>Node4&#45;&gt;Node5</title>
<path fill="none" stroke="midnightblue" d="M570.236,-51.368C579.072,-49.6423 587.825,-47.9326 595.82,-46.3711"/>
<polygon fill="midnightblue" stroke="midnightblue" points="569.405,-47.9641 560.261,-53.3162 570.747,-54.8343 569.405,-47.9641"/>
</g>
<!-- Node6 -->
<g id="node6" class="node"><title>Node6</title>
<g id="a_node6"><a xlink:href="drive1_8F90.html#a87bd37ae2c18426f28f35cc3f24e4355" target="_top" xlink:title="initialize nek ">
<polygon fill="white" stroke="black" points="704,-30 704,-49 757,-49 757,-30 704,-30"/>
<text text-anchor="middle" x="730.5" y="-37" font-family="Helvetica,sans-Serif" font-size="10.00">nek_init</text>
</a>
</g>
</g>
<!-- Node5&#45;&gt;Node6 -->
<g id="edge5" class="edge"><title>Node5&#45;&gt;Node6</title>
<path fill="none" stroke="midnightblue" d="M678.316,-39.5C687.12,-39.5 696.055,-39.5 703.943,-39.5"/>
<polygon fill="midnightblue" stroke="midnightblue" points="678.112,-36.0001 668.112,-39.5 678.112,-43.0001 678.112,-36.0001"/>
</g>
<!-- Node7 -->
<g id="node7" class="node"><title>Node7</title>
<g id="a_node7"><a xlink:href="drive_8F90.html#a13048bf28dd0734640412d69349e3857" target="_top" xlink:title="NEK5000: Spectral Element Computational Fluid Dynamics Solver COPYRIGHT (c) 2008&#45;2010 UCHICAGO ARGONN...">
<polygon fill="white" stroke="black" points="793,-30 793,-49 842,-49 842,-30 793,-30"/>
<text text-anchor="middle" x="817.5" y="-37" font-family="Helvetica,sans-Serif" font-size="10.00">nekton</text>
</a>
</g>
</g>
<!-- Node6&#45;&gt;Node7 -->
<g id="edge6" class="edge"><title>Node6&#45;&gt;Node7</title>
<path fill="none" stroke="midnightblue" d="M767.227,-39.5C775.846,-39.5 784.845,-39.5 792.759,-39.5"/>
<polygon fill="midnightblue" stroke="midnightblue" points="767.003,-36.0001 757.003,-39.5 767.003,-43.0001 767.003,-36.0001"/>
</g>
<!-- Node9 -->
<g id="node9" class="node"><title>Node9</title>
<g id="a_node9"><a xlink:href="classhsmg__routines.html#a58ef718e49a3f4848c3d51307bbccfe0" target="_top" xlink:title="hsmg_routines::h1mg\l_setup_fdm">
<polygon fill="white" stroke="black" points="275.5,-49.5 275.5,-79.5 391.5,-79.5 391.5,-49.5 275.5,-49.5"/>
<text text-anchor="start" x="283.5" y="-67.5" font-family="Helvetica,sans-Serif" font-size="10.00">hsmg_routines::h1mg</text>
<text text-anchor="middle" x="333.5" y="-56.5" font-family="Helvetica,sans-Serif" font-size="10.00">_setup_fdm</text>
</a>
</g>
</g>
<!-- Node8&#45;&gt;Node9 -->
<g id="edge8" class="edge"><title>Node8&#45;&gt;Node9</title>
<path fill="none" stroke="midnightblue" d="M233.322,-61.5217C247.27,-61.9405 261.836,-62.378 275.377,-62.7846"/>
<polygon fill="midnightblue" stroke="midnightblue" points="233.4,-58.0226 223.3,-61.2207 233.19,-65.0194 233.4,-58.0226"/>
</g>
<!-- Node10 -->
<g id="node10" class="node"><title>Node10</title>
<g id="a_node10"><a xlink:href="classhsmg__routines.html#a96f7ef907486d4f298d8ac372aeddf5e" target="_top" xlink:title="hsmg_routines::hsmg\l_setup_fdm">
<polygon fill="white" stroke="black" points="275.5,-0.5 275.5,-30.5 391.5,-30.5 391.5,-0.5 275.5,-0.5"/>
<text text-anchor="start" x="283.5" y="-18.5" font-family="Helvetica,sans-Serif" font-size="10.00">hsmg_routines::hsmg</text>
<text text-anchor="middle" x="333.5" y="-7.5" font-family="Helvetica,sans-Serif" font-size="10.00">_setup_fdm</text>
</a>
</g>
</g>
<!-- Node8&#45;&gt;Node10 -->
<g id="edge10" class="edge"><title>Node8&#45;&gt;Node10</title>
<path fill="none" stroke="midnightblue" d="M232.578,-41.9059C246.84,-38.1368 261.784,-34.1878 275.639,-30.5262"/>
<polygon fill="midnightblue" stroke="midnightblue" points="231.608,-38.5419 222.834,-44.4808 233.397,-45.3096 231.608,-38.5419"/>
</g>
<!-- Node9&#45;&gt;Node4 -->
<g id="edge9" class="edge"><title>Node9&#45;&gt;Node4</title>
<path fill="none" stroke="midnightblue" d="M401.822,-64.5C415.77,-64.5 430.336,-64.5 443.877,-64.5"/>
<polygon fill="midnightblue" stroke="midnightblue" points="401.8,-61.0001 391.8,-64.5 401.8,-68.0001 401.8,-61.0001"/>
</g>
<!-- Node11 -->
<g id="node11" class="node"><title>Node11</title>
<g id="a_node11"><a xlink:href="classhsmg__routines.html#ac8f9bca9624d5e550d70acabfa8aef73" target="_top" xlink:title="Sets up hybrid Schwarz multi&#45;grid preconditioner. ">
<polygon fill="white" stroke="black" points="444,-0.5 444,-30.5 560,-30.5 560,-0.5 444,-0.5"/>
<text text-anchor="start" x="452" y="-18.5" font-family="Helvetica,sans-Serif" font-size="10.00">hsmg_routines::hsmg</text>
<text text-anchor="middle" x="502" y="-7.5" font-family="Helvetica,sans-Serif" font-size="10.00">_setup</text>
</a>
</g>
</g>
<!-- Node10&#45;&gt;Node11 -->
<g id="edge11" class="edge"><title>Node10&#45;&gt;Node11</title>
<path fill="none" stroke="midnightblue" d="M401.822,-15.5C415.77,-15.5 430.336,-15.5 443.877,-15.5"/>
<polygon fill="midnightblue" stroke="midnightblue" points="401.8,-12.0001 391.8,-15.5 401.8,-19.0001 401.8,-12.0001"/>
</g>
<!-- Node11&#45;&gt;Node5 -->
<g id="edge12" class="edge"><title>Node11&#45;&gt;Node5</title>
<path fill="none" stroke="midnightblue" d="M570.236,-28.1067C579.072,-29.7634 587.825,-31.4047 595.82,-32.9037"/>
<polygon fill="midnightblue" stroke="midnightblue" points="570.735,-24.6394 560.261,-26.2365 569.445,-31.5195 570.735,-24.6394"/>
</g>
</g>
</svg>
