<?xml version="1.0" encoding="UTF-8" standalone="no"?>
<!DOCTYPE svg PUBLIC "-//W3C//DTD SVG 1.1//EN"
 "http://www.w3.org/Graphics/SVG/1.1/DTD/svg11.dtd">
<!-- Generated by graphviz version 2.38.0 (20140413.2041)
 -->
<!-- Title: tensr3 Pages: 1 -->
<svg width="946pt" height="66pt"
 viewBox="0.00 0.00 946.00 66.00" xmlns="http://www.w3.org/2000/svg" xmlns:xlink="http://www.w3.org/1999/xlink">
<g id="graph0" class="graph" transform="scale(1 1) rotate(0) translate(4 62)">
<title>tensr3</title>
<polygon fill="white" stroke="none" points="-4,4 -4,-62 942,-62 942,4 -4,4"/>
<!-- Node1 -->
<g id="node1" class="node"><title>Node1</title>
<polygon fill="#bfbfbf" stroke="black" points="0,-19.5 0,-38.5 47,-38.5 47,-19.5 0,-19.5"/>
<text text-anchor="middle" x="23.5" y="-26.5" font-family="Helvetica,sans-Serif" font-size="10.00">tensr3</text>
</g>
<!-- Node2 -->
<g id="node2" class="node"><title>Node2</title>
<g id="a_node2"><a xlink:href="genxyz_8F90.html#a16eca2a8f6bca6167dcfa98ff3eac09c" target="_top" xlink:title="Generate bi&#45; or trilinear mesh. ">
<polygon fill="white" stroke="black" points="83,-19.5 83,-38.5 126,-38.5 126,-19.5 83,-19.5"/>
<text text-anchor="middle" x="104.5" y="-26.5" font-family="Helvetica,sans-Serif" font-size="10.00">xyzlin</text>
</a>
</g>
</g>
<!-- Node1&#45;&gt;Node2 -->
<g id="edge1" class="edge"><title>Node1&#45;&gt;Node2</title>
<path fill="none" stroke="midnightblue" d="M57.507,-29C66.0981,-29 75.1105,-29 82.8581,-29"/>
<polygon fill="midnightblue" stroke="midnightblue" points="57.3501,-25.5001 47.3501,-29 57.35,-32.5001 57.3501,-25.5001"/>
</g>
<!-- Node3 -->
<g id="node3" class="node"><title>Node3</title>
<g id="a_node3"><a xlink:href="genxyz_8F90.html#a68c86aab3d5439b8cdc8368eed562f9c" target="_top" xlink:title="linquad">
<polygon fill="white" stroke="black" points="162,-19.5 162,-38.5 212,-38.5 212,-19.5 162,-19.5"/>
<text text-anchor="middle" x="187" y="-26.5" font-family="Helvetica,sans-Serif" font-size="10.00">linquad</text>
</a>
</g>
</g>
<!-- Node2&#45;&gt;Node3 -->
<g id="edge2" class="edge"><title>Node2&#45;&gt;Node3</title>
<path fill="none" stroke="midnightblue" d="M136.486,-29C144.919,-29 153.926,-29 161.914,-29"/>
<polygon fill="midnightblue" stroke="midnightblue" points="136.231,-25.5001 126.231,-29 136.231,-32.5001 136.231,-25.5001"/>
</g>
<!-- Node4 -->
<g id="node4" class="node"><title>Node4</title>
<g id="a_node4"><a xlink:href="genxyz_8F90.html#a10f2e4b6c10053ac6abb2cd014cb8d44" target="_top" xlink:title="genxyz">
<polygon fill="white" stroke="black" points="248,-19.5 248,-38.5 298,-38.5 298,-19.5 248,-19.5"/>
<text text-anchor="middle" x="273" y="-26.5" font-family="Helvetica,sans-Serif" font-size="10.00">genxyz</text>
</a>
</g>
</g>
<!-- Node3&#45;&gt;Node4 -->
<g id="edge3" class="edge"><title>Node3&#45;&gt;Node4</title>
<path fill="none" stroke="midnightblue" d="M222.372,-29C230.89,-29 239.84,-29 247.758,-29"/>
<polygon fill="midnightblue" stroke="midnightblue" points="222.296,-25.5001 212.296,-29 222.296,-32.5001 222.296,-25.5001"/>
</g>
<!-- Node5 -->
<g id="node5" class="node"><title>Node5</title>
<g id="a_node5"><a xlink:href="genxyz_8F90.html#ac052be67f860f3e498c6200cba496ce6" target="_top" xlink:title="Generate xyz coordinates for all elements. Velocity formulation : mesh 3 is used Stress formulation :...">
<polygon fill="white" stroke="black" points="334,-19.5 334,-38.5 390,-38.5 390,-19.5 334,-19.5"/>
<text text-anchor="middle" x="362" y="-26.5" font-family="Helvetica,sans-Serif" font-size="10.00">gencoor</text>
</a>
</g>
</g>
<!-- Node4&#45;&gt;Node5 -->
<g id="edge4" class="edge"><title>Node4&#45;&gt;Node5</title>
<path fill="none" stroke="midnightblue" d="M308.256,-29C316.748,-29 325.733,-29 333.834,-29"/>
<polygon fill="midnightblue" stroke="midnightblue" points="308.234,-25.5001 298.234,-29 308.234,-32.5001 308.234,-25.5001"/>
</g>
<!-- Node6 -->
<g id="node6" class="node"><title>Node6</title>
<g id="a_node6"><a xlink:href="drive2_8F90.html#aefc07385d7e7539fb57662470f694136" target="_top" xlink:title="Generate geometry data. ">
<polygon fill="white" stroke="black" points="426,-19.5 426,-38.5 487,-38.5 487,-19.5 426,-19.5"/>
<text text-anchor="middle" x="456.5" y="-26.5" font-family="Helvetica,sans-Serif" font-size="10.00">gengeom</text>
</a>
</g>
</g>
<!-- Node5&#45;&gt;Node6 -->
<g id="edge5" class="edge"><title>Node5&#45;&gt;Node6</title>
<path fill="none" stroke="midnightblue" d="M400.327,-29C408.822,-29 417.735,-29 425.859,-29"/>
<polygon fill="midnightblue" stroke="midnightblue" points="400.253,-25.5001 390.253,-29 400.253,-32.5001 400.253,-25.5001"/>
</g>
<!-- Node7 -->
<g id="node7" class="node"><title>Node7</title>
<g id="a_node7"><a xlink:href="drive1_8F90.html#ae177ea7efac97f35241521b782a671c0" target="_top" xlink:title="take a single time&#45;step ">
<polygon fill="white" stroke="black" points="523,-38.5 523,-57.5 603,-57.5 603,-38.5 523,-38.5"/>
<text text-anchor="middle" x="563" y="-45.5" font-family="Helvetica,sans-Serif" font-size="10.00">nek_advance</text>
</a>
</g>
</g>
<!-- Node6&#45;&gt;Node7 -->
<g id="edge6" class="edge"><title>Node6&#45;&gt;Node7</title>
<path fill="none" stroke="midnightblue" d="M497.153,-36.2096C505.581,-37.7421 514.475,-39.3591 522.884,-40.8879"/>
<polygon fill="midnightblue" stroke="midnightblue" points="497.631,-32.7392 487.166,-34.3938 496.379,-39.6263 497.631,-32.7392"/>
</g>
<!-- Node11 -->
<g id="node11" class="node"><title>Node11</title>
<g id="a_node11"><a xlink:href="drive1_8F90.html#a87bd37ae2c18426f28f35cc3f24e4355" target="_top" xlink:title="initialize nek ">
<polygon fill="white" stroke="black" points="669,-0.5 669,-19.5 722,-19.5 722,-0.5 669,-0.5"/>
<text text-anchor="middle" x="695.5" y="-7.5" font-family="Helvetica,sans-Serif" font-size="10.00">nek_init</text>
</a>
</g>
</g>
<!-- Node6&#45;&gt;Node11 -->
<g id="edge10" class="edge"><title>Node6&#45;&gt;Node11</title>
<path fill="none" stroke="midnightblue" d="M497.242,-25.814C546.128,-21.8948 627.695,-15.3557 668.945,-12.0487"/>
<polygon fill="midnightblue" stroke="midnightblue" points="496.725,-22.344 487.037,-26.6321 497.285,-29.3216 496.725,-22.344"/>
</g>
<!-- Node8 -->
<g id="node8" class="node"><title>Node8</title>
<g id="a_node8"><a xlink:href="drive1_8F90.html#a18d3e839786263fc4cf91f7eeb714371" target="_top" xlink:title="take a chunk of time&#45;steps ">
<polygon fill="white" stroke="black" points="639,-38.5 639,-57.5 752,-57.5 752,-38.5 639,-38.5"/>
<text text-anchor="middle" x="695.5" y="-45.5" font-family="Helvetica,sans-Serif" font-size="10.00">nek__multi_advance</text>
</a>
</g>
</g>
<!-- Node7&#45;&gt;Node8 -->
<g id="edge7" class="edge"><title>Node7&#45;&gt;Node8</title>
<path fill="none" stroke="midnightblue" d="M613.191,-48C621.607,-48 630.403,-48 638.97,-48"/>
<polygon fill="midnightblue" stroke="midnightblue" points="613.154,-44.5001 603.154,-48 613.154,-51.5001 613.154,-44.5001"/>
</g>
<!-- Node9 -->
<g id="node9" class="node"><title>Node9</title>
<g id="a_node9"><a xlink:href="drive1_8F90.html#a6ad57e0cf728f343e371ef8c9a02cd8a" target="_top" xlink:title="integrate the governing equations in time ">
<polygon fill="white" stroke="black" points="788,-38.5 788,-57.5 853,-57.5 853,-38.5 788,-38.5"/>
<text text-anchor="middle" x="820.5" y="-45.5" font-family="Helvetica,sans-Serif" font-size="10.00">nek_solve</text>
</a>
</g>
</g>
<!-- Node8&#45;&gt;Node9 -->
<g id="edge8" class="edge"><title>Node8&#45;&gt;Node9</title>
<path fill="none" stroke="midnightblue" d="M762.282,-48C771.164,-48 779.927,-48 787.824,-48"/>
<polygon fill="midnightblue" stroke="midnightblue" points="762.242,-44.5001 752.242,-48 762.242,-51.5001 762.242,-44.5001"/>
</g>
<!-- Node10 -->
<g id="node10" class="node"><title>Node10</title>
<g id="a_node10"><a xlink:href="drive_8F90.html#a13048bf28dd0734640412d69349e3857" target="_top" xlink:title="NEK5000: Spectral Element Computational Fluid Dynamics Solver COPYRIGHT (c) 2008&#45;2010 UCHICAGO ARGONN...">
<polygon fill="white" stroke="black" points="889,-19.5 889,-38.5 938,-38.5 938,-19.5 889,-19.5"/>
<text text-anchor="middle" x="913.5" y="-26.5" font-family="Helvetica,sans-Serif" font-size="10.00">nekton</text>
</a>
</g>
</g>
<!-- Node9&#45;&gt;Node10 -->
<g id="edge9" class="edge"><title>Node9&#45;&gt;Node10</title>
<path fill="none" stroke="midnightblue" d="M862.906,-39.3548C871.759,-37.5064 880.82,-35.6146 888.734,-33.9622"/>
<polygon fill="midnightblue" stroke="midnightblue" points="862.146,-35.938 853.072,-41.408 863.576,-42.7902 862.146,-35.938"/>
</g>
<!-- Node11&#45;&gt;Node10 -->
<g id="edge11" class="edge"><title>Node11&#45;&gt;Node10</title>
<path fill="none" stroke="midnightblue" d="M732.181,-13.1386C776.547,-17.0412 851.036,-23.5935 888.886,-26.9228"/>
<polygon fill="midnightblue" stroke="midnightblue" points="732.395,-9.64396 722.126,-12.2542 731.781,-16.617 732.395,-9.64396"/>
</g>
</g>
</svg>
