<?xml version="1.0" encoding="UTF-8" standalone="no"?>
<!DOCTYPE svg PUBLIC "-//W3C//DTD SVG 1.1//EN"
 "http://www.w3.org/Graphics/SVG/1.1/DTD/svg11.dtd">
<!-- Generated by graphviz version 2.38.0 (20140413.2041)
 -->
<!-- Title: get_edge Pages: 1 -->
<svg width="517pt" height="66pt"
 viewBox="0.00 0.00 517.00 66.00" xmlns="http://www.w3.org/2000/svg" xmlns:xlink="http://www.w3.org/1999/xlink">
<g id="graph0" class="graph" transform="scale(1 1) rotate(0) translate(4 62)">
<title>get_edge</title>
<polygon fill="white" stroke="none" points="-4,4 -4,-62 513,-62 513,4 -4,4"/>
<!-- Node1 -->
<g id="node1" class="node"><title>Node1</title>
<polygon fill="#bfbfbf" stroke="black" points="0,-19.5 0,-38.5 62,-38.5 62,-19.5 0,-19.5"/>
<text text-anchor="middle" x="31" y="-26.5" font-family="Helvetica,sans-Serif" font-size="10.00">get_edge</text>
</g>
<!-- Node2 -->
<g id="node2" class="node"><title>Node2</title>
<g id="a_node2"><a xlink:href="findpts__el__3_8c.html#a196411139d99d1bb50c742501192796a" target="_top" xlink:title="compute_pt_data">
<polygon fill="white" stroke="black" points="98,-38.5 98,-57.5 196,-57.5 196,-38.5 98,-38.5"/>
<text text-anchor="middle" x="147" y="-45.5" font-family="Helvetica,sans-Serif" font-size="10.00">compute_pt_data</text>
</a>
</g>
</g>
<!-- Node1&#45;&gt;Node2 -->
<g id="edge1" class="edge"><title>Node1&#45;&gt;Node2</title>
<path fill="none" stroke="midnightblue" d="M72.1187,-35.6864C80.4694,-37.0782 89.3515,-38.5586 97.9545,-39.9924"/>
<polygon fill="midnightblue" stroke="midnightblue" points="72.69,-32.2335 62.2506,-34.0418 71.5391,-39.1382 72.69,-32.2335"/>
</g>
<!-- Node6 -->
<g id="node6" class="node"><title>Node6</title>
<g id="a_node6"><a xlink:href="findpts__el__3_8c.html#af1a3eb77cfbd30da8225576a88a12cd0" target="_top" xlink:title="findpt_edge">
<polygon fill="white" stroke="black" points="232,-0.5 232,-19.5 305,-19.5 305,-0.5 232,-0.5"/>
<text text-anchor="middle" x="268.5" y="-7.5" font-family="Helvetica,sans-Serif" font-size="10.00">findpt_edge</text>
</a>
</g>
</g>
<!-- Node1&#45;&gt;Node6 -->
<g id="edge5" class="edge"><title>Node1&#45;&gt;Node6</title>
<path fill="none" stroke="midnightblue" d="M72.2762,-25.7505C117.161,-22.1293 189.048,-16.3295 231.93,-12.8697"/>
<polygon fill="midnightblue" stroke="midnightblue" points="71.9915,-22.262 62.3054,-26.555 72.5545,-29.2394 71.9915,-22.262"/>
</g>
<!-- Node3 -->
<g id="node3" class="node"><title>Node3</title>
<g id="a_node3"><a xlink:href="findpts__el__3_8c.html#aa8ed83eb48038a2dd41b03fadadee562" target="_top" xlink:title="get_pt">
<polygon fill="white" stroke="black" points="245,-38.5 245,-57.5 292,-57.5 292,-38.5 245,-38.5"/>
<text text-anchor="middle" x="268.5" y="-45.5" font-family="Helvetica,sans-Serif" font-size="10.00">get_pt</text>
</a>
</g>
</g>
<!-- Node2&#45;&gt;Node3 -->
<g id="edge2" class="edge"><title>Node2&#45;&gt;Node3</title>
<path fill="none" stroke="midnightblue" d="M206.633,-48C220.279,-48 234.002,-48 244.955,-48"/>
<polygon fill="midnightblue" stroke="midnightblue" points="206.261,-44.5001 196.261,-48 206.261,-51.5001 206.261,-44.5001"/>
</g>
<!-- Node4 -->
<g id="node4" class="node"><title>Node4</title>
<g id="a_node4"><a xlink:href="findpts__el__3_8c.html#a45011f1c9ad5e46c578da17c3c306d0f" target="_top" xlink:title="findpt_pt">
<polygon fill="white" stroke="black" points="341,-38.5 341,-57.5 399,-57.5 399,-38.5 341,-38.5"/>
<text text-anchor="middle" x="370" y="-45.5" font-family="Helvetica,sans-Serif" font-size="10.00">findpt_pt</text>
</a>
</g>
</g>
<!-- Node3&#45;&gt;Node4 -->
<g id="edge3" class="edge"><title>Node3&#45;&gt;Node4</title>
<path fill="none" stroke="midnightblue" d="M302.111,-48C314.614,-48 328.762,-48 340.816,-48"/>
<polygon fill="midnightblue" stroke="midnightblue" points="302.078,-44.5001 292.078,-48 302.078,-51.5001 302.078,-44.5001"/>
</g>
<!-- Node5 -->
<g id="node5" class="node"><title>Node5</title>
<g id="a_node5"><a xlink:href="findpts__el__3_8c.html#a3ed659b9d68af3919368cbdc12649730" target="_top" xlink:title="findpts_el_3">
<polygon fill="white" stroke="black" points="435,-19.5 435,-38.5 509,-38.5 509,-19.5 435,-19.5"/>
<text text-anchor="middle" x="472" y="-26.5" font-family="Helvetica,sans-Serif" font-size="10.00">findpts_el_3</text>
</a>
</g>
</g>
<!-- Node4&#45;&gt;Node5 -->
<g id="edge4" class="edge"><title>Node4&#45;&gt;Node5</title>
<path fill="none" stroke="midnightblue" d="M409.119,-40.7575C417.567,-39.1523 426.496,-37.4558 434.862,-35.8662"/>
<polygon fill="midnightblue" stroke="midnightblue" points="408.293,-37.3517 399.122,-42.6569 409.599,-44.2287 408.293,-37.3517"/>
</g>
<!-- Node6&#45;&gt;Node5 -->
<g id="edge6" class="edge"><title>Node6&#45;&gt;Node5</title>
<path fill="none" stroke="midnightblue" d="M315.352,-14.3235C351.545,-17.7362 401.344,-22.4319 434.777,-25.5844"/>
<polygon fill="midnightblue" stroke="midnightblue" points="315.345,-10.8074 305.06,-13.3531 314.688,-17.7765 315.345,-10.8074"/>
</g>
</g>
</svg>
