<?xml version="1.0" encoding="UTF-8" standalone="no"?>
<!DOCTYPE svg PUBLIC "-//W3C//DTD SVG 1.1//EN"
 "http://www.w3.org/Graphics/SVG/1.1/DTD/svg11.dtd">
<!-- Generated by graphviz version 2.38.0 (20140413.2041)
 -->
<!-- Title: findpts_el_2 Pages: 1 -->
<svg width="628pt" height="702pt"
 viewBox="0.00 0.00 628.00 702.00" xmlns="http://www.w3.org/2000/svg" xmlns:xlink="http://www.w3.org/1999/xlink">
<g id="graph0" class="graph" transform="scale(1 1) rotate(0) translate(4 698)">
<title>findpts_el_2</title>
<polygon fill="white" stroke="none" points="-4,4 -4,-698 624,-698 624,4 -4,4"/>
<!-- Node1 -->
<g id="node1" class="node"><title>Node1</title>
<polygon fill="#bfbfbf" stroke="black" points="0,-199.5 0,-218.5 74,-218.5 74,-199.5 0,-199.5"/>
<text text-anchor="middle" x="37" y="-206.5" font-family="Helvetica,sans-Serif" font-size="10.00">findpts_el_2</text>
</g>
<!-- Node2 -->
<g id="node2" class="node"><title>Node2</title>
<g id="a_node2"><a xlink:href="findpts__el__2_8c.html#a2bc5f8c39f8aeb300a6b30d313903bf4" target="_top" xlink:title="findpt_area">
<polygon fill="white" stroke="black" points="119,-313.5 119,-332.5 190,-332.5 190,-313.5 119,-313.5"/>
<text text-anchor="middle" x="154.5" y="-320.5" font-family="Helvetica,sans-Serif" font-size="10.00">findpt_area</text>
</a>
</g>
</g>
<!-- Node1&#45;&gt;Node2 -->
<g id="edge1" class="edge"><title>Node1&#45;&gt;Node2</title>
<path fill="none" stroke="midnightblue" d="M47.8475,-218.72C67.5377,-238.154 111.972,-282.011 136.478,-306.199"/>
<polygon fill="midnightblue" stroke="midnightblue" points="134.102,-308.771 143.677,-313.305 139.019,-303.789 134.102,-308.771"/>
</g>
<!-- Node8 -->
<g id="node8" class="node"><title>Node8</title>
<g id="a_node8"><a xlink:href="findpts__el__2_8c.html#ab1e1697a00c290763fcf744b73cf3b03" target="_top" xlink:title="num_constrained">
<polygon fill="white" stroke="black" points="398.5,-448.5 398.5,-467.5 496.5,-467.5 496.5,-448.5 398.5,-448.5"/>
<text text-anchor="middle" x="447.5" y="-455.5" font-family="Helvetica,sans-Serif" font-size="10.00">num_constrained</text>
</a>
</g>
</g>
<!-- Node1&#45;&gt;Node8 -->
<g id="edge31" class="edge"><title>Node1&#45;&gt;Node8</title>
<path fill="none" stroke="midnightblue" d="M74.0296,-206.602C138.665,-204.411 274.506,-209.754 349,-285 398.452,-334.951 337.067,-387.589 385,-439 386.4,-440.502 387.916,-441.886 389.524,-443.162"/>
<polygon fill="midnightblue" stroke="midnightblue" points="387.902,-446.277 398.221,-448.678 391.651,-440.366 387.902,-446.277"/>
</g>
<!-- Node13 -->
<g id="node13" class="node"><title>Node13</title>
<g id="a_node13"><a xlink:href="findpts__el__2_8c.html#a702f44e1b9ffb116fc271defdbfa0a00" target="_top" xlink:title="findpt_edge">
<polygon fill="white" stroke="black" points="118,-541.5 118,-560.5 191,-560.5 191,-541.5 118,-541.5"/>
<text text-anchor="middle" x="154.5" y="-548.5" font-family="Helvetica,sans-Serif" font-size="10.00">findpt_edge</text>
</a>
</g>
</g>
<!-- Node1&#45;&gt;Node13 -->
<g id="edge12" class="edge"><title>Node1&#45;&gt;Node13</title>
<path fill="none" stroke="midnightblue" d="M40.2578,-218.584C48.2194,-251.903 76.3271,-365.587 110,-456 120.143,-483.234 134.627,-513.587 144.046,-532.489"/>
<polygon fill="midnightblue" stroke="midnightblue" points="140.954,-534.131 148.58,-541.487 147.206,-530.981 140.954,-534.131"/>
</g>
<!-- Node19 -->
<g id="node19" class="node"><title>Node19</title>
<g id="a_node19"><a xlink:href="findpts__el__2_8c.html#a210a90144657b76da9efd04736820849" target="_top" xlink:title="findpt_pt">
<polygon fill="white" stroke="black" points="125.5,-427.5 125.5,-446.5 183.5,-446.5 183.5,-427.5 125.5,-427.5"/>
<text text-anchor="middle" x="154.5" y="-434.5" font-family="Helvetica,sans-Serif" font-size="10.00">findpt_pt</text>
</a>
</g>
</g>
<!-- Node1&#45;&gt;Node19 -->
<g id="edge23" class="edge"><title>Node1&#45;&gt;Node19</title>
<path fill="none" stroke="midnightblue" d="M42.8158,-218.507C60.317,-253.054 120.744,-372.338 144.143,-418.528"/>
<polygon fill="midnightblue" stroke="midnightblue" points="141.022,-420.114 148.664,-427.453 147.267,-416.95 141.022,-420.114"/>
</g>
<!-- Node23 -->
<g id="node23" class="node"><title>Node23</title>
<g id="a_node23"><a xlink:href="findpts__el__2_8c.html#a09d9f4d1044c1f648b4d9ae98aed4cbd" target="_top" xlink:title="pt_flags_to_bin">
<polygon fill="white" stroke="black" points="110,-142.5 110,-161.5 199,-161.5 199,-142.5 110,-142.5"/>
<text text-anchor="middle" x="154.5" y="-149.5" font-family="Helvetica,sans-Serif" font-size="10.00">pt_flags_to_bin</text>
</a>
</g>
</g>
<!-- Node1&#45;&gt;Node23 -->
<g id="edge32" class="edge"><title>Node1&#45;&gt;Node23</title>
<path fill="none" stroke="midnightblue" d="M57.3321,-199.459C75.8211,-190.335 103.925,-176.466 124.984,-166.073"/>
<polygon fill="midnightblue" stroke="midnightblue" points="126.686,-169.136 134.105,-161.572 123.588,-162.859 126.686,-169.136"/>
</g>
<!-- Node24 -->
<g id="node24" class="node"><title>Node24</title>
<g id="a_node24"><a xlink:href="findpts__el__2_8c.html#a659697ad321a196ef1dd423aadc401c6" target="_top" xlink:title="pt_flags_to_bin_noC">
<polygon fill="white" stroke="black" points="235,-161.5 235,-180.5 349,-180.5 349,-161.5 235,-161.5"/>
<text text-anchor="middle" x="292" y="-168.5" font-family="Helvetica,sans-Serif" font-size="10.00">pt_flags_to_bin_noC</text>
</a>
</g>
</g>
<!-- Node1&#45;&gt;Node24 -->
<g id="edge34" class="edge"><title>Node1&#45;&gt;Node24</title>
<path fill="none" stroke="midnightblue" d="M74.2487,-203.556C113.41,-197.674 176.65,-188.175 224.738,-180.952"/>
<polygon fill="midnightblue" stroke="midnightblue" points="225.386,-184.394 234.755,-179.448 224.346,-177.472 225.386,-184.394"/>
</g>
<!-- Node25 -->
<g id="node25" class="node"><title>Node25</title>
<g id="a_node25"><a xlink:href="findpts__el__2_8c.html#a7100017a4a04af2961b4fecef8881ab0" target="_top" xlink:title="seed">
<polygon fill="white" stroke="black" points="134.5,-104.5 134.5,-123.5 174.5,-123.5 174.5,-104.5 134.5,-104.5"/>
<text text-anchor="middle" x="154.5" y="-111.5" font-family="Helvetica,sans-Serif" font-size="10.00">seed</text>
</a>
</g>
</g>
<!-- Node1&#45;&gt;Node25 -->
<g id="edge35" class="edge"><title>Node1&#45;&gt;Node25</title>
<path fill="none" stroke="midnightblue" d="M44.9998,-199.418C56.8607,-183.743 82.3318,-152.425 110,-133 114.637,-129.744 119.921,-126.867 125.169,-124.4"/>
<polygon fill="midnightblue" stroke="midnightblue" points="126.634,-127.58 134.432,-120.408 123.863,-121.152 126.634,-127.58"/>
</g>
<!-- Node26 -->
<g id="node26" class="node"><title>Node26</title>
<g id="a_node26"><a xlink:href="xxt_8c.html#a4c650e6ff94275a07fdde3ccc8faf7c4" target="_top" xlink:title="sum">
<polygon fill="white" stroke="black" points="137,-66.5 137,-85.5 172,-85.5 172,-66.5 137,-66.5"/>
<text text-anchor="middle" x="154.5" y="-73.5" font-family="Helvetica,sans-Serif" font-size="10.00">sum</text>
</a>
</g>
</g>
<!-- Node1&#45;&gt;Node26 -->
<g id="edge36" class="edge"><title>Node1&#45;&gt;Node26</title>
<path fill="none" stroke="midnightblue" d="M41.7302,-199.4C50.5168,-177.926 74.4848,-125.504 110,-95 115.087,-90.6305 121.336,-87.1191 127.493,-84.3617"/>
<polygon fill="midnightblue" stroke="midnightblue" points="128.903,-87.568 136.914,-80.6345 126.328,-81.0589 128.903,-87.568"/>
</g>
<!-- Node3 -->
<g id="node3" class="node"><title>Node3</title>
<g id="a_node3"><a xlink:href="findpts__el__2_8c.html#acff1f41c6406b048943b33e32ddd2fe8" target="_top" xlink:title="newton_area">
<polygon fill="white" stroke="black" points="252.5,-484.5 252.5,-503.5 331.5,-503.5 331.5,-484.5 252.5,-484.5"/>
<text text-anchor="middle" x="292" y="-491.5" font-family="Helvetica,sans-Serif" font-size="10.00">newton_area</text>
</a>
</g>
</g>
<!-- Node2&#45;&gt;Node3 -->
<g id="edge2" class="edge"><title>Node2&#45;&gt;Node3</title>
<path fill="none" stroke="midnightblue" d="M160.029,-332.647C175.031,-364.454 222.84,-464.59 235,-475 237.535,-477.17 240.328,-479.095 243.274,-480.803"/>
<polygon fill="midnightblue" stroke="midnightblue" points="241.943,-484.047 252.463,-485.3 245.02,-477.76 241.943,-484.047"/>
</g>
<!-- Node9 -->
<g id="node9" class="node"><title>Node9</title>
<g id="a_node9"><a xlink:href="findpts__el__2_8c.html#a735a0b2429ead065a716620560bdefce" target="_top" xlink:title="reject_prior_step_q">
<polygon fill="white" stroke="black" points="237.5,-408.5 237.5,-427.5 346.5,-427.5 346.5,-408.5 237.5,-408.5"/>
<text text-anchor="middle" x="292" y="-415.5" font-family="Helvetica,sans-Serif" font-size="10.00">reject_prior_step_q</text>
</a>
</g>
</g>
<!-- Node2&#45;&gt;Node9 -->
<g id="edge8" class="edge"><title>Node2&#45;&gt;Node9</title>
<path fill="none" stroke="midnightblue" d="M163.059,-332.553C176.121,-348.469 204.467,-380.489 235,-399 238.409,-401.067 242.072,-402.943 245.834,-404.64"/>
<polygon fill="midnightblue" stroke="midnightblue" points="244.717,-407.965 255.299,-408.494 247.357,-401.482 244.717,-407.965"/>
</g>
<!-- Node10 -->
<g id="node10" class="node"><title>Node10</title>
<g id="a_node10"><a xlink:href="tensor_8h.html#a9ce8ec26cbf5009547e22bf7da4e337c" target="_top" xlink:title="tensor_i1">
<polygon fill="white" stroke="black" points="261.5,-332.5 261.5,-351.5 322.5,-351.5 322.5,-332.5 261.5,-332.5"/>
<text text-anchor="middle" x="292" y="-339.5" font-family="Helvetica,sans-Serif" font-size="10.00">tensor_i1</text>
</a>
</g>
</g>
<!-- Node2&#45;&gt;Node10 -->
<g id="edge9" class="edge"><title>Node2&#45;&gt;Node10</title>
<path fill="none" stroke="midnightblue" d="M190.043,-327.844C208.653,-330.453 231.704,-333.685 251.079,-336.402"/>
<polygon fill="midnightblue" stroke="midnightblue" points="250.733,-339.888 261.122,-337.811 251.705,-332.956 250.733,-339.888"/>
</g>
<!-- Node11 -->
<g id="node11" class="node"><title>Node11</title>
<g id="a_node11"><a xlink:href="tensor_8h.html#a0502ce18a8e7c9843bbcc5ca5be6ac41" target="_top" xlink:title="tensor_ig1">
<polygon fill="white" stroke="black" points="258.5,-294.5 258.5,-313.5 325.5,-313.5 325.5,-294.5 258.5,-294.5"/>
<text text-anchor="middle" x="292" y="-301.5" font-family="Helvetica,sans-Serif" font-size="10.00">tensor_ig1</text>
</a>
</g>
</g>
<!-- Node2&#45;&gt;Node11 -->
<g id="edge10" class="edge"><title>Node2&#45;&gt;Node11</title>
<path fill="none" stroke="midnightblue" d="M190.043,-318.156C207.773,-315.67 229.534,-312.619 248.308,-309.986"/>
<polygon fill="midnightblue" stroke="midnightblue" points="248.968,-313.428 258.385,-308.573 247.996,-306.496 248.968,-313.428"/>
</g>
<!-- Node12 -->
<g id="node12" class="node"><title>Node12</title>
<g id="a_node12"><a xlink:href="tensor_8h.html#a668a47aca721428547c6c6ba41e44b64" target="_top" xlink:title="tensor_mxm">
<polygon fill="white" stroke="black" points="546,-410.5 546,-429.5 620,-429.5 620,-410.5 546,-410.5"/>
<text text-anchor="middle" x="583" y="-417.5" font-family="Helvetica,sans-Serif" font-size="10.00">tensor_mxm</text>
</a>
</g>
</g>
<!-- Node2&#45;&gt;Node12 -->
<g id="edge11" class="edge"><title>Node2&#45;&gt;Node12</title>
<path fill="none" stroke="midnightblue" d="M170.295,-313.435C185.729,-304.071 210.98,-290.446 235,-285 284.413,-273.798 300.07,-271.849 349,-285 435.939,-308.367 523.919,-372.964 562.184,-403.544"/>
<polygon fill="midnightblue" stroke="midnightblue" points="560.429,-406.627 570.402,-410.204 564.836,-401.188 560.429,-406.627"/>
</g>
<!-- Node4 -->
<g id="node4" class="node"><title>Node4</title>
<g id="a_node4"><a xlink:href="findpts__el__2_8c.html#a96e49fc418f078d65322249f5db6484c" target="_top" xlink:title="lin_solve_2">
<polygon fill="white" stroke="black" points="412.5,-486.5 412.5,-505.5 482.5,-505.5 482.5,-486.5 412.5,-486.5"/>
<text text-anchor="middle" x="447.5" y="-493.5" font-family="Helvetica,sans-Serif" font-size="10.00">lin_solve_2</text>
</a>
</g>
</g>
<!-- Node3&#45;&gt;Node4 -->
<g id="edge3" class="edge"><title>Node3&#45;&gt;Node4</title>
<path fill="none" stroke="midnightblue" d="M331.735,-494.505C353.203,-494.784 379.98,-495.133 402.268,-495.424"/>
<polygon fill="midnightblue" stroke="midnightblue" points="402.436,-498.926 412.481,-495.557 402.527,-491.927 402.436,-498.926"/>
</g>
<!-- Node5 -->
<g id="node5" class="node"><title>Node5</title>
<g id="a_node5"><a xlink:href="findpts__el__2_8c.html#aba221836cfcda61c89c2f0036a0c924b" target="_top" xlink:title="edge_index">
<polygon fill="white" stroke="black" points="411.5,-590.5 411.5,-609.5 483.5,-609.5 483.5,-590.5 411.5,-590.5"/>
<text text-anchor="middle" x="447.5" y="-597.5" font-family="Helvetica,sans-Serif" font-size="10.00">edge_index</text>
</a>
</g>
</g>
<!-- Node3&#45;&gt;Node5 -->
<g id="edge4" class="edge"><title>Node3&#45;&gt;Node5</title>
<path fill="none" stroke="midnightblue" d="M331.594,-503.102C337.806,-505.653 343.87,-508.894 349,-513 372.982,-532.196 362.009,-551.628 385,-572 391.437,-577.704 399.231,-582.437 407.077,-586.288"/>
<polygon fill="midnightblue" stroke="midnightblue" points="405.677,-589.496 416.233,-590.409 408.55,-583.113 405.677,-589.496"/>
</g>
<!-- Node7 -->
<g id="node7" class="node"><title>Node7</title>
<g id="a_node7"><a xlink:href="findpts__el__2_8c.html#a237c5a006fc05851f3b65c787fcc8f25" target="_top" xlink:title="plus_1_mod_2">
<polygon fill="white" stroke="black" points="404.5,-543.5 404.5,-562.5 490.5,-562.5 490.5,-543.5 404.5,-543.5"/>
<text text-anchor="middle" x="447.5" y="-550.5" font-family="Helvetica,sans-Serif" font-size="10.00">plus_1_mod_2</text>
</a>
</g>
</g>
<!-- Node3&#45;&gt;Node7 -->
<g id="edge6" class="edge"><title>Node3&#45;&gt;Node7</title>
<path fill="none" stroke="midnightblue" d="M322.187,-503.52C330.856,-506.45 340.347,-509.761 349,-513 371.179,-521.303 395.855,-531.435 414.834,-539.425"/>
<polygon fill="midnightblue" stroke="midnightblue" points="413.622,-542.713 424.196,-543.387 416.35,-536.266 413.622,-542.713"/>
</g>
<!-- Node3&#45;&gt;Node8 -->
<g id="edge7" class="edge"><title>Node3&#45;&gt;Node8</title>
<path fill="none" stroke="midnightblue" d="M331.735,-484.916C351.197,-480.351 375.024,-474.763 395.913,-469.864"/>
<polygon fill="midnightblue" stroke="midnightblue" points="396.963,-473.213 405.9,-467.522 395.365,-466.398 396.963,-473.213"/>
</g>
<!-- Node6 -->
<g id="node6" class="node"><title>Node6</title>
<g id="a_node6"><a xlink:href="findpts__el__2_8c.html#adedc72c5a31511f6a6d6df1fcfbd279e" target="_top" xlink:title="which_bit">
<polygon fill="white" stroke="black" points="553,-590.5 553,-609.5 613,-609.5 613,-590.5 553,-590.5"/>
<text text-anchor="middle" x="583" y="-597.5" font-family="Helvetica,sans-Serif" font-size="10.00">which_bit</text>
</a>
</g>
</g>
<!-- Node5&#45;&gt;Node6 -->
<g id="edge5" class="edge"><title>Node5&#45;&gt;Node6</title>
<path fill="none" stroke="midnightblue" d="M483.576,-600C501.612,-600 523.666,-600 542.323,-600"/>
<polygon fill="midnightblue" stroke="midnightblue" points="542.574,-603.5 552.574,-600 542.574,-596.5 542.574,-603.5"/>
</g>
<!-- Node13&#45;&gt;Node3 -->
<g id="edge18" class="edge"><title>Node13&#45;&gt;Node3</title>
<path fill="none" stroke="midnightblue" d="M173.853,-541.46C189.79,-533.363 213.604,-521.707 235,-513 240.171,-510.896 245.671,-508.828 251.128,-506.877"/>
<polygon fill="midnightblue" stroke="midnightblue" points="252.527,-510.096 260.823,-503.507 250.229,-503.484 252.527,-510.096"/>
</g>
<!-- Node13&#45;&gt;Node5 -->
<g id="edge13" class="edge"><title>Node13&#45;&gt;Node5</title>
<path fill="none" stroke="midnightblue" d="M161.727,-560.585C173.557,-577.8 201.151,-613.424 235,-627 282.025,-645.861 298.795,-633.823 349,-627 369.559,-624.206 391.904,-618.242 410.01,-612.628"/>
<polygon fill="midnightblue" stroke="midnightblue" points="411.132,-615.943 419.594,-609.567 409.003,-609.275 411.132,-615.943"/>
</g>
<!-- Node13&#45;&gt;Node7 -->
<g id="edge20" class="edge"><title>Node13&#45;&gt;Node7</title>
<path fill="none" stroke="midnightblue" d="M191.182,-551.245C242.008,-551.595 335.578,-552.238 394.23,-552.641"/>
<polygon fill="midnightblue" stroke="midnightblue" points="394.376,-556.142 404.4,-552.711 394.424,-549.142 394.376,-556.142"/>
</g>
<!-- Node13&#45;&gt;Node9 -->
<g id="edge21" class="edge"><title>Node13&#45;&gt;Node9</title>
<path fill="none" stroke="midnightblue" d="M159.71,-541.183C169.599,-519.264 196.422,-465.992 235,-437 237.465,-435.148 240.122,-433.469 242.892,-431.947"/>
<polygon fill="midnightblue" stroke="midnightblue" points="244.498,-435.06 252.03,-427.608 241.495,-428.736 244.498,-435.06"/>
</g>
<!-- Node14 -->
<g id="node14" class="node"><title>Node14</title>
<g id="a_node14"><a xlink:href="findpts__el__2_8c.html#af396850f1a86af34b197d06b3254bb40" target="_top" xlink:title="get_edge">
<polygon fill="white" stroke="black" points="261,-674.5 261,-693.5 323,-693.5 323,-674.5 261,-674.5"/>
<text text-anchor="middle" x="292" y="-681.5" font-family="Helvetica,sans-Serif" font-size="10.00">get_edge</text>
</a>
</g>
</g>
<!-- Node13&#45;&gt;Node14 -->
<g id="edge14" class="edge"><title>Node13&#45;&gt;Node14</title>
<path fill="none" stroke="midnightblue" d="M160.308,-560.8C171.007,-581.701 198.729,-631.101 235,-660 239.995,-663.98 245.748,-667.417 251.625,-670.346"/>
<polygon fill="midnightblue" stroke="midnightblue" points="250.316,-673.596 260.869,-674.537 253.207,-667.221 250.316,-673.596"/>
</g>
<!-- Node17 -->
<g id="node17" class="node"><title>Node17</title>
<g id="a_node17"><a xlink:href="findpts__el__2_8c.html#acd31a382a3e44bbdb3eb94ba769d2f6f" target="_top" xlink:title="newton_edge">
<polygon fill="white" stroke="black" points="251.5,-522.5 251.5,-541.5 332.5,-541.5 332.5,-522.5 251.5,-522.5"/>
<text text-anchor="middle" x="292" y="-529.5" font-family="Helvetica,sans-Serif" font-size="10.00">newton_edge</text>
</a>
</g>
</g>
<!-- Node13&#45;&gt;Node17 -->
<g id="edge19" class="edge"><title>Node13&#45;&gt;Node17</title>
<path fill="none" stroke="midnightblue" d="M191.101,-546.008C206.425,-543.859 224.607,-541.31 241.231,-538.979"/>
<polygon fill="midnightblue" stroke="midnightblue" points="241.924,-542.416 251.341,-537.561 240.952,-535.484 241.924,-542.416"/>
</g>
<!-- Node18 -->
<g id="node18" class="node"><title>Node18</title>
<g id="a_node18"><a xlink:href="tensor_8h.html#a14afcab956cd6980991811621db031a7" target="_top" xlink:title="tensor_mtxv">
<polygon fill="white" stroke="black" points="255,-598.5 255,-617.5 329,-617.5 329,-598.5 255,-598.5"/>
<text text-anchor="middle" x="292" y="-605.5" font-family="Helvetica,sans-Serif" font-size="10.00">tensor_mtxv</text>
</a>
</g>
</g>
<!-- Node13&#45;&gt;Node18 -->
<g id="edge22" class="edge"><title>Node13&#45;&gt;Node18</title>
<path fill="none" stroke="midnightblue" d="M178.18,-560.541C200.261,-569.829 234.032,-584.036 258.874,-594.486"/>
<polygon fill="midnightblue" stroke="midnightblue" points="257.672,-597.777 268.246,-598.428 260.386,-591.325 257.672,-597.777"/>
</g>
<!-- Node15 -->
<g id="node15" class="node"><title>Node15</title>
<g id="a_node15"><a xlink:href="findpts__el__2_8c.html#aea04a00cdac072b17fa1cc3ce598596e" target="_top" xlink:title="compute_edge_data_s">
<polygon fill="white" stroke="black" points="385,-674.5 385,-693.5 510,-693.5 510,-674.5 385,-674.5"/>
<text text-anchor="middle" x="447.5" y="-681.5" font-family="Helvetica,sans-Serif" font-size="10.00">compute_edge_data_s</text>
</a>
</g>
</g>
<!-- Node14&#45;&gt;Node15 -->
<g id="edge15" class="edge"><title>Node14&#45;&gt;Node15</title>
<path fill="none" stroke="midnightblue" d="M323.327,-684C338.144,-684 356.66,-684 374.798,-684"/>
<polygon fill="midnightblue" stroke="midnightblue" points="374.81,-687.5 384.81,-684 374.81,-680.5 374.81,-687.5"/>
</g>
<!-- Node16 -->
<g id="node16" class="node"><title>Node16</title>
<g id="a_node16"><a xlink:href="findpts__el__2_8c.html#a1469985248f871c00a7cc32021a08850" target="_top" xlink:title="compute_edge_data_r">
<polygon fill="white" stroke="black" points="386,-631.5 386,-650.5 509,-650.5 509,-631.5 386,-631.5"/>
<text text-anchor="middle" x="447.5" y="-638.5" font-family="Helvetica,sans-Serif" font-size="10.00">compute_edge_data_r</text>
</a>
</g>
</g>
<!-- Node14&#45;&gt;Node16 -->
<g id="edge16" class="edge"><title>Node14&#45;&gt;Node16</title>
<path fill="none" stroke="midnightblue" d="M323.327,-675.505C346.004,-669.152 377.342,-660.373 402.733,-653.26"/>
<polygon fill="midnightblue" stroke="midnightblue" points="403.811,-656.593 412.496,-650.526 401.922,-649.853 403.811,-656.593"/>
</g>
<!-- Node16&#45;&gt;Node12 -->
<g id="edge17" class="edge"><title>Node16&#45;&gt;Node12</title>
<path fill="none" stroke="midnightblue" d="M491.083,-631.362C498.043,-628.304 504.698,-624.283 510,-619 560.692,-568.491 575.926,-479.645 580.314,-440.036"/>
<polygon fill="midnightblue" stroke="midnightblue" points="583.822,-440.125 581.319,-429.83 576.855,-439.439 583.822,-440.125"/>
</g>
<!-- Node19&#45;&gt;Node3 -->
<g id="edge27" class="edge"><title>Node19&#45;&gt;Node3</title>
<path fill="none" stroke="midnightblue" d="M173.853,-446.54C189.79,-454.637 213.604,-466.293 235,-475 240.171,-477.104 245.671,-479.172 251.128,-481.123"/>
<polygon fill="midnightblue" stroke="midnightblue" points="250.229,-484.516 260.823,-484.493 252.527,-477.904 250.229,-484.516"/>
</g>
<!-- Node19&#45;&gt;Node9 -->
<g id="edge30" class="edge"><title>Node19&#45;&gt;Node9</title>
<path fill="none" stroke="midnightblue" d="M183.576,-433.063C196.357,-431.271 212.047,-429.071 227.447,-426.912"/>
<polygon fill="midnightblue" stroke="midnightblue" points="228.074,-430.358 237.491,-425.503 227.102,-423.426 228.074,-430.358"/>
</g>
<!-- Node19&#45;&gt;Node17 -->
<g id="edge28" class="edge"><title>Node19&#45;&gt;Node17</title>
<path fill="none" stroke="midnightblue" d="M163.059,-446.553C176.121,-462.469 204.467,-494.489 235,-513 238.409,-515.067 242.072,-516.943 245.834,-518.64"/>
<polygon fill="midnightblue" stroke="midnightblue" points="244.717,-521.965 255.299,-522.494 247.357,-515.482 244.717,-521.965"/>
</g>
<!-- Node20 -->
<g id="node20" class="node"><title>Node20</title>
<g id="a_node20"><a xlink:href="findpts__el__2_8c.html#ae1c9357f23169936950617bb27a17725" target="_top" xlink:title="get_pt">
<polygon fill="white" stroke="black" points="268.5,-446.5 268.5,-465.5 315.5,-465.5 315.5,-446.5 268.5,-446.5"/>
<text text-anchor="middle" x="292" y="-453.5" font-family="Helvetica,sans-Serif" font-size="10.00">get_pt</text>
</a>
</g>
</g>
<!-- Node19&#45;&gt;Node20 -->
<g id="edge24" class="edge"><title>Node19&#45;&gt;Node20</title>
<path fill="none" stroke="midnightblue" d="M183.576,-440.937C205.356,-443.991 235.582,-448.229 258.425,-451.432"/>
<polygon fill="midnightblue" stroke="midnightblue" points="257.955,-454.901 268.344,-452.823 258.927,-447.968 257.955,-454.901"/>
</g>
<!-- Node22 -->
<g id="node22" class="node"><title>Node22</title>
<g id="a_node22"><a xlink:href="findpts__el__2_8c.html#a16d786872d01d26d43aa1ea5bc6106db" target="_top" xlink:title="point_index">
<polygon fill="white" stroke="black" points="256.5,-370.5 256.5,-389.5 327.5,-389.5 327.5,-370.5 256.5,-370.5"/>
<text text-anchor="middle" x="292" y="-377.5" font-family="Helvetica,sans-Serif" font-size="10.00">point_index</text>
</a>
</g>
</g>
<!-- Node19&#45;&gt;Node22 -->
<g id="edge29" class="edge"><title>Node19&#45;&gt;Node22</title>
<path fill="none" stroke="midnightblue" d="M173.853,-427.46C189.79,-419.363 213.604,-407.707 235,-399 240.171,-396.896 245.671,-394.828 251.128,-392.877"/>
<polygon fill="midnightblue" stroke="midnightblue" points="252.527,-396.096 260.823,-389.507 250.229,-389.484 252.527,-396.096"/>
</g>
<!-- Node21 -->
<g id="node21" class="node"><title>Node21</title>
<g id="a_node21"><a xlink:href="findpts__el__2_8c.html#a80a5b2ebfbcb6af3d294107c0bc27d79" target="_top" xlink:title="compute_pt_data">
<polygon fill="white" stroke="black" points="398.5,-410.5 398.5,-429.5 496.5,-429.5 496.5,-410.5 398.5,-410.5"/>
<text text-anchor="middle" x="447.5" y="-417.5" font-family="Helvetica,sans-Serif" font-size="10.00">compute_pt_data</text>
</a>
</g>
</g>
<!-- Node20&#45;&gt;Node21 -->
<g id="edge25" class="edge"><title>Node20&#45;&gt;Node21</title>
<path fill="none" stroke="midnightblue" d="M315.649,-450.688C336.743,-445.741 368.93,-438.192 396.102,-431.82"/>
<polygon fill="midnightblue" stroke="midnightblue" points="396.919,-435.223 405.856,-429.532 395.321,-428.408 396.919,-435.223"/>
</g>
<!-- Node21&#45;&gt;Node12 -->
<g id="edge26" class="edge"><title>Node21&#45;&gt;Node12</title>
<path fill="none" stroke="midnightblue" d="M496.697,-420C509.3,-420 522.862,-420 535.381,-420"/>
<polygon fill="midnightblue" stroke="midnightblue" points="535.609,-423.5 545.609,-420 535.609,-416.5 535.609,-423.5"/>
</g>
<!-- Node23&#45;&gt;Node24 -->
<g id="edge33" class="edge"><title>Node23&#45;&gt;Node24</title>
<path fill="none" stroke="midnightblue" d="M199.119,-158.116C207.237,-159.255 215.888,-160.468 224.511,-161.677"/>
<polygon fill="midnightblue" stroke="midnightblue" points="224.198,-165.167 234.587,-163.09 225.17,-158.235 224.198,-165.167"/>
</g>
<!-- Node27 -->
<g id="node27" class="node"><title>Node27</title>
<g id="a_node27"><a xlink:href="comm_8h.html#aadc6a8cdf4984083417952ebfbc0ee00" target="_top" xlink:title="comm_send">
<polygon fill="white" stroke="black" points="255,-114.5 255,-133.5 329,-133.5 329,-114.5 255,-114.5"/>
<text text-anchor="middle" x="292" y="-121.5" font-family="Helvetica,sans-Serif" font-size="10.00">comm_send</text>
</a>
</g>
</g>
<!-- Node26&#45;&gt;Node27 -->
<g id="edge37" class="edge"><title>Node26&#45;&gt;Node27</title>
<path fill="none" stroke="midnightblue" d="M172.211,-82.2207C188.271,-88.1695 213.242,-97.3417 235,-105 240.708,-107.009 246.755,-109.1 252.684,-111.129"/>
<polygon fill="midnightblue" stroke="midnightblue" points="251.874,-114.55 262.468,-114.459 254.129,-107.923 251.874,-114.55"/>
</g>
<!-- Node28 -->
<g id="node28" class="node"><title>Node28</title>
<g id="a_node28"><a xlink:href="comm_8h.html#a61f3037ecf23cd5609e3eac2ce0e1b01" target="_top" xlink:title="comm_recv">
<polygon fill="white" stroke="black" points="256.5,-76.5 256.5,-95.5 327.5,-95.5 327.5,-76.5 256.5,-76.5"/>
<text text-anchor="middle" x="292" y="-83.5" font-family="Helvetica,sans-Serif" font-size="10.00">comm_recv</text>
</a>
</g>
</g>
<!-- Node26&#45;&gt;Node28 -->
<g id="edge38" class="edge"><title>Node26&#45;&gt;Node28</title>
<path fill="none" stroke="midnightblue" d="M172.115,-77.2262C190.438,-78.5784 220.69,-80.8111 246.091,-82.6857"/>
<polygon fill="midnightblue" stroke="midnightblue" points="246.04,-86.1913 256.27,-83.4369 246.555,-79.2103 246.04,-86.1913"/>
</g>
<!-- Node29 -->
<g id="node29" class="node"><title>Node29</title>
<g id="a_node29"><a xlink:href="comm_8h.html#a33c610b70409697426693f5d98a8e084" target="_top" xlink:title="comm_isend">
<polygon fill="white" stroke="black" points="254,-38.5 254,-57.5 330,-57.5 330,-38.5 254,-38.5"/>
<text text-anchor="middle" x="292" y="-45.5" font-family="Helvetica,sans-Serif" font-size="10.00">comm_isend</text>
</a>
</g>
</g>
<!-- Node26&#45;&gt;Node29 -->
<g id="edge39" class="edge"><title>Node26&#45;&gt;Node29</title>
<path fill="none" stroke="midnightblue" d="M172.115,-72.5667C189.879,-68.8959 218.856,-62.9081 243.753,-57.7631"/>
<polygon fill="midnightblue" stroke="midnightblue" points="244.688,-61.1441 253.772,-55.6928 243.271,-54.289 244.688,-61.1441"/>
</g>
<!-- Node30 -->
<g id="node30" class="node"><title>Node30</title>
<g id="a_node30"><a xlink:href="comm_8h.html#a0f6e578048ebdc9f0869f9f5af2fd08b" target="_top" xlink:title="comm_wait">
<polygon fill="white" stroke="black" points="257.5,-0.5 257.5,-19.5 326.5,-19.5 326.5,-0.5 257.5,-0.5"/>
<text text-anchor="middle" x="292" y="-7.5" font-family="Helvetica,sans-Serif" font-size="10.00">comm_wait</text>
</a>
</g>
</g>
<!-- Node26&#45;&gt;Node30 -->
<g id="edge40" class="edge"><title>Node26&#45;&gt;Node30</title>
<path fill="none" stroke="midnightblue" d="M169.664,-66.4045C185.198,-56.1763 211.104,-39.9739 235,-29 239.662,-26.859 244.638,-24.83 249.627,-22.9507"/>
<polygon fill="midnightblue" stroke="midnightblue" points="250.928,-26.2024 259.159,-19.5314 248.564,-19.6135 250.928,-26.2024"/>
</g>
</g>
</svg>
