<?xml version="1.0" encoding="UTF-8" standalone="no"?>
<!DOCTYPE svg PUBLIC "-//W3C//DTD SVG 1.1//EN"
 "http://www.w3.org/Graphics/SVG/1.1/DTD/svg11.dtd">
<!-- Generated by graphviz version 2.38.0 (20140413.2041)
 -->
<!-- Title: newton_edge Pages: 1 -->
<svg width="308pt" height="66pt"
 viewBox="0.00 0.00 308.00 66.00" xmlns="http://www.w3.org/2000/svg" xmlns:xlink="http://www.w3.org/1999/xlink">
<g id="graph0" class="graph" transform="scale(1 1) rotate(0) translate(4 62)">
<title>newton_edge</title>
<polygon fill="white" stroke="none" points="-4,4 -4,-62 304,-62 304,4 -4,4"/>
<!-- Node1 -->
<g id="node1" class="node"><title>Node1</title>
<polygon fill="#bfbfbf" stroke="black" points="0,-19.5 0,-38.5 81,-38.5 81,-19.5 0,-19.5"/>
<text text-anchor="middle" x="40.5" y="-26.5" font-family="Helvetica,sans-Serif" font-size="10.00">newton_edge</text>
</g>
<!-- Node2 -->
<g id="node2" class="node"><title>Node2</title>
<g id="a_node2"><a xlink:href="findpts__el__3_8c.html#af1a3eb77cfbd30da8225576a88a12cd0" target="_top" xlink:title="findpt_edge">
<polygon fill="white" stroke="black" points="117,-38.5 117,-57.5 190,-57.5 190,-38.5 117,-38.5"/>
<text text-anchor="middle" x="153.5" y="-45.5" font-family="Helvetica,sans-Serif" font-size="10.00">findpt_edge</text>
</a>
</g>
</g>
<!-- Node1&#45;&gt;Node2 -->
<g id="edge1" class="edge"><title>Node1&#45;&gt;Node2</title>
<path fill="none" stroke="midnightblue" d="M91.2088,-37.5087C99.7995,-38.9792 108.577,-40.4817 116.707,-41.8733"/>
<polygon fill="midnightblue" stroke="midnightblue" points="91.7072,-34.0432 81.26,-35.8058 90.5261,-40.9429 91.7072,-34.0432"/>
</g>
<!-- Node4 -->
<g id="node4" class="node"><title>Node4</title>
<g id="a_node4"><a xlink:href="findpts__el__3_8c.html#a45011f1c9ad5e46c578da17c3c306d0f" target="_top" xlink:title="findpt_pt">
<polygon fill="white" stroke="black" points="124.5,-0.5 124.5,-19.5 182.5,-19.5 182.5,-0.5 124.5,-0.5"/>
<text text-anchor="middle" x="153.5" y="-7.5" font-family="Helvetica,sans-Serif" font-size="10.00">findpt_pt</text>
</a>
</g>
</g>
<!-- Node1&#45;&gt;Node4 -->
<g id="edge3" class="edge"><title>Node1&#45;&gt;Node4</title>
<path fill="none" stroke="midnightblue" d="M91.1696,-20.498C102.6,-18.5414 114.364,-16.5278 124.493,-14.7939"/>
<polygon fill="midnightblue" stroke="midnightblue" points="90.5261,-17.0571 81.26,-22.1942 91.7072,-23.9568 90.5261,-17.0571"/>
</g>
<!-- Node3 -->
<g id="node3" class="node"><title>Node3</title>
<g id="a_node3"><a xlink:href="findpts__el__3_8c.html#a3ed659b9d68af3919368cbdc12649730" target="_top" xlink:title="findpts_el_3">
<polygon fill="white" stroke="black" points="226,-19.5 226,-38.5 300,-38.5 300,-19.5 226,-19.5"/>
<text text-anchor="middle" x="263" y="-26.5" font-family="Helvetica,sans-Serif" font-size="10.00">findpts_el_3</text>
</a>
</g>
</g>
<!-- Node2&#45;&gt;Node3 -->
<g id="edge2" class="edge"><title>Node2&#45;&gt;Node3</title>
<path fill="none" stroke="midnightblue" d="M200.223,-39.9187C208.836,-38.3965 217.73,-36.8245 225.994,-35.3639"/>
<polygon fill="midnightblue" stroke="midnightblue" points="199.534,-36.4861 190.296,-41.6733 200.753,-43.3793 199.534,-36.4861"/>
</g>
<!-- Node4&#45;&gt;Node3 -->
<g id="edge4" class="edge"><title>Node4&#45;&gt;Node3</title>
<path fill="none" stroke="midnightblue" d="M192.732,-16.7573C203.506,-18.6616 215.191,-20.7267 225.84,-22.6088"/>
<polygon fill="midnightblue" stroke="midnightblue" points="193.201,-13.286 182.744,-14.992 191.983,-20.1792 193.201,-13.286"/>
</g>
</g>
</svg>
