<?xml version="1.0" encoding="UTF-8" standalone="no"?>
<!DOCTYPE svg PUBLIC "-//W3C//DTD SVG 1.1//EN"
 "http://www.w3.org/Graphics/SVG/1.1/DTD/svg11.dtd">
<!-- Generated by graphviz version 2.38.0 (20140413.2041)
 -->
<!-- Title: compute_face_data_rs Pages: 1 -->
<svg width="928pt" height="104pt"
 viewBox="0.00 0.00 928.00 104.00" xmlns="http://www.w3.org/2000/svg" xmlns:xlink="http://www.w3.org/1999/xlink">
<g id="graph0" class="graph" transform="scale(1 1) rotate(0) translate(4 100)">
<title>compute_face_data_rs</title>
<polygon fill="white" stroke="none" points="-4,4 -4,-100 924,-100 924,4 -4,4"/>
<!-- Node1 -->
<g id="node1" class="node"><title>Node1</title>
<polygon fill="#bfbfbf" stroke="black" points="0,-19.5 0,-38.5 125,-38.5 125,-19.5 0,-19.5"/>
<text text-anchor="middle" x="62.5" y="-26.5" font-family="Helvetica,sans-Serif" font-size="10.00">compute_face_data_rs</text>
</g>
<!-- Node2 -->
<g id="node2" class="node"><title>Node2</title>
<g id="a_node2"><a xlink:href="findpts__el__3_8c.html#a5dc987bca5f0dbd0ff09d44b61363c1e" target="_top" xlink:title="get_face">
<polygon fill="white" stroke="black" points="161,-19.5 161,-38.5 219,-38.5 219,-19.5 161,-19.5"/>
<text text-anchor="middle" x="190" y="-26.5" font-family="Helvetica,sans-Serif" font-size="10.00">get_face</text>
</a>
</g>
</g>
<!-- Node1&#45;&gt;Node2 -->
<g id="edge1" class="edge"><title>Node1&#45;&gt;Node2</title>
<path fill="none" stroke="midnightblue" d="M135.391,-29C144.404,-29 153.159,-29 160.893,-29"/>
<polygon fill="midnightblue" stroke="midnightblue" points="135.147,-25.5001 125.147,-29 135.147,-32.5001 135.147,-25.5001"/>
</g>
<!-- Node3 -->
<g id="node3" class="node"><title>Node3</title>
<g id="a_node3"><a xlink:href="findpts__el__3_8c.html#a7af2d3a734a0e2e8883badf9eee92932" target="_top" xlink:title="compute_edge_data">
<polygon fill="white" stroke="black" points="255,-38.5 255,-57.5 368,-57.5 368,-38.5 255,-38.5"/>
<text text-anchor="middle" x="311.5" y="-45.5" font-family="Helvetica,sans-Serif" font-size="10.00">compute_edge_data</text>
</a>
</g>
</g>
<!-- Node2&#45;&gt;Node3 -->
<g id="edge2" class="edge"><title>Node2&#45;&gt;Node3</title>
<path fill="none" stroke="midnightblue" d="M229.057,-35.0509C237.296,-36.3609 246.173,-37.7722 254.929,-39.1644"/>
<polygon fill="midnightblue" stroke="midnightblue" points="229.443,-31.5684 219.017,-33.4547 228.344,-38.4816 229.443,-31.5684"/>
</g>
<!-- Node10 -->
<g id="node10" class="node"><title>Node10</title>
<g id="a_node10"><a xlink:href="findpts__el__3_8c.html#ad2c233df5cb0edb3790d3c59eb9f19be" target="_top" xlink:title="findpt_face">
<polygon fill="white" stroke="black" points="404,-0.5 404,-19.5 473,-19.5 473,-0.5 404,-0.5"/>
<text text-anchor="middle" x="438.5" y="-7.5" font-family="Helvetica,sans-Serif" font-size="10.00">findpt_face</text>
</a>
</g>
</g>
<!-- Node2&#45;&gt;Node10 -->
<g id="edge10" class="edge"><title>Node2&#45;&gt;Node10</title>
<path fill="none" stroke="midnightblue" d="M229.531,-26.0301C277.35,-22.3442 358.134,-16.1174 403.666,-12.6079"/>
<polygon fill="midnightblue" stroke="midnightblue" points="228.978,-22.5622 219.277,-26.8205 229.516,-29.5415 228.978,-22.5622"/>
</g>
<!-- Node4 -->
<g id="node4" class="node"><title>Node4</title>
<g id="a_node4"><a xlink:href="findpts__el__3_8c.html#a3acbce16e4f7a28b4ad8a6d217d776b2" target="_top" xlink:title="get_edge">
<polygon fill="white" stroke="black" points="407.5,-38.5 407.5,-57.5 469.5,-57.5 469.5,-38.5 407.5,-38.5"/>
<text text-anchor="middle" x="438.5" y="-45.5" font-family="Helvetica,sans-Serif" font-size="10.00">get_edge</text>
</a>
</g>
</g>
<!-- Node3&#45;&gt;Node4 -->
<g id="edge3" class="edge"><title>Node3&#45;&gt;Node4</title>
<path fill="none" stroke="midnightblue" d="M378.269,-48C388.485,-48 398.583,-48 407.47,-48"/>
<polygon fill="midnightblue" stroke="midnightblue" points="378.055,-44.5001 368.055,-48 378.055,-51.5001 378.055,-44.5001"/>
</g>
<!-- Node5 -->
<g id="node5" class="node"><title>Node5</title>
<g id="a_node5"><a xlink:href="findpts__el__3_8c.html#a196411139d99d1bb50c742501192796a" target="_top" xlink:title="compute_pt_data">
<polygon fill="white" stroke="black" points="509,-76.5 509,-95.5 607,-95.5 607,-76.5 509,-76.5"/>
<text text-anchor="middle" x="558" y="-83.5" font-family="Helvetica,sans-Serif" font-size="10.00">compute_pt_data</text>
</a>
</g>
</g>
<!-- Node4&#45;&gt;Node5 -->
<g id="edge4" class="edge"><title>Node4&#45;&gt;Node5</title>
<path fill="none" stroke="midnightblue" d="M478.709,-60.6804C494.585,-65.8148 512.61,-71.6441 527.359,-76.4141"/>
<polygon fill="midnightblue" stroke="midnightblue" points="479.742,-57.336 469.15,-57.589 477.588,-63.9964 479.742,-57.336"/>
</g>
<!-- Node9 -->
<g id="node9" class="node"><title>Node9</title>
<g id="a_node9"><a xlink:href="findpts__el__3_8c.html#af1a3eb77cfbd30da8225576a88a12cd0" target="_top" xlink:title="findpt_edge">
<polygon fill="white" stroke="black" points="643,-38.5 643,-57.5 716,-57.5 716,-38.5 643,-38.5"/>
<text text-anchor="middle" x="679.5" y="-45.5" font-family="Helvetica,sans-Serif" font-size="10.00">findpt_edge</text>
</a>
</g>
</g>
<!-- Node4&#45;&gt;Node9 -->
<g id="edge8" class="edge"><title>Node4&#45;&gt;Node9</title>
<path fill="none" stroke="midnightblue" d="M479.89,-48C525.49,-48 598.995,-48 642.641,-48"/>
<polygon fill="midnightblue" stroke="midnightblue" points="479.77,-44.5001 469.77,-48 479.769,-51.5001 479.77,-44.5001"/>
</g>
<!-- Node6 -->
<g id="node6" class="node"><title>Node6</title>
<g id="a_node6"><a xlink:href="findpts__el__3_8c.html#aa8ed83eb48038a2dd41b03fadadee562" target="_top" xlink:title="get_pt">
<polygon fill="white" stroke="black" points="656,-76.5 656,-95.5 703,-95.5 703,-76.5 656,-76.5"/>
<text text-anchor="middle" x="679.5" y="-83.5" font-family="Helvetica,sans-Serif" font-size="10.00">get_pt</text>
</a>
</g>
</g>
<!-- Node5&#45;&gt;Node6 -->
<g id="edge5" class="edge"><title>Node5&#45;&gt;Node6</title>
<path fill="none" stroke="midnightblue" d="M617.633,-86C631.279,-86 645.002,-86 655.955,-86"/>
<polygon fill="midnightblue" stroke="midnightblue" points="617.261,-82.5001 607.261,-86 617.261,-89.5001 617.261,-82.5001"/>
</g>
<!-- Node7 -->
<g id="node7" class="node"><title>Node7</title>
<g id="a_node7"><a xlink:href="findpts__el__3_8c.html#a45011f1c9ad5e46c578da17c3c306d0f" target="_top" xlink:title="findpt_pt">
<polygon fill="white" stroke="black" points="752,-76.5 752,-95.5 810,-95.5 810,-76.5 752,-76.5"/>
<text text-anchor="middle" x="781" y="-83.5" font-family="Helvetica,sans-Serif" font-size="10.00">findpt_pt</text>
</a>
</g>
</g>
<!-- Node6&#45;&gt;Node7 -->
<g id="edge6" class="edge"><title>Node6&#45;&gt;Node7</title>
<path fill="none" stroke="midnightblue" d="M713.111,-86C725.614,-86 739.762,-86 751.816,-86"/>
<polygon fill="midnightblue" stroke="midnightblue" points="713.078,-82.5001 703.078,-86 713.078,-89.5001 713.078,-82.5001"/>
</g>
<!-- Node8 -->
<g id="node8" class="node"><title>Node8</title>
<g id="a_node8"><a xlink:href="findpts__el__3_8c.html#a3ed659b9d68af3919368cbdc12649730" target="_top" xlink:title="findpts_el_3">
<polygon fill="white" stroke="black" points="846,-38.5 846,-57.5 920,-57.5 920,-38.5 846,-38.5"/>
<text text-anchor="middle" x="883" y="-45.5" font-family="Helvetica,sans-Serif" font-size="10.00">findpts_el_3</text>
</a>
</g>
</g>
<!-- Node7&#45;&gt;Node8 -->
<g id="edge7" class="edge"><title>Node7&#45;&gt;Node8</title>
<path fill="none" stroke="midnightblue" d="M816.907,-72.7354C830.035,-67.7467 844.695,-62.1759 856.774,-57.5859"/>
<polygon fill="midnightblue" stroke="midnightblue" points="815.339,-69.587 807.234,-76.411 817.825,-76.1305 815.339,-69.587"/>
</g>
<!-- Node9&#45;&gt;Node8 -->
<g id="edge9" class="edge"><title>Node9&#45;&gt;Node8</title>
<path fill="none" stroke="midnightblue" d="M726.352,-48C762.545,-48 812.344,-48 845.777,-48"/>
<polygon fill="midnightblue" stroke="midnightblue" points="726.06,-44.5001 716.06,-48 726.06,-51.5001 726.06,-44.5001"/>
</g>
<!-- Node10&#45;&gt;Node8 -->
<g id="edge11" class="edge"><title>Node10&#45;&gt;Node8</title>
<path fill="none" stroke="midnightblue" d="M483.176,-12.3877C537.715,-15.5104 633.847,-21.4798 716,-29 760.775,-33.0986 812.184,-39.1993 845.78,-43.3752"/>
<polygon fill="midnightblue" stroke="midnightblue" points="483.346,-8.89179 473.164,-11.8197 482.95,-15.8806 483.346,-8.89179"/>
</g>
</g>
</svg>
