<?xml version="1.0" encoding="UTF-8" standalone="no"?>
<!DOCTYPE svg PUBLIC "-//W3C//DTD SVG 1.1//EN"
 "http://www.w3.org/Graphics/SVG/1.1/DTD/svg11.dtd">
<!-- Generated by graphviz version 2.38.0 (20140413.2041)
 -->
<!-- Title: get_pt Pages: 1 -->
<svg width="299pt" height="28pt"
 viewBox="0.00 0.00 299.00 28.00" xmlns="http://www.w3.org/2000/svg" xmlns:xlink="http://www.w3.org/1999/xlink">
<g id="graph0" class="graph" transform="scale(1 1) rotate(0) translate(4 24)">
<title>get_pt</title>
<polygon fill="white" stroke="none" points="-4,4 -4,-24 295,-24 295,4 -4,4"/>
<!-- Node1 -->
<g id="node1" class="node"><title>Node1</title>
<polygon fill="#bfbfbf" stroke="black" points="0,-0.5 0,-19.5 47,-19.5 47,-0.5 0,-0.5"/>
<text text-anchor="middle" x="23.5" y="-7.5" font-family="Helvetica,sans-Serif" font-size="10.00">get_pt</text>
</g>
<!-- Node2 -->
<g id="node2" class="node"><title>Node2</title>
<g id="a_node2"><a xlink:href="findpts__el__2_8c.html#a80a5b2ebfbcb6af3d294107c0bc27d79" target="_top" xlink:title="compute_pt_data">
<polygon fill="white" stroke="black" points="83,-0.5 83,-19.5 181,-19.5 181,-0.5 83,-0.5"/>
<text text-anchor="middle" x="132" y="-7.5" font-family="Helvetica,sans-Serif" font-size="10.00">compute_pt_data</text>
</a>
</g>
</g>
<!-- Node1&#45;&gt;Node2 -->
<g id="edge1" class="edge"><title>Node1&#45;&gt;Node2</title>
<path fill="none" stroke="midnightblue" d="M47.0859,-10C54.6276,-10 63.4142,-10 72.406,-10"/>
<polygon fill="midnightblue" stroke="midnightblue" points="72.59,-13.5001 82.59,-10 72.59,-6.5001 72.59,-13.5001"/>
</g>
<!-- Node3 -->
<g id="node3" class="node"><title>Node3</title>
<g id="a_node3"><a xlink:href="tensor_8h.html#a668a47aca721428547c6c6ba41e44b64" target="_top" xlink:title="tensor_mxm">
<polygon fill="white" stroke="black" points="217,-0.5 217,-19.5 291,-19.5 291,-0.5 217,-0.5"/>
<text text-anchor="middle" x="254" y="-7.5" font-family="Helvetica,sans-Serif" font-size="10.00">tensor_mxm</text>
</a>
</g>
</g>
<!-- Node2&#45;&gt;Node3 -->
<g id="edge2" class="edge"><title>Node2&#45;&gt;Node3</title>
<path fill="none" stroke="midnightblue" d="M181.117,-10C189.461,-10 198.125,-10 206.427,-10"/>
<polygon fill="midnightblue" stroke="midnightblue" points="206.698,-13.5001 216.698,-10 206.698,-6.5001 206.698,-13.5001"/>
</g>
</g>
</svg>
