<?xml version="1.0" encoding="UTF-8" standalone="no"?>
<!DOCTYPE svg PUBLIC "-//W3C//DTD SVG 1.1//EN"
 "http://www.w3.org/Graphics/SVG/1.1/DTD/svg11.dtd">
<!-- Generated by graphviz version 2.38.0 (20140413.2041)
 -->
<!-- Title: jl/findpts_local.h Pages: 1 -->
<svg width="317pt" height="95pt"
 viewBox="0.00 0.00 317.00 95.00" xmlns="http://www.w3.org/2000/svg" xmlns:xlink="http://www.w3.org/1999/xlink">
<g id="graph0" class="graph" transform="scale(1 1) rotate(0) translate(4 91)">
<title>jl/findpts_local.h</title>
<polygon fill="white" stroke="none" points="-4,4 -4,-91 313,-91 313,4 -4,4"/>
<!-- Node1 -->
<g id="node1" class="node"><title>Node1</title>
<polygon fill="#bfbfbf" stroke="black" points="104.5,-67.5 104.5,-86.5 196.5,-86.5 196.5,-67.5 104.5,-67.5"/>
<text text-anchor="middle" x="150.5" y="-74.5" font-family="Helvetica,sans-Serif" font-size="10.00">jl/findpts_local.h</text>
</g>
<!-- Node2 -->
<g id="node2" class="node"><title>Node2</title>
<g id="a_node2"><a xlink:href="findpts__local__ext_8c.html" target="_top" xlink:title="jl/ext/findpts_local\l_ext.c">
<polygon fill="white" stroke="black" points="0,-0.5 0,-30.5 101,-30.5 101,-0.5 0,-0.5"/>
<text text-anchor="start" x="8" y="-18.5" font-family="Helvetica,sans-Serif" font-size="10.00">jl/ext/findpts_local</text>
<text text-anchor="middle" x="50.5" y="-7.5" font-family="Helvetica,sans-Serif" font-size="10.00">_ext.c</text>
</a>
</g>
</g>
<!-- Node1&#45;&gt;Node2 -->
<g id="edge1" class="edge"><title>Node1&#45;&gt;Node2</title>
<path fill="none" stroke="midnightblue" d="M127.435,-62.2762C111.431,-52.7541 90.18,-40.1096 74.068,-30.523"/>
<polygon fill="midnightblue" stroke="midnightblue" points="125.789,-65.3696 136.172,-67.4751 129.368,-59.3539 125.789,-65.3696"/>
</g>
<!-- Node3 -->
<g id="node3" class="node"><title>Node3</title>
<g id="a_node3"><a xlink:href="findpts_8c.html" target="_top" xlink:title="jl/findpts.c">
<polygon fill="white" stroke="black" points="119,-6 119,-25 182,-25 182,-6 119,-6"/>
<text text-anchor="middle" x="150.5" y="-13" font-family="Helvetica,sans-Serif" font-size="10.00">jl/findpts.c</text>
</a>
</g>
</g>
<!-- Node1&#45;&gt;Node3 -->
<g id="edge2" class="edge"><title>Node1&#45;&gt;Node3</title>
<path fill="none" stroke="midnightblue" d="M150.5,-57.3165C150.5,-46.4962 150.5,-33.398 150.5,-25.0091"/>
<polygon fill="midnightblue" stroke="midnightblue" points="147,-57.4751 150.5,-67.4751 154,-57.4751 147,-57.4751"/>
</g>
<!-- Node4 -->
<g id="node4" class="node"><title>Node4</title>
<g id="a_node4"><a xlink:href="findpts__local__test_8c.html" target="_top" xlink:title="jl/tests/findpts_local\l_test.c">
<polygon fill="white" stroke="black" points="200,-0.5 200,-30.5 309,-30.5 309,-0.5 200,-0.5"/>
<text text-anchor="start" x="208" y="-18.5" font-family="Helvetica,sans-Serif" font-size="10.00">jl/tests/findpts_local</text>
<text text-anchor="middle" x="254.5" y="-7.5" font-family="Helvetica,sans-Serif" font-size="10.00">_test.c</text>
</a>
</g>
</g>
<!-- Node1&#45;&gt;Node4 -->
<g id="edge3" class="edge"><title>Node1&#45;&gt;Node4</title>
<path fill="none" stroke="midnightblue" d="M174.488,-62.2762C191.132,-52.7541 213.233,-40.1096 229.989,-30.523"/>
<polygon fill="midnightblue" stroke="midnightblue" points="172.342,-59.4712 165.401,-67.4751 175.819,-65.5471 172.342,-59.4712"/>
</g>
</g>
</svg>
