<?xml version="1.0" encoding="UTF-8" standalone="no"?>
<!DOCTYPE svg PUBLIC "-//W3C//DTD SVG 1.1//EN"
 "http://www.w3.org/Graphics/SVG/1.1/DTD/svg11.dtd">
<!-- Generated by graphviz version 2.38.0 (20140413.2041)
 -->
<!-- Title: num_constrained Pages: 1 -->
<svg width="440pt" height="126pt"
 viewBox="0.00 0.00 440.00 126.10" xmlns="http://www.w3.org/2000/svg" xmlns:xlink="http://www.w3.org/1999/xlink">
<g id="graph0" class="graph" transform="scale(1 1) rotate(0) translate(4 122.1)">
<title>num_constrained</title>
<polygon fill="white" stroke="none" points="-4,4 -4,-122.1 436,-122.1 436,4 -4,4"/>
<!-- Node1 -->
<g id="node1" class="node"><title>Node1</title>
<polygon fill="#bfbfbf" stroke="black" points="0,-95.5 0,-114.5 98,-114.5 98,-95.5 0,-95.5"/>
<text text-anchor="middle" x="49" y="-102.5" font-family="Helvetica,sans-Serif" font-size="10.00">num_constrained</text>
</g>
<!-- Node2 -->
<g id="node2" class="node"><title>Node2</title>
<g id="a_node2"><a xlink:href="findpts__el__2_8c.html#a1fe7500238a37c48ae642d12cf921989" target="_top" xlink:title="findpts_el_2">
<polygon fill="white" stroke="black" points="358,-57.5 358,-76.5 432,-76.5 432,-57.5 358,-57.5"/>
<text text-anchor="middle" x="395" y="-64.5" font-family="Helvetica,sans-Serif" font-size="10.00">findpts_el_2</text>
</a>
</g>
</g>
<!-- Node1&#45;&gt;Node2 -->
<g id="edge1" class="edge"><title>Node1&#45;&gt;Node2</title>
<path fill="none" stroke="midnightblue" d="M108.056,-112.974C163.802,-118.776 249.937,-122.85 322,-105 344.088,-99.5287 366.871,-85.9094 380.739,-76.5548"/>
<polygon fill="midnightblue" stroke="midnightblue" points="108.333,-109.483 98.0113,-111.875 107.572,-116.442 108.333,-109.483"/>
</g>
<!-- Node3 -->
<g id="node3" class="node"><title>Node3</title>
<g id="a_node3"><a xlink:href="findpts__el__2_8c.html#acff1f41c6406b048943b33e32ddd2fe8" target="_top" xlink:title="newton_area">
<polygon fill="white" stroke="black" points="134,-57.5 134,-76.5 213,-76.5 213,-57.5 134,-57.5"/>
<text text-anchor="middle" x="173.5" y="-64.5" font-family="Helvetica,sans-Serif" font-size="10.00">newton_area</text>
</a>
</g>
</g>
<!-- Node1&#45;&gt;Node3 -->
<g id="edge2" class="edge"><title>Node1&#45;&gt;Node3</title>
<path fill="none" stroke="midnightblue" d="M90.8777,-92.3196C107.429,-87.1852 126.221,-81.3559 141.598,-76.5859"/>
<polygon fill="midnightblue" stroke="midnightblue" points="89.426,-89.1053 80.9119,-95.411 91.4999,-95.791 89.426,-89.1053"/>
</g>
<!-- Node4 -->
<g id="node4" class="node"><title>Node4</title>
<g id="a_node4"><a xlink:href="findpts__el__2_8c.html#a2bc5f8c39f8aeb300a6b30d313903bf4" target="_top" xlink:title="findpt_area">
<polygon fill="white" stroke="black" points="250,-76.5 250,-95.5 321,-95.5 321,-76.5 250,-76.5"/>
<text text-anchor="middle" x="285.5" y="-83.5" font-family="Helvetica,sans-Serif" font-size="10.00">findpt_area</text>
</a>
</g>
</g>
<!-- Node3&#45;&gt;Node4 -->
<g id="edge3" class="edge"><title>Node3&#45;&gt;Node4</title>
<path fill="none" stroke="midnightblue" d="M223.221,-75.4155C232.155,-76.9585 241.311,-78.5402 249.733,-79.9948"/>
<polygon fill="midnightblue" stroke="midnightblue" points="223.732,-71.9519 213.282,-73.6987 222.54,-78.8498 223.732,-71.9519"/>
</g>
<!-- Node5 -->
<g id="node5" class="node"><title>Node5</title>
<g id="a_node5"><a xlink:href="findpts__el__2_8c.html#a702f44e1b9ffb116fc271defdbfa0a00" target="_top" xlink:title="findpt_edge">
<polygon fill="white" stroke="black" points="249,-38.5 249,-57.5 322,-57.5 322,-38.5 249,-38.5"/>
<text text-anchor="middle" x="285.5" y="-45.5" font-family="Helvetica,sans-Serif" font-size="10.00">findpt_edge</text>
</a>
</g>
</g>
<!-- Node3&#45;&gt;Node5 -->
<g id="edge5" class="edge"><title>Node3&#45;&gt;Node5</title>
<path fill="none" stroke="midnightblue" d="M223.185,-58.5907C231.746,-57.1121 240.513,-55.5978 248.642,-54.1936"/>
<polygon fill="midnightblue" stroke="midnightblue" points="222.54,-55.1502 213.282,-60.3013 223.732,-62.0481 222.54,-55.1502"/>
</g>
<!-- Node6 -->
<g id="node6" class="node"><title>Node6</title>
<g id="a_node6"><a xlink:href="findpts__el__2_8c.html#a210a90144657b76da9efd04736820849" target="_top" xlink:title="findpt_pt">
<polygon fill="white" stroke="black" points="256.5,-0.5 256.5,-19.5 314.5,-19.5 314.5,-0.5 256.5,-0.5"/>
<text text-anchor="middle" x="285.5" y="-7.5" font-family="Helvetica,sans-Serif" font-size="10.00">findpt_pt</text>
</a>
</g>
</g>
<!-- Node3&#45;&gt;Node6 -->
<g id="edge7" class="edge"><title>Node3&#45;&gt;Node6</title>
<path fill="none" stroke="midnightblue" d="M202.119,-52.6884C222.133,-42.3173 248.642,-28.581 266.116,-19.5265"/>
<polygon fill="midnightblue" stroke="midnightblue" points="200.428,-49.6223 193.16,-57.3307 203.649,-55.8374 200.428,-49.6223"/>
</g>
<!-- Node4&#45;&gt;Node2 -->
<g id="edge4" class="edge"><title>Node4&#45;&gt;Node2</title>
<path fill="none" stroke="midnightblue" d="M331.034,-78.1289C340.01,-76.5425 349.339,-74.8936 357.98,-73.3664"/>
<polygon fill="midnightblue" stroke="midnightblue" points="330.344,-74.6966 321.105,-79.8837 331.562,-81.5897 330.344,-74.6966"/>
</g>
<!-- Node5&#45;&gt;Node2 -->
<g id="edge6" class="edge"><title>Node5&#45;&gt;Node2</title>
<path fill="none" stroke="midnightblue" d="M332.223,-56.0813C340.836,-57.6035 349.73,-59.1755 357.994,-60.6361"/>
<polygon fill="midnightblue" stroke="midnightblue" points="332.753,-52.6207 322.296,-54.3267 331.534,-59.5139 332.753,-52.6207"/>
</g>
<!-- Node6&#45;&gt;Node2 -->
<g id="edge8" class="edge"><title>Node6&#45;&gt;Node2</title>
<path fill="none" stroke="midnightblue" d="M313.757,-24.4525C333.285,-34.8069 359.034,-48.46 376.033,-57.4735"/>
<polygon fill="midnightblue" stroke="midnightblue" points="315.21,-21.2617 304.736,-19.6693 311.931,-27.4461 315.21,-21.2617"/>
</g>
</g>
</svg>
