<?xml version="1.0" encoding="UTF-8" standalone="no"?>
<!DOCTYPE svg PUBLIC "-//W3C//DTD SVG 1.1//EN"
 "http://www.w3.org/Graphics/SVG/1.1/DTD/svg11.dtd">
<!-- Generated by graphviz version 2.38.0 (20140413.2041)
 -->
<!-- Title: count_bits Pages: 1 -->
<svg width="349pt" height="142pt"
 viewBox="0.00 0.00 349.00 142.00" xmlns="http://www.w3.org/2000/svg" xmlns:xlink="http://www.w3.org/1999/xlink">
<g id="graph0" class="graph" transform="scale(1 1) rotate(0) translate(4 138)">
<title>count_bits</title>
<polygon fill="white" stroke="none" points="-4,4 -4,-138 345,-138 345,4 -4,4"/>
<!-- Node1 -->
<g id="node1" class="node"><title>Node1</title>
<polygon fill="#bfbfbf" stroke="black" points="0,-57.5 0,-76.5 64,-76.5 64,-57.5 0,-57.5"/>
<text text-anchor="middle" x="32" y="-64.5" font-family="Helvetica,sans-Serif" font-size="10.00">count_bits</text>
</g>
<!-- Node2 -->
<g id="node2" class="node"><title>Node2</title>
<g id="a_node2"><a xlink:href="findpts_8c.html#abd8d1d9c0bdbcd0be06d2dd737a4ff7b" target="_top" xlink:title="byte_bits">
<polygon fill="white" stroke="black" points="100,-76.5 100,-95.5 158,-95.5 158,-76.5 100,-76.5"/>
<text text-anchor="middle" x="129" y="-83.5" font-family="Helvetica,sans-Serif" font-size="10.00">byte_bits</text>
</a>
</g>
</g>
<!-- Node1&#45;&gt;Node2 -->
<g id="edge1" class="edge"><title>Node1&#45;&gt;Node2</title>
<path fill="none" stroke="midnightblue" d="M64.1066,-73.2213C72.2624,-74.8525 81.1533,-76.6307 89.6396,-78.3279"/>
<polygon fill="midnightblue" stroke="midnightblue" points="89.2217,-81.8136 99.7139,-80.3428 90.5946,-74.9495 89.2217,-81.8136"/>
</g>
<!-- Node3 -->
<g id="node3" class="node"><title>Node3</title>
<g id="a_node3"><a xlink:href="xxt_8c.html#a4c650e6ff94275a07fdde3ccc8faf7c4" target="_top" xlink:title="sum">
<polygon fill="white" stroke="black" points="194,-57.5 194,-76.5 229,-76.5 229,-57.5 194,-57.5"/>
<text text-anchor="middle" x="211.5" y="-64.5" font-family="Helvetica,sans-Serif" font-size="10.00">sum</text>
</a>
</g>
</g>
<!-- Node1&#45;&gt;Node3 -->
<g id="edge7" class="edge"><title>Node1&#45;&gt;Node3</title>
<path fill="none" stroke="midnightblue" d="M64.3248,-67C98.1555,-67 151.496,-67 183.529,-67"/>
<polygon fill="midnightblue" stroke="midnightblue" points="183.903,-70.5001 193.903,-67 183.903,-63.5001 183.903,-70.5001"/>
</g>
<!-- Node2&#45;&gt;Node3 -->
<g id="edge2" class="edge"><title>Node2&#45;&gt;Node3</title>
<path fill="none" stroke="midnightblue" d="M158.155,-79.3547C166.571,-77.3683 175.765,-75.1983 184.067,-73.2389"/>
<polygon fill="midnightblue" stroke="midnightblue" points="185.05,-76.603 193.979,-70.8994 183.442,-69.7902 185.05,-76.603"/>
</g>
<!-- Node4 -->
<g id="node4" class="node"><title>Node4</title>
<g id="a_node4"><a xlink:href="comm_8h.html#aadc6a8cdf4984083417952ebfbc0ee00" target="_top" xlink:title="comm_send">
<polygon fill="white" stroke="black" points="266,-114.5 266,-133.5 340,-133.5 340,-114.5 266,-114.5"/>
<text text-anchor="middle" x="303" y="-121.5" font-family="Helvetica,sans-Serif" font-size="10.00">comm_send</text>
</a>
</g>
</g>
<!-- Node3&#45;&gt;Node4 -->
<g id="edge3" class="edge"><title>Node3&#45;&gt;Node4</title>
<path fill="none" stroke="midnightblue" d="M224.651,-76.609C235.064,-84.6428 250.616,-96.1717 265,-105 267.623,-106.61 270.399,-108.211 273.203,-109.76"/>
<polygon fill="midnightblue" stroke="midnightblue" points="271.634,-112.89 282.108,-114.486 274.915,-106.707 271.634,-112.89"/>
</g>
<!-- Node5 -->
<g id="node5" class="node"><title>Node5</title>
<g id="a_node5"><a xlink:href="comm_8h.html#a61f3037ecf23cd5609e3eac2ce0e1b01" target="_top" xlink:title="comm_recv">
<polygon fill="white" stroke="black" points="267.5,-76.5 267.5,-95.5 338.5,-95.5 338.5,-76.5 267.5,-76.5"/>
<text text-anchor="middle" x="303" y="-83.5" font-family="Helvetica,sans-Serif" font-size="10.00">comm_recv</text>
</a>
</g>
</g>
<!-- Node3&#45;&gt;Node5 -->
<g id="edge4" class="edge"><title>Node3&#45;&gt;Node5</title>
<path fill="none" stroke="midnightblue" d="M229.334,-70.5738C237.385,-72.283 247.444,-74.4183 257.487,-76.5502"/>
<polygon fill="midnightblue" stroke="midnightblue" points="256.94,-80.0121 267.449,-78.6651 258.394,-73.1647 256.94,-80.0121"/>
</g>
<!-- Node6 -->
<g id="node6" class="node"><title>Node6</title>
<g id="a_node6"><a xlink:href="comm_8h.html#a33c610b70409697426693f5d98a8e084" target="_top" xlink:title="comm_isend">
<polygon fill="white" stroke="black" points="265,-38.5 265,-57.5 341,-57.5 341,-38.5 265,-38.5"/>
<text text-anchor="middle" x="303" y="-45.5" font-family="Helvetica,sans-Serif" font-size="10.00">comm_isend</text>
</a>
</g>
</g>
<!-- Node3&#45;&gt;Node6 -->
<g id="edge5" class="edge"><title>Node3&#45;&gt;Node6</title>
<path fill="none" stroke="midnightblue" d="M229.334,-63.4262C236.697,-61.8632 245.739,-59.9437 254.912,-57.9964"/>
<polygon fill="midnightblue" stroke="midnightblue" points="255.789,-61.3883 264.844,-55.8879 254.335,-54.5409 255.789,-61.3883"/>
</g>
<!-- Node7 -->
<g id="node7" class="node"><title>Node7</title>
<g id="a_node7"><a xlink:href="comm_8h.html#a0f6e578048ebdc9f0869f9f5af2fd08b" target="_top" xlink:title="comm_wait">
<polygon fill="white" stroke="black" points="268.5,-0.5 268.5,-19.5 337.5,-19.5 337.5,-0.5 268.5,-0.5"/>
<text text-anchor="middle" x="303" y="-7.5" font-family="Helvetica,sans-Serif" font-size="10.00">comm_wait</text>
</a>
</g>
</g>
<!-- Node3&#45;&gt;Node7 -->
<g id="edge6" class="edge"><title>Node3&#45;&gt;Node7</title>
<path fill="none" stroke="midnightblue" d="M224.651,-57.391C235.064,-49.3572 250.616,-37.8283 265,-29 267.623,-27.39 270.399,-25.7893 273.203,-24.2396"/>
<polygon fill="midnightblue" stroke="midnightblue" points="274.915,-27.2933 282.108,-19.5137 271.634,-21.1101 274.915,-27.2933"/>
</g>
</g>
</svg>
