<?xml version="1.0" encoding="UTF-8" standalone="no"?>
<!DOCTYPE svg PUBLIC "-//W3C//DTD SVG 1.1//EN"
 "http://www.w3.org/Graphics/SVG/1.1/DTD/svg11.dtd">
<!-- Generated by graphviz version 2.38.0 (20140413.2041)
 -->
<!-- Title: newton_area Pages: 1 -->
<svg width="306pt" height="104pt"
 viewBox="0.00 0.00 306.00 104.00" xmlns="http://www.w3.org/2000/svg" xmlns:xlink="http://www.w3.org/1999/xlink">
<g id="graph0" class="graph" transform="scale(1 1) rotate(0) translate(4 100)">
<title>newton_area</title>
<polygon fill="white" stroke="none" points="-4,4 -4,-100 302,-100 302,4 -4,4"/>
<!-- Node1 -->
<g id="node1" class="node"><title>Node1</title>
<polygon fill="#bfbfbf" stroke="black" points="0,-38.5 0,-57.5 79,-57.5 79,-38.5 0,-38.5"/>
<text text-anchor="middle" x="39.5" y="-45.5" font-family="Helvetica,sans-Serif" font-size="10.00">newton_area</text>
</g>
<!-- Node2 -->
<g id="node2" class="node"><title>Node2</title>
<g id="a_node2"><a xlink:href="findpts__el__2_8c.html#a2bc5f8c39f8aeb300a6b30d313903bf4" target="_top" xlink:title="findpt_area">
<polygon fill="white" stroke="black" points="116,-76.5 116,-95.5 187,-95.5 187,-76.5 116,-76.5"/>
<text text-anchor="middle" x="151.5" y="-83.5" font-family="Helvetica,sans-Serif" font-size="10.00">findpt_area</text>
</a>
</g>
</g>
<!-- Node1&#45;&gt;Node2 -->
<g id="edge1" class="edge"><title>Node1&#45;&gt;Node2</title>
<path fill="none" stroke="midnightblue" d="M78.0499,-60.9718C92.7049,-66.0344 109.204,-71.7341 122.751,-76.4141"/>
<polygon fill="midnightblue" stroke="midnightblue" points="78.8524,-57.5461 68.2576,-57.589 76.5667,-64.1624 78.8524,-57.5461"/>
</g>
<!-- Node4 -->
<g id="node4" class="node"><title>Node4</title>
<g id="a_node4"><a xlink:href="findpts__el__2_8c.html#a702f44e1b9ffb116fc271defdbfa0a00" target="_top" xlink:title="findpt_edge">
<polygon fill="white" stroke="black" points="115,-38.5 115,-57.5 188,-57.5 188,-38.5 115,-38.5"/>
<text text-anchor="middle" x="151.5" y="-45.5" font-family="Helvetica,sans-Serif" font-size="10.00">findpt_edge</text>
</a>
</g>
</g>
<!-- Node1&#45;&gt;Node4 -->
<g id="edge3" class="edge"><title>Node1&#45;&gt;Node4</title>
<path fill="none" stroke="midnightblue" d="M89.4646,-48C97.9362,-48 106.601,-48 114.642,-48"/>
<polygon fill="midnightblue" stroke="midnightblue" points="89.2819,-44.5001 79.2819,-48 89.2819,-51.5001 89.2819,-44.5001"/>
</g>
<!-- Node5 -->
<g id="node5" class="node"><title>Node5</title>
<g id="a_node5"><a xlink:href="findpts__el__2_8c.html#a210a90144657b76da9efd04736820849" target="_top" xlink:title="findpt_pt">
<polygon fill="white" stroke="black" points="122.5,-0.5 122.5,-19.5 180.5,-19.5 180.5,-0.5 122.5,-0.5"/>
<text text-anchor="middle" x="151.5" y="-7.5" font-family="Helvetica,sans-Serif" font-size="10.00">findpt_pt</text>
</a>
</g>
</g>
<!-- Node1&#45;&gt;Node5 -->
<g id="edge5" class="edge"><title>Node1&#45;&gt;Node5</title>
<path fill="none" stroke="midnightblue" d="M78.0499,-35.0282C92.7049,-29.9656 109.204,-24.2659 122.751,-19.5859"/>
<polygon fill="midnightblue" stroke="midnightblue" points="76.5667,-31.8376 68.2576,-38.411 78.8524,-38.4539 76.5667,-31.8376"/>
</g>
<!-- Node3 -->
<g id="node3" class="node"><title>Node3</title>
<g id="a_node3"><a xlink:href="findpts__el__2_8c.html#a1fe7500238a37c48ae642d12cf921989" target="_top" xlink:title="findpts_el_2">
<polygon fill="white" stroke="black" points="224,-38.5 224,-57.5 298,-57.5 298,-38.5 224,-38.5"/>
<text text-anchor="middle" x="261" y="-45.5" font-family="Helvetica,sans-Serif" font-size="10.00">findpts_el_2</text>
</a>
</g>
</g>
<!-- Node2&#45;&gt;Node3 -->
<g id="edge2" class="edge"><title>Node2&#45;&gt;Node3</title>
<path fill="none" stroke="midnightblue" d="M189.196,-73.0282C203.518,-67.9656 219.642,-62.2659 232.882,-57.5859"/>
<polygon fill="midnightblue" stroke="midnightblue" points="187.889,-69.7782 179.627,-76.411 190.222,-76.378 187.889,-69.7782"/>
</g>
<!-- Node4&#45;&gt;Node3 -->
<g id="edge4" class="edge"><title>Node4&#45;&gt;Node3</title>
<path fill="none" stroke="midnightblue" d="M198.504,-48C207.029,-48 215.82,-48 223.994,-48"/>
<polygon fill="midnightblue" stroke="midnightblue" points="198.296,-44.5001 188.296,-48 198.296,-51.5001 198.296,-44.5001"/>
</g>
<!-- Node5&#45;&gt;Node3 -->
<g id="edge6" class="edge"><title>Node5&#45;&gt;Node3</title>
<path fill="none" stroke="midnightblue" d="M189.196,-22.9718C203.518,-28.0344 219.642,-33.7341 232.882,-38.4141"/>
<polygon fill="midnightblue" stroke="midnightblue" points="190.222,-19.622 179.627,-19.589 187.889,-26.2218 190.222,-19.622"/>
</g>
</g>
</svg>
