<?xml version="1.0" encoding="UTF-8" standalone="no"?>
<!DOCTYPE svg PUBLIC "-//W3C//DTD SVG 1.1//EN"
 "http://www.w3.org/Graphics/SVG/1.1/DTD/svg11.dtd">
<!-- Generated by graphviz version 2.38.0 (20140413.2041)
 -->
<!-- Title: ffindpts_eval Pages: 1 -->
<svg width="207pt" height="66pt"
 viewBox="0.00 0.00 207.00 66.00" xmlns="http://www.w3.org/2000/svg" xmlns:xlink="http://www.w3.org/1999/xlink">
<g id="graph0" class="graph" transform="scale(1 1) rotate(0) translate(4 62)">
<title>ffindpts_eval</title>
<polygon fill="white" stroke="none" points="-4,4 -4,-62 203,-62 203,4 -4,4"/>
<!-- Node1 -->
<g id="node1" class="node"><title>Node1</title>
<polygon fill="#bfbfbf" stroke="black" points="0,-19.5 0,-38.5 77,-38.5 77,-19.5 0,-19.5"/>
<text text-anchor="middle" x="38.5" y="-26.5" font-family="Helvetica,sans-Serif" font-size="10.00">ffindpts_eval</text>
</g>
<!-- Node2 -->
<g id="node2" class="node"><title>Node2</title>
<g id="a_node2"><a xlink:href="findpts_8h.html#a783e0a636e1ebb5b56ec16299023ea24" target="_top" xlink:title="findpts_eval_2">
<polygon fill="white" stroke="black" points="113,-38.5 113,-57.5 199,-57.5 199,-38.5 113,-38.5"/>
<text text-anchor="middle" x="156" y="-45.5" font-family="Helvetica,sans-Serif" font-size="10.00">findpts_eval_2</text>
</a>
</g>
</g>
<!-- Node1&#45;&gt;Node2 -->
<g id="edge1" class="edge"><title>Node1&#45;&gt;Node2</title>
<path fill="none" stroke="midnightblue" d="M77.319,-35.2213C85.4524,-36.5593 94.1869,-37.9961 102.758,-39.4061"/>
<polygon fill="midnightblue" stroke="midnightblue" points="102.264,-42.8717 112.699,-41.0414 103.4,-35.9645 102.264,-42.8717"/>
</g>
<!-- Node3 -->
<g id="node3" class="node"><title>Node3</title>
<g id="a_node3"><a xlink:href="findpts_8h.html#a29985afd96036a30c4cbc0efa7e262f0" target="_top" xlink:title="findpts_eval_3">
<polygon fill="white" stroke="black" points="113,-0.5 113,-19.5 199,-19.5 199,-0.5 113,-0.5"/>
<text text-anchor="middle" x="156" y="-7.5" font-family="Helvetica,sans-Serif" font-size="10.00">findpts_eval_3</text>
</a>
</g>
</g>
<!-- Node1&#45;&gt;Node3 -->
<g id="edge2" class="edge"><title>Node1&#45;&gt;Node3</title>
<path fill="none" stroke="midnightblue" d="M77.319,-22.7787C85.4524,-21.4407 94.1869,-20.0039 102.758,-18.5939"/>
<polygon fill="midnightblue" stroke="midnightblue" points="103.4,-22.0355 112.699,-16.9586 102.264,-15.1283 103.4,-22.0355"/>
</g>
</g>
</svg>
