<?xml version="1.0" encoding="UTF-8" standalone="no"?>
<!DOCTYPE svg PUBLIC "-//W3C//DTD SVG 1.1//EN"
 "http://www.w3.org/Graphics/SVG/1.1/DTD/svg11.dtd">
<!-- Generated by graphviz version 2.38.0 (20140413.2041)
 -->
<!-- Title: newton_vol Pages: 1 -->
<svg width="298pt" height="142pt"
 viewBox="0.00 0.00 298.00 142.00" xmlns="http://www.w3.org/2000/svg" xmlns:xlink="http://www.w3.org/1999/xlink">
<g id="graph0" class="graph" transform="scale(1 1) rotate(0) translate(4 138)">
<title>newton_vol</title>
<polygon fill="white" stroke="none" points="-4,4 -4,-138 294,-138 294,4 -4,4"/>
<!-- Node1 -->
<g id="node1" class="node"><title>Node1</title>
<polygon fill="#bfbfbf" stroke="black" points="0,-57.5 0,-76.5 71,-76.5 71,-57.5 0,-57.5"/>
<text text-anchor="middle" x="35.5" y="-64.5" font-family="Helvetica,sans-Serif" font-size="10.00">newton_vol</text>
</g>
<!-- Node2 -->
<g id="node2" class="node"><title>Node2</title>
<g id="a_node2"><a xlink:href="findpts__el__3_8c.html#af1a3eb77cfbd30da8225576a88a12cd0" target="_top" xlink:title="findpt_edge">
<polygon fill="white" stroke="black" points="107,-114.5 107,-133.5 180,-133.5 180,-114.5 107,-114.5"/>
<text text-anchor="middle" x="143.5" y="-121.5" font-family="Helvetica,sans-Serif" font-size="10.00">findpt_edge</text>
</a>
</g>
</g>
<!-- Node1&#45;&gt;Node2 -->
<g id="edge1" class="edge"><title>Node1&#45;&gt;Node2</title>
<path fill="none" stroke="midnightblue" d="M63.1751,-81.402C76.359,-88.5139 92.5104,-97.2175 107,-105 112.666,-108.043 118.844,-111.353 124.435,-114.344"/>
<polygon fill="midnightblue" stroke="midnightblue" points="64.6285,-78.2092 54.1659,-76.5406 61.3043,-84.3696 64.6285,-78.2092"/>
</g>
<!-- Node4 -->
<g id="node4" class="node"><title>Node4</title>
<g id="a_node4"><a xlink:href="findpts__el__3_8c.html#ad2c233df5cb0edb3790d3c59eb9f19be" target="_top" xlink:title="findpt_face">
<polygon fill="white" stroke="black" points="109,-76.5 109,-95.5 178,-95.5 178,-76.5 109,-76.5"/>
<text text-anchor="middle" x="143.5" y="-83.5" font-family="Helvetica,sans-Serif" font-size="10.00">findpt_face</text>
</a>
</g>
</g>
<!-- Node1&#45;&gt;Node4 -->
<g id="edge3" class="edge"><title>Node1&#45;&gt;Node4</title>
<path fill="none" stroke="midnightblue" d="M81.0813,-74.991C90.3589,-76.6539 99.9897,-78.3802 108.797,-79.9589"/>
<polygon fill="midnightblue" stroke="midnightblue" points="81.669,-71.5406 71.2084,-73.2213 80.4339,-78.4308 81.669,-71.5406"/>
</g>
<!-- Node5 -->
<g id="node5" class="node"><title>Node5</title>
<g id="a_node5"><a xlink:href="findpts__el__3_8c.html#a45011f1c9ad5e46c578da17c3c306d0f" target="_top" xlink:title="findpt_pt">
<polygon fill="white" stroke="black" points="114.5,-38.5 114.5,-57.5 172.5,-57.5 172.5,-38.5 114.5,-38.5"/>
<text text-anchor="middle" x="143.5" y="-45.5" font-family="Helvetica,sans-Serif" font-size="10.00">findpt_pt</text>
</a>
</g>
</g>
<!-- Node1&#45;&gt;Node5 -->
<g id="edge5" class="edge"><title>Node1&#45;&gt;Node5</title>
<path fill="none" stroke="midnightblue" d="M81.3182,-58.9665C92.5454,-56.9541 104.274,-54.8518 114.424,-53.0324"/>
<polygon fill="midnightblue" stroke="midnightblue" points="80.4339,-55.5692 71.2084,-60.7787 81.669,-62.4594 80.4339,-55.5692"/>
</g>
<!-- Node6 -->
<g id="node6" class="node"><title>Node6</title>
<g id="a_node6"><a xlink:href="findpts__el__3_8c.html#aaaaad44889a0b6de44f02e50fee8d342" target="_top" xlink:title="findpt_vol">
<polygon fill="white" stroke="black" points="112.5,-0.5 112.5,-19.5 174.5,-19.5 174.5,-0.5 112.5,-0.5"/>
<text text-anchor="middle" x="143.5" y="-7.5" font-family="Helvetica,sans-Serif" font-size="10.00">findpt_vol</text>
</a>
</g>
</g>
<!-- Node1&#45;&gt;Node6 -->
<g id="edge7" class="edge"><title>Node1&#45;&gt;Node6</title>
<path fill="none" stroke="midnightblue" d="M63.1751,-52.598C76.359,-45.4861 92.5104,-36.7825 107,-29 112.666,-25.9569 118.844,-22.6472 124.435,-19.6555"/>
<polygon fill="midnightblue" stroke="midnightblue" points="61.3043,-49.6304 54.1659,-57.4594 64.6285,-55.7908 61.3043,-49.6304"/>
</g>
<!-- Node3 -->
<g id="node3" class="node"><title>Node3</title>
<g id="a_node3"><a xlink:href="findpts__el__3_8c.html#a3ed659b9d68af3919368cbdc12649730" target="_top" xlink:title="findpts_el_3">
<polygon fill="white" stroke="black" points="216,-57.5 216,-76.5 290,-76.5 290,-57.5 216,-57.5"/>
<text text-anchor="middle" x="253" y="-64.5" font-family="Helvetica,sans-Serif" font-size="10.00">findpts_el_3</text>
</a>
</g>
</g>
<!-- Node2&#45;&gt;Node3 -->
<g id="edge2" class="edge"><title>Node2&#45;&gt;Node3</title>
<path fill="none" stroke="midnightblue" d="M171.757,-109.547C191.285,-99.1931 217.034,-85.54 234.033,-76.5265"/>
<polygon fill="midnightblue" stroke="midnightblue" points="169.931,-106.554 162.736,-114.331 173.21,-112.738 169.931,-106.554"/>
</g>
<!-- Node4&#45;&gt;Node3 -->
<g id="edge4" class="edge"><title>Node4&#45;&gt;Node3</title>
<path fill="none" stroke="midnightblue" d="M188.304,-78.2578C197.439,-76.6434 206.971,-74.9587 215.794,-73.3992"/>
<polygon fill="midnightblue" stroke="midnightblue" points="187.457,-74.8533 178.219,-80.0404 188.675,-81.7464 187.457,-74.8533"/>
</g>
<!-- Node5&#45;&gt;Node3 -->
<g id="edge6" class="edge"><title>Node5&#45;&gt;Node3</title>
<path fill="none" stroke="midnightblue" d="M182.732,-54.7573C193.506,-56.6616 205.191,-58.7267 215.84,-60.6088"/>
<polygon fill="midnightblue" stroke="midnightblue" points="183.201,-51.286 172.744,-52.992 181.983,-58.1792 183.201,-51.286"/>
</g>
<!-- Node6&#45;&gt;Node3 -->
<g id="edge8" class="edge"><title>Node6&#45;&gt;Node3</title>
<path fill="none" stroke="midnightblue" d="M171.757,-24.4525C191.285,-34.8069 217.034,-48.46 234.033,-57.4735"/>
<polygon fill="midnightblue" stroke="midnightblue" points="173.21,-21.2617 162.736,-19.6693 169.931,-27.4461 173.21,-21.2617"/>
</g>
</g>
</svg>
