<?xml version="1.0" encoding="UTF-8" standalone="no"?>
<!DOCTYPE svg PUBLIC "-//W3C//DTD SVG 1.1//EN"
 "http://www.w3.org/Graphics/SVG/1.1/DTD/svg11.dtd">
<!-- Generated by graphviz version 2.38.0 (20140413.2041)
 -->
<!-- Title: hash_index Pages: 1 -->
<svg width="285pt" height="28pt"
 viewBox="0.00 0.00 285.00 28.00" xmlns="http://www.w3.org/2000/svg" xmlns:xlink="http://www.w3.org/1999/xlink">
<g id="graph0" class="graph" transform="scale(1 1) rotate(0) translate(4 24)">
<title>hash_index</title>
<polygon fill="white" stroke="none" points="-4,4 -4,-24 281,-24 281,4 -4,4"/>
<!-- Node1 -->
<g id="node1" class="node"><title>Node1</title>
<polygon fill="#bfbfbf" stroke="black" points="0,-0.5 0,-19.5 71,-19.5 71,-0.5 0,-0.5"/>
<text text-anchor="middle" x="35.5" y="-7.5" font-family="Helvetica,sans-Serif" font-size="10.00">hash_index</text>
</g>
<!-- Node2 -->
<g id="node2" class="node"><title>Node2</title>
<g id="a_node2"><a xlink:href="findpts_8c.html#a5c0811bb0499335023f5073f82b93b52" target="_top" xlink:title="hash_index_aux">
<polygon fill="white" stroke="black" points="107,-0.5 107,-19.5 201,-19.5 201,-0.5 107,-0.5"/>
<text text-anchor="middle" x="154" y="-7.5" font-family="Helvetica,sans-Serif" font-size="10.00">hash_index_aux</text>
</a>
</g>
</g>
<!-- Node1&#45;&gt;Node2 -->
<g id="edge1" class="edge"><title>Node1&#45;&gt;Node2</title>
<path fill="none" stroke="midnightblue" d="M71.1384,-10C79.141,-10 87.8593,-10 96.5251,-10"/>
<polygon fill="midnightblue" stroke="midnightblue" points="96.6279,-13.5001 106.628,-10 96.6279,-6.5001 96.6279,-13.5001"/>
</g>
<!-- Node3 -->
<g id="node3" class="node"><title>Node3</title>
<g id="a_node3"><a xlink:href="findpts_8c.html#ab72d6aa75d8623fbbc595eba6e4c9f5a" target="_top" xlink:title="lfloor">
<polygon fill="white" stroke="black" points="237,-0.5 237,-19.5 277,-19.5 277,-0.5 237,-0.5"/>
<text text-anchor="middle" x="257" y="-7.5" font-family="Helvetica,sans-Serif" font-size="10.00">lfloor</text>
</a>
</g>
</g>
<!-- Node2&#45;&gt;Node3 -->
<g id="edge2" class="edge"><title>Node2&#45;&gt;Node3</title>
<path fill="none" stroke="midnightblue" d="M201.067,-10C209.651,-10 218.408,-10 226.334,-10"/>
<polygon fill="midnightblue" stroke="midnightblue" points="226.534,-13.5001 236.534,-10 226.534,-6.5001 226.534,-13.5001"/>
</g>
</g>
</svg>
