<?xml version="1.0" encoding="UTF-8" standalone="no"?>
<!DOCTYPE svg PUBLIC "-//W3C//DTD SVG 1.1//EN"
 "http://www.w3.org/Graphics/SVG/1.1/DTD/svg11.dtd">
<!-- Generated by graphviz version 2.38.0 (20140413.2041)
 -->
<!-- Title: compute_edge_data_s Pages: 1 -->
<svg width="450pt" height="28pt"
 viewBox="0.00 0.00 450.00 28.00" xmlns="http://www.w3.org/2000/svg" xmlns:xlink="http://www.w3.org/1999/xlink">
<g id="graph0" class="graph" transform="scale(1 1) rotate(0) translate(4 24)">
<title>compute_edge_data_s</title>
<polygon fill="white" stroke="none" points="-4,4 -4,-24 446,-24 446,4 -4,4"/>
<!-- Node1 -->
<g id="node1" class="node"><title>Node1</title>
<polygon fill="#bfbfbf" stroke="black" points="0,-0.5 0,-19.5 125,-19.5 125,-0.5 0,-0.5"/>
<text text-anchor="middle" x="62.5" y="-7.5" font-family="Helvetica,sans-Serif" font-size="10.00">compute_edge_data_s</text>
</g>
<!-- Node2 -->
<g id="node2" class="node"><title>Node2</title>
<g id="a_node2"><a xlink:href="findpts__el__2_8c.html#af396850f1a86af34b197d06b3254bb40" target="_top" xlink:title="get_edge">
<polygon fill="white" stroke="black" points="161,-0.5 161,-19.5 223,-19.5 223,-0.5 161,-0.5"/>
<text text-anchor="middle" x="192" y="-7.5" font-family="Helvetica,sans-Serif" font-size="10.00">get_edge</text>
</a>
</g>
</g>
<!-- Node1&#45;&gt;Node2 -->
<g id="edge1" class="edge"><title>Node1&#45;&gt;Node2</title>
<path fill="none" stroke="midnightblue" d="M135.234,-10C144.244,-10 153.038,-10 160.88,-10"/>
<polygon fill="midnightblue" stroke="midnightblue" points="135.009,-6.5001 125.009,-10 135.009,-13.5001 135.009,-6.5001"/>
</g>
<!-- Node3 -->
<g id="node3" class="node"><title>Node3</title>
<g id="a_node3"><a xlink:href="findpts__el__2_8c.html#a702f44e1b9ffb116fc271defdbfa0a00" target="_top" xlink:title="findpt_edge">
<polygon fill="white" stroke="black" points="259,-0.5 259,-19.5 332,-19.5 332,-0.5 259,-0.5"/>
<text text-anchor="middle" x="295.5" y="-7.5" font-family="Helvetica,sans-Serif" font-size="10.00">findpt_edge</text>
</a>
</g>
</g>
<!-- Node2&#45;&gt;Node3 -->
<g id="edge2" class="edge"><title>Node2&#45;&gt;Node3</title>
<path fill="none" stroke="midnightblue" d="M233.246,-10C241.72,-10 250.603,-10 258.893,-10"/>
<polygon fill="midnightblue" stroke="midnightblue" points="233.179,-6.5001 223.179,-10 233.179,-13.5001 233.179,-6.5001"/>
</g>
<!-- Node4 -->
<g id="node4" class="node"><title>Node4</title>
<g id="a_node4"><a xlink:href="findpts__el__2_8c.html#a1fe7500238a37c48ae642d12cf921989" target="_top" xlink:title="findpts_el_2">
<polygon fill="white" stroke="black" points="368,-0.5 368,-19.5 442,-19.5 442,-0.5 368,-0.5"/>
<text text-anchor="middle" x="405" y="-7.5" font-family="Helvetica,sans-Serif" font-size="10.00">findpts_el_2</text>
</a>
</g>
</g>
<!-- Node3&#45;&gt;Node4 -->
<g id="edge3" class="edge"><title>Node3&#45;&gt;Node4</title>
<path fill="none" stroke="midnightblue" d="M342.504,-10C351.029,-10 359.82,-10 367.994,-10"/>
<polygon fill="midnightblue" stroke="midnightblue" points="342.296,-6.5001 332.296,-10 342.296,-13.5001 342.296,-6.5001"/>
</g>
</g>
</svg>
