<?xml version="1.0" encoding="UTF-8" standalone="no"?>
<!DOCTYPE svg PUBLIC "-//W3C//DTD SVG 1.1//EN"
 "http://www.w3.org/Graphics/SVG/1.1/DTD/svg11.dtd">
<!-- Generated by graphviz version 2.38.0 (20140413.2041)
 -->
<!-- Title: num_constrained Pages: 1 -->
<svg width="432pt" height="165pt"
 viewBox="0.00 0.00 432.00 164.91" xmlns="http://www.w3.org/2000/svg" xmlns:xlink="http://www.w3.org/1999/xlink">
<g id="graph0" class="graph" transform="scale(1 1) rotate(0) translate(4 160.908)">
<title>num_constrained</title>
<polygon fill="white" stroke="none" points="-4,4 -4,-160.908 428,-160.908 428,4 -4,4"/>
<!-- Node1 -->
<g id="node1" class="node"><title>Node1</title>
<polygon fill="#bfbfbf" stroke="black" points="0,-114.5 0,-133.5 98,-133.5 98,-114.5 0,-114.5"/>
<text text-anchor="middle" x="49" y="-121.5" font-family="Helvetica,sans-Serif" font-size="10.00">num_constrained</text>
</g>
<!-- Node2 -->
<g id="node2" class="node"><title>Node2</title>
<g id="a_node2"><a xlink:href="findpts__el__3_8c.html#a3ed659b9d68af3919368cbdc12649730" target="_top" xlink:title="findpts_el_3">
<polygon fill="white" stroke="black" points="350,-76.5 350,-95.5 424,-95.5 424,-76.5 350,-76.5"/>
<text text-anchor="middle" x="387" y="-83.5" font-family="Helvetica,sans-Serif" font-size="10.00">findpts_el_3</text>
</a>
</g>
</g>
<!-- Node1&#45;&gt;Node2 -->
<g id="edge1" class="edge"><title>Node1&#45;&gt;Node2</title>
<path fill="none" stroke="midnightblue" d="M89.1418,-136.272C141.831,-150.698 237.756,-169.527 314,-143 341.104,-133.57 365.689,-109.221 377.897,-95.5949"/>
<polygon fill="midnightblue" stroke="midnightblue" points="90.0851,-132.901 79.5102,-133.551 88.1819,-139.638 90.0851,-132.901"/>
</g>
<!-- Node3 -->
<g id="node3" class="node"><title>Node3</title>
<g id="a_node3"><a xlink:href="findpts__el__3_8c.html#a40edfe526f6370f9c97f4ecac2c56e78" target="_top" xlink:title="newton_vol">
<polygon fill="white" stroke="black" points="134,-76.5 134,-95.5 205,-95.5 205,-76.5 134,-76.5"/>
<text text-anchor="middle" x="169.5" y="-83.5" font-family="Helvetica,sans-Serif" font-size="10.00">newton_vol</text>
</a>
</g>
</g>
<!-- Node1&#45;&gt;Node3 -->
<g id="edge2" class="edge"><title>Node1&#45;&gt;Node3</title>
<path fill="none" stroke="midnightblue" d="M89.5429,-111.32C105.554,-106.185 123.732,-100.356 138.607,-95.5859"/>
<polygon fill="midnightblue" stroke="midnightblue" points="88.3562,-108.025 79.9026,-114.411 90.4937,-114.69 88.3562,-108.025"/>
</g>
<!-- Node4 -->
<g id="node4" class="node"><title>Node4</title>
<g id="a_node4"><a xlink:href="findpts__el__3_8c.html#af1a3eb77cfbd30da8225576a88a12cd0" target="_top" xlink:title="findpt_edge">
<polygon fill="white" stroke="black" points="241,-114.5 241,-133.5 314,-133.5 314,-114.5 241,-114.5"/>
<text text-anchor="middle" x="277.5" y="-121.5" font-family="Helvetica,sans-Serif" font-size="10.00">findpt_edge</text>
</a>
</g>
</g>
<!-- Node3&#45;&gt;Node4 -->
<g id="edge3" class="edge"><title>Node3&#45;&gt;Node4</title>
<path fill="none" stroke="midnightblue" d="M206.684,-98.9718C220.807,-104.034 236.706,-109.734 249.76,-114.414"/>
<polygon fill="midnightblue" stroke="midnightblue" points="207.843,-95.669 197.248,-95.589 205.481,-102.258 207.843,-95.669"/>
</g>
<!-- Node5 -->
<g id="node5" class="node"><title>Node5</title>
<g id="a_node5"><a xlink:href="findpts__el__3_8c.html#ad2c233df5cb0edb3790d3c59eb9f19be" target="_top" xlink:title="findpt_face">
<polygon fill="white" stroke="black" points="243,-76.5 243,-95.5 312,-95.5 312,-76.5 243,-76.5"/>
<text text-anchor="middle" x="277.5" y="-83.5" font-family="Helvetica,sans-Serif" font-size="10.00">findpt_face</text>
</a>
</g>
</g>
<!-- Node3&#45;&gt;Node5 -->
<g id="edge5" class="edge"><title>Node3&#45;&gt;Node5</title>
<path fill="none" stroke="midnightblue" d="M215.377,-86C224.564,-86 234.083,-86 242.797,-86"/>
<polygon fill="midnightblue" stroke="midnightblue" points="215.208,-82.5001 205.208,-86 215.208,-89.5001 215.208,-82.5001"/>
</g>
<!-- Node6 -->
<g id="node6" class="node"><title>Node6</title>
<g id="a_node6"><a xlink:href="findpts__el__3_8c.html#a45011f1c9ad5e46c578da17c3c306d0f" target="_top" xlink:title="findpt_pt">
<polygon fill="white" stroke="black" points="248.5,-38.5 248.5,-57.5 306.5,-57.5 306.5,-38.5 248.5,-38.5"/>
<text text-anchor="middle" x="277.5" y="-45.5" font-family="Helvetica,sans-Serif" font-size="10.00">findpt_pt</text>
</a>
</g>
</g>
<!-- Node3&#45;&gt;Node6 -->
<g id="edge7" class="edge"><title>Node3&#45;&gt;Node6</title>
<path fill="none" stroke="midnightblue" d="M206.684,-73.0282C220.807,-67.9656 236.706,-62.2659 249.76,-57.5859"/>
<polygon fill="midnightblue" stroke="midnightblue" points="205.481,-69.7416 197.248,-76.411 207.843,-76.331 205.481,-69.7416"/>
</g>
<!-- Node7 -->
<g id="node7" class="node"><title>Node7</title>
<g id="a_node7"><a xlink:href="findpts__el__3_8c.html#aaaaad44889a0b6de44f02e50fee8d342" target="_top" xlink:title="findpt_vol">
<polygon fill="white" stroke="black" points="246.5,-0.5 246.5,-19.5 308.5,-19.5 308.5,-0.5 246.5,-0.5"/>
<text text-anchor="middle" x="277.5" y="-7.5" font-family="Helvetica,sans-Serif" font-size="10.00">findpt_vol</text>
</a>
</g>
</g>
<!-- Node3&#45;&gt;Node7 -->
<g id="edge9" class="edge"><title>Node3&#45;&gt;Node7</title>
<path fill="none" stroke="midnightblue" d="M188.782,-69.6172C202.599,-57.6403 222.317,-41.3922 241,-29 246.01,-25.677 251.66,-22.4424 256.955,-19.6118"/>
<polygon fill="midnightblue" stroke="midnightblue" points="186.207,-67.2208 181.003,-76.4499 190.826,-72.4801 186.207,-67.2208"/>
</g>
<!-- Node4&#45;&gt;Node2 -->
<g id="edge4" class="edge"><title>Node4&#45;&gt;Node2</title>
<path fill="none" stroke="midnightblue" d="M315.196,-111.028C329.518,-105.966 345.642,-100.266 358.882,-95.5859"/>
<polygon fill="midnightblue" stroke="midnightblue" points="313.889,-107.778 305.627,-114.411 316.222,-114.378 313.889,-107.778"/>
</g>
<!-- Node5&#45;&gt;Node2 -->
<g id="edge6" class="edge"><title>Node5&#45;&gt;Node2</title>
<path fill="none" stroke="midnightblue" d="M322.304,-86C331.439,-86 340.971,-86 349.794,-86"/>
<polygon fill="midnightblue" stroke="midnightblue" points="322.219,-82.5001 312.219,-86 322.219,-89.5001 322.219,-82.5001"/>
</g>
<!-- Node6&#45;&gt;Node2 -->
<g id="edge8" class="edge"><title>Node6&#45;&gt;Node2</title>
<path fill="none" stroke="midnightblue" d="M315.196,-60.9718C329.518,-66.0344 345.642,-71.7341 358.882,-76.4141"/>
<polygon fill="midnightblue" stroke="midnightblue" points="316.222,-57.622 305.627,-57.589 313.889,-64.2218 316.222,-57.622"/>
</g>
<!-- Node7&#45;&gt;Node2 -->
<g id="edge10" class="edge"><title>Node7&#45;&gt;Node2</title>
<path fill="none" stroke="midnightblue" d="M306.871,-24.5918C309.315,-26.0265 311.722,-27.5059 314,-29 336.929,-44.04 361.549,-64.6007 375.238,-76.4744"/>
<polygon fill="midnightblue" stroke="midnightblue" points="308.459,-21.4698 298.023,-19.6459 305.044,-27.5801 308.459,-21.4698"/>
</g>
</g>
</svg>
