<?xml version="1.0" encoding="UTF-8" standalone="no"?>
<!DOCTYPE svg PUBLIC "-//W3C//DTD SVG 1.1//EN"
 "http://www.w3.org/Graphics/SVG/1.1/DTD/svg11.dtd">
<!-- Generated by graphviz version 2.38.0 (20140413.2041)
 -->
<!-- Title: get_face Pages: 1 -->
<svg width="767pt" height="104pt"
 viewBox="0.00 0.00 767.00 104.00" xmlns="http://www.w3.org/2000/svg" xmlns:xlink="http://www.w3.org/1999/xlink">
<g id="graph0" class="graph" transform="scale(1 1) rotate(0) translate(4 100)">
<title>get_face</title>
<polygon fill="white" stroke="none" points="-4,4 -4,-100 763,-100 763,4 -4,4"/>
<!-- Node1 -->
<g id="node1" class="node"><title>Node1</title>
<polygon fill="#bfbfbf" stroke="black" points="0,-19.5 0,-38.5 58,-38.5 58,-19.5 0,-19.5"/>
<text text-anchor="middle" x="29" y="-26.5" font-family="Helvetica,sans-Serif" font-size="10.00">get_face</text>
</g>
<!-- Node2 -->
<g id="node2" class="node"><title>Node2</title>
<g id="a_node2"><a xlink:href="findpts__el__3_8c.html#a7af2d3a734a0e2e8883badf9eee92932" target="_top" xlink:title="compute_edge_data">
<polygon fill="white" stroke="black" points="94,-38.5 94,-57.5 207,-57.5 207,-38.5 94,-38.5"/>
<text text-anchor="middle" x="150.5" y="-45.5" font-family="Helvetica,sans-Serif" font-size="10.00">compute_edge_data</text>
</a>
</g>
</g>
<!-- Node1&#45;&gt;Node2 -->
<g id="edge1" class="edge"><title>Node1&#45;&gt;Node2</title>
<path fill="none" stroke="midnightblue" d="M68.0567,-35.0509C76.2963,-36.3609 85.1728,-37.7722 93.929,-39.1644"/>
<polygon fill="midnightblue" stroke="midnightblue" points="68.443,-31.5684 58.0174,-33.4547 67.3438,-38.4816 68.443,-31.5684"/>
</g>
<!-- Node9 -->
<g id="node9" class="node"><title>Node9</title>
<g id="a_node9"><a xlink:href="findpts__el__3_8c.html#ad2c233df5cb0edb3790d3c59eb9f19be" target="_top" xlink:title="findpt_face">
<polygon fill="white" stroke="black" points="243,-0.5 243,-19.5 312,-19.5 312,-0.5 243,-0.5"/>
<text text-anchor="middle" x="277.5" y="-7.5" font-family="Helvetica,sans-Serif" font-size="10.00">findpt_face</text>
</a>
</g>
</g>
<!-- Node1&#45;&gt;Node9 -->
<g id="edge9" class="edge"><title>Node1&#45;&gt;Node9</title>
<path fill="none" stroke="midnightblue" d="M68.5311,-26.0301C116.35,-22.3442 197.134,-16.1174 242.666,-12.6079"/>
<polygon fill="midnightblue" stroke="midnightblue" points="67.9781,-22.5622 58.2767,-26.8205 68.5161,-29.5415 67.9781,-22.5622"/>
</g>
<!-- Node3 -->
<g id="node3" class="node"><title>Node3</title>
<g id="a_node3"><a xlink:href="findpts__el__3_8c.html#a3acbce16e4f7a28b4ad8a6d217d776b2" target="_top" xlink:title="get_edge">
<polygon fill="white" stroke="black" points="246.5,-38.5 246.5,-57.5 308.5,-57.5 308.5,-38.5 246.5,-38.5"/>
<text text-anchor="middle" x="277.5" y="-45.5" font-family="Helvetica,sans-Serif" font-size="10.00">get_edge</text>
</a>
</g>
</g>
<!-- Node2&#45;&gt;Node3 -->
<g id="edge2" class="edge"><title>Node2&#45;&gt;Node3</title>
<path fill="none" stroke="midnightblue" d="M217.269,-48C227.485,-48 237.583,-48 246.47,-48"/>
<polygon fill="midnightblue" stroke="midnightblue" points="217.055,-44.5001 207.055,-48 217.055,-51.5001 217.055,-44.5001"/>
</g>
<!-- Node4 -->
<g id="node4" class="node"><title>Node4</title>
<g id="a_node4"><a xlink:href="findpts__el__3_8c.html#a196411139d99d1bb50c742501192796a" target="_top" xlink:title="compute_pt_data">
<polygon fill="white" stroke="black" points="348,-76.5 348,-95.5 446,-95.5 446,-76.5 348,-76.5"/>
<text text-anchor="middle" x="397" y="-83.5" font-family="Helvetica,sans-Serif" font-size="10.00">compute_pt_data</text>
</a>
</g>
</g>
<!-- Node3&#45;&gt;Node4 -->
<g id="edge3" class="edge"><title>Node3&#45;&gt;Node4</title>
<path fill="none" stroke="midnightblue" d="M317.709,-60.6804C333.585,-65.8148 351.61,-71.6441 366.359,-76.4141"/>
<polygon fill="midnightblue" stroke="midnightblue" points="318.742,-57.336 308.15,-57.589 316.588,-63.9964 318.742,-57.336"/>
</g>
<!-- Node8 -->
<g id="node8" class="node"><title>Node8</title>
<g id="a_node8"><a xlink:href="findpts__el__3_8c.html#af1a3eb77cfbd30da8225576a88a12cd0" target="_top" xlink:title="findpt_edge">
<polygon fill="white" stroke="black" points="482,-38.5 482,-57.5 555,-57.5 555,-38.5 482,-38.5"/>
<text text-anchor="middle" x="518.5" y="-45.5" font-family="Helvetica,sans-Serif" font-size="10.00">findpt_edge</text>
</a>
</g>
</g>
<!-- Node3&#45;&gt;Node8 -->
<g id="edge7" class="edge"><title>Node3&#45;&gt;Node8</title>
<path fill="none" stroke="midnightblue" d="M318.89,-48C364.49,-48 437.995,-48 481.641,-48"/>
<polygon fill="midnightblue" stroke="midnightblue" points="318.77,-44.5001 308.77,-48 318.769,-51.5001 318.77,-44.5001"/>
</g>
<!-- Node5 -->
<g id="node5" class="node"><title>Node5</title>
<g id="a_node5"><a xlink:href="findpts__el__3_8c.html#aa8ed83eb48038a2dd41b03fadadee562" target="_top" xlink:title="get_pt">
<polygon fill="white" stroke="black" points="495,-76.5 495,-95.5 542,-95.5 542,-76.5 495,-76.5"/>
<text text-anchor="middle" x="518.5" y="-83.5" font-family="Helvetica,sans-Serif" font-size="10.00">get_pt</text>
</a>
</g>
</g>
<!-- Node4&#45;&gt;Node5 -->
<g id="edge4" class="edge"><title>Node4&#45;&gt;Node5</title>
<path fill="none" stroke="midnightblue" d="M456.633,-86C470.279,-86 484.002,-86 494.955,-86"/>
<polygon fill="midnightblue" stroke="midnightblue" points="456.261,-82.5001 446.261,-86 456.261,-89.5001 456.261,-82.5001"/>
</g>
<!-- Node6 -->
<g id="node6" class="node"><title>Node6</title>
<g id="a_node6"><a xlink:href="findpts__el__3_8c.html#a45011f1c9ad5e46c578da17c3c306d0f" target="_top" xlink:title="findpt_pt">
<polygon fill="white" stroke="black" points="591,-76.5 591,-95.5 649,-95.5 649,-76.5 591,-76.5"/>
<text text-anchor="middle" x="620" y="-83.5" font-family="Helvetica,sans-Serif" font-size="10.00">findpt_pt</text>
</a>
</g>
</g>
<!-- Node5&#45;&gt;Node6 -->
<g id="edge5" class="edge"><title>Node5&#45;&gt;Node6</title>
<path fill="none" stroke="midnightblue" d="M552.111,-86C564.614,-86 578.762,-86 590.816,-86"/>
<polygon fill="midnightblue" stroke="midnightblue" points="552.078,-82.5001 542.078,-86 552.078,-89.5001 552.078,-82.5001"/>
</g>
<!-- Node7 -->
<g id="node7" class="node"><title>Node7</title>
<g id="a_node7"><a xlink:href="findpts__el__3_8c.html#a3ed659b9d68af3919368cbdc12649730" target="_top" xlink:title="findpts_el_3">
<polygon fill="white" stroke="black" points="685,-38.5 685,-57.5 759,-57.5 759,-38.5 685,-38.5"/>
<text text-anchor="middle" x="722" y="-45.5" font-family="Helvetica,sans-Serif" font-size="10.00">findpts_el_3</text>
</a>
</g>
</g>
<!-- Node6&#45;&gt;Node7 -->
<g id="edge6" class="edge"><title>Node6&#45;&gt;Node7</title>
<path fill="none" stroke="midnightblue" d="M655.907,-72.7354C669.035,-67.7467 683.695,-62.1759 695.774,-57.5859"/>
<polygon fill="midnightblue" stroke="midnightblue" points="654.339,-69.587 646.234,-76.411 656.825,-76.1305 654.339,-69.587"/>
</g>
<!-- Node8&#45;&gt;Node7 -->
<g id="edge8" class="edge"><title>Node8&#45;&gt;Node7</title>
<path fill="none" stroke="midnightblue" d="M565.352,-48C601.545,-48 651.344,-48 684.777,-48"/>
<polygon fill="midnightblue" stroke="midnightblue" points="565.06,-44.5001 555.06,-48 565.06,-51.5001 565.06,-44.5001"/>
</g>
<!-- Node9&#45;&gt;Node7 -->
<g id="edge10" class="edge"><title>Node9&#45;&gt;Node7</title>
<path fill="none" stroke="midnightblue" d="M322.176,-12.3877C376.715,-15.5104 472.847,-21.4798 555,-29 599.775,-33.0986 651.184,-39.1993 684.78,-43.3752"/>
<polygon fill="midnightblue" stroke="midnightblue" points="322.346,-8.89179 312.164,-11.8197 321.95,-15.8806 322.346,-8.89179"/>
</g>
</g>
</svg>
