<?xml version="1.0" encoding="UTF-8" standalone="no"?>
<!DOCTYPE svg PUBLIC "-//W3C//DTD SVG 1.1//EN"
 "http://www.w3.org/Graphics/SVG/1.1/DTD/svg11.dtd">
<!-- Generated by graphviz version 2.38.0 (20140413.2041)
 -->
<!-- Title: compute_face_data_st Pages: 1 -->
<svg width="927pt" height="104pt"
 viewBox="0.00 0.00 927.00 104.00" xmlns="http://www.w3.org/2000/svg" xmlns:xlink="http://www.w3.org/1999/xlink">
<g id="graph0" class="graph" transform="scale(1 1) rotate(0) translate(4 100)">
<title>compute_face_data_st</title>
<polygon fill="white" stroke="none" points="-4,4 -4,-100 923,-100 923,4 -4,4"/>
<!-- Node1 -->
<g id="node1" class="node"><title>Node1</title>
<polygon fill="#bfbfbf" stroke="black" points="0,-19.5 0,-38.5 124,-38.5 124,-19.5 0,-19.5"/>
<text text-anchor="middle" x="62" y="-26.5" font-family="Helvetica,sans-Serif" font-size="10.00">compute_face_data_st</text>
</g>
<!-- Node2 -->
<g id="node2" class="node"><title>Node2</title>
<g id="a_node2"><a xlink:href="findpts__el__3_8c.html#a5dc987bca5f0dbd0ff09d44b61363c1e" target="_top" xlink:title="get_face">
<polygon fill="white" stroke="black" points="160,-19.5 160,-38.5 218,-38.5 218,-19.5 160,-19.5"/>
<text text-anchor="middle" x="189" y="-26.5" font-family="Helvetica,sans-Serif" font-size="10.00">get_face</text>
</a>
</g>
</g>
<!-- Node1&#45;&gt;Node2 -->
<g id="edge1" class="edge"><title>Node1&#45;&gt;Node2</title>
<path fill="none" stroke="midnightblue" d="M134.281,-29C143.299,-29 152.067,-29 159.816,-29"/>
<polygon fill="midnightblue" stroke="midnightblue" points="134.035,-25.5001 124.035,-29 134.035,-32.5001 134.035,-25.5001"/>
</g>
<!-- Node3 -->
<g id="node3" class="node"><title>Node3</title>
<g id="a_node3"><a xlink:href="findpts__el__3_8c.html#a7af2d3a734a0e2e8883badf9eee92932" target="_top" xlink:title="compute_edge_data">
<polygon fill="white" stroke="black" points="254,-38.5 254,-57.5 367,-57.5 367,-38.5 254,-38.5"/>
<text text-anchor="middle" x="310.5" y="-45.5" font-family="Helvetica,sans-Serif" font-size="10.00">compute_edge_data</text>
</a>
</g>
</g>
<!-- Node2&#45;&gt;Node3 -->
<g id="edge2" class="edge"><title>Node2&#45;&gt;Node3</title>
<path fill="none" stroke="midnightblue" d="M228.057,-35.0509C236.296,-36.3609 245.173,-37.7722 253.929,-39.1644"/>
<polygon fill="midnightblue" stroke="midnightblue" points="228.443,-31.5684 218.017,-33.4547 227.344,-38.4816 228.443,-31.5684"/>
</g>
<!-- Node10 -->
<g id="node10" class="node"><title>Node10</title>
<g id="a_node10"><a xlink:href="findpts__el__3_8c.html#ad2c233df5cb0edb3790d3c59eb9f19be" target="_top" xlink:title="findpt_face">
<polygon fill="white" stroke="black" points="403,-0.5 403,-19.5 472,-19.5 472,-0.5 403,-0.5"/>
<text text-anchor="middle" x="437.5" y="-7.5" font-family="Helvetica,sans-Serif" font-size="10.00">findpt_face</text>
</a>
</g>
</g>
<!-- Node2&#45;&gt;Node10 -->
<g id="edge10" class="edge"><title>Node2&#45;&gt;Node10</title>
<path fill="none" stroke="midnightblue" d="M228.531,-26.0301C276.35,-22.3442 357.134,-16.1174 402.666,-12.6079"/>
<polygon fill="midnightblue" stroke="midnightblue" points="227.978,-22.5622 218.277,-26.8205 228.516,-29.5415 227.978,-22.5622"/>
</g>
<!-- Node4 -->
<g id="node4" class="node"><title>Node4</title>
<g id="a_node4"><a xlink:href="findpts__el__3_8c.html#a3acbce16e4f7a28b4ad8a6d217d776b2" target="_top" xlink:title="get_edge">
<polygon fill="white" stroke="black" points="406.5,-38.5 406.5,-57.5 468.5,-57.5 468.5,-38.5 406.5,-38.5"/>
<text text-anchor="middle" x="437.5" y="-45.5" font-family="Helvetica,sans-Serif" font-size="10.00">get_edge</text>
</a>
</g>
</g>
<!-- Node3&#45;&gt;Node4 -->
<g id="edge3" class="edge"><title>Node3&#45;&gt;Node4</title>
<path fill="none" stroke="midnightblue" d="M377.269,-48C387.485,-48 397.583,-48 406.47,-48"/>
<polygon fill="midnightblue" stroke="midnightblue" points="377.055,-44.5001 367.055,-48 377.055,-51.5001 377.055,-44.5001"/>
</g>
<!-- Node5 -->
<g id="node5" class="node"><title>Node5</title>
<g id="a_node5"><a xlink:href="findpts__el__3_8c.html#a196411139d99d1bb50c742501192796a" target="_top" xlink:title="compute_pt_data">
<polygon fill="white" stroke="black" points="508,-76.5 508,-95.5 606,-95.5 606,-76.5 508,-76.5"/>
<text text-anchor="middle" x="557" y="-83.5" font-family="Helvetica,sans-Serif" font-size="10.00">compute_pt_data</text>
</a>
</g>
</g>
<!-- Node4&#45;&gt;Node5 -->
<g id="edge4" class="edge"><title>Node4&#45;&gt;Node5</title>
<path fill="none" stroke="midnightblue" d="M477.709,-60.6804C493.585,-65.8148 511.61,-71.6441 526.359,-76.4141"/>
<polygon fill="midnightblue" stroke="midnightblue" points="478.742,-57.336 468.15,-57.589 476.588,-63.9964 478.742,-57.336"/>
</g>
<!-- Node9 -->
<g id="node9" class="node"><title>Node9</title>
<g id="a_node9"><a xlink:href="findpts__el__3_8c.html#af1a3eb77cfbd30da8225576a88a12cd0" target="_top" xlink:title="findpt_edge">
<polygon fill="white" stroke="black" points="642,-38.5 642,-57.5 715,-57.5 715,-38.5 642,-38.5"/>
<text text-anchor="middle" x="678.5" y="-45.5" font-family="Helvetica,sans-Serif" font-size="10.00">findpt_edge</text>
</a>
</g>
</g>
<!-- Node4&#45;&gt;Node9 -->
<g id="edge8" class="edge"><title>Node4&#45;&gt;Node9</title>
<path fill="none" stroke="midnightblue" d="M478.89,-48C524.49,-48 597.995,-48 641.641,-48"/>
<polygon fill="midnightblue" stroke="midnightblue" points="478.77,-44.5001 468.77,-48 478.769,-51.5001 478.77,-44.5001"/>
</g>
<!-- Node6 -->
<g id="node6" class="node"><title>Node6</title>
<g id="a_node6"><a xlink:href="findpts__el__3_8c.html#aa8ed83eb48038a2dd41b03fadadee562" target="_top" xlink:title="get_pt">
<polygon fill="white" stroke="black" points="655,-76.5 655,-95.5 702,-95.5 702,-76.5 655,-76.5"/>
<text text-anchor="middle" x="678.5" y="-83.5" font-family="Helvetica,sans-Serif" font-size="10.00">get_pt</text>
</a>
</g>
</g>
<!-- Node5&#45;&gt;Node6 -->
<g id="edge5" class="edge"><title>Node5&#45;&gt;Node6</title>
<path fill="none" stroke="midnightblue" d="M616.633,-86C630.279,-86 644.002,-86 654.955,-86"/>
<polygon fill="midnightblue" stroke="midnightblue" points="616.261,-82.5001 606.261,-86 616.261,-89.5001 616.261,-82.5001"/>
</g>
<!-- Node7 -->
<g id="node7" class="node"><title>Node7</title>
<g id="a_node7"><a xlink:href="findpts__el__3_8c.html#a45011f1c9ad5e46c578da17c3c306d0f" target="_top" xlink:title="findpt_pt">
<polygon fill="white" stroke="black" points="751,-76.5 751,-95.5 809,-95.5 809,-76.5 751,-76.5"/>
<text text-anchor="middle" x="780" y="-83.5" font-family="Helvetica,sans-Serif" font-size="10.00">findpt_pt</text>
</a>
</g>
</g>
<!-- Node6&#45;&gt;Node7 -->
<g id="edge6" class="edge"><title>Node6&#45;&gt;Node7</title>
<path fill="none" stroke="midnightblue" d="M712.111,-86C724.614,-86 738.762,-86 750.816,-86"/>
<polygon fill="midnightblue" stroke="midnightblue" points="712.078,-82.5001 702.078,-86 712.078,-89.5001 712.078,-82.5001"/>
</g>
<!-- Node8 -->
<g id="node8" class="node"><title>Node8</title>
<g id="a_node8"><a xlink:href="findpts__el__3_8c.html#a3ed659b9d68af3919368cbdc12649730" target="_top" xlink:title="findpts_el_3">
<polygon fill="white" stroke="black" points="845,-38.5 845,-57.5 919,-57.5 919,-38.5 845,-38.5"/>
<text text-anchor="middle" x="882" y="-45.5" font-family="Helvetica,sans-Serif" font-size="10.00">findpts_el_3</text>
</a>
</g>
</g>
<!-- Node7&#45;&gt;Node8 -->
<g id="edge7" class="edge"><title>Node7&#45;&gt;Node8</title>
<path fill="none" stroke="midnightblue" d="M815.907,-72.7354C829.035,-67.7467 843.695,-62.1759 855.774,-57.5859"/>
<polygon fill="midnightblue" stroke="midnightblue" points="814.339,-69.587 806.234,-76.411 816.825,-76.1305 814.339,-69.587"/>
</g>
<!-- Node9&#45;&gt;Node8 -->
<g id="edge9" class="edge"><title>Node9&#45;&gt;Node8</title>
<path fill="none" stroke="midnightblue" d="M725.352,-48C761.545,-48 811.344,-48 844.777,-48"/>
<polygon fill="midnightblue" stroke="midnightblue" points="725.06,-44.5001 715.06,-48 725.06,-51.5001 725.06,-44.5001"/>
</g>
<!-- Node10&#45;&gt;Node8 -->
<g id="edge11" class="edge"><title>Node10&#45;&gt;Node8</title>
<path fill="none" stroke="midnightblue" d="M482.176,-12.3877C536.715,-15.5104 632.847,-21.4798 715,-29 759.775,-33.0986 811.184,-39.1993 844.78,-43.3752"/>
<polygon fill="midnightblue" stroke="midnightblue" points="482.346,-8.89179 472.164,-11.8197 481.95,-15.8806 482.346,-8.89179"/>
</g>
</g>
</svg>
