<?xml version="1.0" encoding="UTF-8" standalone="no"?>
<!DOCTYPE svg PUBLIC "-//W3C//DTD SVG 1.1//EN"
 "http://www.w3.org/Graphics/SVG/1.1/DTD/svg11.dtd">
<!-- Generated by graphviz version 2.38.0 (20140413.2041)
 -->
<!-- Title: compute_edge_data_r Pages: 1 -->
<svg width="448pt" height="28pt"
 viewBox="0.00 0.00 448.00 28.00" xmlns="http://www.w3.org/2000/svg" xmlns:xlink="http://www.w3.org/1999/xlink">
<g id="graph0" class="graph" transform="scale(1 1) rotate(0) translate(4 24)">
<title>compute_edge_data_r</title>
<polygon fill="white" stroke="none" points="-4,4 -4,-24 444,-24 444,4 -4,4"/>
<!-- Node1 -->
<g id="node1" class="node"><title>Node1</title>
<polygon fill="#bfbfbf" stroke="black" points="0,-0.5 0,-19.5 123,-19.5 123,-0.5 0,-0.5"/>
<text text-anchor="middle" x="61.5" y="-7.5" font-family="Helvetica,sans-Serif" font-size="10.00">compute_edge_data_r</text>
</g>
<!-- Node2 -->
<g id="node2" class="node"><title>Node2</title>
<g id="a_node2"><a xlink:href="findpts__el__2_8c.html#af396850f1a86af34b197d06b3254bb40" target="_top" xlink:title="get_edge">
<polygon fill="white" stroke="black" points="159,-0.5 159,-19.5 221,-19.5 221,-0.5 159,-0.5"/>
<text text-anchor="middle" x="190" y="-7.5" font-family="Helvetica,sans-Serif" font-size="10.00">get_edge</text>
</a>
</g>
</g>
<!-- Node1&#45;&gt;Node2 -->
<g id="edge1" class="edge"><title>Node1&#45;&gt;Node2</title>
<path fill="none" stroke="midnightblue" d="M133.342,-10C142.321,-10 151.092,-10 158.919,-10"/>
<polygon fill="midnightblue" stroke="midnightblue" points="133.156,-6.5001 123.156,-10 133.156,-13.5001 133.156,-6.5001"/>
</g>
<!-- Node3 -->
<g id="node3" class="node"><title>Node3</title>
<g id="a_node3"><a xlink:href="findpts__el__2_8c.html#a702f44e1b9ffb116fc271defdbfa0a00" target="_top" xlink:title="findpt_edge">
<polygon fill="white" stroke="black" points="257,-0.5 257,-19.5 330,-19.5 330,-0.5 257,-0.5"/>
<text text-anchor="middle" x="293.5" y="-7.5" font-family="Helvetica,sans-Serif" font-size="10.00">findpt_edge</text>
</a>
</g>
</g>
<!-- Node2&#45;&gt;Node3 -->
<g id="edge2" class="edge"><title>Node2&#45;&gt;Node3</title>
<path fill="none" stroke="midnightblue" d="M231.246,-10C239.72,-10 248.603,-10 256.893,-10"/>
<polygon fill="midnightblue" stroke="midnightblue" points="231.179,-6.5001 221.179,-10 231.179,-13.5001 231.179,-6.5001"/>
</g>
<!-- Node4 -->
<g id="node4" class="node"><title>Node4</title>
<g id="a_node4"><a xlink:href="findpts__el__2_8c.html#a1fe7500238a37c48ae642d12cf921989" target="_top" xlink:title="findpts_el_2">
<polygon fill="white" stroke="black" points="366,-0.5 366,-19.5 440,-19.5 440,-0.5 366,-0.5"/>
<text text-anchor="middle" x="403" y="-7.5" font-family="Helvetica,sans-Serif" font-size="10.00">findpts_el_2</text>
</a>
</g>
</g>
<!-- Node3&#45;&gt;Node4 -->
<g id="edge3" class="edge"><title>Node3&#45;&gt;Node4</title>
<path fill="none" stroke="midnightblue" d="M340.504,-10C349.029,-10 357.82,-10 365.994,-10"/>
<polygon fill="midnightblue" stroke="midnightblue" points="340.296,-6.5001 330.296,-10 340.296,-13.5001 340.296,-6.5001"/>
</g>
</g>
</svg>
