<?xml version="1.0" encoding="UTF-8" standalone="no"?>
<!DOCTYPE svg PUBLIC "-//W3C//DTD SVG 1.1//EN"
 "http://www.w3.org/Graphics/SVG/1.1/DTD/svg11.dtd">
<!-- Generated by graphviz version 2.38.0 (20140413.2041)
 -->
<!-- Title: reject_prior_step_q Pages: 1 -->
<svg width="336pt" height="142pt"
 viewBox="0.00 0.00 336.00 142.00" xmlns="http://www.w3.org/2000/svg" xmlns:xlink="http://www.w3.org/1999/xlink">
<g id="graph0" class="graph" transform="scale(1 1) rotate(0) translate(4 138)">
<title>reject_prior_step_q</title>
<polygon fill="white" stroke="none" points="-4,4 -4,-138 332,-138 332,4 -4,4"/>
<!-- Node1 -->
<g id="node1" class="node"><title>Node1</title>
<polygon fill="#bfbfbf" stroke="black" points="0,-57.5 0,-76.5 109,-76.5 109,-57.5 0,-57.5"/>
<text text-anchor="middle" x="54.5" y="-64.5" font-family="Helvetica,sans-Serif" font-size="10.00">reject_prior_step_q</text>
</g>
<!-- Node2 -->
<g id="node2" class="node"><title>Node2</title>
<g id="a_node2"><a xlink:href="findpts__el__3_8c.html#af1a3eb77cfbd30da8225576a88a12cd0" target="_top" xlink:title="findpt_edge">
<polygon fill="white" stroke="black" points="145,-114.5 145,-133.5 218,-133.5 218,-114.5 145,-114.5"/>
<text text-anchor="middle" x="181.5" y="-121.5" font-family="Helvetica,sans-Serif" font-size="10.00">findpt_edge</text>
</a>
</g>
</g>
<!-- Node1&#45;&gt;Node2 -->
<g id="edge1" class="edge"><title>Node1&#45;&gt;Node2</title>
<path fill="none" stroke="midnightblue" d="M85.6697,-80.7574C108.509,-91.1719 139.296,-105.211 159.51,-114.428"/>
<polygon fill="midnightblue" stroke="midnightblue" points="86.973,-77.505 76.4222,-76.5405 84.0687,-83.8741 86.973,-77.505"/>
</g>
<!-- Node4 -->
<g id="node4" class="node"><title>Node4</title>
<g id="a_node4"><a xlink:href="findpts__el__3_8c.html#ad2c233df5cb0edb3790d3c59eb9f19be" target="_top" xlink:title="findpt_face">
<polygon fill="white" stroke="black" points="147,-76.5 147,-95.5 216,-95.5 216,-76.5 147,-76.5"/>
<text text-anchor="middle" x="181.5" y="-83.5" font-family="Helvetica,sans-Serif" font-size="10.00">findpt_face</text>
</a>
</g>
</g>
<!-- Node1&#45;&gt;Node4 -->
<g id="edge3" class="edge"><title>Node1&#45;&gt;Node4</title>
<path fill="none" stroke="midnightblue" d="M119.124,-76.6709C128.636,-78.1167 138.113,-79.5571 146.673,-80.8583"/>
<polygon fill="midnightblue" stroke="midnightblue" points="119.649,-73.2105 109.237,-75.168 118.597,-80.1311 119.649,-73.2105"/>
</g>
<!-- Node5 -->
<g id="node5" class="node"><title>Node5</title>
<g id="a_node5"><a xlink:href="findpts__el__3_8c.html#a45011f1c9ad5e46c578da17c3c306d0f" target="_top" xlink:title="findpt_pt">
<polygon fill="white" stroke="black" points="152.5,-38.5 152.5,-57.5 210.5,-57.5 210.5,-38.5 152.5,-38.5"/>
<text text-anchor="middle" x="181.5" y="-45.5" font-family="Helvetica,sans-Serif" font-size="10.00">findpt_pt</text>
</a>
</g>
</g>
<!-- Node1&#45;&gt;Node5 -->
<g id="edge5" class="edge"><title>Node1&#45;&gt;Node5</title>
<path fill="none" stroke="midnightblue" d="M119.375,-57.2911C130.938,-55.5335 142.438,-53.7854 152.292,-52.2877"/>
<polygon fill="midnightblue" stroke="midnightblue" points="118.597,-53.8689 109.237,-58.832 119.649,-60.7895 118.597,-53.8689"/>
</g>
<!-- Node6 -->
<g id="node6" class="node"><title>Node6</title>
<g id="a_node6"><a xlink:href="findpts__el__3_8c.html#aaaaad44889a0b6de44f02e50fee8d342" target="_top" xlink:title="findpt_vol">
<polygon fill="white" stroke="black" points="150.5,-0.5 150.5,-19.5 212.5,-19.5 212.5,-0.5 150.5,-0.5"/>
<text text-anchor="middle" x="181.5" y="-7.5" font-family="Helvetica,sans-Serif" font-size="10.00">findpt_vol</text>
</a>
</g>
</g>
<!-- Node1&#45;&gt;Node6 -->
<g id="edge7" class="edge"><title>Node1&#45;&gt;Node6</title>
<path fill="none" stroke="midnightblue" d="M85.6697,-53.2426C108.509,-42.8281 139.296,-28.7892 159.51,-19.5716"/>
<polygon fill="midnightblue" stroke="midnightblue" points="84.0687,-50.1259 76.4222,-57.4595 86.973,-56.495 84.0687,-50.1259"/>
</g>
<!-- Node3 -->
<g id="node3" class="node"><title>Node3</title>
<g id="a_node3"><a xlink:href="findpts__el__3_8c.html#a3ed659b9d68af3919368cbdc12649730" target="_top" xlink:title="findpts_el_3">
<polygon fill="white" stroke="black" points="254,-57.5 254,-76.5 328,-76.5 328,-57.5 254,-57.5"/>
<text text-anchor="middle" x="291" y="-64.5" font-family="Helvetica,sans-Serif" font-size="10.00">findpts_el_3</text>
</a>
</g>
</g>
<!-- Node2&#45;&gt;Node3 -->
<g id="edge2" class="edge"><title>Node2&#45;&gt;Node3</title>
<path fill="none" stroke="midnightblue" d="M209.757,-109.547C229.285,-99.1931 255.034,-85.54 272.033,-76.5265"/>
<polygon fill="midnightblue" stroke="midnightblue" points="207.931,-106.554 200.736,-114.331 211.21,-112.738 207.931,-106.554"/>
</g>
<!-- Node4&#45;&gt;Node3 -->
<g id="edge4" class="edge"><title>Node4&#45;&gt;Node3</title>
<path fill="none" stroke="midnightblue" d="M226.304,-78.2578C235.439,-76.6434 244.971,-74.9587 253.794,-73.3992"/>
<polygon fill="midnightblue" stroke="midnightblue" points="225.457,-74.8533 216.219,-80.0404 226.675,-81.7464 225.457,-74.8533"/>
</g>
<!-- Node5&#45;&gt;Node3 -->
<g id="edge6" class="edge"><title>Node5&#45;&gt;Node3</title>
<path fill="none" stroke="midnightblue" d="M220.732,-54.7573C231.506,-56.6616 243.191,-58.7267 253.84,-60.6088"/>
<polygon fill="midnightblue" stroke="midnightblue" points="221.201,-51.286 210.744,-52.992 219.983,-58.1792 221.201,-51.286"/>
</g>
<!-- Node6&#45;&gt;Node3 -->
<g id="edge8" class="edge"><title>Node6&#45;&gt;Node3</title>
<path fill="none" stroke="midnightblue" d="M209.757,-24.4525C229.285,-34.8069 255.034,-48.46 272.033,-57.4735"/>
<polygon fill="midnightblue" stroke="midnightblue" points="211.21,-21.2617 200.736,-19.6693 207.931,-27.4461 211.21,-21.2617"/>
</g>
</g>
</svg>
