<?xml version="1.0" encoding="UTF-8" standalone="no"?>
<!DOCTYPE svg PUBLIC "-//W3C//DTD SVG 1.1//EN"
 "http://www.w3.org/Graphics/SVG/1.1/DTD/svg11.dtd">
<!-- Generated by graphviz version 2.38.0 (20140413.2041)
 -->
<!-- Title: byte_bits Pages: 1 -->
<svg width="269pt" height="28pt"
 viewBox="0.00 0.00 269.00 28.00" xmlns="http://www.w3.org/2000/svg" xmlns:xlink="http://www.w3.org/1999/xlink">
<g id="graph0" class="graph" transform="scale(1 1) rotate(0) translate(4 24)">
<title>byte_bits</title>
<polygon fill="white" stroke="none" points="-4,4 -4,-24 265,-24 265,4 -4,4"/>
<!-- Node1 -->
<g id="node1" class="node"><title>Node1</title>
<polygon fill="#bfbfbf" stroke="black" points="0,-0.5 0,-19.5 58,-19.5 58,-0.5 0,-0.5"/>
<text text-anchor="middle" x="29" y="-7.5" font-family="Helvetica,sans-Serif" font-size="10.00">byte_bits</text>
</g>
<!-- Node2 -->
<g id="node2" class="node"><title>Node2</title>
<g id="a_node2"><a xlink:href="findpts_8c.html#a9138e95ec48438b20ed31080371c21b5" target="_top" xlink:title="count_bits">
<polygon fill="white" stroke="black" points="94,-0.5 94,-19.5 158,-19.5 158,-0.5 94,-0.5"/>
<text text-anchor="middle" x="126" y="-7.5" font-family="Helvetica,sans-Serif" font-size="10.00">count_bits</text>
</a>
</g>
</g>
<!-- Node1&#45;&gt;Node2 -->
<g id="edge1" class="edge"><title>Node1&#45;&gt;Node2</title>
<path fill="none" stroke="midnightblue" d="M68.2737,-10C76.7213,-10 85.5739,-10 93.7063,-10"/>
<polygon fill="midnightblue" stroke="midnightblue" points="68.246,-6.5001 58.2459,-10 68.2459,-13.5001 68.246,-6.5001"/>
</g>
<!-- Node3 -->
<g id="node3" class="node"><title>Node3</title>
<g id="a_node3"><a xlink:href="findpts__imp_8h.html#a5c3241423f92f6cf681968814ee9a3ab" target="_top" xlink:title="hash_build">
<polygon fill="white" stroke="black" points="194,-0.5 194,-19.5 261,-19.5 261,-0.5 194,-0.5"/>
<text text-anchor="middle" x="227.5" y="-7.5" font-family="Helvetica,sans-Serif" font-size="10.00">hash_build</text>
</a>
</g>
</g>
<!-- Node2&#45;&gt;Node3 -->
<g id="edge2" class="edge"><title>Node2&#45;&gt;Node3</title>
<path fill="none" stroke="midnightblue" d="M168.299,-10C176.763,-10 185.564,-10 193.682,-10"/>
<polygon fill="midnightblue" stroke="midnightblue" points="168.209,-6.5001 158.209,-10 168.209,-13.5001 168.209,-6.5001"/>
</g>
</g>
</svg>
