<?xml version="1.0" encoding="UTF-8" standalone="no"?>
<!DOCTYPE svg PUBLIC "-//W3C//DTD SVG 1.1//EN"
 "http://www.w3.org/Graphics/SVG/1.1/DTD/svg11.dtd">
<!-- Generated by graphviz version 2.38.0 (20140413.2041)
 -->
<!-- Title: hash_range Pages: 1 -->
<svg width="158pt" height="66pt"
 viewBox="0.00 0.00 158.00 66.00" xmlns="http://www.w3.org/2000/svg" xmlns:xlink="http://www.w3.org/1999/xlink">
<g id="graph0" class="graph" transform="scale(1 1) rotate(0) translate(4 62)">
<title>hash_range</title>
<polygon fill="white" stroke="none" points="-4,4 -4,-62 154,-62 154,4 -4,4"/>
<!-- Node1 -->
<g id="node1" class="node"><title>Node1</title>
<polygon fill="#bfbfbf" stroke="black" points="0,-19.5 0,-38.5 74,-38.5 74,-19.5 0,-19.5"/>
<text text-anchor="middle" x="37" y="-26.5" font-family="Helvetica,sans-Serif" font-size="10.00">hash_range</text>
</g>
<!-- Node2 -->
<g id="node2" class="node"><title>Node2</title>
<g id="a_node2"><a xlink:href="findpts_8c.html#ae163c374806ecf5b3a07fcf38b41bad9" target="_top" xlink:title="lceil">
<polygon fill="white" stroke="black" points="112.5,-38.5 112.5,-57.5 147.5,-57.5 147.5,-38.5 112.5,-38.5"/>
<text text-anchor="middle" x="130" y="-45.5" font-family="Helvetica,sans-Serif" font-size="10.00">lceil</text>
</a>
</g>
</g>
<!-- Node1&#45;&gt;Node2 -->
<g id="edge1" class="edge"><title>Node1&#45;&gt;Node2</title>
<path fill="none" stroke="midnightblue" d="M74.2271,-36.5639C83.5297,-38.5062 93.3724,-40.5613 102.109,-42.3854"/>
<polygon fill="midnightblue" stroke="midnightblue" points="101.603,-45.8551 112.107,-44.4729 103.033,-39.0028 101.603,-45.8551"/>
</g>
<!-- Node3 -->
<g id="node3" class="node"><title>Node3</title>
<g id="a_node3"><a xlink:href="findpts_8c.html#ab72d6aa75d8623fbbc595eba6e4c9f5a" target="_top" xlink:title="lfloor">
<polygon fill="white" stroke="black" points="110,-0.5 110,-19.5 150,-19.5 150,-0.5 110,-0.5"/>
<text text-anchor="middle" x="130" y="-7.5" font-family="Helvetica,sans-Serif" font-size="10.00">lfloor</text>
</a>
</g>
</g>
<!-- Node1&#45;&gt;Node3 -->
<g id="edge2" class="edge"><title>Node1&#45;&gt;Node3</title>
<path fill="none" stroke="midnightblue" d="M74.2271,-21.4361C82.8002,-19.6461 91.8319,-17.7604 100.034,-16.0478"/>
<polygon fill="midnightblue" stroke="midnightblue" points="100.809,-19.4616 109.883,-13.9915 99.3784,-12.6093 100.809,-19.4616"/>
</g>
</g>
</svg>
