<?xml version="1.0" encoding="UTF-8" standalone="no"?>
<!DOCTYPE svg PUBLIC "-//W3C//DTD SVG 1.1//EN"
 "http://www.w3.org/Graphics/SVG/1.1/DTD/svg11.dtd">
<!-- Generated by graphviz version 2.38.0 (20140413.2041)
 -->
<!-- Title: jl/findpts_local.c Pages: 1 -->
<svg width="1157pt" height="84pt"
 viewBox="0.00 0.00 1157.00 84.00" xmlns="http://www.w3.org/2000/svg" xmlns:xlink="http://www.w3.org/1999/xlink">
<g id="graph0" class="graph" transform="scale(1 1) rotate(0) translate(4 80)">
<title>jl/findpts_local.c</title>
<polygon fill="white" stroke="none" points="-4,4 -4,-80 1153,-80 1153,4 -4,4"/>
<!-- Node1 -->
<g id="node1" class="node"><title>Node1</title>
<polygon fill="#bfbfbf" stroke="black" points="481,-56.5 481,-75.5 572,-75.5 572,-56.5 481,-56.5"/>
<text text-anchor="middle" x="526.5" y="-63.5" font-family="Helvetica,sans-Serif" font-size="10.00">jl/findpts_local.c</text>
</g>
<!-- Node2 -->
<g id="node2" class="node"><title>Node2</title>
<polygon fill="white" stroke="#bfbfbf" points="0,-0.5 0,-19.5 47,-19.5 47,-0.5 0,-0.5"/>
<text text-anchor="middle" x="23.5" y="-7.5" font-family="Helvetica,sans-Serif" font-size="10.00">stdio.h</text>
</g>
<!-- Node1&#45;&gt;Node2 -->
<g id="edge1" class="edge"><title>Node1&#45;&gt;Node2</title>
<path fill="none" stroke="midnightblue" d="M480.773,-63.2164C398.068,-59.4292 218.089,-48.6167 57.2575,-19.8118"/>
<polygon fill="midnightblue" stroke="midnightblue" points="57.6467,-16.3252 47.1817,-17.9787 56.3937,-23.2122 57.6467,-16.3252"/>
</g>
<!-- Node3 -->
<g id="node3" class="node"><title>Node3</title>
<polygon fill="white" stroke="#bfbfbf" points="65.5,-0.5 65.5,-19.5 119.5,-19.5 119.5,-0.5 65.5,-0.5"/>
<text text-anchor="middle" x="92.5" y="-7.5" font-family="Helvetica,sans-Serif" font-size="10.00">stddef.h</text>
</g>
<!-- Node1&#45;&gt;Node3 -->
<g id="edge2" class="edge"><title>Node1&#45;&gt;Node3</title>
<path fill="none" stroke="midnightblue" d="M480.852,-61.8149C408.382,-56.3274 262.444,-43.5226 129.499,-19.9582"/>
<polygon fill="midnightblue" stroke="midnightblue" points="130.005,-16.4932 119.544,-18.1688 128.767,-23.3827 130.005,-16.4932"/>
</g>
<!-- Node4 -->
<g id="node4" class="node"><title>Node4</title>
<polygon fill="white" stroke="#bfbfbf" points="138,-0.5 138,-19.5 187,-19.5 187,-0.5 138,-0.5"/>
<text text-anchor="middle" x="162.5" y="-7.5" font-family="Helvetica,sans-Serif" font-size="10.00">stdlib.h</text>
</g>
<!-- Node1&#45;&gt;Node4 -->
<g id="edge3" class="edge"><title>Node1&#45;&gt;Node4</title>
<path fill="none" stroke="midnightblue" d="M480.832,-60.572C418.807,-54.1627 304.344,-40.9359 197.301,-19.9323"/>
<polygon fill="midnightblue" stroke="midnightblue" points="197.791,-16.4611 187.3,-17.9425 196.425,-23.3266 197.791,-16.4611"/>
</g>
<!-- Node5 -->
<g id="node5" class="node"><title>Node5</title>
<polygon fill="white" stroke="#bfbfbf" points="205.5,-0.5 205.5,-19.5 253.5,-19.5 253.5,-0.5 205.5,-0.5"/>
<text text-anchor="middle" x="229.5" y="-7.5" font-family="Helvetica,sans-Serif" font-size="10.00">math.h</text>
</g>
<!-- Node1&#45;&gt;Node5 -->
<g id="edge4" class="edge"><title>Node1&#45;&gt;Node5</title>
<path fill="none" stroke="midnightblue" d="M480.926,-58.6108C430.16,-51.1879 345.483,-37.8986 263.558,-20.0575"/>
<polygon fill="midnightblue" stroke="midnightblue" points="264.102,-16.5935 253.583,-17.8593 262.596,-23.4295 264.102,-16.5935"/>
</g>
<!-- Node6 -->
<g id="node6" class="node"><title>Node6</title>
<polygon fill="white" stroke="#bfbfbf" points="272,-0.5 272,-19.5 323,-19.5 323,-0.5 272,-0.5"/>
<text text-anchor="middle" x="297.5" y="-7.5" font-family="Helvetica,sans-Serif" font-size="10.00">string.h</text>
</g>
<!-- Node1&#45;&gt;Node6 -->
<g id="edge5" class="edge"><title>Node1&#45;&gt;Node6</title>
<path fill="none" stroke="midnightblue" d="M488.52,-56.4706C451.428,-48.0785 393.129,-34.7238 333.13,-20.1087"/>
<polygon fill="midnightblue" stroke="midnightblue" points="333.642,-16.6309 323.097,-17.6567 331.98,-23.4308 333.642,-16.6309"/>
</g>
<!-- Node7 -->
<g id="node7" class="node"><title>Node7</title>
<g id="a_node7"><a xlink:href="c99_8h.html" target="_top" xlink:title="c99.h">
<polygon fill="white" stroke="black" points="341.5,-0.5 341.5,-19.5 383.5,-19.5 383.5,-0.5 341.5,-0.5"/>
<text text-anchor="middle" x="362.5" y="-7.5" font-family="Helvetica,sans-Serif" font-size="10.00">c99.h</text>
</a>
</g>
</g>
<!-- Node1&#45;&gt;Node7 -->
<g id="edge6" class="edge"><title>Node1&#45;&gt;Node7</title>
<path fill="none" stroke="midnightblue" d="M500.514,-56.4435C471.463,-46.8782 424.446,-31.3969 393.5,-21.2075"/>
<polygon fill="midnightblue" stroke="midnightblue" points="394.264,-17.7741 383.671,-17.971 392.075,-24.423 394.264,-17.7741"/>
</g>
<!-- Node8 -->
<g id="node8" class="node"><title>Node8</title>
<g id="a_node8"><a xlink:href="types_8h.html" target="_top" xlink:title="types.h">
<polygon fill="white" stroke="black" points="401.5,-0.5 401.5,-19.5 451.5,-19.5 451.5,-0.5 401.5,-0.5"/>
<text text-anchor="middle" x="426.5" y="-7.5" font-family="Helvetica,sans-Serif" font-size="10.00">types.h</text>
</a>
</g>
</g>
<!-- Node1&#45;&gt;Node8 -->
<g id="edge7" class="edge"><title>Node1&#45;&gt;Node8</title>
<path fill="none" stroke="midnightblue" d="M510.433,-56.324C494.542,-47.7428 469.993,-34.486 451.542,-24.5224"/>
<polygon fill="midnightblue" stroke="midnightblue" points="452.989,-21.3264 442.527,-19.6545 449.663,-27.4857 452.989,-21.3264"/>
</g>
<!-- Node9 -->
<g id="node9" class="node"><title>Node9</title>
<g id="a_node9"><a xlink:href="name_8h.html" target="_top" xlink:title="establishes some macros to establish naming conventions ">
<polygon fill="white" stroke="black" points="470,-0.5 470,-19.5 521,-19.5 521,-0.5 470,-0.5"/>
<text text-anchor="middle" x="495.5" y="-7.5" font-family="Helvetica,sans-Serif" font-size="10.00">name.h</text>
</a>
</g>
</g>
<!-- Node1&#45;&gt;Node9 -->
<g id="edge8" class="edge"><title>Node1&#45;&gt;Node9</title>
<path fill="none" stroke="midnightblue" d="M521.381,-56.083C517.092,-48.6127 510.842,-37.7244 505.558,-28.5199"/>
<polygon fill="midnightblue" stroke="midnightblue" points="508.538,-26.6811 500.524,-19.7511 502.467,-30.1662 508.538,-26.6811"/>
</g>
<!-- Node10 -->
<g id="node10" class="node"><title>Node10</title>
<g id="a_node10"><a xlink:href="fail_8h.html" target="_top" xlink:title="fail.h">
<polygon fill="white" stroke="black" points="539.5,-0.5 539.5,-19.5 577.5,-19.5 577.5,-0.5 539.5,-0.5"/>
<text text-anchor="middle" x="558.5" y="-7.5" font-family="Helvetica,sans-Serif" font-size="10.00">fail.h</text>
</a>
</g>
</g>
<!-- Node1&#45;&gt;Node10 -->
<g id="edge9" class="edge"><title>Node1&#45;&gt;Node10</title>
<path fill="none" stroke="midnightblue" d="M531.784,-56.083C536.211,-48.6127 542.663,-37.7244 548.118,-28.5199"/>
<polygon fill="midnightblue" stroke="midnightblue" points="551.227,-30.1383 553.314,-19.7511 545.205,-26.5697 551.227,-30.1383"/>
</g>
<!-- Node11 -->
<g id="node11" class="node"><title>Node11</title>
<g id="a_node11"><a xlink:href="mem_8h.html" target="_top" xlink:title="mem.h">
<polygon fill="white" stroke="black" points="596,-0.5 596,-19.5 643,-19.5 643,-0.5 596,-0.5"/>
<text text-anchor="middle" x="619.5" y="-7.5" font-family="Helvetica,sans-Serif" font-size="10.00">mem.h</text>
</a>
</g>
</g>
<!-- Node1&#45;&gt;Node11 -->
<g id="edge10" class="edge"><title>Node1&#45;&gt;Node11</title>
<path fill="none" stroke="midnightblue" d="M541.442,-56.324C556.085,-47.8215 578.634,-34.7288 595.738,-24.7975"/>
<polygon fill="midnightblue" stroke="midnightblue" points="597.705,-27.7027 604.595,-19.6545 594.19,-21.6491 597.705,-27.7027"/>
</g>
<!-- Node12 -->
<g id="node12" class="node"><title>Node12</title>
<g id="a_node12"><a xlink:href="obbox_8h.html" target="_top" xlink:title="obbox.h">
<polygon fill="white" stroke="black" points="661,-0.5 661,-19.5 714,-19.5 714,-0.5 661,-0.5"/>
<text text-anchor="middle" x="687.5" y="-7.5" font-family="Helvetica,sans-Serif" font-size="10.00">obbox.h</text>
</a>
</g>
</g>
<!-- Node1&#45;&gt;Node12 -->
<g id="edge11" class="edge"><title>Node1&#45;&gt;Node12</title>
<path fill="none" stroke="midnightblue" d="M552.011,-56.4435C579.096,-47.3591 622.09,-32.9388 652.369,-22.7831"/>
<polygon fill="midnightblue" stroke="midnightblue" points="653.74,-26.0148 662.108,-19.5164 651.514,-19.3781 653.74,-26.0148"/>
</g>
<!-- Node13 -->
<g id="node13" class="node"><title>Node13</title>
<g id="a_node13"><a xlink:href="poly_8h.html" target="_top" xlink:title="poly.h">
<polygon fill="white" stroke="black" points="732.5,-0.5 732.5,-19.5 776.5,-19.5 776.5,-0.5 732.5,-0.5"/>
<text text-anchor="middle" x="754.5" y="-7.5" font-family="Helvetica,sans-Serif" font-size="10.00">poly.h</text>
</a>
</g>
</g>
<!-- Node1&#45;&gt;Node13 -->
<g id="edge12" class="edge"><title>Node1&#45;&gt;Node13</title>
<path fill="none" stroke="midnightblue" d="M567.037,-56.4598C604.875,-48.328 663.124,-35.4029 722.303,-20.2034"/>
<polygon fill="midnightblue" stroke="midnightblue" points="723.387,-23.5381 732.192,-17.6442 721.634,-16.7613 723.387,-23.5381"/>
</g>
<!-- Node14 -->
<g id="node14" class="node"><title>Node14</title>
<g id="a_node14"><a xlink:href="sort_8h.html" target="_top" xlink:title="sort.h">
<polygon fill="white" stroke="black" points="795,-0.5 795,-19.5 838,-19.5 838,-0.5 795,-0.5"/>
<text text-anchor="middle" x="816.5" y="-7.5" font-family="Helvetica,sans-Serif" font-size="10.00">sort.h</text>
</a>
</g>
</g>
<!-- Node1&#45;&gt;Node14 -->
<g id="edge13" class="edge"><title>Node1&#45;&gt;Node14</title>
<path fill="none" stroke="midnightblue" d="M572.188,-58.624C622.144,-51.3058 704.7,-38.1985 785.107,-19.8634"/>
<polygon fill="midnightblue" stroke="midnightblue" points="785.944,-23.2623 794.9,-17.6015 784.369,-16.4419 785.944,-23.2623"/>
</g>
<!-- Node15 -->
<g id="node15" class="node"><title>Node15</title>
<g id="a_node15"><a xlink:href="sarray__sort_8h.html" target="_top" xlink:title="sarray_sort.h">
<polygon fill="white" stroke="black" points="856,-0.5 856,-19.5 935,-19.5 935,-0.5 856,-0.5"/>
<text text-anchor="middle" x="895.5" y="-7.5" font-family="Helvetica,sans-Serif" font-size="10.00">sarray_sort.h</text>
</a>
</g>
</g>
<!-- Node1&#45;&gt;Node15 -->
<g id="edge14" class="edge"><title>Node1&#45;&gt;Node15</title>
<path fill="none" stroke="midnightblue" d="M572.05,-59.286C632.415,-51.5654 742.469,-36.9765 845.978,-20.1917"/>
<polygon fill="midnightblue" stroke="midnightblue" points="846.667,-23.6256 855.973,-18.5606 845.54,-16.717 846.667,-23.6256"/>
</g>
<!-- Node16 -->
<g id="node16" class="node"><title>Node16</title>
<g id="a_node16"><a xlink:href="findpts__el_8h.html" target="_top" xlink:title="findpts_el.h">
<polygon fill="white" stroke="black" points="953,-0.5 953,-19.5 1024,-19.5 1024,-0.5 953,-0.5"/>
<text text-anchor="middle" x="988.5" y="-7.5" font-family="Helvetica,sans-Serif" font-size="10.00">findpts_el.h</text>
</a>
</g>
</g>
<!-- Node1&#45;&gt;Node16 -->
<g id="edge15" class="edge"><title>Node1&#45;&gt;Node16</title>
<path fill="none" stroke="midnightblue" d="M572.147,-61.5077C647.386,-55.4411 802.334,-41.6428 942.469,-20.2024"/>
<polygon fill="midnightblue" stroke="midnightblue" points="943.184,-23.6335 952.532,-18.6455 942.114,-16.7158 943.184,-23.6335"/>
</g>
<!-- Node17 -->
<g id="node17" class="node"><title>Node17</title>
<g id="a_node17"><a xlink:href="findpts__local__imp_8h.html" target="_top" xlink:title="findpts_local_imp.h">
<polygon fill="white" stroke="black" points="1042,-0.5 1042,-19.5 1149,-19.5 1149,-0.5 1042,-0.5"/>
<text text-anchor="middle" x="1095.5" y="-7.5" font-family="Helvetica,sans-Serif" font-size="10.00">findpts_local_imp.h</text>
</a>
</g>
</g>
<!-- Node1&#45;&gt;Node17 -->
<g id="edge16" class="edge"><title>Node1&#45;&gt;Node17</title>
<path fill="none" stroke="midnightblue" d="M572.034,-61.8122C659.263,-55.52 856.181,-40.4221 1031.82,-20.1439"/>
<polygon fill="midnightblue" stroke="midnightblue" points="1032.23,-23.62 1041.76,-18.9883 1031.42,-16.6669 1032.23,-23.62"/>
</g>
</g>
</svg>
