<?xml version="1.0" encoding="UTF-8" standalone="no"?>
<!DOCTYPE svg PUBLIC "-//W3C//DTD SVG 1.1//EN"
 "http://www.w3.org/Graphics/SVG/1.1/DTD/svg11.dtd">
<!-- Generated by graphviz version 2.38.0 (20140413.2041)
 -->
<!-- Title: reject_prior_step_q Pages: 1 -->
<svg width="336pt" height="104pt"
 viewBox="0.00 0.00 336.00 104.00" xmlns="http://www.w3.org/2000/svg" xmlns:xlink="http://www.w3.org/1999/xlink">
<g id="graph0" class="graph" transform="scale(1 1) rotate(0) translate(4 100)">
<title>reject_prior_step_q</title>
<polygon fill="white" stroke="none" points="-4,4 -4,-100 332,-100 332,4 -4,4"/>
<!-- Node1 -->
<g id="node1" class="node"><title>Node1</title>
<polygon fill="#bfbfbf" stroke="black" points="0,-38.5 0,-57.5 109,-57.5 109,-38.5 0,-38.5"/>
<text text-anchor="middle" x="54.5" y="-45.5" font-family="Helvetica,sans-Serif" font-size="10.00">reject_prior_step_q</text>
</g>
<!-- Node2 -->
<g id="node2" class="node"><title>Node2</title>
<g id="a_node2"><a xlink:href="findpts__el__2_8c.html#a2bc5f8c39f8aeb300a6b30d313903bf4" target="_top" xlink:title="findpt_area">
<polygon fill="white" stroke="black" points="146,-76.5 146,-95.5 217,-95.5 217,-76.5 146,-76.5"/>
<text text-anchor="middle" x="181.5" y="-83.5" font-family="Helvetica,sans-Serif" font-size="10.00">findpt_area</text>
</a>
</g>
</g>
<!-- Node1&#45;&gt;Node2 -->
<g id="edge1" class="edge"><title>Node1&#45;&gt;Node2</title>
<path fill="none" stroke="midnightblue" d="M96.7345,-60.5353C113.739,-65.7048 133.129,-71.5991 148.967,-76.4141"/>
<polygon fill="midnightblue" stroke="midnightblue" points="97.6285,-57.149 87.0428,-57.589 95.5924,-63.8463 97.6285,-57.149"/>
</g>
<!-- Node4 -->
<g id="node4" class="node"><title>Node4</title>
<g id="a_node4"><a xlink:href="findpts__el__2_8c.html#a702f44e1b9ffb116fc271defdbfa0a00" target="_top" xlink:title="findpt_edge">
<polygon fill="white" stroke="black" points="145,-38.5 145,-57.5 218,-57.5 218,-38.5 145,-38.5"/>
<text text-anchor="middle" x="181.5" y="-45.5" font-family="Helvetica,sans-Serif" font-size="10.00">findpt_edge</text>
</a>
</g>
</g>
<!-- Node1&#45;&gt;Node4 -->
<g id="edge3" class="edge"><title>Node1&#45;&gt;Node4</title>
<path fill="none" stroke="midnightblue" d="M119.462,-48C128.193,-48 136.885,-48 144.858,-48"/>
<polygon fill="midnightblue" stroke="midnightblue" points="119.237,-44.5001 109.237,-48 119.237,-51.5001 119.237,-44.5001"/>
</g>
<!-- Node5 -->
<g id="node5" class="node"><title>Node5</title>
<g id="a_node5"><a xlink:href="findpts__el__2_8c.html#a210a90144657b76da9efd04736820849" target="_top" xlink:title="findpt_pt">
<polygon fill="white" stroke="black" points="152.5,-0.5 152.5,-19.5 210.5,-19.5 210.5,-0.5 152.5,-0.5"/>
<text text-anchor="middle" x="181.5" y="-7.5" font-family="Helvetica,sans-Serif" font-size="10.00">findpt_pt</text>
</a>
</g>
</g>
<!-- Node1&#45;&gt;Node5 -->
<g id="edge5" class="edge"><title>Node1&#45;&gt;Node5</title>
<path fill="none" stroke="midnightblue" d="M96.8401,-35.4326C115.063,-29.893 136.006,-23.5262 152.379,-18.5487"/>
<polygon fill="midnightblue" stroke="midnightblue" points="95.5924,-32.1537 87.0428,-38.411 97.6285,-38.851 95.5924,-32.1537"/>
</g>
<!-- Node3 -->
<g id="node3" class="node"><title>Node3</title>
<g id="a_node3"><a xlink:href="findpts__el__2_8c.html#a1fe7500238a37c48ae642d12cf921989" target="_top" xlink:title="findpts_el_2">
<polygon fill="white" stroke="black" points="254,-38.5 254,-57.5 328,-57.5 328,-38.5 254,-38.5"/>
<text text-anchor="middle" x="291" y="-45.5" font-family="Helvetica,sans-Serif" font-size="10.00">findpts_el_2</text>
</a>
</g>
</g>
<!-- Node2&#45;&gt;Node3 -->
<g id="edge2" class="edge"><title>Node2&#45;&gt;Node3</title>
<path fill="none" stroke="midnightblue" d="M219.196,-73.0282C233.518,-67.9656 249.642,-62.2659 262.882,-57.5859"/>
<polygon fill="midnightblue" stroke="midnightblue" points="217.889,-69.7782 209.627,-76.411 220.222,-76.378 217.889,-69.7782"/>
</g>
<!-- Node4&#45;&gt;Node3 -->
<g id="edge4" class="edge"><title>Node4&#45;&gt;Node3</title>
<path fill="none" stroke="midnightblue" d="M228.504,-48C237.029,-48 245.82,-48 253.994,-48"/>
<polygon fill="midnightblue" stroke="midnightblue" points="228.296,-44.5001 218.296,-48 228.296,-51.5001 228.296,-44.5001"/>
</g>
<!-- Node5&#45;&gt;Node3 -->
<g id="edge6" class="edge"><title>Node5&#45;&gt;Node3</title>
<path fill="none" stroke="midnightblue" d="M219.196,-22.9718C233.518,-28.0344 249.642,-33.7341 262.882,-38.4141"/>
<polygon fill="midnightblue" stroke="midnightblue" points="220.222,-19.622 209.627,-19.589 217.889,-26.2218 220.222,-19.622"/>
</g>
</g>
</svg>
