<?xml version="1.0" encoding="UTF-8" standalone="no"?>
<!DOCTYPE svg PUBLIC "-//W3C//DTD SVG 1.1//EN"
 "http://www.w3.org/Graphics/SVG/1.1/DTD/svg11.dtd">
<!-- Generated by graphviz version 2.38.0 (20140413.2041)
 -->
<!-- Title: findpts_el_3 Pages: 1 -->
<svg width="1178pt" height="741pt"
 viewBox="0.00 0.00 1178.00 741.46" xmlns="http://www.w3.org/2000/svg" xmlns:xlink="http://www.w3.org/1999/xlink">
<g id="graph0" class="graph" transform="scale(1 1) rotate(0) translate(4 737.457)">
<title>findpts_el_3</title>
<polygon fill="white" stroke="none" points="-4,4 -4,-737.457 1174,-737.457 1174,4 -4,4"/>
<!-- Node1 -->
<g id="node1" class="node"><title>Node1</title>
<polygon fill="#bfbfbf" stroke="black" points="0,-218.5 0,-237.5 74,-237.5 74,-218.5 0,-218.5"/>
<text text-anchor="middle" x="37" y="-225.5" font-family="Helvetica,sans-Serif" font-size="10.00">findpts_el_3</text>
</g>
<!-- Node2 -->
<g id="node2" class="node"><title>Node2</title>
<g id="a_node2"><a xlink:href="findpts__el__3_8c.html#af1a3eb77cfbd30da8225576a88a12cd0" target="_top" xlink:title="findpt_edge">
<polygon fill="white" stroke="black" points="397.5,-484.5 397.5,-503.5 470.5,-503.5 470.5,-484.5 397.5,-484.5"/>
<text text-anchor="middle" x="434" y="-491.5" font-family="Helvetica,sans-Serif" font-size="10.00">findpt_edge</text>
</a>
</g>
</g>
<!-- Node1&#45;&gt;Node2 -->
<g id="edge1" class="edge"><title>Node1&#45;&gt;Node2</title>
<path fill="none" stroke="midnightblue" d="M39.8602,-237.617C45.6764,-265.52 65.829,-347.768 110,-399 152.456,-448.243 173.302,-454.487 235,-475 285.192,-491.687 346.202,-495.208 387.118,-495.343"/>
<polygon fill="midnightblue" stroke="midnightblue" points="387.338,-498.843 397.325,-495.308 387.313,-491.843 387.338,-498.843"/>
</g>
<!-- Node20 -->
<g id="node20" class="node"><title>Node20</title>
<g id="a_node20"><a xlink:href="findpts__el__3_8c.html#ab1e1697a00c290763fcf744b73cf3b03" target="_top" xlink:title="num_constrained">
<polygon fill="white" stroke="black" points="671.5,-560.5 671.5,-579.5 769.5,-579.5 769.5,-560.5 671.5,-560.5"/>
<text text-anchor="middle" x="720.5" y="-567.5" font-family="Helvetica,sans-Serif" font-size="10.00">num_constrained</text>
</a>
</g>
</g>
<!-- Node1&#45;&gt;Node20 -->
<g id="edge57" class="edge"><title>Node1&#45;&gt;Node20</title>
<path fill="none" stroke="midnightblue" d="M38.2725,-237.868C40.7577,-307.492 65.0421,-722 291,-722 291,-722 291,-722 435,-722 521.192,-722 561.062,-757.299 628,-703 669.264,-669.527 626.882,-627.018 664,-589 665.414,-587.552 666.943,-586.214 668.561,-584.978"/>
<polygon fill="midnightblue" stroke="midnightblue" points="670.591,-587.837 677.265,-579.608 666.916,-581.88 670.591,-587.837"/>
</g>
<!-- Node23 -->
<g id="node23" class="node"><title>Node23</title>
<g id="a_node23"><a xlink:href="findpts__el__3_8c.html#ad2c233df5cb0edb3790d3c59eb9f19be" target="_top" xlink:title="findpt_face">
<polygon fill="white" stroke="black" points="399.5,-256.5 399.5,-275.5 468.5,-275.5 468.5,-256.5 399.5,-256.5"/>
<text text-anchor="middle" x="434" y="-263.5" font-family="Helvetica,sans-Serif" font-size="10.00">findpt_face</text>
</a>
</g>
</g>
<!-- Node1&#45;&gt;Node23 -->
<g id="edge30" class="edge"><title>Node1&#45;&gt;Node23</title>
<path fill="none" stroke="midnightblue" d="M74.1215,-235.888C85.5504,-238.151 98.262,-240.428 110,-242 209.312,-255.298 326.863,-261.711 389.146,-264.382"/>
<polygon fill="midnightblue" stroke="midnightblue" points="389.249,-267.889 399.386,-264.808 389.54,-260.895 389.249,-267.889"/>
</g>
<!-- Node24 -->
<g id="node24" class="node"><title>Node24</title>
<g id="a_node24"><a xlink:href="findpts__el__3_8c.html#a45011f1c9ad5e46c578da17c3c306d0f" target="_top" xlink:title="findpt_pt">
<polygon fill="white" stroke="black" points="125.5,-370.5 125.5,-389.5 183.5,-389.5 183.5,-370.5 125.5,-370.5"/>
<text text-anchor="middle" x="154.5" y="-377.5" font-family="Helvetica,sans-Serif" font-size="10.00">findpt_pt</text>
</a>
</g>
</g>
<!-- Node1&#45;&gt;Node24 -->
<g id="edge39" class="edge"><title>Node1&#45;&gt;Node24</title>
<path fill="none" stroke="midnightblue" d="M45.225,-237.508C64.1847,-262.46 115.587,-330.106 140.12,-362.392"/>
<polygon fill="midnightblue" stroke="midnightblue" points="137.441,-364.651 146.278,-370.495 143.014,-360.416 137.441,-364.651"/>
</g>
<!-- Node28 -->
<g id="node28" class="node"><title>Node28</title>
<g id="a_node28"><a xlink:href="findpts__el__3_8c.html#aaaaad44889a0b6de44f02e50fee8d342" target="_top" xlink:title="findpt_vol">
<polygon fill="white" stroke="black" points="403,-218.5 403,-237.5 465,-237.5 465,-218.5 403,-218.5"/>
<text text-anchor="middle" x="434" y="-225.5" font-family="Helvetica,sans-Serif" font-size="10.00">findpt_vol</text>
</a>
</g>
</g>
<!-- Node1&#45;&gt;Node28 -->
<g id="edge49" class="edge"><title>Node1&#45;&gt;Node28</title>
<path fill="none" stroke="midnightblue" d="M74.1008,-228C147.859,-228 315.382,-228 392.619,-228"/>
<polygon fill="midnightblue" stroke="midnightblue" points="392.899,-231.5 402.899,-228 392.899,-224.5 392.899,-231.5"/>
</g>
<!-- Node31 -->
<g id="node31" class="node"><title>Node31</title>
<g id="a_node31"><a xlink:href="findpts__el__3_8c.html#a09d9f4d1044c1f648b4d9ae98aed4cbd" target="_top" xlink:title="pt_flags_to_bin">
<polygon fill="white" stroke="black" points="110,-142.5 110,-161.5 199,-161.5 199,-142.5 110,-142.5"/>
<text text-anchor="middle" x="154.5" y="-149.5" font-family="Helvetica,sans-Serif" font-size="10.00">pt_flags_to_bin</text>
</a>
</g>
</g>
<!-- Node1&#45;&gt;Node31 -->
<g id="edge58" class="edge"><title>Node1&#45;&gt;Node31</title>
<path fill="none" stroke="midnightblue" d="M50.4231,-218.318C64.5243,-207.498 88.3797,-189.701 110,-176 115.134,-172.747 120.738,-169.466 126.164,-166.419"/>
<polygon fill="midnightblue" stroke="midnightblue" points="127.932,-169.441 135.012,-161.559 124.562,-163.305 127.932,-169.441"/>
</g>
<!-- Node32 -->
<g id="node32" class="node"><title>Node32</title>
<g id="a_node32"><a xlink:href="findpts__el__3_8c.html#a659697ad321a196ef1dd423aadc401c6" target="_top" xlink:title="pt_flags_to_bin_noC">
<polygon fill="white" stroke="black" points="235,-171.5 235,-190.5 349,-190.5 349,-171.5 235,-171.5"/>
<text text-anchor="middle" x="292" y="-178.5" font-family="Helvetica,sans-Serif" font-size="10.00">pt_flags_to_bin_noC</text>
</a>
</g>
</g>
<!-- Node1&#45;&gt;Node32 -->
<g id="edge60" class="edge"><title>Node1&#45;&gt;Node32</title>
<path fill="none" stroke="midnightblue" d="M74.2431,-220.867C85.6776,-218.639 98.362,-216.192 110,-214 149.14,-206.627 193.093,-198.607 227.884,-192.32"/>
<polygon fill="midnightblue" stroke="midnightblue" points="228.687,-195.732 237.906,-190.511 227.443,-188.843 228.687,-195.732"/>
</g>
<!-- Node33 -->
<g id="node33" class="node"><title>Node33</title>
<g id="a_node33"><a xlink:href="findpts__el__3_8c.html#a68584cf6421914cc3dd78bdcc7d999b1" target="_top" xlink:title="seed">
<polygon fill="white" stroke="black" points="134.5,-104.5 134.5,-123.5 174.5,-123.5 174.5,-104.5 134.5,-104.5"/>
<text text-anchor="middle" x="154.5" y="-111.5" font-family="Helvetica,sans-Serif" font-size="10.00">seed</text>
</a>
</g>
</g>
<!-- Node1&#45;&gt;Node33 -->
<g id="edge61" class="edge"><title>Node1&#45;&gt;Node33</title>
<path fill="none" stroke="midnightblue" d="M43.0735,-218.353C53.3735,-199.587 78.4575,-157.838 110,-133 114.451,-129.495 119.649,-126.502 124.871,-123.999"/>
<polygon fill="midnightblue" stroke="midnightblue" points="126.334,-127.18 134.142,-120.018 123.572,-120.748 126.334,-127.18"/>
</g>
<!-- Node34 -->
<g id="node34" class="node"><title>Node34</title>
<g id="a_node34"><a xlink:href="xxt_8c.html#a4c650e6ff94275a07fdde3ccc8faf7c4" target="_top" xlink:title="sum">
<polygon fill="white" stroke="black" points="137,-66.5 137,-85.5 172,-85.5 172,-66.5 137,-66.5"/>
<text text-anchor="middle" x="154.5" y="-73.5" font-family="Helvetica,sans-Serif" font-size="10.00">sum</text>
</a>
</g>
</g>
<!-- Node1&#45;&gt;Node34 -->
<g id="edge62" class="edge"><title>Node1&#45;&gt;Node34</title>
<path fill="none" stroke="midnightblue" d="M40.8236,-218.253C48.2573,-194.18 70.5612,-131.244 110,-95 114.938,-90.4622 121.132,-86.8895 127.284,-84.1268"/>
<polygon fill="midnightblue" stroke="midnightblue" points="128.695,-87.3333 136.732,-80.43 126.144,-80.8146 128.695,-87.3333"/>
</g>
<!-- Node3 -->
<g id="node3" class="node"><title>Node3</title>
<g id="a_node3"><a xlink:href="findpts__el__3_8c.html#aba221836cfcda61c89c2f0036a0c924b" target="_top" xlink:title="edge_index">
<polygon fill="white" stroke="black" points="684.5,-370.5 684.5,-389.5 756.5,-389.5 756.5,-370.5 684.5,-370.5"/>
<text text-anchor="middle" x="720.5" y="-377.5" font-family="Helvetica,sans-Serif" font-size="10.00">edge_index</text>
</a>
</g>
</g>
<!-- Node2&#45;&gt;Node3 -->
<g id="edge2" class="edge"><title>Node2&#45;&gt;Node3</title>
<path fill="none" stroke="midnightblue" d="M458.767,-484.477C509.391,-464.191 627.975,-416.674 686.138,-393.368"/>
<polygon fill="midnightblue" stroke="midnightblue" points="687.62,-396.545 695.601,-389.577 685.016,-390.047 687.62,-396.545"/>
</g>
<!-- Node4 -->
<g id="node4" class="node"><title>Node4</title>
<g id="a_node4"><a xlink:href="findpts__el__3_8c.html#a3acbce16e4f7a28b4ad8a6d217d776b2" target="_top" xlink:title="get_edge">
<polygon fill="white" stroke="black" points="542.5,-598.5 542.5,-617.5 604.5,-617.5 604.5,-598.5 542.5,-598.5"/>
<text text-anchor="middle" x="573.5" y="-605.5" font-family="Helvetica,sans-Serif" font-size="10.00">get_edge</text>
</a>
</g>
</g>
<!-- Node2&#45;&gt;Node4 -->
<g id="edge3" class="edge"><title>Node2&#45;&gt;Node4</title>
<path fill="none" stroke="midnightblue" d="M441.866,-503.587C455.06,-521.44 485.62,-560.13 519,-584 524.325,-587.808 530.352,-591.218 536.391,-594.188"/>
<polygon fill="midnightblue" stroke="midnightblue" points="535.242,-597.512 545.791,-598.49 538.154,-591.146 535.242,-597.512"/>
</g>
<!-- Node11 -->
<g id="node11" class="node"><title>Node11</title>
<g id="a_node11"><a xlink:href="findpts__el__3_8c.html#ae75c629c9c6b00245494c16a42876b71" target="_top" xlink:title="plus_1_mod_3">
<polygon fill="white" stroke="black" points="813,-332.5 813,-351.5 899,-351.5 899,-332.5 813,-332.5"/>
<text text-anchor="middle" x="856" y="-339.5" font-family="Helvetica,sans-Serif" font-size="10.00">plus_1_mod_3</text>
</a>
</g>
</g>
<!-- Node2&#45;&gt;Node11 -->
<g id="edge26" class="edge"><title>Node2&#45;&gt;Node11</title>
<path fill="none" stroke="midnightblue" d="M470.718,-488.221C509.841,-481.433 574.187,-468.914 628,-452 644.536,-446.803 647.775,-443.1 664,-437 713.597,-418.354 729.947,-423.362 777,-399 798.664,-387.784 820.89,-370.912 836.046,-358.432"/>
<polygon fill="midnightblue" stroke="midnightblue" points="838.692,-360.781 844.095,-351.668 834.188,-355.422 838.692,-360.781"/>
</g>
<!-- Node12 -->
<g id="node12" class="node"><title>Node12</title>
<g id="a_node12"><a xlink:href="findpts__el__3_8c.html#a0650ddc68d4d42f5c904fe102f6df5fa" target="_top" xlink:title="plus_2_mod_3">
<polygon fill="white" stroke="black" points="813,-484.5 813,-503.5 899,-503.5 899,-484.5 813,-484.5"/>
<text text-anchor="middle" x="856" y="-491.5" font-family="Helvetica,sans-Serif" font-size="10.00">plus_2_mod_3</text>
</a>
</g>
</g>
<!-- Node2&#45;&gt;Node12 -->
<g id="edge27" class="edge"><title>Node2&#45;&gt;Node12</title>
<path fill="none" stroke="midnightblue" d="M447.871,-503.505C463.929,-515.068 492.509,-534.691 519,-548 565.25,-571.235 584.88,-560.372 628,-589 647.382,-601.868 642.629,-617.808 664,-627 710.135,-646.844 733.421,-651.963 777,-627 819.822,-602.471 841.42,-544.295 850.154,-513.655"/>
<polygon fill="midnightblue" stroke="midnightblue" points="853.607,-514.29 852.806,-503.726 846.844,-512.484 853.607,-514.29"/>
</g>
<!-- Node13 -->
<g id="node13" class="node"><title>Node13</title>
<g id="a_node13"><a xlink:href="findpts__el__3_8c.html#ab797c081c458f9427b9101ff25b3d010" target="_top" xlink:title="newton_edge">
<polygon fill="white" stroke="black" points="533,-674.5 533,-693.5 614,-693.5 614,-674.5 533,-674.5"/>
<text text-anchor="middle" x="573.5" y="-681.5" font-family="Helvetica,sans-Serif" font-size="10.00">newton_edge</text>
</a>
</g>
</g>
<!-- Node2&#45;&gt;Node13 -->
<g id="edge14" class="edge"><title>Node2&#45;&gt;Node13</title>
<path fill="none" stroke="midnightblue" d="M440.314,-503.767C452.782,-526.355 485.408,-583.585 519,-627 530.094,-641.338 544.177,-656.232 555.109,-667.199"/>
<polygon fill="midnightblue" stroke="midnightblue" points="552.85,-669.888 562.424,-674.425 557.77,-664.908 552.85,-669.888"/>
</g>
<!-- Node14 -->
<g id="node14" class="node"><title>Node14</title>
<g id="a_node14"><a xlink:href="findpts__el__3_8c.html#a6a56358376aa2c7ce3da7d0717faa463" target="_top" xlink:title="newton_face">
<polygon fill="white" stroke="black" points="535,-370.5 535,-389.5 612,-389.5 612,-370.5 535,-370.5"/>
<text text-anchor="middle" x="573.5" y="-377.5" font-family="Helvetica,sans-Serif" font-size="10.00">newton_face</text>
</a>
</g>
</g>
<!-- Node2&#45;&gt;Node14 -->
<g id="edge15" class="edge"><title>Node2&#45;&gt;Node14</title>
<path fill="none" stroke="midnightblue" d="M441.866,-484.413C455.06,-466.56 485.62,-427.87 519,-404 524.325,-400.192 530.352,-396.782 536.391,-393.812"/>
<polygon fill="midnightblue" stroke="midnightblue" points="538.154,-396.854 545.791,-389.51 535.242,-390.488 538.154,-396.854"/>
</g>
<!-- Node16 -->
<g id="node16" class="node"><title>Node16</title>
<g id="a_node16"><a xlink:href="findpts__el__3_8c.html#a40edfe526f6370f9c97f4ecac2c56e78" target="_top" xlink:title="newton_vol">
<polygon fill="white" stroke="black" points="538,-294.5 538,-313.5 609,-313.5 609,-294.5 538,-294.5"/>
<text text-anchor="middle" x="573.5" y="-301.5" font-family="Helvetica,sans-Serif" font-size="10.00">newton_vol</text>
</a>
</g>
</g>
<!-- Node2&#45;&gt;Node16 -->
<g id="edge17" class="edge"><title>Node2&#45;&gt;Node16</title>
<path fill="none" stroke="midnightblue" d="M437.043,-484.31C443.615,-455.487 466.888,-369.422 519,-323 521.854,-320.457 525.071,-318.249 528.476,-316.332"/>
<polygon fill="midnightblue" stroke="midnightblue" points="530.269,-319.356 537.806,-311.909 527.271,-313.03 530.269,-319.356"/>
</g>
<!-- Node21 -->
<g id="node21" class="node"><title>Node21</title>
<g id="a_node21"><a xlink:href="findpts__el__3_8c.html#aef5c28750b23e80be613fb8c637e6a06" target="_top" xlink:title="reject_prior_step_q">
<polygon fill="white" stroke="black" points="519,-256.5 519,-275.5 628,-275.5 628,-256.5 519,-256.5"/>
<text text-anchor="middle" x="573.5" y="-263.5" font-family="Helvetica,sans-Serif" font-size="10.00">reject_prior_step_q</text>
</a>
</g>
</g>
<!-- Node2&#45;&gt;Node21 -->
<g id="edge28" class="edge"><title>Node2&#45;&gt;Node21</title>
<path fill="none" stroke="midnightblue" d="M436.106,-484.115C440.323,-451.065 458.345,-343.223 519,-285 520.647,-283.419 522.433,-281.969 524.321,-280.639"/>
<polygon fill="midnightblue" stroke="midnightblue" points="526.224,-283.581 533.123,-275.541 522.716,-277.524 526.224,-283.581"/>
</g>
<!-- Node22 -->
<g id="node22" class="node"><title>Node22</title>
<g id="a_node22"><a xlink:href="tensor_8h.html#a14afcab956cd6980991811621db031a7" target="_top" xlink:title="tensor_mtxv">
<polygon fill="white" stroke="black" points="683.5,-598.5 683.5,-617.5 757.5,-617.5 757.5,-598.5 683.5,-598.5"/>
<text text-anchor="middle" x="720.5" y="-605.5" font-family="Helvetica,sans-Serif" font-size="10.00">tensor_mtxv</text>
</a>
</g>
</g>
<!-- Node2&#45;&gt;Node22 -->
<g id="edge29" class="edge"><title>Node2&#45;&gt;Node22</title>
<path fill="none" stroke="midnightblue" d="M470.697,-500.64C510.934,-509.189 577.335,-526.56 628,-556 646.767,-566.905 645.338,-577.917 664,-589 667.448,-591.048 671.148,-592.915 674.942,-594.609"/>
<polygon fill="midnightblue" stroke="midnightblue" points="673.89,-597.959 684.472,-598.466 676.516,-591.47 673.89,-597.959"/>
</g>
<!-- Node5 -->
<g id="node5" class="node"><title>Node5</title>
<g id="a_node5"><a xlink:href="findpts__el__3_8c.html#a7af2d3a734a0e2e8883badf9eee92932" target="_top" xlink:title="compute_edge_data">
<polygon fill="white" stroke="black" points="664,-446.5 664,-465.5 777,-465.5 777,-446.5 664,-446.5"/>
<text text-anchor="middle" x="720.5" y="-453.5" font-family="Helvetica,sans-Serif" font-size="10.00">compute_edge_data</text>
</a>
</g>
</g>
<!-- Node4&#45;&gt;Node5 -->
<g id="edge4" class="edge"><title>Node4&#45;&gt;Node5</title>
<path fill="none" stroke="midnightblue" d="M583.57,-598.492C607.576,-573.327 673.009,-504.735 703.485,-472.788"/>
<polygon fill="midnightblue" stroke="midnightblue" points="706.063,-475.156 710.433,-465.505 700.998,-470.325 706.063,-475.156"/>
</g>
<!-- Node6 -->
<g id="node6" class="node"><title>Node6</title>
<g id="a_node6"><a xlink:href="findpts__el__3_8c.html#a5dc987bca5f0dbd0ff09d44b61363c1e" target="_top" xlink:title="get_face">
<polygon fill="white" stroke="black" points="827,-180.5 827,-199.5 885,-199.5 885,-180.5 827,-180.5"/>
<text text-anchor="middle" x="856" y="-187.5" font-family="Helvetica,sans-Serif" font-size="10.00">get_face</text>
</a>
</g>
</g>
<!-- Node5&#45;&gt;Node6 -->
<g id="edge5" class="edge"><title>Node5&#45;&gt;Node6</title>
<path fill="none" stroke="midnightblue" d="M733.611,-446.234C745.982,-435.707 765.027,-417.902 777,-399 797.964,-365.903 834.51,-254.581 848.915,-209.35"/>
<polygon fill="midnightblue" stroke="midnightblue" points="852.323,-210.18 852.005,-199.59 845.649,-208.067 852.323,-210.18"/>
</g>
<!-- Node9 -->
<g id="node9" class="node"><title>Node9</title>
<g id="a_node9"><a xlink:href="tensor_8h.html#a668a47aca721428547c6c6ba41e44b64" target="_top" xlink:title="tensor_mxm">
<polygon fill="white" stroke="black" points="1096,-123.5 1096,-142.5 1170,-142.5 1170,-123.5 1096,-123.5"/>
<text text-anchor="middle" x="1133" y="-130.5" font-family="Helvetica,sans-Serif" font-size="10.00">tensor_mxm</text>
</a>
</g>
</g>
<!-- Node5&#45;&gt;Node9 -->
<g id="edge13" class="edge"><title>Node5&#45;&gt;Node9</title>
<path fill="none" stroke="midnightblue" d="M745.284,-446.47C804.886,-421.598 962.799,-349.474 1060,-247 1087.91,-217.576 1111.02,-175.766 1123.04,-151.81"/>
<polygon fill="midnightblue" stroke="midnightblue" points="1126.24,-153.245 1127.5,-142.725 1119.95,-150.162 1126.24,-153.245"/>
</g>
<!-- Node5&#45;&gt;Node11 -->
<g id="edge11" class="edge"><title>Node5&#45;&gt;Node11</title>
<path fill="none" stroke="midnightblue" d="M750.199,-446.457C759.239,-442.72 768.956,-437.895 777,-432 804.643,-411.742 829.189,-379.988 843.059,-360.117"/>
<polygon fill="midnightblue" stroke="midnightblue" points="846.081,-361.898 848.816,-351.663 840.295,-357.958 846.081,-361.898"/>
</g>
<!-- Node5&#45;&gt;Node12 -->
<g id="edge12" class="edge"><title>Node5&#45;&gt;Node12</title>
<path fill="none" stroke="midnightblue" d="M755.188,-465.589C772.263,-470.449 793.2,-476.409 811.482,-481.613"/>
<polygon fill="midnightblue" stroke="midnightblue" points="810.747,-485.043 821.323,-484.414 812.663,-478.31 810.747,-485.043"/>
</g>
<!-- Node7 -->
<g id="node7" class="node"><title>Node7</title>
<g id="a_node7"><a xlink:href="findpts__el__3_8c.html#ac09cc89ca0d0be5832976503693b39b6" target="_top" xlink:title="compute_face_data_st">
<polygon fill="white" stroke="black" points="935.5,-218.5 935.5,-237.5 1059.5,-237.5 1059.5,-218.5 935.5,-218.5"/>
<text text-anchor="middle" x="997.5" y="-225.5" font-family="Helvetica,sans-Serif" font-size="10.00">compute_face_data_st</text>
</a>
</g>
</g>
<!-- Node6&#45;&gt;Node7 -->
<g id="edge6" class="edge"><title>Node6&#45;&gt;Node7</title>
<path fill="none" stroke="midnightblue" d="M885.23,-197.69C904.285,-202.881 929.84,-209.842 951.654,-215.784"/>
<polygon fill="midnightblue" stroke="midnightblue" points="950.809,-219.181 961.377,-218.432 952.649,-212.427 950.809,-219.181"/>
</g>
<!-- Node8 -->
<g id="node8" class="node"><title>Node8</title>
<g id="a_node8"><a xlink:href="findpts__el__3_8c.html#a8226ddf76abad91ef3ba8a5a2c3d07a5" target="_top" xlink:title="compute_face_data_tr">
<polygon fill="white" stroke="black" points="936.5,-180.5 936.5,-199.5 1058.5,-199.5 1058.5,-180.5 936.5,-180.5"/>
<text text-anchor="middle" x="997.5" y="-187.5" font-family="Helvetica,sans-Serif" font-size="10.00">compute_face_data_tr</text>
</a>
</g>
</g>
<!-- Node6&#45;&gt;Node8 -->
<g id="edge7" class="edge"><title>Node6&#45;&gt;Node8</title>
<path fill="none" stroke="midnightblue" d="M885.23,-190C897.197,-190 911.728,-190 926.285,-190"/>
<polygon fill="midnightblue" stroke="midnightblue" points="926.337,-193.5 936.337,-190 926.337,-186.5 926.337,-193.5"/>
</g>
<!-- Node10 -->
<g id="node10" class="node"><title>Node10</title>
<g id="a_node10"><a xlink:href="findpts__el__3_8c.html#a9b7b556347005323d242ba0b79d88e15" target="_top" xlink:title="compute_face_data_rs">
<polygon fill="white" stroke="black" points="935,-142.5 935,-161.5 1060,-161.5 1060,-142.5 935,-142.5"/>
<text text-anchor="middle" x="997.5" y="-149.5" font-family="Helvetica,sans-Serif" font-size="10.00">compute_face_data_rs</text>
</a>
</g>
</g>
<!-- Node6&#45;&gt;Node10 -->
<g id="edge9" class="edge"><title>Node6&#45;&gt;Node10</title>
<path fill="none" stroke="midnightblue" d="M885.23,-182.31C904.285,-177.119 929.84,-170.158 951.654,-164.216"/>
<polygon fill="midnightblue" stroke="midnightblue" points="952.649,-167.573 961.377,-161.568 950.809,-160.819 952.649,-167.573"/>
</g>
<!-- Node8&#45;&gt;Node9 -->
<g id="edge8" class="edge"><title>Node8&#45;&gt;Node9</title>
<path fill="none" stroke="midnightblue" d="M1033.38,-180.459C1042.18,-177.716 1051.53,-174.506 1060,-171 1076.13,-164.321 1093.45,-155.243 1107.06,-147.634"/>
<polygon fill="midnightblue" stroke="midnightblue" points="1108.87,-150.633 1115.83,-142.649 1105.41,-144.547 1108.87,-150.633"/>
</g>
<!-- Node10&#45;&gt;Node9 -->
<g id="edge10" class="edge"><title>Node10&#45;&gt;Node9</title>
<path fill="none" stroke="midnightblue" d="M1060.17,-143.223C1068.72,-142.006 1077.38,-140.773 1085.59,-139.605"/>
<polygon fill="midnightblue" stroke="midnightblue" points="1086.3,-143.04 1095.7,-138.166 1085.31,-136.11 1086.3,-143.04"/>
</g>
<!-- Node15 -->
<g id="node15" class="node"><title>Node15</title>
<g id="a_node15"><a xlink:href="findpts__el__3_8c.html#a95468f294c8ff96f5ba9df04c5c22c3d" target="_top" xlink:title="lin_solve_sym_2">
<polygon fill="white" stroke="black" points="673,-332.5 673,-351.5 768,-351.5 768,-332.5 673,-332.5"/>
<text text-anchor="middle" x="720.5" y="-339.5" font-family="Helvetica,sans-Serif" font-size="10.00">lin_solve_sym_2</text>
</a>
</g>
</g>
<!-- Node14&#45;&gt;Node15 -->
<g id="edge16" class="edge"><title>Node14&#45;&gt;Node15</title>
<path fill="none" stroke="midnightblue" d="M611.09,-370.411C629.965,-365.464 653.186,-359.379 673.288,-354.111"/>
<polygon fill="midnightblue" stroke="midnightblue" points="674.387,-357.441 683.173,-351.52 672.613,-350.67 674.387,-357.441"/>
</g>
<!-- Node16&#45;&gt;Node3 -->
<g id="edge24" class="edge"><title>Node16&#45;&gt;Node3</title>
<path fill="none" stroke="midnightblue" d="M609.029,-313.556C615.596,-316.112 622.217,-319.237 628,-323 647.5,-335.688 644.428,-348.424 664,-361 667.374,-363.168 671.023,-365.118 674.782,-366.867"/>
<polygon fill="midnightblue" stroke="midnightblue" points="673.684,-370.201 684.262,-370.807 676.371,-363.737 673.684,-370.201"/>
</g>
<!-- Node16&#45;&gt;Node11 -->
<g id="edge21" class="edge"><title>Node16&#45;&gt;Node11</title>
<path fill="none" stroke="midnightblue" d="M602.465,-294.452C642.27,-282.394 717.082,-265.44 777,-285 801.215,-292.905 824.151,-311.492 838.803,-325.305"/>
<polygon fill="midnightblue" stroke="midnightblue" points="836.45,-327.899 846.046,-332.389 841.345,-322.895 836.45,-327.899"/>
</g>
<!-- Node16&#45;&gt;Node12 -->
<g id="edge22" class="edge"><title>Node16&#45;&gt;Node12</title>
<path fill="none" stroke="midnightblue" d="M609.236,-310.699C616.252,-313.483 622.999,-317.423 628,-323 674.352,-374.685 611.747,-429.291 664,-475 701.421,-507.734 760.099,-508.767 802.546,-503.931"/>
<polygon fill="midnightblue" stroke="midnightblue" points="803.22,-507.373 812.694,-502.629 802.33,-500.43 803.22,-507.373"/>
</g>
<!-- Node16&#45;&gt;Node15 -->
<g id="edge23" class="edge"><title>Node16&#45;&gt;Node15</title>
<path fill="none" stroke="midnightblue" d="M609.231,-313.102C628.383,-318.121 652.414,-324.419 673.15,-329.853"/>
<polygon fill="midnightblue" stroke="midnightblue" points="672.468,-333.293 683.029,-332.442 674.243,-326.521 672.468,-333.293"/>
</g>
<!-- Node17 -->
<g id="node17" class="node"><title>Node17</title>
<g id="a_node17"><a xlink:href="findpts__el__3_8c.html#a598095cce4b223db4ae44894913f0ec9" target="_top" xlink:title="lin_solve_3">
<polygon fill="white" stroke="black" points="685.5,-294.5 685.5,-313.5 755.5,-313.5 755.5,-294.5 685.5,-294.5"/>
<text text-anchor="middle" x="720.5" y="-301.5" font-family="Helvetica,sans-Serif" font-size="10.00">lin_solve_3</text>
</a>
</g>
</g>
<!-- Node16&#45;&gt;Node17 -->
<g id="edge18" class="edge"><title>Node16&#45;&gt;Node17</title>
<path fill="none" stroke="midnightblue" d="M609.231,-304C629.031,-304 654.046,-304 675.243,-304"/>
<polygon fill="midnightblue" stroke="midnightblue" points="675.303,-307.5 685.303,-304 675.303,-300.5 675.303,-307.5"/>
</g>
<!-- Node18 -->
<g id="node18" class="node"><title>Node18</title>
<g id="a_node18"><a xlink:href="findpts__el__3_8c.html#aed02f0a06d189ff25cd1eb50271b6ead" target="_top" xlink:title="face_index">
<polygon fill="white" stroke="black" points="686.5,-142.5 686.5,-161.5 754.5,-161.5 754.5,-142.5 686.5,-142.5"/>
<text text-anchor="middle" x="720.5" y="-149.5" font-family="Helvetica,sans-Serif" font-size="10.00">face_index</text>
</a>
</g>
</g>
<!-- Node16&#45;&gt;Node18 -->
<g id="edge19" class="edge"><title>Node16&#45;&gt;Node18</title>
<path fill="none" stroke="midnightblue" d="M609.24,-295.25C615.862,-292.621 622.449,-289.261 628,-285 668.59,-253.84 697.824,-199.476 711.254,-170.856"/>
<polygon fill="midnightblue" stroke="midnightblue" points="714.525,-172.119 715.479,-161.567 708.153,-169.221 714.525,-172.119"/>
</g>
<!-- Node16&#45;&gt;Node20 -->
<g id="edge25" class="edge"><title>Node16&#45;&gt;Node20</title>
<path fill="none" stroke="midnightblue" d="M609.128,-310.442C616.235,-313.238 623.048,-317.249 628,-323 682.656,-386.476 626.726,-432.986 664,-508 672.754,-525.617 687.898,-542.035 700.158,-553.544"/>
<polygon fill="midnightblue" stroke="midnightblue" points="697.936,-556.253 707.701,-560.362 702.629,-551.06 697.936,-556.253"/>
</g>
<!-- Node19 -->
<g id="node19" class="node"><title>Node19</title>
<g id="a_node19"><a xlink:href="findpts__el__3_8c.html#adedc72c5a31511f6a6d6df1fcfbd279e" target="_top" xlink:title="which_bit">
<polygon fill="white" stroke="black" points="826,-142.5 826,-161.5 886,-161.5 886,-142.5 826,-142.5"/>
<text text-anchor="middle" x="856" y="-149.5" font-family="Helvetica,sans-Serif" font-size="10.00">which_bit</text>
</a>
</g>
</g>
<!-- Node18&#45;&gt;Node19 -->
<g id="edge20" class="edge"><title>Node18&#45;&gt;Node19</title>
<path fill="none" stroke="midnightblue" d="M754.5,-152C772.957,-152 796.086,-152 815.501,-152"/>
<polygon fill="midnightblue" stroke="midnightblue" points="815.561,-155.5 825.561,-152 815.561,-148.5 815.561,-155.5"/>
</g>
<!-- Node23&#45;&gt;Node6 -->
<g id="edge32" class="edge"><title>Node23&#45;&gt;Node6</title>
<path fill="none" stroke="midnightblue" d="M464.006,-256.494C470.478,-253.841 477.151,-250.662 483,-247 501.396,-235.481 499.065,-222.585 519,-214 619.235,-170.836 751.877,-177.848 816.418,-184.82"/>
<polygon fill="midnightblue" stroke="midnightblue" points="816.215,-188.32 826.547,-185.976 817.008,-181.365 816.215,-188.32"/>
</g>
<!-- Node23&#45;&gt;Node9 -->
<g id="edge38" class="edge"><title>Node23&#45;&gt;Node9</title>
<path fill="none" stroke="midnightblue" d="M468.817,-256.971C474.06,-254.412 479.04,-251.149 483,-247 517.062,-211.313 480.94,-173.388 519,-142 588.415,-84.753 629.524,-114 719.5,-114 719.5,-114 719.5,-114 857,-114 937.477,-114 1030.89,-122.198 1085.51,-127.824"/>
<polygon fill="midnightblue" stroke="midnightblue" points="1085.27,-131.318 1095.58,-128.877 1086,-124.356 1085.27,-131.318"/>
</g>
<!-- Node23&#45;&gt;Node11 -->
<g id="edge35" class="edge"><title>Node23&#45;&gt;Node11</title>
<path fill="none" stroke="midnightblue" d="M468.631,-256.593C483.875,-252.797 502.209,-248.875 519,-247 633.492,-234.213 673.206,-222.013 777,-272 802.965,-284.505 826.659,-308.332 840.953,-324.685"/>
<polygon fill="midnightblue" stroke="midnightblue" points="838.4,-327.085 847.533,-332.455 843.741,-322.562 838.4,-327.085"/>
</g>
<!-- Node23&#45;&gt;Node12 -->
<g id="edge36" class="edge"><title>Node23&#45;&gt;Node12</title>
<path fill="none" stroke="midnightblue" d="M439.432,-275.543C450.472,-298.631 481.061,-358.575 519,-399 573.45,-457.018 588.308,-479.472 664,-504 711.511,-519.396 769.125,-513.249 808.57,-505.558"/>
<polygon fill="midnightblue" stroke="midnightblue" points="809.35,-508.971 818.439,-503.528 807.939,-502.115 809.35,-508.971"/>
</g>
<!-- Node23&#45;&gt;Node14 -->
<g id="edge33" class="edge"><title>Node23&#45;&gt;Node14</title>
<path fill="none" stroke="midnightblue" d="M440.975,-275.518C453.307,-294.429 483.423,-336.972 519,-361 521.906,-362.963 525.038,-364.747 528.276,-366.364"/>
<polygon fill="midnightblue" stroke="midnightblue" points="527.026,-369.638 537.587,-370.49 529.862,-363.239 527.026,-369.638"/>
</g>
<!-- Node23&#45;&gt;Node16 -->
<g id="edge34" class="edge"><title>Node23&#45;&gt;Node16</title>
<path fill="none" stroke="midnightblue" d="M468.636,-275.296C486.51,-280.236 508.712,-286.371 527.996,-291.701"/>
<polygon fill="midnightblue" stroke="midnightblue" points="527.204,-295.113 537.775,-294.403 529.069,-288.366 527.204,-295.113"/>
</g>
<!-- Node23&#45;&gt;Node18 -->
<g id="edge31" class="edge"><title>Node23&#45;&gt;Node18</title>
<path fill="none" stroke="midnightblue" d="M468.347,-256.49C473.642,-253.984 478.761,-250.864 483,-247 509.146,-223.164 490.007,-196.278 519,-176 565.277,-143.633 632.702,-142.497 676.338,-146.103"/>
<polygon fill="midnightblue" stroke="midnightblue" points="676.066,-149.593 686.351,-147.049 676.724,-142.624 676.066,-149.593"/>
</g>
<!-- Node23&#45;&gt;Node21 -->
<g id="edge37" class="edge"><title>Node23&#45;&gt;Node21</title>
<path fill="none" stroke="midnightblue" d="M468.636,-266C480.792,-266 494.949,-266 508.829,-266"/>
<polygon fill="midnightblue" stroke="midnightblue" points="508.854,-269.5 518.854,-266 508.854,-262.5 508.854,-269.5"/>
</g>
<!-- Node24&#45;&gt;Node13 -->
<g id="edge44" class="edge"><title>Node24&#45;&gt;Node13</title>
<path fill="none" stroke="midnightblue" d="M161.459,-389.579C184.92,-426.463 275.034,-560.548 385,-627 427.86,-652.9 483.417,-667.86 522.902,-675.898"/>
<polygon fill="midnightblue" stroke="midnightblue" points="522.343,-679.355 532.829,-677.843 523.689,-672.486 522.343,-679.355"/>
</g>
<!-- Node24&#45;&gt;Node14 -->
<g id="edge45" class="edge"><title>Node24&#45;&gt;Node14</title>
<path fill="none" stroke="midnightblue" d="M183.541,-388.402C198.636,-392.491 217.665,-396.957 235,-399 337.902,-411.126 459.396,-397.489 524.894,-387.857"/>
<polygon fill="midnightblue" stroke="midnightblue" points="525.545,-391.299 534.913,-386.35 524.504,-384.376 525.545,-391.299"/>
</g>
<!-- Node24&#45;&gt;Node16 -->
<g id="edge46" class="edge"><title>Node24&#45;&gt;Node16</title>
<path fill="none" stroke="midnightblue" d="M183.729,-372.765C198.876,-369.006 217.897,-364.484 235,-361 290.308,-349.734 449.383,-323.8 527.763,-311.171"/>
<polygon fill="midnightblue" stroke="midnightblue" points="528.499,-314.598 537.815,-309.553 527.386,-307.687 528.499,-314.598"/>
</g>
<!-- Node24&#45;&gt;Node21 -->
<g id="edge48" class="edge"><title>Node24&#45;&gt;Node21</title>
<path fill="none" stroke="midnightblue" d="M169.804,-370.329C185.247,-360.317 210.883,-344.917 235,-336 340.545,-296.975 372.85,-308.017 483,-285 494.304,-282.638 506.406,-280.085 517.941,-277.64"/>
<polygon fill="midnightblue" stroke="midnightblue" points="518.842,-281.027 527.898,-275.527 517.389,-274.179 518.842,-281.027"/>
</g>
<!-- Node25 -->
<g id="node25" class="node"><title>Node25</title>
<g id="a_node25"><a xlink:href="findpts__el__3_8c.html#aa8ed83eb48038a2dd41b03fadadee562" target="_top" xlink:title="get_pt">
<polygon fill="white" stroke="black" points="268.5,-446.5 268.5,-465.5 315.5,-465.5 315.5,-446.5 268.5,-446.5"/>
<text text-anchor="middle" x="292" y="-453.5" font-family="Helvetica,sans-Serif" font-size="10.00">get_pt</text>
</a>
</g>
</g>
<!-- Node24&#45;&gt;Node25 -->
<g id="edge40" class="edge"><title>Node24&#45;&gt;Node25</title>
<path fill="none" stroke="midnightblue" d="M168.567,-389.569C183.973,-400.606 210.58,-418.91 235,-432 242.556,-436.05 250.94,-439.941 258.871,-443.368"/>
<polygon fill="midnightblue" stroke="midnightblue" points="257.659,-446.655 268.234,-447.298 260.368,-440.201 257.659,-446.655"/>
</g>
<!-- Node27 -->
<g id="node27" class="node"><title>Node27</title>
<g id="a_node27"><a xlink:href="findpts__el__3_8c.html#a16d786872d01d26d43aa1ea5bc6106db" target="_top" xlink:title="point_index">
<polygon fill="white" stroke="black" points="256.5,-370.5 256.5,-389.5 327.5,-389.5 327.5,-370.5 256.5,-370.5"/>
<text text-anchor="middle" x="292" y="-377.5" font-family="Helvetica,sans-Serif" font-size="10.00">point_index</text>
</a>
</g>
</g>
<!-- Node24&#45;&gt;Node27 -->
<g id="edge47" class="edge"><title>Node24&#45;&gt;Node27</title>
<path fill="none" stroke="midnightblue" d="M183.576,-380C201.613,-380 225.443,-380 246.075,-380"/>
<polygon fill="midnightblue" stroke="midnightblue" points="246.215,-383.5 256.215,-380 246.215,-376.5 246.215,-383.5"/>
</g>
<!-- Node26 -->
<g id="node26" class="node"><title>Node26</title>
<g id="a_node26"><a xlink:href="findpts__el__3_8c.html#a196411139d99d1bb50c742501192796a" target="_top" xlink:title="compute_pt_data">
<polygon fill="white" stroke="black" points="385,-598.5 385,-617.5 483,-617.5 483,-598.5 385,-598.5"/>
<text text-anchor="middle" x="434" y="-605.5" font-family="Helvetica,sans-Serif" font-size="10.00">compute_pt_data</text>
</a>
</g>
</g>
<!-- Node25&#45;&gt;Node26 -->
<g id="edge41" class="edge"><title>Node25&#45;&gt;Node26</title>
<path fill="none" stroke="midnightblue" d="M301.758,-465.508C324.837,-490.566 387.578,-558.684 417.161,-590.804"/>
<polygon fill="midnightblue" stroke="midnightblue" points="414.896,-593.511 424.246,-598.495 420.045,-588.769 414.896,-593.511"/>
</g>
<!-- Node26&#45;&gt;Node4 -->
<g id="edge42" class="edge"><title>Node26&#45;&gt;Node4</title>
<path fill="none" stroke="midnightblue" d="M483.091,-608C499.073,-608 516.698,-608 532.044,-608"/>
<polygon fill="midnightblue" stroke="midnightblue" points="532.256,-611.5 542.256,-608 532.256,-604.5 532.256,-611.5"/>
</g>
<!-- Node26&#45;&gt;Node22 -->
<g id="edge43" class="edge"><title>Node26&#45;&gt;Node22</title>
<path fill="none" stroke="midnightblue" d="M469.037,-617.508C484.199,-621.272 502.358,-625.141 519,-627 567.145,-632.377 579.809,-631.951 628,-627 642.805,-625.479 658.749,-622.608 673.114,-619.551"/>
<polygon fill="midnightblue" stroke="midnightblue" points="674.249,-622.885 683.257,-617.308 672.737,-616.05 674.249,-622.885"/>
</g>
<!-- Node28&#45;&gt;Node9 -->
<g id="edge56" class="edge"><title>Node28&#45;&gt;Node9</title>
<path fill="none" stroke="midnightblue" d="M438.158,-218.2C446.678,-193.513 472.678,-128.694 519,-100 595.296,-52.7398 629.753,-76 719.5,-76 719.5,-76 719.5,-76 857,-76 947.851,-76 972.532,-75.4416 1060,-100 1075.87,-104.457 1092.67,-111.977 1106.05,-118.715"/>
<polygon fill="midnightblue" stroke="midnightblue" points="1104.63,-121.923 1115.12,-123.427 1107.86,-115.711 1104.63,-121.923"/>
</g>
<!-- Node28&#45;&gt;Node16 -->
<g id="edge50" class="edge"><title>Node28&#45;&gt;Node16</title>
<path fill="none" stroke="midnightblue" d="M464.956,-237.521C471.178,-240.129 477.506,-243.284 483,-247 502.271,-260.033 499.5,-272.312 519,-285 522.072,-286.999 525.381,-288.818 528.792,-290.468"/>
<polygon fill="midnightblue" stroke="midnightblue" points="527.404,-293.68 537.971,-294.444 530.187,-287.257 527.404,-293.68"/>
</g>
<!-- Node28&#45;&gt;Node21 -->
<g id="edge51" class="edge"><title>Node28&#45;&gt;Node21</title>
<path fill="none" stroke="midnightblue" d="M465.175,-236.339C483.654,-241.446 507.63,-248.072 528.232,-253.766"/>
<polygon fill="midnightblue" stroke="midnightblue" points="527.465,-257.185 538.036,-256.475 529.329,-250.438 527.465,-257.185"/>
</g>
<!-- Node29 -->
<g id="node29" class="node"><title>Node29</title>
<g id="a_node29"><a xlink:href="tensor_8h.html#a818ce716e0b5ac3cd45b18fce044ce3e" target="_top" xlink:title="tensor_i2">
<polygon fill="white" stroke="black" points="543,-332.5 543,-351.5 604,-351.5 604,-332.5 543,-332.5"/>
<text text-anchor="middle" x="573.5" y="-339.5" font-family="Helvetica,sans-Serif" font-size="10.00">tensor_i2</text>
</a>
</g>
</g>
<!-- Node28&#45;&gt;Node29 -->
<g id="edge52" class="edge"><title>Node28&#45;&gt;Node29</title>
<path fill="none" stroke="midnightblue" d="M465.447,-236.065C471.778,-238.778 478.029,-242.344 483,-247 510.279,-272.549 491.269,-297.941 519,-323 523.159,-326.759 528.111,-329.785 533.298,-332.219"/>
<polygon fill="midnightblue" stroke="midnightblue" points="532.183,-335.542 542.768,-335.99 534.773,-329.039 532.183,-335.542"/>
</g>
<!-- Node30 -->
<g id="node30" class="node"><title>Node30</title>
<g id="a_node30"><a xlink:href="tensor_8h.html#a1aa30c0b57153eecb9573dd8edf73c69" target="_top" xlink:title="tensor_ig2">
<polygon fill="white" stroke="black" points="964,-28.5 964,-47.5 1031,-47.5 1031,-28.5 964,-28.5"/>
<text text-anchor="middle" x="997.5" y="-35.5" font-family="Helvetica,sans-Serif" font-size="10.00">tensor_ig2</text>
</a>
</g>
</g>
<!-- Node28&#45;&gt;Node30 -->
<g id="edge54" class="edge"><title>Node28&#45;&gt;Node30</title>
<path fill="none" stroke="midnightblue" d="M436.503,-218.281C441.657,-188.667 461.585,-99.3122 519,-62 656.075,27.0805 864.862,-6.70063 953.885,-27.0236"/>
<polygon fill="midnightblue" stroke="midnightblue" points="953.349,-30.4929 963.884,-29.3659 954.946,-23.6773 953.349,-30.4929"/>
</g>
<!-- Node29&#45;&gt;Node22 -->
<g id="edge53" class="edge"><title>Node29&#45;&gt;Node22</title>
<path fill="none" stroke="midnightblue" d="M604.267,-346.545C613.108,-349.323 622.017,-353.797 628,-361 693.545,-439.92 598.006,-510.455 664,-589 666.838,-592.377 670.304,-595.156 674.104,-597.441"/>
<polygon fill="midnightblue" stroke="midnightblue" points="672.913,-600.751 683.442,-601.929 675.945,-594.442 672.913,-600.751"/>
</g>
<!-- Node30&#45;&gt;Node9 -->
<g id="edge55" class="edge"><title>Node30&#45;&gt;Node9</title>
<path fill="none" stroke="midnightblue" d="M1030.04,-47.5091C1040.04,-51.2442 1050.86,-56.0764 1060,-62 1082.87,-76.8274 1104.48,-99.7829 1117.95,-115.555"/>
<polygon fill="midnightblue" stroke="midnightblue" points="1115.46,-118.037 1124.55,-123.481 1120.84,-113.557 1115.46,-118.037"/>
</g>
<!-- Node31&#45;&gt;Node32 -->
<g id="edge59" class="edge"><title>Node31&#45;&gt;Node32</title>
<path fill="none" stroke="midnightblue" d="M199.119,-161.335C211.084,-163.896 224.204,-166.704 236.69,-169.376"/>
<polygon fill="midnightblue" stroke="midnightblue" points="236.021,-172.813 246.533,-171.483 237.487,-165.968 236.021,-172.813"/>
</g>
<!-- Node35 -->
<g id="node35" class="node"><title>Node35</title>
<g id="a_node35"><a xlink:href="comm_8h.html#aadc6a8cdf4984083417952ebfbc0ee00" target="_top" xlink:title="comm_send">
<polygon fill="white" stroke="black" points="255,-0.5 255,-19.5 329,-19.5 329,-0.5 255,-0.5"/>
<text text-anchor="middle" x="292" y="-7.5" font-family="Helvetica,sans-Serif" font-size="10.00">comm_send</text>
</a>
</g>
</g>
<!-- Node34&#45;&gt;Node35 -->
<g id="edge63" class="edge"><title>Node34&#45;&gt;Node35</title>
<path fill="none" stroke="midnightblue" d="M169.664,-66.4045C185.198,-56.1763 211.104,-39.9739 235,-29 239.662,-26.859 244.638,-24.83 249.627,-22.9507"/>
<polygon fill="midnightblue" stroke="midnightblue" points="250.928,-26.2024 259.159,-19.5314 248.564,-19.6135 250.928,-26.2024"/>
</g>
<!-- Node36 -->
<g id="node36" class="node"><title>Node36</title>
<g id="a_node36"><a xlink:href="comm_8h.html#a61f3037ecf23cd5609e3eac2ce0e1b01" target="_top" xlink:title="comm_recv">
<polygon fill="white" stroke="black" points="256.5,-114.5 256.5,-133.5 327.5,-133.5 327.5,-114.5 256.5,-114.5"/>
<text text-anchor="middle" x="292" y="-121.5" font-family="Helvetica,sans-Serif" font-size="10.00">comm_recv</text>
</a>
</g>
</g>
<!-- Node34&#45;&gt;Node36 -->
<g id="edge64" class="edge"><title>Node34&#45;&gt;Node36</title>
<path fill="none" stroke="midnightblue" d="M172.211,-82.2207C188.271,-88.1695 213.242,-97.3417 235,-105 240.708,-107.009 246.755,-109.1 252.684,-111.129"/>
<polygon fill="midnightblue" stroke="midnightblue" points="251.874,-114.55 262.468,-114.459 254.129,-107.923 251.874,-114.55"/>
</g>
<!-- Node37 -->
<g id="node37" class="node"><title>Node37</title>
<g id="a_node37"><a xlink:href="comm_8h.html#a33c610b70409697426693f5d98a8e084" target="_top" xlink:title="comm_isend">
<polygon fill="white" stroke="black" points="254,-76.5 254,-95.5 330,-95.5 330,-76.5 254,-76.5"/>
<text text-anchor="middle" x="292" y="-83.5" font-family="Helvetica,sans-Serif" font-size="10.00">comm_isend</text>
</a>
</g>
</g>
<!-- Node34&#45;&gt;Node37 -->
<g id="edge65" class="edge"><title>Node34&#45;&gt;Node37</title>
<path fill="none" stroke="midnightblue" d="M172.115,-77.2262C189.879,-78.5372 218.856,-80.6757 243.753,-82.5132"/>
<polygon fill="midnightblue" stroke="midnightblue" points="243.542,-86.007 253.772,-83.2526 244.057,-79.026 243.542,-86.007"/>
</g>
<!-- Node38 -->
<g id="node38" class="node"><title>Node38</title>
<g id="a_node38"><a xlink:href="comm_8h.html#a0f6e578048ebdc9f0869f9f5af2fd08b" target="_top" xlink:title="comm_wait">
<polygon fill="white" stroke="black" points="257.5,-38.5 257.5,-57.5 326.5,-57.5 326.5,-38.5 257.5,-38.5"/>
<text text-anchor="middle" x="292" y="-45.5" font-family="Helvetica,sans-Serif" font-size="10.00">comm_wait</text>
</a>
</g>
</g>
<!-- Node34&#45;&gt;Node38 -->
<g id="edge66" class="edge"><title>Node34&#45;&gt;Node38</title>
<path fill="none" stroke="midnightblue" d="M172.115,-72.5667C190.769,-68.712 221.787,-62.3023 247.463,-56.9966"/>
<polygon fill="midnightblue" stroke="midnightblue" points="248.279,-60.4019 257.364,-54.9506 246.863,-53.5467 248.279,-60.4019"/>
</g>
</g>
</svg>
