<?xml version="1.0" encoding="UTF-8" standalone="no"?>
<!DOCTYPE svg PUBLIC "-//W3C//DTD SVG 1.1//EN"
 "http://www.w3.org/Graphics/SVG/1.1/DTD/svg11.dtd">
<!-- Generated by graphviz version 2.38.0 (20140413.2041)
 -->
<!-- Title: hash_build Pages: 1 -->
<svg width="258pt" height="142pt"
 viewBox="0.00 0.00 258.00 142.00" xmlns="http://www.w3.org/2000/svg" xmlns:xlink="http://www.w3.org/1999/xlink">
<g id="graph0" class="graph" transform="scale(1 1) rotate(0) translate(4 138)">
<title>hash_build</title>
<polygon fill="white" stroke="none" points="-4,4 -4,-138 254,-138 254,4 -4,4"/>
<!-- Node1 -->
<g id="node1" class="node"><title>Node1</title>
<polygon fill="#bfbfbf" stroke="black" points="0,-57.5 0,-76.5 67,-76.5 67,-57.5 0,-57.5"/>
<text text-anchor="middle" x="33.5" y="-64.5" font-family="Helvetica,sans-Serif" font-size="10.00">hash_build</text>
</g>
<!-- Node2 -->
<g id="node2" class="node"><title>Node2</title>
<g id="a_node2"><a xlink:href="xxt_8c.html#a4c650e6ff94275a07fdde3ccc8faf7c4" target="_top" xlink:title="sum">
<polygon fill="white" stroke="black" points="103,-57.5 103,-76.5 138,-76.5 138,-57.5 103,-57.5"/>
<text text-anchor="middle" x="120.5" y="-64.5" font-family="Helvetica,sans-Serif" font-size="10.00">sum</text>
</a>
</g>
</g>
<!-- Node1&#45;&gt;Node2 -->
<g id="edge1" class="edge"><title>Node1&#45;&gt;Node2</title>
<path fill="none" stroke="midnightblue" d="M67.1201,-67C75.5838,-67 84.6009,-67 92.7254,-67"/>
<polygon fill="midnightblue" stroke="midnightblue" points="92.7702,-70.5001 102.77,-67 92.7701,-63.5001 92.7702,-70.5001"/>
</g>
<!-- Node3 -->
<g id="node3" class="node"><title>Node3</title>
<g id="a_node3"><a xlink:href="comm_8h.html#aadc6a8cdf4984083417952ebfbc0ee00" target="_top" xlink:title="comm_send">
<polygon fill="white" stroke="black" points="175,-114.5 175,-133.5 249,-133.5 249,-114.5 175,-114.5"/>
<text text-anchor="middle" x="212" y="-121.5" font-family="Helvetica,sans-Serif" font-size="10.00">comm_send</text>
</a>
</g>
</g>
<!-- Node2&#45;&gt;Node3 -->
<g id="edge2" class="edge"><title>Node2&#45;&gt;Node3</title>
<path fill="none" stroke="midnightblue" d="M133.651,-76.609C144.064,-84.6428 159.616,-96.1717 174,-105 176.623,-106.61 179.399,-108.211 182.203,-109.76"/>
<polygon fill="midnightblue" stroke="midnightblue" points="180.634,-112.89 191.108,-114.486 183.915,-106.707 180.634,-112.89"/>
</g>
<!-- Node4 -->
<g id="node4" class="node"><title>Node4</title>
<g id="a_node4"><a xlink:href="comm_8h.html#a61f3037ecf23cd5609e3eac2ce0e1b01" target="_top" xlink:title="comm_recv">
<polygon fill="white" stroke="black" points="176.5,-76.5 176.5,-95.5 247.5,-95.5 247.5,-76.5 176.5,-76.5"/>
<text text-anchor="middle" x="212" y="-83.5" font-family="Helvetica,sans-Serif" font-size="10.00">comm_recv</text>
</a>
</g>
</g>
<!-- Node2&#45;&gt;Node4 -->
<g id="edge3" class="edge"><title>Node2&#45;&gt;Node4</title>
<path fill="none" stroke="midnightblue" d="M138.334,-70.5738C146.385,-72.283 156.444,-74.4183 166.487,-76.5502"/>
<polygon fill="midnightblue" stroke="midnightblue" points="165.94,-80.0121 176.449,-78.6651 167.394,-73.1647 165.94,-80.0121"/>
</g>
<!-- Node5 -->
<g id="node5" class="node"><title>Node5</title>
<g id="a_node5"><a xlink:href="comm_8h.html#a33c610b70409697426693f5d98a8e084" target="_top" xlink:title="comm_isend">
<polygon fill="white" stroke="black" points="174,-38.5 174,-57.5 250,-57.5 250,-38.5 174,-38.5"/>
<text text-anchor="middle" x="212" y="-45.5" font-family="Helvetica,sans-Serif" font-size="10.00">comm_isend</text>
</a>
</g>
</g>
<!-- Node2&#45;&gt;Node5 -->
<g id="edge4" class="edge"><title>Node2&#45;&gt;Node5</title>
<path fill="none" stroke="midnightblue" d="M138.334,-63.4262C145.697,-61.8632 154.739,-59.9437 163.912,-57.9964"/>
<polygon fill="midnightblue" stroke="midnightblue" points="164.789,-61.3883 173.844,-55.8879 163.335,-54.5409 164.789,-61.3883"/>
</g>
<!-- Node6 -->
<g id="node6" class="node"><title>Node6</title>
<g id="a_node6"><a xlink:href="comm_8h.html#a0f6e578048ebdc9f0869f9f5af2fd08b" target="_top" xlink:title="comm_wait">
<polygon fill="white" stroke="black" points="177.5,-0.5 177.5,-19.5 246.5,-19.5 246.5,-0.5 177.5,-0.5"/>
<text text-anchor="middle" x="212" y="-7.5" font-family="Helvetica,sans-Serif" font-size="10.00">comm_wait</text>
</a>
</g>
</g>
<!-- Node2&#45;&gt;Node6 -->
<g id="edge5" class="edge"><title>Node2&#45;&gt;Node6</title>
<path fill="none" stroke="midnightblue" d="M133.651,-57.391C144.064,-49.3572 159.616,-37.8283 174,-29 176.623,-27.39 179.399,-25.7893 182.203,-24.2396"/>
<polygon fill="midnightblue" stroke="midnightblue" points="183.915,-27.2933 191.108,-19.5137 180.634,-21.1101 183.915,-27.2933"/>
</g>
</g>
</svg>
