<?xml version="1.0" encoding="UTF-8" standalone="no"?>
<!DOCTYPE svg PUBLIC "-//W3C//DTD SVG 1.1//EN"
 "http://www.w3.org/Graphics/SVG/1.1/DTD/svg11.dtd">
<!-- Generated by graphviz version 2.38.0 (20140413.2041)
 -->
<!-- Title: lin_solve_3 Pages: 1 -->
<svg width="404pt" height="142pt"
 viewBox="0.00 0.00 404.00 142.00" xmlns="http://www.w3.org/2000/svg" xmlns:xlink="http://www.w3.org/1999/xlink">
<g id="graph0" class="graph" transform="scale(1 1) rotate(0) translate(4 138)">
<title>lin_solve_3</title>
<polygon fill="white" stroke="none" points="-4,4 -4,-138 400,-138 400,4 -4,4"/>
<!-- Node1 -->
<g id="node1" class="node"><title>Node1</title>
<polygon fill="#bfbfbf" stroke="black" points="0,-57.5 0,-76.5 70,-76.5 70,-57.5 0,-57.5"/>
<text text-anchor="middle" x="35" y="-64.5" font-family="Helvetica,sans-Serif" font-size="10.00">lin_solve_3</text>
</g>
<!-- Node2 -->
<g id="node2" class="node"><title>Node2</title>
<g id="a_node2"><a xlink:href="findpts__el__3_8c.html#a40edfe526f6370f9c97f4ecac2c56e78" target="_top" xlink:title="newton_vol">
<polygon fill="white" stroke="black" points="106,-57.5 106,-76.5 177,-76.5 177,-57.5 106,-57.5"/>
<text text-anchor="middle" x="141.5" y="-64.5" font-family="Helvetica,sans-Serif" font-size="10.00">newton_vol</text>
</a>
</g>
</g>
<!-- Node1&#45;&gt;Node2 -->
<g id="edge1" class="edge"><title>Node1&#45;&gt;Node2</title>
<path fill="none" stroke="midnightblue" d="M80.3943,-67C88.9048,-67 97.6997,-67 105.848,-67"/>
<polygon fill="midnightblue" stroke="midnightblue" points="80.2172,-63.5001 70.2172,-67 80.2172,-70.5001 80.2172,-63.5001"/>
</g>
<!-- Node3 -->
<g id="node3" class="node"><title>Node3</title>
<g id="a_node3"><a xlink:href="findpts__el__3_8c.html#aaaaad44889a0b6de44f02e50fee8d342" target="_top" xlink:title="findpt_vol">
<polygon fill="white" stroke="black" points="218.5,-114.5 218.5,-133.5 280.5,-133.5 280.5,-114.5 218.5,-114.5"/>
<text text-anchor="middle" x="249.5" y="-121.5" font-family="Helvetica,sans-Serif" font-size="10.00">findpt_vol</text>
</a>
</g>
</g>
<!-- Node2&#45;&gt;Node3 -->
<g id="edge2" class="edge"><title>Node2&#45;&gt;Node3</title>
<path fill="none" stroke="midnightblue" d="M169.175,-81.402C182.359,-88.5139 198.51,-97.2175 213,-105 218.666,-108.043 224.844,-111.353 230.435,-114.344"/>
<polygon fill="midnightblue" stroke="midnightblue" points="170.628,-78.2092 160.166,-76.5406 167.304,-84.3696 170.628,-78.2092"/>
</g>
<!-- Node5 -->
<g id="node5" class="node"><title>Node5</title>
<g id="a_node5"><a xlink:href="findpts__el__3_8c.html#ad2c233df5cb0edb3790d3c59eb9f19be" target="_top" xlink:title="findpt_face">
<polygon fill="white" stroke="black" points="215,-76.5 215,-95.5 284,-95.5 284,-76.5 215,-76.5"/>
<text text-anchor="middle" x="249.5" y="-83.5" font-family="Helvetica,sans-Serif" font-size="10.00">findpt_face</text>
</a>
</g>
</g>
<!-- Node2&#45;&gt;Node5 -->
<g id="edge4" class="edge"><title>Node2&#45;&gt;Node5</title>
<path fill="none" stroke="midnightblue" d="M187.081,-74.991C196.359,-76.6539 205.99,-78.3802 214.797,-79.9589"/>
<polygon fill="midnightblue" stroke="midnightblue" points="187.669,-71.5406 177.208,-73.2213 186.434,-78.4308 187.669,-71.5406"/>
</g>
<!-- Node6 -->
<g id="node6" class="node"><title>Node6</title>
<g id="a_node6"><a xlink:href="findpts__el__3_8c.html#af1a3eb77cfbd30da8225576a88a12cd0" target="_top" xlink:title="findpt_edge">
<polygon fill="white" stroke="black" points="213,-38.5 213,-57.5 286,-57.5 286,-38.5 213,-38.5"/>
<text text-anchor="middle" x="249.5" y="-45.5" font-family="Helvetica,sans-Serif" font-size="10.00">findpt_edge</text>
</a>
</g>
</g>
<!-- Node2&#45;&gt;Node6 -->
<g id="edge6" class="edge"><title>Node2&#45;&gt;Node6</title>
<path fill="none" stroke="midnightblue" d="M187.14,-58.9984C195.768,-57.452 204.699,-55.8512 212.987,-54.3655"/>
<polygon fill="midnightblue" stroke="midnightblue" points="186.434,-55.5692 177.208,-60.7787 187.669,-62.4594 186.434,-55.5692"/>
</g>
<!-- Node7 -->
<g id="node7" class="node"><title>Node7</title>
<g id="a_node7"><a xlink:href="findpts__el__3_8c.html#a45011f1c9ad5e46c578da17c3c306d0f" target="_top" xlink:title="findpt_pt">
<polygon fill="white" stroke="black" points="220.5,-0.5 220.5,-19.5 278.5,-19.5 278.5,-0.5 220.5,-0.5"/>
<text text-anchor="middle" x="249.5" y="-7.5" font-family="Helvetica,sans-Serif" font-size="10.00">findpt_pt</text>
</a>
</g>
</g>
<!-- Node2&#45;&gt;Node7 -->
<g id="edge8" class="edge"><title>Node2&#45;&gt;Node7</title>
<path fill="none" stroke="midnightblue" d="M169.175,-52.598C182.359,-45.4861 198.51,-36.7825 213,-29 218.666,-25.9569 224.844,-22.6472 230.435,-19.6555"/>
<polygon fill="midnightblue" stroke="midnightblue" points="167.304,-49.6304 160.166,-57.4594 170.628,-55.7908 167.304,-49.6304"/>
</g>
<!-- Node4 -->
<g id="node4" class="node"><title>Node4</title>
<g id="a_node4"><a xlink:href="findpts__el__3_8c.html#a3ed659b9d68af3919368cbdc12649730" target="_top" xlink:title="findpts_el_3">
<polygon fill="white" stroke="black" points="322,-57.5 322,-76.5 396,-76.5 396,-57.5 322,-57.5"/>
<text text-anchor="middle" x="359" y="-64.5" font-family="Helvetica,sans-Serif" font-size="10.00">findpts_el_3</text>
</a>
</g>
</g>
<!-- Node3&#45;&gt;Node4 -->
<g id="edge3" class="edge"><title>Node3&#45;&gt;Node4</title>
<path fill="none" stroke="midnightblue" d="M277.757,-109.547C297.285,-99.1931 323.034,-85.54 340.033,-76.5265"/>
<polygon fill="midnightblue" stroke="midnightblue" points="275.931,-106.554 268.736,-114.331 279.21,-112.738 275.931,-106.554"/>
</g>
<!-- Node5&#45;&gt;Node4 -->
<g id="edge5" class="edge"><title>Node5&#45;&gt;Node4</title>
<path fill="none" stroke="midnightblue" d="M294.304,-78.2578C303.439,-76.6434 312.971,-74.9587 321.794,-73.3992"/>
<polygon fill="midnightblue" stroke="midnightblue" points="293.457,-74.8533 284.219,-80.0404 294.675,-81.7464 293.457,-74.8533"/>
</g>
<!-- Node6&#45;&gt;Node4 -->
<g id="edge7" class="edge"><title>Node6&#45;&gt;Node4</title>
<path fill="none" stroke="midnightblue" d="M296.223,-56.0813C304.836,-57.6035 313.73,-59.1755 321.994,-60.6361"/>
<polygon fill="midnightblue" stroke="midnightblue" points="296.753,-52.6207 286.296,-54.3267 295.534,-59.5139 296.753,-52.6207"/>
</g>
<!-- Node7&#45;&gt;Node4 -->
<g id="edge9" class="edge"><title>Node7&#45;&gt;Node4</title>
<path fill="none" stroke="midnightblue" d="M277.757,-24.4525C297.285,-34.8069 323.034,-48.46 340.033,-57.4735"/>
<polygon fill="midnightblue" stroke="midnightblue" points="279.21,-21.2617 268.736,-19.6693 275.931,-27.4461 279.21,-21.2617"/>
</g>
</g>
</svg>
