<?xml version="1.0" encoding="UTF-8" standalone="no"?>
<!DOCTYPE svg PUBLIC "-//W3C//DTD SVG 1.1//EN"
 "http://www.w3.org/Graphics/SVG/1.1/DTD/svg11.dtd">
<!-- Generated by graphviz version 2.38.0 (20140413.2041)
 -->
<!-- Title: ffindpts_free Pages: 1 -->
<svg width="205pt" height="66pt"
 viewBox="0.00 0.00 205.00 66.00" xmlns="http://www.w3.org/2000/svg" xmlns:xlink="http://www.w3.org/1999/xlink">
<g id="graph0" class="graph" transform="scale(1 1) rotate(0) translate(4 62)">
<title>ffindpts_free</title>
<polygon fill="white" stroke="none" points="-4,4 -4,-62 201,-62 201,4 -4,4"/>
<!-- Node1 -->
<g id="node1" class="node"><title>Node1</title>
<polygon fill="#bfbfbf" stroke="black" points="0,-19.5 0,-38.5 76,-38.5 76,-19.5 0,-19.5"/>
<text text-anchor="middle" x="38" y="-26.5" font-family="Helvetica,sans-Serif" font-size="10.00">ffindpts_free</text>
</g>
<!-- Node2 -->
<g id="node2" class="node"><title>Node2</title>
<g id="a_node2"><a xlink:href="findpts_8h.html#a7f5ee5277561e250daab2dfcddea4575" target="_top" xlink:title="findpts_free_2">
<polygon fill="white" stroke="black" points="112,-38.5 112,-57.5 197,-57.5 197,-38.5 112,-38.5"/>
<text text-anchor="middle" x="154.5" y="-45.5" font-family="Helvetica,sans-Serif" font-size="10.00">findpts_free_2</text>
</a>
</g>
</g>
<!-- Node1&#45;&gt;Node2 -->
<g id="edge1" class="edge"><title>Node1&#45;&gt;Node2</title>
<path fill="none" stroke="midnightblue" d="M76.1749,-35.1688C84.3414,-36.5239 93.1319,-37.9826 101.754,-39.4134"/>
<polygon fill="midnightblue" stroke="midnightblue" points="101.314,-42.888 111.752,-41.0723 102.459,-35.9824 101.314,-42.888"/>
</g>
<!-- Node3 -->
<g id="node3" class="node"><title>Node3</title>
<g id="a_node3"><a xlink:href="findpts_8h.html#a537968ffbc6573238628ab57ffd97f4d" target="_top" xlink:title="findpts_free_3">
<polygon fill="white" stroke="black" points="112,-0.5 112,-19.5 197,-19.5 197,-0.5 112,-0.5"/>
<text text-anchor="middle" x="154.5" y="-7.5" font-family="Helvetica,sans-Serif" font-size="10.00">findpts_free_3</text>
</a>
</g>
</g>
<!-- Node1&#45;&gt;Node3 -->
<g id="edge2" class="edge"><title>Node1&#45;&gt;Node3</title>
<path fill="none" stroke="midnightblue" d="M76.1749,-22.8312C84.3414,-21.4761 93.1319,-20.0174 101.754,-18.5866"/>
<polygon fill="midnightblue" stroke="midnightblue" points="102.459,-22.0176 111.752,-16.9277 101.314,-15.112 102.459,-22.0176"/>
</g>
</g>
</svg>
