<?xml version="1.0" encoding="UTF-8" standalone="no"?>
<!DOCTYPE svg PUBLIC "-//W3C//DTD SVG 1.1//EN"
 "http://www.w3.org/Graphics/SVG/1.1/DTD/svg11.dtd">
<!-- Generated by graphviz version 2.38.0 (20140413.2041)
 -->
<!-- Title: solve Pages: 1 -->
<svg width="664pt" height="28pt"
 viewBox="0.00 0.00 664.00 28.00" xmlns="http://www.w3.org/2000/svg" xmlns:xlink="http://www.w3.org/1999/xlink">
<g id="graph0" class="graph" transform="scale(1 1) rotate(0) translate(4 24)">
<title>solve</title>
<polygon fill="white" stroke="none" points="-4,4 -4,-24 660,-24 660,4 -4,4"/>
<!-- Node1 -->
<g id="node1" class="node"><title>Node1</title>
<polygon fill="#bfbfbf" stroke="black" points="0,-0.5 0,-19.5 41,-19.5 41,-0.5 0,-0.5"/>
<text text-anchor="middle" x="20.5" y="-7.5" font-family="Helvetica,sans-Serif" font-size="10.00">solve</text>
</g>
<!-- Node2 -->
<g id="node2" class="node"><title>Node2</title>
<g id="a_node2"><a xlink:href="navier1_8F90.html#a9fd820e79a347554aa280e9956f8797b" target="_top" xlink:title="Compute backwards&#45;difference (BDF) coefficients, order NBD. ">
<polygon fill="white" stroke="black" points="77,-0.5 77,-19.5 119,-19.5 119,-0.5 77,-0.5"/>
<text text-anchor="middle" x="98" y="-7.5" font-family="Helvetica,sans-Serif" font-size="10.00">setbd</text>
</a>
</g>
</g>
<!-- Node1&#45;&gt;Node2 -->
<g id="edge1" class="edge"><title>Node1&#45;&gt;Node2</title>
<path fill="none" stroke="midnightblue" d="M51.3372,-10C59.8672,-10 68.9615,-10 76.7705,-10"/>
<polygon fill="midnightblue" stroke="midnightblue" points="51.3368,-6.5001 41.3367,-10 51.3367,-13.5001 51.3368,-6.5001"/>
</g>
<!-- Node3 -->
<g id="node3" class="node"><title>Node3</title>
<g id="a_node3"><a xlink:href="drive2_8F90.html#a6f905c80a0a2b0d5ed7f0449eda3e127" target="_top" xlink:title="setup time&#45;stepping ">
<polygon fill="white" stroke="black" points="155,-0.5 155,-19.5 205,-19.5 205,-0.5 155,-0.5"/>
<text text-anchor="middle" x="180" y="-7.5" font-family="Helvetica,sans-Serif" font-size="10.00">settime</text>
</a>
</g>
</g>
<!-- Node2&#45;&gt;Node3 -->
<g id="edge2" class="edge"><title>Node2&#45;&gt;Node3</title>
<path fill="none" stroke="midnightblue" d="M129.398,-10C137.81,-10 146.823,-10 154.828,-10"/>
<polygon fill="midnightblue" stroke="midnightblue" points="129.187,-6.5001 119.187,-10 129.187,-13.5001 129.187,-6.5001"/>
</g>
<!-- Node4 -->
<g id="node4" class="node"><title>Node4</title>
<g id="a_node4"><a xlink:href="drive1_8F90.html#ae177ea7efac97f35241521b782a671c0" target="_top" xlink:title="take a single time&#45;step ">
<polygon fill="white" stroke="black" points="241,-0.5 241,-19.5 321,-19.5 321,-0.5 241,-0.5"/>
<text text-anchor="middle" x="281" y="-7.5" font-family="Helvetica,sans-Serif" font-size="10.00">nek_advance</text>
</a>
</g>
</g>
<!-- Node3&#45;&gt;Node4 -->
<g id="edge3" class="edge"><title>Node3&#45;&gt;Node4</title>
<path fill="none" stroke="midnightblue" d="M215.299,-10C223.587,-10 232.504,-10 240.99,-10"/>
<polygon fill="midnightblue" stroke="midnightblue" points="215.218,-6.5001 205.218,-10 215.218,-13.5001 215.218,-6.5001"/>
</g>
<!-- Node5 -->
<g id="node5" class="node"><title>Node5</title>
<g id="a_node5"><a xlink:href="drive1_8F90.html#a18d3e839786263fc4cf91f7eeb714371" target="_top" xlink:title="take a chunk of time&#45;steps ">
<polygon fill="white" stroke="black" points="357,-0.5 357,-19.5 470,-19.5 470,-0.5 357,-0.5"/>
<text text-anchor="middle" x="413.5" y="-7.5" font-family="Helvetica,sans-Serif" font-size="10.00">nek__multi_advance</text>
</a>
</g>
</g>
<!-- Node4&#45;&gt;Node5 -->
<g id="edge4" class="edge"><title>Node4&#45;&gt;Node5</title>
<path fill="none" stroke="midnightblue" d="M331.191,-10C339.607,-10 348.403,-10 356.97,-10"/>
<polygon fill="midnightblue" stroke="midnightblue" points="331.154,-6.5001 321.154,-10 331.154,-13.5001 331.154,-6.5001"/>
</g>
<!-- Node6 -->
<g id="node6" class="node"><title>Node6</title>
<g id="a_node6"><a xlink:href="drive1_8F90.html#a6ad57e0cf728f343e371ef8c9a02cd8a" target="_top" xlink:title="integrate the governing equations in time ">
<polygon fill="white" stroke="black" points="506,-0.5 506,-19.5 571,-19.5 571,-0.5 506,-0.5"/>
<text text-anchor="middle" x="538.5" y="-7.5" font-family="Helvetica,sans-Serif" font-size="10.00">nek_solve</text>
</a>
</g>
</g>
<!-- Node5&#45;&gt;Node6 -->
<g id="edge5" class="edge"><title>Node5&#45;&gt;Node6</title>
<path fill="none" stroke="midnightblue" d="M480.282,-10C489.164,-10 497.927,-10 505.824,-10"/>
<polygon fill="midnightblue" stroke="midnightblue" points="480.242,-6.5001 470.242,-10 480.242,-13.5001 480.242,-6.5001"/>
</g>
<!-- Node7 -->
<g id="node7" class="node"><title>Node7</title>
<g id="a_node7"><a xlink:href="drive_8F90.html#a13048bf28dd0734640412d69349e3857" target="_top" xlink:title="NEK5000: Spectral Element Computational Fluid Dynamics Solver COPYRIGHT (c) 2008&#45;2010 UCHICAGO ARGONN...">
<polygon fill="white" stroke="black" points="607,-0.5 607,-19.5 656,-19.5 656,-0.5 607,-0.5"/>
<text text-anchor="middle" x="631.5" y="-7.5" font-family="Helvetica,sans-Serif" font-size="10.00">nekton</text>
</a>
</g>
</g>
<!-- Node6&#45;&gt;Node7 -->
<g id="edge6" class="edge"><title>Node6&#45;&gt;Node7</title>
<path fill="none" stroke="midnightblue" d="M581.192,-10C589.953,-10 598.905,-10 606.734,-10"/>
<polygon fill="midnightblue" stroke="midnightblue" points="581.072,-6.5001 571.072,-10 581.072,-13.5001 581.072,-6.5001"/>
</g>
</g>
</svg>
