<?xml version="1.0" encoding="UTF-8" standalone="no"?>
<!DOCTYPE svg PUBLIC "-//W3C//DTD SVG 1.1//EN"
 "http://www.w3.org/Graphics/SVG/1.1/DTD/svg11.dtd">
<!-- Generated by graphviz version 2.38.0 (20140413.2041)
 -->
<!-- Title: genxyz Pages: 1 -->
<!--zoomable 1025 -->
<svg id="main" version="1.1" xmlns="http://www.w3.org/2000/svg" xmlns:xlink="http://www.w3.org/1999/xlink" xml:space="preserve" onload="init(evt)">
<style type="text/css"><![CDATA[
.edge:hover path { stroke: red; }
.edge:hover polygon { stroke: red; fill: red; }
]]></style>
<script type="text/javascript"><![CDATA[
var edges = document.getElementsByTagName('g');
if (edges && edges.length) {
  for (var i=0;i<edges.length;i++) {
    if (edges[i].id.substr(0,4)=='edge') {
      edges[i].setAttribute('class','edge');
    }
  }
}
]]></script>
        <defs>
                <circle id="rim" cx="0" cy="0" r="7"/>
                <circle id="rim2" cx="0" cy="0" r="3.5"/>
                <g id="zoomPlus">
                        <use xlink:href="#rim" fill="#404040">
                                <set attributeName="fill" to="#808080" begin="zoomplus.mouseover" end="zoomplus.mouseout"/>
                        </use>
                        <path d="M-4,0h8M0,-4v8" fill="none" stroke="white" stroke-width="1.5" pointer-events="none"/>
                </g>
                <g id="zoomMin">
                        <use xlink:href="#rim" fill="#404040">
                                <set attributeName="fill" to="#808080" begin="zoomminus.mouseover" end="zoomminus.mouseout"/>
                        </use>
                        <path d="M-4,0h8" fill="none" stroke="white" stroke-width="1.5" pointer-events="none"/>
                </g>
                <g id="dirArrow">
                        <path fill="none" stroke="white" stroke-width="1.5" d="M0,-3.0v7 M-2.5,-0.5L0,-3.0L2.5,-0.5"/>
                </g>
               <g id="resetDef">
                       <use xlink:href="#rim2" fill="#404040">
                               <set attributeName="fill" to="#808080" begin="reset.mouseover" end="reset.mouseout"/>
                       </use>
               </g>
        </defs>

<script type="text/javascript">
var viewWidth = 789;
var viewHeight = 1025;
var sectionId = 'dynsection-2';
</script>
<script xlink:href="svgpan.js"/>
<svg id="graph" class="graph">
<g id="viewport">
<title>genxyz</title>
<polygon fill="white" stroke="none" points="-4,4 -4,-1021 785,-1021 785,4 -4,4"/>
<!-- Node1 -->
<g id="node1" class="node"><title>Node1</title>
<polygon fill="#bfbfbf" stroke="black" points="0,-916.5 0,-935.5 50,-935.5 50,-916.5 0,-916.5"/>
<text text-anchor="middle" x="25" y="-923.5" font-family="Helvetica,sans-Serif" font-size="10.00">genxyz</text>
</g>
<!-- Node2 -->
<g id="node2" class="node"><title>Node2</title>
<g id="a_node2"><a xlink:href="genxyz_8F90.html#a68c86aab3d5439b8cdc8368eed562f9c" target="_top" xlink:title="linquad">
<polygon fill="white" stroke="black" points="88,-916.5 88,-935.5 138,-935.5 138,-916.5 88,-916.5"/>
<text text-anchor="middle" x="113" y="-923.5" font-family="Helvetica,sans-Serif" font-size="10.00">linquad</text>
</a>
</g>
</g>
<!-- Node1&#45;&gt;Node2 -->
<g id="edge1" class="edge"><title>Node1&#45;&gt;Node2</title>
<path fill="none" stroke="midnightblue" d="M50.4141,-926C58.9291,-926 68.648,-926 77.8096,-926"/>
<polygon fill="midnightblue" stroke="midnightblue" points="77.8225,-929.5 87.8225,-926 77.8225,-922.5 77.8225,-929.5"/>
</g>
<!-- Node4 -->
<g id="node4" class="node"><title>Node4</title>
<g id="a_node4"><a xlink:href="genxyz_8F90.html#a87589b3d23bfc65828b0ba8f207b145a" target="_top" xlink:title="setzgml">
<polygon fill="white" stroke="black" points="271.5,-954.5 271.5,-973.5 324.5,-973.5 324.5,-954.5 271.5,-954.5"/>
<text text-anchor="middle" x="298" y="-961.5" font-family="Helvetica,sans-Serif" font-size="10.00">setzgml</text>
</a>
</g>
</g>
<!-- Node1&#45;&gt;Node4 -->
<g id="edge52" class="edge"><title>Node1&#45;&gt;Node4</title>
<path fill="none" stroke="midnightblue" d="M50.207,-934.984C61.0179,-938.652 74.002,-942.59 86,-945 146.834,-957.22 219.122,-961.586 261.348,-963.142"/>
<polygon fill="midnightblue" stroke="midnightblue" points="261.299,-966.642 271.411,-963.48 261.534,-959.646 261.299,-966.642"/>
</g>
<!-- Node50 -->
<g id="node50" class="node"><title>Node50</title>
<g id="a_node50"><a xlink:href="genxyz_8F90.html#ae1dbf064481984b1e4e5605c91570c72" target="_top" xlink:title="sethmat">
<polygon fill="white" stroke="black" points="86,-878.5 86,-897.5 140,-897.5 140,-878.5 86,-878.5"/>
<text text-anchor="middle" x="113" y="-885.5" font-family="Helvetica,sans-Serif" font-size="10.00">sethmat</text>
</a>
</g>
</g>
<!-- Node1&#45;&gt;Node50 -->
<g id="edge51" class="edge"><title>Node1&#45;&gt;Node50</title>
<path fill="none" stroke="midnightblue" d="M47.7014,-916.411C57.7847,-911.956 69.9584,-906.577 80.9883,-901.703"/>
<polygon fill="midnightblue" stroke="midnightblue" points="82.5732,-904.829 90.3055,-897.586 79.744,-898.426 82.5732,-904.829"/>
</g>
<!-- Node3 -->
<g id="node3" class="node"><title>Node3</title>
<g id="a_node3"><a xlink:href="genxyz_8F90.html#a16eca2a8f6bca6167dcfa98ff3eac09c" target="_top" xlink:title="Generate bi&#45; or trilinear mesh. ">
<polygon fill="white" stroke="black" points="176,-916.5 176,-935.5 219,-935.5 219,-916.5 176,-916.5"/>
<text text-anchor="middle" x="197.5" y="-923.5" font-family="Helvetica,sans-Serif" font-size="10.00">xyzlin</text>
</a>
</g>
</g>
<!-- Node2&#45;&gt;Node3 -->
<g id="edge2" class="edge"><title>Node2&#45;&gt;Node3</title>
<path fill="none" stroke="midnightblue" d="M138.307,-926C146.915,-926 156.716,-926 165.788,-926"/>
<polygon fill="midnightblue" stroke="midnightblue" points="165.988,-929.5 175.987,-926 165.987,-922.5 165.988,-929.5"/>
</g>
<!-- Node3&#45;&gt;Node4 -->
<g id="edge3" class="edge"><title>Node3&#45;&gt;Node4</title>
<path fill="none" stroke="midnightblue" d="M219.389,-934.059C231.961,-938.909 248.274,-945.202 262.697,-950.766"/>
<polygon fill="midnightblue" stroke="midnightblue" points="261.722,-954.141 272.311,-954.475 264.241,-947.611 261.722,-954.141"/>
</g>
<!-- Node20 -->
<g id="node20" class="node"><title>Node20</title>
<g id="a_node20"><a xlink:href="fast3d_8F90.html#ad007f6eca12b1b9307f46e56bcc40a59" target="_top" xlink:title="This routine evaluates the derivative based on all points in the stencils. It is more memory efficien...">
<polygon fill="white" stroke="black" points="255,-916.5 255,-935.5 341,-935.5 341,-916.5 255,-916.5"/>
<text text-anchor="middle" x="298" y="-923.5" font-family="Helvetica,sans-Serif" font-size="10.00">fd_weights_full</text>
</a>
</g>
</g>
<!-- Node3&#45;&gt;Node20 -->
<g id="edge19" class="edge"><title>Node3&#45;&gt;Node20</title>
<path fill="none" stroke="midnightblue" d="M219.389,-926C226.857,-926 235.644,-926 244.571,-926"/>
<polygon fill="midnightblue" stroke="midnightblue" points="244.647,-929.5 254.647,-926 244.647,-922.5 244.647,-929.5"/>
</g>
<!-- Node21 -->
<g id="node21" class="node"><title>Node21</title>
<g id="a_node21"><a xlink:href="navier1_8F90.html#a17c0ecae12cc5c6096939885da90ad2b" target="_top" xlink:title="transpose">
<polygon fill="white" stroke="black" points="266,-878.5 266,-897.5 330,-897.5 330,-878.5 266,-878.5"/>
<text text-anchor="middle" x="298" y="-885.5" font-family="Helvetica,sans-Serif" font-size="10.00">transpose</text>
</a>
</g>
</g>
<!-- Node3&#45;&gt;Node21 -->
<g id="edge20" class="edge"><title>Node3&#45;&gt;Node21</title>
<path fill="none" stroke="midnightblue" d="M219.389,-917.941C231.961,-913.091 248.274,-906.798 262.697,-901.234"/>
<polygon fill="midnightblue" stroke="midnightblue" points="264.241,-904.389 272.311,-897.525 261.722,-897.859 264.241,-904.389"/>
</g>
<!-- Node22 -->
<g id="node22" class="node"><title>Node22</title>
<g id="a_node22"><a xlink:href="fasts_8F90.html#a1dc2171702fabe2e09c87421de1f0e5d" target="_top" xlink:title="Tensor product application of v = (C x B x A) u . NOTE – the transpose of B &amp; C must be input...">
<polygon fill="white" stroke="black" points="274.5,-840.5 274.5,-859.5 321.5,-859.5 321.5,-840.5 274.5,-840.5"/>
<text text-anchor="middle" x="298" y="-847.5" font-family="Helvetica,sans-Serif" font-size="10.00">tensr3</text>
</a>
</g>
</g>
<!-- Node3&#45;&gt;Node22 -->
<g id="edge21" class="edge"><title>Node3&#45;&gt;Node22</title>
<path fill="none" stroke="midnightblue" d="M206.049,-916.46C216.144,-904.196 235.091,-882.835 255,-869 258.142,-866.816 261.576,-864.786 265.082,-862.927"/>
<polygon fill="midnightblue" stroke="midnightblue" points="266.91,-865.931 274.384,-858.421 263.859,-859.631 266.91,-865.931"/>
</g>
<!-- Node5 -->
<g id="node5" class="node"><title>Node5</title>
<g id="a_node5"><a xlink:href="math_8F90.html#a3b43508554f14bdea8e14473d7d0803c" target="_top" xlink:title="copy">
<polygon fill="white" stroke="black" points="377,-973.5 377,-992.5 416,-992.5 416,-973.5 377,-973.5"/>
<text text-anchor="middle" x="396.5" y="-980.5" font-family="Helvetica,sans-Serif" font-size="10.00">copy</text>
</a>
</g>
</g>
<!-- Node4&#45;&gt;Node5 -->
<g id="edge4" class="edge"><title>Node4&#45;&gt;Node5</title>
<path fill="none" stroke="midnightblue" d="M324.607,-969.042C337.56,-971.592 353.329,-974.697 366.703,-977.33"/>
<polygon fill="midnightblue" stroke="midnightblue" points="366.328,-980.823 376.816,-979.321 367.681,-973.955 366.328,-980.823"/>
</g>
<!-- Node6 -->
<g id="node6" class="node"><title>Node6</title>
<g id="a_node6"><a xlink:href="comm__mpi_8F90.html#a59fcf8a02fe54ab37f61050e3ca6b197" target="_top" xlink:title="exitti">
<polygon fill="white" stroke="black" points="377.5,-935.5 377.5,-954.5 415.5,-954.5 415.5,-935.5 377.5,-935.5"/>
<text text-anchor="middle" x="396.5" y="-942.5" font-family="Helvetica,sans-Serif" font-size="10.00">exitti</text>
</a>
</g>
</g>
<!-- Node4&#45;&gt;Node6 -->
<g id="edge5" class="edge"><title>Node4&#45;&gt;Node6</title>
<path fill="none" stroke="midnightblue" d="M324.607,-958.958C337.736,-956.373 353.759,-953.218 367.248,-950.563"/>
<polygon fill="midnightblue" stroke="midnightblue" points="368.284,-953.926 377.419,-948.56 366.931,-947.058 368.284,-953.926"/>
</g>
<!-- Node7 -->
<g id="node7" class="node"><title>Node7</title>
<g id="a_node7"><a xlink:href="math_8F90.html#a692155d1d2ec380a9fdb2d81ef221625" target="_top" xlink:title="blank a string ">
<polygon fill="white" stroke="black" points="471.5,-997.5 471.5,-1016.5 512.5,-1016.5 512.5,-997.5 471.5,-997.5"/>
<text text-anchor="middle" x="492" y="-1004.5" font-family="Helvetica,sans-Serif" font-size="10.00">blank</text>
</a>
</g>
</g>
<!-- Node6&#45;&gt;Node7 -->
<g id="edge6" class="edge"><title>Node6&#45;&gt;Node7</title>
<path fill="none" stroke="midnightblue" d="M408.255,-954.628C418.892,-963.868 435.873,-977.874 452,-988 455.185,-990 458.612,-991.943 462.064,-993.774"/>
<polygon fill="midnightblue" stroke="midnightblue" points="460.61,-996.96 471.116,-998.327 463.755,-990.707 460.61,-996.96"/>
</g>
<!-- Node8 -->
<g id="node8" class="node"><title>Node8</title>
<g id="a_node8"><a xlink:href="math_8F90.html#ad7fb480cea001849621405f37167aab1" target="_top" xlink:title="chcopy">
<polygon fill="white" stroke="black" points="467,-959.5 467,-978.5 517,-978.5 517,-959.5 467,-959.5"/>
<text text-anchor="middle" x="492" y="-966.5" font-family="Helvetica,sans-Serif" font-size="10.00">chcopy</text>
</a>
</g>
</g>
<!-- Node6&#45;&gt;Node8 -->
<g id="edge7" class="edge"><title>Node6&#45;&gt;Node8</title>
<path fill="none" stroke="midnightblue" d="M415.528,-949.627C427.228,-952.631 442.847,-956.64 456.84,-960.232"/>
<polygon fill="midnightblue" stroke="midnightblue" points="456.107,-963.657 466.663,-962.753 457.847,-956.877 456.107,-963.657"/>
</g>
<!-- Node9 -->
<g id="node9" class="node"><title>Node9</title>
<g id="a_node9"><a xlink:href="byte_8c.html#a2da8eeb074dfd3ffbfb3e9a4d301cda4" target="_top" xlink:title="exitt">
<polygon fill="white" stroke="black" points="474,-883.5 474,-902.5 510,-902.5 510,-883.5 474,-883.5"/>
<text text-anchor="middle" x="492" y="-890.5" font-family="Helvetica,sans-Serif" font-size="10.00">exitt</text>
</a>
</g>
</g>
<!-- Node6&#45;&gt;Node9 -->
<g id="edge8" class="edge"><title>Node6&#45;&gt;Node9</title>
<path fill="none" stroke="midnightblue" d="M412.553,-935.377C423.377,-928.584 438.402,-919.409 452,-912 456.053,-909.792 460.4,-907.552 464.669,-905.422"/>
<polygon fill="midnightblue" stroke="midnightblue" points="466.293,-908.524 473.743,-900.991 463.221,-902.234 466.293,-908.524"/>
</g>
<!-- Node19 -->
<g id="node19" class="node"><title>Node19</title>
<g id="a_node19"><a xlink:href="classstring.html#ac6aad97d698bcdbf5c11ffa52d947ad8" target="_top" xlink:title="string::indx1">
<polygon fill="white" stroke="black" points="455.5,-921.5 455.5,-940.5 528.5,-940.5 528.5,-921.5 455.5,-921.5"/>
<text text-anchor="middle" x="492" y="-928.5" font-family="Helvetica,sans-Serif" font-size="10.00">string::indx1</text>
</a>
</g>
</g>
<!-- Node6&#45;&gt;Node19 -->
<g id="edge18" class="edge"><title>Node6&#45;&gt;Node19</title>
<path fill="none" stroke="midnightblue" d="M415.528,-942.301C424.053,-941.024 434.659,-939.436 445.201,-937.858"/>
<polygon fill="midnightblue" stroke="midnightblue" points="445.847,-941.3 455.218,-936.358 444.81,-934.377 445.847,-941.3"/>
</g>
<!-- Node10 -->
<g id="node10" class="node"><title>Node10</title>
<g id="a_node10"><a xlink:href="classctimer.html#abcecbc845c8ee72e13a19eaa30b80d77" target="_top" xlink:title="ctimer::dnekclock">
<polygon fill="white" stroke="black" points="568,-978.5 568,-997.5 665,-997.5 665,-978.5 568,-978.5"/>
<text text-anchor="middle" x="616.5" y="-985.5" font-family="Helvetica,sans-Serif" font-size="10.00">ctimer::dnekclock</text>
</a>
</g>
</g>
<!-- Node9&#45;&gt;Node10 -->
<g id="edge9" class="edge"><title>Node9&#45;&gt;Node10</title>
<path fill="none" stroke="midnightblue" d="M510.173,-898.93C517.466,-902.032 525.716,-906.372 532,-912 554.319,-931.991 544.968,-949.835 568,-969 569.971,-970.64 572.102,-972.152 574.332,-973.544"/>
<polygon fill="midnightblue" stroke="midnightblue" points="572.821,-976.705 583.29,-978.333 576.121,-970.532 572.821,-976.705"/>
</g>
<!-- Node12 -->
<g id="node12" class="node"><title>Node12</title>
<g id="a_node12"><a xlink:href="subs1_8F90.html#a339739b88994e5bb12bd923147f94983" target="_top" xlink:title="flush_io">
<polygon fill="white" stroke="black" points="590,-940.5 590,-959.5 643,-959.5 643,-940.5 590,-940.5"/>
<text text-anchor="middle" x="616.5" y="-947.5" font-family="Helvetica,sans-Serif" font-size="10.00">flush_io</text>
</a>
</g>
</g>
<!-- Node9&#45;&gt;Node12 -->
<g id="edge11" class="edge"><title>Node9&#45;&gt;Node12</title>
<path fill="none" stroke="midnightblue" d="M510.145,-901.205C516.97,-904.51 524.88,-908.388 532,-912 548.134,-920.185 551.578,-923.408 568,-931 572.101,-932.896 576.449,-934.789 580.782,-936.605"/>
<polygon fill="midnightblue" stroke="midnightblue" points="579.565,-939.889 590.146,-940.43 582.211,-933.408 579.565,-939.889"/>
</g>
<!-- Node13 -->
<g id="node13" class="node"><title>Node13</title>
<g id="a_node13"><a xlink:href="singlmesh_8F90.html#aef78ff219741b83c1ca784b869e9cacf" target="_top" xlink:title="Dummy for singlmesh. ">
<polygon fill="white" stroke="black" points="576.5,-902.5 576.5,-921.5 656.5,-921.5 656.5,-902.5 576.5,-902.5"/>
<text text-anchor="middle" x="616.5" y="-909.5" font-family="Helvetica,sans-Serif" font-size="10.00">happy_check</text>
</a>
</g>
</g>
<!-- Node9&#45;&gt;Node13 -->
<g id="edge12" class="edge"><title>Node9&#45;&gt;Node13</title>
<path fill="none" stroke="midnightblue" d="M510.033,-895.642C524.655,-897.91 546.477,-901.294 566.483,-904.397"/>
<polygon fill="midnightblue" stroke="midnightblue" points="566.006,-907.865 576.425,-905.939 567.079,-900.948 566.006,-907.865"/>
</g>
<!-- Node14 -->
<g id="node14" class="node"><title>Node14</title>
<g id="a_node14"><a xlink:href="mpi__dummy_8F90.html#a55e9a1619aadb638b14211ce21d7d566" target="_top" xlink:title="mpi_finalize">
<polygon fill="white" stroke="black" points="580.5,-864.5 580.5,-883.5 652.5,-883.5 652.5,-864.5 580.5,-864.5"/>
<text text-anchor="middle" x="616.5" y="-871.5" font-family="Helvetica,sans-Serif" font-size="10.00">mpi_finalize</text>
</a>
</g>
</g>
<!-- Node9&#45;&gt;Node14 -->
<g id="edge13" class="edge"><title>Node9&#45;&gt;Node14</title>
<path fill="none" stroke="midnightblue" d="M510.033,-890.358C525.626,-887.94 549.406,-884.251 570.441,-880.989"/>
<polygon fill="midnightblue" stroke="midnightblue" points="571.154,-884.42 580.499,-879.429 570.081,-877.503 571.154,-884.42"/>
</g>
<!-- Node15 -->
<g id="node15" class="node"><title>Node15</title>
<g id="a_node15"><a xlink:href="papi_8F90.html#a3a75ccdfbe05912fda48c3b134d114c0" target="_top" xlink:title="nek_flops">
<polygon fill="white" stroke="black" points="585.5,-826.5 585.5,-845.5 647.5,-845.5 647.5,-826.5 585.5,-826.5"/>
<text text-anchor="middle" x="616.5" y="-833.5" font-family="Helvetica,sans-Serif" font-size="10.00">nek_flops</text>
</a>
</g>
</g>
<!-- Node9&#45;&gt;Node15 -->
<g id="edge14" class="edge"><title>Node9&#45;&gt;Node15</title>
<path fill="none" stroke="midnightblue" d="M510.145,-884.795C516.97,-881.49 524.88,-877.612 532,-874 548.134,-865.815 551.578,-862.592 568,-855 572.101,-853.104 576.449,-851.211 580.782,-849.395"/>
<polygon fill="midnightblue" stroke="midnightblue" points="582.211,-852.592 590.146,-845.57 579.565,-846.111 582.211,-852.592"/>
</g>
<!-- Node17 -->
<g id="node17" class="node"><title>Node17</title>
<g id="a_node17"><a xlink:href="comm__mpi_8F90.html#a4acb4d8e379294232e9219bec063d8f3" target="_top" xlink:title="nekgsync">
<polygon fill="white" stroke="black" points="585.5,-788.5 585.5,-807.5 647.5,-807.5 647.5,-788.5 585.5,-788.5"/>
<text text-anchor="middle" x="616.5" y="-795.5" font-family="Helvetica,sans-Serif" font-size="10.00">nekgsync</text>
</a>
</g>
</g>
<!-- Node9&#45;&gt;Node17 -->
<g id="edge16" class="edge"><title>Node9&#45;&gt;Node17</title>
<path fill="none" stroke="midnightblue" d="M510.173,-887.07C517.466,-883.968 525.716,-879.628 532,-874 554.319,-854.009 544.968,-836.165 568,-817 570.526,-814.898 573.314,-813.007 576.236,-811.309"/>
<polygon fill="midnightblue" stroke="midnightblue" points="577.901,-814.39 585.273,-806.781 574.765,-808.132 577.901,-814.39"/>
</g>
<!-- Node11 -->
<g id="node11" class="node"><title>Node11</title>
<g id="a_node11"><a xlink:href="mpi__dummy_8F90.html#ae6a5ef945f87c2c27849696b70f3af2a" target="_top" xlink:title="mpi_wtime">
<polygon fill="white" stroke="black" points="708,-978.5 708,-997.5 774,-997.5 774,-978.5 708,-978.5"/>
<text text-anchor="middle" x="741" y="-985.5" font-family="Helvetica,sans-Serif" font-size="10.00">mpi_wtime</text>
</a>
</g>
</g>
<!-- Node10&#45;&gt;Node11 -->
<g id="edge10" class="edge"><title>Node10&#45;&gt;Node11</title>
<path fill="none" stroke="midnightblue" d="M665.212,-988C675.894,-988 687.154,-988 697.603,-988"/>
<polygon fill="midnightblue" stroke="midnightblue" points="697.73,-991.5 707.729,-988 697.729,-984.5 697.73,-991.5"/>
</g>
<!-- Node16 -->
<g id="node16" class="node"><title>Node16</title>
<g id="a_node16"><a xlink:href="papi_8F90.html#a838be3d39e287e29002d5a68c6ad2dd8" target="_top" xlink:title="getflops_papi">
<polygon fill="white" stroke="black" points="701,-826.5 701,-845.5 781,-845.5 781,-826.5 701,-826.5"/>
<text text-anchor="middle" x="741" y="-833.5" font-family="Helvetica,sans-Serif" font-size="10.00">getflops_papi</text>
</a>
</g>
</g>
<!-- Node15&#45;&gt;Node16 -->
<g id="edge15" class="edge"><title>Node15&#45;&gt;Node16</title>
<path fill="none" stroke="midnightblue" d="M647.781,-836C660.666,-836 676.032,-836 690.491,-836"/>
<polygon fill="midnightblue" stroke="midnightblue" points="690.811,-839.5 700.811,-836 690.811,-832.5 690.811,-839.5"/>
</g>
<!-- Node18 -->
<g id="node18" class="node"><title>Node18</title>
<g id="a_node18"><a xlink:href="mpi__dummy_8F90.html#a070afe564196eb48413dbf1a9fbc99aa" target="_top" xlink:title="mpi_barrier">
<polygon fill="white" stroke="black" points="706,-788.5 706,-807.5 776,-807.5 776,-788.5 706,-788.5"/>
<text text-anchor="middle" x="741" y="-795.5" font-family="Helvetica,sans-Serif" font-size="10.00">mpi_barrier</text>
</a>
</g>
</g>
<!-- Node17&#45;&gt;Node18 -->
<g id="edge17" class="edge"><title>Node17&#45;&gt;Node18</title>
<path fill="none" stroke="midnightblue" d="M647.781,-798C662.195,-798 679.714,-798 695.594,-798"/>
<polygon fill="midnightblue" stroke="midnightblue" points="695.745,-801.5 705.745,-798 695.745,-794.5 695.745,-801.5"/>
</g>
<!-- Node22&#45;&gt;Node9 -->
<g id="edge22" class="edge"><title>Node22&#45;&gt;Node9</title>
<path fill="none" stroke="midnightblue" d="M321.779,-855.102C357.371,-863.073 426.024,-878.448 464.033,-886.96"/>
<polygon fill="midnightblue" stroke="midnightblue" points="463.364,-890.397 473.887,-889.167 464.894,-883.567 463.364,-890.397"/>
</g>
<!-- Node23 -->
<g id="node23" class="node"><title>Node23</title>
<g id="a_node23"><a xlink:href="mxm__wrapper_8F90.html#ab9ec2260a10061af6ce1c52f3c8a41da" target="_top" xlink:title="Compute matrix&#45;matrix product C = A*B. ">
<polygon fill="white" stroke="black" points="377.5,-731.5 377.5,-750.5 415.5,-750.5 415.5,-731.5 377.5,-731.5"/>
<text text-anchor="middle" x="396.5" y="-738.5" font-family="Helvetica,sans-Serif" font-size="10.00">mxm</text>
</a>
</g>
</g>
<!-- Node22&#45;&gt;Node23 -->
<g id="edge23" class="edge"><title>Node22&#45;&gt;Node23</title>
<path fill="none" stroke="midnightblue" d="M307.564,-840.327C323.832,-821.951 359.414,-781.76 379.982,-758.528"/>
<polygon fill="midnightblue" stroke="midnightblue" points="382.809,-760.615 386.817,-750.808 377.567,-755.975 382.809,-760.615"/>
</g>
<!-- Node24 -->
<g id="node24" class="node"><title>Node24</title>
<g id="a_node24"><a xlink:href="mxm__bgq_8F90.html#a8faaef428336095704ece51624bbfe92" target="_top" xlink:title="mxm_bgq_8">
<polygon fill="white" stroke="black" points="455,-845.5 455,-864.5 529,-864.5 529,-845.5 455,-845.5"/>
<text text-anchor="middle" x="492" y="-852.5" font-family="Helvetica,sans-Serif" font-size="10.00">mxm_bgq_8</text>
</a>
</g>
</g>
<!-- Node23&#45;&gt;Node24 -->
<g id="edge24" class="edge"><title>Node23&#45;&gt;Node24</title>
<path fill="none" stroke="midnightblue" d="M400.8,-750.585C407.648,-769.243 425.051,-810.811 452,-836 453.486,-837.389 455.092,-838.696 456.776,-839.923"/>
<polygon fill="midnightblue" stroke="midnightblue" points="455.311,-843.131 465.659,-845.402 458.986,-837.173 455.311,-843.131"/>
</g>
<!-- Node25 -->
<g id="node25" class="node"><title>Node25</title>
<g id="a_node25"><a xlink:href="mxm__bgq_8F90.html#a27529ace9834454b8906f29e02718629" target="_top" xlink:title="mxm_bgq_12">
<polygon fill="white" stroke="black" points="452,-807.5 452,-826.5 532,-826.5 532,-807.5 452,-807.5"/>
<text text-anchor="middle" x="492" y="-814.5" font-family="Helvetica,sans-Serif" font-size="10.00">mxm_bgq_12</text>
</a>
</g>
</g>
<!-- Node23&#45;&gt;Node25 -->
<g id="edge25" class="edge"><title>Node23&#45;&gt;Node25</title>
<path fill="none" stroke="midnightblue" d="M405.109,-750.899C414.916,-763.157 432.98,-784.115 452,-798 454.205,-799.61 456.568,-801.145 458.999,-802.593"/>
<polygon fill="midnightblue" stroke="midnightblue" points="457.487,-805.755 467.946,-807.444 460.823,-799.601 457.487,-805.755"/>
</g>
<!-- Node26 -->
<g id="node26" class="node"><title>Node26</title>
<g id="a_node26"><a xlink:href="mxm__bgq_8F90.html#a3fda9ea4bc7a5713a19d6939fa2b541f" target="_top" xlink:title="mxm_bgq_16">
<polygon fill="white" stroke="black" points="452,-769.5 452,-788.5 532,-788.5 532,-769.5 452,-769.5"/>
<text text-anchor="middle" x="492" y="-776.5" font-family="Helvetica,sans-Serif" font-size="10.00">mxm_bgq_16</text>
</a>
</g>
</g>
<!-- Node23&#45;&gt;Node26 -->
<g id="edge26" class="edge"><title>Node23&#45;&gt;Node26</title>
<path fill="none" stroke="midnightblue" d="M415.528,-748.327C427.514,-753.198 443.613,-759.741 457.864,-765.533"/>
<polygon fill="midnightblue" stroke="midnightblue" points="456.779,-768.87 467.361,-769.393 459.414,-762.385 456.779,-768.87"/>
</g>
<!-- Node27 -->
<g id="node27" class="node"><title>Node27</title>
<g id="a_node27"><a xlink:href="mxm__bgq_8F90.html#a8a70163b4dbfdbfcce7bff170597fcad" target="_top" xlink:title="mxm_bgq_10">
<polygon fill="white" stroke="black" points="452,-731.5 452,-750.5 532,-750.5 532,-731.5 452,-731.5"/>
<text text-anchor="middle" x="492" y="-738.5" font-family="Helvetica,sans-Serif" font-size="10.00">mxm_bgq_10</text>
</a>
</g>
</g>
<!-- Node23&#45;&gt;Node27 -->
<g id="edge27" class="edge"><title>Node23&#45;&gt;Node27</title>
<path fill="none" stroke="midnightblue" d="M415.528,-741C423.088,-741 432.285,-741 441.621,-741"/>
<polygon fill="midnightblue" stroke="midnightblue" points="441.737,-744.5 451.737,-741 441.737,-737.5 441.737,-744.5"/>
</g>
<!-- Node28 -->
<g id="node28" class="node"><title>Node28</title>
<g id="a_node28"><a xlink:href="mxm__bgq_8F90.html#af192c3c8b982aa5bbc2a757156718a91" target="_top" xlink:title="mxm_bgq_6">
<polygon fill="white" stroke="black" points="455,-693.5 455,-712.5 529,-712.5 529,-693.5 455,-693.5"/>
<text text-anchor="middle" x="492" y="-700.5" font-family="Helvetica,sans-Serif" font-size="10.00">mxm_bgq_6</text>
</a>
</g>
</g>
<!-- Node23&#45;&gt;Node28 -->
<g id="edge28" class="edge"><title>Node23&#45;&gt;Node28</title>
<path fill="none" stroke="midnightblue" d="M415.528,-733.673C427.514,-728.802 443.613,-722.259 457.864,-716.467"/>
<polygon fill="midnightblue" stroke="midnightblue" points="459.414,-719.615 467.361,-712.607 456.779,-713.13 459.414,-719.615"/>
</g>
<!-- Node29 -->
<g id="node29" class="node"><title>Node29</title>
<g id="a_node29"><a xlink:href="mxm__std_8F90.html#af07f4b22fdc3488ca321736743f14b01" target="_top" xlink:title="mxm44_2">
<polygon fill="white" stroke="black" points="461,-655.5 461,-674.5 523,-674.5 523,-655.5 461,-655.5"/>
<text text-anchor="middle" x="492" y="-662.5" font-family="Helvetica,sans-Serif" font-size="10.00">mxm44_2</text>
</a>
</g>
</g>
<!-- Node23&#45;&gt;Node29 -->
<g id="edge29" class="edge"><title>Node23&#45;&gt;Node29</title>
<path fill="none" stroke="midnightblue" d="M405.109,-731.101C414.916,-718.843 432.98,-697.885 452,-684 454.205,-682.39 456.568,-680.855 458.999,-679.407"/>
<polygon fill="midnightblue" stroke="midnightblue" points="460.823,-682.399 467.946,-674.556 457.487,-676.245 460.823,-682.399"/>
</g>
<!-- Node30 -->
<g id="node30" class="node"><title>Node30</title>
<g id="a_node30"><a xlink:href="mxm__std_8F90.html#ac63fe7516a18dc57dfe913ad2c1453be" target="_top" xlink:title="mxm44_0">
<polygon fill="white" stroke="black" points="585.5,-684.5 585.5,-703.5 647.5,-703.5 647.5,-684.5 585.5,-684.5"/>
<text text-anchor="middle" x="616.5" y="-691.5" font-family="Helvetica,sans-Serif" font-size="10.00">mxm44_0</text>
</a>
</g>
</g>
<!-- Node23&#45;&gt;Node30 -->
<g id="edge30" class="edge"><title>Node23&#45;&gt;Node30</title>
<path fill="none" stroke="midnightblue" d="M399.608,-731.486C404.636,-711.38 419.421,-664.869 452,-646 482.768,-628.18 498.469,-634.174 532,-646 551.376,-652.833 550.266,-664.626 568,-675 571.258,-676.906 574.744,-678.703 578.291,-680.374"/>
<polygon fill="midnightblue" stroke="midnightblue" points="577.149,-683.695 587.713,-684.494 579.953,-677.281 577.149,-683.695"/>
</g>
<!-- Node31 -->
<g id="node31" class="node"><title>Node31</title>
<g id="a_node31"><a xlink:href="mxm__std_8F90.html#aa9e8685c4a72f18fb5d1ee88ed17a3d6" target="_top" xlink:title="unrolled loop version ">
<polygon fill="white" stroke="red" points="468.5,-361.5 468.5,-380.5 515.5,-380.5 515.5,-361.5 468.5,-361.5"/>
<text text-anchor="middle" x="492" y="-368.5" font-family="Helvetica,sans-Serif" font-size="10.00">mxmf2</text>
</a>
</g>
</g>
<!-- Node23&#45;&gt;Node31 -->
<g id="edge31" class="edge"><title>Node23&#45;&gt;Node31</title>
<path fill="none" stroke="midnightblue" d="M399.905,-731.482C412.279,-682.516 468.851,-458.649 486.035,-390.647"/>
<polygon fill="midnightblue" stroke="midnightblue" points="489.468,-391.349 488.524,-380.796 482.681,-389.634 489.468,-391.349"/>
</g>
<!-- Node31&#45;&gt;Node30 -->
<g id="edge50" class="edge"><title>Node31&#45;&gt;Node30</title>
<path fill="none" stroke="midnightblue" d="M494.187,-380.637C500.097,-427.214 527.677,-628.661 568,-675 570.345,-677.695 573.125,-680.012 576.147,-682.003"/>
<polygon fill="midnightblue" stroke="midnightblue" points="574.667,-685.18 585.138,-686.797 577.96,-679.004 574.667,-685.18"/>
</g>
<!-- Node32 -->
<g id="node32" class="node"><title>Node32</title>
<g id="a_node32"><a xlink:href="mxm__std_8F90.html#af4bd28930a9d674bbcad09ad75fa81ef" target="_top" xlink:title="mxf8">
<polygon fill="white" stroke="black" points="597,-646.5 597,-665.5 636,-665.5 636,-646.5 597,-646.5"/>
<text text-anchor="middle" x="616.5" y="-653.5" font-family="Helvetica,sans-Serif" font-size="10.00">mxf8</text>
</a>
</g>
</g>
<!-- Node31&#45;&gt;Node32 -->
<g id="edge32" class="edge"><title>Node31&#45;&gt;Node32</title>
<path fill="none" stroke="midnightblue" d="M492.844,-380.645C492.756,-418.48 497.406,-558.521 568,-637 573.145,-642.72 580.247,-646.745 587.393,-649.566"/>
<polygon fill="midnightblue" stroke="midnightblue" points="586.391,-652.921 596.983,-652.714 588.574,-646.27 586.391,-652.921"/>
</g>
<!-- Node33 -->
<g id="node33" class="node"><title>Node33</title>
<g id="a_node33"><a xlink:href="mxm__std_8F90.html#a7d3ac03517b3934b98857b22f7f78788" target="_top" xlink:title="mxf1">
<polygon fill="white" stroke="black" points="597,-608.5 597,-627.5 636,-627.5 636,-608.5 597,-608.5"/>
<text text-anchor="middle" x="616.5" y="-615.5" font-family="Helvetica,sans-Serif" font-size="10.00">mxf1</text>
</a>
</g>
</g>
<!-- Node31&#45;&gt;Node33 -->
<g id="edge33" class="edge"><title>Node31&#45;&gt;Node33</title>
<path fill="none" stroke="midnightblue" d="M493.382,-380.673C495.25,-415.095 506.097,-533.088 568,-599 573.066,-604.394 579.865,-608.289 586.733,-611.09"/>
<polygon fill="midnightblue" stroke="midnightblue" points="586.056,-614.557 596.651,-614.458 588.307,-607.928 586.056,-614.557"/>
</g>
<!-- Node34 -->
<g id="node34" class="node"><title>Node34</title>
<g id="a_node34"><a xlink:href="mxm__std_8F90.html#acd223c583f3a9242fda7a1b8897b624d" target="_top" xlink:title="mxf2">
<polygon fill="white" stroke="black" points="597,-570.5 597,-589.5 636,-589.5 636,-570.5 597,-570.5"/>
<text text-anchor="middle" x="616.5" y="-577.5" font-family="Helvetica,sans-Serif" font-size="10.00">mxf2</text>
</a>
</g>
</g>
<!-- Node31&#45;&gt;Node34 -->
<g id="edge34" class="edge"><title>Node31&#45;&gt;Node34</title>
<path fill="none" stroke="midnightblue" d="M494.127,-380.75C498.177,-411.484 514.709,-507.467 568,-561 573.22,-566.244 580.074,-570.087 586.944,-572.886"/>
<polygon fill="midnightblue" stroke="midnightblue" points="586.24,-576.345 596.834,-576.28 588.512,-569.724 586.24,-576.345"/>
</g>
<!-- Node35 -->
<g id="node35" class="node"><title>Node35</title>
<g id="a_node35"><a xlink:href="mxm__std_8F90.html#abff718a387aa354f77d0e8b0ffa98867" target="_top" xlink:title="mxf3">
<polygon fill="white" stroke="black" points="597,-532.5 597,-551.5 636,-551.5 636,-532.5 597,-532.5"/>
<text text-anchor="middle" x="616.5" y="-539.5" font-family="Helvetica,sans-Serif" font-size="10.00">mxf3</text>
</a>
</g>
</g>
<!-- Node31&#45;&gt;Node35 -->
<g id="edge35" class="edge"><title>Node31&#45;&gt;Node35</title>
<path fill="none" stroke="midnightblue" d="M495.183,-380.644C501.639,-407.07 523.068,-481.437 568,-523 573.344,-527.944 580.136,-531.669 586.9,-534.45"/>
<polygon fill="midnightblue" stroke="midnightblue" points="586.025,-537.853 596.62,-537.881 588.354,-531.252 586.025,-537.853"/>
</g>
<!-- Node36 -->
<g id="node36" class="node"><title>Node36</title>
<g id="a_node36"><a xlink:href="mxm__std_8F90.html#a2f4e4e1b4daebbd4d0580029d0f54016" target="_top" xlink:title="mxf4">
<polygon fill="white" stroke="black" points="597,-494.5 597,-513.5 636,-513.5 636,-494.5 597,-494.5"/>
<text text-anchor="middle" x="616.5" y="-501.5" font-family="Helvetica,sans-Serif" font-size="10.00">mxf4</text>
</a>
</g>
</g>
<!-- Node31&#45;&gt;Node36 -->
<g id="edge36" class="edge"><title>Node31&#45;&gt;Node36</title>
<path fill="none" stroke="midnightblue" d="M496.928,-380.677C506.166,-402.31 531.298,-455.034 568,-485 573.639,-489.604 580.537,-493.208 587.309,-495.98"/>
<polygon fill="midnightblue" stroke="midnightblue" points="586.386,-499.367 596.98,-499.465 588.759,-492.782 586.386,-499.367"/>
</g>
<!-- Node37 -->
<g id="node37" class="node"><title>Node37</title>
<g id="a_node37"><a xlink:href="mxm__std_8F90.html#a5a6d5c31350c601ba8327b75a72cba0a" target="_top" xlink:title="mxf5">
<polygon fill="white" stroke="black" points="597,-456.5 597,-475.5 636,-475.5 636,-456.5 597,-456.5"/>
<text text-anchor="middle" x="616.5" y="-463.5" font-family="Helvetica,sans-Serif" font-size="10.00">mxf5</text>
</a>
</g>
</g>
<!-- Node31&#45;&gt;Node37 -->
<g id="edge37" class="edge"><title>Node31&#45;&gt;Node37</title>
<path fill="none" stroke="midnightblue" d="M500.314,-380.661C512.701,-396.448 539.278,-427.924 568,-447 573.729,-450.805 580.339,-454.047 586.772,-456.718"/>
<polygon fill="midnightblue" stroke="midnightblue" points="585.992,-460.165 596.583,-460.444 588.477,-453.621 585.992,-460.165"/>
</g>
<!-- Node38 -->
<g id="node38" class="node"><title>Node38</title>
<g id="a_node38"><a xlink:href="mxm__std_8F90.html#a38a142edde1e72a918d280747a319f7a" target="_top" xlink:title="mxf6">
<polygon fill="white" stroke="black" points="597,-418.5 597,-437.5 636,-437.5 636,-418.5 597,-418.5"/>
<text text-anchor="middle" x="616.5" y="-425.5" font-family="Helvetica,sans-Serif" font-size="10.00">mxf6</text>
</a>
</g>
</g>
<!-- Node31&#45;&gt;Node38 -->
<g id="edge38" class="edge"><title>Node31&#45;&gt;Node38</title>
<path fill="none" stroke="midnightblue" d="M510.666,-380.509C525.73,-388.482 548.05,-399.977 568,-409 574.161,-411.786 580.857,-414.595 587.227,-417.168"/>
<polygon fill="midnightblue" stroke="midnightblue" points="586.256,-420.548 596.843,-420.977 588.835,-414.04 586.256,-420.548"/>
</g>
<!-- Node39 -->
<g id="node39" class="node"><title>Node39</title>
<g id="a_node39"><a xlink:href="mxm__std_8F90.html#a1919ea16c0a7b4e248e45e983c29d965" target="_top" xlink:title="mxf7">
<polygon fill="white" stroke="black" points="597,-380.5 597,-399.5 636,-399.5 636,-380.5 597,-380.5"/>
<text text-anchor="middle" x="616.5" y="-387.5" font-family="Helvetica,sans-Serif" font-size="10.00">mxf7</text>
</a>
</g>
</g>
<!-- Node31&#45;&gt;Node39 -->
<g id="edge39" class="edge"><title>Node31&#45;&gt;Node39</title>
<path fill="none" stroke="midnightblue" d="M515.754,-374.529C535.852,-377.646 565.25,-382.206 586.926,-385.568"/>
<polygon fill="midnightblue" stroke="midnightblue" points="586.455,-389.037 596.873,-387.111 587.528,-382.119 586.455,-389.037"/>
</g>
<!-- Node40 -->
<g id="node40" class="node"><title>Node40</title>
<g id="a_node40"><a xlink:href="mxm__std_8F90.html#afb2e2cde9040ab037e3586b0deef3851" target="_top" xlink:title="mxf12">
<polygon fill="white" stroke="black" points="594,-342.5 594,-361.5 639,-361.5 639,-342.5 594,-342.5"/>
<text text-anchor="middle" x="616.5" y="-349.5" font-family="Helvetica,sans-Serif" font-size="10.00">mxf12</text>
</a>
</g>
</g>
<!-- Node31&#45;&gt;Node40 -->
<g id="edge40" class="edge"><title>Node31&#45;&gt;Node40</title>
<path fill="none" stroke="midnightblue" d="M515.754,-367.471C534.901,-364.501 562.487,-360.222 583.798,-356.917"/>
<polygon fill="midnightblue" stroke="midnightblue" points="584.346,-360.374 593.691,-355.383 583.273,-353.457 584.346,-360.374"/>
</g>
<!-- Node41 -->
<g id="node41" class="node"><title>Node41</title>
<g id="a_node41"><a xlink:href="mxm__std_8F90.html#a8ab38e8d33e92444b748159b82759c27" target="_top" xlink:title="mxf9">
<polygon fill="white" stroke="black" points="597,-304.5 597,-323.5 636,-323.5 636,-304.5 597,-304.5"/>
<text text-anchor="middle" x="616.5" y="-311.5" font-family="Helvetica,sans-Serif" font-size="10.00">mxf9</text>
</a>
</g>
</g>
<!-- Node31&#45;&gt;Node41 -->
<g id="edge41" class="edge"><title>Node31&#45;&gt;Node41</title>
<path fill="none" stroke="midnightblue" d="M510.666,-361.491C525.73,-353.518 548.05,-342.023 568,-333 574.161,-330.214 580.857,-327.405 587.227,-324.832"/>
<polygon fill="midnightblue" stroke="midnightblue" points="588.835,-327.96 596.843,-321.023 586.256,-321.452 588.835,-327.96"/>
</g>
<!-- Node42 -->
<g id="node42" class="node"><title>Node42</title>
<g id="a_node42"><a xlink:href="mxm__std_8F90.html#a5786b175fcbe28ecafe1d878687c3ccf" target="_top" xlink:title="mxf10">
<polygon fill="white" stroke="black" points="594,-266.5 594,-285.5 639,-285.5 639,-266.5 594,-266.5"/>
<text text-anchor="middle" x="616.5" y="-273.5" font-family="Helvetica,sans-Serif" font-size="10.00">mxf10</text>
</a>
</g>
</g>
<!-- Node31&#45;&gt;Node42 -->
<g id="edge42" class="edge"><title>Node31&#45;&gt;Node42</title>
<path fill="none" stroke="midnightblue" d="M500.314,-361.339C512.701,-345.552 539.278,-314.076 568,-295 573.024,-291.663 578.725,-288.76 584.39,-286.294"/>
<polygon fill="midnightblue" stroke="midnightblue" points="585.77,-289.512 593.765,-282.56 583.18,-283.009 585.77,-289.512"/>
</g>
<!-- Node43 -->
<g id="node43" class="node"><title>Node43</title>
<g id="a_node43"><a xlink:href="mxm__std_8F90.html#a244c7a41b5b7a22acba71c34552c2774" target="_top" xlink:title="mxf11">
<polygon fill="white" stroke="black" points="594,-228.5 594,-247.5 639,-247.5 639,-228.5 594,-228.5"/>
<text text-anchor="middle" x="616.5" y="-235.5" font-family="Helvetica,sans-Serif" font-size="10.00">mxf11</text>
</a>
</g>
</g>
<!-- Node31&#45;&gt;Node43 -->
<g id="edge43" class="edge"><title>Node31&#45;&gt;Node43</title>
<path fill="none" stroke="midnightblue" d="M496.928,-361.323C506.166,-339.69 531.298,-286.966 568,-257 572.76,-253.114 578.417,-249.94 584.138,-247.378"/>
<polygon fill="midnightblue" stroke="midnightblue" points="585.654,-250.543 593.679,-243.626 583.092,-244.028 585.654,-250.543"/>
</g>
<!-- Node44 -->
<g id="node44" class="node"><title>Node44</title>
<g id="a_node44"><a xlink:href="mxm__std_8F90.html#a6a048a62b47a5c2327279e158c1689df" target="_top" xlink:title="mxf13">
<polygon fill="white" stroke="black" points="594,-190.5 594,-209.5 639,-209.5 639,-190.5 594,-190.5"/>
<text text-anchor="middle" x="616.5" y="-197.5" font-family="Helvetica,sans-Serif" font-size="10.00">mxf13</text>
</a>
</g>
</g>
<!-- Node31&#45;&gt;Node44 -->
<g id="edge44" class="edge"><title>Node31&#45;&gt;Node44</title>
<path fill="none" stroke="midnightblue" d="M495.183,-361.356C501.639,-334.93 523.068,-260.563 568,-219 572.595,-214.75 578.259,-211.4 584.056,-208.777"/>
<polygon fill="midnightblue" stroke="midnightblue" points="585.708,-211.89 593.772,-205.017 583.182,-205.362 585.708,-211.89"/>
</g>
<!-- Node45 -->
<g id="node45" class="node"><title>Node45</title>
<g id="a_node45"><a xlink:href="mxm__std_8F90.html#a6e57628b882cb8bcac215e9a5b523eed" target="_top" xlink:title="mxf14">
<polygon fill="white" stroke="black" points="594,-152.5 594,-171.5 639,-171.5 639,-152.5 594,-152.5"/>
<text text-anchor="middle" x="616.5" y="-159.5" font-family="Helvetica,sans-Serif" font-size="10.00">mxf14</text>
</a>
</g>
</g>
<!-- Node31&#45;&gt;Node45 -->
<g id="edge45" class="edge"><title>Node31&#45;&gt;Node45</title>
<path fill="none" stroke="midnightblue" d="M494.127,-361.25C498.177,-330.516 514.709,-234.533 568,-181 572.606,-176.373 578.482,-172.837 584.52,-170.147"/>
<polygon fill="midnightblue" stroke="midnightblue" points="585.859,-173.383 593.982,-166.58 583.39,-166.833 585.859,-173.383"/>
</g>
<!-- Node46 -->
<g id="node46" class="node"><title>Node46</title>
<g id="a_node46"><a xlink:href="mxm__std_8F90.html#a02e79201be026faf756be00e58334c4f" target="_top" xlink:title="mxf15">
<polygon fill="white" stroke="black" points="594,-114.5 594,-133.5 639,-133.5 639,-114.5 594,-114.5"/>
<text text-anchor="middle" x="616.5" y="-121.5" font-family="Helvetica,sans-Serif" font-size="10.00">mxf15</text>
</a>
</g>
</g>
<!-- Node31&#45;&gt;Node46 -->
<g id="edge46" class="edge"><title>Node31&#45;&gt;Node46</title>
<path fill="none" stroke="midnightblue" d="M493.382,-361.327C495.25,-326.905 506.097,-208.912 568,-143 572.469,-138.241 578.287,-134.649 584.312,-131.946"/>
<polygon fill="midnightblue" stroke="midnightblue" points="585.653,-135.181 593.784,-128.389 583.192,-128.628 585.653,-135.181"/>
</g>
<!-- Node47 -->
<g id="node47" class="node"><title>Node47</title>
<g id="a_node47"><a xlink:href="mxm__std_8F90.html#a2fbea6eeadc258673ba8ea5708593aee" target="_top" xlink:title="mxf16">
<polygon fill="white" stroke="black" points="594,-76.5 594,-95.5 639,-95.5 639,-76.5 594,-76.5"/>
<text text-anchor="middle" x="616.5" y="-83.5" font-family="Helvetica,sans-Serif" font-size="10.00">mxf16</text>
</a>
</g>
</g>
<!-- Node31&#45;&gt;Node47 -->
<g id="edge47" class="edge"><title>Node31&#45;&gt;Node47</title>
<path fill="none" stroke="midnightblue" d="M492.844,-361.355C492.756,-323.52 497.406,-183.479 568,-105 572.366,-100.147 578.14,-96.5139 584.154,-93.801"/>
<polygon fill="midnightblue" stroke="midnightblue" points="585.497,-97.0358 593.635,-90.2518 583.043,-90.4801 585.497,-97.0358"/>
</g>
<!-- Node48 -->
<g id="node48" class="node"><title>Node48</title>
<g id="a_node48"><a xlink:href="mxm__std_8F90.html#a3829af481cd230e6aadef08feab9a278" target="_top" xlink:title="mxf17">
<polygon fill="white" stroke="black" points="594,-38.5 594,-57.5 639,-57.5 639,-38.5 594,-38.5"/>
<text text-anchor="middle" x="616.5" y="-45.5" font-family="Helvetica,sans-Serif" font-size="10.00">mxf17</text>
</a>
</g>
</g>
<!-- Node31&#45;&gt;Node48 -->
<g id="edge48" class="edge"><title>Node31&#45;&gt;Node48</title>
<path fill="none" stroke="midnightblue" d="M494.187,-361.363C500.097,-314.786 527.677,-113.339 568,-67 572.285,-62.0753 578.025,-58.4123 584.032,-55.6924"/>
<polygon fill="midnightblue" stroke="midnightblue" points="585.375,-58.9267 593.518,-52.1488 582.926,-52.3693 585.375,-58.9267"/>
</g>
<!-- Node49 -->
<g id="node49" class="node"><title>Node49</title>
<g id="a_node49"><a xlink:href="mxm__std_8F90.html#a48ed8195cc978a87c005b3306a974894" target="_top" xlink:title="mxf18">
<polygon fill="white" stroke="black" points="594,-0.5 594,-19.5 639,-19.5 639,-0.5 594,-0.5"/>
<text text-anchor="middle" x="616.5" y="-7.5" font-family="Helvetica,sans-Serif" font-size="10.00">mxf18</text>
</a>
</g>
</g>
<!-- Node31&#45;&gt;Node49 -->
<g id="edge49" class="edge"><title>Node31&#45;&gt;Node49</title>
<path fill="none" stroke="midnightblue" d="M493.919,-361.189C498.815,-310.835 523.293,-81.7466 568,-29 572.296,-23.9311 578.138,-20.2022 584.255,-17.463"/>
<polygon fill="midnightblue" stroke="midnightblue" points="585.728,-20.651 593.912,-13.9228 583.318,-14.0788 585.728,-20.651"/>
</g>
</g>
</svg>
        <g id="navigator" transform="translate(0 0)" fill="#404254">
                <rect fill="#f2f5e9" fill-opacity="0.5" stroke="#606060" stroke-width=".5" x="0" y="0" width="60" height="60"/>
                <use id="zoomplus" xlink:href="#zoomPlus" x="17" y="9" onmousedown="handleZoom(evt,'in')"/>
                <use id="zoomminus" xlink:href="#zoomMin" x="42" y="9" onmousedown="handleZoom(evt,'out')"/>
                <use id="reset" xlink:href="#resetDef" x="30" y="36" onmousedown="handleReset()"/>
                <g id="arrowUp" xlink:href="#dirArrow" transform="translate(30 24)" onmousedown="handlePan(0,-1)">
                  <use xlink:href="#rim" fill="#404040">
                        <set attributeName="fill" to="#808080" begin="arrowUp.mouseover" end="arrowUp.mouseout"/>
                  </use>
                  <path fill="none" stroke="white" stroke-width="1.5" d="M0,-3.0v7 M-2.5,-0.5L0,-3.0L2.5,-0.5"/>
                </g>
                <g id="arrowRight" xlink:href="#dirArrow" transform="rotate(90) translate(36 -43)" onmousedown="handlePan(1,0)">
                  <use xlink:href="#rim" fill="#404040">
                        <set attributeName="fill" to="#808080" begin="arrowRight.mouseover" end="arrowRight.mouseout"/>
                  </use>
                  <path fill="none" stroke="white" stroke-width="1.5" d="M0,-3.0v7 M-2.5,-0.5L0,-3.0L2.5,-0.5"/>
                </g>
                <g id="arrowDown" xlink:href="#dirArrow" transform="rotate(180) translate(-30 -48)" onmousedown="handlePan(0,1)">
                  <use xlink:href="#rim" fill="#404040">
                        <set attributeName="fill" to="#808080" begin="arrowDown.mouseover" end="arrowDown.mouseout"/>
                  </use>
                  <path fill="none" stroke="white" stroke-width="1.5" d="M0,-3.0v7 M-2.5,-0.5L0,-3.0L2.5,-0.5"/>
                </g>
                <g id="arrowLeft" xlink:href="#dirArrow" transform="rotate(270) translate(-36 17)" onmousedown="handlePan(-1,0)">
                  <use xlink:href="#rim" fill="#404040">
                        <set attributeName="fill" to="#808080" begin="arrowLeft.mouseover" end="arrowLeft.mouseout"/>
                  </use>
                  <path fill="none" stroke="white" stroke-width="1.5" d="M0,-3.0v7 M-2.5,-0.5L0,-3.0L2.5,-0.5"/>
                </g>
        </g>
        <svg viewBox="0 0 15 15" width="100%" height="30px" preserveAspectRatio="xMaxYMin meet">
         <g id="arrow_out" transform="scale(0.3 0.3)">
          <a xlink:href="genxyz_8F90_a10f2e4b6c10053ac6abb2cd014cb8d44_cgraph_org.svg" target="_base">
           <rect id="button" ry="5" rx="5" y="6" x="6" height="38" width="38"
                fill="#f2f5e9" fill-opacity="0.5" stroke="#606060" stroke-width="1.0"/>
           <path id="arrow"
             d="M 11.500037,31.436501 C 11.940474,20.09759 22.043105,11.32322 32.158766,21.979434 L 37.068811,17.246167 C 37.068811,17.246167 37.088388,32 37.088388,32 L 22.160133,31.978069 C 22.160133,31.978069 26.997745,27.140456 26.997745,27.140456 C 18.528582,18.264221 13.291696,25.230495 11.500037,31.436501 z"
             style="fill:#404040;"/>
          </a>
         </g>
        </svg>
</svg>
