<?xml version="1.0" encoding="UTF-8" standalone="no"?>
<!DOCTYPE svg PUBLIC "-//W3C//DTD SVG 1.1//EN"
 "http://www.w3.org/Graphics/SVG/1.1/DTD/svg11.dtd">
<!-- Generated by graphviz version 2.38.0 (20140413.2041)
 -->
<!-- Title: sethmat Pages: 1 -->
<svg width="788pt" height="66pt"
 viewBox="0.00 0.00 788.00 66.00" xmlns="http://www.w3.org/2000/svg" xmlns:xlink="http://www.w3.org/1999/xlink">
<g id="graph0" class="graph" transform="scale(1 1) rotate(0) translate(4 62)">
<title>sethmat</title>
<polygon fill="white" stroke="none" points="-4,4 -4,-62 784,-62 784,4 -4,4"/>
<!-- Node1 -->
<g id="node1" class="node"><title>Node1</title>
<polygon fill="#bfbfbf" stroke="black" points="0,-19.5 0,-38.5 54,-38.5 54,-19.5 0,-19.5"/>
<text text-anchor="middle" x="27" y="-26.5" font-family="Helvetica,sans-Serif" font-size="10.00">sethmat</text>
</g>
<!-- Node2 -->
<g id="node2" class="node"><title>Node2</title>
<g id="a_node2"><a xlink:href="genxyz_8F90.html#a10f2e4b6c10053ac6abb2cd014cb8d44" target="_top" xlink:title="genxyz">
<polygon fill="white" stroke="black" points="90,-19.5 90,-38.5 140,-38.5 140,-19.5 90,-19.5"/>
<text text-anchor="middle" x="115" y="-26.5" font-family="Helvetica,sans-Serif" font-size="10.00">genxyz</text>
</a>
</g>
</g>
<!-- Node1&#45;&gt;Node2 -->
<g id="edge1" class="edge"><title>Node1&#45;&gt;Node2</title>
<path fill="none" stroke="midnightblue" d="M64.4897,-29C73.0909,-29 82.0477,-29 89.9406,-29"/>
<polygon fill="midnightblue" stroke="midnightblue" points="64.2702,-25.5001 54.2701,-29 64.2701,-32.5001 64.2702,-25.5001"/>
</g>
<!-- Node3 -->
<g id="node3" class="node"><title>Node3</title>
<g id="a_node3"><a xlink:href="genxyz_8F90.html#ac052be67f860f3e498c6200cba496ce6" target="_top" xlink:title="Generate xyz coordinates for all elements. Velocity formulation : mesh 3 is used Stress formulation :...">
<polygon fill="white" stroke="black" points="176,-19.5 176,-38.5 232,-38.5 232,-19.5 176,-19.5"/>
<text text-anchor="middle" x="204" y="-26.5" font-family="Helvetica,sans-Serif" font-size="10.00">gencoor</text>
</a>
</g>
</g>
<!-- Node2&#45;&gt;Node3 -->
<g id="edge2" class="edge"><title>Node2&#45;&gt;Node3</title>
<path fill="none" stroke="midnightblue" d="M150.256,-29C158.748,-29 167.733,-29 175.834,-29"/>
<polygon fill="midnightblue" stroke="midnightblue" points="150.234,-25.5001 140.234,-29 150.234,-32.5001 150.234,-25.5001"/>
</g>
<!-- Node4 -->
<g id="node4" class="node"><title>Node4</title>
<g id="a_node4"><a xlink:href="drive2_8F90.html#aefc07385d7e7539fb57662470f694136" target="_top" xlink:title="Generate geometry data. ">
<polygon fill="white" stroke="black" points="268,-19.5 268,-38.5 329,-38.5 329,-19.5 268,-19.5"/>
<text text-anchor="middle" x="298.5" y="-26.5" font-family="Helvetica,sans-Serif" font-size="10.00">gengeom</text>
</a>
</g>
</g>
<!-- Node3&#45;&gt;Node4 -->
<g id="edge3" class="edge"><title>Node3&#45;&gt;Node4</title>
<path fill="none" stroke="midnightblue" d="M242.327,-29C250.822,-29 259.735,-29 267.859,-29"/>
<polygon fill="midnightblue" stroke="midnightblue" points="242.253,-25.5001 232.253,-29 242.253,-32.5001 242.253,-25.5001"/>
</g>
<!-- Node5 -->
<g id="node5" class="node"><title>Node5</title>
<g id="a_node5"><a xlink:href="drive1_8F90.html#ae177ea7efac97f35241521b782a671c0" target="_top" xlink:title="take a single time&#45;step ">
<polygon fill="white" stroke="black" points="365,-38.5 365,-57.5 445,-57.5 445,-38.5 365,-38.5"/>
<text text-anchor="middle" x="405" y="-45.5" font-family="Helvetica,sans-Serif" font-size="10.00">nek_advance</text>
</a>
</g>
</g>
<!-- Node4&#45;&gt;Node5 -->
<g id="edge4" class="edge"><title>Node4&#45;&gt;Node5</title>
<path fill="none" stroke="midnightblue" d="M339.153,-36.2096C347.581,-37.7421 356.475,-39.3591 364.884,-40.8879"/>
<polygon fill="midnightblue" stroke="midnightblue" points="339.631,-32.7392 329.166,-34.3938 338.379,-39.6263 339.631,-32.7392"/>
</g>
<!-- Node9 -->
<g id="node9" class="node"><title>Node9</title>
<g id="a_node9"><a xlink:href="drive1_8F90.html#a87bd37ae2c18426f28f35cc3f24e4355" target="_top" xlink:title="initialize nek ">
<polygon fill="white" stroke="black" points="511,-0.5 511,-19.5 564,-19.5 564,-0.5 511,-0.5"/>
<text text-anchor="middle" x="537.5" y="-7.5" font-family="Helvetica,sans-Serif" font-size="10.00">nek_init</text>
</a>
</g>
</g>
<!-- Node4&#45;&gt;Node9 -->
<g id="edge8" class="edge"><title>Node4&#45;&gt;Node9</title>
<path fill="none" stroke="midnightblue" d="M339.242,-25.814C388.128,-21.8948 469.695,-15.3557 510.945,-12.0487"/>
<polygon fill="midnightblue" stroke="midnightblue" points="338.725,-22.344 329.037,-26.6321 339.285,-29.3216 338.725,-22.344"/>
</g>
<!-- Node6 -->
<g id="node6" class="node"><title>Node6</title>
<g id="a_node6"><a xlink:href="drive1_8F90.html#a18d3e839786263fc4cf91f7eeb714371" target="_top" xlink:title="take a chunk of time&#45;steps ">
<polygon fill="white" stroke="black" points="481,-38.5 481,-57.5 594,-57.5 594,-38.5 481,-38.5"/>
<text text-anchor="middle" x="537.5" y="-45.5" font-family="Helvetica,sans-Serif" font-size="10.00">nek__multi_advance</text>
</a>
</g>
</g>
<!-- Node5&#45;&gt;Node6 -->
<g id="edge5" class="edge"><title>Node5&#45;&gt;Node6</title>
<path fill="none" stroke="midnightblue" d="M455.191,-48C463.607,-48 472.403,-48 480.97,-48"/>
<polygon fill="midnightblue" stroke="midnightblue" points="455.154,-44.5001 445.154,-48 455.154,-51.5001 455.154,-44.5001"/>
</g>
<!-- Node7 -->
<g id="node7" class="node"><title>Node7</title>
<g id="a_node7"><a xlink:href="drive1_8F90.html#a6ad57e0cf728f343e371ef8c9a02cd8a" target="_top" xlink:title="integrate the governing equations in time ">
<polygon fill="white" stroke="black" points="630,-38.5 630,-57.5 695,-57.5 695,-38.5 630,-38.5"/>
<text text-anchor="middle" x="662.5" y="-45.5" font-family="Helvetica,sans-Serif" font-size="10.00">nek_solve</text>
</a>
</g>
</g>
<!-- Node6&#45;&gt;Node7 -->
<g id="edge6" class="edge"><title>Node6&#45;&gt;Node7</title>
<path fill="none" stroke="midnightblue" d="M604.282,-48C613.164,-48 621.927,-48 629.824,-48"/>
<polygon fill="midnightblue" stroke="midnightblue" points="604.242,-44.5001 594.242,-48 604.242,-51.5001 604.242,-44.5001"/>
</g>
<!-- Node8 -->
<g id="node8" class="node"><title>Node8</title>
<g id="a_node8"><a xlink:href="drive_8F90.html#a13048bf28dd0734640412d69349e3857" target="_top" xlink:title="NEK5000: Spectral Element Computational Fluid Dynamics Solver COPYRIGHT (c) 2008&#45;2010 UCHICAGO ARGONN...">
<polygon fill="white" stroke="black" points="731,-19.5 731,-38.5 780,-38.5 780,-19.5 731,-19.5"/>
<text text-anchor="middle" x="755.5" y="-26.5" font-family="Helvetica,sans-Serif" font-size="10.00">nekton</text>
</a>
</g>
</g>
<!-- Node7&#45;&gt;Node8 -->
<g id="edge7" class="edge"><title>Node7&#45;&gt;Node8</title>
<path fill="none" stroke="midnightblue" d="M704.906,-39.3548C713.759,-37.5064 722.82,-35.6146 730.734,-33.9622"/>
<polygon fill="midnightblue" stroke="midnightblue" points="704.146,-35.938 695.072,-41.408 705.576,-42.7902 704.146,-35.938"/>
</g>
<!-- Node9&#45;&gt;Node8 -->
<g id="edge9" class="edge"><title>Node9&#45;&gt;Node8</title>
<path fill="none" stroke="midnightblue" d="M574.181,-13.1386C618.547,-17.0412 693.036,-23.5935 730.886,-26.9228"/>
<polygon fill="midnightblue" stroke="midnightblue" points="574.395,-9.64396 564.126,-12.2542 573.781,-16.617 574.395,-9.64396"/>
</g>
</g>
</svg>
