<?xml version="1.0" encoding="UTF-8" standalone="no"?>
<!DOCTYPE svg PUBLIC "-//W3C//DTD SVG 1.1//EN"
 "http://www.w3.org/Graphics/SVG/1.1/DTD/svg11.dtd">
<!-- Generated by graphviz version 2.38.0 (20140413.2041)
 -->
<!-- Title: setzgml Pages: 1 -->
<svg width="494pt" height="218pt"
 viewBox="0.00 0.00 494.00 218.00" xmlns="http://www.w3.org/2000/svg" xmlns:xlink="http://www.w3.org/1999/xlink">
<g id="graph0" class="graph" transform="scale(1 1) rotate(0) translate(4 214)">
<title>setzgml</title>
<polygon fill="white" stroke="none" points="-4,4 -4,-214 490,-214 490,4 -4,4"/>
<!-- Node1 -->
<g id="node1" class="node"><title>Node1</title>
<polygon fill="#bfbfbf" stroke="black" points="0,-133.5 0,-152.5 53,-152.5 53,-133.5 0,-133.5"/>
<text text-anchor="middle" x="26.5" y="-140.5" font-family="Helvetica,sans-Serif" font-size="10.00">setzgml</text>
</g>
<!-- Node2 -->
<g id="node2" class="node"><title>Node2</title>
<g id="a_node2"><a xlink:href="math_8F90.html#a3b43508554f14bdea8e14473d7d0803c" target="_top" xlink:title="copy">
<polygon fill="white" stroke="black" points="89,-152.5 89,-171.5 128,-171.5 128,-152.5 89,-152.5"/>
<text text-anchor="middle" x="108.5" y="-159.5" font-family="Helvetica,sans-Serif" font-size="10.00">copy</text>
</a>
</g>
</g>
<!-- Node1&#45;&gt;Node2 -->
<g id="edge1" class="edge"><title>Node1&#45;&gt;Node2</title>
<path fill="none" stroke="midnightblue" d="M53.2529,-149.116C61.5011,-151.075 70.679,-153.255 79.1049,-155.256"/>
<polygon fill="midnightblue" stroke="midnightblue" points="78.3584,-158.676 88.8965,-157.582 79.9759,-151.866 78.3584,-158.676"/>
</g>
<!-- Node3 -->
<g id="node3" class="node"><title>Node3</title>
<g id="a_node3"><a xlink:href="comm__mpi_8F90.html#a59fcf8a02fe54ab37f61050e3ca6b197" target="_top" xlink:title="exitti">
<polygon fill="white" stroke="black" points="89.5,-114.5 89.5,-133.5 127.5,-133.5 127.5,-114.5 89.5,-114.5"/>
<text text-anchor="middle" x="108.5" y="-121.5" font-family="Helvetica,sans-Serif" font-size="10.00">exitti</text>
</a>
</g>
</g>
<!-- Node1&#45;&gt;Node3 -->
<g id="edge2" class="edge"><title>Node1&#45;&gt;Node3</title>
<path fill="none" stroke="midnightblue" d="M53.2529,-136.884C61.566,-134.909 70.8236,-132.711 79.3038,-130.697"/>
<polygon fill="midnightblue" stroke="midnightblue" points="80.2258,-134.075 89.1464,-128.359 78.6082,-127.265 80.2258,-134.075"/>
</g>
<!-- Node4 -->
<g id="node4" class="node"><title>Node4</title>
<g id="a_node4"><a xlink:href="math_8F90.html#a692155d1d2ec380a9fdb2d81ef221625" target="_top" xlink:title="blank a string ">
<polygon fill="white" stroke="black" points="180,-171.5 180,-190.5 221,-190.5 221,-171.5 180,-171.5"/>
<text text-anchor="middle" x="200.5" y="-178.5" font-family="Helvetica,sans-Serif" font-size="10.00">blank</text>
</a>
</g>
</g>
<!-- Node3&#45;&gt;Node4 -->
<g id="edge3" class="edge"><title>Node3&#45;&gt;Node4</title>
<path fill="none" stroke="midnightblue" d="M122.645,-133.818C133.506,-141.769 149.448,-153.075 164,-162 166.458,-163.508 169.046,-165.023 171.657,-166.504"/>
<polygon fill="midnightblue" stroke="midnightblue" points="170.026,-169.601 180.476,-171.347 173.396,-163.465 170.026,-169.601"/>
</g>
<!-- Node5 -->
<g id="node5" class="node"><title>Node5</title>
<g id="a_node5"><a xlink:href="math_8F90.html#ad7fb480cea001849621405f37167aab1" target="_top" xlink:title="chcopy">
<polygon fill="white" stroke="black" points="175.5,-133.5 175.5,-152.5 225.5,-152.5 225.5,-133.5 175.5,-133.5"/>
<text text-anchor="middle" x="200.5" y="-140.5" font-family="Helvetica,sans-Serif" font-size="10.00">chcopy</text>
</a>
</g>
</g>
<!-- Node3&#45;&gt;Node5 -->
<g id="edge4" class="edge"><title>Node3&#45;&gt;Node5</title>
<path fill="none" stroke="midnightblue" d="M127.713,-127.845C138.494,-130.121 152.499,-133.078 165.274,-135.775"/>
<polygon fill="midnightblue" stroke="midnightblue" points="164.663,-139.223 175.171,-137.864 166.109,-132.374 164.663,-139.223"/>
</g>
<!-- Node6 -->
<g id="node6" class="node"><title>Node6</title>
<g id="a_node6"><a xlink:href="byte_8c.html#a2da8eeb074dfd3ffbfb3e9a4d301cda4" target="_top" xlink:title="exitt">
<polygon fill="white" stroke="black" points="182.5,-95.5 182.5,-114.5 218.5,-114.5 218.5,-95.5 182.5,-95.5"/>
<text text-anchor="middle" x="200.5" y="-102.5" font-family="Helvetica,sans-Serif" font-size="10.00">exitt</text>
</a>
</g>
</g>
<!-- Node3&#45;&gt;Node6 -->
<g id="edge5" class="edge"><title>Node3&#45;&gt;Node6</title>
<path fill="none" stroke="midnightblue" d="M127.713,-120.155C140.526,-117.45 157.894,-113.783 172.337,-110.734"/>
<polygon fill="midnightblue" stroke="midnightblue" points="173.169,-114.136 182.23,-108.646 171.723,-107.287 173.169,-114.136"/>
</g>
<!-- Node16 -->
<g id="node16" class="node"><title>Node16</title>
<g id="a_node16"><a xlink:href="classstring.html#ac6aad97d698bcdbf5c11ffa52d947ad8" target="_top" xlink:title="string::indx1">
<polygon fill="white" stroke="black" points="164,-57.5 164,-76.5 237,-76.5 237,-57.5 164,-57.5"/>
<text text-anchor="middle" x="200.5" y="-64.5" font-family="Helvetica,sans-Serif" font-size="10.00">string::indx1</text>
</a>
</g>
</g>
<!-- Node3&#45;&gt;Node16 -->
<g id="edge15" class="edge"><title>Node3&#45;&gt;Node16</title>
<path fill="none" stroke="midnightblue" d="M122.645,-114.182C133.506,-106.231 149.448,-94.9251 164,-86 166.458,-84.4924 169.046,-82.9774 171.657,-81.4965"/>
<polygon fill="midnightblue" stroke="midnightblue" points="173.396,-84.5349 180.476,-76.653 170.026,-78.3995 173.396,-84.5349"/>
</g>
<!-- Node7 -->
<g id="node7" class="node"><title>Node7</title>
<g id="a_node7"><a xlink:href="classctimer.html#abcecbc845c8ee72e13a19eaa30b80d77" target="_top" xlink:title="ctimer::dnekclock">
<polygon fill="white" stroke="black" points="273,-190.5 273,-209.5 370,-209.5 370,-190.5 273,-190.5"/>
<text text-anchor="middle" x="321.5" y="-197.5" font-family="Helvetica,sans-Serif" font-size="10.00">ctimer::dnekclock</text>
</a>
</g>
</g>
<!-- Node6&#45;&gt;Node7 -->
<g id="edge6" class="edge"><title>Node6&#45;&gt;Node7</title>
<path fill="none" stroke="midnightblue" d="M218.555,-111.903C224.821,-114.983 231.678,-119.047 237,-124 258.935,-144.412 249.968,-161.835 273,-181 274.971,-182.64 277.102,-184.152 279.332,-185.544"/>
<polygon fill="midnightblue" stroke="midnightblue" points="277.821,-188.705 288.29,-190.333 281.121,-182.532 277.821,-188.705"/>
</g>
<!-- Node9 -->
<g id="node9" class="node"><title>Node9</title>
<g id="a_node9"><a xlink:href="subs1_8F90.html#a339739b88994e5bb12bd923147f94983" target="_top" xlink:title="flush_io">
<polygon fill="white" stroke="black" points="295,-152.5 295,-171.5 348,-171.5 348,-152.5 295,-152.5"/>
<text text-anchor="middle" x="321.5" y="-159.5" font-family="Helvetica,sans-Serif" font-size="10.00">flush_io</text>
</a>
</g>
</g>
<!-- Node6&#45;&gt;Node9 -->
<g id="edge8" class="edge"><title>Node6&#45;&gt;Node9</title>
<path fill="none" stroke="midnightblue" d="M218.657,-114.178C238.925,-125.011 270.258,-141.728 273,-143 277.099,-144.902 281.444,-146.799 285.777,-148.617"/>
<polygon fill="midnightblue" stroke="midnightblue" points="284.559,-151.9 295.139,-152.443 287.207,-145.42 284.559,-151.9"/>
</g>
<!-- Node10 -->
<g id="node10" class="node"><title>Node10</title>
<g id="a_node10"><a xlink:href="singlmesh_8F90.html#aef78ff219741b83c1ca784b869e9cacf" target="_top" xlink:title="Dummy for singlmesh. ">
<polygon fill="white" stroke="black" points="281.5,-114.5 281.5,-133.5 361.5,-133.5 361.5,-114.5 281.5,-114.5"/>
<text text-anchor="middle" x="321.5" y="-121.5" font-family="Helvetica,sans-Serif" font-size="10.00">happy_check</text>
</a>
</g>
</g>
<!-- Node6&#45;&gt;Node10 -->
<g id="edge9" class="edge"><title>Node6&#45;&gt;Node10</title>
<path fill="none" stroke="midnightblue" d="M218.55,-107.722C232.387,-109.931 252.615,-113.161 271.412,-116.162"/>
<polygon fill="midnightblue" stroke="midnightblue" points="270.936,-119.631 281.362,-117.751 272.039,-112.718 270.936,-119.631"/>
</g>
<!-- Node11 -->
<g id="node11" class="node"><title>Node11</title>
<g id="a_node11"><a xlink:href="mpi__dummy_8F90.html#a55e9a1619aadb638b14211ce21d7d566" target="_top" xlink:title="mpi_finalize">
<polygon fill="white" stroke="black" points="285.5,-76.5 285.5,-95.5 357.5,-95.5 357.5,-76.5 285.5,-76.5"/>
<text text-anchor="middle" x="321.5" y="-83.5" font-family="Helvetica,sans-Serif" font-size="10.00">mpi_finalize</text>
</a>
</g>
</g>
<!-- Node6&#45;&gt;Node11 -->
<g id="edge10" class="edge"><title>Node6&#45;&gt;Node11</title>
<path fill="none" stroke="midnightblue" d="M218.55,-102.278C233.326,-99.9185 255.391,-96.3956 275.218,-93.2299"/>
<polygon fill="midnightblue" stroke="midnightblue" points="276.009,-96.6481 285.332,-91.6151 274.905,-89.7356 276.009,-96.6481"/>
</g>
<!-- Node12 -->
<g id="node12" class="node"><title>Node12</title>
<g id="a_node12"><a xlink:href="papi_8F90.html#a3a75ccdfbe05912fda48c3b134d114c0" target="_top" xlink:title="nek_flops">
<polygon fill="white" stroke="black" points="290.5,-38.5 290.5,-57.5 352.5,-57.5 352.5,-38.5 290.5,-38.5"/>
<text text-anchor="middle" x="321.5" y="-45.5" font-family="Helvetica,sans-Serif" font-size="10.00">nek_flops</text>
</a>
</g>
</g>
<!-- Node6&#45;&gt;Node12 -->
<g id="edge11" class="edge"><title>Node6&#45;&gt;Node12</title>
<path fill="none" stroke="midnightblue" d="M218.657,-95.8219C238.925,-84.9887 270.258,-68.2723 273,-67 277.099,-65.0978 281.444,-63.2013 285.777,-61.3834"/>
<polygon fill="midnightblue" stroke="midnightblue" points="287.207,-64.5801 295.139,-57.5572 284.559,-58.1003 287.207,-64.5801"/>
</g>
<!-- Node14 -->
<g id="node14" class="node"><title>Node14</title>
<g id="a_node14"><a xlink:href="comm__mpi_8F90.html#a4acb4d8e379294232e9219bec063d8f3" target="_top" xlink:title="nekgsync">
<polygon fill="white" stroke="black" points="290.5,-0.5 290.5,-19.5 352.5,-19.5 352.5,-0.5 290.5,-0.5"/>
<text text-anchor="middle" x="321.5" y="-7.5" font-family="Helvetica,sans-Serif" font-size="10.00">nekgsync</text>
</a>
</g>
</g>
<!-- Node6&#45;&gt;Node14 -->
<g id="edge13" class="edge"><title>Node6&#45;&gt;Node14</title>
<path fill="none" stroke="midnightblue" d="M218.555,-98.0974C224.821,-95.017 231.678,-90.9526 237,-86 258.935,-65.5882 249.968,-48.1647 273,-29 275.526,-26.8981 278.314,-25.0068 281.236,-23.3093"/>
<polygon fill="midnightblue" stroke="midnightblue" points="282.901,-26.39 290.273,-18.7808 279.765,-20.1317 282.901,-26.39"/>
</g>
<!-- Node8 -->
<g id="node8" class="node"><title>Node8</title>
<g id="a_node8"><a xlink:href="mpi__dummy_8F90.html#ae6a5ef945f87c2c27849696b70f3af2a" target="_top" xlink:title="mpi_wtime">
<polygon fill="white" stroke="black" points="413,-190.5 413,-209.5 479,-209.5 479,-190.5 413,-190.5"/>
<text text-anchor="middle" x="446" y="-197.5" font-family="Helvetica,sans-Serif" font-size="10.00">mpi_wtime</text>
</a>
</g>
</g>
<!-- Node7&#45;&gt;Node8 -->
<g id="edge7" class="edge"><title>Node7&#45;&gt;Node8</title>
<path fill="none" stroke="midnightblue" d="M370.212,-200C380.894,-200 392.154,-200 402.603,-200"/>
<polygon fill="midnightblue" stroke="midnightblue" points="402.73,-203.5 412.729,-200 402.729,-196.5 402.73,-203.5"/>
</g>
<!-- Node13 -->
<g id="node13" class="node"><title>Node13</title>
<g id="a_node13"><a xlink:href="papi_8F90.html#a838be3d39e287e29002d5a68c6ad2dd8" target="_top" xlink:title="getflops_papi">
<polygon fill="white" stroke="black" points="406,-38.5 406,-57.5 486,-57.5 486,-38.5 406,-38.5"/>
<text text-anchor="middle" x="446" y="-45.5" font-family="Helvetica,sans-Serif" font-size="10.00">getflops_papi</text>
</a>
</g>
</g>
<!-- Node12&#45;&gt;Node13 -->
<g id="edge12" class="edge"><title>Node12&#45;&gt;Node13</title>
<path fill="none" stroke="midnightblue" d="M352.781,-48C365.666,-48 381.032,-48 395.491,-48"/>
<polygon fill="midnightblue" stroke="midnightblue" points="395.811,-51.5001 405.811,-48 395.811,-44.5001 395.811,-51.5001"/>
</g>
<!-- Node15 -->
<g id="node15" class="node"><title>Node15</title>
<g id="a_node15"><a xlink:href="mpi__dummy_8F90.html#a070afe564196eb48413dbf1a9fbc99aa" target="_top" xlink:title="mpi_barrier">
<polygon fill="white" stroke="black" points="411,-0.5 411,-19.5 481,-19.5 481,-0.5 411,-0.5"/>
<text text-anchor="middle" x="446" y="-7.5" font-family="Helvetica,sans-Serif" font-size="10.00">mpi_barrier</text>
</a>
</g>
</g>
<!-- Node14&#45;&gt;Node15 -->
<g id="edge14" class="edge"><title>Node14&#45;&gt;Node15</title>
<path fill="none" stroke="midnightblue" d="M352.781,-10C367.195,-10 384.714,-10 400.594,-10"/>
<polygon fill="midnightblue" stroke="midnightblue" points="400.745,-13.5001 410.745,-10 400.745,-6.5001 400.745,-13.5001"/>
</g>
</g>
</svg>
