<?xml version="1.0" encoding="UTF-8" standalone="no"?>
<!DOCTYPE svg PUBLIC "-//W3C//DTD SVG 1.1//EN"
 "http://www.w3.org/Graphics/SVG/1.1/DTD/svg11.dtd">
<!-- Generated by graphviz version 2.38.0 (20140413.2041)
 -->
<!-- Title: linquad Pages: 1 -->
<svg width="784pt" height="66pt"
 viewBox="0.00 0.00 784.00 66.00" xmlns="http://www.w3.org/2000/svg" xmlns:xlink="http://www.w3.org/1999/xlink">
<g id="graph0" class="graph" transform="scale(1 1) rotate(0) translate(4 62)">
<title>linquad</title>
<polygon fill="white" stroke="none" points="-4,4 -4,-62 780,-62 780,4 -4,4"/>
<!-- Node1 -->
<g id="node1" class="node"><title>Node1</title>
<polygon fill="#bfbfbf" stroke="black" points="0,-19.5 0,-38.5 50,-38.5 50,-19.5 0,-19.5"/>
<text text-anchor="middle" x="25" y="-26.5" font-family="Helvetica,sans-Serif" font-size="10.00">linquad</text>
</g>
<!-- Node2 -->
<g id="node2" class="node"><title>Node2</title>
<g id="a_node2"><a xlink:href="genxyz_8F90.html#a10f2e4b6c10053ac6abb2cd014cb8d44" target="_top" xlink:title="genxyz">
<polygon fill="white" stroke="black" points="86,-19.5 86,-38.5 136,-38.5 136,-19.5 86,-19.5"/>
<text text-anchor="middle" x="111" y="-26.5" font-family="Helvetica,sans-Serif" font-size="10.00">genxyz</text>
</a>
</g>
</g>
<!-- Node1&#45;&gt;Node2 -->
<g id="edge1" class="edge"><title>Node1&#45;&gt;Node2</title>
<path fill="none" stroke="midnightblue" d="M60.3723,-29C68.8897,-29 77.8401,-29 85.7583,-29"/>
<polygon fill="midnightblue" stroke="midnightblue" points="60.2963,-25.5001 50.2963,-29 60.2962,-32.5001 60.2963,-25.5001"/>
</g>
<!-- Node3 -->
<g id="node3" class="node"><title>Node3</title>
<g id="a_node3"><a xlink:href="genxyz_8F90.html#ac052be67f860f3e498c6200cba496ce6" target="_top" xlink:title="Generate xyz coordinates for all elements. Velocity formulation : mesh 3 is used Stress formulation :...">
<polygon fill="white" stroke="black" points="172,-19.5 172,-38.5 228,-38.5 228,-19.5 172,-19.5"/>
<text text-anchor="middle" x="200" y="-26.5" font-family="Helvetica,sans-Serif" font-size="10.00">gencoor</text>
</a>
</g>
</g>
<!-- Node2&#45;&gt;Node3 -->
<g id="edge2" class="edge"><title>Node2&#45;&gt;Node3</title>
<path fill="none" stroke="midnightblue" d="M146.256,-29C154.748,-29 163.733,-29 171.834,-29"/>
<polygon fill="midnightblue" stroke="midnightblue" points="146.234,-25.5001 136.234,-29 146.234,-32.5001 146.234,-25.5001"/>
</g>
<!-- Node4 -->
<g id="node4" class="node"><title>Node4</title>
<g id="a_node4"><a xlink:href="drive2_8F90.html#aefc07385d7e7539fb57662470f694136" target="_top" xlink:title="Generate geometry data. ">
<polygon fill="white" stroke="black" points="264,-19.5 264,-38.5 325,-38.5 325,-19.5 264,-19.5"/>
<text text-anchor="middle" x="294.5" y="-26.5" font-family="Helvetica,sans-Serif" font-size="10.00">gengeom</text>
</a>
</g>
</g>
<!-- Node3&#45;&gt;Node4 -->
<g id="edge3" class="edge"><title>Node3&#45;&gt;Node4</title>
<path fill="none" stroke="midnightblue" d="M238.327,-29C246.822,-29 255.735,-29 263.859,-29"/>
<polygon fill="midnightblue" stroke="midnightblue" points="238.253,-25.5001 228.253,-29 238.253,-32.5001 238.253,-25.5001"/>
</g>
<!-- Node5 -->
<g id="node5" class="node"><title>Node5</title>
<g id="a_node5"><a xlink:href="drive1_8F90.html#ae177ea7efac97f35241521b782a671c0" target="_top" xlink:title="take a single time&#45;step ">
<polygon fill="white" stroke="black" points="361,-38.5 361,-57.5 441,-57.5 441,-38.5 361,-38.5"/>
<text text-anchor="middle" x="401" y="-45.5" font-family="Helvetica,sans-Serif" font-size="10.00">nek_advance</text>
</a>
</g>
</g>
<!-- Node4&#45;&gt;Node5 -->
<g id="edge4" class="edge"><title>Node4&#45;&gt;Node5</title>
<path fill="none" stroke="midnightblue" d="M335.153,-36.2096C343.581,-37.7421 352.475,-39.3591 360.884,-40.8879"/>
<polygon fill="midnightblue" stroke="midnightblue" points="335.631,-32.7392 325.166,-34.3938 334.379,-39.6263 335.631,-32.7392"/>
</g>
<!-- Node9 -->
<g id="node9" class="node"><title>Node9</title>
<g id="a_node9"><a xlink:href="drive1_8F90.html#a87bd37ae2c18426f28f35cc3f24e4355" target="_top" xlink:title="initialize nek ">
<polygon fill="white" stroke="black" points="507,-0.5 507,-19.5 560,-19.5 560,-0.5 507,-0.5"/>
<text text-anchor="middle" x="533.5" y="-7.5" font-family="Helvetica,sans-Serif" font-size="10.00">nek_init</text>
</a>
</g>
</g>
<!-- Node4&#45;&gt;Node9 -->
<g id="edge8" class="edge"><title>Node4&#45;&gt;Node9</title>
<path fill="none" stroke="midnightblue" d="M335.242,-25.814C384.128,-21.8948 465.695,-15.3557 506.945,-12.0487"/>
<polygon fill="midnightblue" stroke="midnightblue" points="334.725,-22.344 325.037,-26.6321 335.285,-29.3216 334.725,-22.344"/>
</g>
<!-- Node6 -->
<g id="node6" class="node"><title>Node6</title>
<g id="a_node6"><a xlink:href="drive1_8F90.html#a18d3e839786263fc4cf91f7eeb714371" target="_top" xlink:title="take a chunk of time&#45;steps ">
<polygon fill="white" stroke="black" points="477,-38.5 477,-57.5 590,-57.5 590,-38.5 477,-38.5"/>
<text text-anchor="middle" x="533.5" y="-45.5" font-family="Helvetica,sans-Serif" font-size="10.00">nek__multi_advance</text>
</a>
</g>
</g>
<!-- Node5&#45;&gt;Node6 -->
<g id="edge5" class="edge"><title>Node5&#45;&gt;Node6</title>
<path fill="none" stroke="midnightblue" d="M451.191,-48C459.607,-48 468.403,-48 476.97,-48"/>
<polygon fill="midnightblue" stroke="midnightblue" points="451.154,-44.5001 441.154,-48 451.154,-51.5001 451.154,-44.5001"/>
</g>
<!-- Node7 -->
<g id="node7" class="node"><title>Node7</title>
<g id="a_node7"><a xlink:href="drive1_8F90.html#a6ad57e0cf728f343e371ef8c9a02cd8a" target="_top" xlink:title="integrate the governing equations in time ">
<polygon fill="white" stroke="black" points="626,-38.5 626,-57.5 691,-57.5 691,-38.5 626,-38.5"/>
<text text-anchor="middle" x="658.5" y="-45.5" font-family="Helvetica,sans-Serif" font-size="10.00">nek_solve</text>
</a>
</g>
</g>
<!-- Node6&#45;&gt;Node7 -->
<g id="edge6" class="edge"><title>Node6&#45;&gt;Node7</title>
<path fill="none" stroke="midnightblue" d="M600.282,-48C609.164,-48 617.927,-48 625.824,-48"/>
<polygon fill="midnightblue" stroke="midnightblue" points="600.242,-44.5001 590.242,-48 600.242,-51.5001 600.242,-44.5001"/>
</g>
<!-- Node8 -->
<g id="node8" class="node"><title>Node8</title>
<g id="a_node8"><a xlink:href="drive_8F90.html#a13048bf28dd0734640412d69349e3857" target="_top" xlink:title="NEK5000: Spectral Element Computational Fluid Dynamics Solver COPYRIGHT (c) 2008&#45;2010 UCHICAGO ARGONN...">
<polygon fill="white" stroke="black" points="727,-19.5 727,-38.5 776,-38.5 776,-19.5 727,-19.5"/>
<text text-anchor="middle" x="751.5" y="-26.5" font-family="Helvetica,sans-Serif" font-size="10.00">nekton</text>
</a>
</g>
</g>
<!-- Node7&#45;&gt;Node8 -->
<g id="edge7" class="edge"><title>Node7&#45;&gt;Node8</title>
<path fill="none" stroke="midnightblue" d="M700.906,-39.3548C709.759,-37.5064 718.82,-35.6146 726.734,-33.9622"/>
<polygon fill="midnightblue" stroke="midnightblue" points="700.146,-35.938 691.072,-41.408 701.576,-42.7902 700.146,-35.938"/>
</g>
<!-- Node9&#45;&gt;Node8 -->
<g id="edge9" class="edge"><title>Node9&#45;&gt;Node8</title>
<path fill="none" stroke="midnightblue" d="M570.181,-13.1386C614.547,-17.0412 689.036,-23.5935 726.886,-26.9228"/>
<polygon fill="midnightblue" stroke="midnightblue" points="570.395,-9.64396 560.126,-12.2542 569.781,-16.617 570.395,-9.64396"/>
</g>
</g>
</svg>
