<?xml version="1.0" encoding="UTF-8" standalone="no"?>
<!DOCTYPE svg PUBLIC "-//W3C//DTD SVG 1.1//EN"
 "http://www.w3.org/Graphics/SVG/1.1/DTD/svg11.dtd">
<!-- Generated by graphviz version 2.38.0 (20140413.2041)
 -->
<!-- Title: xyzlin Pages: 1 -->
<svg width="863pt" height="66pt"
 viewBox="0.00 0.00 863.00 66.00" xmlns="http://www.w3.org/2000/svg" xmlns:xlink="http://www.w3.org/1999/xlink">
<g id="graph0" class="graph" transform="scale(1 1) rotate(0) translate(4 62)">
<title>xyzlin</title>
<polygon fill="white" stroke="none" points="-4,4 -4,-62 859,-62 859,4 -4,4"/>
<!-- Node1 -->
<g id="node1" class="node"><title>Node1</title>
<polygon fill="#bfbfbf" stroke="black" points="0,-19.5 0,-38.5 43,-38.5 43,-19.5 0,-19.5"/>
<text text-anchor="middle" x="21.5" y="-26.5" font-family="Helvetica,sans-Serif" font-size="10.00">xyzlin</text>
</g>
<!-- Node2 -->
<g id="node2" class="node"><title>Node2</title>
<g id="a_node2"><a xlink:href="genxyz_8F90.html#a68c86aab3d5439b8cdc8368eed562f9c" target="_top" xlink:title="linquad">
<polygon fill="white" stroke="black" points="79,-19.5 79,-38.5 129,-38.5 129,-19.5 79,-19.5"/>
<text text-anchor="middle" x="104" y="-26.5" font-family="Helvetica,sans-Serif" font-size="10.00">linquad</text>
</a>
</g>
</g>
<!-- Node1&#45;&gt;Node2 -->
<g id="edge1" class="edge"><title>Node1&#45;&gt;Node2</title>
<path fill="none" stroke="midnightblue" d="M53.4859,-29C61.9189,-29 70.9257,-29 78.9138,-29"/>
<polygon fill="midnightblue" stroke="midnightblue" points="53.2308,-25.5001 43.2308,-29 53.2307,-32.5001 53.2308,-25.5001"/>
</g>
<!-- Node3 -->
<g id="node3" class="node"><title>Node3</title>
<g id="a_node3"><a xlink:href="genxyz_8F90.html#a10f2e4b6c10053ac6abb2cd014cb8d44" target="_top" xlink:title="genxyz">
<polygon fill="white" stroke="black" points="165,-19.5 165,-38.5 215,-38.5 215,-19.5 165,-19.5"/>
<text text-anchor="middle" x="190" y="-26.5" font-family="Helvetica,sans-Serif" font-size="10.00">genxyz</text>
</a>
</g>
</g>
<!-- Node2&#45;&gt;Node3 -->
<g id="edge2" class="edge"><title>Node2&#45;&gt;Node3</title>
<path fill="none" stroke="midnightblue" d="M139.372,-29C147.89,-29 156.84,-29 164.758,-29"/>
<polygon fill="midnightblue" stroke="midnightblue" points="139.296,-25.5001 129.296,-29 139.296,-32.5001 139.296,-25.5001"/>
</g>
<!-- Node4 -->
<g id="node4" class="node"><title>Node4</title>
<g id="a_node4"><a xlink:href="genxyz_8F90.html#ac052be67f860f3e498c6200cba496ce6" target="_top" xlink:title="Generate xyz coordinates for all elements. Velocity formulation : mesh 3 is used Stress formulation :...">
<polygon fill="white" stroke="black" points="251,-19.5 251,-38.5 307,-38.5 307,-19.5 251,-19.5"/>
<text text-anchor="middle" x="279" y="-26.5" font-family="Helvetica,sans-Serif" font-size="10.00">gencoor</text>
</a>
</g>
</g>
<!-- Node3&#45;&gt;Node4 -->
<g id="edge3" class="edge"><title>Node3&#45;&gt;Node4</title>
<path fill="none" stroke="midnightblue" d="M225.256,-29C233.748,-29 242.733,-29 250.834,-29"/>
<polygon fill="midnightblue" stroke="midnightblue" points="225.234,-25.5001 215.234,-29 225.234,-32.5001 225.234,-25.5001"/>
</g>
<!-- Node5 -->
<g id="node5" class="node"><title>Node5</title>
<g id="a_node5"><a xlink:href="drive2_8F90.html#aefc07385d7e7539fb57662470f694136" target="_top" xlink:title="Generate geometry data. ">
<polygon fill="white" stroke="black" points="343,-19.5 343,-38.5 404,-38.5 404,-19.5 343,-19.5"/>
<text text-anchor="middle" x="373.5" y="-26.5" font-family="Helvetica,sans-Serif" font-size="10.00">gengeom</text>
</a>
</g>
</g>
<!-- Node4&#45;&gt;Node5 -->
<g id="edge4" class="edge"><title>Node4&#45;&gt;Node5</title>
<path fill="none" stroke="midnightblue" d="M317.327,-29C325.822,-29 334.735,-29 342.859,-29"/>
<polygon fill="midnightblue" stroke="midnightblue" points="317.253,-25.5001 307.253,-29 317.253,-32.5001 317.253,-25.5001"/>
</g>
<!-- Node6 -->
<g id="node6" class="node"><title>Node6</title>
<g id="a_node6"><a xlink:href="drive1_8F90.html#ae177ea7efac97f35241521b782a671c0" target="_top" xlink:title="take a single time&#45;step ">
<polygon fill="white" stroke="black" points="440,-38.5 440,-57.5 520,-57.5 520,-38.5 440,-38.5"/>
<text text-anchor="middle" x="480" y="-45.5" font-family="Helvetica,sans-Serif" font-size="10.00">nek_advance</text>
</a>
</g>
</g>
<!-- Node5&#45;&gt;Node6 -->
<g id="edge5" class="edge"><title>Node5&#45;&gt;Node6</title>
<path fill="none" stroke="midnightblue" d="M414.153,-36.2096C422.581,-37.7421 431.475,-39.3591 439.884,-40.8879"/>
<polygon fill="midnightblue" stroke="midnightblue" points="414.631,-32.7392 404.166,-34.3938 413.379,-39.6263 414.631,-32.7392"/>
</g>
<!-- Node10 -->
<g id="node10" class="node"><title>Node10</title>
<g id="a_node10"><a xlink:href="drive1_8F90.html#a87bd37ae2c18426f28f35cc3f24e4355" target="_top" xlink:title="initialize nek ">
<polygon fill="white" stroke="black" points="586,-0.5 586,-19.5 639,-19.5 639,-0.5 586,-0.5"/>
<text text-anchor="middle" x="612.5" y="-7.5" font-family="Helvetica,sans-Serif" font-size="10.00">nek_init</text>
</a>
</g>
</g>
<!-- Node5&#45;&gt;Node10 -->
<g id="edge9" class="edge"><title>Node5&#45;&gt;Node10</title>
<path fill="none" stroke="midnightblue" d="M414.242,-25.814C463.128,-21.8948 544.695,-15.3557 585.945,-12.0487"/>
<polygon fill="midnightblue" stroke="midnightblue" points="413.725,-22.344 404.037,-26.6321 414.285,-29.3216 413.725,-22.344"/>
</g>
<!-- Node7 -->
<g id="node7" class="node"><title>Node7</title>
<g id="a_node7"><a xlink:href="drive1_8F90.html#a18d3e839786263fc4cf91f7eeb714371" target="_top" xlink:title="take a chunk of time&#45;steps ">
<polygon fill="white" stroke="black" points="556,-38.5 556,-57.5 669,-57.5 669,-38.5 556,-38.5"/>
<text text-anchor="middle" x="612.5" y="-45.5" font-family="Helvetica,sans-Serif" font-size="10.00">nek__multi_advance</text>
</a>
</g>
</g>
<!-- Node6&#45;&gt;Node7 -->
<g id="edge6" class="edge"><title>Node6&#45;&gt;Node7</title>
<path fill="none" stroke="midnightblue" d="M530.191,-48C538.607,-48 547.403,-48 555.97,-48"/>
<polygon fill="midnightblue" stroke="midnightblue" points="530.154,-44.5001 520.154,-48 530.154,-51.5001 530.154,-44.5001"/>
</g>
<!-- Node8 -->
<g id="node8" class="node"><title>Node8</title>
<g id="a_node8"><a xlink:href="drive1_8F90.html#a6ad57e0cf728f343e371ef8c9a02cd8a" target="_top" xlink:title="integrate the governing equations in time ">
<polygon fill="white" stroke="black" points="705,-38.5 705,-57.5 770,-57.5 770,-38.5 705,-38.5"/>
<text text-anchor="middle" x="737.5" y="-45.5" font-family="Helvetica,sans-Serif" font-size="10.00">nek_solve</text>
</a>
</g>
</g>
<!-- Node7&#45;&gt;Node8 -->
<g id="edge7" class="edge"><title>Node7&#45;&gt;Node8</title>
<path fill="none" stroke="midnightblue" d="M679.282,-48C688.164,-48 696.927,-48 704.824,-48"/>
<polygon fill="midnightblue" stroke="midnightblue" points="679.242,-44.5001 669.242,-48 679.242,-51.5001 679.242,-44.5001"/>
</g>
<!-- Node9 -->
<g id="node9" class="node"><title>Node9</title>
<g id="a_node9"><a xlink:href="drive_8F90.html#a13048bf28dd0734640412d69349e3857" target="_top" xlink:title="NEK5000: Spectral Element Computational Fluid Dynamics Solver COPYRIGHT (c) 2008&#45;2010 UCHICAGO ARGONN...">
<polygon fill="white" stroke="black" points="806,-19.5 806,-38.5 855,-38.5 855,-19.5 806,-19.5"/>
<text text-anchor="middle" x="830.5" y="-26.5" font-family="Helvetica,sans-Serif" font-size="10.00">nekton</text>
</a>
</g>
</g>
<!-- Node8&#45;&gt;Node9 -->
<g id="edge8" class="edge"><title>Node8&#45;&gt;Node9</title>
<path fill="none" stroke="midnightblue" d="M779.906,-39.3548C788.759,-37.5064 797.82,-35.6146 805.734,-33.9622"/>
<polygon fill="midnightblue" stroke="midnightblue" points="779.146,-35.938 770.072,-41.408 780.576,-42.7902 779.146,-35.938"/>
</g>
<!-- Node10&#45;&gt;Node9 -->
<g id="edge10" class="edge"><title>Node10&#45;&gt;Node9</title>
<path fill="none" stroke="midnightblue" d="M649.181,-13.1386C693.547,-17.0412 768.036,-23.5935 805.886,-26.9228"/>
<polygon fill="midnightblue" stroke="midnightblue" points="649.395,-9.64396 639.126,-12.2542 648.781,-16.617 649.395,-9.64396"/>
</g>
</g>
</svg>
