<?xml version="1.0" encoding="UTF-8" standalone="no"?>
<!DOCTYPE svg PUBLIC "-//W3C//DTD SVG 1.1//EN"
 "http://www.w3.org/Graphics/SVG/1.1/DTD/svg11.dtd">
<!-- Generated by graphviz version 2.38.0 (20140413.2041)
 -->
<!-- Title: ax Pages: 1 -->
<svg width="1099pt" height="66pt"
 viewBox="0.00 0.00 1099.00 66.00" xmlns="http://www.w3.org/2000/svg" xmlns:xlink="http://www.w3.org/1999/xlink">
<g id="graph0" class="graph" transform="scale(1 1) rotate(0) translate(4 62)">
<title>ax</title>
<polygon fill="white" stroke="none" points="-4,4 -4,-62 1095,-62 1095,4 -4,4"/>
<!-- Node1 -->
<g id="node1" class="node"><title>Node1</title>
<polygon fill="#bfbfbf" stroke="black" points="0,-19.5 0,-38.5 29,-38.5 29,-19.5 0,-19.5"/>
<text text-anchor="middle" x="14.5" y="-26.5" font-family="Helvetica,sans-Serif" font-size="10.00">ax</text>
</g>
<!-- Node2 -->
<g id="node2" class="node"><title>Node2</title>
<g id="a_node2"><a xlink:href="gmres_8F90.html#a377d8578c6ccd4fddffb699c7a18f603" target="_top" xlink:title="Solve the Helmholtz equation by right&#45;preconditioned GMRES iteration. ">
<polygon fill="white" stroke="black" points="65,-19.5 65,-38.5 137,-38.5 137,-19.5 65,-19.5"/>
<text text-anchor="middle" x="101" y="-26.5" font-family="Helvetica,sans-Serif" font-size="10.00">hmh_gmres</text>
</a>
</g>
</g>
<!-- Node1&#45;&gt;Node2 -->
<g id="edge1" class="edge"><title>Node1&#45;&gt;Node2</title>
<path fill="none" stroke="midnightblue" d="M39.1494,-29C47.1466,-29 56.2546,-29 64.9443,-29"/>
<polygon fill="midnightblue" stroke="midnightblue" points="39.0764,-25.5001 29.0764,-29 39.0764,-32.5001 39.0764,-25.5001"/>
</g>
<!-- Node3 -->
<g id="node3" class="node"><title>Node3</title>
<g id="a_node3"><a xlink:href="hmholtz_8F90.html#a8734f3cc2d37d6a2ccd1daa8db57513d" target="_top" xlink:title="Solve the Helmholtz equation, H*U = RHS, using preconditioned conjugate gradient iteration. Preconditioner: diag(H). ">
<polygon fill="white" stroke="black" points="173,-19.5 173,-38.5 213,-38.5 213,-19.5 173,-19.5"/>
<text text-anchor="middle" x="193" y="-26.5" font-family="Helvetica,sans-Serif" font-size="10.00">cggo</text>
</a>
</g>
</g>
<!-- Node2&#45;&gt;Node3 -->
<g id="edge2" class="edge"><title>Node2&#45;&gt;Node3</title>
<path fill="none" stroke="midnightblue" d="M147.165,-29C156.185,-29 165.197,-29 172.75,-29"/>
<polygon fill="midnightblue" stroke="midnightblue" points="147.054,-25.5001 137.054,-29 147.054,-32.5001 147.054,-25.5001"/>
</g>
<!-- Node4 -->
<g id="node4" class="node"><title>Node4</title>
<g id="a_node4"><a xlink:href="hmholtz_8F90.html#a52dcac1fe733719d4987d36aac022e4d" target="_top" xlink:title="hmholtz">
<polygon fill="white" stroke="black" points="273,-38.5 273,-57.5 326,-57.5 326,-38.5 273,-38.5"/>
<text text-anchor="middle" x="299.5" y="-45.5" font-family="Helvetica,sans-Serif" font-size="10.00">hmholtz</text>
</a>
</g>
</g>
<!-- Node3&#45;&gt;Node4 -->
<g id="edge3" class="edge"><title>Node3&#45;&gt;Node4</title>
<path fill="none" stroke="midnightblue" d="M223.301,-34.3274C238.85,-37.1545 257.782,-40.5968 272.761,-43.3201"/>
<polygon fill="midnightblue" stroke="midnightblue" points="223.632,-30.8303 213.167,-32.4849 222.379,-37.7174 223.632,-30.8303"/>
</g>
<!-- Node14 -->
<g id="node14" class="node"><title>Node14</title>
<g id="a_node14"><a xlink:href="classhelmholtz.html#ae307c08c70cdc6428553cb85ce68cbbb" target="_top" xlink:title="helmholtz::hmhzpf">
<polygon fill="white" stroke="black" points="249,-0.5 249,-19.5 350,-19.5 350,-0.5 249,-0.5"/>
<text text-anchor="middle" x="299.5" y="-7.5" font-family="Helvetica,sans-Serif" font-size="10.00">helmholtz::hmhzpf</text>
</a>
</g>
</g>
<!-- Node3&#45;&gt;Node14 -->
<g id="edge14" class="edge"><title>Node3&#45;&gt;Node14</title>
<path fill="none" stroke="midnightblue" d="M223.13,-23.7036C231.176,-22.2407 240.138,-20.6112 248.995,-19.001"/>
<polygon fill="midnightblue" stroke="midnightblue" points="222.379,-20.2826 213.167,-25.5151 223.632,-27.1697 222.379,-20.2826"/>
</g>
<!-- Node5 -->
<g id="node5" class="node"><title>Node5</title>
<g id="a_node5"><a xlink:href="classhelmholtz.html#abf98ad104d11790462e9f07b3fa91848" target="_top" xlink:title="Either std. Helmholtz solve, or a projection + Helmholtz solve. ">
<polygon fill="white" stroke="black" points="386,-19.5 386,-38.5 483,-38.5 483,-19.5 386,-19.5"/>
<text text-anchor="middle" x="434.5" y="-26.5" font-family="Helvetica,sans-Serif" font-size="10.00">helmholtz::hsolve</text>
</a>
</g>
</g>
<!-- Node4&#45;&gt;Node5 -->
<g id="edge4" class="edge"><title>Node4&#45;&gt;Node5</title>
<path fill="none" stroke="midnightblue" d="M336.207,-42.899C351.462,-40.7197 369.492,-38.144 385.86,-35.8058"/>
<polygon fill="midnightblue" stroke="midnightblue" points="335.548,-39.4575 326.144,-44.3366 336.538,-46.3871 335.548,-39.4575"/>
</g>
<!-- Node6 -->
<g id="node6" class="node"><title>Node6</title>
<g id="a_node6"><a xlink:href="conduct_8F90.html#a74a7f053381975ed36df8ea959f3aa01" target="_top" xlink:title="Solve the convection&#45;diffusion equation for passive scalar IPSCAL. ">
<polygon fill="white" stroke="black" points="519,-38.5 519,-57.5 566,-57.5 566,-38.5 519,-38.5"/>
<text text-anchor="middle" x="542.5" y="-45.5" font-family="Helvetica,sans-Serif" font-size="10.00">cdscal</text>
</a>
</g>
</g>
<!-- Node5&#45;&gt;Node6 -->
<g id="edge5" class="edge"><title>Node5&#45;&gt;Node6</title>
<path fill="none" stroke="midnightblue" d="M493.156,-39.3345C502.285,-40.9709 511.228,-42.5739 518.891,-43.9475"/>
<polygon fill="midnightblue" stroke="midnightblue" points="493.689,-35.8744 483.228,-37.5551 492.454,-42.7646 493.689,-35.8744"/>
</g>
<!-- Node12 -->
<g id="node12" class="node"><title>Node12</title>
<g id="a_node12"><a xlink:href="plan4_8F90.html#a5cbf852b67e73bfa44e028338c4d57ad" target="_top" xlink:title="Splitting scheme . ">
<polygon fill="white" stroke="black" points="521,-0.5 521,-19.5 564,-19.5 564,-0.5 521,-0.5"/>
<text text-anchor="middle" x="542.5" y="-7.5" font-family="Helvetica,sans-Serif" font-size="10.00">plan4</text>
</a>
</g>
</g>
<!-- Node5&#45;&gt;Node12 -->
<g id="edge11" class="edge"><title>Node5&#45;&gt;Node12</title>
<path fill="none" stroke="midnightblue" d="M493.15,-18.6664C503.051,-16.8917 512.734,-15.1561 520.803,-13.7099"/>
<polygon fill="midnightblue" stroke="midnightblue" points="492.454,-15.2354 483.228,-20.4449 493.689,-22.1256 492.454,-15.2354"/>
</g>
<!-- Node7 -->
<g id="node7" class="node"><title>Node7</title>
<g id="a_node7"><a xlink:href="drive2_8F90.html#acce80cd37f20e9b52729eb52d86a9c86" target="_top" xlink:title="Driver for temperature or passive scalar. ">
<polygon fill="white" stroke="black" points="602,-38.5 602,-57.5 640,-57.5 640,-38.5 602,-38.5"/>
<text text-anchor="middle" x="621" y="-45.5" font-family="Helvetica,sans-Serif" font-size="10.00">heat</text>
</a>
</g>
</g>
<!-- Node6&#45;&gt;Node7 -->
<g id="edge6" class="edge"><title>Node6&#45;&gt;Node7</title>
<path fill="none" stroke="midnightblue" d="M576.131,-48C584.988,-48 594.256,-48 601.98,-48"/>
<polygon fill="midnightblue" stroke="midnightblue" points="576.039,-44.5001 566.039,-48 576.039,-51.5001 576.039,-44.5001"/>
</g>
<!-- Node8 -->
<g id="node8" class="node"><title>Node8</title>
<g id="a_node8"><a xlink:href="drive1_8F90.html#ae177ea7efac97f35241521b782a671c0" target="_top" xlink:title="take a single time&#45;step ">
<polygon fill="white" stroke="black" points="676,-19.5 676,-38.5 756,-38.5 756,-19.5 676,-19.5"/>
<text text-anchor="middle" x="716" y="-26.5" font-family="Helvetica,sans-Serif" font-size="10.00">nek_advance</text>
</a>
</g>
</g>
<!-- Node7&#45;&gt;Node8 -->
<g id="edge7" class="edge"><title>Node7&#45;&gt;Node8</title>
<path fill="none" stroke="midnightblue" d="M650.362,-42.2055C658.415,-40.5604 667.328,-38.7395 675.897,-36.9889"/>
<polygon fill="midnightblue" stroke="midnightblue" points="649.471,-38.8153 640.374,-44.2462 650.872,-45.6736 649.471,-38.8153"/>
</g>
<!-- Node9 -->
<g id="node9" class="node"><title>Node9</title>
<g id="a_node9"><a xlink:href="drive1_8F90.html#a18d3e839786263fc4cf91f7eeb714371" target="_top" xlink:title="take a chunk of time&#45;steps ">
<polygon fill="white" stroke="black" points="792,-19.5 792,-38.5 905,-38.5 905,-19.5 792,-19.5"/>
<text text-anchor="middle" x="848.5" y="-26.5" font-family="Helvetica,sans-Serif" font-size="10.00">nek__multi_advance</text>
</a>
</g>
</g>
<!-- Node8&#45;&gt;Node9 -->
<g id="edge8" class="edge"><title>Node8&#45;&gt;Node9</title>
<path fill="none" stroke="midnightblue" d="M766.191,-29C774.607,-29 783.403,-29 791.97,-29"/>
<polygon fill="midnightblue" stroke="midnightblue" points="766.154,-25.5001 756.154,-29 766.154,-32.5001 766.154,-25.5001"/>
</g>
<!-- Node10 -->
<g id="node10" class="node"><title>Node10</title>
<g id="a_node10"><a xlink:href="drive1_8F90.html#a6ad57e0cf728f343e371ef8c9a02cd8a" target="_top" xlink:title="integrate the governing equations in time ">
<polygon fill="white" stroke="black" points="941,-19.5 941,-38.5 1006,-38.5 1006,-19.5 941,-19.5"/>
<text text-anchor="middle" x="973.5" y="-26.5" font-family="Helvetica,sans-Serif" font-size="10.00">nek_solve</text>
</a>
</g>
</g>
<!-- Node9&#45;&gt;Node10 -->
<g id="edge9" class="edge"><title>Node9&#45;&gt;Node10</title>
<path fill="none" stroke="midnightblue" d="M915.282,-29C924.164,-29 932.927,-29 940.824,-29"/>
<polygon fill="midnightblue" stroke="midnightblue" points="915.242,-25.5001 905.242,-29 915.242,-32.5001 915.242,-25.5001"/>
</g>
<!-- Node11 -->
<g id="node11" class="node"><title>Node11</title>
<g id="a_node11"><a xlink:href="drive_8F90.html#a13048bf28dd0734640412d69349e3857" target="_top" xlink:title="NEK5000: Spectral Element Computational Fluid Dynamics Solver COPYRIGHT (c) 2008&#45;2010 UCHICAGO ARGONN...">
<polygon fill="white" stroke="black" points="1042,-19.5 1042,-38.5 1091,-38.5 1091,-19.5 1042,-19.5"/>
<text text-anchor="middle" x="1066.5" y="-26.5" font-family="Helvetica,sans-Serif" font-size="10.00">nekton</text>
</a>
</g>
</g>
<!-- Node10&#45;&gt;Node11 -->
<g id="edge10" class="edge"><title>Node10&#45;&gt;Node11</title>
<path fill="none" stroke="midnightblue" d="M1016.19,-29C1024.95,-29 1033.9,-29 1041.73,-29"/>
<polygon fill="midnightblue" stroke="midnightblue" points="1016.07,-25.5001 1006.07,-29 1016.07,-32.5001 1016.07,-25.5001"/>
</g>
<!-- Node13 -->
<g id="node13" class="node"><title>Node13</title>
<g id="a_node13"><a xlink:href="drive2_8F90.html#ab0aeca9ad3db8be87a01ba29d069d71e" target="_top" xlink:title="Driver for solving the incompressible Navier&#45;Stokes equations. ">
<polygon fill="white" stroke="black" points="603.5,-0.5 603.5,-19.5 638.5,-19.5 638.5,-0.5 603.5,-0.5"/>
<text text-anchor="middle" x="621" y="-7.5" font-family="Helvetica,sans-Serif" font-size="10.00">fluid</text>
</a>
</g>
</g>
<!-- Node12&#45;&gt;Node13 -->
<g id="edge12" class="edge"><title>Node12&#45;&gt;Node13</title>
<path fill="none" stroke="midnightblue" d="M574.262,-10C584.086,-10 594.596,-10 603.061,-10"/>
<polygon fill="midnightblue" stroke="midnightblue" points="574.001,-6.5001 564.001,-10 574.001,-13.5001 574.001,-6.5001"/>
</g>
<!-- Node13&#45;&gt;Node8 -->
<g id="edge13" class="edge"><title>Node13&#45;&gt;Node8</title>
<path fill="none" stroke="midnightblue" d="M648.635,-15.4415C657.077,-17.1662 666.594,-19.1106 675.73,-20.9771"/>
<polygon fill="midnightblue" stroke="midnightblue" points="649.125,-11.9694 638.627,-13.3968 647.724,-18.8277 649.125,-11.9694"/>
</g>
<!-- Node14&#45;&gt;Node5 -->
<g id="edge15" class="edge"><title>Node14&#45;&gt;Node5</title>
<path fill="none" stroke="midnightblue" d="M360.012,-18.5018C368.612,-19.7303 377.37,-20.9814 385.701,-22.1716"/>
<polygon fill="midnightblue" stroke="midnightblue" points="360.419,-15.0244 350.024,-17.0749 359.429,-21.954 360.419,-15.0244"/>
</g>
</g>
</svg>
