<?xml version="1.0" encoding="UTF-8" standalone="no"?>
<!DOCTYPE svg PUBLIC "-//W3C//DTD SVG 1.1//EN"
 "http://www.w3.org/Graphics/SVG/1.1/DTD/svg11.dtd">
<!-- Generated by graphviz version 2.38.0 (20140413.2041)
 -->
<!-- Title: fgs Pages: 1 -->
<svg width="557pt" height="66pt"
 viewBox="0.00 0.00 557.00 66.00" xmlns="http://www.w3.org/2000/svg" xmlns:xlink="http://www.w3.org/1999/xlink">
<g id="graph0" class="graph" transform="scale(1 1) rotate(0) translate(4 62)">
<title>fgs</title>
<polygon fill="white" stroke="none" points="-4,4 -4,-62 553,-62 553,4 -4,4"/>
<!-- Node1 -->
<g id="node1" class="node"><title>Node1</title>
<polygon fill="#bfbfbf" stroke="black" points="0,-19.5 0,-38.5 31,-38.5 31,-19.5 0,-19.5"/>
<text text-anchor="middle" x="15.5" y="-26.5" font-family="Helvetica,sans-Serif" font-size="10.00">fgs</text>
</g>
<!-- Node2 -->
<g id="node2" class="node"><title>Node2</title>
<g id="a_node2"><a xlink:href="gs_8c.html#a72a849f5aec0c3de64fc04f96b89a1e5" target="_top" xlink:title="fgs_check_parms">
<polygon fill="white" stroke="black" points="67,-19.5 67,-38.5 167,-38.5 167,-19.5 67,-19.5"/>
<text text-anchor="middle" x="117" y="-26.5" font-family="Helvetica,sans-Serif" font-size="10.00">fgs_check_parms</text>
</a>
</g>
</g>
<!-- Node1&#45;&gt;Node2 -->
<g id="edge1" class="edge"><title>Node1&#45;&gt;Node2</title>
<path fill="none" stroke="midnightblue" d="M31.1816,-29C38.1685,-29 47.0331,-29 56.382,-29"/>
<polygon fill="midnightblue" stroke="midnightblue" points="56.6508,-32.5001 66.6508,-29 56.6508,-25.5001 56.6508,-32.5001"/>
</g>
<!-- Node3 -->
<g id="node3" class="node"><title>Node3</title>
<g id="a_node3"><a xlink:href="fail_8c.html#a9e0caa24596d5da82c0d6e25260e2ef0" target="_top" xlink:title="fail">
<polygon fill="white" stroke="black" points="342,-19.5 342,-38.5 372,-38.5 372,-19.5 342,-19.5"/>
<text text-anchor="middle" x="357" y="-26.5" font-family="Helvetica,sans-Serif" font-size="10.00">fail</text>
</a>
</g>
</g>
<!-- Node2&#45;&gt;Node3 -->
<g id="edge2" class="edge"><title>Node2&#45;&gt;Node3</title>
<path fill="none" stroke="midnightblue" d="M167.025,-29C217.061,-29 292.696,-29 331.354,-29"/>
<polygon fill="midnightblue" stroke="midnightblue" points="331.661,-32.5001 341.66,-29 331.66,-25.5001 331.661,-32.5001"/>
</g>
<!-- Node7 -->
<g id="node7" class="node"><title>Node7</title>
<g id="a_node7"><a xlink:href="gs_8c.html#a45bd3c31c2247bc74bdc2dcee194a841" target="_top" xlink:title="fgs_check_handle">
<polygon fill="white" stroke="black" points="203,-0.5 203,-19.5 306,-19.5 306,-0.5 203,-0.5"/>
<text text-anchor="middle" x="254.5" y="-7.5" font-family="Helvetica,sans-Serif" font-size="10.00">fgs_check_handle</text>
</a>
</g>
</g>
<!-- Node2&#45;&gt;Node7 -->
<g id="edge6" class="edge"><title>Node2&#45;&gt;Node7</title>
<path fill="none" stroke="midnightblue" d="M167.302,-22.0868C175.479,-20.9402 184.044,-19.7392 192.469,-18.5578"/>
<polygon fill="midnightblue" stroke="midnightblue" points="193.224,-21.9863 202.641,-17.1315 192.252,-15.0541 193.224,-21.9863"/>
</g>
<!-- Node4 -->
<g id="node4" class="node"><title>Node4</title>
<g id="a_node4"><a xlink:href="fail_8c.html#a016d8836ade99456457a913955d1dc3b" target="_top" xlink:title="vfail">
<polygon fill="white" stroke="black" points="408,-19.5 408,-38.5 443,-38.5 443,-19.5 408,-19.5"/>
<text text-anchor="middle" x="425.5" y="-26.5" font-family="Helvetica,sans-Serif" font-size="10.00">vfail</text>
</a>
</g>
</g>
<!-- Node3&#45;&gt;Node4 -->
<g id="edge3" class="edge"><title>Node3&#45;&gt;Node4</title>
<path fill="none" stroke="midnightblue" d="M372.103,-29C379.476,-29 388.753,-29 397.446,-29"/>
<polygon fill="midnightblue" stroke="midnightblue" points="397.59,-32.5001 407.59,-29 397.59,-25.5001 397.59,-32.5001"/>
</g>
<!-- Node5 -->
<g id="node5" class="node"><title>Node5</title>
<g id="a_node5"><a xlink:href="fail_8c.html#a6a96bcb04cc5efcd64cbeed06a292419" target="_top" xlink:title="die">
<polygon fill="white" stroke="black" points="498.5,-38.5 498.5,-57.5 529.5,-57.5 529.5,-38.5 498.5,-38.5"/>
<text text-anchor="middle" x="514" y="-45.5" font-family="Helvetica,sans-Serif" font-size="10.00">die</text>
</a>
</g>
</g>
<!-- Node4&#45;&gt;Node5 -->
<g id="edge4" class="edge"><title>Node4&#45;&gt;Node5</title>
<path fill="none" stroke="midnightblue" d="M443.178,-32.6634C456.057,-35.4922 474.067,-39.4483 488.571,-42.634"/>
<polygon fill="midnightblue" stroke="midnightblue" points="487.87,-46.0634 498.388,-44.7903 489.371,-39.2264 487.87,-46.0634"/>
</g>
<!-- Node6 -->
<g id="node6" class="node"><title>Node6</title>
<g id="a_node6"><a xlink:href="fail_8c.html#a92d8c60ba2ef526cc6aca428bc8770ce" target="_top" xlink:title="vdiagnostic">
<polygon fill="white" stroke="black" points="479,-0.5 479,-19.5 549,-19.5 549,-0.5 479,-0.5"/>
<text text-anchor="middle" x="514" y="-7.5" font-family="Helvetica,sans-Serif" font-size="10.00">vdiagnostic</text>
</a>
</g>
</g>
<!-- Node4&#45;&gt;Node6 -->
<g id="edge5" class="edge"><title>Node4&#45;&gt;Node6</title>
<path fill="none" stroke="midnightblue" d="M443.178,-25.3366C450.605,-23.7053 459.739,-21.699 468.922,-19.6818"/>
<polygon fill="midnightblue" stroke="midnightblue" points="469.812,-23.0699 478.828,-17.5059 468.31,-16.2329 469.812,-23.0699"/>
</g>
<!-- Node7&#45;&gt;Node3 -->
<g id="edge7" class="edge"><title>Node7&#45;&gt;Node3</title>
<path fill="none" stroke="midnightblue" d="M306.044,-19.5557C315.051,-21.2583 324.044,-22.9586 331.868,-24.4377"/>
<polygon fill="midnightblue" stroke="midnightblue" points="331.226,-27.8784 341.703,-26.297 332.527,-21.0002 331.226,-27.8784"/>
</g>
</g>
</svg>
