<?xml version="1.0" encoding="UTF-8" standalone="no"?>
<!DOCTYPE svg PUBLIC "-//W3C//DTD SVG 1.1//EN"
 "http://www.w3.org/Graphics/SVG/1.1/DTD/svg11.dtd">
<!-- Generated by graphviz version 2.38.0 (20140413.2041)
 -->
<!-- Title: pw_exec_recvs Pages: 1 -->
<svg width="636pt" height="66pt"
 viewBox="0.00 0.00 636.00 66.00" xmlns="http://www.w3.org/2000/svg" xmlns:xlink="http://www.w3.org/1999/xlink">
<g id="graph0" class="graph" transform="scale(1 1) rotate(0) translate(4 62)">
<title>pw_exec_recvs</title>
<polygon fill="white" stroke="none" points="-4,4 -4,-62 632,-62 632,4 -4,4"/>
<!-- Node1 -->
<g id="node1" class="node"><title>Node1</title>
<polygon fill="#bfbfbf" stroke="black" points="0,-19.5 0,-38.5 90,-38.5 90,-19.5 0,-19.5"/>
<text text-anchor="middle" x="45" y="-26.5" font-family="Helvetica,sans-Serif" font-size="10.00">pw_exec_recvs</text>
</g>
<!-- Node2 -->
<g id="node2" class="node"><title>Node2</title>
<g id="a_node2"><a xlink:href="gs_8c.html#a233865689700a78046a7f4b1e0c261c0" target="_top" xlink:title="pw_exec">
<polygon fill="white" stroke="black" points="126,-19.5 126,-38.5 185,-38.5 185,-19.5 126,-19.5"/>
<text text-anchor="middle" x="155.5" y="-26.5" font-family="Helvetica,sans-Serif" font-size="10.00">pw_exec</text>
</a>
</g>
</g>
<!-- Node1&#45;&gt;Node2 -->
<g id="edge1" class="edge"><title>Node1&#45;&gt;Node2</title>
<path fill="none" stroke="midnightblue" d="M100.15,-29C109.07,-29 117.994,-29 125.957,-29"/>
<polygon fill="midnightblue" stroke="midnightblue" points="100.131,-25.5001 90.1311,-29 100.131,-32.5001 100.131,-25.5001"/>
</g>
<!-- Node3 -->
<g id="node3" class="node"><title>Node3</title>
<g id="a_node3"><a xlink:href="gs_8c.html#a32636abe895179991c05e4881ca74484" target="_top" xlink:title="pw_setup">
<polygon fill="white" stroke="black" points="221,-19.5 221,-38.5 283,-38.5 283,-19.5 221,-19.5"/>
<text text-anchor="middle" x="252" y="-26.5" font-family="Helvetica,sans-Serif" font-size="10.00">pw_setup</text>
</a>
</g>
</g>
<!-- Node2&#45;&gt;Node3 -->
<g id="edge2" class="edge"><title>Node2&#45;&gt;Node3</title>
<path fill="none" stroke="midnightblue" d="M195.255,-29C203.791,-29 212.711,-29 220.848,-29"/>
<polygon fill="midnightblue" stroke="midnightblue" points="195.11,-25.5001 185.11,-29 195.11,-32.5001 195.11,-25.5001"/>
</g>
<!-- Node4 -->
<g id="node4" class="node"><title>Node4</title>
<g id="a_node4"><a xlink:href="gs_8c.html#acb4f807b2974fc4b6f2cf8f7505ed6ac" target="_top" xlink:title="auto_setup">
<polygon fill="white" stroke="black" points="319,-38.5 319,-57.5 387,-57.5 387,-38.5 319,-38.5"/>
<text text-anchor="middle" x="353" y="-45.5" font-family="Helvetica,sans-Serif" font-size="10.00">auto_setup</text>
</a>
</g>
</g>
<!-- Node3&#45;&gt;Node4 -->
<g id="edge3" class="edge"><title>Node3&#45;&gt;Node4</title>
<path fill="none" stroke="midnightblue" d="M293.33,-36.74C301.809,-38.3674 310.66,-40.0661 318.841,-41.6361"/>
<polygon fill="midnightblue" stroke="midnightblue" points="293.722,-33.2515 283.241,-34.8039 292.402,-40.126 293.722,-33.2515"/>
</g>
<!-- Node5 -->
<g id="node5" class="node"><title>Node5</title>
<g id="a_node5"><a xlink:href="gs_8c.html#a00292c49272fb485aaebf8c621982ad3" target="_top" xlink:title="gs_setup_aux">
<polygon fill="white" stroke="black" points="423,-19.5 423,-38.5 505,-38.5 505,-19.5 423,-19.5"/>
<text text-anchor="middle" x="464" y="-26.5" font-family="Helvetica,sans-Serif" font-size="10.00">gs_setup_aux</text>
</a>
</g>
</g>
<!-- Node3&#45;&gt;Node5 -->
<g id="edge7" class="edge"><title>Node3&#45;&gt;Node5</title>
<path fill="none" stroke="midnightblue" d="M293.097,-29C330.38,-29 385.624,-29 422.906,-29"/>
<polygon fill="midnightblue" stroke="midnightblue" points="293.088,-25.5001 283.088,-29 293.088,-32.5001 293.088,-25.5001"/>
</g>
<!-- Node4&#45;&gt;Node5 -->
<g id="edge4" class="edge"><title>Node4&#45;&gt;Node5</title>
<path fill="none" stroke="midnightblue" d="M397.255,-40.4601C405.616,-39.0027 414.346,-37.481 422.611,-36.0403"/>
<polygon fill="midnightblue" stroke="midnightblue" points="396.546,-37.0308 387.296,-42.1961 397.748,-43.9268 396.546,-37.0308"/>
</g>
<!-- Node6 -->
<g id="node6" class="node"><title>Node6</title>
<g id="a_node6"><a xlink:href="gs_8c.html#adff6aa371c7d8e16a6d5ec17697dd637" target="_top" xlink:title="fgs_setup_pick">
<polygon fill="white" stroke="black" points="541,-38.5 541,-57.5 628,-57.5 628,-38.5 541,-38.5"/>
<text text-anchor="middle" x="584.5" y="-45.5" font-family="Helvetica,sans-Serif" font-size="10.00">fgs_setup_pick</text>
</a>
</g>
</g>
<!-- Node5&#45;&gt;Node6 -->
<g id="edge5" class="edge"><title>Node5&#45;&gt;Node6</title>
<path fill="none" stroke="midnightblue" d="M515.076,-37.029C523.7,-38.4118 532.59,-39.8372 540.991,-41.1842"/>
<polygon fill="midnightblue" stroke="midnightblue" points="515.547,-33.5599 505.119,-35.4325 514.438,-40.4716 515.547,-33.5599"/>
</g>
<!-- Node7 -->
<g id="node7" class="node"><title>Node7</title>
<g id="a_node7"><a xlink:href="gs_8h.html#a8e2276986935df404e15f3121f00a601" target="_top" xlink:title="gs_setup">
<polygon fill="white" stroke="black" points="555,-0.5 555,-19.5 614,-19.5 614,-0.5 555,-0.5"/>
<text text-anchor="middle" x="584.5" y="-7.5" font-family="Helvetica,sans-Serif" font-size="10.00">gs_setup</text>
</a>
</g>
</g>
<!-- Node5&#45;&gt;Node7 -->
<g id="edge6" class="edge"><title>Node5&#45;&gt;Node7</title>
<path fill="none" stroke="midnightblue" d="M515.239,-20.9448C528.697,-18.7869 542.791,-16.5272 554.654,-14.6251"/>
<polygon fill="midnightblue" stroke="midnightblue" points="514.438,-17.5284 505.119,-22.5675 515.547,-24.4401 514.438,-17.5284"/>
</g>
</g>
</svg>
