<?xml version="1.0" encoding="UTF-8" standalone="no"?>
<!DOCTYPE svg PUBLIC "-//W3C//DTD SVG 1.1//EN"
 "http://www.w3.org/Graphics/SVG/1.1/DTD/svg11.dtd">
<!-- Generated by graphviz version 2.38.0 (20140413.2041)
 -->
<!-- Title: pw_setup Pages: 1 -->
<svg width="433pt" height="332pt"
 viewBox="0.00 0.00 433.00 332.00" xmlns="http://www.w3.org/2000/svg" xmlns:xlink="http://www.w3.org/1999/xlink">
<g id="graph0" class="graph" transform="scale(1 1) rotate(0) translate(4 328)">
<title>pw_setup</title>
<polygon fill="white" stroke="none" points="-4,4 -4,-328 429,-328 429,4 -4,4"/>
<!-- Node1 -->
<g id="node1" class="node"><title>Node1</title>
<polygon fill="#bfbfbf" stroke="black" points="0,-76.5 0,-95.5 62,-95.5 62,-76.5 0,-76.5"/>
<text text-anchor="middle" x="31" y="-83.5" font-family="Helvetica,sans-Serif" font-size="10.00">pw_setup</text>
</g>
<!-- Node2 -->
<g id="node2" class="node"><title>Node2</title>
<g id="a_node2"><a xlink:href="gs_8c.html#a233865689700a78046a7f4b1e0c261c0" target="_top" xlink:title="pw_exec">
<polygon fill="white" stroke="black" points="110.5,-190.5 110.5,-209.5 169.5,-209.5 169.5,-190.5 110.5,-190.5"/>
<text text-anchor="middle" x="140" y="-197.5" font-family="Helvetica,sans-Serif" font-size="10.00">pw_exec</text>
</a>
</g>
</g>
<!-- Node1&#45;&gt;Node2 -->
<g id="edge1" class="edge"><title>Node1&#45;&gt;Node2</title>
<path fill="none" stroke="midnightblue" d="M41.1228,-95.7196C59.2849,-115.07 100.172,-158.632 122.935,-182.884"/>
<polygon fill="midnightblue" stroke="midnightblue" points="120.505,-185.409 129.9,-190.305 125.609,-180.618 120.505,-185.409"/>
</g>
<!-- Node11 -->
<g id="node11" class="node"><title>Node11</title>
<g id="a_node11"><a xlink:href="gs_8c.html#a3fda6a3a348d66a4166da91faf259771" target="_top" xlink:title="pw_free">
<polygon fill="white" stroke="black" points="112.5,-76.5 112.5,-95.5 167.5,-95.5 167.5,-76.5 112.5,-76.5"/>
<text text-anchor="middle" x="140" y="-83.5" font-family="Helvetica,sans-Serif" font-size="10.00">pw_free</text>
</a>
</g>
</g>
<!-- Node1&#45;&gt;Node11 -->
<g id="edge10" class="edge"><title>Node1&#45;&gt;Node11</title>
<path fill="none" stroke="midnightblue" d="M62.0902,-86C74.5763,-86 89.1815,-86 102.29,-86"/>
<polygon fill="midnightblue" stroke="midnightblue" points="102.413,-89.5001 112.413,-86 102.413,-82.5001 102.413,-89.5001"/>
</g>
<!-- Node13 -->
<g id="node13" class="node"><title>Node13</title>
<g id="a_node13"><a xlink:href="gs_8c.html#ab3b872c91498351e8c249e2efca7e123" target="_top" xlink:title="pw_setup_aux">
<polygon fill="white" stroke="black" points="98,-38.5 98,-57.5 182,-57.5 182,-38.5 98,-38.5"/>
<text text-anchor="middle" x="140" y="-45.5" font-family="Helvetica,sans-Serif" font-size="10.00">pw_setup_aux</text>
</a>
</g>
</g>
<!-- Node1&#45;&gt;Node13 -->
<g id="edge12" class="edge"><title>Node1&#45;&gt;Node13</title>
<path fill="none" stroke="midnightblue" d="M59.0006,-76.411C72.1797,-71.7306 88.229,-66.0308 102.484,-60.9685"/>
<polygon fill="midnightblue" stroke="midnightblue" points="103.756,-64.2308 112.008,-57.5859 101.413,-57.6344 103.756,-64.2308"/>
</g>
<!-- Node3 -->
<g id="node3" class="node"><title>Node3</title>
<g id="a_node3"><a xlink:href="comm_8h.html#a0f6e578048ebdc9f0869f9f5af2fd08b" target="_top" xlink:title="comm_wait">
<polygon fill="white" stroke="black" points="231,-304.5 231,-323.5 300,-323.5 300,-304.5 231,-304.5"/>
<text text-anchor="middle" x="265.5" y="-311.5" font-family="Helvetica,sans-Serif" font-size="10.00">comm_wait</text>
</a>
</g>
</g>
<!-- Node2&#45;&gt;Node3 -->
<g id="edge2" class="edge"><title>Node2&#45;&gt;Node3</title>
<path fill="none" stroke="midnightblue" d="M146.543,-209.697C157.764,-228.549 184.934,-270.444 218,-295 220.442,-296.813 223.081,-298.485 225.819,-300.021"/>
<polygon fill="midnightblue" stroke="midnightblue" points="224.264,-303.156 234.778,-304.465 227.375,-296.886 224.264,-303.156"/>
</g>
<!-- Node4 -->
<g id="node4" class="node"><title>Node4</title>
<g id="a_node4"><a xlink:href="gs_8c.html#a6258675e209794fa9bced9bcf2c93a05" target="_top" xlink:title="gather_noop">
<polygon fill="white" stroke="black" points="227,-266.5 227,-285.5 304,-285.5 304,-266.5 227,-266.5"/>
<text text-anchor="middle" x="265.5" y="-273.5" font-family="Helvetica,sans-Serif" font-size="10.00">gather_noop</text>
</a>
</g>
</g>
<!-- Node2&#45;&gt;Node4 -->
<g id="edge3" class="edge"><title>Node2&#45;&gt;Node4</title>
<path fill="none" stroke="midnightblue" d="M152.126,-209.64C166.575,-221.819 192.924,-242.889 218,-257 221.311,-258.863 224.841,-260.642 228.421,-262.312"/>
<polygon fill="midnightblue" stroke="midnightblue" points="227.329,-265.655 237.894,-266.46 230.137,-259.243 227.329,-265.655"/>
</g>
<!-- Node5 -->
<g id="node5" class="node"><title>Node5</title>
<g id="a_node5"><a xlink:href="gs_8c.html#ae08bb673dc13acacd1d0e0263f38b99d" target="_top" xlink:title="pw_exec_recvs">
<polygon fill="white" stroke="black" points="220.5,-228.5 220.5,-247.5 310.5,-247.5 310.5,-228.5 220.5,-228.5"/>
<text text-anchor="middle" x="265.5" y="-235.5" font-family="Helvetica,sans-Serif" font-size="10.00">pw_exec_recvs</text>
</a>
</g>
</g>
<!-- Node2&#45;&gt;Node5 -->
<g id="edge4" class="edge"><title>Node2&#45;&gt;Node5</title>
<path fill="none" stroke="midnightblue" d="M169.644,-208.813C185.607,-213.725 205.762,-219.927 223.384,-225.349"/>
<polygon fill="midnightblue" stroke="midnightblue" points="222.828,-228.84 233.415,-228.436 224.887,-222.149 222.828,-228.84"/>
</g>
<!-- Node7 -->
<g id="node7" class="node"><title>Node7</title>
<g id="a_node7"><a xlink:href="gs_8c.html#a54038c308634e6260e581b21d581b1c9" target="_top" xlink:title="pw_exec_sends">
<polygon fill="white" stroke="black" points="219,-190.5 219,-209.5 312,-209.5 312,-190.5 219,-190.5"/>
<text text-anchor="middle" x="265.5" y="-197.5" font-family="Helvetica,sans-Serif" font-size="10.00">pw_exec_sends</text>
</a>
</g>
</g>
<!-- Node2&#45;&gt;Node7 -->
<g id="edge6" class="edge"><title>Node2&#45;&gt;Node7</title>
<path fill="none" stroke="midnightblue" d="M169.644,-200C181.227,-200 195.018,-200 208.446,-200"/>
<polygon fill="midnightblue" stroke="midnightblue" points="208.601,-203.5 218.601,-200 208.601,-196.5 208.601,-203.5"/>
</g>
<!-- Node9 -->
<g id="node9" class="node"><title>Node9</title>
<g id="a_node9"><a xlink:href="gs_8c.html#acdf12fed77e0cd5cd272b5fca576d495" target="_top" xlink:title="scatter_noop">
<polygon fill="white" stroke="black" points="226,-152.5 226,-171.5 305,-171.5 305,-152.5 226,-152.5"/>
<text text-anchor="middle" x="265.5" y="-159.5" font-family="Helvetica,sans-Serif" font-size="10.00">scatter_noop</text>
</a>
</g>
</g>
<!-- Node2&#45;&gt;Node9 -->
<g id="edge8" class="edge"><title>Node2&#45;&gt;Node9</title>
<path fill="none" stroke="midnightblue" d="M169.644,-191.187C185.607,-186.275 205.762,-180.073 223.384,-174.651"/>
<polygon fill="midnightblue" stroke="midnightblue" points="224.887,-177.851 233.415,-171.564 222.828,-171.16 224.887,-177.851"/>
</g>
<!-- Node10 -->
<g id="node10" class="node"><title>Node10</title>
<g id="a_node10"><a xlink:href="navier1_8F90.html#a17c0ecae12cc5c6096939885da90ad2b" target="_top" xlink:title="transpose">
<polygon fill="white" stroke="black" points="233.5,-114.5 233.5,-133.5 297.5,-133.5 297.5,-114.5 233.5,-114.5"/>
<text text-anchor="middle" x="265.5" y="-121.5" font-family="Helvetica,sans-Serif" font-size="10.00">transpose</text>
</a>
</g>
</g>
<!-- Node2&#45;&gt;Node10 -->
<g id="edge9" class="edge"><title>Node2&#45;&gt;Node10</title>
<path fill="none" stroke="midnightblue" d="M152.126,-190.36C166.575,-178.181 192.924,-157.111 218,-143 221.311,-141.137 224.841,-139.358 228.421,-137.688"/>
<polygon fill="midnightblue" stroke="midnightblue" points="230.137,-140.757 237.894,-133.54 227.329,-134.345 230.137,-140.757"/>
</g>
<!-- Node6 -->
<g id="node6" class="node"><title>Node6</title>
<g id="a_node6"><a xlink:href="comm_8h.html#ae47a830e94605168f00226fd25cd578a" target="_top" xlink:title="comm_irecv">
<polygon fill="white" stroke="black" points="350.5,-228.5 350.5,-247.5 423.5,-247.5 423.5,-228.5 350.5,-228.5"/>
<text text-anchor="middle" x="387" y="-235.5" font-family="Helvetica,sans-Serif" font-size="10.00">comm_irecv</text>
</a>
</g>
</g>
<!-- Node5&#45;&gt;Node6 -->
<g id="edge5" class="edge"><title>Node5&#45;&gt;Node6</title>
<path fill="none" stroke="midnightblue" d="M310.658,-238C320.228,-238 330.371,-238 340.01,-238"/>
<polygon fill="midnightblue" stroke="midnightblue" points="340.219,-241.5 350.219,-238 340.219,-234.5 340.219,-241.5"/>
</g>
<!-- Node8 -->
<g id="node8" class="node"><title>Node8</title>
<g id="a_node8"><a xlink:href="comm_8h.html#a33c610b70409697426693f5d98a8e084" target="_top" xlink:title="comm_isend">
<polygon fill="white" stroke="black" points="349,-190.5 349,-209.5 425,-209.5 425,-190.5 349,-190.5"/>
<text text-anchor="middle" x="387" y="-197.5" font-family="Helvetica,sans-Serif" font-size="10.00">comm_isend</text>
</a>
</g>
</g>
<!-- Node7&#45;&gt;Node8 -->
<g id="edge7" class="edge"><title>Node7&#45;&gt;Node8</title>
<path fill="none" stroke="midnightblue" d="M312.019,-200C320.742,-200 329.894,-200 338.673,-200"/>
<polygon fill="midnightblue" stroke="midnightblue" points="338.758,-203.5 348.758,-200 338.758,-196.5 338.758,-203.5"/>
</g>
<!-- Node12 -->
<g id="node12" class="node"><title>Node12</title>
<g id="a_node12"><a xlink:href="gs_8c.html#a6d0bfa530f2e77029a87fa5ab228a7df" target="_top" xlink:title="pw_comm_free">
<polygon fill="white" stroke="black" points="221,-76.5 221,-95.5 310,-95.5 310,-76.5 221,-76.5"/>
<text text-anchor="middle" x="265.5" y="-83.5" font-family="Helvetica,sans-Serif" font-size="10.00">pw_comm_free</text>
</a>
</g>
</g>
<!-- Node11&#45;&gt;Node12 -->
<g id="edge11" class="edge"><title>Node11&#45;&gt;Node12</title>
<path fill="none" stroke="midnightblue" d="M167.798,-86C180.363,-86 195.808,-86 210.636,-86"/>
<polygon fill="midnightblue" stroke="midnightblue" points="210.76,-89.5001 220.76,-86 210.76,-82.5001 210.76,-89.5001"/>
</g>
<!-- Node14 -->
<g id="node14" class="node"><title>Node14</title>
<g id="a_node14"><a xlink:href="gs_8c.html#a772c9ec43386dd34fba511d68828dca1" target="_top" xlink:title="pw_comm_setup">
<polygon fill="white" stroke="black" points="218,-38.5 218,-57.5 313,-57.5 313,-38.5 218,-38.5"/>
<text text-anchor="middle" x="265.5" y="-45.5" font-family="Helvetica,sans-Serif" font-size="10.00">pw_comm_setup</text>
</a>
</g>
</g>
<!-- Node13&#45;&gt;Node14 -->
<g id="edge13" class="edge"><title>Node13&#45;&gt;Node14</title>
<path fill="none" stroke="midnightblue" d="M182.124,-48C190.205,-48 198.819,-48 207.317,-48"/>
<polygon fill="midnightblue" stroke="midnightblue" points="207.582,-51.5001 217.582,-48 207.582,-44.5001 207.582,-51.5001"/>
</g>
<!-- Node15 -->
<g id="node15" class="node"><title>Node15</title>
<g id="a_node15"><a xlink:href="gs_8c.html#aa64fba87bd1e94e47931c6046373756b" target="_top" xlink:title="pw_map_setup">
<polygon fill="white" stroke="black" points="221.5,-0.5 221.5,-19.5 309.5,-19.5 309.5,-0.5 221.5,-0.5"/>
<text text-anchor="middle" x="265.5" y="-7.5" font-family="Helvetica,sans-Serif" font-size="10.00">pw_map_setup</text>
</a>
</g>
</g>
<!-- Node13&#45;&gt;Node15 -->
<g id="edge14" class="edge"><title>Node13&#45;&gt;Node15</title>
<path fill="none" stroke="midnightblue" d="M172.164,-38.411C187.814,-33.5956 206.971,-27.7012 223.771,-22.532"/>
<polygon fill="midnightblue" stroke="midnightblue" points="224.817,-25.8721 233.346,-19.5859 222.759,-19.1816 224.817,-25.8721"/>
</g>
</g>
</svg>
