<?xml version="1.0" encoding="UTF-8" standalone="no"?>
<!DOCTYPE svg PUBLIC "-//W3C//DTD SVG 1.1//EN"
 "http://www.w3.org/Graphics/SVG/1.1/DTD/svg11.dtd">
<!-- Generated by graphviz version 2.38.0 (20140413.2041)
 -->
<!-- Title: dry_run_time Pages: 1 -->
<svg width="443pt" height="123pt"
 viewBox="0.00 0.00 443.00 123.00" xmlns="http://www.w3.org/2000/svg" xmlns:xlink="http://www.w3.org/1999/xlink">
<g id="graph0" class="graph" transform="scale(1 1) rotate(0) translate(4 119)">
<title>dry_run_time</title>
<polygon fill="white" stroke="none" points="-4,4 -4,-119 439,-119 439,4 -4,4"/>
<!-- Node1 -->
<g id="node1" class="node"><title>Node1</title>
<polygon fill="#bfbfbf" stroke="black" points="0,-38.5 0,-57.5 78,-57.5 78,-38.5 0,-38.5"/>
<text text-anchor="middle" x="39" y="-45.5" font-family="Helvetica,sans-Serif" font-size="10.00">dry_run_time</text>
</g>
<!-- Node2 -->
<g id="node2" class="node"><title>Node2</title>
<g id="a_node2"><a xlink:href="comm_8c.html#ad4bf12272401275660a2becfb36088ea" target="_top" xlink:title="comm_allreduce">
<polygon fill="white" stroke="black" points="114,-76.5 114,-95.5 207,-95.5 207,-76.5 114,-76.5"/>
<text text-anchor="middle" x="160.5" y="-83.5" font-family="Helvetica,sans-Serif" font-size="10.00">comm_allreduce</text>
</a>
</g>
</g>
<!-- Node1&#45;&gt;Node2 -->
<g id="edge1" class="edge"><title>Node1&#45;&gt;Node2</title>
<path fill="none" stroke="midnightblue" d="M70.1549,-57.589C85.1566,-62.3594 103.488,-68.1888 119.634,-73.3229"/>
<polygon fill="midnightblue" stroke="midnightblue" points="118.764,-76.719 129.355,-76.4141 120.886,-70.0482 118.764,-76.719"/>
</g>
<!-- Node6 -->
<g id="node6" class="node"><title>Node6</title>
<g id="a_node6"><a xlink:href="comm_8h.html#a2f9dfb93828cd0e3316718649ec27cb5" target="_top" xlink:title="comm_barrier">
<polygon fill="white" stroke="black" points="120,-38.5 120,-57.5 201,-57.5 201,-38.5 120,-38.5"/>
<text text-anchor="middle" x="160.5" y="-45.5" font-family="Helvetica,sans-Serif" font-size="10.00">comm_barrier</text>
</a>
</g>
</g>
<!-- Node1&#45;&gt;Node6 -->
<g id="edge5" class="edge"><title>Node1&#45;&gt;Node6</title>
<path fill="none" stroke="midnightblue" d="M78.1391,-48C88.0776,-48 98.938,-48 109.394,-48"/>
<polygon fill="midnightblue" stroke="midnightblue" points="109.665,-51.5001 119.665,-48 109.665,-44.5001 109.665,-51.5001"/>
</g>
<!-- Node7 -->
<g id="node7" class="node"><title>Node7</title>
<g id="a_node7"><a xlink:href="comm_8h.html#a9475e74e5f24c4428722059c8261c423" target="_top" xlink:title="comm_time">
<polygon fill="white" stroke="black" points="125.5,-0.5 125.5,-19.5 195.5,-19.5 195.5,-0.5 125.5,-0.5"/>
<text text-anchor="middle" x="160.5" y="-7.5" font-family="Helvetica,sans-Serif" font-size="10.00">comm_time</text>
</a>
</g>
</g>
<!-- Node1&#45;&gt;Node7 -->
<g id="edge6" class="edge"><title>Node1&#45;&gt;Node7</title>
<path fill="none" stroke="midnightblue" d="M70.1549,-38.411C85.1566,-33.6406 103.488,-27.8112 119.634,-22.6771"/>
<polygon fill="midnightblue" stroke="midnightblue" points="120.886,-25.9518 129.355,-19.5859 118.764,-19.281 120.886,-25.9518"/>
</g>
<!-- Node3 -->
<g id="node3" class="node"><title>Node3</title>
<g id="a_node3"><a xlink:href="comm_8c.html#ae9e39c9ae471f5a2723956dfa7cb95e4" target="_top" xlink:title="allreduce_imp">
<polygon fill="white" stroke="black" points="243,-76.5 243,-95.5 325,-95.5 325,-76.5 243,-76.5"/>
<text text-anchor="middle" x="284" y="-83.5" font-family="Helvetica,sans-Serif" font-size="10.00">allreduce_imp</text>
</a>
</g>
</g>
<!-- Node2&#45;&gt;Node3 -->
<g id="edge2" class="edge"><title>Node2&#45;&gt;Node3</title>
<path fill="none" stroke="midnightblue" d="M207.088,-86C215.417,-86 224.153,-86 232.613,-86"/>
<polygon fill="midnightblue" stroke="midnightblue" points="232.749,-89.5001 242.749,-86 232.749,-82.5001 232.749,-89.5001"/>
</g>
<!-- Node4 -->
<g id="node4" class="node"><title>Node4</title>
<g id="a_node4"><a xlink:href="comm_8h.html#a61f3037ecf23cd5609e3eac2ce0e1b01" target="_top" xlink:title="comm_recv">
<polygon fill="white" stroke="black" points="362.5,-95.5 362.5,-114.5 433.5,-114.5 433.5,-95.5 362.5,-95.5"/>
<text text-anchor="middle" x="398" y="-102.5" font-family="Helvetica,sans-Serif" font-size="10.00">comm_recv</text>
</a>
</g>
</g>
<!-- Node3&#45;&gt;Node4 -->
<g id="edge3" class="edge"><title>Node3&#45;&gt;Node4</title>
<path fill="none" stroke="midnightblue" d="M325.118,-92.8058C333.966,-94.3067 343.389,-95.9054 352.402,-97.4343"/>
<polygon fill="midnightblue" stroke="midnightblue" points="351.905,-100.9 362.35,-99.1218 353.076,-93.9985 351.905,-100.9"/>
</g>
<!-- Node5 -->
<g id="node5" class="node"><title>Node5</title>
<g id="a_node5"><a xlink:href="comm_8h.html#aadc6a8cdf4984083417952ebfbc0ee00" target="_top" xlink:title="comm_send">
<polygon fill="white" stroke="black" points="361,-57.5 361,-76.5 435,-76.5 435,-57.5 361,-57.5"/>
<text text-anchor="middle" x="398" y="-64.5" font-family="Helvetica,sans-Serif" font-size="10.00">comm_send</text>
</a>
</g>
</g>
<!-- Node3&#45;&gt;Node5 -->
<g id="edge4" class="edge"><title>Node3&#45;&gt;Node5</title>
<path fill="none" stroke="midnightblue" d="M325.118,-79.1942C333.51,-77.7707 342.419,-76.2592 351.005,-74.8027"/>
<polygon fill="midnightblue" stroke="midnightblue" points="351.611,-78.2501 360.884,-73.1267 350.44,-71.3487 351.611,-78.2501"/>
</g>
</g>
</svg>
