<?xml version="1.0" encoding="UTF-8" standalone="no"?>
<!DOCTYPE svg PUBLIC "-//W3C//DTD SVG 1.1//EN"
 "http://www.w3.org/Graphics/SVG/1.1/DTD/svg11.dtd">
<!-- Generated by graphviz version 2.38.0 (20140413.2041)
 -->
<!-- Title: pw_exec Pages: 1 -->
<svg width="510pt" height="66pt"
 viewBox="0.00 0.00 510.00 66.00" xmlns="http://www.w3.org/2000/svg" xmlns:xlink="http://www.w3.org/1999/xlink">
<g id="graph0" class="graph" transform="scale(1 1) rotate(0) translate(4 62)">
<title>pw_exec</title>
<polygon fill="white" stroke="none" points="-4,4 -4,-62 506,-62 506,4 -4,4"/>
<!-- Node1 -->
<g id="node1" class="node"><title>Node1</title>
<polygon fill="#bfbfbf" stroke="black" points="0,-19.5 0,-38.5 59,-38.5 59,-19.5 0,-19.5"/>
<text text-anchor="middle" x="29.5" y="-26.5" font-family="Helvetica,sans-Serif" font-size="10.00">pw_exec</text>
</g>
<!-- Node2 -->
<g id="node2" class="node"><title>Node2</title>
<g id="a_node2"><a xlink:href="gs_8c.html#a32636abe895179991c05e4881ca74484" target="_top" xlink:title="pw_setup">
<polygon fill="white" stroke="black" points="95,-19.5 95,-38.5 157,-38.5 157,-19.5 95,-19.5"/>
<text text-anchor="middle" x="126" y="-26.5" font-family="Helvetica,sans-Serif" font-size="10.00">pw_setup</text>
</a>
</g>
</g>
<!-- Node1&#45;&gt;Node2 -->
<g id="edge1" class="edge"><title>Node1&#45;&gt;Node2</title>
<path fill="none" stroke="midnightblue" d="M69.2545,-29C77.7913,-29 86.7106,-29 94.8479,-29"/>
<polygon fill="midnightblue" stroke="midnightblue" points="69.1096,-25.5001 59.1096,-29 69.1095,-32.5001 69.1096,-25.5001"/>
</g>
<!-- Node3 -->
<g id="node3" class="node"><title>Node3</title>
<g id="a_node3"><a xlink:href="gs_8c.html#acb4f807b2974fc4b6f2cf8f7505ed6ac" target="_top" xlink:title="auto_setup">
<polygon fill="white" stroke="black" points="193,-38.5 193,-57.5 261,-57.5 261,-38.5 193,-38.5"/>
<text text-anchor="middle" x="227" y="-45.5" font-family="Helvetica,sans-Serif" font-size="10.00">auto_setup</text>
</a>
</g>
</g>
<!-- Node2&#45;&gt;Node3 -->
<g id="edge2" class="edge"><title>Node2&#45;&gt;Node3</title>
<path fill="none" stroke="midnightblue" d="M167.33,-36.74C175.809,-38.3674 184.66,-40.0661 192.841,-41.6361"/>
<polygon fill="midnightblue" stroke="midnightblue" points="167.722,-33.2515 157.241,-34.8039 166.402,-40.126 167.722,-33.2515"/>
</g>
<!-- Node4 -->
<g id="node4" class="node"><title>Node4</title>
<g id="a_node4"><a xlink:href="gs_8c.html#a00292c49272fb485aaebf8c621982ad3" target="_top" xlink:title="gs_setup_aux">
<polygon fill="white" stroke="black" points="297,-19.5 297,-38.5 379,-38.5 379,-19.5 297,-19.5"/>
<text text-anchor="middle" x="338" y="-26.5" font-family="Helvetica,sans-Serif" font-size="10.00">gs_setup_aux</text>
</a>
</g>
</g>
<!-- Node2&#45;&gt;Node4 -->
<g id="edge6" class="edge"><title>Node2&#45;&gt;Node4</title>
<path fill="none" stroke="midnightblue" d="M167.097,-29C204.38,-29 259.624,-29 296.906,-29"/>
<polygon fill="midnightblue" stroke="midnightblue" points="167.088,-25.5001 157.088,-29 167.088,-32.5001 167.088,-25.5001"/>
</g>
<!-- Node3&#45;&gt;Node4 -->
<g id="edge3" class="edge"><title>Node3&#45;&gt;Node4</title>
<path fill="none" stroke="midnightblue" d="M271.255,-40.4601C279.616,-39.0027 288.346,-37.481 296.611,-36.0403"/>
<polygon fill="midnightblue" stroke="midnightblue" points="270.546,-37.0308 261.296,-42.1961 271.748,-43.9268 270.546,-37.0308"/>
</g>
<!-- Node5 -->
<g id="node5" class="node"><title>Node5</title>
<g id="a_node5"><a xlink:href="gs_8c.html#adff6aa371c7d8e16a6d5ec17697dd637" target="_top" xlink:title="fgs_setup_pick">
<polygon fill="white" stroke="black" points="415,-38.5 415,-57.5 502,-57.5 502,-38.5 415,-38.5"/>
<text text-anchor="middle" x="458.5" y="-45.5" font-family="Helvetica,sans-Serif" font-size="10.00">fgs_setup_pick</text>
</a>
</g>
</g>
<!-- Node4&#45;&gt;Node5 -->
<g id="edge4" class="edge"><title>Node4&#45;&gt;Node5</title>
<path fill="none" stroke="midnightblue" d="M389.076,-37.029C397.7,-38.4118 406.59,-39.8372 414.991,-41.1842"/>
<polygon fill="midnightblue" stroke="midnightblue" points="389.547,-33.5599 379.119,-35.4325 388.438,-40.4716 389.547,-33.5599"/>
</g>
<!-- Node6 -->
<g id="node6" class="node"><title>Node6</title>
<g id="a_node6"><a xlink:href="gs_8h.html#a8e2276986935df404e15f3121f00a601" target="_top" xlink:title="gs_setup">
<polygon fill="white" stroke="black" points="429,-0.5 429,-19.5 488,-19.5 488,-0.5 429,-0.5"/>
<text text-anchor="middle" x="458.5" y="-7.5" font-family="Helvetica,sans-Serif" font-size="10.00">gs_setup</text>
</a>
</g>
</g>
<!-- Node4&#45;&gt;Node6 -->
<g id="edge5" class="edge"><title>Node4&#45;&gt;Node6</title>
<path fill="none" stroke="midnightblue" d="M389.239,-20.9448C402.697,-18.7869 416.791,-16.5272 428.654,-14.6251"/>
<polygon fill="midnightblue" stroke="midnightblue" points="388.438,-17.5284 379.119,-22.5675 389.547,-24.4401 388.438,-17.5284"/>
</g>
</g>
</svg>
