<?xml version="1.0" encoding="UTF-8" standalone="no"?>
<!DOCTYPE svg PUBLIC "-//W3C//DTD SVG 1.1//EN"
 "http://www.w3.org/Graphics/SVG/1.1/DTD/svg11.dtd">
<!-- Generated by graphviz version 2.38.0 (20140413.2041)
 -->
<!-- Title: gather_noop Pages: 1 -->
<svg width="623pt" height="180pt"
 viewBox="0.00 0.00 623.00 180.00" xmlns="http://www.w3.org/2000/svg" xmlns:xlink="http://www.w3.org/1999/xlink">
<g id="graph0" class="graph" transform="scale(1 1) rotate(0) translate(4 176)">
<title>gather_noop</title>
<polygon fill="white" stroke="none" points="-4,4 -4,-176 619,-176 619,4 -4,4"/>
<!-- Node1 -->
<g id="node1" class="node"><title>Node1</title>
<polygon fill="#bfbfbf" stroke="black" points="0,-76.5 0,-95.5 77,-95.5 77,-76.5 0,-76.5"/>
<text text-anchor="middle" x="38.5" y="-83.5" font-family="Helvetica,sans-Serif" font-size="10.00">gather_noop</text>
</g>
<!-- Node2 -->
<g id="node2" class="node"><title>Node2</title>
<g id="a_node2"><a xlink:href="gs_8c.html#a06e43df2d9b66124b12934f57d2bfd5a" target="_top" xlink:title="cr_exec">
<polygon fill="white" stroke="black" points="115.5,-133.5 115.5,-152.5 169.5,-152.5 169.5,-133.5 115.5,-133.5"/>
<text text-anchor="middle" x="142.5" y="-140.5" font-family="Helvetica,sans-Serif" font-size="10.00">cr_exec</text>
</a>
</g>
</g>
<!-- Node1&#45;&gt;Node2 -->
<g id="edge1" class="edge"><title>Node1&#45;&gt;Node2</title>
<path fill="none" stroke="midnightblue" d="M65.6155,-100.594C84.1132,-110.931 108.396,-124.501 124.453,-133.474"/>
<polygon fill="midnightblue" stroke="midnightblue" points="67.2397,-97.4922 56.8029,-95.6693 63.825,-103.603 67.2397,-97.4922"/>
</g>
<!-- Node8 -->
<g id="node8" class="node"><title>Node8</title>
<g id="a_node8"><a xlink:href="gs_8c.html#a1b5c8f07cd891037e6a5aec1bf3b8cdc" target="_top" xlink:title="gs_aux">
<polygon fill="white" stroke="black" points="117.5,-76.5 117.5,-95.5 167.5,-95.5 167.5,-76.5 117.5,-76.5"/>
<text text-anchor="middle" x="142.5" y="-83.5" font-family="Helvetica,sans-Serif" font-size="10.00">gs_aux</text>
</a>
</g>
</g>
<!-- Node1&#45;&gt;Node8 -->
<g id="edge8" class="edge"><title>Node1&#45;&gt;Node8</title>
<path fill="none" stroke="midnightblue" d="M87.4194,-86C97.7676,-86 108.286,-86 117.261,-86"/>
<polygon fill="midnightblue" stroke="midnightblue" points="87.1913,-82.5001 77.1912,-86 87.1912,-89.5001 87.1913,-82.5001"/>
</g>
<!-- Node12 -->
<g id="node12" class="node"><title>Node12</title>
<g id="a_node12"><a xlink:href="gs_8c.html#a233865689700a78046a7f4b1e0c261c0" target="_top" xlink:title="pw_exec">
<polygon fill="white" stroke="black" points="113,-19.5 113,-38.5 172,-38.5 172,-19.5 113,-19.5"/>
<text text-anchor="middle" x="142.5" y="-26.5" font-family="Helvetica,sans-Serif" font-size="10.00">pw_exec</text>
</a>
</g>
</g>
<!-- Node1&#45;&gt;Node12 -->
<g id="edge12" class="edge"><title>Node1&#45;&gt;Node12</title>
<path fill="none" stroke="midnightblue" d="M65.6155,-71.4061C84.1132,-61.0691 108.396,-47.4991 124.453,-38.5265"/>
<polygon fill="midnightblue" stroke="midnightblue" points="63.825,-68.3972 56.8029,-76.3307 67.2397,-74.5078 63.825,-68.3972"/>
</g>
<!-- Node3 -->
<g id="node3" class="node"><title>Node3</title>
<g id="a_node3"><a xlink:href="gs_8c.html#a612756903fc8999d00a03d789a80aed3" target="_top" xlink:title="cr_setup">
<polygon fill="white" stroke="black" points="210.5,-152.5 210.5,-171.5 267.5,-171.5 267.5,-152.5 210.5,-152.5"/>
<text text-anchor="middle" x="239" y="-159.5" font-family="Helvetica,sans-Serif" font-size="10.00">cr_setup</text>
</a>
</g>
</g>
<!-- Node2&#45;&gt;Node3 -->
<g id="edge2" class="edge"><title>Node2&#45;&gt;Node3</title>
<path fill="none" stroke="midnightblue" d="M179.482,-150.235C189.719,-152.293 200.704,-154.501 210.361,-156.443"/>
<polygon fill="midnightblue" stroke="midnightblue" points="180.066,-146.782 169.573,-148.242 178.687,-153.645 180.066,-146.782"/>
</g>
<!-- Node4 -->
<g id="node4" class="node"><title>Node4</title>
<g id="a_node4"><a xlink:href="gs_8c.html#acb4f807b2974fc4b6f2cf8f7505ed6ac" target="_top" xlink:title="auto_setup">
<polygon fill="white" stroke="black" points="306,-95.5 306,-114.5 374,-114.5 374,-95.5 306,-95.5"/>
<text text-anchor="middle" x="340" y="-102.5" font-family="Helvetica,sans-Serif" font-size="10.00">auto_setup</text>
</a>
</g>
</g>
<!-- Node3&#45;&gt;Node4 -->
<g id="edge3" class="edge"><title>Node3&#45;&gt;Node4</title>
<path fill="none" stroke="midnightblue" d="M265.594,-147.264C283.516,-136.945 306.941,-123.458 322.454,-114.526"/>
<polygon fill="midnightblue" stroke="midnightblue" points="263.714,-144.308 256.794,-152.331 267.207,-150.374 263.714,-144.308"/>
</g>
<!-- Node5 -->
<g id="node5" class="node"><title>Node5</title>
<g id="a_node5"><a xlink:href="gs_8c.html#a00292c49272fb485aaebf8c621982ad3" target="_top" xlink:title="gs_setup_aux">
<polygon fill="white" stroke="black" points="410,-95.5 410,-114.5 492,-114.5 492,-95.5 410,-95.5"/>
<text text-anchor="middle" x="451" y="-102.5" font-family="Helvetica,sans-Serif" font-size="10.00">gs_setup_aux</text>
</a>
</g>
</g>
<!-- Node3&#45;&gt;Node5 -->
<g id="edge7" class="edge"><title>Node3&#45;&gt;Node5</title>
<path fill="none" stroke="midnightblue" d="M277.795,-151.741C316.775,-141.161 377.071,-124.795 414.995,-114.501"/>
<polygon fill="midnightblue" stroke="midnightblue" points="276.62,-148.433 267.886,-154.431 278.454,-155.189 276.62,-148.433"/>
</g>
<!-- Node4&#45;&gt;Node5 -->
<g id="edge4" class="edge"><title>Node4&#45;&gt;Node5</title>
<path fill="none" stroke="midnightblue" d="M384.531,-105C392.808,-105 401.437,-105 409.611,-105"/>
<polygon fill="midnightblue" stroke="midnightblue" points="384.296,-101.5 374.296,-105 384.296,-108.5 384.296,-101.5"/>
</g>
<!-- Node6 -->
<g id="node6" class="node"><title>Node6</title>
<g id="a_node6"><a xlink:href="gs_8h.html#a8e2276986935df404e15f3121f00a601" target="_top" xlink:title="gs_setup">
<polygon fill="white" stroke="black" points="542,-114.5 542,-133.5 601,-133.5 601,-114.5 542,-114.5"/>
<text text-anchor="middle" x="571.5" y="-121.5" font-family="Helvetica,sans-Serif" font-size="10.00">gs_setup</text>
</a>
</g>
</g>
<!-- Node5&#45;&gt;Node6 -->
<g id="edge5" class="edge"><title>Node5&#45;&gt;Node6</title>
<path fill="none" stroke="midnightblue" d="M502.239,-113.055C515.697,-115.213 529.791,-117.473 541.654,-119.375"/>
<polygon fill="midnightblue" stroke="midnightblue" points="502.547,-109.56 492.119,-111.433 501.438,-116.472 502.547,-109.56"/>
</g>
<!-- Node7 -->
<g id="node7" class="node"><title>Node7</title>
<g id="a_node7"><a xlink:href="gs_8c.html#adff6aa371c7d8e16a6d5ec17697dd637" target="_top" xlink:title="fgs_setup_pick">
<polygon fill="white" stroke="black" points="528,-76.5 528,-95.5 615,-95.5 615,-76.5 528,-76.5"/>
<text text-anchor="middle" x="571.5" y="-83.5" font-family="Helvetica,sans-Serif" font-size="10.00">fgs_setup_pick</text>
</a>
</g>
</g>
<!-- Node5&#45;&gt;Node7 -->
<g id="edge6" class="edge"><title>Node5&#45;&gt;Node7</title>
<path fill="none" stroke="midnightblue" d="M502.076,-96.971C510.7,-95.5882 519.59,-94.1628 527.991,-92.8158"/>
<polygon fill="midnightblue" stroke="midnightblue" points="501.438,-93.5284 492.119,-98.5675 502.547,-100.44 501.438,-93.5284"/>
</g>
<!-- Node9 -->
<g id="node9" class="node"><title>Node9</title>
<g id="a_node9"><a xlink:href="gs_8h.html#ab075419dce285f3f5e1a1f881ddb4205" target="_top" xlink:title="gs">
<polygon fill="white" stroke="black" points="224.5,-114.5 224.5,-133.5 253.5,-133.5 253.5,-114.5 224.5,-114.5"/>
<text text-anchor="middle" x="239" y="-121.5" font-family="Helvetica,sans-Serif" font-size="10.00">gs</text>
</a>
</g>
</g>
<!-- Node8&#45;&gt;Node9 -->
<g id="edge9" class="edge"><title>Node8&#45;&gt;Node9</title>
<path fill="none" stroke="midnightblue" d="M176.651,-99.3307C193.06,-105.929 211.966,-113.531 224.404,-118.533"/>
<polygon fill="midnightblue" stroke="midnightblue" points="177.93,-96.0726 167.346,-95.589 175.319,-102.567 177.93,-96.0726"/>
</g>
<!-- Node10 -->
<g id="node10" class="node"><title>Node10</title>
<g id="a_node10"><a xlink:href="gs_8h.html#a61572e6f587b61c83d79b01a9c4a0c6f" target="_top" xlink:title="gs_vec">
<polygon fill="white" stroke="black" points="214,-76.5 214,-95.5 264,-95.5 264,-76.5 214,-76.5"/>
<text text-anchor="middle" x="239" y="-83.5" font-family="Helvetica,sans-Serif" font-size="10.00">gs_vec</text>
</a>
</g>
</g>
<!-- Node8&#45;&gt;Node10 -->
<g id="edge10" class="edge"><title>Node8&#45;&gt;Node10</title>
<path fill="none" stroke="midnightblue" d="M177.896,-86C189.783,-86 202.845,-86 213.746,-86"/>
<polygon fill="midnightblue" stroke="midnightblue" points="177.836,-82.5001 167.836,-86 177.836,-89.5001 177.836,-82.5001"/>
</g>
<!-- Node11 -->
<g id="node11" class="node"><title>Node11</title>
<g id="a_node11"><a xlink:href="gs_8h.html#a3b9b4859e943c6790d9b52ccdcbad6af" target="_top" xlink:title="gs_many">
<polygon fill="white" stroke="black" points="209.5,-38.5 209.5,-57.5 268.5,-57.5 268.5,-38.5 209.5,-38.5"/>
<text text-anchor="middle" x="239" y="-45.5" font-family="Helvetica,sans-Serif" font-size="10.00">gs_many</text>
</a>
</g>
</g>
<!-- Node8&#45;&gt;Node11 -->
<g id="edge11" class="edge"><title>Node8&#45;&gt;Node11</title>
<path fill="none" stroke="midnightblue" d="M176.852,-72.5886C189.164,-67.6376 202.859,-62.1309 214.161,-57.5859"/>
<polygon fill="midnightblue" stroke="midnightblue" points="175.319,-69.4328 167.346,-76.411 177.93,-75.9274 175.319,-69.4328"/>
</g>
<!-- Node13 -->
<g id="node13" class="node"><title>Node13</title>
<g id="a_node13"><a xlink:href="gs_8c.html#a32636abe895179991c05e4881ca74484" target="_top" xlink:title="pw_setup">
<polygon fill="white" stroke="black" points="208,-0.5 208,-19.5 270,-19.5 270,-0.5 208,-0.5"/>
<text text-anchor="middle" x="239" y="-7.5" font-family="Helvetica,sans-Serif" font-size="10.00">pw_setup</text>
</a>
</g>
</g>
<!-- Node12&#45;&gt;Node13 -->
<g id="edge13" class="edge"><title>Node12&#45;&gt;Node13</title>
<path fill="none" stroke="midnightblue" d="M181.973,-21.2646C190.595,-19.5311 199.621,-17.7164 207.848,-16.0623"/>
<polygon fill="midnightblue" stroke="midnightblue" points="181.223,-17.8453 172.11,-23.2478 182.603,-24.7079 181.223,-17.8453"/>
</g>
<!-- Node13&#45;&gt;Node4 -->
<g id="edge14" class="edge"><title>Node13&#45;&gt;Node4</title>
<path fill="none" stroke="midnightblue" d="M265.724,-25.6242C267.201,-26.7255 268.637,-27.8544 270,-29 295.099,-50.102 319.764,-80.1316 331.652,-95.354"/>
<polygon fill="midnightblue" stroke="midnightblue" points="267.29,-22.4549 257.062,-19.6923 263.335,-28.2304 267.29,-22.4549"/>
</g>
<!-- Node13&#45;&gt;Node5 -->
<g id="edge15" class="edge"><title>Node13&#45;&gt;Node5</title>
<path fill="none" stroke="midnightblue" d="M270.465,-23.782C313.67,-43.3271 391.633,-78.5957 428.964,-95.4838"/>
<polygon fill="midnightblue" stroke="midnightblue" points="271.845,-20.5648 261.292,-19.6319 268.96,-26.9425 271.845,-20.5648"/>
</g>
</g>
</svg>
