<?xml version="1.0" encoding="UTF-8" standalone="no"?>
<!DOCTYPE svg PUBLIC "-//W3C//DTD SVG 1.1//EN"
 "http://www.w3.org/Graphics/SVG/1.1/DTD/svg11.dtd">
<!-- Generated by graphviz version 2.38.0 (20140413.2041)
 -->
<!-- Title: gs_unique Pages: 1 -->
<svg width="683pt" height="199pt"
 viewBox="0.00 0.00 683.00 199.00" xmlns="http://www.w3.org/2000/svg" xmlns:xlink="http://www.w3.org/1999/xlink">
<g id="graph0" class="graph" transform="scale(1 1) rotate(0) translate(4 195)">
<title>gs_unique</title>
<polygon fill="white" stroke="none" points="-4,4 -4,-195 679,-195 679,4 -4,4"/>
<!-- Node1 -->
<g id="node1" class="node"><title>Node1</title>
<polygon fill="#bfbfbf" stroke="black" points="0,-38.5 0,-57.5 65,-57.5 65,-38.5 0,-38.5"/>
<text text-anchor="middle" x="32.5" y="-45.5" font-family="Helvetica,sans-Serif" font-size="10.00">gs_unique</text>
</g>
<!-- Node2 -->
<g id="node2" class="node"><title>Node2</title>
<g id="a_node2"><a xlink:href="gs_8c.html#acfd245293a8345bc0f7d6951e42d57cd" target="_top" xlink:title="get_topology">
<polygon fill="white" stroke="black" points="124.5,-76.5 124.5,-95.5 202.5,-95.5 202.5,-76.5 124.5,-76.5"/>
<text text-anchor="middle" x="163.5" y="-83.5" font-family="Helvetica,sans-Serif" font-size="10.00">get_topology</text>
</a>
</g>
</g>
<!-- Node1&#45;&gt;Node2 -->
<g id="edge1" class="edge"><title>Node1&#45;&gt;Node2</title>
<path fill="none" stroke="midnightblue" d="M65.057,-57.2958C81.672,-62.1902 102.274,-68.2589 120.248,-73.5537"/>
<polygon fill="midnightblue" stroke="midnightblue" points="119.34,-76.9349 129.922,-76.4033 121.318,-70.2202 119.34,-76.9349"/>
</g>
<!-- Node14 -->
<g id="node14" class="node"><title>Node14</title>
<g id="a_node14"><a xlink:href="gs_8c.html#a683cc436db302c1bade0e0fc6b97ba06" target="_top" xlink:title="gs_topology_free">
<polygon fill="white" stroke="black" points="114,-38.5 114,-57.5 213,-57.5 213,-38.5 114,-38.5"/>
<text text-anchor="middle" x="163.5" y="-45.5" font-family="Helvetica,sans-Serif" font-size="10.00">gs_topology_free</text>
</a>
</g>
</g>
<!-- Node1&#45;&gt;Node14 -->
<g id="edge13" class="edge"><title>Node1&#45;&gt;Node14</title>
<path fill="none" stroke="midnightblue" d="M65.057,-48C76.707,-48 90.3171,-48 103.607,-48"/>
<polygon fill="midnightblue" stroke="midnightblue" points="103.67,-51.5001 113.67,-48 103.67,-44.5001 103.67,-51.5001"/>
</g>
<!-- Node15 -->
<g id="node15" class="node"><title>Node15</title>
<g id="a_node15"><a xlink:href="gs_8c.html#a5cb9850b00fb2ccf24c883c050023de4" target="_top" xlink:title="make_topology_unique">
<polygon fill="white" stroke="black" points="101,-0.5 101,-19.5 226,-19.5 226,-0.5 101,-0.5"/>
<text text-anchor="middle" x="163.5" y="-7.5" font-family="Helvetica,sans-Serif" font-size="10.00">make_topology_unique</text>
</a>
</g>
</g>
<!-- Node1&#45;&gt;Node15 -->
<g id="edge14" class="edge"><title>Node1&#45;&gt;Node15</title>
<path fill="none" stroke="midnightblue" d="M65.057,-38.7042C81.672,-33.8098 102.274,-27.7411 120.248,-22.4463"/>
<polygon fill="midnightblue" stroke="midnightblue" points="121.318,-25.7798 129.922,-19.5967 119.34,-19.0651 121.318,-25.7798"/>
</g>
<!-- Node3 -->
<g id="node3" class="node"><title>Node3</title>
<g id="a_node3"><a xlink:href="gs_8c.html#a7985133b30056371206b0dc2e9c8cd30" target="_top" xlink:title="nonzero_ids">
<polygon fill="white" stroke="black" points="262,-95.5 262,-114.5 337,-114.5 337,-95.5 262,-95.5"/>
<text text-anchor="middle" x="299.5" y="-102.5" font-family="Helvetica,sans-Serif" font-size="10.00">nonzero_ids</text>
</a>
</g>
</g>
<!-- Node2&#45;&gt;Node3 -->
<g id="edge2" class="edge"><title>Node2&#45;&gt;Node3</title>
<path fill="none" stroke="midnightblue" d="M202.541,-91.3938C217.774,-93.5538 235.48,-96.0644 251.506,-98.3366"/>
<polygon fill="midnightblue" stroke="midnightblue" points="251.359,-101.851 261.751,-99.7893 252.341,-94.92 251.359,-101.851"/>
</g>
<!-- Node4 -->
<g id="node4" class="node"><title>Node4</title>
<g id="a_node4"><a xlink:href="gs_8c.html#a86327985e39f3c419725ded66ac5ab90" target="_top" xlink:title="shared_ids">
<polygon fill="white" stroke="black" points="265,-57.5 265,-76.5 334,-76.5 334,-57.5 265,-57.5"/>
<text text-anchor="middle" x="299.5" y="-64.5" font-family="Helvetica,sans-Serif" font-size="10.00">shared_ids</text>
</a>
</g>
</g>
<!-- Node2&#45;&gt;Node4 -->
<g id="edge3" class="edge"><title>Node2&#45;&gt;Node4</title>
<path fill="none" stroke="midnightblue" d="M202.541,-80.6062C218.816,-78.2985 237.915,-75.5905 254.77,-73.2006"/>
<polygon fill="midnightblue" stroke="midnightblue" points="255.52,-76.6293 264.929,-71.76 254.537,-69.6986 255.52,-76.6293"/>
</g>
<!-- Node5 -->
<g id="node5" class="node"><title>Node5</title>
<g id="a_node5"><a xlink:href="comm_8c.html#a5186f9cdb78dddc7b2d4f8f5498006dc" target="_top" xlink:title="comm_scan">
<polygon fill="white" stroke="black" points="382.5,-95.5 382.5,-114.5 455.5,-114.5 455.5,-95.5 382.5,-95.5"/>
<text text-anchor="middle" x="419" y="-102.5" font-family="Helvetica,sans-Serif" font-size="10.00">comm_scan</text>
</a>
</g>
</g>
<!-- Node4&#45;&gt;Node5 -->
<g id="edge4" class="edge"><title>Node4&#45;&gt;Node5</title>
<path fill="none" stroke="midnightblue" d="M330.15,-76.589C344.901,-81.3594 362.926,-87.1888 378.801,-92.3229"/>
<polygon fill="midnightblue" stroke="midnightblue" points="377.767,-95.667 388.359,-95.4141 379.921,-89.0067 377.767,-95.667"/>
</g>
<!-- Node12 -->
<g id="node12" class="node"><title>Node12</title>
<g id="a_node12"><a xlink:href="gs_8c.html#afff0c1d3c1847289990fea1a781ce8b3" target="_top" xlink:title="shared_ids_aux">
<polygon fill="white" stroke="black" points="373,-57.5 373,-76.5 465,-76.5 465,-57.5 373,-57.5"/>
<text text-anchor="middle" x="419" y="-64.5" font-family="Helvetica,sans-Serif" font-size="10.00">shared_ids_aux</text>
</a>
</g>
</g>
<!-- Node4&#45;&gt;Node12 -->
<g id="edge11" class="edge"><title>Node4&#45;&gt;Node12</title>
<path fill="none" stroke="midnightblue" d="M334.171,-67C343.13,-67 353.047,-67 362.83,-67"/>
<polygon fill="midnightblue" stroke="midnightblue" points="362.932,-70.5001 372.932,-67 362.932,-63.5001 362.932,-70.5001"/>
</g>
<!-- Node13 -->
<g id="node13" class="node"><title>Node13</title>
<g id="a_node13"><a xlink:href="gs_8c.html#a47e4598e7f068013957538b45218d59a" target="_top" xlink:title="unique_ids">
<polygon fill="white" stroke="black" points="385.5,-19.5 385.5,-38.5 452.5,-38.5 452.5,-19.5 385.5,-19.5"/>
<text text-anchor="middle" x="419" y="-26.5" font-family="Helvetica,sans-Serif" font-size="10.00">unique_ids</text>
</a>
</g>
</g>
<!-- Node4&#45;&gt;Node13 -->
<g id="edge12" class="edge"><title>Node4&#45;&gt;Node13</title>
<path fill="none" stroke="midnightblue" d="M330.15,-57.411C344.901,-52.6406 362.926,-46.8112 378.801,-41.6771"/>
<polygon fill="midnightblue" stroke="midnightblue" points="379.921,-44.9933 388.359,-38.5859 377.767,-38.333 379.921,-44.9933"/>
</g>
<!-- Node6 -->
<g id="node6" class="node"><title>Node6</title>
<g id="a_node6"><a xlink:href="comm_8c.html#aa9fc91c4b538dae44f9d3e29207f0372" target="_top" xlink:title="scan_imp">
<polygon fill="white" stroke="black" points="501,-95.5 501,-114.5 563,-114.5 563,-95.5 501,-95.5"/>
<text text-anchor="middle" x="532" y="-102.5" font-family="Helvetica,sans-Serif" font-size="10.00">scan_imp</text>
</a>
</g>
</g>
<!-- Node5&#45;&gt;Node6 -->
<g id="edge5" class="edge"><title>Node5&#45;&gt;Node6</title>
<path fill="none" stroke="midnightblue" d="M455.732,-105C466.892,-105 479.279,-105 490.729,-105"/>
<polygon fill="midnightblue" stroke="midnightblue" points="490.918,-108.5 500.918,-105 490.918,-101.5 490.918,-108.5"/>
</g>
<!-- Node7 -->
<g id="node7" class="node"><title>Node7</title>
<g id="a_node7"><a xlink:href="comm_8h.html#ae47a830e94605168f00226fd25cd578a" target="_top" xlink:title="comm_irecv">
<polygon fill="white" stroke="black" points="600.5,-171.5 600.5,-190.5 673.5,-190.5 673.5,-171.5 600.5,-171.5"/>
<text text-anchor="middle" x="637" y="-178.5" font-family="Helvetica,sans-Serif" font-size="10.00">comm_irecv</text>
</a>
</g>
</g>
<!-- Node6&#45;&gt;Node7 -->
<g id="edge6" class="edge"><title>Node6&#45;&gt;Node7</title>
<path fill="none" stroke="midnightblue" d="M542.681,-114.68C555.039,-126.714 577.411,-147.439 599,-162 601.279,-163.537 603.698,-165.037 606.165,-166.477"/>
<polygon fill="midnightblue" stroke="midnightblue" points="604.694,-169.661 615.147,-171.388 608.052,-163.519 604.694,-169.661"/>
</g>
<!-- Node8 -->
<g id="node8" class="node"><title>Node8</title>
<g id="a_node8"><a xlink:href="comm_8h.html#a33c610b70409697426693f5d98a8e084" target="_top" xlink:title="comm_isend">
<polygon fill="white" stroke="black" points="599,-133.5 599,-152.5 675,-152.5 675,-133.5 599,-133.5"/>
<text text-anchor="middle" x="637" y="-140.5" font-family="Helvetica,sans-Serif" font-size="10.00">comm_isend</text>
</a>
</g>
</g>
<!-- Node6&#45;&gt;Node8 -->
<g id="edge7" class="edge"><title>Node6&#45;&gt;Node8</title>
<path fill="none" stroke="midnightblue" d="M558.991,-114.589C571.556,-119.224 586.83,-124.86 600.452,-129.885"/>
<polygon fill="midnightblue" stroke="midnightblue" points="599.424,-133.236 610.017,-133.414 601.847,-126.669 599.424,-133.236"/>
</g>
<!-- Node9 -->
<g id="node9" class="node"><title>Node9</title>
<g id="a_node9"><a xlink:href="comm_8h.html#a61f3037ecf23cd5609e3eac2ce0e1b01" target="_top" xlink:title="comm_recv">
<polygon fill="white" stroke="black" points="601.5,-95.5 601.5,-114.5 672.5,-114.5 672.5,-95.5 601.5,-95.5"/>
<text text-anchor="middle" x="637" y="-102.5" font-family="Helvetica,sans-Serif" font-size="10.00">comm_recv</text>
</a>
</g>
</g>
<!-- Node6&#45;&gt;Node9 -->
<g id="edge8" class="edge"><title>Node6&#45;&gt;Node9</title>
<path fill="none" stroke="midnightblue" d="M563.069,-105C571.877,-105 581.704,-105 591.219,-105"/>
<polygon fill="midnightblue" stroke="midnightblue" points="591.359,-108.5 601.359,-105 591.359,-101.5 591.359,-108.5"/>
</g>
<!-- Node10 -->
<g id="node10" class="node"><title>Node10</title>
<g id="a_node10"><a xlink:href="comm_8h.html#aadc6a8cdf4984083417952ebfbc0ee00" target="_top" xlink:title="comm_send">
<polygon fill="white" stroke="black" points="600,-57.5 600,-76.5 674,-76.5 674,-57.5 600,-57.5"/>
<text text-anchor="middle" x="637" y="-64.5" font-family="Helvetica,sans-Serif" font-size="10.00">comm_send</text>
</a>
</g>
</g>
<!-- Node6&#45;&gt;Node10 -->
<g id="edge9" class="edge"><title>Node6&#45;&gt;Node10</title>
<path fill="none" stroke="midnightblue" d="M558.991,-95.411C571.556,-90.7756 586.83,-85.1404 600.452,-80.1147"/>
<polygon fill="midnightblue" stroke="midnightblue" points="601.847,-83.3309 610.017,-76.5859 599.424,-76.7636 601.847,-83.3309"/>
</g>
<!-- Node11 -->
<g id="node11" class="node"><title>Node11</title>
<g id="a_node11"><a xlink:href="comm_8h.html#a0f6e578048ebdc9f0869f9f5af2fd08b" target="_top" xlink:title="comm_wait">
<polygon fill="white" stroke="black" points="602.5,-19.5 602.5,-38.5 671.5,-38.5 671.5,-19.5 602.5,-19.5"/>
<text text-anchor="middle" x="637" y="-26.5" font-family="Helvetica,sans-Serif" font-size="10.00">comm_wait</text>
</a>
</g>
</g>
<!-- Node6&#45;&gt;Node11 -->
<g id="edge10" class="edge"><title>Node6&#45;&gt;Node11</title>
<path fill="none" stroke="midnightblue" d="M542.681,-95.3197C555.039,-83.2865 577.411,-62.5612 599,-48 601.279,-46.4631 603.698,-44.9632 606.165,-43.5233"/>
<polygon fill="midnightblue" stroke="midnightblue" points="608.052,-46.4807 615.147,-38.6123 604.694,-40.3388 608.052,-46.4807"/>
</g>
</g>
</svg>
