<?xml version="1.0" encoding="UTF-8" standalone="no"?>
<!DOCTYPE svg PUBLIC "-//W3C//DTD SVG 1.1//EN"
 "http://www.w3.org/Graphics/SVG/1.1/DTD/svg11.dtd">
<!-- Generated by graphviz version 2.38.0 (20140413.2041)
 -->
<!-- Title: cr_setup_aux Pages: 1 -->
<svg width="526pt" height="66pt"
 viewBox="0.00 0.00 526.00 66.00" xmlns="http://www.w3.org/2000/svg" xmlns:xlink="http://www.w3.org/1999/xlink">
<g id="graph0" class="graph" transform="scale(1 1) rotate(0) translate(4 62)">
<title>cr_setup_aux</title>
<polygon fill="white" stroke="none" points="-4,4 -4,-62 522,-62 522,4 -4,4"/>
<!-- Node1 -->
<g id="node1" class="node"><title>Node1</title>
<polygon fill="#bfbfbf" stroke="black" points="0,-19.5 0,-38.5 80,-38.5 80,-19.5 0,-19.5"/>
<text text-anchor="middle" x="40" y="-26.5" font-family="Helvetica,sans-Serif" font-size="10.00">cr_setup_aux</text>
</g>
<!-- Node2 -->
<g id="node2" class="node"><title>Node2</title>
<g id="a_node2"><a xlink:href="gs_8c.html#a612756903fc8999d00a03d789a80aed3" target="_top" xlink:title="cr_setup">
<polygon fill="white" stroke="black" points="116,-19.5 116,-38.5 173,-38.5 173,-19.5 116,-19.5"/>
<text text-anchor="middle" x="144.5" y="-26.5" font-family="Helvetica,sans-Serif" font-size="10.00">cr_setup</text>
</a>
</g>
</g>
<!-- Node1&#45;&gt;Node2 -->
<g id="edge1" class="edge"><title>Node1&#45;&gt;Node2</title>
<path fill="none" stroke="midnightblue" d="M90.2268,-29C98.9848,-29 107.822,-29 115.712,-29"/>
<polygon fill="midnightblue" stroke="midnightblue" points="90.0433,-25.5001 80.0433,-29 90.0432,-32.5001 90.0433,-25.5001"/>
</g>
<!-- Node3 -->
<g id="node3" class="node"><title>Node3</title>
<g id="a_node3"><a xlink:href="gs_8c.html#acb4f807b2974fc4b6f2cf8f7505ed6ac" target="_top" xlink:title="auto_setup">
<polygon fill="white" stroke="black" points="209,-38.5 209,-57.5 277,-57.5 277,-38.5 209,-38.5"/>
<text text-anchor="middle" x="243" y="-45.5" font-family="Helvetica,sans-Serif" font-size="10.00">auto_setup</text>
</a>
</g>
</g>
<!-- Node2&#45;&gt;Node3 -->
<g id="edge2" class="edge"><title>Node2&#45;&gt;Node3</title>
<path fill="none" stroke="midnightblue" d="M183.189,-36.4207C191.665,-38.0895 200.597,-39.8482 208.87,-41.4771"/>
<polygon fill="midnightblue" stroke="midnightblue" points="183.641,-32.9425 173.153,-34.4446 182.288,-39.8106 183.641,-32.9425"/>
</g>
<!-- Node4 -->
<g id="node4" class="node"><title>Node4</title>
<g id="a_node4"><a xlink:href="gs_8c.html#a00292c49272fb485aaebf8c621982ad3" target="_top" xlink:title="gs_setup_aux">
<polygon fill="white" stroke="black" points="313,-19.5 313,-38.5 395,-38.5 395,-19.5 313,-19.5"/>
<text text-anchor="middle" x="354" y="-26.5" font-family="Helvetica,sans-Serif" font-size="10.00">gs_setup_aux</text>
</a>
</g>
</g>
<!-- Node2&#45;&gt;Node4 -->
<g id="edge6" class="edge"><title>Node2&#45;&gt;Node4</title>
<path fill="none" stroke="midnightblue" d="M183.33,-29C220.001,-29 275.426,-29 312.86,-29"/>
<polygon fill="midnightblue" stroke="midnightblue" points="183.054,-25.5001 173.054,-29 183.054,-32.5001 183.054,-25.5001"/>
</g>
<!-- Node3&#45;&gt;Node4 -->
<g id="edge3" class="edge"><title>Node3&#45;&gt;Node4</title>
<path fill="none" stroke="midnightblue" d="M287.255,-40.4601C295.616,-39.0027 304.346,-37.481 312.611,-36.0403"/>
<polygon fill="midnightblue" stroke="midnightblue" points="286.546,-37.0308 277.296,-42.1961 287.748,-43.9268 286.546,-37.0308"/>
</g>
<!-- Node5 -->
<g id="node5" class="node"><title>Node5</title>
<g id="a_node5"><a xlink:href="gs_8h.html#a8e2276986935df404e15f3121f00a601" target="_top" xlink:title="gs_setup">
<polygon fill="white" stroke="black" points="445,-38.5 445,-57.5 504,-57.5 504,-38.5 445,-38.5"/>
<text text-anchor="middle" x="474.5" y="-45.5" font-family="Helvetica,sans-Serif" font-size="10.00">gs_setup</text>
</a>
</g>
</g>
<!-- Node4&#45;&gt;Node5 -->
<g id="edge4" class="edge"><title>Node4&#45;&gt;Node5</title>
<path fill="none" stroke="midnightblue" d="M405.239,-37.0552C418.697,-39.2131 432.791,-41.4728 444.654,-43.3749"/>
<polygon fill="midnightblue" stroke="midnightblue" points="405.547,-33.5599 395.119,-35.4325 404.438,-40.4716 405.547,-33.5599"/>
</g>
<!-- Node6 -->
<g id="node6" class="node"><title>Node6</title>
<g id="a_node6"><a xlink:href="gs_8c.html#adff6aa371c7d8e16a6d5ec17697dd637" target="_top" xlink:title="fgs_setup_pick">
<polygon fill="white" stroke="black" points="431,-0.5 431,-19.5 518,-19.5 518,-0.5 431,-0.5"/>
<text text-anchor="middle" x="474.5" y="-7.5" font-family="Helvetica,sans-Serif" font-size="10.00">fgs_setup_pick</text>
</a>
</g>
</g>
<!-- Node4&#45;&gt;Node6 -->
<g id="edge5" class="edge"><title>Node4&#45;&gt;Node6</title>
<path fill="none" stroke="midnightblue" d="M405.076,-20.971C413.7,-19.5882 422.59,-18.1628 430.991,-16.8158"/>
<polygon fill="midnightblue" stroke="midnightblue" points="404.438,-17.5284 395.119,-22.5675 405.547,-24.4401 404.438,-17.5284"/>
</g>
</g>
</svg>
