<?xml version="1.0" encoding="UTF-8" standalone="no"?>
<!DOCTYPE svg PUBLIC "-//W3C//DTD SVG 1.1//EN"
 "http://www.w3.org/Graphics/SVG/1.1/DTD/svg11.dtd">
<!-- Generated by graphviz version 2.38.0 (20140413.2041)
 -->
<!-- Title: crl_work_init Pages: 1 -->
<svg width="638pt" height="66pt"
 viewBox="0.00 0.00 638.00 66.00" xmlns="http://www.w3.org/2000/svg" xmlns:xlink="http://www.w3.org/1999/xlink">
<g id="graph0" class="graph" transform="scale(1 1) rotate(0) translate(4 62)">
<title>crl_work_init</title>
<polygon fill="white" stroke="none" points="-4,4 -4,-62 634,-62 634,4 -4,4"/>
<!-- Node1 -->
<g id="node1" class="node"><title>Node1</title>
<polygon fill="#bfbfbf" stroke="black" points="0,-19.5 0,-38.5 76,-38.5 76,-19.5 0,-19.5"/>
<text text-anchor="middle" x="38" y="-26.5" font-family="Helvetica,sans-Serif" font-size="10.00">crl_work_init</text>
</g>
<!-- Node2 -->
<g id="node2" class="node"><title>Node2</title>
<g id="a_node2"><a xlink:href="gs_8c.html#a0568b4fc8a51b02975b2f0d7cfa600a5" target="_top" xlink:title="cr_setup_aux">
<polygon fill="white" stroke="black" points="112,-19.5 112,-38.5 192,-38.5 192,-19.5 112,-19.5"/>
<text text-anchor="middle" x="152" y="-26.5" font-family="Helvetica,sans-Serif" font-size="10.00">cr_setup_aux</text>
</a>
</g>
</g>
<!-- Node1&#45;&gt;Node2 -->
<g id="edge1" class="edge"><title>Node1&#45;&gt;Node2</title>
<path fill="none" stroke="midnightblue" d="M86.4688,-29C94.9635,-29 103.726,-29 111.951,-29"/>
<polygon fill="midnightblue" stroke="midnightblue" points="86.2944,-25.5001 76.2944,-29 86.2943,-32.5001 86.2944,-25.5001"/>
</g>
<!-- Node3 -->
<g id="node3" class="node"><title>Node3</title>
<g id="a_node3"><a xlink:href="gs_8c.html#a612756903fc8999d00a03d789a80aed3" target="_top" xlink:title="cr_setup">
<polygon fill="white" stroke="black" points="228,-19.5 228,-38.5 285,-38.5 285,-19.5 228,-19.5"/>
<text text-anchor="middle" x="256.5" y="-26.5" font-family="Helvetica,sans-Serif" font-size="10.00">cr_setup</text>
</a>
</g>
</g>
<!-- Node2&#45;&gt;Node3 -->
<g id="edge2" class="edge"><title>Node2&#45;&gt;Node3</title>
<path fill="none" stroke="midnightblue" d="M202.227,-29C210.985,-29 219.822,-29 227.712,-29"/>
<polygon fill="midnightblue" stroke="midnightblue" points="202.043,-25.5001 192.043,-29 202.043,-32.5001 202.043,-25.5001"/>
</g>
<!-- Node4 -->
<g id="node4" class="node"><title>Node4</title>
<g id="a_node4"><a xlink:href="gs_8c.html#acb4f807b2974fc4b6f2cf8f7505ed6ac" target="_top" xlink:title="auto_setup">
<polygon fill="white" stroke="black" points="321,-38.5 321,-57.5 389,-57.5 389,-38.5 321,-38.5"/>
<text text-anchor="middle" x="355" y="-45.5" font-family="Helvetica,sans-Serif" font-size="10.00">auto_setup</text>
</a>
</g>
</g>
<!-- Node3&#45;&gt;Node4 -->
<g id="edge3" class="edge"><title>Node3&#45;&gt;Node4</title>
<path fill="none" stroke="midnightblue" d="M295.189,-36.4207C303.665,-38.0895 312.597,-39.8482 320.87,-41.4771"/>
<polygon fill="midnightblue" stroke="midnightblue" points="295.641,-32.9425 285.153,-34.4446 294.288,-39.8106 295.641,-32.9425"/>
</g>
<!-- Node5 -->
<g id="node5" class="node"><title>Node5</title>
<g id="a_node5"><a xlink:href="gs_8c.html#a00292c49272fb485aaebf8c621982ad3" target="_top" xlink:title="gs_setup_aux">
<polygon fill="white" stroke="black" points="425,-19.5 425,-38.5 507,-38.5 507,-19.5 425,-19.5"/>
<text text-anchor="middle" x="466" y="-26.5" font-family="Helvetica,sans-Serif" font-size="10.00">gs_setup_aux</text>
</a>
</g>
</g>
<!-- Node3&#45;&gt;Node5 -->
<g id="edge7" class="edge"><title>Node3&#45;&gt;Node5</title>
<path fill="none" stroke="midnightblue" d="M295.33,-29C332.001,-29 387.426,-29 424.86,-29"/>
<polygon fill="midnightblue" stroke="midnightblue" points="295.054,-25.5001 285.054,-29 295.054,-32.5001 295.054,-25.5001"/>
</g>
<!-- Node4&#45;&gt;Node5 -->
<g id="edge4" class="edge"><title>Node4&#45;&gt;Node5</title>
<path fill="none" stroke="midnightblue" d="M399.255,-40.4601C407.616,-39.0027 416.346,-37.481 424.611,-36.0403"/>
<polygon fill="midnightblue" stroke="midnightblue" points="398.546,-37.0308 389.296,-42.1961 399.748,-43.9268 398.546,-37.0308"/>
</g>
<!-- Node6 -->
<g id="node6" class="node"><title>Node6</title>
<g id="a_node6"><a xlink:href="gs_8h.html#a8e2276986935df404e15f3121f00a601" target="_top" xlink:title="gs_setup">
<polygon fill="white" stroke="black" points="557,-38.5 557,-57.5 616,-57.5 616,-38.5 557,-38.5"/>
<text text-anchor="middle" x="586.5" y="-45.5" font-family="Helvetica,sans-Serif" font-size="10.00">gs_setup</text>
</a>
</g>
</g>
<!-- Node5&#45;&gt;Node6 -->
<g id="edge5" class="edge"><title>Node5&#45;&gt;Node6</title>
<path fill="none" stroke="midnightblue" d="M517.239,-37.0552C530.697,-39.2131 544.791,-41.4728 556.654,-43.3749"/>
<polygon fill="midnightblue" stroke="midnightblue" points="517.547,-33.5599 507.119,-35.4325 516.438,-40.4716 517.547,-33.5599"/>
</g>
<!-- Node7 -->
<g id="node7" class="node"><title>Node7</title>
<g id="a_node7"><a xlink:href="gs_8c.html#adff6aa371c7d8e16a6d5ec17697dd637" target="_top" xlink:title="fgs_setup_pick">
<polygon fill="white" stroke="black" points="543,-0.5 543,-19.5 630,-19.5 630,-0.5 543,-0.5"/>
<text text-anchor="middle" x="586.5" y="-7.5" font-family="Helvetica,sans-Serif" font-size="10.00">fgs_setup_pick</text>
</a>
</g>
</g>
<!-- Node5&#45;&gt;Node7 -->
<g id="edge6" class="edge"><title>Node5&#45;&gt;Node7</title>
<path fill="none" stroke="midnightblue" d="M517.076,-20.971C525.7,-19.5882 534.59,-18.1628 542.991,-16.8158"/>
<polygon fill="midnightblue" stroke="midnightblue" points="516.438,-17.5284 507.119,-22.5675 517.547,-24.4401 516.438,-17.5284"/>
</g>
</g>
</svg>
