<?xml version="1.0" encoding="UTF-8" standalone="no"?>
<!DOCTYPE svg PUBLIC "-//W3C//DTD SVG 1.1//EN"
 "http://www.w3.org/Graphics/SVG/1.1/DTD/svg11.dtd">
<!-- Generated by graphviz version 2.38.0 (20140413.2041)
 -->
<!-- Title: jl/gs.h Pages: 1 -->
<svg width="393pt" height="95pt"
 viewBox="0.00 0.00 393.00 95.00" xmlns="http://www.w3.org/2000/svg" xmlns:xlink="http://www.w3.org/1999/xlink">
<g id="graph0" class="graph" transform="scale(1 1) rotate(0) translate(4 91)">
<title>jl/gs.h</title>
<polygon fill="white" stroke="none" points="-4,4 -4,-91 389,-91 389,4 -4,4"/>
<!-- Node1 -->
<g id="node1" class="node"><title>Node1</title>
<polygon fill="#bfbfbf" stroke="black" points="193.5,-67.5 193.5,-86.5 237.5,-86.5 237.5,-67.5 193.5,-67.5"/>
<text text-anchor="middle" x="215.5" y="-74.5" font-family="Helvetica,sans-Serif" font-size="10.00">jl/gs.h</text>
</g>
<!-- Node2 -->
<g id="node2" class="node"><title>Node2</title>
<g id="a_node2"><a xlink:href="crs__test_8c.html" target="_top" xlink:title="jl/tests/crs_test.c">
<polygon fill="white" stroke="black" points="0,-6 0,-25 95,-25 95,-6 0,-6"/>
<text text-anchor="middle" x="47.5" y="-13" font-family="Helvetica,sans-Serif" font-size="10.00">jl/tests/crs_test.c</text>
</a>
</g>
</g>
<!-- Node1&#45;&gt;Node2 -->
<g id="edge1" class="edge"><title>Node1&#45;&gt;Node2</title>
<path fill="none" stroke="midnightblue" d="M183.662,-64.724C151.023,-53.1645 100.995,-35.4463 71.5326,-25.0116"/>
<polygon fill="midnightblue" stroke="midnightblue" points="182.596,-68.0595 193.191,-68.0989 184.933,-61.4611 182.596,-68.0595"/>
</g>
<!-- Node3 -->
<g id="node3" class="node"><title>Node3</title>
<g id="a_node3"><a xlink:href="gs__test_8c.html" target="_top" xlink:title="jl/tests/gs_test.c">
<polygon fill="white" stroke="black" points="113.5,-6 113.5,-25 205.5,-25 205.5,-6 113.5,-6"/>
<text text-anchor="middle" x="159.5" y="-13" font-family="Helvetica,sans-Serif" font-size="10.00">jl/tests/gs_test.c</text>
</a>
</g>
</g>
<!-- Node1&#45;&gt;Node3 -->
<g id="edge2" class="edge"><title>Node1&#45;&gt;Node3</title>
<path fill="none" stroke="midnightblue" d="M200.439,-59.9975C189.839,-48.7356 176.069,-34.1044 167.509,-25.0091"/>
<polygon fill="midnightblue" stroke="midnightblue" points="198.074,-62.5919 207.477,-67.4751 203.172,-57.7943 198.074,-62.5919"/>
</g>
<!-- Node4 -->
<g id="node4" class="node"><title>Node4</title>
<g id="a_node4"><a xlink:href="gs__unique__test_8c.html" target="_top" xlink:title="jl/tests/gs_unique\l_test.c">
<polygon fill="white" stroke="black" points="223.5,-0.5 223.5,-30.5 321.5,-30.5 321.5,-0.5 223.5,-0.5"/>
<text text-anchor="start" x="231.5" y="-18.5" font-family="Helvetica,sans-Serif" font-size="10.00">jl/tests/gs_unique</text>
<text text-anchor="middle" x="272.5" y="-7.5" font-family="Helvetica,sans-Serif" font-size="10.00">_test.c</text>
</a>
</g>
</g>
<!-- Node1&#45;&gt;Node4 -->
<g id="edge3" class="edge"><title>Node1&#45;&gt;Node4</title>
<path fill="none" stroke="midnightblue" d="M230.741,-60.0906C239.564,-50.8804 250.569,-39.3928 259.066,-30.523"/>
<polygon fill="midnightblue" stroke="midnightblue" points="228.057,-57.8327 223.667,-67.4751 233.112,-62.6751 228.057,-57.8327"/>
</g>
<!-- Node5 -->
<g id="node5" class="node"><title>Node5</title>
<g id="a_node5"><a xlink:href="xxt_8c.html" target="_top" xlink:title="jl/xxt.c">
<polygon fill="white" stroke="black" points="340,-6 340,-25 385,-25 385,-6 340,-6"/>
<text text-anchor="middle" x="362.5" y="-13" font-family="Helvetica,sans-Serif" font-size="10.00">jl/xxt.c</text>
</a>
</g>
</g>
<!-- Node1&#45;&gt;Node5 -->
<g id="edge4" class="edge"><title>Node1&#45;&gt;Node5</title>
<path fill="none" stroke="midnightblue" d="M247.04,-64.1699C270.249,-55.3406 302.499,-42.8127 330.5,-31 334.883,-29.1508 339.566,-27.0823 343.959,-25.0999"/>
<polygon fill="midnightblue" stroke="midnightblue" points="245.796,-60.8982 237.685,-67.7146 248.276,-67.444 245.796,-60.8982"/>
</g>
</g>
</svg>
