<?xml version="1.0" encoding="UTF-8" standalone="no"?>
<!DOCTYPE svg PUBLIC "-//W3C//DTD SVG 1.1//EN"
 "http://www.w3.org/Graphics/SVG/1.1/DTD/svg11.dtd">
<!-- Generated by graphviz version 2.38.0 (20140413.2041)
 -->
<!-- Title: gs_vec Pages: 1 -->
<svg width="259pt" height="142pt"
 viewBox="0.00 0.00 259.00 142.00" xmlns="http://www.w3.org/2000/svg" xmlns:xlink="http://www.w3.org/1999/xlink">
<g id="graph0" class="graph" transform="scale(1 1) rotate(0) translate(4 138)">
<title>gs_vec</title>
<polygon fill="white" stroke="none" points="-4,4 -4,-138 255,-138 255,4 -4,4"/>
<!-- Node1 -->
<g id="node1" class="node"><title>Node1</title>
<polygon fill="#bfbfbf" stroke="black" points="0,-57.5 0,-76.5 50,-76.5 50,-57.5 0,-57.5"/>
<text text-anchor="middle" x="25" y="-64.5" font-family="Helvetica,sans-Serif" font-size="10.00">gs_vec</text>
</g>
<!-- Node2 -->
<g id="node2" class="node"><title>Node2</title>
<g id="a_node2"><a xlink:href="gs_8c.html#a1b5c8f07cd891037e6a5aec1bf3b8cdc" target="_top" xlink:title="gs_aux">
<polygon fill="white" stroke="black" points="86,-57.5 86,-76.5 136,-76.5 136,-57.5 86,-57.5"/>
<text text-anchor="middle" x="111" y="-64.5" font-family="Helvetica,sans-Serif" font-size="10.00">gs_aux</text>
</a>
</g>
</g>
<!-- Node1&#45;&gt;Node2 -->
<g id="edge1" class="edge"><title>Node1&#45;&gt;Node2</title>
<path fill="none" stroke="midnightblue" d="M50.2963,-67C58.2192,-67 67.171,-67 75.6864,-67"/>
<polygon fill="midnightblue" stroke="midnightblue" points="75.7584,-70.5001 85.7583,-67 75.7583,-63.5001 75.7584,-70.5001"/>
</g>
<!-- Node3 -->
<g id="node3" class="node"><title>Node3</title>
<g id="a_node3"><a xlink:href="gs_8c.html#a6258675e209794fa9bced9bcf2c93a05" target="_top" xlink:title="gather_noop">
<polygon fill="white" stroke="black" points="173,-114.5 173,-133.5 250,-133.5 250,-114.5 173,-114.5"/>
<text text-anchor="middle" x="211.5" y="-121.5" font-family="Helvetica,sans-Serif" font-size="10.00">gather_noop</text>
</a>
</g>
</g>
<!-- Node2&#45;&gt;Node3 -->
<g id="edge2" class="edge"><title>Node2&#45;&gt;Node3</title>
<path fill="none" stroke="midnightblue" d="M126.53,-76.8138C138.52,-84.7626 156.087,-96.0676 172,-105 174.86,-106.605 177.874,-108.22 180.905,-109.794"/>
<polygon fill="midnightblue" stroke="midnightblue" points="179.406,-112.958 189.91,-114.34 182.561,-106.709 179.406,-112.958"/>
</g>
<!-- Node4 -->
<g id="node4" class="node"><title>Node4</title>
<g id="a_node4"><a xlink:href="gs_8c.html#ad5331e5cd9b285f730642ba944f1f21c" target="_top" xlink:title="init_noop">
<polygon fill="white" stroke="black" points="181.5,-76.5 181.5,-95.5 241.5,-95.5 241.5,-76.5 181.5,-76.5"/>
<text text-anchor="middle" x="211.5" y="-83.5" font-family="Helvetica,sans-Serif" font-size="10.00">init_noop</text>
</a>
</g>
</g>
<!-- Node2&#45;&gt;Node4 -->
<g id="edge3" class="edge"><title>Node2&#45;&gt;Node4</title>
<path fill="none" stroke="midnightblue" d="M136.096,-71.6479C146.668,-73.6872 159.354,-76.1343 171.232,-78.4254"/>
<polygon fill="midnightblue" stroke="midnightblue" points="170.906,-81.9271 181.388,-80.3845 172.232,-75.0538 170.906,-81.9271"/>
</g>
<!-- Node5 -->
<g id="node5" class="node"><title>Node5</title>
<g id="a_node5"><a xlink:href="gs_8c.html#acdf12fed77e0cd5cd272b5fca576d495" target="_top" xlink:title="scatter_noop">
<polygon fill="white" stroke="black" points="172,-38.5 172,-57.5 251,-57.5 251,-38.5 172,-38.5"/>
<text text-anchor="middle" x="211.5" y="-45.5" font-family="Helvetica,sans-Serif" font-size="10.00">scatter_noop</text>
</a>
</g>
</g>
<!-- Node2&#45;&gt;Node5 -->
<g id="edge4" class="edge"><title>Node2&#45;&gt;Node5</title>
<path fill="none" stroke="midnightblue" d="M136.096,-62.3521C143.875,-60.8514 152.8,-59.13 161.704,-57.4124"/>
<polygon fill="midnightblue" stroke="midnightblue" points="162.531,-60.8175 171.687,-55.4867 161.205,-53.9442 162.531,-60.8175"/>
</g>
<!-- Node6 -->
<g id="node6" class="node"><title>Node6</title>
<g id="a_node6"><a xlink:href="navier1_8F90.html#a17c0ecae12cc5c6096939885da90ad2b" target="_top" xlink:title="transpose">
<polygon fill="white" stroke="black" points="179.5,-0.5 179.5,-19.5 243.5,-19.5 243.5,-0.5 179.5,-0.5"/>
<text text-anchor="middle" x="211.5" y="-7.5" font-family="Helvetica,sans-Serif" font-size="10.00">transpose</text>
</a>
</g>
</g>
<!-- Node2&#45;&gt;Node6 -->
<g id="edge5" class="edge"><title>Node2&#45;&gt;Node6</title>
<path fill="none" stroke="midnightblue" d="M126.53,-57.1862C138.52,-49.2374 156.087,-37.9324 172,-29 174.86,-27.3947 177.874,-25.7799 180.905,-24.2063"/>
<polygon fill="midnightblue" stroke="midnightblue" points="182.561,-27.2912 189.91,-19.66 179.406,-21.0424 182.561,-27.2912"/>
</g>
</g>
</svg>
