<?xml version="1.0" encoding="UTF-8" standalone="no"?>
<!DOCTYPE svg PUBLIC "-//W3C//DTD SVG 1.1//EN"
 "http://www.w3.org/Graphics/SVG/1.1/DTD/svg11.dtd">
<!-- Generated by graphviz version 2.38.0 (20140413.2041)
 -->
<!-- Title: shared_ids Pages: 1 -->
<svg width="432pt" height="85pt"
 viewBox="0.00 0.00 432.00 85.00" xmlns="http://www.w3.org/2000/svg" xmlns:xlink="http://www.w3.org/1999/xlink">
<g id="graph0" class="graph" transform="scale(1 1) rotate(0) translate(4 81)">
<title>shared_ids</title>
<polygon fill="white" stroke="none" points="-4,4 -4,-81 428,-81 428,4 -4,4"/>
<!-- Node1 -->
<g id="node1" class="node"><title>Node1</title>
<polygon fill="#bfbfbf" stroke="black" points="0,-19.5 0,-38.5 69,-38.5 69,-19.5 0,-19.5"/>
<text text-anchor="middle" x="34.5" y="-26.5" font-family="Helvetica,sans-Serif" font-size="10.00">shared_ids</text>
</g>
<!-- Node2 -->
<g id="node2" class="node"><title>Node2</title>
<g id="a_node2"><a xlink:href="gs_8c.html#acfd245293a8345bc0f7d6951e42d57cd" target="_top" xlink:title="get_topology">
<polygon fill="white" stroke="black" points="105,-19.5 105,-38.5 183,-38.5 183,-19.5 105,-19.5"/>
<text text-anchor="middle" x="144" y="-26.5" font-family="Helvetica,sans-Serif" font-size="10.00">get_topology</text>
</a>
</g>
</g>
<!-- Node1&#45;&gt;Node2 -->
<g id="edge1" class="edge"><title>Node1&#45;&gt;Node2</title>
<path fill="none" stroke="midnightblue" d="M79.3317,-29C87.8098,-29 96.629,-29 104.906,-29"/>
<polygon fill="midnightblue" stroke="midnightblue" points="79.2188,-25.5001 69.2187,-29 79.2187,-32.5001 79.2188,-25.5001"/>
</g>
<!-- Node3 -->
<g id="node3" class="node"><title>Node3</title>
<g id="a_node3"><a xlink:href="gs_8c.html#a00292c49272fb485aaebf8c621982ad3" target="_top" xlink:title="gs_setup_aux">
<polygon fill="white" stroke="black" points="219,-38.5 219,-57.5 301,-57.5 301,-38.5 219,-38.5"/>
<text text-anchor="middle" x="260" y="-45.5" font-family="Helvetica,sans-Serif" font-size="10.00">gs_setup_aux</text>
</a>
</g>
</g>
<!-- Node2&#45;&gt;Node3 -->
<g id="edge2" class="edge"><title>Node2&#45;&gt;Node3</title>
<path fill="none" stroke="midnightblue" d="M193.38,-37.0633C201.808,-38.4681 210.494,-39.9157 218.678,-41.2796"/>
<polygon fill="midnightblue" stroke="midnightblue" points="193.717,-33.5713 183.277,-35.3796 192.566,-40.476 193.717,-33.5713"/>
</g>
<!-- Node6 -->
<g id="node6" class="node"><title>Node6</title>
<g id="a_node6"><a xlink:href="gs_8h.html#a6f3cc4b661b2d2292b128e28a6be1d10" target="_top" xlink:title="gs_unique">
<polygon fill="white" stroke="black" points="227.5,-0.5 227.5,-19.5 292.5,-19.5 292.5,-0.5 227.5,-0.5"/>
<text text-anchor="middle" x="260" y="-7.5" font-family="Helvetica,sans-Serif" font-size="10.00">gs_unique</text>
</a>
</g>
</g>
<!-- Node2&#45;&gt;Node6 -->
<g id="edge5" class="edge"><title>Node2&#45;&gt;Node6</title>
<path fill="none" stroke="midnightblue" d="M193.263,-20.9562C204.826,-19.029 216.88,-17.02 227.461,-15.2565"/>
<polygon fill="midnightblue" stroke="midnightblue" points="192.566,-17.524 183.277,-22.6204 193.717,-24.4287 192.566,-17.524"/>
</g>
<!-- Node4 -->
<g id="node4" class="node"><title>Node4</title>
<g id="a_node4"><a xlink:href="gs_8c.html#adff6aa371c7d8e16a6d5ec17697dd637" target="_top" xlink:title="fgs_setup_pick">
<polygon fill="white" stroke="black" points="337,-57.5 337,-76.5 424,-76.5 424,-57.5 337,-57.5"/>
<text text-anchor="middle" x="380.5" y="-64.5" font-family="Helvetica,sans-Serif" font-size="10.00">fgs_setup_pick</text>
</a>
</g>
</g>
<!-- Node3&#45;&gt;Node4 -->
<g id="edge3" class="edge"><title>Node3&#45;&gt;Node4</title>
<path fill="none" stroke="midnightblue" d="M311.076,-56.029C319.7,-57.4118 328.59,-58.8372 336.991,-60.1842"/>
<polygon fill="midnightblue" stroke="midnightblue" points="311.547,-52.5599 301.119,-54.4325 310.438,-59.4716 311.547,-52.5599"/>
</g>
<!-- Node5 -->
<g id="node5" class="node"><title>Node5</title>
<g id="a_node5"><a xlink:href="gs_8h.html#a8e2276986935df404e15f3121f00a601" target="_top" xlink:title="gs_setup">
<polygon fill="white" stroke="black" points="351,-19.5 351,-38.5 410,-38.5 410,-19.5 351,-19.5"/>
<text text-anchor="middle" x="380.5" y="-26.5" font-family="Helvetica,sans-Serif" font-size="10.00">gs_setup</text>
</a>
</g>
</g>
<!-- Node3&#45;&gt;Node5 -->
<g id="edge4" class="edge"><title>Node3&#45;&gt;Node5</title>
<path fill="none" stroke="midnightblue" d="M311.239,-39.9448C324.697,-37.7869 338.791,-35.5272 350.654,-33.6251"/>
<polygon fill="midnightblue" stroke="midnightblue" points="310.438,-36.5284 301.119,-41.5675 311.547,-43.4401 310.438,-36.5284"/>
</g>
</g>
</svg>
