<?xml version="1.0" encoding="UTF-8" standalone="no"?>
<!DOCTYPE svg PUBLIC "-//W3C//DTD SVG 1.1//EN"
 "http://www.w3.org/Graphics/SVG/1.1/DTD/svg11.dtd">
<!-- Generated by graphviz version 2.38.0 (20140413.2041)
 -->
<!-- Title: jl/gs_defs.h Pages: 1 -->
<svg width="958pt" height="95pt"
 viewBox="0.00 0.00 958.00 95.00" xmlns="http://www.w3.org/2000/svg" xmlns:xlink="http://www.w3.org/1999/xlink">
<g id="graph0" class="graph" transform="scale(1 1) rotate(0) translate(4 91)">
<title>jl/gs_defs.h</title>
<polygon fill="white" stroke="none" points="-4,4 -4,-91 954,-91 954,4 -4,4"/>
<!-- Node1 -->
<g id="node1" class="node"><title>Node1</title>
<polygon fill="#bfbfbf" stroke="black" points="387.5,-67.5 387.5,-86.5 457.5,-86.5 457.5,-67.5 387.5,-67.5"/>
<text text-anchor="middle" x="422.5" y="-74.5" font-family="Helvetica,sans-Serif" font-size="10.00">jl/gs_defs.h</text>
</g>
<!-- Node2 -->
<g id="node2" class="node"><title>Node2</title>
<g id="a_node2"><a xlink:href="comm_8c.html" target="_top" xlink:title="jl/comm.c">
<polygon fill="white" stroke="black" points="0,-6 0,-25 59,-25 59,-6 0,-6"/>
<text text-anchor="middle" x="29.5" y="-13" font-family="Helvetica,sans-Serif" font-size="10.00">jl/comm.c</text>
</a>
</g>
</g>
<!-- Node1&#45;&gt;Node2 -->
<g id="edge1" class="edge"><title>Node1&#45;&gt;Node2</title>
<path fill="none" stroke="midnightblue" d="M377.103,-73.712C308.969,-69.5039 176.618,-58.3177 67.5,-31 61.4722,-29.4909 55.0982,-27.306 49.3284,-25.0881"/>
<polygon fill="midnightblue" stroke="midnightblue" points="377.283,-77.2288 387.473,-74.3289 377.699,-70.2412 377.283,-77.2288"/>
</g>
<!-- Node3 -->
<g id="node3" class="node"><title>Node3</title>
<g id="a_node3"><a xlink:href="findpts_8c.html" target="_top" xlink:title="jl/findpts.c">
<polygon fill="white" stroke="black" points="77,-6 77,-25 140,-25 140,-6 77,-6"/>
<text text-anchor="middle" x="108.5" y="-13" font-family="Helvetica,sans-Serif" font-size="10.00">jl/findpts.c</text>
</a>
</g>
</g>
<!-- Node1&#45;&gt;Node3 -->
<g id="edge2" class="edge"><title>Node1&#45;&gt;Node3</title>
<path fill="none" stroke="midnightblue" d="M377.396,-71.1875C322.651,-64.7538 227.815,-51.6986 148.5,-31 142.353,-29.3959 135.822,-27.2332 129.859,-25.0682"/>
<polygon fill="midnightblue" stroke="midnightblue" points="377.131,-74.6801 387.466,-72.3492 377.933,-67.7262 377.131,-74.6801"/>
</g>
<!-- Node4 -->
<g id="node4" class="node"><title>Node4</title>
<g id="a_node4"><a xlink:href="gs_8c.html" target="_top" xlink:title="jl/gs.c">
<polygon fill="white" stroke="black" points="158,-6 158,-25 201,-25 201,-6 158,-6"/>
<text text-anchor="middle" x="179.5" y="-13" font-family="Helvetica,sans-Serif" font-size="10.00">jl/gs.c</text>
</a>
</g>
</g>
<!-- Node1&#45;&gt;Node4 -->
<g id="edge3" class="edge"><title>Node1&#45;&gt;Node4</title>
<path fill="none" stroke="midnightblue" d="M377.471,-69.7331C333.769,-62.8983 265.955,-50.2876 209.5,-31 204.792,-29.3916 199.862,-27.2275 195.39,-25.0625"/>
<polygon fill="midnightblue" stroke="midnightblue" points="377.085,-73.2146 387.499,-71.266 378.143,-66.295 377.085,-73.2146"/>
</g>
<!-- Node5 -->
<g id="node5" class="node"><title>Node5</title>
<g id="a_node5"><a xlink:href="gs__local_8c.html" target="_top" xlink:title="jl/gs_local.c">
<polygon fill="white" stroke="black" points="219,-6 219,-25 290,-25 290,-6 219,-6"/>
<text text-anchor="middle" x="254.5" y="-13" font-family="Helvetica,sans-Serif" font-size="10.00">jl/gs_local.c</text>
</a>
</g>
</g>
<!-- Node1&#45;&gt;Node5 -->
<g id="edge4" class="edge"><title>Node1&#45;&gt;Node5</title>
<path fill="none" stroke="midnightblue" d="M388.851,-64.0828C356.195,-52.517 307.448,-35.2524 278.526,-25.0091"/>
<polygon fill="midnightblue" stroke="midnightblue" points="387.835,-67.4358 398.43,-67.4751 390.172,-60.8374 387.835,-67.4358"/>
</g>
<!-- Node6 -->
<g id="node6" class="node"><title>Node6</title>
<g id="a_node6"><a xlink:href="comm__test_8c.html" target="_top" xlink:title="jl/tests/comm_test.c">
<polygon fill="white" stroke="black" points="308.5,-6 308.5,-25 416.5,-25 416.5,-6 308.5,-6"/>
<text text-anchor="middle" x="362.5" y="-13" font-family="Helvetica,sans-Serif" font-size="10.00">jl/tests/comm_test.c</text>
</a>
</g>
</g>
<!-- Node1&#45;&gt;Node6 -->
<g id="edge5" class="edge"><title>Node1&#45;&gt;Node6</title>
<path fill="none" stroke="midnightblue" d="M406.693,-60.3245C395.293,-49.0202 380.341,-34.1928 371.081,-25.0091"/>
<polygon fill="midnightblue" stroke="midnightblue" points="404.338,-62.9189 413.903,-67.4751 409.267,-57.9484 404.338,-62.9189"/>
</g>
<!-- Node7 -->
<g id="node7" class="node"><title>Node7</title>
<g id="a_node7"><a xlink:href="crs__test_8c.html" target="_top" xlink:title="jl/tests/crs_test.c">
<polygon fill="white" stroke="black" points="435,-6 435,-25 530,-25 530,-6 435,-6"/>
<text text-anchor="middle" x="482.5" y="-13" font-family="Helvetica,sans-Serif" font-size="10.00">jl/tests/crs_test.c</text>
</a>
</g>
</g>
<!-- Node1&#45;&gt;Node7 -->
<g id="edge6" class="edge"><title>Node1&#45;&gt;Node7</title>
<path fill="none" stroke="midnightblue" d="M438.307,-60.3245C449.707,-49.0202 464.659,-34.1928 473.919,-25.0091"/>
<polygon fill="midnightblue" stroke="midnightblue" points="435.733,-57.9484 431.097,-67.4751 440.662,-62.9189 435.733,-57.9484"/>
</g>
<!-- Node8 -->
<g id="node8" class="node"><title>Node8</title>
<g id="a_node8"><a xlink:href="findpts__test_8c.html" target="_top" xlink:title="jl/tests/findpts_test.c">
<polygon fill="white" stroke="black" points="548.5,-6 548.5,-25 660.5,-25 660.5,-6 548.5,-6"/>
<text text-anchor="middle" x="604.5" y="-13" font-family="Helvetica,sans-Serif" font-size="10.00">jl/tests/findpts_test.c</text>
</a>
</g>
</g>
<!-- Node1&#45;&gt;Node8 -->
<g id="edge7" class="edge"><title>Node1&#45;&gt;Node8</title>
<path fill="none" stroke="midnightblue" d="M458.496,-64.232C493.875,-52.666 547.005,-35.2966 578.472,-25.0091"/>
<polygon fill="midnightblue" stroke="midnightblue" points="456.994,-61.0409 448.576,-67.4751 459.169,-67.6944 456.994,-61.0409"/>
</g>
<!-- Node9 -->
<g id="node9" class="node"><title>Node9</title>
<g id="a_node9"><a xlink:href="gs__test_8c.html" target="_top" xlink:title="jl/tests/gs_test.c">
<polygon fill="white" stroke="black" points="678.5,-6 678.5,-25 770.5,-25 770.5,-6 678.5,-6"/>
<text text-anchor="middle" x="724.5" y="-13" font-family="Helvetica,sans-Serif" font-size="10.00">jl/tests/gs_test.c</text>
</a>
</g>
</g>
<!-- Node1&#45;&gt;Node9 -->
<g id="edge8" class="edge"><title>Node1&#45;&gt;Node9</title>
<path fill="none" stroke="midnightblue" d="M467.953,-68.8052C517.667,-60.6836 599.59,-46.5591 669.5,-31 677.404,-29.2409 685.888,-27.121 693.768,-25.052"/>
<polygon fill="midnightblue" stroke="midnightblue" points="467.159,-65.3882 457.849,-70.4455 468.281,-72.2977 467.159,-65.3882"/>
</g>
<!-- Node10 -->
<g id="node10" class="node"><title>Node10</title>
<g id="a_node10"><a xlink:href="gs__unique__test_8c.html" target="_top" xlink:title="jl/tests/gs_unique\l_test.c">
<polygon fill="white" stroke="black" points="788.5,-0.5 788.5,-30.5 886.5,-30.5 886.5,-0.5 788.5,-0.5"/>
<text text-anchor="start" x="796.5" y="-18.5" font-family="Helvetica,sans-Serif" font-size="10.00">jl/tests/gs_unique</text>
<text text-anchor="middle" x="837.5" y="-7.5" font-family="Helvetica,sans-Serif" font-size="10.00">_test.c</text>
</a>
</g>
</g>
<!-- Node1&#45;&gt;Node10 -->
<g id="edge9" class="edge"><title>Node1&#45;&gt;Node10</title>
<path fill="none" stroke="midnightblue" d="M468.05,-72.0185C536.173,-65.6673 668.47,-51.7993 779.5,-31 782.357,-30.4649 785.282,-29.8734 788.227,-29.2442"/>
<polygon fill="midnightblue" stroke="midnightblue" points="467.318,-68.571 457.681,-72.9732 467.96,-75.5415 467.318,-68.571"/>
</g>
<!-- Node11 -->
<g id="node11" class="node"><title>Node11</title>
<g id="a_node11"><a xlink:href="xxt_8c.html" target="_top" xlink:title="jl/xxt.c">
<polygon fill="white" stroke="black" points="905,-6 905,-25 950,-25 950,-6 905,-6"/>
<text text-anchor="middle" x="927.5" y="-13" font-family="Helvetica,sans-Serif" font-size="10.00">jl/xxt.c</text>
</a>
</g>
</g>
<!-- Node1&#45;&gt;Node11 -->
<g id="edge10" class="edge"><title>Node1&#45;&gt;Node11</title>
<path fill="none" stroke="midnightblue" d="M467.72,-76.6073C552.928,-76.6817 742.457,-71.7375 895.5,-31 900.805,-29.588 906.335,-27.3767 911.276,-25.1025"/>
<polygon fill="midnightblue" stroke="midnightblue" points="467.624,-73.1071 457.613,-76.5741 467.601,-80.1071 467.624,-73.1071"/>
</g>
</g>
</svg>
