<?xml version="1.0" encoding="UTF-8" standalone="no"?>
<!DOCTYPE svg PUBLIC "-//W3C//DTD SVG 1.1//EN"
 "http://www.w3.org/Graphics/SVG/1.1/DTD/svg11.dtd">
<!-- Generated by graphviz version 2.38.0 (20140413.2041)
 -->
<!-- Title: generalev Pages: 1 -->
<svg width="411pt" height="218pt"
 viewBox="0.00 0.00 411.00 218.00" xmlns="http://www.w3.org/2000/svg" xmlns:xlink="http://www.w3.org/1999/xlink">
<g id="graph0" class="graph" transform="scale(1 1) rotate(0) translate(4 214)">
<title>generalev</title>
<polygon fill="white" stroke="none" points="-4,4 -4,-214 407,-214 407,4 -4,4"/>
<!-- Node1 -->
<g id="node1" class="node"><title>Node1</title>
<polygon fill="#bfbfbf" stroke="black" points="0,-95.5 0,-114.5 64,-114.5 64,-95.5 0,-95.5"/>
<text text-anchor="middle" x="32" y="-102.5" font-family="Helvetica,sans-Serif" font-size="10.00">generalev</text>
</g>
<!-- Node2 -->
<g id="node2" class="node"><title>Node2</title>
<g id="a_node2"><a xlink:href="math_8F90.html#a3b43508554f14bdea8e14473d7d0803c" target="_top" xlink:title="copy">
<polygon fill="white" stroke="black" points="107.5,-133.5 107.5,-152.5 146.5,-152.5 146.5,-133.5 107.5,-133.5"/>
<text text-anchor="middle" x="127" y="-140.5" font-family="Helvetica,sans-Serif" font-size="10.00">copy</text>
</a>
</g>
</g>
<!-- Node1&#45;&gt;Node2 -->
<g id="edge1" class="edge"><title>Node1&#45;&gt;Node2</title>
<path fill="none" stroke="midnightblue" d="M56.4678,-114.589C68.9886,-119.705 84.4901,-126.039 97.6769,-131.427"/>
<polygon fill="midnightblue" stroke="midnightblue" points="96.6411,-134.785 107.222,-135.327 99.2889,-128.305 96.6411,-134.785"/>
</g>
<!-- Node3 -->
<g id="node3" class="node"><title>Node3</title>
<g id="a_node3"><a xlink:href="byte_8c.html#a2da8eeb074dfd3ffbfb3e9a4d301cda4" target="_top" xlink:title="exitt">
<polygon fill="white" stroke="black" points="109,-95.5 109,-114.5 145,-114.5 145,-95.5 109,-95.5"/>
<text text-anchor="middle" x="127" y="-102.5" font-family="Helvetica,sans-Serif" font-size="10.00">exitt</text>
</a>
</g>
</g>
<!-- Node1&#45;&gt;Node3 -->
<g id="edge2" class="edge"><title>Node1&#45;&gt;Node3</title>
<path fill="none" stroke="midnightblue" d="M64.2264,-105C75.3869,-105 87.868,-105 98.6742,-105"/>
<polygon fill="midnightblue" stroke="midnightblue" points="98.8111,-108.5 108.811,-105 98.8111,-101.5 98.8111,-108.5"/>
</g>
<!-- Node13 -->
<g id="node13" class="node"><title>Node13</title>
<g id="a_node13"><a xlink:href="hmholtz_8F90.html#a0c12437d60cdcc0814b9bd6af2040c58" target="_top" xlink:title="outmat2">
<polygon fill="white" stroke="black" points="100,-57.5 100,-76.5 154,-76.5 154,-57.5 100,-57.5"/>
<text text-anchor="middle" x="127" y="-64.5" font-family="Helvetica,sans-Serif" font-size="10.00">outmat2</text>
</a>
</g>
</g>
<!-- Node1&#45;&gt;Node13 -->
<g id="edge12" class="edge"><title>Node1&#45;&gt;Node13</title>
<path fill="none" stroke="midnightblue" d="M56.4678,-95.411C67.5921,-90.8656 81.0692,-85.3588 93.1854,-80.4081"/>
<polygon fill="midnightblue" stroke="midnightblue" points="94.6065,-83.6084 102.54,-76.5859 91.9587,-77.1285 94.6065,-83.6084"/>
</g>
<!-- Node4 -->
<g id="node4" class="node"><title>Node4</title>
<g id="a_node4"><a xlink:href="classctimer.html#abcecbc845c8ee72e13a19eaa30b80d77" target="_top" xlink:title="ctimer::dnekclock">
<polygon fill="white" stroke="black" points="190,-190.5 190,-209.5 287,-209.5 287,-190.5 190,-190.5"/>
<text text-anchor="middle" x="238.5" y="-197.5" font-family="Helvetica,sans-Serif" font-size="10.00">ctimer::dnekclock</text>
</a>
</g>
</g>
<!-- Node3&#45;&gt;Node4 -->
<g id="edge3" class="edge"><title>Node3&#45;&gt;Node4</title>
<path fill="none" stroke="midnightblue" d="M143.097,-114.559C146.892,-117.344 150.794,-120.569 154,-124 174.457,-145.893 166.968,-161.835 190,-181 191.971,-182.64 194.102,-184.152 196.332,-185.544"/>
<polygon fill="midnightblue" stroke="midnightblue" points="194.821,-188.705 205.29,-190.333 198.121,-182.532 194.821,-188.705"/>
</g>
<!-- Node6 -->
<g id="node6" class="node"><title>Node6</title>
<g id="a_node6"><a xlink:href="subs1_8F90.html#a339739b88994e5bb12bd923147f94983" target="_top" xlink:title="flush_io">
<polygon fill="white" stroke="black" points="212,-152.5 212,-171.5 265,-171.5 265,-152.5 212,-152.5"/>
<text text-anchor="middle" x="238.5" y="-159.5" font-family="Helvetica,sans-Serif" font-size="10.00">flush_io</text>
</a>
</g>
</g>
<!-- Node3&#45;&gt;Node6 -->
<g id="edge5" class="edge"><title>Node3&#45;&gt;Node6</title>
<path fill="none" stroke="midnightblue" d="M142.381,-114.781C154.698,-122.919 173.075,-134.505 190,-143 193.84,-144.927 197.925,-146.805 202.025,-148.582"/>
<polygon fill="midnightblue" stroke="midnightblue" points="200.934,-151.919 211.511,-152.525 203.62,-145.455 200.934,-151.919"/>
</g>
<!-- Node7 -->
<g id="node7" class="node"><title>Node7</title>
<g id="a_node7"><a xlink:href="singlmesh_8F90.html#aef78ff219741b83c1ca784b869e9cacf" target="_top" xlink:title="Dummy for singlmesh. ">
<polygon fill="white" stroke="black" points="198.5,-114.5 198.5,-133.5 278.5,-133.5 278.5,-114.5 198.5,-114.5"/>
<text text-anchor="middle" x="238.5" y="-121.5" font-family="Helvetica,sans-Serif" font-size="10.00">happy_check</text>
</a>
</g>
</g>
<!-- Node3&#45;&gt;Node7 -->
<g id="edge6" class="edge"><title>Node3&#45;&gt;Node7</title>
<path fill="none" stroke="midnightblue" d="M145.109,-107.969C156.754,-109.989 172.802,-112.774 188.258,-115.456"/>
<polygon fill="midnightblue" stroke="midnightblue" points="187.826,-118.933 198.277,-117.194 189.023,-112.036 187.826,-118.933"/>
</g>
<!-- Node8 -->
<g id="node8" class="node"><title>Node8</title>
<g id="a_node8"><a xlink:href="mpi__dummy_8F90.html#a55e9a1619aadb638b14211ce21d7d566" target="_top" xlink:title="mpi_finalize">
<polygon fill="white" stroke="black" points="202.5,-76.5 202.5,-95.5 274.5,-95.5 274.5,-76.5 202.5,-76.5"/>
<text text-anchor="middle" x="238.5" y="-83.5" font-family="Helvetica,sans-Serif" font-size="10.00">mpi_finalize</text>
</a>
</g>
</g>
<!-- Node3&#45;&gt;Node8 -->
<g id="edge7" class="edge"><title>Node3&#45;&gt;Node8</title>
<path fill="none" stroke="midnightblue" d="M145.109,-102.031C157.762,-99.8359 175.612,-96.7386 192.253,-93.851"/>
<polygon fill="midnightblue" stroke="midnightblue" points="193.147,-97.2483 202.402,-92.0901 191.951,-90.3513 193.147,-97.2483"/>
</g>
<!-- Node9 -->
<g id="node9" class="node"><title>Node9</title>
<g id="a_node9"><a xlink:href="papi_8F90.html#a3a75ccdfbe05912fda48c3b134d114c0" target="_top" xlink:title="nek_flops">
<polygon fill="white" stroke="black" points="207.5,-38.5 207.5,-57.5 269.5,-57.5 269.5,-38.5 207.5,-38.5"/>
<text text-anchor="middle" x="238.5" y="-45.5" font-family="Helvetica,sans-Serif" font-size="10.00">nek_flops</text>
</a>
</g>
</g>
<!-- Node3&#45;&gt;Node9 -->
<g id="edge8" class="edge"><title>Node3&#45;&gt;Node9</title>
<path fill="none" stroke="midnightblue" d="M142.381,-95.2195C154.698,-87.0811 173.075,-75.4949 190,-67 193.751,-65.1175 197.735,-63.2826 201.739,-61.5419"/>
<polygon fill="midnightblue" stroke="midnightblue" points="203.134,-64.7525 211.016,-57.6732 200.44,-58.2917 203.134,-64.7525"/>
</g>
<!-- Node11 -->
<g id="node11" class="node"><title>Node11</title>
<g id="a_node11"><a xlink:href="comm__mpi_8F90.html#a4acb4d8e379294232e9219bec063d8f3" target="_top" xlink:title="nekgsync">
<polygon fill="white" stroke="black" points="207.5,-0.5 207.5,-19.5 269.5,-19.5 269.5,-0.5 207.5,-0.5"/>
<text text-anchor="middle" x="238.5" y="-7.5" font-family="Helvetica,sans-Serif" font-size="10.00">nekgsync</text>
</a>
</g>
</g>
<!-- Node3&#45;&gt;Node11 -->
<g id="edge10" class="edge"><title>Node3&#45;&gt;Node11</title>
<path fill="none" stroke="midnightblue" d="M143.097,-95.4413C146.892,-92.6565 150.794,-89.4313 154,-86 174.457,-64.1075 166.968,-48.1647 190,-29 192.526,-26.8981 195.314,-25.0068 198.236,-23.3093"/>
<polygon fill="midnightblue" stroke="midnightblue" points="199.901,-26.39 207.273,-18.7808 196.765,-20.1317 199.901,-26.39"/>
</g>
<!-- Node5 -->
<g id="node5" class="node"><title>Node5</title>
<g id="a_node5"><a xlink:href="mpi__dummy_8F90.html#ae6a5ef945f87c2c27849696b70f3af2a" target="_top" xlink:title="mpi_wtime">
<polygon fill="white" stroke="black" points="330,-190.5 330,-209.5 396,-209.5 396,-190.5 330,-190.5"/>
<text text-anchor="middle" x="363" y="-197.5" font-family="Helvetica,sans-Serif" font-size="10.00">mpi_wtime</text>
</a>
</g>
</g>
<!-- Node4&#45;&gt;Node5 -->
<g id="edge4" class="edge"><title>Node4&#45;&gt;Node5</title>
<path fill="none" stroke="midnightblue" d="M287.212,-200C297.894,-200 309.154,-200 319.603,-200"/>
<polygon fill="midnightblue" stroke="midnightblue" points="319.73,-203.5 329.729,-200 319.729,-196.5 319.73,-203.5"/>
</g>
<!-- Node10 -->
<g id="node10" class="node"><title>Node10</title>
<g id="a_node10"><a xlink:href="papi_8F90.html#a838be3d39e287e29002d5a68c6ad2dd8" target="_top" xlink:title="getflops_papi">
<polygon fill="white" stroke="black" points="323,-38.5 323,-57.5 403,-57.5 403,-38.5 323,-38.5"/>
<text text-anchor="middle" x="363" y="-45.5" font-family="Helvetica,sans-Serif" font-size="10.00">getflops_papi</text>
</a>
</g>
</g>
<!-- Node9&#45;&gt;Node10 -->
<g id="edge9" class="edge"><title>Node9&#45;&gt;Node10</title>
<path fill="none" stroke="midnightblue" d="M269.781,-48C282.666,-48 298.032,-48 312.491,-48"/>
<polygon fill="midnightblue" stroke="midnightblue" points="312.811,-51.5001 322.811,-48 312.811,-44.5001 312.811,-51.5001"/>
</g>
<!-- Node12 -->
<g id="node12" class="node"><title>Node12</title>
<g id="a_node12"><a xlink:href="mpi__dummy_8F90.html#a070afe564196eb48413dbf1a9fbc99aa" target="_top" xlink:title="mpi_barrier">
<polygon fill="white" stroke="black" points="328,-0.5 328,-19.5 398,-19.5 398,-0.5 328,-0.5"/>
<text text-anchor="middle" x="363" y="-7.5" font-family="Helvetica,sans-Serif" font-size="10.00">mpi_barrier</text>
</a>
</g>
</g>
<!-- Node11&#45;&gt;Node12 -->
<g id="edge11" class="edge"><title>Node11&#45;&gt;Node12</title>
<path fill="none" stroke="midnightblue" d="M269.781,-10C284.195,-10 301.714,-10 317.594,-10"/>
<polygon fill="midnightblue" stroke="midnightblue" points="317.745,-13.5001 327.745,-10 317.745,-6.5001 317.745,-13.5001"/>
</g>
</g>
</svg>
