<?xml version="1.0" encoding="UTF-8" standalone="no"?>
<!DOCTYPE svg PUBLIC "-//W3C//DTD SVG 1.1//EN"
 "http://www.w3.org/Graphics/SVG/1.1/DTD/svg11.dtd">
<!-- Generated by graphviz version 2.38.0 (20140413.2041)
 -->
<!-- Title: setfast Pages: 1 -->
<svg width="291pt" height="28pt"
 viewBox="0.00 0.00 291.00 28.00" xmlns="http://www.w3.org/2000/svg" xmlns:xlink="http://www.w3.org/1999/xlink">
<g id="graph0" class="graph" transform="scale(1 1) rotate(0) translate(4 24)">
<title>setfast</title>
<polygon fill="white" stroke="none" points="-4,4 -4,-24 287,-24 287,4 -4,4"/>
<!-- Node1 -->
<g id="node1" class="node"><title>Node1</title>
<polygon fill="#bfbfbf" stroke="black" points="0,-0.5 0,-19.5 48,-19.5 48,-0.5 0,-0.5"/>
<text text-anchor="middle" x="24" y="-7.5" font-family="Helvetica,sans-Serif" font-size="10.00">setfast</text>
</g>
<!-- Node2 -->
<g id="node2" class="node"><title>Node2</title>
<g id="a_node2"><a xlink:href="classctimer.html#abcecbc845c8ee72e13a19eaa30b80d77" target="_top" xlink:title="ctimer::dnekclock">
<polygon fill="white" stroke="black" points="84,-0.5 84,-19.5 181,-19.5 181,-0.5 84,-0.5"/>
<text text-anchor="middle" x="132.5" y="-7.5" font-family="Helvetica,sans-Serif" font-size="10.00">ctimer::dnekclock</text>
</a>
</g>
</g>
<!-- Node1&#45;&gt;Node2 -->
<g id="edge1" class="edge"><title>Node1&#45;&gt;Node2</title>
<path fill="none" stroke="midnightblue" d="M48.1089,-10C55.7541,-10 64.6352,-10 73.6935,-10"/>
<polygon fill="midnightblue" stroke="midnightblue" points="73.9395,-13.5001 83.9394,-10 73.9394,-6.5001 73.9395,-13.5001"/>
</g>
<!-- Node3 -->
<g id="node3" class="node"><title>Node3</title>
<g id="a_node3"><a xlink:href="mpi__dummy_8F90.html#ae6a5ef945f87c2c27849696b70f3af2a" target="_top" xlink:title="mpi_wtime">
<polygon fill="white" stroke="black" points="217,-0.5 217,-19.5 283,-19.5 283,-0.5 217,-0.5"/>
<text text-anchor="middle" x="250" y="-7.5" font-family="Helvetica,sans-Serif" font-size="10.00">mpi_wtime</text>
</a>
</g>
</g>
<!-- Node2&#45;&gt;Node3 -->
<g id="edge2" class="edge"><title>Node2&#45;&gt;Node3</title>
<path fill="none" stroke="midnightblue" d="M181.145,-10C189.621,-10 198.397,-10 206.712,-10"/>
<polygon fill="midnightblue" stroke="midnightblue" points="206.94,-13.5001 216.939,-10 206.939,-6.5001 206.94,-13.5001"/>
</g>
</g>
</svg>
