<?xml version="1.0" encoding="UTF-8" standalone="no"?>
<!DOCTYPE svg PUBLIC "-//W3C//DTD SVG 1.1//EN"
 "http://www.w3.org/Graphics/SVG/1.1/DTD/svg11.dtd">
<!-- Generated by graphviz version 2.38.0 (20140413.2041)
 -->
<!-- Title: cggo Pages: 1 -->
<!--zoomable 66 -->
<svg id="main" version="1.1" xmlns="http://www.w3.org/2000/svg" xmlns:xlink="http://www.w3.org/1999/xlink" xml:space="preserve" onload="init(evt)">
<style type="text/css"><![CDATA[
.edge:hover path { stroke: red; }
.edge:hover polygon { stroke: red; fill: red; }
]]></style>
<script type="text/javascript"><![CDATA[
var edges = document.getElementsByTagName('g');
if (edges && edges.length) {
  for (var i=0;i<edges.length;i++) {
    if (edges[i].id.substr(0,4)=='edge') {
      edges[i].setAttribute('class','edge');
    }
  }
}
]]></script>
        <defs>
                <circle id="rim" cx="0" cy="0" r="7"/>
                <circle id="rim2" cx="0" cy="0" r="3.5"/>
                <g id="zoomPlus">
                        <use xlink:href="#rim" fill="#404040">
                                <set attributeName="fill" to="#808080" begin="zoomplus.mouseover" end="zoomplus.mouseout"/>
                        </use>
                        <path d="M-4,0h8M0,-4v8" fill="none" stroke="white" stroke-width="1.5" pointer-events="none"/>
                </g>
                <g id="zoomMin">
                        <use xlink:href="#rim" fill="#404040">
                                <set attributeName="fill" to="#808080" begin="zoomminus.mouseover" end="zoomminus.mouseout"/>
                        </use>
                        <path d="M-4,0h8" fill="none" stroke="white" stroke-width="1.5" pointer-events="none"/>
                </g>
                <g id="dirArrow">
                        <path fill="none" stroke="white" stroke-width="1.5" d="M0,-3.0v7 M-2.5,-0.5L0,-3.0L2.5,-0.5"/>
                </g>
               <g id="resetDef">
                       <use xlink:href="#rim2" fill="#404040">
                               <set attributeName="fill" to="#808080" begin="reset.mouseover" end="reset.mouseout"/>
                       </use>
               </g>
        </defs>

<script type="text/javascript">
var viewWidth = 926;
var viewHeight = 66;
var sectionId = 'dynsection-3';
</script>
<script xlink:href="svgpan.js"/>
<svg id="graph" class="graph">
<g id="viewport">
<title>cggo</title>
<polygon fill="white" stroke="none" points="-4,4 -4,-62 922,-62 922,4 -4,4"/>
<!-- Node1 -->
<g id="node1" class="node"><title>Node1</title>
<polygon fill="#bfbfbf" stroke="black" points="0,-19.5 0,-38.5 40,-38.5 40,-19.5 0,-19.5"/>
<text text-anchor="middle" x="20" y="-26.5" font-family="Helvetica,sans-Serif" font-size="10.00">cggo</text>
</g>
<!-- Node2 -->
<g id="node2" class="node"><title>Node2</title>
<g id="a_node2"><a xlink:href="hmholtz_8F90.html#a52dcac1fe733719d4987d36aac022e4d" target="_top" xlink:title="hmholtz">
<polygon fill="white" stroke="black" points="100,-38.5 100,-57.5 153,-57.5 153,-38.5 100,-38.5"/>
<text text-anchor="middle" x="126.5" y="-45.5" font-family="Helvetica,sans-Serif" font-size="10.00">hmholtz</text>
</a>
</g>
</g>
<!-- Node1&#45;&gt;Node2 -->
<g id="edge1" class="edge"><title>Node1&#45;&gt;Node2</title>
<path fill="none" stroke="midnightblue" d="M50.3007,-34.3274C65.8496,-37.1545 84.7823,-40.5968 99.7607,-43.3201"/>
<polygon fill="midnightblue" stroke="midnightblue" points="50.6317,-30.8303 40.1669,-32.4849 49.3795,-37.7174 50.6317,-30.8303"/>
</g>
<!-- Node12 -->
<g id="node12" class="node"><title>Node12</title>
<g id="a_node12"><a xlink:href="classhelmholtz.html#ae307c08c70cdc6428553cb85ce68cbbb" target="_top" xlink:title="helmholtz::hmhzpf">
<polygon fill="white" stroke="black" points="76,-0.5 76,-19.5 177,-19.5 177,-0.5 76,-0.5"/>
<text text-anchor="middle" x="126.5" y="-7.5" font-family="Helvetica,sans-Serif" font-size="10.00">helmholtz::hmhzpf</text>
</a>
</g>
</g>
<!-- Node1&#45;&gt;Node12 -->
<g id="edge12" class="edge"><title>Node1&#45;&gt;Node12</title>
<path fill="none" stroke="midnightblue" d="M50.1303,-23.7036C58.1761,-22.2407 67.1381,-20.6112 75.9947,-19.001"/>
<polygon fill="midnightblue" stroke="midnightblue" points="49.3795,-20.2826 40.1669,-25.5151 50.6317,-27.1697 49.3795,-20.2826"/>
</g>
<!-- Node3 -->
<g id="node3" class="node"><title>Node3</title>
<g id="a_node3"><a xlink:href="classhelmholtz.html#abf98ad104d11790462e9f07b3fa91848" target="_top" xlink:title="Either std. Helmholtz solve, or a projection + Helmholtz solve. ">
<polygon fill="white" stroke="black" points="213,-19.5 213,-38.5 310,-38.5 310,-19.5 213,-19.5"/>
<text text-anchor="middle" x="261.5" y="-26.5" font-family="Helvetica,sans-Serif" font-size="10.00">helmholtz::hsolve</text>
</a>
</g>
</g>
<!-- Node2&#45;&gt;Node3 -->
<g id="edge2" class="edge"><title>Node2&#45;&gt;Node3</title>
<path fill="none" stroke="midnightblue" d="M163.207,-42.899C178.462,-40.7197 196.492,-38.144 212.86,-35.8058"/>
<polygon fill="midnightblue" stroke="midnightblue" points="162.548,-39.4575 153.144,-44.3366 163.538,-46.3871 162.548,-39.4575"/>
</g>
<!-- Node4 -->
<g id="node4" class="node"><title>Node4</title>
<g id="a_node4"><a xlink:href="conduct_8F90.html#a74a7f053381975ed36df8ea959f3aa01" target="_top" xlink:title="Solve the convection&#45;diffusion equation for passive scalar IPSCAL. ">
<polygon fill="white" stroke="black" points="346,-38.5 346,-57.5 393,-57.5 393,-38.5 346,-38.5"/>
<text text-anchor="middle" x="369.5" y="-45.5" font-family="Helvetica,sans-Serif" font-size="10.00">cdscal</text>
</a>
</g>
</g>
<!-- Node3&#45;&gt;Node4 -->
<g id="edge3" class="edge"><title>Node3&#45;&gt;Node4</title>
<path fill="none" stroke="midnightblue" d="M320.156,-39.3345C329.285,-40.9709 338.228,-42.5739 345.891,-43.9475"/>
<polygon fill="midnightblue" stroke="midnightblue" points="320.689,-35.8744 310.228,-37.5551 319.454,-42.7646 320.689,-35.8744"/>
</g>
<!-- Node10 -->
<g id="node10" class="node"><title>Node10</title>
<g id="a_node10"><a xlink:href="plan4_8F90.html#a5cbf852b67e73bfa44e028338c4d57ad" target="_top" xlink:title="Splitting scheme . ">
<polygon fill="white" stroke="black" points="348,-0.5 348,-19.5 391,-19.5 391,-0.5 348,-0.5"/>
<text text-anchor="middle" x="369.5" y="-7.5" font-family="Helvetica,sans-Serif" font-size="10.00">plan4</text>
</a>
</g>
</g>
<!-- Node3&#45;&gt;Node10 -->
<g id="edge9" class="edge"><title>Node3&#45;&gt;Node10</title>
<path fill="none" stroke="midnightblue" d="M320.15,-18.6664C330.051,-16.8917 339.734,-15.1561 347.803,-13.7099"/>
<polygon fill="midnightblue" stroke="midnightblue" points="319.454,-15.2354 310.228,-20.4449 320.689,-22.1256 319.454,-15.2354"/>
</g>
<!-- Node5 -->
<g id="node5" class="node"><title>Node5</title>
<g id="a_node5"><a xlink:href="drive2_8F90.html#acce80cd37f20e9b52729eb52d86a9c86" target="_top" xlink:title="Driver for temperature or passive scalar. ">
<polygon fill="white" stroke="black" points="429,-38.5 429,-57.5 467,-57.5 467,-38.5 429,-38.5"/>
<text text-anchor="middle" x="448" y="-45.5" font-family="Helvetica,sans-Serif" font-size="10.00">heat</text>
</a>
</g>
</g>
<!-- Node4&#45;&gt;Node5 -->
<g id="edge4" class="edge"><title>Node4&#45;&gt;Node5</title>
<path fill="none" stroke="midnightblue" d="M403.131,-48C411.988,-48 421.256,-48 428.98,-48"/>
<polygon fill="midnightblue" stroke="midnightblue" points="403.039,-44.5001 393.039,-48 403.039,-51.5001 403.039,-44.5001"/>
</g>
<!-- Node6 -->
<g id="node6" class="node"><title>Node6</title>
<g id="a_node6"><a xlink:href="drive1_8F90.html#ae177ea7efac97f35241521b782a671c0" target="_top" xlink:title="take a single time&#45;step ">
<polygon fill="white" stroke="black" points="503,-19.5 503,-38.5 583,-38.5 583,-19.5 503,-19.5"/>
<text text-anchor="middle" x="543" y="-26.5" font-family="Helvetica,sans-Serif" font-size="10.00">nek_advance</text>
</a>
</g>
</g>
<!-- Node5&#45;&gt;Node6 -->
<g id="edge5" class="edge"><title>Node5&#45;&gt;Node6</title>
<path fill="none" stroke="midnightblue" d="M477.362,-42.2055C485.415,-40.5604 494.328,-38.7395 502.897,-36.9889"/>
<polygon fill="midnightblue" stroke="midnightblue" points="476.471,-38.8153 467.374,-44.2462 477.872,-45.6736 476.471,-38.8153"/>
</g>
<!-- Node7 -->
<g id="node7" class="node"><title>Node7</title>
<g id="a_node7"><a xlink:href="drive1_8F90.html#a18d3e839786263fc4cf91f7eeb714371" target="_top" xlink:title="take a chunk of time&#45;steps ">
<polygon fill="white" stroke="black" points="619,-19.5 619,-38.5 732,-38.5 732,-19.5 619,-19.5"/>
<text text-anchor="middle" x="675.5" y="-26.5" font-family="Helvetica,sans-Serif" font-size="10.00">nek__multi_advance</text>
</a>
</g>
</g>
<!-- Node6&#45;&gt;Node7 -->
<g id="edge6" class="edge"><title>Node6&#45;&gt;Node7</title>
<path fill="none" stroke="midnightblue" d="M593.191,-29C601.607,-29 610.403,-29 618.97,-29"/>
<polygon fill="midnightblue" stroke="midnightblue" points="593.154,-25.5001 583.154,-29 593.154,-32.5001 593.154,-25.5001"/>
</g>
<!-- Node8 -->
<g id="node8" class="node"><title>Node8</title>
<g id="a_node8"><a xlink:href="drive1_8F90.html#a6ad57e0cf728f343e371ef8c9a02cd8a" target="_top" xlink:title="integrate the governing equations in time ">
<polygon fill="white" stroke="black" points="768,-19.5 768,-38.5 833,-38.5 833,-19.5 768,-19.5"/>
<text text-anchor="middle" x="800.5" y="-26.5" font-family="Helvetica,sans-Serif" font-size="10.00">nek_solve</text>
</a>
</g>
</g>
<!-- Node7&#45;&gt;Node8 -->
<g id="edge7" class="edge"><title>Node7&#45;&gt;Node8</title>
<path fill="none" stroke="midnightblue" d="M742.282,-29C751.164,-29 759.927,-29 767.824,-29"/>
<polygon fill="midnightblue" stroke="midnightblue" points="742.242,-25.5001 732.242,-29 742.242,-32.5001 742.242,-25.5001"/>
</g>
<!-- Node9 -->
<g id="node9" class="node"><title>Node9</title>
<g id="a_node9"><a xlink:href="drive_8F90.html#a13048bf28dd0734640412d69349e3857" target="_top" xlink:title="NEK5000: Spectral Element Computational Fluid Dynamics Solver COPYRIGHT (c) 2008&#45;2010 UCHICAGO ARGONN...">
<polygon fill="white" stroke="black" points="869,-19.5 869,-38.5 918,-38.5 918,-19.5 869,-19.5"/>
<text text-anchor="middle" x="893.5" y="-26.5" font-family="Helvetica,sans-Serif" font-size="10.00">nekton</text>
</a>
</g>
</g>
<!-- Node8&#45;&gt;Node9 -->
<g id="edge8" class="edge"><title>Node8&#45;&gt;Node9</title>
<path fill="none" stroke="midnightblue" d="M843.192,-29C851.953,-29 860.905,-29 868.734,-29"/>
<polygon fill="midnightblue" stroke="midnightblue" points="843.072,-25.5001 833.072,-29 843.072,-32.5001 843.072,-25.5001"/>
</g>
<!-- Node11 -->
<g id="node11" class="node"><title>Node11</title>
<g id="a_node11"><a xlink:href="drive2_8F90.html#ab0aeca9ad3db8be87a01ba29d069d71e" target="_top" xlink:title="Driver for solving the incompressible Navier&#45;Stokes equations. ">
<polygon fill="white" stroke="black" points="430.5,-0.5 430.5,-19.5 465.5,-19.5 465.5,-0.5 430.5,-0.5"/>
<text text-anchor="middle" x="448" y="-7.5" font-family="Helvetica,sans-Serif" font-size="10.00">fluid</text>
</a>
</g>
</g>
<!-- Node10&#45;&gt;Node11 -->
<g id="edge10" class="edge"><title>Node10&#45;&gt;Node11</title>
<path fill="none" stroke="midnightblue" d="M401.262,-10C411.086,-10 421.596,-10 430.061,-10"/>
<polygon fill="midnightblue" stroke="midnightblue" points="401.001,-6.5001 391.001,-10 401.001,-13.5001 401.001,-6.5001"/>
</g>
<!-- Node11&#45;&gt;Node6 -->
<g id="edge11" class="edge"><title>Node11&#45;&gt;Node6</title>
<path fill="none" stroke="midnightblue" d="M475.635,-15.4415C484.077,-17.1662 493.594,-19.1106 502.73,-20.9771"/>
<polygon fill="midnightblue" stroke="midnightblue" points="476.125,-11.9694 465.627,-13.3968 474.724,-18.8277 476.125,-11.9694"/>
</g>
<!-- Node12&#45;&gt;Node3 -->
<g id="edge13" class="edge"><title>Node12&#45;&gt;Node3</title>
<path fill="none" stroke="midnightblue" d="M187.012,-18.5018C195.612,-19.7303 204.37,-20.9814 212.701,-22.1716"/>
<polygon fill="midnightblue" stroke="midnightblue" points="187.419,-15.0244 177.024,-17.0749 186.429,-21.954 187.419,-15.0244"/>
</g>
</g>
</svg>
        <g id="navigator" transform="translate(0 0)" fill="#404254">
                <rect fill="#f2f5e9" fill-opacity="0.5" stroke="#606060" stroke-width=".5" x="0" y="0" width="60" height="60"/>
                <use id="zoomplus" xlink:href="#zoomPlus" x="17" y="9" onmousedown="handleZoom(evt,'in')"/>
                <use id="zoomminus" xlink:href="#zoomMin" x="42" y="9" onmousedown="handleZoom(evt,'out')"/>
                <use id="reset" xlink:href="#resetDef" x="30" y="36" onmousedown="handleReset()"/>
                <g id="arrowUp" xlink:href="#dirArrow" transform="translate(30 24)" onmousedown="handlePan(0,-1)">
                  <use xlink:href="#rim" fill="#404040">
                        <set attributeName="fill" to="#808080" begin="arrowUp.mouseover" end="arrowUp.mouseout"/>
                  </use>
                  <path fill="none" stroke="white" stroke-width="1.5" d="M0,-3.0v7 M-2.5,-0.5L0,-3.0L2.5,-0.5"/>
                </g>
                <g id="arrowRight" xlink:href="#dirArrow" transform="rotate(90) translate(36 -43)" onmousedown="handlePan(1,0)">
                  <use xlink:href="#rim" fill="#404040">
                        <set attributeName="fill" to="#808080" begin="arrowRight.mouseover" end="arrowRight.mouseout"/>
                  </use>
                  <path fill="none" stroke="white" stroke-width="1.5" d="M0,-3.0v7 M-2.5,-0.5L0,-3.0L2.5,-0.5"/>
                </g>
                <g id="arrowDown" xlink:href="#dirArrow" transform="rotate(180) translate(-30 -48)" onmousedown="handlePan(0,1)">
                  <use xlink:href="#rim" fill="#404040">
                        <set attributeName="fill" to="#808080" begin="arrowDown.mouseover" end="arrowDown.mouseout"/>
                  </use>
                  <path fill="none" stroke="white" stroke-width="1.5" d="M0,-3.0v7 M-2.5,-0.5L0,-3.0L2.5,-0.5"/>
                </g>
                <g id="arrowLeft" xlink:href="#dirArrow" transform="rotate(270) translate(-36 17)" onmousedown="handlePan(-1,0)">
                  <use xlink:href="#rim" fill="#404040">
                        <set attributeName="fill" to="#808080" begin="arrowLeft.mouseover" end="arrowLeft.mouseout"/>
                  </use>
                  <path fill="none" stroke="white" stroke-width="1.5" d="M0,-3.0v7 M-2.5,-0.5L0,-3.0L2.5,-0.5"/>
                </g>
        </g>
        <svg viewBox="0 0 15 15" width="100%" height="30px" preserveAspectRatio="xMaxYMin meet">
         <g id="arrow_out" transform="scale(0.3 0.3)">
          <a xlink:href="hmholtz_8F90_a8734f3cc2d37d6a2ccd1daa8db57513d_icgraph_org.svg" target="_base">
           <rect id="button" ry="5" rx="5" y="6" x="6" height="38" width="38"
                fill="#f2f5e9" fill-opacity="0.5" stroke="#606060" stroke-width="1.0"/>
           <path id="arrow"
             d="M 11.500037,31.436501 C 11.940474,20.09759 22.043105,11.32322 32.158766,21.979434 L 37.068811,17.246167 C 37.068811,17.246167 37.088388,32 37.088388,32 L 22.160133,31.978069 C 22.160133,31.978069 26.997745,27.140456 26.997745,27.140456 C 18.528582,18.264221 13.291696,25.230495 11.500037,31.436501 z"
             style="fill:#404040;"/>
          </a>
         </g>
        </svg>
</svg>
