<?xml version="1.0" encoding="UTF-8" standalone="no"?>
<!DOCTYPE svg PUBLIC "-//W3C//DTD SVG 1.1//EN"
 "http://www.w3.org/Graphics/SVG/1.1/DTD/svg11.dtd">
<!-- Generated by graphviz version 2.38.0 (20140413.2041)
 -->
<!-- Title: setprec Pages: 1 -->
<svg width="382pt" height="1130pt"
 viewBox="0.00 0.00 382.00 1130.00" xmlns="http://www.w3.org/2000/svg" xmlns:xlink="http://www.w3.org/1999/xlink">
<g id="graph0" class="graph" transform="scale(1 1) rotate(0) translate(4 1126)">
<title>setprec</title>
<polygon fill="white" stroke="none" points="-4,4 -4,-1126 378,-1126 378,4 -4,4"/>
<!-- Node1 -->
<g id="node1" class="node"><title>Node1</title>
<polygon fill="#bfbfbf" stroke="black" points="0,-1064.5 0,-1083.5 52,-1083.5 52,-1064.5 0,-1064.5"/>
<text text-anchor="middle" x="26" y="-1071.5" font-family="Helvetica,sans-Serif" font-size="10.00">setprec</text>
</g>
<!-- Node2 -->
<g id="node2" class="node"><title>Node2</title>
<g id="a_node2"><a xlink:href="classctimer.html#abcecbc845c8ee72e13a19eaa30b80d77" target="_top" xlink:title="ctimer::dnekclock">
<polygon fill="white" stroke="black" points="171,-1102.5 171,-1121.5 268,-1121.5 268,-1102.5 171,-1102.5"/>
<text text-anchor="middle" x="219.5" y="-1109.5" font-family="Helvetica,sans-Serif" font-size="10.00">ctimer::dnekclock</text>
</a>
</g>
</g>
<!-- Node1&#45;&gt;Node2 -->
<g id="edge1" class="edge"><title>Node1&#45;&gt;Node2</title>
<path fill="none" stroke="midnightblue" d="M52.281,-1082.85C63.1658,-1086.41 76.1015,-1090.3 88,-1093 111.524,-1098.34 137.791,-1102.5 160.557,-1105.55"/>
<polygon fill="midnightblue" stroke="midnightblue" points="160.381,-1109.06 170.748,-1106.88 161.282,-1102.12 160.381,-1109.06"/>
</g>
<!-- Node4 -->
<g id="node4" class="node"><title>Node4</title>
<g id="a_node4"><a xlink:href="dssum_8F90.html#a0b9da6f19f8f42c7aa2fd9ca723a63ef" target="_top" xlink:title="Direct stiffness sum. ">
<polygon fill="white" stroke="black" points="88,-1064.5 88,-1083.5 135,-1083.5 135,-1064.5 88,-1064.5"/>
<text text-anchor="middle" x="111.5" y="-1071.5" font-family="Helvetica,sans-Serif" font-size="10.00">dssum</text>
</a>
</g>
</g>
<!-- Node1&#45;&gt;Node4 -->
<g id="edge3" class="edge"><title>Node1&#45;&gt;Node4</title>
<path fill="none" stroke="midnightblue" d="M52.0528,-1074C60.1126,-1074 69.1665,-1074 77.6974,-1074"/>
<polygon fill="midnightblue" stroke="midnightblue" points="77.7419,-1077.5 87.7419,-1074 77.7418,-1070.5 77.7419,-1077.5"/>
</g>
<!-- Node7 -->
<g id="node7" class="node"><title>Node7</title>
<g id="a_node7"><a xlink:href="mxm__wrapper_8F90.html#ab9ec2260a10061af6ce1c52f3c8a41da" target="_top" xlink:title="Compute matrix&#45;matrix product C = A*B. ">
<polygon fill="white" stroke="black" points="92.5,-912.5 92.5,-931.5 130.5,-931.5 130.5,-912.5 92.5,-912.5"/>
<text text-anchor="middle" x="111.5" y="-919.5" font-family="Helvetica,sans-Serif" font-size="10.00">mxm</text>
</a>
</g>
</g>
<!-- Node1&#45;&gt;Node7 -->
<g id="edge7" class="edge"><title>Node1&#45;&gt;Node7</title>
<path fill="none" stroke="midnightblue" d="M32.2233,-1064.49C45.8129,-1039.75 82.4573,-973.048 100.368,-940.444"/>
<polygon fill="midnightblue" stroke="midnightblue" points="103.531,-941.954 105.279,-931.505 97.3963,-938.584 103.531,-941.954"/>
</g>
<!-- Node3 -->
<g id="node3" class="node"><title>Node3</title>
<g id="a_node3"><a xlink:href="mpi__dummy_8F90.html#ae6a5ef945f87c2c27849696b70f3af2a" target="_top" xlink:title="mpi_wtime">
<polygon fill="white" stroke="black" points="306,-1102.5 306,-1121.5 372,-1121.5 372,-1102.5 306,-1102.5"/>
<text text-anchor="middle" x="339" y="-1109.5" font-family="Helvetica,sans-Serif" font-size="10.00">mpi_wtime</text>
</a>
</g>
</g>
<!-- Node2&#45;&gt;Node3 -->
<g id="edge2" class="edge"><title>Node2&#45;&gt;Node3</title>
<path fill="none" stroke="midnightblue" d="M268.292,-1112C277.334,-1112 286.735,-1112 295.597,-1112"/>
<polygon fill="midnightblue" stroke="midnightblue" points="295.698,-1115.5 305.698,-1112 295.698,-1108.5 295.698,-1115.5"/>
</g>
<!-- Node4&#45;&gt;Node2 -->
<g id="edge4" class="edge"><title>Node4&#45;&gt;Node2</title>
<path fill="none" stroke="midnightblue" d="M135.24,-1082.15C148.813,-1087.02 166.368,-1093.31 181.857,-1098.86"/>
<polygon fill="midnightblue" stroke="midnightblue" points="181.08,-1102.3 191.675,-1102.38 183.442,-1095.71 181.08,-1102.3"/>
</g>
<!-- Node5 -->
<g id="node5" class="node"><title>Node5</title>
<g id="a_node5"><a xlink:href="comm__mpi_8F90.html#a4acb4d8e379294232e9219bec063d8f3" target="_top" xlink:title="nekgsync">
<polygon fill="white" stroke="black" points="188.5,-1064.5 188.5,-1083.5 250.5,-1083.5 250.5,-1064.5 188.5,-1064.5"/>
<text text-anchor="middle" x="219.5" y="-1071.5" font-family="Helvetica,sans-Serif" font-size="10.00">nekgsync</text>
</a>
</g>
</g>
<!-- Node4&#45;&gt;Node5 -->
<g id="edge5" class="edge"><title>Node4&#45;&gt;Node5</title>
<path fill="none" stroke="midnightblue" d="M135.24,-1074C147.673,-1074 163.448,-1074 177.916,-1074"/>
<polygon fill="midnightblue" stroke="midnightblue" points="178.152,-1077.5 188.152,-1074 178.152,-1070.5 178.152,-1077.5"/>
</g>
<!-- Node6 -->
<g id="node6" class="node"><title>Node6</title>
<g id="a_node6"><a xlink:href="mpi__dummy_8F90.html#a070afe564196eb48413dbf1a9fbc99aa" target="_top" xlink:title="mpi_barrier">
<polygon fill="white" stroke="black" points="304,-1064.5 304,-1083.5 374,-1083.5 374,-1064.5 304,-1064.5"/>
<text text-anchor="middle" x="339" y="-1071.5" font-family="Helvetica,sans-Serif" font-size="10.00">mpi_barrier</text>
</a>
</g>
</g>
<!-- Node5&#45;&gt;Node6 -->
<g id="edge6" class="edge"><title>Node5&#45;&gt;Node6</title>
<path fill="none" stroke="midnightblue" d="M250.759,-1074C263.782,-1074 279.268,-1074 293.554,-1074"/>
<polygon fill="midnightblue" stroke="midnightblue" points="293.691,-1077.5 303.691,-1074 293.691,-1070.5 293.691,-1077.5"/>
</g>
<!-- Node8 -->
<g id="node8" class="node"><title>Node8</title>
<g id="a_node8"><a xlink:href="mxm__bgq_8F90.html#a8faaef428336095704ece51624bbfe92" target="_top" xlink:title="mxm_bgq_8">
<polygon fill="white" stroke="black" points="182.5,-1026.5 182.5,-1045.5 256.5,-1045.5 256.5,-1026.5 182.5,-1026.5"/>
<text text-anchor="middle" x="219.5" y="-1033.5" font-family="Helvetica,sans-Serif" font-size="10.00">mxm_bgq_8</text>
</a>
</g>
</g>
<!-- Node7&#45;&gt;Node8 -->
<g id="edge8" class="edge"><title>Node7&#45;&gt;Node8</title>
<path fill="none" stroke="midnightblue" d="M116.073,-931.76C123.48,-950.722 142.252,-992.802 171,-1017 172.962,-1018.65 175.086,-1020.17 177.31,-1021.57"/>
<polygon fill="midnightblue" stroke="midnightblue" points="175.789,-1024.73 186.255,-1026.38 179.102,-1018.56 175.789,-1024.73"/>
</g>
<!-- Node9 -->
<g id="node9" class="node"><title>Node9</title>
<g id="a_node9"><a xlink:href="mxm__bgq_8F90.html#a27529ace9834454b8906f29e02718629" target="_top" xlink:title="mxm_bgq_12">
<polygon fill="white" stroke="black" points="179.5,-988.5 179.5,-1007.5 259.5,-1007.5 259.5,-988.5 179.5,-988.5"/>
<text text-anchor="middle" x="219.5" y="-995.5" font-family="Helvetica,sans-Serif" font-size="10.00">mxm_bgq_12</text>
</a>
</g>
</g>
<!-- Node7&#45;&gt;Node9 -->
<g id="edge9" class="edge"><title>Node7&#45;&gt;Node9</title>
<path fill="none" stroke="midnightblue" d="M120.294,-931.659C130.722,-944.052 150.314,-965.552 171,-979 173.918,-980.897 177.056,-982.659 180.278,-984.282"/>
<polygon fill="midnightblue" stroke="midnightblue" points="178.918,-987.508 189.467,-988.486 181.83,-981.143 178.918,-987.508"/>
</g>
<!-- Node10 -->
<g id="node10" class="node"><title>Node10</title>
<g id="a_node10"><a xlink:href="mxm__bgq_8F90.html#a3fda9ea4bc7a5713a19d6939fa2b541f" target="_top" xlink:title="mxm_bgq_16">
<polygon fill="white" stroke="black" points="179.5,-950.5 179.5,-969.5 259.5,-969.5 259.5,-950.5 179.5,-950.5"/>
<text text-anchor="middle" x="219.5" y="-957.5" font-family="Helvetica,sans-Serif" font-size="10.00">mxm_bgq_16</text>
</a>
</g>
</g>
<!-- Node7&#45;&gt;Node10 -->
<g id="edge10" class="edge"><title>Node7&#45;&gt;Node10</title>
<path fill="none" stroke="midnightblue" d="M130.964,-928.619C145.046,-933.667 164.889,-940.781 182.123,-946.959"/>
<polygon fill="midnightblue" stroke="midnightblue" points="181.311,-950.386 191.906,-950.466 183.673,-943.797 181.311,-950.386"/>
</g>
<!-- Node11 -->
<g id="node11" class="node"><title>Node11</title>
<g id="a_node11"><a xlink:href="mxm__bgq_8F90.html#a8a70163b4dbfdbfcce7bff170597fcad" target="_top" xlink:title="mxm_bgq_10">
<polygon fill="white" stroke="black" points="179.5,-912.5 179.5,-931.5 259.5,-931.5 259.5,-912.5 179.5,-912.5"/>
<text text-anchor="middle" x="219.5" y="-919.5" font-family="Helvetica,sans-Serif" font-size="10.00">mxm_bgq_10</text>
</a>
</g>
</g>
<!-- Node7&#45;&gt;Node11 -->
<g id="edge11" class="edge"><title>Node7&#45;&gt;Node11</title>
<path fill="none" stroke="midnightblue" d="M130.964,-922C141.552,-922 155.397,-922 168.941,-922"/>
<polygon fill="midnightblue" stroke="midnightblue" points="169.18,-925.5 179.18,-922 169.18,-918.5 169.18,-925.5"/>
</g>
<!-- Node12 -->
<g id="node12" class="node"><title>Node12</title>
<g id="a_node12"><a xlink:href="mxm__bgq_8F90.html#af192c3c8b982aa5bbc2a757156718a91" target="_top" xlink:title="mxm_bgq_6">
<polygon fill="white" stroke="black" points="182.5,-874.5 182.5,-893.5 256.5,-893.5 256.5,-874.5 182.5,-874.5"/>
<text text-anchor="middle" x="219.5" y="-881.5" font-family="Helvetica,sans-Serif" font-size="10.00">mxm_bgq_6</text>
</a>
</g>
</g>
<!-- Node7&#45;&gt;Node12 -->
<g id="edge12" class="edge"><title>Node7&#45;&gt;Node12</title>
<path fill="none" stroke="midnightblue" d="M130.964,-915.381C145.046,-910.333 164.889,-903.219 182.123,-897.041"/>
<polygon fill="midnightblue" stroke="midnightblue" points="183.673,-900.203 191.906,-893.534 181.311,-893.614 183.673,-900.203"/>
</g>
<!-- Node13 -->
<g id="node13" class="node"><title>Node13</title>
<g id="a_node13"><a xlink:href="mxm__std_8F90.html#af07f4b22fdc3488ca321736743f14b01" target="_top" xlink:title="mxm44_2">
<polygon fill="white" stroke="black" points="188.5,-836.5 188.5,-855.5 250.5,-855.5 250.5,-836.5 188.5,-836.5"/>
<text text-anchor="middle" x="219.5" y="-843.5" font-family="Helvetica,sans-Serif" font-size="10.00">mxm44_2</text>
</a>
</g>
</g>
<!-- Node7&#45;&gt;Node13 -->
<g id="edge13" class="edge"><title>Node7&#45;&gt;Node13</title>
<path fill="none" stroke="midnightblue" d="M120.294,-912.341C130.722,-899.948 150.314,-878.448 171,-865 173.918,-863.103 177.056,-861.341 180.278,-859.718"/>
<polygon fill="midnightblue" stroke="midnightblue" points="181.83,-862.857 189.467,-855.514 178.918,-856.492 181.83,-862.857"/>
</g>
<!-- Node14 -->
<g id="node14" class="node"><title>Node14</title>
<g id="a_node14"><a xlink:href="mxm__std_8F90.html#ac63fe7516a18dc57dfe913ad2c1453be" target="_top" xlink:title="mxm44_0">
<polygon fill="white" stroke="black" points="308,-912.5 308,-931.5 370,-931.5 370,-912.5 308,-912.5"/>
<text text-anchor="middle" x="339" y="-919.5" font-family="Helvetica,sans-Serif" font-size="10.00">mxm44_0</text>
</a>
</g>
</g>
<!-- Node7&#45;&gt;Node14 -->
<g id="edge14" class="edge"><title>Node7&#45;&gt;Node14</title>
<path fill="none" stroke="midnightblue" d="M114.992,-912.461C120.834,-892.304 137.518,-845.703 171,-827 208.637,-805.976 231.571,-803.946 268,-827 299.583,-846.987 278.474,-875.698 304,-903 305.175,-904.256 306.452,-905.451 307.799,-906.583"/>
<polygon fill="midnightblue" stroke="midnightblue" points="305.867,-909.503 316.062,-912.387 309.891,-903.775 305.867,-909.503"/>
</g>
<!-- Node15 -->
<g id="node15" class="node"><title>Node15</title>
<g id="a_node15"><a xlink:href="mxm__std_8F90.html#aa9e8685c4a72f18fb5d1ee88ed17a3d6" target="_top" xlink:title="unrolled loop version ">
<polygon fill="white" stroke="black" points="196,-475.5 196,-494.5 243,-494.5 243,-475.5 196,-475.5"/>
<text text-anchor="middle" x="219.5" y="-482.5" font-family="Helvetica,sans-Serif" font-size="10.00">mxmf2</text>
</a>
</g>
</g>
<!-- Node7&#45;&gt;Node15 -->
<g id="edge15" class="edge"><title>Node7&#45;&gt;Node15</title>
<path fill="none" stroke="midnightblue" d="M114.813,-912.466C128.145,-857.503 195.24,-580.894 213.759,-504.545"/>
<polygon fill="midnightblue" stroke="midnightblue" points="217.171,-505.327 216.127,-494.784 210.368,-503.677 217.171,-505.327"/>
</g>
<!-- Node15&#45;&gt;Node14 -->
<g id="edge40" class="edge"><title>Node15&#45;&gt;Node14</title>
<path fill="none" stroke="midnightblue" d="M221.955,-494.801C230.893,-554.551 278.796,-868.372 304,-903 304.761,-904.046 305.598,-905.041 306.496,-905.988"/>
<polygon fill="midnightblue" stroke="midnightblue" points="304.331,-908.738 314.3,-912.324 308.743,-903.304 304.331,-908.738"/>
</g>
<!-- Node16 -->
<g id="node16" class="node"><title>Node16</title>
<g id="a_node16"><a xlink:href="mxm__std_8F90.html#af4bd28930a9d674bbcad09ad75fa81ef" target="_top" xlink:title="mxf8">
<polygon fill="white" stroke="black" points="319.5,-874.5 319.5,-893.5 358.5,-893.5 358.5,-874.5 319.5,-874.5"/>
<text text-anchor="middle" x="339" y="-881.5" font-family="Helvetica,sans-Serif" font-size="10.00">mxf8</text>
</a>
</g>
</g>
<!-- Node15&#45;&gt;Node16 -->
<g id="edge16" class="edge"><title>Node15&#45;&gt;Node16</title>
<path fill="none" stroke="midnightblue" d="M221.552,-494.717C227.458,-547.832 257.89,-802.908 304,-865 305.814,-867.443 308.041,-869.614 310.48,-871.534"/>
<polygon fill="midnightblue" stroke="midnightblue" points="308.973,-874.722 319.293,-877.119 312.72,-868.81 308.973,-874.722"/>
</g>
<!-- Node17 -->
<g id="node17" class="node"><title>Node17</title>
<g id="a_node17"><a xlink:href="mxm__std_8F90.html#a7d3ac03517b3934b98857b22f7f78788" target="_top" xlink:title="mxf1">
<polygon fill="white" stroke="black" points="319.5,-836.5 319.5,-855.5 358.5,-855.5 358.5,-836.5 319.5,-836.5"/>
<text text-anchor="middle" x="339" y="-843.5" font-family="Helvetica,sans-Serif" font-size="10.00">mxf1</text>
</a>
</g>
</g>
<!-- Node15&#45;&gt;Node17 -->
<g id="edge17" class="edge"><title>Node15&#45;&gt;Node17</title>
<path fill="none" stroke="midnightblue" d="M220.202,-494.588C219.348,-537.916 221.109,-718.039 304,-827 305.842,-829.422 308.088,-831.579 310.537,-833.49"/>
<polygon fill="midnightblue" stroke="midnightblue" points="309.04,-836.685 319.364,-839.066 312.778,-830.766 309.04,-836.685"/>
</g>
<!-- Node18 -->
<g id="node18" class="node"><title>Node18</title>
<g id="a_node18"><a xlink:href="mxm__std_8F90.html#acd223c583f3a9242fda7a1b8897b624d" target="_top" xlink:title="mxf2">
<polygon fill="white" stroke="black" points="319.5,-798.5 319.5,-817.5 358.5,-817.5 358.5,-798.5 319.5,-798.5"/>
<text text-anchor="middle" x="339" y="-805.5" font-family="Helvetica,sans-Serif" font-size="10.00">mxf2</text>
</a>
</g>
</g>
<!-- Node15&#45;&gt;Node18 -->
<g id="edge18" class="edge"><title>Node15&#45;&gt;Node18</title>
<path fill="none" stroke="midnightblue" d="M220.562,-494.601C221.301,-534.983 229.059,-693.357 304,-789 305.877,-791.395 308.144,-793.535 310.607,-795.436"/>
<polygon fill="midnightblue" stroke="midnightblue" points="309.122,-798.637 319.45,-801 312.849,-792.712 309.122,-798.637"/>
</g>
<!-- Node19 -->
<g id="node19" class="node"><title>Node19</title>
<g id="a_node19"><a xlink:href="mxm__std_8F90.html#abff718a387aa354f77d0e8b0ffa98867" target="_top" xlink:title="mxf3">
<polygon fill="white" stroke="black" points="319.5,-760.5 319.5,-779.5 358.5,-779.5 358.5,-760.5 319.5,-760.5"/>
<text text-anchor="middle" x="339" y="-767.5" font-family="Helvetica,sans-Serif" font-size="10.00">mxf3</text>
</a>
</g>
</g>
<!-- Node15&#45;&gt;Node19 -->
<g id="edge19" class="edge"><title>Node15&#45;&gt;Node19</title>
<path fill="none" stroke="midnightblue" d="M221.021,-494.653C223.5,-531.938 236.973,-668.568 304,-751 305.88,-753.312 308.12,-755.391 310.54,-757.248"/>
<polygon fill="midnightblue" stroke="midnightblue" points="308.881,-760.34 319.203,-762.729 312.623,-754.425 308.881,-760.34"/>
</g>
<!-- Node20 -->
<g id="node20" class="node"><title>Node20</title>
<g id="a_node20"><a xlink:href="mxm__std_8F90.html#a2f4e4e1b4daebbd4d0580029d0f54016" target="_top" xlink:title="mxf4">
<polygon fill="white" stroke="black" points="319.5,-722.5 319.5,-741.5 358.5,-741.5 358.5,-722.5 319.5,-722.5"/>
<text text-anchor="middle" x="339" y="-729.5" font-family="Helvetica,sans-Serif" font-size="10.00">mxf4</text>
</a>
</g>
</g>
<!-- Node15&#45;&gt;Node20 -->
<g id="edge20" class="edge"><title>Node15&#45;&gt;Node20</title>
<path fill="none" stroke="midnightblue" d="M221.651,-494.885C226.091,-529.033 244.916,-643.719 304,-713 305.933,-715.267 308.208,-717.317 310.65,-719.156"/>
<polygon fill="midnightblue" stroke="midnightblue" points="309.011,-722.26 319.341,-724.614 312.734,-716.332 309.011,-722.26"/>
</g>
<!-- Node21 -->
<g id="node21" class="node"><title>Node21</title>
<g id="a_node21"><a xlink:href="mxm__std_8F90.html#a5a6d5c31350c601ba8327b75a72cba0a" target="_top" xlink:title="mxf5">
<polygon fill="white" stroke="black" points="319.5,-684.5 319.5,-703.5 358.5,-703.5 358.5,-684.5 319.5,-684.5"/>
<text text-anchor="middle" x="339" y="-691.5" font-family="Helvetica,sans-Serif" font-size="10.00">mxf5</text>
</a>
</g>
</g>
<!-- Node15&#45;&gt;Node21 -->
<g id="edge21" class="edge"><title>Node15&#45;&gt;Node21</title>
<path fill="none" stroke="midnightblue" d="M222.499,-494.899C229.077,-525.267 252.628,-618.47 304,-675 305.961,-677.158 308.226,-679.128 310.638,-680.913"/>
<polygon fill="midnightblue" stroke="midnightblue" points="308.838,-683.915 319.168,-686.266 312.559,-677.986 308.838,-683.915"/>
</g>
<!-- Node22 -->
<g id="node22" class="node"><title>Node22</title>
<g id="a_node22"><a xlink:href="mxm__std_8F90.html#a38a142edde1e72a918d280747a319f7a" target="_top" xlink:title="mxf6">
<polygon fill="white" stroke="black" points="319.5,-646.5 319.5,-665.5 358.5,-665.5 358.5,-646.5 319.5,-646.5"/>
<text text-anchor="middle" x="339" y="-653.5" font-family="Helvetica,sans-Serif" font-size="10.00">mxf6</text>
</a>
</g>
</g>
<!-- Node15&#45;&gt;Node22 -->
<g id="edge22" class="edge"><title>Node15&#45;&gt;Node22</title>
<path fill="none" stroke="midnightblue" d="M223.68,-494.713C232.596,-520.687 260.09,-592.77 304,-637 306.054,-639.069 308.382,-640.981 310.831,-642.729"/>
<polygon fill="midnightblue" stroke="midnightblue" points="309.067,-645.753 319.413,-648.033 312.747,-639.798 309.067,-645.753"/>
</g>
<!-- Node23 -->
<g id="node23" class="node"><title>Node23</title>
<g id="a_node23"><a xlink:href="mxm__std_8F90.html#a1919ea16c0a7b4e248e45e983c29d965" target="_top" xlink:title="mxf7">
<polygon fill="white" stroke="black" points="319.5,-608.5 319.5,-627.5 358.5,-627.5 358.5,-608.5 319.5,-608.5"/>
<text text-anchor="middle" x="339" y="-615.5" font-family="Helvetica,sans-Serif" font-size="10.00">mxf7</text>
</a>
</g>
</g>
<!-- Node15&#45;&gt;Node23 -->
<g id="edge23" class="edge"><title>Node15&#45;&gt;Node23</title>
<path fill="none" stroke="midnightblue" d="M225.636,-494.628C237.259,-515.712 267.429,-566.658 304,-599 305.994,-600.764 308.18,-602.435 310.45,-603.999"/>
<polygon fill="midnightblue" stroke="midnightblue" points="309.046,-607.244 319.403,-609.479 312.701,-601.273 309.046,-607.244"/>
</g>
<!-- Node24 -->
<g id="node24" class="node"><title>Node24</title>
<g id="a_node24"><a xlink:href="mxm__std_8F90.html#afb2e2cde9040ab037e3586b0deef3851" target="_top" xlink:title="mxf12">
<polygon fill="white" stroke="black" points="316.5,-570.5 316.5,-589.5 361.5,-589.5 361.5,-570.5 316.5,-570.5"/>
<text text-anchor="middle" x="339" y="-577.5" font-family="Helvetica,sans-Serif" font-size="10.00">mxf12</text>
</a>
</g>
</g>
<!-- Node15&#45;&gt;Node24 -->
<g id="edge24" class="edge"><title>Node15&#45;&gt;Node24</title>
<path fill="none" stroke="midnightblue" d="M229.654,-494.653C244.399,-509.884 274.729,-539.926 304,-561 306.065,-562.487 308.257,-563.947 310.495,-565.356"/>
<polygon fill="midnightblue" stroke="midnightblue" points="308.787,-568.412 319.177,-570.487 312.349,-562.386 308.787,-568.412"/>
</g>
<!-- Node25 -->
<g id="node25" class="node"><title>Node25</title>
<g id="a_node25"><a xlink:href="mxm__std_8F90.html#a8ab38e8d33e92444b748159b82759c27" target="_top" xlink:title="mxf9">
<polygon fill="white" stroke="black" points="319.5,-532.5 319.5,-551.5 358.5,-551.5 358.5,-532.5 319.5,-532.5"/>
<text text-anchor="middle" x="339" y="-539.5" font-family="Helvetica,sans-Serif" font-size="10.00">mxf9</text>
</a>
</g>
</g>
<!-- Node15&#45;&gt;Node25 -->
<g id="edge25" class="edge"><title>Node15&#45;&gt;Node25</title>
<path fill="none" stroke="midnightblue" d="M240.167,-494.541C259.402,-503.872 288.867,-518.165 310.436,-528.628"/>
<polygon fill="midnightblue" stroke="midnightblue" points="308.909,-531.778 319.433,-532.993 311.964,-525.48 308.909,-531.778"/>
</g>
<!-- Node26 -->
<g id="node26" class="node"><title>Node26</title>
<g id="a_node26"><a xlink:href="mxm__std_8F90.html#a5786b175fcbe28ecafe1d878687c3ccf" target="_top" xlink:title="mxf10">
<polygon fill="white" stroke="black" points="316.5,-494.5 316.5,-513.5 361.5,-513.5 361.5,-494.5 316.5,-494.5"/>
<text text-anchor="middle" x="339" y="-501.5" font-family="Helvetica,sans-Serif" font-size="10.00">mxf10</text>
</a>
</g>
</g>
<!-- Node15&#45;&gt;Node26 -->
<g id="edge26" class="edge"><title>Node15&#45;&gt;Node26</title>
<path fill="none" stroke="midnightblue" d="M243.155,-488.663C261.1,-491.565 286.381,-495.653 306.33,-498.879"/>
<polygon fill="midnightblue" stroke="midnightblue" points="305.778,-502.335 316.209,-500.476 306.896,-495.425 305.778,-502.335"/>
</g>
<!-- Node27 -->
<g id="node27" class="node"><title>Node27</title>
<g id="a_node27"><a xlink:href="mxm__std_8F90.html#a244c7a41b5b7a22acba71c34552c2774" target="_top" xlink:title="mxf11">
<polygon fill="white" stroke="black" points="316.5,-456.5 316.5,-475.5 361.5,-475.5 361.5,-456.5 316.5,-456.5"/>
<text text-anchor="middle" x="339" y="-463.5" font-family="Helvetica,sans-Serif" font-size="10.00">mxf11</text>
</a>
</g>
</g>
<!-- Node15&#45;&gt;Node27 -->
<g id="edge27" class="edge"><title>Node15&#45;&gt;Node27</title>
<path fill="none" stroke="midnightblue" d="M243.155,-481.337C261.1,-478.435 286.381,-474.347 306.33,-471.121"/>
<polygon fill="midnightblue" stroke="midnightblue" points="306.896,-474.575 316.209,-469.524 305.778,-467.665 306.896,-474.575"/>
</g>
<!-- Node28 -->
<g id="node28" class="node"><title>Node28</title>
<g id="a_node28"><a xlink:href="mxm__std_8F90.html#a6a048a62b47a5c2327279e158c1689df" target="_top" xlink:title="mxf13">
<polygon fill="white" stroke="black" points="316.5,-418.5 316.5,-437.5 361.5,-437.5 361.5,-418.5 316.5,-418.5"/>
<text text-anchor="middle" x="339" y="-425.5" font-family="Helvetica,sans-Serif" font-size="10.00">mxf13</text>
</a>
</g>
</g>
<!-- Node15&#45;&gt;Node28 -->
<g id="edge28" class="edge"><title>Node15&#45;&gt;Node28</title>
<path fill="none" stroke="midnightblue" d="M240.167,-475.459C258.976,-466.335 287.567,-452.466 308.991,-442.073"/>
<polygon fill="midnightblue" stroke="midnightblue" points="310.799,-445.085 318.269,-437.572 307.744,-438.787 310.799,-445.085"/>
</g>
<!-- Node29 -->
<g id="node29" class="node"><title>Node29</title>
<g id="a_node29"><a xlink:href="mxm__std_8F90.html#a6e57628b882cb8bcac215e9a5b523eed" target="_top" xlink:title="mxf14">
<polygon fill="white" stroke="black" points="316.5,-380.5 316.5,-399.5 361.5,-399.5 361.5,-380.5 316.5,-380.5"/>
<text text-anchor="middle" x="339" y="-387.5" font-family="Helvetica,sans-Serif" font-size="10.00">mxf14</text>
</a>
</g>
</g>
<!-- Node15&#45;&gt;Node29 -->
<g id="edge29" class="edge"><title>Node15&#45;&gt;Node29</title>
<path fill="none" stroke="midnightblue" d="M229.654,-475.347C244.399,-460.116 274.729,-430.074 304,-409 306.065,-407.513 308.257,-406.053 310.495,-404.644"/>
<polygon fill="midnightblue" stroke="midnightblue" points="312.349,-407.614 319.177,-399.513 308.787,-401.588 312.349,-407.614"/>
</g>
<!-- Node30 -->
<g id="node30" class="node"><title>Node30</title>
<g id="a_node30"><a xlink:href="mxm__std_8F90.html#a02e79201be026faf756be00e58334c4f" target="_top" xlink:title="mxf15">
<polygon fill="white" stroke="black" points="316.5,-342.5 316.5,-361.5 361.5,-361.5 361.5,-342.5 316.5,-342.5"/>
<text text-anchor="middle" x="339" y="-349.5" font-family="Helvetica,sans-Serif" font-size="10.00">mxf15</text>
</a>
</g>
</g>
<!-- Node15&#45;&gt;Node30 -->
<g id="edge30" class="edge"><title>Node15&#45;&gt;Node30</title>
<path fill="none" stroke="midnightblue" d="M225.636,-475.372C237.259,-454.288 267.429,-403.342 304,-371 305.52,-369.656 307.15,-368.366 308.844,-367.136"/>
<polygon fill="midnightblue" stroke="midnightblue" points="311.096,-369.851 317.632,-361.512 307.322,-363.955 311.096,-369.851"/>
</g>
<!-- Node31 -->
<g id="node31" class="node"><title>Node31</title>
<g id="a_node31"><a xlink:href="mxm__std_8F90.html#a2fbea6eeadc258673ba8ea5708593aee" target="_top" xlink:title="mxf16">
<polygon fill="white" stroke="black" points="316.5,-304.5 316.5,-323.5 361.5,-323.5 361.5,-304.5 316.5,-304.5"/>
<text text-anchor="middle" x="339" y="-311.5" font-family="Helvetica,sans-Serif" font-size="10.00">mxf16</text>
</a>
</g>
</g>
<!-- Node15&#45;&gt;Node31 -->
<g id="edge31" class="edge"><title>Node15&#45;&gt;Node31</title>
<path fill="none" stroke="midnightblue" d="M223.68,-475.287C232.596,-449.313 260.09,-377.23 304,-333 305.245,-331.746 306.589,-330.551 308.001,-329.414"/>
<polygon fill="midnightblue" stroke="midnightblue" points="310.292,-332.088 316.581,-323.561 306.347,-326.305 310.292,-332.088"/>
</g>
<!-- Node32 -->
<g id="node32" class="node"><title>Node32</title>
<g id="a_node32"><a xlink:href="mxm__std_8F90.html#a3829af481cd230e6aadef08feab9a278" target="_top" xlink:title="mxf17">
<polygon fill="white" stroke="black" points="316.5,-266.5 316.5,-285.5 361.5,-285.5 361.5,-266.5 316.5,-266.5"/>
<text text-anchor="middle" x="339" y="-273.5" font-family="Helvetica,sans-Serif" font-size="10.00">mxf17</text>
</a>
</g>
</g>
<!-- Node15&#45;&gt;Node32 -->
<g id="edge32" class="edge"><title>Node15&#45;&gt;Node32</title>
<path fill="none" stroke="midnightblue" d="M222.499,-475.101C229.077,-444.733 252.628,-351.53 304,-295 305.188,-293.693 306.488,-292.454 307.864,-291.284"/>
<polygon fill="midnightblue" stroke="midnightblue" points="310.167,-293.943 316.337,-285.33 306.143,-288.216 310.167,-293.943"/>
</g>
<!-- Node33 -->
<g id="node33" class="node"><title>Node33</title>
<g id="a_node33"><a xlink:href="mxm__std_8F90.html#a48ed8195cc978a87c005b3306a974894" target="_top" xlink:title="mxf18">
<polygon fill="white" stroke="black" points="316.5,-228.5 316.5,-247.5 361.5,-247.5 361.5,-228.5 316.5,-228.5"/>
<text text-anchor="middle" x="339" y="-235.5" font-family="Helvetica,sans-Serif" font-size="10.00">mxf18</text>
</a>
</g>
</g>
<!-- Node15&#45;&gt;Node33 -->
<g id="edge33" class="edge"><title>Node15&#45;&gt;Node33</title>
<path fill="none" stroke="midnightblue" d="M221.651,-475.115C226.091,-440.967 244.916,-326.281 304,-257 305.146,-255.656 306.413,-254.388 307.763,-253.195"/>
<polygon fill="midnightblue" stroke="midnightblue" points="310.073,-255.845 316.156,-247.171 305.991,-250.159 310.073,-255.845"/>
</g>
<!-- Node34 -->
<g id="node34" class="node"><title>Node34</title>
<g id="a_node34"><a xlink:href="mxm__std_8F90.html#a28a9857286e11804e1a97875028ecb09" target="_top" xlink:title="mxf19">
<polygon fill="white" stroke="black" points="316.5,-190.5 316.5,-209.5 361.5,-209.5 361.5,-190.5 316.5,-190.5"/>
<text text-anchor="middle" x="339" y="-197.5" font-family="Helvetica,sans-Serif" font-size="10.00">mxf19</text>
</a>
</g>
</g>
<!-- Node15&#45;&gt;Node34 -->
<g id="edge34" class="edge"><title>Node15&#45;&gt;Node34</title>
<path fill="none" stroke="midnightblue" d="M221.021,-475.347C223.5,-438.062 236.973,-301.432 304,-219 305.248,-217.465 306.654,-216.033 308.167,-214.701"/>
<polygon fill="midnightblue" stroke="midnightblue" points="310.263,-217.505 316.372,-208.848 306.198,-211.806 310.263,-217.505"/>
</g>
<!-- Node35 -->
<g id="node35" class="node"><title>Node35</title>
<g id="a_node35"><a xlink:href="mxm__std_8F90.html#af60059bd60847f48acdf6461fefa3b22" target="_top" xlink:title="mxf20">
<polygon fill="white" stroke="black" points="316.5,-152.5 316.5,-171.5 361.5,-171.5 361.5,-152.5 316.5,-152.5"/>
<text text-anchor="middle" x="339" y="-159.5" font-family="Helvetica,sans-Serif" font-size="10.00">mxf20</text>
</a>
</g>
</g>
<!-- Node15&#45;&gt;Node35 -->
<g id="edge35" class="edge"><title>Node15&#45;&gt;Node35</title>
<path fill="none" stroke="midnightblue" d="M220.562,-475.399C221.301,-435.017 229.059,-276.643 304,-181 305.22,-179.443 306.605,-177.994 308.101,-176.648"/>
<polygon fill="midnightblue" stroke="midnightblue" points="310.2,-179.45 316.264,-170.762 306.106,-173.772 310.2,-179.45"/>
</g>
<!-- Node36 -->
<g id="node36" class="node"><title>Node36</title>
<g id="a_node36"><a xlink:href="mxm__std_8F90.html#a825db174c5643aef5e4cdf57067ebbbb" target="_top" xlink:title="mxf21">
<polygon fill="white" stroke="black" points="316.5,-114.5 316.5,-133.5 361.5,-133.5 361.5,-114.5 316.5,-114.5"/>
<text text-anchor="middle" x="339" y="-121.5" font-family="Helvetica,sans-Serif" font-size="10.00">mxf21</text>
</a>
</g>
</g>
<!-- Node15&#45;&gt;Node36 -->
<g id="edge36" class="edge"><title>Node15&#45;&gt;Node36</title>
<path fill="none" stroke="midnightblue" d="M220.202,-475.412C219.348,-432.084 221.109,-251.961 304,-143 305.198,-141.426 306.565,-139.963 308.049,-138.608"/>
<polygon fill="midnightblue" stroke="midnightblue" points="310.149,-141.408 316.177,-132.695 306.031,-135.747 310.149,-141.408"/>
</g>
<!-- Node37 -->
<g id="node37" class="node"><title>Node37</title>
<g id="a_node37"><a xlink:href="mxm__std_8F90.html#a1f2059cb835b2818aef861f2f59a0a72" target="_top" xlink:title="mxf22">
<polygon fill="white" stroke="black" points="316.5,-76.5 316.5,-95.5 361.5,-95.5 361.5,-76.5 316.5,-76.5"/>
<text text-anchor="middle" x="339" y="-83.5" font-family="Helvetica,sans-Serif" font-size="10.00">mxf22</text>
</a>
</g>
</g>
<!-- Node15&#45;&gt;Node37 -->
<g id="edge37" class="edge"><title>Node15&#45;&gt;Node37</title>
<path fill="none" stroke="midnightblue" d="M221.552,-475.283C227.458,-422.168 257.89,-167.092 304,-105 305.209,-103.371 306.602,-101.864 308.119,-100.471"/>
<polygon fill="midnightblue" stroke="midnightblue" points="310.41,-103.133 316.459,-94.435 306.306,-97.4624 310.41,-103.133"/>
</g>
<!-- Node38 -->
<g id="node38" class="node"><title>Node38</title>
<g id="a_node38"><a xlink:href="mxm__std_8F90.html#a3dc6491b8d44b702dbbb13a01f887c59" target="_top" xlink:title="mxf23">
<polygon fill="white" stroke="black" points="316.5,-38.5 316.5,-57.5 361.5,-57.5 361.5,-38.5 316.5,-38.5"/>
<text text-anchor="middle" x="339" y="-45.5" font-family="Helvetica,sans-Serif" font-size="10.00">mxf23</text>
</a>
</g>
</g>
<!-- Node15&#45;&gt;Node38 -->
<g id="edge38" class="edge"><title>Node15&#45;&gt;Node38</title>
<path fill="none" stroke="midnightblue" d="M221.326,-475.437C226.307,-419.611 253.809,-135.957 304,-67 305.194,-65.3599 306.575,-63.8432 308.082,-62.4437"/>
<polygon fill="midnightblue" stroke="midnightblue" points="310.373,-65.1054 316.4,-56.3916 306.255,-59.4453 310.373,-65.1054"/>
</g>
<!-- Node39 -->
<g id="node39" class="node"><title>Node39</title>
<g id="a_node39"><a xlink:href="mxm__std_8F90.html#af0752c9a61343489900f8d812c6980ed" target="_top" xlink:title="mxf24">
<polygon fill="white" stroke="black" points="316.5,-0.5 316.5,-19.5 361.5,-19.5 361.5,-0.5 316.5,-0.5"/>
<text text-anchor="middle" x="339" y="-7.5" font-family="Helvetica,sans-Serif" font-size="10.00">mxf24</text>
</a>
</g>
</g>
<!-- Node15&#45;&gt;Node39 -->
<g id="edge39" class="edge"><title>Node15&#45;&gt;Node39</title>
<path fill="none" stroke="midnightblue" d="M221.158,-475.351C225.34,-416.396 249.784,-104.758 304,-29 305.181,-27.3503 306.551,-25.8264 308.052,-24.4214"/>
<polygon fill="midnightblue" stroke="midnightblue" points="310.342,-27.0824 316.35,-18.3555 306.211,-21.4313 310.342,-27.0824"/>
</g>
</g>
</svg>
