<?xml version="1.0" encoding="UTF-8" standalone="no"?>
<!DOCTYPE svg PUBLIC "-//W3C//DTD SVG 1.1//EN"
 "http://www.w3.org/Graphics/SVG/1.1/DTD/svg11.dtd">
<!-- Generated by graphviz version 2.38.0 (20140413.2041)
 -->
<!-- Title: generalev Pages: 1 -->
<svg width="962pt" height="88pt"
 viewBox="0.00 0.00 962.00 88.00" xmlns="http://www.w3.org/2000/svg" xmlns:xlink="http://www.w3.org/1999/xlink">
<g id="graph0" class="graph" transform="scale(1 1) rotate(0) translate(4 84)">
<title>generalev</title>
<polygon fill="white" stroke="none" points="-4,4 -4,-84 958,-84 958,4 -4,4"/>
<!-- Node1 -->
<g id="node1" class="node"><title>Node1</title>
<polygon fill="#bfbfbf" stroke="black" points="0,-30 0,-49 64,-49 64,-30 0,-30"/>
<text text-anchor="middle" x="32" y="-37" font-family="Helvetica,sans-Serif" font-size="10.00">generalev</text>
</g>
<!-- Node2 -->
<g id="node2" class="node"><title>Node2</title>
<g id="a_node2"><a xlink:href="classhsmg__routines.html#a3df48c7ab66c5291fd70155ce0ca7e11" target="_top" xlink:title="hsmg_routines::hsmg\l_setup_fast1d">
<polygon fill="white" stroke="black" points="100,-24.5 100,-54.5 216,-54.5 216,-24.5 100,-24.5"/>
<text text-anchor="start" x="108" y="-42.5" font-family="Helvetica,sans-Serif" font-size="10.00">hsmg_routines::hsmg</text>
<text text-anchor="middle" x="158" y="-31.5" font-family="Helvetica,sans-Serif" font-size="10.00">_setup_fast1d</text>
</a>
</g>
</g>
<!-- Node1&#45;&gt;Node2 -->
<g id="edge1" class="edge"><title>Node1&#45;&gt;Node2</title>
<path fill="none" stroke="midnightblue" d="M74.5339,-39.5C82.5945,-39.5 91.1749,-39.5 99.6393,-39.5"/>
<polygon fill="midnightblue" stroke="midnightblue" points="74.2905,-36.0001 64.2904,-39.5 74.2904,-43.0001 74.2905,-36.0001"/>
</g>
<!-- Node3 -->
<g id="node3" class="node"><title>Node3</title>
<g id="a_node3"><a xlink:href="classhsmg__routines.html#aee2a36eea92adb36ec686ee9652216e9" target="_top" xlink:title="not sure ">
<polygon fill="white" stroke="black" points="252,-24.5 252,-54.5 368,-54.5 368,-24.5 252,-24.5"/>
<text text-anchor="start" x="260" y="-42.5" font-family="Helvetica,sans-Serif" font-size="10.00">hsmg_routines::hsmg</text>
<text text-anchor="middle" x="310" y="-31.5" font-family="Helvetica,sans-Serif" font-size="10.00">_setup_fast</text>
</a>
</g>
</g>
<!-- Node2&#45;&gt;Node3 -->
<g id="edge2" class="edge"><title>Node2&#45;&gt;Node3</title>
<path fill="none" stroke="midnightblue" d="M226.311,-39.5C234.728,-39.5 243.277,-39.5 251.525,-39.5"/>
<polygon fill="midnightblue" stroke="midnightblue" points="226.137,-36.0001 216.136,-39.5 226.136,-43.0001 226.137,-36.0001"/>
</g>
<!-- Node4 -->
<g id="node4" class="node"><title>Node4</title>
<g id="a_node4"><a xlink:href="classhsmg__routines.html#a58ef718e49a3f4848c3d51307bbccfe0" target="_top" xlink:title="hsmg_routines::h1mg\l_setup_fdm">
<polygon fill="white" stroke="black" points="404,-49.5 404,-79.5 520,-79.5 520,-49.5 404,-49.5"/>
<text text-anchor="start" x="412" y="-67.5" font-family="Helvetica,sans-Serif" font-size="10.00">hsmg_routines::h1mg</text>
<text text-anchor="middle" x="462" y="-56.5" font-family="Helvetica,sans-Serif" font-size="10.00">_setup_fdm</text>
</a>
</g>
</g>
<!-- Node3&#45;&gt;Node4 -->
<g id="edge3" class="edge"><title>Node3&#45;&gt;Node4</title>
<path fill="none" stroke="midnightblue" d="M378.033,-50.6722C386.54,-52.0901 395.186,-53.531 403.525,-54.9209"/>
<polygon fill="midnightblue" stroke="midnightblue" points="378.576,-47.2144 368.136,-49.0227 377.425,-54.1192 378.576,-47.2144"/>
</g>
<!-- Node9 -->
<g id="node9" class="node"><title>Node9</title>
<g id="a_node9"><a xlink:href="classhsmg__routines.html#a96f7ef907486d4f298d8ac372aeddf5e" target="_top" xlink:title="hsmg_routines::hsmg\l_setup_fdm">
<polygon fill="white" stroke="black" points="404,-0.5 404,-30.5 520,-30.5 520,-0.5 404,-0.5"/>
<text text-anchor="start" x="412" y="-18.5" font-family="Helvetica,sans-Serif" font-size="10.00">hsmg_routines::hsmg</text>
<text text-anchor="middle" x="462" y="-7.5" font-family="Helvetica,sans-Serif" font-size="10.00">_setup_fdm</text>
</a>
</g>
</g>
<!-- Node3&#45;&gt;Node9 -->
<g id="edge8" class="edge"><title>Node3&#45;&gt;Node9</title>
<path fill="none" stroke="midnightblue" d="M378.033,-28.7747C386.54,-27.4135 395.186,-26.0302 403.525,-24.6959"/>
<polygon fill="midnightblue" stroke="midnightblue" points="377.458,-25.3221 368.136,-30.3582 378.564,-32.2342 377.458,-25.3221"/>
</g>
<!-- Node5 -->
<g id="node5" class="node"><title>Node5</title>
<g id="a_node5"><a xlink:href="classhsmg__routines.html#a91e8aa59d56bbf05d75aa9c48bcd8977" target="_top" xlink:title="Sets up Poisson preconditioner. ">
<polygon fill="white" stroke="black" points="556,-49.5 556,-79.5 672,-79.5 672,-49.5 556,-49.5"/>
<text text-anchor="start" x="564" y="-67.5" font-family="Helvetica,sans-Serif" font-size="10.00">hsmg_routines::h1mg</text>
<text text-anchor="middle" x="614" y="-56.5" font-family="Helvetica,sans-Serif" font-size="10.00">_setup</text>
</a>
</g>
</g>
<!-- Node4&#45;&gt;Node5 -->
<g id="edge4" class="edge"><title>Node4&#45;&gt;Node5</title>
<path fill="none" stroke="midnightblue" d="M530.311,-64.5C538.728,-64.5 547.277,-64.5 555.525,-64.5"/>
<polygon fill="midnightblue" stroke="midnightblue" points="530.137,-61.0001 520.136,-64.5 530.136,-68.0001 530.137,-61.0001"/>
</g>
<!-- Node6 -->
<g id="node6" class="node"><title>Node6</title>
<g id="a_node6"><a xlink:href="navier6_8F90.html#a45317b1def173b8f1db2e5083595d095" target="_top" xlink:title="Set up arrays for overlapping Schwartz algorithm for pressure solver ">
<polygon fill="white" stroke="black" points="708,-30 708,-49 780,-49 780,-30 708,-30"/>
<text text-anchor="middle" x="744" y="-37" font-family="Helvetica,sans-Serif" font-size="10.00">set_overlap</text>
</a>
</g>
</g>
<!-- Node5&#45;&gt;Node6 -->
<g id="edge5" class="edge"><title>Node5&#45;&gt;Node6</title>
<path fill="none" stroke="midnightblue" d="M682.236,-51.368C691.072,-49.6423 699.825,-47.9326 707.82,-46.3711"/>
<polygon fill="midnightblue" stroke="midnightblue" points="681.405,-47.9641 672.261,-53.3162 682.747,-54.8343 681.405,-47.9641"/>
</g>
<!-- Node7 -->
<g id="node7" class="node"><title>Node7</title>
<g id="a_node7"><a xlink:href="drive1_8F90.html#a87bd37ae2c18426f28f35cc3f24e4355" target="_top" xlink:title="initialize nek ">
<polygon fill="white" stroke="black" points="816,-30 816,-49 869,-49 869,-30 816,-30"/>
<text text-anchor="middle" x="842.5" y="-37" font-family="Helvetica,sans-Serif" font-size="10.00">nek_init</text>
</a>
</g>
</g>
<!-- Node6&#45;&gt;Node7 -->
<g id="edge6" class="edge"><title>Node6&#45;&gt;Node7</title>
<path fill="none" stroke="midnightblue" d="M790.316,-39.5C799.12,-39.5 808.055,-39.5 815.943,-39.5"/>
<polygon fill="midnightblue" stroke="midnightblue" points="790.112,-36.0001 780.112,-39.5 790.112,-43.0001 790.112,-36.0001"/>
</g>
<!-- Node8 -->
<g id="node8" class="node"><title>Node8</title>
<g id="a_node8"><a xlink:href="drive_8F90.html#a13048bf28dd0734640412d69349e3857" target="_top" xlink:title="NEK5000: Spectral Element Computational Fluid Dynamics Solver COPYRIGHT (c) 2008&#45;2010 UCHICAGO ARGONN...">
<polygon fill="white" stroke="black" points="905,-30 905,-49 954,-49 954,-30 905,-30"/>
<text text-anchor="middle" x="929.5" y="-37" font-family="Helvetica,sans-Serif" font-size="10.00">nekton</text>
</a>
</g>
</g>
<!-- Node7&#45;&gt;Node8 -->
<g id="edge7" class="edge"><title>Node7&#45;&gt;Node8</title>
<path fill="none" stroke="midnightblue" d="M879.227,-39.5C887.846,-39.5 896.845,-39.5 904.759,-39.5"/>
<polygon fill="midnightblue" stroke="midnightblue" points="879.003,-36.0001 869.003,-39.5 879.003,-43.0001 879.003,-36.0001"/>
</g>
<!-- Node10 -->
<g id="node10" class="node"><title>Node10</title>
<g id="a_node10"><a xlink:href="classhsmg__routines.html#ac8f9bca9624d5e550d70acabfa8aef73" target="_top" xlink:title="Sets up hybrid Schwarz multi&#45;grid preconditioner. ">
<polygon fill="white" stroke="black" points="556,-0.5 556,-30.5 672,-30.5 672,-0.5 556,-0.5"/>
<text text-anchor="start" x="564" y="-18.5" font-family="Helvetica,sans-Serif" font-size="10.00">hsmg_routines::hsmg</text>
<text text-anchor="middle" x="614" y="-7.5" font-family="Helvetica,sans-Serif" font-size="10.00">_setup</text>
</a>
</g>
</g>
<!-- Node9&#45;&gt;Node10 -->
<g id="edge9" class="edge"><title>Node9&#45;&gt;Node10</title>
<path fill="none" stroke="midnightblue" d="M530.311,-15.5C538.728,-15.5 547.277,-15.5 555.525,-15.5"/>
<polygon fill="midnightblue" stroke="midnightblue" points="530.137,-12.0001 520.136,-15.5 530.136,-19.0001 530.137,-12.0001"/>
</g>
<!-- Node10&#45;&gt;Node6 -->
<g id="edge10" class="edge"><title>Node10&#45;&gt;Node6</title>
<path fill="none" stroke="midnightblue" d="M682.236,-28.1067C691.072,-29.7634 699.825,-31.4047 707.82,-32.9037"/>
<polygon fill="midnightblue" stroke="midnightblue" points="682.735,-24.6394 672.261,-26.2365 681.445,-31.5195 682.735,-24.6394"/>
</g>
</g>
</svg>
