<?xml version="1.0" encoding="UTF-8" standalone="no"?>
<!DOCTYPE svg PUBLIC "-//W3C//DTD SVG 1.1//EN"
 "http://www.w3.org/Graphics/SVG/1.1/DTD/svg11.dtd">
<!-- Generated by graphviz version 2.38.0 (20140413.2041)
 -->
<!-- Title: setfast Pages: 1 -->
<svg width="1445pt" height="565pt"
 viewBox="0.00 0.00 1445.00 564.88" xmlns="http://www.w3.org/2000/svg" xmlns:xlink="http://www.w3.org/1999/xlink">
<g id="graph0" class="graph" transform="scale(1 1) rotate(0) translate(4 560.881)">
<title>setfast</title>
<polygon fill="white" stroke="none" points="-4,4 -4,-560.881 1441,-560.881 1441,4 -4,4"/>
<!-- Node1 -->
<g id="node1" class="node"><title>Node1</title>
<polygon fill="#bfbfbf" stroke="black" points="0,-385.381 0,-404.381 48,-404.381 48,-385.381 0,-385.381"/>
<text text-anchor="middle" x="24" y="-392.381" font-family="Helvetica,sans-Serif" font-size="10.00">setfast</text>
</g>
<!-- Node2 -->
<g id="node2" class="node"><title>Node2</title>
<g id="a_node2"><a xlink:href="hmholtz_8F90.html#aa576b5bd623cce50fd6323db12ba5376" target="_top" xlink:title="Compute the (Helmholtz) matrix&#45;vector product, AU = helm1*[A]u + helm2*[B]u, for NEL elements...">
<polygon fill="white" stroke="black" points="84,-309.381 84,-328.381 134,-328.381 134,-309.381 84,-309.381"/>
<text text-anchor="middle" x="109" y="-316.381" font-family="Helvetica,sans-Serif" font-size="10.00">axhelm</text>
</a>
</g>
</g>
<!-- Node1&#45;&gt;Node2 -->
<g id="edge1" class="edge"><title>Node1&#45;&gt;Node2</title>
<path fill="none" stroke="midnightblue" d="M43.0116,-378.389C59.6838,-363.123 83.8968,-340.952 97.5733,-328.429"/>
<polygon fill="midnightblue" stroke="midnightblue" points="40.5236,-375.921 35.512,-385.256 45.2509,-381.084 40.5236,-375.921"/>
</g>
<!-- Node5 -->
<g id="node5" class="node"><title>Node5</title>
<g id="a_node5"><a xlink:href="hmholtz_8F90.html#a8734f3cc2d37d6a2ccd1daa8db57513d" target="_top" xlink:title="Solve the Helmholtz equation, H*U = RHS, using preconditioned conjugate gradient iteration. Preconditioner: diag(H). ">
<polygon fill="white" stroke="black" points="494,-347.381 494,-366.381 534,-366.381 534,-347.381 494,-347.381"/>
<text text-anchor="middle" x="514" y="-354.381" font-family="Helvetica,sans-Serif" font-size="10.00">cggo</text>
</a>
</g>
</g>
<!-- Node1&#45;&gt;Node5 -->
<g id="edge57" class="edge"><title>Node1&#45;&gt;Node5</title>
<path fill="none" stroke="midnightblue" d="M58.1166,-401.39C128.53,-413.95 297.741,-437.313 433,-401.881 459.052,-395.057 485.572,-377.632 500.588,-366.576"/>
<polygon fill="midnightblue" stroke="midnightblue" points="58.5385,-397.909 48.0716,-399.551 57.2776,-404.795 58.5385,-397.909"/>
</g>
<!-- Node3 -->
<g id="node3" class="node"><title>Node3</title>
<g id="a_node3"><a xlink:href="gmres_8F90.html#abb09784e907975584f1a8f4dbf282a79" target="_top" xlink:title="w = A*x for pressure iteration ">
<polygon fill="white" stroke="black" points="217,-347.381 217,-366.381 246,-366.381 246,-347.381 217,-347.381"/>
<text text-anchor="middle" x="231.5" y="-354.381" font-family="Helvetica,sans-Serif" font-size="10.00">ax</text>
</a>
</g>
</g>
<!-- Node2&#45;&gt;Node3 -->
<g id="edge2" class="edge"><title>Node2&#45;&gt;Node3</title>
<path fill="none" stroke="midnightblue" d="M143.879,-329.625C152.404,-332.324 161.537,-335.212 170,-337.881 185.959,-342.914 204.296,-348.669 216.56,-352.514"/>
<polygon fill="midnightblue" stroke="midnightblue" points="144.817,-326.251 134.227,-326.568 142.703,-332.924 144.817,-326.251"/>
</g>
<!-- Node2&#45;&gt;Node5 -->
<g id="edge19" class="edge"><title>Node2&#45;&gt;Node5</title>
<path fill="none" stroke="midnightblue" d="M122.557,-336.641C133.362,-350.26 150.297,-368.015 170,-375.881 285.484,-421.991 440.379,-380.389 493.884,-363.363"/>
<polygon fill="midnightblue" stroke="midnightblue" points="125.187,-334.315 116.374,-328.434 119.596,-338.527 125.187,-334.315"/>
</g>
<!-- Node8 -->
<g id="node8" class="node"><title>Node8</title>
<g id="a_node8"><a xlink:href="conduct_8F90.html#a74a7f053381975ed36df8ea959f3aa01" target="_top" xlink:title="Solve the convection&#45;diffusion equation for passive scalar IPSCAL. ">
<polygon fill="white" stroke="black" points="865,-81.3813 865,-100.381 912,-100.381 912,-81.3813 865,-81.3813"/>
<text text-anchor="middle" x="888.5" y="-88.3813" font-family="Helvetica,sans-Serif" font-size="10.00">cdscal</text>
</a>
</g>
</g>
<!-- Node2&#45;&gt;Node8 -->
<g id="edge18" class="edge"><title>Node2&#45;&gt;Node8</title>
<path fill="none" stroke="midnightblue" d="M111.192,-299.183C115.167,-240.611 130.057,-69.3948 170,-33.8813 240.035,28.3879 286.285,-14.8813 380,-14.8813 380,-14.8813 380,-14.8813 646.5,-14.8813 729.537,-14.8813 752.002,-23.7954 829,-54.8813 845.808,-61.6672 863.28,-73.0862 874.702,-81.2443"/>
<polygon fill="midnightblue" stroke="midnightblue" points="107.689,-299.118 110.538,-309.322 114.674,-299.568 107.689,-299.118"/>
</g>
<!-- Node17 -->
<g id="node17" class="node"><title>Node17</title>
<g id="a_node17"><a xlink:href="hmholtz_8F90.html#a1d25ae22b38fb86936fcd9c68dab702f" target="_top" xlink:title="Check that the tolerances are not too small for the CG&#45;solver. Important when calling the CG&#45;solver (...">
<polygon fill="white" stroke="black" points="205,-309.381 205,-328.381 258,-328.381 258,-309.381 205,-309.381"/>
<text text-anchor="middle" x="231.5" y="-316.381" font-family="Helvetica,sans-Serif" font-size="10.00">chktcg1</text>
</a>
</g>
</g>
<!-- Node2&#45;&gt;Node17 -->
<g id="edge20" class="edge"><title>Node2&#45;&gt;Node17</title>
<path fill="none" stroke="midnightblue" d="M144.271,-318.881C163.514,-318.881 187.131,-318.881 204.78,-318.881"/>
<polygon fill="midnightblue" stroke="midnightblue" points="144.095,-315.381 134.095,-318.881 144.095,-322.381 144.095,-315.381"/>
</g>
<!-- Node18 -->
<g id="node18" class="node"><title>Node18</title>
<g id="a_node18"><a xlink:href="plan4_8F90.html#aabf6317e90fc459c525a5716eb31692a" target="_top" xlink:title="Compute start residual/right&#45;hand&#45;side in the pressure. ">
<polygon fill="white" stroke="black" points="753.5,-366.381 753.5,-385.381 807.5,-385.381 807.5,-366.381 753.5,-366.381"/>
<text text-anchor="middle" x="780.5" y="-373.381" font-family="Helvetica,sans-Serif" font-size="10.00">crespsp</text>
</a>
</g>
</g>
<!-- Node2&#45;&gt;Node18 -->
<g id="edge24" class="edge"><title>Node2&#45;&gt;Node18</title>
<path fill="none" stroke="midnightblue" d="M117.719,-337.555C126.937,-357.116 144.395,-386.781 170,-399.881 372.927,-503.706 665.507,-415.967 753.511,-385.404"/>
<polygon fill="midnightblue" stroke="midnightblue" points="120.906,-336.108 113.65,-328.388 114.508,-338.948 120.906,-336.108"/>
</g>
<!-- Node19 -->
<g id="node19" class="node"><title>Node19</title>
<g id="a_node19"><a xlink:href="eigsolv_8F90.html#a40aa959fb07551b7b3fe2e5bd7ed6fda" target="_top" xlink:title="Compute maximum eigenvalue of the discrete Helmholtz operator. ">
<polygon fill="white" stroke="black" points="199,-499.381 199,-518.381 264,-518.381 264,-499.381 199,-499.381"/>
<text text-anchor="middle" x="231.5" y="-506.381" font-family="Helvetica,sans-Serif" font-size="10.00">gammam1</text>
</a>
</g>
</g>
<!-- Node2&#45;&gt;Node19 -->
<g id="edge26" class="edge"><title>Node2&#45;&gt;Node19</title>
<path fill="none" stroke="midnightblue" d="M116.604,-337.874C126.126,-363.834 145.314,-411.239 170,-446.881 184.386,-467.652 205.946,-487.862 219.068,-499.303"/>
<polygon fill="midnightblue" stroke="midnightblue" points="119.896,-336.686 113.229,-328.452 113.306,-339.046 119.896,-336.686"/>
</g>
<!-- Node23 -->
<g id="node23" class="node"><title>Node23</title>
<g id="a_node23"><a xlink:href="navier8_8F90.html#aaeec4769efda346366e7e561aa844c88" target="_top" xlink:title="This routine generates Nelv submatrices of order ncl using Galerkin projection. ">
<polygon fill="white" stroke="black" points="170,-537.381 170,-556.381 293,-556.381 293,-537.381 170,-537.381"/>
<text text-anchor="middle" x="231.5" y="-544.381" font-family="Helvetica,sans-Serif" font-size="10.00">get_local_crs_galerkin</text>
</a>
</g>
</g>
<!-- Node2&#45;&gt;Node23 -->
<g id="edge32" class="edge"><title>Node2&#45;&gt;Node23</title>
<path fill="none" stroke="midnightblue" d="M109.822,-338.884C110.569,-380.039 118.194,-474.778 170,-527.881 173.767,-531.743 178.309,-534.822 183.19,-537.277"/>
<polygon fill="midnightblue" stroke="midnightblue" points="113.321,-338.755 109.763,-328.776 106.321,-338.797 113.321,-338.755"/>
</g>
<!-- Node26 -->
<g id="node26" class="node"><title>Node26</title>
<g id="a_node26"><a xlink:href="classhelmholtz.html#a9609e49232b58a6deb40ed82508c0a45" target="_top" xlink:title="Update the k&#45;th row/column of H_red. ">
<polygon fill="white" stroke="black" points="185.5,-157.381 185.5,-176.381 277.5,-176.381 277.5,-157.381 185.5,-157.381"/>
<text text-anchor="middle" x="231.5" y="-164.381" font-family="Helvetica,sans-Serif" font-size="10.00">helmholtz::hconj</text>
</a>
</g>
</g>
<!-- Node2&#45;&gt;Node26 -->
<g id="edge36" class="edge"><title>Node2&#45;&gt;Node26</title>
<path fill="none" stroke="midnightblue" d="M114.406,-299.008C121.528,-271.244 138.112,-220.891 170,-190.881 176.665,-184.609 185.17,-179.903 193.682,-176.4"/>
<polygon fill="midnightblue" stroke="midnightblue" points="110.918,-298.543 111.985,-309.084 117.724,-300.179 110.918,-298.543"/>
</g>
<!-- Node29 -->
<g id="node29" class="node"><title>Node29</title>
<g id="a_node29"><a xlink:href="classhelmholtz.html#a52002b3abc9e261d205cb96d49918f05" target="_top" xlink:title="Project out the part of the residual in the approx space. ">
<polygon fill="white" stroke="black" points="469,-157.381 469,-176.381 559,-176.381 559,-157.381 469,-157.381"/>
<text text-anchor="middle" x="514" y="-164.381" font-family="Helvetica,sans-Serif" font-size="10.00">helmholtz::projh</text>
</a>
</g>
</g>
<!-- Node2&#45;&gt;Node29 -->
<g id="edge53" class="edge"><title>Node2&#45;&gt;Node29</title>
<path fill="none" stroke="midnightblue" d="M123.977,-301.648C135.173,-288.92 151.947,-272.098 170,-261.881 196.855,-246.684 390.629,-197.364 474.487,-176.424"/>
<polygon fill="midnightblue" stroke="midnightblue" points="121.275,-299.423 117.468,-309.31 126.61,-303.955 121.275,-299.423"/>
</g>
<!-- Node30 -->
<g id="node30" class="node"><title>Node30</title>
<g id="a_node30"><a xlink:href="navier1_8F90.html#af8f288bd13e9077cfadcd76c95c59dc5" target="_top" xlink:title="Compute error norms of a (scalar) field variable X defined on mesh 1 or mesh 2. The error norms are n...">
<polygon fill="white" stroke="black" points="488.5,-81.3813 488.5,-100.381 539.5,-100.381 539.5,-81.3813 488.5,-81.3813"/>
<text text-anchor="middle" x="514" y="-88.3813" font-family="Helvetica,sans-Serif" font-size="10.00">normsc</text>
</a>
</g>
</g>
<!-- Node2&#45;&gt;Node30 -->
<g id="edge42" class="edge"><title>Node2&#45;&gt;Node30</title>
<path fill="none" stroke="midnightblue" d="M110.732,-299.054C113.208,-262.942 123.929,-186.608 170,-147.881 264.496,-68.4483 426.897,-79.5487 488.414,-87.2296"/>
<polygon fill="midnightblue" stroke="midnightblue" points="107.225,-299.093 110.183,-309.267 114.215,-299.469 107.225,-299.093"/>
</g>
<!-- Node33 -->
<g id="node33" class="node"><title>Node33</title>
<g id="a_node33"><a xlink:href="navier1_8F90.html#aaf82c7bf142ad5f9c363e3dc3c39fa3c" target="_top" xlink:title="OUT = (H1*A+H2*B) * INP. ">
<polygon fill="white" stroke="black" points="361,-233.381 361,-252.381 401,-252.381 401,-233.381 361,-233.381"/>
<text text-anchor="middle" x="381" y="-240.381" font-family="Helvetica,sans-Serif" font-size="10.00">ophx</text>
</a>
</g>
</g>
<!-- Node2&#45;&gt;Node33 -->
<g id="edge48" class="edge"><title>Node2&#45;&gt;Node33</title>
<path fill="none" stroke="midnightblue" d="M143.808,-307.904C152.335,-305.211 161.486,-302.384 170,-299.881 239.952,-279.322 323.788,-257.365 360.815,-247.803"/>
<polygon fill="midnightblue" stroke="midnightblue" points="142.626,-304.608 134.161,-310.978 144.751,-311.277 142.626,-304.608"/>
</g>
<!-- Node36 -->
<g id="node36" class="node"><title>Node36</title>
<g id="a_node36"><a xlink:href="navier1_8F90.html#a08e5b36029e39242bd7344bd10ed472c" target="_top" xlink:title="compute weak form of the laplacian operator including the boundary contribution ">
<polygon fill="white" stroke="black" points="198.5,-43.3813 198.5,-62.3813 264.5,-62.3813 264.5,-43.3813 198.5,-43.3813"/>
<text text-anchor="middle" x="231.5" y="-50.3813" font-family="Helvetica,sans-Serif" font-size="10.00">wlaplacian</text>
</a>
</g>
</g>
<!-- Node2&#45;&gt;Node36 -->
<g id="edge54" class="edge"><title>Node2&#45;&gt;Node36</title>
<path fill="none" stroke="midnightblue" d="M109.186,-298.935C108.435,-253.712 112.886,-142.253 170,-76.8813 177.36,-68.4569 188.076,-62.9591 198.451,-59.3841"/>
<polygon fill="midnightblue" stroke="midnightblue" points="105.694,-299.266 109.47,-309.165 112.691,-299.072 105.694,-299.266"/>
</g>
<!-- Node4 -->
<g id="node4" class="node"><title>Node4</title>
<g id="a_node4"><a xlink:href="gmres_8F90.html#a377d8578c6ccd4fddffb699c7a18f603" target="_top" xlink:title="Solve the Helmholtz equation by right&#45;preconditioned GMRES iteration. ">
<polygon fill="white" stroke="black" points="345,-347.381 345,-366.381 417,-366.381 417,-347.381 345,-347.381"/>
<text text-anchor="middle" x="381" y="-354.381" font-family="Helvetica,sans-Serif" font-size="10.00">hmh_gmres</text>
</a>
</g>
</g>
<!-- Node3&#45;&gt;Node4 -->
<g id="edge3" class="edge"><title>Node3&#45;&gt;Node4</title>
<path fill="none" stroke="midnightblue" d="M256.414,-356.881C280.38,-356.881 317.54,-356.881 344.857,-356.881"/>
<polygon fill="midnightblue" stroke="midnightblue" points="256.112,-353.381 246.112,-356.881 256.112,-360.381 256.112,-353.381"/>
</g>
<!-- Node4&#45;&gt;Node5 -->
<g id="edge4" class="edge"><title>Node4&#45;&gt;Node5</title>
<path fill="none" stroke="midnightblue" d="M427.232,-356.881C449.921,-356.881 476.209,-356.881 493.64,-356.881"/>
<polygon fill="midnightblue" stroke="midnightblue" points="427.106,-353.381 417.106,-356.881 427.106,-360.381 427.106,-353.381"/>
</g>
<!-- Node6 -->
<g id="node6" class="node"><title>Node6</title>
<g id="a_node6"><a xlink:href="hmholtz_8F90.html#a52dcac1fe733719d4987d36aac022e4d" target="_top" xlink:title="hmholtz">
<polygon fill="white" stroke="black" points="619,-309.381 619,-328.381 672,-328.381 672,-309.381 619,-309.381"/>
<text text-anchor="middle" x="645.5" y="-316.381" font-family="Helvetica,sans-Serif" font-size="10.00">hmholtz</text>
</a>
</g>
</g>
<!-- Node5&#45;&gt;Node6 -->
<g id="edge5" class="edge"><title>Node5&#45;&gt;Node6</title>
<path fill="none" stroke="midnightblue" d="M543.742,-348.447C566.138,-341.875 596.962,-332.831 618.6,-326.481"/>
<polygon fill="midnightblue" stroke="midnightblue" points="542.718,-345.1 534.108,-351.274 544.689,-351.817 542.718,-345.1"/>
</g>
<!-- Node16 -->
<g id="node16" class="node"><title>Node16</title>
<g id="a_node16"><a xlink:href="classhelmholtz.html#ae307c08c70cdc6428553cb85ce68cbbb" target="_top" xlink:title="helmholtz::hmhzpf">
<polygon fill="white" stroke="black" points="595,-271.381 595,-290.381 696,-290.381 696,-271.381 595,-271.381"/>
<text text-anchor="middle" x="645.5" y="-278.381" font-family="Helvetica,sans-Serif" font-size="10.00">helmholtz::hmhzpf</text>
</a>
</g>
</g>
<!-- Node5&#45;&gt;Node16 -->
<g id="edge16" class="edge"><title>Node5&#45;&gt;Node16</title>
<path fill="none" stroke="midnightblue" d="M534.478,-340.87C550.138,-328.536 573.069,-311.658 595,-299.881 601.569,-296.354 608.937,-293.157 615.94,-290.434"/>
<polygon fill="midnightblue" stroke="midnightblue" points="532.198,-338.211 526.578,-347.193 536.573,-343.676 532.198,-338.211"/>
</g>
<!-- Node7 -->
<g id="node7" class="node"><title>Node7</title>
<g id="a_node7"><a xlink:href="classhelmholtz.html#abf98ad104d11790462e9f07b3fa91848" target="_top" xlink:title="Either std. Helmholtz solve, or a projection + Helmholtz solve. ">
<polygon fill="white" stroke="black" points="732,-195.381 732,-214.381 829,-214.381 829,-195.381 732,-195.381"/>
<text text-anchor="middle" x="780.5" y="-202.381" font-family="Helvetica,sans-Serif" font-size="10.00">helmholtz::hsolve</text>
</a>
</g>
</g>
<!-- Node6&#45;&gt;Node7 -->
<g id="edge6" class="edge"><title>Node6&#45;&gt;Node7</title>
<path fill="none" stroke="midnightblue" d="M681.676,-309.278C686.875,-306.8 691.865,-303.714 696,-299.881 723.412,-274.474 704.767,-249.48 732,-223.881 736.012,-220.11 740.867,-217.051 745.922,-214.58"/>
<polygon fill="midnightblue" stroke="midnightblue" points="680.181,-306.107 672.231,-313.11 682.813,-312.594 680.181,-306.107"/>
</g>
<!-- Node7&#45;&gt;Node8 -->
<g id="edge7" class="edge"><title>Node7&#45;&gt;Node8</title>
<path fill="none" stroke="midnightblue" d="M797.444,-187.734C820.009,-163.466 860.512,-119.906 878.485,-100.576"/>
<polygon fill="midnightblue" stroke="midnightblue" points="794.784,-185.455 790.538,-195.162 799.91,-190.222 794.784,-185.455"/>
</g>
<!-- Node14 -->
<g id="node14" class="node"><title>Node14</title>
<g id="a_node14"><a xlink:href="plan4_8F90.html#a5cbf852b67e73bfa44e028338c4d57ad" target="_top" xlink:title="Splitting scheme . ">
<polygon fill="white" stroke="black" points="867,-233.381 867,-252.381 910,-252.381 910,-233.381 867,-233.381"/>
<text text-anchor="middle" x="888.5" y="-240.381" font-family="Helvetica,sans-Serif" font-size="10.00">plan4</text>
</a>
</g>
</g>
<!-- Node7&#45;&gt;Node14 -->
<g id="edge13" class="edge"><title>Node7&#45;&gt;Node14</title>
<path fill="none" stroke="midnightblue" d="M818.033,-217.978C834.328,-223.82 852.929,-230.488 866.779,-235.453"/>
<polygon fill="midnightblue" stroke="midnightblue" points="818.843,-214.55 808.248,-214.47 816.481,-221.14 818.843,-214.55"/>
</g>
<!-- Node9 -->
<g id="node9" class="node"><title>Node9</title>
<g id="a_node9"><a xlink:href="drive2_8F90.html#acce80cd37f20e9b52729eb52d86a9c86" target="_top" xlink:title="Driver for temperature or passive scalar. ">
<polygon fill="white" stroke="black" points="948,-119.381 948,-138.381 986,-138.381 986,-119.381 948,-119.381"/>
<text text-anchor="middle" x="967" y="-126.381" font-family="Helvetica,sans-Serif" font-size="10.00">heat</text>
</a>
</g>
</g>
<!-- Node8&#45;&gt;Node9 -->
<g id="edge8" class="edge"><title>Node8&#45;&gt;Node9</title>
<path fill="none" stroke="midnightblue" d="M917.971,-105.024C927.937,-109.974 938.852,-115.396 947.755,-119.819"/>
<polygon fill="midnightblue" stroke="midnightblue" points="919.317,-101.784 908.804,-100.47 916.203,-108.054 919.317,-101.784"/>
</g>
<!-- Node10 -->
<g id="node10" class="node"><title>Node10</title>
<g id="a_node10"><a xlink:href="drive1_8F90.html#ae177ea7efac97f35241521b782a671c0" target="_top" xlink:title="take a single time&#45;step ">
<polygon fill="white" stroke="black" points="1022,-299.381 1022,-318.381 1102,-318.381 1102,-299.381 1022,-299.381"/>
<text text-anchor="middle" x="1062" y="-306.381" font-family="Helvetica,sans-Serif" font-size="10.00">nek_advance</text>
</a>
</g>
</g>
<!-- Node9&#45;&gt;Node10 -->
<g id="edge9" class="edge"><title>Node9&#45;&gt;Node10</title>
<path fill="none" stroke="midnightblue" d="M977.632,-147.524C997.225,-185.446 1041.12,-270.403 1055.98,-299.156"/>
<polygon fill="midnightblue" stroke="midnightblue" points="980.7,-145.837 973,-138.559 974.481,-149.05 980.7,-145.837"/>
</g>
<!-- Node11 -->
<g id="node11" class="node"><title>Node11</title>
<g id="a_node11"><a xlink:href="drive1_8F90.html#a18d3e839786263fc4cf91f7eeb714371" target="_top" xlink:title="take a chunk of time&#45;steps ">
<polygon fill="white" stroke="black" points="1138,-366.381 1138,-385.381 1251,-385.381 1251,-366.381 1138,-366.381"/>
<text text-anchor="middle" x="1194.5" y="-373.381" font-family="Helvetica,sans-Serif" font-size="10.00">nek__multi_advance</text>
</a>
</g>
</g>
<!-- Node10&#45;&gt;Node11 -->
<g id="edge10" class="edge"><title>Node10&#45;&gt;Node11</title>
<path fill="none" stroke="midnightblue" d="M1090.8,-323.152C1116.13,-336.159 1152.85,-355.014 1174.84,-366.3"/>
<polygon fill="midnightblue" stroke="midnightblue" points="1092.19,-319.935 1081.7,-318.481 1088.99,-326.162 1092.19,-319.935"/>
</g>
<!-- Node12 -->
<g id="node12" class="node"><title>Node12</title>
<g id="a_node12"><a xlink:href="drive1_8F90.html#a6ad57e0cf728f343e371ef8c9a02cd8a" target="_top" xlink:title="integrate the governing equations in time ">
<polygon fill="white" stroke="black" points="1287,-433.381 1287,-452.381 1352,-452.381 1352,-433.381 1287,-433.381"/>
<text text-anchor="middle" x="1319.5" y="-440.381" font-family="Helvetica,sans-Serif" font-size="10.00">nek_solve</text>
</a>
</g>
</g>
<!-- Node11&#45;&gt;Node12 -->
<g id="edge11" class="edge"><title>Node11&#45;&gt;Node12</title>
<path fill="none" stroke="midnightblue" d="M1222.01,-390.324C1245.88,-403.325 1280.28,-422.063 1300.91,-433.3"/>
<polygon fill="midnightblue" stroke="midnightblue" points="1223.58,-387.191 1213.12,-385.481 1220.23,-393.338 1223.58,-387.191"/>
</g>
<!-- Node13 -->
<g id="node13" class="node"><title>Node13</title>
<g id="a_node13"><a xlink:href="drive_8F90.html#a13048bf28dd0734640412d69349e3857" target="_top" xlink:title="NEK5000: Spectral Element Computational Fluid Dynamics Solver COPYRIGHT (c) 2008&#45;2010 UCHICAGO ARGONN...">
<polygon fill="white" stroke="black" points="1388,-485.381 1388,-504.381 1437,-504.381 1437,-485.381 1388,-485.381"/>
<text text-anchor="middle" x="1412.5" y="-492.381" font-family="Helvetica,sans-Serif" font-size="10.00">nekton</text>
</a>
</g>
</g>
<!-- Node12&#45;&gt;Node13 -->
<g id="edge12" class="edge"><title>Node12&#45;&gt;Node13</title>
<path fill="none" stroke="midnightblue" d="M1346.26,-457.603C1361.76,-466.457 1381.04,-477.474 1394.61,-485.228"/>
<polygon fill="midnightblue" stroke="midnightblue" points="1347.61,-454.341 1337.19,-452.419 1344.14,-460.419 1347.61,-454.341"/>
</g>
<!-- Node15 -->
<g id="node15" class="node"><title>Node15</title>
<g id="a_node15"><a xlink:href="drive2_8F90.html#ab0aeca9ad3db8be87a01ba29d069d71e" target="_top" xlink:title="Driver for solving the incompressible Navier&#45;Stokes equations. ">
<polygon fill="white" stroke="black" points="949.5,-233.381 949.5,-252.381 984.5,-252.381 984.5,-233.381 949.5,-233.381"/>
<text text-anchor="middle" x="967" y="-240.381" font-family="Helvetica,sans-Serif" font-size="10.00">fluid</text>
</a>
</g>
</g>
<!-- Node14&#45;&gt;Node15 -->
<g id="edge14" class="edge"><title>Node14&#45;&gt;Node15</title>
<path fill="none" stroke="midnightblue" d="M920.262,-242.881C930.086,-242.881 940.596,-242.881 949.061,-242.881"/>
<polygon fill="midnightblue" stroke="midnightblue" points="920.001,-239.381 910.001,-242.881 920.001,-246.381 920.001,-239.381"/>
</g>
<!-- Node15&#45;&gt;Node10 -->
<g id="edge15" class="edge"><title>Node15&#45;&gt;Node10</title>
<path fill="none" stroke="midnightblue" d="M990.364,-258.752C1008.19,-271.404 1032.57,-288.703 1047.52,-299.317"/>
<polygon fill="midnightblue" stroke="midnightblue" points="991.903,-255.553 981.722,-252.62 987.852,-261.262 991.903,-255.553"/>
</g>
<!-- Node16&#45;&gt;Node7 -->
<g id="edge17" class="edge"><title>Node16&#45;&gt;Node7</title>
<path fill="none" stroke="midnightblue" d="M667.535,-265.062C684.391,-252.834 708.953,-236.005 732,-223.881 738.603,-220.408 745.987,-217.168 752.928,-214.383"/>
<polygon fill="midnightblue" stroke="midnightblue" points="665.004,-262.578 659.021,-271.322 669.151,-268.218 665.004,-262.578"/>
</g>
<!-- Node17&#45;&gt;Node4 -->
<g id="edge21" class="edge"><title>Node17&#45;&gt;Node4</title>
<path fill="none" stroke="midnightblue" d="M268.036,-328.036C291.353,-334.043 321.712,-341.865 344.934,-347.847"/>
<polygon fill="midnightblue" stroke="midnightblue" points="268.75,-324.606 258.193,-325.5 267.003,-331.385 268.75,-324.606"/>
</g>
<!-- Node17&#45;&gt;Node6 -->
<g id="edge22" class="edge"><title>Node17&#45;&gt;Node6</title>
<path fill="none" stroke="midnightblue" d="M268.555,-318.881C350.268,-318.881 547.939,-318.881 618.737,-318.881"/>
<polygon fill="midnightblue" stroke="midnightblue" points="268.272,-315.381 258.272,-318.881 268.272,-322.381 268.272,-315.381"/>
</g>
<!-- Node17&#45;&gt;Node16 -->
<g id="edge23" class="edge"><title>Node17&#45;&gt;Node16</title>
<path fill="none" stroke="midnightblue" d="M268.441,-315.566C342.166,-308.766 510.628,-293.229 594.768,-285.468"/>
<polygon fill="midnightblue" stroke="midnightblue" points="267.909,-312.1 258.272,-316.504 268.552,-319.071 267.909,-312.1"/>
</g>
<!-- Node18&#45;&gt;Node14 -->
<g id="edge25" class="edge"><title>Node18&#45;&gt;Node14</title>
<path fill="none" stroke="midnightblue" d="M795.386,-358.458C817.941,-330.159 861.809,-275.116 879.66,-252.718"/>
<polygon fill="midnightblue" stroke="midnightblue" points="792.619,-356.315 789.123,-366.316 798.093,-360.678 792.619,-356.315"/>
</g>
<!-- Node20 -->
<g id="node20" class="node"><title>Node20</title>
<g id="a_node20"><a xlink:href="eigsolv_8F90.html#a91ddf7cb5ca6b19d1c736da5bf7386b3" target="_top" xlink:title="Compute the following eigenvalues:. EIGAA = minimum eigenvalue of the matrix A (=Laplacian) EIGAE = m...">
<polygon fill="white" stroke="black" points="357,-499.381 357,-518.381 405,-518.381 405,-499.381 357,-499.381"/>
<text text-anchor="middle" x="381" y="-506.381" font-family="Helvetica,sans-Serif" font-size="10.00">eigenv</text>
</a>
</g>
</g>
<!-- Node19&#45;&gt;Node20 -->
<g id="edge27" class="edge"><title>Node19&#45;&gt;Node20</title>
<path fill="none" stroke="midnightblue" d="M274.354,-508.881C301.018,-508.881 334.573,-508.881 356.623,-508.881"/>
<polygon fill="midnightblue" stroke="midnightblue" points="274.142,-505.381 264.142,-508.881 274.142,-512.381 274.142,-505.381"/>
</g>
<!-- Node21 -->
<g id="node21" class="node"><title>Node21</title>
<g id="a_node21"><a xlink:href="drive2_8F90.html#a7f0d055bb47546a4859ac7d63339197e" target="_top" xlink:title="Compute eigenvalues. ">
<polygon fill="white" stroke="black" points="489.5,-499.381 489.5,-518.381 538.5,-518.381 538.5,-499.381 489.5,-499.381"/>
<text text-anchor="middle" x="514" y="-506.381" font-family="Helvetica,sans-Serif" font-size="10.00">geneig</text>
</a>
</g>
</g>
<!-- Node20&#45;&gt;Node21 -->
<g id="edge28" class="edge"><title>Node20&#45;&gt;Node21</title>
<path fill="none" stroke="midnightblue" d="M415.166,-508.881C438.261,-508.881 468.514,-508.881 489.228,-508.881"/>
<polygon fill="midnightblue" stroke="midnightblue" points="415.119,-505.381 405.119,-508.881 415.119,-512.381 415.119,-505.381"/>
</g>
<!-- Node21&#45;&gt;Node10 -->
<g id="edge29" class="edge"><title>Node21&#45;&gt;Node10</title>
<path fill="none" stroke="midnightblue" d="M549.01,-508.881C599.364,-508.881 696.719,-508.881 779.5,-508.881 779.5,-508.881 779.5,-508.881 889.5,-508.881 991.043,-508.881 1045.44,-358.478 1058.1,-318.528"/>
<polygon fill="midnightblue" stroke="midnightblue" points="548.71,-505.381 538.71,-508.881 548.71,-512.381 548.71,-505.381"/>
</g>
<!-- Node22 -->
<g id="node22" class="node"><title>Node22</title>
<g id="a_node22"><a xlink:href="drive1_8F90.html#a87bd37ae2c18426f28f35cc3f24e4355" target="_top" xlink:title="initialize nek ">
<polygon fill="white" stroke="black" points="619,-537.381 619,-556.381 672,-556.381 672,-537.381 619,-537.381"/>
<text text-anchor="middle" x="645.5" y="-544.381" font-family="Helvetica,sans-Serif" font-size="10.00">nek_init</text>
</a>
</g>
</g>
<!-- Node21&#45;&gt;Node22 -->
<g id="edge30" class="edge"><title>Node21&#45;&gt;Node22</title>
<path fill="none" stroke="midnightblue" d="M548.617,-518.746C570.483,-525.162 598.565,-533.402 618.678,-539.304"/>
<polygon fill="midnightblue" stroke="midnightblue" points="549.333,-515.308 538.752,-515.851 547.362,-522.025 549.333,-515.308"/>
</g>
<!-- Node22&#45;&gt;Node13 -->
<g id="edge31" class="edge"><title>Node22&#45;&gt;Node13</title>
<path fill="none" stroke="midnightblue" d="M682.471,-546.881C729.574,-546.881 814.719,-546.881 887.5,-546.881 887.5,-546.881 887.5,-546.881 1195.5,-546.881 1267.24,-546.881 1348.76,-519.431 1387.97,-504.419"/>
<polygon fill="midnightblue" stroke="midnightblue" points="682.181,-543.381 672.18,-546.881 682.18,-550.381 682.181,-543.381"/>
</g>
<!-- Node24 -->
<g id="node24" class="node"><title>Node24</title>
<g id="a_node24"><a xlink:href="navier8_8F90.html#a809b9aa647f2046d09131be2f6074ff6" target="_top" xlink:title="? ">
<polygon fill="white" stroke="black" points="338,-537.381 338,-556.381 424,-556.381 424,-537.381 338,-537.381"/>
<text text-anchor="middle" x="381" y="-544.381" font-family="Helvetica,sans-Serif" font-size="10.00">set_up_h1_crs</text>
</a>
</g>
</g>
<!-- Node23&#45;&gt;Node24 -->
<g id="edge33" class="edge"><title>Node23&#45;&gt;Node24</title>
<path fill="none" stroke="midnightblue" d="M303.568,-546.881C315.261,-546.881 327.044,-546.881 337.739,-546.881"/>
<polygon fill="midnightblue" stroke="midnightblue" points="303.346,-543.381 293.345,-546.881 303.345,-550.381 303.346,-543.381"/>
</g>
<!-- Node25 -->
<g id="node25" class="node"><title>Node25</title>
<g id="a_node25"><a xlink:href="navier6_8F90.html#a45317b1def173b8f1db2e5083595d095" target="_top" xlink:title="Set up arrays for overlapping Schwartz algorithm for pressure solver ">
<polygon fill="white" stroke="black" points="478,-537.381 478,-556.381 550,-556.381 550,-537.381 478,-537.381"/>
<text text-anchor="middle" x="514" y="-544.381" font-family="Helvetica,sans-Serif" font-size="10.00">set_overlap</text>
</a>
</g>
</g>
<!-- Node24&#45;&gt;Node25 -->
<g id="edge34" class="edge"><title>Node24&#45;&gt;Node25</title>
<path fill="none" stroke="midnightblue" d="M434.582,-546.881C449.156,-546.881 464.619,-546.881 477.927,-546.881"/>
<polygon fill="midnightblue" stroke="midnightblue" points="434.17,-543.381 424.17,-546.881 434.17,-550.381 434.17,-543.381"/>
</g>
<!-- Node25&#45;&gt;Node22 -->
<g id="edge35" class="edge"><title>Node25&#45;&gt;Node22</title>
<path fill="none" stroke="midnightblue" d="M560.051,-546.881C579.737,-546.881 602.108,-546.881 618.877,-546.881"/>
<polygon fill="midnightblue" stroke="midnightblue" points="560.045,-543.381 550.045,-546.881 560.045,-550.381 560.045,-543.381"/>
</g>
<!-- Node27 -->
<g id="node27" class="node"><title>Node27</title>
<g id="a_node27"><a xlink:href="classhelmholtz.html#a5077d115c2aaad42d80aaa089651bb25" target="_top" xlink:title="Reconstruct the solution to the original problem by adding back the approximate solution, add solution to approximation space. ">
<polygon fill="white" stroke="black" points="598,-157.381 598,-176.381 693,-176.381 693,-157.381 598,-157.381"/>
<text text-anchor="middle" x="645.5" y="-164.381" font-family="Helvetica,sans-Serif" font-size="10.00">helmholtz::gensh</text>
</a>
</g>
</g>
<!-- Node26&#45;&gt;Node27 -->
<g id="edge37" class="edge"><title>Node26&#45;&gt;Node27</title>
<path fill="none" stroke="midnightblue" d="M281.815,-155.256C296.871,-152.226 313.535,-149.389 329,-147.881 430.74,-137.961 457.388,-136.727 559,-147.881 575.929,-149.74 594.41,-153.609 609.845,-157.373"/>
<polygon fill="midnightblue" stroke="midnightblue" points="280.756,-151.902 271.682,-157.371 282.187,-158.754 280.756,-151.902"/>
</g>
<!-- Node28 -->
<g id="node28" class="node"><title>Node28</title>
<g id="a_node28"><a xlink:href="classhelmholtz.html#a3e09d3a986ea4fbbadab98d300bf9371" target="_top" xlink:title="Recompute H_red if dt has changed. ">
<polygon fill="white" stroke="black" points="329,-157.381 329,-176.381 433,-176.381 433,-157.381 329,-157.381"/>
<text text-anchor="middle" x="381" y="-164.381" font-family="Helvetica,sans-Serif" font-size="10.00">helmholtz::updrhsh</text>
</a>
</g>
</g>
<!-- Node26&#45;&gt;Node28 -->
<g id="edge39" class="edge"><title>Node26&#45;&gt;Node28</title>
<path fill="none" stroke="midnightblue" d="M287.655,-166.881C301.129,-166.881 315.489,-166.881 328.771,-166.881"/>
<polygon fill="midnightblue" stroke="midnightblue" points="287.556,-163.381 277.556,-166.881 287.556,-170.381 287.556,-163.381"/>
</g>
<!-- Node27&#45;&gt;Node7 -->
<g id="edge38" class="edge"><title>Node27&#45;&gt;Node7</title>
<path fill="none" stroke="midnightblue" d="M689.867,-179.272C708.081,-184.476 728.939,-190.435 745.949,-195.295"/>
<polygon fill="midnightblue" stroke="midnightblue" points="690.638,-175.852 680.062,-176.47 688.715,-182.583 690.638,-175.852"/>
</g>
<!-- Node28&#45;&gt;Node29 -->
<g id="edge40" class="edge"><title>Node28&#45;&gt;Node29</title>
<path fill="none" stroke="midnightblue" d="M443.084,-166.881C451.726,-166.881 460.47,-166.881 468.712,-166.881"/>
<polygon fill="midnightblue" stroke="midnightblue" points="443.023,-163.381 433.023,-166.881 443.023,-170.381 443.023,-163.381"/>
</g>
<!-- Node29&#45;&gt;Node7 -->
<g id="edge41" class="edge"><title>Node29&#45;&gt;Node7</title>
<path fill="none" stroke="midnightblue" d="M560.637,-178.805C571.818,-181.426 583.793,-183.982 595,-185.881 641.193,-193.711 694.477,-198.778 731.87,-201.694"/>
<polygon fill="midnightblue" stroke="midnightblue" points="561.179,-175.336 550.637,-176.398 559.54,-182.141 561.179,-175.336"/>
</g>
<!-- Node31 -->
<g id="node31" class="node"><title>Node31</title>
<g id="a_node31"><a xlink:href="subs1_8F90.html#a8f2e17fa9df4e1df865aa17b294f867c" target="_top" xlink:title="Norm calculation. ">
<polygon fill="white" stroke="black" points="622.5,-119.381 622.5,-138.381 668.5,-138.381 668.5,-119.381 622.5,-119.381"/>
<text text-anchor="middle" x="645.5" y="-126.381" font-family="Helvetica,sans-Serif" font-size="10.00">unorm</text>
</a>
</g>
</g>
<!-- Node30&#45;&gt;Node31 -->
<g id="edge43" class="edge"><title>Node30&#45;&gt;Node31</title>
<path fill="none" stroke="midnightblue" d="M549.398,-100.975C572.424,-107.732 602.069,-116.431 622.093,-122.306"/>
<polygon fill="midnightblue" stroke="midnightblue" points="550.244,-97.5756 539.663,-98.1182 548.273,-104.292 550.244,-97.5756"/>
</g>
<!-- Node31&#45;&gt;Node9 -->
<g id="edge45" class="edge"><title>Node31&#45;&gt;Node9</title>
<path fill="none" stroke="midnightblue" d="M679.046,-128.881C745.76,-128.881 896.104,-128.881 947.99,-128.881"/>
<polygon fill="midnightblue" stroke="midnightblue" points="678.713,-125.381 668.713,-128.881 678.713,-132.381 678.713,-125.381"/>
</g>
<!-- Node31&#45;&gt;Node15 -->
<g id="edge44" class="edge"><title>Node31&#45;&gt;Node15</title>
<path fill="none" stroke="midnightblue" d="M678.265,-137.843C714.908,-148.402 776.814,-166.921 829,-185.881 873.067,-201.892 923.72,-223.947 949.322,-235.36"/>
<polygon fill="midnightblue" stroke="midnightblue" points="679.206,-134.472 668.629,-135.082 677.278,-141.201 679.206,-134.472"/>
</g>
<!-- Node32 -->
<g id="node32" class="node"><title>Node32</title>
<g id="a_node32"><a xlink:href="subs1_8F90.html#a4a7a49f2b10c08dee56798c23dbfbe5a" target="_top" xlink:title="Check convergence for non&#45;linear passisve scalar solver. Relevant for solving heat transport problems...">
<polygon fill="white" stroke="black" points="754,-81.3813 754,-100.381 807,-100.381 807,-81.3813 754,-81.3813"/>
<text text-anchor="middle" x="780.5" y="-88.3813" font-family="Helvetica,sans-Serif" font-size="10.00">cvgnlps</text>
</a>
</g>
</g>
<!-- Node31&#45;&gt;Node32 -->
<g id="edge46" class="edge"><title>Node31&#45;&gt;Node32</title>
<path fill="none" stroke="midnightblue" d="M678.473,-119.746C701.617,-113.134 732.482,-104.315 753.98,-98.1726"/>
<polygon fill="midnightblue" stroke="midnightblue" points="677.415,-116.408 668.761,-122.521 679.338,-123.139 677.415,-116.408"/>
</g>
<!-- Node32&#45;&gt;Node8 -->
<g id="edge47" class="edge"><title>Node32&#45;&gt;Node8</title>
<path fill="none" stroke="midnightblue" d="M817.595,-90.8813C833.29,-90.8813 851.196,-90.8813 864.955,-90.8813"/>
<polygon fill="midnightblue" stroke="midnightblue" points="817.16,-87.3814 807.16,-90.8813 817.16,-94.3814 817.16,-87.3814"/>
</g>
<!-- Node34 -->
<g id="node34" class="node"><title>Node34</title>
<g id="a_node34"><a xlink:href="navier1_8F90.html#a99a692f0ae41114b4725a9cf62458f1f" target="_top" xlink:title="Compute error norms of a (vector) field variable (X1,X2,X3) ">
<polygon fill="white" stroke="black" points="488.5,-195.381 488.5,-214.381 539.5,-214.381 539.5,-195.381 488.5,-195.381"/>
<text text-anchor="middle" x="514" y="-202.381" font-family="Helvetica,sans-Serif" font-size="10.00">normvc</text>
</a>
</g>
</g>
<!-- Node33&#45;&gt;Node34 -->
<g id="edge49" class="edge"><title>Node33&#45;&gt;Node34</title>
<path fill="none" stroke="midnightblue" d="M410.662,-234.567C433.801,-227.855 466.03,-218.506 488.102,-212.104"/>
<polygon fill="midnightblue" stroke="midnightblue" points="409.678,-231.208 401.049,-237.356 411.628,-237.931 409.678,-231.208"/>
</g>
<!-- Node35 -->
<g id="node35" class="node"><title>Node35</title>
<g id="a_node35"><a xlink:href="plan4_8F90.html#ab1e8c9cb142e2062d1c1c8c1e6cd30c9" target="_top" xlink:title="Compute the residual for the velocity. ">
<polygon fill="white" stroke="black" points="754,-233.381 754,-252.381 807,-252.381 807,-233.381 754,-233.381"/>
<text text-anchor="middle" x="780.5" y="-240.381" font-family="Helvetica,sans-Serif" font-size="10.00">cresvsp</text>
</a>
</g>
</g>
<!-- Node33&#45;&gt;Node35 -->
<g id="edge51" class="edge"><title>Node33&#45;&gt;Node35</title>
<path fill="none" stroke="midnightblue" d="M411.289,-242.881C486.074,-242.881 683.144,-242.881 753.818,-242.881"/>
<polygon fill="midnightblue" stroke="midnightblue" points="411.172,-239.381 401.172,-242.881 411.172,-246.381 411.172,-239.381"/>
</g>
<!-- Node34&#45;&gt;Node31 -->
<g id="edge50" class="edge"><title>Node34&#45;&gt;Node31</title>
<path fill="none" stroke="midnightblue" d="M548.987,-191.89C552.479,-190.065 555.884,-188.059 559,-185.881 578.068,-172.553 575.662,-160.814 595,-147.881 603.264,-142.355 613.365,-138.11 622.282,-135.048"/>
<polygon fill="midnightblue" stroke="midnightblue" points="547.221,-188.854 539.68,-196.297 550.216,-195.181 547.221,-188.854"/>
</g>
<!-- Node35&#45;&gt;Node14 -->
<g id="edge52" class="edge"><title>Node35&#45;&gt;Node14</title>
<path fill="none" stroke="midnightblue" d="M817.504,-242.881C833.892,-242.881 852.704,-242.881 866.696,-242.881"/>
<polygon fill="midnightblue" stroke="midnightblue" points="817.16,-239.381 807.16,-242.881 817.16,-246.381 817.16,-239.381"/>
</g>
<!-- Node37 -->
<g id="node37" class="node"><title>Node37</title>
<g id="a_node37"><a xlink:href="makeq_8F90.html#ad52d9adde8f010af2d0a8c1a55543eeb" target="_top" xlink:title="Generate forcing function for the solution of a passive scalar. !! NOTE: Do not change the content of...">
<polygon fill="white" stroke="black" points="621.5,-43.3813 621.5,-62.3813 669.5,-62.3813 669.5,-43.3813 621.5,-43.3813"/>
<text text-anchor="middle" x="645.5" y="-50.3813" font-family="Helvetica,sans-Serif" font-size="10.00">makeq</text>
</a>
</g>
</g>
<!-- Node36&#45;&gt;Node37 -->
<g id="edge55" class="edge"><title>Node36&#45;&gt;Node37</title>
<path fill="none" stroke="midnightblue" d="M275.059,-52.8813C361.411,-52.8813 554.655,-52.8813 621.346,-52.8813"/>
<polygon fill="midnightblue" stroke="midnightblue" points="274.829,-49.3814 264.829,-52.8813 274.829,-56.3814 274.829,-49.3814"/>
</g>
<!-- Node37&#45;&gt;Node8 -->
<g id="edge56" class="edge"><title>Node37&#45;&gt;Node8</title>
<path fill="none" stroke="midnightblue" d="M679.666,-54.2381C716.487,-56.2282 777.521,-60.9688 829,-71.8813 841.013,-74.4279 854.039,-78.5207 864.742,-82.2566"/>
<polygon fill="midnightblue" stroke="midnightblue" points="679.665,-50.7337 669.502,-53.7259 679.313,-57.7248 679.665,-50.7337"/>
</g>
</g>
</svg>
