<?xml version="1.0" encoding="UTF-8" standalone="no"?>
<!DOCTYPE svg PUBLIC "-//W3C//DTD SVG 1.1//EN"
 "http://www.w3.org/Graphics/SVG/1.1/DTD/svg11.dtd">
<!-- Generated by graphviz version 2.38.0 (20140413.2041)
 -->
<!-- Title: nekuic Pages: 1 -->
<svg width="299pt" height="66pt"
 viewBox="0.00 0.00 299.00 66.00" xmlns="http://www.w3.org/2000/svg" xmlns:xlink="http://www.w3.org/1999/xlink">
<g id="graph0" class="graph" transform="scale(1 1) rotate(0) translate(4 62)">
<title>nekuic</title>
<polygon fill="white" stroke="none" points="-4,4 -4,-62 295,-62 295,4 -4,4"/>
<!-- Node1 -->
<g id="node1" class="node"><title>Node1</title>
<polygon fill="#bfbfbf" stroke="black" points="0,-19.5 0,-38.5 47,-38.5 47,-19.5 0,-19.5"/>
<text text-anchor="middle" x="23.5" y="-26.5" font-family="Helvetica,sans-Serif" font-size="10.00">nekuic</text>
</g>
<!-- Node2 -->
<g id="node2" class="node"><title>Node2</title>
<g id="a_node2"><a xlink:href="classparallel.html#ac36680315d0622d84df5d5baf3fb0acc" target="_top" xlink:title="parallel::lglel">
<polygon fill="white" stroke="black" points="83,-38.5 83,-57.5 157,-57.5 157,-38.5 83,-38.5"/>
<text text-anchor="middle" x="120" y="-45.5" font-family="Helvetica,sans-Serif" font-size="10.00">parallel::lglel</text>
</a>
</g>
</g>
<!-- Node1&#45;&gt;Node2 -->
<g id="edge1" class="edge"><title>Node1&#45;&gt;Node2</title>
<path fill="none" stroke="midnightblue" d="M47.3758,-33.5994C55.0753,-35.1474 63.9638,-36.9345 72.8031,-38.7117"/>
<polygon fill="midnightblue" stroke="midnightblue" points="72.2024,-42.1609 82.6961,-40.7008 73.5822,-35.2983 72.2024,-42.1609"/>
</g>
<!-- Node4 -->
<g id="node4" class="node"><title>Node4</title>
<g id="a_node4"><a xlink:href="bdry_8F90.html#a2426a0c5d510c19b0aa48112922383c3" target="_top" xlink:title="Assign NEKTON variables for definition (by user) of boundary conditions at collocation point (IX...">
<polygon fill="white" stroke="black" points="91.5,-0.5 91.5,-19.5 148.5,-19.5 148.5,-0.5 91.5,-0.5"/>
<text text-anchor="middle" x="120" y="-7.5" font-family="Helvetica,sans-Serif" font-size="10.00">nekasgn</text>
</a>
</g>
</g>
<!-- Node1&#45;&gt;Node4 -->
<g id="edge3" class="edge"><title>Node1&#45;&gt;Node4</title>
<path fill="none" stroke="midnightblue" d="M47.3758,-24.4006C57.5999,-22.345 69.9207,-19.8678 81.4389,-17.552"/>
<polygon fill="midnightblue" stroke="midnightblue" points="82.1675,-20.9756 91.2814,-15.573 80.7877,-14.1129 82.1675,-20.9756"/>
</g>
<!-- Node3 -->
<g id="node3" class="node"><title>Node3</title>
<g id="a_node3"><a xlink:href="classmesh.html#a8b6a250925cdc576e3ff6f7b18dc88c4" target="_top" xlink:title="mesh::xyz_to_ieg">
<polygon fill="white" stroke="black" points="193,-38.5 193,-57.5 291,-57.5 291,-38.5 193,-38.5"/>
<text text-anchor="middle" x="242" y="-45.5" font-family="Helvetica,sans-Serif" font-size="10.00">mesh::xyz_to_ieg</text>
</a>
</g>
</g>
<!-- Node2&#45;&gt;Node3 -->
<g id="edge2" class="edge"><title>Node2&#45;&gt;Node3</title>
<path fill="none" stroke="midnightblue" d="M157.004,-48C165.042,-48 173.769,-48 182.455,-48"/>
<polygon fill="midnightblue" stroke="midnightblue" points="182.589,-51.5001 192.589,-48 182.589,-44.5001 182.589,-51.5001"/>
</g>
</g>
</svg>
