<?xml version="1.0" encoding="UTF-8" standalone="no"?>
<!DOCTYPE svg PUBLIC "-//W3C//DTD SVG 1.1//EN"
 "http://www.w3.org/Graphics/SVG/1.1/DTD/svg11.dtd">
<!-- Generated by graphviz version 2.38.0 (20140413.2041)
 -->
<!-- Title: geom_reset Pages: 1 -->
<svg width="515pt" height="116pt"
 viewBox="0.00 0.00 515.00 115.50" xmlns="http://www.w3.org/2000/svg" xmlns:xlink="http://www.w3.org/1999/xlink">
<g id="graph0" class="graph" transform="scale(1 1) rotate(0) translate(4 111.5)">
<title>geom_reset</title>
<polygon fill="white" stroke="none" points="-4,4 -4,-111.5 511,-111.5 511,4 -4,4"/>
<!-- Node1 -->
<g id="node1" class="node"><title>Node1</title>
<polygon fill="#bfbfbf" stroke="black" points="0,-38.5 0,-57.5 73,-57.5 73,-38.5 0,-38.5"/>
<text text-anchor="middle" x="36.5" y="-45.5" font-family="Helvetica,sans-Serif" font-size="10.00">geom_reset</text>
</g>
<!-- Node2 -->
<g id="node2" class="node"><title>Node2</title>
<g id="a_node2"><a xlink:href="classhsmg__routines.html#a91e8aa59d56bbf05d75aa9c48bcd8977" target="_top" xlink:title="Sets up Poisson preconditioner. ">
<polygon fill="white" stroke="black" points="109,-77 109,-107 225,-107 225,-77 109,-77"/>
<text text-anchor="start" x="117" y="-95" font-family="Helvetica,sans-Serif" font-size="10.00">hsmg_routines::h1mg</text>
<text text-anchor="middle" x="167" y="-84" font-family="Helvetica,sans-Serif" font-size="10.00">_setup</text>
</a>
</g>
</g>
<!-- Node1&#45;&gt;Node2 -->
<g id="edge1" class="edge"><title>Node1&#45;&gt;Node2</title>
<path fill="none" stroke="midnightblue" d="M75.14,-60.8884C89.8239,-65.9163 106.76,-71.7155 122.002,-76.9346"/>
<polygon fill="midnightblue" stroke="midnightblue" points="75.9772,-57.4756 65.3826,-57.5473 73.7095,-64.0982 75.9772,-57.4756"/>
</g>
<!-- Node4 -->
<g id="node4" class="node"><title>Node4</title>
<g id="a_node4"><a xlink:href="drive1_8F90.html#a87bd37ae2c18426f28f35cc3f24e4355" target="_top" xlink:title="initialize nek ">
<polygon fill="white" stroke="black" points="369,-38.5 369,-57.5 422,-57.5 422,-38.5 369,-38.5"/>
<text text-anchor="middle" x="395.5" y="-45.5" font-family="Helvetica,sans-Serif" font-size="10.00">nek_init</text>
</a>
</g>
</g>
<!-- Node1&#45;&gt;Node4 -->
<g id="edge5" class="edge"><title>Node1&#45;&gt;Node4</title>
<path fill="none" stroke="midnightblue" d="M83.2312,-48C159.065,-48 308.438,-48 368.542,-48"/>
<polygon fill="midnightblue" stroke="midnightblue" points="83.0357,-44.5001 73.0357,-48 83.0357,-51.5001 83.0357,-44.5001"/>
</g>
<!-- Node6 -->
<g id="node6" class="node"><title>Node6</title>
<g id="a_node6"><a xlink:href="ic_8F90.html#acaefa33e86633e4a7a4b28347d4620d1" target="_top" xlink:title="Set initial conditions. ">
<polygon fill="white" stroke="black" points="275,-0.5 275,-19.5 319,-19.5 319,-0.5 275,-0.5"/>
<text text-anchor="middle" x="297" y="-7.5" font-family="Helvetica,sans-Serif" font-size="10.00">setics</text>
</a>
</g>
</g>
<!-- Node1&#45;&gt;Node6 -->
<g id="edge6" class="edge"><title>Node1&#45;&gt;Node6</title>
<path fill="none" stroke="midnightblue" d="M82.9759,-38.6306C91.6006,-36.9857 100.564,-35.3657 109,-34 168.937,-24.2966 240.198,-16.0542 274.902,-12.2503"/>
<polygon fill="midnightblue" stroke="midnightblue" points="82.2066,-35.2146 73.0586,-40.5593 83.5429,-42.0859 82.2066,-35.2146"/>
</g>
<!-- Node3 -->
<g id="node3" class="node"><title>Node3</title>
<g id="a_node3"><a xlink:href="navier6_8F90.html#a45317b1def173b8f1db2e5083595d095" target="_top" xlink:title="Set up arrays for overlapping Schwartz algorithm for pressure solver ">
<polygon fill="white" stroke="black" points="261,-79.5 261,-98.5 333,-98.5 333,-79.5 261,-79.5"/>
<text text-anchor="middle" x="297" y="-86.5" font-family="Helvetica,sans-Serif" font-size="10.00">set_overlap</text>
</a>
</g>
</g>
<!-- Node2&#45;&gt;Node3 -->
<g id="edge2" class="edge"><title>Node2&#45;&gt;Node3</title>
<path fill="none" stroke="midnightblue" d="M235.521,-90.4175C244.26,-90.2127 252.911,-90.0099 260.82,-89.8245"/>
<polygon fill="midnightblue" stroke="midnightblue" points="235.176,-86.9245 225.261,-90.6579 235.34,-93.9226 235.176,-86.9245"/>
</g>
<!-- Node3&#45;&gt;Node4 -->
<g id="edge3" class="edge"><title>Node3&#45;&gt;Node4</title>
<path fill="none" stroke="midnightblue" d="M329.953,-75.424C343.685,-69.5896 359.413,-62.9073 371.906,-57.5997"/>
<polygon fill="midnightblue" stroke="midnightblue" points="328.217,-72.359 320.382,-79.4907 330.954,-78.8016 328.217,-72.359"/>
</g>
<!-- Node5 -->
<g id="node5" class="node"><title>Node5</title>
<g id="a_node5"><a xlink:href="drive_8F90.html#a13048bf28dd0734640412d69349e3857" target="_top" xlink:title="NEK5000: Spectral Element Computational Fluid Dynamics Solver COPYRIGHT (c) 2008&#45;2010 UCHICAGO ARGONN...">
<polygon fill="white" stroke="black" points="458,-38.5 458,-57.5 507,-57.5 507,-38.5 458,-38.5"/>
<text text-anchor="middle" x="482.5" y="-45.5" font-family="Helvetica,sans-Serif" font-size="10.00">nekton</text>
</a>
</g>
</g>
<!-- Node4&#45;&gt;Node5 -->
<g id="edge4" class="edge"><title>Node4&#45;&gt;Node5</title>
<path fill="none" stroke="midnightblue" d="M432.227,-48C440.846,-48 449.845,-48 457.759,-48"/>
<polygon fill="midnightblue" stroke="midnightblue" points="432.003,-44.5001 422.003,-48 432.003,-51.5001 432.003,-44.5001"/>
</g>
<!-- Node6&#45;&gt;Node4 -->
<g id="edge7" class="edge"><title>Node6&#45;&gt;Node4</title>
<path fill="none" stroke="midnightblue" d="M329.1,-22.2466C342.375,-27.474 357.64,-33.4854 370.083,-38.3849"/>
<polygon fill="midnightblue" stroke="midnightblue" points="330.003,-18.8409 319.416,-18.4334 327.439,-25.3541 330.003,-18.8409"/>
</g>
</g>
</svg>
