<?xml version="1.0" encoding="UTF-8" standalone="no"?>
<!DOCTYPE svg PUBLIC "-//W3C//DTD SVG 1.1//EN"
 "http://www.w3.org/Graphics/SVG/1.1/DTD/svg11.dtd">
<!-- Generated by graphviz version 2.38.0 (20140413.2041)
 -->
<!-- Title: geom_reset Pages: 1 -->
<!--zoomable 116 -->
<svg id="main" version="1.1" xmlns="http://www.w3.org/2000/svg" xmlns:xlink="http://www.w3.org/1999/xlink" xml:space="preserve" onload="init(evt)">
<style type="text/css"><![CDATA[
.edge:hover path { stroke: red; }
.edge:hover polygon { stroke: red; fill: red; }
]]></style>
<script type="text/javascript"><![CDATA[
var edges = document.getElementsByTagName('g');
if (edges && edges.length) {
  for (var i=0;i<edges.length;i++) {
    if (edges[i].id.substr(0,4)=='edge') {
      edges[i].setAttribute('class','edge');
    }
  }
}
]]></script>
        <defs>
                <circle id="rim" cx="0" cy="0" r="7"/>
                <circle id="rim2" cx="0" cy="0" r="3.5"/>
                <g id="zoomPlus">
                        <use xlink:href="#rim" fill="#404040">
                                <set attributeName="fill" to="#808080" begin="zoomplus.mouseover" end="zoomplus.mouseout"/>
                        </use>
                        <path d="M-4,0h8M0,-4v8" fill="none" stroke="white" stroke-width="1.5" pointer-events="none"/>
                </g>
                <g id="zoomMin">
                        <use xlink:href="#rim" fill="#404040">
                                <set attributeName="fill" to="#808080" begin="zoomminus.mouseover" end="zoomminus.mouseout"/>
                        </use>
                        <path d="M-4,0h8" fill="none" stroke="white" stroke-width="1.5" pointer-events="none"/>
                </g>
                <g id="dirArrow">
                        <path fill="none" stroke="white" stroke-width="1.5" d="M0,-3.0v7 M-2.5,-0.5L0,-3.0L2.5,-0.5"/>
                </g>
               <g id="resetDef">
                       <use xlink:href="#rim2" fill="#404040">
                               <set attributeName="fill" to="#808080" begin="reset.mouseover" end="reset.mouseout"/>
                       </use>
               </g>
        </defs>

<script type="text/javascript">
var viewWidth = 515;
var viewHeight = 116;
var sectionId = 'dynsection-3';
</script>
<script xlink:href="svgpan.js"/>
<svg id="graph" class="graph">
<g id="viewport">
<title>geom_reset</title>
<polygon fill="white" stroke="none" points="-4,4 -4,-111.5 511,-111.5 511,4 -4,4"/>
<!-- Node1 -->
<g id="node1" class="node"><title>Node1</title>
<polygon fill="#bfbfbf" stroke="black" points="0,-38.5 0,-57.5 73,-57.5 73,-38.5 0,-38.5"/>
<text text-anchor="middle" x="36.5" y="-45.5" font-family="Helvetica,sans-Serif" font-size="10.00">geom_reset</text>
</g>
<!-- Node2 -->
<g id="node2" class="node"><title>Node2</title>
<g id="a_node2"><a xlink:href="classhsmg__routines.html#a91e8aa59d56bbf05d75aa9c48bcd8977" target="_top" xlink:title="Sets up Poisson preconditioner. ">
<polygon fill="white" stroke="black" points="109,-77 109,-107 225,-107 225,-77 109,-77"/>
<text text-anchor="start" x="117" y="-95" font-family="Helvetica,sans-Serif" font-size="10.00">hsmg_routines::h1mg</text>
<text text-anchor="middle" x="167" y="-84" font-family="Helvetica,sans-Serif" font-size="10.00">_setup</text>
</a>
</g>
</g>
<!-- Node1&#45;&gt;Node2 -->
<g id="edge1" class="edge"><title>Node1&#45;&gt;Node2</title>
<path fill="none" stroke="midnightblue" d="M75.14,-60.8884C89.8239,-65.9163 106.76,-71.7155 122.002,-76.9346"/>
<polygon fill="midnightblue" stroke="midnightblue" points="75.9772,-57.4756 65.3826,-57.5473 73.7095,-64.0982 75.9772,-57.4756"/>
</g>
<!-- Node4 -->
<g id="node4" class="node"><title>Node4</title>
<g id="a_node4"><a xlink:href="drive1_8F90.html#a87bd37ae2c18426f28f35cc3f24e4355" target="_top" xlink:title="initialize nek ">
<polygon fill="white" stroke="black" points="369,-38.5 369,-57.5 422,-57.5 422,-38.5 369,-38.5"/>
<text text-anchor="middle" x="395.5" y="-45.5" font-family="Helvetica,sans-Serif" font-size="10.00">nek_init</text>
</a>
</g>
</g>
<!-- Node1&#45;&gt;Node4 -->
<g id="edge5" class="edge"><title>Node1&#45;&gt;Node4</title>
<path fill="none" stroke="midnightblue" d="M83.2312,-48C159.065,-48 308.438,-48 368.542,-48"/>
<polygon fill="midnightblue" stroke="midnightblue" points="83.0357,-44.5001 73.0357,-48 83.0357,-51.5001 83.0357,-44.5001"/>
</g>
<!-- Node6 -->
<g id="node6" class="node"><title>Node6</title>
<g id="a_node6"><a xlink:href="ic_8F90.html#acaefa33e86633e4a7a4b28347d4620d1" target="_top" xlink:title="Set initial conditions. ">
<polygon fill="white" stroke="black" points="275,-0.5 275,-19.5 319,-19.5 319,-0.5 275,-0.5"/>
<text text-anchor="middle" x="297" y="-7.5" font-family="Helvetica,sans-Serif" font-size="10.00">setics</text>
</a>
</g>
</g>
<!-- Node1&#45;&gt;Node6 -->
<g id="edge6" class="edge"><title>Node1&#45;&gt;Node6</title>
<path fill="none" stroke="midnightblue" d="M82.9759,-38.6306C91.6006,-36.9857 100.564,-35.3657 109,-34 168.937,-24.2966 240.198,-16.0542 274.902,-12.2503"/>
<polygon fill="midnightblue" stroke="midnightblue" points="82.2066,-35.2146 73.0586,-40.5593 83.5429,-42.0859 82.2066,-35.2146"/>
</g>
<!-- Node3 -->
<g id="node3" class="node"><title>Node3</title>
<g id="a_node3"><a xlink:href="navier6_8F90.html#a45317b1def173b8f1db2e5083595d095" target="_top" xlink:title="Set up arrays for overlapping Schwartz algorithm for pressure solver ">
<polygon fill="white" stroke="black" points="261,-79.5 261,-98.5 333,-98.5 333,-79.5 261,-79.5"/>
<text text-anchor="middle" x="297" y="-86.5" font-family="Helvetica,sans-Serif" font-size="10.00">set_overlap</text>
</a>
</g>
</g>
<!-- Node2&#45;&gt;Node3 -->
<g id="edge2" class="edge"><title>Node2&#45;&gt;Node3</title>
<path fill="none" stroke="midnightblue" d="M235.521,-90.4175C244.26,-90.2127 252.911,-90.0099 260.82,-89.8245"/>
<polygon fill="midnightblue" stroke="midnightblue" points="235.176,-86.9245 225.261,-90.6579 235.34,-93.9226 235.176,-86.9245"/>
</g>
<!-- Node3&#45;&gt;Node4 -->
<g id="edge3" class="edge"><title>Node3&#45;&gt;Node4</title>
<path fill="none" stroke="midnightblue" d="M329.953,-75.424C343.685,-69.5896 359.413,-62.9073 371.906,-57.5997"/>
<polygon fill="midnightblue" stroke="midnightblue" points="328.217,-72.359 320.382,-79.4907 330.954,-78.8016 328.217,-72.359"/>
</g>
<!-- Node5 -->
<g id="node5" class="node"><title>Node5</title>
<g id="a_node5"><a xlink:href="drive_8F90.html#a13048bf28dd0734640412d69349e3857" target="_top" xlink:title="NEK5000: Spectral Element Computational Fluid Dynamics Solver COPYRIGHT (c) 2008&#45;2010 UCHICAGO ARGONN...">
<polygon fill="white" stroke="black" points="458,-38.5 458,-57.5 507,-57.5 507,-38.5 458,-38.5"/>
<text text-anchor="middle" x="482.5" y="-45.5" font-family="Helvetica,sans-Serif" font-size="10.00">nekton</text>
</a>
</g>
</g>
<!-- Node4&#45;&gt;Node5 -->
<g id="edge4" class="edge"><title>Node4&#45;&gt;Node5</title>
<path fill="none" stroke="midnightblue" d="M432.227,-48C440.846,-48 449.845,-48 457.759,-48"/>
<polygon fill="midnightblue" stroke="midnightblue" points="432.003,-44.5001 422.003,-48 432.003,-51.5001 432.003,-44.5001"/>
</g>
<!-- Node6&#45;&gt;Node4 -->
<g id="edge7" class="edge"><title>Node6&#45;&gt;Node4</title>
<path fill="none" stroke="midnightblue" d="M329.1,-22.2466C342.375,-27.474 357.64,-33.4854 370.083,-38.3849"/>
<polygon fill="midnightblue" stroke="midnightblue" points="330.003,-18.8409 319.416,-18.4334 327.439,-25.3541 330.003,-18.8409"/>
</g>
</g>
</svg>
        <g id="navigator" transform="translate(0 0)" fill="#404254">
                <rect fill="#f2f5e9" fill-opacity="0.5" stroke="#606060" stroke-width=".5" x="0" y="0" width="60" height="60"/>
                <use id="zoomplus" xlink:href="#zoomPlus" x="17" y="9" onmousedown="handleZoom(evt,'in')"/>
                <use id="zoomminus" xlink:href="#zoomMin" x="42" y="9" onmousedown="handleZoom(evt,'out')"/>
                <use id="reset" xlink:href="#resetDef" x="30" y="36" onmousedown="handleReset()"/>
                <g id="arrowUp" xlink:href="#dirArrow" transform="translate(30 24)" onmousedown="handlePan(0,-1)">
                  <use xlink:href="#rim" fill="#404040">
                        <set attributeName="fill" to="#808080" begin="arrowUp.mouseover" end="arrowUp.mouseout"/>
                  </use>
                  <path fill="none" stroke="white" stroke-width="1.5" d="M0,-3.0v7 M-2.5,-0.5L0,-3.0L2.5,-0.5"/>
                </g>
                <g id="arrowRight" xlink:href="#dirArrow" transform="rotate(90) translate(36 -43)" onmousedown="handlePan(1,0)">
                  <use xlink:href="#rim" fill="#404040">
                        <set attributeName="fill" to="#808080" begin="arrowRight.mouseover" end="arrowRight.mouseout"/>
                  </use>
                  <path fill="none" stroke="white" stroke-width="1.5" d="M0,-3.0v7 M-2.5,-0.5L0,-3.0L2.5,-0.5"/>
                </g>
                <g id="arrowDown" xlink:href="#dirArrow" transform="rotate(180) translate(-30 -48)" onmousedown="handlePan(0,1)">
                  <use xlink:href="#rim" fill="#404040">
                        <set attributeName="fill" to="#808080" begin="arrowDown.mouseover" end="arrowDown.mouseout"/>
                  </use>
                  <path fill="none" stroke="white" stroke-width="1.5" d="M0,-3.0v7 M-2.5,-0.5L0,-3.0L2.5,-0.5"/>
                </g>
                <g id="arrowLeft" xlink:href="#dirArrow" transform="rotate(270) translate(-36 17)" onmousedown="handlePan(-1,0)">
                  <use xlink:href="#rim" fill="#404040">
                        <set attributeName="fill" to="#808080" begin="arrowLeft.mouseover" end="arrowLeft.mouseout"/>
                  </use>
                  <path fill="none" stroke="white" stroke-width="1.5" d="M0,-3.0v7 M-2.5,-0.5L0,-3.0L2.5,-0.5"/>
                </g>
        </g>
        <svg viewBox="0 0 15 15" width="100%" height="30px" preserveAspectRatio="xMaxYMin meet">
         <g id="arrow_out" transform="scale(0.3 0.3)">
          <a xlink:href="ic_8F90_aaf47b255d1cfac3451a8473ee6876b4f_icgraph_org.svg" target="_base">
           <rect id="button" ry="5" rx="5" y="6" x="6" height="38" width="38"
                fill="#f2f5e9" fill-opacity="0.5" stroke="#606060" stroke-width="1.0"/>
           <path id="arrow"
             d="M 11.500037,31.436501 C 11.940474,20.09759 22.043105,11.32322 32.158766,21.979434 L 37.068811,17.246167 C 37.068811,17.246167 37.088388,32 37.088388,32 L 22.160133,31.978069 C 22.160133,31.978069 26.997745,27.140456 26.997745,27.140456 C 18.528582,18.264221 13.291696,25.230495 11.500037,31.436501 z"
             style="fill:#404040;"/>
          </a>
         </g>
        </svg>
</svg>
