<?xml version="1.0" encoding="UTF-8" standalone="no"?>
<!DOCTYPE svg PUBLIC "-//W3C//DTD SVG 1.1//EN"
 "http://www.w3.org/Graphics/SVG/1.1/DTD/svg11.dtd">
<!-- Generated by graphviz version 2.38.0 (20140413.2041)
 -->
<!-- Title: set_dealias_rx Pages: 1 -->
<!--zoomable 78 -->
<svg id="main" version="1.1" xmlns="http://www.w3.org/2000/svg" xmlns:xlink="http://www.w3.org/1999/xlink" xml:space="preserve" onload="init(evt)">
<style type="text/css"><![CDATA[
.edge:hover path { stroke: red; }
.edge:hover polygon { stroke: red; fill: red; }
]]></style>
<script type="text/javascript"><![CDATA[
var edges = document.getElementsByTagName('g');
if (edges && edges.length) {
  for (var i=0;i<edges.length;i++) {
    if (edges[i].id.substr(0,4)=='edge') {
      edges[i].setAttribute('class','edge');
    }
  }
}
]]></script>
        <defs>
                <circle id="rim" cx="0" cy="0" r="7"/>
                <circle id="rim2" cx="0" cy="0" r="3.5"/>
                <g id="zoomPlus">
                        <use xlink:href="#rim" fill="#404040">
                                <set attributeName="fill" to="#808080" begin="zoomplus.mouseover" end="zoomplus.mouseout"/>
                        </use>
                        <path d="M-4,0h8M0,-4v8" fill="none" stroke="white" stroke-width="1.5" pointer-events="none"/>
                </g>
                <g id="zoomMin">
                        <use xlink:href="#rim" fill="#404040">
                                <set attributeName="fill" to="#808080" begin="zoomminus.mouseover" end="zoomminus.mouseout"/>
                        </use>
                        <path d="M-4,0h8" fill="none" stroke="white" stroke-width="1.5" pointer-events="none"/>
                </g>
                <g id="dirArrow">
                        <path fill="none" stroke="white" stroke-width="1.5" d="M0,-3.0v7 M-2.5,-0.5L0,-3.0L2.5,-0.5"/>
                </g>
               <g id="resetDef">
                       <use xlink:href="#rim2" fill="#404040">
                               <set attributeName="fill" to="#808080" begin="reset.mouseover" end="reset.mouseout"/>
                       </use>
               </g>
        </defs>

<script type="text/javascript">
var viewWidth = 801;
var viewHeight = 78;
var sectionId = 'dynsection-4';
</script>
<script xlink:href="svgpan.js"/>
<svg id="graph" class="graph">
<g id="viewport">
<title>set_dealias_rx</title>
<polygon fill="white" stroke="none" points="-4,4 -4,-74.0403 797,-74.0403 797,4 -4,4"/>
<!-- Node1 -->
<g id="node1" class="node"><title>Node1</title>
<polygon fill="#bfbfbf" stroke="black" points="0,-12.5403 0,-31.5403 86,-31.5403 86,-12.5403 0,-12.5403"/>
<text text-anchor="middle" x="43" y="-19.5403" font-family="Helvetica,sans-Serif" font-size="10.00">set_dealias_rx</text>
</g>
<!-- Node2 -->
<g id="node2" class="node"><title>Node2</title>
<g id="a_node2"><a xlink:href="convect_8F90.html#a768d72f963bbcaf77ab9725ad7847c72" target="_top" xlink:title="Put vxd,vyd,vzd into rst form on fine mesh For rst form, see eq. (4.8.5) in Deville, Fischer, Mund (2002). ">
<polygon fill="white" stroke="black" points="122,-12.5403 122,-31.5403 221,-31.5403 221,-12.5403 122,-12.5403"/>
<text text-anchor="middle" x="171.5" y="-19.5403" font-family="Helvetica,sans-Serif" font-size="10.00">set_convect_new</text>
</a>
</g>
</g>
<!-- Node1&#45;&gt;Node2 -->
<g id="edge1" class="edge"><title>Node1&#45;&gt;Node2</title>
<path fill="none" stroke="midnightblue" d="M96.3159,-22.0403C104.818,-22.0403 113.593,-22.0403 121.999,-22.0403"/>
<polygon fill="midnightblue" stroke="midnightblue" points="96.1227,-18.5404 86.1227,-22.0403 96.1226,-25.5404 96.1227,-18.5404"/>
</g>
<!-- Node3 -->
<g id="node3" class="node"><title>Node3</title>
<g id="a_node3"><a xlink:href="convect_8F90.html#a9b58d62988f53102b490531b844a1891" target="_top" xlink:title="setup_convect">
<polygon fill="white" stroke="black" points="257,-12.5403 257,-31.5403 342,-31.5403 342,-12.5403 257,-12.5403"/>
<text text-anchor="middle" x="299.5" y="-19.5403" font-family="Helvetica,sans-Serif" font-size="10.00">setup_convect</text>
</a>
</g>
</g>
<!-- Node2&#45;&gt;Node3 -->
<g id="edge2" class="edge"><title>Node2&#45;&gt;Node3</title>
<path fill="none" stroke="midnightblue" d="M231.276,-22.0403C239.921,-22.0403 248.673,-22.0403 256.876,-22.0403"/>
<polygon fill="midnightblue" stroke="midnightblue" points="231.215,-18.5404 221.215,-22.0403 231.215,-25.5404 231.215,-18.5404"/>
</g>
<!-- Node4 -->
<g id="node4" class="node"><title>Node4</title>
<g id="a_node4"><a xlink:href="drive1_8F90.html#ae177ea7efac97f35241521b782a671c0" target="_top" xlink:title="take a single time&#45;step ">
<polygon fill="white" stroke="black" points="378,-50.5403 378,-69.5403 458,-69.5403 458,-50.5403 378,-50.5403"/>
<text text-anchor="middle" x="418" y="-57.5403" font-family="Helvetica,sans-Serif" font-size="10.00">nek_advance</text>
</a>
</g>
</g>
<!-- Node3&#45;&gt;Node4 -->
<g id="edge3" class="edge"><title>Node3&#45;&gt;Node4</title>
<path fill="none" stroke="midnightblue" d="M339.822,-34.8662C355.453,-39.965 373.126,-45.7294 387.612,-50.4544"/>
<polygon fill="midnightblue" stroke="midnightblue" points="340.49,-31.4029 329.898,-31.6293 338.32,-38.0578 340.49,-31.4029"/>
</g>
<!-- Node8 -->
<g id="node8" class="node"><title>Node8</title>
<g id="a_node8"><a xlink:href="ic_8F90.html#af64028aefb1dff2a9f8a84ff024f44b0" target="_top" xlink:title="driver for restarts (1) Open restart file(s) (2) Check previous spatial discretization (3) Map (K1...">
<polygon fill="white" stroke="black" points="378,-12.5403 378,-31.5403 458,-31.5403 458,-12.5403 378,-12.5403"/>
<text text-anchor="middle" x="418" y="-19.5403" font-family="Helvetica,sans-Serif" font-size="10.00">restart_driver</text>
</a>
</g>
</g>
<!-- Node3&#45;&gt;Node8 -->
<g id="edge7" class="edge"><title>Node3&#45;&gt;Node8</title>
<path fill="none" stroke="midnightblue" d="M352.498,-22.0403C361.03,-22.0403 369.744,-22.0403 377.895,-22.0403"/>
<polygon fill="midnightblue" stroke="midnightblue" points="352.23,-18.5404 342.23,-22.0403 352.23,-25.5404 352.23,-18.5404"/>
</g>
<!-- Node9 -->
<g id="node9" class="node"><title>Node9</title>
<g id="a_node9"><a xlink:href="ic_8F90.html#acaefa33e86633e4a7a4b28347d4620d1" target="_top" xlink:title="Set initial conditions. ">
<polygon fill="white" stroke="black" points="528.5,-12.5403 528.5,-31.5403 572.5,-31.5403 572.5,-12.5403 528.5,-12.5403"/>
<text text-anchor="middle" x="550.5" y="-19.5403" font-family="Helvetica,sans-Serif" font-size="10.00">setics</text>
</a>
</g>
</g>
<!-- Node3&#45;&gt;Node9 -->
<g id="edge11" class="edge"><title>Node3&#45;&gt;Node9</title>
<path fill="none" stroke="midnightblue" d="M341.739,-9.98437C353.361,-7.12007 366.086,-4.47938 378,-3.04029 413.299,1.22355 422.631,0.593191 458,-3.04029 482.37,-5.54385 509.826,-11.7044 528.248,-16.3368"/>
<polygon fill="midnightblue" stroke="midnightblue" points="340.665,-6.64678 331.856,-12.5345 342.414,-13.4248 340.665,-6.64678"/>
</g>
<!-- Node5 -->
<g id="node5" class="node"><title>Node5</title>
<g id="a_node5"><a xlink:href="drive1_8F90.html#a18d3e839786263fc4cf91f7eeb714371" target="_top" xlink:title="take a chunk of time&#45;steps ">
<polygon fill="white" stroke="black" points="494,-50.5403 494,-69.5403 607,-69.5403 607,-50.5403 494,-50.5403"/>
<text text-anchor="middle" x="550.5" y="-57.5403" font-family="Helvetica,sans-Serif" font-size="10.00">nek__multi_advance</text>
</a>
</g>
</g>
<!-- Node4&#45;&gt;Node5 -->
<g id="edge4" class="edge"><title>Node4&#45;&gt;Node5</title>
<path fill="none" stroke="midnightblue" d="M468.191,-60.0403C476.607,-60.0403 485.403,-60.0403 493.97,-60.0403"/>
<polygon fill="midnightblue" stroke="midnightblue" points="468.154,-56.5404 458.154,-60.0403 468.154,-63.5404 468.154,-56.5404"/>
</g>
<!-- Node6 -->
<g id="node6" class="node"><title>Node6</title>
<g id="a_node6"><a xlink:href="drive1_8F90.html#a6ad57e0cf728f343e371ef8c9a02cd8a" target="_top" xlink:title="integrate the governing equations in time ">
<polygon fill="white" stroke="black" points="643,-50.5403 643,-69.5403 708,-69.5403 708,-50.5403 643,-50.5403"/>
<text text-anchor="middle" x="675.5" y="-57.5403" font-family="Helvetica,sans-Serif" font-size="10.00">nek_solve</text>
</a>
</g>
</g>
<!-- Node5&#45;&gt;Node6 -->
<g id="edge5" class="edge"><title>Node5&#45;&gt;Node6</title>
<path fill="none" stroke="midnightblue" d="M617.282,-60.0403C626.164,-60.0403 634.927,-60.0403 642.824,-60.0403"/>
<polygon fill="midnightblue" stroke="midnightblue" points="617.242,-56.5404 607.242,-60.0403 617.242,-63.5404 617.242,-56.5404"/>
</g>
<!-- Node7 -->
<g id="node7" class="node"><title>Node7</title>
<g id="a_node7"><a xlink:href="drive_8F90.html#a13048bf28dd0734640412d69349e3857" target="_top" xlink:title="NEK5000: Spectral Element Computational Fluid Dynamics Solver COPYRIGHT (c) 2008&#45;2010 UCHICAGO ARGONN...">
<polygon fill="white" stroke="black" points="744,-31.5403 744,-50.5403 793,-50.5403 793,-31.5403 744,-31.5403"/>
<text text-anchor="middle" x="768.5" y="-38.5403" font-family="Helvetica,sans-Serif" font-size="10.00">nekton</text>
</a>
</g>
</g>
<!-- Node6&#45;&gt;Node7 -->
<g id="edge6" class="edge"><title>Node6&#45;&gt;Node7</title>
<path fill="none" stroke="midnightblue" d="M717.906,-51.3951C726.759,-49.5467 735.82,-47.6549 743.734,-46.0025"/>
<polygon fill="midnightblue" stroke="midnightblue" points="717.146,-47.9783 708.072,-53.4483 718.576,-54.8305 717.146,-47.9783"/>
</g>
<!-- Node8&#45;&gt;Node9 -->
<g id="edge8" class="edge"><title>Node8&#45;&gt;Node9</title>
<path fill="none" stroke="midnightblue" d="M468.396,-22.0403C489.07,-22.0403 512.004,-22.0403 528.195,-22.0403"/>
<polygon fill="midnightblue" stroke="midnightblue" points="468.154,-18.5404 458.154,-22.0403 468.154,-25.5404 468.154,-18.5404"/>
</g>
<!-- Node10 -->
<g id="node10" class="node"><title>Node10</title>
<g id="a_node10"><a xlink:href="drive1_8F90.html#a87bd37ae2c18426f28f35cc3f24e4355" target="_top" xlink:title="initialize nek ">
<polygon fill="white" stroke="black" points="649,-12.5403 649,-31.5403 702,-31.5403 702,-12.5403 649,-12.5403"/>
<text text-anchor="middle" x="675.5" y="-19.5403" font-family="Helvetica,sans-Serif" font-size="10.00">nek_init</text>
</a>
</g>
</g>
<!-- Node9&#45;&gt;Node10 -->
<g id="edge9" class="edge"><title>Node9&#45;&gt;Node10</title>
<path fill="none" stroke="midnightblue" d="M582.749,-22.0403C603.247,-22.0403 629.715,-22.0403 648.951,-22.0403"/>
<polygon fill="midnightblue" stroke="midnightblue" points="582.644,-18.5404 572.644,-22.0403 582.644,-25.5404 582.644,-18.5404"/>
</g>
<!-- Node10&#45;&gt;Node7 -->
<g id="edge10" class="edge"><title>Node10&#45;&gt;Node7</title>
<path fill="none" stroke="midnightblue" d="M712.191,-29.4922C722.794,-31.706 734.143,-34.0756 743.784,-36.0886"/>
<polygon fill="midnightblue" stroke="midnightblue" points="712.838,-26.0519 702.334,-27.4341 711.407,-32.9041 712.838,-26.0519"/>
</g>
</g>
</svg>
        <g id="navigator" transform="translate(0 0)" fill="#404254">
                <rect fill="#f2f5e9" fill-opacity="0.5" stroke="#606060" stroke-width=".5" x="0" y="0" width="60" height="60"/>
                <use id="zoomplus" xlink:href="#zoomPlus" x="17" y="9" onmousedown="handleZoom(evt,'in')"/>
                <use id="zoomminus" xlink:href="#zoomMin" x="42" y="9" onmousedown="handleZoom(evt,'out')"/>
                <use id="reset" xlink:href="#resetDef" x="30" y="36" onmousedown="handleReset()"/>
                <g id="arrowUp" xlink:href="#dirArrow" transform="translate(30 24)" onmousedown="handlePan(0,-1)">
                  <use xlink:href="#rim" fill="#404040">
                        <set attributeName="fill" to="#808080" begin="arrowUp.mouseover" end="arrowUp.mouseout"/>
                  </use>
                  <path fill="none" stroke="white" stroke-width="1.5" d="M0,-3.0v7 M-2.5,-0.5L0,-3.0L2.5,-0.5"/>
                </g>
                <g id="arrowRight" xlink:href="#dirArrow" transform="rotate(90) translate(36 -43)" onmousedown="handlePan(1,0)">
                  <use xlink:href="#rim" fill="#404040">
                        <set attributeName="fill" to="#808080" begin="arrowRight.mouseover" end="arrowRight.mouseout"/>
                  </use>
                  <path fill="none" stroke="white" stroke-width="1.5" d="M0,-3.0v7 M-2.5,-0.5L0,-3.0L2.5,-0.5"/>
                </g>
                <g id="arrowDown" xlink:href="#dirArrow" transform="rotate(180) translate(-30 -48)" onmousedown="handlePan(0,1)">
                  <use xlink:href="#rim" fill="#404040">
                        <set attributeName="fill" to="#808080" begin="arrowDown.mouseover" end="arrowDown.mouseout"/>
                  </use>
                  <path fill="none" stroke="white" stroke-width="1.5" d="M0,-3.0v7 M-2.5,-0.5L0,-3.0L2.5,-0.5"/>
                </g>
                <g id="arrowLeft" xlink:href="#dirArrow" transform="rotate(270) translate(-36 17)" onmousedown="handlePan(-1,0)">
                  <use xlink:href="#rim" fill="#404040">
                        <set attributeName="fill" to="#808080" begin="arrowLeft.mouseover" end="arrowLeft.mouseout"/>
                  </use>
                  <path fill="none" stroke="white" stroke-width="1.5" d="M0,-3.0v7 M-2.5,-0.5L0,-3.0L2.5,-0.5"/>
                </g>
        </g>
        <svg viewBox="0 0 15 15" width="100%" height="30px" preserveAspectRatio="xMaxYMin meet">
         <g id="arrow_out" transform="scale(0.3 0.3)">
          <a xlink:href="induct_8F90_adcae8f87adfb3b7c619cd72c46ccd4ac_icgraph_org.svg" target="_base">
           <rect id="button" ry="5" rx="5" y="6" x="6" height="38" width="38"
                fill="#f2f5e9" fill-opacity="0.5" stroke="#606060" stroke-width="1.0"/>
           <path id="arrow"
             d="M 11.500037,31.436501 C 11.940474,20.09759 22.043105,11.32322 32.158766,21.979434 L 37.068811,17.246167 C 37.068811,17.246167 37.088388,32 37.088388,32 L 22.160133,31.978069 C 22.160133,31.978069 26.997745,27.140456 26.997745,27.140456 C 18.528582,18.264221 13.291696,25.230495 11.500037,31.436501 z"
             style="fill:#404040;"/>
          </a>
         </g>
        </svg>
</svg>
