<?xml version="1.0" encoding="UTF-8" standalone="no"?>
<!DOCTYPE svg PUBLIC "-//W3C//DTD SVG 1.1//EN"
 "http://www.w3.org/Graphics/SVG/1.1/DTD/svg11.dtd">
<!-- Generated by graphviz version 2.38.0 (20140413.2041)
 -->
<!-- Title: lim_chk Pages: 1 -->
<svg width="492pt" height="218pt"
 viewBox="0.00 0.00 492.00 218.00" xmlns="http://www.w3.org/2000/svg" xmlns:xlink="http://www.w3.org/1999/xlink">
<g id="graph0" class="graph" transform="scale(1 1) rotate(0) translate(4 214)">
<title>lim_chk</title>
<polygon fill="white" stroke="none" points="-4,4 -4,-214 488,-214 488,4 -4,4"/>
<!-- Node1 -->
<g id="node1" class="node"><title>Node1</title>
<polygon fill="#bfbfbf" stroke="black" points="0,-114.5 0,-133.5 52,-133.5 52,-114.5 0,-114.5"/>
<text text-anchor="middle" x="26" y="-121.5" font-family="Helvetica,sans-Serif" font-size="10.00">lim_chk</text>
</g>
<!-- Node2 -->
<g id="node2" class="node"><title>Node2</title>
<g id="a_node2"><a xlink:href="comm__mpi_8F90.html#a59fcf8a02fe54ab37f61050e3ca6b197" target="_top" xlink:title="exitti">
<polygon fill="white" stroke="black" points="88,-114.5 88,-133.5 126,-133.5 126,-114.5 88,-114.5"/>
<text text-anchor="middle" x="107" y="-121.5" font-family="Helvetica,sans-Serif" font-size="10.00">exitti</text>
</a>
</g>
</g>
<!-- Node1&#45;&gt;Node2 -->
<g id="edge1" class="edge"><title>Node1&#45;&gt;Node2</title>
<path fill="none" stroke="midnightblue" d="M52.4309,-124C60.4598,-124 69.3807,-124 77.603,-124"/>
<polygon fill="midnightblue" stroke="midnightblue" points="77.8758,-127.5 87.8758,-124 77.8758,-120.5 77.8758,-127.5"/>
</g>
<!-- Node3 -->
<g id="node3" class="node"><title>Node3</title>
<g id="a_node3"><a xlink:href="math_8F90.html#a692155d1d2ec380a9fdb2d81ef221625" target="_top" xlink:title="blank a string ">
<polygon fill="white" stroke="black" points="178,-171.5 178,-190.5 219,-190.5 219,-171.5 178,-171.5"/>
<text text-anchor="middle" x="198.5" y="-178.5" font-family="Helvetica,sans-Serif" font-size="10.00">blank</text>
</a>
</g>
</g>
<!-- Node2&#45;&gt;Node3 -->
<g id="edge2" class="edge"><title>Node2&#45;&gt;Node3</title>
<path fill="none" stroke="midnightblue" d="M120.578,-133.51C131.338,-141.483 147.361,-152.978 162,-162 164.455,-163.513 167.04,-165.032 169.65,-166.515"/>
<polygon fill="midnightblue" stroke="midnightblue" points="168.017,-169.611 178.467,-171.362 171.39,-163.477 168.017,-169.611"/>
</g>
<!-- Node4 -->
<g id="node4" class="node"><title>Node4</title>
<g id="a_node4"><a xlink:href="math_8F90.html#ad7fb480cea001849621405f37167aab1" target="_top" xlink:title="chcopy">
<polygon fill="white" stroke="black" points="173.5,-133.5 173.5,-152.5 223.5,-152.5 223.5,-133.5 173.5,-133.5"/>
<text text-anchor="middle" x="198.5" y="-140.5" font-family="Helvetica,sans-Serif" font-size="10.00">chcopy</text>
</a>
</g>
</g>
<!-- Node2&#45;&gt;Node4 -->
<g id="edge3" class="edge"><title>Node2&#45;&gt;Node4</title>
<path fill="none" stroke="midnightblue" d="M126.112,-127.845C136.833,-130.121 150.761,-133.078 163.465,-135.775"/>
<polygon fill="midnightblue" stroke="midnightblue" points="162.797,-139.211 173.306,-137.864 164.251,-132.363 162.797,-139.211"/>
</g>
<!-- Node5 -->
<g id="node5" class="node"><title>Node5</title>
<g id="a_node5"><a xlink:href="byte_8c.html#a2da8eeb074dfd3ffbfb3e9a4d301cda4" target="_top" xlink:title="exitt">
<polygon fill="white" stroke="black" points="180.5,-95.5 180.5,-114.5 216.5,-114.5 216.5,-95.5 180.5,-95.5"/>
<text text-anchor="middle" x="198.5" y="-102.5" font-family="Helvetica,sans-Serif" font-size="10.00">exitt</text>
</a>
</g>
</g>
<!-- Node2&#45;&gt;Node5 -->
<g id="edge4" class="edge"><title>Node2&#45;&gt;Node5</title>
<path fill="none" stroke="midnightblue" d="M126.112,-120.155C138.853,-117.45 156.125,-113.783 170.488,-110.734"/>
<polygon fill="midnightblue" stroke="midnightblue" points="171.271,-114.146 180.326,-108.646 169.817,-107.299 171.271,-114.146"/>
</g>
<!-- Node15 -->
<g id="node15" class="node"><title>Node15</title>
<g id="a_node15"><a xlink:href="classstring.html#ac6aad97d698bcdbf5c11ffa52d947ad8" target="_top" xlink:title="string::indx1">
<polygon fill="white" stroke="black" points="162,-57.5 162,-76.5 235,-76.5 235,-57.5 162,-57.5"/>
<text text-anchor="middle" x="198.5" y="-64.5" font-family="Helvetica,sans-Serif" font-size="10.00">string::indx1</text>
</a>
</g>
</g>
<!-- Node2&#45;&gt;Node15 -->
<g id="edge14" class="edge"><title>Node2&#45;&gt;Node15</title>
<path fill="none" stroke="midnightblue" d="M120.578,-114.49C131.338,-106.517 147.361,-95.0217 162,-86 164.455,-84.4871 167.04,-82.9685 169.65,-81.4852"/>
<polygon fill="midnightblue" stroke="midnightblue" points="171.39,-84.5231 178.467,-76.6383 168.017,-78.389 171.39,-84.5231"/>
</g>
<!-- Node6 -->
<g id="node6" class="node"><title>Node6</title>
<g id="a_node6"><a xlink:href="classctimer.html#abcecbc845c8ee72e13a19eaa30b80d77" target="_top" xlink:title="ctimer::dnekclock">
<polygon fill="white" stroke="black" points="271,-190.5 271,-209.5 368,-209.5 368,-190.5 271,-190.5"/>
<text text-anchor="middle" x="319.5" y="-197.5" font-family="Helvetica,sans-Serif" font-size="10.00">ctimer::dnekclock</text>
</a>
</g>
</g>
<!-- Node5&#45;&gt;Node6 -->
<g id="edge5" class="edge"><title>Node5&#45;&gt;Node6</title>
<path fill="none" stroke="midnightblue" d="M216.555,-111.903C222.821,-114.983 229.678,-119.047 235,-124 256.935,-144.412 247.968,-161.835 271,-181 272.971,-182.64 275.102,-184.152 277.332,-185.544"/>
<polygon fill="midnightblue" stroke="midnightblue" points="275.821,-188.705 286.29,-190.333 279.121,-182.532 275.821,-188.705"/>
</g>
<!-- Node8 -->
<g id="node8" class="node"><title>Node8</title>
<g id="a_node8"><a xlink:href="subs1_8F90.html#a339739b88994e5bb12bd923147f94983" target="_top" xlink:title="flush_io">
<polygon fill="white" stroke="black" points="293,-152.5 293,-171.5 346,-171.5 346,-152.5 293,-152.5"/>
<text text-anchor="middle" x="319.5" y="-159.5" font-family="Helvetica,sans-Serif" font-size="10.00">flush_io</text>
</a>
</g>
</g>
<!-- Node5&#45;&gt;Node8 -->
<g id="edge7" class="edge"><title>Node5&#45;&gt;Node8</title>
<path fill="none" stroke="midnightblue" d="M216.657,-114.178C236.925,-125.011 268.258,-141.728 271,-143 275.099,-144.902 279.444,-146.799 283.777,-148.617"/>
<polygon fill="midnightblue" stroke="midnightblue" points="282.559,-151.9 293.139,-152.443 285.207,-145.42 282.559,-151.9"/>
</g>
<!-- Node9 -->
<g id="node9" class="node"><title>Node9</title>
<g id="a_node9"><a xlink:href="singlmesh_8F90.html#aef78ff219741b83c1ca784b869e9cacf" target="_top" xlink:title="Dummy for singlmesh. ">
<polygon fill="white" stroke="black" points="279.5,-114.5 279.5,-133.5 359.5,-133.5 359.5,-114.5 279.5,-114.5"/>
<text text-anchor="middle" x="319.5" y="-121.5" font-family="Helvetica,sans-Serif" font-size="10.00">happy_check</text>
</a>
</g>
</g>
<!-- Node5&#45;&gt;Node9 -->
<g id="edge8" class="edge"><title>Node5&#45;&gt;Node9</title>
<path fill="none" stroke="midnightblue" d="M216.55,-107.722C230.387,-109.931 250.615,-113.161 269.412,-116.162"/>
<polygon fill="midnightblue" stroke="midnightblue" points="268.936,-119.631 279.362,-117.751 270.039,-112.718 268.936,-119.631"/>
</g>
<!-- Node10 -->
<g id="node10" class="node"><title>Node10</title>
<g id="a_node10"><a xlink:href="mpi__dummy_8F90.html#a55e9a1619aadb638b14211ce21d7d566" target="_top" xlink:title="mpi_finalize">
<polygon fill="white" stroke="black" points="283.5,-76.5 283.5,-95.5 355.5,-95.5 355.5,-76.5 283.5,-76.5"/>
<text text-anchor="middle" x="319.5" y="-83.5" font-family="Helvetica,sans-Serif" font-size="10.00">mpi_finalize</text>
</a>
</g>
</g>
<!-- Node5&#45;&gt;Node10 -->
<g id="edge9" class="edge"><title>Node5&#45;&gt;Node10</title>
<path fill="none" stroke="midnightblue" d="M216.55,-102.278C231.326,-99.9185 253.391,-96.3956 273.218,-93.2299"/>
<polygon fill="midnightblue" stroke="midnightblue" points="274.009,-96.6481 283.332,-91.6151 272.905,-89.7356 274.009,-96.6481"/>
</g>
<!-- Node11 -->
<g id="node11" class="node"><title>Node11</title>
<g id="a_node11"><a xlink:href="papi_8F90.html#a3a75ccdfbe05912fda48c3b134d114c0" target="_top" xlink:title="nek_flops">
<polygon fill="white" stroke="black" points="288.5,-38.5 288.5,-57.5 350.5,-57.5 350.5,-38.5 288.5,-38.5"/>
<text text-anchor="middle" x="319.5" y="-45.5" font-family="Helvetica,sans-Serif" font-size="10.00">nek_flops</text>
</a>
</g>
</g>
<!-- Node5&#45;&gt;Node11 -->
<g id="edge10" class="edge"><title>Node5&#45;&gt;Node11</title>
<path fill="none" stroke="midnightblue" d="M216.657,-95.8219C236.925,-84.9887 268.258,-68.2723 271,-67 275.099,-65.0978 279.444,-63.2013 283.777,-61.3834"/>
<polygon fill="midnightblue" stroke="midnightblue" points="285.207,-64.5801 293.139,-57.5572 282.559,-58.1003 285.207,-64.5801"/>
</g>
<!-- Node13 -->
<g id="node13" class="node"><title>Node13</title>
<g id="a_node13"><a xlink:href="comm__mpi_8F90.html#a4acb4d8e379294232e9219bec063d8f3" target="_top" xlink:title="nekgsync">
<polygon fill="white" stroke="black" points="288.5,-0.5 288.5,-19.5 350.5,-19.5 350.5,-0.5 288.5,-0.5"/>
<text text-anchor="middle" x="319.5" y="-7.5" font-family="Helvetica,sans-Serif" font-size="10.00">nekgsync</text>
</a>
</g>
</g>
<!-- Node5&#45;&gt;Node13 -->
<g id="edge12" class="edge"><title>Node5&#45;&gt;Node13</title>
<path fill="none" stroke="midnightblue" d="M216.555,-98.0974C222.821,-95.017 229.678,-90.9526 235,-86 256.935,-65.5882 247.968,-48.1647 271,-29 273.526,-26.8981 276.314,-25.0068 279.236,-23.3093"/>
<polygon fill="midnightblue" stroke="midnightblue" points="280.901,-26.39 288.273,-18.7808 277.765,-20.1317 280.901,-26.39"/>
</g>
<!-- Node7 -->
<g id="node7" class="node"><title>Node7</title>
<g id="a_node7"><a xlink:href="mpi__dummy_8F90.html#ae6a5ef945f87c2c27849696b70f3af2a" target="_top" xlink:title="mpi_wtime">
<polygon fill="white" stroke="black" points="411,-190.5 411,-209.5 477,-209.5 477,-190.5 411,-190.5"/>
<text text-anchor="middle" x="444" y="-197.5" font-family="Helvetica,sans-Serif" font-size="10.00">mpi_wtime</text>
</a>
</g>
</g>
<!-- Node6&#45;&gt;Node7 -->
<g id="edge6" class="edge"><title>Node6&#45;&gt;Node7</title>
<path fill="none" stroke="midnightblue" d="M368.212,-200C378.894,-200 390.154,-200 400.603,-200"/>
<polygon fill="midnightblue" stroke="midnightblue" points="400.73,-203.5 410.729,-200 400.729,-196.5 400.73,-203.5"/>
</g>
<!-- Node12 -->
<g id="node12" class="node"><title>Node12</title>
<g id="a_node12"><a xlink:href="papi_8F90.html#a838be3d39e287e29002d5a68c6ad2dd8" target="_top" xlink:title="getflops_papi">
<polygon fill="white" stroke="black" points="404,-38.5 404,-57.5 484,-57.5 484,-38.5 404,-38.5"/>
<text text-anchor="middle" x="444" y="-45.5" font-family="Helvetica,sans-Serif" font-size="10.00">getflops_papi</text>
</a>
</g>
</g>
<!-- Node11&#45;&gt;Node12 -->
<g id="edge11" class="edge"><title>Node11&#45;&gt;Node12</title>
<path fill="none" stroke="midnightblue" d="M350.781,-48C363.666,-48 379.032,-48 393.491,-48"/>
<polygon fill="midnightblue" stroke="midnightblue" points="393.811,-51.5001 403.811,-48 393.811,-44.5001 393.811,-51.5001"/>
</g>
<!-- Node14 -->
<g id="node14" class="node"><title>Node14</title>
<g id="a_node14"><a xlink:href="mpi__dummy_8F90.html#a070afe564196eb48413dbf1a9fbc99aa" target="_top" xlink:title="mpi_barrier">
<polygon fill="white" stroke="black" points="409,-0.5 409,-19.5 479,-19.5 479,-0.5 409,-0.5"/>
<text text-anchor="middle" x="444" y="-7.5" font-family="Helvetica,sans-Serif" font-size="10.00">mpi_barrier</text>
</a>
</g>
</g>
<!-- Node13&#45;&gt;Node14 -->
<g id="edge13" class="edge"><title>Node13&#45;&gt;Node14</title>
<path fill="none" stroke="midnightblue" d="M350.781,-10C365.195,-10 382.714,-10 398.594,-10"/>
<polygon fill="midnightblue" stroke="midnightblue" points="398.745,-13.5001 408.745,-10 398.745,-6.5001 398.745,-13.5001"/>
</g>
</g>
</svg>
