<?xml version="1.0" encoding="UTF-8" standalone="no"?>
<!DOCTYPE svg PUBLIC "-//W3C//DTD SVG 1.1//EN"
 "http://www.w3.org/Graphics/SVG/1.1/DTD/svg11.dtd">
<!-- Generated by graphviz version 2.38.0 (20140413.2041)
 -->
<!-- Title: jl/lob_bnd.c Pages: 1 -->
<svg width="711pt" height="84pt"
 viewBox="0.00 0.00 711.00 84.00" xmlns="http://www.w3.org/2000/svg" xmlns:xlink="http://www.w3.org/1999/xlink">
<g id="graph0" class="graph" transform="scale(1 1) rotate(0) translate(4 80)">
<title>jl/lob_bnd.c</title>
<polygon fill="white" stroke="none" points="-4,4 -4,-80 707,-80 707,4 -4,4"/>
<!-- Node1 -->
<g id="node1" class="node"><title>Node1</title>
<polygon fill="#bfbfbf" stroke="black" points="326,-56.5 326,-75.5 394,-75.5 394,-56.5 326,-56.5"/>
<text text-anchor="middle" x="360" y="-63.5" font-family="Helvetica,sans-Serif" font-size="10.00">jl/lob_bnd.c</text>
</g>
<!-- Node2 -->
<g id="node2" class="node"><title>Node2</title>
<polygon fill="white" stroke="#bfbfbf" points="0,-0.5 0,-19.5 54,-19.5 54,-0.5 0,-0.5"/>
<text text-anchor="middle" x="27" y="-7.5" font-family="Helvetica,sans-Serif" font-size="10.00">stddef.h</text>
</g>
<!-- Node1&#45;&gt;Node2 -->
<g id="edge1" class="edge"><title>Node1&#45;&gt;Node2</title>
<path fill="none" stroke="midnightblue" d="M325.966,-60.9082C272.362,-54.2327 164.822,-39.91 64.1017,-20.0592"/>
<polygon fill="midnightblue" stroke="midnightblue" points="64.5561,-16.5809 54.0647,-18.0578 63.1871,-23.4458 64.5561,-16.5809"/>
</g>
<!-- Node3 -->
<g id="node3" class="node"><title>Node3</title>
<polygon fill="white" stroke="#bfbfbf" points="72.5,-0.5 72.5,-19.5 121.5,-19.5 121.5,-0.5 72.5,-0.5"/>
<text text-anchor="middle" x="97" y="-7.5" font-family="Helvetica,sans-Serif" font-size="10.00">stdlib.h</text>
</g>
<!-- Node1&#45;&gt;Node3 -->
<g id="edge2" class="edge"><title>Node1&#45;&gt;Node3</title>
<path fill="none" stroke="midnightblue" d="M325.93,-59.1373C282.821,-51.5438 206.092,-37.4468 131.805,-20.304"/>
<polygon fill="midnightblue" stroke="midnightblue" points="132.35,-16.8374 121.817,-17.9769 130.762,-23.6548 132.35,-16.8374"/>
</g>
<!-- Node4 -->
<g id="node4" class="node"><title>Node4</title>
<polygon fill="white" stroke="#bfbfbf" points="139.5,-0.5 139.5,-19.5 190.5,-19.5 190.5,-0.5 139.5,-0.5"/>
<text text-anchor="middle" x="165" y="-7.5" font-family="Helvetica,sans-Serif" font-size="10.00">string.h</text>
</g>
<!-- Node1&#45;&gt;Node4 -->
<g id="edge3" class="edge"><title>Node1&#45;&gt;Node4</title>
<path fill="none" stroke="midnightblue" d="M329.102,-56.4435C294.156,-46.7662 237.344,-31.0336 200.576,-20.8518"/>
<polygon fill="midnightblue" stroke="midnightblue" points="201.343,-17.4326 190.772,-18.1368 199.475,-24.1787 201.343,-17.4326"/>
</g>
<!-- Node5 -->
<g id="node5" class="node"><title>Node5</title>
<polygon fill="white" stroke="#bfbfbf" points="209,-0.5 209,-19.5 257,-19.5 257,-0.5 209,-0.5"/>
<text text-anchor="middle" x="233" y="-7.5" font-family="Helvetica,sans-Serif" font-size="10.00">math.h</text>
</g>
<!-- Node1&#45;&gt;Node5 -->
<g id="edge4" class="edge"><title>Node1&#45;&gt;Node5</title>
<path fill="none" stroke="midnightblue" d="M339.876,-56.4435C318.976,-47.5566 286.065,-33.5632 262.284,-23.4514"/>
<polygon fill="midnightblue" stroke="midnightblue" points="263.602,-20.2085 253.029,-19.5164 260.862,-26.6504 263.602,-20.2085"/>
</g>
<!-- Node6 -->
<g id="node6" class="node"><title>Node6</title>
<polygon fill="white" stroke="#bfbfbf" points="275.5,-0.5 275.5,-19.5 320.5,-19.5 320.5,-0.5 275.5,-0.5"/>
<text text-anchor="middle" x="298" y="-7.5" font-family="Helvetica,sans-Serif" font-size="10.00">float.h</text>
</g>
<!-- Node1&#45;&gt;Node6 -->
<g id="edge5" class="edge"><title>Node1&#45;&gt;Node6</title>
<path fill="none" stroke="midnightblue" d="M350.039,-56.324C340.873,-48.3414 327.063,-36.3128 315.972,-26.6529"/>
<polygon fill="midnightblue" stroke="midnightblue" points="317.982,-23.7624 308.143,-19.8339 313.385,-29.041 317.982,-23.7624"/>
</g>
<!-- Node7 -->
<g id="node7" class="node"><title>Node7</title>
<g id="a_node7"><a xlink:href="c99_8h.html" target="_top" xlink:title="c99.h">
<polygon fill="white" stroke="black" points="339,-0.5 339,-19.5 381,-19.5 381,-0.5 339,-0.5"/>
<text text-anchor="middle" x="360" y="-7.5" font-family="Helvetica,sans-Serif" font-size="10.00">c99.h</text>
</a>
</g>
</g>
<!-- Node1&#45;&gt;Node7 -->
<g id="edge6" class="edge"><title>Node1&#45;&gt;Node7</title>
<path fill="none" stroke="midnightblue" d="M360,-56.083C360,-49.0059 360,-38.8611 360,-29.9865"/>
<polygon fill="midnightblue" stroke="midnightblue" points="363.5,-29.751 360,-19.7511 356.5,-29.7511 363.5,-29.751"/>
</g>
<!-- Node8 -->
<g id="node8" class="node"><title>Node8</title>
<g id="a_node8"><a xlink:href="name_8h.html" target="_top" xlink:title="establishes some macros to establish naming conventions ">
<polygon fill="white" stroke="black" points="399.5,-0.5 399.5,-19.5 450.5,-19.5 450.5,-0.5 399.5,-0.5"/>
<text text-anchor="middle" x="425" y="-7.5" font-family="Helvetica,sans-Serif" font-size="10.00">name.h</text>
</a>
</g>
</g>
<!-- Node1&#45;&gt;Node8 -->
<g id="edge7" class="edge"><title>Node1&#45;&gt;Node8</title>
<path fill="none" stroke="midnightblue" d="M370.443,-56.324C380.146,-48.2631 394.815,-36.0765 406.5,-26.3695"/>
<polygon fill="midnightblue" stroke="midnightblue" points="408.911,-28.9163 414.367,-19.8339 404.438,-23.532 408.911,-28.9163"/>
</g>
<!-- Node9 -->
<g id="node9" class="node"><title>Node9</title>
<g id="a_node9"><a xlink:href="types_8h.html" target="_top" xlink:title="types.h">
<polygon fill="white" stroke="black" points="469,-0.5 469,-19.5 519,-19.5 519,-0.5 469,-0.5"/>
<text text-anchor="middle" x="494" y="-7.5" font-family="Helvetica,sans-Serif" font-size="10.00">types.h</text>
</a>
</g>
</g>
<!-- Node1&#45;&gt;Node9 -->
<g id="edge8" class="edge"><title>Node1&#45;&gt;Node9</title>
<path fill="none" stroke="midnightblue" d="M381.233,-56.4435C403.384,-47.5171 438.319,-33.4387 463.436,-23.3168"/>
<polygon fill="midnightblue" stroke="midnightblue" points="464.9,-26.5006 472.867,-19.5164 462.283,-20.0079 464.9,-26.5006"/>
</g>
<!-- Node10 -->
<g id="node10" class="node"><title>Node10</title>
<g id="a_node10"><a xlink:href="fail_8h.html" target="_top" xlink:title="fail.h">
<polygon fill="white" stroke="black" points="537,-0.5 537,-19.5 575,-19.5 575,-0.5 537,-0.5"/>
<text text-anchor="middle" x="556" y="-7.5" font-family="Helvetica,sans-Serif" font-size="10.00">fail.h</text>
</a>
</g>
</g>
<!-- Node1&#45;&gt;Node10 -->
<g id="edge9" class="edge"><title>Node1&#45;&gt;Node10</title>
<path fill="none" stroke="midnightblue" d="M393.924,-56.4369C425.96,-48.2347 475.558,-35.2396 527.113,-20.1612"/>
<polygon fill="midnightblue" stroke="midnightblue" points="528.154,-23.5035 536.759,-17.3222 526.177,-16.7883 528.154,-23.5035"/>
</g>
<!-- Node11 -->
<g id="node11" class="node"><title>Node11</title>
<g id="a_node11"><a xlink:href="mem_8h.html" target="_top" xlink:title="mem.h">
<polygon fill="white" stroke="black" points="593.5,-0.5 593.5,-19.5 640.5,-19.5 640.5,-0.5 593.5,-0.5"/>
<text text-anchor="middle" x="617" y="-7.5" font-family="Helvetica,sans-Serif" font-size="10.00">mem.h</text>
</a>
</g>
</g>
<!-- Node1&#45;&gt;Node11 -->
<g id="edge10" class="edge"><title>Node1&#45;&gt;Node11</title>
<path fill="none" stroke="midnightblue" d="M394.312,-58.8573C436.507,-51.1391 510.511,-37.0708 583.442,-20"/>
<polygon fill="midnightblue" stroke="midnightblue" points="584.328,-23.3872 593.256,-17.6828 582.72,-16.5745 584.328,-23.3872"/>
</g>
<!-- Node12 -->
<g id="node12" class="node"><title>Node12</title>
<g id="a_node12"><a xlink:href="poly_8h.html" target="_top" xlink:title="poly.h">
<polygon fill="white" stroke="black" points="659,-0.5 659,-19.5 703,-19.5 703,-0.5 659,-0.5"/>
<text text-anchor="middle" x="681" y="-7.5" font-family="Helvetica,sans-Serif" font-size="10.00">poly.h</text>
</a>
</g>
</g>
<!-- Node1&#45;&gt;Node12 -->
<g id="edge11" class="edge"><title>Node1&#45;&gt;Node12</title>
<path fill="none" stroke="midnightblue" d="M394.196,-61.1404C446.894,-54.8799 551.248,-41.2437 648.721,-20.0456"/>
<polygon fill="midnightblue" stroke="midnightblue" points="649.727,-23.408 658.737,-17.8348 648.218,-16.5725 649.727,-23.408"/>
</g>
</g>
</svg>
