<?xml version="1.0" encoding="UTF-8" standalone="no"?>
<!DOCTYPE svg PUBLIC "-//W3C//DTD SVG 1.1//EN"
 "http://www.w3.org/Graphics/SVG/1.1/DTD/svg11.dtd">
<!-- Generated by graphviz version 2.38.0 (20140413.2041)
 -->
<!-- Title: glsc23 Pages: 1 -->
<svg width="553pt" height="370pt"
 viewBox="0.00 0.00 553.00 370.00" xmlns="http://www.w3.org/2000/svg" xmlns:xlink="http://www.w3.org/1999/xlink">
<g id="graph0" class="graph" transform="scale(1 1) rotate(0) translate(4 366)">
<title>glsc23</title>
<polygon fill="white" stroke="none" points="-4,4 -4,-366 549,-366 549,4 -4,4"/>
<!-- Node1 -->
<g id="node1" class="node"><title>Node1</title>
<polygon fill="#bfbfbf" stroke="black" points="0,-228.5 0,-247.5 47,-247.5 47,-228.5 0,-228.5"/>
<text text-anchor="middle" x="23.5" y="-235.5" font-family="Helvetica,sans-Serif" font-size="10.00">glsc23</text>
</g>
<!-- Node2 -->
<g id="node2" class="node"><title>Node2</title>
<g id="a_node2"><a xlink:href="comm__mpi_8F90.html#a3f652605d55796462e959d17b5a9612b" target="_top" xlink:title="Global vector commutative operation. ">
<polygon fill="white" stroke="black" points="83,-228.5 83,-247.5 118,-247.5 118,-228.5 83,-228.5"/>
<text text-anchor="middle" x="100.5" y="-235.5" font-family="Helvetica,sans-Serif" font-size="10.00">gop</text>
</a>
</g>
</g>
<!-- Node1&#45;&gt;Node2 -->
<g id="edge1" class="edge"><title>Node1&#45;&gt;Node2</title>
<path fill="none" stroke="midnightblue" d="M47.0025,-238C55.1332,-238 64.39,-238 72.8428,-238"/>
<polygon fill="midnightblue" stroke="midnightblue" points="72.9742,-241.5 82.9742,-238 72.9742,-234.5 72.9742,-241.5"/>
</g>
<!-- Node3 -->
<g id="node3" class="node"><title>Node3</title>
<g id="a_node3"><a xlink:href="math_8F90.html#a3b43508554f14bdea8e14473d7d0803c" target="_top" xlink:title="copy">
<polygon fill="white" stroke="black" points="175.5,-304.5 175.5,-323.5 214.5,-323.5 214.5,-304.5 175.5,-304.5"/>
<text text-anchor="middle" x="195" y="-311.5" font-family="Helvetica,sans-Serif" font-size="10.00">copy</text>
</a>
</g>
</g>
<!-- Node2&#45;&gt;Node3 -->
<g id="edge2" class="edge"><title>Node2&#45;&gt;Node3</title>
<path fill="none" stroke="midnightblue" d="M109.813,-247.522C119.689,-258.515 136.981,-276.777 154,-290 158.131,-293.209 162.724,-296.327 167.283,-299.195"/>
<polygon fill="midnightblue" stroke="midnightblue" points="165.503,-302.209 175.877,-304.361 169.109,-296.21 165.503,-302.209"/>
</g>
<!-- Node4 -->
<g id="node4" class="node"><title>Node4</title>
<g id="a_node4"><a xlink:href="classctimer.html#abcecbc845c8ee72e13a19eaa30b80d77" target="_top" xlink:title="ctimer::dnekclock">
<polygon fill="white" stroke="black" points="302,-342.5 302,-361.5 399,-361.5 399,-342.5 302,-342.5"/>
<text text-anchor="middle" x="350.5" y="-349.5" font-family="Helvetica,sans-Serif" font-size="10.00">ctimer::dnekclock</text>
</a>
</g>
</g>
<!-- Node2&#45;&gt;Node4 -->
<g id="edge3" class="edge"><title>Node2&#45;&gt;Node4</title>
<path fill="none" stroke="midnightblue" d="M118.275,-244.122C149.657,-255.735 215.893,-281.048 236,-295 255.113,-308.263 251.885,-321.311 272,-333 278.258,-336.637 285.19,-339.581 292.261,-341.963"/>
<polygon fill="midnightblue" stroke="midnightblue" points="291.353,-345.344 301.937,-344.875 293.37,-338.641 291.353,-345.344"/>
</g>
<!-- Node6 -->
<g id="node6" class="node"><title>Node6</title>
<g id="a_node6"><a xlink:href="byte_8c.html#a2da8eeb074dfd3ffbfb3e9a4d301cda4" target="_top" xlink:title="exitt">
<polygon fill="white" stroke="black" points="177,-228.5 177,-247.5 213,-247.5 213,-228.5 177,-228.5"/>
<text text-anchor="middle" x="195" y="-235.5" font-family="Helvetica,sans-Serif" font-size="10.00">exitt</text>
</a>
</g>
</g>
<!-- Node2&#45;&gt;Node6 -->
<g id="edge5" class="edge"><title>Node2&#45;&gt;Node6</title>
<path fill="none" stroke="midnightblue" d="M118.037,-238C131.548,-238 150.926,-238 166.728,-238"/>
<polygon fill="midnightblue" stroke="midnightblue" points="166.98,-241.5 176.98,-238 166.98,-234.5 166.98,-241.5"/>
</g>
<!-- Node12 -->
<g id="node12" class="node"><title>Node12</title>
<g id="a_node12"><a xlink:href="comm__mpi_8F90.html#a4acb4d8e379294232e9219bec063d8f3" target="_top" xlink:title="nekgsync">
<polygon fill="white" stroke="black" points="319.5,-152.5 319.5,-171.5 381.5,-171.5 381.5,-152.5 319.5,-152.5"/>
<text text-anchor="middle" x="350.5" y="-159.5" font-family="Helvetica,sans-Serif" font-size="10.00">nekgsync</text>
</a>
</g>
</g>
<!-- Node2&#45;&gt;Node12 -->
<g id="edge19" class="edge"><title>Node2&#45;&gt;Node12</title>
<path fill="none" stroke="midnightblue" d="M118.469,-231.685C128.724,-227.912 142.076,-223.076 154,-219 206.135,-201.178 218.988,-196.013 272,-181 284.079,-177.579 297.319,-174.199 309.383,-171.26"/>
<polygon fill="midnightblue" stroke="midnightblue" points="310.284,-174.643 319.189,-168.903 308.648,-167.837 310.284,-174.643"/>
</g>
<!-- Node14 -->
<g id="node14" class="node"><title>Node14</title>
<g id="a_node14"><a xlink:href="mpi__dummy_8F90.html#acd9229b5fb6a4d16f9917a5b5c2f0909" target="_top" xlink:title="mpi_allreduce">
<polygon fill="white" stroke="black" points="154,-76.5 154,-95.5 236,-95.5 236,-76.5 154,-76.5"/>
<text text-anchor="middle" x="195" y="-83.5" font-family="Helvetica,sans-Serif" font-size="10.00">mpi_allreduce</text>
</a>
</g>
</g>
<!-- Node2&#45;&gt;Node14 -->
<g id="edge14" class="edge"><title>Node2&#45;&gt;Node14</title>
<path fill="none" stroke="midnightblue" d="M107.286,-228.492C122.341,-203.754 162.935,-137.048 182.776,-104.444"/>
<polygon fill="midnightblue" stroke="midnightblue" points="186.007,-105.867 188.216,-95.5047 180.027,-102.228 186.007,-105.867"/>
</g>
<!-- Node5 -->
<g id="node5" class="node"><title>Node5</title>
<g id="a_node5"><a xlink:href="mpi__dummy_8F90.html#ae6a5ef945f87c2c27849696b70f3af2a" target="_top" xlink:title="mpi_wtime">
<polygon fill="white" stroke="black" points="472,-342.5 472,-361.5 538,-361.5 538,-342.5 472,-342.5"/>
<text text-anchor="middle" x="505" y="-349.5" font-family="Helvetica,sans-Serif" font-size="10.00">mpi_wtime</text>
</a>
</g>
</g>
<!-- Node4&#45;&gt;Node5 -->
<g id="edge4" class="edge"><title>Node4&#45;&gt;Node5</title>
<path fill="none" stroke="midnightblue" d="M399.334,-352C419.325,-352 442.358,-352 461.718,-352"/>
<polygon fill="midnightblue" stroke="midnightblue" points="461.762,-355.5 471.762,-352 461.762,-348.5 461.762,-355.5"/>
</g>
<!-- Node6&#45;&gt;Node4 -->
<g id="edge6" class="edge"><title>Node6&#45;&gt;Node4</title>
<path fill="none" stroke="midnightblue" d="M213.06,-245.514C220.785,-249.553 229.598,-255.125 236,-262 260.112,-287.892 244.29,-311.002 272,-333 277.893,-337.678 284.774,-341.226 291.958,-343.914"/>
<polygon fill="midnightblue" stroke="midnightblue" points="291.288,-347.373 301.879,-347.07 293.41,-340.703 291.288,-347.373"/>
</g>
<!-- Node7 -->
<g id="node7" class="node"><title>Node7</title>
<g id="a_node7"><a xlink:href="subs1_8F90.html#a339739b88994e5bb12bd923147f94983" target="_top" xlink:title="flush_io">
<polygon fill="white" stroke="black" points="324,-304.5 324,-323.5 377,-323.5 377,-304.5 324,-304.5"/>
<text text-anchor="middle" x="350.5" y="-311.5" font-family="Helvetica,sans-Serif" font-size="10.00">flush_io</text>
</a>
</g>
</g>
<!-- Node6&#45;&gt;Node7 -->
<g id="edge7" class="edge"><title>Node6&#45;&gt;Node7</title>
<path fill="none" stroke="midnightblue" d="M213.225,-247.315C220.472,-251.491 228.861,-256.671 236,-262 253.394,-274.983 252.861,-284.762 272,-295 284.849,-301.873 300.223,-306.306 313.878,-309.143"/>
<polygon fill="midnightblue" stroke="midnightblue" points="313.443,-312.622 323.915,-311.016 314.727,-305.741 313.443,-312.622"/>
</g>
<!-- Node8 -->
<g id="node8" class="node"><title>Node8</title>
<g id="a_node8"><a xlink:href="singlmesh_8F90.html#aef78ff219741b83c1ca784b869e9cacf" target="_top" xlink:title="Dummy for singlmesh. ">
<polygon fill="white" stroke="black" points="310.5,-266.5 310.5,-285.5 390.5,-285.5 390.5,-266.5 310.5,-266.5"/>
<text text-anchor="middle" x="350.5" y="-273.5" font-family="Helvetica,sans-Serif" font-size="10.00">happy_check</text>
</a>
</g>
</g>
<!-- Node6&#45;&gt;Node8 -->
<g id="edge8" class="edge"><title>Node6&#45;&gt;Node8</title>
<path fill="none" stroke="midnightblue" d="M213.199,-242.324C228.599,-246.189 251.801,-251.999 272,-257 281.282,-259.298 291.192,-261.738 300.718,-264.076"/>
<polygon fill="midnightblue" stroke="midnightblue" points="299.917,-267.484 310.463,-266.466 301.584,-260.685 299.917,-267.484"/>
</g>
<!-- Node9 -->
<g id="node9" class="node"><title>Node9</title>
<g id="a_node9"><a xlink:href="mpi__dummy_8F90.html#a55e9a1619aadb638b14211ce21d7d566" target="_top" xlink:title="mpi_finalize">
<polygon fill="white" stroke="black" points="314.5,-228.5 314.5,-247.5 386.5,-247.5 386.5,-228.5 314.5,-228.5"/>
<text text-anchor="middle" x="350.5" y="-235.5" font-family="Helvetica,sans-Serif" font-size="10.00">mpi_finalize</text>
</a>
</g>
</g>
<!-- Node6&#45;&gt;Node9 -->
<g id="edge9" class="edge"><title>Node6&#45;&gt;Node9</title>
<path fill="none" stroke="midnightblue" d="M213.014,-238C234.894,-238 273.727,-238 304.391,-238"/>
<polygon fill="midnightblue" stroke="midnightblue" points="304.44,-241.5 314.44,-238 304.44,-234.5 304.44,-241.5"/>
</g>
<!-- Node10 -->
<g id="node10" class="node"><title>Node10</title>
<g id="a_node10"><a xlink:href="papi_8F90.html#a3a75ccdfbe05912fda48c3b134d114c0" target="_top" xlink:title="nek_flops">
<polygon fill="white" stroke="black" points="319.5,-190.5 319.5,-209.5 381.5,-209.5 381.5,-190.5 319.5,-190.5"/>
<text text-anchor="middle" x="350.5" y="-197.5" font-family="Helvetica,sans-Serif" font-size="10.00">nek_flops</text>
</a>
</g>
</g>
<!-- Node6&#45;&gt;Node10 -->
<g id="edge10" class="edge"><title>Node6&#45;&gt;Node10</title>
<path fill="none" stroke="midnightblue" d="M213.199,-233.676C228.599,-229.811 251.801,-224.001 272,-219 284.187,-215.983 297.457,-212.721 309.517,-209.765"/>
<polygon fill="midnightblue" stroke="midnightblue" points="310.432,-213.145 319.312,-207.367 308.767,-206.346 310.432,-213.145"/>
</g>
<!-- Node6&#45;&gt;Node12 -->
<g id="edge12" class="edge"><title>Node6&#45;&gt;Node12</title>
<path fill="none" stroke="midnightblue" d="M205.94,-228.417C219.679,-215.701 245.761,-193.416 272,-181 283.642,-175.491 297.049,-171.478 309.404,-168.6"/>
<polygon fill="midnightblue" stroke="midnightblue" points="310.428,-171.96 319.473,-166.442 308.961,-165.116 310.428,-171.96"/>
</g>
<!-- Node11 -->
<g id="node11" class="node"><title>Node11</title>
<g id="a_node11"><a xlink:href="papi_8F90.html#a838be3d39e287e29002d5a68c6ad2dd8" target="_top" xlink:title="getflops_papi">
<polygon fill="white" stroke="black" points="465,-190.5 465,-209.5 545,-209.5 545,-190.5 465,-190.5"/>
<text text-anchor="middle" x="505" y="-197.5" font-family="Helvetica,sans-Serif" font-size="10.00">getflops_papi</text>
</a>
</g>
</g>
<!-- Node10&#45;&gt;Node11 -->
<g id="edge11" class="edge"><title>Node10&#45;&gt;Node11</title>
<path fill="none" stroke="midnightblue" d="M381.629,-200C402.516,-200 430.799,-200 454.913,-200"/>
<polygon fill="midnightblue" stroke="midnightblue" points="454.958,-203.5 464.958,-200 454.958,-196.5 454.958,-203.5"/>
</g>
<!-- Node13 -->
<g id="node13" class="node"><title>Node13</title>
<g id="a_node13"><a xlink:href="mpi__dummy_8F90.html#a070afe564196eb48413dbf1a9fbc99aa" target="_top" xlink:title="mpi_barrier">
<polygon fill="white" stroke="black" points="470,-152.5 470,-171.5 540,-171.5 540,-152.5 470,-152.5"/>
<text text-anchor="middle" x="505" y="-159.5" font-family="Helvetica,sans-Serif" font-size="10.00">mpi_barrier</text>
</a>
</g>
</g>
<!-- Node12&#45;&gt;Node13 -->
<g id="edge13" class="edge"><title>Node12&#45;&gt;Node13</title>
<path fill="none" stroke="midnightblue" d="M381.629,-162C403.983,-162 434.807,-162 459.926,-162"/>
<polygon fill="midnightblue" stroke="midnightblue" points="459.947,-165.5 469.947,-162 459.947,-158.5 459.947,-165.5"/>
</g>
<!-- Node15 -->
<g id="node15" class="node"><title>Node15</title>
<g id="a_node15"><a xlink:href="mpi__dummy_8F90.html#a64285f5ce9bed08bfd13bc27264db185" target="_top" xlink:title="mpi_reduce_double_precision">
<polygon fill="white" stroke="black" points="272,-114.5 272,-133.5 429,-133.5 429,-114.5 272,-114.5"/>
<text text-anchor="middle" x="350.5" y="-121.5" font-family="Helvetica,sans-Serif" font-size="10.00">mpi_reduce_double_precision</text>
</a>
</g>
</g>
<!-- Node14&#45;&gt;Node15 -->
<g id="edge15" class="edge"><title>Node14&#45;&gt;Node15</title>
<path fill="none" stroke="midnightblue" d="M233.876,-95.5051C246.047,-98.5498 259.59,-101.928 272,-105 281.282,-107.298 291.192,-109.738 300.718,-112.076"/>
<polygon fill="midnightblue" stroke="midnightblue" points="299.917,-115.484 310.463,-114.466 301.584,-108.685 299.917,-115.484"/>
</g>
<!-- Node16 -->
<g id="node16" class="node"><title>Node16</title>
<g id="a_node16"><a xlink:href="mpi__dummy_8F90.html#aa549a352c5ab9ce53b8dfd222da38fa6" target="_top" xlink:title="mpi_reduce_integer">
<polygon fill="white" stroke="black" points="295.5,-76.5 295.5,-95.5 405.5,-95.5 405.5,-76.5 295.5,-76.5"/>
<text text-anchor="middle" x="350.5" y="-83.5" font-family="Helvetica,sans-Serif" font-size="10.00">mpi_reduce_integer</text>
</a>
</g>
</g>
<!-- Node14&#45;&gt;Node16 -->
<g id="edge16" class="edge"><title>Node14&#45;&gt;Node16</title>
<path fill="none" stroke="midnightblue" d="M236.33,-86C251.263,-86 268.59,-86 285.129,-86"/>
<polygon fill="midnightblue" stroke="midnightblue" points="285.297,-89.5001 295.297,-86 285.297,-82.5001 285.297,-89.5001"/>
</g>
<!-- Node17 -->
<g id="node17" class="node"><title>Node17</title>
<g id="a_node17"><a xlink:href="mpi__dummy_8F90.html#abbddc050d7faafb34959984f69652e0a" target="_top" xlink:title="mpi_reduce_integer8">
<polygon fill="white" stroke="black" points="292.5,-38.5 292.5,-57.5 408.5,-57.5 408.5,-38.5 292.5,-38.5"/>
<text text-anchor="middle" x="350.5" y="-45.5" font-family="Helvetica,sans-Serif" font-size="10.00">mpi_reduce_integer8</text>
</a>
</g>
</g>
<!-- Node14&#45;&gt;Node17 -->
<g id="edge17" class="edge"><title>Node14&#45;&gt;Node17</title>
<path fill="none" stroke="midnightblue" d="M233.876,-76.4949C246.047,-73.4502 259.59,-70.0724 272,-67 281.282,-64.702 291.192,-62.262 300.718,-59.9235"/>
<polygon fill="midnightblue" stroke="midnightblue" points="301.584,-63.3149 310.463,-57.5336 299.917,-56.5164 301.584,-63.3149"/>
</g>
<!-- Node18 -->
<g id="node18" class="node"><title>Node18</title>
<g id="a_node18"><a xlink:href="mpi__dummy_8F90.html#a47f146895b36dc21100a1c42d343762c" target="_top" xlink:title="mpi_reduce_real">
<polygon fill="white" stroke="black" points="303,-0.5 303,-19.5 398,-19.5 398,-0.5 303,-0.5"/>
<text text-anchor="middle" x="350.5" y="-7.5" font-family="Helvetica,sans-Serif" font-size="10.00">mpi_reduce_real</text>
</a>
</g>
</g>
<!-- Node14&#45;&gt;Node18 -->
<g id="edge18" class="edge"><title>Node14&#45;&gt;Node18</title>
<path fill="none" stroke="midnightblue" d="M205.94,-76.4171C219.679,-63.7011 245.761,-41.4155 272,-29 278.629,-25.8633 285.83,-23.2115 293.084,-20.978"/>
<polygon fill="midnightblue" stroke="midnightblue" points="294.288,-24.2747 302.959,-18.1855 292.384,-17.5388 294.288,-24.2747"/>
</g>
</g>
</svg>
