<?xml version="1.0" encoding="UTF-8" standalone="no"?>
<!DOCTYPE svg PUBLIC "-//W3C//DTD SVG 1.1//EN"
 "http://www.w3.org/Graphics/SVG/1.1/DTD/svg11.dtd">
<!-- Generated by graphviz version 2.38.0 (20140413.2041)
 -->
<!-- Title: iswap Pages: 1 -->
<svg width="316pt" height="28pt"
 viewBox="0.00 0.00 316.00 28.00" xmlns="http://www.w3.org/2000/svg" xmlns:xlink="http://www.w3.org/1999/xlink">
<g id="graph0" class="graph" transform="scale(1 1) rotate(0) translate(4 24)">
<title>iswap</title>
<polygon fill="white" stroke="none" points="-4,4 -4,-24 312,-24 312,4 -4,4"/>
<!-- Node1 -->
<g id="node1" class="node"><title>Node1</title>
<polygon fill="#bfbfbf" stroke="black" points="0,-0.5 0,-19.5 44,-19.5 44,-0.5 0,-0.5"/>
<text text-anchor="middle" x="22" y="-7.5" font-family="Helvetica,sans-Serif" font-size="10.00">iswap</text>
</g>
<!-- Node2 -->
<g id="node2" class="node"><title>Node2</title>
<g id="a_node2"><a xlink:href="drive2_8F90.html#ae3e6cc31f5e6b6b2b5062d80ca77519f" target="_top" xlink:title="init opcounter ">
<polygon fill="white" stroke="black" points="80,-0.5 80,-19.5 134,-19.5 134,-0.5 80,-0.5"/>
<text text-anchor="middle" x="107" y="-7.5" font-family="Helvetica,sans-Serif" font-size="10.00">opcount</text>
</a>
</g>
</g>
<!-- Node1&#45;&gt;Node2 -->
<g id="edge1" class="edge"><title>Node1&#45;&gt;Node2</title>
<path fill="none" stroke="midnightblue" d="M54.5721,-10C62.9529,-10 71.9076,-10 79.9571,-10"/>
<polygon fill="midnightblue" stroke="midnightblue" points="54.3746,-6.5001 44.3746,-10 54.3745,-13.5001 54.3746,-6.5001"/>
</g>
<!-- Node3 -->
<g id="node3" class="node"><title>Node3</title>
<g id="a_node3"><a xlink:href="drive1_8F90.html#a87bd37ae2c18426f28f35cc3f24e4355" target="_top" xlink:title="initialize nek ">
<polygon fill="white" stroke="black" points="170,-0.5 170,-19.5 223,-19.5 223,-0.5 170,-0.5"/>
<text text-anchor="middle" x="196.5" y="-7.5" font-family="Helvetica,sans-Serif" font-size="10.00">nek_init</text>
</a>
</g>
</g>
<!-- Node2&#45;&gt;Node3 -->
<g id="edge2" class="edge"><title>Node2&#45;&gt;Node3</title>
<path fill="none" stroke="midnightblue" d="M144.405,-10C152.96,-10 161.901,-10 169.868,-10"/>
<polygon fill="midnightblue" stroke="midnightblue" points="144.253,-6.5001 134.253,-10 144.253,-13.5001 144.253,-6.5001"/>
</g>
<!-- Node4 -->
<g id="node4" class="node"><title>Node4</title>
<g id="a_node4"><a xlink:href="drive_8F90.html#a13048bf28dd0734640412d69349e3857" target="_top" xlink:title="NEK5000: Spectral Element Computational Fluid Dynamics Solver COPYRIGHT (c) 2008&#45;2010 UCHICAGO ARGONN...">
<polygon fill="white" stroke="black" points="259,-0.5 259,-19.5 308,-19.5 308,-0.5 259,-0.5"/>
<text text-anchor="middle" x="283.5" y="-7.5" font-family="Helvetica,sans-Serif" font-size="10.00">nekton</text>
</a>
</g>
</g>
<!-- Node3&#45;&gt;Node4 -->
<g id="edge3" class="edge"><title>Node3&#45;&gt;Node4</title>
<path fill="none" stroke="midnightblue" d="M233.227,-10C241.846,-10 250.845,-10 258.759,-10"/>
<polygon fill="midnightblue" stroke="midnightblue" points="233.003,-6.5001 223.003,-10 233.003,-13.5001 233.003,-6.5001"/>
</g>
</g>
</svg>
