<?xml version="1.0" encoding="UTF-8" standalone="no"?>
<!DOCTYPE svg PUBLIC "-//W3C//DTD SVG 1.1//EN"
 "http://www.w3.org/Graphics/SVG/1.1/DTD/svg11.dtd">
<!-- Generated by graphviz version 2.38.0 (20140413.2041)
 -->
<!-- Title: vcross Pages: 1 -->
<svg width="997pt" height="189pt"
 viewBox="0.00 0.00 997.00 189.00" xmlns="http://www.w3.org/2000/svg" xmlns:xlink="http://www.w3.org/1999/xlink">
<g id="graph0" class="graph" transform="scale(1 1) rotate(0) translate(4 185)">
<title>vcross</title>
<polygon fill="white" stroke="none" points="-4,4 -4,-185 993,-185 993,4 -4,4"/>
<!-- Node1 -->
<g id="node1" class="node"><title>Node1</title>
<polygon fill="#bfbfbf" stroke="black" points="0,-102.5 0,-121.5 47,-121.5 47,-102.5 0,-102.5"/>
<text text-anchor="middle" x="23.5" y="-109.5" font-family="Helvetica,sans-Serif" font-size="10.00">vcross</text>
</g>
<!-- Node2 -->
<g id="node2" class="node"><title>Node2</title>
<g id="a_node2"><a xlink:href="coef_8F90.html#a57986e9c59c455dd25fd8629a418129f" target="_top" xlink:title="Compute areas, normals and tangents (3D geom.) ">
<polygon fill="white" stroke="black" points="83,-102.5 83,-121.5 127,-121.5 127,-102.5 83,-102.5"/>
<text text-anchor="middle" x="105" y="-109.5" font-family="Helvetica,sans-Serif" font-size="10.00">area3</text>
</a>
</g>
</g>
<!-- Node1&#45;&gt;Node2 -->
<g id="edge1" class="edge"><title>Node1&#45;&gt;Node2</title>
<path fill="none" stroke="midnightblue" d="M57.2338,-112C65.8446,-112 74.9091,-112 82.7412,-112"/>
<polygon fill="midnightblue" stroke="midnightblue" points="57.0689,-108.5 47.0689,-112 57.0688,-115.5 57.0689,-108.5"/>
</g>
<!-- Node3 -->
<g id="node3" class="node"><title>Node3</title>
<g id="a_node3"><a xlink:href="coef_8F90.html#ad0edecd83b00a60747feebca43d34efc" target="_top" xlink:title="Compute surface data: areas, normals and tangents. ">
<polygon fill="white" stroke="black" points="163,-102.5 163,-121.5 216,-121.5 216,-102.5 163,-102.5"/>
<text text-anchor="middle" x="189.5" y="-109.5" font-family="Helvetica,sans-Serif" font-size="10.00">setarea</text>
</a>
</g>
</g>
<!-- Node2&#45;&gt;Node3 -->
<g id="edge2" class="edge"><title>Node2&#45;&gt;Node3</title>
<path fill="none" stroke="midnightblue" d="M137.475,-112C145.884,-112 154.867,-112 162.916,-112"/>
<polygon fill="midnightblue" stroke="midnightblue" points="137.246,-108.5 127.246,-112 137.246,-115.5 137.246,-108.5"/>
</g>
<!-- Node4 -->
<g id="node4" class="node"><title>Node4</title>
<g id="a_node4"><a xlink:href="coef_8F90.html#a545a18fbdd13baf1464557808347be47" target="_top" xlink:title="Routine to generate elemental geometric matrices on mesh 1 (Gauss&#45;Legendre Lobatto mesh)...">
<polygon fill="white" stroke="black" points="252,-102.5 252,-121.5 308,-121.5 308,-102.5 252,-102.5"/>
<text text-anchor="middle" x="280" y="-109.5" font-family="Helvetica,sans-Serif" font-size="10.00">geodat1</text>
</a>
</g>
</g>
<!-- Node3&#45;&gt;Node4 -->
<g id="edge3" class="edge"><title>Node3&#45;&gt;Node4</title>
<path fill="none" stroke="midnightblue" d="M226.238,-112C234.806,-112 243.816,-112 251.917,-112"/>
<polygon fill="midnightblue" stroke="midnightblue" points="226.098,-108.5 216.098,-112 226.098,-115.5 226.098,-108.5"/>
</g>
<!-- Node5 -->
<g id="node5" class="node"><title>Node5</title>
<g id="a_node5"><a xlink:href="coef_8F90.html#ac5d2ac0efba4a530fab5387321307d01" target="_top" xlink:title="Routine to generate all elemental geometric data for mesh 1. Velocity formulation : global&#45;to&#45;local m...">
<polygon fill="white" stroke="black" points="344,-102.5 344,-121.5 393,-121.5 393,-102.5 344,-102.5"/>
<text text-anchor="middle" x="368.5" y="-109.5" font-family="Helvetica,sans-Serif" font-size="10.00">geom1</text>
</a>
</g>
</g>
<!-- Node4&#45;&gt;Node5 -->
<g id="edge4" class="edge"><title>Node4&#45;&gt;Node5</title>
<path fill="none" stroke="midnightblue" d="M318.576,-112C327.143,-112 336.011,-112 343.806,-112"/>
<polygon fill="midnightblue" stroke="midnightblue" points="318.369,-108.5 308.369,-112 318.369,-115.5 318.369,-108.5"/>
</g>
<!-- Node6 -->
<g id="node6" class="node"><title>Node6</title>
<g id="a_node6"><a xlink:href="drive2_8F90.html#aefc07385d7e7539fb57662470f694136" target="_top" xlink:title="Generate geometry data. ">
<polygon fill="white" stroke="black" points="435,-123.5 435,-142.5 496,-142.5 496,-123.5 435,-123.5"/>
<text text-anchor="middle" x="465.5" y="-130.5" font-family="Helvetica,sans-Serif" font-size="10.00">gengeom</text>
</a>
</g>
</g>
<!-- Node5&#45;&gt;Node6 -->
<g id="edge5" class="edge"><title>Node5&#45;&gt;Node6</title>
<path fill="none" stroke="midnightblue" d="M403.34,-119.481C413.597,-121.748 424.783,-124.22 434.751,-126.424"/>
<polygon fill="midnightblue" stroke="midnightblue" points="403.992,-116.04 393.473,-117.299 402.481,-122.875 403.992,-116.04"/>
</g>
<!-- Node12 -->
<g id="node12" class="node"><title>Node12</title>
<g id="a_node12"><a xlink:href="ic_8F90.html#aaf47b255d1cfac3451a8473ee6876b4f" target="_top" xlink:title="Generate geometry data. ">
<polygon fill="white" stroke="black" points="429,-61.5 429,-80.5 502,-80.5 502,-61.5 429,-61.5"/>
<text text-anchor="middle" x="465.5" y="-68.5" font-family="Helvetica,sans-Serif" font-size="10.00">geom_reset</text>
</a>
</g>
</g>
<!-- Node5&#45;&gt;Node12 -->
<g id="edge12" class="edge"><title>Node5&#45;&gt;Node12</title>
<path fill="none" stroke="midnightblue" d="M400.957,-98.424C414.475,-92.5896 429.959,-85.9073 442.257,-80.5997"/>
<polygon fill="midnightblue" stroke="midnightblue" points="399.328,-95.3147 391.534,-102.491 402.102,-101.742 399.328,-95.3147"/>
</g>
<!-- Node7 -->
<g id="node7" class="node"><title>Node7</title>
<g id="a_node7"><a xlink:href="drive1_8F90.html#ae177ea7efac97f35241521b782a671c0" target="_top" xlink:title="take a single time&#45;step ">
<polygon fill="white" stroke="black" points="556,-161.5 556,-180.5 636,-180.5 636,-161.5 556,-161.5"/>
<text text-anchor="middle" x="596" y="-168.5" font-family="Helvetica,sans-Serif" font-size="10.00">nek_advance</text>
</a>
</g>
</g>
<!-- Node6&#45;&gt;Node7 -->
<g id="edge6" class="edge"><title>Node6&#45;&gt;Node7</title>
<path fill="none" stroke="midnightblue" d="M506.029,-144.689C524.193,-150.061 545.467,-156.352 562.657,-161.436"/>
<polygon fill="midnightblue" stroke="midnightblue" points="506.886,-141.293 496.303,-141.813 504.9,-148.006 506.886,-141.293"/>
</g>
<!-- Node11 -->
<g id="node11" class="node"><title>Node11</title>
<g id="a_node11"><a xlink:href="drive1_8F90.html#a87bd37ae2c18426f28f35cc3f24e4355" target="_top" xlink:title="initialize nek ">
<polygon fill="white" stroke="black" points="845,-85.5 845,-104.5 898,-104.5 898,-85.5 845,-85.5"/>
<text text-anchor="middle" x="871.5" y="-92.5" font-family="Helvetica,sans-Serif" font-size="10.00">nek_init</text>
</a>
</g>
</g>
<!-- Node6&#45;&gt;Node11 -->
<g id="edge10" class="edge"><title>Node6&#45;&gt;Node11</title>
<path fill="none" stroke="midnightblue" d="M506.512,-129.463C569.572,-123.856 695.921,-112.484 803,-102 816.836,-100.645 832.258,-99.0522 844.865,-97.7283"/>
<polygon fill="midnightblue" stroke="midnightblue" points="505.871,-126.007 496.22,-130.377 506.49,-132.979 505.871,-126.007"/>
</g>
<!-- Node8 -->
<g id="node8" class="node"><title>Node8</title>
<g id="a_node8"><a xlink:href="drive1_8F90.html#a18d3e839786263fc4cf91f7eeb714371" target="_top" xlink:title="take a chunk of time&#45;steps ">
<polygon fill="white" stroke="black" points="690,-161.5 690,-180.5 803,-180.5 803,-161.5 690,-161.5"/>
<text text-anchor="middle" x="746.5" y="-168.5" font-family="Helvetica,sans-Serif" font-size="10.00">nek__multi_advance</text>
</a>
</g>
</g>
<!-- Node7&#45;&gt;Node8 -->
<g id="edge7" class="edge"><title>Node7&#45;&gt;Node8</title>
<path fill="none" stroke="midnightblue" d="M646.406,-171C660.382,-171 675.684,-171 689.993,-171"/>
<polygon fill="midnightblue" stroke="midnightblue" points="646.017,-167.5 636.017,-171 646.017,-174.5 646.017,-167.5"/>
</g>
<!-- Node9 -->
<g id="node9" class="node"><title>Node9</title>
<g id="a_node9"><a xlink:href="drive1_8F90.html#a6ad57e0cf728f343e371ef8c9a02cd8a" target="_top" xlink:title="integrate the governing equations in time ">
<polygon fill="white" stroke="black" points="839,-142.5 839,-161.5 904,-161.5 904,-142.5 839,-142.5"/>
<text text-anchor="middle" x="871.5" y="-149.5" font-family="Helvetica,sans-Serif" font-size="10.00">nek_solve</text>
</a>
</g>
</g>
<!-- Node8&#45;&gt;Node9 -->
<g id="edge8" class="edge"><title>Node8&#45;&gt;Node9</title>
<path fill="none" stroke="midnightblue" d="M813.282,-160.839C822.164,-159.466 830.927,-158.113 838.824,-156.893"/>
<polygon fill="midnightblue" stroke="midnightblue" points="812.59,-157.404 803.242,-162.389 813.659,-164.322 812.59,-157.404"/>
</g>
<!-- Node10 -->
<g id="node10" class="node"><title>Node10</title>
<g id="a_node10"><a xlink:href="drive_8F90.html#a13048bf28dd0734640412d69349e3857" target="_top" xlink:title="NEK5000: Spectral Element Computational Fluid Dynamics Solver COPYRIGHT (c) 2008&#45;2010 UCHICAGO ARGONN...">
<polygon fill="white" stroke="black" points="940,-113.5 940,-132.5 989,-132.5 989,-113.5 940,-113.5"/>
<text text-anchor="middle" x="964.5" y="-120.5" font-family="Helvetica,sans-Serif" font-size="10.00">nekton</text>
</a>
</g>
</g>
<!-- Node9&#45;&gt;Node10 -->
<g id="edge9" class="edge"><title>Node9&#45;&gt;Node10</title>
<path fill="none" stroke="midnightblue" d="M912.18,-139.355C921.606,-136.351 931.371,-133.239 939.82,-130.546"/>
<polygon fill="midnightblue" stroke="midnightblue" points="911.014,-136.053 902.549,-142.424 913.14,-142.722 911.014,-136.053"/>
</g>
<!-- Node11&#45;&gt;Node10 -->
<g id="edge11" class="edge"><title>Node11&#45;&gt;Node10</title>
<path fill="none" stroke="midnightblue" d="M908.191,-105.982C918.794,-109.244 930.143,-112.736 939.784,-115.703"/>
<polygon fill="midnightblue" stroke="midnightblue" points="908.921,-102.544 898.334,-102.949 906.862,-109.235 908.921,-102.544"/>
</g>
<!-- Node12&#45;&gt;Node11 -->
<g id="edge16" class="edge"><title>Node12&#45;&gt;Node11</title>
<path fill="none" stroke="midnightblue" d="M512.528,-73.7343C597.931,-78.8078 778.295,-89.5225 844.998,-93.485"/>
<polygon fill="midnightblue" stroke="midnightblue" points="512.542,-70.2291 502.352,-73.1298 512.127,-77.2168 512.542,-70.2291"/>
</g>
<!-- Node13 -->
<g id="node13" class="node"><title>Node13</title>
<g id="a_node13"><a xlink:href="classhsmg__routines.html#a91e8aa59d56bbf05d75aa9c48bcd8977" target="_top" xlink:title="Sets up Poisson preconditioner. ">
<polygon fill="white" stroke="black" points="538,-36 538,-66 654,-66 654,-36 538,-36"/>
<text text-anchor="start" x="546" y="-54" font-family="Helvetica,sans-Serif" font-size="10.00">hsmg_routines::h1mg</text>
<text text-anchor="middle" x="596" y="-43" font-family="Helvetica,sans-Serif" font-size="10.00">_setup</text>
</a>
</g>
</g>
<!-- Node12&#45;&gt;Node13 -->
<g id="edge13" class="edge"><title>Node12&#45;&gt;Node13</title>
<path fill="none" stroke="midnightblue" d="M512.406,-63.8551C520.608,-62.5785 529.246,-61.2341 537.72,-59.9152"/>
<polygon fill="midnightblue" stroke="midnightblue" points="511.637,-60.4325 502.294,-65.4289 512.714,-67.3493 511.637,-60.4325"/>
</g>
<!-- Node15 -->
<g id="node15" class="node"><title>Node15</title>
<g id="a_node15"><a xlink:href="ic_8F90.html#acaefa33e86633e4a7a4b28347d4620d1" target="_top" xlink:title="Set initial conditions. ">
<polygon fill="white" stroke="black" points="724.5,-0.5 724.5,-19.5 768.5,-19.5 768.5,-0.5 724.5,-0.5"/>
<text text-anchor="middle" x="746.5" y="-7.5" font-family="Helvetica,sans-Serif" font-size="10.00">setics</text>
</a>
</g>
</g>
<!-- Node12&#45;&gt;Node15 -->
<g id="edge17" class="edge"><title>Node12&#45;&gt;Node15</title>
<path fill="none" stroke="midnightblue" d="M485.876,-55.1398C499.559,-44.9003 518.809,-32.3458 538,-26 603.179,-4.44782 685.907,-6.07368 724.232,-8.34453"/>
<polygon fill="midnightblue" stroke="midnightblue" points="483.502,-52.5519 477.744,-61.4458 487.792,-58.0835 483.502,-52.5519"/>
</g>
<!-- Node14 -->
<g id="node14" class="node"><title>Node14</title>
<g id="a_node14"><a xlink:href="navier6_8F90.html#a45317b1def173b8f1db2e5083595d095" target="_top" xlink:title="Set up arrays for overlapping Schwartz algorithm for pressure solver ">
<polygon fill="white" stroke="black" points="710.5,-44.5 710.5,-63.5 782.5,-63.5 782.5,-44.5 710.5,-44.5"/>
<text text-anchor="middle" x="746.5" y="-51.5" font-family="Helvetica,sans-Serif" font-size="10.00">set_overlap</text>
</a>
</g>
</g>
<!-- Node13&#45;&gt;Node14 -->
<g id="edge14" class="edge"><title>Node13&#45;&gt;Node14</title>
<path fill="none" stroke="midnightblue" d="M664.65,-52.3667C680.359,-52.684 696.466,-53.0094 710.127,-53.2854"/>
<polygon fill="midnightblue" stroke="midnightblue" points="664.483,-48.8627 654.414,-52.1599 664.341,-55.8612 664.483,-48.8627"/>
</g>
<!-- Node14&#45;&gt;Node11 -->
<g id="edge15" class="edge"><title>Node14&#45;&gt;Node11</title>
<path fill="none" stroke="midnightblue" d="M785.676,-66.7254C804.837,-73.1124 827.544,-80.6813 844.64,-86.3801"/>
<polygon fill="midnightblue" stroke="midnightblue" points="786.621,-63.3512 776.028,-63.5093 784.408,-69.992 786.621,-63.3512"/>
</g>
<!-- Node15&#45;&gt;Node11 -->
<g id="edge18" class="edge"><title>Node15&#45;&gt;Node11</title>
<path fill="none" stroke="midnightblue" d="M777.776,-21.6461C786.216,-25.4174 795.203,-29.9479 803,-35 826.159,-50.0058 849.379,-72.738 861.629,-85.4802"/>
<polygon fill="midnightblue" stroke="midnightblue" points="779.143,-18.4242 768.571,-17.7234 776.398,-24.8638 779.143,-18.4242"/>
</g>
</g>
</svg>
