<?xml version="1.0" encoding="UTF-8" standalone="no"?>
<!DOCTYPE svg PUBLIC "-//W3C//DTD SVG 1.1//EN"
 "http://www.w3.org/Graphics/SVG/1.1/DTD/svg11.dtd">
<!-- Generated by graphviz version 2.38.0 (20140413.2041)
 -->
<!-- Title: isort Pages: 1 -->
<!--zoomable 142 -->
<svg id="main" version="1.1" xmlns="http://www.w3.org/2000/svg" xmlns:xlink="http://www.w3.org/1999/xlink" xml:space="preserve" onload="init(evt)">
<style type="text/css"><![CDATA[
.edge:hover path { stroke: red; }
.edge:hover polygon { stroke: red; fill: red; }
]]></style>
<script type="text/javascript"><![CDATA[
var edges = document.getElementsByTagName('g');
if (edges && edges.length) {
  for (var i=0;i<edges.length;i++) {
    if (edges[i].id.substr(0,4)=='edge') {
      edges[i].setAttribute('class','edge');
    }
  }
}
]]></script>
        <defs>
                <circle id="rim" cx="0" cy="0" r="7"/>
                <circle id="rim2" cx="0" cy="0" r="3.5"/>
                <g id="zoomPlus">
                        <use xlink:href="#rim" fill="#404040">
                                <set attributeName="fill" to="#808080" begin="zoomplus.mouseover" end="zoomplus.mouseout"/>
                        </use>
                        <path d="M-4,0h8M0,-4v8" fill="none" stroke="white" stroke-width="1.5" pointer-events="none"/>
                </g>
                <g id="zoomMin">
                        <use xlink:href="#rim" fill="#404040">
                                <set attributeName="fill" to="#808080" begin="zoomminus.mouseover" end="zoomminus.mouseout"/>
                        </use>
                        <path d="M-4,0h8" fill="none" stroke="white" stroke-width="1.5" pointer-events="none"/>
                </g>
                <g id="dirArrow">
                        <path fill="none" stroke="white" stroke-width="1.5" d="M0,-3.0v7 M-2.5,-0.5L0,-3.0L2.5,-0.5"/>
                </g>
               <g id="resetDef">
                       <use xlink:href="#rim2" fill="#404040">
                               <set attributeName="fill" to="#808080" begin="reset.mouseover" end="reset.mouseout"/>
                       </use>
               </g>
        </defs>

<script type="text/javascript">
var viewWidth = 958;
var viewHeight = 142;
var sectionId = 'dynsection-20';
</script>
<script xlink:href="svgpan.js"/>
<svg id="graph" class="graph">
<g id="viewport">
<title>isort</title>
<polygon fill="white" stroke="none" points="-4,4 -4,-138.405 954,-138.405 954,4 -4,4"/>
<!-- Node1 -->
<g id="node1" class="node"><title>Node1</title>
<polygon fill="#bfbfbf" stroke="black" points="0,-53.0367 0,-72.0367 37,-72.0367 37,-53.0367 0,-53.0367"/>
<text text-anchor="middle" x="18.5" y="-60.0367" font-family="Helvetica,sans-Serif" font-size="10.00">isort</text>
</g>
<!-- Node2 -->
<g id="node2" class="node"><title>Node2</title>
<g id="a_node2"><a xlink:href="navier8_8F90.html#a8beadce5e829399452ec13a7ac6b4633" target="_top" xlink:title="assign_gllnid">
<polygon fill="white" stroke="black" points="73,-72.0367 73,-91.0367 151,-91.0367 151,-72.0367 73,-72.0367"/>
<text text-anchor="middle" x="112" y="-79.0367" font-family="Helvetica,sans-Serif" font-size="10.00">assign_gllnid</text>
</a>
</g>
</g>
<!-- Node1&#45;&gt;Node2 -->
<g id="edge1" class="edge"><title>Node1&#45;&gt;Node2</title>
<path fill="none" stroke="midnightblue" d="M47.1821,-68.285C55.2974,-69.9701 64.3164,-71.8429 72.9576,-73.6372"/>
<polygon fill="midnightblue" stroke="midnightblue" points="47.6449,-64.8064 37.1421,-66.2001 46.2216,-71.6602 47.6449,-64.8064"/>
</g>
<!-- Node3 -->
<g id="node3" class="node"><title>Node3</title>
<g id="a_node3"><a xlink:href="navier8_8F90.html#a928aff746415692c89ffdfbaf08fd98d" target="_top" xlink:title="setup unique ids for dssum. note: total number of unique vertices, edges and faces has to be smaller ...">
<polygon fill="white" stroke="black" points="81.5,-34.0367 81.5,-53.0367 142.5,-53.0367 142.5,-34.0367 81.5,-34.0367"/>
<text text-anchor="middle" x="112" y="-41.0367" font-family="Helvetica,sans-Serif" font-size="10.00">setvert3d</text>
</a>
</g>
</g>
<!-- Node1&#45;&gt;Node3 -->
<g id="edge2" class="edge"><title>Node1&#45;&gt;Node3</title>
<path fill="none" stroke="midnightblue" d="M47.2324,-56.7781C57.956,-54.5514 70.2514,-51.9982 81.1661,-49.7318"/>
<polygon fill="midnightblue" stroke="midnightblue" points="46.2216,-53.4132 37.1421,-58.8734 47.6449,-60.267 46.2216,-53.4132"/>
</g>
<!-- Node4 -->
<g id="node4" class="node"><title>Node4</title>
<g id="a_node4"><a xlink:href="navier8_8F90.html#a51b2c2d951e069b7ffa9a395b2def117" target="_top" xlink:title="Given global array, vertex, pointing to hex vertices, set up a new array of global pointers for an nx...">
<polygon fill="white" stroke="black" points="187,-34.0367 187,-53.0367 242,-53.0367 242,-34.0367 187,-34.0367"/>
<text text-anchor="middle" x="214.5" y="-41.0367" font-family="Helvetica,sans-Serif" font-size="10.00">set_vert</text>
</a>
</g>
</g>
<!-- Node3&#45;&gt;Node4 -->
<g id="edge3" class="edge"><title>Node3&#45;&gt;Node4</title>
<path fill="none" stroke="midnightblue" d="M152.817,-43.5367C164.24,-43.5367 176.416,-43.5367 186.84,-43.5367"/>
<polygon fill="midnightblue" stroke="midnightblue" points="152.61,-40.0368 142.61,-43.5367 152.61,-47.0368 152.61,-40.0368"/>
</g>
<!-- Node5 -->
<g id="node5" class="node"><title>Node5</title>
<g id="a_node5"><a xlink:href="dssum_8F90.html#ac67af3a4cc3a2c90a8d596c8ab69e395" target="_top" xlink:title="setup data structures for direct stiffness operations ">
<polygon fill="white" stroke="black" points="294.5,-55.0367 294.5,-74.0367 347.5,-74.0367 347.5,-55.0367 294.5,-55.0367"/>
<text text-anchor="middle" x="321" y="-62.0367" font-family="Helvetica,sans-Serif" font-size="10.00">setupds</text>
</a>
</g>
</g>
<!-- Node4&#45;&gt;Node5 -->
<g id="edge4" class="edge"><title>Node4&#45;&gt;Node5</title>
<path fill="none" stroke="midnightblue" d="M251.992,-50.87C266.017,-53.6885 281.713,-56.8428 294.49,-59.4103"/>
<polygon fill="midnightblue" stroke="midnightblue" points="252.634,-47.4291 242.14,-48.8903 251.255,-54.2919 252.634,-47.4291"/>
</g>
<!-- Node14 -->
<g id="node14" class="node"><title>Node14</title>
<g id="a_node14"><a xlink:href="navier8_8F90.html#a809b9aa647f2046d09131be2f6074ff6" target="_top" xlink:title="? ">
<polygon fill="white" stroke="black" points="278,-14.0367 278,-33.0367 364,-33.0367 364,-14.0367 278,-14.0367"/>
<text text-anchor="middle" x="321" y="-21.0367" font-family="Helvetica,sans-Serif" font-size="10.00">set_up_h1_crs</text>
</a>
</g>
</g>
<!-- Node4&#45;&gt;Node14 -->
<g id="edge15" class="edge"><title>Node4&#45;&gt;Node14</title>
<path fill="none" stroke="midnightblue" d="M252.007,-36.5498C260.393,-34.9448 269.375,-33.2257 277.973,-31.5801"/>
<polygon fill="midnightblue" stroke="midnightblue" points="251.304,-33.1207 242.14,-38.4382 252.62,-39.9959 251.304,-33.1207"/>
</g>
<!-- Node6 -->
<g id="node6" class="node"><title>Node6</title>
<g id="a_node6"><a xlink:href="classhsmg__routines.html#ae77d2725d2058f12595e58c677dca8f2" target="_top" xlink:title="hsmg_routines::h1mg\l_setup_dssum">
<polygon fill="white" stroke="black" points="400,-74.5367 400,-104.537 516,-104.537 516,-74.5367 400,-74.5367"/>
<text text-anchor="start" x="408" y="-92.5367" font-family="Helvetica,sans-Serif" font-size="10.00">hsmg_routines::h1mg</text>
<text text-anchor="middle" x="458" y="-81.5367" font-family="Helvetica,sans-Serif" font-size="10.00">_setup_dssum</text>
</a>
</g>
</g>
<!-- Node5&#45;&gt;Node6 -->
<g id="edge5" class="edge"><title>Node5&#45;&gt;Node6</title>
<path fill="none" stroke="midnightblue" d="M357.59,-71.1275C370.514,-73.5209 385.466,-76.2897 399.785,-78.9414"/>
<polygon fill="midnightblue" stroke="midnightblue" points="358.18,-67.6774 347.71,-69.2979 356.906,-74.5604 358.18,-67.6774"/>
</g>
<!-- Node11 -->
<g id="node11" class="node"><title>Node11</title>
<g id="a_node11"><a xlink:href="classhsmg__routines.html#ac8ad367a9256351c66da876bb6c8d936" target="_top" xlink:title="hsmg_routines::hsmg\l_setup_dssum">
<polygon fill="white" stroke="black" points="400,-25.5367 400,-55.5367 516,-55.5367 516,-25.5367 400,-25.5367"/>
<text text-anchor="start" x="408" y="-43.5367" font-family="Helvetica,sans-Serif" font-size="10.00">hsmg_routines::hsmg</text>
<text text-anchor="middle" x="458" y="-32.5367" font-family="Helvetica,sans-Serif" font-size="10.00">_setup_dssum</text>
</a>
</g>
</g>
<!-- Node5&#45;&gt;Node11 -->
<g id="edge10" class="edge"><title>Node5&#45;&gt;Node11</title>
<path fill="none" stroke="midnightblue" d="M357.59,-58.2097C370.514,-55.912 385.466,-53.2539 399.785,-50.7082"/>
<polygon fill="midnightblue" stroke="midnightblue" points="356.943,-54.7697 347.71,-59.966 358.169,-61.6616 356.943,-54.7697"/>
</g>
<!-- Node13 -->
<g id="node13" class="node"><title>Node13</title>
<g id="a_node13"><a xlink:href="connect1_8F90.html#ad619b0e5766c6f9dd44ae5c8b6f485f0" target="_top" xlink:title="Parallel compatible routine to find connectivity of element structure. On Processor 0: ...">
<polygon fill="white" stroke="black" points="705.5,-110.037 705.5,-129.037 774.5,-129.037 774.5,-110.037 705.5,-110.037"/>
<text text-anchor="middle" x="740" y="-117.037" font-family="Helvetica,sans-Serif" font-size="10.00">setup_topo</text>
</a>
</g>
</g>
<!-- Node5&#45;&gt;Node13 -->
<g id="edge13" class="edge"><title>Node5&#45;&gt;Node13</title>
<path fill="none" stroke="midnightblue" d="M341.12,-80.7474C356.074,-92.329 377.962,-106.977 400,-113.537 507.757,-145.611 643.427,-133.164 705.375,-124.776"/>
<polygon fill="midnightblue" stroke="midnightblue" points="343.158,-77.895 333.167,-74.3669 338.777,-83.3549 343.158,-77.895"/>
</g>
<!-- Node7 -->
<g id="node7" class="node"><title>Node7</title>
<g id="a_node7"><a xlink:href="classhsmg__routines.html#a91e8aa59d56bbf05d75aa9c48bcd8977" target="_top" xlink:title="Sets up Poisson preconditioner. ">
<polygon fill="white" stroke="black" points="552,-74.5367 552,-104.537 668,-104.537 668,-74.5367 552,-74.5367"/>
<text text-anchor="start" x="560" y="-92.5367" font-family="Helvetica,sans-Serif" font-size="10.00">hsmg_routines::h1mg</text>
<text text-anchor="middle" x="610" y="-81.5367" font-family="Helvetica,sans-Serif" font-size="10.00">_setup</text>
</a>
</g>
</g>
<!-- Node6&#45;&gt;Node7 -->
<g id="edge6" class="edge"><title>Node6&#45;&gt;Node7</title>
<path fill="none" stroke="midnightblue" d="M526.311,-89.5367C534.728,-89.5367 543.277,-89.5367 551.525,-89.5367"/>
<polygon fill="midnightblue" stroke="midnightblue" points="526.137,-86.0368 516.136,-89.5367 526.136,-93.0368 526.137,-86.0368"/>
</g>
<!-- Node8 -->
<g id="node8" class="node"><title>Node8</title>
<g id="a_node8"><a xlink:href="navier6_8F90.html#a45317b1def173b8f1db2e5083595d095" target="_top" xlink:title="Set up arrays for overlapping Schwartz algorithm for pressure solver ">
<polygon fill="white" stroke="black" points="704,-45.0367 704,-64.0367 776,-64.0367 776,-45.0367 704,-45.0367"/>
<text text-anchor="middle" x="740" y="-52.0367" font-family="Helvetica,sans-Serif" font-size="10.00">set_overlap</text>
</a>
</g>
</g>
<!-- Node7&#45;&gt;Node8 -->
<g id="edge7" class="edge"><title>Node7&#45;&gt;Node8</title>
<path fill="none" stroke="midnightblue" d="M675.741,-71.8341C685.482,-69.1706 695.2,-66.5134 703.992,-64.1093"/>
<polygon fill="midnightblue" stroke="midnightblue" points="674.749,-68.4768 666.026,-74.4905 676.595,-75.2289 674.749,-68.4768"/>
</g>
<!-- Node9 -->
<g id="node9" class="node"><title>Node9</title>
<g id="a_node9"><a xlink:href="drive1_8F90.html#a87bd37ae2c18426f28f35cc3f24e4355" target="_top" xlink:title="initialize nek ">
<polygon fill="white" stroke="black" points="812,-77.0367 812,-96.0367 865,-96.0367 865,-77.0367 812,-77.0367"/>
<text text-anchor="middle" x="838.5" y="-84.0367" font-family="Helvetica,sans-Serif" font-size="10.00">nek_init</text>
</a>
</g>
</g>
<!-- Node8&#45;&gt;Node9 -->
<g id="edge8" class="edge"><title>Node8&#45;&gt;Node9</title>
<path fill="none" stroke="midnightblue" d="M779.396,-67.2691C790.248,-70.8676 801.794,-74.6965 811.711,-77.985"/>
<polygon fill="midnightblue" stroke="midnightblue" points="780.285,-63.8766 769.692,-64.0512 778.082,-70.5209 780.285,-63.8766"/>
</g>
<!-- Node10 -->
<g id="node10" class="node"><title>Node10</title>
<g id="a_node10"><a xlink:href="drive_8F90.html#a13048bf28dd0734640412d69349e3857" target="_top" xlink:title="NEK5000: Spectral Element Computational Fluid Dynamics Solver COPYRIGHT (c) 2008&#45;2010 UCHICAGO ARGONN...">
<polygon fill="white" stroke="black" points="901,-77.0367 901,-96.0367 950,-96.0367 950,-77.0367 901,-77.0367"/>
<text text-anchor="middle" x="925.5" y="-84.0367" font-family="Helvetica,sans-Serif" font-size="10.00">nekton</text>
</a>
</g>
</g>
<!-- Node9&#45;&gt;Node10 -->
<g id="edge9" class="edge"><title>Node9&#45;&gt;Node10</title>
<path fill="none" stroke="midnightblue" d="M875.227,-86.5367C883.846,-86.5367 892.845,-86.5367 900.759,-86.5367"/>
<polygon fill="midnightblue" stroke="midnightblue" points="875.003,-83.0368 865.003,-86.5367 875.003,-90.0368 875.003,-83.0368"/>
</g>
<!-- Node12 -->
<g id="node12" class="node"><title>Node12</title>
<g id="a_node12"><a xlink:href="classhsmg__routines.html#ac8f9bca9624d5e550d70acabfa8aef73" target="_top" xlink:title="Sets up hybrid Schwarz multi&#45;grid preconditioner. ">
<polygon fill="white" stroke="black" points="552,-25.5367 552,-55.5367 668,-55.5367 668,-25.5367 552,-25.5367"/>
<text text-anchor="start" x="560" y="-43.5367" font-family="Helvetica,sans-Serif" font-size="10.00">hsmg_routines::hsmg</text>
<text text-anchor="middle" x="610" y="-32.5367" font-family="Helvetica,sans-Serif" font-size="10.00">_setup</text>
</a>
</g>
</g>
<!-- Node11&#45;&gt;Node12 -->
<g id="edge11" class="edge"><title>Node11&#45;&gt;Node12</title>
<path fill="none" stroke="midnightblue" d="M526.311,-40.5367C534.728,-40.5367 543.277,-40.5367 551.525,-40.5367"/>
<polygon fill="midnightblue" stroke="midnightblue" points="526.137,-37.0368 516.136,-40.5367 526.136,-44.0368 526.137,-37.0368"/>
</g>
<!-- Node12&#45;&gt;Node8 -->
<g id="edge12" class="edge"><title>Node12&#45;&gt;Node8</title>
<path fill="none" stroke="midnightblue" d="M678.236,-47.8907C687.072,-48.8571 695.825,-49.8145 703.82,-50.6889"/>
<polygon fill="midnightblue" stroke="midnightblue" points="678.582,-44.4078 668.261,-46.7997 677.821,-51.3663 678.582,-44.4078"/>
</g>
<!-- Node13&#45;&gt;Node9 -->
<g id="edge14" class="edge"><title>Node13&#45;&gt;Node9</title>
<path fill="none" stroke="midnightblue" d="M778.484,-106.719C789.689,-102.887 801.71,-98.7757 811.96,-95.2705"/>
<polygon fill="midnightblue" stroke="midnightblue" points="777.241,-103.444 768.912,-109.992 779.506,-110.068 777.241,-103.444"/>
</g>
<!-- Node14&#45;&gt;Node8 -->
<g id="edge16" class="edge"><title>Node14&#45;&gt;Node8</title>
<path fill="none" stroke="midnightblue" d="M374.229,-13.6602C442.852,-2.63298 566.555,10.4908 668,-15.5367 690.068,-21.1988 712.638,-35.3124 726.238,-44.9137"/>
<polygon fill="midnightblue" stroke="midnightblue" points="373.4,-10.2496 364.107,-15.3362 374.544,-17.1556 373.4,-10.2496"/>
</g>
</g>
</svg>
        <g id="navigator" transform="translate(0 0)" fill="#404254">
                <rect fill="#f2f5e9" fill-opacity="0.5" stroke="#606060" stroke-width=".5" x="0" y="0" width="60" height="60"/>
                <use id="zoomplus" xlink:href="#zoomPlus" x="17" y="9" onmousedown="handleZoom(evt,'in')"/>
                <use id="zoomminus" xlink:href="#zoomMin" x="42" y="9" onmousedown="handleZoom(evt,'out')"/>
                <use id="reset" xlink:href="#resetDef" x="30" y="36" onmousedown="handleReset()"/>
                <g id="arrowUp" xlink:href="#dirArrow" transform="translate(30 24)" onmousedown="handlePan(0,-1)">
                  <use xlink:href="#rim" fill="#404040">
                        <set attributeName="fill" to="#808080" begin="arrowUp.mouseover" end="arrowUp.mouseout"/>
                  </use>
                  <path fill="none" stroke="white" stroke-width="1.5" d="M0,-3.0v7 M-2.5,-0.5L0,-3.0L2.5,-0.5"/>
                </g>
                <g id="arrowRight" xlink:href="#dirArrow" transform="rotate(90) translate(36 -43)" onmousedown="handlePan(1,0)">
                  <use xlink:href="#rim" fill="#404040">
                        <set attributeName="fill" to="#808080" begin="arrowRight.mouseover" end="arrowRight.mouseout"/>
                  </use>
                  <path fill="none" stroke="white" stroke-width="1.5" d="M0,-3.0v7 M-2.5,-0.5L0,-3.0L2.5,-0.5"/>
                </g>
                <g id="arrowDown" xlink:href="#dirArrow" transform="rotate(180) translate(-30 -48)" onmousedown="handlePan(0,1)">
                  <use xlink:href="#rim" fill="#404040">
                        <set attributeName="fill" to="#808080" begin="arrowDown.mouseover" end="arrowDown.mouseout"/>
                  </use>
                  <path fill="none" stroke="white" stroke-width="1.5" d="M0,-3.0v7 M-2.5,-0.5L0,-3.0L2.5,-0.5"/>
                </g>
                <g id="arrowLeft" xlink:href="#dirArrow" transform="rotate(270) translate(-36 17)" onmousedown="handlePan(-1,0)">
                  <use xlink:href="#rim" fill="#404040">
                        <set attributeName="fill" to="#808080" begin="arrowLeft.mouseover" end="arrowLeft.mouseout"/>
                  </use>
                  <path fill="none" stroke="white" stroke-width="1.5" d="M0,-3.0v7 M-2.5,-0.5L0,-3.0L2.5,-0.5"/>
                </g>
        </g>
        <svg viewBox="0 0 15 15" width="100%" height="30px" preserveAspectRatio="xMaxYMin meet">
         <g id="arrow_out" transform="scale(0.3 0.3)">
          <a xlink:href="math_8F90_a2add00098b77e54191b10eb6711193f6_icgraph_org.svg" target="_base">
           <rect id="button" ry="5" rx="5" y="6" x="6" height="38" width="38"
                fill="#f2f5e9" fill-opacity="0.5" stroke="#606060" stroke-width="1.0"/>
           <path id="arrow"
             d="M 11.500037,31.436501 C 11.940474,20.09759 22.043105,11.32322 32.158766,21.979434 L 37.068811,17.246167 C 37.068811,17.246167 37.088388,32 37.088388,32 L 22.160133,31.978069 C 22.160133,31.978069 26.997745,27.140456 26.997745,27.140456 C 18.528582,18.264221 13.291696,25.230495 11.500037,31.436501 z"
             style="fill:#404040;"/>
          </a>
         </g>
        </svg>
</svg>
