<?xml version="1.0" encoding="UTF-8" standalone="no"?>
<!DOCTYPE svg PUBLIC "-//W3C//DTD SVG 1.1//EN"
 "http://www.w3.org/Graphics/SVG/1.1/DTD/svg11.dtd">
<!-- Generated by graphviz version 2.38.0 (20140413.2041)
 -->
<!-- Title: glamax Pages: 1 -->
<!--zoomable 370 -->
<svg id="main" version="1.1" xmlns="http://www.w3.org/2000/svg" xmlns:xlink="http://www.w3.org/1999/xlink" xml:space="preserve" onload="init(evt)">
<style type="text/css"><![CDATA[
.edge:hover path { stroke: red; }
.edge:hover polygon { stroke: red; fill: red; }
]]></style>
<script type="text/javascript"><![CDATA[
var edges = document.getElementsByTagName('g');
if (edges && edges.length) {
  for (var i=0;i<edges.length;i++) {
    if (edges[i].id.substr(0,4)=='edge') {
      edges[i].setAttribute('class','edge');
    }
  }
}
]]></script>
        <defs>
                <circle id="rim" cx="0" cy="0" r="7"/>
                <circle id="rim2" cx="0" cy="0" r="3.5"/>
                <g id="zoomPlus">
                        <use xlink:href="#rim" fill="#404040">
                                <set attributeName="fill" to="#808080" begin="zoomplus.mouseover" end="zoomplus.mouseout"/>
                        </use>
                        <path d="M-4,0h8M0,-4v8" fill="none" stroke="white" stroke-width="1.5" pointer-events="none"/>
                </g>
                <g id="zoomMin">
                        <use xlink:href="#rim" fill="#404040">
                                <set attributeName="fill" to="#808080" begin="zoomminus.mouseover" end="zoomminus.mouseout"/>
                        </use>
                        <path d="M-4,0h8" fill="none" stroke="white" stroke-width="1.5" pointer-events="none"/>
                </g>
                <g id="dirArrow">
                        <path fill="none" stroke="white" stroke-width="1.5" d="M0,-3.0v7 M-2.5,-0.5L0,-3.0L2.5,-0.5"/>
                </g>
               <g id="resetDef">
                       <use xlink:href="#rim2" fill="#404040">
                               <set attributeName="fill" to="#808080" begin="reset.mouseover" end="reset.mouseout"/>
                       </use>
               </g>
        </defs>

<script type="text/javascript">
var viewWidth = 556;
var viewHeight = 370;
var sectionId = 'dynsection-3';
</script>
<script xlink:href="svgpan.js"/>
<svg id="graph" class="graph">
<g id="viewport">
<title>glamax</title>
<polygon fill="white" stroke="none" points="-4,4 -4,-366 552,-366 552,4 -4,4"/>
<!-- Node1 -->
<g id="node1" class="node"><title>Node1</title>
<polygon fill="#bfbfbf" stroke="black" points="0,-228.5 0,-247.5 50,-247.5 50,-228.5 0,-228.5"/>
<text text-anchor="middle" x="25" y="-235.5" font-family="Helvetica,sans-Serif" font-size="10.00">glamax</text>
</g>
<!-- Node2 -->
<g id="node2" class="node"><title>Node2</title>
<g id="a_node2"><a xlink:href="comm__mpi_8F90.html#a3f652605d55796462e959d17b5a9612b" target="_top" xlink:title="Global vector commutative operation. ">
<polygon fill="white" stroke="black" points="86,-228.5 86,-247.5 121,-247.5 121,-228.5 86,-228.5"/>
<text text-anchor="middle" x="103.5" y="-235.5" font-family="Helvetica,sans-Serif" font-size="10.00">gop</text>
</a>
</g>
</g>
<!-- Node1&#45;&gt;Node2 -->
<g id="edge1" class="edge"><title>Node1&#45;&gt;Node2</title>
<path fill="none" stroke="midnightblue" d="M50.2051,-238C58.2403,-238 67.2357,-238 75.4701,-238"/>
<polygon fill="midnightblue" stroke="midnightblue" points="75.7118,-241.5 85.7118,-238 75.7117,-234.5 75.7118,-241.5"/>
</g>
<!-- Node3 -->
<g id="node3" class="node"><title>Node3</title>
<g id="a_node3"><a xlink:href="math_8F90.html#a3b43508554f14bdea8e14473d7d0803c" target="_top" xlink:title="copy">
<polygon fill="white" stroke="black" points="178.5,-304.5 178.5,-323.5 217.5,-323.5 217.5,-304.5 178.5,-304.5"/>
<text text-anchor="middle" x="198" y="-311.5" font-family="Helvetica,sans-Serif" font-size="10.00">copy</text>
</a>
</g>
</g>
<!-- Node2&#45;&gt;Node3 -->
<g id="edge2" class="edge"><title>Node2&#45;&gt;Node3</title>
<path fill="none" stroke="midnightblue" d="M112.813,-247.522C122.689,-258.515 139.981,-276.777 157,-290 161.131,-293.209 165.724,-296.327 170.283,-299.195"/>
<polygon fill="midnightblue" stroke="midnightblue" points="168.503,-302.209 178.877,-304.361 172.109,-296.21 168.503,-302.209"/>
</g>
<!-- Node4 -->
<g id="node4" class="node"><title>Node4</title>
<g id="a_node4"><a xlink:href="classctimer.html#abcecbc845c8ee72e13a19eaa30b80d77" target="_top" xlink:title="ctimer::dnekclock">
<polygon fill="white" stroke="black" points="305,-342.5 305,-361.5 402,-361.5 402,-342.5 305,-342.5"/>
<text text-anchor="middle" x="353.5" y="-349.5" font-family="Helvetica,sans-Serif" font-size="10.00">ctimer::dnekclock</text>
</a>
</g>
</g>
<!-- Node2&#45;&gt;Node4 -->
<g id="edge3" class="edge"><title>Node2&#45;&gt;Node4</title>
<path fill="none" stroke="midnightblue" d="M121.275,-244.122C152.657,-255.735 218.893,-281.048 239,-295 258.113,-308.263 254.885,-321.311 275,-333 281.258,-336.637 288.19,-339.581 295.261,-341.963"/>
<polygon fill="midnightblue" stroke="midnightblue" points="294.353,-345.344 304.937,-344.875 296.37,-338.641 294.353,-345.344"/>
</g>
<!-- Node6 -->
<g id="node6" class="node"><title>Node6</title>
<g id="a_node6"><a xlink:href="byte_8c.html#a2da8eeb074dfd3ffbfb3e9a4d301cda4" target="_top" xlink:title="exitt">
<polygon fill="white" stroke="black" points="180,-228.5 180,-247.5 216,-247.5 216,-228.5 180,-228.5"/>
<text text-anchor="middle" x="198" y="-235.5" font-family="Helvetica,sans-Serif" font-size="10.00">exitt</text>
</a>
</g>
</g>
<!-- Node2&#45;&gt;Node6 -->
<g id="edge5" class="edge"><title>Node2&#45;&gt;Node6</title>
<path fill="none" stroke="midnightblue" d="M121.037,-238C134.548,-238 153.926,-238 169.728,-238"/>
<polygon fill="midnightblue" stroke="midnightblue" points="169.98,-241.5 179.98,-238 169.98,-234.5 169.98,-241.5"/>
</g>
<!-- Node12 -->
<g id="node12" class="node"><title>Node12</title>
<g id="a_node12"><a xlink:href="comm__mpi_8F90.html#a4acb4d8e379294232e9219bec063d8f3" target="_top" xlink:title="nekgsync">
<polygon fill="white" stroke="black" points="322.5,-152.5 322.5,-171.5 384.5,-171.5 384.5,-152.5 322.5,-152.5"/>
<text text-anchor="middle" x="353.5" y="-159.5" font-family="Helvetica,sans-Serif" font-size="10.00">nekgsync</text>
</a>
</g>
</g>
<!-- Node2&#45;&gt;Node12 -->
<g id="edge19" class="edge"><title>Node2&#45;&gt;Node12</title>
<path fill="none" stroke="midnightblue" d="M121.469,-231.685C131.724,-227.912 145.076,-223.076 157,-219 209.135,-201.178 221.988,-196.013 275,-181 287.079,-177.579 300.319,-174.199 312.383,-171.26"/>
<polygon fill="midnightblue" stroke="midnightblue" points="313.284,-174.643 322.189,-168.903 311.648,-167.837 313.284,-174.643"/>
</g>
<!-- Node14 -->
<g id="node14" class="node"><title>Node14</title>
<g id="a_node14"><a xlink:href="mpi__dummy_8F90.html#acd9229b5fb6a4d16f9917a5b5c2f0909" target="_top" xlink:title="mpi_allreduce">
<polygon fill="white" stroke="black" points="157,-76.5 157,-95.5 239,-95.5 239,-76.5 157,-76.5"/>
<text text-anchor="middle" x="198" y="-83.5" font-family="Helvetica,sans-Serif" font-size="10.00">mpi_allreduce</text>
</a>
</g>
</g>
<!-- Node2&#45;&gt;Node14 -->
<g id="edge14" class="edge"><title>Node2&#45;&gt;Node14</title>
<path fill="none" stroke="midnightblue" d="M110.286,-228.492C125.341,-203.754 165.935,-137.048 185.776,-104.444"/>
<polygon fill="midnightblue" stroke="midnightblue" points="189.007,-105.867 191.216,-95.5047 183.027,-102.228 189.007,-105.867"/>
</g>
<!-- Node5 -->
<g id="node5" class="node"><title>Node5</title>
<g id="a_node5"><a xlink:href="mpi__dummy_8F90.html#ae6a5ef945f87c2c27849696b70f3af2a" target="_top" xlink:title="mpi_wtime">
<polygon fill="white" stroke="black" points="475,-342.5 475,-361.5 541,-361.5 541,-342.5 475,-342.5"/>
<text text-anchor="middle" x="508" y="-349.5" font-family="Helvetica,sans-Serif" font-size="10.00">mpi_wtime</text>
</a>
</g>
</g>
<!-- Node4&#45;&gt;Node5 -->
<g id="edge4" class="edge"><title>Node4&#45;&gt;Node5</title>
<path fill="none" stroke="midnightblue" d="M402.334,-352C422.325,-352 445.358,-352 464.718,-352"/>
<polygon fill="midnightblue" stroke="midnightblue" points="464.762,-355.5 474.762,-352 464.762,-348.5 464.762,-355.5"/>
</g>
<!-- Node6&#45;&gt;Node4 -->
<g id="edge6" class="edge"><title>Node6&#45;&gt;Node4</title>
<path fill="none" stroke="midnightblue" d="M216.06,-245.514C223.785,-249.553 232.598,-255.125 239,-262 263.112,-287.892 247.29,-311.002 275,-333 280.893,-337.678 287.774,-341.226 294.958,-343.914"/>
<polygon fill="midnightblue" stroke="midnightblue" points="294.288,-347.373 304.879,-347.07 296.41,-340.703 294.288,-347.373"/>
</g>
<!-- Node7 -->
<g id="node7" class="node"><title>Node7</title>
<g id="a_node7"><a xlink:href="subs1_8F90.html#a339739b88994e5bb12bd923147f94983" target="_top" xlink:title="flush_io">
<polygon fill="white" stroke="black" points="327,-304.5 327,-323.5 380,-323.5 380,-304.5 327,-304.5"/>
<text text-anchor="middle" x="353.5" y="-311.5" font-family="Helvetica,sans-Serif" font-size="10.00">flush_io</text>
</a>
</g>
</g>
<!-- Node6&#45;&gt;Node7 -->
<g id="edge7" class="edge"><title>Node6&#45;&gt;Node7</title>
<path fill="none" stroke="midnightblue" d="M216.225,-247.315C223.472,-251.491 231.861,-256.671 239,-262 256.394,-274.983 255.861,-284.762 275,-295 287.849,-301.873 303.223,-306.306 316.878,-309.143"/>
<polygon fill="midnightblue" stroke="midnightblue" points="316.443,-312.622 326.915,-311.016 317.727,-305.741 316.443,-312.622"/>
</g>
<!-- Node8 -->
<g id="node8" class="node"><title>Node8</title>
<g id="a_node8"><a xlink:href="singlmesh_8F90.html#aef78ff219741b83c1ca784b869e9cacf" target="_top" xlink:title="Dummy for singlmesh. ">
<polygon fill="white" stroke="black" points="313.5,-266.5 313.5,-285.5 393.5,-285.5 393.5,-266.5 313.5,-266.5"/>
<text text-anchor="middle" x="353.5" y="-273.5" font-family="Helvetica,sans-Serif" font-size="10.00">happy_check</text>
</a>
</g>
</g>
<!-- Node6&#45;&gt;Node8 -->
<g id="edge8" class="edge"><title>Node6&#45;&gt;Node8</title>
<path fill="none" stroke="midnightblue" d="M216.199,-242.324C231.599,-246.189 254.801,-251.999 275,-257 284.282,-259.298 294.192,-261.738 303.718,-264.076"/>
<polygon fill="midnightblue" stroke="midnightblue" points="302.917,-267.484 313.463,-266.466 304.584,-260.685 302.917,-267.484"/>
</g>
<!-- Node9 -->
<g id="node9" class="node"><title>Node9</title>
<g id="a_node9"><a xlink:href="mpi__dummy_8F90.html#a55e9a1619aadb638b14211ce21d7d566" target="_top" xlink:title="mpi_finalize">
<polygon fill="white" stroke="black" points="317.5,-228.5 317.5,-247.5 389.5,-247.5 389.5,-228.5 317.5,-228.5"/>
<text text-anchor="middle" x="353.5" y="-235.5" font-family="Helvetica,sans-Serif" font-size="10.00">mpi_finalize</text>
</a>
</g>
</g>
<!-- Node6&#45;&gt;Node9 -->
<g id="edge9" class="edge"><title>Node6&#45;&gt;Node9</title>
<path fill="none" stroke="midnightblue" d="M216.014,-238C237.894,-238 276.727,-238 307.391,-238"/>
<polygon fill="midnightblue" stroke="midnightblue" points="307.44,-241.5 317.44,-238 307.44,-234.5 307.44,-241.5"/>
</g>
<!-- Node10 -->
<g id="node10" class="node"><title>Node10</title>
<g id="a_node10"><a xlink:href="papi_8F90.html#a3a75ccdfbe05912fda48c3b134d114c0" target="_top" xlink:title="nek_flops">
<polygon fill="white" stroke="black" points="322.5,-190.5 322.5,-209.5 384.5,-209.5 384.5,-190.5 322.5,-190.5"/>
<text text-anchor="middle" x="353.5" y="-197.5" font-family="Helvetica,sans-Serif" font-size="10.00">nek_flops</text>
</a>
</g>
</g>
<!-- Node6&#45;&gt;Node10 -->
<g id="edge10" class="edge"><title>Node6&#45;&gt;Node10</title>
<path fill="none" stroke="midnightblue" d="M216.199,-233.676C231.599,-229.811 254.801,-224.001 275,-219 287.187,-215.983 300.457,-212.721 312.517,-209.765"/>
<polygon fill="midnightblue" stroke="midnightblue" points="313.432,-213.145 322.312,-207.367 311.767,-206.346 313.432,-213.145"/>
</g>
<!-- Node6&#45;&gt;Node12 -->
<g id="edge12" class="edge"><title>Node6&#45;&gt;Node12</title>
<path fill="none" stroke="midnightblue" d="M208.94,-228.417C222.679,-215.701 248.761,-193.416 275,-181 286.642,-175.491 300.049,-171.478 312.404,-168.6"/>
<polygon fill="midnightblue" stroke="midnightblue" points="313.428,-171.96 322.473,-166.442 311.961,-165.116 313.428,-171.96"/>
</g>
<!-- Node11 -->
<g id="node11" class="node"><title>Node11</title>
<g id="a_node11"><a xlink:href="papi_8F90.html#a838be3d39e287e29002d5a68c6ad2dd8" target="_top" xlink:title="getflops_papi">
<polygon fill="white" stroke="black" points="468,-190.5 468,-209.5 548,-209.5 548,-190.5 468,-190.5"/>
<text text-anchor="middle" x="508" y="-197.5" font-family="Helvetica,sans-Serif" font-size="10.00">getflops_papi</text>
</a>
</g>
</g>
<!-- Node10&#45;&gt;Node11 -->
<g id="edge11" class="edge"><title>Node10&#45;&gt;Node11</title>
<path fill="none" stroke="midnightblue" d="M384.629,-200C405.516,-200 433.799,-200 457.913,-200"/>
<polygon fill="midnightblue" stroke="midnightblue" points="457.958,-203.5 467.958,-200 457.958,-196.5 457.958,-203.5"/>
</g>
<!-- Node13 -->
<g id="node13" class="node"><title>Node13</title>
<g id="a_node13"><a xlink:href="mpi__dummy_8F90.html#a070afe564196eb48413dbf1a9fbc99aa" target="_top" xlink:title="mpi_barrier">
<polygon fill="white" stroke="black" points="473,-152.5 473,-171.5 543,-171.5 543,-152.5 473,-152.5"/>
<text text-anchor="middle" x="508" y="-159.5" font-family="Helvetica,sans-Serif" font-size="10.00">mpi_barrier</text>
</a>
</g>
</g>
<!-- Node12&#45;&gt;Node13 -->
<g id="edge13" class="edge"><title>Node12&#45;&gt;Node13</title>
<path fill="none" stroke="midnightblue" d="M384.629,-162C406.983,-162 437.807,-162 462.926,-162"/>
<polygon fill="midnightblue" stroke="midnightblue" points="462.947,-165.5 472.947,-162 462.947,-158.5 462.947,-165.5"/>
</g>
<!-- Node15 -->
<g id="node15" class="node"><title>Node15</title>
<g id="a_node15"><a xlink:href="mpi__dummy_8F90.html#a64285f5ce9bed08bfd13bc27264db185" target="_top" xlink:title="mpi_reduce_double_precision">
<polygon fill="white" stroke="black" points="275,-114.5 275,-133.5 432,-133.5 432,-114.5 275,-114.5"/>
<text text-anchor="middle" x="353.5" y="-121.5" font-family="Helvetica,sans-Serif" font-size="10.00">mpi_reduce_double_precision</text>
</a>
</g>
</g>
<!-- Node14&#45;&gt;Node15 -->
<g id="edge15" class="edge"><title>Node14&#45;&gt;Node15</title>
<path fill="none" stroke="midnightblue" d="M236.876,-95.5051C249.047,-98.5498 262.59,-101.928 275,-105 284.282,-107.298 294.192,-109.738 303.718,-112.076"/>
<polygon fill="midnightblue" stroke="midnightblue" points="302.917,-115.484 313.463,-114.466 304.584,-108.685 302.917,-115.484"/>
</g>
<!-- Node16 -->
<g id="node16" class="node"><title>Node16</title>
<g id="a_node16"><a xlink:href="mpi__dummy_8F90.html#aa549a352c5ab9ce53b8dfd222da38fa6" target="_top" xlink:title="mpi_reduce_integer">
<polygon fill="white" stroke="black" points="298.5,-76.5 298.5,-95.5 408.5,-95.5 408.5,-76.5 298.5,-76.5"/>
<text text-anchor="middle" x="353.5" y="-83.5" font-family="Helvetica,sans-Serif" font-size="10.00">mpi_reduce_integer</text>
</a>
</g>
</g>
<!-- Node14&#45;&gt;Node16 -->
<g id="edge16" class="edge"><title>Node14&#45;&gt;Node16</title>
<path fill="none" stroke="midnightblue" d="M239.33,-86C254.263,-86 271.59,-86 288.129,-86"/>
<polygon fill="midnightblue" stroke="midnightblue" points="288.297,-89.5001 298.297,-86 288.297,-82.5001 288.297,-89.5001"/>
</g>
<!-- Node17 -->
<g id="node17" class="node"><title>Node17</title>
<g id="a_node17"><a xlink:href="mpi__dummy_8F90.html#abbddc050d7faafb34959984f69652e0a" target="_top" xlink:title="mpi_reduce_integer8">
<polygon fill="white" stroke="black" points="295.5,-38.5 295.5,-57.5 411.5,-57.5 411.5,-38.5 295.5,-38.5"/>
<text text-anchor="middle" x="353.5" y="-45.5" font-family="Helvetica,sans-Serif" font-size="10.00">mpi_reduce_integer8</text>
</a>
</g>
</g>
<!-- Node14&#45;&gt;Node17 -->
<g id="edge17" class="edge"><title>Node14&#45;&gt;Node17</title>
<path fill="none" stroke="midnightblue" d="M236.876,-76.4949C249.047,-73.4502 262.59,-70.0724 275,-67 284.282,-64.702 294.192,-62.262 303.718,-59.9235"/>
<polygon fill="midnightblue" stroke="midnightblue" points="304.584,-63.3149 313.463,-57.5336 302.917,-56.5164 304.584,-63.3149"/>
</g>
<!-- Node18 -->
<g id="node18" class="node"><title>Node18</title>
<g id="a_node18"><a xlink:href="mpi__dummy_8F90.html#a47f146895b36dc21100a1c42d343762c" target="_top" xlink:title="mpi_reduce_real">
<polygon fill="white" stroke="black" points="306,-0.5 306,-19.5 401,-19.5 401,-0.5 306,-0.5"/>
<text text-anchor="middle" x="353.5" y="-7.5" font-family="Helvetica,sans-Serif" font-size="10.00">mpi_reduce_real</text>
</a>
</g>
</g>
<!-- Node14&#45;&gt;Node18 -->
<g id="edge18" class="edge"><title>Node14&#45;&gt;Node18</title>
<path fill="none" stroke="midnightblue" d="M208.94,-76.4171C222.679,-63.7011 248.761,-41.4155 275,-29 281.629,-25.8633 288.83,-23.2115 296.084,-20.978"/>
<polygon fill="midnightblue" stroke="midnightblue" points="297.288,-24.2747 305.959,-18.1855 295.384,-17.5388 297.288,-24.2747"/>
</g>
</g>
</svg>
        <g id="navigator" transform="translate(0 0)" fill="#404254">
                <rect fill="#f2f5e9" fill-opacity="0.5" stroke="#606060" stroke-width=".5" x="0" y="0" width="60" height="60"/>
                <use id="zoomplus" xlink:href="#zoomPlus" x="17" y="9" onmousedown="handleZoom(evt,'in')"/>
                <use id="zoomminus" xlink:href="#zoomMin" x="42" y="9" onmousedown="handleZoom(evt,'out')"/>
                <use id="reset" xlink:href="#resetDef" x="30" y="36" onmousedown="handleReset()"/>
                <g id="arrowUp" xlink:href="#dirArrow" transform="translate(30 24)" onmousedown="handlePan(0,-1)">
                  <use xlink:href="#rim" fill="#404040">
                        <set attributeName="fill" to="#808080" begin="arrowUp.mouseover" end="arrowUp.mouseout"/>
                  </use>
                  <path fill="none" stroke="white" stroke-width="1.5" d="M0,-3.0v7 M-2.5,-0.5L0,-3.0L2.5,-0.5"/>
                </g>
                <g id="arrowRight" xlink:href="#dirArrow" transform="rotate(90) translate(36 -43)" onmousedown="handlePan(1,0)">
                  <use xlink:href="#rim" fill="#404040">
                        <set attributeName="fill" to="#808080" begin="arrowRight.mouseover" end="arrowRight.mouseout"/>
                  </use>
                  <path fill="none" stroke="white" stroke-width="1.5" d="M0,-3.0v7 M-2.5,-0.5L0,-3.0L2.5,-0.5"/>
                </g>
                <g id="arrowDown" xlink:href="#dirArrow" transform="rotate(180) translate(-30 -48)" onmousedown="handlePan(0,1)">
                  <use xlink:href="#rim" fill="#404040">
                        <set attributeName="fill" to="#808080" begin="arrowDown.mouseover" end="arrowDown.mouseout"/>
                  </use>
                  <path fill="none" stroke="white" stroke-width="1.5" d="M0,-3.0v7 M-2.5,-0.5L0,-3.0L2.5,-0.5"/>
                </g>
                <g id="arrowLeft" xlink:href="#dirArrow" transform="rotate(270) translate(-36 17)" onmousedown="handlePan(-1,0)">
                  <use xlink:href="#rim" fill="#404040">
                        <set attributeName="fill" to="#808080" begin="arrowLeft.mouseover" end="arrowLeft.mouseout"/>
                  </use>
                  <path fill="none" stroke="white" stroke-width="1.5" d="M0,-3.0v7 M-2.5,-0.5L0,-3.0L2.5,-0.5"/>
                </g>
        </g>
        <svg viewBox="0 0 15 15" width="100%" height="30px" preserveAspectRatio="xMaxYMin meet">
         <g id="arrow_out" transform="scale(0.3 0.3)">
          <a xlink:href="math_8F90_a620542faffe239d5d4c8dac1356075b1_cgraph_org.svg" target="_base">
           <rect id="button" ry="5" rx="5" y="6" x="6" height="38" width="38"
                fill="#f2f5e9" fill-opacity="0.5" stroke="#606060" stroke-width="1.0"/>
           <path id="arrow"
             d="M 11.500037,31.436501 C 11.940474,20.09759 22.043105,11.32322 32.158766,21.979434 L 37.068811,17.246167 C 37.068811,17.246167 37.088388,32 37.088388,32 L 22.160133,31.978069 C 22.160133,31.978069 26.997745,27.140456 26.997745,27.140456 C 18.528582,18.264221 13.291696,25.230495 11.500037,31.436501 z"
             style="fill:#404040;"/>
          </a>
         </g>
        </svg>
</svg>
