<?xml version="1.0" encoding="UTF-8" standalone="no"?>
<!DOCTYPE svg PUBLIC "-//W3C//DTD SVG 1.1//EN"
 "http://www.w3.org/Graphics/SVG/1.1/DTD/svg11.dtd">
<!-- Generated by graphviz version 2.38.0 (20140413.2041)
 -->
<!-- Title: i8glmax Pages: 1 -->
<svg width="567pt" height="370pt"
 viewBox="0.00 0.00 567.00 370.00" xmlns="http://www.w3.org/2000/svg" xmlns:xlink="http://www.w3.org/1999/xlink">
<g id="graph0" class="graph" transform="scale(1 1) rotate(0) translate(4 366)">
<title>i8glmax</title>
<polygon fill="white" stroke="none" points="-4,4 -4,-366 563,-366 563,4 -4,4"/>
<!-- Node1 -->
<g id="node1" class="node"><title>Node1</title>
<polygon fill="#bfbfbf" stroke="black" points="0,-152.5 0,-171.5 53,-171.5 53,-152.5 0,-152.5"/>
<text text-anchor="middle" x="26.5" y="-159.5" font-family="Helvetica,sans-Serif" font-size="10.00">i8glmax</text>
</g>
<!-- Node2 -->
<g id="node2" class="node"><title>Node2</title>
<g id="a_node2"><a xlink:href="comm__mpi_8F90.html#af260c1a2fb7cc8a919bbf5d01e83b74c" target="_top" xlink:title="Global vector commutative operation. ">
<polygon fill="white" stroke="black" points="89,-152.5 89,-171.5 132,-171.5 132,-152.5 89,-152.5"/>
<text text-anchor="middle" x="110.5" y="-159.5" font-family="Helvetica,sans-Serif" font-size="10.00">i8gop</text>
</a>
</g>
</g>
<!-- Node1&#45;&gt;Node2 -->
<g id="edge1" class="edge"><title>Node1&#45;&gt;Node2</title>
<path fill="none" stroke="midnightblue" d="M53.4453,-162C61.4952,-162 70.4441,-162 78.7858,-162"/>
<polygon fill="midnightblue" stroke="midnightblue" points="78.9138,-165.5 88.9138,-162 78.9137,-158.5 78.9138,-165.5"/>
</g>
<!-- Node3 -->
<g id="node3" class="node"><title>Node3</title>
<g id="a_node3"><a xlink:href="byte_8c.html#a2da8eeb074dfd3ffbfb3e9a4d301cda4" target="_top" xlink:title="exitt">
<polygon fill="white" stroke="black" points="191,-228.5 191,-247.5 227,-247.5 227,-228.5 191,-228.5"/>
<text text-anchor="middle" x="209" y="-235.5" font-family="Helvetica,sans-Serif" font-size="10.00">exitt</text>
</a>
</g>
</g>
<!-- Node2&#45;&gt;Node3 -->
<g id="edge2" class="edge"><title>Node2&#45;&gt;Node3</title>
<path fill="none" stroke="midnightblue" d="M123.722,-171.625C139.891,-184.36 168.602,-206.972 187.966,-222.222"/>
<polygon fill="midnightblue" stroke="midnightblue" points="185.856,-225.015 195.877,-228.453 190.187,-219.516 185.856,-225.015"/>
</g>
<!-- Node13 -->
<g id="node13" class="node"><title>Node13</title>
<g id="a_node13"><a xlink:href="mpi__dummy_8F90.html#acd9229b5fb6a4d16f9917a5b5c2f0909" target="_top" xlink:title="mpi_allreduce">
<polygon fill="white" stroke="black" points="168,-76.5 168,-95.5 250,-95.5 250,-76.5 168,-76.5"/>
<text text-anchor="middle" x="209" y="-83.5" font-family="Helvetica,sans-Serif" font-size="10.00">mpi_allreduce</text>
</a>
</g>
</g>
<!-- Node2&#45;&gt;Node13 -->
<g id="edge12" class="edge"><title>Node2&#45;&gt;Node13</title>
<path fill="none" stroke="midnightblue" d="M123.722,-152.375C139.891,-139.64 168.602,-117.028 187.966,-101.778"/>
<polygon fill="midnightblue" stroke="midnightblue" points="190.187,-104.484 195.877,-95.5473 185.856,-98.9849 190.187,-104.484"/>
</g>
<!-- Node4 -->
<g id="node4" class="node"><title>Node4</title>
<g id="a_node4"><a xlink:href="classctimer.html#abcecbc845c8ee72e13a19eaa30b80d77" target="_top" xlink:title="ctimer::dnekclock">
<polygon fill="white" stroke="black" points="316,-342.5 316,-361.5 413,-361.5 413,-342.5 316,-342.5"/>
<text text-anchor="middle" x="364.5" y="-349.5" font-family="Helvetica,sans-Serif" font-size="10.00">ctimer::dnekclock</text>
</a>
</g>
</g>
<!-- Node3&#45;&gt;Node4 -->
<g id="edge3" class="edge"><title>Node3&#45;&gt;Node4</title>
<path fill="none" stroke="midnightblue" d="M214.817,-247.538C225.094,-266.87 251.108,-310.722 286,-333 292.101,-336.895 298.94,-339.992 305.961,-342.454"/>
<polygon fill="midnightblue" stroke="midnightblue" points="305.01,-345.823 315.597,-345.433 307.077,-339.135 305.01,-345.823"/>
</g>
<!-- Node6 -->
<g id="node6" class="node"><title>Node6</title>
<g id="a_node6"><a xlink:href="subs1_8F90.html#a339739b88994e5bb12bd923147f94983" target="_top" xlink:title="flush_io">
<polygon fill="white" stroke="black" points="338,-304.5 338,-323.5 391,-323.5 391,-304.5 338,-304.5"/>
<text text-anchor="middle" x="364.5" y="-311.5" font-family="Helvetica,sans-Serif" font-size="10.00">flush_io</text>
</a>
</g>
</g>
<!-- Node3&#45;&gt;Node6 -->
<g id="edge5" class="edge"><title>Node3&#45;&gt;Node6</title>
<path fill="none" stroke="midnightblue" d="M219.94,-247.583C233.679,-260.299 259.761,-282.584 286,-295 299.072,-301.185 314.37,-305.486 327.905,-308.41"/>
<polygon fill="midnightblue" stroke="midnightblue" points="327.355,-311.869 337.845,-310.386 328.72,-305.003 327.355,-311.869"/>
</g>
<!-- Node7 -->
<g id="node7" class="node"><title>Node7</title>
<g id="a_node7"><a xlink:href="singlmesh_8F90.html#aef78ff219741b83c1ca784b869e9cacf" target="_top" xlink:title="Dummy for singlmesh. ">
<polygon fill="white" stroke="black" points="324.5,-266.5 324.5,-285.5 404.5,-285.5 404.5,-266.5 324.5,-266.5"/>
<text text-anchor="middle" x="364.5" y="-273.5" font-family="Helvetica,sans-Serif" font-size="10.00">happy_check</text>
</a>
</g>
</g>
<!-- Node3&#45;&gt;Node7 -->
<g id="edge6" class="edge"><title>Node3&#45;&gt;Node7</title>
<path fill="none" stroke="midnightblue" d="M227.199,-242.324C242.599,-246.189 265.801,-251.999 286,-257 295.282,-259.298 305.192,-261.738 314.718,-264.076"/>
<polygon fill="midnightblue" stroke="midnightblue" points="313.917,-267.484 324.463,-266.466 315.584,-260.685 313.917,-267.484"/>
</g>
<!-- Node8 -->
<g id="node8" class="node"><title>Node8</title>
<g id="a_node8"><a xlink:href="mpi__dummy_8F90.html#a55e9a1619aadb638b14211ce21d7d566" target="_top" xlink:title="mpi_finalize">
<polygon fill="white" stroke="black" points="328.5,-228.5 328.5,-247.5 400.5,-247.5 400.5,-228.5 328.5,-228.5"/>
<text text-anchor="middle" x="364.5" y="-235.5" font-family="Helvetica,sans-Serif" font-size="10.00">mpi_finalize</text>
</a>
</g>
</g>
<!-- Node3&#45;&gt;Node8 -->
<g id="edge7" class="edge"><title>Node3&#45;&gt;Node8</title>
<path fill="none" stroke="midnightblue" d="M227.014,-238C248.894,-238 287.727,-238 318.391,-238"/>
<polygon fill="midnightblue" stroke="midnightblue" points="318.44,-241.5 328.44,-238 318.44,-234.5 318.44,-241.5"/>
</g>
<!-- Node9 -->
<g id="node9" class="node"><title>Node9</title>
<g id="a_node9"><a xlink:href="papi_8F90.html#a3a75ccdfbe05912fda48c3b134d114c0" target="_top" xlink:title="nek_flops">
<polygon fill="white" stroke="black" points="333.5,-190.5 333.5,-209.5 395.5,-209.5 395.5,-190.5 333.5,-190.5"/>
<text text-anchor="middle" x="364.5" y="-197.5" font-family="Helvetica,sans-Serif" font-size="10.00">nek_flops</text>
</a>
</g>
</g>
<!-- Node3&#45;&gt;Node9 -->
<g id="edge8" class="edge"><title>Node3&#45;&gt;Node9</title>
<path fill="none" stroke="midnightblue" d="M227.199,-233.676C242.599,-229.811 265.801,-224.001 286,-219 298.187,-215.983 311.457,-212.721 323.517,-209.765"/>
<polygon fill="midnightblue" stroke="midnightblue" points="324.432,-213.145 333.312,-207.367 322.767,-206.346 324.432,-213.145"/>
</g>
<!-- Node11 -->
<g id="node11" class="node"><title>Node11</title>
<g id="a_node11"><a xlink:href="comm__mpi_8F90.html#a4acb4d8e379294232e9219bec063d8f3" target="_top" xlink:title="nekgsync">
<polygon fill="white" stroke="black" points="333.5,-152.5 333.5,-171.5 395.5,-171.5 395.5,-152.5 333.5,-152.5"/>
<text text-anchor="middle" x="364.5" y="-159.5" font-family="Helvetica,sans-Serif" font-size="10.00">nekgsync</text>
</a>
</g>
</g>
<!-- Node3&#45;&gt;Node11 -->
<g id="edge10" class="edge"><title>Node3&#45;&gt;Node11</title>
<path fill="none" stroke="midnightblue" d="M219.94,-228.417C233.679,-215.701 259.761,-193.416 286,-181 297.642,-175.491 311.049,-171.478 323.404,-168.6"/>
<polygon fill="midnightblue" stroke="midnightblue" points="324.428,-171.96 333.473,-166.442 322.961,-165.116 324.428,-171.96"/>
</g>
<!-- Node5 -->
<g id="node5" class="node"><title>Node5</title>
<g id="a_node5"><a xlink:href="mpi__dummy_8F90.html#ae6a5ef945f87c2c27849696b70f3af2a" target="_top" xlink:title="mpi_wtime">
<polygon fill="white" stroke="black" points="486,-342.5 486,-361.5 552,-361.5 552,-342.5 486,-342.5"/>
<text text-anchor="middle" x="519" y="-349.5" font-family="Helvetica,sans-Serif" font-size="10.00">mpi_wtime</text>
</a>
</g>
</g>
<!-- Node4&#45;&gt;Node5 -->
<g id="edge4" class="edge"><title>Node4&#45;&gt;Node5</title>
<path fill="none" stroke="midnightblue" d="M413.334,-352C433.325,-352 456.358,-352 475.718,-352"/>
<polygon fill="midnightblue" stroke="midnightblue" points="475.762,-355.5 485.762,-352 475.762,-348.5 475.762,-355.5"/>
</g>
<!-- Node10 -->
<g id="node10" class="node"><title>Node10</title>
<g id="a_node10"><a xlink:href="papi_8F90.html#a838be3d39e287e29002d5a68c6ad2dd8" target="_top" xlink:title="getflops_papi">
<polygon fill="white" stroke="black" points="479,-190.5 479,-209.5 559,-209.5 559,-190.5 479,-190.5"/>
<text text-anchor="middle" x="519" y="-197.5" font-family="Helvetica,sans-Serif" font-size="10.00">getflops_papi</text>
</a>
</g>
</g>
<!-- Node9&#45;&gt;Node10 -->
<g id="edge9" class="edge"><title>Node9&#45;&gt;Node10</title>
<path fill="none" stroke="midnightblue" d="M395.629,-200C416.516,-200 444.799,-200 468.913,-200"/>
<polygon fill="midnightblue" stroke="midnightblue" points="468.958,-203.5 478.958,-200 468.958,-196.5 468.958,-203.5"/>
</g>
<!-- Node12 -->
<g id="node12" class="node"><title>Node12</title>
<g id="a_node12"><a xlink:href="mpi__dummy_8F90.html#a070afe564196eb48413dbf1a9fbc99aa" target="_top" xlink:title="mpi_barrier">
<polygon fill="white" stroke="black" points="484,-152.5 484,-171.5 554,-171.5 554,-152.5 484,-152.5"/>
<text text-anchor="middle" x="519" y="-159.5" font-family="Helvetica,sans-Serif" font-size="10.00">mpi_barrier</text>
</a>
</g>
</g>
<!-- Node11&#45;&gt;Node12 -->
<g id="edge11" class="edge"><title>Node11&#45;&gt;Node12</title>
<path fill="none" stroke="midnightblue" d="M395.629,-162C417.983,-162 448.807,-162 473.926,-162"/>
<polygon fill="midnightblue" stroke="midnightblue" points="473.947,-165.5 483.947,-162 473.947,-158.5 473.947,-165.5"/>
</g>
<!-- Node14 -->
<g id="node14" class="node"><title>Node14</title>
<g id="a_node14"><a xlink:href="mpi__dummy_8F90.html#a64285f5ce9bed08bfd13bc27264db185" target="_top" xlink:title="mpi_reduce_double_precision">
<polygon fill="white" stroke="black" points="286,-114.5 286,-133.5 443,-133.5 443,-114.5 286,-114.5"/>
<text text-anchor="middle" x="364.5" y="-121.5" font-family="Helvetica,sans-Serif" font-size="10.00">mpi_reduce_double_precision</text>
</a>
</g>
</g>
<!-- Node13&#45;&gt;Node14 -->
<g id="edge13" class="edge"><title>Node13&#45;&gt;Node14</title>
<path fill="none" stroke="midnightblue" d="M247.876,-95.5051C260.047,-98.5498 273.59,-101.928 286,-105 295.282,-107.298 305.192,-109.738 314.718,-112.076"/>
<polygon fill="midnightblue" stroke="midnightblue" points="313.917,-115.484 324.463,-114.466 315.584,-108.685 313.917,-115.484"/>
</g>
<!-- Node15 -->
<g id="node15" class="node"><title>Node15</title>
<g id="a_node15"><a xlink:href="mpi__dummy_8F90.html#aa549a352c5ab9ce53b8dfd222da38fa6" target="_top" xlink:title="mpi_reduce_integer">
<polygon fill="white" stroke="black" points="309.5,-76.5 309.5,-95.5 419.5,-95.5 419.5,-76.5 309.5,-76.5"/>
<text text-anchor="middle" x="364.5" y="-83.5" font-family="Helvetica,sans-Serif" font-size="10.00">mpi_reduce_integer</text>
</a>
</g>
</g>
<!-- Node13&#45;&gt;Node15 -->
<g id="edge14" class="edge"><title>Node13&#45;&gt;Node15</title>
<path fill="none" stroke="midnightblue" d="M250.33,-86C265.263,-86 282.59,-86 299.129,-86"/>
<polygon fill="midnightblue" stroke="midnightblue" points="299.297,-89.5001 309.297,-86 299.297,-82.5001 299.297,-89.5001"/>
</g>
<!-- Node16 -->
<g id="node16" class="node"><title>Node16</title>
<g id="a_node16"><a xlink:href="mpi__dummy_8F90.html#abbddc050d7faafb34959984f69652e0a" target="_top" xlink:title="mpi_reduce_integer8">
<polygon fill="white" stroke="black" points="306.5,-38.5 306.5,-57.5 422.5,-57.5 422.5,-38.5 306.5,-38.5"/>
<text text-anchor="middle" x="364.5" y="-45.5" font-family="Helvetica,sans-Serif" font-size="10.00">mpi_reduce_integer8</text>
</a>
</g>
</g>
<!-- Node13&#45;&gt;Node16 -->
<g id="edge15" class="edge"><title>Node13&#45;&gt;Node16</title>
<path fill="none" stroke="midnightblue" d="M247.876,-76.4949C260.047,-73.4502 273.59,-70.0724 286,-67 295.282,-64.702 305.192,-62.262 314.718,-59.9235"/>
<polygon fill="midnightblue" stroke="midnightblue" points="315.584,-63.3149 324.463,-57.5336 313.917,-56.5164 315.584,-63.3149"/>
</g>
<!-- Node17 -->
<g id="node17" class="node"><title>Node17</title>
<g id="a_node17"><a xlink:href="mpi__dummy_8F90.html#a47f146895b36dc21100a1c42d343762c" target="_top" xlink:title="mpi_reduce_real">
<polygon fill="white" stroke="black" points="317,-0.5 317,-19.5 412,-19.5 412,-0.5 317,-0.5"/>
<text text-anchor="middle" x="364.5" y="-7.5" font-family="Helvetica,sans-Serif" font-size="10.00">mpi_reduce_real</text>
</a>
</g>
</g>
<!-- Node13&#45;&gt;Node17 -->
<g id="edge16" class="edge"><title>Node13&#45;&gt;Node17</title>
<path fill="none" stroke="midnightblue" d="M219.94,-76.4171C233.679,-63.7011 259.761,-41.4155 286,-29 292.629,-25.8633 299.83,-23.2115 307.084,-20.978"/>
<polygon fill="midnightblue" stroke="midnightblue" points="308.288,-24.2747 316.959,-18.1855 306.384,-17.5388 308.288,-24.2747"/>
</g>
</g>
</svg>
