<?xml version="1.0" encoding="UTF-8" standalone="no"?>
<!DOCTYPE svg PUBLIC "-//W3C//DTD SVG 1.1//EN"
 "http://www.w3.org/Graphics/SVG/1.1/DTD/svg11.dtd">
<!-- Generated by graphviz version 2.38.0 (20140413.2041)
 -->
<!-- Title: glsc2 Pages: 1 -->
<svg width="916pt" height="66pt"
 viewBox="0.00 0.00 916.00 66.00" xmlns="http://www.w3.org/2000/svg" xmlns:xlink="http://www.w3.org/1999/xlink">
<g id="graph0" class="graph" transform="scale(1 1) rotate(0) translate(4 62)">
<title>glsc2</title>
<polygon fill="white" stroke="none" points="-4,4 -4,-62 912,-62 912,4 -4,4"/>
<!-- Node1 -->
<g id="node1" class="node"><title>Node1</title>
<polygon fill="#bfbfbf" stroke="black" points="0,-19.5 0,-38.5 41,-38.5 41,-19.5 0,-19.5"/>
<text text-anchor="middle" x="20.5" y="-26.5" font-family="Helvetica,sans-Serif" font-size="10.00">glsc2</text>
</g>
<!-- Node2 -->
<g id="node2" class="node"><title>Node2</title>
<g id="a_node2"><a xlink:href="classhelmholtz.html#a52002b3abc9e261d205cb96d49918f05" target="_top" xlink:title="Project out the part of the residual in the approx space. ">
<polygon fill="white" stroke="black" points="77,-19.5 77,-38.5 167,-38.5 167,-19.5 77,-19.5"/>
<text text-anchor="middle" x="122" y="-26.5" font-family="Helvetica,sans-Serif" font-size="10.00">helmholtz::projh</text>
</a>
</g>
</g>
<!-- Node1&#45;&gt;Node2 -->
<g id="edge1" class="edge"><title>Node1&#45;&gt;Node2</title>
<path fill="none" stroke="midnightblue" d="M51.4099,-29C59.3668,-29 68.1333,-29 76.6833,-29"/>
<polygon fill="midnightblue" stroke="midnightblue" points="51.158,-25.5001 41.158,-29 51.158,-32.5001 51.158,-25.5001"/>
</g>
<!-- Node3 -->
<g id="node3" class="node"><title>Node3</title>
<g id="a_node3"><a xlink:href="classhelmholtz.html#abf98ad104d11790462e9f07b3fa91848" target="_top" xlink:title="Either std. Helmholtz solve, or a projection + Helmholtz solve. ">
<polygon fill="white" stroke="black" points="203,-19.5 203,-38.5 300,-38.5 300,-19.5 203,-19.5"/>
<text text-anchor="middle" x="251.5" y="-26.5" font-family="Helvetica,sans-Serif" font-size="10.00">helmholtz::hsolve</text>
</a>
</g>
</g>
<!-- Node2&#45;&gt;Node3 -->
<g id="edge2" class="edge"><title>Node2&#45;&gt;Node3</title>
<path fill="none" stroke="midnightblue" d="M177.409,-29C185.875,-29 194.565,-29 202.865,-29"/>
<polygon fill="midnightblue" stroke="midnightblue" points="177.236,-25.5001 167.235,-29 177.235,-32.5001 177.236,-25.5001"/>
</g>
<!-- Node4 -->
<g id="node4" class="node"><title>Node4</title>
<g id="a_node4"><a xlink:href="conduct_8F90.html#a74a7f053381975ed36df8ea959f3aa01" target="_top" xlink:title="Solve the convection&#45;diffusion equation for passive scalar IPSCAL. ">
<polygon fill="white" stroke="black" points="336,-38.5 336,-57.5 383,-57.5 383,-38.5 336,-38.5"/>
<text text-anchor="middle" x="359.5" y="-45.5" font-family="Helvetica,sans-Serif" font-size="10.00">cdscal</text>
</a>
</g>
</g>
<!-- Node3&#45;&gt;Node4 -->
<g id="edge3" class="edge"><title>Node3&#45;&gt;Node4</title>
<path fill="none" stroke="midnightblue" d="M310.156,-39.3345C319.285,-40.9709 328.228,-42.5739 335.891,-43.9475"/>
<polygon fill="midnightblue" stroke="midnightblue" points="310.689,-35.8744 300.228,-37.5551 309.454,-42.7646 310.689,-35.8744"/>
</g>
<!-- Node10 -->
<g id="node10" class="node"><title>Node10</title>
<g id="a_node10"><a xlink:href="plan4_8F90.html#a5cbf852b67e73bfa44e028338c4d57ad" target="_top" xlink:title="Splitting scheme . ">
<polygon fill="white" stroke="black" points="338,-0.5 338,-19.5 381,-19.5 381,-0.5 338,-0.5"/>
<text text-anchor="middle" x="359.5" y="-7.5" font-family="Helvetica,sans-Serif" font-size="10.00">plan4</text>
</a>
</g>
</g>
<!-- Node3&#45;&gt;Node10 -->
<g id="edge9" class="edge"><title>Node3&#45;&gt;Node10</title>
<path fill="none" stroke="midnightblue" d="M310.15,-18.6664C320.051,-16.8917 329.734,-15.1561 337.803,-13.7099"/>
<polygon fill="midnightblue" stroke="midnightblue" points="309.454,-15.2354 300.228,-20.4449 310.689,-22.1256 309.454,-15.2354"/>
</g>
<!-- Node5 -->
<g id="node5" class="node"><title>Node5</title>
<g id="a_node5"><a xlink:href="drive2_8F90.html#acce80cd37f20e9b52729eb52d86a9c86" target="_top" xlink:title="Driver for temperature or passive scalar. ">
<polygon fill="white" stroke="black" points="419,-38.5 419,-57.5 457,-57.5 457,-38.5 419,-38.5"/>
<text text-anchor="middle" x="438" y="-45.5" font-family="Helvetica,sans-Serif" font-size="10.00">heat</text>
</a>
</g>
</g>
<!-- Node4&#45;&gt;Node5 -->
<g id="edge4" class="edge"><title>Node4&#45;&gt;Node5</title>
<path fill="none" stroke="midnightblue" d="M393.131,-48C401.988,-48 411.256,-48 418.98,-48"/>
<polygon fill="midnightblue" stroke="midnightblue" points="393.039,-44.5001 383.039,-48 393.039,-51.5001 393.039,-44.5001"/>
</g>
<!-- Node6 -->
<g id="node6" class="node"><title>Node6</title>
<g id="a_node6"><a xlink:href="drive1_8F90.html#ae177ea7efac97f35241521b782a671c0" target="_top" xlink:title="take a single time&#45;step ">
<polygon fill="white" stroke="black" points="493,-19.5 493,-38.5 573,-38.5 573,-19.5 493,-19.5"/>
<text text-anchor="middle" x="533" y="-26.5" font-family="Helvetica,sans-Serif" font-size="10.00">nek_advance</text>
</a>
</g>
</g>
<!-- Node5&#45;&gt;Node6 -->
<g id="edge5" class="edge"><title>Node5&#45;&gt;Node6</title>
<path fill="none" stroke="midnightblue" d="M467.362,-42.2055C475.415,-40.5604 484.328,-38.7395 492.897,-36.9889"/>
<polygon fill="midnightblue" stroke="midnightblue" points="466.471,-38.8153 457.374,-44.2462 467.872,-45.6736 466.471,-38.8153"/>
</g>
<!-- Node7 -->
<g id="node7" class="node"><title>Node7</title>
<g id="a_node7"><a xlink:href="drive1_8F90.html#a18d3e839786263fc4cf91f7eeb714371" target="_top" xlink:title="take a chunk of time&#45;steps ">
<polygon fill="white" stroke="black" points="609,-19.5 609,-38.5 722,-38.5 722,-19.5 609,-19.5"/>
<text text-anchor="middle" x="665.5" y="-26.5" font-family="Helvetica,sans-Serif" font-size="10.00">nek__multi_advance</text>
</a>
</g>
</g>
<!-- Node6&#45;&gt;Node7 -->
<g id="edge6" class="edge"><title>Node6&#45;&gt;Node7</title>
<path fill="none" stroke="midnightblue" d="M583.191,-29C591.607,-29 600.403,-29 608.97,-29"/>
<polygon fill="midnightblue" stroke="midnightblue" points="583.154,-25.5001 573.154,-29 583.154,-32.5001 583.154,-25.5001"/>
</g>
<!-- Node8 -->
<g id="node8" class="node"><title>Node8</title>
<g id="a_node8"><a xlink:href="drive1_8F90.html#a6ad57e0cf728f343e371ef8c9a02cd8a" target="_top" xlink:title="integrate the governing equations in time ">
<polygon fill="white" stroke="black" points="758,-19.5 758,-38.5 823,-38.5 823,-19.5 758,-19.5"/>
<text text-anchor="middle" x="790.5" y="-26.5" font-family="Helvetica,sans-Serif" font-size="10.00">nek_solve</text>
</a>
</g>
</g>
<!-- Node7&#45;&gt;Node8 -->
<g id="edge7" class="edge"><title>Node7&#45;&gt;Node8</title>
<path fill="none" stroke="midnightblue" d="M732.282,-29C741.164,-29 749.927,-29 757.824,-29"/>
<polygon fill="midnightblue" stroke="midnightblue" points="732.242,-25.5001 722.242,-29 732.242,-32.5001 732.242,-25.5001"/>
</g>
<!-- Node9 -->
<g id="node9" class="node"><title>Node9</title>
<g id="a_node9"><a xlink:href="drive_8F90.html#a13048bf28dd0734640412d69349e3857" target="_top" xlink:title="NEK5000: Spectral Element Computational Fluid Dynamics Solver COPYRIGHT (c) 2008&#45;2010 UCHICAGO ARGONN...">
<polygon fill="white" stroke="black" points="859,-19.5 859,-38.5 908,-38.5 908,-19.5 859,-19.5"/>
<text text-anchor="middle" x="883.5" y="-26.5" font-family="Helvetica,sans-Serif" font-size="10.00">nekton</text>
</a>
</g>
</g>
<!-- Node8&#45;&gt;Node9 -->
<g id="edge8" class="edge"><title>Node8&#45;&gt;Node9</title>
<path fill="none" stroke="midnightblue" d="M833.192,-29C841.953,-29 850.905,-29 858.734,-29"/>
<polygon fill="midnightblue" stroke="midnightblue" points="833.072,-25.5001 823.072,-29 833.072,-32.5001 833.072,-25.5001"/>
</g>
<!-- Node11 -->
<g id="node11" class="node"><title>Node11</title>
<g id="a_node11"><a xlink:href="drive2_8F90.html#ab0aeca9ad3db8be87a01ba29d069d71e" target="_top" xlink:title="Driver for solving the incompressible Navier&#45;Stokes equations. ">
<polygon fill="white" stroke="black" points="420.5,-0.5 420.5,-19.5 455.5,-19.5 455.5,-0.5 420.5,-0.5"/>
<text text-anchor="middle" x="438" y="-7.5" font-family="Helvetica,sans-Serif" font-size="10.00">fluid</text>
</a>
</g>
</g>
<!-- Node10&#45;&gt;Node11 -->
<g id="edge10" class="edge"><title>Node10&#45;&gt;Node11</title>
<path fill="none" stroke="midnightblue" d="M391.262,-10C401.086,-10 411.596,-10 420.061,-10"/>
<polygon fill="midnightblue" stroke="midnightblue" points="391.001,-6.5001 381.001,-10 391.001,-13.5001 391.001,-6.5001"/>
</g>
<!-- Node11&#45;&gt;Node6 -->
<g id="edge11" class="edge"><title>Node11&#45;&gt;Node6</title>
<path fill="none" stroke="midnightblue" d="M465.635,-15.4415C474.077,-17.1662 483.594,-19.1106 492.73,-20.9771"/>
<polygon fill="midnightblue" stroke="midnightblue" points="466.125,-11.9694 455.627,-13.3968 464.724,-18.8277 466.125,-11.9694"/>
</g>
</g>
</svg>
