<?xml version="1.0" encoding="UTF-8" standalone="no"?>
<!DOCTYPE svg PUBLIC "-//W3C//DTD SVG 1.1//EN"
 "http://www.w3.org/Graphics/SVG/1.1/DTD/svg11.dtd">
<!-- Generated by graphviz version 2.38.0 (20140413.2041)
 -->
<!-- Title: smalloc Pages: 1 -->
<svg width="303pt" height="66pt"
 viewBox="0.00 0.00 303.00 66.00" xmlns="http://www.w3.org/2000/svg" xmlns:xlink="http://www.w3.org/1999/xlink">
<g id="graph0" class="graph" transform="scale(1 1) rotate(0) translate(4 62)">
<title>smalloc</title>
<polygon fill="white" stroke="none" points="-4,4 -4,-62 299,-62 299,4 -4,4"/>
<!-- Node1 -->
<g id="node1" class="node"><title>Node1</title>
<polygon fill="#bfbfbf" stroke="black" points="0,-19.5 0,-38.5 52,-38.5 52,-19.5 0,-19.5"/>
<text text-anchor="middle" x="26" y="-26.5" font-family="Helvetica,sans-Serif" font-size="10.00">smalloc</text>
</g>
<!-- Node2 -->
<g id="node2" class="node"><title>Node2</title>
<g id="a_node2"><a xlink:href="fail_8c.html#a9e0caa24596d5da82c0d6e25260e2ef0" target="_top" xlink:title="fail">
<polygon fill="white" stroke="black" points="88,-19.5 88,-38.5 118,-38.5 118,-19.5 88,-19.5"/>
<text text-anchor="middle" x="103" y="-26.5" font-family="Helvetica,sans-Serif" font-size="10.00">fail</text>
</a>
</g>
</g>
<!-- Node1&#45;&gt;Node2 -->
<g id="edge1" class="edge"><title>Node1&#45;&gt;Node2</title>
<path fill="none" stroke="midnightblue" d="M52.3916,-29C60.4552,-29 69.3557,-29 77.3651,-29"/>
<polygon fill="midnightblue" stroke="midnightblue" points="77.5726,-32.5001 87.5725,-29 77.5725,-25.5001 77.5726,-32.5001"/>
</g>
<!-- Node3 -->
<g id="node3" class="node"><title>Node3</title>
<g id="a_node3"><a xlink:href="fail_8c.html#a016d8836ade99456457a913955d1dc3b" target="_top" xlink:title="vfail">
<polygon fill="white" stroke="black" points="154,-19.5 154,-38.5 189,-38.5 189,-19.5 154,-19.5"/>
<text text-anchor="middle" x="171.5" y="-26.5" font-family="Helvetica,sans-Serif" font-size="10.00">vfail</text>
</a>
</g>
</g>
<!-- Node2&#45;&gt;Node3 -->
<g id="edge2" class="edge"><title>Node2&#45;&gt;Node3</title>
<path fill="none" stroke="midnightblue" d="M118.103,-29C125.476,-29 134.753,-29 143.446,-29"/>
<polygon fill="midnightblue" stroke="midnightblue" points="143.59,-32.5001 153.59,-29 143.59,-25.5001 143.59,-32.5001"/>
</g>
<!-- Node4 -->
<g id="node4" class="node"><title>Node4</title>
<g id="a_node4"><a xlink:href="fail_8c.html#a6a96bcb04cc5efcd64cbeed06a292419" target="_top" xlink:title="die">
<polygon fill="white" stroke="black" points="244.5,-38.5 244.5,-57.5 275.5,-57.5 275.5,-38.5 244.5,-38.5"/>
<text text-anchor="middle" x="260" y="-45.5" font-family="Helvetica,sans-Serif" font-size="10.00">die</text>
</a>
</g>
</g>
<!-- Node3&#45;&gt;Node4 -->
<g id="edge3" class="edge"><title>Node3&#45;&gt;Node4</title>
<path fill="none" stroke="midnightblue" d="M189.178,-32.6634C202.057,-35.4922 220.067,-39.4483 234.571,-42.634"/>
<polygon fill="midnightblue" stroke="midnightblue" points="233.87,-46.0634 244.388,-44.7903 235.371,-39.2264 233.87,-46.0634"/>
</g>
<!-- Node5 -->
<g id="node5" class="node"><title>Node5</title>
<g id="a_node5"><a xlink:href="fail_8c.html#a92d8c60ba2ef526cc6aca428bc8770ce" target="_top" xlink:title="vdiagnostic">
<polygon fill="white" stroke="black" points="225,-0.5 225,-19.5 295,-19.5 295,-0.5 225,-0.5"/>
<text text-anchor="middle" x="260" y="-7.5" font-family="Helvetica,sans-Serif" font-size="10.00">vdiagnostic</text>
</a>
</g>
</g>
<!-- Node3&#45;&gt;Node5 -->
<g id="edge4" class="edge"><title>Node3&#45;&gt;Node5</title>
<path fill="none" stroke="midnightblue" d="M189.178,-25.3366C196.605,-23.7053 205.739,-21.699 214.922,-19.6818"/>
<polygon fill="midnightblue" stroke="midnightblue" points="215.812,-23.0699 224.828,-17.5059 214.31,-16.2329 215.812,-23.0699"/>
</g>
</g>
</svg>
