<?xml version="1.0" encoding="UTF-8" standalone="no"?>
<!DOCTYPE svg PUBLIC "-//W3C//DTD SVG 1.1//EN"
 "http://www.w3.org/Graphics/SVG/1.1/DTD/svg11.dtd">
<!-- Generated by graphviz version 2.38.0 (20140413.2041)
 -->
<!-- Title: array_resize_ Pages: 1 -->
<svg width="422pt" height="66pt"
 viewBox="0.00 0.00 422.00 66.00" xmlns="http://www.w3.org/2000/svg" xmlns:xlink="http://www.w3.org/1999/xlink">
<g id="graph0" class="graph" transform="scale(1 1) rotate(0) translate(4 62)">
<title>array_resize_</title>
<polygon fill="white" stroke="none" points="-4,4 -4,-62 418,-62 418,4 -4,4"/>
<!-- Node1 -->
<g id="node1" class="node"><title>Node1</title>
<polygon fill="#bfbfbf" stroke="black" points="0,-19.5 0,-38.5 82,-38.5 82,-19.5 0,-19.5"/>
<text text-anchor="middle" x="41" y="-26.5" font-family="Helvetica,sans-Serif" font-size="10.00">array_resize_</text>
</g>
<!-- Node2 -->
<g id="node2" class="node"><title>Node2</title>
<g id="a_node2"><a xlink:href="mem_8h.html#a26c5de30a903dc2bafdd27ecbdae07e5" target="_top" xlink:title="srealloc">
<polygon fill="white" stroke="black" points="118,-19.5 118,-38.5 171,-38.5 171,-19.5 118,-19.5"/>
<text text-anchor="middle" x="144.5" y="-26.5" font-family="Helvetica,sans-Serif" font-size="10.00">srealloc</text>
</a>
</g>
</g>
<!-- Node1&#45;&gt;Node2 -->
<g id="edge1" class="edge"><title>Node1&#45;&gt;Node2</title>
<path fill="none" stroke="midnightblue" d="M82.1155,-29C90.6091,-29 99.5189,-29 107.834,-29"/>
<polygon fill="midnightblue" stroke="midnightblue" points="107.973,-32.5001 117.973,-29 107.973,-25.5001 107.973,-32.5001"/>
</g>
<!-- Node3 -->
<g id="node3" class="node"><title>Node3</title>
<g id="a_node3"><a xlink:href="fail_8c.html#a9e0caa24596d5da82c0d6e25260e2ef0" target="_top" xlink:title="fail">
<polygon fill="white" stroke="black" points="207,-19.5 207,-38.5 237,-38.5 237,-19.5 207,-19.5"/>
<text text-anchor="middle" x="222" y="-26.5" font-family="Helvetica,sans-Serif" font-size="10.00">fail</text>
</a>
</g>
</g>
<!-- Node2&#45;&gt;Node3 -->
<g id="edge2" class="edge"><title>Node2&#45;&gt;Node3</title>
<path fill="none" stroke="midnightblue" d="M171.061,-29C179.39,-29 188.605,-29 196.828,-29"/>
<polygon fill="midnightblue" stroke="midnightblue" points="196.91,-32.5001 206.91,-29 196.91,-25.5001 196.91,-32.5001"/>
</g>
<!-- Node4 -->
<g id="node4" class="node"><title>Node4</title>
<g id="a_node4"><a xlink:href="fail_8c.html#a016d8836ade99456457a913955d1dc3b" target="_top" xlink:title="vfail">
<polygon fill="white" stroke="black" points="273,-19.5 273,-38.5 308,-38.5 308,-19.5 273,-19.5"/>
<text text-anchor="middle" x="290.5" y="-26.5" font-family="Helvetica,sans-Serif" font-size="10.00">vfail</text>
</a>
</g>
</g>
<!-- Node3&#45;&gt;Node4 -->
<g id="edge3" class="edge"><title>Node3&#45;&gt;Node4</title>
<path fill="none" stroke="midnightblue" d="M237.103,-29C244.476,-29 253.753,-29 262.446,-29"/>
<polygon fill="midnightblue" stroke="midnightblue" points="262.59,-32.5001 272.59,-29 262.59,-25.5001 262.59,-32.5001"/>
</g>
<!-- Node5 -->
<g id="node5" class="node"><title>Node5</title>
<g id="a_node5"><a xlink:href="fail_8c.html#a6a96bcb04cc5efcd64cbeed06a292419" target="_top" xlink:title="die">
<polygon fill="white" stroke="black" points="363.5,-38.5 363.5,-57.5 394.5,-57.5 394.5,-38.5 363.5,-38.5"/>
<text text-anchor="middle" x="379" y="-45.5" font-family="Helvetica,sans-Serif" font-size="10.00">die</text>
</a>
</g>
</g>
<!-- Node4&#45;&gt;Node5 -->
<g id="edge4" class="edge"><title>Node4&#45;&gt;Node5</title>
<path fill="none" stroke="midnightblue" d="M308.178,-32.6634C321.057,-35.4922 339.067,-39.4483 353.571,-42.634"/>
<polygon fill="midnightblue" stroke="midnightblue" points="352.87,-46.0634 363.388,-44.7903 354.371,-39.2264 352.87,-46.0634"/>
</g>
<!-- Node6 -->
<g id="node6" class="node"><title>Node6</title>
<g id="a_node6"><a xlink:href="fail_8c.html#a92d8c60ba2ef526cc6aca428bc8770ce" target="_top" xlink:title="vdiagnostic">
<polygon fill="white" stroke="black" points="344,-0.5 344,-19.5 414,-19.5 414,-0.5 344,-0.5"/>
<text text-anchor="middle" x="379" y="-7.5" font-family="Helvetica,sans-Serif" font-size="10.00">vdiagnostic</text>
</a>
</g>
</g>
<!-- Node4&#45;&gt;Node6 -->
<g id="edge5" class="edge"><title>Node4&#45;&gt;Node6</title>
<path fill="none" stroke="midnightblue" d="M308.178,-25.3366C315.605,-23.7053 324.739,-21.699 333.922,-19.6818"/>
<polygon fill="midnightblue" stroke="midnightblue" points="334.812,-23.0699 343.828,-17.5059 333.31,-16.2329 334.812,-23.0699"/>
</g>
</g>
</svg>
