<?xml version="1.0" encoding="UTF-8" standalone="no"?>
<!DOCTYPE svg PUBLIC "-//W3C//DTD SVG 1.1//EN"
 "http://www.w3.org/Graphics/SVG/1.1/DTD/svg11.dtd">
<!-- Generated by graphviz version 2.38.0 (20140413.2041)
 -->
<!-- Title: array_resize_ Pages: 1 -->
<svg width="372pt" height="66pt"
 viewBox="0.00 0.00 372.00 66.00" xmlns="http://www.w3.org/2000/svg" xmlns:xlink="http://www.w3.org/1999/xlink">
<g id="graph0" class="graph" transform="scale(1 1) rotate(0) translate(4 62)">
<title>array_resize_</title>
<polygon fill="white" stroke="none" points="-4,4 -4,-62 368,-62 368,4 -4,4"/>
<!-- Node1 -->
<g id="node1" class="node"><title>Node1</title>
<polygon fill="#bfbfbf" stroke="black" points="0,-19.5 0,-38.5 82,-38.5 82,-19.5 0,-19.5"/>
<text text-anchor="middle" x="41" y="-26.5" font-family="Helvetica,sans-Serif" font-size="10.00">array_resize_</text>
</g>
<!-- Node2 -->
<g id="node2" class="node"><title>Node2</title>
<g id="a_node2"><a xlink:href="mem_8h.html#ae8987de29908d81ee663ab67d4635dad" target="_top" xlink:title="array_reserve_">
<polygon fill="white" stroke="black" points="118,-19.5 118,-38.5 207,-38.5 207,-19.5 118,-19.5"/>
<text text-anchor="middle" x="162.5" y="-26.5" font-family="Helvetica,sans-Serif" font-size="10.00">array_reserve_</text>
</a>
</g>
</g>
<!-- Node1&#45;&gt;Node2 -->
<g id="edge1" class="edge"><title>Node1&#45;&gt;Node2</title>
<path fill="none" stroke="midnightblue" d="M92.3466,-29C100.873,-29 109.662,-29 117.995,-29"/>
<polygon fill="midnightblue" stroke="midnightblue" points="92.1242,-25.5001 82.1242,-29 92.1242,-32.5001 92.1242,-25.5001"/>
</g>
<!-- Node3 -->
<g id="node3" class="node"><title>Node3</title>
<g id="a_node3"><a xlink:href="mem_8h.html#af25cc60e366fa6bbaa4b4cd3fa24c159" target="_top" xlink:title="array_cat_">
<polygon fill="white" stroke="black" points="269.5,-38.5 269.5,-57.5 337.5,-57.5 337.5,-38.5 269.5,-38.5"/>
<text text-anchor="middle" x="303.5" y="-45.5" font-family="Helvetica,sans-Serif" font-size="10.00">array_cat_</text>
</a>
</g>
</g>
<!-- Node2&#45;&gt;Node3 -->
<g id="edge2" class="edge"><title>Node2&#45;&gt;Node3</title>
<path fill="none" stroke="midnightblue" d="M217.209,-36.3416C234.719,-38.735 253.641,-41.3215 269.203,-43.4486"/>
<polygon fill="midnightblue" stroke="midnightblue" points="217.481,-32.8462 207.099,-34.9596 216.533,-39.7817 217.481,-32.8462"/>
</g>
<!-- Node4 -->
<g id="node4" class="node"><title>Node4</title>
<g id="a_node4"><a xlink:href="sarray__transfer_8h.html#adc44e0c45eec7d8055ccc6cd6fb5f86b" target="_top" xlink:title="sarray_transfer_many">
<polygon fill="white" stroke="black" points="243,-0.5 243,-19.5 364,-19.5 364,-0.5 243,-0.5"/>
<text text-anchor="middle" x="303.5" y="-7.5" font-family="Helvetica,sans-Serif" font-size="10.00">sarray_transfer_many</text>
</a>
</g>
</g>
<!-- Node2&#45;&gt;Node4 -->
<g id="edge3" class="edge"><title>Node2&#45;&gt;Node4</title>
<path fill="none" stroke="midnightblue" d="M217.135,-21.6685C225.525,-20.5218 234.24,-19.3305 242.756,-18.1665"/>
<polygon fill="midnightblue" stroke="midnightblue" points="216.533,-18.2183 207.099,-23.0404 217.481,-25.1538 216.533,-18.2183"/>
</g>
</g>
</svg>
