<?xml version="1.0" encoding="UTF-8" standalone="no"?>
<!DOCTYPE svg PUBLIC "-//W3C//DTD SVG 1.1//EN"
 "http://www.w3.org/Graphics/SVG/1.1/DTD/svg11.dtd">
<!-- Generated by graphviz version 2.38.0 (20140413.2041)
 -->
<!-- Title: srealloc Pages: 1 -->
<svg width="461pt" height="66pt"
 viewBox="0.00 0.00 461.00 66.00" xmlns="http://www.w3.org/2000/svg" xmlns:xlink="http://www.w3.org/1999/xlink">
<g id="graph0" class="graph" transform="scale(1 1) rotate(0) translate(4 62)">
<title>srealloc</title>
<polygon fill="white" stroke="none" points="-4,4 -4,-62 457,-62 457,4 -4,4"/>
<!-- Node1 -->
<g id="node1" class="node"><title>Node1</title>
<polygon fill="#bfbfbf" stroke="black" points="0,-19.5 0,-38.5 53,-38.5 53,-19.5 0,-19.5"/>
<text text-anchor="middle" x="26.5" y="-26.5" font-family="Helvetica,sans-Serif" font-size="10.00">srealloc</text>
</g>
<!-- Node2 -->
<g id="node2" class="node"><title>Node2</title>
<g id="a_node2"><a xlink:href="mem_8h.html#af00024f2f513ee3aeb5c11ff7057626b" target="_top" xlink:title="array_resize_">
<polygon fill="white" stroke="black" points="89,-19.5 89,-38.5 171,-38.5 171,-19.5 89,-19.5"/>
<text text-anchor="middle" x="130" y="-26.5" font-family="Helvetica,sans-Serif" font-size="10.00">array_resize_</text>
</a>
</g>
</g>
<!-- Node1&#45;&gt;Node2 -->
<g id="edge1" class="edge"><title>Node1&#45;&gt;Node2</title>
<path fill="none" stroke="midnightblue" d="M63.1998,-29C71.4698,-29 80.3261,-29 88.7752,-29"/>
<polygon fill="midnightblue" stroke="midnightblue" points="63.1128,-25.5001 53.1127,-29 63.1127,-32.5001 63.1128,-25.5001"/>
</g>
<!-- Node3 -->
<g id="node3" class="node"><title>Node3</title>
<g id="a_node3"><a xlink:href="mem_8h.html#ae8987de29908d81ee663ab67d4635dad" target="_top" xlink:title="array_reserve_">
<polygon fill="white" stroke="black" points="207,-19.5 207,-38.5 296,-38.5 296,-19.5 207,-19.5"/>
<text text-anchor="middle" x="251.5" y="-26.5" font-family="Helvetica,sans-Serif" font-size="10.00">array_reserve_</text>
</a>
</g>
</g>
<!-- Node2&#45;&gt;Node3 -->
<g id="edge2" class="edge"><title>Node2&#45;&gt;Node3</title>
<path fill="none" stroke="midnightblue" d="M181.347,-29C189.873,-29 198.662,-29 206.995,-29"/>
<polygon fill="midnightblue" stroke="midnightblue" points="181.124,-25.5001 171.124,-29 181.124,-32.5001 181.124,-25.5001"/>
</g>
<!-- Node4 -->
<g id="node4" class="node"><title>Node4</title>
<g id="a_node4"><a xlink:href="mem_8h.html#af25cc60e366fa6bbaa4b4cd3fa24c159" target="_top" xlink:title="array_cat_">
<polygon fill="white" stroke="black" points="358.5,-38.5 358.5,-57.5 426.5,-57.5 426.5,-38.5 358.5,-38.5"/>
<text text-anchor="middle" x="392.5" y="-45.5" font-family="Helvetica,sans-Serif" font-size="10.00">array_cat_</text>
</a>
</g>
</g>
<!-- Node3&#45;&gt;Node4 -->
<g id="edge3" class="edge"><title>Node3&#45;&gt;Node4</title>
<path fill="none" stroke="midnightblue" d="M306.209,-36.3416C323.719,-38.735 342.641,-41.3215 358.203,-43.4486"/>
<polygon fill="midnightblue" stroke="midnightblue" points="306.481,-32.8462 296.099,-34.9596 305.533,-39.7817 306.481,-32.8462"/>
</g>
<!-- Node5 -->
<g id="node5" class="node"><title>Node5</title>
<g id="a_node5"><a xlink:href="sarray__transfer_8h.html#adc44e0c45eec7d8055ccc6cd6fb5f86b" target="_top" xlink:title="sarray_transfer_many">
<polygon fill="white" stroke="black" points="332,-0.5 332,-19.5 453,-19.5 453,-0.5 332,-0.5"/>
<text text-anchor="middle" x="392.5" y="-7.5" font-family="Helvetica,sans-Serif" font-size="10.00">sarray_transfer_many</text>
</a>
</g>
</g>
<!-- Node3&#45;&gt;Node5 -->
<g id="edge4" class="edge"><title>Node3&#45;&gt;Node5</title>
<path fill="none" stroke="midnightblue" d="M306.135,-21.6685C314.525,-20.5218 323.24,-19.3305 331.756,-18.1665"/>
<polygon fill="midnightblue" stroke="midnightblue" points="305.533,-18.2183 296.099,-23.0404 306.481,-25.1538 305.533,-18.2183"/>
</g>
</g>
</svg>
