<?xml version="1.0" encoding="UTF-8" standalone="no"?>
<!DOCTYPE svg PUBLIC "-//W3C//DTD SVG 1.1//EN"
 "http://www.w3.org/Graphics/SVG/1.1/DTD/svg11.dtd">
<!-- Generated by graphviz version 2.38.0 (20140413.2041)
 -->
<!-- Title: mpi_send Pages: 1 -->
<!--zoomable 560 -->
<svg id="main" version="1.1" xmlns="http://www.w3.org/2000/svg" xmlns:xlink="http://www.w3.org/1999/xlink" xml:space="preserve" onload="init(evt)">
<style type="text/css"><![CDATA[
.edge:hover path { stroke: red; }
.edge:hover polygon { stroke: red; fill: red; }
]]></style>
<script type="text/javascript"><![CDATA[
var edges = document.getElementsByTagName('g');
if (edges && edges.length) {
  for (var i=0;i<edges.length;i++) {
    if (edges[i].id.substr(0,4)=='edge') {
      edges[i].setAttribute('class','edge');
    }
  }
}
]]></script>
        <defs>
                <circle id="rim" cx="0" cy="0" r="7"/>
                <circle id="rim2" cx="0" cy="0" r="3.5"/>
                <g id="zoomPlus">
                        <use xlink:href="#rim" fill="#404040">
                                <set attributeName="fill" to="#808080" begin="zoomplus.mouseover" end="zoomplus.mouseout"/>
                        </use>
                        <path d="M-4,0h8M0,-4v8" fill="none" stroke="white" stroke-width="1.5" pointer-events="none"/>
                </g>
                <g id="zoomMin">
                        <use xlink:href="#rim" fill="#404040">
                                <set attributeName="fill" to="#808080" begin="zoomminus.mouseover" end="zoomminus.mouseout"/>
                        </use>
                        <path d="M-4,0h8" fill="none" stroke="white" stroke-width="1.5" pointer-events="none"/>
                </g>
                <g id="dirArrow">
                        <path fill="none" stroke="white" stroke-width="1.5" d="M0,-3.0v7 M-2.5,-0.5L0,-3.0L2.5,-0.5"/>
                </g>
               <g id="resetDef">
                       <use xlink:href="#rim2" fill="#404040">
                               <set attributeName="fill" to="#808080" begin="reset.mouseover" end="reset.mouseout"/>
                       </use>
               </g>
        </defs>

<script type="text/javascript">
var viewWidth = 1589;
var viewHeight = 560;
var sectionId = 'dynsection-32';
</script>
<script xlink:href="svgpan.js"/>
<svg id="graph" class="graph">
<g id="viewport">
<title>mpi_send</title>
<polygon fill="white" stroke="none" points="-4,4 -4,-556 1585,-556 1585,4 -4,4"/>
<!-- Node1 -->
<g id="node1" class="node"><title>Node1</title>
<polygon fill="#bfbfbf" stroke="black" points="0,-266.5 0,-285.5 62,-285.5 62,-266.5 0,-266.5"/>
<text text-anchor="middle" x="31" y="-273.5" font-family="Helvetica,sans-Serif" font-size="10.00">mpi_send</text>
</g>
<!-- Node2 -->
<g id="node2" class="node"><title>Node2</title>
<g id="a_node2"><a xlink:href="comm__mpi_8F90.html#abd95004b45059acdcc13614c52e60eae" target="_top" xlink:title="csend">
<polygon fill="white" stroke="black" points="98,-266.5 98,-285.5 143,-285.5 143,-266.5 98,-266.5"/>
<text text-anchor="middle" x="120.5" y="-273.5" font-family="Helvetica,sans-Serif" font-size="10.00">csend</text>
</a>
</g>
</g>
<!-- Node1&#45;&gt;Node2 -->
<g id="edge1" class="edge"><title>Node1&#45;&gt;Node2</title>
<path fill="none" stroke="midnightblue" d="M72.2998,-276C81.1255,-276 90.1397,-276 97.8936,-276"/>
<polygon fill="midnightblue" stroke="midnightblue" points="72.1126,-272.5 62.1125,-276 72.1125,-279.5 72.1126,-272.5"/>
</g>
<!-- Node3 -->
<g id="node3" class="node"><title>Node3</title>
<g id="a_node3"><a xlink:href="ic_8F90.html#a46a0ff5dd0a6f10aa39215385ba21288" target="_top" xlink:title="mapdmp">
<polygon fill="white" stroke="black" points="207.5,-304.5 207.5,-323.5 264.5,-323.5 264.5,-304.5 207.5,-304.5"/>
<text text-anchor="middle" x="236" y="-311.5" font-family="Helvetica,sans-Serif" font-size="10.00">mapdmp</text>
</a>
</g>
</g>
<!-- Node2&#45;&gt;Node3 -->
<g id="edge2" class="edge"><title>Node2&#45;&gt;Node3</title>
<path fill="none" stroke="midnightblue" d="M152.689,-286.442C169.828,-292.18 190.9,-299.235 207.432,-304.77"/>
<polygon fill="midnightblue" stroke="midnightblue" points="153.709,-283.093 143.116,-283.237 151.487,-289.731 153.709,-283.093"/>
</g>
<!-- Node8 -->
<g id="node8" class="node"><title>Node8</title>
<g id="a_node8"><a xlink:href="map2_8F90.html#a0a8afb6d7507567621f35bbc8ba36e2c" target="_top" xlink:title="mapelpr">
<polygon fill="white" stroke="black" points="527.5,-447.5 527.5,-466.5 582.5,-466.5 582.5,-447.5 527.5,-447.5"/>
<text text-anchor="middle" x="555" y="-454.5" font-family="Helvetica,sans-Serif" font-size="10.00">mapelpr</text>
</a>
</g>
</g>
<!-- Node2&#45;&gt;Node8 -->
<g id="edge7" class="edge"><title>Node2&#45;&gt;Node8</title>
<path fill="none" stroke="midnightblue" d="M121.415,-295.944C122.466,-332.838 130.61,-411.231 179,-447 233.991,-487.648 451.105,-468.337 527.354,-460.085"/>
<polygon fill="midnightblue" stroke="midnightblue" points="124.914,-295.872 121.28,-285.92 117.915,-295.967 124.914,-295.872"/>
</g>
<!-- Node10 -->
<g id="node10" class="node"><title>Node10</title>
<g id="a_node10"><a xlink:href="prepost_8F90.html#a11cc22eaaef2974cda6a66817880cc13" target="_top" xlink:title="mfo_mdatas">
<polygon fill="white" stroke="black" points="199,-76.5 199,-95.5 273,-95.5 273,-76.5 199,-76.5"/>
<text text-anchor="middle" x="236" y="-83.5" font-family="Helvetica,sans-Serif" font-size="10.00">mfo_mdatas</text>
</a>
</g>
</g>
<!-- Node2&#45;&gt;Node10 -->
<g id="edge10" class="edge"><title>Node2&#45;&gt;Node10</title>
<path fill="none" stroke="midnightblue" d="M122.636,-255.925C125.71,-220.587 137.073,-147.042 179,-105 184.437,-99.5479 191.495,-95.6597 198.757,-92.8868"/>
<polygon fill="midnightblue" stroke="midnightblue" points="119.113,-256.117 121.88,-266.344 126.095,-256.624 119.113,-256.117"/>
</g>
<!-- Node12 -->
<g id="node12" class="node"><title>Node12</title>
<g id="a_node12"><a xlink:href="prepost_8F90.html#a78b0361cf9ff06bfe5020c2114ddc924" target="_top" xlink:title="output .fld file ">
<polygon fill="white" stroke="black" points="433.5,-152.5 433.5,-171.5 475.5,-171.5 475.5,-152.5 433.5,-152.5"/>
<text text-anchor="middle" x="454.5" y="-159.5" font-family="Helvetica,sans-Serif" font-size="10.00">outfld</text>
</a>
</g>
</g>
<!-- Node2&#45;&gt;Node12 -->
<g id="edge51" class="edge"><title>Node2&#45;&gt;Node12</title>
<path fill="none" stroke="midnightblue" d="M123.904,-256.284C130.143,-208.787 148.518,-90.2284 179,-67 266.843,-0.0608926 405.278,-117.174 443.46,-152.425"/>
<polygon fill="midnightblue" stroke="midnightblue" points="120.426,-255.89 122.638,-266.252 127.371,-256.773 120.426,-255.89"/>
</g>
<!-- Node25 -->
<g id="node25" class="node"><title>Node25</title>
<g id="a_node25"><a xlink:href="prepost_8F90.html#a604e4beb6bdb81fa2e0633e1233bc1fe" target="_top" xlink:title="mfo_mdatav">
<polygon fill="white" stroke="black" points="199,-228.5 199,-247.5 273,-247.5 273,-228.5 199,-228.5"/>
<text text-anchor="middle" x="236" y="-235.5" font-family="Helvetica,sans-Serif" font-size="10.00">mfo_mdatav</text>
</a>
</g>
</g>
<!-- Node2&#45;&gt;Node25 -->
<g id="edge31" class="edge"><title>Node2&#45;&gt;Node25</title>
<path fill="none" stroke="midnightblue" d="M153.021,-265.447C169.81,-259.826 190.298,-252.966 206.593,-247.511"/>
<polygon fill="midnightblue" stroke="midnightblue" points="151.487,-262.269 143.116,-268.763 153.709,-268.907 151.487,-262.269"/>
</g>
<!-- Node26 -->
<g id="node26" class="node"><title>Node26</title>
<g id="a_node26"><a xlink:href="prepost_8F90.html#a719f53cbe469f5bf99a53892de48af29" target="_top" xlink:title="output a scalar field ">
<polygon fill="white" stroke="black" points="206.5,-190.5 206.5,-209.5 265.5,-209.5 265.5,-190.5 206.5,-190.5"/>
<text text-anchor="middle" x="236" y="-197.5" font-family="Helvetica,sans-Serif" font-size="10.00">mfo_outs</text>
</a>
</g>
</g>
<!-- Node2&#45;&gt;Node26 -->
<g id="edge33" class="edge"><title>Node2&#45;&gt;Node26</title>
<path fill="none" stroke="midnightblue" d="M135.596,-258.239C146.331,-245.747 162.101,-229.456 179,-219 187.294,-213.868 197.144,-209.929 206.253,-207.003"/>
<polygon fill="midnightblue" stroke="midnightblue" points="132.713,-256.233 129.017,-266.163 138.098,-260.705 132.713,-256.233"/>
</g>
<!-- Node27 -->
<g id="node27" class="node"><title>Node27</title>
<g id="a_node27"><a xlink:href="prepost_8F90.html#a3f8a4c9fa971a0386d313d4c79e111f7" target="_top" xlink:title="output a vector field ">
<polygon fill="white" stroke="black" points="206.5,-152.5 206.5,-171.5 265.5,-171.5 265.5,-152.5 206.5,-152.5"/>
<text text-anchor="middle" x="236" y="-159.5" font-family="Helvetica,sans-Serif" font-size="10.00">mfo_outv</text>
</a>
</g>
</g>
<!-- Node2&#45;&gt;Node27 -->
<g id="edge35" class="edge"><title>Node2&#45;&gt;Node27</title>
<path fill="none" stroke="midnightblue" d="M128.445,-256.778C137.116,-235.373 153.929,-201.142 179,-181 186.844,-174.699 196.888,-170.437 206.3,-167.578"/>
<polygon fill="midnightblue" stroke="midnightblue" points="125.068,-255.809 124.746,-266.399 131.601,-258.321 125.068,-255.809"/>
</g>
<!-- Node28 -->
<g id="node28" class="node"><title>Node28</title>
<g id="a_node28"><a xlink:href="classio.html#a3b8dab7279564c05e092b8194f166d8b" target="_top" xlink:title="Read header and return number of elements and word size. ">
<polygon fill="white" stroke="black" points="179,-380.5 179,-399.5 293,-399.5 293,-380.5 179,-380.5"/>
<text text-anchor="middle" x="236" y="-387.5" font-family="Helvetica,sans-Serif" font-size="10.00">io::mfo_read_header</text>
</a>
</g>
</g>
<!-- Node2&#45;&gt;Node28 -->
<g id="edge37" class="edge"><title>Node2&#45;&gt;Node28</title>
<path fill="none" stroke="midnightblue" d="M128.445,-295.222C137.116,-316.627 153.929,-350.858 179,-371 183.802,-374.858 189.429,-377.951 195.231,-380.426"/>
<polygon fill="midnightblue" stroke="midnightblue" points="131.601,-293.679 124.746,-285.601 125.068,-296.191 131.601,-293.679"/>
</g>
<!-- Node30 -->
<g id="node30" class="node"><title>Node30</title>
<g id="a_node30"><a xlink:href="classio.html#a758050a046c3323706e227872dc0bddf" target="_top" xlink:title="Read a scalar field. ">
<polygon fill="white" stroke="black" points="181.5,-342.5 181.5,-361.5 290.5,-361.5 290.5,-342.5 181.5,-342.5"/>
<text text-anchor="middle" x="236" y="-349.5" font-family="Helvetica,sans-Serif" font-size="10.00">io::mfo_read_scalar</text>
</a>
</g>
</g>
<!-- Node2&#45;&gt;Node30 -->
<g id="edge40" class="edge"><title>Node2&#45;&gt;Node30</title>
<path fill="none" stroke="midnightblue" d="M135.596,-293.761C146.331,-306.253 162.101,-322.544 179,-333 185.111,-336.781 192.068,-339.915 198.95,-342.473"/>
<polygon fill="midnightblue" stroke="midnightblue" points="138.098,-291.295 129.017,-285.837 132.713,-295.767 138.098,-291.295"/>
</g>
<!-- Node31 -->
<g id="node31" class="node"><title>Node31</title>
<g id="a_node31"><a xlink:href="classio.html#a73b31838c25a62a2d22ccd660b5f26bb" target="_top" xlink:title="Read a vector field. ">
<polygon fill="white" stroke="black" points="181,-418.5 181,-437.5 291,-437.5 291,-418.5 181,-418.5"/>
<text text-anchor="middle" x="236" y="-425.5" font-family="Helvetica,sans-Serif" font-size="10.00">io::mfo_read_vector</text>
</a>
</g>
</g>
<!-- Node2&#45;&gt;Node31 -->
<g id="edge42" class="edge"><title>Node2&#45;&gt;Node31</title>
<path fill="none" stroke="midnightblue" d="M124.797,-295.621C130.647,-324.442 145.532,-378.137 179,-409 183.227,-412.897 188.284,-415.999 193.606,-418.466"/>
<polygon fill="midnightblue" stroke="midnightblue" points="128.197,-294.759 122.923,-285.57 121.316,-296.042 128.197,-294.759"/>
</g>
<!-- Node32 -->
<g id="node32" class="node"><title>Node32</title>
<g id="a_node32"><a xlink:href="prepost_8F90.html#add41841b0b73cf28554519f93a59c688" target="_top" xlink:title="write hdr, byte key, els. ">
<polygon fill="white" stroke="black" points="194,-114.5 194,-133.5 278,-133.5 278,-114.5 194,-114.5"/>
<text text-anchor="middle" x="236" y="-121.5" font-family="Helvetica,sans-Serif" font-size="10.00">mfo_write_hdr</text>
</a>
</g>
</g>
<!-- Node2&#45;&gt;Node32 -->
<g id="edge44" class="edge"><title>Node2&#45;&gt;Node32</title>
<path fill="none" stroke="midnightblue" d="M124.797,-256.379C130.647,-227.558 145.532,-173.863 179,-143 183.302,-139.033 188.465,-135.89 193.891,-133.402"/>
<polygon fill="midnightblue" stroke="midnightblue" points="121.316,-255.958 122.923,-266.43 128.197,-257.241 121.316,-255.958"/>
</g>
<!-- Node33 -->
<g id="node33" class="node"><title>Node33</title>
<g id="a_node33"><a xlink:href="byte__mpi_8F90.html#a462fe2d9aa30417eddfb192c3b1f1ad4" target="_top" xlink:title="nek_comm_io">
<polygon fill="white" stroke="black" points="631,-532.5 631,-551.5 713,-551.5 713,-532.5 631,-532.5"/>
<text text-anchor="middle" x="672" y="-539.5" font-family="Helvetica,sans-Serif" font-size="10.00">nek_comm_io</text>
</a>
</g>
</g>
<!-- Node2&#45;&gt;Node33 -->
<g id="edge46" class="edge"><title>Node2&#45;&gt;Node33</title>
<path fill="none" stroke="midnightblue" d="M123.345,-295.692C128.659,-347.916 145.782,-488.003 179,-518 239.39,-572.534 279.131,-542 360.5,-542 360.5,-542 360.5,-542 455.5,-542 516.671,-542 587.608,-542 630.885,-542"/>
<polygon fill="midnightblue" stroke="midnightblue" points="126.824,-295.304 122.365,-285.693 119.857,-295.987 126.824,-295.304"/>
</g>
<!-- Node35 -->
<g id="node35" class="node"><title>Node35</title>
<g id="a_node35"><a xlink:href="drive2_8F90.html#ae3e6cc31f5e6b6b2b5062d80ca77519f" target="_top" xlink:title="init opcounter ">
<polygon fill="white" stroke="black" points="931,-477.5 931,-496.5 985,-496.5 985,-477.5 931,-477.5"/>
<text text-anchor="middle" x="958" y="-484.5" font-family="Helvetica,sans-Serif" font-size="10.00">opcount</text>
</a>
</g>
</g>
<!-- Node2&#45;&gt;Node35 -->
<g id="edge49" class="edge"><title>Node2&#45;&gt;Node35</title>
<path fill="none" stroke="midnightblue" d="M120.849,-295.792C120.694,-336.007 126.505,-427.399 179,-474 240.145,-528.279 278.739,-504 360.5,-504 360.5,-504 360.5,-504 775.5,-504 831.043,-504 895.732,-496.01 930.923,-490.986"/>
<polygon fill="midnightblue" stroke="midnightblue" points="124.35,-295.737 121.023,-285.678 117.351,-295.616 124.35,-295.737"/>
</g>
<!-- Node36 -->
<g id="node36" class="node"><title>Node36</title>
<g id="a_node36"><a xlink:href="prepost_8F90.html#aca7eb901ff58b9cec8124535b09c4dc3" target="_top" xlink:title="output time history info. ">
<polygon fill="white" stroke="black" points="432.5,-228.5 432.5,-247.5 476.5,-247.5 476.5,-228.5 432.5,-228.5"/>
<text text-anchor="middle" x="454.5" y="-235.5" font-family="Helvetica,sans-Serif" font-size="10.00">outhis</text>
</a>
</g>
</g>
<!-- Node2&#45;&gt;Node36 -->
<g id="edge52" class="edge"><title>Node2&#45;&gt;Node36</title>
<path fill="none" stroke="midnightblue" d="M153.543,-272.523C188.001,-268.766 244.392,-262.57 293,-257 343.039,-251.266 401.815,-244.232 432.474,-240.54"/>
<polygon fill="midnightblue" stroke="midnightblue" points="152.727,-269.091 143.164,-273.653 153.484,-276.05 152.727,-269.091"/>
</g>
<!-- Node37 -->
<g id="node37" class="node"><title>Node37</title>
<g id="a_node37"><a xlink:href="drive2_8F90.html#a584c9fb49aa78285ef4b39ab8bb9014c" target="_top" xlink:title="pretty&#45;print from runstat ">
<polygon fill="white" stroke="black" points="331.5,-0.5 331.5,-19.5 391.5,-19.5 391.5,-0.5 331.5,-0.5"/>
<text text-anchor="middle" x="361.5" y="-7.5" font-family="Helvetica,sans-Serif" font-size="10.00">pprint_all</text>
</a>
</g>
</g>
<!-- Node2&#45;&gt;Node37 -->
<g id="edge54" class="edge"><title>Node2&#45;&gt;Node37</title>
<path fill="none" stroke="midnightblue" d="M123.345,-256.308C128.659,-204.084 145.782,-63.9971 179,-34 220.754,3.70538 291.535,0.744312 331.243,-4.67391"/>
<polygon fill="midnightblue" stroke="midnightblue" points="119.857,-256.013 122.365,-266.307 126.824,-256.696 119.857,-256.013"/>
</g>
<!-- Node4 -->
<g id="node4" class="node"><title>Node4</title>
<g id="a_node4"><a xlink:href="ic_8F90.html#af64028aefb1dff2a9f8a84ff024f44b0" target="_top" xlink:title="driver for restarts (1) Open restart file(s) (2) Check previous spatial discretization (3) Map (K1...">
<polygon fill="white" stroke="black" points="515,-333.5 515,-352.5 595,-352.5 595,-333.5 515,-333.5"/>
<text text-anchor="middle" x="555" y="-340.5" font-family="Helvetica,sans-Serif" font-size="10.00">restart_driver</text>
</a>
</g>
</g>
<!-- Node3&#45;&gt;Node4 -->
<g id="edge3" class="edge"><title>Node3&#45;&gt;Node4</title>
<path fill="none" stroke="midnightblue" d="M274.834,-317.461C335.368,-322.999 453.407,-333.798 514.796,-339.414"/>
<polygon fill="midnightblue" stroke="midnightblue" points="274.854,-313.948 264.577,-316.523 274.217,-320.919 274.854,-313.948"/>
</g>
<!-- Node5 -->
<g id="node5" class="node"><title>Node5</title>
<g id="a_node5"><a xlink:href="ic_8F90.html#acaefa33e86633e4a7a4b28347d4620d1" target="_top" xlink:title="Set initial conditions. ">
<polygon fill="white" stroke="black" points="1166,-383.5 1166,-402.5 1210,-402.5 1210,-383.5 1166,-383.5"/>
<text text-anchor="middle" x="1188" y="-390.5" font-family="Helvetica,sans-Serif" font-size="10.00">setics</text>
</a>
</g>
</g>
<!-- Node4&#45;&gt;Node5 -->
<g id="edge4" class="edge"><title>Node4&#45;&gt;Node5</title>
<path fill="none" stroke="midnightblue" d="M605.421,-346.568C649.485,-349.44 715.759,-353 773.5,-353 773.5,-353 773.5,-353 959,-353 1036.16,-353 1125.83,-375.5 1165.84,-386.75"/>
<polygon fill="midnightblue" stroke="midnightblue" points="605.477,-343.064 595.267,-345.892 605.013,-350.048 605.477,-343.064"/>
</g>
<!-- Node6 -->
<g id="node6" class="node"><title>Node6</title>
<g id="a_node6"><a xlink:href="drive1_8F90.html#a87bd37ae2c18426f28f35cc3f24e4355" target="_top" xlink:title="initialize nek ">
<polygon fill="white" stroke="black" points="1437,-364.5 1437,-383.5 1490,-383.5 1490,-364.5 1437,-364.5"/>
<text text-anchor="middle" x="1463.5" y="-371.5" font-family="Helvetica,sans-Serif" font-size="10.00">nek_init</text>
</a>
</g>
</g>
<!-- Node5&#45;&gt;Node6 -->
<g id="edge5" class="edge"><title>Node5&#45;&gt;Node6</title>
<path fill="none" stroke="midnightblue" d="M1220.1,-390.839C1274.58,-387.055 1386.23,-379.298 1436.71,-375.792"/>
<polygon fill="midnightblue" stroke="midnightblue" points="1219.74,-387.356 1210.01,-391.541 1220.23,-394.339 1219.74,-387.356"/>
</g>
<!-- Node7 -->
<g id="node7" class="node"><title>Node7</title>
<g id="a_node7"><a xlink:href="drive_8F90.html#a13048bf28dd0734640412d69349e3857" target="_top" xlink:title="NEK5000: Spectral Element Computational Fluid Dynamics Solver COPYRIGHT (c) 2008&#45;2010 UCHICAGO ARGONN...">
<polygon fill="white" stroke="black" points="1532,-200.5 1532,-219.5 1581,-219.5 1581,-200.5 1532,-200.5"/>
<text text-anchor="middle" x="1556.5" y="-207.5" font-family="Helvetica,sans-Serif" font-size="10.00">nekton</text>
</a>
</g>
</g>
<!-- Node6&#45;&gt;Node7 -->
<g id="edge6" class="edge"><title>Node6&#45;&gt;Node7</title>
<path fill="none" stroke="midnightblue" d="M1475.02,-355.046C1494.52,-319.902 1535.63,-245.814 1550.22,-219.511"/>
<polygon fill="midnightblue" stroke="midnightblue" points="1471.71,-353.79 1469.92,-364.232 1477.83,-357.186 1471.71,-353.79"/>
</g>
<!-- Node9 -->
<g id="node9" class="node"><title>Node9</title>
<g id="a_node9"><a xlink:href="connect2_8F90.html#a842357ad1d3581135ffacc57139397d2" target="_top" xlink:title="Read in data from preprocessor input file (.rea) ">
<polygon fill="white" stroke="black" points="751,-440.5 751,-459.5 798,-459.5 798,-440.5 751,-440.5"/>
<text text-anchor="middle" x="774.5" y="-447.5" font-family="Helvetica,sans-Serif" font-size="10.00">readat</text>
</a>
</g>
</g>
<!-- Node8&#45;&gt;Node9 -->
<g id="edge8" class="edge"><title>Node8&#45;&gt;Node9</title>
<path fill="none" stroke="midnightblue" d="M592.941,-455.811C638.199,-454.355 713.459,-451.932 750.903,-450.727"/>
<polygon fill="midnightblue" stroke="midnightblue" points="592.552,-452.322 582.67,-456.142 592.777,-459.318 592.552,-452.322"/>
</g>
<!-- Node9&#45;&gt;Node6 -->
<g id="edge9" class="edge"><title>Node9&#45;&gt;Node6</title>
<path fill="none" stroke="midnightblue" d="M808.064,-444.812C844.315,-439.495 904.692,-432 957,-432 957,-432 957,-432 1189,-432 1281.87,-432 1304.98,-419.827 1395,-397 1409.28,-393.379 1424.87,-388.154 1437.47,-383.6"/>
<polygon fill="midnightblue" stroke="midnightblue" points="807.435,-441.368 798.065,-446.314 808.474,-448.29 807.435,-441.368"/>
</g>
<!-- Node11 -->
<g id="node11" class="node"><title>Node11</title>
<g id="a_node11"><a xlink:href="prepost_8F90.html#a9872fbccba1ed7b2932227287629cf2b" target="_top" xlink:title="mult&#45;file output ">
<polygon fill="white" stroke="black" points="329,-152.5 329,-171.5 394,-171.5 394,-152.5 329,-152.5"/>
<text text-anchor="middle" x="361.5" y="-159.5" font-family="Helvetica,sans-Serif" font-size="10.00">mfo_outfld</text>
</a>
</g>
</g>
<!-- Node10&#45;&gt;Node11 -->
<g id="edge11" class="edge"><title>Node10&#45;&gt;Node11</title>
<path fill="none" stroke="midnightblue" d="M281.377,-99.3056C285.396,-101.03 289.329,-102.927 293,-105 316.237,-118.126 339.07,-139.741 351.313,-152.242"/>
<polygon fill="midnightblue" stroke="midnightblue" points="282.52,-95.9941 271.933,-95.5956 279.961,-102.509 282.52,-95.9941"/>
</g>
<!-- Node11&#45;&gt;Node12 -->
<g id="edge12" class="edge"><title>Node11&#45;&gt;Node12</title>
<path fill="none" stroke="midnightblue" d="M404.091,-162C414.275,-162 424.721,-162 433.37,-162"/>
<polygon fill="midnightblue" stroke="midnightblue" points="404.072,-158.5 394.072,-162 404.072,-165.5 404.072,-158.5"/>
</g>
<!-- Node13 -->
<g id="node13" class="node"><title>Node13</title>
<g id="a_node13"><a xlink:href="prepost_8F90.html#a4a3b0e4ce35b3381281c0839e5846370" target="_top" xlink:title="Store results for later postprocessing. Recent updates: p65 now indicates the number of parallel i/o ...">
<polygon fill="white" stroke="black" points="528.5,-191.5 528.5,-210.5 581.5,-210.5 581.5,-191.5 528.5,-191.5"/>
<text text-anchor="middle" x="555" y="-198.5" font-family="Helvetica,sans-Serif" font-size="10.00">prepost</text>
</a>
</g>
</g>
<!-- Node12&#45;&gt;Node13 -->
<g id="edge13" class="edge"><title>Node12&#45;&gt;Node13</title>
<path fill="none" stroke="midnightblue" d="M485.281,-173.792C499.523,-179.43 516.352,-186.094 529.792,-191.415"/>
<polygon fill="midnightblue" stroke="midnightblue" points="486.495,-170.508 475.909,-170.081 483.919,-177.016 486.495,-170.508"/>
</g>
<!-- Node14 -->
<g id="node14" class="node"><title>Node14</title>
<g id="a_node14"><a xlink:href="drive1_8F90.html#a6ad57e0cf728f343e371ef8c9a02cd8a" target="_top" xlink:title="integrate the governing equations in time ">
<polygon fill="white" stroke="black" points="1431,-200.5 1431,-219.5 1496,-219.5 1496,-200.5 1431,-200.5"/>
<text text-anchor="middle" x="1463.5" y="-207.5" font-family="Helvetica,sans-Serif" font-size="10.00">nek_solve</text>
</a>
</g>
</g>
<!-- Node13&#45;&gt;Node14 -->
<g id="edge14" class="edge"><title>Node13&#45;&gt;Node14</title>
<path fill="none" stroke="midnightblue" d="M591.753,-198.348C634.832,-195.385 709.42,-191 773.5,-191 773.5,-191 773.5,-191 1189,-191 1276.82,-191 1380.11,-200.869 1430.96,-206.382"/>
<polygon fill="midnightblue" stroke="midnightblue" points="591.493,-194.857 581.763,-199.048 591.983,-201.84 591.493,-194.857"/>
</g>
<!-- Node15 -->
<g id="node15" class="node"><title>Node15</title>
<g id="a_node15"><a xlink:href="prepost_8F90.html#aaf4c0f2e1790302116a4c719c2eb50ff" target="_top" xlink:title="outpost2">
<polygon fill="white" stroke="black" points="643.5,-238.5 643.5,-257.5 700.5,-257.5 700.5,-238.5 643.5,-238.5"/>
<text text-anchor="middle" x="672" y="-245.5" font-family="Helvetica,sans-Serif" font-size="10.00">outpost2</text>
</a>
</g>
</g>
<!-- Node13&#45;&gt;Node15 -->
<g id="edge16" class="edge"><title>Node13&#45;&gt;Node15</title>
<path fill="none" stroke="midnightblue" d="M588.607,-214.326C607.324,-221.976 630.402,-231.408 647.368,-238.342"/>
<polygon fill="midnightblue" stroke="midnightblue" points="589.853,-211.055 579.272,-210.511 587.205,-217.534 589.853,-211.055"/>
</g>
<!-- Node14&#45;&gt;Node7 -->
<g id="edge15" class="edge"><title>Node14&#45;&gt;Node7</title>
<path fill="none" stroke="midnightblue" d="M1506.19,-210C1514.95,-210 1523.9,-210 1531.73,-210"/>
<polygon fill="midnightblue" stroke="midnightblue" points="1506.07,-206.5 1496.07,-210 1506.07,-213.5 1506.07,-206.5"/>
</g>
<!-- Node16 -->
<g id="node16" class="node"><title>Node16</title>
<g id="a_node16"><a xlink:href="prepost_8F90.html#aacb528c0b28bc79dff8db48d7ae9ac64" target="_top" xlink:title="outpost">
<polygon fill="white" stroke="black" points="749,-240.5 749,-259.5 800,-259.5 800,-240.5 749,-240.5"/>
<text text-anchor="middle" x="774.5" y="-247.5" font-family="Helvetica,sans-Serif" font-size="10.00">outpost</text>
</a>
</g>
</g>
<!-- Node15&#45;&gt;Node16 -->
<g id="edge17" class="edge"><title>Node15&#45;&gt;Node16</title>
<path fill="none" stroke="midnightblue" d="M711.056,-248.757C723.752,-249.01 737.554,-249.285 748.945,-249.511"/>
<polygon fill="midnightblue" stroke="midnightblue" points="710.796,-245.252 700.728,-248.552 710.656,-252.25 710.796,-245.252"/>
</g>
<!-- Node17 -->
<g id="node17" class="node"><title>Node17</title>
<g id="a_node17"><a xlink:href="coef_8F90.html#ad01cc61ba84d488e68ca9e259c592465" target="_top" xlink:title="Routine to generate mapping data based on mesh 1 (Gauss&#45;Legendre Lobatto meshes). ...">
<polygon fill="white" stroke="black" points="836,-245.5 836,-264.5 895,-264.5 895,-245.5 836,-245.5"/>
<text text-anchor="middle" x="865.5" y="-252.5" font-family="Helvetica,sans-Serif" font-size="10.00">glmapm1</text>
</a>
</g>
</g>
<!-- Node16&#45;&gt;Node17 -->
<g id="edge18" class="edge"><title>Node16&#45;&gt;Node17</title>
<path fill="none" stroke="midnightblue" d="M810.533,-251.968C818.89,-252.438 827.715,-252.933 835.752,-253.385"/>
<polygon fill="midnightblue" stroke="midnightblue" points="810.472,-248.459 800.291,-251.393 810.079,-255.448 810.472,-248.459"/>
</g>
<!-- Node18 -->
<g id="node18" class="node"><title>Node18</title>
<g id="a_node18"><a xlink:href="coef_8F90.html#ac5d2ac0efba4a530fab5387321307d01" target="_top" xlink:title="Routine to generate all elemental geometric data for mesh 1. Velocity formulation : global&#45;to&#45;local m...">
<polygon fill="white" stroke="black" points="933.5,-248.5 933.5,-267.5 982.5,-267.5 982.5,-248.5 933.5,-248.5"/>
<text text-anchor="middle" x="958" y="-255.5" font-family="Helvetica,sans-Serif" font-size="10.00">geom1</text>
</a>
</g>
</g>
<!-- Node17&#45;&gt;Node18 -->
<g id="edge19" class="edge"><title>Node17&#45;&gt;Node18</title>
<path fill="none" stroke="midnightblue" d="M905.277,-256.285C914.843,-256.603 924.803,-256.933 933.399,-257.218"/>
<polygon fill="midnightblue" stroke="midnightblue" points="905.245,-252.783 895.135,-255.949 905.013,-259.779 905.245,-252.783"/>
</g>
<!-- Node19 -->
<g id="node19" class="node"><title>Node19</title>
<g id="a_node19"><a xlink:href="drive2_8F90.html#aefc07385d7e7539fb57662470f694136" target="_top" xlink:title="Generate geometry data. ">
<polygon fill="white" stroke="black" points="1027,-248.5 1027,-267.5 1088,-267.5 1088,-248.5 1027,-248.5"/>
<text text-anchor="middle" x="1057.5" y="-255.5" font-family="Helvetica,sans-Serif" font-size="10.00">gengeom</text>
</a>
</g>
</g>
<!-- Node18&#45;&gt;Node19 -->
<g id="edge20" class="edge"><title>Node18&#45;&gt;Node19</title>
<path fill="none" stroke="midnightblue" d="M992.786,-258C1003.86,-258 1016.08,-258 1026.82,-258"/>
<polygon fill="midnightblue" stroke="midnightblue" points="992.602,-254.5 982.602,-258 992.602,-261.5 992.602,-254.5"/>
</g>
<!-- Node22 -->
<g id="node22" class="node"><title>Node22</title>
<g id="a_node22"><a xlink:href="ic_8F90.html#aaf47b255d1cfac3451a8473ee6876b4f" target="_top" xlink:title="Generate geometry data. ">
<polygon fill="white" stroke="black" points="1021,-304.5 1021,-323.5 1094,-323.5 1094,-304.5 1021,-304.5"/>
<text text-anchor="middle" x="1057.5" y="-311.5" font-family="Helvetica,sans-Serif" font-size="10.00">geom_reset</text>
</a>
</g>
</g>
<!-- Node18&#45;&gt;Node22 -->
<g id="edge25" class="edge"><title>Node18&#45;&gt;Node22</title>
<path fill="none" stroke="midnightblue" d="M985.035,-272.954C1002.38,-282.918 1024.67,-295.721 1039.71,-304.357"/>
<polygon fill="midnightblue" stroke="midnightblue" points="986.398,-269.7 975.983,-267.754 982.911,-275.77 986.398,-269.7"/>
</g>
<!-- Node19&#45;&gt;Node6 -->
<g id="edge24" class="edge"><title>Node19&#45;&gt;Node6</title>
<path fill="none" stroke="midnightblue" d="M1098.4,-253.333C1164.32,-247.516 1298.3,-243.841 1395,-295 1425.46,-311.113 1448.04,-347.158 1457.55,-364.424"/>
<polygon fill="midnightblue" stroke="midnightblue" points="1097.67,-249.886 1088.04,-254.315 1098.33,-256.855 1097.67,-249.886"/>
</g>
<!-- Node20 -->
<g id="node20" class="node"><title>Node20</title>
<g id="a_node20"><a xlink:href="drive1_8F90.html#ae177ea7efac97f35241521b782a671c0" target="_top" xlink:title="take a single time&#45;step ">
<polygon fill="white" stroke="black" points="1148,-219.5 1148,-238.5 1228,-238.5 1228,-219.5 1148,-219.5"/>
<text text-anchor="middle" x="1188" y="-226.5" font-family="Helvetica,sans-Serif" font-size="10.00">nek_advance</text>
</a>
</g>
</g>
<!-- Node19&#45;&gt;Node20 -->
<g id="edge21" class="edge"><title>Node19&#45;&gt;Node20</title>
<path fill="none" stroke="midnightblue" d="M1098.24,-249.031C1113.95,-245.487 1131.95,-241.424 1147.62,-237.888"/>
<polygon fill="midnightblue" stroke="midnightblue" points="1097.29,-245.658 1088.3,-251.274 1098.83,-252.487 1097.29,-245.658"/>
</g>
<!-- Node21 -->
<g id="node21" class="node"><title>Node21</title>
<g id="a_node21"><a xlink:href="drive1_8F90.html#a18d3e839786263fc4cf91f7eeb714371" target="_top" xlink:title="take a chunk of time&#45;steps ">
<polygon fill="white" stroke="black" points="1282,-219.5 1282,-238.5 1395,-238.5 1395,-219.5 1282,-219.5"/>
<text text-anchor="middle" x="1338.5" y="-226.5" font-family="Helvetica,sans-Serif" font-size="10.00">nek__multi_advance</text>
</a>
</g>
</g>
<!-- Node20&#45;&gt;Node21 -->
<g id="edge22" class="edge"><title>Node20&#45;&gt;Node21</title>
<path fill="none" stroke="midnightblue" d="M1238.41,-229C1252.38,-229 1267.68,-229 1281.99,-229"/>
<polygon fill="midnightblue" stroke="midnightblue" points="1238.02,-225.5 1228.02,-229 1238.02,-232.5 1238.02,-225.5"/>
</g>
<!-- Node21&#45;&gt;Node14 -->
<g id="edge23" class="edge"><title>Node21&#45;&gt;Node14</title>
<path fill="none" stroke="midnightblue" d="M1405.28,-218.839C1414.16,-217.466 1422.93,-216.113 1430.82,-214.893"/>
<polygon fill="midnightblue" stroke="midnightblue" points="1404.59,-215.404 1395.24,-220.389 1405.66,-222.322 1404.59,-215.404"/>
</g>
<!-- Node22&#45;&gt;Node5 -->
<g id="edge30" class="edge"><title>Node22&#45;&gt;Node5</title>
<path fill="none" stroke="midnightblue" d="M1081.29,-329.641C1085.56,-332.685 1089.95,-335.895 1094,-339 1110.53,-351.673 1112.21,-358.174 1130,-369 1141.28,-375.865 1154.88,-381.674 1165.97,-385.856"/>
<polygon fill="midnightblue" stroke="midnightblue" points="1083.05,-326.598 1072.86,-323.716 1079.03,-332.327 1083.05,-326.598"/>
</g>
<!-- Node22&#45;&gt;Node6 -->
<g id="edge29" class="edge"><title>Node22&#45;&gt;Node6</title>
<path fill="none" stroke="midnightblue" d="M1096.93,-326.581C1107.55,-329.703 1119.14,-332.786 1130,-335 1243.04,-358.058 1380.69,-368.806 1436.82,-372.471"/>
<polygon fill="midnightblue" stroke="midnightblue" points="1097.68,-323.152 1087.1,-323.602 1095.65,-329.851 1097.68,-323.152"/>
</g>
<!-- Node23 -->
<g id="node23" class="node"><title>Node23</title>
<g id="a_node23"><a xlink:href="classhsmg__routines.html#a91e8aa59d56bbf05d75aa9c48bcd8977" target="_top" xlink:title="Sets up Poisson preconditioner. ">
<polygon fill="white" stroke="black" points="1130,-296 1130,-326 1246,-326 1246,-296 1130,-296"/>
<text text-anchor="start" x="1138" y="-314" font-family="Helvetica,sans-Serif" font-size="10.00">hsmg_routines::h1mg</text>
<text text-anchor="middle" x="1188" y="-303" font-family="Helvetica,sans-Serif" font-size="10.00">_setup</text>
</a>
</g>
</g>
<!-- Node22&#45;&gt;Node23 -->
<g id="edge26" class="edge"><title>Node22&#45;&gt;Node23</title>
<path fill="none" stroke="midnightblue" d="M1104.41,-312.928C1112.61,-312.737 1121.25,-312.535 1129.72,-312.337"/>
<polygon fill="midnightblue" stroke="midnightblue" points="1104.21,-309.432 1094.29,-313.164 1104.37,-316.43 1104.21,-309.432"/>
</g>
<!-- Node24 -->
<g id="node24" class="node"><title>Node24</title>
<g id="a_node24"><a xlink:href="navier6_8F90.html#a45317b1def173b8f1db2e5083595d095" target="_top" xlink:title="Set up arrays for overlapping Schwartz algorithm for pressure solver ">
<polygon fill="white" stroke="black" points="1302.5,-304.5 1302.5,-323.5 1374.5,-323.5 1374.5,-304.5 1302.5,-304.5"/>
<text text-anchor="middle" x="1338.5" y="-311.5" font-family="Helvetica,sans-Serif" font-size="10.00">set_overlap</text>
</a>
</g>
</g>
<!-- Node23&#45;&gt;Node24 -->
<g id="edge27" class="edge"><title>Node23&#45;&gt;Node24</title>
<path fill="none" stroke="midnightblue" d="M1256.65,-312.367C1272.36,-312.684 1288.47,-313.009 1302.13,-313.285"/>
<polygon fill="midnightblue" stroke="midnightblue" points="1256.48,-308.863 1246.41,-312.16 1256.34,-315.861 1256.48,-308.863"/>
</g>
<!-- Node24&#45;&gt;Node6 -->
<g id="edge28" class="edge"><title>Node24&#45;&gt;Node6</title>
<path fill="none" stroke="midnightblue" d="M1368.49,-328.091C1377.03,-332.245 1386.39,-336.803 1395,-341 1411.18,-348.891 1429.53,-357.864 1443.01,-364.459"/>
<polygon fill="midnightblue" stroke="midnightblue" points="1369.81,-324.839 1359.28,-323.613 1366.75,-331.134 1369.81,-324.839"/>
</g>
<!-- Node25&#45;&gt;Node11 -->
<g id="edge32" class="edge"><title>Node25&#45;&gt;Node11</title>
<path fill="none" stroke="midnightblue" d="M281.377,-224.694C285.396,-222.97 289.329,-221.073 293,-219 316.237,-205.874 339.07,-184.259 351.313,-171.758"/>
<polygon fill="midnightblue" stroke="midnightblue" points="279.961,-221.491 271.933,-228.404 282.52,-228.006 279.961,-221.491"/>
</g>
<!-- Node26&#45;&gt;Node11 -->
<g id="edge34" class="edge"><title>Node26&#45;&gt;Node11</title>
<path fill="none" stroke="midnightblue" d="M275.476,-188.161C292.826,-182.823 313.047,-176.601 329.415,-171.564"/>
<polygon fill="midnightblue" stroke="midnightblue" points="274.172,-184.9 265.644,-191.187 276.231,-191.591 274.172,-184.9"/>
</g>
<!-- Node27&#45;&gt;Node11 -->
<g id="edge36" class="edge"><title>Node27&#45;&gt;Node11</title>
<path fill="none" stroke="midnightblue" d="M275.883,-162C292.986,-162 312.815,-162 328.976,-162"/>
<polygon fill="midnightblue" stroke="midnightblue" points="275.644,-158.5 265.644,-162 275.644,-165.5 275.644,-158.5"/>
</g>
<!-- Node29 -->
<g id="node29" class="node"><title>Node29</title>
<g id="a_node29"><a xlink:href="classio.html#a8f8da23cfb175a121cf25557d58d1c98" target="_top" xlink:title="Load initial condition from a previous multi&#45;file output. ">
<polygon fill="white" stroke="black" points="330,-381.5 330,-400.5 393,-400.5 393,-381.5 330,-381.5"/>
<text text-anchor="middle" x="361.5" y="-388.5" font-family="Helvetica,sans-Serif" font-size="10.00">io::load_ic</text>
</a>
</g>
</g>
<!-- Node28&#45;&gt;Node29 -->
<g id="edge38" class="edge"><title>Node28&#45;&gt;Node29</title>
<path fill="none" stroke="midnightblue" d="M303.391,-390.538C312.65,-390.613 321.769,-390.686 329.909,-390.752"/>
<polygon fill="midnightblue" stroke="midnightblue" points="303.357,-387.037 293.329,-390.456 303.3,-394.037 303.357,-387.037"/>
</g>
<!-- Node29&#45;&gt;Node5 -->
<g id="edge39" class="edge"><title>Node29&#45;&gt;Node5</title>
<path fill="none" stroke="midnightblue" d="M403.364,-391.337C442.136,-391.627 502.033,-392 554,-392 554,-392 554,-392 959,-392 1035.2,-392 1125.72,-392.565 1165.94,-392.846"/>
<polygon fill="midnightblue" stroke="midnightblue" points="403.04,-387.834 393.013,-391.258 402.986,-394.834 403.04,-387.834"/>
</g>
<!-- Node30&#45;&gt;Node29 -->
<g id="edge41" class="edge"><title>Node30&#45;&gt;Node29</title>
<path fill="none" stroke="midnightblue" d="M277.028,-364.641C294.294,-370.093 314.156,-376.365 330.172,-381.423"/>
<polygon fill="midnightblue" stroke="midnightblue" points="277.801,-361.214 267.211,-361.54 275.693,-367.889 277.801,-361.214"/>
</g>
<!-- Node31&#45;&gt;Node29 -->
<g id="edge43" class="edge"><title>Node31&#45;&gt;Node29</title>
<path fill="none" stroke="midnightblue" d="M278.839,-415.465C295.484,-410.478 314.291,-404.844 329.657,-400.24"/>
<polygon fill="midnightblue" stroke="midnightblue" points="277.379,-412.249 268.804,-418.472 279.388,-418.954 277.379,-412.249"/>
</g>
<!-- Node32&#45;&gt;Node11 -->
<g id="edge45" class="edge"><title>Node32&#45;&gt;Node11</title>
<path fill="none" stroke="midnightblue" d="M277.74,-136.535C294.54,-141.705 313.697,-147.599 329.346,-152.414"/>
<polygon fill="midnightblue" stroke="midnightblue" points="278.751,-133.185 268.164,-133.589 276.693,-139.875 278.751,-133.185"/>
</g>
<!-- Node34 -->
<g id="node34" class="node"><title>Node34</title>
<g id="a_node34"><a xlink:href="prepost_8F90.html#abb385320698675796ad307a27f4855af" target="_top" xlink:title="io_init">
<polygon fill="white" stroke="black" points="843.5,-532.5 843.5,-551.5 887.5,-551.5 887.5,-532.5 843.5,-532.5"/>
<text text-anchor="middle" x="865.5" y="-539.5" font-family="Helvetica,sans-Serif" font-size="10.00">io_init</text>
</a>
</g>
</g>
<!-- Node33&#45;&gt;Node34 -->
<g id="edge47" class="edge"><title>Node33&#45;&gt;Node34</title>
<path fill="none" stroke="midnightblue" d="M723.283,-542C762.375,-542 814.636,-542 843.362,-542"/>
<polygon fill="midnightblue" stroke="midnightblue" points="723.145,-538.5 713.145,-542 723.145,-545.5 723.145,-538.5"/>
</g>
<!-- Node34&#45;&gt;Node6 -->
<g id="edge48" class="edge"><title>Node34&#45;&gt;Node6</title>
<path fill="none" stroke="midnightblue" d="M897.831,-537.47C935.433,-532.434 1000.44,-525 1056.5,-525 1056.5,-525 1056.5,-525 1189,-525 1282.81,-525 1318.09,-532.708 1395,-479 1430.36,-454.31 1451.53,-404.558 1459.21,-383.626"/>
<polygon fill="midnightblue" stroke="midnightblue" points="896.964,-534.056 887.532,-538.882 897.915,-540.991 896.964,-534.056"/>
</g>
<!-- Node35&#45;&gt;Node6 -->
<g id="edge50" class="edge"><title>Node35&#45;&gt;Node6</title>
<path fill="none" stroke="midnightblue" d="M995.254,-491.85C1073.04,-500.553 1259.87,-512.23 1395,-446 1423.93,-431.824 1446.77,-399.639 1456.86,-383.541"/>
<polygon fill="midnightblue" stroke="midnightblue" points="995.358,-488.338 985.018,-490.65 994.543,-495.29 995.358,-488.338"/>
</g>
<!-- Node36&#45;&gt;Node13 -->
<g id="edge53" class="edge"><title>Node36&#45;&gt;Node13</title>
<path fill="none" stroke="midnightblue" d="M486.288,-226.435C499.846,-221.342 515.587,-215.429 528.478,-210.587"/>
<polygon fill="midnightblue" stroke="midnightblue" points="485.004,-223.179 476.873,-229.972 487.465,-229.732 485.004,-223.179"/>
</g>
<!-- Node38 -->
<g id="node38" class="node"><title>Node38</title>
<g id="a_node38"><a xlink:href="drive2_8F90.html#a6637d27bdf1984d5964bd31465cd304a" target="_top" xlink:title="print run statistics from ctimer ">
<polygon fill="white" stroke="black" points="430,-57.5 430,-76.5 479,-76.5 479,-57.5 430,-57.5"/>
<text text-anchor="middle" x="454.5" y="-64.5" font-family="Helvetica,sans-Serif" font-size="10.00">runstat</text>
</a>
</g>
</g>
<!-- Node37&#45;&gt;Node38 -->
<g id="edge55" class="edge"><title>Node37&#45;&gt;Node38</title>
<path fill="none" stroke="midnightblue" d="M386.48,-25.0206C402.894,-35.3018 424.163,-48.6238 438.291,-57.4735"/>
<polygon fill="midnightblue" stroke="midnightblue" points="388.27,-22.0115 377.937,-19.6693 384.554,-27.9438 388.27,-22.0115"/>
</g>
<!-- Node39 -->
<g id="node39" class="node"><title>Node39</title>
<g id="a_node39"><a xlink:href="drive1_8F90.html#a10055f031c0ac540cc534ab2b0363206" target="_top" xlink:title="perform any end&#45;of&#45;run reporting ">
<polygon fill="white" stroke="black" points="643,-132.5 643,-151.5 701,-151.5 701,-132.5 643,-132.5"/>
<text text-anchor="middle" x="672" y="-139.5" font-family="Helvetica,sans-Serif" font-size="10.00">nek_end</text>
</a>
</g>
</g>
<!-- Node38&#45;&gt;Node39 -->
<g id="edge56" class="edge"><title>Node38&#45;&gt;Node39</title>
<path fill="none" stroke="midnightblue" d="M489.01,-78.6624C531.574,-93.476 604.217,-118.758 643.625,-132.473"/>
<polygon fill="midnightblue" stroke="midnightblue" points="489.98,-75.2943 479.386,-75.3129 487.68,-81.9054 489.98,-75.2943"/>
</g>
<!-- Node39&#45;&gt;Node7 -->
<g id="edge57" class="edge"><title>Node39&#45;&gt;Node7</title>
<path fill="none" stroke="midnightblue" d="M711.499,-143.915C750.161,-145.671 811.444,-148 864.5,-148 864.5,-148 864.5,-148 1339.5,-148 1414.6,-148 1498.89,-183.057 1536.09,-200.448"/>
<polygon fill="midnightblue" stroke="midnightblue" points="711.372,-140.405 701.22,-143.437 711.047,-147.398 711.372,-140.405"/>
</g>
</g>
</svg>
        <g id="navigator" transform="translate(0 0)" fill="#404254">
                <rect fill="#f2f5e9" fill-opacity="0.5" stroke="#606060" stroke-width=".5" x="0" y="0" width="60" height="60"/>
                <use id="zoomplus" xlink:href="#zoomPlus" x="17" y="9" onmousedown="handleZoom(evt,'in')"/>
                <use id="zoomminus" xlink:href="#zoomMin" x="42" y="9" onmousedown="handleZoom(evt,'out')"/>
                <use id="reset" xlink:href="#resetDef" x="30" y="36" onmousedown="handleReset()"/>
                <g id="arrowUp" xlink:href="#dirArrow" transform="translate(30 24)" onmousedown="handlePan(0,-1)">
                  <use xlink:href="#rim" fill="#404040">
                        <set attributeName="fill" to="#808080" begin="arrowUp.mouseover" end="arrowUp.mouseout"/>
                  </use>
                  <path fill="none" stroke="white" stroke-width="1.5" d="M0,-3.0v7 M-2.5,-0.5L0,-3.0L2.5,-0.5"/>
                </g>
                <g id="arrowRight" xlink:href="#dirArrow" transform="rotate(90) translate(36 -43)" onmousedown="handlePan(1,0)">
                  <use xlink:href="#rim" fill="#404040">
                        <set attributeName="fill" to="#808080" begin="arrowRight.mouseover" end="arrowRight.mouseout"/>
                  </use>
                  <path fill="none" stroke="white" stroke-width="1.5" d="M0,-3.0v7 M-2.5,-0.5L0,-3.0L2.5,-0.5"/>
                </g>
                <g id="arrowDown" xlink:href="#dirArrow" transform="rotate(180) translate(-30 -48)" onmousedown="handlePan(0,1)">
                  <use xlink:href="#rim" fill="#404040">
                        <set attributeName="fill" to="#808080" begin="arrowDown.mouseover" end="arrowDown.mouseout"/>
                  </use>
                  <path fill="none" stroke="white" stroke-width="1.5" d="M0,-3.0v7 M-2.5,-0.5L0,-3.0L2.5,-0.5"/>
                </g>
                <g id="arrowLeft" xlink:href="#dirArrow" transform="rotate(270) translate(-36 17)" onmousedown="handlePan(-1,0)">
                  <use xlink:href="#rim" fill="#404040">
                        <set attributeName="fill" to="#808080" begin="arrowLeft.mouseover" end="arrowLeft.mouseout"/>
                  </use>
                  <path fill="none" stroke="white" stroke-width="1.5" d="M0,-3.0v7 M-2.5,-0.5L0,-3.0L2.5,-0.5"/>
                </g>
        </g>
        <svg viewBox="0 0 15 15" width="100%" height="30px" preserveAspectRatio="xMaxYMin meet">
         <g id="arrow_out" transform="scale(0.3 0.3)">
          <a xlink:href="mpi__dummy_8F90_af98c20c7332635506f852083f7ee504a_icgraph_org.svg" target="_base">
           <rect id="button" ry="5" rx="5" y="6" x="6" height="38" width="38"
                fill="#f2f5e9" fill-opacity="0.5" stroke="#606060" stroke-width="1.0"/>
           <path id="arrow"
             d="M 11.500037,31.436501 C 11.940474,20.09759 22.043105,11.32322 32.158766,21.979434 L 37.068811,17.246167 C 37.068811,17.246167 37.088388,32 37.088388,32 L 22.160133,31.978069 C 22.160133,31.978069 26.997745,27.140456 26.997745,27.140456 C 18.528582,18.264221 13.291696,25.230495 11.500037,31.436501 z"
             style="fill:#404040;"/>
          </a>
         </g>
        </svg>
</svg>
