<?xml version="1.0" encoding="UTF-8" standalone="no"?>
<!DOCTYPE svg PUBLIC "-//W3C//DTD SVG 1.1//EN"
 "http://www.w3.org/Graphics/SVG/1.1/DTD/svg11.dtd">
<!-- Generated by graphviz version 2.38.0 (20140413.2041)
 -->
<!-- Title: mpi_comm_split Pages: 1 -->
<svg width="1769pt" height="66pt"
 viewBox="0.00 0.00 1769.00 66.00" xmlns="http://www.w3.org/2000/svg" xmlns:xlink="http://www.w3.org/1999/xlink">
<g id="graph0" class="graph" transform="scale(1 1) rotate(0) translate(4 62)">
<title>mpi_comm_split</title>
<polygon fill="white" stroke="none" points="-4,4 -4,-62 1765,-62 1765,4 -4,4"/>
<!-- Node1 -->
<g id="node1" class="node"><title>Node1</title>
<polygon fill="#bfbfbf" stroke="black" points="0,-19.5 0,-38.5 92,-38.5 92,-19.5 0,-19.5"/>
<text text-anchor="middle" x="46" y="-26.5" font-family="Helvetica,sans-Serif" font-size="10.00">mpi_comm_split</text>
</g>
<!-- Node2 -->
<g id="node2" class="node"><title>Node2</title>
<g id="a_node2"><a xlink:href="classpoisson.html#ace48c9eb09141b029fd923de91c5cbbc" target="_top" xlink:title="one&#45;time setup of communication infrastructure for poisson_mod ">
<polygon fill="white" stroke="black" points="128,-14 128,-44 233,-44 233,-14 128,-14"/>
<text text-anchor="start" x="136" y="-32" font-family="Helvetica,sans-Serif" font-size="10.00">poisson::init_comm</text>
<text text-anchor="middle" x="180.5" y="-21" font-family="Helvetica,sans-Serif" font-size="10.00">_infrastructure</text>
</a>
</g>
</g>
<!-- Node1&#45;&gt;Node2 -->
<g id="edge1" class="edge"><title>Node1&#45;&gt;Node2</title>
<path fill="none" stroke="midnightblue" d="M102.305,-29C110.694,-29 119.325,-29 127.637,-29"/>
<polygon fill="midnightblue" stroke="midnightblue" points="102.228,-25.5001 92.2284,-29 102.228,-32.5001 102.228,-25.5001"/>
</g>
<!-- Node3 -->
<g id="node3" class="node"><title>Node3</title>
<g id="a_node3"><a xlink:href="classpoisson.html#a1ab874c434e5694003e378739fb98c65" target="_top" xlink:title="poisson::spectral_solve">
<polygon fill="white" stroke="black" points="269,-19.5 269,-38.5 395,-38.5 395,-19.5 269,-19.5"/>
<text text-anchor="middle" x="332" y="-26.5" font-family="Helvetica,sans-Serif" font-size="10.00">poisson::spectral_solve</text>
</a>
</g>
</g>
<!-- Node2&#45;&gt;Node3 -->
<g id="edge2" class="edge"><title>Node2&#45;&gt;Node3</title>
<path fill="none" stroke="midnightblue" d="M243.484,-29C251.892,-29 260.522,-29 268.931,-29"/>
<polygon fill="midnightblue" stroke="midnightblue" points="243.368,-25.5001 233.368,-29 243.368,-32.5001 243.368,-25.5001"/>
</g>
<!-- Node4 -->
<g id="node4" class="node"><title>Node4</title>
<g id="a_node4"><a xlink:href="classhsmg__routines.html#adb1f241321c99f913f53fefefee82c09" target="_top" xlink:title="hsmg_routines::hsmg\l_coarse_solve">
<polygon fill="white" stroke="black" points="431,-14 431,-44 547,-44 547,-14 431,-14"/>
<text text-anchor="start" x="439" y="-32" font-family="Helvetica,sans-Serif" font-size="10.00">hsmg_routines::hsmg</text>
<text text-anchor="middle" x="489" y="-21" font-family="Helvetica,sans-Serif" font-size="10.00">_coarse_solve</text>
</a>
</g>
</g>
<!-- Node3&#45;&gt;Node4 -->
<g id="edge3" class="edge"><title>Node3&#45;&gt;Node4</title>
<path fill="none" stroke="midnightblue" d="M405.192,-29C413.801,-29 422.498,-29 430.855,-29"/>
<polygon fill="midnightblue" stroke="midnightblue" points="405.151,-25.5001 395.151,-29 405.151,-32.5001 405.151,-25.5001"/>
</g>
<!-- Node5 -->
<g id="node5" class="node"><title>Node5</title>
<g id="a_node5"><a xlink:href="classhsmg__routines.html#abaa25315b11254629ed79c12c169c52f" target="_top" xlink:title="Solve preconditioner: z = M rhs, where . ">
<polygon fill="white" stroke="black" points="583,-14 583,-44 699,-44 699,-14 583,-14"/>
<text text-anchor="start" x="591" y="-32" font-family="Helvetica,sans-Serif" font-size="10.00">hsmg_routines::h1mg</text>
<text text-anchor="middle" x="641" y="-21" font-family="Helvetica,sans-Serif" font-size="10.00">_solve</text>
</a>
</g>
</g>
<!-- Node4&#45;&gt;Node5 -->
<g id="edge4" class="edge"><title>Node4&#45;&gt;Node5</title>
<path fill="none" stroke="midnightblue" d="M557.311,-29C565.728,-29 574.277,-29 582.525,-29"/>
<polygon fill="midnightblue" stroke="midnightblue" points="557.137,-25.5001 547.136,-29 557.136,-32.5001 557.137,-25.5001"/>
</g>
<!-- Node6 -->
<g id="node6" class="node"><title>Node6</title>
<g id="a_node6"><a xlink:href="gmres_8F90.html#a377d8578c6ccd4fddffb699c7a18f603" target="_top" xlink:title="Solve the Helmholtz equation by right&#45;preconditioned GMRES iteration. ">
<polygon fill="white" stroke="black" points="735,-19.5 735,-38.5 807,-38.5 807,-19.5 735,-19.5"/>
<text text-anchor="middle" x="771" y="-26.5" font-family="Helvetica,sans-Serif" font-size="10.00">hmh_gmres</text>
</a>
</g>
</g>
<!-- Node5&#45;&gt;Node6 -->
<g id="edge5" class="edge"><title>Node5&#45;&gt;Node6</title>
<path fill="none" stroke="midnightblue" d="M709.521,-29C718.26,-29 726.911,-29 734.82,-29"/>
<polygon fill="midnightblue" stroke="midnightblue" points="709.261,-25.5001 699.261,-29 709.261,-32.5001 709.261,-25.5001"/>
</g>
<!-- Node7 -->
<g id="node7" class="node"><title>Node7</title>
<g id="a_node7"><a xlink:href="hmholtz_8F90.html#a8734f3cc2d37d6a2ccd1daa8db57513d" target="_top" xlink:title="Solve the Helmholtz equation, H*U = RHS, using preconditioned conjugate gradient iteration. Preconditioner: diag(H). ">
<polygon fill="white" stroke="black" points="843,-19.5 843,-38.5 883,-38.5 883,-19.5 843,-19.5"/>
<text text-anchor="middle" x="863" y="-26.5" font-family="Helvetica,sans-Serif" font-size="10.00">cggo</text>
</a>
</g>
</g>
<!-- Node6&#45;&gt;Node7 -->
<g id="edge6" class="edge"><title>Node6&#45;&gt;Node7</title>
<path fill="none" stroke="midnightblue" d="M817.165,-29C826.185,-29 835.197,-29 842.75,-29"/>
<polygon fill="midnightblue" stroke="midnightblue" points="817.054,-25.5001 807.054,-29 817.054,-32.5001 817.054,-25.5001"/>
</g>
<!-- Node8 -->
<g id="node8" class="node"><title>Node8</title>
<g id="a_node8"><a xlink:href="hmholtz_8F90.html#a52dcac1fe733719d4987d36aac022e4d" target="_top" xlink:title="hmholtz">
<polygon fill="white" stroke="black" points="943,-38.5 943,-57.5 996,-57.5 996,-38.5 943,-38.5"/>
<text text-anchor="middle" x="969.5" y="-45.5" font-family="Helvetica,sans-Serif" font-size="10.00">hmholtz</text>
</a>
</g>
</g>
<!-- Node7&#45;&gt;Node8 -->
<g id="edge7" class="edge"><title>Node7&#45;&gt;Node8</title>
<path fill="none" stroke="midnightblue" d="M893.301,-34.3274C908.85,-37.1545 927.782,-40.5968 942.761,-43.3201"/>
<polygon fill="midnightblue" stroke="midnightblue" points="893.632,-30.8303 883.167,-32.4849 892.379,-37.7174 893.632,-30.8303"/>
</g>
<!-- Node18 -->
<g id="node18" class="node"><title>Node18</title>
<g id="a_node18"><a xlink:href="classhelmholtz.html#ae307c08c70cdc6428553cb85ce68cbbb" target="_top" xlink:title="helmholtz::hmhzpf">
<polygon fill="white" stroke="black" points="919,-0.5 919,-19.5 1020,-19.5 1020,-0.5 919,-0.5"/>
<text text-anchor="middle" x="969.5" y="-7.5" font-family="Helvetica,sans-Serif" font-size="10.00">helmholtz::hmhzpf</text>
</a>
</g>
</g>
<!-- Node7&#45;&gt;Node18 -->
<g id="edge18" class="edge"><title>Node7&#45;&gt;Node18</title>
<path fill="none" stroke="midnightblue" d="M893.13,-23.7036C901.176,-22.2407 910.138,-20.6112 918.995,-19.001"/>
<polygon fill="midnightblue" stroke="midnightblue" points="892.379,-20.2826 883.167,-25.5151 893.632,-27.1697 892.379,-20.2826"/>
</g>
<!-- Node9 -->
<g id="node9" class="node"><title>Node9</title>
<g id="a_node9"><a xlink:href="classhelmholtz.html#abf98ad104d11790462e9f07b3fa91848" target="_top" xlink:title="Either std. Helmholtz solve, or a projection + Helmholtz solve. ">
<polygon fill="white" stroke="black" points="1056,-19.5 1056,-38.5 1153,-38.5 1153,-19.5 1056,-19.5"/>
<text text-anchor="middle" x="1104.5" y="-26.5" font-family="Helvetica,sans-Serif" font-size="10.00">helmholtz::hsolve</text>
</a>
</g>
</g>
<!-- Node8&#45;&gt;Node9 -->
<g id="edge8" class="edge"><title>Node8&#45;&gt;Node9</title>
<path fill="none" stroke="midnightblue" d="M1006.21,-42.899C1021.46,-40.7197 1039.49,-38.144 1055.86,-35.8058"/>
<polygon fill="midnightblue" stroke="midnightblue" points="1005.55,-39.4575 996.144,-44.3366 1006.54,-46.3871 1005.55,-39.4575"/>
</g>
<!-- Node10 -->
<g id="node10" class="node"><title>Node10</title>
<g id="a_node10"><a xlink:href="conduct_8F90.html#a74a7f053381975ed36df8ea959f3aa01" target="_top" xlink:title="Solve the convection&#45;diffusion equation for passive scalar IPSCAL. ">
<polygon fill="white" stroke="black" points="1189,-38.5 1189,-57.5 1236,-57.5 1236,-38.5 1189,-38.5"/>
<text text-anchor="middle" x="1212.5" y="-45.5" font-family="Helvetica,sans-Serif" font-size="10.00">cdscal</text>
</a>
</g>
</g>
<!-- Node9&#45;&gt;Node10 -->
<g id="edge9" class="edge"><title>Node9&#45;&gt;Node10</title>
<path fill="none" stroke="midnightblue" d="M1163.16,-39.3345C1172.28,-40.9709 1181.23,-42.5739 1188.89,-43.9475"/>
<polygon fill="midnightblue" stroke="midnightblue" points="1163.69,-35.8744 1153.23,-37.5551 1162.45,-42.7646 1163.69,-35.8744"/>
</g>
<!-- Node16 -->
<g id="node16" class="node"><title>Node16</title>
<g id="a_node16"><a xlink:href="plan4_8F90.html#a5cbf852b67e73bfa44e028338c4d57ad" target="_top" xlink:title="Splitting scheme . ">
<polygon fill="white" stroke="black" points="1191,-0.5 1191,-19.5 1234,-19.5 1234,-0.5 1191,-0.5"/>
<text text-anchor="middle" x="1212.5" y="-7.5" font-family="Helvetica,sans-Serif" font-size="10.00">plan4</text>
</a>
</g>
</g>
<!-- Node9&#45;&gt;Node16 -->
<g id="edge15" class="edge"><title>Node9&#45;&gt;Node16</title>
<path fill="none" stroke="midnightblue" d="M1163.15,-18.6664C1173.05,-16.8917 1182.73,-15.1561 1190.8,-13.7099"/>
<polygon fill="midnightblue" stroke="midnightblue" points="1162.45,-15.2354 1153.23,-20.4449 1163.69,-22.1256 1162.45,-15.2354"/>
</g>
<!-- Node11 -->
<g id="node11" class="node"><title>Node11</title>
<g id="a_node11"><a xlink:href="drive2_8F90.html#acce80cd37f20e9b52729eb52d86a9c86" target="_top" xlink:title="Driver for temperature or passive scalar. ">
<polygon fill="white" stroke="black" points="1272,-38.5 1272,-57.5 1310,-57.5 1310,-38.5 1272,-38.5"/>
<text text-anchor="middle" x="1291" y="-45.5" font-family="Helvetica,sans-Serif" font-size="10.00">heat</text>
</a>
</g>
</g>
<!-- Node10&#45;&gt;Node11 -->
<g id="edge10" class="edge"><title>Node10&#45;&gt;Node11</title>
<path fill="none" stroke="midnightblue" d="M1246.13,-48C1254.99,-48 1264.26,-48 1271.98,-48"/>
<polygon fill="midnightblue" stroke="midnightblue" points="1246.04,-44.5001 1236.04,-48 1246.04,-51.5001 1246.04,-44.5001"/>
</g>
<!-- Node12 -->
<g id="node12" class="node"><title>Node12</title>
<g id="a_node12"><a xlink:href="drive1_8F90.html#ae177ea7efac97f35241521b782a671c0" target="_top" xlink:title="take a single time&#45;step ">
<polygon fill="white" stroke="black" points="1346,-19.5 1346,-38.5 1426,-38.5 1426,-19.5 1346,-19.5"/>
<text text-anchor="middle" x="1386" y="-26.5" font-family="Helvetica,sans-Serif" font-size="10.00">nek_advance</text>
</a>
</g>
</g>
<!-- Node11&#45;&gt;Node12 -->
<g id="edge11" class="edge"><title>Node11&#45;&gt;Node12</title>
<path fill="none" stroke="midnightblue" d="M1320.36,-42.2055C1328.41,-40.5604 1337.33,-38.7395 1345.9,-36.9889"/>
<polygon fill="midnightblue" stroke="midnightblue" points="1319.47,-38.8153 1310.37,-44.2462 1320.87,-45.6736 1319.47,-38.8153"/>
</g>
<!-- Node13 -->
<g id="node13" class="node"><title>Node13</title>
<g id="a_node13"><a xlink:href="drive1_8F90.html#a18d3e839786263fc4cf91f7eeb714371" target="_top" xlink:title="take a chunk of time&#45;steps ">
<polygon fill="white" stroke="black" points="1462,-19.5 1462,-38.5 1575,-38.5 1575,-19.5 1462,-19.5"/>
<text text-anchor="middle" x="1518.5" y="-26.5" font-family="Helvetica,sans-Serif" font-size="10.00">nek__multi_advance</text>
</a>
</g>
</g>
<!-- Node12&#45;&gt;Node13 -->
<g id="edge12" class="edge"><title>Node12&#45;&gt;Node13</title>
<path fill="none" stroke="midnightblue" d="M1436.19,-29C1444.61,-29 1453.4,-29 1461.97,-29"/>
<polygon fill="midnightblue" stroke="midnightblue" points="1436.15,-25.5001 1426.15,-29 1436.15,-32.5001 1436.15,-25.5001"/>
</g>
<!-- Node14 -->
<g id="node14" class="node"><title>Node14</title>
<g id="a_node14"><a xlink:href="drive1_8F90.html#a6ad57e0cf728f343e371ef8c9a02cd8a" target="_top" xlink:title="integrate the governing equations in time ">
<polygon fill="white" stroke="black" points="1611,-19.5 1611,-38.5 1676,-38.5 1676,-19.5 1611,-19.5"/>
<text text-anchor="middle" x="1643.5" y="-26.5" font-family="Helvetica,sans-Serif" font-size="10.00">nek_solve</text>
</a>
</g>
</g>
<!-- Node13&#45;&gt;Node14 -->
<g id="edge13" class="edge"><title>Node13&#45;&gt;Node14</title>
<path fill="none" stroke="midnightblue" d="M1585.28,-29C1594.16,-29 1602.93,-29 1610.82,-29"/>
<polygon fill="midnightblue" stroke="midnightblue" points="1585.24,-25.5001 1575.24,-29 1585.24,-32.5001 1585.24,-25.5001"/>
</g>
<!-- Node15 -->
<g id="node15" class="node"><title>Node15</title>
<g id="a_node15"><a xlink:href="drive_8F90.html#a13048bf28dd0734640412d69349e3857" target="_top" xlink:title="NEK5000: Spectral Element Computational Fluid Dynamics Solver COPYRIGHT (c) 2008&#45;2010 UCHICAGO ARGONN...">
<polygon fill="white" stroke="black" points="1712,-19.5 1712,-38.5 1761,-38.5 1761,-19.5 1712,-19.5"/>
<text text-anchor="middle" x="1736.5" y="-26.5" font-family="Helvetica,sans-Serif" font-size="10.00">nekton</text>
</a>
</g>
</g>
<!-- Node14&#45;&gt;Node15 -->
<g id="edge14" class="edge"><title>Node14&#45;&gt;Node15</title>
<path fill="none" stroke="midnightblue" d="M1686.19,-29C1694.95,-29 1703.9,-29 1711.73,-29"/>
<polygon fill="midnightblue" stroke="midnightblue" points="1686.07,-25.5001 1676.07,-29 1686.07,-32.5001 1686.07,-25.5001"/>
</g>
<!-- Node17 -->
<g id="node17" class="node"><title>Node17</title>
<g id="a_node17"><a xlink:href="drive2_8F90.html#ab0aeca9ad3db8be87a01ba29d069d71e" target="_top" xlink:title="Driver for solving the incompressible Navier&#45;Stokes equations. ">
<polygon fill="white" stroke="black" points="1273.5,-0.5 1273.5,-19.5 1308.5,-19.5 1308.5,-0.5 1273.5,-0.5"/>
<text text-anchor="middle" x="1291" y="-7.5" font-family="Helvetica,sans-Serif" font-size="10.00">fluid</text>
</a>
</g>
</g>
<!-- Node16&#45;&gt;Node17 -->
<g id="edge16" class="edge"><title>Node16&#45;&gt;Node17</title>
<path fill="none" stroke="midnightblue" d="M1244.26,-10C1254.09,-10 1264.6,-10 1273.06,-10"/>
<polygon fill="midnightblue" stroke="midnightblue" points="1244,-6.5001 1234,-10 1244,-13.5001 1244,-6.5001"/>
</g>
<!-- Node17&#45;&gt;Node12 -->
<g id="edge17" class="edge"><title>Node17&#45;&gt;Node12</title>
<path fill="none" stroke="midnightblue" d="M1318.63,-15.4415C1327.08,-17.1662 1336.59,-19.1106 1345.73,-20.9771"/>
<polygon fill="midnightblue" stroke="midnightblue" points="1319.12,-11.9694 1308.63,-13.3968 1317.72,-18.8277 1319.12,-11.9694"/>
</g>
<!-- Node18&#45;&gt;Node9 -->
<g id="edge19" class="edge"><title>Node18&#45;&gt;Node9</title>
<path fill="none" stroke="midnightblue" d="M1030.01,-18.5018C1038.61,-19.7303 1047.37,-20.9814 1055.7,-22.1716"/>
<polygon fill="midnightblue" stroke="midnightblue" points="1030.42,-15.0244 1020.02,-17.0749 1029.43,-21.954 1030.42,-15.0244"/>
</g>
</g>
</svg>
