<?xml version="1.0" encoding="UTF-8" standalone="no"?>
<!DOCTYPE svg PUBLIC "-//W3C//DTD SVG 1.1//EN"
 "http://www.w3.org/Graphics/SVG/1.1/DTD/svg11.dtd">
<!-- Generated by graphviz version 2.38.0 (20140413.2041)
 -->
<!-- Title: mpi_recv Pages: 1 -->
<!--zoomable 560 -->
<svg id="main" version="1.1" xmlns="http://www.w3.org/2000/svg" xmlns:xlink="http://www.w3.org/1999/xlink" xml:space="preserve" onload="init(evt)">
<style type="text/css"><![CDATA[
.edge:hover path { stroke: red; }
.edge:hover polygon { stroke: red; fill: red; }
]]></style>
<script type="text/javascript"><![CDATA[
var edges = document.getElementsByTagName('g');
if (edges && edges.length) {
  for (var i=0;i<edges.length;i++) {
    if (edges[i].id.substr(0,4)=='edge') {
      edges[i].setAttribute('class','edge');
    }
  }
}
]]></script>
        <defs>
                <circle id="rim" cx="0" cy="0" r="7"/>
                <circle id="rim2" cx="0" cy="0" r="3.5"/>
                <g id="zoomPlus">
                        <use xlink:href="#rim" fill="#404040">
                                <set attributeName="fill" to="#808080" begin="zoomplus.mouseover" end="zoomplus.mouseout"/>
                        </use>
                        <path d="M-4,0h8M0,-4v8" fill="none" stroke="white" stroke-width="1.5" pointer-events="none"/>
                </g>
                <g id="zoomMin">
                        <use xlink:href="#rim" fill="#404040">
                                <set attributeName="fill" to="#808080" begin="zoomminus.mouseover" end="zoomminus.mouseout"/>
                        </use>
                        <path d="M-4,0h8" fill="none" stroke="white" stroke-width="1.5" pointer-events="none"/>
                </g>
                <g id="dirArrow">
                        <path fill="none" stroke="white" stroke-width="1.5" d="M0,-3.0v7 M-2.5,-0.5L0,-3.0L2.5,-0.5"/>
                </g>
               <g id="resetDef">
                       <use xlink:href="#rim2" fill="#404040">
                               <set attributeName="fill" to="#808080" begin="reset.mouseover" end="reset.mouseout"/>
                       </use>
               </g>
        </defs>

<script type="text/javascript">
var viewWidth = 1583;
var viewHeight = 560;
var sectionId = 'dynsection-23';
</script>
<script xlink:href="svgpan.js"/>
<svg id="graph" class="graph">
<g id="viewport">
<title>mpi_recv</title>
<polygon fill="white" stroke="none" points="-4,4 -4,-556 1579,-556 1579,4 -4,4"/>
<!-- Node1 -->
<g id="node1" class="node"><title>Node1</title>
<polygon fill="#bfbfbf" stroke="black" points="0,-266.5 0,-285.5 59,-285.5 59,-266.5 0,-266.5"/>
<text text-anchor="middle" x="29.5" y="-273.5" font-family="Helvetica,sans-Serif" font-size="10.00">mpi_recv</text>
</g>
<!-- Node2 -->
<g id="node2" class="node"><title>Node2</title>
<g id="a_node2"><a xlink:href="comm__mpi_8F90.html#a243c9bed2592e7cd159fb36be4fda037" target="_top" xlink:title="crecv">
<polygon fill="white" stroke="black" points="95,-266.5 95,-285.5 137,-285.5 137,-266.5 95,-266.5"/>
<text text-anchor="middle" x="116" y="-273.5" font-family="Helvetica,sans-Serif" font-size="10.00">crecv</text>
</a>
</g>
</g>
<!-- Node1&#45;&gt;Node2 -->
<g id="edge1" class="edge"><title>Node1&#45;&gt;Node2</title>
<path fill="none" stroke="midnightblue" d="M69.3274,-276C78.1925,-276 87.2599,-276 94.9546,-276"/>
<polygon fill="midnightblue" stroke="midnightblue" points="69.1079,-272.5 59.1078,-276 69.1078,-279.5 69.1079,-272.5"/>
</g>
<!-- Node3 -->
<g id="node3" class="node"><title>Node3</title>
<g id="a_node3"><a xlink:href="ic_8F90.html#a46a0ff5dd0a6f10aa39215385ba21288" target="_top" xlink:title="mapdmp">
<polygon fill="white" stroke="black" points="201.5,-304.5 201.5,-323.5 258.5,-323.5 258.5,-304.5 201.5,-304.5"/>
<text text-anchor="middle" x="230" y="-311.5" font-family="Helvetica,sans-Serif" font-size="10.00">mapdmp</text>
</a>
</g>
</g>
<!-- Node2&#45;&gt;Node3 -->
<g id="edge2" class="edge"><title>Node2&#45;&gt;Node3</title>
<path fill="none" stroke="midnightblue" d="M146.913,-286.149C163.759,-291.865 184.661,-298.956 201.157,-304.553"/>
<polygon fill="midnightblue" stroke="midnightblue" points="147.618,-282.692 137.023,-282.794 145.369,-289.321 147.618,-282.692"/>
</g>
<!-- Node8 -->
<g id="node8" class="node"><title>Node8</title>
<g id="a_node8"><a xlink:href="map2_8F90.html#a0a8afb6d7507567621f35bbc8ba36e2c" target="_top" xlink:title="mapelpr">
<polygon fill="white" stroke="black" points="521.5,-447.5 521.5,-466.5 576.5,-466.5 576.5,-447.5 521.5,-447.5"/>
<text text-anchor="middle" x="549" y="-454.5" font-family="Helvetica,sans-Serif" font-size="10.00">mapelpr</text>
</a>
</g>
</g>
<!-- Node2&#45;&gt;Node8 -->
<g id="edge7" class="edge"><title>Node2&#45;&gt;Node8</title>
<path fill="none" stroke="midnightblue" d="M116.732,-295.926C117.445,-332.789 124.878,-411.134 173,-447 227.83,-487.865 445.047,-468.415 521.339,-460.106"/>
<polygon fill="midnightblue" stroke="midnightblue" points="120.232,-295.895 116.688,-285.911 113.232,-295.926 120.232,-295.895"/>
</g>
<!-- Node10 -->
<g id="node10" class="node"><title>Node10</title>
<g id="a_node10"><a xlink:href="prepost_8F90.html#a11cc22eaaef2974cda6a66817880cc13" target="_top" xlink:title="mfo_mdatas">
<polygon fill="white" stroke="black" points="193,-76.5 193,-95.5 267,-95.5 267,-76.5 193,-76.5"/>
<text text-anchor="middle" x="230" y="-83.5" font-family="Helvetica,sans-Serif" font-size="10.00">mfo_mdatas</text>
</a>
</g>
</g>
<!-- Node2&#45;&gt;Node10 -->
<g id="edge10" class="edge"><title>Node2&#45;&gt;Node10</title>
<path fill="none" stroke="midnightblue" d="M117.941,-255.936C120.676,-220.616 131.348,-147.096 173,-105 178.416,-99.5265 185.465,-95.6293 192.725,-92.8547"/>
<polygon fill="midnightblue" stroke="midnightblue" points="114.421,-256.149 117.285,-266.35 121.407,-256.59 114.421,-256.149"/>
</g>
<!-- Node12 -->
<g id="node12" class="node"><title>Node12</title>
<g id="a_node12"><a xlink:href="prepost_8F90.html#a78b0361cf9ff06bfe5020c2114ddc924" target="_top" xlink:title="output .fld file ">
<polygon fill="white" stroke="black" points="427.5,-152.5 427.5,-171.5 469.5,-171.5 469.5,-152.5 427.5,-152.5"/>
<text text-anchor="middle" x="448.5" y="-159.5" font-family="Helvetica,sans-Serif" font-size="10.00">outfld</text>
</a>
</g>
</g>
<!-- Node2&#45;&gt;Node12 -->
<g id="edge51" class="edge"><title>Node2&#45;&gt;Node12</title>
<path fill="none" stroke="midnightblue" d="M119.259,-256.292C125.147,-208.811 142.651,-90.2878 173,-67 260.618,0.232311 399.214,-117.089 437.446,-152.407"/>
<polygon fill="midnightblue" stroke="midnightblue" points="115.779,-255.91 118.066,-266.256 122.73,-256.743 115.779,-255.91"/>
</g>
<!-- Node25 -->
<g id="node25" class="node"><title>Node25</title>
<g id="a_node25"><a xlink:href="prepost_8F90.html#a604e4beb6bdb81fa2e0633e1233bc1fe" target="_top" xlink:title="mfo_mdatav">
<polygon fill="white" stroke="black" points="193,-228.5 193,-247.5 267,-247.5 267,-228.5 193,-228.5"/>
<text text-anchor="middle" x="230" y="-235.5" font-family="Helvetica,sans-Serif" font-size="10.00">mfo_mdatav</text>
</a>
</g>
</g>
<!-- Node2&#45;&gt;Node25 -->
<g id="edge31" class="edge"><title>Node2&#45;&gt;Node25</title>
<path fill="none" stroke="midnightblue" d="M146.839,-265.876C163.555,-260.205 184.282,-253.172 200.735,-247.59"/>
<polygon fill="midnightblue" stroke="midnightblue" points="145.369,-262.679 137.023,-269.206 147.618,-269.308 145.369,-262.679"/>
</g>
<!-- Node26 -->
<g id="node26" class="node"><title>Node26</title>
<g id="a_node26"><a xlink:href="prepost_8F90.html#a719f53cbe469f5bf99a53892de48af29" target="_top" xlink:title="output a scalar field ">
<polygon fill="white" stroke="black" points="200.5,-190.5 200.5,-209.5 259.5,-209.5 259.5,-190.5 200.5,-190.5"/>
<text text-anchor="middle" x="230" y="-197.5" font-family="Helvetica,sans-Serif" font-size="10.00">mfo_outs</text>
</a>
</g>
</g>
<!-- Node2&#45;&gt;Node26 -->
<g id="edge33" class="edge"><title>Node2&#45;&gt;Node26</title>
<path fill="none" stroke="midnightblue" d="M130.637,-258.223C141.047,-245.723 156.39,-229.429 173,-219 181.26,-213.814 191.101,-209.86 200.213,-206.938"/>
<polygon fill="midnightblue" stroke="midnightblue" points="127.801,-256.166 124.264,-266.153 133.257,-260.551 127.801,-256.166"/>
</g>
<!-- Node27 -->
<g id="node27" class="node"><title>Node27</title>
<g id="a_node27"><a xlink:href="prepost_8F90.html#a3f8a4c9fa971a0386d313d4c79e111f7" target="_top" xlink:title="output a vector field ">
<polygon fill="white" stroke="black" points="200.5,-152.5 200.5,-171.5 259.5,-171.5 259.5,-152.5 200.5,-152.5"/>
<text text-anchor="middle" x="230" y="-159.5" font-family="Helvetica,sans-Serif" font-size="10.00">mfo_outv</text>
</a>
</g>
</g>
<!-- Node2&#45;&gt;Node27 -->
<g id="edge35" class="edge"><title>Node2&#45;&gt;Node27</title>
<path fill="none" stroke="midnightblue" d="M123.631,-256.78C131.955,-235.376 148.219,-201.147 173,-181 180.807,-174.653 190.843,-170.381 200.258,-167.526"/>
<polygon fill="midnightblue" stroke="midnightblue" points="120.26,-255.807 120.089,-266.4 126.829,-258.225 120.26,-255.807"/>
</g>
<!-- Node28 -->
<g id="node28" class="node"><title>Node28</title>
<g id="a_node28"><a xlink:href="classio.html#a3b8dab7279564c05e092b8194f166d8b" target="_top" xlink:title="Read header and return number of elements and word size. ">
<polygon fill="white" stroke="black" points="173,-380.5 173,-399.5 287,-399.5 287,-380.5 173,-380.5"/>
<text text-anchor="middle" x="230" y="-387.5" font-family="Helvetica,sans-Serif" font-size="10.00">io::mfo_read_header</text>
</a>
</g>
</g>
<!-- Node2&#45;&gt;Node28 -->
<g id="edge37" class="edge"><title>Node2&#45;&gt;Node28</title>
<path fill="none" stroke="midnightblue" d="M123.631,-295.22C131.955,-316.624 148.219,-350.853 173,-371 177.78,-374.886 183.395,-377.994 189.192,-380.475"/>
<polygon fill="midnightblue" stroke="midnightblue" points="126.829,-293.775 120.089,-285.6 120.26,-296.193 126.829,-293.775"/>
</g>
<!-- Node30 -->
<g id="node30" class="node"><title>Node30</title>
<g id="a_node30"><a xlink:href="classio.html#a758050a046c3323706e227872dc0bddf" target="_top" xlink:title="Read a scalar field. ">
<polygon fill="white" stroke="black" points="175.5,-342.5 175.5,-361.5 284.5,-361.5 284.5,-342.5 175.5,-342.5"/>
<text text-anchor="middle" x="230" y="-349.5" font-family="Helvetica,sans-Serif" font-size="10.00">io::mfo_read_scalar</text>
</a>
</g>
</g>
<!-- Node2&#45;&gt;Node30 -->
<g id="edge40" class="edge"><title>Node2&#45;&gt;Node30</title>
<path fill="none" stroke="midnightblue" d="M130.637,-293.777C141.047,-306.277 156.39,-322.571 173,-333 178.999,-336.767 185.833,-339.884 192.615,-342.427"/>
<polygon fill="midnightblue" stroke="midnightblue" points="133.257,-291.449 124.264,-285.847 127.801,-295.834 133.257,-291.449"/>
</g>
<!-- Node31 -->
<g id="node31" class="node"><title>Node31</title>
<g id="a_node31"><a xlink:href="classio.html#a73b31838c25a62a2d22ccd660b5f26bb" target="_top" xlink:title="Read a vector field. ">
<polygon fill="white" stroke="black" points="175,-418.5 175,-437.5 285,-437.5 285,-418.5 175,-418.5"/>
<text text-anchor="middle" x="230" y="-425.5" font-family="Helvetica,sans-Serif" font-size="10.00">io::mfo_read_vector</text>
</a>
</g>
</g>
<!-- Node2&#45;&gt;Node31 -->
<g id="edge42" class="edge"><title>Node2&#45;&gt;Node31</title>
<path fill="none" stroke="midnightblue" d="M120.059,-295.612C125.563,-324.423 139.815,-378.104 173,-409 177.133,-412.848 182.075,-415.919 187.287,-418.37"/>
<polygon fill="midnightblue" stroke="midnightblue" points="123.473,-294.815 118.306,-285.565 116.577,-296.018 123.473,-294.815"/>
</g>
<!-- Node32 -->
<g id="node32" class="node"><title>Node32</title>
<g id="a_node32"><a xlink:href="prepost_8F90.html#add41841b0b73cf28554519f93a59c688" target="_top" xlink:title="write hdr, byte key, els. ">
<polygon fill="white" stroke="black" points="188,-114.5 188,-133.5 272,-133.5 272,-114.5 188,-114.5"/>
<text text-anchor="middle" x="230" y="-121.5" font-family="Helvetica,sans-Serif" font-size="10.00">mfo_write_hdr</text>
</a>
</g>
</g>
<!-- Node2&#45;&gt;Node32 -->
<g id="edge44" class="edge"><title>Node2&#45;&gt;Node32</title>
<path fill="none" stroke="midnightblue" d="M120.059,-256.388C125.563,-227.577 139.815,-173.896 173,-143 177.283,-139.012 182.435,-135.859 187.857,-133.365"/>
<polygon fill="midnightblue" stroke="midnightblue" points="116.577,-255.982 118.306,-266.435 123.473,-257.185 116.577,-255.982"/>
</g>
<!-- Node33 -->
<g id="node33" class="node"><title>Node33</title>
<g id="a_node33"><a xlink:href="byte__mpi_8F90.html#a462fe2d9aa30417eddfb192c3b1f1ad4" target="_top" xlink:title="nek_comm_io">
<polygon fill="white" stroke="black" points="625,-532.5 625,-551.5 707,-551.5 707,-532.5 625,-532.5"/>
<text text-anchor="middle" x="666" y="-539.5" font-family="Helvetica,sans-Serif" font-size="10.00">nek_comm_io</text>
</a>
</g>
</g>
<!-- Node2&#45;&gt;Node33 -->
<g id="edge46" class="edge"><title>Node2&#45;&gt;Node33</title>
<path fill="none" stroke="midnightblue" d="M118.717,-295.686C123.693,-347.894 139.916,-487.947 173,-518 233.229,-572.712 273.131,-542 354.5,-542 354.5,-542 354.5,-542 449.5,-542 510.671,-542 581.608,-542 624.885,-542"/>
<polygon fill="midnightblue" stroke="midnightblue" points="122.2,-295.329 117.802,-285.69 115.229,-295.968 122.2,-295.329"/>
</g>
<!-- Node35 -->
<g id="node35" class="node"><title>Node35</title>
<g id="a_node35"><a xlink:href="drive2_8F90.html#ae3e6cc31f5e6b6b2b5062d80ca77519f" target="_top" xlink:title="init opcounter ">
<polygon fill="white" stroke="black" points="925,-477.5 925,-496.5 979,-496.5 979,-477.5 925,-477.5"/>
<text text-anchor="middle" x="952" y="-484.5" font-family="Helvetica,sans-Serif" font-size="10.00">opcount</text>
</a>
</g>
</g>
<!-- Node2&#45;&gt;Node35 -->
<g id="edge49" class="edge"><title>Node2&#45;&gt;Node35</title>
<path fill="none" stroke="midnightblue" d="M116.185,-295.777C115.7,-335.965 120.773,-427.309 173,-474 233.954,-528.493 272.739,-504 354.5,-504 354.5,-504 354.5,-504 769.5,-504 825.043,-504 889.732,-496.01 924.923,-490.986"/>
<polygon fill="midnightblue" stroke="midnightblue" points="119.687,-295.756 116.443,-285.67 112.689,-295.578 119.687,-295.756"/>
</g>
<!-- Node36 -->
<g id="node36" class="node"><title>Node36</title>
<g id="a_node36"><a xlink:href="prepost_8F90.html#aca7eb901ff58b9cec8124535b09c4dc3" target="_top" xlink:title="output time history info. ">
<polygon fill="white" stroke="black" points="426.5,-228.5 426.5,-247.5 470.5,-247.5 470.5,-228.5 426.5,-228.5"/>
<text text-anchor="middle" x="448.5" y="-235.5" font-family="Helvetica,sans-Serif" font-size="10.00">outhis</text>
</a>
</g>
</g>
<!-- Node2&#45;&gt;Node36 -->
<g id="edge52" class="edge"><title>Node2&#45;&gt;Node36</title>
<path fill="none" stroke="midnightblue" d="M147.359,-272.667C181.372,-268.92 238.149,-262.621 287,-257 337.036,-251.242 395.813,-244.218 426.473,-240.534"/>
<polygon fill="midnightblue" stroke="midnightblue" points="146.712,-269.217 137.155,-273.79 147.478,-276.175 146.712,-269.217"/>
</g>
<!-- Node37 -->
<g id="node37" class="node"><title>Node37</title>
<g id="a_node37"><a xlink:href="drive2_8F90.html#a584c9fb49aa78285ef4b39ab8bb9014c" target="_top" xlink:title="pretty&#45;print from runstat ">
<polygon fill="white" stroke="black" points="325.5,-0.5 325.5,-19.5 385.5,-19.5 385.5,-0.5 325.5,-0.5"/>
<text text-anchor="middle" x="355.5" y="-7.5" font-family="Helvetica,sans-Serif" font-size="10.00">pprint_all</text>
</a>
</g>
</g>
<!-- Node2&#45;&gt;Node37 -->
<g id="edge54" class="edge"><title>Node2&#45;&gt;Node37</title>
<path fill="none" stroke="midnightblue" d="M118.717,-256.314C123.693,-204.106 139.916,-64.0531 173,-34 214.643,3.82787 285.466,0.819913 325.212,-4.63891"/>
<polygon fill="midnightblue" stroke="midnightblue" points="115.229,-256.032 117.802,-266.31 122.2,-256.671 115.229,-256.032"/>
</g>
<!-- Node4 -->
<g id="node4" class="node"><title>Node4</title>
<g id="a_node4"><a xlink:href="ic_8F90.html#af64028aefb1dff2a9f8a84ff024f44b0" target="_top" xlink:title="driver for restarts (1) Open restart file(s) (2) Check previous spatial discretization (3) Map (K1...">
<polygon fill="white" stroke="black" points="509,-333.5 509,-352.5 589,-352.5 589,-333.5 509,-333.5"/>
<text text-anchor="middle" x="549" y="-340.5" font-family="Helvetica,sans-Serif" font-size="10.00">restart_driver</text>
</a>
</g>
</g>
<!-- Node3&#45;&gt;Node4 -->
<g id="edge3" class="edge"><title>Node3&#45;&gt;Node4</title>
<path fill="none" stroke="midnightblue" d="M268.834,-317.461C329.368,-322.999 447.407,-333.798 508.796,-339.414"/>
<polygon fill="midnightblue" stroke="midnightblue" points="268.854,-313.948 258.577,-316.523 268.217,-320.919 268.854,-313.948"/>
</g>
<!-- Node5 -->
<g id="node5" class="node"><title>Node5</title>
<g id="a_node5"><a xlink:href="ic_8F90.html#acaefa33e86633e4a7a4b28347d4620d1" target="_top" xlink:title="Set initial conditions. ">
<polygon fill="white" stroke="black" points="1160,-383.5 1160,-402.5 1204,-402.5 1204,-383.5 1160,-383.5"/>
<text text-anchor="middle" x="1182" y="-390.5" font-family="Helvetica,sans-Serif" font-size="10.00">setics</text>
</a>
</g>
</g>
<!-- Node4&#45;&gt;Node5 -->
<g id="edge4" class="edge"><title>Node4&#45;&gt;Node5</title>
<path fill="none" stroke="midnightblue" d="M599.421,-346.568C643.485,-349.44 709.759,-353 767.5,-353 767.5,-353 767.5,-353 953,-353 1030.16,-353 1119.83,-375.5 1159.84,-386.75"/>
<polygon fill="midnightblue" stroke="midnightblue" points="599.477,-343.064 589.267,-345.892 599.013,-350.048 599.477,-343.064"/>
</g>
<!-- Node6 -->
<g id="node6" class="node"><title>Node6</title>
<g id="a_node6"><a xlink:href="drive1_8F90.html#a87bd37ae2c18426f28f35cc3f24e4355" target="_top" xlink:title="initialize nek ">
<polygon fill="white" stroke="black" points="1431,-364.5 1431,-383.5 1484,-383.5 1484,-364.5 1431,-364.5"/>
<text text-anchor="middle" x="1457.5" y="-371.5" font-family="Helvetica,sans-Serif" font-size="10.00">nek_init</text>
</a>
</g>
</g>
<!-- Node5&#45;&gt;Node6 -->
<g id="edge5" class="edge"><title>Node5&#45;&gt;Node6</title>
<path fill="none" stroke="midnightblue" d="M1214.1,-390.839C1268.58,-387.055 1380.23,-379.298 1430.71,-375.792"/>
<polygon fill="midnightblue" stroke="midnightblue" points="1213.74,-387.356 1204.01,-391.541 1214.23,-394.339 1213.74,-387.356"/>
</g>
<!-- Node7 -->
<g id="node7" class="node"><title>Node7</title>
<g id="a_node7"><a xlink:href="drive_8F90.html#a13048bf28dd0734640412d69349e3857" target="_top" xlink:title="NEK5000: Spectral Element Computational Fluid Dynamics Solver COPYRIGHT (c) 2008&#45;2010 UCHICAGO ARGONN...">
<polygon fill="white" stroke="black" points="1526,-200.5 1526,-219.5 1575,-219.5 1575,-200.5 1526,-200.5"/>
<text text-anchor="middle" x="1550.5" y="-207.5" font-family="Helvetica,sans-Serif" font-size="10.00">nekton</text>
</a>
</g>
</g>
<!-- Node6&#45;&gt;Node7 -->
<g id="edge6" class="edge"><title>Node6&#45;&gt;Node7</title>
<path fill="none" stroke="midnightblue" d="M1469.02,-355.046C1488.52,-319.902 1529.63,-245.814 1544.22,-219.511"/>
<polygon fill="midnightblue" stroke="midnightblue" points="1465.71,-353.79 1463.92,-364.232 1471.83,-357.186 1465.71,-353.79"/>
</g>
<!-- Node9 -->
<g id="node9" class="node"><title>Node9</title>
<g id="a_node9"><a xlink:href="connect2_8F90.html#a842357ad1d3581135ffacc57139397d2" target="_top" xlink:title="Read in data from preprocessor input file (.rea) ">
<polygon fill="white" stroke="black" points="745,-440.5 745,-459.5 792,-459.5 792,-440.5 745,-440.5"/>
<text text-anchor="middle" x="768.5" y="-447.5" font-family="Helvetica,sans-Serif" font-size="10.00">readat</text>
</a>
</g>
</g>
<!-- Node8&#45;&gt;Node9 -->
<g id="edge8" class="edge"><title>Node8&#45;&gt;Node9</title>
<path fill="none" stroke="midnightblue" d="M586.941,-455.811C632.199,-454.355 707.459,-451.932 744.903,-450.727"/>
<polygon fill="midnightblue" stroke="midnightblue" points="586.552,-452.322 576.67,-456.142 586.777,-459.318 586.552,-452.322"/>
</g>
<!-- Node9&#45;&gt;Node6 -->
<g id="edge9" class="edge"><title>Node9&#45;&gt;Node6</title>
<path fill="none" stroke="midnightblue" d="M802.064,-444.812C838.315,-439.495 898.692,-432 951,-432 951,-432 951,-432 1183,-432 1275.87,-432 1298.98,-419.827 1389,-397 1403.28,-393.379 1418.87,-388.154 1431.47,-383.6"/>
<polygon fill="midnightblue" stroke="midnightblue" points="801.435,-441.368 792.065,-446.314 802.474,-448.29 801.435,-441.368"/>
</g>
<!-- Node11 -->
<g id="node11" class="node"><title>Node11</title>
<g id="a_node11"><a xlink:href="prepost_8F90.html#a9872fbccba1ed7b2932227287629cf2b" target="_top" xlink:title="mult&#45;file output ">
<polygon fill="white" stroke="black" points="323,-152.5 323,-171.5 388,-171.5 388,-152.5 323,-152.5"/>
<text text-anchor="middle" x="355.5" y="-159.5" font-family="Helvetica,sans-Serif" font-size="10.00">mfo_outfld</text>
</a>
</g>
</g>
<!-- Node10&#45;&gt;Node11 -->
<g id="edge11" class="edge"><title>Node10&#45;&gt;Node11</title>
<path fill="none" stroke="midnightblue" d="M275.377,-99.3056C279.396,-101.03 283.329,-102.927 287,-105 310.237,-118.126 333.07,-139.741 345.313,-152.242"/>
<polygon fill="midnightblue" stroke="midnightblue" points="276.52,-95.9941 265.933,-95.5956 273.961,-102.509 276.52,-95.9941"/>
</g>
<!-- Node11&#45;&gt;Node12 -->
<g id="edge12" class="edge"><title>Node11&#45;&gt;Node12</title>
<path fill="none" stroke="midnightblue" d="M398.091,-162C408.275,-162 418.721,-162 427.37,-162"/>
<polygon fill="midnightblue" stroke="midnightblue" points="398.072,-158.5 388.072,-162 398.072,-165.5 398.072,-158.5"/>
</g>
<!-- Node13 -->
<g id="node13" class="node"><title>Node13</title>
<g id="a_node13"><a xlink:href="prepost_8F90.html#a4a3b0e4ce35b3381281c0839e5846370" target="_top" xlink:title="Store results for later postprocessing. Recent updates: p65 now indicates the number of parallel i/o ...">
<polygon fill="white" stroke="black" points="522.5,-191.5 522.5,-210.5 575.5,-210.5 575.5,-191.5 522.5,-191.5"/>
<text text-anchor="middle" x="549" y="-198.5" font-family="Helvetica,sans-Serif" font-size="10.00">prepost</text>
</a>
</g>
</g>
<!-- Node12&#45;&gt;Node13 -->
<g id="edge13" class="edge"><title>Node12&#45;&gt;Node13</title>
<path fill="none" stroke="midnightblue" d="M479.281,-173.792C493.523,-179.43 510.352,-186.094 523.792,-191.415"/>
<polygon fill="midnightblue" stroke="midnightblue" points="480.495,-170.508 469.909,-170.081 477.919,-177.016 480.495,-170.508"/>
</g>
<!-- Node14 -->
<g id="node14" class="node"><title>Node14</title>
<g id="a_node14"><a xlink:href="drive1_8F90.html#a6ad57e0cf728f343e371ef8c9a02cd8a" target="_top" xlink:title="integrate the governing equations in time ">
<polygon fill="white" stroke="black" points="1425,-200.5 1425,-219.5 1490,-219.5 1490,-200.5 1425,-200.5"/>
<text text-anchor="middle" x="1457.5" y="-207.5" font-family="Helvetica,sans-Serif" font-size="10.00">nek_solve</text>
</a>
</g>
</g>
<!-- Node13&#45;&gt;Node14 -->
<g id="edge14" class="edge"><title>Node13&#45;&gt;Node14</title>
<path fill="none" stroke="midnightblue" d="M585.753,-198.348C628.832,-195.385 703.42,-191 767.5,-191 767.5,-191 767.5,-191 1183,-191 1270.82,-191 1374.11,-200.869 1424.96,-206.382"/>
<polygon fill="midnightblue" stroke="midnightblue" points="585.493,-194.857 575.763,-199.048 585.983,-201.84 585.493,-194.857"/>
</g>
<!-- Node15 -->
<g id="node15" class="node"><title>Node15</title>
<g id="a_node15"><a xlink:href="prepost_8F90.html#aaf4c0f2e1790302116a4c719c2eb50ff" target="_top" xlink:title="outpost2">
<polygon fill="white" stroke="black" points="637.5,-238.5 637.5,-257.5 694.5,-257.5 694.5,-238.5 637.5,-238.5"/>
<text text-anchor="middle" x="666" y="-245.5" font-family="Helvetica,sans-Serif" font-size="10.00">outpost2</text>
</a>
</g>
</g>
<!-- Node13&#45;&gt;Node15 -->
<g id="edge16" class="edge"><title>Node13&#45;&gt;Node15</title>
<path fill="none" stroke="midnightblue" d="M582.607,-214.326C601.324,-221.976 624.402,-231.408 641.368,-238.342"/>
<polygon fill="midnightblue" stroke="midnightblue" points="583.853,-211.055 573.272,-210.511 581.205,-217.534 583.853,-211.055"/>
</g>
<!-- Node14&#45;&gt;Node7 -->
<g id="edge15" class="edge"><title>Node14&#45;&gt;Node7</title>
<path fill="none" stroke="midnightblue" d="M1500.19,-210C1508.95,-210 1517.9,-210 1525.73,-210"/>
<polygon fill="midnightblue" stroke="midnightblue" points="1500.07,-206.5 1490.07,-210 1500.07,-213.5 1500.07,-206.5"/>
</g>
<!-- Node16 -->
<g id="node16" class="node"><title>Node16</title>
<g id="a_node16"><a xlink:href="prepost_8F90.html#aacb528c0b28bc79dff8db48d7ae9ac64" target="_top" xlink:title="outpost">
<polygon fill="white" stroke="black" points="743,-240.5 743,-259.5 794,-259.5 794,-240.5 743,-240.5"/>
<text text-anchor="middle" x="768.5" y="-247.5" font-family="Helvetica,sans-Serif" font-size="10.00">outpost</text>
</a>
</g>
</g>
<!-- Node15&#45;&gt;Node16 -->
<g id="edge17" class="edge"><title>Node15&#45;&gt;Node16</title>
<path fill="none" stroke="midnightblue" d="M705.056,-248.757C717.752,-249.01 731.554,-249.285 742.945,-249.511"/>
<polygon fill="midnightblue" stroke="midnightblue" points="704.796,-245.252 694.728,-248.552 704.656,-252.25 704.796,-245.252"/>
</g>
<!-- Node17 -->
<g id="node17" class="node"><title>Node17</title>
<g id="a_node17"><a xlink:href="coef_8F90.html#ad01cc61ba84d488e68ca9e259c592465" target="_top" xlink:title="Routine to generate mapping data based on mesh 1 (Gauss&#45;Legendre Lobatto meshes). ...">
<polygon fill="white" stroke="black" points="830,-245.5 830,-264.5 889,-264.5 889,-245.5 830,-245.5"/>
<text text-anchor="middle" x="859.5" y="-252.5" font-family="Helvetica,sans-Serif" font-size="10.00">glmapm1</text>
</a>
</g>
</g>
<!-- Node16&#45;&gt;Node17 -->
<g id="edge18" class="edge"><title>Node16&#45;&gt;Node17</title>
<path fill="none" stroke="midnightblue" d="M804.533,-251.968C812.89,-252.438 821.715,-252.933 829.752,-253.385"/>
<polygon fill="midnightblue" stroke="midnightblue" points="804.472,-248.459 794.291,-251.393 804.079,-255.448 804.472,-248.459"/>
</g>
<!-- Node18 -->
<g id="node18" class="node"><title>Node18</title>
<g id="a_node18"><a xlink:href="coef_8F90.html#ac5d2ac0efba4a530fab5387321307d01" target="_top" xlink:title="Routine to generate all elemental geometric data for mesh 1. Velocity formulation : global&#45;to&#45;local m...">
<polygon fill="white" stroke="black" points="927.5,-248.5 927.5,-267.5 976.5,-267.5 976.5,-248.5 927.5,-248.5"/>
<text text-anchor="middle" x="952" y="-255.5" font-family="Helvetica,sans-Serif" font-size="10.00">geom1</text>
</a>
</g>
</g>
<!-- Node17&#45;&gt;Node18 -->
<g id="edge19" class="edge"><title>Node17&#45;&gt;Node18</title>
<path fill="none" stroke="midnightblue" d="M899.277,-256.285C908.843,-256.603 918.803,-256.933 927.399,-257.218"/>
<polygon fill="midnightblue" stroke="midnightblue" points="899.245,-252.783 889.135,-255.949 899.013,-259.779 899.245,-252.783"/>
</g>
<!-- Node19 -->
<g id="node19" class="node"><title>Node19</title>
<g id="a_node19"><a xlink:href="drive2_8F90.html#aefc07385d7e7539fb57662470f694136" target="_top" xlink:title="Generate geometry data. ">
<polygon fill="white" stroke="black" points="1021,-248.5 1021,-267.5 1082,-267.5 1082,-248.5 1021,-248.5"/>
<text text-anchor="middle" x="1051.5" y="-255.5" font-family="Helvetica,sans-Serif" font-size="10.00">gengeom</text>
</a>
</g>
</g>
<!-- Node18&#45;&gt;Node19 -->
<g id="edge20" class="edge"><title>Node18&#45;&gt;Node19</title>
<path fill="none" stroke="midnightblue" d="M986.786,-258C997.861,-258 1010.08,-258 1020.82,-258"/>
<polygon fill="midnightblue" stroke="midnightblue" points="986.602,-254.5 976.602,-258 986.602,-261.5 986.602,-254.5"/>
</g>
<!-- Node22 -->
<g id="node22" class="node"><title>Node22</title>
<g id="a_node22"><a xlink:href="ic_8F90.html#aaf47b255d1cfac3451a8473ee6876b4f" target="_top" xlink:title="Generate geometry data. ">
<polygon fill="white" stroke="black" points="1015,-304.5 1015,-323.5 1088,-323.5 1088,-304.5 1015,-304.5"/>
<text text-anchor="middle" x="1051.5" y="-311.5" font-family="Helvetica,sans-Serif" font-size="10.00">geom_reset</text>
</a>
</g>
</g>
<!-- Node18&#45;&gt;Node22 -->
<g id="edge25" class="edge"><title>Node18&#45;&gt;Node22</title>
<path fill="none" stroke="midnightblue" d="M979.035,-272.954C996.383,-282.918 1018.67,-295.721 1033.71,-304.357"/>
<polygon fill="midnightblue" stroke="midnightblue" points="980.398,-269.7 969.983,-267.754 976.911,-275.77 980.398,-269.7"/>
</g>
<!-- Node19&#45;&gt;Node6 -->
<g id="edge24" class="edge"><title>Node19&#45;&gt;Node6</title>
<path fill="none" stroke="midnightblue" d="M1092.4,-253.333C1158.32,-247.516 1292.3,-243.841 1389,-295 1419.46,-311.113 1442.04,-347.158 1451.55,-364.424"/>
<polygon fill="midnightblue" stroke="midnightblue" points="1091.67,-249.886 1082.04,-254.315 1092.33,-256.855 1091.67,-249.886"/>
</g>
<!-- Node20 -->
<g id="node20" class="node"><title>Node20</title>
<g id="a_node20"><a xlink:href="drive1_8F90.html#ae177ea7efac97f35241521b782a671c0" target="_top" xlink:title="take a single time&#45;step ">
<polygon fill="white" stroke="black" points="1142,-219.5 1142,-238.5 1222,-238.5 1222,-219.5 1142,-219.5"/>
<text text-anchor="middle" x="1182" y="-226.5" font-family="Helvetica,sans-Serif" font-size="10.00">nek_advance</text>
</a>
</g>
</g>
<!-- Node19&#45;&gt;Node20 -->
<g id="edge21" class="edge"><title>Node19&#45;&gt;Node20</title>
<path fill="none" stroke="midnightblue" d="M1092.24,-249.031C1107.95,-245.487 1125.95,-241.424 1141.62,-237.888"/>
<polygon fill="midnightblue" stroke="midnightblue" points="1091.29,-245.658 1082.3,-251.274 1092.83,-252.487 1091.29,-245.658"/>
</g>
<!-- Node21 -->
<g id="node21" class="node"><title>Node21</title>
<g id="a_node21"><a xlink:href="drive1_8F90.html#a18d3e839786263fc4cf91f7eeb714371" target="_top" xlink:title="take a chunk of time&#45;steps ">
<polygon fill="white" stroke="black" points="1276,-219.5 1276,-238.5 1389,-238.5 1389,-219.5 1276,-219.5"/>
<text text-anchor="middle" x="1332.5" y="-226.5" font-family="Helvetica,sans-Serif" font-size="10.00">nek__multi_advance</text>
</a>
</g>
</g>
<!-- Node20&#45;&gt;Node21 -->
<g id="edge22" class="edge"><title>Node20&#45;&gt;Node21</title>
<path fill="none" stroke="midnightblue" d="M1232.41,-229C1246.38,-229 1261.68,-229 1275.99,-229"/>
<polygon fill="midnightblue" stroke="midnightblue" points="1232.02,-225.5 1222.02,-229 1232.02,-232.5 1232.02,-225.5"/>
</g>
<!-- Node21&#45;&gt;Node14 -->
<g id="edge23" class="edge"><title>Node21&#45;&gt;Node14</title>
<path fill="none" stroke="midnightblue" d="M1399.28,-218.839C1408.16,-217.466 1416.93,-216.113 1424.82,-214.893"/>
<polygon fill="midnightblue" stroke="midnightblue" points="1398.59,-215.404 1389.24,-220.389 1399.66,-222.322 1398.59,-215.404"/>
</g>
<!-- Node22&#45;&gt;Node5 -->
<g id="edge30" class="edge"><title>Node22&#45;&gt;Node5</title>
<path fill="none" stroke="midnightblue" d="M1075.29,-329.641C1079.56,-332.685 1083.95,-335.895 1088,-339 1104.53,-351.673 1106.21,-358.174 1124,-369 1135.28,-375.865 1148.88,-381.674 1159.97,-385.856"/>
<polygon fill="midnightblue" stroke="midnightblue" points="1077.05,-326.598 1066.86,-323.716 1073.03,-332.327 1077.05,-326.598"/>
</g>
<!-- Node22&#45;&gt;Node6 -->
<g id="edge29" class="edge"><title>Node22&#45;&gt;Node6</title>
<path fill="none" stroke="midnightblue" d="M1090.93,-326.581C1101.55,-329.703 1113.14,-332.786 1124,-335 1237.04,-358.058 1374.69,-368.806 1430.82,-372.471"/>
<polygon fill="midnightblue" stroke="midnightblue" points="1091.68,-323.152 1081.1,-323.602 1089.65,-329.851 1091.68,-323.152"/>
</g>
<!-- Node23 -->
<g id="node23" class="node"><title>Node23</title>
<g id="a_node23"><a xlink:href="classhsmg__routines.html#a91e8aa59d56bbf05d75aa9c48bcd8977" target="_top" xlink:title="Sets up Poisson preconditioner. ">
<polygon fill="white" stroke="black" points="1124,-296 1124,-326 1240,-326 1240,-296 1124,-296"/>
<text text-anchor="start" x="1132" y="-314" font-family="Helvetica,sans-Serif" font-size="10.00">hsmg_routines::h1mg</text>
<text text-anchor="middle" x="1182" y="-303" font-family="Helvetica,sans-Serif" font-size="10.00">_setup</text>
</a>
</g>
</g>
<!-- Node22&#45;&gt;Node23 -->
<g id="edge26" class="edge"><title>Node22&#45;&gt;Node23</title>
<path fill="none" stroke="midnightblue" d="M1098.41,-312.928C1106.61,-312.737 1115.25,-312.535 1123.72,-312.337"/>
<polygon fill="midnightblue" stroke="midnightblue" points="1098.21,-309.432 1088.29,-313.164 1098.37,-316.43 1098.21,-309.432"/>
</g>
<!-- Node24 -->
<g id="node24" class="node"><title>Node24</title>
<g id="a_node24"><a xlink:href="navier6_8F90.html#a45317b1def173b8f1db2e5083595d095" target="_top" xlink:title="Set up arrays for overlapping Schwartz algorithm for pressure solver ">
<polygon fill="white" stroke="black" points="1296.5,-304.5 1296.5,-323.5 1368.5,-323.5 1368.5,-304.5 1296.5,-304.5"/>
<text text-anchor="middle" x="1332.5" y="-311.5" font-family="Helvetica,sans-Serif" font-size="10.00">set_overlap</text>
</a>
</g>
</g>
<!-- Node23&#45;&gt;Node24 -->
<g id="edge27" class="edge"><title>Node23&#45;&gt;Node24</title>
<path fill="none" stroke="midnightblue" d="M1250.65,-312.367C1266.36,-312.684 1282.47,-313.009 1296.13,-313.285"/>
<polygon fill="midnightblue" stroke="midnightblue" points="1250.48,-308.863 1240.41,-312.16 1250.34,-315.861 1250.48,-308.863"/>
</g>
<!-- Node24&#45;&gt;Node6 -->
<g id="edge28" class="edge"><title>Node24&#45;&gt;Node6</title>
<path fill="none" stroke="midnightblue" d="M1362.49,-328.091C1371.03,-332.245 1380.39,-336.803 1389,-341 1405.18,-348.891 1423.53,-357.864 1437.01,-364.459"/>
<polygon fill="midnightblue" stroke="midnightblue" points="1363.81,-324.839 1353.28,-323.613 1360.75,-331.134 1363.81,-324.839"/>
</g>
<!-- Node25&#45;&gt;Node11 -->
<g id="edge32" class="edge"><title>Node25&#45;&gt;Node11</title>
<path fill="none" stroke="midnightblue" d="M275.377,-224.694C279.396,-222.97 283.329,-221.073 287,-219 310.237,-205.874 333.07,-184.259 345.313,-171.758"/>
<polygon fill="midnightblue" stroke="midnightblue" points="273.961,-221.491 265.933,-228.404 276.52,-228.006 273.961,-221.491"/>
</g>
<!-- Node26&#45;&gt;Node11 -->
<g id="edge34" class="edge"><title>Node26&#45;&gt;Node11</title>
<path fill="none" stroke="midnightblue" d="M269.476,-188.161C286.826,-182.823 307.047,-176.601 323.415,-171.564"/>
<polygon fill="midnightblue" stroke="midnightblue" points="268.172,-184.9 259.644,-191.187 270.231,-191.591 268.172,-184.9"/>
</g>
<!-- Node27&#45;&gt;Node11 -->
<g id="edge36" class="edge"><title>Node27&#45;&gt;Node11</title>
<path fill="none" stroke="midnightblue" d="M269.883,-162C286.986,-162 306.815,-162 322.976,-162"/>
<polygon fill="midnightblue" stroke="midnightblue" points="269.644,-158.5 259.644,-162 269.644,-165.5 269.644,-158.5"/>
</g>
<!-- Node29 -->
<g id="node29" class="node"><title>Node29</title>
<g id="a_node29"><a xlink:href="classio.html#a8f8da23cfb175a121cf25557d58d1c98" target="_top" xlink:title="Load initial condition from a previous multi&#45;file output. ">
<polygon fill="white" stroke="black" points="324,-381.5 324,-400.5 387,-400.5 387,-381.5 324,-381.5"/>
<text text-anchor="middle" x="355.5" y="-388.5" font-family="Helvetica,sans-Serif" font-size="10.00">io::load_ic</text>
</a>
</g>
</g>
<!-- Node28&#45;&gt;Node29 -->
<g id="edge38" class="edge"><title>Node28&#45;&gt;Node29</title>
<path fill="none" stroke="midnightblue" d="M297.391,-390.538C306.65,-390.613 315.769,-390.686 323.909,-390.752"/>
<polygon fill="midnightblue" stroke="midnightblue" points="297.357,-387.037 287.329,-390.456 297.3,-394.037 297.357,-387.037"/>
</g>
<!-- Node29&#45;&gt;Node5 -->
<g id="edge39" class="edge"><title>Node29&#45;&gt;Node5</title>
<path fill="none" stroke="midnightblue" d="M397.364,-391.337C436.136,-391.627 496.033,-392 548,-392 548,-392 548,-392 953,-392 1029.2,-392 1119.72,-392.565 1159.94,-392.846"/>
<polygon fill="midnightblue" stroke="midnightblue" points="397.04,-387.834 387.013,-391.258 396.986,-394.834 397.04,-387.834"/>
</g>
<!-- Node30&#45;&gt;Node29 -->
<g id="edge41" class="edge"><title>Node30&#45;&gt;Node29</title>
<path fill="none" stroke="midnightblue" d="M271.028,-364.641C288.294,-370.093 308.156,-376.365 324.172,-381.423"/>
<polygon fill="midnightblue" stroke="midnightblue" points="271.801,-361.214 261.211,-361.54 269.693,-367.889 271.801,-361.214"/>
</g>
<!-- Node31&#45;&gt;Node29 -->
<g id="edge43" class="edge"><title>Node31&#45;&gt;Node29</title>
<path fill="none" stroke="midnightblue" d="M272.839,-415.465C289.484,-410.478 308.291,-404.844 323.657,-400.24"/>
<polygon fill="midnightblue" stroke="midnightblue" points="271.379,-412.249 262.804,-418.472 273.388,-418.954 271.379,-412.249"/>
</g>
<!-- Node32&#45;&gt;Node11 -->
<g id="edge45" class="edge"><title>Node32&#45;&gt;Node11</title>
<path fill="none" stroke="midnightblue" d="M271.74,-136.535C288.54,-141.705 307.697,-147.599 323.346,-152.414"/>
<polygon fill="midnightblue" stroke="midnightblue" points="272.751,-133.185 262.164,-133.589 270.693,-139.875 272.751,-133.185"/>
</g>
<!-- Node34 -->
<g id="node34" class="node"><title>Node34</title>
<g id="a_node34"><a xlink:href="prepost_8F90.html#abb385320698675796ad307a27f4855af" target="_top" xlink:title="io_init">
<polygon fill="white" stroke="black" points="837.5,-532.5 837.5,-551.5 881.5,-551.5 881.5,-532.5 837.5,-532.5"/>
<text text-anchor="middle" x="859.5" y="-539.5" font-family="Helvetica,sans-Serif" font-size="10.00">io_init</text>
</a>
</g>
</g>
<!-- Node33&#45;&gt;Node34 -->
<g id="edge47" class="edge"><title>Node33&#45;&gt;Node34</title>
<path fill="none" stroke="midnightblue" d="M717.283,-542C756.375,-542 808.636,-542 837.362,-542"/>
<polygon fill="midnightblue" stroke="midnightblue" points="717.145,-538.5 707.145,-542 717.145,-545.5 717.145,-538.5"/>
</g>
<!-- Node34&#45;&gt;Node6 -->
<g id="edge48" class="edge"><title>Node34&#45;&gt;Node6</title>
<path fill="none" stroke="midnightblue" d="M891.831,-537.47C929.433,-532.434 994.435,-525 1050.5,-525 1050.5,-525 1050.5,-525 1183,-525 1276.81,-525 1312.09,-532.708 1389,-479 1424.36,-454.31 1445.53,-404.558 1453.21,-383.626"/>
<polygon fill="midnightblue" stroke="midnightblue" points="890.964,-534.056 881.532,-538.882 891.915,-540.991 890.964,-534.056"/>
</g>
<!-- Node35&#45;&gt;Node6 -->
<g id="edge50" class="edge"><title>Node35&#45;&gt;Node6</title>
<path fill="none" stroke="midnightblue" d="M989.254,-491.85C1067.04,-500.553 1253.87,-512.23 1389,-446 1417.93,-431.824 1440.77,-399.639 1450.86,-383.541"/>
<polygon fill="midnightblue" stroke="midnightblue" points="989.358,-488.338 979.018,-490.65 988.543,-495.29 989.358,-488.338"/>
</g>
<!-- Node36&#45;&gt;Node13 -->
<g id="edge53" class="edge"><title>Node36&#45;&gt;Node13</title>
<path fill="none" stroke="midnightblue" d="M480.288,-226.435C493.846,-221.342 509.587,-215.429 522.478,-210.587"/>
<polygon fill="midnightblue" stroke="midnightblue" points="479.004,-223.179 470.873,-229.972 481.465,-229.732 479.004,-223.179"/>
</g>
<!-- Node38 -->
<g id="node38" class="node"><title>Node38</title>
<g id="a_node38"><a xlink:href="drive2_8F90.html#a6637d27bdf1984d5964bd31465cd304a" target="_top" xlink:title="print run statistics from ctimer ">
<polygon fill="white" stroke="black" points="424,-57.5 424,-76.5 473,-76.5 473,-57.5 424,-57.5"/>
<text text-anchor="middle" x="448.5" y="-64.5" font-family="Helvetica,sans-Serif" font-size="10.00">runstat</text>
</a>
</g>
</g>
<!-- Node37&#45;&gt;Node38 -->
<g id="edge55" class="edge"><title>Node37&#45;&gt;Node38</title>
<path fill="none" stroke="midnightblue" d="M380.48,-25.0206C396.894,-35.3018 418.163,-48.6238 432.291,-57.4735"/>
<polygon fill="midnightblue" stroke="midnightblue" points="382.27,-22.0115 371.937,-19.6693 378.554,-27.9438 382.27,-22.0115"/>
</g>
<!-- Node39 -->
<g id="node39" class="node"><title>Node39</title>
<g id="a_node39"><a xlink:href="drive1_8F90.html#a10055f031c0ac540cc534ab2b0363206" target="_top" xlink:title="perform any end&#45;of&#45;run reporting ">
<polygon fill="white" stroke="black" points="637,-132.5 637,-151.5 695,-151.5 695,-132.5 637,-132.5"/>
<text text-anchor="middle" x="666" y="-139.5" font-family="Helvetica,sans-Serif" font-size="10.00">nek_end</text>
</a>
</g>
</g>
<!-- Node38&#45;&gt;Node39 -->
<g id="edge56" class="edge"><title>Node38&#45;&gt;Node39</title>
<path fill="none" stroke="midnightblue" d="M483.01,-78.6624C525.574,-93.476 598.217,-118.758 637.625,-132.473"/>
<polygon fill="midnightblue" stroke="midnightblue" points="483.98,-75.2943 473.386,-75.3129 481.68,-81.9054 483.98,-75.2943"/>
</g>
<!-- Node39&#45;&gt;Node7 -->
<g id="edge57" class="edge"><title>Node39&#45;&gt;Node7</title>
<path fill="none" stroke="midnightblue" d="M705.499,-143.915C744.161,-145.671 805.444,-148 858.5,-148 858.5,-148 858.5,-148 1333.5,-148 1408.6,-148 1492.89,-183.057 1530.09,-200.448"/>
<polygon fill="midnightblue" stroke="midnightblue" points="705.372,-140.405 695.22,-143.437 705.047,-147.398 705.372,-140.405"/>
</g>
</g>
</svg>
        <g id="navigator" transform="translate(0 0)" fill="#404254">
                <rect fill="#f2f5e9" fill-opacity="0.5" stroke="#606060" stroke-width=".5" x="0" y="0" width="60" height="60"/>
                <use id="zoomplus" xlink:href="#zoomPlus" x="17" y="9" onmousedown="handleZoom(evt,'in')"/>
                <use id="zoomminus" xlink:href="#zoomMin" x="42" y="9" onmousedown="handleZoom(evt,'out')"/>
                <use id="reset" xlink:href="#resetDef" x="30" y="36" onmousedown="handleReset()"/>
                <g id="arrowUp" xlink:href="#dirArrow" transform="translate(30 24)" onmousedown="handlePan(0,-1)">
                  <use xlink:href="#rim" fill="#404040">
                        <set attributeName="fill" to="#808080" begin="arrowUp.mouseover" end="arrowUp.mouseout"/>
                  </use>
                  <path fill="none" stroke="white" stroke-width="1.5" d="M0,-3.0v7 M-2.5,-0.5L0,-3.0L2.5,-0.5"/>
                </g>
                <g id="arrowRight" xlink:href="#dirArrow" transform="rotate(90) translate(36 -43)" onmousedown="handlePan(1,0)">
                  <use xlink:href="#rim" fill="#404040">
                        <set attributeName="fill" to="#808080" begin="arrowRight.mouseover" end="arrowRight.mouseout"/>
                  </use>
                  <path fill="none" stroke="white" stroke-width="1.5" d="M0,-3.0v7 M-2.5,-0.5L0,-3.0L2.5,-0.5"/>
                </g>
                <g id="arrowDown" xlink:href="#dirArrow" transform="rotate(180) translate(-30 -48)" onmousedown="handlePan(0,1)">
                  <use xlink:href="#rim" fill="#404040">
                        <set attributeName="fill" to="#808080" begin="arrowDown.mouseover" end="arrowDown.mouseout"/>
                  </use>
                  <path fill="none" stroke="white" stroke-width="1.5" d="M0,-3.0v7 M-2.5,-0.5L0,-3.0L2.5,-0.5"/>
                </g>
                <g id="arrowLeft" xlink:href="#dirArrow" transform="rotate(270) translate(-36 17)" onmousedown="handlePan(-1,0)">
                  <use xlink:href="#rim" fill="#404040">
                        <set attributeName="fill" to="#808080" begin="arrowLeft.mouseover" end="arrowLeft.mouseout"/>
                  </use>
                  <path fill="none" stroke="white" stroke-width="1.5" d="M0,-3.0v7 M-2.5,-0.5L0,-3.0L2.5,-0.5"/>
                </g>
        </g>
        <svg viewBox="0 0 15 15" width="100%" height="30px" preserveAspectRatio="xMaxYMin meet">
         <g id="arrow_out" transform="scale(0.3 0.3)">
          <a xlink:href="mpi__dummy_8F90_a709ef20e522dddac7afb17999141cfd4_icgraph_org.svg" target="_base">
           <rect id="button" ry="5" rx="5" y="6" x="6" height="38" width="38"
                fill="#f2f5e9" fill-opacity="0.5" stroke="#606060" stroke-width="1.0"/>
           <path id="arrow"
             d="M 11.500037,31.436501 C 11.940474,20.09759 22.043105,11.32322 32.158766,21.979434 L 37.068811,17.246167 C 37.068811,17.246167 37.088388,32 37.088388,32 L 22.160133,31.978069 C 22.160133,31.978069 26.997745,27.140456 26.997745,27.140456 C 18.528582,18.264221 13.291696,25.230495 11.500037,31.436501 z"
             style="fill:#404040;"/>
          </a>
         </g>
        </svg>
</svg>
