<?xml version="1.0" encoding="UTF-8" standalone="no"?>
<!DOCTYPE svg PUBLIC "-//W3C//DTD SVG 1.1//EN"
 "http://www.w3.org/Graphics/SVG/1.1/DTD/svg11.dtd">
<!-- Generated by graphviz version 2.38.0 (20140413.2041)
 -->
<!-- Title: mpi_allgather Pages: 1 -->
<svg width="271pt" height="104pt"
 viewBox="0.00 0.00 271.00 104.00" xmlns="http://www.w3.org/2000/svg" xmlns:xlink="http://www.w3.org/1999/xlink">
<g id="graph0" class="graph" transform="scale(1 1) rotate(0) translate(4 100)">
<title>mpi_allgather</title>
<polygon fill="white" stroke="none" points="-4,4 -4,-100 267,-100 267,4 -4,4"/>
<!-- Node1 -->
<g id="node1" class="node"><title>Node1</title>
<polygon fill="#bfbfbf" stroke="black" points="0,-38.5 0,-57.5 80,-57.5 80,-38.5 0,-38.5"/>
<text text-anchor="middle" x="40" y="-45.5" font-family="Helvetica,sans-Serif" font-size="10.00">mpi_allgather</text>
</g>
<!-- Node2 -->
<g id="node2" class="node"><title>Node2</title>
<g id="a_node2"><a xlink:href="mpi__dummy_8F90.html#adacf9df014afd4915da1d7d4648c1f1b" target="_top" xlink:title="mpi_copy_double_precision">
<polygon fill="white" stroke="black" points="116,-76.5 116,-95.5 263,-95.5 263,-76.5 116,-76.5"/>
<text text-anchor="middle" x="189.5" y="-83.5" font-family="Helvetica,sans-Serif" font-size="10.00">mpi_copy_double_precision</text>
</a>
</g>
</g>
<!-- Node1&#45;&gt;Node2 -->
<g id="edge1" class="edge"><title>Node1&#45;&gt;Node2</title>
<path fill="none" stroke="midnightblue" d="M78.2205,-57.589C97.5093,-62.5583 121.258,-68.6767 141.771,-73.9613"/>
<polygon fill="midnightblue" stroke="midnightblue" points="140.99,-77.3744 151.547,-76.4799 142.737,-70.5957 140.99,-77.3744"/>
</g>
<!-- Node3 -->
<g id="node3" class="node"><title>Node3</title>
<g id="a_node3"><a xlink:href="mpi__dummy_8F90.html#a94372b6e010f751b2c13ff97fa327dc6" target="_top" xlink:title="mpi_copy_integer">
<polygon fill="white" stroke="black" points="139,-38.5 139,-57.5 240,-57.5 240,-38.5 139,-38.5"/>
<text text-anchor="middle" x="189.5" y="-45.5" font-family="Helvetica,sans-Serif" font-size="10.00">mpi_copy_integer</text>
</a>
</g>
</g>
<!-- Node1&#45;&gt;Node3 -->
<g id="edge2" class="edge"><title>Node1&#45;&gt;Node3</title>
<path fill="none" stroke="midnightblue" d="M80.14,-48C95.0531,-48 112.408,-48 128.801,-48"/>
<polygon fill="midnightblue" stroke="midnightblue" points="128.853,-51.5001 138.853,-48 128.853,-44.5001 128.853,-51.5001"/>
</g>
<!-- Node4 -->
<g id="node4" class="node"><title>Node4</title>
<g id="a_node4"><a xlink:href="mpi__dummy_8F90.html#ac0c4aac64adb7d2d38a1253c9fa7fe59" target="_top" xlink:title="mpi_copy_real">
<polygon fill="white" stroke="black" points="146.5,-0.5 146.5,-19.5 232.5,-19.5 232.5,-0.5 146.5,-0.5"/>
<text text-anchor="middle" x="189.5" y="-7.5" font-family="Helvetica,sans-Serif" font-size="10.00">mpi_copy_real</text>
</a>
</g>
</g>
<!-- Node1&#45;&gt;Node4 -->
<g id="edge3" class="edge"><title>Node1&#45;&gt;Node4</title>
<path fill="none" stroke="midnightblue" d="M78.2205,-38.411C97.5093,-33.4417 121.258,-27.3233 141.771,-22.0387"/>
<polygon fill="midnightblue" stroke="midnightblue" points="142.737,-25.4043 151.547,-19.5201 140.99,-18.6256 142.737,-25.4043"/>
</g>
</g>
</svg>
