<?xml version="1.0" encoding="UTF-8" standalone="no"?>
<!DOCTYPE svg PUBLIC "-//W3C//DTD SVG 1.1//EN"
 "http://www.w3.org/Graphics/SVG/1.1/DTD/svg11.dtd">
<!-- Generated by graphviz version 2.38.0 (20140413.2041)
 -->
<!-- Title: mpi_copy_double_precision Pages: 1 -->
<svg width="301pt" height="104pt"
 viewBox="0.00 0.00 301.00 104.00" xmlns="http://www.w3.org/2000/svg" xmlns:xlink="http://www.w3.org/1999/xlink">
<g id="graph0" class="graph" transform="scale(1 1) rotate(0) translate(4 100)">
<title>mpi_copy_double_precision</title>
<polygon fill="white" stroke="none" points="-4,4 -4,-100 297,-100 297,4 -4,4"/>
<!-- Node1 -->
<g id="node1" class="node"><title>Node1</title>
<polygon fill="#bfbfbf" stroke="black" points="0,-38.5 0,-57.5 147,-57.5 147,-38.5 0,-38.5"/>
<text text-anchor="middle" x="73.5" y="-45.5" font-family="Helvetica,sans-Serif" font-size="10.00">mpi_copy_double_precision</text>
</g>
<!-- Node2 -->
<g id="node2" class="node"><title>Node2</title>
<g id="a_node2"><a xlink:href="mpi__dummy_8F90.html#aa89db9f54dbfa8e4285aa8e1c5e59f06" target="_top" xlink:title="mpi_allgather">
<polygon fill="white" stroke="black" points="198,-76.5 198,-95.5 278,-95.5 278,-76.5 198,-76.5"/>
<text text-anchor="middle" x="238" y="-83.5" font-family="Helvetica,sans-Serif" font-size="10.00">mpi_allgather</text>
</a>
</g>
</g>
<!-- Node1&#45;&gt;Node2 -->
<g id="edge1" class="edge"><title>Node1&#45;&gt;Node2</title>
<path fill="none" stroke="midnightblue" d="M125.288,-59.8767C148.746,-65.3621 176.165,-71.7739 197.967,-76.8724"/>
<polygon fill="midnightblue" stroke="midnightblue" points="126.04,-56.4581 115.506,-57.589 124.446,-63.2742 126.04,-56.4581"/>
</g>
<!-- Node3 -->
<g id="node3" class="node"><title>Node3</title>
<g id="a_node3"><a xlink:href="mpi__dummy_8F90.html#ae5ff2c55af7d141f1b29ee76c006891f" target="_top" xlink:title="mpi_allgatherv">
<polygon fill="white" stroke="black" points="195,-38.5 195,-57.5 281,-57.5 281,-38.5 195,-38.5"/>
<text text-anchor="middle" x="238" y="-45.5" font-family="Helvetica,sans-Serif" font-size="10.00">mpi_allgatherv</text>
</a>
</g>
</g>
<!-- Node1&#45;&gt;Node3 -->
<g id="edge2" class="edge"><title>Node1&#45;&gt;Node3</title>
<path fill="none" stroke="midnightblue" d="M157.499,-48C170.362,-48 183.167,-48 194.623,-48"/>
<polygon fill="midnightblue" stroke="midnightblue" points="157.195,-44.5001 147.195,-48 157.195,-51.5001 157.195,-44.5001"/>
</g>
<!-- Node4 -->
<g id="node4" class="node"><title>Node4</title>
<g id="a_node4"><a xlink:href="mpi__dummy_8F90.html#a9d1824de3185c07c230ac4a46f318fd1" target="_top" xlink:title="mpi_reduce_scatter">
<polygon fill="white" stroke="black" points="183,-0.5 183,-19.5 293,-19.5 293,-0.5 183,-0.5"/>
<text text-anchor="middle" x="238" y="-7.5" font-family="Helvetica,sans-Serif" font-size="10.00">mpi_reduce_scatter</text>
</a>
</g>
</g>
<!-- Node1&#45;&gt;Node4 -->
<g id="edge3" class="edge"><title>Node1&#45;&gt;Node4</title>
<path fill="none" stroke="midnightblue" d="M125.371,-36.1039C148.212,-30.7626 174.795,-24.5463 196.289,-19.5201"/>
<polygon fill="midnightblue" stroke="midnightblue" points="124.446,-32.7258 115.506,-38.411 126.04,-39.5419 124.446,-32.7258"/>
</g>
</g>
</svg>
