<?xml version="1.0" encoding="UTF-8" standalone="no"?>
<!DOCTYPE svg PUBLIC "-//W3C//DTD SVG 1.1//EN"
 "http://www.w3.org/Graphics/SVG/1.1/DTD/svg11.dtd">
<!-- Generated by graphviz version 2.38.0 (20140413.2041)
 -->
<!-- Title: mpi_bcast Pages: 1 -->
<svg width="1653pt" height="758pt"
 viewBox="0.00 0.00 1653.00 758.00" xmlns="http://www.w3.org/2000/svg" xmlns:xlink="http://www.w3.org/1999/xlink">
<g id="graph0" class="graph" transform="scale(1 1) rotate(0) translate(4 754)">
<title>mpi_bcast</title>
<polygon fill="white" stroke="none" points="-4,4 -4,-754 1649,-754 1649,4 -4,4"/>
<!-- Node1 -->
<g id="node1" class="node"><title>Node1</title>
<polygon fill="#bfbfbf" stroke="black" points="0,-445.5 0,-464.5 64,-464.5 64,-445.5 0,-445.5"/>
<text text-anchor="middle" x="32" y="-452.5" font-family="Helvetica,sans-Serif" font-size="10.00">mpi_bcast</text>
</g>
<!-- Node2 -->
<g id="node2" class="node"><title>Node2</title>
<g id="a_node2"><a xlink:href="comm__mpi_8F90.html#ae425c1deb2e82d2007c97e1c4be990c8" target="_top" xlink:title="bcast">
<polygon fill="white" stroke="black" points="100,-445.5 100,-464.5 141,-464.5 141,-445.5 100,-445.5"/>
<text text-anchor="middle" x="120.5" y="-452.5" font-family="Helvetica,sans-Serif" font-size="10.00">bcast</text>
</a>
</g>
</g>
<!-- Node1&#45;&gt;Node2 -->
<g id="edge1" class="edge"><title>Node1&#45;&gt;Node2</title>
<path fill="none" stroke="midnightblue" d="M74.4968,-455C83.3585,-455 92.3184,-455 99.8853,-455"/>
<polygon fill="midnightblue" stroke="midnightblue" points="74.2285,-451.5 64.2285,-455 74.2285,-458.5 74.2285,-451.5"/>
</g>
<!-- Node3 -->
<g id="node3" class="node"><title>Node3</title>
<g id="a_node3"><a xlink:href="connect2_8F90.html#ad7c0c899841c497a8ce9e9c20a734c11" target="_top" xlink:title="Generate local mesh elements. ">
<polygon fill="white" stroke="black" points="563,-692.5 563,-711.5 623,-711.5 623,-692.5 563,-692.5"/>
<text text-anchor="middle" x="593" y="-699.5" font-family="Helvetica,sans-Serif" font-size="10.00">genmesh</text>
</a>
</g>
</g>
<!-- Node2&#45;&gt;Node3 -->
<g id="edge2" class="edge"><title>Node2&#45;&gt;Node3</title>
<path fill="none" stroke="midnightblue" d="M123.444,-474.56C128.788,-523.987 145.446,-651.834 177,-678 235.47,-726.486 478.374,-711.462 562.872,-704.59"/>
<polygon fill="midnightblue" stroke="midnightblue" points="126.916,-474.106 122.399,-464.522 119.953,-474.83 126.916,-474.106"/>
</g>
<!-- Node4 -->
<g id="node4" class="node"><title>Node4</title>
<g id="a_node4"><a xlink:href="connect2_8F90.html#a842357ad1d3581135ffacc57139397d2" target="_top" xlink:title="Read in data from preprocessor input file (.rea) ">
<polygon fill="white" stroke="black" points="693.5,-521.5 693.5,-540.5 740.5,-540.5 740.5,-521.5 693.5,-521.5"/>
<text text-anchor="middle" x="717" y="-528.5" font-family="Helvetica,sans-Serif" font-size="10.00">readat</text>
</a>
</g>
</g>
<!-- Node2&#45;&gt;Node4 -->
<g id="edge66" class="edge"><title>Node2&#45;&gt;Node4</title>
<path fill="none" stroke="midnightblue" d="M120.744,-474.979C120.45,-514.313 125.942,-601.72 177,-645 230.953,-690.734 264.272,-664 335,-664 335,-664 335,-664 471,-664 574.572,-664 676.188,-571.061 706.744,-540.565"/>
<polygon fill="midnightblue" stroke="midnightblue" points="124.246,-474.897 120.962,-464.825 117.248,-474.747 124.246,-474.897"/>
</g>
<!-- Node7 -->
<g id="node7" class="node"><title>Node7</title>
<g id="a_node7"><a xlink:href="singlmesh_8F90.html#a0b340eaa9352e5b5d12ff7d525b30c0a" target="_top" xlink:title="get_session_info">
<polygon fill="white" stroke="black" points="1354,-368.5 1354,-387.5 1451,-387.5 1451,-368.5 1354,-368.5"/>
<text text-anchor="middle" x="1402.5" y="-375.5" font-family="Helvetica,sans-Serif" font-size="10.00">get_session_info</text>
</a>
</g>
</g>
<!-- Node2&#45;&gt;Node7 -->
<g id="edge6" class="edge"><title>Node2&#45;&gt;Node7</title>
<path fill="none" stroke="midnightblue" d="M139.881,-439.07C150.125,-431.094 163.51,-422.078 177,-417 243.194,-392.083 264.272,-398 335,-398 335,-398 335,-398 1122.5,-398 1203.84,-398 1298.18,-389.438 1353.69,-383.518"/>
<polygon fill="midnightblue" stroke="midnightblue" points="137.63,-436.389 132.081,-445.415 142.047,-441.819 137.63,-436.389"/>
</g>
<!-- Node8 -->
<g id="node8" class="node"><title>Node8</title>
<g id="a_node8"><a xlink:href="navier8_8F90.html#a7b711f52527072521e8670492a58ed16" target="_top" xlink:title="get_vert_map">
<polygon fill="white" stroke="black" points="177,-331.5 177,-350.5 259,-350.5 259,-331.5 177,-331.5"/>
<text text-anchor="middle" x="218" y="-338.5" font-family="Helvetica,sans-Serif" font-size="10.00">get_vert_map</text>
</a>
</g>
</g>
<!-- Node2&#45;&gt;Node8 -->
<g id="edge8" class="edge"><title>Node2&#45;&gt;Node8</title>
<path fill="none" stroke="midnightblue" d="M134.907,-436.982C145.899,-422.424 162.031,-401.544 177,-384 187.059,-372.211 199.275,-359.262 207.54,-350.687"/>
<polygon fill="midnightblue" stroke="midnightblue" points="131.985,-435.044 128.783,-445.143 137.584,-439.245 131.985,-435.044"/>
</g>
<!-- Node20 -->
<g id="node20" class="node"><title>Node20</title>
<g id="a_node20"><a xlink:href="comm__mpi_8F90.html#aaa2c579a3b72b7a20446818d166bc7cc" target="_top" xlink:title="Broadcast logical variable to all processors. ">
<polygon fill="white" stroke="black" points="196,-245.5 196,-264.5 240,-264.5 240,-245.5 196,-245.5"/>
<text text-anchor="middle" x="218" y="-252.5" font-family="Helvetica,sans-Serif" font-size="10.00">lbcast</text>
</a>
</g>
</g>
<!-- Node2&#45;&gt;Node20 -->
<g id="edge25" class="edge"><title>Node2&#45;&gt;Node20</title>
<path fill="none" stroke="midnightblue" d="M123.229,-434.73C127.161,-399.561 139.561,-326.458 177,-279 181.916,-272.769 188.929,-267.791 195.715,-264.021"/>
<polygon fill="midnightblue" stroke="midnightblue" points="119.703,-434.813 122.196,-445.111 126.669,-435.507 119.703,-434.813"/>
</g>
<!-- Node21 -->
<g id="node21" class="node"><title>Node21</title>
<g id="a_node21"><a xlink:href="ic_8F90.html#af64028aefb1dff2a9f8a84ff024f44b0" target="_top" xlink:title="driver for restarts (1) Open restart file(s) (2) Check previous spatial discretization (3) Map (K1...">
<polygon fill="white" stroke="black" points="296,-207.5 296,-226.5 376,-226.5 376,-207.5 296,-207.5"/>
<text text-anchor="middle" x="336" y="-214.5" font-family="Helvetica,sans-Serif" font-size="10.00">restart_driver</text>
</a>
</g>
</g>
<!-- Node2&#45;&gt;Node21 -->
<g id="edge67" class="edge"><title>Node2&#45;&gt;Node21</title>
<path fill="none" stroke="midnightblue" d="M123.669,-435.262C129.448,-386.522 146.864,-262.492 177,-236 209.267,-207.635 260.63,-206.719 295.986,-210.371"/>
<polygon fill="midnightblue" stroke="midnightblue" points="120.164,-435.11 122.503,-445.443 127.118,-435.907 120.164,-435.11"/>
</g>
<!-- Node23 -->
<g id="node23" class="node"><title>Node23</title>
<g id="a_node23"><a xlink:href="prepost_8F90.html#a9872fbccba1ed7b2932227287629cf2b" target="_top" xlink:title="mult&#45;file output ">
<polygon fill="white" stroke="black" points="185.5,-169.5 185.5,-188.5 250.5,-188.5 250.5,-169.5 185.5,-169.5"/>
<text text-anchor="middle" x="218" y="-176.5" font-family="Helvetica,sans-Serif" font-size="10.00">mfo_outfld</text>
</a>
</g>
</g>
<!-- Node2&#45;&gt;Node23 -->
<g id="edge29" class="edge"><title>Node2&#45;&gt;Node23</title>
<path fill="none" stroke="midnightblue" d="M120.803,-435.204C120.194,-389.724 124.427,-276.087 177,-203 181.256,-197.083 187.464,-192.36 193.724,-188.723"/>
<polygon fill="midnightblue" stroke="midnightblue" points="117.305,-435.315 121.036,-445.231 124.303,-435.153 117.305,-435.315"/>
</g>
<!-- Node24 -->
<g id="node24" class="node"><title>Node24</title>
<g id="a_node24"><a xlink:href="prepost_8F90.html#a78b0361cf9ff06bfe5020c2114ddc924" target="_top" xlink:title="output .fld file ">
<polygon fill="white" stroke="black" points="315,-131.5 315,-150.5 357,-150.5 357,-131.5 315,-131.5"/>
<text text-anchor="middle" x="336" y="-138.5" font-family="Helvetica,sans-Serif" font-size="10.00">outfld</text>
</a>
</g>
</g>
<!-- Node2&#45;&gt;Node24 -->
<g id="edge53" class="edge"><title>Node2&#45;&gt;Node24</title>
<path fill="none" stroke="midnightblue" d="M122.285,-435.091C125.088,-375.074 136.69,-197.723 177,-160 214.723,-124.698 281.641,-130.832 314.974,-136.703"/>
<polygon fill="midnightblue" stroke="midnightblue" points="118.773,-435.311 121.836,-445.454 125.766,-435.615 118.773,-435.311"/>
</g>
<!-- Node35 -->
<g id="node35" class="node"><title>Node35</title>
<g id="a_node35"><a xlink:href="classio.html#a3b8dab7279564c05e092b8194f166d8b" target="_top" xlink:title="Read header and return number of elements and word size. ">
<polygon fill="white" stroke="black" points="413,-143.5 413,-162.5 527,-162.5 527,-143.5 413,-143.5"/>
<text text-anchor="middle" x="470" y="-150.5" font-family="Helvetica,sans-Serif" font-size="10.00">io::mfo_read_header</text>
</a>
</g>
</g>
<!-- Node2&#45;&gt;Node35 -->
<g id="edge47" class="edge"><title>Node2&#45;&gt;Node35</title>
<path fill="none" stroke="midnightblue" d="M124.886,-435.304C130.74,-406.818 145.31,-354.033 177,-322 245.049,-253.214 302.65,-297.921 377,-236 399.164,-217.541 391.512,-201.242 413,-182 422.053,-173.893 433.784,-167.364 444.168,-162.569"/>
<polygon fill="midnightblue" stroke="midnightblue" points="121.423,-434.781 122.996,-445.258 128.3,-436.087 121.423,-434.781"/>
</g>
<!-- Node37 -->
<g id="node37" class="node"><title>Node37</title>
<g id="a_node37"><a xlink:href="byte__mpi_8F90.html#a462fe2d9aa30417eddfb192c3b1f1ad4" target="_top" xlink:title="nek_comm_io">
<polygon fill="white" stroke="black" points="295,-730.5 295,-749.5 377,-749.5 377,-730.5 295,-730.5"/>
<text text-anchor="middle" x="336" y="-737.5" font-family="Helvetica,sans-Serif" font-size="10.00">nek_comm_io</text>
</a>
</g>
</g>
<!-- Node2&#45;&gt;Node37 -->
<g id="edge50" class="edge"><title>Node2&#45;&gt;Node37</title>
<path fill="none" stroke="midnightblue" d="M122.856,-474.705C127.057,-529.661 141.757,-682.77 177,-716 208.189,-745.407 259.28,-748.061 294.891,-745.542"/>
<polygon fill="midnightblue" stroke="midnightblue" points="126.333,-474.265 122.115,-464.546 119.352,-474.774 126.333,-474.265"/>
</g>
<!-- Node39 -->
<g id="node39" class="node"><title>Node39</title>
<g id="a_node39"><a xlink:href="connect2_8F90.html#add840513f6cd7e4b9bb1f669fa3a2fa5" target="_top" xlink:title=".Read history data .Broadcast to all processors ">
<polygon fill="white" stroke="black" points="314.5,-578.5 314.5,-597.5 357.5,-597.5 357.5,-578.5 314.5,-578.5"/>
<text text-anchor="middle" x="336" y="-585.5" font-family="Helvetica,sans-Serif" font-size="10.00">rdhist</text>
</a>
</g>
</g>
<!-- Node2&#45;&gt;Node39 -->
<g id="edge54" class="edge"><title>Node2&#45;&gt;Node39</title>
<path fill="none" stroke="midnightblue" d="M125.689,-474.634C132.131,-499.682 147.004,-542.345 177,-564 218.392,-593.882 281.906,-593.207 314.359,-590.464"/>
<polygon fill="midnightblue" stroke="midnightblue" points="129.07,-473.722 123.362,-464.797 122.258,-475.334 129.07,-473.722"/>
</g>
<!-- Node40 -->
<g id="node40" class="node"><title>Node40</title>
<g id="a_node40"><a xlink:href="connect2_8F90.html#a91a147fe67d9a68726d0fdf8b514f294" target="_top" xlink:title="Read Initial Conditions / Drive Force. Broadcast ICFILE to all processors. ">
<polygon fill="white" stroke="black" points="448.5,-540.5 448.5,-559.5 491.5,-559.5 491.5,-540.5 448.5,-540.5"/>
<text text-anchor="middle" x="470" y="-547.5" font-family="Helvetica,sans-Serif" font-size="10.00">rdicdf</text>
</a>
</g>
</g>
<!-- Node2&#45;&gt;Node40 -->
<g id="edge56" class="edge"><title>Node2&#45;&gt;Node40</title>
<path fill="none" stroke="midnightblue" d="M130.4,-473.63C139.543,-490.485 155.475,-514.389 177,-526 267.879,-575.02 398.239,-561.388 448.321,-553.643"/>
<polygon fill="midnightblue" stroke="midnightblue" points="133.484,-471.972 125.81,-464.666 127.253,-475.162 133.484,-471.972"/>
</g>
<!-- Node41 -->
<g id="node41" class="node"><title>Node41</title>
<g id="a_node41"><a xlink:href="connect2_8F90.html#af67c931464a42d613ec3ce4e5bc3e0ff" target="_top" xlink:title=".Read materials property data .Disperse material properties to all processors according to sequential...">
<polygon fill="white" stroke="black" points="568,-502.5 568,-521.5 618,-521.5 618,-502.5 568,-502.5"/>
<text text-anchor="middle" x="593" y="-509.5" font-family="Helvetica,sans-Serif" font-size="10.00">rdmatp</text>
</a>
</g>
</g>
<!-- Node2&#45;&gt;Node41 -->
<g id="edge58" class="edge"><title>Node2&#45;&gt;Node41</title>
<path fill="none" stroke="midnightblue" d="M150.257,-468.622C158.713,-472.157 168.088,-475.633 177,-478 321.275,-516.327 502.821,-514.945 567.635,-512.977"/>
<polygon fill="midnightblue" stroke="midnightblue" points="151.4,-465.302 140.835,-464.506 148.598,-471.717 151.4,-465.302"/>
</g>
<!-- Node42 -->
<g id="node42" class="node"><title>Node42</title>
<g id="a_node42"><a xlink:href="connect2_8F90.html#aa74103a17a3ec27306cefb9bd257449e" target="_top" xlink:title="Read objects, Broadcast to all processors. ">
<polygon fill="white" stroke="black" points="316,-464.5 316,-483.5 356,-483.5 356,-464.5 316,-464.5"/>
<text text-anchor="middle" x="336" y="-471.5" font-family="Helvetica,sans-Serif" font-size="10.00">rdobj</text>
</a>
</g>
</g>
<!-- Node2&#45;&gt;Node42 -->
<g id="edge60" class="edge"><title>Node2&#45;&gt;Node42</title>
<path fill="none" stroke="midnightblue" d="M151.415,-457.662C196.028,-461.633 278.727,-468.992 315.959,-472.306"/>
<polygon fill="midnightblue" stroke="midnightblue" points="151.474,-454.154 141.203,-456.753 150.853,-461.126 151.474,-454.154"/>
</g>
<!-- Node43 -->
<g id="node43" class="node"><title>Node43</title>
<g id="a_node43"><a xlink:href="connect2_8F90.html#a061023946c9e5de6486814b486b18489" target="_top" xlink:title="Read output specs, broadcast to all processors. ">
<polygon fill="white" stroke="black" points="197.5,-426.5 197.5,-445.5 238.5,-445.5 238.5,-426.5 197.5,-426.5"/>
<text text-anchor="middle" x="218" y="-433.5" font-family="Helvetica,sans-Serif" font-size="10.00">rdout</text>
</a>
</g>
</g>
<!-- Node2&#45;&gt;Node43 -->
<g id="edge62" class="edge"><title>Node2&#45;&gt;Node43</title>
<path fill="none" stroke="midnightblue" d="M151.133,-449.104C166.13,-446.121 183.926,-442.58 197.238,-439.932"/>
<polygon fill="midnightblue" stroke="midnightblue" points="150.412,-445.679 141.288,-451.063 151.778,-452.545 150.412,-445.679"/>
</g>
<!-- Node44 -->
<g id="node44" class="node"><title>Node44</title>
<g id="a_node44"><a xlink:href="connect2_8F90.html#a530a74e674f77e40a6fe452da105572f" target="_top" xlink:title="Read in parameters supplied by preprocessor and (eventually) echo check. .Broadcast run parameters to...">
<polygon fill="white" stroke="black" points="190,-616.5 190,-635.5 246,-635.5 246,-616.5 190,-616.5"/>
<text text-anchor="middle" x="218" y="-623.5" font-family="Helvetica,sans-Serif" font-size="10.00">rdparam</text>
</a>
</g>
</g>
<!-- Node2&#45;&gt;Node44 -->
<g id="edge64" class="edge"><title>Node2&#45;&gt;Node44</title>
<path fill="none" stroke="midnightblue" d="M124.692,-474.862C130.446,-505.244 145.064,-563.751 177,-602 181.879,-607.844 188.568,-612.632 195.08,-616.351"/>
<polygon fill="midnightblue" stroke="midnightblue" points="128.083,-473.938 122.903,-464.696 121.189,-475.151 128.083,-473.938"/>
</g>
<!-- Node3&#45;&gt;Node4 -->
<g id="edge3" class="edge"><title>Node3&#45;&gt;Node4</title>
<path fill="none" stroke="midnightblue" d="M615.219,-685.79C617.966,-683.312 620.64,-680.681 623,-678 663.904,-631.529 698.934,-565.22 711.268,-540.645"/>
<polygon fill="midnightblue" stroke="midnightblue" points="612.888,-683.178 607.487,-692.292 617.393,-688.535 612.888,-683.178"/>
</g>
<!-- Node5 -->
<g id="node5" class="node"><title>Node5</title>
<g id="a_node5"><a xlink:href="drive1_8F90.html#a87bd37ae2c18426f28f35cc3f24e4355" target="_top" xlink:title="initialize nek ">
<polygon fill="white" stroke="black" points="1501,-232.5 1501,-251.5 1554,-251.5 1554,-232.5 1501,-232.5"/>
<text text-anchor="middle" x="1527.5" y="-239.5" font-family="Helvetica,sans-Serif" font-size="10.00">nek_init</text>
</a>
</g>
</g>
<!-- Node4&#45;&gt;Node5 -->
<g id="edge4" class="edge"><title>Node4&#45;&gt;Node5</title>
<path fill="none" stroke="midnightblue" d="M750.684,-521.901C803.644,-507.983 911.699,-483 1005,-483 1005,-483 1005,-483 1253,-483 1352.21,-483 1388.31,-466.618 1459,-397 1502.5,-354.162 1519.87,-278.611 1524.86,-251.786"/>
<polygon fill="midnightblue" stroke="midnightblue" points="749.607,-518.566 740.848,-524.527 751.412,-525.329 749.607,-518.566"/>
</g>
<!-- Node6 -->
<g id="node6" class="node"><title>Node6</title>
<g id="a_node6"><a xlink:href="drive_8F90.html#a13048bf28dd0734640412d69349e3857" target="_top" xlink:title="NEK5000: Spectral Element Computational Fluid Dynamics Solver COPYRIGHT (c) 2008&#45;2010 UCHICAGO ARGONN...">
<polygon fill="white" stroke="black" points="1596,-130.5 1596,-149.5 1645,-149.5 1645,-130.5 1596,-130.5"/>
<text text-anchor="middle" x="1620.5" y="-137.5" font-family="Helvetica,sans-Serif" font-size="10.00">nekton</text>
</a>
</g>
</g>
<!-- Node5&#45;&gt;Node6 -->
<g id="edge5" class="edge"><title>Node5&#45;&gt;Node6</title>
<path fill="none" stroke="midnightblue" d="M1543.92,-224.719C1563.21,-203.09 1595.59,-166.802 1610.93,-149.602"/>
<polygon fill="midnightblue" stroke="midnightblue" points="1541.27,-222.428 1537.23,-232.22 1546.49,-227.088 1541.27,-222.428"/>
</g>
<!-- Node7&#45;&gt;Node5 -->
<g id="edge7" class="edge"><title>Node7&#45;&gt;Node5</title>
<path fill="none" stroke="midnightblue" d="M1425.94,-362.373C1436.53,-354.474 1449,-344.378 1459,-334 1485.25,-306.75 1509.9,-268.95 1520.73,-251.511"/>
<polygon fill="midnightblue" stroke="midnightblue" points="1423.61,-359.736 1417.58,-368.448 1427.73,-365.398 1423.61,-359.736"/>
</g>
<!-- Node9 -->
<g id="node9" class="node"><title>Node9</title>
<g id="a_node9"><a xlink:href="navier8_8F90.html#a3126acd6d2b7a3e63f6f0329d5bae424" target="_top" xlink:title="get_vert">
<polygon fill="white" stroke="black" points="308,-321.5 308,-340.5 364,-340.5 364,-321.5 308,-321.5"/>
<text text-anchor="middle" x="336" y="-328.5" font-family="Helvetica,sans-Serif" font-size="10.00">get_vert</text>
</a>
</g>
</g>
<!-- Node8&#45;&gt;Node9 -->
<g id="edge9" class="edge"><title>Node8&#45;&gt;Node9</title>
<path fill="none" stroke="midnightblue" d="M269.258,-336.667C282.553,-335.521 296.401,-334.328 307.939,-333.333"/>
<polygon fill="midnightblue" stroke="midnightblue" points="268.908,-333.185 259.246,-337.531 269.509,-340.159 268.908,-333.185"/>
</g>
<!-- Node10 -->
<g id="node10" class="node"><title>Node10</title>
<g id="a_node10"><a xlink:href="connect1_8F90.html#ad619b0e5766c6f9dd44ae5c8b6f485f0" target="_top" xlink:title="Parallel compatible routine to find connectivity of element structure. On Processor 0: ...">
<polygon fill="white" stroke="black" points="971.5,-311.5 971.5,-330.5 1040.5,-330.5 1040.5,-311.5 971.5,-311.5"/>
<text text-anchor="middle" x="1006" y="-318.5" font-family="Helvetica,sans-Serif" font-size="10.00">setup_topo</text>
</a>
</g>
</g>
<!-- Node9&#45;&gt;Node10 -->
<g id="edge10" class="edge"><title>Node9&#45;&gt;Node10</title>
<path fill="none" stroke="midnightblue" d="M374.366,-330.441C492.789,-328.668 858.595,-323.192 971.477,-321.502"/>
<polygon fill="midnightblue" stroke="midnightblue" points="373.96,-326.946 364.014,-330.596 374.065,-333.945 373.96,-326.946"/>
</g>
<!-- Node11 -->
<g id="node11" class="node"><title>Node11</title>
<g id="a_node11"><a xlink:href="classhsmg__routines.html#ac8ad367a9256351c66da876bb6c8d936" target="_top" xlink:title="hsmg_routines::hsmg\l_setup_dssum">
<polygon fill="white" stroke="black" points="659,-227 659,-257 775,-257 775,-227 659,-227"/>
<text text-anchor="start" x="667" y="-245" font-family="Helvetica,sans-Serif" font-size="10.00">hsmg_routines::hsmg</text>
<text text-anchor="middle" x="717" y="-234" font-family="Helvetica,sans-Serif" font-size="10.00">_setup_dssum</text>
</a>
</g>
</g>
<!-- Node9&#45;&gt;Node11 -->
<g id="edge12" class="edge"><title>Node9&#45;&gt;Node11</title>
<path fill="none" stroke="midnightblue" d="M364.541,-316.089C368.874,-313.293 373.179,-310.227 377,-307 395.783,-291.137 391.069,-276.112 413,-265 491.119,-225.42 595.33,-227.499 658.949,-233.853"/>
<polygon fill="midnightblue" stroke="midnightblue" points="362.493,-313.237 355.753,-321.412 366.12,-319.224 362.493,-313.237"/>
</g>
<!-- Node14 -->
<g id="node14" class="node"><title>Node14</title>
<g id="a_node14"><a xlink:href="classhsmg__routines.html#ae77d2725d2058f12595e58c677dca8f2" target="_top" xlink:title="hsmg_routines::h1mg\l_setup_dssum">
<polygon fill="white" stroke="black" points="811,-178 811,-208 927,-208 927,-178 811,-178"/>
<text text-anchor="start" x="819" y="-196" font-family="Helvetica,sans-Serif" font-size="10.00">hsmg_routines::h1mg</text>
<text text-anchor="middle" x="869" y="-185" font-family="Helvetica,sans-Serif" font-size="10.00">_setup_dssum</text>
</a>
</g>
</g>
<!-- Node9&#45;&gt;Node14 -->
<g id="edge16" class="edge"><title>Node9&#45;&gt;Node14</title>
<path fill="none" stroke="midnightblue" d="M348.324,-312.451C364.884,-285.999 395.624,-239.57 413,-230 540.908,-159.553 720.392,-171.345 810.953,-183.489"/>
<polygon fill="midnightblue" stroke="midnightblue" points="345.203,-310.842 342.915,-321.187 351.155,-314.527 345.203,-310.842"/>
</g>
<!-- Node16 -->
<g id="node16" class="node"><title>Node16</title>
<g id="a_node16"><a xlink:href="map2_8F90.html#a7d36efc1d668447eee63563983385f7a" target="_top" xlink:title="Compute element to processor distribution according to (weighted) physical distribution in an attempt...">
<polygon fill="white" stroke="black" points="428,-350.5 428,-369.5 512,-369.5 512,-350.5 428,-350.5"/>
<text text-anchor="middle" x="470" y="-357.5" font-family="Helvetica,sans-Serif" font-size="10.00">set_proc_map</text>
</a>
</g>
</g>
<!-- Node9&#45;&gt;Node16 -->
<g id="edge19" class="edge"><title>Node9&#45;&gt;Node16</title>
<path fill="none" stroke="midnightblue" d="M374.027,-339.135C390.811,-342.822 410.715,-347.195 427.955,-350.983"/>
<polygon fill="midnightblue" stroke="midnightblue" points="374.549,-335.666 364.031,-336.939 373.047,-342.503 374.549,-335.666"/>
</g>
<!-- Node18 -->
<g id="node18" class="node"><title>Node18</title>
<g id="a_node18"><a xlink:href="navier8_8F90.html#a3c68a6cfc47f9c2602ab5029cae20ac8" target="_top" xlink:title="get_vertex">
<polygon fill="white" stroke="black" points="436.5,-274.5 436.5,-293.5 503.5,-293.5 503.5,-274.5 436.5,-274.5"/>
<text text-anchor="middle" x="470" y="-281.5" font-family="Helvetica,sans-Serif" font-size="10.00">get_vertex</text>
</a>
</g>
</g>
<!-- Node9&#45;&gt;Node18 -->
<g id="edge22" class="edge"><title>Node9&#45;&gt;Node18</title>
<path fill="none" stroke="midnightblue" d="M373.25,-318.093C394.937,-310.371 422.043,-300.719 441.874,-293.658"/>
<polygon fill="midnightblue" stroke="midnightblue" points="371.959,-314.837 363.712,-321.489 374.307,-321.432 371.959,-314.837"/>
</g>
<!-- Node10&#45;&gt;Node5 -->
<g id="edge11" class="edge"><title>Node10&#45;&gt;Node5</title>
<path fill="none" stroke="midnightblue" d="M1051.07,-317.252C1132.33,-309.878 1310.97,-291.497 1459,-261 1472.95,-258.126 1488.25,-253.91 1500.75,-250.18"/>
<polygon fill="midnightblue" stroke="midnightblue" points="1050.38,-313.8 1040.73,-318.179 1051,-320.772 1050.38,-313.8"/>
</g>
<!-- Node12 -->
<g id="node12" class="node"><title>Node12</title>
<g id="a_node12"><a xlink:href="classhsmg__routines.html#ac8f9bca9624d5e550d70acabfa8aef73" target="_top" xlink:title="Sets up hybrid Schwarz multi&#45;grid preconditioner. ">
<polygon fill="white" stroke="black" points="811,-227 811,-257 927,-257 927,-227 811,-227"/>
<text text-anchor="start" x="819" y="-245" font-family="Helvetica,sans-Serif" font-size="10.00">hsmg_routines::hsmg</text>
<text text-anchor="middle" x="869" y="-234" font-family="Helvetica,sans-Serif" font-size="10.00">_setup</text>
</a>
</g>
</g>
<!-- Node11&#45;&gt;Node12 -->
<g id="edge13" class="edge"><title>Node11&#45;&gt;Node12</title>
<path fill="none" stroke="midnightblue" d="M785.311,-242C793.728,-242 802.277,-242 810.525,-242"/>
<polygon fill="midnightblue" stroke="midnightblue" points="785.137,-238.5 775.136,-242 785.136,-245.5 785.137,-238.5"/>
</g>
<!-- Node13 -->
<g id="node13" class="node"><title>Node13</title>
<g id="a_node13"><a xlink:href="navier6_8F90.html#a45317b1def173b8f1db2e5083595d095" target="_top" xlink:title="Set up arrays for overlapping Schwartz algorithm for pressure solver ">
<polygon fill="white" stroke="black" points="1366.5,-232.5 1366.5,-251.5 1438.5,-251.5 1438.5,-232.5 1366.5,-232.5"/>
<text text-anchor="middle" x="1402.5" y="-239.5" font-family="Helvetica,sans-Serif" font-size="10.00">set_overlap</text>
</a>
</g>
</g>
<!-- Node12&#45;&gt;Node13 -->
<g id="edge14" class="edge"><title>Node12&#45;&gt;Node13</title>
<path fill="none" stroke="midnightblue" d="M937.142,-242C1051.2,-242 1278.92,-242 1366.27,-242"/>
<polygon fill="midnightblue" stroke="midnightblue" points="937.132,-238.5 927.132,-242 937.132,-245.5 937.132,-238.5"/>
</g>
<!-- Node13&#45;&gt;Node5 -->
<g id="edge15" class="edge"><title>Node13&#45;&gt;Node5</title>
<path fill="none" stroke="midnightblue" d="M1448.77,-242C1466.25,-242 1485.61,-242 1500.63,-242"/>
<polygon fill="midnightblue" stroke="midnightblue" points="1448.75,-238.5 1438.75,-242 1448.75,-245.5 1448.75,-238.5"/>
</g>
<!-- Node15 -->
<g id="node15" class="node"><title>Node15</title>
<g id="a_node15"><a xlink:href="classhsmg__routines.html#a91e8aa59d56bbf05d75aa9c48bcd8977" target="_top" xlink:title="Sets up Poisson preconditioner. ">
<polygon fill="white" stroke="black" points="1194,-181 1194,-211 1310,-211 1310,-181 1194,-181"/>
<text text-anchor="start" x="1202" y="-199" font-family="Helvetica,sans-Serif" font-size="10.00">hsmg_routines::h1mg</text>
<text text-anchor="middle" x="1252" y="-188" font-family="Helvetica,sans-Serif" font-size="10.00">_setup</text>
</a>
</g>
</g>
<!-- Node14&#45;&gt;Node15 -->
<g id="edge17" class="edge"><title>Node14&#45;&gt;Node15</title>
<path fill="none" stroke="midnightblue" d="M937.48,-193.531C1010.38,-194.105 1125.29,-195.01 1193.88,-195.55"/>
<polygon fill="midnightblue" stroke="midnightblue" points="937.067,-190.028 927.04,-193.449 937.012,-197.028 937.067,-190.028"/>
</g>
<!-- Node15&#45;&gt;Node13 -->
<g id="edge18" class="edge"><title>Node15&#45;&gt;Node13</title>
<path fill="none" stroke="midnightblue" d="M1311.38,-214.083C1331.57,-220.337 1353.4,-227.099 1370.52,-232.402"/>
<polygon fill="midnightblue" stroke="midnightblue" points="1312.21,-210.678 1301.62,-211.062 1310.14,-217.364 1312.21,-210.678"/>
</g>
<!-- Node17 -->
<g id="node17" class="node"><title>Node17</title>
<g id="a_node17"><a xlink:href="map2_8F90.html#a0a8afb6d7507567621f35bbc8ba36e2c" target="_top" xlink:title="mapelpr">
<polygon fill="white" stroke="black" points="565.5,-350.5 565.5,-369.5 620.5,-369.5 620.5,-350.5 565.5,-350.5"/>
<text text-anchor="middle" x="593" y="-357.5" font-family="Helvetica,sans-Serif" font-size="10.00">mapelpr</text>
</a>
</g>
</g>
<!-- Node16&#45;&gt;Node17 -->
<g id="edge20" class="edge"><title>Node16&#45;&gt;Node17</title>
<path fill="none" stroke="midnightblue" d="M522.37,-360C537.147,-360 552.668,-360 565.296,-360"/>
<polygon fill="midnightblue" stroke="midnightblue" points="522.303,-356.5 512.303,-360 522.303,-363.5 522.303,-356.5"/>
</g>
<!-- Node17&#45;&gt;Node4 -->
<g id="edge21" class="edge"><title>Node17&#45;&gt;Node4</title>
<path fill="none" stroke="midnightblue" d="M607.032,-378.266C632.818,-414.409 689.55,-493.927 709.167,-521.423"/>
<polygon fill="midnightblue" stroke="midnightblue" points="609.566,-375.791 600.909,-369.684 603.868,-379.857 609.566,-375.791"/>
</g>
<!-- Node19 -->
<g id="node19" class="node"><title>Node19</title>
<g id="a_node19"><a xlink:href="navier8_8F90.html#a809b9aa647f2046d09131be2f6074ff6" target="_top" xlink:title="? ">
<polygon fill="white" stroke="black" points="963,-271.5 963,-290.5 1049,-290.5 1049,-271.5 963,-271.5"/>
<text text-anchor="middle" x="1006" y="-278.5" font-family="Helvetica,sans-Serif" font-size="10.00">set_up_h1_crs</text>
</a>
</g>
</g>
<!-- Node18&#45;&gt;Node19 -->
<g id="edge23" class="edge"><title>Node18&#45;&gt;Node19</title>
<path fill="none" stroke="midnightblue" d="M513.66,-283.76C613.817,-283.198 863.056,-281.797 962.777,-281.237"/>
<polygon fill="midnightblue" stroke="midnightblue" points="513.58,-280.261 503.6,-283.817 513.62,-287.261 513.58,-280.261"/>
</g>
<!-- Node19&#45;&gt;Node13 -->
<g id="edge24" class="edge"><title>Node19&#45;&gt;Node13</title>
<path fill="none" stroke="midnightblue" d="M1059.31,-277.792C1119.79,-273.827 1222.29,-266.316 1310,-256 1328.67,-253.804 1349.39,-250.691 1366.38,-247.958"/>
<polygon fill="midnightblue" stroke="midnightblue" points="1059,-274.305 1049.25,-278.445 1059.45,-281.29 1059,-274.305"/>
</g>
<!-- Node20&#45;&gt;Node21 -->
<g id="edge26" class="edge"><title>Node20&#45;&gt;Node21</title>
<path fill="none" stroke="midnightblue" d="M249.692,-244.946C267.087,-239.247 288.728,-232.158 305.86,-226.546"/>
<polygon fill="midnightblue" stroke="midnightblue" points="248.42,-241.679 240.007,-248.118 250.599,-248.331 248.42,-241.679"/>
</g>
<!-- Node22 -->
<g id="node22" class="node"><title>Node22</title>
<g id="a_node22"><a xlink:href="ic_8F90.html#acaefa33e86633e4a7a4b28347d4620d1" target="_top" xlink:title="Set initial conditions. ">
<polygon fill="white" stroke="black" points="1230,-142.5 1230,-161.5 1274,-161.5 1274,-142.5 1230,-142.5"/>
<text text-anchor="middle" x="1252" y="-149.5" font-family="Helvetica,sans-Serif" font-size="10.00">setics</text>
</a>
</g>
</g>
<!-- Node21&#45;&gt;Node22 -->
<g id="edge27" class="edge"><title>Node21&#45;&gt;Node22</title>
<path fill="none" stroke="midnightblue" d="M348.135,-198.621C361.084,-179.035 384.384,-148.846 413,-134 484.198,-97.061 511.79,-111 592,-111 592,-111 592,-111 870,-111 998.373,-111 1030.86,-115.228 1158,-133 1182.81,-136.468 1210.94,-142.516 1229.71,-146.857"/>
<polygon fill="midnightblue" stroke="midnightblue" points="345.047,-196.955 342.632,-207.27 350.953,-200.712 345.047,-196.955"/>
</g>
<!-- Node22&#45;&gt;Node5 -->
<g id="edge28" class="edge"><title>Node22&#45;&gt;Node5</title>
<path fill="none" stroke="midnightblue" d="M1283.76,-162.123C1338.11,-180.007 1450.13,-216.869 1500.71,-233.514"/>
<polygon fill="midnightblue" stroke="midnightblue" points="1284.6,-158.714 1274.01,-158.913 1282.41,-165.363 1284.6,-158.714"/>
</g>
<!-- Node23&#45;&gt;Node24 -->
<g id="edge30" class="edge"><title>Node23&#45;&gt;Node24</title>
<path fill="none" stroke="midnightblue" d="M257.922,-166.25C277.015,-159.995 299.212,-152.724 314.869,-147.595"/>
<polygon fill="midnightblue" stroke="midnightblue" points="256.685,-162.972 248.272,-169.411 258.864,-169.624 256.685,-162.972"/>
</g>
<!-- Node25 -->
<g id="node25" class="node"><title>Node25</title>
<g id="a_node25"><a xlink:href="prepost_8F90.html#a4a3b0e4ce35b3381281c0839e5846370" target="_top" xlink:title="Store results for later postprocessing. Recent updates: p65 now indicates the number of parallel i/o ...">
<polygon fill="white" stroke="black" points="443.5,-47.5 443.5,-66.5 496.5,-66.5 496.5,-47.5 443.5,-47.5"/>
<text text-anchor="middle" x="470" y="-54.5" font-family="Helvetica,sans-Serif" font-size="10.00">prepost</text>
</a>
</g>
</g>
<!-- Node24&#45;&gt;Node25 -->
<g id="edge31" class="edge"><title>Node24&#45;&gt;Node25</title>
<path fill="none" stroke="midnightblue" d="M360.639,-125.957C387.716,-108.726 431.265,-81.0131 454.035,-66.5235"/>
<polygon fill="midnightblue" stroke="midnightblue" points="358.7,-123.043 352.142,-131.364 362.458,-128.948 358.7,-123.043"/>
</g>
<!-- Node26 -->
<g id="node26" class="node"><title>Node26</title>
<g id="a_node26"><a xlink:href="drive1_8F90.html#a6ad57e0cf728f343e371ef8c9a02cd8a" target="_top" xlink:title="integrate the governing equations in time ">
<polygon fill="white" stroke="black" points="1495,-28.5 1495,-47.5 1560,-47.5 1560,-28.5 1495,-28.5"/>
<text text-anchor="middle" x="1527.5" y="-35.5" font-family="Helvetica,sans-Serif" font-size="10.00">nek_solve</text>
</a>
</g>
</g>
<!-- Node25&#45;&gt;Node26 -->
<g id="edge32" class="edge"><title>Node25&#45;&gt;Node26</title>
<path fill="none" stroke="midnightblue" d="M504.871,-43.9362C551.622,-27.1088 638.901,-0 716,-0 716,-0 716,-0 1253,-0 1344.94,-0 1368.59,-2.25194 1459,-19 1471.69,-21.3506 1485.44,-25.0122 1497.2,-28.496"/>
<polygon fill="midnightblue" stroke="midnightblue" points="503.44,-40.7328 495.255,-47.4595 505.849,-47.3056 503.44,-40.7328"/>
</g>
<!-- Node27 -->
<g id="node27" class="node"><title>Node27</title>
<g id="a_node27"><a xlink:href="prepost_8F90.html#aaf4c0f2e1790302116a4c719c2eb50ff" target="_top" xlink:title="outpost2">
<polygon fill="white" stroke="black" points="564.5,-47.5 564.5,-66.5 621.5,-66.5 621.5,-47.5 564.5,-47.5"/>
<text text-anchor="middle" x="593" y="-54.5" font-family="Helvetica,sans-Serif" font-size="10.00">outpost2</text>
</a>
</g>
</g>
<!-- Node25&#45;&gt;Node27 -->
<g id="edge34" class="edge"><title>Node25&#45;&gt;Node27</title>
<path fill="none" stroke="midnightblue" d="M506.717,-57C525.104,-57 547.183,-57 564.269,-57"/>
<polygon fill="midnightblue" stroke="midnightblue" points="506.661,-53.5001 496.661,-57 506.661,-60.5001 506.661,-53.5001"/>
</g>
<!-- Node26&#45;&gt;Node6 -->
<g id="edge33" class="edge"><title>Node26&#45;&gt;Node6</title>
<path fill="none" stroke="midnightblue" d="M1543.92,-55.2813C1563.21,-76.9097 1595.59,-113.198 1610.93,-130.398"/>
<polygon fill="midnightblue" stroke="midnightblue" points="1546.49,-52.9121 1537.23,-47.7802 1541.27,-57.5722 1546.49,-52.9121"/>
</g>
<!-- Node28 -->
<g id="node28" class="node"><title>Node28</title>
<g id="a_node28"><a xlink:href="prepost_8F90.html#aacb528c0b28bc79dff8db48d7ae9ac64" target="_top" xlink:title="outpost">
<polygon fill="white" stroke="black" points="691.5,-47.5 691.5,-66.5 742.5,-66.5 742.5,-47.5 691.5,-47.5"/>
<text text-anchor="middle" x="717" y="-54.5" font-family="Helvetica,sans-Serif" font-size="10.00">outpost</text>
</a>
</g>
</g>
<!-- Node27&#45;&gt;Node28 -->
<g id="edge35" class="edge"><title>Node27&#45;&gt;Node28</title>
<path fill="none" stroke="midnightblue" d="M631.729,-57C651.128,-57 674.221,-57 691.323,-57"/>
<polygon fill="midnightblue" stroke="midnightblue" points="631.684,-53.5001 621.684,-57 631.684,-60.5001 631.684,-53.5001"/>
</g>
<!-- Node29 -->
<g id="node29" class="node"><title>Node29</title>
<g id="a_node29"><a xlink:href="coef_8F90.html#ad01cc61ba84d488e68ca9e259c592465" target="_top" xlink:title="Routine to generate mapping data based on mesh 1 (Gauss&#45;Legendre Lobatto meshes). ...">
<polygon fill="white" stroke="black" points="839.5,-47.5 839.5,-66.5 898.5,-66.5 898.5,-47.5 839.5,-47.5"/>
<text text-anchor="middle" x="869" y="-54.5" font-family="Helvetica,sans-Serif" font-size="10.00">glmapm1</text>
</a>
</g>
</g>
<!-- Node28&#45;&gt;Node29 -->
<g id="edge36" class="edge"><title>Node28&#45;&gt;Node29</title>
<path fill="none" stroke="midnightblue" d="M753.043,-57C779.298,-57 814.779,-57 839.347,-57"/>
<polygon fill="midnightblue" stroke="midnightblue" points="752.769,-53.5001 742.769,-57 752.769,-60.5001 752.769,-53.5001"/>
</g>
<!-- Node30 -->
<g id="node30" class="node"><title>Node30</title>
<g id="a_node30"><a xlink:href="coef_8F90.html#ac5d2ac0efba4a530fab5387321307d01" target="_top" xlink:title="Routine to generate all elemental geometric data for mesh 1. Velocity formulation : global&#45;to&#45;local m...">
<polygon fill="white" stroke="black" points="981.5,-47.5 981.5,-66.5 1030.5,-66.5 1030.5,-47.5 981.5,-47.5"/>
<text text-anchor="middle" x="1006" y="-54.5" font-family="Helvetica,sans-Serif" font-size="10.00">geom1</text>
</a>
</g>
</g>
<!-- Node29&#45;&gt;Node30 -->
<g id="edge37" class="edge"><title>Node29&#45;&gt;Node30</title>
<path fill="none" stroke="midnightblue" d="M908.937,-57C932.347,-57 961.375,-57 981.359,-57"/>
<polygon fill="midnightblue" stroke="midnightblue" points="908.63,-53.5001 898.63,-57 908.63,-60.5001 908.63,-53.5001"/>
</g>
<!-- Node31 -->
<g id="node31" class="node"><title>Node31</title>
<g id="a_node31"><a xlink:href="drive2_8F90.html#aefc07385d7e7539fb57662470f694136" target="_top" xlink:title="Generate geometry data. ">
<polygon fill="white" stroke="black" points="1091,-28.5 1091,-47.5 1152,-47.5 1152,-28.5 1091,-28.5"/>
<text text-anchor="middle" x="1121.5" y="-35.5" font-family="Helvetica,sans-Serif" font-size="10.00">gengeom</text>
</a>
</g>
</g>
<!-- Node30&#45;&gt;Node31 -->
<g id="edge38" class="edge"><title>Node30&#45;&gt;Node31</title>
<path fill="none" stroke="midnightblue" d="M1040.53,-51.3866C1056.53,-48.709 1075.5,-45.5335 1090.95,-42.9475"/>
<polygon fill="midnightblue" stroke="midnightblue" points="1039.8,-47.9601 1030.52,-53.0632 1040.96,-54.864 1039.8,-47.9601"/>
</g>
<!-- Node34 -->
<g id="node34" class="node"><title>Node34</title>
<g id="a_node34"><a xlink:href="ic_8F90.html#aaf47b255d1cfac3451a8473ee6876b4f" target="_top" xlink:title="Generate geometry data. ">
<polygon fill="white" stroke="black" points="1085,-66.5 1085,-85.5 1158,-85.5 1158,-66.5 1085,-66.5"/>
<text text-anchor="middle" x="1121.5" y="-73.5" font-family="Helvetica,sans-Serif" font-size="10.00">geom_reset</text>
</a>
</g>
</g>
<!-- Node30&#45;&gt;Node34 -->
<g id="edge43" class="edge"><title>Node30&#45;&gt;Node34</title>
<path fill="none" stroke="midnightblue" d="M1040.67,-62.6366C1054.61,-64.9705 1070.8,-67.6794 1084.93,-70.0457"/>
<polygon fill="midnightblue" stroke="midnightblue" points="1040.96,-59.136 1030.52,-60.9368 1039.8,-66.0399 1040.96,-59.136"/>
</g>
<!-- Node31&#45;&gt;Node5 -->
<g id="edge42" class="edge"><title>Node31&#45;&gt;Node5</title>
<path fill="none" stroke="midnightblue" d="M1161.92,-48.556C1248.15,-71.7585 1446.84,-125.865 1459,-135 1493.94,-161.259 1515.35,-211.35 1523.15,-232.354"/>
<polygon fill="midnightblue" stroke="midnightblue" points="1162.79,-45.1659 1152.22,-45.95 1160.97,-51.9259 1162.79,-45.1659"/>
</g>
<!-- Node32 -->
<g id="node32" class="node"><title>Node32</title>
<g id="a_node32"><a xlink:href="drive1_8F90.html#ae177ea7efac97f35241521b782a671c0" target="_top" xlink:title="take a single time&#45;step ">
<polygon fill="white" stroke="black" points="1212,-28.5 1212,-47.5 1292,-47.5 1292,-28.5 1212,-28.5"/>
<text text-anchor="middle" x="1252" y="-35.5" font-family="Helvetica,sans-Serif" font-size="10.00">nek_advance</text>
</a>
</g>
</g>
<!-- Node31&#45;&gt;Node32 -->
<g id="edge39" class="edge"><title>Node31&#45;&gt;Node32</title>
<path fill="none" stroke="midnightblue" d="M1162.69,-38C1178.29,-38 1196.1,-38 1211.62,-38"/>
<polygon fill="midnightblue" stroke="midnightblue" points="1162.3,-34.5001 1152.3,-38 1162.3,-41.5001 1162.3,-34.5001"/>
</g>
<!-- Node33 -->
<g id="node33" class="node"><title>Node33</title>
<g id="a_node33"><a xlink:href="drive1_8F90.html#a18d3e839786263fc4cf91f7eeb714371" target="_top" xlink:title="take a chunk of time&#45;steps ">
<polygon fill="white" stroke="black" points="1346,-28.5 1346,-47.5 1459,-47.5 1459,-28.5 1346,-28.5"/>
<text text-anchor="middle" x="1402.5" y="-35.5" font-family="Helvetica,sans-Serif" font-size="10.00">nek__multi_advance</text>
</a>
</g>
</g>
<!-- Node32&#45;&gt;Node33 -->
<g id="edge40" class="edge"><title>Node32&#45;&gt;Node33</title>
<path fill="none" stroke="midnightblue" d="M1302.41,-38C1316.38,-38 1331.68,-38 1345.99,-38"/>
<polygon fill="midnightblue" stroke="midnightblue" points="1302.02,-34.5001 1292.02,-38 1302.02,-41.5001 1302.02,-34.5001"/>
</g>
<!-- Node33&#45;&gt;Node26 -->
<g id="edge41" class="edge"><title>Node33&#45;&gt;Node26</title>
<path fill="none" stroke="midnightblue" d="M1469.28,-38C1478.16,-38 1486.93,-38 1494.82,-38"/>
<polygon fill="midnightblue" stroke="midnightblue" points="1469.24,-34.5001 1459.24,-38 1469.24,-41.5001 1469.24,-34.5001"/>
</g>
<!-- Node34&#45;&gt;Node5 -->
<g id="edge45" class="edge"><title>Node34&#45;&gt;Node5</title>
<path fill="none" stroke="midnightblue" d="M1167.89,-87.3373C1247.51,-107.665 1408.68,-150.904 1459,-180 1483.52,-194.178 1506.58,-218.614 1518.35,-232.189"/>
<polygon fill="midnightblue" stroke="midnightblue" points="1168.69,-83.9295 1158.14,-84.8576 1166.97,-90.7137 1168.69,-83.9295"/>
</g>
<!-- Node34&#45;&gt;Node15 -->
<g id="edge44" class="edge"><title>Node34&#45;&gt;Node15</title>
<path fill="none" stroke="midnightblue" d="M1134.54,-94.1769C1150.87,-118.429 1179.65,-159.641 1194,-171 1198.75,-174.755 1204.14,-178.064 1209.68,-180.942"/>
<polygon fill="midnightblue" stroke="midnightblue" points="1137.41,-92.1784 1128.94,-85.8099 1131.59,-96.0686 1137.41,-92.1784"/>
</g>
<!-- Node34&#45;&gt;Node22 -->
<g id="edge46" class="edge"><title>Node34&#45;&gt;Node22</title>
<path fill="none" stroke="midnightblue" d="M1145.48,-91.2064C1149.68,-94.0787 1154,-97.0943 1158,-100 1174.41,-111.905 1176.51,-117.757 1194,-128 1205.3,-134.62 1218.78,-140.381 1229.79,-144.598"/>
<polygon fill="midnightblue" stroke="midnightblue" points="1147.41,-88.2866 1137.16,-85.593 1143.49,-94.0887 1147.41,-88.2866"/>
</g>
<!-- Node36 -->
<g id="node36" class="node"><title>Node36</title>
<g id="a_node36"><a xlink:href="classio.html#a8f8da23cfb175a121cf25557d58d1c98" target="_top" xlink:title="Load initial condition from a previous multi&#45;file output. ">
<polygon fill="white" stroke="black" points="1090,-142.5 1090,-161.5 1153,-161.5 1153,-142.5 1090,-142.5"/>
<text text-anchor="middle" x="1121.5" y="-149.5" font-family="Helvetica,sans-Serif" font-size="10.00">io::load_ic</text>
</a>
</g>
</g>
<!-- Node35&#45;&gt;Node36 -->
<g id="edge48" class="edge"><title>Node35&#45;&gt;Node36</title>
<path fill="none" stroke="midnightblue" d="M537.643,-151.325C586.909,-150.229 655.633,-149 716,-149 716,-149 716,-149 870,-149 949.157,-149 1042.37,-150.516 1089.65,-151.393"/>
<polygon fill="midnightblue" stroke="midnightblue" points="537.354,-147.83 527.436,-151.556 537.512,-154.828 537.354,-147.83"/>
</g>
<!-- Node36&#45;&gt;Node22 -->
<g id="edge49" class="edge"><title>Node36&#45;&gt;Node22</title>
<path fill="none" stroke="midnightblue" d="M1163.38,-152C1185.43,-152 1211.72,-152 1229.71,-152"/>
<polygon fill="midnightblue" stroke="midnightblue" points="1163.28,-148.5 1153.28,-152 1163.28,-155.5 1163.28,-148.5"/>
</g>
<!-- Node38 -->
<g id="node38" class="node"><title>Node38</title>
<g id="a_node38"><a xlink:href="prepost_8F90.html#abb385320698675796ad307a27f4855af" target="_top" xlink:title="io_init">
<polygon fill="white" stroke="black" points="571,-730.5 571,-749.5 615,-749.5 615,-730.5 571,-730.5"/>
<text text-anchor="middle" x="593" y="-737.5" font-family="Helvetica,sans-Serif" font-size="10.00">io_init</text>
</a>
</g>
</g>
<!-- Node37&#45;&gt;Node38 -->
<g id="edge51" class="edge"><title>Node37&#45;&gt;Node38</title>
<path fill="none" stroke="midnightblue" d="M387.173,-740C443.076,-740 530.849,-740 570.858,-740"/>
<polygon fill="midnightblue" stroke="midnightblue" points="387.124,-736.5 377.124,-740 387.124,-743.5 387.124,-736.5"/>
</g>
<!-- Node38&#45;&gt;Node5 -->
<g id="edge52" class="edge"><title>Node38&#45;&gt;Node5</title>
<path fill="none" stroke="midnightblue" d="M623.213,-726.259C672.52,-704.363 775.903,-664 868,-664 868,-664 868,-664 1253,-664 1456.42,-664 1516.12,-314.422 1525.2,-251.607"/>
<polygon fill="midnightblue" stroke="midnightblue" points="621.767,-723.071 614.092,-730.375 624.646,-729.452 621.767,-723.071"/>
</g>
<!-- Node39&#45;&gt;Node4 -->
<g id="edge55" class="edge"><title>Node39&#45;&gt;Node4</title>
<path fill="none" stroke="midnightblue" d="M367.674,-586.154C420.32,-582.609 531.089,-573.505 623,-555 647.193,-550.129 674.496,-542.869 693.227,-537.61"/>
<polygon fill="midnightblue" stroke="midnightblue" points="367.396,-582.664 357.646,-586.808 367.853,-589.649 367.396,-582.664"/>
</g>
<!-- Node40&#45;&gt;Node4 -->
<g id="edge57" class="edge"><title>Node40&#45;&gt;Node4</title>
<path fill="none" stroke="midnightblue" d="M502.104,-547.588C552.154,-543.706 649.396,-536.165 693.4,-532.753"/>
<polygon fill="midnightblue" stroke="midnightblue" points="501.588,-544.117 491.889,-548.38 502.129,-551.096 501.588,-544.117"/>
</g>
<!-- Node41&#45;&gt;Node4 -->
<g id="edge59" class="edge"><title>Node41&#45;&gt;Node4</title>
<path fill="none" stroke="midnightblue" d="M628.127,-517.315C648.905,-520.551 674.881,-524.596 693.185,-527.447"/>
<polygon fill="midnightblue" stroke="midnightblue" points="628.523,-513.834 618.103,-515.754 627.446,-520.751 628.523,-513.834"/>
</g>
<!-- Node42&#45;&gt;Node4 -->
<g id="edge61" class="edge"><title>Node42&#45;&gt;Node4</title>
<path fill="none" stroke="midnightblue" d="M366.255,-472.882C418.531,-471.558 531.113,-471.764 623,-493 650.02,-499.244 679.352,-512.391 697.7,-521.457"/>
<polygon fill="midnightblue" stroke="midnightblue" points="365.937,-469.39 356.044,-473.181 366.142,-476.387 365.937,-469.39"/>
</g>
<!-- Node43&#45;&gt;Node4 -->
<g id="edge63" class="edge"><title>Node43&#45;&gt;Node4</title>
<path fill="none" stroke="midnightblue" d="M248.948,-435.139C317.115,-434.042 488.374,-436.182 623,-479 653.673,-488.756 685.614,-509.272 702.928,-521.415"/>
<polygon fill="midnightblue" stroke="midnightblue" points="248.843,-431.641 238.914,-435.337 248.981,-438.639 248.843,-431.641"/>
</g>
<!-- Node44&#45;&gt;Node4 -->
<g id="edge65" class="edge"><title>Node44&#45;&gt;Node4</title>
<path fill="none" stroke="midnightblue" d="M256.601,-625.532C329.135,-623.683 492.721,-614.897 623,-574 650.494,-565.369 680.433,-550.442 698.712,-540.644"/>
<polygon fill="midnightblue" stroke="midnightblue" points="256.086,-622.042 246.167,-625.765 256.242,-629.041 256.086,-622.042"/>
</g>
</g>
</svg>
