<?xml version="1.0" encoding="UTF-8" standalone="no"?>
<!DOCTYPE svg PUBLIC "-//W3C//DTD SVG 1.1//EN"
 "http://www.w3.org/Graphics/SVG/1.1/DTD/svg11.dtd">
<!-- Generated by graphviz version 2.38.0 (20140413.2041)
 -->
<!-- Title: mpi_allreduce Pages: 1 -->
<svg width="283pt" height="142pt"
 viewBox="0.00 0.00 283.00 142.00" xmlns="http://www.w3.org/2000/svg" xmlns:xlink="http://www.w3.org/1999/xlink">
<g id="graph0" class="graph" transform="scale(1 1) rotate(0) translate(4 138)">
<title>mpi_allreduce</title>
<polygon fill="white" stroke="none" points="-4,4 -4,-138 279,-138 279,4 -4,4"/>
<!-- Node1 -->
<g id="node1" class="node"><title>Node1</title>
<polygon fill="#bfbfbf" stroke="black" points="0,-57.5 0,-76.5 82,-76.5 82,-57.5 0,-57.5"/>
<text text-anchor="middle" x="41" y="-64.5" font-family="Helvetica,sans-Serif" font-size="10.00">mpi_allreduce</text>
</g>
<!-- Node2 -->
<g id="node2" class="node"><title>Node2</title>
<g id="a_node2"><a xlink:href="mpi__dummy_8F90.html#a64285f5ce9bed08bfd13bc27264db185" target="_top" xlink:title="mpi_reduce_double_precision">
<polygon fill="white" stroke="black" points="118,-114.5 118,-133.5 275,-133.5 275,-114.5 118,-114.5"/>
<text text-anchor="middle" x="196.5" y="-121.5" font-family="Helvetica,sans-Serif" font-size="10.00">mpi_reduce_double_precision</text>
</a>
</g>
</g>
<!-- Node1&#45;&gt;Node2 -->
<g id="edge1" class="edge"><title>Node1&#45;&gt;Node2</title>
<path fill="none" stroke="midnightblue" d="M58.4251,-76.5599C73.5043,-85.0065 96.6754,-97.1667 118,-105 124.794,-107.496 132.044,-109.764 139.279,-111.794"/>
<polygon fill="midnightblue" stroke="midnightblue" points="138.529,-115.217 149.094,-114.414 140.334,-108.453 138.529,-115.217"/>
</g>
<!-- Node3 -->
<g id="node3" class="node"><title>Node3</title>
<g id="a_node3"><a xlink:href="mpi__dummy_8F90.html#aa549a352c5ab9ce53b8dfd222da38fa6" target="_top" xlink:title="mpi_reduce_integer">
<polygon fill="white" stroke="black" points="141.5,-76.5 141.5,-95.5 251.5,-95.5 251.5,-76.5 141.5,-76.5"/>
<text text-anchor="middle" x="196.5" y="-83.5" font-family="Helvetica,sans-Serif" font-size="10.00">mpi_reduce_integer</text>
</a>
</g>
</g>
<!-- Node1&#45;&gt;Node3 -->
<g id="edge2" class="edge"><title>Node1&#45;&gt;Node3</title>
<path fill="none" stroke="midnightblue" d="M82.3303,-71.992C97.263,-73.8404 114.59,-75.9851 131.129,-78.0323"/>
<polygon fill="midnightblue" stroke="midnightblue" points="130.943,-81.5359 141.297,-79.2909 131.803,-74.5889 130.943,-81.5359"/>
</g>
<!-- Node4 -->
<g id="node4" class="node"><title>Node4</title>
<g id="a_node4"><a xlink:href="mpi__dummy_8F90.html#abbddc050d7faafb34959984f69652e0a" target="_top" xlink:title="mpi_reduce_integer8">
<polygon fill="white" stroke="black" points="138.5,-38.5 138.5,-57.5 254.5,-57.5 254.5,-38.5 138.5,-38.5"/>
<text text-anchor="middle" x="196.5" y="-45.5" font-family="Helvetica,sans-Serif" font-size="10.00">mpi_reduce_integer8</text>
</a>
</g>
</g>
<!-- Node1&#45;&gt;Node4 -->
<g id="edge3" class="edge"><title>Node1&#45;&gt;Node4</title>
<path fill="none" stroke="midnightblue" d="M82.3303,-62.008C96.3934,-60.2673 112.58,-58.2637 128.233,-56.3262"/>
<polygon fill="midnightblue" stroke="midnightblue" points="128.92,-59.768 138.414,-55.066 128.06,-52.821 128.92,-59.768"/>
</g>
<!-- Node5 -->
<g id="node5" class="node"><title>Node5</title>
<g id="a_node5"><a xlink:href="mpi__dummy_8F90.html#a47f146895b36dc21100a1c42d343762c" target="_top" xlink:title="mpi_reduce_real">
<polygon fill="white" stroke="black" points="149,-0.5 149,-19.5 244,-19.5 244,-0.5 149,-0.5"/>
<text text-anchor="middle" x="196.5" y="-7.5" font-family="Helvetica,sans-Serif" font-size="10.00">mpi_reduce_real</text>
</a>
</g>
</g>
<!-- Node1&#45;&gt;Node5 -->
<g id="edge4" class="edge"><title>Node1&#45;&gt;Node5</title>
<path fill="none" stroke="midnightblue" d="M58.4251,-57.4401C73.5043,-48.9935 96.6754,-36.8333 118,-29 124.794,-26.5042 132.044,-24.2356 139.279,-22.2056"/>
<polygon fill="midnightblue" stroke="midnightblue" points="140.334,-25.5467 149.094,-19.5863 138.529,-18.7834 140.334,-25.5467"/>
</g>
</g>
</svg>
