<?xml version="1.0" encoding="UTF-8" standalone="no"?>
<!DOCTYPE svg PUBLIC "-//W3C//DTD SVG 1.1//EN"
 "http://www.w3.org/Graphics/SVG/1.1/DTD/svg11.dtd">
<!-- Generated by graphviz version 2.38.0 (20140413.2041)
 -->
<!-- Title: mpi_wait Pages: 1 -->
<svg width="2057pt" height="146pt"
 viewBox="0.00 0.00 2057.00 145.92" xmlns="http://www.w3.org/2000/svg" xmlns:xlink="http://www.w3.org/1999/xlink">
<g id="graph0" class="graph" transform="scale(1 1) rotate(0) translate(4 141.917)">
<title>mpi_wait</title>
<polygon fill="white" stroke="none" points="-4,4 -4,-141.917 2053,-141.917 2053,4 -4,4"/>
<!-- Node1 -->
<g id="node1" class="node"><title>Node1</title>
<polygon fill="#bfbfbf" stroke="black" points="0,-66.7673 0,-85.7673 58,-85.7673 58,-66.7673 0,-66.7673"/>
<text text-anchor="middle" x="29" y="-73.7673" font-family="Helvetica,sans-Serif" font-size="10.00">mpi_wait</text>
</g>
<!-- Node2 -->
<g id="node2" class="node"><title>Node2</title>
<g id="a_node2"><a xlink:href="classpoisson.html#a5146b4e21e3dc2027ebeec50a7545e71" target="_top" xlink:title="poisson::grid_to_mesh">
<polygon fill="white" stroke="black" points="94,-104.767 94,-123.767 216,-123.767 216,-104.767 94,-104.767"/>
<text text-anchor="middle" x="155" y="-111.767" font-family="Helvetica,sans-Serif" font-size="10.00">poisson::grid_to_mesh</text>
</a>
</g>
</g>
<!-- Node1&#45;&gt;Node2 -->
<g id="edge1" class="edge"><title>Node1&#45;&gt;Node2</title>
<path fill="none" stroke="midnightblue" d="M68.0898,-87.94C85.6779,-93.3299 106.298,-99.6488 122.927,-104.745"/>
<polygon fill="midnightblue" stroke="midnightblue" points="68.7242,-84.4738 58.1375,-84.8901 66.6731,-91.1666 68.7242,-84.4738"/>
</g>
<!-- Node22 -->
<g id="node22" class="node"><title>Node22</title>
<g id="a_node22"><a xlink:href="classpoisson.html#ac42cd347ca63e3394556370be60d7360" target="_top" xlink:title="poisson::mesh_to_grid">
<polygon fill="white" stroke="black" points="94,-66.7673 94,-85.7673 216,-85.7673 216,-66.7673 94,-66.7673"/>
<text text-anchor="middle" x="155" y="-73.7673" font-family="Helvetica,sans-Serif" font-size="10.00">poisson::mesh_to_grid</text>
</a>
</g>
</g>
<!-- Node1&#45;&gt;Node22 -->
<g id="edge25" class="edge"><title>Node1&#45;&gt;Node22</title>
<path fill="none" stroke="midnightblue" d="M68.3475,-76.2673C76.4343,-76.2673 85.1526,-76.2673 93.8233,-76.2673"/>
<polygon fill="midnightblue" stroke="midnightblue" points="68.1376,-72.7674 58.1375,-76.2673 68.1375,-79.7674 68.1376,-72.7674"/>
</g>
<!-- Node24 -->
<g id="node24" class="node"><title>Node24</title>
<g id="a_node24"><a xlink:href="comm__mpi_8F90.html#a3b0be5279d427588484102fe8bac8ef0" target="_top" xlink:title="msgwait">
<polygon fill="white" stroke="black" points="127.5,-28.7673 127.5,-47.7673 182.5,-47.7673 182.5,-28.7673 127.5,-28.7673"/>
<text text-anchor="middle" x="155" y="-35.7673" font-family="Helvetica,sans-Serif" font-size="10.00">msgwait</text>
</a>
</g>
</g>
<!-- Node1&#45;&gt;Node24 -->
<g id="edge31" class="edge"><title>Node1&#45;&gt;Node24</title>
<path fill="none" stroke="midnightblue" d="M67.7978,-64.6841C87.0049,-58.798 109.888,-51.7855 127.249,-46.4652"/>
<polygon fill="midnightblue" stroke="midnightblue" points="66.6731,-61.368 58.1375,-67.6445 68.7242,-68.0608 66.6731,-61.368"/>
</g>
<!-- Node3 -->
<g id="node3" class="node"><title>Node3</title>
<g id="a_node3"><a xlink:href="classpoisson.html#a1ab874c434e5694003e378739fb98c65" target="_top" xlink:title="poisson::spectral_solve">
<polygon fill="white" stroke="black" points="557,-66.7673 557,-85.7673 683,-85.7673 683,-66.7673 557,-66.7673"/>
<text text-anchor="middle" x="620" y="-73.7673" font-family="Helvetica,sans-Serif" font-size="10.00">poisson::spectral_solve</text>
</a>
</g>
</g>
<!-- Node2&#45;&gt;Node3 -->
<g id="edge2" class="edge"><title>Node2&#45;&gt;Node3</title>
<path fill="none" stroke="midnightblue" d="M205.056,-125.892C220.035,-128.923 236.613,-131.759 252,-133.267 308.618,-138.816 323.487,-139.792 380,-133.267 443.935,-125.885 458.409,-115.255 521,-100.267 540.59,-95.5761 562.356,-90.2565 580.39,-85.8198"/>
<polygon fill="midnightblue" stroke="midnightblue" points="205.482,-122.406 194.977,-123.777 204.045,-129.256 205.482,-122.406"/>
</g>
<!-- Node19 -->
<g id="node19" class="node"><title>Node19</title>
<g id="a_node19"><a xlink:href="classpoisson.html#a54094b5009a26b94189d1f7dc4e3010d" target="_top" xlink:title="poisson::shuffle_test">
<polygon fill="white" stroke="black" points="260,-104.767 260,-123.767 372,-123.767 372,-104.767 260,-104.767"/>
<text text-anchor="middle" x="316" y="-111.767" font-family="Helvetica,sans-Serif" font-size="10.00">poisson::shuffle_test</text>
</a>
</g>
</g>
<!-- Node2&#45;&gt;Node19 -->
<g id="edge20" class="edge"><title>Node2&#45;&gt;Node19</title>
<path fill="none" stroke="midnightblue" d="M226.312,-114.267C237.523,-114.267 248.981,-114.267 259.778,-114.267"/>
<polygon fill="midnightblue" stroke="midnightblue" points="226.111,-110.767 216.111,-114.267 226.111,-117.767 226.111,-110.767"/>
</g>
<!-- Node21 -->
<g id="node21" class="node"><title>Node21</title>
<g id="a_node21"><a xlink:href="classpoisson.html#a557b9bfb94e35c8716319d8d8145cacc" target="_top" xlink:title="poisson::cos_test">
<polygon fill="white" stroke="black" points="267,-66.7673 267,-85.7673 365,-85.7673 365,-66.7673 267,-66.7673"/>
<text text-anchor="middle" x="316" y="-73.7673" font-family="Helvetica,sans-Serif" font-size="10.00">poisson::cos_test</text>
</a>
</g>
</g>
<!-- Node2&#45;&gt;Node21 -->
<g id="edge23" class="edge"><title>Node2&#45;&gt;Node21</title>
<path fill="none" stroke="midnightblue" d="M206.077,-102.299C228.358,-96.9742 254.229,-90.7911 275.166,-85.7873"/>
<polygon fill="midnightblue" stroke="midnightblue" points="205.035,-98.9496 196.122,-104.678 206.662,-105.758 205.035,-98.9496"/>
</g>
<!-- Node4 -->
<g id="node4" class="node"><title>Node4</title>
<g id="a_node4"><a xlink:href="classhsmg__routines.html#adb1f241321c99f913f53fefefee82c09" target="_top" xlink:title="hsmg_routines::hsmg\l_coarse_solve">
<polygon fill="white" stroke="black" points="719,-61.2673 719,-91.2673 835,-91.2673 835,-61.2673 719,-61.2673"/>
<text text-anchor="start" x="727" y="-79.2673" font-family="Helvetica,sans-Serif" font-size="10.00">hsmg_routines::hsmg</text>
<text text-anchor="middle" x="777" y="-68.2673" font-family="Helvetica,sans-Serif" font-size="10.00">_coarse_solve</text>
</a>
</g>
</g>
<!-- Node3&#45;&gt;Node4 -->
<g id="edge3" class="edge"><title>Node3&#45;&gt;Node4</title>
<path fill="none" stroke="midnightblue" d="M693.192,-76.2673C701.801,-76.2673 710.498,-76.2673 718.855,-76.2673"/>
<polygon fill="midnightblue" stroke="midnightblue" points="693.151,-72.7674 683.151,-76.2673 693.151,-79.7674 693.151,-72.7674"/>
</g>
<!-- Node5 -->
<g id="node5" class="node"><title>Node5</title>
<g id="a_node5"><a xlink:href="classhsmg__routines.html#abaa25315b11254629ed79c12c169c52f" target="_top" xlink:title="Solve preconditioner: z = M rhs, where . ">
<polygon fill="white" stroke="black" points="871,-61.2673 871,-91.2673 987,-91.2673 987,-61.2673 871,-61.2673"/>
<text text-anchor="start" x="879" y="-79.2673" font-family="Helvetica,sans-Serif" font-size="10.00">hsmg_routines::h1mg</text>
<text text-anchor="middle" x="929" y="-68.2673" font-family="Helvetica,sans-Serif" font-size="10.00">_solve</text>
</a>
</g>
</g>
<!-- Node4&#45;&gt;Node5 -->
<g id="edge4" class="edge"><title>Node4&#45;&gt;Node5</title>
<path fill="none" stroke="midnightblue" d="M845.311,-76.2673C853.728,-76.2673 862.277,-76.2673 870.525,-76.2673"/>
<polygon fill="midnightblue" stroke="midnightblue" points="845.137,-72.7674 835.136,-76.2673 845.136,-79.7674 845.137,-72.7674"/>
</g>
<!-- Node6 -->
<g id="node6" class="node"><title>Node6</title>
<g id="a_node6"><a xlink:href="gmres_8F90.html#a377d8578c6ccd4fddffb699c7a18f603" target="_top" xlink:title="Solve the Helmholtz equation by right&#45;preconditioned GMRES iteration. ">
<polygon fill="white" stroke="black" points="1023,-66.7673 1023,-85.7673 1095,-85.7673 1095,-66.7673 1023,-66.7673"/>
<text text-anchor="middle" x="1059" y="-73.7673" font-family="Helvetica,sans-Serif" font-size="10.00">hmh_gmres</text>
</a>
</g>
</g>
<!-- Node5&#45;&gt;Node6 -->
<g id="edge5" class="edge"><title>Node5&#45;&gt;Node6</title>
<path fill="none" stroke="midnightblue" d="M997.521,-76.2673C1006.26,-76.2673 1014.91,-76.2673 1022.82,-76.2673"/>
<polygon fill="midnightblue" stroke="midnightblue" points="997.261,-72.7674 987.261,-76.2673 997.261,-79.7674 997.261,-72.7674"/>
</g>
<!-- Node7 -->
<g id="node7" class="node"><title>Node7</title>
<g id="a_node7"><a xlink:href="hmholtz_8F90.html#a8734f3cc2d37d6a2ccd1daa8db57513d" target="_top" xlink:title="Solve the Helmholtz equation, H*U = RHS, using preconditioned conjugate gradient iteration. Preconditioner: diag(H). ">
<polygon fill="white" stroke="black" points="1131,-66.7673 1131,-85.7673 1171,-85.7673 1171,-66.7673 1131,-66.7673"/>
<text text-anchor="middle" x="1151" y="-73.7673" font-family="Helvetica,sans-Serif" font-size="10.00">cggo</text>
</a>
</g>
</g>
<!-- Node6&#45;&gt;Node7 -->
<g id="edge6" class="edge"><title>Node6&#45;&gt;Node7</title>
<path fill="none" stroke="midnightblue" d="M1105.16,-76.2673C1114.19,-76.2673 1123.2,-76.2673 1130.75,-76.2673"/>
<polygon fill="midnightblue" stroke="midnightblue" points="1105.05,-72.7674 1095.05,-76.2673 1105.05,-79.7674 1105.05,-72.7674"/>
</g>
<!-- Node8 -->
<g id="node8" class="node"><title>Node8</title>
<g id="a_node8"><a xlink:href="hmholtz_8F90.html#a52dcac1fe733719d4987d36aac022e4d" target="_top" xlink:title="hmholtz">
<polygon fill="white" stroke="black" points="1231,-85.7673 1231,-104.767 1284,-104.767 1284,-85.7673 1231,-85.7673"/>
<text text-anchor="middle" x="1257.5" y="-92.7673" font-family="Helvetica,sans-Serif" font-size="10.00">hmholtz</text>
</a>
</g>
</g>
<!-- Node7&#45;&gt;Node8 -->
<g id="edge7" class="edge"><title>Node7&#45;&gt;Node8</title>
<path fill="none" stroke="midnightblue" d="M1181.3,-81.5947C1196.85,-84.4218 1215.78,-87.8641 1230.76,-90.5874"/>
<polygon fill="midnightblue" stroke="midnightblue" points="1181.63,-78.0976 1171.17,-79.7522 1180.38,-84.9847 1181.63,-78.0976"/>
</g>
<!-- Node18 -->
<g id="node18" class="node"><title>Node18</title>
<g id="a_node18"><a xlink:href="classhelmholtz.html#ae307c08c70cdc6428553cb85ce68cbbb" target="_top" xlink:title="helmholtz::hmhzpf">
<polygon fill="white" stroke="black" points="1207,-47.7673 1207,-66.7673 1308,-66.7673 1308,-47.7673 1207,-47.7673"/>
<text text-anchor="middle" x="1257.5" y="-54.7673" font-family="Helvetica,sans-Serif" font-size="10.00">helmholtz::hmhzpf</text>
</a>
</g>
</g>
<!-- Node7&#45;&gt;Node18 -->
<g id="edge18" class="edge"><title>Node7&#45;&gt;Node18</title>
<path fill="none" stroke="midnightblue" d="M1181.13,-70.9709C1189.18,-69.508 1198.14,-67.8785 1206.99,-66.2683"/>
<polygon fill="midnightblue" stroke="midnightblue" points="1180.38,-67.5499 1171.17,-72.7824 1181.63,-74.437 1180.38,-67.5499"/>
</g>
<!-- Node9 -->
<g id="node9" class="node"><title>Node9</title>
<g id="a_node9"><a xlink:href="classhelmholtz.html#abf98ad104d11790462e9f07b3fa91848" target="_top" xlink:title="Either std. Helmholtz solve, or a projection + Helmholtz solve. ">
<polygon fill="white" stroke="black" points="1344,-66.7673 1344,-85.7673 1441,-85.7673 1441,-66.7673 1344,-66.7673"/>
<text text-anchor="middle" x="1392.5" y="-73.7673" font-family="Helvetica,sans-Serif" font-size="10.00">helmholtz::hsolve</text>
</a>
</g>
</g>
<!-- Node8&#45;&gt;Node9 -->
<g id="edge8" class="edge"><title>Node8&#45;&gt;Node9</title>
<path fill="none" stroke="midnightblue" d="M1294.21,-90.1663C1309.46,-87.987 1327.49,-85.4113 1343.86,-83.0731"/>
<polygon fill="midnightblue" stroke="midnightblue" points="1293.55,-86.7248 1284.14,-91.6039 1294.54,-93.6544 1293.55,-86.7248"/>
</g>
<!-- Node10 -->
<g id="node10" class="node"><title>Node10</title>
<g id="a_node10"><a xlink:href="conduct_8F90.html#a74a7f053381975ed36df8ea959f3aa01" target="_top" xlink:title="Solve the convection&#45;diffusion equation for passive scalar IPSCAL. ">
<polygon fill="white" stroke="black" points="1477,-85.7673 1477,-104.767 1524,-104.767 1524,-85.7673 1477,-85.7673"/>
<text text-anchor="middle" x="1500.5" y="-92.7673" font-family="Helvetica,sans-Serif" font-size="10.00">cdscal</text>
</a>
</g>
</g>
<!-- Node9&#45;&gt;Node10 -->
<g id="edge9" class="edge"><title>Node9&#45;&gt;Node10</title>
<path fill="none" stroke="midnightblue" d="M1451.16,-86.6018C1460.28,-88.2381 1469.23,-89.8412 1476.89,-91.2148"/>
<polygon fill="midnightblue" stroke="midnightblue" points="1451.69,-83.1417 1441.23,-84.8224 1450.45,-90.0319 1451.69,-83.1417"/>
</g>
<!-- Node16 -->
<g id="node16" class="node"><title>Node16</title>
<g id="a_node16"><a xlink:href="plan4_8F90.html#a5cbf852b67e73bfa44e028338c4d57ad" target="_top" xlink:title="Splitting scheme . ">
<polygon fill="white" stroke="black" points="1479,-47.7673 1479,-66.7673 1522,-66.7673 1522,-47.7673 1479,-47.7673"/>
<text text-anchor="middle" x="1500.5" y="-54.7673" font-family="Helvetica,sans-Serif" font-size="10.00">plan4</text>
</a>
</g>
</g>
<!-- Node9&#45;&gt;Node16 -->
<g id="edge15" class="edge"><title>Node9&#45;&gt;Node16</title>
<path fill="none" stroke="midnightblue" d="M1451.15,-65.9337C1461.05,-64.159 1470.73,-62.4234 1478.8,-60.9772"/>
<polygon fill="midnightblue" stroke="midnightblue" points="1450.45,-62.5027 1441.23,-67.7122 1451.69,-69.3929 1450.45,-62.5027"/>
</g>
<!-- Node11 -->
<g id="node11" class="node"><title>Node11</title>
<g id="a_node11"><a xlink:href="drive2_8F90.html#acce80cd37f20e9b52729eb52d86a9c86" target="_top" xlink:title="Driver for temperature or passive scalar. ">
<polygon fill="white" stroke="black" points="1560,-85.7673 1560,-104.767 1598,-104.767 1598,-85.7673 1560,-85.7673"/>
<text text-anchor="middle" x="1579" y="-92.7673" font-family="Helvetica,sans-Serif" font-size="10.00">heat</text>
</a>
</g>
</g>
<!-- Node10&#45;&gt;Node11 -->
<g id="edge10" class="edge"><title>Node10&#45;&gt;Node11</title>
<path fill="none" stroke="midnightblue" d="M1534.13,-95.2673C1542.99,-95.2673 1552.26,-95.2673 1559.98,-95.2673"/>
<polygon fill="midnightblue" stroke="midnightblue" points="1534.04,-91.7674 1524.04,-95.2673 1534.04,-98.7674 1534.04,-91.7674"/>
</g>
<!-- Node12 -->
<g id="node12" class="node"><title>Node12</title>
<g id="a_node12"><a xlink:href="drive1_8F90.html#ae177ea7efac97f35241521b782a671c0" target="_top" xlink:title="take a single time&#45;step ">
<polygon fill="white" stroke="black" points="1634,-66.7673 1634,-85.7673 1714,-85.7673 1714,-66.7673 1634,-66.7673"/>
<text text-anchor="middle" x="1674" y="-73.7673" font-family="Helvetica,sans-Serif" font-size="10.00">nek_advance</text>
</a>
</g>
</g>
<!-- Node11&#45;&gt;Node12 -->
<g id="edge11" class="edge"><title>Node11&#45;&gt;Node12</title>
<path fill="none" stroke="midnightblue" d="M1608.36,-89.4728C1616.41,-87.8277 1625.33,-86.0068 1633.9,-84.2562"/>
<polygon fill="midnightblue" stroke="midnightblue" points="1607.47,-86.0826 1598.37,-91.5135 1608.87,-92.9409 1607.47,-86.0826"/>
</g>
<!-- Node13 -->
<g id="node13" class="node"><title>Node13</title>
<g id="a_node13"><a xlink:href="drive1_8F90.html#a18d3e839786263fc4cf91f7eeb714371" target="_top" xlink:title="take a chunk of time&#45;steps ">
<polygon fill="white" stroke="black" points="1750,-66.7673 1750,-85.7673 1863,-85.7673 1863,-66.7673 1750,-66.7673"/>
<text text-anchor="middle" x="1806.5" y="-73.7673" font-family="Helvetica,sans-Serif" font-size="10.00">nek__multi_advance</text>
</a>
</g>
</g>
<!-- Node12&#45;&gt;Node13 -->
<g id="edge12" class="edge"><title>Node12&#45;&gt;Node13</title>
<path fill="none" stroke="midnightblue" d="M1724.19,-76.2673C1732.61,-76.2673 1741.4,-76.2673 1749.97,-76.2673"/>
<polygon fill="midnightblue" stroke="midnightblue" points="1724.15,-72.7674 1714.15,-76.2673 1724.15,-79.7674 1724.15,-72.7674"/>
</g>
<!-- Node14 -->
<g id="node14" class="node"><title>Node14</title>
<g id="a_node14"><a xlink:href="drive1_8F90.html#a6ad57e0cf728f343e371ef8c9a02cd8a" target="_top" xlink:title="integrate the governing equations in time ">
<polygon fill="white" stroke="black" points="1899,-66.7673 1899,-85.7673 1964,-85.7673 1964,-66.7673 1899,-66.7673"/>
<text text-anchor="middle" x="1931.5" y="-73.7673" font-family="Helvetica,sans-Serif" font-size="10.00">nek_solve</text>
</a>
</g>
</g>
<!-- Node13&#45;&gt;Node14 -->
<g id="edge13" class="edge"><title>Node13&#45;&gt;Node14</title>
<path fill="none" stroke="midnightblue" d="M1873.28,-76.2673C1882.16,-76.2673 1890.93,-76.2673 1898.82,-76.2673"/>
<polygon fill="midnightblue" stroke="midnightblue" points="1873.24,-72.7674 1863.24,-76.2673 1873.24,-79.7674 1873.24,-72.7674"/>
</g>
<!-- Node15 -->
<g id="node15" class="node"><title>Node15</title>
<g id="a_node15"><a xlink:href="drive_8F90.html#a13048bf28dd0734640412d69349e3857" target="_top" xlink:title="NEK5000: Spectral Element Computational Fluid Dynamics Solver COPYRIGHT (c) 2008&#45;2010 UCHICAGO ARGONN...">
<polygon fill="white" stroke="black" points="2000,-66.7673 2000,-85.7673 2049,-85.7673 2049,-66.7673 2000,-66.7673"/>
<text text-anchor="middle" x="2024.5" y="-73.7673" font-family="Helvetica,sans-Serif" font-size="10.00">nekton</text>
</a>
</g>
</g>
<!-- Node14&#45;&gt;Node15 -->
<g id="edge14" class="edge"><title>Node14&#45;&gt;Node15</title>
<path fill="none" stroke="midnightblue" d="M1974.19,-76.2673C1982.95,-76.2673 1991.9,-76.2673 1999.73,-76.2673"/>
<polygon fill="midnightblue" stroke="midnightblue" points="1974.07,-72.7674 1964.07,-76.2673 1974.07,-79.7674 1974.07,-72.7674"/>
</g>
<!-- Node17 -->
<g id="node17" class="node"><title>Node17</title>
<g id="a_node17"><a xlink:href="drive2_8F90.html#ab0aeca9ad3db8be87a01ba29d069d71e" target="_top" xlink:title="Driver for solving the incompressible Navier&#45;Stokes equations. ">
<polygon fill="white" stroke="black" points="1561.5,-47.7673 1561.5,-66.7673 1596.5,-66.7673 1596.5,-47.7673 1561.5,-47.7673"/>
<text text-anchor="middle" x="1579" y="-54.7673" font-family="Helvetica,sans-Serif" font-size="10.00">fluid</text>
</a>
</g>
</g>
<!-- Node16&#45;&gt;Node17 -->
<g id="edge16" class="edge"><title>Node16&#45;&gt;Node17</title>
<path fill="none" stroke="midnightblue" d="M1532.26,-57.2673C1542.09,-57.2673 1552.6,-57.2673 1561.06,-57.2673"/>
<polygon fill="midnightblue" stroke="midnightblue" points="1532,-53.7674 1522,-57.2673 1532,-60.7674 1532,-53.7674"/>
</g>
<!-- Node17&#45;&gt;Node12 -->
<g id="edge17" class="edge"><title>Node17&#45;&gt;Node12</title>
<path fill="none" stroke="midnightblue" d="M1606.63,-62.7088C1615.08,-64.4335 1624.59,-66.3779 1633.73,-68.2444"/>
<polygon fill="midnightblue" stroke="midnightblue" points="1607.12,-59.2367 1596.63,-60.6641 1605.72,-66.095 1607.12,-59.2367"/>
</g>
<!-- Node18&#45;&gt;Node9 -->
<g id="edge19" class="edge"><title>Node18&#45;&gt;Node9</title>
<path fill="none" stroke="midnightblue" d="M1318.01,-65.7691C1326.61,-66.9976 1335.37,-68.2487 1343.7,-69.4389"/>
<polygon fill="midnightblue" stroke="midnightblue" points="1318.42,-62.2917 1308.02,-64.3422 1317.43,-69.2213 1318.42,-62.2917"/>
</g>
<!-- Node20 -->
<g id="node20" class="node"><title>Node20</title>
<g id="a_node20"><a xlink:href="classpoisson.html#ace48c9eb09141b029fd923de91c5cbbc" target="_top" xlink:title="one&#45;time setup of communication infrastructure for poisson_mod ">
<polygon fill="white" stroke="black" points="416,-61.2673 416,-91.2673 521,-91.2673 521,-61.2673 416,-61.2673"/>
<text text-anchor="start" x="424" y="-79.2673" font-family="Helvetica,sans-Serif" font-size="10.00">poisson::init_comm</text>
<text text-anchor="middle" x="468.5" y="-68.2673" font-family="Helvetica,sans-Serif" font-size="10.00">_infrastructure</text>
</a>
</g>
</g>
<!-- Node19&#45;&gt;Node20 -->
<g id="edge21" class="edge"><title>Node19&#45;&gt;Node20</title>
<path fill="none" stroke="midnightblue" d="M364.818,-102.194C381.087,-98.0858 399.338,-93.4776 415.891,-89.2982"/>
<polygon fill="midnightblue" stroke="midnightblue" points="363.816,-98.8366 354.978,-104.678 365.53,-105.624 363.816,-98.8366"/>
</g>
<!-- Node20&#45;&gt;Node3 -->
<g id="edge22" class="edge"><title>Node20&#45;&gt;Node3</title>
<path fill="none" stroke="midnightblue" d="M531.484,-76.2673C539.892,-76.2673 548.522,-76.2673 556.931,-76.2673"/>
<polygon fill="midnightblue" stroke="midnightblue" points="531.368,-72.7674 521.368,-76.2673 531.368,-79.7674 531.368,-72.7674"/>
</g>
<!-- Node21&#45;&gt;Node20 -->
<g id="edge24" class="edge"><title>Node21&#45;&gt;Node20</title>
<path fill="none" stroke="midnightblue" d="M375.098,-76.2673C388.495,-76.2673 402.657,-76.2673 415.762,-76.2673"/>
<polygon fill="midnightblue" stroke="midnightblue" points="375.033,-72.7674 365.033,-76.2673 375.033,-79.7674 375.033,-72.7674"/>
</g>
<!-- Node22&#45;&gt;Node3 -->
<g id="edge26" class="edge"><title>Node22&#45;&gt;Node3</title>
<path fill="none" stroke="midnightblue" d="M205.359,-62.9279C209.065,-61.2414 212.658,-59.3607 216,-57.2673 235.717,-44.9185 230.629,-28.4598 252,-19.2673 376.98,34.4906 545.255,-39.0902 600.552,-66.6195"/>
<polygon fill="midnightblue" stroke="midnightblue" points="203.942,-59.726 195.992,-66.7304 206.575,-66.2119 203.942,-59.726"/>
</g>
<!-- Node22&#45;&gt;Node19 -->
<g id="edge27" class="edge"><title>Node22&#45;&gt;Node19</title>
<path fill="none" stroke="midnightblue" d="M206.077,-88.2353C228.358,-93.5604 254.229,-99.7435 275.166,-104.747"/>
<polygon fill="midnightblue" stroke="midnightblue" points="206.662,-84.7767 196.122,-85.8563 205.035,-91.585 206.662,-84.7767"/>
</g>
<!-- Node22&#45;&gt;Node21 -->
<g id="edge30" class="edge"><title>Node22&#45;&gt;Node21</title>
<path fill="none" stroke="midnightblue" d="M226.472,-76.2673C240.148,-76.2673 254.185,-76.2673 266.936,-76.2673"/>
<polygon fill="midnightblue" stroke="midnightblue" points="226.111,-72.7674 216.111,-76.2673 226.111,-79.7674 226.111,-72.7674"/>
</g>
<!-- Node23 -->
<g id="node23" class="node"><title>Node23</title>
<g id="a_node23"><a xlink:href="classpoisson.html#af15535fb56b2a956fc12fd7887ad6ef0" target="_top" xlink:title="poisson::transpose_test">
<polygon fill="white" stroke="black" points="252,-28.7673 252,-47.7673 380,-47.7673 380,-28.7673 252,-28.7673"/>
<text text-anchor="middle" x="316" y="-35.7673" font-family="Helvetica,sans-Serif" font-size="10.00">poisson::transpose_test</text>
</a>
</g>
</g>
<!-- Node22&#45;&gt;Node23 -->
<g id="edge28" class="edge"><title>Node22&#45;&gt;Node23</title>
<path fill="none" stroke="midnightblue" d="M206.077,-64.2993C228.358,-58.9742 254.229,-52.7911 275.166,-47.7873"/>
<polygon fill="midnightblue" stroke="midnightblue" points="205.035,-60.9496 196.122,-66.6783 206.662,-67.7579 205.035,-60.9496"/>
</g>
<!-- Node23&#45;&gt;Node20 -->
<g id="edge29" class="edge"><title>Node23&#45;&gt;Node20</title>
<path fill="none" stroke="midnightblue" d="M364.818,-50.341C381.087,-54.4488 399.338,-59.057 415.891,-63.2364"/>
<polygon fill="midnightblue" stroke="midnightblue" points="365.53,-46.911 354.978,-47.8563 363.816,-53.698 365.53,-46.911"/>
</g>
</g>
</svg>
