<?xml version="1.0" encoding="UTF-8" standalone="no"?>
<!DOCTYPE svg PUBLIC "-//W3C//DTD SVG 1.1//EN"
 "http://www.w3.org/Graphics/SVG/1.1/DTD/svg11.dtd">
<!-- Generated by graphviz version 2.38.0 (20140413.2041)
 -->
<!-- Title: mxmf2 Pages: 1 -->
<!--zoomable 940 -->
<svg id="main" version="1.1" xmlns="http://www.w3.org/2000/svg" xmlns:xlink="http://www.w3.org/1999/xlink" xml:space="preserve" onload="init(evt)">
<style type="text/css"><![CDATA[
.edge:hover path { stroke: red; }
.edge:hover polygon { stroke: red; fill: red; }
]]></style>
<script type="text/javascript"><![CDATA[
var edges = document.getElementsByTagName('g');
if (edges && edges.length) {
  for (var i=0;i<edges.length;i++) {
    if (edges[i].id.substr(0,4)=='edge') {
      edges[i].setAttribute('class','edge');
    }
  }
}
]]></script>
        <defs>
                <circle id="rim" cx="0" cy="0" r="7"/>
                <circle id="rim2" cx="0" cy="0" r="3.5"/>
                <g id="zoomPlus">
                        <use xlink:href="#rim" fill="#404040">
                                <set attributeName="fill" to="#808080" begin="zoomplus.mouseover" end="zoomplus.mouseout"/>
                        </use>
                        <path d="M-4,0h8M0,-4v8" fill="none" stroke="white" stroke-width="1.5" pointer-events="none"/>
                </g>
                <g id="zoomMin">
                        <use xlink:href="#rim" fill="#404040">
                                <set attributeName="fill" to="#808080" begin="zoomminus.mouseover" end="zoomminus.mouseout"/>
                        </use>
                        <path d="M-4,0h8" fill="none" stroke="white" stroke-width="1.5" pointer-events="none"/>
                </g>
                <g id="dirArrow">
                        <path fill="none" stroke="white" stroke-width="1.5" d="M0,-3.0v7 M-2.5,-0.5L0,-3.0L2.5,-0.5"/>
                </g>
               <g id="resetDef">
                       <use xlink:href="#rim2" fill="#404040">
                               <set attributeName="fill" to="#808080" begin="reset.mouseover" end="reset.mouseout"/>
                       </use>
               </g>
        </defs>

<script type="text/javascript">
var viewWidth = 153;
var viewHeight = 940;
var sectionId = 'dynsection-29';
</script>
<script xlink:href="svgpan.js"/>
<svg id="graph" class="graph">
<g id="viewport">
<title>mxmf2</title>
<polygon fill="white" stroke="none" points="-4,4 -4,-936 149,-936 149,4 -4,4"/>
<!-- Node1 -->
<g id="node1" class="node"><title>Node1</title>
<polygon fill="#bfbfbf" stroke="black" points="0,-456.5 0,-475.5 47,-475.5 47,-456.5 0,-456.5"/>
<text text-anchor="middle" x="23.5" y="-463.5" font-family="Helvetica,sans-Serif" font-size="10.00">mxmf2</text>
</g>
<!-- Node2 -->
<g id="node2" class="node"><title>Node2</title>
<g id="a_node2"><a xlink:href="mxm__std_8F90.html#a7d3ac03517b3934b98857b22f7f78788" target="_top" xlink:title="mxf1">
<polygon fill="white" stroke="black" points="94.5,-912.5 94.5,-931.5 133.5,-931.5 133.5,-912.5 94.5,-912.5"/>
<text text-anchor="middle" x="114" y="-919.5" font-family="Helvetica,sans-Serif" font-size="10.00">mxf1</text>
</a>
</g>
</g>
<!-- Node1&#45;&gt;Node2 -->
<g id="edge1" class="edge"><title>Node1&#45;&gt;Node2</title>
<path fill="none" stroke="midnightblue" d="M24.7005,-475.559C26.0549,-532.643 35.3175,-828.552 83,-903 83.9601,-904.499 85.0853,-905.902 86.3261,-907.211"/>
<polygon fill="midnightblue" stroke="midnightblue" points="84.3759,-910.135 94.3527,-913.7 88.777,-904.691 84.3759,-910.135"/>
</g>
<!-- Node3 -->
<g id="node3" class="node"><title>Node3</title>
<g id="a_node3"><a xlink:href="mxm__std_8F90.html#a5786b175fcbe28ecafe1d878687c3ccf" target="_top" xlink:title="mxf10">
<polygon fill="white" stroke="black" points="91.5,-874.5 91.5,-893.5 136.5,-893.5 136.5,-874.5 91.5,-874.5"/>
<text text-anchor="middle" x="114" y="-881.5" font-family="Helvetica,sans-Serif" font-size="10.00">mxf10</text>
</a>
</g>
</g>
<!-- Node1&#45;&gt;Node3 -->
<g id="edge2" class="edge"><title>Node1&#45;&gt;Node3</title>
<path fill="none" stroke="midnightblue" d="M24.8443,-475.775C26.9265,-530.38 39.2485,-797.62 83,-865 83.6043,-865.931 84.272,-866.824 84.9911,-867.682"/>
<polygon fill="midnightblue" stroke="midnightblue" points="82.746,-870.37 92.5307,-874.433 87.4156,-865.155 82.746,-870.37"/>
</g>
<!-- Node4 -->
<g id="node4" class="node"><title>Node4</title>
<g id="a_node4"><a xlink:href="mxm__std_8F90.html#a244c7a41b5b7a22acba71c34552c2774" target="_top" xlink:title="mxf11">
<polygon fill="white" stroke="black" points="91.5,-836.5 91.5,-855.5 136.5,-855.5 136.5,-836.5 91.5,-836.5"/>
<text text-anchor="middle" x="114" y="-843.5" font-family="Helvetica,sans-Serif" font-size="10.00">mxf11</text>
</a>
</g>
</g>
<!-- Node1&#45;&gt;Node4 -->
<g id="edge3" class="edge"><title>Node1&#45;&gt;Node4</title>
<path fill="none" stroke="midnightblue" d="M24.9967,-475.506C27.8078,-526.386 43.0386,-766.461 83,-827 83.6113,-827.926 84.285,-828.816 85.0093,-829.67"/>
<polygon fill="midnightblue" stroke="midnightblue" points="82.7778,-832.369 92.5741,-836.405 87.4323,-827.141 82.7778,-832.369"/>
</g>
<!-- Node5 -->
<g id="node5" class="node"><title>Node5</title>
<g id="a_node5"><a xlink:href="mxm__std_8F90.html#afb2e2cde9040ab037e3586b0deef3851" target="_top" xlink:title="mxf12">
<polygon fill="white" stroke="black" points="91.5,-798.5 91.5,-817.5 136.5,-817.5 136.5,-798.5 91.5,-798.5"/>
<text text-anchor="middle" x="114" y="-805.5" font-family="Helvetica,sans-Serif" font-size="10.00">mxf12</text>
</a>
</g>
</g>
<!-- Node1&#45;&gt;Node5 -->
<g id="edge4" class="edge"><title>Node1&#45;&gt;Node5</title>
<path fill="none" stroke="midnightblue" d="M25.2152,-475.746C28.8967,-523.815 46.948,-735.468 83,-789 83.6199,-789.92 84.3009,-790.805 85.0314,-791.655"/>
<polygon fill="midnightblue" stroke="midnightblue" points="82.8166,-794.369 92.6271,-798.369 87.4526,-789.124 82.8166,-794.369"/>
</g>
<!-- Node6 -->
<g id="node6" class="node"><title>Node6</title>
<g id="a_node6"><a xlink:href="mxm__std_8F90.html#a6a048a62b47a5c2327279e158c1689df" target="_top" xlink:title="mxf13">
<polygon fill="white" stroke="black" points="91.5,-760.5 91.5,-779.5 136.5,-779.5 136.5,-760.5 91.5,-760.5"/>
<text text-anchor="middle" x="114" y="-767.5" font-family="Helvetica,sans-Serif" font-size="10.00">mxf13</text>
</a>
</g>
</g>
<!-- Node1&#45;&gt;Node6 -->
<g id="edge5" class="edge"><title>Node1&#45;&gt;Node6</title>
<path fill="none" stroke="midnightblue" d="M25.4758,-475.764C30.0824,-520.34 50.783,-704.344 83,-751 83.6306,-751.913 84.3208,-752.792 85.0591,-753.636"/>
<polygon fill="midnightblue" stroke="midnightblue" points="82.865,-756.367 92.6932,-760.324 87.4777,-751.102 82.865,-756.367"/>
</g>
<!-- Node7 -->
<g id="node7" class="node"><title>Node7</title>
<g id="a_node7"><a xlink:href="mxm__std_8F90.html#a6e57628b882cb8bcac215e9a5b523eed" target="_top" xlink:title="mxf14">
<polygon fill="white" stroke="black" points="91.5,-722.5 91.5,-741.5 136.5,-741.5 136.5,-722.5 91.5,-722.5"/>
<text text-anchor="middle" x="114" y="-729.5" font-family="Helvetica,sans-Serif" font-size="10.00">mxf14</text>
</a>
</g>
</g>
<!-- Node1&#45;&gt;Node7 -->
<g id="edge6" class="edge"><title>Node1&#45;&gt;Node7</title>
<path fill="none" stroke="midnightblue" d="M24.2977,-475.541C24.021,-510.664 27.2282,-634.778 83,-713 83.7449,-714.045 84.5669,-715.045 85.4487,-716.002"/>
<polygon fill="midnightblue" stroke="midnightblue" points="83.1958,-718.68 93.0869,-722.477 87.7226,-713.341 83.1958,-718.68"/>
</g>
<!-- Node8 -->
<g id="node8" class="node"><title>Node8</title>
<g id="a_node8"><a xlink:href="mxm__std_8F90.html#a02e79201be026faf756be00e58334c4f" target="_top" xlink:title="mxf15">
<polygon fill="white" stroke="black" points="91.5,-684.5 91.5,-703.5 136.5,-703.5 136.5,-684.5 91.5,-684.5"/>
<text text-anchor="middle" x="114" y="-691.5" font-family="Helvetica,sans-Serif" font-size="10.00">mxf15</text>
</a>
</g>
</g>
<!-- Node1&#45;&gt;Node8 -->
<g id="edge7" class="edge"><title>Node1&#45;&gt;Node8</title>
<path fill="none" stroke="midnightblue" d="M24.821,-475.807C26.3292,-507.724 34.8735,-610.303 83,-675 83.7658,-676.029 84.6054,-677.017 85.5017,-677.963"/>
<polygon fill="midnightblue" stroke="midnightblue" points="83.2817,-680.669 93.1997,-684.395 87.7701,-675.297 83.2817,-680.669"/>
</g>
<!-- Node9 -->
<g id="node9" class="node"><title>Node9</title>
<g id="a_node9"><a xlink:href="mxm__std_8F90.html#a2fbea6eeadc258673ba8ea5708593aee" target="_top" xlink:title="mxf16">
<polygon fill="white" stroke="black" points="91.5,-646.5 91.5,-665.5 136.5,-665.5 136.5,-646.5 91.5,-646.5"/>
<text text-anchor="middle" x="114" y="-653.5" font-family="Helvetica,sans-Serif" font-size="10.00">mxf16</text>
</a>
</g>
</g>
<!-- Node1&#45;&gt;Node9 -->
<g id="edge8" class="edge"><title>Node1&#45;&gt;Node9</title>
<path fill="none" stroke="midnightblue" d="M25.5347,-475.568C28.9684,-503.341 42.1898,-585.268 83,-637 83.8162,-638.035 84.7052,-639.029 85.6492,-639.982"/>
<polygon fill="midnightblue" stroke="midnightblue" points="83.6951,-642.904 93.6663,-646.485 88.1048,-637.467 83.6951,-642.904"/>
</g>
<!-- Node10 -->
<g id="node10" class="node"><title>Node10</title>
<g id="a_node10"><a xlink:href="mxm__std_8F90.html#a3829af481cd230e6aadef08feab9a278" target="_top" xlink:title="mxf17">
<polygon fill="white" stroke="black" points="91.5,-608.5 91.5,-627.5 136.5,-627.5 136.5,-608.5 91.5,-608.5"/>
<text text-anchor="middle" x="114" y="-615.5" font-family="Helvetica,sans-Serif" font-size="10.00">mxf17</text>
</a>
</g>
</g>
<!-- Node1&#45;&gt;Node10 -->
<g id="edge9" class="edge"><title>Node1&#45;&gt;Node10</title>
<path fill="none" stroke="midnightblue" d="M26.6905,-475.749C32.3895,-499.294 49.6097,-560.177 83,-599 83.8593,-599.999 84.7842,-600.964 85.7578,-601.893"/>
<polygon fill="midnightblue" stroke="midnightblue" points="83.8713,-604.862 93.8936,-608.298 88.2014,-599.362 83.8713,-604.862"/>
</g>
<!-- Node11 -->
<g id="node11" class="node"><title>Node11</title>
<g id="a_node11"><a xlink:href="mxm__std_8F90.html#a48ed8195cc978a87c005b3306a974894" target="_top" xlink:title="mxf18">
<polygon fill="white" stroke="black" points="91.5,-570.5 91.5,-589.5 136.5,-589.5 136.5,-570.5 91.5,-570.5"/>
<text text-anchor="middle" x="114" y="-577.5" font-family="Helvetica,sans-Serif" font-size="10.00">mxf18</text>
</a>
</g>
</g>
<!-- Node1&#45;&gt;Node11 -->
<g id="edge10" class="edge"><title>Node1&#45;&gt;Node11</title>
<path fill="none" stroke="midnightblue" d="M28.6127,-475.596C36.8221,-493.912 56.7337,-534.4 83,-561 84.0829,-562.097 85.2405,-563.16 86.4477,-564.187"/>
<polygon fill="midnightblue" stroke="midnightblue" points="84.7423,-567.277 94.8718,-570.383 88.8898,-561.638 84.7423,-567.277"/>
</g>
<!-- Node12 -->
<g id="node12" class="node"><title>Node12</title>
<g id="a_node12"><a xlink:href="mxm__std_8F90.html#a28a9857286e11804e1a97875028ecb09" target="_top" xlink:title="mxf19">
<polygon fill="white" stroke="black" points="91.5,-532.5 91.5,-551.5 136.5,-551.5 136.5,-532.5 91.5,-532.5"/>
<text text-anchor="middle" x="114" y="-539.5" font-family="Helvetica,sans-Serif" font-size="10.00">mxf19</text>
</a>
</g>
</g>
<!-- Node1&#45;&gt;Node12 -->
<g id="edge11" class="edge"><title>Node1&#45;&gt;Node12</title>
<path fill="none" stroke="midnightblue" d="M33.0798,-475.501C44.0314,-487.349 63.8598,-507.883 83,-523 84.5603,-524.232 86.2035,-525.456 87.8841,-526.653"/>
<polygon fill="midnightblue" stroke="midnightblue" points="86.1285,-529.689 96.3865,-532.339 90.0201,-523.871 86.1285,-529.689"/>
</g>
<!-- Node13 -->
<g id="node13" class="node"><title>Node13</title>
<g id="a_node13"><a xlink:href="mxm__std_8F90.html#acd223c583f3a9242fda7a1b8897b624d" target="_top" xlink:title="mxf2">
<polygon fill="white" stroke="black" points="94.5,-494.5 94.5,-513.5 133.5,-513.5 133.5,-494.5 94.5,-494.5"/>
<text text-anchor="middle" x="114" y="-501.5" font-family="Helvetica,sans-Serif" font-size="10.00">mxf2</text>
</a>
</g>
</g>
<!-- Node1&#45;&gt;Node13 -->
<g id="edge12" class="edge"><title>Node1&#45;&gt;Node13</title>
<path fill="none" stroke="midnightblue" d="M46.8323,-475.589C58.388,-480.551 72.6117,-486.658 84.9064,-491.937"/>
<polygon fill="midnightblue" stroke="midnightblue" points="83.6955,-495.226 94.2652,-495.956 86.4574,-488.794 83.6955,-495.226"/>
</g>
<!-- Node14 -->
<g id="node14" class="node"><title>Node14</title>
<g id="a_node14"><a xlink:href="mxm__std_8F90.html#af60059bd60847f48acdf6461fefa3b22" target="_top" xlink:title="mxf20">
<polygon fill="white" stroke="black" points="91.5,-456.5 91.5,-475.5 136.5,-475.5 136.5,-456.5 91.5,-456.5"/>
<text text-anchor="middle" x="114" y="-463.5" font-family="Helvetica,sans-Serif" font-size="10.00">mxf20</text>
</a>
</g>
</g>
<!-- Node1&#45;&gt;Node14 -->
<g id="edge13" class="edge"><title>Node1&#45;&gt;Node14</title>
<path fill="none" stroke="midnightblue" d="M47.2909,-466C57.5371,-466 69.8086,-466 80.9583,-466"/>
<polygon fill="midnightblue" stroke="midnightblue" points="81.2017,-469.5 91.2017,-466 81.2016,-462.5 81.2017,-469.5"/>
</g>
<!-- Node15 -->
<g id="node15" class="node"><title>Node15</title>
<g id="a_node15"><a xlink:href="mxm__std_8F90.html#a825db174c5643aef5e4cdf57067ebbbb" target="_top" xlink:title="mxf21">
<polygon fill="white" stroke="black" points="91.5,-418.5 91.5,-437.5 136.5,-437.5 136.5,-418.5 91.5,-418.5"/>
<text text-anchor="middle" x="114" y="-425.5" font-family="Helvetica,sans-Serif" font-size="10.00">mxf21</text>
</a>
</g>
</g>
<!-- Node1&#45;&gt;Node15 -->
<g id="edge14" class="edge"><title>Node1&#45;&gt;Node15</title>
<path fill="none" stroke="midnightblue" d="M46.8323,-456.411C57.4735,-451.842 70.3771,-446.301 81.9535,-441.331"/>
<polygon fill="midnightblue" stroke="midnightblue" points="83.4789,-444.485 91.2867,-437.323 80.717,-438.053 83.4789,-444.485"/>
</g>
<!-- Node16 -->
<g id="node16" class="node"><title>Node16</title>
<g id="a_node16"><a xlink:href="mxm__std_8F90.html#a1f2059cb835b2818aef861f2f59a0a72" target="_top" xlink:title="mxf22">
<polygon fill="white" stroke="black" points="91.5,-380.5 91.5,-399.5 136.5,-399.5 136.5,-380.5 91.5,-380.5"/>
<text text-anchor="middle" x="114" y="-387.5" font-family="Helvetica,sans-Serif" font-size="10.00">mxf22</text>
</a>
</g>
</g>
<!-- Node1&#45;&gt;Node16 -->
<g id="edge15" class="edge"><title>Node1&#45;&gt;Node16</title>
<path fill="none" stroke="midnightblue" d="M33.0798,-456.499C44.0314,-444.651 63.8598,-424.117 83,-409 84.5603,-407.768 86.2035,-406.544 87.8841,-405.347"/>
<polygon fill="midnightblue" stroke="midnightblue" points="90.0201,-408.129 96.3865,-399.661 86.1285,-402.311 90.0201,-408.129"/>
</g>
<!-- Node17 -->
<g id="node17" class="node"><title>Node17</title>
<g id="a_node17"><a xlink:href="mxm__std_8F90.html#a3dc6491b8d44b702dbbb13a01f887c59" target="_top" xlink:title="mxf23">
<polygon fill="white" stroke="black" points="91.5,-342.5 91.5,-361.5 136.5,-361.5 136.5,-342.5 91.5,-342.5"/>
<text text-anchor="middle" x="114" y="-349.5" font-family="Helvetica,sans-Serif" font-size="10.00">mxf23</text>
</a>
</g>
</g>
<!-- Node1&#45;&gt;Node17 -->
<g id="edge16" class="edge"><title>Node1&#45;&gt;Node17</title>
<path fill="none" stroke="midnightblue" d="M28.6127,-456.404C36.8221,-438.088 56.7337,-397.6 83,-371 84.0829,-369.903 85.2405,-368.84 86.4477,-367.813"/>
<polygon fill="midnightblue" stroke="midnightblue" points="88.8898,-370.362 94.8718,-361.617 84.7423,-364.723 88.8898,-370.362"/>
</g>
<!-- Node18 -->
<g id="node18" class="node"><title>Node18</title>
<g id="a_node18"><a xlink:href="mxm__std_8F90.html#af0752c9a61343489900f8d812c6980ed" target="_top" xlink:title="mxf24">
<polygon fill="white" stroke="black" points="91.5,-304.5 91.5,-323.5 136.5,-323.5 136.5,-304.5 91.5,-304.5"/>
<text text-anchor="middle" x="114" y="-311.5" font-family="Helvetica,sans-Serif" font-size="10.00">mxf24</text>
</a>
</g>
</g>
<!-- Node1&#45;&gt;Node18 -->
<g id="edge17" class="edge"><title>Node1&#45;&gt;Node18</title>
<path fill="none" stroke="midnightblue" d="M26.6905,-456.251C32.3895,-432.706 49.6097,-371.823 83,-333 83.8593,-332.001 84.7842,-331.036 85.7578,-330.107"/>
<polygon fill="midnightblue" stroke="midnightblue" points="88.2014,-332.638 93.8936,-323.702 83.8713,-327.138 88.2014,-332.638"/>
</g>
<!-- Node19 -->
<g id="node19" class="node"><title>Node19</title>
<g id="a_node19"><a xlink:href="mxm__std_8F90.html#abff718a387aa354f77d0e8b0ffa98867" target="_top" xlink:title="mxf3">
<polygon fill="white" stroke="black" points="94.5,-266.5 94.5,-285.5 133.5,-285.5 133.5,-266.5 94.5,-266.5"/>
<text text-anchor="middle" x="114" y="-273.5" font-family="Helvetica,sans-Serif" font-size="10.00">mxf3</text>
</a>
</g>
</g>
<!-- Node1&#45;&gt;Node19 -->
<g id="edge18" class="edge"><title>Node1&#45;&gt;Node19</title>
<path fill="none" stroke="midnightblue" d="M25.5347,-456.432C28.9684,-428.659 42.1898,-346.732 83,-295 83.9546,-293.79 85.0088,-292.635 86.1342,-291.536"/>
<polygon fill="midnightblue" stroke="midnightblue" points="88.606,-294.044 94.2895,-285.103 84.2705,-288.548 88.606,-294.044"/>
</g>
<!-- Node20 -->
<g id="node20" class="node"><title>Node20</title>
<g id="a_node20"><a xlink:href="mxm__std_8F90.html#a2f4e4e1b4daebbd4d0580029d0f54016" target="_top" xlink:title="mxf4">
<polygon fill="white" stroke="black" points="94.5,-228.5 94.5,-247.5 133.5,-247.5 133.5,-228.5 94.5,-228.5"/>
<text text-anchor="middle" x="114" y="-235.5" font-family="Helvetica,sans-Serif" font-size="10.00">mxf4</text>
</a>
</g>
</g>
<!-- Node1&#45;&gt;Node20 -->
<g id="edge19" class="edge"><title>Node1&#45;&gt;Node20</title>
<path fill="none" stroke="midnightblue" d="M24.821,-456.193C26.3292,-424.276 34.8735,-321.697 83,-257 84.0372,-255.606 85.2097,-254.288 86.4751,-253.047"/>
<polygon fill="midnightblue" stroke="midnightblue" points="88.7479,-255.713 94.4439,-246.779 84.4201,-250.211 88.7479,-255.713"/>
</g>
<!-- Node21 -->
<g id="node21" class="node"><title>Node21</title>
<g id="a_node21"><a xlink:href="mxm__std_8F90.html#a5a6d5c31350c601ba8327b75a72cba0a" target="_top" xlink:title="mxf5">
<polygon fill="white" stroke="black" points="94.5,-190.5 94.5,-209.5 133.5,-209.5 133.5,-190.5 94.5,-190.5"/>
<text text-anchor="middle" x="114" y="-197.5" font-family="Helvetica,sans-Serif" font-size="10.00">mxf5</text>
</a>
</g>
</g>
<!-- Node1&#45;&gt;Node21 -->
<g id="edge20" class="edge"><title>Node1&#45;&gt;Node21</title>
<path fill="none" stroke="midnightblue" d="M24.2977,-456.459C24.021,-421.336 27.2282,-297.222 83,-219 84.0088,-217.585 85.1592,-216.251 86.4078,-214.998"/>
<polygon fill="midnightblue" stroke="midnightblue" points="88.683,-217.661 94.3296,-208.696 84.3249,-212.183 88.683,-217.661"/>
</g>
<!-- Node22 -->
<g id="node22" class="node"><title>Node22</title>
<g id="a_node22"><a xlink:href="mxm__std_8F90.html#a38a142edde1e72a918d280747a319f7a" target="_top" xlink:title="mxf6">
<polygon fill="white" stroke="black" points="94.5,-152.5 94.5,-171.5 133.5,-171.5 133.5,-152.5 94.5,-152.5"/>
<text text-anchor="middle" x="114" y="-159.5" font-family="Helvetica,sans-Serif" font-size="10.00">mxf6</text>
</a>
</g>
</g>
<!-- Node1&#45;&gt;Node22 -->
<g id="edge21" class="edge"><title>Node1&#45;&gt;Node22</title>
<path fill="none" stroke="midnightblue" d="M25.4758,-456.236C30.0824,-411.66 50.783,-227.656 83,-181 83.9874,-179.57 85.1211,-178.225 86.3569,-176.962"/>
<polygon fill="midnightblue" stroke="midnightblue" points="88.6335,-179.623 94.2433,-170.635 84.253,-174.163 88.6335,-179.623"/>
</g>
<!-- Node23 -->
<g id="node23" class="node"><title>Node23</title>
<g id="a_node23"><a xlink:href="mxm__std_8F90.html#a1919ea16c0a7b4e248e45e983c29d965" target="_top" xlink:title="mxf7">
<polygon fill="white" stroke="black" points="94.5,-114.5 94.5,-133.5 133.5,-133.5 133.5,-114.5 94.5,-114.5"/>
<text text-anchor="middle" x="114" y="-121.5" font-family="Helvetica,sans-Serif" font-size="10.00">mxf7</text>
</a>
</g>
</g>
<!-- Node1&#45;&gt;Node23 -->
<g id="edge22" class="edge"><title>Node1&#45;&gt;Node23</title>
<path fill="none" stroke="midnightblue" d="M25.2152,-456.254C28.8967,-408.185 46.948,-196.532 83,-143 83.9944,-141.523 85.1461,-140.138 86.4071,-138.843"/>
<polygon fill="midnightblue" stroke="midnightblue" points="88.8585,-141.364 94.4878,-132.389 84.4899,-135.895 88.8585,-141.364"/>
</g>
<!-- Node24 -->
<g id="node24" class="node"><title>Node24</title>
<g id="a_node24"><a xlink:href="mxm__std_8F90.html#af4bd28930a9d674bbcad09ad75fa81ef" target="_top" xlink:title="mxf8">
<polygon fill="white" stroke="black" points="94.5,-76.5 94.5,-95.5 133.5,-95.5 133.5,-76.5 94.5,-76.5"/>
<text text-anchor="middle" x="114" y="-83.5" font-family="Helvetica,sans-Serif" font-size="10.00">mxf8</text>
</a>
</g>
</g>
<!-- Node1&#45;&gt;Node24 -->
<g id="edge23" class="edge"><title>Node1&#45;&gt;Node24</title>
<path fill="none" stroke="midnightblue" d="M24.9967,-456.494C27.8078,-405.614 43.0386,-165.539 83,-105 83.9807,-103.514 85.1218,-102.122 86.3747,-100.821"/>
<polygon fill="midnightblue" stroke="midnightblue" points="88.826,-103.342 94.4338,-94.3525 84.4443,-97.8825 88.826,-103.342"/>
</g>
<!-- Node25 -->
<g id="node25" class="node"><title>Node25</title>
<g id="a_node25"><a xlink:href="mxm__std_8F90.html#a8ab38e8d33e92444b748159b82759c27" target="_top" xlink:title="mxf9">
<polygon fill="white" stroke="black" points="94.5,-38.5 94.5,-57.5 133.5,-57.5 133.5,-38.5 94.5,-38.5"/>
<text text-anchor="middle" x="114" y="-45.5" font-family="Helvetica,sans-Serif" font-size="10.00">mxf9</text>
</a>
</g>
</g>
<!-- Node1&#45;&gt;Node25 -->
<g id="edge24" class="edge"><title>Node1&#45;&gt;Node25</title>
<path fill="none" stroke="midnightblue" d="M24.8443,-456.225C26.9265,-401.62 39.2485,-134.38 83,-67 83.9695,-65.507 85.1019,-64.1091 86.3482,-62.8037"/>
<polygon fill="midnightblue" stroke="midnightblue" points="88.7993,-65.3236 94.3896,-56.3236 84.407,-59.8731 88.7993,-65.3236"/>
</g>
<!-- Node26 -->
<g id="node26" class="node"><title>Node26</title>
<g id="a_node26"><a xlink:href="mxm__std_8F90.html#ac63fe7516a18dc57dfe913ad2c1453be" target="_top" xlink:title="mxm44_0">
<polygon fill="white" stroke="black" points="83,-0.5 83,-19.5 145,-19.5 145,-0.5 83,-0.5"/>
<text text-anchor="middle" x="114" y="-7.5" font-family="Helvetica,sans-Serif" font-size="10.00">mxm44_0</text>
</a>
</g>
</g>
<!-- Node1&#45;&gt;Node26 -->
<g id="edge25" class="edge"><title>Node1&#45;&gt;Node26</title>
<path fill="none" stroke="midnightblue" d="M24.7005,-456.441C26.0549,-399.357 35.3175,-103.448 83,-29 83.5985,-28.0655 84.2612,-27.1685 84.976,-26.3084"/>
<polygon fill="midnightblue" stroke="midnightblue" points="87.4016,-28.8341 92.4946,-19.5436 82.7196,-23.6303 87.4016,-28.8341"/>
</g>
</g>
</svg>
        <g id="navigator" transform="translate(0 0)" fill="#404254">
                <rect fill="#f2f5e9" fill-opacity="0.5" stroke="#606060" stroke-width=".5" x="0" y="0" width="60" height="60"/>
                <use id="zoomplus" xlink:href="#zoomPlus" x="17" y="9" onmousedown="handleZoom(evt,'in')"/>
                <use id="zoomminus" xlink:href="#zoomMin" x="42" y="9" onmousedown="handleZoom(evt,'out')"/>
                <use id="reset" xlink:href="#resetDef" x="30" y="36" onmousedown="handleReset()"/>
                <g id="arrowUp" xlink:href="#dirArrow" transform="translate(30 24)" onmousedown="handlePan(0,-1)">
                  <use xlink:href="#rim" fill="#404040">
                        <set attributeName="fill" to="#808080" begin="arrowUp.mouseover" end="arrowUp.mouseout"/>
                  </use>
                  <path fill="none" stroke="white" stroke-width="1.5" d="M0,-3.0v7 M-2.5,-0.5L0,-3.0L2.5,-0.5"/>
                </g>
                <g id="arrowRight" xlink:href="#dirArrow" transform="rotate(90) translate(36 -43)" onmousedown="handlePan(1,0)">
                  <use xlink:href="#rim" fill="#404040">
                        <set attributeName="fill" to="#808080" begin="arrowRight.mouseover" end="arrowRight.mouseout"/>
                  </use>
                  <path fill="none" stroke="white" stroke-width="1.5" d="M0,-3.0v7 M-2.5,-0.5L0,-3.0L2.5,-0.5"/>
                </g>
                <g id="arrowDown" xlink:href="#dirArrow" transform="rotate(180) translate(-30 -48)" onmousedown="handlePan(0,1)">
                  <use xlink:href="#rim" fill="#404040">
                        <set attributeName="fill" to="#808080" begin="arrowDown.mouseover" end="arrowDown.mouseout"/>
                  </use>
                  <path fill="none" stroke="white" stroke-width="1.5" d="M0,-3.0v7 M-2.5,-0.5L0,-3.0L2.5,-0.5"/>
                </g>
                <g id="arrowLeft" xlink:href="#dirArrow" transform="rotate(270) translate(-36 17)" onmousedown="handlePan(-1,0)">
                  <use xlink:href="#rim" fill="#404040">
                        <set attributeName="fill" to="#808080" begin="arrowLeft.mouseover" end="arrowLeft.mouseout"/>
                  </use>
                  <path fill="none" stroke="white" stroke-width="1.5" d="M0,-3.0v7 M-2.5,-0.5L0,-3.0L2.5,-0.5"/>
                </g>
        </g>
        <svg viewBox="0 0 15 15" width="100%" height="30px" preserveAspectRatio="xMaxYMin meet">
         <g id="arrow_out" transform="scale(0.3 0.3)">
          <a xlink:href="mxm__std_8F90_aa9e8685c4a72f18fb5d1ee88ed17a3d6_cgraph_org.svg" target="_base">
           <rect id="button" ry="5" rx="5" y="6" x="6" height="38" width="38"
                fill="#f2f5e9" fill-opacity="0.5" stroke="#606060" stroke-width="1.0"/>
           <path id="arrow"
             d="M 11.500037,31.436501 C 11.940474,20.09759 22.043105,11.32322 32.158766,21.979434 L 37.068811,17.246167 C 37.068811,17.246167 37.088388,32 37.088388,32 L 22.160133,31.978069 C 22.160133,31.978069 26.997745,27.140456 26.997745,27.140456 C 18.528582,18.264221 13.291696,25.230495 11.500037,31.436501 z"
             style="fill:#404040;"/>
          </a>
         </g>
        </svg>
</svg>
