<?xml version="1.0" encoding="UTF-8" standalone="no"?>
<!DOCTYPE svg PUBLIC "-//W3C//DTD SVG 1.1//EN"
 "http://www.w3.org/Graphics/SVG/1.1/DTD/svg11.dtd">
<!-- Generated by graphviz version 2.38.0 (20140413.2041)
 -->
<!-- Title: mxmur3 Pages: 1 -->
<!--zoomable 598 -->
<svg id="main" version="1.1" xmlns="http://www.w3.org/2000/svg" xmlns:xlink="http://www.w3.org/1999/xlink" xml:space="preserve" onload="init(evt)">
<style type="text/css"><![CDATA[
.edge:hover path { stroke: red; }
.edge:hover polygon { stroke: red; fill: red; }
]]></style>
<script type="text/javascript"><![CDATA[
var edges = document.getElementsByTagName('g');
if (edges && edges.length) {
  for (var i=0;i<edges.length;i++) {
    if (edges[i].id.substr(0,4)=='edge') {
      edges[i].setAttribute('class','edge');
    }
  }
}
]]></script>
        <defs>
                <circle id="rim" cx="0" cy="0" r="7"/>
                <circle id="rim2" cx="0" cy="0" r="3.5"/>
                <g id="zoomPlus">
                        <use xlink:href="#rim" fill="#404040">
                                <set attributeName="fill" to="#808080" begin="zoomplus.mouseover" end="zoomplus.mouseout"/>
                        </use>
                        <path d="M-4,0h8M0,-4v8" fill="none" stroke="white" stroke-width="1.5" pointer-events="none"/>
                </g>
                <g id="zoomMin">
                        <use xlink:href="#rim" fill="#404040">
                                <set attributeName="fill" to="#808080" begin="zoomminus.mouseover" end="zoomminus.mouseout"/>
                        </use>
                        <path d="M-4,0h8" fill="none" stroke="white" stroke-width="1.5" pointer-events="none"/>
                </g>
                <g id="dirArrow">
                        <path fill="none" stroke="white" stroke-width="1.5" d="M0,-3.0v7 M-2.5,-0.5L0,-3.0L2.5,-0.5"/>
                </g>
               <g id="resetDef">
                       <use xlink:href="#rim2" fill="#404040">
                               <set attributeName="fill" to="#808080" begin="reset.mouseover" end="reset.mouseout"/>
                       </use>
               </g>
        </defs>

<script type="text/javascript">
var viewWidth = 168;
var viewHeight = 598;
var sectionId = 'dynsection-98';
</script>
<script xlink:href="svgpan.js"/>
<svg id="graph" class="graph">
<g id="viewport">
<title>mxmur3</title>
<polygon fill="white" stroke="none" points="-4,4 -4,-594 164,-594 164,4 -4,4"/>
<!-- Node1 -->
<g id="node1" class="node"><title>Node1</title>
<polygon fill="#bfbfbf" stroke="black" points="0,-285.5 0,-304.5 53,-304.5 53,-285.5 0,-285.5"/>
<text text-anchor="middle" x="26.5" y="-292.5" font-family="Helvetica,sans-Serif" font-size="10.00">mxmur3</text>
</g>
<!-- Node2 -->
<g id="node2" class="node"><title>Node2</title>
<g id="a_node2"><a xlink:href="mxm__std_8F90.html#adbc6dbfbdd6f7819dd6dbfc3534cd123" target="_top" xlink:title="mxmur3_1">
<polygon fill="white" stroke="black" points="92,-570.5 92,-589.5 157,-589.5 157,-570.5 92,-570.5"/>
<text text-anchor="middle" x="124.5" y="-577.5" font-family="Helvetica,sans-Serif" font-size="10.00">mxmur3_1</text>
</a>
</g>
</g>
<!-- Node1&#45;&gt;Node2 -->
<g id="edge1" class="edge"><title>Node1&#45;&gt;Node2</title>
<path fill="none" stroke="midnightblue" d="M27.0679,-304.619C25.8961,-341.778 26.2598,-478.006 89,-561 89.7886,-562.043 90.6519,-563.037 91.5744,-563.982"/>
<polygon fill="midnightblue" stroke="midnightblue" points="89.5379,-566.834 99.546,-570.311 93.8905,-561.352 89.5379,-566.834"/>
</g>
<!-- Node3 -->
<g id="node3" class="node"><title>Node3</title>
<g id="a_node3"><a xlink:href="mxm__std_8F90.html#a781140f7edfb0632412a838bbd9cf560" target="_top" xlink:title="mxmur3_10">
<polygon fill="white" stroke="black" points="89,-532.5 89,-551.5 160,-551.5 160,-532.5 89,-532.5"/>
<text text-anchor="middle" x="124.5" y="-539.5" font-family="Helvetica,sans-Serif" font-size="10.00">mxmur3_10</text>
</a>
</g>
</g>
<!-- Node1&#45;&gt;Node3 -->
<g id="edge2" class="edge"><title>Node1&#45;&gt;Node3</title>
<path fill="none" stroke="midnightblue" d="M27.5307,-304.857C28.1316,-338.914 34.3258,-453.338 89,-523 89.9235,-524.177 90.9411,-525.291 92.0299,-526.345"/>
<polygon fill="midnightblue" stroke="midnightblue" points="89.9387,-529.152 100.008,-532.448 94.1919,-523.592 89.9387,-529.152"/>
</g>
<!-- Node4 -->
<g id="node4" class="node"><title>Node4</title>
<g id="a_node4"><a xlink:href="mxm__std_8F90.html#a2b41a7988b683e147f857e870c595650" target="_top" xlink:title="mxmur3_11">
<polygon fill="white" stroke="black" points="89,-494.5 89,-513.5 160,-513.5 160,-494.5 89,-494.5"/>
<text text-anchor="middle" x="124.5" y="-501.5" font-family="Helvetica,sans-Serif" font-size="10.00">mxmur3_11</text>
</a>
</g>
</g>
<!-- Node1&#45;&gt;Node4 -->
<g id="edge3" class="edge"><title>Node1&#45;&gt;Node4</title>
<path fill="none" stroke="midnightblue" d="M28.1783,-304.886C30.7365,-335.217 42.2004,-428.322 89,-485 89.9524,-486.153 90.9939,-487.248 92.1024,-488.287"/>
<polygon fill="midnightblue" stroke="midnightblue" points="90.0554,-491.126 100.154,-494.33 94.2574,-485.528 90.0554,-491.126"/>
</g>
<!-- Node5 -->
<g id="node5" class="node"><title>Node5</title>
<g id="a_node5"><a xlink:href="mxm__std_8F90.html#adea4d431c69e979785e87a1455198327" target="_top" xlink:title="mxmur3_12">
<polygon fill="white" stroke="black" points="89,-456.5 89,-475.5 160,-475.5 160,-456.5 89,-456.5"/>
<text text-anchor="middle" x="124.5" y="-463.5" font-family="Helvetica,sans-Serif" font-size="10.00">mxmur3_12</text>
</a>
</g>
</g>
<!-- Node1&#45;&gt;Node5 -->
<g id="edge4" class="edge"><title>Node1&#45;&gt;Node5</title>
<path fill="none" stroke="midnightblue" d="M29.0975,-304.731C33.8151,-330.748 49.8824,-402.93 89,-447 90.0213,-448.151 91.1296,-449.246 92.3017,-450.286"/>
<polygon fill="midnightblue" stroke="midnightblue" points="90.5624,-453.348 100.717,-456.37 94.6634,-447.675 90.5624,-453.348"/>
</g>
<!-- Node6 -->
<g id="node6" class="node"><title>Node6</title>
<g id="a_node6"><a xlink:href="mxm__std_8F90.html#ad787fcfa0932d3ec1befc4b6f0240018" target="_top" xlink:title="mxmur3_13">
<polygon fill="white" stroke="black" points="89,-418.5 89,-437.5 160,-437.5 160,-418.5 89,-418.5"/>
<text text-anchor="middle" x="124.5" y="-425.5" font-family="Helvetica,sans-Serif" font-size="10.00">mxmur3_13</text>
</a>
</g>
</g>
<!-- Node1&#45;&gt;Node6 -->
<g id="edge5" class="edge"><title>Node1&#45;&gt;Node6</title>
<path fill="none" stroke="midnightblue" d="M30.6032,-304.712C37.8077,-325.962 57.4937,-377.219 89,-409 90.2246,-410.235 91.5464,-411.413 92.9341,-412.531"/>
<polygon fill="midnightblue" stroke="midnightblue" points="91.1496,-415.551 101.383,-418.294 95.0937,-409.768 91.1496,-415.551"/>
</g>
<!-- Node7 -->
<g id="node7" class="node"><title>Node7</title>
<g id="a_node7"><a xlink:href="mxm__std_8F90.html#ac053cab06798422942ce158decc27818" target="_top" xlink:title="mxmur3_14">
<polygon fill="white" stroke="black" points="89,-380.5 89,-399.5 160,-399.5 160,-380.5 89,-380.5"/>
<text text-anchor="middle" x="124.5" y="-387.5" font-family="Helvetica,sans-Serif" font-size="10.00">mxmur3_14</text>
</a>
</g>
</g>
<!-- Node1&#45;&gt;Node7 -->
<g id="edge6" class="edge"><title>Node1&#45;&gt;Node7</title>
<path fill="none" stroke="midnightblue" d="M33.6748,-304.897C43.7581,-320.462 65.0517,-350.954 89,-371 90.7041,-372.426 92.5315,-373.797 94.4236,-375.103"/>
<polygon fill="midnightblue" stroke="midnightblue" points="92.6057,-378.094 102.95,-380.385 96.2926,-372.143 92.6057,-378.094"/>
</g>
<!-- Node8 -->
<g id="node8" class="node"><title>Node8</title>
<g id="a_node8"><a xlink:href="mxm__std_8F90.html#a731c214c1d2a3075c7d2a7ff7342690b" target="_top" xlink:title="mxmur3_15">
<polygon fill="white" stroke="black" points="89,-342.5 89,-361.5 160,-361.5 160,-342.5 89,-342.5"/>
<text text-anchor="middle" x="124.5" y="-349.5" font-family="Helvetica,sans-Serif" font-size="10.00">mxmur3_15</text>
</a>
</g>
</g>
<!-- Node1&#45;&gt;Node8 -->
<g id="edge7" class="edge"><title>Node1&#45;&gt;Node8</title>
<path fill="none" stroke="midnightblue" d="M42.5365,-304.583C54.9099,-312.397 72.9585,-323.635 89,-333 91.4912,-334.454 94.0983,-335.945 96.7154,-337.422"/>
<polygon fill="midnightblue" stroke="midnightblue" points="95.0577,-340.504 105.498,-342.308 98.4609,-334.387 95.0577,-340.504"/>
</g>
<!-- Node9 -->
<g id="node9" class="node"><title>Node9</title>
<g id="a_node9"><a xlink:href="mxm__std_8F90.html#a3431f62dcd7faeee329ad3b5ecdce522" target="_top" xlink:title="mxmur3_16">
<polygon fill="white" stroke="black" points="89,-304.5 89,-323.5 160,-323.5 160,-304.5 89,-304.5"/>
<text text-anchor="middle" x="124.5" y="-311.5" font-family="Helvetica,sans-Serif" font-size="10.00">mxmur3_16</text>
</a>
</g>
</g>
<!-- Node1&#45;&gt;Node9 -->
<g id="edge8" class="edge"><title>Node1&#45;&gt;Node9</title>
<path fill="none" stroke="midnightblue" d="M53.2262,-300.092C61.0504,-301.64 69.8891,-303.39 78.5917,-305.112"/>
<polygon fill="midnightblue" stroke="midnightblue" points="78.1871,-308.6 88.6764,-307.108 79.5462,-301.733 78.1871,-308.6"/>
</g>
<!-- Node10 -->
<g id="node10" class="node"><title>Node10</title>
<g id="a_node10"><a xlink:href="mxm__std_8F90.html#acf312a3e488f468c8a76ee9d49b4ef25" target="_top" xlink:title="mxmur3_2">
<polygon fill="white" stroke="black" points="92,-266.5 92,-285.5 157,-285.5 157,-266.5 92,-266.5"/>
<text text-anchor="middle" x="124.5" y="-273.5" font-family="Helvetica,sans-Serif" font-size="10.00">mxmur3_2</text>
</a>
</g>
</g>
<!-- Node1&#45;&gt;Node10 -->
<g id="edge9" class="edge"><title>Node1&#45;&gt;Node10</title>
<path fill="none" stroke="midnightblue" d="M53.2262,-289.908C62.0475,-288.162 72.1584,-286.161 81.9099,-284.231"/>
<polygon fill="midnightblue" stroke="midnightblue" points="82.7426,-287.635 91.8728,-282.26 81.3835,-280.768 82.7426,-287.635"/>
</g>
<!-- Node11 -->
<g id="node11" class="node"><title>Node11</title>
<g id="a_node11"><a xlink:href="mxm__std_8F90.html#af4d38a4d74d28a016530d259e03922b5" target="_top" xlink:title="mxmur3_3">
<polygon fill="white" stroke="black" points="92,-228.5 92,-247.5 157,-247.5 157,-228.5 92,-228.5"/>
<text text-anchor="middle" x="124.5" y="-235.5" font-family="Helvetica,sans-Serif" font-size="10.00">mxmur3_3</text>
</a>
</g>
</g>
<!-- Node1&#45;&gt;Node11 -->
<g id="edge10" class="edge"><title>Node1&#45;&gt;Node11</title>
<path fill="none" stroke="midnightblue" d="M42.5365,-285.417C54.9099,-277.603 72.9585,-266.365 89,-257 91.4912,-255.546 94.0983,-254.055 96.7154,-252.578"/>
<polygon fill="midnightblue" stroke="midnightblue" points="98.4609,-255.613 105.498,-247.692 95.0577,-249.496 98.4609,-255.613"/>
</g>
<!-- Node12 -->
<g id="node12" class="node"><title>Node12</title>
<g id="a_node12"><a xlink:href="mxm__std_8F90.html#afc850b5797b966eca56295d966c463a6" target="_top" xlink:title="mxmur3_4">
<polygon fill="white" stroke="black" points="92,-190.5 92,-209.5 157,-209.5 157,-190.5 92,-190.5"/>
<text text-anchor="middle" x="124.5" y="-197.5" font-family="Helvetica,sans-Serif" font-size="10.00">mxmur3_4</text>
</a>
</g>
</g>
<!-- Node1&#45;&gt;Node12 -->
<g id="edge11" class="edge"><title>Node1&#45;&gt;Node12</title>
<path fill="none" stroke="midnightblue" d="M33.6748,-285.103C43.7581,-269.538 65.0517,-239.046 89,-219 90.7041,-217.574 92.5315,-216.203 94.4236,-214.897"/>
<polygon fill="midnightblue" stroke="midnightblue" points="96.2926,-217.857 102.95,-209.615 92.6057,-211.906 96.2926,-217.857"/>
</g>
<!-- Node13 -->
<g id="node13" class="node"><title>Node13</title>
<g id="a_node13"><a xlink:href="mxm__std_8F90.html#a871208ec4d2ea117951f9c1cda1a0fc2" target="_top" xlink:title="mxmur3_5">
<polygon fill="white" stroke="black" points="92,-152.5 92,-171.5 157,-171.5 157,-152.5 92,-152.5"/>
<text text-anchor="middle" x="124.5" y="-159.5" font-family="Helvetica,sans-Serif" font-size="10.00">mxmur3_5</text>
</a>
</g>
</g>
<!-- Node1&#45;&gt;Node13 -->
<g id="edge12" class="edge"><title>Node1&#45;&gt;Node13</title>
<path fill="none" stroke="midnightblue" d="M30.6032,-285.288C37.8077,-264.038 57.4937,-212.781 89,-181 90.2246,-179.765 91.5464,-178.587 92.9341,-177.469"/>
<polygon fill="midnightblue" stroke="midnightblue" points="95.0937,-180.232 101.383,-171.706 91.1496,-174.449 95.0937,-180.232"/>
</g>
<!-- Node14 -->
<g id="node14" class="node"><title>Node14</title>
<g id="a_node14"><a xlink:href="mxm__std_8F90.html#a78c1ddedaf2ed5e08583b5a65463f636" target="_top" xlink:title="mxmur3_6">
<polygon fill="white" stroke="black" points="92,-114.5 92,-133.5 157,-133.5 157,-114.5 92,-114.5"/>
<text text-anchor="middle" x="124.5" y="-121.5" font-family="Helvetica,sans-Serif" font-size="10.00">mxmur3_6</text>
</a>
</g>
</g>
<!-- Node1&#45;&gt;Node14 -->
<g id="edge13" class="edge"><title>Node1&#45;&gt;Node14</title>
<path fill="none" stroke="midnightblue" d="M29.0975,-285.269C33.8151,-259.252 49.8824,-187.07 89,-143 90.0213,-141.849 91.1296,-140.754 92.3017,-139.714"/>
<polygon fill="midnightblue" stroke="midnightblue" points="94.6634,-142.325 100.717,-133.63 90.5624,-136.652 94.6634,-142.325"/>
</g>
<!-- Node15 -->
<g id="node15" class="node"><title>Node15</title>
<g id="a_node15"><a xlink:href="mxm__std_8F90.html#a29e94fbac1a4f7f1147989f32f112b10" target="_top" xlink:title="mxmur3_7">
<polygon fill="white" stroke="black" points="92,-76.5 92,-95.5 157,-95.5 157,-76.5 92,-76.5"/>
<text text-anchor="middle" x="124.5" y="-83.5" font-family="Helvetica,sans-Serif" font-size="10.00">mxmur3_7</text>
</a>
</g>
</g>
<!-- Node1&#45;&gt;Node15 -->
<g id="edge14" class="edge"><title>Node1&#45;&gt;Node15</title>
<path fill="none" stroke="midnightblue" d="M28.1783,-285.114C30.7365,-254.783 42.2004,-161.678 89,-105 89.9524,-103.847 90.9939,-102.752 92.1024,-101.713"/>
<polygon fill="midnightblue" stroke="midnightblue" points="94.2574,-104.472 100.154,-95.6699 90.0554,-98.8736 94.2574,-104.472"/>
</g>
<!-- Node16 -->
<g id="node16" class="node"><title>Node16</title>
<g id="a_node16"><a xlink:href="mxm__std_8F90.html#ae482aa0610b5b180d79ff40fce31cacc" target="_top" xlink:title="mxmur3_8">
<polygon fill="white" stroke="black" points="92,-38.5 92,-57.5 157,-57.5 157,-38.5 92,-38.5"/>
<text text-anchor="middle" x="124.5" y="-45.5" font-family="Helvetica,sans-Serif" font-size="10.00">mxmur3_8</text>
</a>
</g>
</g>
<!-- Node1&#45;&gt;Node16 -->
<g id="edge15" class="edge"><title>Node1&#45;&gt;Node16</title>
<path fill="none" stroke="midnightblue" d="M27.5307,-285.143C28.1316,-251.086 34.3258,-136.662 89,-67 89.9235,-65.8233 90.9411,-64.7091 92.0299,-63.6551"/>
<polygon fill="midnightblue" stroke="midnightblue" points="94.1919,-66.4079 100.008,-57.5521 89.9387,-60.8481 94.1919,-66.4079"/>
</g>
<!-- Node17 -->
<g id="node17" class="node"><title>Node17</title>
<g id="a_node17"><a xlink:href="mxm__std_8F90.html#a486bb4534fb4b7451af582bc38226c00" target="_top" xlink:title="mxmur3_9">
<polygon fill="white" stroke="black" points="92,-0.5 92,-19.5 157,-19.5 157,-0.5 92,-0.5"/>
<text text-anchor="middle" x="124.5" y="-7.5" font-family="Helvetica,sans-Serif" font-size="10.00">mxmur3_9</text>
</a>
</g>
</g>
<!-- Node1&#45;&gt;Node17 -->
<g id="edge16" class="edge"><title>Node1&#45;&gt;Node17</title>
<path fill="none" stroke="midnightblue" d="M27.0679,-285.381C25.8961,-248.222 26.2598,-111.994 89,-29 89.7886,-27.9568 90.6519,-26.9634 91.5744,-26.0183"/>
<polygon fill="midnightblue" stroke="midnightblue" points="93.8905,-28.6485 99.546,-19.6894 89.5379,-23.1662 93.8905,-28.6485"/>
</g>
</g>
</svg>
        <g id="navigator" transform="translate(0 0)" fill="#404254">
                <rect fill="#f2f5e9" fill-opacity="0.5" stroke="#606060" stroke-width=".5" x="0" y="0" width="60" height="60"/>
                <use id="zoomplus" xlink:href="#zoomPlus" x="17" y="9" onmousedown="handleZoom(evt,'in')"/>
                <use id="zoomminus" xlink:href="#zoomMin" x="42" y="9" onmousedown="handleZoom(evt,'out')"/>
                <use id="reset" xlink:href="#resetDef" x="30" y="36" onmousedown="handleReset()"/>
                <g id="arrowUp" xlink:href="#dirArrow" transform="translate(30 24)" onmousedown="handlePan(0,-1)">
                  <use xlink:href="#rim" fill="#404040">
                        <set attributeName="fill" to="#808080" begin="arrowUp.mouseover" end="arrowUp.mouseout"/>
                  </use>
                  <path fill="none" stroke="white" stroke-width="1.5" d="M0,-3.0v7 M-2.5,-0.5L0,-3.0L2.5,-0.5"/>
                </g>
                <g id="arrowRight" xlink:href="#dirArrow" transform="rotate(90) translate(36 -43)" onmousedown="handlePan(1,0)">
                  <use xlink:href="#rim" fill="#404040">
                        <set attributeName="fill" to="#808080" begin="arrowRight.mouseover" end="arrowRight.mouseout"/>
                  </use>
                  <path fill="none" stroke="white" stroke-width="1.5" d="M0,-3.0v7 M-2.5,-0.5L0,-3.0L2.5,-0.5"/>
                </g>
                <g id="arrowDown" xlink:href="#dirArrow" transform="rotate(180) translate(-30 -48)" onmousedown="handlePan(0,1)">
                  <use xlink:href="#rim" fill="#404040">
                        <set attributeName="fill" to="#808080" begin="arrowDown.mouseover" end="arrowDown.mouseout"/>
                  </use>
                  <path fill="none" stroke="white" stroke-width="1.5" d="M0,-3.0v7 M-2.5,-0.5L0,-3.0L2.5,-0.5"/>
                </g>
                <g id="arrowLeft" xlink:href="#dirArrow" transform="rotate(270) translate(-36 17)" onmousedown="handlePan(-1,0)">
                  <use xlink:href="#rim" fill="#404040">
                        <set attributeName="fill" to="#808080" begin="arrowLeft.mouseover" end="arrowLeft.mouseout"/>
                  </use>
                  <path fill="none" stroke="white" stroke-width="1.5" d="M0,-3.0v7 M-2.5,-0.5L0,-3.0L2.5,-0.5"/>
                </g>
        </g>
        <svg viewBox="0 0 15 15" width="100%" height="30px" preserveAspectRatio="xMaxYMin meet">
         <g id="arrow_out" transform="scale(0.3 0.3)">
          <a xlink:href="mxm__std_8F90_a28f250187cf537e8be55e6217a58ee25_cgraph_org.svg" target="_base">
           <rect id="button" ry="5" rx="5" y="6" x="6" height="38" width="38"
                fill="#f2f5e9" fill-opacity="0.5" stroke="#606060" stroke-width="1.0"/>
           <path id="arrow"
             d="M 11.500037,31.436501 C 11.940474,20.09759 22.043105,11.32322 32.158766,21.979434 L 37.068811,17.246167 C 37.068811,17.246167 37.088388,32 37.088388,32 L 22.160133,31.978069 C 22.160133,31.978069 26.997745,27.140456 26.997745,27.140456 C 18.528582,18.264221 13.291696,25.230495 11.500037,31.436501 z"
             style="fill:#404040;"/>
          </a>
         </g>
        </svg>
</svg>
