<?xml version="1.0" encoding="UTF-8" standalone="no"?>
<!DOCTYPE svg PUBLIC "-//W3C//DTD SVG 1.1//EN"
 "http://www.w3.org/Graphics/SVG/1.1/DTD/svg11.dtd">
<!-- Generated by graphviz version 2.38.0 (20140413.2041)
 -->
<!-- Title: mxm44_0 Pages: 1 -->
<svg width="839pt" height="1327pt"
 viewBox="0.00 0.00 839.00 1327.00" xmlns="http://www.w3.org/2000/svg" xmlns:xlink="http://www.w3.org/1999/xlink">
<g id="graph0" class="graph" transform="scale(1 1) rotate(0) translate(4 1323)">
<title>mxm44_0</title>
<polygon fill="white" stroke="none" points="-4,4 -4,-1323 835,-1323 835,4 -4,4"/>
<!-- Node1 -->
<g id="node1" class="node"><title>Node1</title>
<polygon fill="#bfbfbf" stroke="black" points="0,-463.5 0,-482.5 62,-482.5 62,-463.5 0,-463.5"/>
<text text-anchor="middle" x="31" y="-470.5" font-family="Helvetica,sans-Serif" font-size="10.00">mxm44_0</text>
</g>
<!-- Node2 -->
<g id="node2" class="node"><title>Node2</title>
<g id="a_node2"><a xlink:href="mxm__wrapper_8F90.html#ab9ec2260a10061af6ce1c52f3c8a41da" target="_top" xlink:title="Compute matrix&#45;matrix product C = A*B. ">
<polygon fill="white" stroke="black" points="181,-463.5 181,-482.5 219,-482.5 219,-463.5 181,-463.5"/>
<text text-anchor="middle" x="200" y="-470.5" font-family="Helvetica,sans-Serif" font-size="10.00">mxm</text>
</a>
</g>
</g>
<!-- Node1&#45;&gt;Node2 -->
<g id="edge1" class="edge"><title>Node1&#45;&gt;Node2</title>
<path fill="none" stroke="midnightblue" d="M72.4831,-473C107.004,-473 155.019,-473 180.84,-473"/>
<polygon fill="midnightblue" stroke="midnightblue" points="72.2425,-469.5 62.2424,-473 72.2424,-476.5 72.2425,-469.5"/>
</g>
<!-- Node50 -->
<g id="node50" class="node"><title>Node50</title>
<g id="a_node50"><a xlink:href="mxm__std_8F90.html#aa9e8685c4a72f18fb5d1ee88ed17a3d6" target="_top" xlink:title="unrolled loop version ">
<polygon fill="white" stroke="black" points="98,-444.5 98,-463.5 145,-463.5 145,-444.5 98,-444.5"/>
<text text-anchor="middle" x="121.5" y="-451.5" font-family="Helvetica,sans-Serif" font-size="10.00">mxmf2</text>
</a>
</g>
</g>
<!-- Node1&#45;&gt;Node50 -->
<g id="edge63" class="edge"><title>Node1&#45;&gt;Node50</title>
<path fill="none" stroke="midnightblue" d="M72.4963,-464.306C81.194,-462.439 90.0866,-460.529 97.8168,-458.87"/>
<polygon fill="midnightblue" stroke="midnightblue" points="71.4992,-460.94 62.4567,-466.461 72.9686,-467.784 71.4992,-460.94"/>
</g>
<!-- Node3 -->
<g id="node3" class="node"><title>Node3</title>
<g id="a_node3"><a xlink:href="coef_8F90.html#a0d49b1aee56670901cd4cdfde7245e6c" target="_top" xlink:title="Generate derivative and interpolation operators. GENERATE. ">
<polygon fill="white" stroke="black" points="289.5,-1280.5 289.5,-1299.5 336.5,-1299.5 336.5,-1280.5 289.5,-1280.5"/>
<text text-anchor="middle" x="313" y="-1287.5" font-family="Helvetica,sans-Serif" font-size="10.00">genwz</text>
</a>
</g>
</g>
<!-- Node2&#45;&gt;Node3 -->
<g id="edge2" class="edge"><title>Node2&#45;&gt;Node3</title>
<path fill="none" stroke="midnightblue" d="M201.337,-492.877C203.425,-607.807 215.804,-1184.49 255,-1252 262.643,-1265.17 276.893,-1274.67 289.233,-1280.87"/>
<polygon fill="midnightblue" stroke="midnightblue" points="204.834,-492.645 201.158,-482.709 197.835,-492.769 204.834,-492.645"/>
</g>
<!-- Node5 -->
<g id="node5" class="node"><title>Node5</title>
<g id="a_node5"><a xlink:href="coef_8F90.html#a82cf1663c9a821049d0aad836343591a" target="_top" xlink:title="Compute global&#45;to&#45;local derivatives on mesh 1. ">
<polygon fill="white" stroke="black" points="291,-1223.5 291,-1242.5 335,-1242.5 335,-1223.5 291,-1223.5"/>
<text text-anchor="middle" x="313" y="-1230.5" font-family="Helvetica,sans-Serif" font-size="10.00">xyzrst</text>
</a>
</g>
</g>
<!-- Node2&#45;&gt;Node5 -->
<g id="edge4" class="edge"><title>Node2&#45;&gt;Node5</title>
<path fill="none" stroke="midnightblue" d="M200.89,-492.81C200.583,-592.599 202.214,-1040.39 255,-1167 264.788,-1190.48 286.277,-1211.56 299.894,-1223.29"/>
<polygon fill="midnightblue" stroke="midnightblue" points="204.391,-492.65 200.932,-482.636 197.391,-492.621 204.391,-492.65"/>
</g>
<!-- Node8 -->
<g id="node8" class="node"><title>Node8</title>
<g id="a_node8"><a xlink:href="fasts_8F90.html#a1dc2171702fabe2e09c87421de1f0e5d" target="_top" xlink:title="Tensor product application of v = (C x B x A) u . NOTE – the transpose of B &amp; C must be input...">
<polygon fill="white" stroke="black" points="289.5,-1138.5 289.5,-1157.5 336.5,-1157.5 336.5,-1138.5 289.5,-1138.5"/>
<text text-anchor="middle" x="313" y="-1145.5" font-family="Helvetica,sans-Serif" font-size="10.00">tensr3</text>
</a>
</g>
</g>
<!-- Node2&#45;&gt;Node8 -->
<g id="edge7" class="edge"><title>Node2&#45;&gt;Node8</title>
<path fill="none" stroke="midnightblue" d="M201.932,-492.787C206.179,-579.82 224.808,-928.925 255,-1034 266.855,-1075.26 293.476,-1119.45 305.676,-1138.44"/>
<polygon fill="midnightblue" stroke="midnightblue" points="205.423,-492.515 201.447,-482.695 198.431,-492.851 205.423,-492.515"/>
</g>
<!-- Node10 -->
<g id="node10" class="node"><title>Node10</title>
<g id="a_node10"><a xlink:href="hmholtz_8F90.html#aa576b5bd623cce50fd6323db12ba5376" target="_top" xlink:title="Compute the (Helmholtz) matrix&#45;vector product, AU = helm1*[A]u + helm2*[B]u, for NEL elements...">
<polygon fill="white" stroke="black" points="288,-919.5 288,-938.5 338,-938.5 338,-919.5 288,-919.5"/>
<text text-anchor="middle" x="313" y="-926.5" font-family="Helvetica,sans-Serif" font-size="10.00">axhelm</text>
</a>
</g>
</g>
<!-- Node2&#45;&gt;Node10 -->
<g id="edge9" class="edge"><title>Node2&#45;&gt;Node10</title>
<path fill="none" stroke="midnightblue" d="M205.079,-492.547C213.746,-533.781 234.854,-632.65 255,-715 274.369,-794.175 300.748,-888.976 309.244,-919.225"/>
<polygon fill="midnightblue" stroke="midnightblue" points="208.496,-491.786 203.019,-482.716 201.644,-493.221 208.496,-491.786"/>
</g>
<!-- Node15 -->
<g id="node15" class="node"><title>Node15</title>
<g id="a_node15"><a xlink:href="plan4_8F90.html#aabf6317e90fc459c525a5716eb31692a" target="_top" xlink:title="Compute start residual/right&#45;hand&#45;side in the pressure. ">
<polygon fill="white" stroke="black" points="596,-653.5 596,-672.5 650,-672.5 650,-653.5 596,-653.5"/>
<text text-anchor="middle" x="623" y="-660.5" font-family="Helvetica,sans-Serif" font-size="10.00">crespsp</text>
</a>
</g>
</g>
<!-- Node2&#45;&gt;Node15 -->
<g id="edge60" class="edge"><title>Node2&#45;&gt;Node15</title>
<path fill="none" stroke="midnightblue" d="M203.064,-492.698C208.484,-540.156 224.827,-658.632 255,-682 307.964,-723.019 520.993,-683.956 595.84,-668.593"/>
<polygon fill="midnightblue" stroke="midnightblue" points="206.541,-492.297 201.97,-482.739 199.583,-493.062 206.541,-492.297"/>
</g>
<!-- Node25 -->
<g id="node25" class="node"><title>Node25</title>
<g id="a_node25"><a xlink:href="hmholtz_8F90.html#ae883228509f56e1f673660daca7a909b" target="_top" xlink:title="Generate diagonal preconditioner for the Helmholtz operator. ">
<polygon fill="white" stroke="black" points="287,-1005.5 287,-1024.5 339,-1024.5 339,-1005.5 287,-1005.5"/>
<text text-anchor="middle" x="313" y="-1012.5" font-family="Helvetica,sans-Serif" font-size="10.00">setprec</text>
</a>
</g>
</g>
<!-- Node2&#45;&gt;Node25 -->
<g id="edge25" class="edge"><title>Node2&#45;&gt;Node25</title>
<path fill="none" stroke="midnightblue" d="M201.721,-492.866C204.826,-571.927 218.58,-863.989 255,-948 265.326,-971.82 287.074,-993.55 300.52,-1005.46"/>
<polygon fill="midnightblue" stroke="midnightblue" points="205.216,-492.657 201.339,-482.797 198.221,-492.923 205.216,-492.657"/>
</g>
<!-- Node26 -->
<g id="node26" class="node"><title>Node26</title>
<g id="a_node26"><a xlink:href="classhsmg__routines.html#a8faa72af71f6760fa31785fba839d7d1" target="_top" xlink:title="computes: v = [C (x) B (x) A] u . ">
<polygon fill="white" stroke="black" points="255,-338 255,-368 371,-368 371,-338 255,-338"/>
<text text-anchor="start" x="263" y="-356" font-family="Helvetica,sans-Serif" font-size="10.00">hsmg_routines::hsmg</text>
<text text-anchor="middle" x="313" y="-345" font-family="Helvetica,sans-Serif" font-size="10.00">_tnsr3d</text>
</a>
</g>
</g>
<!-- Node2&#45;&gt;Node26 -->
<g id="edge27" class="edge"><title>Node2&#45;&gt;Node26</title>
<path fill="none" stroke="midnightblue" d="M207.662,-453.835C215.855,-432.755 231.614,-399.081 255,-378 259.174,-374.238 264.003,-370.972 269.051,-368.157"/>
<polygon fill="midnightblue" stroke="midnightblue" points="204.341,-452.725 204.158,-463.319 210.907,-455.152 204.341,-452.725"/>
</g>
<!-- Node28 -->
<g id="node28" class="node"><title>Node28</title>
<g id="a_node28"><a xlink:href="classhsmg__routines.html#a133c25971a5c05bc546181212bcb1db9" target="_top" xlink:title="computes v = [C (x) B (x) A] u ">
<polygon fill="white" stroke="black" points="255,-289 255,-319 371,-319 371,-289 255,-289"/>
<text text-anchor="start" x="263" y="-307" font-family="Helvetica,sans-Serif" font-size="10.00">hsmg_routines::hsmg</text>
<text text-anchor="middle" x="313" y="-296" font-family="Helvetica,sans-Serif" font-size="10.00">_tnsr3d_el</text>
</a>
</g>
</g>
<!-- Node2&#45;&gt;Node28 -->
<g id="edge29" class="edge"><title>Node2&#45;&gt;Node28</title>
<path fill="none" stroke="midnightblue" d="M203.395,-452.839C208.05,-422.116 221.04,-363.418 255,-328 258.27,-324.59 262.099,-321.643 266.2,-319.101"/>
<polygon fill="midnightblue" stroke="midnightblue" points="199.874,-452.757 201.992,-463.138 206.81,-453.702 199.874,-452.757"/>
</g>
<!-- Node29 -->
<g id="node29" class="node"><title>Node29</title>
<g id="a_node29"><a xlink:href="classhsmg__routines.html#a2b034ad4fc2abfbfb9a1667a1d598789" target="_top" xlink:title="clobbers r ">
<polygon fill="white" stroke="black" points="255,-240 255,-270 371,-270 371,-240 255,-240"/>
<text text-anchor="start" x="263" y="-258" font-family="Helvetica,sans-Serif" font-size="10.00">hsmg_routines::hsmg</text>
<text text-anchor="middle" x="313" y="-247" font-family="Helvetica,sans-Serif" font-size="10.00">_do_fast</text>
</a>
</g>
</g>
<!-- Node2&#45;&gt;Node29 -->
<g id="edge30" class="edge"><title>Node2&#45;&gt;Node29</title>
<path fill="none" stroke="midnightblue" d="M201.1,-452.756C202.36,-414.219 210.406,-329.653 255,-279 257.98,-275.615 261.516,-272.695 265.346,-270.178"/>
<polygon fill="midnightblue" stroke="midnightblue" points="197.593,-453.082 200.894,-463.149 204.592,-453.221 197.593,-453.082"/>
</g>
<!-- Node31 -->
<g id="node31" class="node"><title>Node31</title>
<g id="a_node31"><a xlink:href="classhsmg__routines.html#ab5b06304a7c7e85094a7b74fb9c5efed" target="_top" xlink:title="compute v = [C (x) B (x) A] v (in&#45;place) ">
<polygon fill="white" stroke="black" points="255,-191 255,-221 371,-221 371,-191 255,-191"/>
<text text-anchor="start" x="263" y="-209" font-family="Helvetica,sans-Serif" font-size="10.00">hsmg_routines::hsmg</text>
<text text-anchor="middle" x="313" y="-198" font-family="Helvetica,sans-Serif" font-size="10.00">_tnsr1_3d</text>
</a>
</g>
</g>
<!-- Node2&#45;&gt;Node31 -->
<g id="edge32" class="edge"><title>Node2&#45;&gt;Node31</title>
<path fill="none" stroke="midnightblue" d="M203.078,-453.018C208.826,-401.216 226.424,-264.24 255,-230 257.89,-226.538 261.365,-223.565 265.157,-221.016"/>
<polygon fill="midnightblue" stroke="midnightblue" points="199.57,-452.911 201.978,-463.229 206.529,-453.661 199.57,-452.911"/>
</g>
<!-- Node33 -->
<g id="node33" class="node"><title>Node33</title>
<g id="a_node33"><a xlink:href="ic_8F90.html#a170de261200bce1070ca719caaf56df0" target="_top" xlink:title="Interpolate Y(NXR,NYR,NZR,NEL) to X(NX1,NY1,NZ1,NEL) (assumes that NXR=NYR=NZR, or NXR=NYR...">
<polygon fill="white" stroke="black" points="284,-152.5 284,-171.5 342,-171.5 342,-152.5 284,-152.5"/>
<text text-anchor="middle" x="313" y="-159.5" font-family="Helvetica,sans-Serif" font-size="10.00">mapab4r</text>
</a>
</g>
</g>
<!-- Node2&#45;&gt;Node33 -->
<g id="edge34" class="edge"><title>Node2&#45;&gt;Node33</title>
<path fill="none" stroke="midnightblue" d="M202.089,-453.248C205.714,-394.455 219.233,-222.114 255,-181 262.326,-172.579 273.485,-167.878 283.994,-165.259"/>
<polygon fill="midnightblue" stroke="midnightblue" points="198.584,-453.233 201.492,-463.421 205.572,-453.643 198.584,-453.233"/>
</g>
<!-- Node35 -->
<g id="node35" class="node"><title>Node35</title>
<g id="a_node35"><a xlink:href="navier1_8F90.html#af9bcf25d01182572549eaca275415fd9" target="_top" xlink:title="Compute OUTi = Di*INP, i=1,2,3. the gradient of the scalar field INP. Note: OUTi is defined on the pr...">
<polygon fill="white" stroke="black" points="598,-558.5 598,-577.5 648,-577.5 648,-558.5 598,-558.5"/>
<text text-anchor="middle" x="623" y="-565.5" font-family="Helvetica,sans-Serif" font-size="10.00">opgrad</text>
</a>
</g>
</g>
<!-- Node2&#45;&gt;Node35 -->
<g id="edge36" class="edge"><title>Node2&#45;&gt;Node35</title>
<path fill="none" stroke="midnightblue" d="M203.218,-492.438C207.592,-520.769 220.16,-572.67 255,-597 361.452,-671.339 420.714,-636.167 547,-606 569.858,-600.54 593.629,-586.918 608.124,-577.559"/>
<polygon fill="midnightblue" stroke="midnightblue" points="206.686,-491.962 201.877,-482.522 199.749,-492.901 206.686,-491.962"/>
</g>
<!-- Node36 -->
<g id="node36" class="node"><title>Node36</title>
<g id="a_node36"><a xlink:href="navier1_8F90.html#a0411bdb65f6b5cb057603cea2b6b963e" target="_top" xlink:title="Compute DT*X (entire field) ">
<polygon fill="white" stroke="black" points="294.5,-653.5 294.5,-672.5 331.5,-672.5 331.5,-653.5 294.5,-653.5"/>
<text text-anchor="middle" x="313" y="-660.5" font-family="Helvetica,sans-Serif" font-size="10.00">cdtp</text>
</a>
</g>
</g>
<!-- Node2&#45;&gt;Node36 -->
<g id="edge38" class="edge"><title>Node2&#45;&gt;Node36</title>
<path fill="none" stroke="midnightblue" d="M202.211,-492.672C205.314,-526.693 216.302,-596.906 255,-639 265.319,-650.224 281.728,-656.381 294.296,-659.638"/>
<polygon fill="midnightblue" stroke="midnightblue" points="205.694,-492.315 201.432,-482.615 198.714,-492.855 205.694,-492.315"/>
</g>
<!-- Node37 -->
<g id="node37" class="node"><title>Node37</title>
<g id="a_node37"><a xlink:href="navier1_8F90.html#ae2a342d8b6189bd500acbcc1cac1c757" target="_top" xlink:title="Compute D*X . X : input variable, defined on M1 DX : output variable, defined on M2 (note: D is recta...">
<polygon fill="white" stroke="black" points="292.5,-501.5 292.5,-520.5 333.5,-520.5 333.5,-501.5 292.5,-501.5"/>
<text text-anchor="middle" x="313" y="-508.5" font-family="Helvetica,sans-Serif" font-size="10.00">multd</text>
</a>
</g>
</g>
<!-- Node2&#45;&gt;Node37 -->
<g id="edge40" class="edge"><title>Node2&#45;&gt;Node37</title>
<path fill="none" stroke="midnightblue" d="M228.986,-482.581C248.676,-489.321 274.551,-498.179 292.143,-504.202"/>
<polygon fill="midnightblue" stroke="midnightblue" points="229.924,-479.203 219.329,-479.275 227.657,-485.825 229.924,-479.203"/>
</g>
<!-- Node38 -->
<g id="node38" class="node"><title>Node38</title>
<g id="a_node38"><a xlink:href="navier1_8F90.html#a58af49abaf1ee0cc07be356ad2721d90" target="_top" xlink:title="Compute OUTFLD = SUMi Di*INPi. the divergence of the vector field (INPX,INPY,INPZ) ...">
<polygon fill="white" stroke="black" points="456,-501.5 456,-520.5 498,-520.5 498,-501.5 456,-501.5"/>
<text text-anchor="middle" x="477" y="-508.5" font-family="Helvetica,sans-Serif" font-size="10.00">opdiv</text>
</a>
</g>
</g>
<!-- Node2&#45;&gt;Node38 -->
<g id="edge47" class="edge"><title>Node2&#45;&gt;Node38</title>
<path fill="none" stroke="midnightblue" d="M229.237,-475.565C263.028,-478.772 321.283,-484.732 371,-492 400.695,-496.341 434.855,-502.797 455.937,-506.952"/>
<polygon fill="midnightblue" stroke="midnightblue" points="229.449,-472.07 219.167,-474.623 228.797,-479.04 229.449,-472.07"/>
</g>
<!-- Node39 -->
<g id="node39" class="node"><title>Node39</title>
<g id="a_node39"><a xlink:href="navier1_8F90.html#aee3ef7096c2b505346f996daf6cf6cd3" target="_top" xlink:title="Compute some derviatives? DU &#45; dU/dx or dU/dy or dU/dz U &#45; a field variable defined on mesh 1 RM1 &#45; d...">
<polygon fill="white" stroke="black" points="288,-539.5 288,-558.5 338,-558.5 338,-539.5 288,-539.5"/>
<text text-anchor="middle" x="313" y="-546.5" font-family="Helvetica,sans-Serif" font-size="10.00">dudxyz</text>
</a>
</g>
</g>
<!-- Node2&#45;&gt;Node39 -->
<g id="edge44" class="edge"><title>Node2&#45;&gt;Node39</title>
<path fill="none" stroke="midnightblue" d="M214.007,-490.823C223.975,-503.346 238.745,-519.648 255,-530 264.942,-536.332 277.213,-540.776 287.82,-543.765"/>
<polygon fill="midnightblue" stroke="midnightblue" points="216.776,-488.683 207.914,-482.876 211.221,-492.942 216.776,-488.683"/>
</g>
<!-- Node40 -->
<g id="node40" class="node"><title>Node40</title>
<g id="a_node40"><a xlink:href="plan4_8F90.html#a133b5c2a8f266ecb811b8baf380f0b76" target="_top" xlink:title="Compute curl of U. ">
<polygon fill="white" stroke="black" points="451.5,-577.5 451.5,-596.5 502.5,-596.5 502.5,-577.5 451.5,-577.5"/>
<text text-anchor="middle" x="477" y="-584.5" font-family="Helvetica,sans-Serif" font-size="10.00">op_curl</text>
</a>
</g>
</g>
<!-- Node2&#45;&gt;Node40 -->
<g id="edge61" class="edge"><title>Node2&#45;&gt;Node40</title>
<path fill="none" stroke="midnightblue" d="M206.081,-492.347C213.066,-514.716 227.957,-550.672 255,-568 316.445,-607.37 408.019,-598.865 451.448,-591.79"/>
<polygon fill="midnightblue" stroke="midnightblue" points="209.403,-491.237 203.268,-482.599 202.678,-493.178 209.403,-491.237"/>
</g>
<!-- Node41 -->
<g id="node41" class="node"><title>Node41</title>
<g id="a_node41"><a xlink:href="navier5_8F90.html#a519066c177fc94530849e83d3b9d4cfb" target="_top" xlink:title="filter vx,vy,vz, and p by simple interpolation ">
<polygon fill="white" stroke="black" points="452.5,-76.5 452.5,-95.5 501.5,-95.5 501.5,-76.5 452.5,-76.5"/>
<text text-anchor="middle" x="477" y="-83.5" font-family="Helvetica,sans-Serif" font-size="10.00">q_filter</text>
</a>
</g>
</g>
<!-- Node2&#45;&gt;Node41 -->
<g id="edge48" class="edge"><title>Node2&#45;&gt;Node41</title>
<path fill="none" stroke="midnightblue" d="M202.145,-452.91C206.812,-374.59 225.553,-92.7896 255,-67 312.94,-16.2562 415.236,-56.3963 457.219,-76.3857"/>
<polygon fill="midnightblue" stroke="midnightblue" points="198.628,-453.114 201.538,-463.301 205.616,-453.522 198.628,-453.114"/>
</g>
<!-- Node43 -->
<g id="node43" class="node"><title>Node43</title>
<g id="a_node43"><a xlink:href="navier5_8F90.html#aca88e3dda3f95f9b212d6e0bfa2b4543" target="_top" xlink:title="filterq">
<polygon fill="white" stroke="black" points="291.5,-114.5 291.5,-133.5 334.5,-133.5 334.5,-114.5 291.5,-114.5"/>
<text text-anchor="middle" x="313" y="-121.5" font-family="Helvetica,sans-Serif" font-size="10.00">filterq</text>
</a>
</g>
</g>
<!-- Node2&#45;&gt;Node43 -->
<g id="edge50" class="edge"><title>Node2&#45;&gt;Node43</title>
<path fill="none" stroke="midnightblue" d="M201.641,-452.815C204.077,-388.558 214.773,-190.218 255,-143 263.997,-132.439 279.031,-127.724 291.4,-125.63"/>
<polygon fill="midnightblue" stroke="midnightblue" points="198.13,-453.069 201.277,-463.186 205.126,-453.315 198.13,-453.069"/>
</g>
<!-- Node44 -->
<g id="node44" class="node"><title>Node44</title>
<g id="a_node44"><a xlink:href="navier5_8F90.html#ad24367e4a843f60b63a2205aef1ba551" target="_top" xlink:title="Output: ur,us,ut Input:u,N,e,D,Dt. ">
<polygon fill="white" stroke="black" points="277,-425.5 277,-444.5 349,-444.5 349,-425.5 277,-425.5"/>
<text text-anchor="middle" x="313" y="-432.5" font-family="Helvetica,sans-Serif" font-size="10.00">local_grad3</text>
</a>
</g>
</g>
<!-- Node2&#45;&gt;Node44 -->
<g id="edge52" class="edge"><title>Node2&#45;&gt;Node44</title>
<path fill="none" stroke="midnightblue" d="M229.149,-463.364C245.976,-457.603 267.277,-450.311 284.066,-444.563"/>
<polygon fill="midnightblue" stroke="midnightblue" points="227.657,-460.175 219.329,-466.725 229.924,-466.797 227.657,-460.175"/>
</g>
<!-- Node47 -->
<g id="node47" class="node"><title>Node47</title>
<g id="a_node47"><a xlink:href="navier5_8F90.html#a672cdc948324721df77f08e248963192" target="_top" xlink:title="This routing builds a 1D filter with a transfer function that looks like: ^ d_k | | | 1 |__________ v...">
<polygon fill="white" stroke="black" points="268.5,-76.5 268.5,-95.5 357.5,-95.5 357.5,-76.5 268.5,-76.5"/>
<text text-anchor="middle" x="313" y="-83.5" font-family="Helvetica,sans-Serif" font-size="10.00">build_new_filter</text>
</a>
</g>
</g>
<!-- Node2&#45;&gt;Node47 -->
<g id="edge56" class="edge"><title>Node2&#45;&gt;Node47</title>
<path fill="none" stroke="midnightblue" d="M201.254,-453.225C202.527,-384.684 210.114,-158.575 255,-105 258.617,-100.682 263.245,-97.3407 268.295,-94.7556"/>
<polygon fill="midnightblue" stroke="midnightblue" points="197.751,-453.42 201.091,-463.474 204.75,-453.531 197.751,-453.42"/>
</g>
<!-- Node48 -->
<g id="node48" class="node"><title>Node48</title>
<g id="a_node48"><a xlink:href="navier8_8F90.html#a5c307bcd1af1a0036e75f65db3d06e39" target="_top" xlink:title="Spectral interpolation from A to B via tensor products. ">
<polygon fill="white" stroke="red" points="283.5,-387.5 283.5,-406.5 342.5,-406.5 342.5,-387.5 283.5,-387.5"/>
<text text-anchor="middle" x="313" y="-394.5" font-family="Helvetica,sans-Serif" font-size="10.00">specmpn</text>
</a>
</g>
</g>
<!-- Node2&#45;&gt;Node48 -->
<g id="edge58" class="edge"><title>Node2&#45;&gt;Node48</title>
<path fill="none" stroke="midnightblue" d="M214.007,-455.177C223.975,-442.654 238.745,-426.352 255,-416 263.534,-410.565 273.785,-406.521 283.226,-403.594"/>
<polygon fill="midnightblue" stroke="midnightblue" points="211.221,-453.058 207.914,-463.124 216.776,-457.317 211.221,-453.058"/>
</g>
<!-- Node49 -->
<g id="node49" class="node"><title>Node49</title>
<g id="a_node49"><a xlink:href="prepost_8F90.html#a4e84ee920cd7a849909fd5fbceff97e0" target="_top" xlink:title="Store results for later postprocessing. ">
<polygon fill="white" stroke="red" points="273.5,-0.5 273.5,-19.5 352.5,-19.5 352.5,-0.5 273.5,-0.5"/>
<text text-anchor="middle" x="313" y="-7.5" font-family="Helvetica,sans-Serif" font-size="10.00">prepost_map</text>
</a>
</g>
</g>
<!-- Node2&#45;&gt;Node49 -->
<g id="edge62" class="edge"><title>Node2&#45;&gt;Node49</title>
<path fill="none" stroke="midnightblue" d="M200.881,-453.104C200.801,-376.463 204.125,-101.295 255,-34 259.792,-27.6619 266.576,-22.9826 273.8,-19.5327"/>
<polygon fill="midnightblue" stroke="midnightblue" points="197.381,-453.293 200.914,-463.282 204.381,-453.271 197.381,-453.293"/>
</g>
<!-- Node4 -->
<g id="node4" class="node"><title>Node4</title>
<g id="a_node4"><a xlink:href="drive1_8F90.html#a87bd37ae2c18426f28f35cc3f24e4355" target="_top" xlink:title="initialize nek ">
<polygon fill="white" stroke="red" points="450.5,-1299.5 450.5,-1318.5 503.5,-1318.5 503.5,-1299.5 450.5,-1299.5"/>
<text text-anchor="middle" x="477" y="-1306.5" font-family="Helvetica,sans-Serif" font-size="10.00">nek_init</text>
</a>
</g>
</g>
<!-- Node3&#45;&gt;Node4 -->
<g id="edge3" class="edge"><title>Node3&#45;&gt;Node4</title>
<path fill="none" stroke="midnightblue" d="M346.696,-1293.83C377.308,-1297.42 422.42,-1302.72 450.465,-1306.01"/>
<polygon fill="midnightblue" stroke="midnightblue" points="346.865,-1290.33 336.525,-1292.64 346.05,-1297.28 346.865,-1290.33"/>
</g>
<!-- Node6 -->
<g id="node6" class="node"><title>Node6</title>
<g id="a_node6"><a xlink:href="subs1_8F90.html#a5baa6d4c73be0e83acdc6c1f11eeae81" target="_top" xlink:title="compute max(U/dx) and max(U * dx) ">
<polygon fill="white" stroke="red" points="453.5,-1261.5 453.5,-1280.5 500.5,-1280.5 500.5,-1261.5 453.5,-1261.5"/>
<text text-anchor="middle" x="477" y="-1268.5" font-family="Helvetica,sans-Serif" font-size="10.00">cumax</text>
</a>
</g>
</g>
<!-- Node5&#45;&gt;Node6 -->
<g id="edge5" class="edge"><title>Node5&#45;&gt;Node6</title>
<path fill="none" stroke="midnightblue" d="M345.222,-1240.32C376.862,-1247.75 425.053,-1259.05 453.251,-1265.66"/>
<polygon fill="midnightblue" stroke="midnightblue" points="345.714,-1236.84 335.179,-1237.97 344.115,-1243.66 345.714,-1236.84"/>
</g>
<!-- Node7 -->
<g id="node7" class="node"><title>Node7</title>
<g id="a_node7"><a xlink:href="coef_8F90.html#ad01cc61ba84d488e68ca9e259c592465" target="_top" xlink:title="Routine to generate mapping data based on mesh 1 (Gauss&#45;Legendre Lobatto meshes). ...">
<polygon fill="white" stroke="red" points="447.5,-1223.5 447.5,-1242.5 506.5,-1242.5 506.5,-1223.5 447.5,-1223.5"/>
<text text-anchor="middle" x="477" y="-1230.5" font-family="Helvetica,sans-Serif" font-size="10.00">glmapm1</text>
</a>
</g>
</g>
<!-- Node5&#45;&gt;Node7 -->
<g id="edge6" class="edge"><title>Node5&#45;&gt;Node7</title>
<path fill="none" stroke="midnightblue" d="M345.366,-1233C374.927,-1233 418.843,-1233 447.448,-1233"/>
<polygon fill="midnightblue" stroke="midnightblue" points="345.179,-1229.5 335.179,-1233 345.179,-1236.5 345.179,-1229.5"/>
</g>
<!-- Node9 -->
<g id="node9" class="node"><title>Node9</title>
<g id="a_node9"><a xlink:href="genxyz_8F90.html#a16eca2a8f6bca6167dcfa98ff3eac09c" target="_top" xlink:title="Generate bi&#45; or trilinear mesh. ">
<polygon fill="white" stroke="red" points="455.5,-1185.5 455.5,-1204.5 498.5,-1204.5 498.5,-1185.5 455.5,-1185.5"/>
<text text-anchor="middle" x="477" y="-1192.5" font-family="Helvetica,sans-Serif" font-size="10.00">xyzlin</text>
</a>
</g>
</g>
<!-- Node8&#45;&gt;Node9 -->
<g id="edge8" class="edge"><title>Node8&#45;&gt;Node9</title>
<path fill="none" stroke="midnightblue" d="M346.166,-1157.89C364.05,-1163.34 386.725,-1170.16 407,-1176 423.237,-1180.68 441.696,-1185.75 455.433,-1189.47"/>
<polygon fill="midnightblue" stroke="midnightblue" points="347.093,-1154.51 336.507,-1154.94 345.048,-1161.21 347.093,-1154.51"/>
</g>
<!-- Node11 -->
<g id="node11" class="node"><title>Node11</title>
<g id="a_node11"><a xlink:href="gmres_8F90.html#abb09784e907975584f1a8f4dbf282a79" target="_top" xlink:title="w = A*x for pressure iteration ">
<polygon fill="white" stroke="red" points="462.5,-995.5 462.5,-1014.5 491.5,-1014.5 491.5,-995.5 462.5,-995.5"/>
<text text-anchor="middle" x="477" y="-1002.5" font-family="Helvetica,sans-Serif" font-size="10.00">ax</text>
</a>
</g>
</g>
<!-- Node10&#45;&gt;Node11 -->
<g id="edge10" class="edge"><title>Node10&#45;&gt;Node11</title>
<path fill="none" stroke="midnightblue" d="M335.084,-944.312C353.347,-956.978 380.872,-974.667 407,-986 425.466,-994.01 448.192,-999.491 462.392,-1002.44"/>
<polygon fill="midnightblue" stroke="midnightblue" points="337.098,-941.45 326.909,-938.547 333.064,-947.17 337.098,-941.45"/>
</g>
<!-- Node12 -->
<g id="node12" class="node"><title>Node12</title>
<g id="a_node12"><a xlink:href="conduct_8F90.html#a74a7f053381975ed36df8ea959f3aa01" target="_top" xlink:title="Solve the convection&#45;diffusion equation for passive scalar IPSCAL. ">
<polygon fill="white" stroke="red" points="453.5,-957.5 453.5,-976.5 500.5,-976.5 500.5,-957.5 453.5,-957.5"/>
<text text-anchor="middle" x="477" y="-964.5" font-family="Helvetica,sans-Serif" font-size="10.00">cdscal</text>
</a>
</g>
</g>
<!-- Node10&#45;&gt;Node12 -->
<g id="edge11" class="edge"><title>Node10&#45;&gt;Node12</title>
<path fill="none" stroke="midnightblue" d="M348.395,-937.068C380.072,-944.498 426.163,-955.31 453.413,-961.702"/>
<polygon fill="midnightblue" stroke="midnightblue" points="348.788,-933.565 338.253,-934.689 347.189,-940.38 348.788,-933.565"/>
</g>
<!-- Node13 -->
<g id="node13" class="node"><title>Node13</title>
<g id="a_node13"><a xlink:href="hmholtz_8F90.html#a8734f3cc2d37d6a2ccd1daa8db57513d" target="_top" xlink:title="Solve the Helmholtz equation, H*U = RHS, using preconditioned conjugate gradient iteration. Preconditioner: diag(H). ">
<polygon fill="white" stroke="red" points="457,-1147.5 457,-1166.5 497,-1166.5 497,-1147.5 457,-1147.5"/>
<text text-anchor="middle" x="477" y="-1154.5" font-family="Helvetica,sans-Serif" font-size="10.00">cggo</text>
</a>
</g>
</g>
<!-- Node10&#45;&gt;Node13 -->
<g id="edge12" class="edge"><title>Node10&#45;&gt;Node13</title>
<path fill="none" stroke="midnightblue" d="M332.251,-945.89C344.884,-958.542 361.137,-976.896 371,-996 400.869,-1053.85 361.434,-1091.49 407,-1138 419.957,-1151.22 441.205,-1155.49 456.705,-1156.75"/>
<polygon fill="midnightblue" stroke="midnightblue" points="334.556,-943.249 324.944,-938.793 329.679,-948.271 334.556,-943.249"/>
</g>
<!-- Node14 -->
<g id="node14" class="node"><title>Node14</title>
<g id="a_node14"><a xlink:href="hmholtz_8F90.html#a1d25ae22b38fb86936fcd9c68dab702f" target="_top" xlink:title="Check that the tolerances are not too small for the CG&#45;solver. Important when calling the CG&#45;solver (...">
<polygon fill="white" stroke="red" points="450.5,-919.5 450.5,-938.5 503.5,-938.5 503.5,-919.5 450.5,-919.5"/>
<text text-anchor="middle" x="477" y="-926.5" font-family="Helvetica,sans-Serif" font-size="10.00">chktcg1</text>
</a>
</g>
</g>
<!-- Node10&#45;&gt;Node14 -->
<g id="edge13" class="edge"><title>Node10&#45;&gt;Node14</title>
<path fill="none" stroke="midnightblue" d="M348.429,-929C378.906,-929 422.706,-929 450.24,-929"/>
<polygon fill="midnightblue" stroke="midnightblue" points="348.253,-925.5 338.253,-929 348.253,-932.5 348.253,-925.5"/>
</g>
<!-- Node10&#45;&gt;Node15 -->
<g id="edge14" class="edge"><title>Node10&#45;&gt;Node15</title>
<path fill="none" stroke="midnightblue" d="M333.533,-912.938C351.566,-898.878 379.621,-878.892 407,-867 465.636,-841.533 497.879,-874.913 547,-834 573.902,-811.594 608.8,-705.261 619.049,-672.579"/>
<polygon fill="midnightblue" stroke="midnightblue" points="331.18,-910.338 325.533,-919.303 335.537,-915.816 331.18,-910.338"/>
</g>
<!-- Node17 -->
<g id="node17" class="node"><title>Node17</title>
<g id="a_node17"><a xlink:href="eigsolv_8F90.html#a40aa959fb07551b7b3fe2e5bd7ed6fda" target="_top" xlink:title="Compute maximum eigenvalue of the discrete Helmholtz operator. ">
<polygon fill="white" stroke="red" points="444.5,-805.5 444.5,-824.5 509.5,-824.5 509.5,-805.5 444.5,-805.5"/>
<text text-anchor="middle" x="477" y="-812.5" font-family="Helvetica,sans-Serif" font-size="10.00">gammam1</text>
</a>
</g>
</g>
<!-- Node10&#45;&gt;Node17 -->
<g id="edge16" class="edge"><title>Node10&#45;&gt;Node17</title>
<path fill="none" stroke="midnightblue" d="M327.982,-911.466C344.807,-891.412 374.834,-858.804 407,-839 418.448,-831.951 432.246,-826.625 444.484,-822.804"/>
<polygon fill="midnightblue" stroke="midnightblue" points="325.057,-909.512 321.416,-919.462 330.467,-913.955 325.057,-909.512"/>
</g>
<!-- Node18 -->
<g id="node18" class="node"><title>Node18</title>
<g id="a_node18"><a xlink:href="navier8_8F90.html#aaeec4769efda346366e7e561aa844c88" target="_top" xlink:title="This routine generates Nelv submatrices of order ncl using Galerkin projection. ">
<polygon fill="white" stroke="red" points="415.5,-767.5 415.5,-786.5 538.5,-786.5 538.5,-767.5 415.5,-767.5"/>
<text text-anchor="middle" x="477" y="-774.5" font-family="Helvetica,sans-Serif" font-size="10.00">get_local_crs_galerkin</text>
</a>
</g>
</g>
<!-- Node10&#45;&gt;Node18 -->
<g id="edge17" class="edge"><title>Node10&#45;&gt;Node18</title>
<path fill="none" stroke="midnightblue" d="M322.191,-909.775C335.589,-880.666 364.973,-825.665 407,-796 412.482,-792.131 418.721,-789.049 425.154,-786.593"/>
<polygon fill="midnightblue" stroke="midnightblue" points="318.85,-908.674 317.984,-919.233 325.246,-911.519 318.85,-908.674"/>
</g>
<!-- Node19 -->
<g id="node19" class="node"><title>Node19</title>
<g id="a_node19"><a xlink:href="classhelmholtz.html#a9609e49232b58a6deb40ed82508c0a45" target="_top" xlink:title="Update the k&#45;th row/column of H_red. ">
<polygon fill="white" stroke="red" points="431,-729.5 431,-748.5 523,-748.5 523,-729.5 431,-729.5"/>
<text text-anchor="middle" x="477" y="-736.5" font-family="Helvetica,sans-Serif" font-size="10.00">helmholtz::hconj</text>
</a>
</g>
</g>
<!-- Node10&#45;&gt;Node19 -->
<g id="edge18" class="edge"><title>Node10&#45;&gt;Node19</title>
<path fill="none" stroke="midnightblue" d="M319.127,-909.407C329.492,-873.733 356.377,-798.163 407,-758 413.911,-752.517 422.296,-748.614 430.806,-745.836"/>
<polygon fill="midnightblue" stroke="midnightblue" points="315.735,-908.543 316.433,-919.115 322.48,-910.415 315.735,-908.543"/>
</g>
<!-- Node20 -->
<g id="node20" class="node"><title>Node20</title>
<g id="a_node20"><a xlink:href="navier1_8F90.html#af8f288bd13e9077cfadcd76c95c59dc5" target="_top" xlink:title="Compute error norms of a (scalar) field variable X defined on mesh 1 or mesh 2. The error norms are n...">
<polygon fill="white" stroke="red" points="451.5,-1109.5 451.5,-1128.5 502.5,-1128.5 502.5,-1109.5 451.5,-1109.5"/>
<text text-anchor="middle" x="477" y="-1116.5" font-family="Helvetica,sans-Serif" font-size="10.00">normsc</text>
</a>
</g>
</g>
<!-- Node10&#45;&gt;Node20 -->
<g id="edge19" class="edge"><title>Node10&#45;&gt;Node20</title>
<path fill="none" stroke="midnightblue" d="M331.328,-945.706C343.78,-958.501 360.209,-977.113 371,-996 395.265,-1038.47 371.315,-1066.55 407,-1100 418.875,-1111.13 436.665,-1115.85 451.206,-1117.8"/>
<polygon fill="midnightblue" stroke="midnightblue" points="333.717,-943.145 324.175,-938.54 328.762,-948.09 333.717,-943.145"/>
</g>
<!-- Node21 -->
<g id="node21" class="node"><title>Node21</title>
<g id="a_node21"><a xlink:href="navier1_8F90.html#aaf82c7bf142ad5f9c363e3dc3c39fa3c" target="_top" xlink:title="OUT = (H1*A+H2*B) * INP. ">
<polygon fill="white" stroke="red" points="603,-786.5 603,-805.5 643,-805.5 643,-786.5 603,-786.5"/>
<text text-anchor="middle" x="623" y="-793.5" font-family="Helvetica,sans-Serif" font-size="10.00">ophx</text>
</a>
</g>
</g>
<!-- Node10&#45;&gt;Node21 -->
<g id="edge20" class="edge"><title>Node10&#45;&gt;Node21</title>
<path fill="none" stroke="midnightblue" d="M347.902,-922.136C403.857,-910.452 512.762,-886.108 547,-867 575.808,-850.922 601.95,-821.278 614.376,-805.874"/>
<polygon fill="midnightblue" stroke="midnightblue" points="347.183,-918.711 338.101,-924.166 348.603,-925.565 347.183,-918.711"/>
</g>
<!-- Node23 -->
<g id="node23" class="node"><title>Node23</title>
<g id="a_node23"><a xlink:href="classhelmholtz.html#a52002b3abc9e261d205cb96d49918f05" target="_top" xlink:title="Project out the part of the residual in the approx space. ">
<polygon fill="white" stroke="red" points="432,-1071.5 432,-1090.5 522,-1090.5 522,-1071.5 432,-1071.5"/>
<text text-anchor="middle" x="477" y="-1078.5" font-family="Helvetica,sans-Serif" font-size="10.00">helmholtz::projh</text>
</a>
</g>
</g>
<!-- Node10&#45;&gt;Node23 -->
<g id="edge23" class="edge"><title>Node10&#45;&gt;Node23</title>
<path fill="none" stroke="midnightblue" d="M330.425,-946.273C342.423,-959.353 358.679,-978.073 371,-996 389.925,-1023.54 380.812,-1041.25 407,-1062 414.206,-1067.71 423.012,-1071.71 431.89,-1074.5"/>
<polygon fill="midnightblue" stroke="midnightblue" points="332.952,-943.851 323.578,-938.915 327.828,-948.62 332.952,-943.851"/>
</g>
<!-- Node24 -->
<g id="node24" class="node"><title>Node24</title>
<g id="a_node24"><a xlink:href="navier1_8F90.html#a08e5b36029e39242bd7344bd10ed472c" target="_top" xlink:title="compute weak form of the laplacian operator including the boundary contribution ">
<polygon fill="white" stroke="red" points="444,-1033.5 444,-1052.5 510,-1052.5 510,-1033.5 444,-1033.5"/>
<text text-anchor="middle" x="477" y="-1040.5" font-family="Helvetica,sans-Serif" font-size="10.00">wlaplacian</text>
</a>
</g>
</g>
<!-- Node10&#45;&gt;Node24 -->
<g id="edge24" class="edge"><title>Node10&#45;&gt;Node24</title>
<path fill="none" stroke="midnightblue" d="M329.062,-946.44C350.481,-970.868 389.122,-1013.47 407,-1024 418.134,-1030.56 431.609,-1034.92 443.686,-1037.8"/>
<polygon fill="midnightblue" stroke="midnightblue" points="331.474,-943.881 322.266,-938.64 326.196,-948.479 331.474,-943.881"/>
</g>
<!-- Node16 -->
<g id="node16" class="node"><title>Node16</title>
<g id="a_node16"><a xlink:href="plan4_8F90.html#a5cbf852b67e73bfa44e028338c4d57ad" target="_top" xlink:title="Splitting scheme . ">
<polygon fill="white" stroke="red" points="788,-600.5 788,-619.5 831,-619.5 831,-600.5 788,-600.5"/>
<text text-anchor="middle" x="809.5" y="-607.5" font-family="Helvetica,sans-Serif" font-size="10.00">plan4</text>
</a>
</g>
</g>
<!-- Node15&#45;&gt;Node16 -->
<g id="edge15" class="edge"><title>Node15&#45;&gt;Node16</title>
<path fill="none" stroke="midnightblue" d="M650.759,-648.865C664.79,-641.973 682.459,-634.093 699,-629 729.242,-619.688 765.675,-614.509 787.956,-611.99"/>
<polygon fill="midnightblue" stroke="midnightblue" points="649.044,-645.809 641.685,-653.432 652.191,-652.062 649.044,-645.809"/>
</g>
<!-- Node22 -->
<g id="node22" class="node"><title>Node22</title>
<g id="a_node22"><a xlink:href="plan4_8F90.html#ab1e8c9cb142e2062d1c1c8c1e6cd30c9" target="_top" xlink:title="Compute the residual for the velocity. ">
<polygon fill="white" stroke="black" points="699,-638.5 699,-657.5 752,-657.5 752,-638.5 699,-638.5"/>
<text text-anchor="middle" x="725.5" y="-645.5" font-family="Helvetica,sans-Serif" font-size="10.00">cresvsp</text>
</a>
</g>
</g>
<!-- Node21&#45;&gt;Node22 -->
<g id="edge21" class="edge"><title>Node21&#45;&gt;Node22</title>
<path fill="none" stroke="midnightblue" d="M636.26,-777.945C657.753,-746.294 701.515,-681.848 718.012,-657.554"/>
<polygon fill="midnightblue" stroke="midnightblue" points="633.316,-776.05 630.594,-786.289 639.107,-779.983 633.316,-776.05"/>
</g>
<!-- Node22&#45;&gt;Node16 -->
<g id="edge22" class="edge"><title>Node22&#45;&gt;Node16</title>
<path fill="none" stroke="midnightblue" d="M756.396,-634.146C766.828,-629.311 778.298,-623.996 787.815,-619.586"/>
<polygon fill="midnightblue" stroke="midnightblue" points="754.794,-631.031 747.192,-638.411 757.737,-637.382 754.794,-631.031"/>
</g>
<!-- Node25&#45;&gt;Node13 -->
<g id="edge26" class="edge"><title>Node25&#45;&gt;Node13</title>
<path fill="none" stroke="midnightblue" d="M323.178,-1033.93C337.343,-1061.13 367.121,-1110.95 407,-1138 421.91,-1148.11 442.066,-1152.87 456.742,-1155.09"/>
<polygon fill="midnightblue" stroke="midnightblue" points="326.155,-1032.06 318.525,-1024.71 319.906,-1035.21 326.155,-1032.06"/>
</g>
<!-- Node27 -->
<g id="node27" class="node"><title>Node27</title>
<g id="a_node27"><a xlink:href="classhsmg__routines.html#ab009e603b829296443844596185ed57f" target="_top" xlink:title="computes v = [A (x) A] u or v = [A (x) A (x) A] u ">
<polygon fill="white" stroke="red" points="407,-343.5 407,-362.5 547,-362.5 547,-343.5 407,-343.5"/>
<text text-anchor="middle" x="477" y="-350.5" font-family="Helvetica,sans-Serif" font-size="10.00">hsmg_routines::hsmg_tnsr</text>
</a>
</g>
</g>
<!-- Node26&#45;&gt;Node27 -->
<g id="edge28" class="edge"><title>Node26&#45;&gt;Node27</title>
<path fill="none" stroke="midnightblue" d="M381.301,-353C389.756,-353 398.416,-353 406.898,-353"/>
<polygon fill="midnightblue" stroke="midnightblue" points="381.115,-349.5 371.115,-353 381.115,-356.5 381.115,-349.5"/>
</g>
<!-- Node30 -->
<g id="node30" class="node"><title>Node30</title>
<g id="a_node30"><a xlink:href="classhsmg__routines.html#a56837369bcc1a1278a1da6aae4b5d22b" target="_top" xlink:title="clobbers r ">
<polygon fill="white" stroke="red" points="407.5,-245.5 407.5,-264.5 546.5,-264.5 546.5,-245.5 407.5,-245.5"/>
<text text-anchor="middle" x="477" y="-252.5" font-family="Helvetica,sans-Serif" font-size="10.00">hsmg_routines::hsmg_fdm</text>
</a>
</g>
</g>
<!-- Node29&#45;&gt;Node30 -->
<g id="edge31" class="edge"><title>Node29&#45;&gt;Node30</title>
<path fill="none" stroke="midnightblue" d="M381.18,-255C389.861,-255 398.759,-255 407.462,-255"/>
<polygon fill="midnightblue" stroke="midnightblue" points="381.115,-251.5 371.115,-255 381.115,-258.5 381.115,-251.5"/>
</g>
<!-- Node32 -->
<g id="node32" class="node"><title>Node32</title>
<g id="a_node32"><a xlink:href="classhsmg__routines.html#a7a84e350749e18aafaacdbdb3d4638d3" target="_top" xlink:title="compute v = [A (x) A] u or v = [A (x) A (x) A] u ">
<polygon fill="white" stroke="red" points="419,-191 419,-221 535,-221 535,-191 419,-191"/>
<text text-anchor="start" x="427" y="-209" font-family="Helvetica,sans-Serif" font-size="10.00">hsmg_routines::hsmg</text>
<text text-anchor="middle" x="477" y="-198" font-family="Helvetica,sans-Serif" font-size="10.00">_tnsr1</text>
</a>
</g>
</g>
<!-- Node31&#45;&gt;Node32 -->
<g id="edge33" class="edge"><title>Node31&#45;&gt;Node32</title>
<path fill="none" stroke="midnightblue" d="M381.435,-206C393.875,-206 406.755,-206 418.855,-206"/>
<polygon fill="midnightblue" stroke="midnightblue" points="381.115,-202.5 371.115,-206 381.115,-209.5 381.115,-202.5"/>
</g>
<!-- Node34 -->
<g id="node34" class="node"><title>Node34</title>
<g id="a_node34"><a xlink:href="ic_8F90.html#a46a0ff5dd0a6f10aa39215385ba21288" target="_top" xlink:title="mapdmp">
<polygon fill="white" stroke="red" points="448.5,-152.5 448.5,-171.5 505.5,-171.5 505.5,-152.5 448.5,-152.5"/>
<text text-anchor="middle" x="477" y="-159.5" font-family="Helvetica,sans-Serif" font-size="10.00">mapdmp</text>
</a>
</g>
</g>
<!-- Node33&#45;&gt;Node34 -->
<g id="edge35" class="edge"><title>Node33&#45;&gt;Node34</title>
<path fill="none" stroke="midnightblue" d="M352.567,-162C382.061,-162 422.015,-162 448.375,-162"/>
<polygon fill="midnightblue" stroke="midnightblue" points="352.218,-158.5 342.218,-162 352.218,-165.5 352.218,-158.5"/>
</g>
<!-- Node35&#45;&gt;Node22 -->
<g id="edge37" class="edge"><title>Node35&#45;&gt;Node22</title>
<path fill="none" stroke="midnightblue" d="M644.37,-584.215C664.786,-600.467 695.537,-624.945 712.39,-638.36"/>
<polygon fill="midnightblue" stroke="midnightblue" points="646.327,-581.299 636.323,-577.81 641.967,-586.776 646.327,-581.299"/>
</g>
<!-- Node36&#45;&gt;Node15 -->
<g id="edge39" class="edge"><title>Node36&#45;&gt;Node15</title>
<path fill="none" stroke="midnightblue" d="M341.988,-663C401.106,-663 537.989,-663 595.644,-663"/>
<polygon fill="midnightblue" stroke="midnightblue" points="341.891,-659.5 331.891,-663 341.891,-666.5 341.891,-659.5"/>
</g>
<!-- Node37&#45;&gt;Node35 -->
<g id="edge41" class="edge"><title>Node37&#45;&gt;Node35</title>
<path fill="none" stroke="midnightblue" d="M343.596,-517.256C361.85,-521.062 385.754,-525.953 407,-530 476.072,-543.157 557.931,-557.199 597.779,-563.935"/>
<polygon fill="midnightblue" stroke="midnightblue" points="344.07,-513.779 333.565,-515.155 342.635,-520.63 344.07,-513.779"/>
</g>
<!-- Node37&#45;&gt;Node38 -->
<g id="edge42" class="edge"><title>Node37&#45;&gt;Node38</title>
<path fill="none" stroke="midnightblue" d="M343.816,-511C376.41,-511 427.737,-511 455.882,-511"/>
<polygon fill="midnightblue" stroke="midnightblue" points="343.541,-507.5 333.541,-511 343.541,-514.5 343.541,-507.5"/>
</g>
<!-- Node38&#45;&gt;Node16 -->
<g id="edge43" class="edge"><title>Node38&#45;&gt;Node16</title>
<path fill="none" stroke="midnightblue" d="M508.15,-515.345C545.145,-521.096 609.54,-532.476 663,-549 709.581,-563.398 761.728,-587.265 789.182,-600.472"/>
<polygon fill="midnightblue" stroke="midnightblue" points="508.445,-511.849 498.032,-513.806 507.392,-518.77 508.445,-511.849"/>
</g>
<!-- Node39&#45;&gt;Node40 -->
<g id="edge45" class="edge"><title>Node39&#45;&gt;Node40</title>
<path fill="none" stroke="midnightblue" d="M348.152,-557.011C379.039,-564.256 423.775,-574.75 451.315,-581.21"/>
<polygon fill="midnightblue" stroke="midnightblue" points="348.788,-553.565 338.253,-554.689 347.189,-560.38 348.788,-553.565"/>
</g>
<!-- Node40&#45;&gt;Node15 -->
<g id="edge46" class="edge"><title>Node40&#45;&gt;Node15</title>
<path fill="none" stroke="midnightblue" d="M505.389,-601.455C534.318,-616.723 579.104,-640.36 603.91,-653.453"/>
<polygon fill="midnightblue" stroke="midnightblue" points="506.715,-598.198 496.238,-596.625 503.448,-604.388 506.715,-598.198"/>
</g>
<!-- Node42 -->
<g id="node42" class="node"><title>Node42</title>
<g id="a_node42"><a xlink:href="drive1_8F90.html#ae177ea7efac97f35241521b782a671c0" target="_top" xlink:title="take a single time&#45;step ">
<polygon fill="white" stroke="red" points="583,-76.5 583,-95.5 663,-95.5 663,-76.5 583,-76.5"/>
<text text-anchor="middle" x="623" y="-83.5" font-family="Helvetica,sans-Serif" font-size="10.00">nek_advance</text>
</a>
</g>
</g>
<!-- Node41&#45;&gt;Node42 -->
<g id="edge49" class="edge"><title>Node41&#45;&gt;Node42</title>
<path fill="none" stroke="midnightblue" d="M511.982,-86C533.275,-86 560.787,-86 582.972,-86"/>
<polygon fill="midnightblue" stroke="midnightblue" points="511.779,-82.5001 501.779,-86 511.779,-89.5001 511.779,-82.5001"/>
</g>
<!-- Node43&#45;&gt;Node41 -->
<g id="edge51" class="edge"><title>Node43&#45;&gt;Node41</title>
<path fill="none" stroke="midnightblue" d="M344.421,-116.864C375.671,-109.534 423.667,-98.2757 452.236,-91.5742"/>
<polygon fill="midnightblue" stroke="midnightblue" points="343.454,-113.496 334.517,-119.187 345.052,-120.311 343.454,-113.496"/>
</g>
<!-- Node45 -->
<g id="node45" class="node"><title>Node45</title>
<g id="a_node45"><a xlink:href="convect_8F90.html#aef829efeef773567be893471f50529b1" target="_top" xlink:title="Compute dealiased form: J^T Bf *JC .grad Ju w/ correct Jacobians. ">
<polygon fill="white" stroke="red" points="437.5,-396.5 437.5,-415.5 516.5,-415.5 516.5,-396.5 437.5,-396.5"/>
<text text-anchor="middle" x="477" y="-403.5" font-family="Helvetica,sans-Serif" font-size="10.00">convect_new</text>
</a>
</g>
</g>
<!-- Node44&#45;&gt;Node45 -->
<g id="edge53" class="edge"><title>Node44&#45;&gt;Node45</title>
<path fill="none" stroke="midnightblue" d="M359.292,-426.892C383.814,-422.502 413.796,-417.135 437.231,-412.94"/>
<polygon fill="midnightblue" stroke="midnightblue" points="358.378,-423.5 349.152,-428.707 359.612,-430.39 358.378,-423.5"/>
</g>
<!-- Node46 -->
<g id="node46" class="node"><title>Node46</title>
<g id="a_node46"><a xlink:href="navier1_8F90.html#a6d3df5bfd9eeabae524e4da76ac13c51" target="_top" xlink:title="Compute gradient of T – mesh 1 to mesh 1 (vel. to vel.) ">
<polygon fill="white" stroke="black" points="447,-444.5 447,-463.5 507,-463.5 507,-444.5 447,-444.5"/>
<text text-anchor="middle" x="477" y="-451.5" font-family="Helvetica,sans-Serif" font-size="10.00">wgradm1</text>
</a>
</g>
</g>
<!-- Node44&#45;&gt;Node46 -->
<g id="edge54" class="edge"><title>Node44&#45;&gt;Node46</title>
<path fill="none" stroke="midnightblue" d="M359.132,-440.293C387.196,-443.585 422.459,-447.72 446.871,-450.584"/>
<polygon fill="midnightblue" stroke="midnightblue" points="359.491,-436.811 349.152,-439.123 358.676,-443.764 359.491,-436.811"/>
</g>
<!-- Node46&#45;&gt;Node35 -->
<g id="edge55" class="edge"><title>Node46&#45;&gt;Node35</title>
<path fill="none" stroke="midnightblue" d="M508.034,-468.13C520.585,-474.636 535.007,-482.926 547,-492 574.201,-512.58 601.046,-542.838 613.994,-558.23"/>
<polygon fill="midnightblue" stroke="midnightblue" points="509.379,-464.889 498.872,-463.52 506.232,-471.142 509.379,-464.889"/>
</g>
<!-- Node47&#45;&gt;Node41 -->
<g id="edge57" class="edge"><title>Node47&#45;&gt;Node41</title>
<path fill="none" stroke="midnightblue" d="M368.09,-86C396.613,-86 430.158,-86 452.186,-86"/>
<polygon fill="midnightblue" stroke="midnightblue" points="367.84,-82.5001 357.84,-86 367.839,-89.5001 367.84,-82.5001"/>
</g>
<!-- Node48&#45;&gt;Node45 -->
<g id="edge59" class="edge"><title>Node48&#45;&gt;Node45</title>
<path fill="none" stroke="midnightblue" d="M352.688,-399.149C378.301,-400.572 411.76,-402.431 437.363,-403.853"/>
<polygon fill="midnightblue" stroke="midnightblue" points="352.768,-395.648 342.589,-398.588 352.38,-402.638 352.768,-395.648"/>
</g>
<!-- Node50&#45;&gt;Node2 -->
<g id="edge64" class="edge"><title>Node50&#45;&gt;Node2</title>
<path fill="none" stroke="midnightblue" d="M154.842,-462.033C163.786,-464.254 173.172,-466.585 180.98,-468.524"/>
<polygon fill="midnightblue" stroke="midnightblue" points="155.588,-458.612 145.039,-459.598 153.9,-465.405 155.588,-458.612"/>
</g>
</g>
</svg>
