<?xml version="1.0" encoding="UTF-8" standalone="no"?>
<!DOCTYPE svg PUBLIC "-//W3C//DTD SVG 1.1//EN"
 "http://www.w3.org/Graphics/SVG/1.1/DTD/svg11.dtd">
<!-- Generated by graphviz version 2.38.0 (20140413.2041)
 -->
<!-- Title: mxmf3 Pages: 1 -->
<svg width="156pt" height="902pt"
 viewBox="0.00 0.00 156.00 902.00" xmlns="http://www.w3.org/2000/svg" xmlns:xlink="http://www.w3.org/1999/xlink">
<g id="graph0" class="graph" transform="scale(1 1) rotate(0) translate(4 898)">
<title>mxmf3</title>
<polygon fill="white" stroke="none" points="-4,4 -4,-898 152,-898 152,4 -4,4"/>
<!-- Node1 -->
<g id="node1" class="node"><title>Node1</title>
<polygon fill="#bfbfbf" stroke="black" points="0,-437.5 0,-456.5 47,-456.5 47,-437.5 0,-437.5"/>
<text text-anchor="middle" x="23.5" y="-444.5" font-family="Helvetica,sans-Serif" font-size="10.00">mxmf3</text>
</g>
<!-- Node2 -->
<g id="node2" class="node"><title>Node2</title>
<g id="a_node2"><a xlink:href="mxm__std_8F90.html#a3430c05cac7709c28358d953cbe6c068" target="_top" xlink:title="mxmf3_1">
<polygon fill="white" stroke="black" points="86,-874.5 86,-893.5 145,-893.5 145,-874.5 86,-874.5"/>
<text text-anchor="middle" x="115.5" y="-881.5" font-family="Helvetica,sans-Serif" font-size="10.00">mxmf3_1</text>
</a>
</g>
</g>
<!-- Node1&#45;&gt;Node2 -->
<g id="edge1" class="edge"><title>Node1&#45;&gt;Node2</title>
<path fill="none" stroke="midnightblue" d="M24.7406,-456.518C26.3039,-512.086 36.4683,-794.524 83,-865 83.6158,-865.933 84.2946,-866.827 85.025,-867.683"/>
<polygon fill="midnightblue" stroke="midnightblue" points="82.8519,-870.432 92.6786,-874.393 87.4668,-865.169 82.8519,-870.432"/>
</g>
<!-- Node3 -->
<g id="node3" class="node"><title>Node3</title>
<g id="a_node3"><a xlink:href="mxm__std_8F90.html#a9584e1d89e0db2bb5a544db65c97fadf" target="_top" xlink:title="mxmf3_10">
<polygon fill="white" stroke="black" points="83,-836.5 83,-855.5 148,-855.5 148,-836.5 83,-836.5"/>
<text text-anchor="middle" x="115.5" y="-843.5" font-family="Helvetica,sans-Serif" font-size="10.00">mxmf3_10</text>
</a>
</g>
</g>
<!-- Node1&#45;&gt;Node3 -->
<g id="edge2" class="edge"><title>Node1&#45;&gt;Node3</title>
<path fill="none" stroke="midnightblue" d="M24.8951,-456.671C27.2144,-509.537 40.4532,-763.51 83,-827 83.6222,-827.928 84.3065,-828.819 85.0416,-829.672"/>
<polygon fill="midnightblue" stroke="midnightblue" points="82.8816,-832.432 92.7189,-836.366 87.4822,-827.156 82.8816,-832.432"/>
</g>
<!-- Node4 -->
<g id="node4" class="node"><title>Node4</title>
<g id="a_node4"><a xlink:href="mxm__std_8F90.html#a1e16f394f0fdffd1d235e2f8a76701b0" target="_top" xlink:title="mxmf3_11">
<polygon fill="white" stroke="black" points="83,-798.5 83,-817.5 148,-817.5 148,-798.5 83,-798.5"/>
<text text-anchor="middle" x="115.5" y="-805.5" font-family="Helvetica,sans-Serif" font-size="10.00">mxmf3_11</text>
</a>
</g>
</g>
<!-- Node1&#45;&gt;Node4 -->
<g id="edge3" class="edge"><title>Node1&#45;&gt;Node4</title>
<path fill="none" stroke="midnightblue" d="M25.0778,-456.668C28.2019,-506.307 44.3826,-732.399 83,-789 83.6299,-789.923 84.3209,-790.809 85.0616,-791.658"/>
<polygon fill="midnightblue" stroke="midnightblue" points="82.9176,-794.432 92.7678,-798.333 87.5007,-789.14 82.9176,-794.432"/>
</g>
<!-- Node5 -->
<g id="node5" class="node"><title>Node5</title>
<g id="a_node5"><a xlink:href="mxm__std_8F90.html#aa3b8834dc6964161325c3249ed1b16a9" target="_top" xlink:title="mxmf3_12">
<polygon fill="white" stroke="black" points="83,-760.5 83,-779.5 148,-779.5 148,-760.5 83,-760.5"/>
<text text-anchor="middle" x="115.5" y="-767.5" font-family="Helvetica,sans-Serif" font-size="10.00">mxmf3_12</text>
</a>
</g>
</g>
<!-- Node1&#45;&gt;Node5 -->
<g id="edge4" class="edge"><title>Node1&#45;&gt;Node5</title>
<path fill="none" stroke="midnightblue" d="M25.3169,-456.801C29.348,-503.279 48.3308,-701.298 83,-751 83.6394,-751.917 84.3386,-752.797 85.0864,-753.641"/>
<polygon fill="midnightblue" stroke="midnightblue" points="82.962,-756.43 92.8281,-760.292 87.5235,-751.12 82.962,-756.43"/>
</g>
<!-- Node6 -->
<g id="node6" class="node"><title>Node6</title>
<g id="a_node6"><a xlink:href="mxm__std_8F90.html#ada7d3a1abcd81a95a31503ee865f1958" target="_top" xlink:title="mxmf3_13">
<polygon fill="white" stroke="black" points="83,-722.5 83,-741.5 148,-741.5 148,-722.5 83,-722.5"/>
<text text-anchor="middle" x="115.5" y="-729.5" font-family="Helvetica,sans-Serif" font-size="10.00">mxmf3_13</text>
</a>
</g>
</g>
<!-- Node1&#45;&gt;Node6 -->
<g id="edge5" class="edge"><title>Node1&#45;&gt;Node6</title>
<path fill="none" stroke="midnightblue" d="M24.0392,-456.537C22.7417,-493.396 22.5041,-628.665 83,-713 83.7538,-714.051 84.5855,-715.054 85.4779,-716.011"/>
<polygon fill="midnightblue" stroke="midnightblue" points="83.3002,-718.752 93.2274,-722.454 87.7753,-713.37 83.3002,-718.752"/>
</g>
<!-- Node7 -->
<g id="node7" class="node"><title>Node7</title>
<g id="a_node7"><a xlink:href="mxm__std_8F90.html#a2afd3c922272a000b33c7f28775f4e77" target="_top" xlink:title="mxmf3_14">
<polygon fill="white" stroke="black" points="83,-684.5 83,-703.5 148,-703.5 148,-684.5 83,-684.5"/>
<text text-anchor="middle" x="115.5" y="-691.5" font-family="Helvetica,sans-Serif" font-size="10.00">mxmf3_14</text>
</a>
</g>
</g>
<!-- Node1&#45;&gt;Node7 -->
<g id="edge6" class="edge"><title>Node1&#45;&gt;Node7</title>
<path fill="none" stroke="midnightblue" d="M24.4795,-456.773C24.8886,-490.552 30.3139,-604.179 83,-675 83.7719,-676.038 84.6188,-677.03 85.524,-677.978"/>
<polygon fill="midnightblue" stroke="midnightblue" points="83.3765,-680.743 93.3272,-684.381 87.8171,-675.332 83.3765,-680.743"/>
</g>
<!-- Node8 -->
<g id="node8" class="node"><title>Node8</title>
<g id="a_node8"><a xlink:href="mxm__std_8F90.html#a59017b3f0e05c46d23b051f420e12f22" target="_top" xlink:title="mxmf3_15">
<polygon fill="white" stroke="black" points="83,-646.5 83,-665.5 148,-665.5 148,-646.5 83,-646.5"/>
<text text-anchor="middle" x="115.5" y="-653.5" font-family="Helvetica,sans-Serif" font-size="10.00">mxmf3_15</text>
</a>
</g>
</g>
<!-- Node1&#45;&gt;Node8 -->
<g id="edge7" class="edge"><title>Node1&#45;&gt;Node8</title>
<path fill="none" stroke="midnightblue" d="M25.0974,-456.8C27.3932,-486.882 37.9439,-579.347 83,-637 83.8185,-638.047 84.7121,-639.05 85.6632,-640.008"/>
<polygon fill="midnightblue" stroke="midnightblue" points="83.7878,-642.989 93.7872,-646.491 88.1541,-637.518 83.7878,-642.989"/>
</g>
<!-- Node9 -->
<g id="node9" class="node"><title>Node9</title>
<g id="a_node9"><a xlink:href="mxm__std_8F90.html#afa03a56d8cc583839513517adbb041f6" target="_top" xlink:title="mxmf3_16">
<polygon fill="white" stroke="black" points="83,-608.5 83,-627.5 148,-627.5 148,-608.5 83,-608.5"/>
<text text-anchor="middle" x="115.5" y="-615.5" font-family="Helvetica,sans-Serif" font-size="10.00">mxmf3_16</text>
</a>
</g>
</g>
<!-- Node1&#45;&gt;Node9 -->
<g id="edge8" class="edge"><title>Node1&#45;&gt;Node9</title>
<path fill="none" stroke="midnightblue" d="M25.9761,-456.645C30.3558,-482.449 45.3955,-554.147 83,-599 83.854,-600.019 84.7773,-600.997 85.753,-601.935"/>
<polygon fill="midnightblue" stroke="midnightblue" points="83.937,-604.957 93.9785,-608.336 88.2361,-599.433 83.937,-604.957"/>
</g>
<!-- Node10 -->
<g id="node10" class="node"><title>Node10</title>
<g id="a_node10"><a xlink:href="mxm__std_8F90.html#ac42493a4771fc3c0f9dd008033800fc1" target="_top" xlink:title="mxmf3_17">
<polygon fill="white" stroke="black" points="83,-570.5 83,-589.5 148,-589.5 148,-570.5 83,-570.5"/>
<text text-anchor="middle" x="115.5" y="-577.5" font-family="Helvetica,sans-Serif" font-size="10.00">mxmf3_17</text>
</a>
</g>
</g>
<!-- Node1&#45;&gt;Node10 -->
<g id="edge9" class="edge"><title>Node1&#45;&gt;Node10</title>
<path fill="none" stroke="midnightblue" d="M27.416,-456.626C34.1977,-477.705 52.7899,-528.642 83,-561 84.1686,-562.252 85.4379,-563.45 86.7741,-564.591"/>
<polygon fill="midnightblue" stroke="midnightblue" points="84.7709,-567.462 94.9215,-570.498 88.8796,-561.795 84.7709,-567.462"/>
</g>
<!-- Node11 -->
<g id="node11" class="node"><title>Node11</title>
<g id="a_node11"><a xlink:href="mxm__std_8F90.html#a4679b76e4c9105d0d5ed8a374e7fbda8" target="_top" xlink:title="mxmf3_18">
<polygon fill="white" stroke="black" points="83,-532.5 83,-551.5 148,-551.5 148,-532.5 83,-532.5"/>
<text text-anchor="middle" x="115.5" y="-539.5" font-family="Helvetica,sans-Serif" font-size="10.00">mxmf3_18</text>
</a>
</g>
</g>
<!-- Node1&#45;&gt;Node11 -->
<g id="edge10" class="edge"><title>Node1&#45;&gt;Node11</title>
<path fill="none" stroke="midnightblue" d="M30.3557,-456.812C39.9228,-472.262 60.1448,-502.597 83,-523 84.465,-524.308 86.0326,-525.576 87.6569,-526.794"/>
<polygon fill="midnightblue" stroke="midnightblue" points="85.7888,-529.756 96.0398,-532.433 89.6957,-523.947 85.7888,-529.756"/>
</g>
<!-- Node12 -->
<g id="node12" class="node"><title>Node12</title>
<g id="a_node12"><a xlink:href="mxm__std_8F90.html#a2c928f8e9672b682f300a4faf5d392ca" target="_top" xlink:title="mxmf3_19">
<polygon fill="white" stroke="black" points="83,-494.5 83,-513.5 148,-513.5 148,-494.5 83,-494.5"/>
<text text-anchor="middle" x="115.5" y="-501.5" font-family="Helvetica,sans-Serif" font-size="10.00">mxmf3_19</text>
</a>
</g>
</g>
<!-- Node1&#45;&gt;Node12 -->
<g id="edge11" class="edge"><title>Node1&#45;&gt;Node12</title>
<path fill="none" stroke="midnightblue" d="M38.8389,-456.504C50.6295,-464.273 67.8082,-475.488 83,-485 85.1787,-486.364 87.4511,-487.769 89.7337,-489.168"/>
<polygon fill="midnightblue" stroke="midnightblue" points="88.0477,-492.239 98.412,-494.437 91.6804,-486.255 88.0477,-492.239"/>
</g>
<!-- Node13 -->
<g id="node13" class="node"><title>Node13</title>
<g id="a_node13"><a xlink:href="mxm__std_8F90.html#aedf915c1edfaa77ebffeaaa46125bc1a" target="_top" xlink:title="mxmf3_2">
<polygon fill="white" stroke="black" points="86,-456.5 86,-475.5 145,-475.5 145,-456.5 86,-456.5"/>
<text text-anchor="middle" x="115.5" y="-463.5" font-family="Helvetica,sans-Serif" font-size="10.00">mxmf3_2</text>
</a>
</g>
</g>
<!-- Node1&#45;&gt;Node13 -->
<g id="edge12" class="edge"><title>Node1&#45;&gt;Node13</title>
<path fill="none" stroke="midnightblue" d="M47.2108,-451.795C55.9454,-453.638 66.1788,-455.799 75.9916,-457.87"/>
<polygon fill="midnightblue" stroke="midnightblue" points="75.4775,-461.339 85.9848,-459.98 76.9234,-454.49 75.4775,-461.339"/>
</g>
<!-- Node14 -->
<g id="node14" class="node"><title>Node14</title>
<g id="a_node14"><a xlink:href="mxm__std_8F90.html#ad96ed4378675b92eeab427baa6a63bf4" target="_top" xlink:title="mxmf3_20">
<polygon fill="white" stroke="black" points="83,-418.5 83,-437.5 148,-437.5 148,-418.5 83,-418.5"/>
<text text-anchor="middle" x="115.5" y="-425.5" font-family="Helvetica,sans-Serif" font-size="10.00">mxmf3_20</text>
</a>
</g>
</g>
<!-- Node1&#45;&gt;Node14 -->
<g id="edge13" class="edge"><title>Node1&#45;&gt;Node14</title>
<path fill="none" stroke="midnightblue" d="M47.2108,-442.205C55.0804,-440.544 64.1668,-438.626 73.066,-436.747"/>
<polygon fill="midnightblue" stroke="midnightblue" points="73.8978,-440.149 82.9592,-434.659 72.4518,-433.3 73.8978,-440.149"/>
</g>
<!-- Node15 -->
<g id="node15" class="node"><title>Node15</title>
<g id="a_node15"><a xlink:href="mxm__std_8F90.html#a2737238b612ffbc4bb86a7d5cee0293d" target="_top" xlink:title="mxmf3_21">
<polygon fill="white" stroke="black" points="83,-380.5 83,-399.5 148,-399.5 148,-380.5 83,-380.5"/>
<text text-anchor="middle" x="115.5" y="-387.5" font-family="Helvetica,sans-Serif" font-size="10.00">mxmf3_21</text>
</a>
</g>
</g>
<!-- Node1&#45;&gt;Node15 -->
<g id="edge14" class="edge"><title>Node1&#45;&gt;Node15</title>
<path fill="none" stroke="midnightblue" d="M38.8389,-437.496C50.6295,-429.727 67.8082,-418.512 83,-409 85.1787,-407.636 87.4511,-406.231 89.7337,-404.832"/>
<polygon fill="midnightblue" stroke="midnightblue" points="91.6804,-407.745 98.412,-399.563 88.0477,-401.761 91.6804,-407.745"/>
</g>
<!-- Node16 -->
<g id="node16" class="node"><title>Node16</title>
<g id="a_node16"><a xlink:href="mxm__std_8F90.html#a53caa1f3d5b403a18cd821f3af366cc7" target="_top" xlink:title="mxmf3_22">
<polygon fill="white" stroke="black" points="83,-342.5 83,-361.5 148,-361.5 148,-342.5 83,-342.5"/>
<text text-anchor="middle" x="115.5" y="-349.5" font-family="Helvetica,sans-Serif" font-size="10.00">mxmf3_22</text>
</a>
</g>
</g>
<!-- Node1&#45;&gt;Node16 -->
<g id="edge15" class="edge"><title>Node1&#45;&gt;Node16</title>
<path fill="none" stroke="midnightblue" d="M30.3557,-437.188C39.9228,-421.738 60.1448,-391.403 83,-371 84.465,-369.692 86.0326,-368.424 87.6569,-367.206"/>
<polygon fill="midnightblue" stroke="midnightblue" points="89.6957,-370.053 96.0398,-361.567 85.7888,-364.244 89.6957,-370.053"/>
</g>
<!-- Node17 -->
<g id="node17" class="node"><title>Node17</title>
<g id="a_node17"><a xlink:href="mxm__std_8F90.html#a7d0efc90da3d2c25c2df0a8f3dae429e" target="_top" xlink:title="mxmf3_23">
<polygon fill="white" stroke="black" points="83,-304.5 83,-323.5 148,-323.5 148,-304.5 83,-304.5"/>
<text text-anchor="middle" x="115.5" y="-311.5" font-family="Helvetica,sans-Serif" font-size="10.00">mxmf3_23</text>
</a>
</g>
</g>
<!-- Node1&#45;&gt;Node17 -->
<g id="edge16" class="edge"><title>Node1&#45;&gt;Node17</title>
<path fill="none" stroke="midnightblue" d="M27.416,-437.374C34.1977,-416.295 52.7899,-365.358 83,-333 84.1686,-331.748 85.4379,-330.55 86.7741,-329.409"/>
<polygon fill="midnightblue" stroke="midnightblue" points="88.8796,-332.205 94.9215,-323.502 84.7709,-326.538 88.8796,-332.205"/>
</g>
<!-- Node18 -->
<g id="node18" class="node"><title>Node18</title>
<g id="a_node18"><a xlink:href="mxm__std_8F90.html#af01a854e8d06cc1fc9b625419a7eaa72" target="_top" xlink:title="mxmf3_24">
<polygon fill="white" stroke="black" points="83,-266.5 83,-285.5 148,-285.5 148,-266.5 83,-266.5"/>
<text text-anchor="middle" x="115.5" y="-273.5" font-family="Helvetica,sans-Serif" font-size="10.00">mxmf3_24</text>
</a>
</g>
</g>
<!-- Node1&#45;&gt;Node18 -->
<g id="edge17" class="edge"><title>Node1&#45;&gt;Node18</title>
<path fill="none" stroke="midnightblue" d="M25.9761,-437.355C30.3558,-411.551 45.3955,-339.853 83,-295 83.854,-293.981 84.7773,-293.003 85.753,-292.065"/>
<polygon fill="midnightblue" stroke="midnightblue" points="88.2361,-294.567 93.9785,-285.664 83.937,-289.043 88.2361,-294.567"/>
</g>
<!-- Node19 -->
<g id="node19" class="node"><title>Node19</title>
<g id="a_node19"><a xlink:href="mxm__std_8F90.html#a3b004b0340796c5e758b31fe99bc2ede" target="_top" xlink:title="mxmf3_3">
<polygon fill="white" stroke="black" points="86,-228.5 86,-247.5 145,-247.5 145,-228.5 86,-228.5"/>
<text text-anchor="middle" x="115.5" y="-235.5" font-family="Helvetica,sans-Serif" font-size="10.00">mxmf3_3</text>
</a>
</g>
</g>
<!-- Node1&#45;&gt;Node19 -->
<g id="edge18" class="edge"><title>Node1&#45;&gt;Node19</title>
<path fill="none" stroke="midnightblue" d="M25.0974,-437.2C27.3932,-407.118 37.9439,-314.653 83,-257 83.8185,-255.953 84.7121,-254.95 85.6632,-253.992"/>
<polygon fill="midnightblue" stroke="midnightblue" points="88.1541,-256.482 93.7872,-247.509 83.7878,-251.011 88.1541,-256.482"/>
</g>
<!-- Node20 -->
<g id="node20" class="node"><title>Node20</title>
<g id="a_node20"><a xlink:href="mxm__std_8F90.html#a9c885435643866fdad6652894168641f" target="_top" xlink:title="mxmf3_4">
<polygon fill="white" stroke="black" points="86,-190.5 86,-209.5 145,-209.5 145,-190.5 86,-190.5"/>
<text text-anchor="middle" x="115.5" y="-197.5" font-family="Helvetica,sans-Serif" font-size="10.00">mxmf3_4</text>
</a>
</g>
</g>
<!-- Node1&#45;&gt;Node20 -->
<g id="edge19" class="edge"><title>Node1&#45;&gt;Node20</title>
<path fill="none" stroke="midnightblue" d="M24.4795,-437.227C24.8886,-403.448 30.3139,-289.821 83,-219 83.7719,-217.962 84.6188,-216.97 85.524,-216.022"/>
<polygon fill="midnightblue" stroke="midnightblue" points="87.8171,-218.668 93.3272,-209.619 83.3765,-213.257 87.8171,-218.668"/>
</g>
<!-- Node21 -->
<g id="node21" class="node"><title>Node21</title>
<g id="a_node21"><a xlink:href="mxm__std_8F90.html#a1fdea8bd3a81506027772f018bf5f660" target="_top" xlink:title="mxmf3_5">
<polygon fill="white" stroke="black" points="86,-152.5 86,-171.5 145,-171.5 145,-152.5 86,-152.5"/>
<text text-anchor="middle" x="115.5" y="-159.5" font-family="Helvetica,sans-Serif" font-size="10.00">mxmf3_5</text>
</a>
</g>
</g>
<!-- Node1&#45;&gt;Node21 -->
<g id="edge20" class="edge"><title>Node1&#45;&gt;Node21</title>
<path fill="none" stroke="midnightblue" d="M24.0392,-437.463C22.7417,-400.604 22.5041,-265.335 83,-181 83.7538,-179.949 84.5855,-178.946 85.4779,-177.989"/>
<polygon fill="midnightblue" stroke="midnightblue" points="87.7753,-180.63 93.2274,-171.546 83.3002,-175.248 87.7753,-180.63"/>
</g>
<!-- Node22 -->
<g id="node22" class="node"><title>Node22</title>
<g id="a_node22"><a xlink:href="mxm__std_8F90.html#a15444712f869fcfeebb2f6ceb13cdc5d" target="_top" xlink:title="mxmf3_6">
<polygon fill="white" stroke="black" points="86,-114.5 86,-133.5 145,-133.5 145,-114.5 86,-114.5"/>
<text text-anchor="middle" x="115.5" y="-121.5" font-family="Helvetica,sans-Serif" font-size="10.00">mxmf3_6</text>
</a>
</g>
</g>
<!-- Node1&#45;&gt;Node22 -->
<g id="edge21" class="edge"><title>Node1&#45;&gt;Node22</title>
<path fill="none" stroke="midnightblue" d="M25.3169,-437.199C29.348,-390.721 48.3308,-192.702 83,-143 83.6394,-142.083 84.3386,-141.203 85.0864,-140.359"/>
<polygon fill="midnightblue" stroke="midnightblue" points="87.5235,-142.88 92.8281,-133.708 82.962,-137.57 87.5235,-142.88"/>
</g>
<!-- Node23 -->
<g id="node23" class="node"><title>Node23</title>
<g id="a_node23"><a xlink:href="mxm__std_8F90.html#a94b31c3df512be5e86cd6b26d2cafbde" target="_top" xlink:title="mxmf3_7">
<polygon fill="white" stroke="black" points="86,-76.5 86,-95.5 145,-95.5 145,-76.5 86,-76.5"/>
<text text-anchor="middle" x="115.5" y="-83.5" font-family="Helvetica,sans-Serif" font-size="10.00">mxmf3_7</text>
</a>
</g>
</g>
<!-- Node1&#45;&gt;Node23 -->
<g id="edge22" class="edge"><title>Node1&#45;&gt;Node23</title>
<path fill="none" stroke="midnightblue" d="M25.0778,-437.332C28.2019,-387.693 44.3826,-161.601 83,-105 83.6299,-104.077 84.3209,-103.191 85.0616,-102.342"/>
<polygon fill="midnightblue" stroke="midnightblue" points="87.5007,-104.86 92.7678,-95.6667 82.9176,-99.5685 87.5007,-104.86"/>
</g>
<!-- Node24 -->
<g id="node24" class="node"><title>Node24</title>
<g id="a_node24"><a xlink:href="mxm__std_8F90.html#a76c3f134ec8c9af3dd2d6f1ec86769e7" target="_top" xlink:title="mxmf3_8">
<polygon fill="white" stroke="black" points="86,-38.5 86,-57.5 145,-57.5 145,-38.5 86,-38.5"/>
<text text-anchor="middle" x="115.5" y="-45.5" font-family="Helvetica,sans-Serif" font-size="10.00">mxmf3_8</text>
</a>
</g>
</g>
<!-- Node1&#45;&gt;Node24 -->
<g id="edge23" class="edge"><title>Node1&#45;&gt;Node24</title>
<path fill="none" stroke="midnightblue" d="M24.8951,-437.329C27.2144,-384.463 40.4532,-130.49 83,-67 83.6222,-66.0715 84.3065,-65.1812 85.0416,-64.3282"/>
<polygon fill="midnightblue" stroke="midnightblue" points="87.4822,-66.8438 92.7189,-57.6336 82.8816,-61.5679 87.4822,-66.8438"/>
</g>
<!-- Node25 -->
<g id="node25" class="node"><title>Node25</title>
<g id="a_node25"><a xlink:href="mxm__std_8F90.html#a2deb272c8c5cbf6f2b98bbecda447a78" target="_top" xlink:title="mxmf3_9">
<polygon fill="white" stroke="black" points="86,-0.5 86,-19.5 145,-19.5 145,-0.5 86,-0.5"/>
<text text-anchor="middle" x="115.5" y="-7.5" font-family="Helvetica,sans-Serif" font-size="10.00">mxmf3_9</text>
</a>
</g>
</g>
<!-- Node1&#45;&gt;Node25 -->
<g id="edge24" class="edge"><title>Node1&#45;&gt;Node25</title>
<path fill="none" stroke="midnightblue" d="M24.7406,-437.482C26.3039,-381.914 36.4683,-99.4758 83,-29 83.6158,-28.0673 84.2946,-27.1733 85.025,-26.3172"/>
<polygon fill="midnightblue" stroke="midnightblue" points="87.4668,-28.8311 92.6786,-19.6068 82.8519,-23.5676 87.4668,-28.8311"/>
</g>
</g>
</svg>
