<?xml version="1.0" encoding="UTF-8" standalone="no"?>
<!DOCTYPE svg PUBLIC "-//W3C//DTD SVG 1.1//EN"
 "http://www.w3.org/Graphics/SVG/1.1/DTD/svg11.dtd">
<!-- Generated by graphviz version 2.38.0 (20140413.2041)
 -->
<!-- Title: specmpn Pages: 1 -->
<!--zoomable 1168 -->
<svg id="main" version="1.1" xmlns="http://www.w3.org/2000/svg" xmlns:xlink="http://www.w3.org/1999/xlink" xml:space="preserve" onload="init(evt)">
<style type="text/css"><![CDATA[
.edge:hover path { stroke: red; }
.edge:hover polygon { stroke: red; fill: red; }
]]></style>
<script type="text/javascript"><![CDATA[
var edges = document.getElementsByTagName('g');
if (edges && edges.length) {
  for (var i=0;i<edges.length;i++) {
    if (edges[i].id.substr(0,4)=='edge') {
      edges[i].setAttribute('class','edge');
    }
  }
}
]]></script>
        <defs>
                <circle id="rim" cx="0" cy="0" r="7"/>
                <circle id="rim2" cx="0" cy="0" r="3.5"/>
                <g id="zoomPlus">
                        <use xlink:href="#rim" fill="#404040">
                                <set attributeName="fill" to="#808080" begin="zoomplus.mouseover" end="zoomplus.mouseout"/>
                        </use>
                        <path d="M-4,0h8M0,-4v8" fill="none" stroke="white" stroke-width="1.5" pointer-events="none"/>
                </g>
                <g id="zoomMin">
                        <use xlink:href="#rim" fill="#404040">
                                <set attributeName="fill" to="#808080" begin="zoomminus.mouseover" end="zoomminus.mouseout"/>
                        </use>
                        <path d="M-4,0h8" fill="none" stroke="white" stroke-width="1.5" pointer-events="none"/>
                </g>
                <g id="dirArrow">
                        <path fill="none" stroke="white" stroke-width="1.5" d="M0,-3.0v7 M-2.5,-0.5L0,-3.0L2.5,-0.5"/>
                </g>
               <g id="resetDef">
                       <use xlink:href="#rim2" fill="#404040">
                               <set attributeName="fill" to="#808080" begin="reset.mouseover" end="reset.mouseout"/>
                       </use>
               </g>
        </defs>

<script type="text/javascript">
var viewWidth = 390;
var viewHeight = 1168;
var sectionId = 'dynsection-26';
</script>
<script xlink:href="svgpan.js"/>
<svg id="graph" class="graph">
<g id="viewport">
<title>specmpn</title>
<polygon fill="white" stroke="none" points="-4,4 -4,-1164 386,-1164 386,4 -4,4"/>
<!-- Node1 -->
<g id="node1" class="node"><title>Node1</title>
<polygon fill="#bfbfbf" stroke="black" points="0,-912.5 0,-931.5 59,-931.5 59,-912.5 0,-912.5"/>
<text text-anchor="middle" x="29.5" y="-919.5" font-family="Helvetica,sans-Serif" font-size="10.00">specmpn</text>
</g>
<!-- Node2 -->
<g id="node2" class="node"><title>Node2</title>
<g id="a_node2"><a xlink:href="byte_8c.html#a2da8eeb074dfd3ffbfb3e9a4d301cda4" target="_top" xlink:title="exitt">
<polygon fill="white" stroke="black" points="96,-1026.5 96,-1045.5 132,-1045.5 132,-1026.5 96,-1026.5"/>
<text text-anchor="middle" x="114" y="-1033.5" font-family="Helvetica,sans-Serif" font-size="10.00">exitt</text>
</a>
</g>
</g>
<!-- Node1&#45;&gt;Node2 -->
<g id="edge1" class="edge"><title>Node1&#45;&gt;Node2</title>
<path fill="none" stroke="midnightblue" d="M37.5339,-931.72C51.3548,-950.818 82.2431,-993.5 99.9194,-1017.92"/>
<polygon fill="midnightblue" stroke="midnightblue" points="97.2858,-1020.26 105.984,-1026.31 102.957,-1016.15 97.2858,-1020.26"/>
</g>
<!-- Node12 -->
<g id="node12" class="node"><title>Node12</title>
<g id="a_node12"><a xlink:href="mxm__wrapper_8F90.html#ab9ec2260a10061af6ce1c52f3c8a41da" target="_top" xlink:title="Compute matrix&#45;matrix product C = A*B. ">
<polygon fill="white" stroke="black" points="95,-798.5 95,-817.5 133,-817.5 133,-798.5 95,-798.5"/>
<text text-anchor="middle" x="114" y="-805.5" font-family="Helvetica,sans-Serif" font-size="10.00">mxm</text>
</a>
</g>
</g>
<!-- Node1&#45;&gt;Node12 -->
<g id="edge11" class="edge"><title>Node1&#45;&gt;Node12</title>
<path fill="none" stroke="midnightblue" d="M37.5339,-912.28C51.3548,-893.182 82.2431,-850.5 99.9194,-826.075"/>
<polygon fill="midnightblue" stroke="midnightblue" points="102.957,-827.848 105.984,-817.695 97.2858,-823.744 102.957,-827.848"/>
</g>
<!-- Node3 -->
<g id="node3" class="node"><title>Node3</title>
<g id="a_node3"><a xlink:href="classctimer.html#abcecbc845c8ee72e13a19eaa30b80d77" target="_top" xlink:title="ctimer::dnekclock">
<polygon fill="white" stroke="black" points="169,-1140.5 169,-1159.5 266,-1159.5 266,-1140.5 169,-1140.5"/>
<text text-anchor="middle" x="217.5" y="-1147.5" font-family="Helvetica,sans-Serif" font-size="10.00">ctimer::dnekclock</text>
</a>
</g>
</g>
<!-- Node2&#45;&gt;Node3 -->
<g id="edge2" class="edge"><title>Node2&#45;&gt;Node3</title>
<path fill="none" stroke="midnightblue" d="M118.087,-1045.76C124.554,-1064.73 141.263,-1106.81 169,-1131 170.74,-1132.52 172.617,-1133.92 174.585,-1135.22"/>
<polygon fill="midnightblue" stroke="midnightblue" points="173.212,-1138.47 183.651,-1140.27 176.618,-1132.35 173.212,-1138.47"/>
</g>
<!-- Node5 -->
<g id="node5" class="node"><title>Node5</title>
<g id="a_node5"><a xlink:href="subs1_8F90.html#a339739b88994e5bb12bd923147f94983" target="_top" xlink:title="flush_io">
<polygon fill="white" stroke="black" points="191,-1102.5 191,-1121.5 244,-1121.5 244,-1102.5 191,-1102.5"/>
<text text-anchor="middle" x="217.5" y="-1109.5" font-family="Helvetica,sans-Serif" font-size="10.00">flush_io</text>
</a>
</g>
</g>
<!-- Node2&#45;&gt;Node5 -->
<g id="edge4" class="edge"><title>Node2&#45;&gt;Node5</title>
<path fill="none" stroke="midnightblue" d="M122.032,-1045.7C131.482,-1058.13 149.377,-1079.68 169,-1093 172.823,-1095.6 177.055,-1097.92 181.37,-1099.98"/>
<polygon fill="midnightblue" stroke="midnightblue" points="180.258,-1103.31 190.827,-1104.06 183.03,-1096.88 180.258,-1103.31"/>
</g>
<!-- Node6 -->
<g id="node6" class="node"><title>Node6</title>
<g id="a_node6"><a xlink:href="singlmesh_8F90.html#aef78ff219741b83c1ca784b869e9cacf" target="_top" xlink:title="Dummy for singlmesh. ">
<polygon fill="white" stroke="black" points="177.5,-1064.5 177.5,-1083.5 257.5,-1083.5 257.5,-1064.5 177.5,-1064.5"/>
<text text-anchor="middle" x="217.5" y="-1071.5" font-family="Helvetica,sans-Serif" font-size="10.00">happy_check</text>
</a>
</g>
</g>
<!-- Node2&#45;&gt;Node6 -->
<g id="edge5" class="edge"><title>Node2&#45;&gt;Node6</title>
<path fill="none" stroke="midnightblue" d="M132.218,-1042.45C145.646,-1047.47 164.742,-1054.62 181.363,-1060.85"/>
<polygon fill="midnightblue" stroke="midnightblue" points="180.209,-1064.15 190.801,-1064.38 182.663,-1057.59 180.209,-1064.15"/>
</g>
<!-- Node7 -->
<g id="node7" class="node"><title>Node7</title>
<g id="a_node7"><a xlink:href="mpi__dummy_8F90.html#a55e9a1619aadb638b14211ce21d7d566" target="_top" xlink:title="mpi_finalize">
<polygon fill="white" stroke="black" points="181.5,-1026.5 181.5,-1045.5 253.5,-1045.5 253.5,-1026.5 181.5,-1026.5"/>
<text text-anchor="middle" x="217.5" y="-1033.5" font-family="Helvetica,sans-Serif" font-size="10.00">mpi_finalize</text>
</a>
</g>
</g>
<!-- Node2&#45;&gt;Node7 -->
<g id="edge6" class="edge"><title>Node2&#45;&gt;Node7</title>
<path fill="none" stroke="midnightblue" d="M132.218,-1036C142.945,-1036 157.289,-1036 171.1,-1036"/>
<polygon fill="midnightblue" stroke="midnightblue" points="171.487,-1039.5 181.487,-1036 171.487,-1032.5 171.487,-1039.5"/>
</g>
<!-- Node8 -->
<g id="node8" class="node"><title>Node8</title>
<g id="a_node8"><a xlink:href="papi_8F90.html#a3a75ccdfbe05912fda48c3b134d114c0" target="_top" xlink:title="nek_flops">
<polygon fill="white" stroke="black" points="186.5,-988.5 186.5,-1007.5 248.5,-1007.5 248.5,-988.5 186.5,-988.5"/>
<text text-anchor="middle" x="217.5" y="-995.5" font-family="Helvetica,sans-Serif" font-size="10.00">nek_flops</text>
</a>
</g>
</g>
<!-- Node2&#45;&gt;Node8 -->
<g id="edge7" class="edge"><title>Node2&#45;&gt;Node8</title>
<path fill="none" stroke="midnightblue" d="M132.218,-1029.55C145.646,-1024.53 164.742,-1017.38 181.363,-1011.15"/>
<polygon fill="midnightblue" stroke="midnightblue" points="182.663,-1014.41 190.801,-1007.62 180.209,-1007.85 182.663,-1014.41"/>
</g>
<!-- Node10 -->
<g id="node10" class="node"><title>Node10</title>
<g id="a_node10"><a xlink:href="comm__mpi_8F90.html#a4acb4d8e379294232e9219bec063d8f3" target="_top" xlink:title="nekgsync">
<polygon fill="white" stroke="black" points="186.5,-950.5 186.5,-969.5 248.5,-969.5 248.5,-950.5 186.5,-950.5"/>
<text text-anchor="middle" x="217.5" y="-957.5" font-family="Helvetica,sans-Serif" font-size="10.00">nekgsync</text>
</a>
</g>
</g>
<!-- Node2&#45;&gt;Node10 -->
<g id="edge9" class="edge"><title>Node2&#45;&gt;Node10</title>
<path fill="none" stroke="midnightblue" d="M122.032,-1026.3C131.482,-1013.87 149.377,-992.323 169,-979 171.719,-977.154 174.644,-975.445 177.659,-973.871"/>
<polygon fill="midnightblue" stroke="midnightblue" points="179.29,-976.972 186.857,-969.557 176.317,-970.635 179.29,-976.972"/>
</g>
<!-- Node4 -->
<g id="node4" class="node"><title>Node4</title>
<g id="a_node4"><a xlink:href="mpi__dummy_8F90.html#ae6a5ef945f87c2c27849696b70f3af2a" target="_top" xlink:title="mpi_wtime">
<polygon fill="white" stroke="black" points="309,-1140.5 309,-1159.5 375,-1159.5 375,-1140.5 309,-1140.5"/>
<text text-anchor="middle" x="342" y="-1147.5" font-family="Helvetica,sans-Serif" font-size="10.00">mpi_wtime</text>
</a>
</g>
</g>
<!-- Node3&#45;&gt;Node4 -->
<g id="edge3" class="edge"><title>Node3&#45;&gt;Node4</title>
<path fill="none" stroke="midnightblue" d="M266.212,-1150C276.894,-1150 288.154,-1150 298.603,-1150"/>
<polygon fill="midnightblue" stroke="midnightblue" points="298.73,-1153.5 308.729,-1150 298.729,-1146.5 298.73,-1153.5"/>
</g>
<!-- Node9 -->
<g id="node9" class="node"><title>Node9</title>
<g id="a_node9"><a xlink:href="papi_8F90.html#a838be3d39e287e29002d5a68c6ad2dd8" target="_top" xlink:title="getflops_papi">
<polygon fill="white" stroke="black" points="302,-988.5 302,-1007.5 382,-1007.5 382,-988.5 302,-988.5"/>
<text text-anchor="middle" x="342" y="-995.5" font-family="Helvetica,sans-Serif" font-size="10.00">getflops_papi</text>
</a>
</g>
</g>
<!-- Node8&#45;&gt;Node9 -->
<g id="edge8" class="edge"><title>Node8&#45;&gt;Node9</title>
<path fill="none" stroke="midnightblue" d="M248.781,-998C261.666,-998 277.032,-998 291.491,-998"/>
<polygon fill="midnightblue" stroke="midnightblue" points="291.811,-1001.5 301.811,-998 291.811,-994.5 291.811,-1001.5"/>
</g>
<!-- Node11 -->
<g id="node11" class="node"><title>Node11</title>
<g id="a_node11"><a xlink:href="mpi__dummy_8F90.html#a070afe564196eb48413dbf1a9fbc99aa" target="_top" xlink:title="mpi_barrier">
<polygon fill="white" stroke="black" points="307,-950.5 307,-969.5 377,-969.5 377,-950.5 307,-950.5"/>
<text text-anchor="middle" x="342" y="-957.5" font-family="Helvetica,sans-Serif" font-size="10.00">mpi_barrier</text>
</a>
</g>
</g>
<!-- Node10&#45;&gt;Node11 -->
<g id="edge10" class="edge"><title>Node10&#45;&gt;Node11</title>
<path fill="none" stroke="midnightblue" d="M248.781,-960C263.195,-960 280.714,-960 296.594,-960"/>
<polygon fill="midnightblue" stroke="midnightblue" points="296.745,-963.5 306.745,-960 296.745,-956.5 296.745,-963.5"/>
</g>
<!-- Node13 -->
<g id="node13" class="node"><title>Node13</title>
<g id="a_node13"><a xlink:href="mxm__std_8F90.html#ac63fe7516a18dc57dfe913ad2c1453be" target="_top" xlink:title="mxm44_0">
<polygon fill="white" stroke="black" points="311,-912.5 311,-931.5 373,-931.5 373,-912.5 311,-912.5"/>
<text text-anchor="middle" x="342" y="-919.5" font-family="Helvetica,sans-Serif" font-size="10.00">mxm44_0</text>
</a>
</g>
</g>
<!-- Node12&#45;&gt;Node13 -->
<g id="edge12" class="edge"><title>Node12&#45;&gt;Node13</title>
<path fill="none" stroke="midnightblue" d="M117.308,-817.539C122.631,-837.274 137.779,-882.457 169,-903 208.228,-928.812 263.673,-930.187 300.909,-927.343"/>
<polygon fill="midnightblue" stroke="midnightblue" points="301.253,-930.827 310.9,-926.446 300.627,-923.855 301.253,-930.827"/>
</g>
<!-- Node14 -->
<g id="node14" class="node"><title>Node14</title>
<g id="a_node14"><a xlink:href="mxm__std_8F90.html#af07f4b22fdc3488ca321736743f14b01" target="_top" xlink:title="mxm44_2">
<polygon fill="white" stroke="black" points="186.5,-874.5 186.5,-893.5 248.5,-893.5 248.5,-874.5 186.5,-874.5"/>
<text text-anchor="middle" x="217.5" y="-881.5" font-family="Helvetica,sans-Serif" font-size="10.00">mxm44_2</text>
</a>
</g>
</g>
<!-- Node12&#45;&gt;Node14 -->
<g id="edge13" class="edge"><title>Node12&#45;&gt;Node14</title>
<path fill="none" stroke="midnightblue" d="M122.032,-817.697C131.482,-830.132 149.377,-851.677 169,-865 171.719,-866.846 174.644,-868.555 177.659,-870.129"/>
<polygon fill="midnightblue" stroke="midnightblue" points="176.317,-873.365 186.857,-874.443 179.29,-867.028 176.317,-873.365"/>
</g>
<!-- Node15 -->
<g id="node15" class="node"><title>Node15</title>
<g id="a_node15"><a xlink:href="mxm__bgq_8F90.html#a8a70163b4dbfdbfcce7bff170597fcad" target="_top" xlink:title="mxm_bgq_10">
<polygon fill="white" stroke="black" points="177.5,-836.5 177.5,-855.5 257.5,-855.5 257.5,-836.5 177.5,-836.5"/>
<text text-anchor="middle" x="217.5" y="-843.5" font-family="Helvetica,sans-Serif" font-size="10.00">mxm_bgq_10</text>
</a>
</g>
</g>
<!-- Node12&#45;&gt;Node15 -->
<g id="edge14" class="edge"><title>Node12&#45;&gt;Node15</title>
<path fill="none" stroke="midnightblue" d="M133.146,-814.794C146.462,-819.779 164.972,-826.709 181.168,-832.772"/>
<polygon fill="midnightblue" stroke="midnightblue" points="180.293,-836.182 190.885,-836.41 182.747,-829.626 180.293,-836.182"/>
</g>
<!-- Node16 -->
<g id="node16" class="node"><title>Node16</title>
<g id="a_node16"><a xlink:href="mxm__bgq_8F90.html#a27529ace9834454b8906f29e02718629" target="_top" xlink:title="mxm_bgq_12">
<polygon fill="white" stroke="black" points="177.5,-798.5 177.5,-817.5 257.5,-817.5 257.5,-798.5 177.5,-798.5"/>
<text text-anchor="middle" x="217.5" y="-805.5" font-family="Helvetica,sans-Serif" font-size="10.00">mxm_bgq_12</text>
</a>
</g>
</g>
<!-- Node12&#45;&gt;Node16 -->
<g id="edge15" class="edge"><title>Node12&#45;&gt;Node16</title>
<path fill="none" stroke="midnightblue" d="M133.146,-808C142.769,-808 155.103,-808 167.316,-808"/>
<polygon fill="midnightblue" stroke="midnightblue" points="167.484,-811.5 177.484,-808 167.484,-804.5 167.484,-811.5"/>
</g>
<!-- Node17 -->
<g id="node17" class="node"><title>Node17</title>
<g id="a_node17"><a xlink:href="mxm__bgq_8F90.html#a3fda9ea4bc7a5713a19d6939fa2b541f" target="_top" xlink:title="mxm_bgq_16">
<polygon fill="white" stroke="black" points="177.5,-760.5 177.5,-779.5 257.5,-779.5 257.5,-760.5 177.5,-760.5"/>
<text text-anchor="middle" x="217.5" y="-767.5" font-family="Helvetica,sans-Serif" font-size="10.00">mxm_bgq_16</text>
</a>
</g>
</g>
<!-- Node12&#45;&gt;Node17 -->
<g id="edge16" class="edge"><title>Node12&#45;&gt;Node17</title>
<path fill="none" stroke="midnightblue" d="M133.146,-801.206C146.462,-796.221 164.972,-789.291 181.168,-783.228"/>
<polygon fill="midnightblue" stroke="midnightblue" points="182.747,-786.374 190.885,-779.59 180.293,-779.818 182.747,-786.374"/>
</g>
<!-- Node18 -->
<g id="node18" class="node"><title>Node18</title>
<g id="a_node18"><a xlink:href="mxm__bgq_8F90.html#af192c3c8b982aa5bbc2a757156718a91" target="_top" xlink:title="mxm_bgq_6">
<polygon fill="white" stroke="black" points="180.5,-722.5 180.5,-741.5 254.5,-741.5 254.5,-722.5 180.5,-722.5"/>
<text text-anchor="middle" x="217.5" y="-729.5" font-family="Helvetica,sans-Serif" font-size="10.00">mxm_bgq_6</text>
</a>
</g>
</g>
<!-- Node12&#45;&gt;Node18 -->
<g id="edge17" class="edge"><title>Node12&#45;&gt;Node18</title>
<path fill="none" stroke="midnightblue" d="M122.032,-798.303C131.482,-785.868 149.377,-764.323 169,-751 171.719,-749.154 174.644,-747.445 177.659,-745.871"/>
<polygon fill="midnightblue" stroke="midnightblue" points="179.29,-748.972 186.857,-741.557 176.317,-742.635 179.29,-748.972"/>
</g>
<!-- Node19 -->
<g id="node19" class="node"><title>Node19</title>
<g id="a_node19"><a xlink:href="mxm__bgq_8F90.html#a8faaef428336095704ece51624bbfe92" target="_top" xlink:title="mxm_bgq_8">
<polygon fill="white" stroke="black" points="180.5,-684.5 180.5,-703.5 254.5,-703.5 254.5,-684.5 180.5,-684.5"/>
<text text-anchor="middle" x="217.5" y="-691.5" font-family="Helvetica,sans-Serif" font-size="10.00">mxm_bgq_8</text>
</a>
</g>
</g>
<!-- Node12&#45;&gt;Node19 -->
<g id="edge18" class="edge"><title>Node12&#45;&gt;Node19</title>
<path fill="none" stroke="midnightblue" d="M118.087,-798.239C124.554,-779.274 141.263,-737.191 169,-713 170.74,-711.482 172.617,-710.077 174.585,-708.776"/>
<polygon fill="midnightblue" stroke="midnightblue" points="176.618,-711.65 183.651,-703.726 173.212,-705.535 176.618,-711.65"/>
</g>
<!-- Node20 -->
<g id="node20" class="node"><title>Node20</title>
<g id="a_node20"><a xlink:href="mxm__std_8F90.html#aa9e8685c4a72f18fb5d1ee88ed17a3d6" target="_top" xlink:title="unrolled loop version ">
<polygon fill="white" stroke="black" points="194,-475.5 194,-494.5 241,-494.5 241,-475.5 194,-475.5"/>
<text text-anchor="middle" x="217.5" y="-482.5" font-family="Helvetica,sans-Serif" font-size="10.00">mxmf2</text>
</a>
</g>
</g>
<!-- Node12&#45;&gt;Node20 -->
<g id="edge19" class="edge"><title>Node12&#45;&gt;Node20</title>
<path fill="none" stroke="midnightblue" d="M118.038,-798.333C132.134,-753.476 191.292,-565.218 210.47,-504.187"/>
<polygon fill="midnightblue" stroke="midnightblue" points="213.815,-505.218 213.474,-494.629 207.137,-503.12 213.815,-505.218"/>
</g>
<!-- Node20&#45;&gt;Node13 -->
<g id="edge44" class="edge"><title>Node20&#45;&gt;Node13</title>
<path fill="none" stroke="midnightblue" d="M221.282,-494.82C229.136,-522.792 251.827,-605.365 266,-675 286.461,-775.528 240.979,-820.532 302,-903 302.781,-904.056 303.637,-905.056 304.553,-906.003"/>
<polygon fill="midnightblue" stroke="midnightblue" points="302.512,-908.85 312.54,-912.271 306.834,-903.343 302.512,-908.85"/>
</g>
<!-- Node21 -->
<g id="node21" class="node"><title>Node21</title>
<g id="a_node21"><a xlink:href="mxm__std_8F90.html#a7d3ac03517b3934b98857b22f7f78788" target="_top" xlink:title="mxf1">
<polygon fill="white" stroke="black" points="322.5,-874.5 322.5,-893.5 361.5,-893.5 361.5,-874.5 322.5,-874.5"/>
<text text-anchor="middle" x="342" y="-881.5" font-family="Helvetica,sans-Serif" font-size="10.00">mxf1</text>
</a>
</g>
</g>
<!-- Node20&#45;&gt;Node21 -->
<g id="edge20" class="edge"><title>Node20&#45;&gt;Node21</title>
<path fill="none" stroke="midnightblue" d="M221.174,-494.843C228.745,-522.875 250.761,-605.59 266,-675 284.43,-758.948 249.825,-796.702 302,-865 304.986,-868.909 308.987,-872.06 313.291,-874.586"/>
<polygon fill="midnightblue" stroke="midnightblue" points="311.793,-877.749 322.321,-878.933 314.829,-871.442 311.793,-877.749"/>
</g>
<!-- Node22 -->
<g id="node22" class="node"><title>Node22</title>
<g id="a_node22"><a xlink:href="mxm__std_8F90.html#a5786b175fcbe28ecafe1d878687c3ccf" target="_top" xlink:title="mxf10">
<polygon fill="white" stroke="black" points="319.5,-836.5 319.5,-855.5 364.5,-855.5 364.5,-836.5 319.5,-836.5"/>
<text text-anchor="middle" x="342" y="-843.5" font-family="Helvetica,sans-Serif" font-size="10.00">mxf10</text>
</a>
</g>
</g>
<!-- Node20&#45;&gt;Node22 -->
<g id="edge21" class="edge"><title>Node20&#45;&gt;Node22</title>
<path fill="none" stroke="midnightblue" d="M221.016,-494.879C228.169,-523.008 249.193,-605.953 266,-675 282.419,-742.455 258.616,-772.8 302,-827 304.35,-829.936 307.268,-832.45 310.441,-834.594"/>
<polygon fill="midnightblue" stroke="midnightblue" points="308.782,-837.676 319.228,-839.444 312.164,-831.547 308.782,-837.676"/>
</g>
<!-- Node23 -->
<g id="node23" class="node"><title>Node23</title>
<g id="a_node23"><a xlink:href="mxm__std_8F90.html#a244c7a41b5b7a22acba71c34552c2774" target="_top" xlink:title="mxf11">
<polygon fill="white" stroke="black" points="319.5,-798.5 319.5,-817.5 364.5,-817.5 364.5,-798.5 319.5,-798.5"/>
<text text-anchor="middle" x="342" y="-805.5" font-family="Helvetica,sans-Serif" font-size="10.00">mxf11</text>
</a>
</g>
</g>
<!-- Node20&#45;&gt;Node23 -->
<g id="edge22" class="edge"><title>Node20&#45;&gt;Node23</title>
<path fill="none" stroke="midnightblue" d="M220.921,-494.684C233.587,-545.238 292.038,-776.997 302,-789 304.402,-791.894 307.351,-794.382 310.542,-796.512"/>
<polygon fill="midnightblue" stroke="midnightblue" points="308.895,-799.601 319.345,-801.349 312.266,-793.466 308.895,-799.601"/>
</g>
<!-- Node24 -->
<g id="node24" class="node"><title>Node24</title>
<g id="a_node24"><a xlink:href="mxm__std_8F90.html#afb2e2cde9040ab037e3586b0deef3851" target="_top" xlink:title="mxf12">
<polygon fill="white" stroke="black" points="319.5,-760.5 319.5,-779.5 364.5,-779.5 364.5,-760.5 319.5,-760.5"/>
<text text-anchor="middle" x="342" y="-767.5" font-family="Helvetica,sans-Serif" font-size="10.00">mxf12</text>
</a>
</g>
</g>
<!-- Node20&#45;&gt;Node24 -->
<g id="edge23" class="edge"><title>Node20&#45;&gt;Node24</title>
<path fill="none" stroke="midnightblue" d="M220.43,-494.504C229.228,-537.073 266.63,-709.917 302,-751 304.454,-753.85 307.435,-756.312 310.643,-758.427"/>
<polygon fill="midnightblue" stroke="midnightblue" points="309.009,-761.523 319.462,-763.249 312.367,-755.381 309.009,-761.523"/>
</g>
<!-- Node25 -->
<g id="node25" class="node"><title>Node25</title>
<g id="a_node25"><a xlink:href="mxm__std_8F90.html#a6a048a62b47a5c2327279e158c1689df" target="_top" xlink:title="mxf13">
<polygon fill="white" stroke="black" points="319.5,-722.5 319.5,-741.5 364.5,-741.5 364.5,-722.5 319.5,-722.5"/>
<text text-anchor="middle" x="342" y="-729.5" font-family="Helvetica,sans-Serif" font-size="10.00">mxf13</text>
</a>
</g>
</g>
<!-- Node20&#45;&gt;Node25 -->
<g id="edge24" class="edge"><title>Node20&#45;&gt;Node25</title>
<path fill="none" stroke="midnightblue" d="M219.456,-494.535C223.329,-528.488 240.708,-645.096 302,-713 304.394,-715.652 307.24,-717.974 310.288,-719.996"/>
<polygon fill="midnightblue" stroke="midnightblue" points="308.762,-723.152 319.206,-724.931 312.151,-717.027 308.762,-723.152"/>
</g>
<!-- Node26 -->
<g id="node26" class="node"><title>Node26</title>
<g id="a_node26"><a xlink:href="mxm__std_8F90.html#a6e57628b882cb8bcac215e9a5b523eed" target="_top" xlink:title="mxf14">
<polygon fill="white" stroke="black" points="319.5,-684.5 319.5,-703.5 364.5,-703.5 364.5,-684.5 319.5,-684.5"/>
<text text-anchor="middle" x="342" y="-691.5" font-family="Helvetica,sans-Serif" font-size="10.00">mxf14</text>
</a>
</g>
</g>
<!-- Node20&#45;&gt;Node26 -->
<g id="edge25" class="edge"><title>Node20&#45;&gt;Node26</title>
<path fill="none" stroke="midnightblue" d="M220.274,-494.598C226.326,-524.883 248.808,-619.677 302,-675 304.476,-677.575 307.374,-679.849 310.452,-681.844"/>
<polygon fill="midnightblue" stroke="midnightblue" points="308.951,-685.012 319.403,-686.748 312.315,-678.873 308.951,-685.012"/>
</g>
<!-- Node27 -->
<g id="node27" class="node"><title>Node27</title>
<g id="a_node27"><a xlink:href="mxm__std_8F90.html#a02e79201be026faf756be00e58334c4f" target="_top" xlink:title="mxf15">
<polygon fill="white" stroke="black" points="319.5,-646.5 319.5,-665.5 364.5,-665.5 364.5,-646.5 319.5,-646.5"/>
<text text-anchor="middle" x="342" y="-653.5" font-family="Helvetica,sans-Serif" font-size="10.00">mxf15</text>
</a>
</g>
</g>
<!-- Node20&#45;&gt;Node27 -->
<g id="edge26" class="edge"><title>Node20&#45;&gt;Node27</title>
<path fill="none" stroke="midnightblue" d="M221.545,-494.851C230.127,-521.167 256.863,-594.023 302,-637 304.531,-639.41 307.426,-641.571 310.47,-643.493"/>
<polygon fill="midnightblue" stroke="midnightblue" points="308.809,-646.574 319.264,-648.29 312.161,-640.429 308.809,-646.574"/>
</g>
<!-- Node28 -->
<g id="node28" class="node"><title>Node28</title>
<g id="a_node28"><a xlink:href="mxm__std_8F90.html#a2fbea6eeadc258673ba8ea5708593aee" target="_top" xlink:title="mxf16">
<polygon fill="white" stroke="black" points="319.5,-608.5 319.5,-627.5 364.5,-627.5 364.5,-608.5 319.5,-608.5"/>
<text text-anchor="middle" x="342" y="-615.5" font-family="Helvetica,sans-Serif" font-size="10.00">mxf16</text>
</a>
</g>
</g>
<!-- Node20&#45;&gt;Node28 -->
<g id="edge27" class="edge"><title>Node20&#45;&gt;Node28</title>
<path fill="none" stroke="midnightblue" d="M223.503,-494.783C234.86,-516.175 264.534,-567.7 302,-599 304.543,-601.125 307.364,-603.08 310.293,-604.862"/>
<polygon fill="midnightblue" stroke="midnightblue" points="308.766,-608.015 319.228,-609.682 312.089,-601.854 308.766,-608.015"/>
</g>
<!-- Node29 -->
<g id="node29" class="node"><title>Node29</title>
<g id="a_node29"><a xlink:href="mxm__std_8F90.html#a3829af481cd230e6aadef08feab9a278" target="_top" xlink:title="mxf17">
<polygon fill="white" stroke="black" points="319.5,-570.5 319.5,-589.5 364.5,-589.5 364.5,-570.5 319.5,-570.5"/>
<text text-anchor="middle" x="342" y="-577.5" font-family="Helvetica,sans-Serif" font-size="10.00">mxf17</text>
</a>
</g>
</g>
<!-- Node20&#45;&gt;Node29 -->
<g id="edge28" class="edge"><title>Node20&#45;&gt;Node29</title>
<path fill="none" stroke="midnightblue" d="M227.516,-494.85C242.072,-510.352 272.148,-540.758 302,-561 304.597,-562.761 307.381,-564.452 310.223,-566.049"/>
<polygon fill="midnightblue" stroke="midnightblue" points="308.854,-569.282 319.339,-570.801 312.09,-563.075 308.854,-569.282"/>
</g>
<!-- Node30 -->
<g id="node30" class="node"><title>Node30</title>
<g id="a_node30"><a xlink:href="mxm__std_8F90.html#a48ed8195cc978a87c005b3306a974894" target="_top" xlink:title="mxf18">
<polygon fill="white" stroke="black" points="319.5,-532.5 319.5,-551.5 364.5,-551.5 364.5,-532.5 319.5,-532.5"/>
<text text-anchor="middle" x="342" y="-539.5" font-family="Helvetica,sans-Serif" font-size="10.00">mxf18</text>
</a>
</g>
</g>
<!-- Node20&#45;&gt;Node30 -->
<g id="edge29" class="edge"><title>Node20&#45;&gt;Node30</title>
<path fill="none" stroke="midnightblue" d="M239.004,-494.541C258.79,-503.747 288.958,-517.785 311.358,-528.207"/>
<polygon fill="midnightblue" stroke="midnightblue" points="309.886,-531.383 320.429,-532.428 312.839,-525.036 309.886,-531.383"/>
</g>
<!-- Node31 -->
<g id="node31" class="node"><title>Node31</title>
<g id="a_node31"><a xlink:href="mxm__std_8F90.html#a28a9857286e11804e1a97875028ecb09" target="_top" xlink:title="mxf19">
<polygon fill="white" stroke="black" points="319.5,-494.5 319.5,-513.5 364.5,-513.5 364.5,-494.5 319.5,-494.5"/>
<text text-anchor="middle" x="342" y="-501.5" font-family="Helvetica,sans-Serif" font-size="10.00">mxf19</text>
</a>
</g>
</g>
<!-- Node20&#45;&gt;Node31 -->
<g id="edge30" class="edge"><title>Node20&#45;&gt;Node31</title>
<path fill="none" stroke="midnightblue" d="M241.254,-488.529C260.401,-491.499 287.987,-495.778 309.298,-499.083"/>
<polygon fill="midnightblue" stroke="midnightblue" points="308.773,-502.543 319.191,-500.617 309.846,-495.626 308.773,-502.543"/>
</g>
<!-- Node32 -->
<g id="node32" class="node"><title>Node32</title>
<g id="a_node32"><a xlink:href="mxm__std_8F90.html#acd223c583f3a9242fda7a1b8897b624d" target="_top" xlink:title="mxf2">
<polygon fill="white" stroke="black" points="322.5,-456.5 322.5,-475.5 361.5,-475.5 361.5,-456.5 322.5,-456.5"/>
<text text-anchor="middle" x="342" y="-463.5" font-family="Helvetica,sans-Serif" font-size="10.00">mxf2</text>
</a>
</g>
</g>
<!-- Node20&#45;&gt;Node32 -->
<g id="edge31" class="edge"><title>Node20&#45;&gt;Node32</title>
<path fill="none" stroke="midnightblue" d="M241.254,-481.471C261.352,-478.354 290.75,-473.794 312.426,-470.432"/>
<polygon fill="midnightblue" stroke="midnightblue" points="313.028,-473.881 322.373,-468.889 311.955,-466.963 313.028,-473.881"/>
</g>
<!-- Node33 -->
<g id="node33" class="node"><title>Node33</title>
<g id="a_node33"><a xlink:href="mxm__std_8F90.html#af60059bd60847f48acdf6461fefa3b22" target="_top" xlink:title="mxf20">
<polygon fill="white" stroke="black" points="319.5,-418.5 319.5,-437.5 364.5,-437.5 364.5,-418.5 319.5,-418.5"/>
<text text-anchor="middle" x="342" y="-425.5" font-family="Helvetica,sans-Serif" font-size="10.00">mxf20</text>
</a>
</g>
</g>
<!-- Node20&#45;&gt;Node33 -->
<g id="edge32" class="edge"><title>Node20&#45;&gt;Node33</title>
<path fill="none" stroke="midnightblue" d="M239.004,-475.459C258.79,-466.253 288.958,-452.215 311.358,-441.793"/>
<polygon fill="midnightblue" stroke="midnightblue" points="312.839,-444.964 320.429,-437.572 309.886,-438.617 312.839,-444.964"/>
</g>
<!-- Node34 -->
<g id="node34" class="node"><title>Node34</title>
<g id="a_node34"><a xlink:href="mxm__std_8F90.html#a825db174c5643aef5e4cdf57067ebbbb" target="_top" xlink:title="mxf21">
<polygon fill="white" stroke="black" points="319.5,-380.5 319.5,-399.5 364.5,-399.5 364.5,-380.5 319.5,-380.5"/>
<text text-anchor="middle" x="342" y="-387.5" font-family="Helvetica,sans-Serif" font-size="10.00">mxf21</text>
</a>
</g>
</g>
<!-- Node20&#45;&gt;Node34 -->
<g id="edge33" class="edge"><title>Node20&#45;&gt;Node34</title>
<path fill="none" stroke="midnightblue" d="M227.516,-475.15C242.072,-459.648 272.148,-429.242 302,-409 304.597,-407.239 307.381,-405.548 310.223,-403.951"/>
<polygon fill="midnightblue" stroke="midnightblue" points="312.09,-406.925 319.339,-399.199 308.854,-400.718 312.09,-406.925"/>
</g>
<!-- Node35 -->
<g id="node35" class="node"><title>Node35</title>
<g id="a_node35"><a xlink:href="mxm__std_8F90.html#a1f2059cb835b2818aef861f2f59a0a72" target="_top" xlink:title="mxf22">
<polygon fill="white" stroke="black" points="319.5,-342.5 319.5,-361.5 364.5,-361.5 364.5,-342.5 319.5,-342.5"/>
<text text-anchor="middle" x="342" y="-349.5" font-family="Helvetica,sans-Serif" font-size="10.00">mxf22</text>
</a>
</g>
</g>
<!-- Node20&#45;&gt;Node35 -->
<g id="edge34" class="edge"><title>Node20&#45;&gt;Node35</title>
<path fill="none" stroke="midnightblue" d="M223.503,-475.217C234.86,-453.825 264.534,-402.3 302,-371 304.543,-368.875 307.364,-366.92 310.293,-365.138"/>
<polygon fill="midnightblue" stroke="midnightblue" points="312.089,-368.146 319.228,-360.318 308.766,-361.985 312.089,-368.146"/>
</g>
<!-- Node36 -->
<g id="node36" class="node"><title>Node36</title>
<g id="a_node36"><a xlink:href="mxm__std_8F90.html#a3dc6491b8d44b702dbbb13a01f887c59" target="_top" xlink:title="mxf23">
<polygon fill="white" stroke="black" points="319.5,-304.5 319.5,-323.5 364.5,-323.5 364.5,-304.5 319.5,-304.5"/>
<text text-anchor="middle" x="342" y="-311.5" font-family="Helvetica,sans-Serif" font-size="10.00">mxf23</text>
</a>
</g>
</g>
<!-- Node20&#45;&gt;Node36 -->
<g id="edge35" class="edge"><title>Node20&#45;&gt;Node36</title>
<path fill="none" stroke="midnightblue" d="M221.545,-475.149C230.127,-448.833 256.863,-375.977 302,-333 304.531,-330.59 307.426,-328.429 310.47,-326.507"/>
<polygon fill="midnightblue" stroke="midnightblue" points="312.161,-329.571 319.264,-321.71 308.809,-323.426 312.161,-329.571"/>
</g>
<!-- Node37 -->
<g id="node37" class="node"><title>Node37</title>
<g id="a_node37"><a xlink:href="mxm__std_8F90.html#af0752c9a61343489900f8d812c6980ed" target="_top" xlink:title="mxf24">
<polygon fill="white" stroke="black" points="319.5,-266.5 319.5,-285.5 364.5,-285.5 364.5,-266.5 319.5,-266.5"/>
<text text-anchor="middle" x="342" y="-273.5" font-family="Helvetica,sans-Serif" font-size="10.00">mxf24</text>
</a>
</g>
</g>
<!-- Node20&#45;&gt;Node37 -->
<g id="edge36" class="edge"><title>Node20&#45;&gt;Node37</title>
<path fill="none" stroke="midnightblue" d="M220.274,-475.402C226.326,-445.117 248.808,-350.323 302,-295 304.476,-292.425 307.374,-290.151 310.452,-288.156"/>
<polygon fill="midnightblue" stroke="midnightblue" points="312.315,-291.127 319.403,-283.252 308.951,-284.988 312.315,-291.127"/>
</g>
<!-- Node38 -->
<g id="node38" class="node"><title>Node38</title>
<g id="a_node38"><a xlink:href="mxm__std_8F90.html#abff718a387aa354f77d0e8b0ffa98867" target="_top" xlink:title="mxf3">
<polygon fill="white" stroke="black" points="322.5,-228.5 322.5,-247.5 361.5,-247.5 361.5,-228.5 322.5,-228.5"/>
<text text-anchor="middle" x="342" y="-235.5" font-family="Helvetica,sans-Serif" font-size="10.00">mxf3</text>
</a>
</g>
</g>
<!-- Node20&#45;&gt;Node38 -->
<g id="edge37" class="edge"><title>Node20&#45;&gt;Node38</title>
<path fill="none" stroke="midnightblue" d="M219.456,-475.465C223.329,-441.512 240.708,-324.904 302,-257 305.151,-253.509 309.085,-250.591 313.232,-248.174"/>
<polygon fill="midnightblue" stroke="midnightblue" points="315,-251.205 322.432,-243.654 311.913,-244.922 315,-251.205"/>
</g>
<!-- Node39 -->
<g id="node39" class="node"><title>Node39</title>
<g id="a_node39"><a xlink:href="mxm__std_8F90.html#a2f4e4e1b4daebbd4d0580029d0f54016" target="_top" xlink:title="mxf4">
<polygon fill="white" stroke="black" points="322.5,-190.5 322.5,-209.5 361.5,-209.5 361.5,-190.5 322.5,-190.5"/>
<text text-anchor="middle" x="342" y="-197.5" font-family="Helvetica,sans-Serif" font-size="10.00">mxf4</text>
</a>
</g>
</g>
<!-- Node20&#45;&gt;Node39 -->
<g id="edge38" class="edge"><title>Node20&#45;&gt;Node39</title>
<path fill="none" stroke="midnightblue" d="M218.868,-475.486C220.793,-438.144 232.524,-299.698 302,-219 305.068,-215.436 308.96,-212.481 313.09,-210.049"/>
<polygon fill="midnightblue" stroke="midnightblue" points="314.858,-213.08 322.288,-205.528 311.77,-206.798 314.858,-213.08"/>
</g>
<!-- Node40 -->
<g id="node40" class="node"><title>Node40</title>
<g id="a_node40"><a xlink:href="mxm__std_8F90.html#a5a6d5c31350c601ba8327b75a72cba0a" target="_top" xlink:title="mxf5">
<polygon fill="white" stroke="black" points="322.5,-152.5 322.5,-171.5 361.5,-171.5 361.5,-152.5 322.5,-152.5"/>
<text text-anchor="middle" x="342" y="-159.5" font-family="Helvetica,sans-Serif" font-size="10.00">mxf5</text>
</a>
</g>
</g>
<!-- Node20&#45;&gt;Node40 -->
<g id="edge39" class="edge"><title>Node20&#45;&gt;Node40</title>
<path fill="none" stroke="midnightblue" d="M218.421,-475.285C218.594,-434.448 224.399,-274.497 302,-181 305.003,-177.381 308.862,-174.398 312.979,-171.955"/>
<polygon fill="midnightblue" stroke="midnightblue" points="314.746,-174.986 322.176,-167.433 311.658,-168.704 314.746,-174.986"/>
</g>
<!-- Node41 -->
<g id="node41" class="node"><title>Node41</title>
<g id="a_node41"><a xlink:href="mxm__std_8F90.html#a38a142edde1e72a918d280747a319f7a" target="_top" xlink:title="mxf6">
<polygon fill="white" stroke="black" points="322.5,-114.5 322.5,-133.5 361.5,-133.5 361.5,-114.5 322.5,-114.5"/>
<text text-anchor="middle" x="342" y="-121.5" font-family="Helvetica,sans-Serif" font-size="10.00">mxf6</text>
</a>
</g>
</g>
<!-- Node20&#45;&gt;Node41 -->
<g id="edge40" class="edge"><title>Node20&#45;&gt;Node41</title>
<path fill="none" stroke="midnightblue" d="M218.06,-475.301C216.59,-431.491 216.078,-249.587 302,-143 305.087,-139.17 309.138,-136.058 313.459,-133.546"/>
<polygon fill="midnightblue" stroke="midnightblue" points="314.997,-136.69 322.487,-129.197 311.959,-130.384 314.997,-136.69"/>
</g>
<!-- Node42 -->
<g id="node42" class="node"><title>Node42</title>
<g id="a_node42"><a xlink:href="mxm__std_8F90.html#a1919ea16c0a7b4e248e45e983c29d965" target="_top" xlink:title="mxf7">
<polygon fill="white" stroke="black" points="322.5,-76.5 322.5,-95.5 361.5,-95.5 361.5,-76.5 322.5,-76.5"/>
<text text-anchor="middle" x="342" y="-83.5" font-family="Helvetica,sans-Serif" font-size="10.00">mxf7</text>
</a>
</g>
</g>
<!-- Node20&#45;&gt;Node42 -->
<g id="edge41" class="edge"><title>Node20&#45;&gt;Node42</title>
<path fill="none" stroke="midnightblue" d="M219.494,-475.239C225.094,-421.89 254.162,-165.771 302,-105 305.043,-101.135 309.071,-98.0051 313.385,-95.4873"/>
<polygon fill="midnightblue" stroke="midnightblue" points="314.923,-98.6311 322.414,-91.1386 311.886,-92.3244 314.923,-98.6311"/>
</g>
<!-- Node43 -->
<g id="node43" class="node"><title>Node43</title>
<g id="a_node43"><a xlink:href="mxm__std_8F90.html#af4bd28930a9d674bbcad09ad75fa81ef" target="_top" xlink:title="mxf8">
<polygon fill="white" stroke="black" points="322.5,-38.5 322.5,-57.5 361.5,-57.5 361.5,-38.5 322.5,-38.5"/>
<text text-anchor="middle" x="342" y="-45.5" font-family="Helvetica,sans-Serif" font-size="10.00">mxf8</text>
</a>
</g>
</g>
<!-- Node20&#45;&gt;Node43 -->
<g id="edge42" class="edge"><title>Node20&#45;&gt;Node43</title>
<path fill="none" stroke="midnightblue" d="M219.269,-475.394C223.925,-419.325 249.889,-134.518 302,-67 305.006,-63.1059 309.016,-59.962 313.323,-57.4391"/>
<polygon fill="midnightblue" stroke="midnightblue" points="314.862,-60.5829 322.353,-53.0911 311.825,-54.2759 314.862,-60.5829"/>
</g>
<!-- Node44 -->
<g id="node44" class="node"><title>Node44</title>
<g id="a_node44"><a xlink:href="mxm__std_8F90.html#a8ab38e8d33e92444b748159b82759c27" target="_top" xlink:title="mxf9">
<polygon fill="white" stroke="black" points="322.5,-0.5 322.5,-19.5 361.5,-19.5 361.5,-0.5 322.5,-0.5"/>
<text text-anchor="middle" x="342" y="-7.5" font-family="Helvetica,sans-Serif" font-size="10.00">mxf9</text>
</a>
</g>
</g>
<!-- Node20&#45;&gt;Node44 -->
<g id="edge43" class="edge"><title>Node20&#45;&gt;Node44</title>
<path fill="none" stroke="midnightblue" d="M219.1,-475.309C222.937,-416.098 245.675,-103.203 302,-29 304.974,-25.0819 308.969,-21.9263 313.271,-19.3992"/>
<polygon fill="midnightblue" stroke="midnightblue" points="314.809,-22.5429 322.302,-15.0516 311.773,-16.2357 314.809,-22.5429"/>
</g>
</g>
</svg>
        <g id="navigator" transform="translate(0 0)" fill="#404254">
                <rect fill="#f2f5e9" fill-opacity="0.5" stroke="#606060" stroke-width=".5" x="0" y="0" width="60" height="60"/>
                <use id="zoomplus" xlink:href="#zoomPlus" x="17" y="9" onmousedown="handleZoom(evt,'in')"/>
                <use id="zoomminus" xlink:href="#zoomMin" x="42" y="9" onmousedown="handleZoom(evt,'out')"/>
                <use id="reset" xlink:href="#resetDef" x="30" y="36" onmousedown="handleReset()"/>
                <g id="arrowUp" xlink:href="#dirArrow" transform="translate(30 24)" onmousedown="handlePan(0,-1)">
                  <use xlink:href="#rim" fill="#404040">
                        <set attributeName="fill" to="#808080" begin="arrowUp.mouseover" end="arrowUp.mouseout"/>
                  </use>
                  <path fill="none" stroke="white" stroke-width="1.5" d="M0,-3.0v7 M-2.5,-0.5L0,-3.0L2.5,-0.5"/>
                </g>
                <g id="arrowRight" xlink:href="#dirArrow" transform="rotate(90) translate(36 -43)" onmousedown="handlePan(1,0)">
                  <use xlink:href="#rim" fill="#404040">
                        <set attributeName="fill" to="#808080" begin="arrowRight.mouseover" end="arrowRight.mouseout"/>
                  </use>
                  <path fill="none" stroke="white" stroke-width="1.5" d="M0,-3.0v7 M-2.5,-0.5L0,-3.0L2.5,-0.5"/>
                </g>
                <g id="arrowDown" xlink:href="#dirArrow" transform="rotate(180) translate(-30 -48)" onmousedown="handlePan(0,1)">
                  <use xlink:href="#rim" fill="#404040">
                        <set attributeName="fill" to="#808080" begin="arrowDown.mouseover" end="arrowDown.mouseout"/>
                  </use>
                  <path fill="none" stroke="white" stroke-width="1.5" d="M0,-3.0v7 M-2.5,-0.5L0,-3.0L2.5,-0.5"/>
                </g>
                <g id="arrowLeft" xlink:href="#dirArrow" transform="rotate(270) translate(-36 17)" onmousedown="handlePan(-1,0)">
                  <use xlink:href="#rim" fill="#404040">
                        <set attributeName="fill" to="#808080" begin="arrowLeft.mouseover" end="arrowLeft.mouseout"/>
                  </use>
                  <path fill="none" stroke="white" stroke-width="1.5" d="M0,-3.0v7 M-2.5,-0.5L0,-3.0L2.5,-0.5"/>
                </g>
        </g>
        <svg viewBox="0 0 15 15" width="100%" height="30px" preserveAspectRatio="xMaxYMin meet">
         <g id="arrow_out" transform="scale(0.3 0.3)">
          <a xlink:href="navier8_8F90_a5c307bcd1af1a0036e75f65db3d06e39_cgraph_org.svg" target="_base">
           <rect id="button" ry="5" rx="5" y="6" x="6" height="38" width="38"
                fill="#f2f5e9" fill-opacity="0.5" stroke="#606060" stroke-width="1.0"/>
           <path id="arrow"
             d="M 11.500037,31.436501 C 11.940474,20.09759 22.043105,11.32322 32.158766,21.979434 L 37.068811,17.246167 C 37.068811,17.246167 37.088388,32 37.088388,32 L 22.160133,31.978069 C 22.160133,31.978069 26.997745,27.140456 26.997745,27.140456 C 18.528582,18.264221 13.291696,25.230495 11.500037,31.436501 z"
             style="fill:#404040;"/>
          </a>
         </g>
        </svg>
</svg>
