<?xml version="1.0" encoding="UTF-8" standalone="no"?>
<!DOCTYPE svg PUBLIC "-//W3C//DTD SVG 1.1//EN"
 "http://www.w3.org/Graphics/SVG/1.1/DTD/svg11.dtd">
<!-- Generated by graphviz version 2.38.0 (20140413.2041)
 -->
<!-- Title: setvert3d Pages: 1 -->
<svg width="565pt" height="332pt"
 viewBox="0.00 0.00 565.00 332.00" xmlns="http://www.w3.org/2000/svg" xmlns:xlink="http://www.w3.org/1999/xlink">
<g id="graph0" class="graph" transform="scale(1 1) rotate(0) translate(4 328)">
<title>setvert3d</title>
<polygon fill="white" stroke="none" points="-4,4 -4,-328 561,-328 561,4 -4,4"/>
<!-- Node1 -->
<g id="node1" class="node"><title>Node1</title>
<polygon fill="#bfbfbf" stroke="black" points="0,-76.5 0,-95.5 61,-95.5 61,-76.5 0,-76.5"/>
<text text-anchor="middle" x="30.5" y="-83.5" font-family="Helvetica,sans-Serif" font-size="10.00">setvert3d</text>
</g>
<!-- Node2 -->
<g id="node2" class="node"><title>Node2</title>
<g id="a_node2"><a xlink:href="connect1_8F90.html#aa6d2ebf2dfdfeae458d41ef4cb6d9fae" target="_top" xlink:title="Set up arrays IXCN,ESKIP,SKPDAT,NEDG,NOFFST for new NX,NY,NZ. ">
<polygon fill="white" stroke="black" points="114.5,-152.5 114.5,-171.5 156.5,-171.5 156.5,-152.5 114.5,-152.5"/>
<text text-anchor="middle" x="135.5" y="-159.5" font-family="Helvetica,sans-Serif" font-size="10.00">dsset</text>
</a>
</g>
</g>
<!-- Node1&#45;&gt;Node2 -->
<g id="edge1" class="edge"><title>Node1&#45;&gt;Node2</title>
<path fill="none" stroke="midnightblue" d="M41.0814,-95.7065C53.3177,-107.767 75.4921,-128.52 97,-143 99.5806,-144.737 102.341,-146.423 105.151,-148.026"/>
<polygon fill="midnightblue" stroke="midnightblue" points="103.661,-151.198 114.13,-152.826 106.961,-145.025 103.661,-151.198"/>
</g>
<!-- Node3 -->
<g id="node3" class="node"><title>Node3</title>
<g id="a_node3"><a xlink:href="navier8_8F90.html#ad95667f017072090d261e5eaef823395" target="_top" xlink:title="Return a unique rank for each matched tuple set. Global. Balanced. tuple is destroyed. By &quot;balanced&quot; we mean that none of the tuple entries is likely to be much more uniquely populated than any other, so that any of the tuples can serve as an initial (parallel) sort key First two slots in tuple(:,i) assumed empty. ">
<polygon fill="white" stroke="black" points="97,-114.5 97,-133.5 174,-133.5 174,-114.5 97,-114.5"/>
<text text-anchor="middle" x="135.5" y="-121.5" font-family="Helvetica,sans-Serif" font-size="10.00">gbtuple_rank</text>
</a>
</g>
</g>
<!-- Node1&#45;&gt;Node3 -->
<g id="edge2" class="edge"><title>Node1&#45;&gt;Node3</title>
<path fill="none" stroke="midnightblue" d="M57.4912,-95.589C70.0557,-100.224 85.3301,-105.86 98.9523,-110.885"/>
<polygon fill="midnightblue" stroke="midnightblue" points="97.9237,-114.236 108.517,-114.414 100.347,-107.669 97.9237,-114.236"/>
</g>
<!-- Node16 -->
<g id="node16" class="node"><title>Node16</title>
<g id="a_node16"><a xlink:href="navier8_8F90.html#a05f99aec875f63f8db64d774836f2902" target="_top" xlink:title="Use Heap Sort (p 233 Num. Rec.), 5/26/93 pff. ">
<polygon fill="white" stroke="black" points="115.5,-76.5 115.5,-95.5 155.5,-95.5 155.5,-76.5 115.5,-76.5"/>
<text text-anchor="middle" x="135.5" y="-83.5" font-family="Helvetica,sans-Serif" font-size="10.00">irank</text>
</a>
</g>
</g>
<!-- Node1&#45;&gt;Node16 -->
<g id="edge16" class="edge"><title>Node1&#45;&gt;Node16</title>
<path fill="none" stroke="midnightblue" d="M61.0157,-86C74.8062,-86 91.1858,-86 104.977,-86"/>
<polygon fill="midnightblue" stroke="midnightblue" points="105.384,-89.5001 115.384,-86 105.384,-82.5001 105.384,-89.5001"/>
</g>
<!-- Node17 -->
<g id="node17" class="node"><title>Node17</title>
<g id="a_node17"><a xlink:href="math_8F90.html#a2add00098b77e54191b10eb6711193f6" target="_top" xlink:title="Use Heap Sort (p 231 Num. Rec., 1st Ed.) ">
<polygon fill="white" stroke="black" points="117,-38.5 117,-57.5 154,-57.5 154,-38.5 117,-38.5"/>
<text text-anchor="middle" x="135.5" y="-45.5" font-family="Helvetica,sans-Serif" font-size="10.00">isort</text>
</a>
</g>
</g>
<!-- Node1&#45;&gt;Node17 -->
<g id="edge17" class="edge"><title>Node1&#45;&gt;Node17</title>
<path fill="none" stroke="midnightblue" d="M57.4912,-76.411C72.744,-70.7838 91.9905,-63.6831 107.427,-57.9882"/>
<polygon fill="midnightblue" stroke="midnightblue" points="108.77,-61.2235 116.94,-54.4785 106.347,-54.6562 108.77,-61.2235"/>
</g>
<!-- Node18 -->
<g id="node18" class="node"><title>Node18</title>
<g id="a_node18"><a xlink:href="classparallel.html#ac36680315d0622d84df5d5baf3fb0acc" target="_top" xlink:title="parallel::lglel">
<polygon fill="white" stroke="black" points="98.5,-0.5 98.5,-19.5 172.5,-19.5 172.5,-0.5 98.5,-0.5"/>
<text text-anchor="middle" x="135.5" y="-7.5" font-family="Helvetica,sans-Serif" font-size="10.00">parallel::lglel</text>
</a>
</g>
</g>
<!-- Node1&#45;&gt;Node18 -->
<g id="edge18" class="edge"><title>Node1&#45;&gt;Node18</title>
<path fill="none" stroke="midnightblue" d="M41.0814,-76.2935C53.3177,-64.2333 75.4921,-43.4801 97,-29 99.3838,-27.3951 101.921,-25.8344 104.509,-24.3423"/>
<polygon fill="midnightblue" stroke="midnightblue" points="106.214,-27.3998 113.35,-19.5688 102.888,-21.2403 106.214,-27.3998"/>
</g>
<!-- Node4 -->
<g id="node4" class="node"><title>Node4</title>
<g id="a_node4"><a xlink:href="byte_8c.html#a2da8eeb074dfd3ffbfb3e9a4d301cda4" target="_top" xlink:title="exitt">
<polygon fill="white" stroke="black" points="241,-190.5 241,-209.5 277,-209.5 277,-190.5 241,-190.5"/>
<text text-anchor="middle" x="259" y="-197.5" font-family="Helvetica,sans-Serif" font-size="10.00">exitt</text>
</a>
</g>
</g>
<!-- Node3&#45;&gt;Node4 -->
<g id="edge3" class="edge"><title>Node3&#45;&gt;Node4</title>
<path fill="none" stroke="midnightblue" d="M156.604,-133.595C162.307,-136.475 168.467,-139.739 174,-143 195.906,-155.911 219.802,-172.375 236.486,-184.285"/>
<polygon fill="midnightblue" stroke="midnightblue" points="234.794,-187.38 244.955,-190.382 238.884,-181.699 234.794,-187.38"/>
</g>
<!-- Node14 -->
<g id="node14" class="node"><title>Node14</title>
<g id="a_node14"><a xlink:href="navier8_8F90.html#ab45afa33532528c978fbfcf44355bb28" target="_top" xlink:title="Compute rank of each unique entry a(1,i) Output: ind(i) i=1,...,n (global) rank of entry a(*...">
<polygon fill="white" stroke="black" points="225,-114.5 225,-133.5 293,-133.5 293,-114.5 225,-114.5"/>
<text text-anchor="middle" x="259" y="-121.5" font-family="Helvetica,sans-Serif" font-size="10.00">irank_vecn</text>
</a>
</g>
</g>
<!-- Node3&#45;&gt;Node14 -->
<g id="edge13" class="edge"><title>Node3&#45;&gt;Node14</title>
<path fill="none" stroke="midnightblue" d="M174.277,-124C187.03,-124 201.366,-124 214.523,-124"/>
<polygon fill="midnightblue" stroke="midnightblue" points="214.77,-127.5 224.769,-124 214.769,-120.5 214.77,-127.5"/>
</g>
<!-- Node15 -->
<g id="node15" class="node"><title>Node15</title>
<g id="a_node15"><a xlink:href="navier8_8F90.html#adcc31cd78dd8ff5e821a590c916e4506" target="_top" xlink:title="Use Heap Sort (p 231 Num. Rec., 1st Ed.) ">
<polygon fill="white" stroke="black" points="360,-76.5 360,-95.5 425,-95.5 425,-76.5 360,-76.5"/>
<text text-anchor="middle" x="392.5" y="-83.5" font-family="Helvetica,sans-Serif" font-size="10.00">ituple_sort</text>
</a>
</g>
</g>
<!-- Node3&#45;&gt;Node15 -->
<g id="edge15" class="edge"><title>Node3&#45;&gt;Node15</title>
<path fill="none" stroke="midnightblue" d="M169.199,-114.435C181.851,-111.028 196.511,-107.436 210,-105 257.39,-96.4433 312.488,-91.3495 349.436,-88.623"/>
<polygon fill="midnightblue" stroke="midnightblue" points="350.095,-92.085 359.822,-87.8837 349.598,-85.1026 350.095,-92.085"/>
</g>
<!-- Node5 -->
<g id="node5" class="node"><title>Node5</title>
<g id="a_node5"><a xlink:href="classctimer.html#abcecbc845c8ee72e13a19eaa30b80d77" target="_top" xlink:title="ctimer::dnekclock">
<polygon fill="white" stroke="black" points="344,-304.5 344,-323.5 441,-323.5 441,-304.5 344,-304.5"/>
<text text-anchor="middle" x="392.5" y="-311.5" font-family="Helvetica,sans-Serif" font-size="10.00">ctimer::dnekclock</text>
</a>
</g>
</g>
<!-- Node4&#45;&gt;Node5 -->
<g id="edge4" class="edge"><title>Node4&#45;&gt;Node5</title>
<path fill="none" stroke="midnightblue" d="M266.25,-209.69C278.847,-228.53 309.082,-270.405 344,-295 346.532,-296.784 349.256,-298.434 352.073,-299.954"/>
<polygon fill="midnightblue" stroke="midnightblue" points="350.732,-303.193 361.261,-304.371 353.764,-296.884 350.732,-303.193"/>
</g>
<!-- Node7 -->
<g id="node7" class="node"><title>Node7</title>
<g id="a_node7"><a xlink:href="subs1_8F90.html#a339739b88994e5bb12bd923147f94983" target="_top" xlink:title="flush_io">
<polygon fill="white" stroke="black" points="366,-266.5 366,-285.5 419,-285.5 419,-266.5 366,-266.5"/>
<text text-anchor="middle" x="392.5" y="-273.5" font-family="Helvetica,sans-Serif" font-size="10.00">flush_io</text>
</a>
</g>
</g>
<!-- Node4&#45;&gt;Node7 -->
<g id="edge6" class="edge"><title>Node4&#45;&gt;Node7</title>
<path fill="none" stroke="midnightblue" d="M272.273,-209.579C288.179,-221.694 317.075,-242.695 344,-257 347.99,-259.12 352.271,-261.148 356.568,-263.036"/>
<polygon fill="midnightblue" stroke="midnightblue" points="355.321,-266.308 365.897,-266.93 358.017,-259.848 355.321,-266.308"/>
</g>
<!-- Node8 -->
<g id="node8" class="node"><title>Node8</title>
<g id="a_node8"><a xlink:href="singlmesh_8F90.html#aef78ff219741b83c1ca784b869e9cacf" target="_top" xlink:title="Dummy for singlmesh. ">
<polygon fill="white" stroke="black" points="352.5,-228.5 352.5,-247.5 432.5,-247.5 432.5,-228.5 352.5,-228.5"/>
<text text-anchor="middle" x="392.5" y="-235.5" font-family="Helvetica,sans-Serif" font-size="10.00">happy_check</text>
</a>
</g>
</g>
<!-- Node4&#45;&gt;Node8 -->
<g id="edge7" class="edge"><title>Node4&#45;&gt;Node8</title>
<path fill="none" stroke="midnightblue" d="M277.191,-204.968C295.242,-210.184 324.324,-218.588 348.637,-225.614"/>
<polygon fill="midnightblue" stroke="midnightblue" points="347.794,-229.013 358.373,-228.427 349.737,-222.288 347.794,-229.013"/>
</g>
<!-- Node9 -->
<g id="node9" class="node"><title>Node9</title>
<g id="a_node9"><a xlink:href="mpi__dummy_8F90.html#a55e9a1619aadb638b14211ce21d7d566" target="_top" xlink:title="mpi_finalize">
<polygon fill="white" stroke="black" points="356.5,-190.5 356.5,-209.5 428.5,-209.5 428.5,-190.5 356.5,-190.5"/>
<text text-anchor="middle" x="392.5" y="-197.5" font-family="Helvetica,sans-Serif" font-size="10.00">mpi_finalize</text>
</a>
</g>
</g>
<!-- Node4&#45;&gt;Node9 -->
<g id="edge8" class="edge"><title>Node4&#45;&gt;Node9</title>
<path fill="none" stroke="midnightblue" d="M277.191,-200C294.596,-200 322.258,-200 346.01,-200"/>
<polygon fill="midnightblue" stroke="midnightblue" points="346.252,-203.5 356.252,-200 346.252,-196.5 346.252,-203.5"/>
</g>
<!-- Node10 -->
<g id="node10" class="node"><title>Node10</title>
<g id="a_node10"><a xlink:href="papi_8F90.html#a3a75ccdfbe05912fda48c3b134d114c0" target="_top" xlink:title="nek_flops">
<polygon fill="white" stroke="black" points="361.5,-152.5 361.5,-171.5 423.5,-171.5 423.5,-152.5 361.5,-152.5"/>
<text text-anchor="middle" x="392.5" y="-159.5" font-family="Helvetica,sans-Serif" font-size="10.00">nek_flops</text>
</a>
</g>
</g>
<!-- Node4&#45;&gt;Node10 -->
<g id="edge9" class="edge"><title>Node4&#45;&gt;Node10</title>
<path fill="none" stroke="midnightblue" d="M277.191,-195.032C295.976,-189.604 326.709,-180.723 351.579,-173.536"/>
<polygon fill="midnightblue" stroke="midnightblue" points="352.843,-176.814 361.478,-170.676 350.899,-170.089 352.843,-176.814"/>
</g>
<!-- Node12 -->
<g id="node12" class="node"><title>Node12</title>
<g id="a_node12"><a xlink:href="comm__mpi_8F90.html#a4acb4d8e379294232e9219bec063d8f3" target="_top" xlink:title="nekgsync">
<polygon fill="white" stroke="black" points="361.5,-114.5 361.5,-133.5 423.5,-133.5 423.5,-114.5 361.5,-114.5"/>
<text text-anchor="middle" x="392.5" y="-121.5" font-family="Helvetica,sans-Serif" font-size="10.00">nekgsync</text>
</a>
</g>
</g>
<!-- Node4&#45;&gt;Node12 -->
<g id="edge11" class="edge"><title>Node4&#45;&gt;Node12</title>
<path fill="none" stroke="midnightblue" d="M272.273,-190.421C288.179,-178.306 317.075,-157.305 344,-143 347.517,-141.131 351.26,-139.334 355.041,-137.641"/>
<polygon fill="midnightblue" stroke="midnightblue" points="356.574,-140.793 364.412,-133.665 353.84,-134.349 356.574,-140.793"/>
</g>
<!-- Node6 -->
<g id="node6" class="node"><title>Node6</title>
<g id="a_node6"><a xlink:href="mpi__dummy_8F90.html#ae6a5ef945f87c2c27849696b70f3af2a" target="_top" xlink:title="mpi_wtime">
<polygon fill="white" stroke="black" points="484,-304.5 484,-323.5 550,-323.5 550,-304.5 484,-304.5"/>
<text text-anchor="middle" x="517" y="-311.5" font-family="Helvetica,sans-Serif" font-size="10.00">mpi_wtime</text>
</a>
</g>
</g>
<!-- Node5&#45;&gt;Node6 -->
<g id="edge5" class="edge"><title>Node5&#45;&gt;Node6</title>
<path fill="none" stroke="midnightblue" d="M441.212,-314C451.894,-314 463.154,-314 473.603,-314"/>
<polygon fill="midnightblue" stroke="midnightblue" points="473.73,-317.5 483.729,-314 473.729,-310.5 473.73,-317.5"/>
</g>
<!-- Node11 -->
<g id="node11" class="node"><title>Node11</title>
<g id="a_node11"><a xlink:href="papi_8F90.html#a838be3d39e287e29002d5a68c6ad2dd8" target="_top" xlink:title="getflops_papi">
<polygon fill="white" stroke="black" points="477,-152.5 477,-171.5 557,-171.5 557,-152.5 477,-152.5"/>
<text text-anchor="middle" x="517" y="-159.5" font-family="Helvetica,sans-Serif" font-size="10.00">getflops_papi</text>
</a>
</g>
</g>
<!-- Node10&#45;&gt;Node11 -->
<g id="edge10" class="edge"><title>Node10&#45;&gt;Node11</title>
<path fill="none" stroke="midnightblue" d="M423.781,-162C436.666,-162 452.032,-162 466.491,-162"/>
<polygon fill="midnightblue" stroke="midnightblue" points="466.811,-165.5 476.811,-162 466.811,-158.5 466.811,-165.5"/>
</g>
<!-- Node13 -->
<g id="node13" class="node"><title>Node13</title>
<g id="a_node13"><a xlink:href="mpi__dummy_8F90.html#a070afe564196eb48413dbf1a9fbc99aa" target="_top" xlink:title="mpi_barrier">
<polygon fill="white" stroke="black" points="482,-114.5 482,-133.5 552,-133.5 552,-114.5 482,-114.5"/>
<text text-anchor="middle" x="517" y="-121.5" font-family="Helvetica,sans-Serif" font-size="10.00">mpi_barrier</text>
</a>
</g>
</g>
<!-- Node12&#45;&gt;Node13 -->
<g id="edge12" class="edge"><title>Node12&#45;&gt;Node13</title>
<path fill="none" stroke="midnightblue" d="M423.781,-124C438.195,-124 455.714,-124 471.594,-124"/>
<polygon fill="midnightblue" stroke="midnightblue" points="471.745,-127.5 481.745,-124 471.745,-120.5 471.745,-127.5"/>
</g>
<!-- Node14&#45;&gt;Node15 -->
<g id="edge14" class="edge"><title>Node14&#45;&gt;Node15</title>
<path fill="none" stroke="midnightblue" d="M293.183,-114.411C310.388,-109.439 331.573,-103.317 349.866,-98.031"/>
<polygon fill="midnightblue" stroke="midnightblue" points="351.053,-101.331 359.688,-95.1927 349.11,-94.6065 351.053,-101.331"/>
</g>
<!-- Node19 -->
<g id="node19" class="node"><title>Node19</title>
<g id="a_node19"><a xlink:href="classmesh.html#a8b6a250925cdc576e3ff6f7b18dc88c4" target="_top" xlink:title="mesh::xyz_to_ieg">
<polygon fill="white" stroke="black" points="210,-0.5 210,-19.5 308,-19.5 308,-0.5 210,-0.5"/>
<text text-anchor="middle" x="259" y="-7.5" font-family="Helvetica,sans-Serif" font-size="10.00">mesh::xyz_to_ieg</text>
</a>
</g>
</g>
<!-- Node18&#45;&gt;Node19 -->
<g id="edge19" class="edge"><title>Node18&#45;&gt;Node19</title>
<path fill="none" stroke="midnightblue" d="M172.625,-10C181.062,-10 190.261,-10 199.396,-10"/>
<polygon fill="midnightblue" stroke="midnightblue" points="199.638,-13.5001 209.638,-10 199.638,-6.5001 199.638,-13.5001"/>
</g>
</g>
</svg>
