<?xml version="1.0" encoding="UTF-8" standalone="no"?>
<!DOCTYPE svg PUBLIC "-//W3C//DTD SVG 1.1//EN"
 "http://www.w3.org/Graphics/SVG/1.1/DTD/svg11.dtd">
<!-- Generated by graphviz version 2.38.0 (20140413.2041)
 -->
<!-- Title: get_vert_map Pages: 1 -->
<!--zoomable 465 -->
<svg id="main" version="1.1" xmlns="http://www.w3.org/2000/svg" xmlns:xlink="http://www.w3.org/1999/xlink" xml:space="preserve" onload="init(evt)">
<style type="text/css"><![CDATA[
.edge:hover path { stroke: red; }
.edge:hover polygon { stroke: red; fill: red; }
]]></style>
<script type="text/javascript"><![CDATA[
var edges = document.getElementsByTagName('g');
if (edges && edges.length) {
  for (var i=0;i<edges.length;i++) {
    if (edges[i].id.substr(0,4)=='edge') {
      edges[i].setAttribute('class','edge');
    }
  }
}
]]></script>
        <defs>
                <circle id="rim" cx="0" cy="0" r="7"/>
                <circle id="rim2" cx="0" cy="0" r="3.5"/>
                <g id="zoomPlus">
                        <use xlink:href="#rim" fill="#404040">
                                <set attributeName="fill" to="#808080" begin="zoomplus.mouseover" end="zoomplus.mouseout"/>
                        </use>
                        <path d="M-4,0h8M0,-4v8" fill="none" stroke="white" stroke-width="1.5" pointer-events="none"/>
                </g>
                <g id="zoomMin">
                        <use xlink:href="#rim" fill="#404040">
                                <set attributeName="fill" to="#808080" begin="zoomminus.mouseover" end="zoomminus.mouseout"/>
                        </use>
                        <path d="M-4,0h8" fill="none" stroke="white" stroke-width="1.5" pointer-events="none"/>
                </g>
                <g id="dirArrow">
                        <path fill="none" stroke="white" stroke-width="1.5" d="M0,-3.0v7 M-2.5,-0.5L0,-3.0L2.5,-0.5"/>
                </g>
               <g id="resetDef">
                       <use xlink:href="#rim2" fill="#404040">
                               <set attributeName="fill" to="#808080" begin="reset.mouseover" end="reset.mouseout"/>
                       </use>
               </g>
        </defs>

<script type="text/javascript">
var viewWidth = 493;
var viewHeight = 465;
var sectionId = 'dynsection-10';
</script>
<script xlink:href="svgpan.js"/>
<svg id="graph" class="graph">
<g id="viewport">
<title>get_vert_map</title>
<polygon fill="white" stroke="none" points="-4,4 -4,-461 489,-461 489,4 -4,4"/>
<!-- Node1 -->
<g id="node1" class="node"><title>Node1</title>
<polygon fill="#bfbfbf" stroke="black" points="0,-209.5 0,-228.5 82,-228.5 82,-209.5 0,-209.5"/>
<text text-anchor="middle" x="41" y="-216.5" font-family="Helvetica,sans-Serif" font-size="10.00">get_vert_map</text>
</g>
<!-- Node2 -->
<g id="node2" class="node"><title>Node2</title>
<g id="a_node2"><a xlink:href="comm__mpi_8F90.html#ae425c1deb2e82d2007c97e1c4be990c8" target="_top" xlink:title="bcast">
<polygon fill="white" stroke="black" points="147.5,-437.5 147.5,-456.5 188.5,-456.5 188.5,-437.5 147.5,-437.5"/>
<text text-anchor="middle" x="168" y="-444.5" font-family="Helvetica,sans-Serif" font-size="10.00">bcast</text>
</a>
</g>
</g>
<!-- Node1&#45;&gt;Node2 -->
<g id="edge1" class="edge"><title>Node1&#45;&gt;Node2</title>
<path fill="none" stroke="midnightblue" d="M42.755,-228.801C45.7927,-261.585 59.9267,-368.686 118,-428 123.354,-433.468 130.459,-437.393 137.594,-440.198"/>
<polygon fill="midnightblue" stroke="midnightblue" points="136.586,-443.551 147.18,-443.37 138.785,-436.906 136.586,-443.551"/>
</g>
<!-- Node4 -->
<g id="node4" class="node"><title>Node4</title>
<g id="a_node4"><a xlink:href="math_8F90.html#a692155d1d2ec380a9fdb2d81ef221625" target="_top" xlink:title="blank a string ">
<polygon fill="white" stroke="black" points="147.5,-399.5 147.5,-418.5 188.5,-418.5 188.5,-399.5 147.5,-399.5"/>
<text text-anchor="middle" x="168" y="-406.5" font-family="Helvetica,sans-Serif" font-size="10.00">blank</text>
</a>
</g>
</g>
<!-- Node1&#45;&gt;Node4 -->
<g id="edge3" class="edge"><title>Node1&#45;&gt;Node4</title>
<path fill="none" stroke="midnightblue" d="M43.619,-228.61C48.9231,-257.209 68.372,-342.714 118,-390 123.541,-395.279 130.71,-399.138 137.847,-401.942"/>
<polygon fill="midnightblue" stroke="midnightblue" points="136.809,-405.285 147.403,-405.144 139.033,-398.648 136.809,-405.285"/>
</g>
<!-- Node5 -->
<g id="node5" class="node"><title>Node5</title>
<g id="a_node5"><a xlink:href="math_8F90.html#ad7fb480cea001849621405f37167aab1" target="_top" xlink:title="chcopy">
<polygon fill="white" stroke="black" points="143,-361.5 143,-380.5 193,-380.5 193,-361.5 143,-361.5"/>
<text text-anchor="middle" x="168" y="-368.5" font-family="Helvetica,sans-Serif" font-size="10.00">chcopy</text>
</a>
</g>
</g>
<!-- Node1&#45;&gt;Node5 -->
<g id="edge4" class="edge"><title>Node1&#45;&gt;Node5</title>
<path fill="none" stroke="midnightblue" d="M45.0441,-228.852C53.0362,-253.164 76.8847,-316.605 118,-352 122.518,-355.89 127.923,-359.032 133.466,-361.554"/>
<polygon fill="midnightblue" stroke="midnightblue" points="132.208,-364.82 142.795,-365.237 134.779,-358.309 132.208,-364.82"/>
</g>
<!-- Node6 -->
<g id="node6" class="node"><title>Node6</title>
<g id="a_node6"><a xlink:href="byte_8c.html#a2da8eeb074dfd3ffbfb3e9a4d301cda4" target="_top" xlink:title="exitt">
<polygon fill="white" stroke="black" points="150,-285.5 150,-304.5 186,-304.5 186,-285.5 150,-285.5"/>
<text text-anchor="middle" x="168" y="-292.5" font-family="Helvetica,sans-Serif" font-size="10.00">exitt</text>
</a>
</g>
</g>
<!-- Node1&#45;&gt;Node6 -->
<g id="edge5" class="edge"><title>Node1&#45;&gt;Node6</title>
<path fill="none" stroke="midnightblue" d="M57.8313,-228.625C79.2458,-241.645 117.643,-264.991 142.718,-280.236"/>
<polygon fill="midnightblue" stroke="midnightblue" points="140.934,-283.248 151.297,-285.453 144.571,-277.267 140.934,-283.248"/>
</g>
<!-- Node14 -->
<g id="node14" class="node"><title>Node14</title>
<g id="a_node14"><a xlink:href="comm__mpi_8F90.html#a4acb4d8e379294232e9219bec063d8f3" target="_top" xlink:title="nekgsync">
<polygon fill="white" stroke="black" points="271.5,-209.5 271.5,-228.5 333.5,-228.5 333.5,-209.5 271.5,-209.5"/>
<text text-anchor="middle" x="302.5" y="-216.5" font-family="Helvetica,sans-Serif" font-size="10.00">nekgsync</text>
</a>
</g>
</g>
<!-- Node1&#45;&gt;Node14 -->
<g id="edge30" class="edge"><title>Node1&#45;&gt;Node14</title>
<path fill="none" stroke="midnightblue" d="M82.2622,-219C130.937,-219 212.372,-219 261.106,-219"/>
<polygon fill="midnightblue" stroke="midnightblue" points="261.279,-222.5 271.279,-219 261.279,-215.5 261.279,-222.5"/>
</g>
<!-- Node16 -->
<g id="node16" class="node"><title>Node16</title>
<g id="a_node16"><a xlink:href="comm__mpi_8F90.html#a7c71e890279f4933a841a2d97c7de4bd" target="_top" xlink:title="exitt0">
<polygon fill="white" stroke="black" points="147,-323.5 147,-342.5 189,-342.5 189,-323.5 147,-323.5"/>
<text text-anchor="middle" x="168" y="-330.5" font-family="Helvetica,sans-Serif" font-size="10.00">exitt0</text>
</a>
</g>
</g>
<!-- Node1&#45;&gt;Node16 -->
<g id="edge15" class="edge"><title>Node1&#45;&gt;Node16</title>
<path fill="none" stroke="midnightblue" d="M47.4007,-228.752C58.3523,-247.703 84.9627,-289.761 118,-314 123.733,-318.207 130.517,-321.613 137.181,-324.316"/>
<polygon fill="midnightblue" stroke="midnightblue" points="136.127,-327.657 146.721,-327.785 138.519,-321.079 136.127,-327.657"/>
</g>
<!-- Node17 -->
<g id="node17" class="node"><title>Node17</title>
<g id="a_node17"><a xlink:href="classparallel.html#a9a8fe6b8e5cb33426f1ebc5d75ae256f" target="_top" xlink:title="parallel::gllel">
<polygon fill="white" stroke="black" points="265.5,-95.5 265.5,-114.5 339.5,-114.5 339.5,-95.5 265.5,-95.5"/>
<text text-anchor="middle" x="302.5" y="-102.5" font-family="Helvetica,sans-Serif" font-size="10.00">parallel::gllel</text>
</a>
</g>
</g>
<!-- Node1&#45;&gt;Node17 -->
<g id="edge18" class="edge"><title>Node1&#45;&gt;Node17</title>
<path fill="none" stroke="midnightblue" d="M44.9494,-209.294C52.5832,-186.117 75.4267,-127.785 118,-105 160.286,-82.3694 216.297,-86.3557 255.267,-93.4799"/>
<polygon fill="midnightblue" stroke="midnightblue" points="254.797,-96.9544 265.284,-95.4482 256.147,-90.0857 254.797,-96.9544"/>
</g>
<!-- Node18 -->
<g id="node18" class="node"><title>Node18</title>
<g id="a_node18"><a xlink:href="classmesh.html#a383626b86a123c489b00681fcb13d503" target="_top" xlink:title="mesh::ieg_to_xyz">
<polygon fill="white" stroke="black" points="387,-133.5 387,-152.5 485,-152.5 485,-133.5 387,-133.5"/>
<text text-anchor="middle" x="436" y="-140.5" font-family="Helvetica,sans-Serif" font-size="10.00">mesh::ieg_to_xyz</text>
</a>
</g>
</g>
<!-- Node1&#45;&gt;Node18 -->
<g id="edge22" class="edge"><title>Node1&#45;&gt;Node18</title>
<path fill="none" stroke="midnightblue" d="M82.0988,-212.132C141.124,-201.902 254.813,-181.742 351,-162 361.877,-159.768 373.513,-157.231 384.551,-154.756"/>
<polygon fill="midnightblue" stroke="midnightblue" points="385.501,-158.129 394.482,-152.509 383.956,-151.302 385.501,-158.129"/>
</g>
<!-- Node19 -->
<g id="node19" class="node"><title>Node19</title>
<g id="a_node19"><a xlink:href="classparallel.html#a07e279fd1cc6f4e9189bcaad37a0d3b6" target="_top" xlink:title="parallel::gllnid">
<polygon fill="white" stroke="black" points="262.5,-133.5 262.5,-152.5 342.5,-152.5 342.5,-133.5 262.5,-133.5"/>
<text text-anchor="middle" x="302.5" y="-140.5" font-family="Helvetica,sans-Serif" font-size="10.00">parallel::gllnid</text>
</a>
</g>
</g>
<!-- Node1&#45;&gt;Node19 -->
<g id="edge20" class="edge"><title>Node1&#45;&gt;Node19</title>
<path fill="none" stroke="midnightblue" d="M61.3071,-209.467C76.4482,-202.275 98.2006,-192.559 118,-186 162.574,-171.233 214.838,-159.509 252.163,-152.058"/>
<polygon fill="midnightblue" stroke="midnightblue" points="253.138,-155.433 262.276,-150.07 251.788,-148.564 253.138,-155.433"/>
</g>
<!-- Node20 -->
<g id="node20" class="node"><title>Node20</title>
<g id="a_node20"><a xlink:href="classparallel.html#a4ec9d2a0bf252d26709cff49bdf4b277" target="_top" xlink:title="parallel::init_gllnid">
<polygon fill="white" stroke="black" points="118,-114.5 118,-133.5 218,-133.5 218,-114.5 118,-114.5"/>
<text text-anchor="middle" x="168" y="-121.5" font-family="Helvetica,sans-Serif" font-size="10.00">parallel::init_gllnid</text>
</a>
</g>
</g>
<!-- Node1&#45;&gt;Node20 -->
<g id="edge23" class="edge"><title>Node1&#45;&gt;Node20</title>
<path fill="none" stroke="midnightblue" d="M50.5968,-209.307C63.9437,-194.667 90.941,-166.648 118,-148 123.097,-144.488 128.784,-141.205 134.428,-138.263"/>
<polygon fill="midnightblue" stroke="midnightblue" points="136.354,-141.216 143.775,-133.654 133.258,-134.937 136.354,-141.216"/>
</g>
<!-- Node21 -->
<g id="node21" class="node"><title>Node21</title>
<g id="a_node21"><a xlink:href="classparallel.html#ac36680315d0622d84df5d5baf3fb0acc" target="_top" xlink:title="parallel::lglel">
<polygon fill="white" stroke="black" points="265.5,-57.5 265.5,-76.5 339.5,-76.5 339.5,-57.5 265.5,-57.5"/>
<text text-anchor="middle" x="302.5" y="-64.5" font-family="Helvetica,sans-Serif" font-size="10.00">parallel::lglel</text>
</a>
</g>
</g>
<!-- Node1&#45;&gt;Node21 -->
<g id="edge28" class="edge"><title>Node1&#45;&gt;Node21</title>
<path fill="none" stroke="midnightblue" d="M44.12,-209.302C50.3122,-183.56 70.987,-113.406 118,-83 158.671,-56.6958 215.452,-55.9169 255.041,-59.6668"/>
<polygon fill="midnightblue" stroke="midnightblue" points="254.901,-63.1719 265.219,-60.7656 255.653,-56.2123 254.901,-63.1719"/>
</g>
<!-- Node23 -->
<g id="node23" class="node"><title>Node23</title>
<g id="a_node23"><a xlink:href="classstring.html#a788cdffdfd5841a6e4117c4b8e80da77" target="_top" xlink:title="string::ltrunc">
<polygon fill="white" stroke="black" points="131.5,-0.5 131.5,-19.5 204.5,-19.5 204.5,-0.5 131.5,-0.5"/>
<text text-anchor="middle" x="168" y="-7.5" font-family="Helvetica,sans-Serif" font-size="10.00">string::ltrunc</text>
</a>
</g>
</g>
<!-- Node1&#45;&gt;Node23 -->
<g id="edge29" class="edge"><title>Node1&#45;&gt;Node23</title>
<path fill="none" stroke="midnightblue" d="M43.5045,-209.245C48.5841,-179.342 67.685,-87.7321 118,-34 121.383,-30.3872 125.426,-27.2495 129.719,-24.5432"/>
<polygon fill="midnightblue" stroke="midnightblue" points="131.672,-27.4638 138.751,-19.5806 128.301,-21.3289 131.672,-27.4638"/>
</g>
<!-- Node3 -->
<g id="node3" class="node"><title>Node3</title>
<g id="a_node3"><a xlink:href="mpi__dummy_8F90.html#ae0bd4baaea848988f45664ce0de33350" target="_top" xlink:title="mpi_bcast">
<polygon fill="white" stroke="black" points="270.5,-437.5 270.5,-456.5 334.5,-456.5 334.5,-437.5 270.5,-437.5"/>
<text text-anchor="middle" x="302.5" y="-444.5" font-family="Helvetica,sans-Serif" font-size="10.00">mpi_bcast</text>
</a>
</g>
</g>
<!-- Node2&#45;&gt;Node3 -->
<g id="edge2" class="edge"><title>Node2&#45;&gt;Node3</title>
<path fill="none" stroke="midnightblue" d="M188.551,-447C207.3,-447 236.203,-447 260.077,-447"/>
<polygon fill="midnightblue" stroke="midnightblue" points="260.296,-450.5 270.296,-447 260.296,-443.5 260.296,-450.5"/>
</g>
<!-- Node7 -->
<g id="node7" class="node"><title>Node7</title>
<g id="a_node7"><a xlink:href="classctimer.html#abcecbc845c8ee72e13a19eaa30b80d77" target="_top" xlink:title="ctimer::dnekclock">
<polygon fill="white" stroke="black" points="254,-323.5 254,-342.5 351,-342.5 351,-323.5 254,-323.5"/>
<text text-anchor="middle" x="302.5" y="-330.5" font-family="Helvetica,sans-Serif" font-size="10.00">ctimer::dnekclock</text>
</a>
</g>
</g>
<!-- Node6&#45;&gt;Node7 -->
<g id="edge6" class="edge"><title>Node6&#45;&gt;Node7</title>
<path fill="none" stroke="midnightblue" d="M186.051,-299.89C204.234,-305.105 233.746,-313.569 258.379,-320.633"/>
<polygon fill="midnightblue" stroke="midnightblue" points="257.664,-324.069 268.241,-323.462 259.593,-317.34 257.664,-324.069"/>
</g>
<!-- Node9 -->
<g id="node9" class="node"><title>Node9</title>
<g id="a_node9"><a xlink:href="subs1_8F90.html#a339739b88994e5bb12bd923147f94983" target="_top" xlink:title="flush_io">
<polygon fill="white" stroke="black" points="276,-361.5 276,-380.5 329,-380.5 329,-361.5 276,-361.5"/>
<text text-anchor="middle" x="302.5" y="-368.5" font-family="Helvetica,sans-Serif" font-size="10.00">flush_io</text>
</a>
</g>
</g>
<!-- Node6&#45;&gt;Node9 -->
<g id="edge8" class="edge"><title>Node6&#45;&gt;Node9</title>
<path fill="none" stroke="midnightblue" d="M186.227,-299.618C196.053,-302.741 208.303,-307.491 218,-314 237.316,-326.966 234.753,-338.932 254,-352 257.823,-354.596 262.055,-356.921 266.37,-358.979"/>
<polygon fill="midnightblue" stroke="midnightblue" points="265.258,-362.311 275.827,-363.058 268.03,-355.884 265.258,-362.311"/>
</g>
<!-- Node10 -->
<g id="node10" class="node"><title>Node10</title>
<g id="a_node10"><a xlink:href="singlmesh_8F90.html#aef78ff219741b83c1ca784b869e9cacf" target="_top" xlink:title="Dummy for singlmesh. ">
<polygon fill="white" stroke="black" points="262.5,-285.5 262.5,-304.5 342.5,-304.5 342.5,-285.5 262.5,-285.5"/>
<text text-anchor="middle" x="302.5" y="-292.5" font-family="Helvetica,sans-Serif" font-size="10.00">happy_check</text>
</a>
</g>
</g>
<!-- Node6&#45;&gt;Node10 -->
<g id="edge9" class="edge"><title>Node6&#45;&gt;Node10</title>
<path fill="none" stroke="midnightblue" d="M186.051,-295C202.733,-295 228.951,-295 252.188,-295"/>
<polygon fill="midnightblue" stroke="midnightblue" points="252.268,-298.5 262.268,-295 252.268,-291.5 252.268,-298.5"/>
</g>
<!-- Node11 -->
<g id="node11" class="node"><title>Node11</title>
<g id="a_node11"><a xlink:href="mpi__dummy_8F90.html#a55e9a1619aadb638b14211ce21d7d566" target="_top" xlink:title="mpi_finalize">
<polygon fill="white" stroke="black" points="266.5,-399.5 266.5,-418.5 338.5,-418.5 338.5,-399.5 266.5,-399.5"/>
<text text-anchor="middle" x="302.5" y="-406.5" font-family="Helvetica,sans-Serif" font-size="10.00">mpi_finalize</text>
</a>
</g>
</g>
<!-- Node6&#45;&gt;Node11 -->
<g id="edge10" class="edge"><title>Node6&#45;&gt;Node11</title>
<path fill="none" stroke="midnightblue" d="M186.144,-298.282C196.429,-301.003 209.181,-305.798 218,-314 245.369,-339.454 226.767,-364.401 254,-390 255.63,-391.532 257.399,-392.947 259.264,-394.252"/>
<polygon fill="midnightblue" stroke="midnightblue" points="257.52,-397.287 267.922,-399.301 261.047,-391.24 257.52,-397.287"/>
</g>
<!-- Node12 -->
<g id="node12" class="node"><title>Node12</title>
<g id="a_node12"><a xlink:href="papi_8F90.html#a3a75ccdfbe05912fda48c3b134d114c0" target="_top" xlink:title="nek_flops">
<polygon fill="white" stroke="black" points="271.5,-247.5 271.5,-266.5 333.5,-266.5 333.5,-247.5 271.5,-247.5"/>
<text text-anchor="middle" x="302.5" y="-254.5" font-family="Helvetica,sans-Serif" font-size="10.00">nek_flops</text>
</a>
</g>
</g>
<!-- Node6&#45;&gt;Node12 -->
<g id="edge11" class="edge"><title>Node6&#45;&gt;Node12</title>
<path fill="none" stroke="midnightblue" d="M186.051,-290.11C205.056,-284.66 236.435,-275.66 261.686,-268.418"/>
<polygon fill="midnightblue" stroke="midnightblue" points="262.727,-271.761 271.374,-265.64 260.797,-265.032 262.727,-271.761"/>
</g>
<!-- Node6&#45;&gt;Node14 -->
<g id="edge13" class="edge"><title>Node6&#45;&gt;Node14</title>
<path fill="none" stroke="midnightblue" d="M181.438,-285.434C197.555,-273.334 226.815,-252.347 254,-238 257.522,-236.141 261.268,-234.35 265.051,-232.661"/>
<polygon fill="midnightblue" stroke="midnightblue" points="266.583,-235.813 274.425,-228.689 263.852,-229.368 266.583,-235.813"/>
</g>
<!-- Node8 -->
<g id="node8" class="node"><title>Node8</title>
<g id="a_node8"><a xlink:href="mpi__dummy_8F90.html#ae6a5ef945f87c2c27849696b70f3af2a" target="_top" xlink:title="mpi_wtime">
<polygon fill="white" stroke="black" points="403,-323.5 403,-342.5 469,-342.5 469,-323.5 403,-323.5"/>
<text text-anchor="middle" x="436" y="-330.5" font-family="Helvetica,sans-Serif" font-size="10.00">mpi_wtime</text>
</a>
</g>
</g>
<!-- Node7&#45;&gt;Node8 -->
<g id="edge7" class="edge"><title>Node7&#45;&gt;Node8</title>
<path fill="none" stroke="midnightblue" d="M351.347,-333C364.906,-333 379.565,-333 392.767,-333"/>
<polygon fill="midnightblue" stroke="midnightblue" points="392.993,-336.5 402.993,-333 392.993,-329.5 392.993,-336.5"/>
</g>
<!-- Node13 -->
<g id="node13" class="node"><title>Node13</title>
<g id="a_node13"><a xlink:href="papi_8F90.html#a838be3d39e287e29002d5a68c6ad2dd8" target="_top" xlink:title="getflops_papi">
<polygon fill="white" stroke="black" points="396,-247.5 396,-266.5 476,-266.5 476,-247.5 396,-247.5"/>
<text text-anchor="middle" x="436" y="-254.5" font-family="Helvetica,sans-Serif" font-size="10.00">getflops_papi</text>
</a>
</g>
</g>
<!-- Node12&#45;&gt;Node13 -->
<g id="edge12" class="edge"><title>Node12&#45;&gt;Node13</title>
<path fill="none" stroke="midnightblue" d="M333.669,-257C349.135,-257 368.36,-257 385.895,-257"/>
<polygon fill="midnightblue" stroke="midnightblue" points="385.982,-260.5 395.982,-257 385.982,-253.5 385.982,-260.5"/>
</g>
<!-- Node15 -->
<g id="node15" class="node"><title>Node15</title>
<g id="a_node15"><a xlink:href="mpi__dummy_8F90.html#a070afe564196eb48413dbf1a9fbc99aa" target="_top" xlink:title="mpi_barrier">
<polygon fill="white" stroke="black" points="401,-209.5 401,-228.5 471,-228.5 471,-209.5 401,-209.5"/>
<text text-anchor="middle" x="436" y="-216.5" font-family="Helvetica,sans-Serif" font-size="10.00">mpi_barrier</text>
</a>
</g>
</g>
<!-- Node14&#45;&gt;Node15 -->
<g id="edge14" class="edge"><title>Node14&#45;&gt;Node15</title>
<path fill="none" stroke="midnightblue" d="M333.669,-219C350.559,-219 371.933,-219 390.691,-219"/>
<polygon fill="midnightblue" stroke="midnightblue" points="390.799,-222.5 400.799,-219 390.799,-215.5 390.799,-222.5"/>
</g>
<!-- Node16&#45;&gt;Node9 -->
<g id="edge16" class="edge"><title>Node16&#45;&gt;Node9</title>
<path fill="none" stroke="midnightblue" d="M189.124,-338.771C209.485,-344.611 241.386,-353.76 266.005,-360.82"/>
<polygon fill="midnightblue" stroke="midnightblue" points="265.139,-364.213 275.717,-363.606 267.069,-357.484 265.139,-364.213"/>
</g>
<!-- Node16&#45;&gt;Node11 -->
<g id="edge17" class="edge"><title>Node16&#45;&gt;Node11</title>
<path fill="none" stroke="midnightblue" d="M189.051,-338.54C198.328,-341.647 209.212,-346.101 218,-352 237.316,-364.966 234.753,-376.932 254,-390 256.719,-391.846 259.644,-393.555 262.659,-395.129"/>
<polygon fill="midnightblue" stroke="midnightblue" points="261.317,-398.365 271.857,-399.443 264.29,-392.028 261.317,-398.365"/>
</g>
<!-- Node17&#45;&gt;Node18 -->
<g id="edge19" class="edge"><title>Node17&#45;&gt;Node18</title>
<path fill="none" stroke="midnightblue" d="M336.683,-114.589C353.503,-119.449 374.126,-125.409 392.134,-130.613"/>
<polygon fill="midnightblue" stroke="midnightblue" points="391.249,-134 401.828,-133.414 393.192,-127.275 391.249,-134"/>
</g>
<!-- Node19&#45;&gt;Node18 -->
<g id="edge21" class="edge"><title>Node19&#45;&gt;Node18</title>
<path fill="none" stroke="midnightblue" d="M342.598,-143C353.373,-143 365.296,-143 376.898,-143"/>
<polygon fill="midnightblue" stroke="midnightblue" points="376.973,-146.5 386.973,-143 376.973,-139.5 376.973,-146.5"/>
</g>
<!-- Node20&#45;&gt;Node17 -->
<g id="edge27" class="edge"><title>Node20&#45;&gt;Node17</title>
<path fill="none" stroke="midnightblue" d="M218.338,-116.925C230.403,-115.195 243.269,-113.35 255.186,-111.641"/>
<polygon fill="midnightblue" stroke="midnightblue" points="255.968,-115.065 265.37,-110.181 254.975,-108.136 255.968,-115.065"/>
</g>
<!-- Node20&#45;&gt;Node19 -->
<g id="edge26" class="edge"><title>Node20&#45;&gt;Node19</title>
<path fill="none" stroke="midnightblue" d="M218.338,-131.075C229.492,-132.674 241.331,-134.372 252.472,-135.97"/>
<polygon fill="midnightblue" stroke="midnightblue" points="252.072,-139.448 262.468,-137.403 253.066,-132.519 252.072,-139.448"/>
</g>
<!-- Node20&#45;&gt;Node21 -->
<g id="edge24" class="edge"><title>Node20&#45;&gt;Node21</title>
<path fill="none" stroke="midnightblue" d="M189.857,-114.397C207.002,-106.57 231.969,-95.3263 254,-86 258.256,-84.1984 262.744,-82.3443 267.194,-80.5334"/>
<polygon fill="midnightblue" stroke="midnightblue" points="268.802,-83.6588 276.77,-76.6754 266.187,-77.1659 268.802,-83.6588"/>
</g>
<!-- Node22 -->
<g id="node22" class="node"><title>Node22</title>
<g id="a_node22"><a xlink:href="classmesh.html#a8b6a250925cdc576e3ff6f7b18dc88c4" target="_top" xlink:title="mesh::xyz_to_ieg">
<polygon fill="white" stroke="black" points="387,-57.5 387,-76.5 485,-76.5 485,-57.5 387,-57.5"/>
<text text-anchor="middle" x="436" y="-64.5" font-family="Helvetica,sans-Serif" font-size="10.00">mesh::xyz_to_ieg</text>
</a>
</g>
</g>
<!-- Node21&#45;&gt;Node22 -->
<g id="edge25" class="edge"><title>Node21&#45;&gt;Node22</title>
<path fill="none" stroke="midnightblue" d="M339.781,-67C351.066,-67 363.81,-67 376.22,-67"/>
<polygon fill="midnightblue" stroke="midnightblue" points="376.526,-70.5001 386.526,-67 376.526,-63.5001 376.526,-70.5001"/>
</g>
</g>
</svg>
        <g id="navigator" transform="translate(0 0)" fill="#404254">
                <rect fill="#f2f5e9" fill-opacity="0.5" stroke="#606060" stroke-width=".5" x="0" y="0" width="60" height="60"/>
                <use id="zoomplus" xlink:href="#zoomPlus" x="17" y="9" onmousedown="handleZoom(evt,'in')"/>
                <use id="zoomminus" xlink:href="#zoomMin" x="42" y="9" onmousedown="handleZoom(evt,'out')"/>
                <use id="reset" xlink:href="#resetDef" x="30" y="36" onmousedown="handleReset()"/>
                <g id="arrowUp" xlink:href="#dirArrow" transform="translate(30 24)" onmousedown="handlePan(0,-1)">
                  <use xlink:href="#rim" fill="#404040">
                        <set attributeName="fill" to="#808080" begin="arrowUp.mouseover" end="arrowUp.mouseout"/>
                  </use>
                  <path fill="none" stroke="white" stroke-width="1.5" d="M0,-3.0v7 M-2.5,-0.5L0,-3.0L2.5,-0.5"/>
                </g>
                <g id="arrowRight" xlink:href="#dirArrow" transform="rotate(90) translate(36 -43)" onmousedown="handlePan(1,0)">
                  <use xlink:href="#rim" fill="#404040">
                        <set attributeName="fill" to="#808080" begin="arrowRight.mouseover" end="arrowRight.mouseout"/>
                  </use>
                  <path fill="none" stroke="white" stroke-width="1.5" d="M0,-3.0v7 M-2.5,-0.5L0,-3.0L2.5,-0.5"/>
                </g>
                <g id="arrowDown" xlink:href="#dirArrow" transform="rotate(180) translate(-30 -48)" onmousedown="handlePan(0,1)">
                  <use xlink:href="#rim" fill="#404040">
                        <set attributeName="fill" to="#808080" begin="arrowDown.mouseover" end="arrowDown.mouseout"/>
                  </use>
                  <path fill="none" stroke="white" stroke-width="1.5" d="M0,-3.0v7 M-2.5,-0.5L0,-3.0L2.5,-0.5"/>
                </g>
                <g id="arrowLeft" xlink:href="#dirArrow" transform="rotate(270) translate(-36 17)" onmousedown="handlePan(-1,0)">
                  <use xlink:href="#rim" fill="#404040">
                        <set attributeName="fill" to="#808080" begin="arrowLeft.mouseover" end="arrowLeft.mouseout"/>
                  </use>
                  <path fill="none" stroke="white" stroke-width="1.5" d="M0,-3.0v7 M-2.5,-0.5L0,-3.0L2.5,-0.5"/>
                </g>
        </g>
        <svg viewBox="0 0 15 15" width="100%" height="30px" preserveAspectRatio="xMaxYMin meet">
         <g id="arrow_out" transform="scale(0.3 0.3)">
          <a xlink:href="navier8_8F90_a7b711f52527072521e8670492a58ed16_cgraph_org.svg" target="_base">
           <rect id="button" ry="5" rx="5" y="6" x="6" height="38" width="38"
                fill="#f2f5e9" fill-opacity="0.5" stroke="#606060" stroke-width="1.0"/>
           <path id="arrow"
             d="M 11.500037,31.436501 C 11.940474,20.09759 22.043105,11.32322 32.158766,21.979434 L 37.068811,17.246167 C 37.068811,17.246167 37.088388,32 37.088388,32 L 22.160133,31.978069 C 22.160133,31.978069 26.997745,27.140456 26.997745,27.140456 C 18.528582,18.264221 13.291696,25.230495 11.500037,31.436501 z"
             style="fill:#404040;"/>
          </a>
         </g>
        </svg>
</svg>
