<?xml version="1.0" encoding="UTF-8" standalone="no"?>
<!DOCTYPE svg PUBLIC "-//W3C//DTD SVG 1.1//EN"
 "http://www.w3.org/Graphics/SVG/1.1/DTD/svg11.dtd">
<!-- Generated by graphviz version 2.38.0 (20140413.2041)
 -->
<!-- Title: local_grad3 Pages: 1 -->
<!--zoomable 940 -->
<svg id="main" version="1.1" xmlns="http://www.w3.org/2000/svg" xmlns:xlink="http://www.w3.org/1999/xlink" xml:space="preserve" onload="init(evt)">
<style type="text/css"><![CDATA[
.edge:hover path { stroke: red; }
.edge:hover polygon { stroke: red; fill: red; }
]]></style>
<script type="text/javascript"><![CDATA[
var edges = document.getElementsByTagName('g');
if (edges && edges.length) {
  for (var i=0;i<edges.length;i++) {
    if (edges[i].id.substr(0,4)=='edge') {
      edges[i].setAttribute('class','edge');
    }
  }
}
]]></script>
        <defs>
                <circle id="rim" cx="0" cy="0" r="7"/>
                <circle id="rim2" cx="0" cy="0" r="3.5"/>
                <g id="zoomPlus">
                        <use xlink:href="#rim" fill="#404040">
                                <set attributeName="fill" to="#808080" begin="zoomplus.mouseover" end="zoomplus.mouseout"/>
                        </use>
                        <path d="M-4,0h8M0,-4v8" fill="none" stroke="white" stroke-width="1.5" pointer-events="none"/>
                </g>
                <g id="zoomMin">
                        <use xlink:href="#rim" fill="#404040">
                                <set attributeName="fill" to="#808080" begin="zoomminus.mouseover" end="zoomminus.mouseout"/>
                        </use>
                        <path d="M-4,0h8" fill="none" stroke="white" stroke-width="1.5" pointer-events="none"/>
                </g>
                <g id="dirArrow">
                        <path fill="none" stroke="white" stroke-width="1.5" d="M0,-3.0v7 M-2.5,-0.5L0,-3.0L2.5,-0.5"/>
                </g>
               <g id="resetDef">
                       <use xlink:href="#rim2" fill="#404040">
                               <set attributeName="fill" to="#808080" begin="reset.mouseover" end="reset.mouseout"/>
                       </use>
               </g>
        </defs>

<script type="text/javascript">
var viewWidth = 368;
var viewHeight = 940;
var sectionId = 'dynsection-7';
</script>
<script xlink:href="svgpan.js"/>
<svg id="graph" class="graph">
<g id="viewport">
<title>local_grad3</title>
<polygon fill="white" stroke="none" points="-4,4 -4,-936 364,-936 364,4 -4,4"/>
<!-- Node1 -->
<g id="node1" class="node"><title>Node1</title>
<polygon fill="#bfbfbf" stroke="black" points="0,-703.5 0,-722.5 72,-722.5 72,-703.5 0,-703.5"/>
<text text-anchor="middle" x="36" y="-710.5" font-family="Helvetica,sans-Serif" font-size="10.00">local_grad3</text>
</g>
<!-- Node2 -->
<g id="node2" class="node"><title>Node2</title>
<g id="a_node2"><a xlink:href="mxm__wrapper_8F90.html#ab9ec2260a10061af6ce1c52f3c8a41da" target="_top" xlink:title="Compute matrix&#45;matrix product C = A*B. ">
<polygon fill="white" stroke="black" points="108,-703.5 108,-722.5 146,-722.5 146,-703.5 108,-703.5"/>
<text text-anchor="middle" x="127" y="-710.5" font-family="Helvetica,sans-Serif" font-size="10.00">mxm</text>
</a>
</g>
</g>
<!-- Node1&#45;&gt;Node2 -->
<g id="edge1" class="edge"><title>Node1&#45;&gt;Node2</title>
<path fill="none" stroke="midnightblue" d="M72.1752,-713C80.6887,-713 89.679,-713 97.8226,-713"/>
<polygon fill="midnightblue" stroke="midnightblue" points="97.9292,-716.5 107.929,-713 97.9292,-709.5 97.9292,-716.5"/>
</g>
<!-- Node3 -->
<g id="node3" class="node"><title>Node3</title>
<g id="a_node3"><a xlink:href="mxm__std_8F90.html#ac63fe7516a18dc57dfe913ad2c1453be" target="_top" xlink:title="mxm44_0">
<polygon fill="white" stroke="black" points="298,-912.5 298,-931.5 360,-931.5 360,-912.5 298,-912.5"/>
<text text-anchor="middle" x="329" y="-919.5" font-family="Helvetica,sans-Serif" font-size="10.00">mxm44_0</text>
</a>
</g>
</g>
<!-- Node2&#45;&gt;Node3 -->
<g id="edge2" class="edge"><title>Node2&#45;&gt;Node3</title>
<path fill="none" stroke="midnightblue" d="M130.582,-722.551C136.623,-743.48 153.376,-794.138 182,-827 214.221,-863.991 264.231,-892.248 296.548,-907.986"/>
<polygon fill="midnightblue" stroke="midnightblue" points="295.436,-911.333 305.97,-912.465 298.441,-905.011 295.436,-911.333"/>
</g>
<!-- Node4 -->
<g id="node4" class="node"><title>Node4</title>
<g id="a_node4"><a xlink:href="mxm__std_8F90.html#af07f4b22fdc3488ca321736743f14b01" target="_top" xlink:title="mxm44_2">
<polygon fill="white" stroke="black" points="191,-798.5 191,-817.5 253,-817.5 253,-798.5 191,-798.5"/>
<text text-anchor="middle" x="222" y="-805.5" font-family="Helvetica,sans-Serif" font-size="10.00">mxm44_2</text>
</a>
</g>
</g>
<!-- Node2&#45;&gt;Node4 -->
<g id="edge3" class="edge"><title>Node2&#45;&gt;Node4</title>
<path fill="none" stroke="midnightblue" d="M132.753,-722.573C140.935,-738.234 159.036,-769.532 182,-789 183.727,-790.464 185.586,-791.846 187.523,-793.146"/>
<polygon fill="midnightblue" stroke="midnightblue" points="185.941,-796.275 196.338,-798.31 189.479,-790.235 185.941,-796.275"/>
</g>
<!-- Node5 -->
<g id="node5" class="node"><title>Node5</title>
<g id="a_node5"><a xlink:href="mxm__bgq_8F90.html#a8a70163b4dbfdbfcce7bff170597fcad" target="_top" xlink:title="mxm_bgq_10">
<polygon fill="white" stroke="black" points="182,-760.5 182,-779.5 262,-779.5 262,-760.5 182,-760.5"/>
<text text-anchor="middle" x="222" y="-767.5" font-family="Helvetica,sans-Serif" font-size="10.00">mxm_bgq_10</text>
</a>
</g>
</g>
<!-- Node2&#45;&gt;Node5 -->
<g id="edge4" class="edge"><title>Node2&#45;&gt;Node5</title>
<path fill="none" stroke="midnightblue" d="M140.491,-722.654C151.198,-730.715 167.192,-742.259 182,-751 184.702,-752.595 187.557,-754.174 190.444,-755.7"/>
<polygon fill="midnightblue" stroke="midnightblue" points="189.123,-758.954 199.626,-760.348 192.285,-752.709 189.123,-758.954"/>
</g>
<!-- Node6 -->
<g id="node6" class="node"><title>Node6</title>
<g id="a_node6"><a xlink:href="mxm__bgq_8F90.html#a27529ace9834454b8906f29e02718629" target="_top" xlink:title="mxm_bgq_12">
<polygon fill="white" stroke="black" points="182,-722.5 182,-741.5 262,-741.5 262,-722.5 182,-722.5"/>
<text text-anchor="middle" x="222" y="-729.5" font-family="Helvetica,sans-Serif" font-size="10.00">mxm_bgq_12</text>
</a>
</g>
</g>
<!-- Node2&#45;&gt;Node6 -->
<g id="edge5" class="edge"><title>Node2&#45;&gt;Node6</title>
<path fill="none" stroke="midnightblue" d="M146.374,-716.754C153.838,-718.279 162.85,-720.12 171.993,-721.988"/>
<polygon fill="midnightblue" stroke="midnightblue" points="171.398,-725.439 181.897,-724.011 172.8,-718.58 171.398,-725.439"/>
</g>
<!-- Node7 -->
<g id="node7" class="node"><title>Node7</title>
<g id="a_node7"><a xlink:href="mxm__bgq_8F90.html#a3fda9ea4bc7a5713a19d6939fa2b541f" target="_top" xlink:title="mxm_bgq_16">
<polygon fill="white" stroke="black" points="182,-684.5 182,-703.5 262,-703.5 262,-684.5 182,-684.5"/>
<text text-anchor="middle" x="222" y="-691.5" font-family="Helvetica,sans-Serif" font-size="10.00">mxm_bgq_16</text>
</a>
</g>
</g>
<!-- Node2&#45;&gt;Node7 -->
<g id="edge6" class="edge"><title>Node2&#45;&gt;Node7</title>
<path fill="none" stroke="midnightblue" d="M146.374,-709.246C153.838,-707.721 162.85,-705.88 171.993,-704.012"/>
<polygon fill="midnightblue" stroke="midnightblue" points="172.8,-707.42 181.897,-701.989 171.398,-700.561 172.8,-707.42"/>
</g>
<!-- Node8 -->
<g id="node8" class="node"><title>Node8</title>
<g id="a_node8"><a xlink:href="mxm__bgq_8F90.html#af192c3c8b982aa5bbc2a757156718a91" target="_top" xlink:title="mxm_bgq_6">
<polygon fill="white" stroke="black" points="185,-646.5 185,-665.5 259,-665.5 259,-646.5 185,-646.5"/>
<text text-anchor="middle" x="222" y="-653.5" font-family="Helvetica,sans-Serif" font-size="10.00">mxm_bgq_6</text>
</a>
</g>
</g>
<!-- Node2&#45;&gt;Node8 -->
<g id="edge7" class="edge"><title>Node2&#45;&gt;Node8</title>
<path fill="none" stroke="midnightblue" d="M140.491,-703.346C151.198,-695.285 167.192,-683.741 182,-675 184.702,-673.405 187.557,-671.826 190.444,-670.3"/>
<polygon fill="midnightblue" stroke="midnightblue" points="192.285,-673.291 199.626,-665.652 189.123,-667.046 192.285,-673.291"/>
</g>
<!-- Node9 -->
<g id="node9" class="node"><title>Node9</title>
<g id="a_node9"><a xlink:href="mxm__bgq_8F90.html#a8faaef428336095704ece51624bbfe92" target="_top" xlink:title="mxm_bgq_8">
<polygon fill="white" stroke="black" points="185,-608.5 185,-627.5 259,-627.5 259,-608.5 185,-608.5"/>
<text text-anchor="middle" x="222" y="-615.5" font-family="Helvetica,sans-Serif" font-size="10.00">mxm_bgq_8</text>
</a>
</g>
</g>
<!-- Node2&#45;&gt;Node9 -->
<g id="edge8" class="edge"><title>Node2&#45;&gt;Node9</title>
<path fill="none" stroke="midnightblue" d="M132.753,-703.427C140.935,-687.766 159.036,-656.468 182,-637 183.727,-635.536 185.586,-634.154 187.523,-632.854"/>
<polygon fill="midnightblue" stroke="midnightblue" points="189.479,-635.765 196.338,-627.69 185.941,-629.725 189.479,-635.765"/>
</g>
<!-- Node10 -->
<g id="node10" class="node"><title>Node10</title>
<g id="a_node10"><a xlink:href="mxm__std_8F90.html#aa9e8685c4a72f18fb5d1ee88ed17a3d6" target="_top" xlink:title="unrolled loop version ">
<polygon fill="white" stroke="black" points="198.5,-475.5 198.5,-494.5 245.5,-494.5 245.5,-475.5 198.5,-475.5"/>
<text text-anchor="middle" x="222" y="-482.5" font-family="Helvetica,sans-Serif" font-size="10.00">mxmf2</text>
</a>
</g>
</g>
<!-- Node2&#45;&gt;Node10 -->
<g id="edge9" class="edge"><title>Node2&#45;&gt;Node10</title>
<path fill="none" stroke="midnightblue" d="M131.878,-703.493C145.91,-669.091 194.217,-550.661 213.227,-504.057"/>
<polygon fill="midnightblue" stroke="midnightblue" points="216.57,-505.128 217.106,-494.547 210.088,-502.485 216.57,-505.128"/>
</g>
<!-- Node10&#45;&gt;Node3 -->
<g id="edge34" class="edge"><title>Node10&#45;&gt;Node3</title>
<path fill="none" stroke="midnightblue" d="M227.046,-494.559C235.058,-513.901 252.949,-559.227 262,-599 292.189,-731.664 225.493,-787.875 298,-903 298.591,-903.939 299.248,-904.84 299.958,-905.703"/>
<polygon fill="midnightblue" stroke="midnightblue" points="297.687,-908.369 307.45,-912.484 302.384,-903.179 297.687,-908.369"/>
</g>
<!-- Node11 -->
<g id="node11" class="node"><title>Node11</title>
<g id="a_node11"><a xlink:href="mxm__std_8F90.html#a7d3ac03517b3934b98857b22f7f78788" target="_top" xlink:title="mxf1">
<polygon fill="white" stroke="black" points="309.5,-874.5 309.5,-893.5 348.5,-893.5 348.5,-874.5 309.5,-874.5"/>
<text text-anchor="middle" x="329" y="-881.5" font-family="Helvetica,sans-Serif" font-size="10.00">mxf1</text>
</a>
</g>
</g>
<!-- Node10&#45;&gt;Node11 -->
<g id="edge10" class="edge"><title>Node10&#45;&gt;Node11</title>
<path fill="none" stroke="midnightblue" d="M226.99,-494.572C234.901,-513.938 252.619,-559.304 262,-599 289.438,-715.102 233.584,-764.585 298,-865 298.961,-866.498 300.087,-867.9 301.329,-869.209"/>
<polygon fill="midnightblue" stroke="midnightblue" points="299.379,-872.134 309.357,-875.697 303.78,-866.689 299.379,-872.134"/>
</g>
<!-- Node12 -->
<g id="node12" class="node"><title>Node12</title>
<g id="a_node12"><a xlink:href="mxm__std_8F90.html#a5786b175fcbe28ecafe1d878687c3ccf" target="_top" xlink:title="mxf10">
<polygon fill="white" stroke="black" points="306.5,-836.5 306.5,-855.5 351.5,-855.5 351.5,-836.5 306.5,-836.5"/>
<text text-anchor="middle" x="329" y="-843.5" font-family="Helvetica,sans-Serif" font-size="10.00">mxf10</text>
</a>
</g>
</g>
<!-- Node10&#45;&gt;Node12 -->
<g id="edge11" class="edge"><title>Node10&#45;&gt;Node12</title>
<path fill="none" stroke="midnightblue" d="M226.915,-494.59C234.692,-513.988 252.181,-559.41 262,-599 286.696,-698.572 241.658,-741.268 298,-827 298.609,-827.927 299.282,-828.818 300.004,-829.673"/>
<polygon fill="midnightblue" stroke="midnightblue" points="297.769,-832.37 307.562,-836.412 302.428,-827.145 297.769,-832.37"/>
</g>
<!-- Node13 -->
<g id="node13" class="node"><title>Node13</title>
<g id="a_node13"><a xlink:href="mxm__std_8F90.html#a244c7a41b5b7a22acba71c34552c2774" target="_top" xlink:title="mxf11">
<polygon fill="white" stroke="black" points="306.5,-798.5 306.5,-817.5 351.5,-817.5 351.5,-798.5 306.5,-798.5"/>
<text text-anchor="middle" x="329" y="-805.5" font-family="Helvetica,sans-Serif" font-size="10.00">mxf11</text>
</a>
</g>
</g>
<!-- Node10&#45;&gt;Node13 -->
<g id="edge12" class="edge"><title>Node10&#45;&gt;Node13</title>
<path fill="none" stroke="midnightblue" d="M226.812,-494.616C234.404,-514.062 251.575,-559.565 262,-599 283.966,-682.093 249.702,-717.907 298,-789 298.624,-789.918 299.308,-790.801 300.041,-791.649"/>
<polygon fill="midnightblue" stroke="midnightblue" points="297.833,-794.368 307.65,-798.354 302.461,-789.116 297.833,-794.368"/>
</g>
<!-- Node14 -->
<g id="node14" class="node"><title>Node14</title>
<g id="a_node14"><a xlink:href="mxm__std_8F90.html#afb2e2cde9040ab037e3586b0deef3851" target="_top" xlink:title="mxf12">
<polygon fill="white" stroke="black" points="306.5,-760.5 306.5,-779.5 351.5,-779.5 351.5,-760.5 306.5,-760.5"/>
<text text-anchor="middle" x="329" y="-767.5" font-family="Helvetica,sans-Serif" font-size="10.00">mxf12</text>
</a>
</g>
</g>
<!-- Node10&#45;&gt;Node14 -->
<g id="edge13" class="edge"><title>Node10&#45;&gt;Node14</title>
<path fill="none" stroke="midnightblue" d="M226.66,-494.658C233.979,-514.18 250.685,-559.811 262,-599 281.259,-665.7 257.696,-694.472 298,-751 298.745,-752.045 299.567,-753.045 300.449,-754.002"/>
<polygon fill="midnightblue" stroke="midnightblue" points="298.196,-756.68 308.087,-760.477 302.723,-751.341 298.196,-756.68"/>
</g>
<!-- Node15 -->
<g id="node15" class="node"><title>Node15</title>
<g id="a_node15"><a xlink:href="mxm__std_8F90.html#a6a048a62b47a5c2327279e158c1689df" target="_top" xlink:title="mxf13">
<polygon fill="white" stroke="black" points="306.5,-722.5 306.5,-741.5 351.5,-741.5 351.5,-722.5 306.5,-722.5"/>
<text text-anchor="middle" x="329" y="-729.5" font-family="Helvetica,sans-Serif" font-size="10.00">mxf13</text>
</a>
</g>
</g>
<!-- Node10&#45;&gt;Node15 -->
<g id="edge14" class="edge"><title>Node10&#45;&gt;Node15</title>
<path fill="none" stroke="midnightblue" d="M226.417,-494.733C233.298,-514.39 249.256,-560.252 262,-599 278.6,-649.473 265.589,-670.897 298,-713 298.783,-714.017 299.636,-714.994 300.544,-715.931"/>
<polygon fill="midnightblue" stroke="midnightblue" points="298.351,-718.658 308.291,-722.326 302.808,-713.261 298.351,-718.658"/>
</g>
<!-- Node16 -->
<g id="node16" class="node"><title>Node16</title>
<g id="a_node16"><a xlink:href="mxm__std_8F90.html#a6e57628b882cb8bcac215e9a5b523eed" target="_top" xlink:title="mxf14">
<polygon fill="white" stroke="black" points="306.5,-684.5 306.5,-703.5 351.5,-703.5 351.5,-684.5 306.5,-684.5"/>
<text text-anchor="middle" x="329" y="-691.5" font-family="Helvetica,sans-Serif" font-size="10.00">mxf14</text>
</a>
</g>
</g>
<!-- Node10&#45;&gt;Node16 -->
<g id="edge15" class="edge"><title>Node10&#45;&gt;Node16</title>
<path fill="none" stroke="midnightblue" d="M226.383,-494.571C239.325,-531.041 285.596,-660.005 298,-675 298.84,-676.015 299.749,-676.994 300.709,-677.934"/>
<polygon fill="midnightblue" stroke="midnightblue" points="298.792,-680.882 308.792,-684.384 303.158,-675.411 298.792,-680.882"/>
</g>
<!-- Node17 -->
<g id="node17" class="node"><title>Node17</title>
<g id="a_node17"><a xlink:href="mxm__std_8F90.html#a02e79201be026faf756be00e58334c4f" target="_top" xlink:title="mxf15">
<polygon fill="white" stroke="black" points="306.5,-646.5 306.5,-665.5 351.5,-665.5 351.5,-646.5 306.5,-646.5"/>
<text text-anchor="middle" x="329" y="-653.5" font-family="Helvetica,sans-Serif" font-size="10.00">mxf15</text>
</a>
</g>
</g>
<!-- Node10&#45;&gt;Node17 -->
<g id="edge16" class="edge"><title>Node10&#45;&gt;Node17</title>
<path fill="none" stroke="midnightblue" d="M225.715,-494.596C233.373,-520.278 257.275,-591.703 298,-637 299.005,-638.117 300.09,-639.194 301.232,-640.228"/>
<polygon fill="midnightblue" stroke="midnightblue" points="299.248,-643.118 309.321,-646.403 303.496,-637.553 299.248,-643.118"/>
</g>
<!-- Node18 -->
<g id="node18" class="node"><title>Node18</title>
<g id="a_node18"><a xlink:href="mxm__std_8F90.html#a2fbea6eeadc258673ba8ea5708593aee" target="_top" xlink:title="mxf16">
<polygon fill="white" stroke="black" points="306.5,-608.5 306.5,-627.5 351.5,-627.5 351.5,-608.5 306.5,-608.5"/>
<text text-anchor="middle" x="329" y="-615.5" font-family="Helvetica,sans-Serif" font-size="10.00">mxf16</text>
</a>
</g>
</g>
<!-- Node10&#45;&gt;Node18 -->
<g id="edge17" class="edge"><title>Node10&#45;&gt;Node18</title>
<path fill="none" stroke="midnightblue" d="M227.498,-494.523C237.707,-515.398 264.376,-565.954 298,-599 299.099,-600.08 300.27,-601.131 301.488,-602.147"/>
<polygon fill="midnightblue" stroke="midnightblue" points="299.802,-605.25 309.946,-608.309 303.924,-599.592 299.802,-605.25"/>
</g>
<!-- Node19 -->
<g id="node19" class="node"><title>Node19</title>
<g id="a_node19"><a xlink:href="mxm__std_8F90.html#a3829af481cd230e6aadef08feab9a278" target="_top" xlink:title="mxf17">
<polygon fill="white" stroke="black" points="306.5,-570.5 306.5,-589.5 351.5,-589.5 351.5,-570.5 306.5,-570.5"/>
<text text-anchor="middle" x="329" y="-577.5" font-family="Helvetica,sans-Serif" font-size="10.00">mxf17</text>
</a>
</g>
</g>
<!-- Node10&#45;&gt;Node19 -->
<g id="edge18" class="edge"><title>Node10&#45;&gt;Node19</title>
<path fill="none" stroke="midnightblue" d="M231.158,-494.575C244.316,-509.7 271.441,-539.598 298,-561 299.548,-562.248 301.182,-563.482 302.856,-564.688"/>
<polygon fill="midnightblue" stroke="midnightblue" points="301.092,-567.719 311.344,-570.393 304.997,-561.909 301.092,-567.719"/>
</g>
<!-- Node20 -->
<g id="node20" class="node"><title>Node20</title>
<g id="a_node20"><a xlink:href="mxm__std_8F90.html#a48ed8195cc978a87c005b3306a974894" target="_top" xlink:title="mxf18">
<polygon fill="white" stroke="black" points="306.5,-532.5 306.5,-551.5 351.5,-551.5 351.5,-532.5 306.5,-532.5"/>
<text text-anchor="middle" x="329" y="-539.5" font-family="Helvetica,sans-Serif" font-size="10.00">mxf18</text>
</a>
</g>
</g>
<!-- Node10&#45;&gt;Node20 -->
<g id="edge19" class="edge"><title>Node10&#45;&gt;Node20</title>
<path fill="none" stroke="midnightblue" d="M240.812,-494.669C257.429,-503.69 282.44,-517.267 301.418,-527.57"/>
<polygon fill="midnightblue" stroke="midnightblue" points="299.993,-530.779 310.451,-532.474 303.333,-524.627 299.993,-530.779"/>
</g>
<!-- Node21 -->
<g id="node21" class="node"><title>Node21</title>
<g id="a_node21"><a xlink:href="mxm__std_8F90.html#a28a9857286e11804e1a97875028ecb09" target="_top" xlink:title="mxf19">
<polygon fill="white" stroke="black" points="306.5,-494.5 306.5,-513.5 351.5,-513.5 351.5,-494.5 306.5,-494.5"/>
<text text-anchor="middle" x="329" y="-501.5" font-family="Helvetica,sans-Serif" font-size="10.00">mxf19</text>
</a>
</g>
</g>
<!-- Node10&#45;&gt;Node21 -->
<g id="edge20" class="edge"><title>Node10&#45;&gt;Node21</title>
<path fill="none" stroke="midnightblue" d="M245.525,-489.076C260.256,-491.741 279.721,-495.264 296.041,-498.217"/>
<polygon fill="midnightblue" stroke="midnightblue" points="295.768,-501.724 306.231,-500.061 297.014,-494.836 295.768,-501.724"/>
</g>
<!-- Node22 -->
<g id="node22" class="node"><title>Node22</title>
<g id="a_node22"><a xlink:href="mxm__std_8F90.html#acd223c583f3a9242fda7a1b8897b624d" target="_top" xlink:title="mxf2">
<polygon fill="white" stroke="black" points="309.5,-456.5 309.5,-475.5 348.5,-475.5 348.5,-456.5 309.5,-456.5"/>
<text text-anchor="middle" x="329" y="-463.5" font-family="Helvetica,sans-Serif" font-size="10.00">mxf2</text>
</a>
</g>
</g>
<!-- Node10&#45;&gt;Node22 -->
<g id="edge21" class="edge"><title>Node10&#45;&gt;Node22</title>
<path fill="none" stroke="midnightblue" d="M245.525,-480.924C261.294,-478.071 282.489,-474.235 299.444,-471.167"/>
<polygon fill="midnightblue" stroke="midnightblue" points="300.149,-474.597 309.366,-469.372 298.903,-467.708 300.149,-474.597"/>
</g>
<!-- Node23 -->
<g id="node23" class="node"><title>Node23</title>
<g id="a_node23"><a xlink:href="mxm__std_8F90.html#af60059bd60847f48acdf6461fefa3b22" target="_top" xlink:title="mxf20">
<polygon fill="white" stroke="black" points="306.5,-418.5 306.5,-437.5 351.5,-437.5 351.5,-418.5 306.5,-418.5"/>
<text text-anchor="middle" x="329" y="-425.5" font-family="Helvetica,sans-Serif" font-size="10.00">mxf20</text>
</a>
</g>
</g>
<!-- Node10&#45;&gt;Node23 -->
<g id="edge22" class="edge"><title>Node10&#45;&gt;Node23</title>
<path fill="none" stroke="midnightblue" d="M240.812,-475.331C257.429,-466.31 282.44,-452.733 301.418,-442.43"/>
<polygon fill="midnightblue" stroke="midnightblue" points="303.333,-445.373 310.451,-437.526 299.993,-439.221 303.333,-445.373"/>
</g>
<!-- Node24 -->
<g id="node24" class="node"><title>Node24</title>
<g id="a_node24"><a xlink:href="mxm__std_8F90.html#a825db174c5643aef5e4cdf57067ebbbb" target="_top" xlink:title="mxf21">
<polygon fill="white" stroke="black" points="306.5,-380.5 306.5,-399.5 351.5,-399.5 351.5,-380.5 306.5,-380.5"/>
<text text-anchor="middle" x="329" y="-387.5" font-family="Helvetica,sans-Serif" font-size="10.00">mxf21</text>
</a>
</g>
</g>
<!-- Node10&#45;&gt;Node24 -->
<g id="edge23" class="edge"><title>Node10&#45;&gt;Node24</title>
<path fill="none" stroke="midnightblue" d="M231.158,-475.425C244.316,-460.3 271.441,-430.402 298,-409 299.548,-407.752 301.182,-406.518 302.856,-405.312"/>
<polygon fill="midnightblue" stroke="midnightblue" points="304.997,-408.091 311.344,-399.607 301.092,-402.281 304.997,-408.091"/>
</g>
<!-- Node25 -->
<g id="node25" class="node"><title>Node25</title>
<g id="a_node25"><a xlink:href="mxm__std_8F90.html#a1f2059cb835b2818aef861f2f59a0a72" target="_top" xlink:title="mxf22">
<polygon fill="white" stroke="black" points="306.5,-342.5 306.5,-361.5 351.5,-361.5 351.5,-342.5 306.5,-342.5"/>
<text text-anchor="middle" x="329" y="-349.5" font-family="Helvetica,sans-Serif" font-size="10.00">mxf22</text>
</a>
</g>
</g>
<!-- Node10&#45;&gt;Node25 -->
<g id="edge24" class="edge"><title>Node10&#45;&gt;Node25</title>
<path fill="none" stroke="midnightblue" d="M227.498,-475.477C237.707,-454.602 264.376,-404.046 298,-371 299.099,-369.92 300.27,-368.869 301.488,-367.853"/>
<polygon fill="midnightblue" stroke="midnightblue" points="303.924,-370.408 309.946,-361.691 299.802,-364.75 303.924,-370.408"/>
</g>
<!-- Node26 -->
<g id="node26" class="node"><title>Node26</title>
<g id="a_node26"><a xlink:href="mxm__std_8F90.html#a3dc6491b8d44b702dbbb13a01f887c59" target="_top" xlink:title="mxf23">
<polygon fill="white" stroke="black" points="306.5,-304.5 306.5,-323.5 351.5,-323.5 351.5,-304.5 306.5,-304.5"/>
<text text-anchor="middle" x="329" y="-311.5" font-family="Helvetica,sans-Serif" font-size="10.00">mxf23</text>
</a>
</g>
</g>
<!-- Node10&#45;&gt;Node26 -->
<g id="edge25" class="edge"><title>Node10&#45;&gt;Node26</title>
<path fill="none" stroke="midnightblue" d="M225.715,-475.404C233.373,-449.722 257.275,-378.297 298,-333 299.005,-331.883 300.09,-330.806 301.232,-329.772"/>
<polygon fill="midnightblue" stroke="midnightblue" points="303.496,-332.447 309.321,-323.597 299.248,-326.882 303.496,-332.447"/>
</g>
<!-- Node27 -->
<g id="node27" class="node"><title>Node27</title>
<g id="a_node27"><a xlink:href="mxm__std_8F90.html#af0752c9a61343489900f8d812c6980ed" target="_top" xlink:title="mxf24">
<polygon fill="white" stroke="black" points="306.5,-266.5 306.5,-285.5 351.5,-285.5 351.5,-266.5 306.5,-266.5"/>
<text text-anchor="middle" x="329" y="-273.5" font-family="Helvetica,sans-Serif" font-size="10.00">mxf24</text>
</a>
</g>
</g>
<!-- Node10&#45;&gt;Node27 -->
<g id="edge26" class="edge"><title>Node10&#45;&gt;Node27</title>
<path fill="none" stroke="midnightblue" d="M224.638,-475.225C230.093,-445.214 250.081,-352.931 298,-295 298.84,-293.985 299.749,-293.006 300.709,-292.066"/>
<polygon fill="midnightblue" stroke="midnightblue" points="303.158,-294.589 308.792,-285.616 298.792,-289.118 303.158,-294.589"/>
</g>
<!-- Node28 -->
<g id="node28" class="node"><title>Node28</title>
<g id="a_node28"><a xlink:href="mxm__std_8F90.html#abff718a387aa354f77d0e8b0ffa98867" target="_top" xlink:title="mxf3">
<polygon fill="white" stroke="black" points="309.5,-228.5 309.5,-247.5 348.5,-247.5 348.5,-228.5 309.5,-228.5"/>
<text text-anchor="middle" x="329" y="-235.5" font-family="Helvetica,sans-Serif" font-size="10.00">mxf3</text>
</a>
</g>
</g>
<!-- Node10&#45;&gt;Node28 -->
<g id="edge27" class="edge"><title>Node10&#45;&gt;Node28</title>
<path fill="none" stroke="midnightblue" d="M223.869,-475.24C227.317,-441.502 242.672,-327.994 298,-257 298.947,-255.784 299.996,-254.625 301.117,-253.522"/>
<polygon fill="midnightblue" stroke="midnightblue" points="303.589,-256.029 309.257,-247.077 299.244,-250.541 303.589,-256.029"/>
</g>
<!-- Node29 -->
<g id="node29" class="node"><title>Node29</title>
<g id="a_node29"><a xlink:href="mxm__std_8F90.html#a2f4e4e1b4daebbd4d0580029d0f54016" target="_top" xlink:title="mxf4">
<polygon fill="white" stroke="black" points="309.5,-190.5 309.5,-209.5 348.5,-209.5 348.5,-190.5 309.5,-190.5"/>
<text text-anchor="middle" x="329" y="-197.5" font-family="Helvetica,sans-Serif" font-size="10.00">mxf4</text>
</a>
</g>
</g>
<!-- Node10&#45;&gt;Node29 -->
<g id="edge28" class="edge"><title>Node10&#45;&gt;Node29</title>
<path fill="none" stroke="midnightblue" d="M223.301,-475.47C224.914,-438.635 235.06,-303.443 298,-219 299.039,-217.607 300.212,-216.29 301.478,-215.05"/>
<polygon fill="midnightblue" stroke="midnightblue" points="303.751,-217.715 309.449,-208.783 299.425,-212.212 303.751,-217.715"/>
</g>
<!-- Node30 -->
<g id="node30" class="node"><title>Node30</title>
<g id="a_node30"><a xlink:href="mxm__std_8F90.html#a5a6d5c31350c601ba8327b75a72cba0a" target="_top" xlink:title="mxf5">
<polygon fill="white" stroke="black" points="309.5,-152.5 309.5,-171.5 348.5,-171.5 348.5,-152.5 309.5,-152.5"/>
<text text-anchor="middle" x="329" y="-159.5" font-family="Helvetica,sans-Serif" font-size="10.00">mxf5</text>
</a>
</g>
</g>
<!-- Node10&#45;&gt;Node30 -->
<g id="edge29" class="edge"><title>Node10&#45;&gt;Node30</title>
<path fill="none" stroke="midnightblue" d="M222.886,-475.249C222.889,-434.92 227.642,-278.713 298,-181 299.015,-179.59 300.171,-178.26 301.423,-177.009"/>
<polygon fill="midnightblue" stroke="midnightblue" points="303.698,-179.672 309.356,-170.715 299.347,-174.189 303.698,-179.672"/>
</g>
<!-- Node31 -->
<g id="node31" class="node"><title>Node31</title>
<g id="a_node31"><a xlink:href="mxm__std_8F90.html#a38a142edde1e72a918d280747a319f7a" target="_top" xlink:title="mxf6">
<polygon fill="white" stroke="black" points="309.5,-114.5 309.5,-133.5 348.5,-133.5 348.5,-114.5 309.5,-114.5"/>
<text text-anchor="middle" x="329" y="-121.5" font-family="Helvetica,sans-Serif" font-size="10.00">mxf6</text>
</a>
</g>
</g>
<!-- Node10&#45;&gt;Node31 -->
<g id="edge30" class="edge"><title>Node10&#45;&gt;Node31</title>
<path fill="none" stroke="midnightblue" d="M222.551,-475.244C221.043,-431.929 220.055,-254.273 298,-143 298.997,-141.577 300.138,-140.236 301.38,-138.978"/>
<polygon fill="midnightblue" stroke="midnightblue" points="303.656,-141.64 309.282,-132.662 299.285,-136.172 303.656,-141.64"/>
</g>
<!-- Node32 -->
<g id="node32" class="node"><title>Node32</title>
<g id="a_node32"><a xlink:href="mxm__std_8F90.html#a1919ea16c0a7b4e248e45e983c29d965" target="_top" xlink:title="mxf7">
<polygon fill="white" stroke="black" points="309.5,-76.5 309.5,-95.5 348.5,-95.5 348.5,-76.5 309.5,-76.5"/>
<text text-anchor="middle" x="329" y="-83.5" font-family="Helvetica,sans-Serif" font-size="10.00">mxf7</text>
</a>
</g>
</g>
<!-- Node10&#45;&gt;Node32 -->
<g id="edge31" class="edge"><title>Node10&#45;&gt;Node32</title>
<path fill="none" stroke="midnightblue" d="M223.875,-475.33C228.808,-422.47 254.49,-168.523 298,-105 298.982,-103.566 300.111,-102.218 301.344,-100.954"/>
<polygon fill="midnightblue" stroke="midnightblue" points="303.621,-103.614 309.221,-94.6202 299.235,-98.1584 303.621,-103.614"/>
</g>
<!-- Node33 -->
<g id="node33" class="node"><title>Node33</title>
<g id="a_node33"><a xlink:href="mxm__std_8F90.html#af4bd28930a9d674bbcad09ad75fa81ef" target="_top" xlink:title="mxf8">
<polygon fill="white" stroke="black" points="309.5,-38.5 309.5,-57.5 348.5,-57.5 348.5,-38.5 309.5,-38.5"/>
<text text-anchor="middle" x="329" y="-45.5" font-family="Helvetica,sans-Serif" font-size="10.00">mxf8</text>
</a>
</g>
</g>
<!-- Node10&#45;&gt;Node33 -->
<g id="edge32" class="edge"><title>Node10&#45;&gt;Node33</title>
<path fill="none" stroke="midnightblue" d="M223.673,-475.483C227.753,-419.922 250.592,-137.518 298,-67 298.993,-65.5227 300.144,-64.1369 301.404,-62.8408"/>
<polygon fill="midnightblue" stroke="midnightblue" points="303.856,-65.3621 309.483,-56.3853 299.486,-59.8935 303.856,-65.3621"/>
</g>
<!-- Node34 -->
<g id="node34" class="node"><title>Node34</title>
<g id="a_node34"><a xlink:href="mxm__std_8F90.html#a8ab38e8d33e92444b748159b82759c27" target="_top" xlink:title="mxf9">
<polygon fill="white" stroke="black" points="309.5,-0.5 309.5,-19.5 348.5,-19.5 348.5,-0.5 309.5,-0.5"/>
<text text-anchor="middle" x="329" y="-7.5" font-family="Helvetica,sans-Serif" font-size="10.00">mxf9</text>
</a>
</g>
</g>
<!-- Node10&#45;&gt;Node34 -->
<g id="edge33" class="edge"><title>Node10&#45;&gt;Node34</title>
<path fill="none" stroke="midnightblue" d="M223.521,-475.398C226.859,-416.718 246.749,-106.443 298,-29 298.982,-27.5155 300.125,-26.1241 301.379,-24.8238"/>
<polygon fill="midnightblue" stroke="midnightblue" points="303.83,-27.3444 309.441,-18.3571 299.45,-21.8841 303.83,-27.3444"/>
</g>
</g>
</svg>
        <g id="navigator" transform="translate(0 0)" fill="#404254">
                <rect fill="#f2f5e9" fill-opacity="0.5" stroke="#606060" stroke-width=".5" x="0" y="0" width="60" height="60"/>
                <use id="zoomplus" xlink:href="#zoomPlus" x="17" y="9" onmousedown="handleZoom(evt,'in')"/>
                <use id="zoomminus" xlink:href="#zoomMin" x="42" y="9" onmousedown="handleZoom(evt,'out')"/>
                <use id="reset" xlink:href="#resetDef" x="30" y="36" onmousedown="handleReset()"/>
                <g id="arrowUp" xlink:href="#dirArrow" transform="translate(30 24)" onmousedown="handlePan(0,-1)">
                  <use xlink:href="#rim" fill="#404040">
                        <set attributeName="fill" to="#808080" begin="arrowUp.mouseover" end="arrowUp.mouseout"/>
                  </use>
                  <path fill="none" stroke="white" stroke-width="1.5" d="M0,-3.0v7 M-2.5,-0.5L0,-3.0L2.5,-0.5"/>
                </g>
                <g id="arrowRight" xlink:href="#dirArrow" transform="rotate(90) translate(36 -43)" onmousedown="handlePan(1,0)">
                  <use xlink:href="#rim" fill="#404040">
                        <set attributeName="fill" to="#808080" begin="arrowRight.mouseover" end="arrowRight.mouseout"/>
                  </use>
                  <path fill="none" stroke="white" stroke-width="1.5" d="M0,-3.0v7 M-2.5,-0.5L0,-3.0L2.5,-0.5"/>
                </g>
                <g id="arrowDown" xlink:href="#dirArrow" transform="rotate(180) translate(-30 -48)" onmousedown="handlePan(0,1)">
                  <use xlink:href="#rim" fill="#404040">
                        <set attributeName="fill" to="#808080" begin="arrowDown.mouseover" end="arrowDown.mouseout"/>
                  </use>
                  <path fill="none" stroke="white" stroke-width="1.5" d="M0,-3.0v7 M-2.5,-0.5L0,-3.0L2.5,-0.5"/>
                </g>
                <g id="arrowLeft" xlink:href="#dirArrow" transform="rotate(270) translate(-36 17)" onmousedown="handlePan(-1,0)">
                  <use xlink:href="#rim" fill="#404040">
                        <set attributeName="fill" to="#808080" begin="arrowLeft.mouseover" end="arrowLeft.mouseout"/>
                  </use>
                  <path fill="none" stroke="white" stroke-width="1.5" d="M0,-3.0v7 M-2.5,-0.5L0,-3.0L2.5,-0.5"/>
                </g>
        </g>
        <svg viewBox="0 0 15 15" width="100%" height="30px" preserveAspectRatio="xMaxYMin meet">
         <g id="arrow_out" transform="scale(0.3 0.3)">
          <a xlink:href="navier5_8F90_ad24367e4a843f60b63a2205aef1ba551_cgraph_org.svg" target="_base">
           <rect id="button" ry="5" rx="5" y="6" x="6" height="38" width="38"
                fill="#f2f5e9" fill-opacity="0.5" stroke="#606060" stroke-width="1.0"/>
           <path id="arrow"
             d="M 11.500037,31.436501 C 11.940474,20.09759 22.043105,11.32322 32.158766,21.979434 L 37.068811,17.246167 C 37.068811,17.246167 37.088388,32 37.088388,32 L 22.160133,31.978069 C 22.160133,31.978069 26.997745,27.140456 26.997745,27.140456 C 18.528582,18.264221 13.291696,25.230495 11.500037,31.436501 z"
             style="fill:#404040;"/>
          </a>
         </g>
        </svg>
</svg>
