<?xml version="1.0" encoding="UTF-8" standalone="no"?>
<!DOCTYPE svg PUBLIC "-//W3C//DTD SVG 1.1//EN"
 "http://www.w3.org/Graphics/SVG/1.1/DTD/svg11.dtd">
<!-- Generated by graphviz version 2.38.0 (20140413.2041)
 -->
<!-- Title: get_local_crs_galerkin Pages: 1 -->
<!--zoomable 997 -->
<svg id="main" version="1.1" xmlns="http://www.w3.org/2000/svg" xmlns:xlink="http://www.w3.org/1999/xlink" xml:space="preserve" onload="init(evt)">
<style type="text/css"><![CDATA[
.edge:hover path { stroke: red; }
.edge:hover polygon { stroke: red; fill: red; }
]]></style>
<script type="text/javascript"><![CDATA[
var edges = document.getElementsByTagName('g');
if (edges && edges.length) {
  for (var i=0;i<edges.length;i++) {
    if (edges[i].id.substr(0,4)=='edge') {
      edges[i].setAttribute('class','edge');
    }
  }
}
]]></script>
        <defs>
                <circle id="rim" cx="0" cy="0" r="7"/>
                <circle id="rim2" cx="0" cy="0" r="3.5"/>
                <g id="zoomPlus">
                        <use xlink:href="#rim" fill="#404040">
                                <set attributeName="fill" to="#808080" begin="zoomplus.mouseover" end="zoomplus.mouseout"/>
                        </use>
                        <path d="M-4,0h8M0,-4v8" fill="none" stroke="white" stroke-width="1.5" pointer-events="none"/>
                </g>
                <g id="zoomMin">
                        <use xlink:href="#rim" fill="#404040">
                                <set attributeName="fill" to="#808080" begin="zoomminus.mouseover" end="zoomminus.mouseout"/>
                        </use>
                        <path d="M-4,0h8" fill="none" stroke="white" stroke-width="1.5" pointer-events="none"/>
                </g>
                <g id="dirArrow">
                        <path fill="none" stroke="white" stroke-width="1.5" d="M0,-3.0v7 M-2.5,-0.5L0,-3.0L2.5,-0.5"/>
                </g>
               <g id="resetDef">
                       <use xlink:href="#rim2" fill="#404040">
                               <set attributeName="fill" to="#808080" begin="reset.mouseover" end="reset.mouseout"/>
                       </use>
               </g>
        </defs>

<script type="text/javascript">
var viewWidth = 1032;
var viewHeight = 997;
var sectionId = 'dynsection-6';
</script>
<script xlink:href="svgpan.js"/>
<svg id="graph" class="graph">
<g id="viewport">
<title>get_local_crs_galerkin</title>
<polygon fill="white" stroke="none" points="-4,4 -4,-993 1028,-993 1028,4 -4,4"/>
<!-- Node1 -->
<g id="node1" class="node"><title>Node1</title>
<polygon fill="#bfbfbf" stroke="black" points="0,-170.5 0,-189.5 123,-189.5 123,-170.5 0,-170.5"/>
<text text-anchor="middle" x="61.5" y="-177.5" font-family="Helvetica,sans-Serif" font-size="10.00">get_local_crs_galerkin</text>
</g>
<!-- Node2 -->
<g id="node2" class="node"><title>Node2</title>
<g id="a_node2"><a xlink:href="hmholtz_8F90.html#aa576b5bd623cce50fd6323db12ba5376" target="_top" xlink:title="Compute the (Helmholtz) matrix&#45;vector product, AU = helm1*[A]u + helm2*[B]u, for NEL elements...">
<polygon fill="white" stroke="black" points="640,-228.5 640,-247.5 690,-247.5 690,-228.5 640,-228.5"/>
<text text-anchor="middle" x="665" y="-235.5" font-family="Helvetica,sans-Serif" font-size="10.00">axhelm</text>
</a>
</g>
</g>
<!-- Node1&#45;&gt;Node2 -->
<g id="edge1" class="edge"><title>Node1&#45;&gt;Node2</title>
<path fill="none" stroke="midnightblue" d="M100.67,-189.54C150.29,-201.086 239.797,-219 317.5,-219 317.5,-219 317.5,-219 432.5,-219 502.686,-219 584.442,-227.782 629.594,-233.405"/>
<polygon fill="midnightblue" stroke="midnightblue" points="629.362,-236.904 639.723,-234.69 630.243,-229.959 629.362,-236.904"/>
</g>
<!-- Node39 -->
<g id="node39" class="node"><title>Node39</title>
<g id="a_node39"><a xlink:href="math_8F90.html#a3b43508554f14bdea8e14473d7d0803c" target="_top" xlink:title="copy">
<polygon fill="white" stroke="black" points="299,-169.5 299,-188.5 338,-188.5 338,-169.5 299,-169.5"/>
<text text-anchor="middle" x="318.5" y="-176.5" font-family="Helvetica,sans-Serif" font-size="10.00">copy</text>
</a>
</g>
</g>
<!-- Node1&#45;&gt;Node39 -->
<g id="edge40" class="edge"><title>Node1&#45;&gt;Node39</title>
<path fill="none" stroke="midnightblue" d="M123.255,-179.762C175.612,-179.556 248.88,-179.269 288.799,-179.113"/>
<polygon fill="midnightblue" stroke="midnightblue" points="288.91,-182.612 298.896,-179.073 288.882,-175.612 288.91,-182.612"/>
</g>
<!-- Node40 -->
<g id="node40" class="node"><title>Node40</title>
<g id="a_node40"><a xlink:href="navier8_8F90.html#aae4a347bc7ce7b06fa7abf792db70953" target="_top" xlink:title="gen_crs_basis">
<polygon fill="white" stroke="black" points="159,-132.5 159,-151.5 244,-151.5 244,-132.5 159,-132.5"/>
<text text-anchor="middle" x="201.5" y="-139.5" font-family="Helvetica,sans-Serif" font-size="10.00">gen_crs_basis</text>
</a>
</g>
</g>
<!-- Node1&#45;&gt;Node40 -->
<g id="edge41" class="edge"><title>Node1&#45;&gt;Node40</title>
<path fill="none" stroke="midnightblue" d="M97.3232,-170.411C115.138,-165.506 137.018,-159.48 156.039,-154.243"/>
<polygon fill="midnightblue" stroke="midnightblue" points="156.976,-157.615 165.688,-151.586 155.118,-150.866 156.976,-157.615"/>
</g>
<!-- Node3 -->
<g id="node3" class="node"><title>Node3</title>
<g id="a_node3"><a xlink:href="classctimer.html#abcecbc845c8ee72e13a19eaa30b80d77" target="_top" xlink:title="ctimer::dnekclock">
<polygon fill="white" stroke="black" points="825,-190.5 825,-209.5 922,-209.5 922,-190.5 825,-190.5"/>
<text text-anchor="middle" x="873.5" y="-197.5" font-family="Helvetica,sans-Serif" font-size="10.00">ctimer::dnekclock</text>
</a>
</g>
</g>
<!-- Node2&#45;&gt;Node3 -->
<g id="edge2" class="edge"><title>Node2&#45;&gt;Node3</title>
<path fill="none" stroke="midnightblue" d="M690.126,-234.786C714.989,-231.353 754.828,-225.519 789,-219 800.069,-216.888 811.904,-214.362 823.08,-211.851"/>
<polygon fill="midnightblue" stroke="midnightblue" points="824.146,-215.197 833.118,-209.561 822.59,-208.373 824.146,-215.197"/>
</g>
<!-- Node5 -->
<g id="node5" class="node"><title>Node5</title>
<g id="a_node5"><a xlink:href="mxm__wrapper_8F90.html#ab9ec2260a10061af6ce1c52f3c8a41da" target="_top" xlink:title="Compute matrix&#45;matrix product C = A*B. ">
<polygon fill="white" stroke="black" points="746,-513.5 746,-532.5 784,-532.5 784,-513.5 746,-513.5"/>
<text text-anchor="middle" x="765" y="-520.5" font-family="Helvetica,sans-Serif" font-size="10.00">mxm</text>
</a>
</g>
</g>
<!-- Node2&#45;&gt;Node5 -->
<g id="edge4" class="edge"><title>Node2&#45;&gt;Node5</title>
<path fill="none" stroke="midnightblue" d="M669.373,-247.81C683.509,-288.92 738.129,-447.763 757.301,-503.519"/>
<polygon fill="midnightblue" stroke="midnightblue" points="754.079,-504.912 760.641,-513.231 760.699,-502.636 754.079,-504.912"/>
</g>
<!-- Node38 -->
<g id="node38" class="node"><title>Node38</title>
<g id="a_node38"><a xlink:href="hmholtz_8F90.html#a0f322d39d4bdffa3f9ba901f72d4a1d0" target="_top" xlink:title="Set logicals for fast evaluation of A*x. ">
<polygon fill="white" stroke="black" points="741,-190.5 741,-209.5 789,-209.5 789,-190.5 741,-190.5"/>
<text text-anchor="middle" x="765" y="-197.5" font-family="Helvetica,sans-Serif" font-size="10.00">setfast</text>
</a>
</g>
</g>
<!-- Node2&#45;&gt;Node38 -->
<g id="edge38" class="edge"><title>Node2&#45;&gt;Node38</title>
<path fill="none" stroke="midnightblue" d="M690.225,-228.607C702.631,-223.796 717.912,-217.871 731.343,-212.663"/>
<polygon fill="midnightblue" stroke="midnightblue" points="732.671,-215.902 740.729,-209.024 730.14,-209.376 732.671,-215.902"/>
</g>
<!-- Node4 -->
<g id="node4" class="node"><title>Node4</title>
<g id="a_node4"><a xlink:href="mpi__dummy_8F90.html#ae6a5ef945f87c2c27849696b70f3af2a" target="_top" xlink:title="mpi_wtime">
<polygon fill="white" stroke="black" points="958,-19.5 958,-38.5 1024,-38.5 1024,-19.5 958,-19.5"/>
<text text-anchor="middle" x="991" y="-26.5" font-family="Helvetica,sans-Serif" font-size="10.00">mpi_wtime</text>
</a>
</g>
</g>
<!-- Node3&#45;&gt;Node4 -->
<g id="edge3" class="edge"><title>Node3&#45;&gt;Node4</title>
<path fill="none" stroke="midnightblue" d="M909.644,-190.389C914.264,-187.928 918.575,-184.848 922,-181 962.715,-135.257 920.956,-96.7632 958,-48 958.791,-46.9582 959.658,-45.9623 960.583,-45.0116"/>
<polygon fill="midnightblue" stroke="midnightblue" points="962.948,-47.6001 968.531,-38.5957 958.551,-42.1532 962.948,-47.6001"/>
</g>
<!-- Node6 -->
<g id="node6" class="node"><title>Node6</title>
<g id="a_node6"><a xlink:href="mxm__std_8F90.html#ac63fe7516a18dc57dfe913ad2c1453be" target="_top" xlink:title="mxm44_0">
<polygon fill="white" stroke="black" points="960,-57.5 960,-76.5 1022,-76.5 1022,-57.5 960,-57.5"/>
<text text-anchor="middle" x="991" y="-64.5" font-family="Helvetica,sans-Serif" font-size="10.00">mxm44_0</text>
</a>
</g>
</g>
<!-- Node5&#45;&gt;Node6 -->
<g id="edge5" class="edge"><title>Node5&#45;&gt;Node6</title>
<path fill="none" stroke="midnightblue" d="M773.864,-513.323C784.384,-500.91 804.146,-479.389 825,-466 863.962,-440.984 893.937,-464.827 922,-428 1014.64,-306.433 875.532,-214.682 958,-86 958.519,-85.1908 959.085,-84.4115 959.692,-83.6614"/>
<polygon fill="midnightblue" stroke="midnightblue" points="962.324,-86.0005 967.409,-76.7057 957.638,-80.8007 962.324,-86.0005"/>
</g>
<!-- Node7 -->
<g id="node7" class="node"><title>Node7</title>
<g id="a_node7"><a xlink:href="mxm__std_8F90.html#af07f4b22fdc3488ca321736743f14b01" target="_top" xlink:title="mxm44_2">
<polygon fill="white" stroke="black" points="842.5,-399.5 842.5,-418.5 904.5,-418.5 904.5,-399.5 842.5,-399.5"/>
<text text-anchor="middle" x="873.5" y="-406.5" font-family="Helvetica,sans-Serif" font-size="10.00">mxm44_2</text>
</a>
</g>
</g>
<!-- Node5&#45;&gt;Node7 -->
<g id="edge6" class="edge"><title>Node5&#45;&gt;Node7</title>
<path fill="none" stroke="midnightblue" d="M770.203,-513.419C778.437,-495.575 798.25,-456.9 825,-433 828.947,-429.474 833.505,-426.324 838.204,-423.559"/>
<polygon fill="midnightblue" stroke="midnightblue" points="840.111,-426.509 847.29,-418.717 836.819,-420.331 840.111,-426.509"/>
</g>
<!-- Node8 -->
<g id="node8" class="node"><title>Node8</title>
<g id="a_node8"><a xlink:href="mxm__bgq_8F90.html#a8a70163b4dbfdbfcce7bff170597fcad" target="_top" xlink:title="mxm_bgq_10">
<polygon fill="white" stroke="black" points="833.5,-665.5 833.5,-684.5 913.5,-684.5 913.5,-665.5 833.5,-665.5"/>
<text text-anchor="middle" x="873.5" y="-672.5" font-family="Helvetica,sans-Serif" font-size="10.00">mxm_bgq_10</text>
</a>
</g>
</g>
<!-- Node5&#45;&gt;Node8 -->
<g id="edge7" class="edge"><title>Node5&#45;&gt;Node8</title>
<path fill="none" stroke="midnightblue" d="M767.721,-532.807C772.46,-557.017 787.894,-620.243 825,-656 826.611,-657.552 828.365,-658.983 830.217,-660.301"/>
<polygon fill="midnightblue" stroke="midnightblue" points="828.449,-663.321 838.84,-665.387 832.005,-657.292 828.449,-663.321"/>
</g>
<!-- Node9 -->
<g id="node9" class="node"><title>Node9</title>
<g id="a_node9"><a xlink:href="mxm__bgq_8F90.html#a27529ace9834454b8906f29e02718629" target="_top" xlink:title="mxm_bgq_12">
<polygon fill="white" stroke="black" points="833.5,-627.5 833.5,-646.5 913.5,-646.5 913.5,-627.5 833.5,-627.5"/>
<text text-anchor="middle" x="873.5" y="-634.5" font-family="Helvetica,sans-Serif" font-size="10.00">mxm_bgq_12</text>
</a>
</g>
</g>
<!-- Node5&#45;&gt;Node9 -->
<g id="edge8" class="edge"><title>Node5&#45;&gt;Node9</title>
<path fill="none" stroke="midnightblue" d="M769.627,-532.759C777.138,-551.721 796.138,-593.8 825,-618 826.965,-619.648 829.091,-621.166 831.317,-622.562"/>
<polygon fill="midnightblue" stroke="midnightblue" points="829.8,-625.719 840.267,-627.362 833.108,-619.551 829.8,-625.719"/>
</g>
<!-- Node10 -->
<g id="node10" class="node"><title>Node10</title>
<g id="a_node10"><a xlink:href="mxm__bgq_8F90.html#a3fda9ea4bc7a5713a19d6939fa2b541f" target="_top" xlink:title="mxm_bgq_16">
<polygon fill="white" stroke="black" points="833.5,-589.5 833.5,-608.5 913.5,-608.5 913.5,-589.5 833.5,-589.5"/>
<text text-anchor="middle" x="873.5" y="-596.5" font-family="Helvetica,sans-Serif" font-size="10.00">mxm_bgq_16</text>
</a>
</g>
</g>
<!-- Node5&#45;&gt;Node10 -->
<g id="edge9" class="edge"><title>Node5&#45;&gt;Node10</title>
<path fill="none" stroke="midnightblue" d="M773.878,-532.654C784.415,-545.042 804.194,-566.537 825,-580 827.922,-581.891 831.063,-583.648 834.286,-585.268"/>
<polygon fill="midnightblue" stroke="midnightblue" points="832.929,-588.496 843.479,-589.468 835.838,-582.129 832.929,-588.496"/>
</g>
<!-- Node11 -->
<g id="node11" class="node"><title>Node11</title>
<g id="a_node11"><a xlink:href="mxm__bgq_8F90.html#af192c3c8b982aa5bbc2a757156718a91" target="_top" xlink:title="mxm_bgq_6">
<polygon fill="white" stroke="black" points="836.5,-551.5 836.5,-570.5 910.5,-570.5 910.5,-551.5 836.5,-551.5"/>
<text text-anchor="middle" x="873.5" y="-558.5" font-family="Helvetica,sans-Serif" font-size="10.00">mxm_bgq_6</text>
</a>
</g>
</g>
<!-- Node5&#45;&gt;Node11 -->
<g id="edge10" class="edge"><title>Node5&#45;&gt;Node11</title>
<path fill="none" stroke="midnightblue" d="M784.066,-529.446C798.155,-534.473 818.192,-541.623 835.632,-547.845"/>
<polygon fill="midnightblue" stroke="midnightblue" points="834.941,-551.315 845.535,-551.379 837.293,-544.722 834.941,-551.315"/>
</g>
<!-- Node12 -->
<g id="node12" class="node"><title>Node12</title>
<g id="a_node12"><a xlink:href="mxm__bgq_8F90.html#a8faaef428336095704ece51624bbfe92" target="_top" xlink:title="mxm_bgq_8">
<polygon fill="white" stroke="black" points="836.5,-513.5 836.5,-532.5 910.5,-532.5 910.5,-513.5 836.5,-513.5"/>
<text text-anchor="middle" x="873.5" y="-520.5" font-family="Helvetica,sans-Serif" font-size="10.00">mxm_bgq_8</text>
</a>
</g>
</g>
<!-- Node5&#45;&gt;Node12 -->
<g id="edge11" class="edge"><title>Node5&#45;&gt;Node12</title>
<path fill="none" stroke="midnightblue" d="M784.066,-523C795.639,-523 811.224,-523 826.086,-523"/>
<polygon fill="midnightblue" stroke="midnightblue" points="826.202,-526.5 836.202,-523 826.202,-519.5 826.202,-526.5"/>
</g>
<!-- Node13 -->
<g id="node13" class="node"><title>Node13</title>
<g id="a_node13"><a xlink:href="mxm__std_8F90.html#aa9e8685c4a72f18fb5d1ee88ed17a3d6" target="_top" xlink:title="unrolled loop version ">
<polygon fill="white" stroke="black" points="850,-475.5 850,-494.5 897,-494.5 897,-475.5 850,-475.5"/>
<text text-anchor="middle" x="873.5" y="-482.5" font-family="Helvetica,sans-Serif" font-size="10.00">mxmf2</text>
</a>
</g>
</g>
<!-- Node5&#45;&gt;Node13 -->
<g id="edge12" class="edge"><title>Node5&#45;&gt;Node13</title>
<path fill="none" stroke="midnightblue" d="M784.066,-516.554C799.459,-511.061 821.953,-503.036 840.401,-496.453"/>
<polygon fill="midnightblue" stroke="midnightblue" points="841.649,-499.724 849.892,-493.067 839.297,-493.131 841.649,-499.724"/>
</g>
<!-- Node13&#45;&gt;Node6 -->
<g id="edge37" class="edge"><title>Node13&#45;&gt;Node6</title>
<path fill="none" stroke="midnightblue" d="M897.139,-478.872C906.341,-475.206 916.163,-469.545 922,-461 1016.45,-322.748 868.305,-227.381 958,-86 958.515,-85.1885 959.078,-84.4071 959.682,-83.6551"/>
<polygon fill="midnightblue" stroke="midnightblue" points="962.315,-85.9928 967.382,-76.6881 957.618,-80.8021 962.315,-85.9928"/>
</g>
<!-- Node14 -->
<g id="node14" class="node"><title>Node14</title>
<g id="a_node14"><a xlink:href="mxm__std_8F90.html#a7d3ac03517b3934b98857b22f7f78788" target="_top" xlink:title="mxf1">
<polygon fill="white" stroke="black" points="971.5,-893.5 971.5,-912.5 1010.5,-912.5 1010.5,-893.5 971.5,-893.5"/>
<text text-anchor="middle" x="991" y="-900.5" font-family="Helvetica,sans-Serif" font-size="10.00">mxf1</text>
</a>
</g>
</g>
<!-- Node13&#45;&gt;Node14 -->
<g id="edge13" class="edge"><title>Node13&#45;&gt;Node14</title>
<path fill="none" stroke="midnightblue" d="M897.023,-488.712C906.204,-491.403 916.04,-496.035 922,-504 1023.63,-639.831 867.209,-740.694 958,-884 959.392,-886.197 961.137,-888.172 963.09,-889.942"/>
<polygon fill="midnightblue" stroke="midnightblue" points="961.159,-892.864 971.345,-895.78 965.201,-887.148 961.159,-892.864"/>
</g>
<!-- Node15 -->
<g id="node15" class="node"><title>Node15</title>
<g id="a_node15"><a xlink:href="mxm__std_8F90.html#a5786b175fcbe28ecafe1d878687c3ccf" target="_top" xlink:title="mxf10">
<polygon fill="white" stroke="black" points="968.5,-855.5 968.5,-874.5 1013.5,-874.5 1013.5,-855.5 968.5,-855.5"/>
<text text-anchor="middle" x="991" y="-862.5" font-family="Helvetica,sans-Serif" font-size="10.00">mxf10</text>
</a>
</g>
</g>
<!-- Node13&#45;&gt;Node15 -->
<g id="edge14" class="edge"><title>Node13&#45;&gt;Node15</title>
<path fill="none" stroke="midnightblue" d="M897.476,-488.888C906.507,-491.604 916.106,-496.208 922,-504 1014.2,-625.896 875.532,-717.318 958,-846 958.726,-847.132 959.545,-848.206 960.437,-849.223"/>
<polygon fill="midnightblue" stroke="midnightblue" points="958.492,-852.162 968.387,-855.949 963.013,-846.818 958.492,-852.162"/>
</g>
<!-- Node16 -->
<g id="node16" class="node"><title>Node16</title>
<g id="a_node16"><a xlink:href="mxm__std_8F90.html#a244c7a41b5b7a22acba71c34552c2774" target="_top" xlink:title="mxf11">
<polygon fill="white" stroke="black" points="968.5,-817.5 968.5,-836.5 1013.5,-836.5 1013.5,-817.5 968.5,-817.5"/>
<text text-anchor="middle" x="991" y="-824.5" font-family="Helvetica,sans-Serif" font-size="10.00">mxf11</text>
</a>
</g>
</g>
<!-- Node13&#45;&gt;Node16 -->
<g id="edge15" class="edge"><title>Node13&#45;&gt;Node16</title>
<path fill="none" stroke="midnightblue" d="M897.426,-488.925C906.45,-491.648 916.056,-496.246 922,-504 1004.78,-611.974 883.845,-693.929 958,-808 958.733,-809.127 959.558,-810.197 960.456,-811.211"/>
<polygon fill="midnightblue" stroke="midnightblue" points="958.523,-814.159 968.427,-817.923 963.032,-808.805 958.523,-814.159"/>
</g>
<!-- Node17 -->
<g id="node17" class="node"><title>Node17</title>
<g id="a_node17"><a xlink:href="mxm__std_8F90.html#afb2e2cde9040ab037e3586b0deef3851" target="_top" xlink:title="mxf12">
<polygon fill="white" stroke="black" points="968.5,-779.5 968.5,-798.5 1013.5,-798.5 1013.5,-779.5 968.5,-779.5"/>
<text text-anchor="middle" x="991" y="-786.5" font-family="Helvetica,sans-Serif" font-size="10.00">mxf12</text>
</a>
</g>
</g>
<!-- Node13&#45;&gt;Node17 -->
<g id="edge16" class="edge"><title>Node13&#45;&gt;Node17</title>
<path fill="none" stroke="midnightblue" d="M897.364,-488.974C906.376,-491.705 915.991,-496.296 922,-504 995.371,-598.07 892.147,-670.522 958,-770 958.742,-771.121 959.575,-772.186 960.48,-773.195"/>
<polygon fill="midnightblue" stroke="midnightblue" points="958.563,-776.155 968.477,-779.89 963.056,-770.788 958.563,-776.155"/>
</g>
<!-- Node18 -->
<g id="node18" class="node"><title>Node18</title>
<g id="a_node18"><a xlink:href="mxm__std_8F90.html#a6a048a62b47a5c2327279e158c1689df" target="_top" xlink:title="mxf13">
<polygon fill="white" stroke="black" points="968.5,-741.5 968.5,-760.5 1013.5,-760.5 1013.5,-741.5 968.5,-741.5"/>
<text text-anchor="middle" x="991" y="-748.5" font-family="Helvetica,sans-Serif" font-size="10.00">mxf13</text>
</a>
</g>
</g>
<!-- Node13&#45;&gt;Node18 -->
<g id="edge17" class="edge"><title>Node13&#45;&gt;Node18</title>
<path fill="none" stroke="midnightblue" d="M897.281,-489.039C906.28,-491.781 915.907,-496.363 922,-504 985.983,-584.191 900.431,-647.087 958,-732 958.734,-733.083 959.552,-734.113 960.437,-735.093"/>
<polygon fill="midnightblue" stroke="midnightblue" points="958.308,-737.876 968.216,-741.631 962.812,-732.517 958.308,-737.876"/>
</g>
<!-- Node19 -->
<g id="node19" class="node"><title>Node19</title>
<g id="a_node19"><a xlink:href="mxm__std_8F90.html#a6e57628b882cb8bcac215e9a5b523eed" target="_top" xlink:title="mxf14">
<polygon fill="white" stroke="black" points="968.5,-703.5 968.5,-722.5 1013.5,-722.5 1013.5,-703.5 968.5,-703.5"/>
<text text-anchor="middle" x="991" y="-710.5" font-family="Helvetica,sans-Serif" font-size="10.00">mxf14</text>
</a>
</g>
</g>
<!-- Node13&#45;&gt;Node19 -->
<g id="edge18" class="edge"><title>Node13&#45;&gt;Node19</title>
<path fill="none" stroke="midnightblue" d="M897.168,-489.131C906.147,-491.889 915.79,-496.457 922,-504 976.627,-570.353 908.685,-623.609 958,-694 958.751,-695.072 959.583,-696.092 960.479,-697.064"/>
<polygon fill="midnightblue" stroke="midnightblue" points="958.378,-699.869 968.307,-703.568 962.852,-694.485 958.378,-699.869"/>
</g>
<!-- Node20 -->
<g id="node20" class="node"><title>Node20</title>
<g id="a_node20"><a xlink:href="mxm__std_8F90.html#a02e79201be026faf756be00e58334c4f" target="_top" xlink:title="mxf15">
<polygon fill="white" stroke="black" points="968.5,-665.5 968.5,-684.5 1013.5,-684.5 1013.5,-665.5 968.5,-665.5"/>
<text text-anchor="middle" x="991" y="-672.5" font-family="Helvetica,sans-Serif" font-size="10.00">mxf15</text>
</a>
</g>
</g>
<!-- Node13&#45;&gt;Node20 -->
<g id="edge19" class="edge"><title>Node13&#45;&gt;Node20</title>
<path fill="none" stroke="midnightblue" d="M897.002,-489.27C905.954,-492.051 915.621,-496.6 922,-504 967.328,-556.584 916.888,-600.058 958,-656 958.775,-657.054 959.627,-658.061 960.54,-659.02"/>
<polygon fill="midnightblue" stroke="midnightblue" points="958.481,-661.857 968.439,-665.473 962.909,-656.436 958.481,-661.857"/>
</g>
<!-- Node21 -->
<g id="node21" class="node"><title>Node21</title>
<g id="a_node21"><a xlink:href="mxm__std_8F90.html#a2fbea6eeadc258673ba8ea5708593aee" target="_top" xlink:title="mxf16">
<polygon fill="white" stroke="black" points="968.5,-627.5 968.5,-646.5 1013.5,-646.5 1013.5,-627.5 968.5,-627.5"/>
<text text-anchor="middle" x="991" y="-634.5" font-family="Helvetica,sans-Serif" font-size="10.00">mxf16</text>
</a>
</g>
</g>
<!-- Node13&#45;&gt;Node21 -->
<g id="edge20" class="edge"><title>Node13&#45;&gt;Node21</title>
<path fill="none" stroke="midnightblue" d="M897.229,-489.658C906.001,-492.489 915.475,-496.969 922,-504 958.143,-542.946 924.987,-576.367 958,-618 958.813,-619.025 959.697,-620.007 960.637,-620.946"/>
<polygon fill="midnightblue" stroke="midnightblue" points="958.643,-623.832 968.649,-627.313 962.998,-618.351 958.643,-623.832"/>
</g>
<!-- Node22 -->
<g id="node22" class="node"><title>Node22</title>
<g id="a_node22"><a xlink:href="mxm__std_8F90.html#a3829af481cd230e6aadef08feab9a278" target="_top" xlink:title="mxf17">
<polygon fill="white" stroke="black" points="968.5,-589.5 968.5,-608.5 1013.5,-608.5 1013.5,-589.5 968.5,-589.5"/>
<text text-anchor="middle" x="991" y="-596.5" font-family="Helvetica,sans-Serif" font-size="10.00">mxf17</text>
</a>
</g>
</g>
<!-- Node13&#45;&gt;Node22 -->
<g id="edge21" class="edge"><title>Node13&#45;&gt;Node22</title>
<path fill="none" stroke="midnightblue" d="M897.247,-490.284C905.817,-493.186 915.14,-497.552 922,-504 949.233,-529.599 932.835,-552.366 958,-580 959.033,-581.135 960.15,-582.222 961.326,-583.262"/>
<polygon fill="midnightblue" stroke="midnightblue" points="959.561,-586.308 969.69,-589.414 963.709,-580.669 959.561,-586.308"/>
</g>
<!-- Node23 -->
<g id="node23" class="node"><title>Node23</title>
<g id="a_node23"><a xlink:href="mxm__std_8F90.html#a48ed8195cc978a87c005b3306a974894" target="_top" xlink:title="mxf18">
<polygon fill="white" stroke="black" points="968.5,-551.5 968.5,-570.5 1013.5,-570.5 1013.5,-551.5 968.5,-551.5"/>
<text text-anchor="middle" x="991" y="-558.5" font-family="Helvetica,sans-Serif" font-size="10.00">mxf18</text>
</a>
</g>
</g>
<!-- Node13&#45;&gt;Node23 -->
<g id="edge22" class="edge"><title>Node13&#45;&gt;Node23</title>
<path fill="none" stroke="midnightblue" d="M897.25,-491.83C905.442,-494.861 914.505,-498.911 922,-504 941.247,-517.068 939.824,-527.478 958,-542 959.59,-543.27 961.273,-544.516 963.003,-545.723"/>
<polygon fill="midnightblue" stroke="midnightblue" points="961.511,-548.925 971.817,-551.382 965.293,-543.034 961.511,-548.925"/>
</g>
<!-- Node24 -->
<g id="node24" class="node"><title>Node24</title>
<g id="a_node24"><a xlink:href="mxm__std_8F90.html#a28a9857286e11804e1a97875028ecb09" target="_top" xlink:title="mxf19">
<polygon fill="white" stroke="black" points="968.5,-513.5 968.5,-532.5 1013.5,-532.5 1013.5,-513.5 968.5,-513.5"/>
<text text-anchor="middle" x="991" y="-520.5" font-family="Helvetica,sans-Serif" font-size="10.00">mxf19</text>
</a>
</g>
</g>
<!-- Node13&#45;&gt;Node24 -->
<g id="edge23" class="edge"><title>Node13&#45;&gt;Node24</title>
<path fill="none" stroke="midnightblue" d="M897.044,-492.417C914.598,-498.192 939.17,-506.277 958.642,-512.683"/>
<polygon fill="midnightblue" stroke="midnightblue" points="957.703,-516.058 968.295,-515.859 959.89,-509.409 957.703,-516.058"/>
</g>
<!-- Node25 -->
<g id="node25" class="node"><title>Node25</title>
<g id="a_node25"><a xlink:href="mxm__std_8F90.html#acd223c583f3a9242fda7a1b8897b624d" target="_top" xlink:title="mxf2">
<polygon fill="white" stroke="black" points="971.5,-475.5 971.5,-494.5 1010.5,-494.5 1010.5,-475.5 971.5,-475.5"/>
<text text-anchor="middle" x="991" y="-482.5" font-family="Helvetica,sans-Serif" font-size="10.00">mxf2</text>
</a>
</g>
</g>
<!-- Node13&#45;&gt;Node25 -->
<g id="edge24" class="edge"><title>Node13&#45;&gt;Node25</title>
<path fill="none" stroke="midnightblue" d="M897.044,-485C915.408,-485 941.452,-485 961.303,-485"/>
<polygon fill="midnightblue" stroke="midnightblue" points="961.326,-488.5 971.326,-485 961.326,-481.5 961.326,-488.5"/>
</g>
<!-- Node26 -->
<g id="node26" class="node"><title>Node26</title>
<g id="a_node26"><a xlink:href="mxm__std_8F90.html#af60059bd60847f48acdf6461fefa3b22" target="_top" xlink:title="mxf20">
<polygon fill="white" stroke="black" points="968.5,-437.5 968.5,-456.5 1013.5,-456.5 1013.5,-437.5 968.5,-437.5"/>
<text text-anchor="middle" x="991" y="-444.5" font-family="Helvetica,sans-Serif" font-size="10.00">mxf20</text>
</a>
</g>
</g>
<!-- Node13&#45;&gt;Node26 -->
<g id="edge25" class="edge"><title>Node13&#45;&gt;Node26</title>
<path fill="none" stroke="midnightblue" d="M897.044,-477.583C914.598,-471.808 939.17,-463.723 958.642,-457.317"/>
<polygon fill="midnightblue" stroke="midnightblue" points="959.89,-460.591 968.295,-454.141 957.703,-453.942 959.89,-460.591"/>
</g>
<!-- Node27 -->
<g id="node27" class="node"><title>Node27</title>
<g id="a_node27"><a xlink:href="mxm__std_8F90.html#a825db174c5643aef5e4cdf57067ebbbb" target="_top" xlink:title="mxf21">
<polygon fill="white" stroke="black" points="968.5,-399.5 968.5,-418.5 1013.5,-418.5 1013.5,-399.5 968.5,-399.5"/>
<text text-anchor="middle" x="991" y="-406.5" font-family="Helvetica,sans-Serif" font-size="10.00">mxf21</text>
</a>
</g>
</g>
<!-- Node13&#45;&gt;Node27 -->
<g id="edge26" class="edge"><title>Node13&#45;&gt;Node27</title>
<path fill="none" stroke="midnightblue" d="M896.492,-475.444C904.775,-471.45 914.096,-466.464 922,-461 939.854,-448.657 940.576,-440.943 958,-428 959.812,-426.654 961.726,-425.321 963.679,-424.024"/>
<polygon fill="midnightblue" stroke="midnightblue" points="965.688,-426.896 972.309,-418.625 961.975,-420.962 965.688,-426.896"/>
</g>
<!-- Node28 -->
<g id="node28" class="node"><title>Node28</title>
<g id="a_node28"><a xlink:href="mxm__std_8F90.html#a1f2059cb835b2818aef861f2f59a0a72" target="_top" xlink:title="mxf22">
<polygon fill="white" stroke="black" points="968.5,-361.5 968.5,-380.5 1013.5,-380.5 1013.5,-361.5 968.5,-361.5"/>
<text text-anchor="middle" x="991" y="-368.5" font-family="Helvetica,sans-Serif" font-size="10.00">mxf22</text>
</a>
</g>
</g>
<!-- Node13&#45;&gt;Node28 -->
<g id="edge27" class="edge"><title>Node13&#45;&gt;Node28</title>
<path fill="none" stroke="midnightblue" d="M897.175,-477.064C905.735,-473.225 915.07,-467.92 922,-461 947.035,-436 933.829,-415.836 958,-390 959.048,-388.879 960.178,-387.803 961.364,-386.773"/>
<polygon fill="midnightblue" stroke="midnightblue" points="963.742,-389.371 969.762,-380.652 959.619,-383.714 963.742,-389.371"/>
</g>
<!-- Node29 -->
<g id="node29" class="node"><title>Node29</title>
<g id="a_node29"><a xlink:href="mxm__std_8F90.html#a3dc6491b8d44b702dbbb13a01f887c59" target="_top" xlink:title="mxf23">
<polygon fill="white" stroke="black" points="968.5,-323.5 968.5,-342.5 1013.5,-342.5 1013.5,-323.5 968.5,-323.5"/>
<text text-anchor="middle" x="991" y="-330.5" font-family="Helvetica,sans-Serif" font-size="10.00">mxf23</text>
</a>
</g>
</g>
<!-- Node13&#45;&gt;Node29 -->
<g id="edge28" class="edge"><title>Node13&#45;&gt;Node29</title>
<path fill="none" stroke="midnightblue" d="M897.242,-477.792C906.017,-474.014 915.488,-468.561 922,-461 955.293,-422.342 926.04,-391.767 958,-352 958.936,-350.835 959.964,-349.726 961.06,-348.672"/>
<polygon fill="midnightblue" stroke="midnightblue" points="963.257,-351.397 969.017,-342.504 958.969,-345.864 963.257,-351.397"/>
</g>
<!-- Node30 -->
<g id="node30" class="node"><title>Node30</title>
<g id="a_node30"><a xlink:href="mxm__std_8F90.html#af0752c9a61343489900f8d812c6980ed" target="_top" xlink:title="mxf24">
<polygon fill="white" stroke="black" points="968.5,-285.5 968.5,-304.5 1013.5,-304.5 1013.5,-285.5 968.5,-285.5"/>
<text text-anchor="middle" x="991" y="-292.5" font-family="Helvetica,sans-Serif" font-size="10.00">mxf24</text>
</a>
</g>
</g>
<!-- Node13&#45;&gt;Node30 -->
<g id="edge29" class="edge"><title>Node13&#45;&gt;Node30</title>
<path fill="none" stroke="midnightblue" d="M897.056,-478.249C906.017,-474.506 915.676,-468.956 922,-461 963.852,-408.342 917.961,-368.049 958,-314 958.779,-312.949 959.635,-311.945 960.55,-310.987"/>
<polygon fill="midnightblue" stroke="midnightblue" points="962.919,-313.573 968.461,-304.543 958.498,-308.145 962.919,-313.573"/>
</g>
<!-- Node31 -->
<g id="node31" class="node"><title>Node31</title>
<g id="a_node31"><a xlink:href="mxm__std_8F90.html#abff718a387aa354f77d0e8b0ffa98867" target="_top" xlink:title="mxf3">
<polygon fill="white" stroke="black" points="971.5,-247.5 971.5,-266.5 1010.5,-266.5 1010.5,-247.5 971.5,-247.5"/>
<text text-anchor="middle" x="991" y="-254.5" font-family="Helvetica,sans-Serif" font-size="10.00">mxf3</text>
</a>
</g>
</g>
<!-- Node13&#45;&gt;Node31 -->
<g id="edge30" class="edge"><title>Node13&#45;&gt;Node31</title>
<path fill="none" stroke="midnightblue" d="M897.244,-478.395C906.237,-474.677 915.869,-469.106 922,-461 972.531,-394.193 909.768,-344.485 958,-276 959.36,-274.069 960.985,-272.301 962.77,-270.691"/>
<polygon fill="midnightblue" stroke="midnightblue" points="965.194,-273.262 971.308,-264.609 961.132,-267.56 965.194,-273.262"/>
</g>
<!-- Node32 -->
<g id="node32" class="node"><title>Node32</title>
<g id="a_node32"><a xlink:href="mxm__std_8F90.html#a2f4e4e1b4daebbd4d0580029d0f54016" target="_top" xlink:title="mxf4">
<polygon fill="white" stroke="black" points="971.5,-209.5 971.5,-228.5 1010.5,-228.5 1010.5,-209.5 971.5,-209.5"/>
<text text-anchor="middle" x="991" y="-216.5" font-family="Helvetica,sans-Serif" font-size="10.00">mxf4</text>
</a>
</g>
</g>
<!-- Node13&#45;&gt;Node32 -->
<g id="edge31" class="edge"><title>Node13&#45;&gt;Node32</title>
<path fill="none" stroke="midnightblue" d="M897.372,-478.49C906.386,-474.788 916,-469.203 922,-461 981.268,-379.968 901.519,-320.999 958,-238 959.329,-236.047 960.931,-234.264 962.701,-232.643"/>
<polygon fill="midnightblue" stroke="midnightblue" points="965.123,-235.213 971.211,-226.542 961.045,-229.524 965.123,-235.213"/>
</g>
<!-- Node33 -->
<g id="node33" class="node"><title>Node33</title>
<g id="a_node33"><a xlink:href="mxm__std_8F90.html#a5a6d5c31350c601ba8327b75a72cba0a" target="_top" xlink:title="mxf5">
<polygon fill="white" stroke="black" points="971.5,-171.5 971.5,-190.5 1010.5,-190.5 1010.5,-171.5 971.5,-171.5"/>
<text text-anchor="middle" x="991" y="-178.5" font-family="Helvetica,sans-Serif" font-size="10.00">mxf5</text>
</a>
</g>
</g>
<!-- Node13&#45;&gt;Node33 -->
<g id="edge32" class="edge"><title>Node13&#45;&gt;Node33</title>
<path fill="none" stroke="midnightblue" d="M897.465,-478.557C906.494,-474.866 916.095,-469.272 922,-461 990.039,-365.697 893.238,-297.56 958,-200 959.438,-197.833 961.215,-195.878 963.189,-194.122"/>
<polygon fill="midnightblue" stroke="midnightblue" points="965.302,-196.915 971.475,-188.305 961.28,-191.186 965.302,-196.915"/>
</g>
<!-- Node34 -->
<g id="node34" class="node"><title>Node34</title>
<g id="a_node34"><a xlink:href="mxm__std_8F90.html#a38a142edde1e72a918d280747a319f7a" target="_top" xlink:title="mxf6">
<polygon fill="white" stroke="black" points="971.5,-133.5 971.5,-152.5 1010.5,-152.5 1010.5,-133.5 971.5,-133.5"/>
<text text-anchor="middle" x="991" y="-140.5" font-family="Helvetica,sans-Serif" font-size="10.00">mxf6</text>
</a>
</g>
</g>
<!-- Node13&#45;&gt;Node34 -->
<g id="edge33" class="edge"><title>Node13&#45;&gt;Node34</title>
<path fill="none" stroke="midnightblue" d="M897.042,-478.805C906.226,-475.127 916.06,-469.474 922,-461 998.829,-351.398 884.939,-274.149 958,-162 959.42,-159.821 961.184,-157.858 963.149,-156.096"/>
<polygon fill="midnightblue" stroke="midnightblue" points="965.261,-158.889 971.423,-150.27 961.231,-153.166 965.261,-158.889"/>
</g>
<!-- Node35 -->
<g id="node35" class="node"><title>Node35</title>
<g id="a_node35"><a xlink:href="mxm__std_8F90.html#a1919ea16c0a7b4e248e45e983c29d965" target="_top" xlink:title="mxf7">
<polygon fill="white" stroke="black" points="971.5,-95.5 971.5,-114.5 1010.5,-114.5 1010.5,-95.5 971.5,-95.5"/>
<text text-anchor="middle" x="991" y="-102.5" font-family="Helvetica,sans-Serif" font-size="10.00">mxf7</text>
</a>
</g>
</g>
<!-- Node13&#45;&gt;Node35 -->
<g id="edge34" class="edge"><title>Node13&#45;&gt;Node35</title>
<path fill="none" stroke="midnightblue" d="M897.096,-478.843C906.29,-475.171 916.117,-469.513 922,-461 1007.63,-337.079 876.626,-250.758 958,-124 959.405,-121.812 961.159,-119.842 963.118,-118.076"/>
<polygon fill="midnightblue" stroke="midnightblue" points="965.229,-120.869 971.382,-112.244 961.193,-115.15 965.229,-120.869"/>
</g>
<!-- Node36 -->
<g id="node36" class="node"><title>Node36</title>
<g id="a_node36"><a xlink:href="mxm__std_8F90.html#af4bd28930a9d674bbcad09ad75fa81ef" target="_top" xlink:title="mxf8">
<polygon fill="white" stroke="black" points="971.5,-969.5 971.5,-988.5 1010.5,-988.5 1010.5,-969.5 971.5,-969.5"/>
<text text-anchor="middle" x="991" y="-976.5" font-family="Helvetica,sans-Serif" font-size="10.00">mxf8</text>
</a>
</g>
</g>
<!-- Node13&#45;&gt;Node36 -->
<g id="edge35" class="edge"><title>Node13&#45;&gt;Node36</title>
<path fill="none" stroke="midnightblue" d="M897.082,-488.668C906.274,-491.351 916.103,-495.989 922,-504 982.258,-585.862 904.274,-873.71 958,-960 959.375,-962.208 961.108,-964.191 963.053,-965.965"/>
<polygon fill="midnightblue" stroke="midnightblue" points="961.114,-968.881 971.296,-971.811 965.163,-963.171 961.114,-968.881"/>
</g>
<!-- Node37 -->
<g id="node37" class="node"><title>Node37</title>
<g id="a_node37"><a xlink:href="mxm__std_8F90.html#a8ab38e8d33e92444b748159b82759c27" target="_top" xlink:title="mxf9">
<polygon fill="white" stroke="black" points="971.5,-931.5 971.5,-950.5 1010.5,-950.5 1010.5,-931.5 971.5,-931.5"/>
<text text-anchor="middle" x="991" y="-938.5" font-family="Helvetica,sans-Serif" font-size="10.00">mxf9</text>
</a>
</g>
</g>
<!-- Node13&#45;&gt;Node37 -->
<g id="edge36" class="edge"><title>Node13&#45;&gt;Node37</title>
<path fill="none" stroke="midnightblue" d="M897.055,-488.688C906.242,-491.374 916.075,-496.01 922,-504 977.536,-578.887 908.441,-843.03 958,-922 959.382,-924.203 961.121,-926.182 963.07,-927.955"/>
<polygon fill="midnightblue" stroke="midnightblue" points="961.135,-930.873 971.318,-933.797 965.181,-925.161 961.135,-930.873"/>
</g>
<!-- Node38&#45;&gt;Node3 -->
<g id="edge39" class="edge"><title>Node38&#45;&gt;Node3</title>
<path fill="none" stroke="midnightblue" d="M789.109,-200C796.754,-200 805.635,-200 814.694,-200"/>
<polygon fill="midnightblue" stroke="midnightblue" points="814.939,-203.5 824.939,-200 814.939,-196.5 814.939,-203.5"/>
</g>
<!-- Node40&#45;&gt;Node39 -->
<g id="edge42" class="edge"><title>Node40&#45;&gt;Node39</title>
<path fill="none" stroke="midnightblue" d="M232.115,-151.528C249.695,-157.184 271.863,-164.317 289.205,-169.896"/>
<polygon fill="midnightblue" stroke="midnightblue" points="288.196,-173.248 298.787,-172.979 290.34,-166.585 288.196,-173.248"/>
</g>
<!-- Node41 -->
<g id="node41" class="node"><title>Node41</title>
<g id="a_node41"><a xlink:href="classspeclib.html#ab649647711dc444ca710b98bf943b0d8" target="_top" xlink:title="speclib::zwgll">
<polygon fill="white" stroke="black" points="280,-129.5 280,-148.5 357,-148.5 357,-129.5 280,-129.5"/>
<text text-anchor="middle" x="318.5" y="-136.5" font-family="Helvetica,sans-Serif" font-size="10.00">speclib::zwgll</text>
</a>
</g>
</g>
<!-- Node40&#45;&gt;Node41 -->
<g id="edge43" class="edge"><title>Node40&#45;&gt;Node41</title>
<path fill="none" stroke="midnightblue" d="M244.018,-140.917C252.342,-140.7 261.152,-140.47 269.671,-140.248"/>
<polygon fill="midnightblue" stroke="midnightblue" points="269.959,-143.741 279.865,-139.982 269.777,-136.744 269.959,-143.741"/>
</g>
<!-- Node42 -->
<g id="node42" class="node"><title>Node42</title>
<g id="a_node42"><a xlink:href="classspeclib.html#a7f8bbfa94e61b0b498a78f57a3b2d46d" target="_top" xlink:title="speclib::zwglj">
<polygon fill="white" stroke="black" points="393,-124.5 393,-143.5 470,-143.5 470,-124.5 393,-124.5"/>
<text text-anchor="middle" x="431.5" y="-131.5" font-family="Helvetica,sans-Serif" font-size="10.00">speclib::zwglj</text>
</a>
</g>
</g>
<!-- Node41&#45;&gt;Node42 -->
<g id="edge44" class="edge"><title>Node41&#45;&gt;Node42</title>
<path fill="none" stroke="midnightblue" d="M357.08,-137.307C365.307,-136.937 374.123,-136.54 382.69,-136.154"/>
<polygon fill="midnightblue" stroke="midnightblue" points="383.127,-139.638 392.959,-135.691 382.812,-132.645 383.127,-139.638"/>
</g>
<!-- Node43 -->
<g id="node43" class="node"><title>Node43</title>
<g id="a_node43"><a xlink:href="byte_8c.html#a2da8eeb074dfd3ffbfb3e9a4d301cda4" target="_top" xlink:title="exitt">
<polygon fill="white" stroke="black" points="747,-114.5 747,-133.5 783,-133.5 783,-114.5 747,-114.5"/>
<text text-anchor="middle" x="765" y="-121.5" font-family="Helvetica,sans-Serif" font-size="10.00">exitt</text>
</a>
</g>
</g>
<!-- Node42&#45;&gt;Node43 -->
<g id="edge45" class="edge"><title>Node42&#45;&gt;Node43</title>
<path fill="none" stroke="midnightblue" d="M464.436,-124.427C477.247,-120.934 492.217,-117.284 506,-115 593.344,-100.526 617.434,-92.9396 705,-106 715.691,-107.595 727.124,-110.73 737.051,-113.943"/>
<polygon fill="midnightblue" stroke="midnightblue" points="736.163,-117.338 746.758,-117.259 738.426,-110.714 736.163,-117.338"/>
</g>
<!-- Node49 -->
<g id="node49" class="node"><title>Node49</title>
<g id="a_node49"><a xlink:href="classspeclib.html#ae2c64cf28960c6e471641deed404e86e" target="_top" xlink:title="speclib::zwgljd">
<polygon fill="white" stroke="red" points="506,-124.5 506,-143.5 589,-143.5 589,-124.5 506,-124.5"/>
<text text-anchor="middle" x="547.5" y="-131.5" font-family="Helvetica,sans-Serif" font-size="10.00">speclib::zwgljd</text>
</a>
</g>
</g>
<!-- Node42&#45;&gt;Node49 -->
<g id="edge52" class="edge"><title>Node42&#45;&gt;Node49</title>
<path fill="none" stroke="midnightblue" d="M470.144,-134C478.259,-134 486.968,-134 495.496,-134"/>
<polygon fill="midnightblue" stroke="midnightblue" points="495.756,-137.5 505.756,-134 495.756,-130.5 495.756,-137.5"/>
</g>
<!-- Node43&#45;&gt;Node3 -->
<g id="edge46" class="edge"><title>Node43&#45;&gt;Node3</title>
<path fill="none" stroke="midnightblue" d="M773.878,-133.654C784.415,-146.042 804.194,-167.537 825,-181 827.922,-182.891 831.063,-184.648 834.286,-186.268"/>
<polygon fill="midnightblue" stroke="midnightblue" points="832.929,-189.496 843.479,-190.468 835.838,-183.129 832.929,-189.496"/>
</g>
<!-- Node44 -->
<g id="node44" class="node"><title>Node44</title>
<g id="a_node44"><a xlink:href="subs1_8F90.html#a339739b88994e5bb12bd923147f94983" target="_top" xlink:title="flush_io">
<polygon fill="white" stroke="black" points="847,-0.5 847,-19.5 900,-19.5 900,-0.5 847,-0.5"/>
<text text-anchor="middle" x="873.5" y="-7.5" font-family="Helvetica,sans-Serif" font-size="10.00">flush_io</text>
</a>
</g>
</g>
<!-- Node43&#45;&gt;Node44 -->
<g id="edge47" class="edge"><title>Node43&#45;&gt;Node44</title>
<path fill="none" stroke="midnightblue" d="M769.627,-114.241C777.138,-95.2786 796.138,-53.2003 825,-29 828.718,-25.8827 833.012,-23.2307 837.466,-20.9873"/>
<polygon fill="midnightblue" stroke="midnightblue" points="838.95,-24.1585 846.704,-16.9382 836.14,-17.7474 838.95,-24.1585"/>
</g>
<!-- Node45 -->
<g id="node45" class="node"><title>Node45</title>
<g id="a_node45"><a xlink:href="singlmesh_8F90.html#aef78ff219741b83c1ca784b869e9cacf" target="_top" xlink:title="Dummy for singlmesh. ">
<polygon fill="white" stroke="black" points="833.5,-152.5 833.5,-171.5 913.5,-171.5 913.5,-152.5 833.5,-152.5"/>
<text text-anchor="middle" x="873.5" y="-159.5" font-family="Helvetica,sans-Serif" font-size="10.00">happy_check</text>
</a>
</g>
</g>
<!-- Node43&#45;&gt;Node45 -->
<g id="edge48" class="edge"><title>Node43&#45;&gt;Node45</title>
<path fill="none" stroke="midnightblue" d="M783.111,-130.105C797.399,-135.203 818.26,-142.647 836.236,-149.061"/>
<polygon fill="midnightblue" stroke="midnightblue" points="835.271,-152.433 845.866,-152.497 837.624,-145.84 835.271,-152.433"/>
</g>
<!-- Node46 -->
<g id="node46" class="node"><title>Node46</title>
<g id="a_node46"><a xlink:href="mpi__dummy_8F90.html#a55e9a1619aadb638b14211ce21d7d566" target="_top" xlink:title="mpi_finalize">
<polygon fill="white" stroke="black" points="837.5,-114.5 837.5,-133.5 909.5,-133.5 909.5,-114.5 837.5,-114.5"/>
<text text-anchor="middle" x="873.5" y="-121.5" font-family="Helvetica,sans-Serif" font-size="10.00">mpi_finalize</text>
</a>
</g>
</g>
<!-- Node43&#45;&gt;Node46 -->
<g id="edge49" class="edge"><title>Node43&#45;&gt;Node46</title>
<path fill="none" stroke="midnightblue" d="M783.111,-124C795.073,-124 811.642,-124 827.268,-124"/>
<polygon fill="midnightblue" stroke="midnightblue" points="827.342,-127.5 837.342,-124 827.342,-120.5 827.342,-127.5"/>
</g>
<!-- Node47 -->
<g id="node47" class="node"><title>Node47</title>
<g id="a_node47"><a xlink:href="papi_8F90.html#a3a75ccdfbe05912fda48c3b134d114c0" target="_top" xlink:title="nek_flops">
<polygon fill="white" stroke="red" points="842.5,-76.5 842.5,-95.5 904.5,-95.5 904.5,-76.5 842.5,-76.5"/>
<text text-anchor="middle" x="873.5" y="-83.5" font-family="Helvetica,sans-Serif" font-size="10.00">nek_flops</text>
</a>
</g>
</g>
<!-- Node43&#45;&gt;Node47 -->
<g id="edge50" class="edge"><title>Node43&#45;&gt;Node47</title>
<path fill="none" stroke="midnightblue" d="M783.111,-117.895C797.399,-112.797 818.26,-105.353 836.236,-98.9392"/>
<polygon fill="midnightblue" stroke="midnightblue" points="837.624,-102.16 845.866,-95.5032 835.271,-95.5674 837.624,-102.16"/>
</g>
<!-- Node48 -->
<g id="node48" class="node"><title>Node48</title>
<g id="a_node48"><a xlink:href="comm__mpi_8F90.html#a4acb4d8e379294232e9219bec063d8f3" target="_top" xlink:title="nekgsync">
<polygon fill="white" stroke="red" points="842.5,-38.5 842.5,-57.5 904.5,-57.5 904.5,-38.5 842.5,-38.5"/>
<text text-anchor="middle" x="873.5" y="-45.5" font-family="Helvetica,sans-Serif" font-size="10.00">nekgsync</text>
</a>
</g>
</g>
<!-- Node43&#45;&gt;Node48 -->
<g id="edge51" class="edge"><title>Node43&#45;&gt;Node48</title>
<path fill="none" stroke="midnightblue" d="M773.878,-114.346C784.415,-101.958 804.194,-80.4634 825,-67 827.922,-65.1091 831.063,-63.3519 834.286,-61.7318"/>
<polygon fill="midnightblue" stroke="midnightblue" points="835.838,-64.871 843.479,-57.5316 832.929,-58.5041 835.838,-64.871"/>
</g>
<!-- Node49&#45;&gt;Node43 -->
<g id="edge53" class="edge"><title>Node49&#45;&gt;Node43</title>
<path fill="none" stroke="midnightblue" d="M589.284,-141.632C621.014,-146.361 666.049,-150.422 705,-144 715.885,-142.205 727.462,-138.666 737.452,-135.057"/>
<polygon fill="midnightblue" stroke="midnightblue" points="738.729,-138.316 746.829,-131.486 736.238,-131.774 738.729,-138.316"/>
</g>
<!-- Node50 -->
<g id="node50" class="node"><title>Node50</title>
<g id="a_node50"><a xlink:href="classspeclib.html#a70378dbc00d8034b969f6b8143a9f79b" target="_top" xlink:title="speclib::zwgjd">
<polygon fill="white" stroke="red" points="625,-115.5 625,-134.5 705,-134.5 705,-115.5 625,-115.5"/>
<text text-anchor="middle" x="665" y="-122.5" font-family="Helvetica,sans-Serif" font-size="10.00">speclib::zwgjd</text>
</a>
</g>
</g>
<!-- Node49&#45;&gt;Node50 -->
<g id="edge54" class="edge"><title>Node49&#45;&gt;Node50</title>
<path fill="none" stroke="midnightblue" d="M589.221,-130.827C597.44,-130.187 606.164,-129.507 614.642,-128.846"/>
<polygon fill="midnightblue" stroke="midnightblue" points="615.112,-132.32 624.81,-128.054 614.568,-125.341 615.112,-132.32"/>
</g>
<!-- Node50&#45;&gt;Node43 -->
<g id="edge55" class="edge"><title>Node50&#45;&gt;Node43</title>
<path fill="none" stroke="midnightblue" d="M705.014,-124.602C715.562,-124.494 726.756,-124.38 736.525,-124.28"/>
<polygon fill="midnightblue" stroke="midnightblue" points="736.875,-127.777 746.839,-124.175 736.803,-120.777 736.875,-127.777"/>
</g>
</g>
</svg>
        <g id="navigator" transform="translate(0 0)" fill="#404254">
                <rect fill="#f2f5e9" fill-opacity="0.5" stroke="#606060" stroke-width=".5" x="0" y="0" width="60" height="60"/>
                <use id="zoomplus" xlink:href="#zoomPlus" x="17" y="9" onmousedown="handleZoom(evt,'in')"/>
                <use id="zoomminus" xlink:href="#zoomMin" x="42" y="9" onmousedown="handleZoom(evt,'out')"/>
                <use id="reset" xlink:href="#resetDef" x="30" y="36" onmousedown="handleReset()"/>
                <g id="arrowUp" xlink:href="#dirArrow" transform="translate(30 24)" onmousedown="handlePan(0,-1)">
                  <use xlink:href="#rim" fill="#404040">
                        <set attributeName="fill" to="#808080" begin="arrowUp.mouseover" end="arrowUp.mouseout"/>
                  </use>
                  <path fill="none" stroke="white" stroke-width="1.5" d="M0,-3.0v7 M-2.5,-0.5L0,-3.0L2.5,-0.5"/>
                </g>
                <g id="arrowRight" xlink:href="#dirArrow" transform="rotate(90) translate(36 -43)" onmousedown="handlePan(1,0)">
                  <use xlink:href="#rim" fill="#404040">
                        <set attributeName="fill" to="#808080" begin="arrowRight.mouseover" end="arrowRight.mouseout"/>
                  </use>
                  <path fill="none" stroke="white" stroke-width="1.5" d="M0,-3.0v7 M-2.5,-0.5L0,-3.0L2.5,-0.5"/>
                </g>
                <g id="arrowDown" xlink:href="#dirArrow" transform="rotate(180) translate(-30 -48)" onmousedown="handlePan(0,1)">
                  <use xlink:href="#rim" fill="#404040">
                        <set attributeName="fill" to="#808080" begin="arrowDown.mouseover" end="arrowDown.mouseout"/>
                  </use>
                  <path fill="none" stroke="white" stroke-width="1.5" d="M0,-3.0v7 M-2.5,-0.5L0,-3.0L2.5,-0.5"/>
                </g>
                <g id="arrowLeft" xlink:href="#dirArrow" transform="rotate(270) translate(-36 17)" onmousedown="handlePan(-1,0)">
                  <use xlink:href="#rim" fill="#404040">
                        <set attributeName="fill" to="#808080" begin="arrowLeft.mouseover" end="arrowLeft.mouseout"/>
                  </use>
                  <path fill="none" stroke="white" stroke-width="1.5" d="M0,-3.0v7 M-2.5,-0.5L0,-3.0L2.5,-0.5"/>
                </g>
        </g>
        <svg viewBox="0 0 15 15" width="100%" height="30px" preserveAspectRatio="xMaxYMin meet">
         <g id="arrow_out" transform="scale(0.3 0.3)">
          <a xlink:href="navier8_8F90_aaeec4769efda346366e7e561aa844c88_cgraph_org.svg" target="_base">
           <rect id="button" ry="5" rx="5" y="6" x="6" height="38" width="38"
                fill="#f2f5e9" fill-opacity="0.5" stroke="#606060" stroke-width="1.0"/>
           <path id="arrow"
             d="M 11.500037,31.436501 C 11.940474,20.09759 22.043105,11.32322 32.158766,21.979434 L 37.068811,17.246167 C 37.068811,17.246167 37.088388,32 37.088388,32 L 22.160133,31.978069 C 22.160133,31.978069 26.997745,27.140456 26.997745,27.140456 C 18.528582,18.264221 13.291696,25.230495 11.500037,31.436501 z"
             style="fill:#404040;"/>
          </a>
         </g>
        </svg>
</svg>
