<?xml version="1.0" encoding="UTF-8" standalone="no"?>
<!DOCTYPE svg PUBLIC "-//W3C//DTD SVG 1.1//EN"
 "http://www.w3.org/Graphics/SVG/1.1/DTD/svg11.dtd">
<!-- Generated by graphviz version 2.38.0 (20140413.2041)
 -->
<!-- Title: makef Pages: 1 -->
<svg width="1160pt" height="736pt"
 viewBox="0.00 0.00 1160.00 736.34" xmlns="http://www.w3.org/2000/svg" xmlns:xlink="http://www.w3.org/1999/xlink">
<g id="graph0" class="graph" transform="scale(1 1) rotate(0) translate(4 732.336)">
<title>makef</title>
<polygon fill="white" stroke="none" points="-4,4 -4,-732.336 1156,-732.336 1156,4 -4,4"/>
<!-- Node1 -->
<g id="node1" class="node"><title>Node1</title>
<polygon fill="#bfbfbf" stroke="black" points="0,-95.5 0,-114.5 45,-114.5 45,-95.5 0,-95.5"/>
<text text-anchor="middle" x="22.5" y="-102.5" font-family="Helvetica,sans-Serif" font-size="10.00">makef</text>
</g>
<!-- Node2 -->
<g id="node2" class="node"><title>Node2</title>
<g id="a_node2"><a xlink:href="navier1_8F90.html#a340322c02acf88d19d4d5ffea79154ac" target="_top" xlink:title="Eulerian scheme, add convection term to forcing function at current time step. ">
<polygon fill="white" stroke="black" points="86.5,-133.5 86.5,-152.5 131.5,-152.5 131.5,-133.5 86.5,-133.5"/>
<text text-anchor="middle" x="109" y="-140.5" font-family="Helvetica,sans-Serif" font-size="10.00">advab</text>
</a>
</g>
</g>
<!-- Node1&#45;&gt;Node2 -->
<g id="edge1" class="edge"><title>Node1&#45;&gt;Node2</title>
<path fill="none" stroke="midnightblue" d="M44.8229,-114.589C54.7303,-119.044 66.6917,-124.423 77.5292,-129.297"/>
<polygon fill="midnightblue" stroke="midnightblue" points="76.1282,-132.505 86.6839,-133.414 78.9992,-126.121 76.1282,-132.505"/>
</g>
<!-- Node6 -->
<g id="node6" class="node"><title>Node6</title>
<g id="a_node6"><a xlink:href="classctimer.html#abcecbc845c8ee72e13a19eaa30b80d77" target="_top" xlink:title="ctimer::dnekclock">
<polygon fill="white" stroke="black" points="953,-152.5 953,-171.5 1050,-171.5 1050,-152.5 953,-152.5"/>
<text text-anchor="middle" x="1001.5" y="-159.5" font-family="Helvetica,sans-Serif" font-size="10.00">ctimer::dnekclock</text>
</a>
</g>
</g>
<!-- Node1&#45;&gt;Node6 -->
<g id="edge55" class="edge"><title>Node1&#45;&gt;Node6</title>
<path fill="none" stroke="midnightblue" d="M45.2377,-105C78.5497,-105 144.231,-105 200,-105 200,-105 200,-105 770.5,-105 842.824,-105 924.283,-131.882 968.222,-148.724"/>
<polygon fill="midnightblue" stroke="midnightblue" points="967.196,-152.081 977.784,-152.459 969.743,-145.561 967.196,-152.081"/>
</g>
<!-- Node44 -->
<g id="node44" class="node"><title>Node44</title>
<g id="a_node44"><a xlink:href="navier1_8F90.html#ab907b0b4f57c160c86799b03de3cef19" target="_top" xlink:title="Sum up contributions to kth order extrapolation scheme. NOTE: rho^{n+1} should multiply all the Sum_q...">
<polygon fill="white" stroke="black" points="173,-266.5 173,-285.5 229,-285.5 229,-266.5 173,-266.5"/>
<text text-anchor="middle" x="201" y="-273.5" font-family="Helvetica,sans-Serif" font-size="10.00">makeabf</text>
</a>
</g>
</g>
<!-- Node1&#45;&gt;Node44 -->
<g id="edge56" class="edge"><title>Node1&#45;&gt;Node44</title>
<path fill="none" stroke="midnightblue" d="M33.2169,-114.733C44.6096,-126.121 64.0877,-145.519 81,-162 116.741,-196.83 159.025,-237.123 182.341,-259.263"/>
<polygon fill="midnightblue" stroke="midnightblue" points="180.093,-261.954 189.756,-266.299 184.911,-256.877 180.093,-261.954"/>
</g>
<!-- Node45 -->
<g id="node45" class="node"><title>Node45</title>
<g id="a_node45"><a xlink:href="navier1_8F90.html#aa066e224bdb58bb6f3057e6d6b366726" target="_top" xlink:title="Add contributions to F from lagged BD terms. ">
<polygon fill="white" stroke="black" points="81,-57.5 81,-76.5 137,-76.5 137,-57.5 81,-57.5"/>
<text text-anchor="middle" x="109" y="-64.5" font-family="Helvetica,sans-Serif" font-size="10.00">makebdf</text>
</a>
</g>
</g>
<!-- Node1&#45;&gt;Node45 -->
<g id="edge58" class="edge"><title>Node1&#45;&gt;Node45</title>
<path fill="none" stroke="midnightblue" d="M44.8229,-95.411C54.7303,-90.9556 66.6917,-85.5765 77.5292,-80.7029"/>
<polygon fill="midnightblue" stroke="midnightblue" points="78.9992,-83.8795 86.6839,-76.5859 76.1282,-77.4953 78.9992,-83.8795"/>
</g>
<!-- Node46 -->
<g id="node46" class="node"><title>Node46</title>
<g id="a_node46"><a xlink:href="navier1_8F90.html#a04edbb4ba3cfada4513a76a4e65a5561" target="_top" xlink:title="Compute and add: (1) user specified forcing function (FX,FY,FZ) ">
<polygon fill="white" stroke="black" points="84,-19.5 84,-38.5 134,-38.5 134,-19.5 84,-19.5"/>
<text text-anchor="middle" x="109" y="-26.5" font-family="Helvetica,sans-Serif" font-size="10.00">makeuf</text>
</a>
</g>
</g>
<!-- Node1&#45;&gt;Node46 -->
<g id="edge59" class="edge"><title>Node1&#45;&gt;Node46</title>
<path fill="none" stroke="midnightblue" d="M32.4047,-95.2179C43.3344,-83.4433 62.6792,-63.3414 81,-48 82.3293,-46.8868 83.7215,-45.7715 85.1431,-44.6699"/>
<polygon fill="midnightblue" stroke="midnightblue" points="87.3865,-47.3649 93.3743,-38.6243 83.2427,-41.7231 87.3865,-47.3649"/>
</g>
<!-- Node3 -->
<g id="node3" class="node"><title>Node3</title>
<g id="a_node3"><a xlink:href="navier1_8F90.html#a38ba376801cfa958294fae8c90db7680" target="_top" xlink:title="Compute the convective term CONV for a passive scalar field FI. ">
<polygon fill="white" stroke="black" points="175.5,-133.5 175.5,-152.5 226.5,-152.5 226.5,-133.5 175.5,-133.5"/>
<text text-anchor="middle" x="201" y="-140.5" font-family="Helvetica,sans-Serif" font-size="10.00">convop</text>
</a>
</g>
</g>
<!-- Node2&#45;&gt;Node3 -->
<g id="edge2" class="edge"><title>Node2&#45;&gt;Node3</title>
<path fill="none" stroke="midnightblue" d="M131.786,-143C141.721,-143 153.735,-143 164.894,-143"/>
<polygon fill="midnightblue" stroke="midnightblue" points="165.236,-146.5 175.236,-143 165.236,-139.5 165.236,-146.5"/>
</g>
<!-- Node4 -->
<g id="node4" class="node"><title>Node4</title>
<g id="a_node4"><a xlink:href="convect_8F90.html#aef829efeef773567be893471f50529b1" target="_top" xlink:title="Compute dealiased form: J^T Bf *JC .grad Ju w/ correct Jacobians. ">
<polygon fill="white" stroke="black" points="265,-285.5 265,-304.5 344,-304.5 344,-285.5 265,-285.5"/>
<text text-anchor="middle" x="304.5" y="-292.5" font-family="Helvetica,sans-Serif" font-size="10.00">convect_new</text>
</a>
</g>
</g>
<!-- Node3&#45;&gt;Node4 -->
<g id="edge3" class="edge"><title>Node3&#45;&gt;Node4</title>
<path fill="none" stroke="midnightblue" d="M208.349,-152.508C224.94,-177.353 269.797,-244.528 291.464,-276.976"/>
<polygon fill="midnightblue" stroke="midnightblue" points="288.689,-279.123 297.153,-285.495 294.51,-275.235 288.689,-279.123"/>
</g>
<!-- Node3&#45;&gt;Node6 -->
<g id="edge54" class="edge"><title>Node3&#45;&gt;Node6</title>
<path fill="none" stroke="midnightblue" d="M226.63,-143C268.441,-143 355.979,-143 430,-143 430,-143 430,-143 770.5,-143 829.168,-143 895.968,-149.216 942.405,-154.537"/>
<polygon fill="midnightblue" stroke="midnightblue" points="942.24,-158.042 952.579,-155.726 943.053,-151.089 942.24,-158.042"/>
</g>
<!-- Node5 -->
<g id="node5" class="node"><title>Node5</title>
<g id="a_node5"><a xlink:href="math_8F90.html#a3b43508554f14bdea8e14473d7d0803c" target="_top" xlink:title="copy">
<polygon fill="white" stroke="black" points="411.5,-399.5 411.5,-418.5 450.5,-418.5 450.5,-399.5 411.5,-399.5"/>
<text text-anchor="middle" x="431" y="-406.5" font-family="Helvetica,sans-Serif" font-size="10.00">copy</text>
</a>
</g>
</g>
<!-- Node4&#45;&gt;Node5 -->
<g id="edge4" class="edge"><title>Node4&#45;&gt;Node5</title>
<path fill="none" stroke="midnightblue" d="M310.73,-304.777C321.353,-323.769 347.251,-365.898 380,-390 386.448,-394.746 394.225,-398.45 401.703,-401.276"/>
<polygon fill="midnightblue" stroke="midnightblue" points="400.631,-404.608 411.226,-404.499 402.875,-397.978 400.631,-404.608"/>
</g>
<!-- Node4&#45;&gt;Node6 -->
<g id="edge5" class="edge"><title>Node4&#45;&gt;Node6</title>
<path fill="none" stroke="midnightblue" d="M315.852,-285.332C329.594,-272.929 355.042,-251.419 380,-238 448.15,-201.358 467.124,-181 544.5,-181 544.5,-181 544.5,-181 770.5,-181 829.168,-181 895.968,-174.784 942.405,-169.463"/>
<polygon fill="midnightblue" stroke="midnightblue" points="943.053,-172.911 952.579,-168.274 942.24,-165.958 943.053,-172.911"/>
</g>
<!-- Node8 -->
<g id="node8" class="node"><title>Node8</title>
<g id="a_node8"><a xlink:href="classinterp.html#a256b6971d9213b5e381b13377e3e1b03" target="_top" xlink:title="Get pointer to GL&#45;GL interpolation dgl() for pair (mx,md) ">
<polygon fill="white" stroke="black" points="380,-247.5 380,-266.5 482,-266.5 482,-247.5 380,-247.5"/>
<text text-anchor="middle" x="431" y="-254.5" font-family="Helvetica,sans-Serif" font-size="10.00">interp::get_dgl_ptr</text>
</a>
</g>
</g>
<!-- Node4&#45;&gt;Node8 -->
<g id="edge7" class="edge"><title>Node4&#45;&gt;Node8</title>
<path fill="none" stroke="midnightblue" d="M336.917,-285.411C352.693,-280.596 372.005,-274.701 388.941,-269.532"/>
<polygon fill="midnightblue" stroke="midnightblue" points="390.051,-272.853 398.593,-266.586 388.007,-266.158 390.051,-272.853"/>
</g>
<!-- Node25 -->
<g id="node25" class="node"><title>Node25</title>
<g id="a_node25"><a xlink:href="classinterp.html#a2637cb8249580b149248f7a6b0ededdf" target="_top" xlink:title="Get pointer to jgl() for interpolation pair (mx,md) ">
<polygon fill="white" stroke="black" points="381.5,-285.5 381.5,-304.5 480.5,-304.5 480.5,-285.5 381.5,-285.5"/>
<text text-anchor="middle" x="431" y="-292.5" font-family="Helvetica,sans-Serif" font-size="10.00">interp::get_int_ptr</text>
</a>
</g>
</g>
<!-- Node4&#45;&gt;Node25 -->
<g id="edge27" class="edge"><title>Node4&#45;&gt;Node25</title>
<path fill="none" stroke="midnightblue" d="M344.21,-295C352.716,-295 361.909,-295 371.009,-295"/>
<polygon fill="midnightblue" stroke="midnightblue" points="371.202,-298.5 381.202,-295 371.202,-291.5 371.202,-298.5"/>
</g>
<!-- Node29 -->
<g id="node29" class="node"><title>Node29</title>
<g id="a_node29"><a xlink:href="navier5_8F90.html#ad24367e4a843f60b63a2205aef1ba551" target="_top" xlink:title="Output: ur,us,ut Input:u,N,e,D,Dt. ">
<polygon fill="white" stroke="black" points="395,-323.5 395,-342.5 467,-342.5 467,-323.5 395,-323.5"/>
<text text-anchor="middle" x="431" y="-330.5" font-family="Helvetica,sans-Serif" font-size="10.00">local_grad3</text>
</a>
</g>
</g>
<!-- Node4&#45;&gt;Node29 -->
<g id="edge36" class="edge"><title>Node4&#45;&gt;Node29</title>
<path fill="none" stroke="midnightblue" d="M336.917,-304.589C352.693,-309.404 372.005,-315.299 388.941,-320.468"/>
<polygon fill="midnightblue" stroke="midnightblue" points="388.007,-323.842 398.593,-323.414 390.051,-317.147 388.007,-323.842"/>
</g>
<!-- Node43 -->
<g id="node43" class="node"><title>Node43</title>
<g id="a_node43"><a xlink:href="navier8_8F90.html#a5c307bcd1af1a0036e75f65db3d06e39" target="_top" xlink:title="Spectral interpolation from A to B via tensor products. ">
<polygon fill="white" stroke="black" points="401.5,-361.5 401.5,-380.5 460.5,-380.5 460.5,-361.5 401.5,-361.5"/>
<text text-anchor="middle" x="431" y="-368.5" font-family="Helvetica,sans-Serif" font-size="10.00">specmpn</text>
</a>
</g>
</g>
<!-- Node4&#45;&gt;Node43 -->
<g id="edge51" class="edge"><title>Node4&#45;&gt;Node43</title>
<path fill="none" stroke="midnightblue" d="M315.914,-304.555C329.723,-316.835 355.243,-338.213 380,-352 383.742,-354.084 387.759,-356.034 391.83,-357.83"/>
<polygon fill="midnightblue" stroke="midnightblue" points="390.744,-361.168 401.324,-361.734 393.406,-354.694 390.744,-361.168"/>
</g>
<!-- Node7 -->
<g id="node7" class="node"><title>Node7</title>
<g id="a_node7"><a xlink:href="mpi__dummy_8F90.html#ae6a5ef945f87c2c27849696b70f3af2a" target="_top" xlink:title="mpi_wtime">
<polygon fill="white" stroke="black" points="1086,-152.5 1086,-171.5 1152,-171.5 1152,-152.5 1086,-152.5"/>
<text text-anchor="middle" x="1119" y="-159.5" font-family="Helvetica,sans-Serif" font-size="10.00">mpi_wtime</text>
</a>
</g>
</g>
<!-- Node6&#45;&gt;Node7 -->
<g id="edge6" class="edge"><title>Node6&#45;&gt;Node7</title>
<path fill="none" stroke="midnightblue" d="M1050.15,-162C1058.62,-162 1067.4,-162 1075.71,-162"/>
<polygon fill="midnightblue" stroke="midnightblue" points="1075.94,-165.5 1085.94,-162 1075.94,-158.5 1075.94,-165.5"/>
</g>
<!-- Node9 -->
<g id="node9" class="node"><title>Node9</title>
<g id="a_node9"><a xlink:href="interp__mod_8F90.html#aef5d48d354e9e03de35748eecb7e42f9" target="_top" xlink:title="Check array limits. ">
<polygon fill="white" stroke="black" points="626,-209.5 626,-228.5 678,-228.5 678,-209.5 626,-209.5"/>
<text text-anchor="middle" x="652" y="-216.5" font-family="Helvetica,sans-Serif" font-size="10.00">lim_chk</text>
</a>
</g>
</g>
<!-- Node8&#45;&gt;Node9 -->
<g id="edge8" class="edge"><title>Node8&#45;&gt;Node9</title>
<path fill="none" stroke="midnightblue" d="M482.243,-248.282C523.045,-241.202 579.556,-231.397 615.7,-225.125"/>
<polygon fill="midnightblue" stroke="midnightblue" points="616.519,-228.535 625.774,-223.377 615.322,-221.638 616.519,-228.535"/>
</g>
<!-- Node20 -->
<g id="node20" class="node"><title>Node20</title>
<g id="a_node20"><a xlink:href="interp__mod_8F90.html#aa262674ee97d23a029b59e09a9a985a6" target="_top" xlink:title="Generate derivative from np GL points onto mp GL points dgl = interpolation matrix, mapping from velocity nodes to pressure dgt = transpose of interpolation matrix w = work array of size (3*np+mp) np = number of points on GLL grid mp = number of points on GL grid. ">
<polygon fill="white" stroke="black" points="518,-285.5 518,-304.5 573,-304.5 573,-285.5 518,-285.5"/>
<text text-anchor="middle" x="545.5" y="-292.5" font-family="Helvetica,sans-Serif" font-size="10.00">gen_dgl</text>
</a>
</g>
</g>
<!-- Node8&#45;&gt;Node20 -->
<g id="edge20" class="edge"><title>Node8&#45;&gt;Node20</title>
<path fill="none" stroke="midnightblue" d="M460.389,-266.589C474.805,-271.459 492.489,-277.432 507.915,-282.643"/>
<polygon fill="midnightblue" stroke="midnightblue" points="507.075,-286.053 517.67,-285.937 509.316,-279.421 507.075,-286.053"/>
</g>
<!-- Node10 -->
<g id="node10" class="node"><title>Node10</title>
<g id="a_node10"><a xlink:href="comm__mpi_8F90.html#a59fcf8a02fe54ab37f61050e3ca6b197" target="_top" xlink:title="exitti">
<polygon fill="white" stroke="black" points="750.5,-247.5 750.5,-266.5 788.5,-266.5 788.5,-247.5 750.5,-247.5"/>
<text text-anchor="middle" x="769.5" y="-254.5" font-family="Helvetica,sans-Serif" font-size="10.00">exitti</text>
</a>
</g>
</g>
<!-- Node9&#45;&gt;Node10 -->
<g id="edge9" class="edge"><title>Node9&#45;&gt;Node10</title>
<path fill="none" stroke="midnightblue" d="M678.062,-227.245C696.508,-233.314 721.589,-241.566 740.66,-247.84"/>
<polygon fill="midnightblue" stroke="midnightblue" points="739.693,-251.207 750.286,-251.008 741.881,-244.558 739.693,-251.207"/>
</g>
<!-- Node11 -->
<g id="node11" class="node"><title>Node11</title>
<g id="a_node11"><a xlink:href="math_8F90.html#a692155d1d2ec380a9fdb2d81ef221625" target="_top" xlink:title="blank a string ">
<polygon fill="white" stroke="black" points="860,-247.5 860,-266.5 901,-266.5 901,-247.5 860,-247.5"/>
<text text-anchor="middle" x="880.5" y="-254.5" font-family="Helvetica,sans-Serif" font-size="10.00">blank</text>
</a>
</g>
</g>
<!-- Node10&#45;&gt;Node11 -->
<g id="edge10" class="edge"><title>Node10&#45;&gt;Node11</title>
<path fill="none" stroke="midnightblue" d="M788.99,-257C805.595,-257 830.271,-257 849.666,-257"/>
<polygon fill="midnightblue" stroke="midnightblue" points="849.812,-260.5 859.812,-257 849.812,-253.5 849.812,-260.5"/>
</g>
<!-- Node12 -->
<g id="node12" class="node"><title>Node12</title>
<g id="a_node12"><a xlink:href="math_8F90.html#ad7fb480cea001849621405f37167aab1" target="_top" xlink:title="chcopy">
<polygon fill="white" stroke="black" points="855.5,-209.5 855.5,-228.5 905.5,-228.5 905.5,-209.5 855.5,-209.5"/>
<text text-anchor="middle" x="880.5" y="-216.5" font-family="Helvetica,sans-Serif" font-size="10.00">chcopy</text>
</a>
</g>
</g>
<!-- Node10&#45;&gt;Node12 -->
<g id="edge11" class="edge"><title>Node10&#45;&gt;Node12</title>
<path fill="none" stroke="midnightblue" d="M788.99,-250.554C804.436,-245.169 826.866,-237.349 845.532,-230.842"/>
<polygon fill="midnightblue" stroke="midnightblue" points="846.879,-234.079 855.17,-227.482 844.575,-227.469 846.879,-234.079"/>
</g>
<!-- Node13 -->
<g id="node13" class="node"><title>Node13</title>
<g id="a_node13"><a xlink:href="byte_8c.html#a2da8eeb074dfd3ffbfb3e9a4d301cda4" target="_top" xlink:title="exitt">
<polygon fill="white" stroke="black" points="862.5,-323.5 862.5,-342.5 898.5,-342.5 898.5,-323.5 862.5,-323.5"/>
<text text-anchor="middle" x="880.5" y="-330.5" font-family="Helvetica,sans-Serif" font-size="10.00">exitt</text>
</a>
</g>
</g>
<!-- Node10&#45;&gt;Node13 -->
<g id="edge12" class="edge"><title>Node10&#45;&gt;Node13</title>
<path fill="none" stroke="midnightblue" d="M781.521,-266.501C795.53,-278.349 820.7,-298.883 844,-314 846.963,-315.923 850.14,-317.826 853.33,-319.644"/>
<polygon fill="midnightblue" stroke="midnightblue" points="851.737,-322.762 862.191,-324.482 855.092,-316.618 851.737,-322.762"/>
</g>
<!-- Node19 -->
<g id="node19" class="node"><title>Node19</title>
<g id="a_node19"><a xlink:href="classstring.html#ac6aad97d698bcdbf5c11ffa52d947ad8" target="_top" xlink:title="string::indx1">
<polygon fill="white" stroke="black" points="844,-285.5 844,-304.5 917,-304.5 917,-285.5 844,-285.5"/>
<text text-anchor="middle" x="880.5" y="-292.5" font-family="Helvetica,sans-Serif" font-size="10.00">string::indx1</text>
</a>
</g>
</g>
<!-- Node10&#45;&gt;Node19 -->
<g id="edge19" class="edge"><title>Node10&#45;&gt;Node19</title>
<path fill="none" stroke="midnightblue" d="M788.99,-263.446C803.545,-268.52 824.301,-275.756 842.266,-282.019"/>
<polygon fill="midnightblue" stroke="midnightblue" points="841.307,-285.392 851.902,-285.379 843.612,-278.782 841.307,-285.392"/>
</g>
<!-- Node13&#45;&gt;Node6 -->
<g id="edge13" class="edge"><title>Node13&#45;&gt;Node6</title>
<path fill="none" stroke="midnightblue" d="M898.518,-326.602C904.926,-323.546 911.891,-319.366 917,-314 942.773,-286.931 935.065,-270.791 953,-238 964.129,-217.651 978.403,-195.232 988.385,-180.053"/>
<polygon fill="midnightblue" stroke="midnightblue" points="991.368,-181.888 993.98,-171.621 985.535,-178.018 991.368,-181.888"/>
</g>
<!-- Node14 -->
<g id="node14" class="node"><title>Node14</title>
<g id="a_node14"><a xlink:href="subs1_8F90.html#a339739b88994e5bb12bd923147f94983" target="_top" xlink:title="flush_io">
<polygon fill="white" stroke="black" points="975,-285.5 975,-304.5 1028,-304.5 1028,-285.5 975,-285.5"/>
<text text-anchor="middle" x="1001.5" y="-292.5" font-family="Helvetica,sans-Serif" font-size="10.00">flush_io</text>
</a>
</g>
</g>
<!-- Node13&#45;&gt;Node14 -->
<g id="edge14" class="edge"><title>Node13&#45;&gt;Node14</title>
<path fill="none" stroke="midnightblue" d="M898.55,-327.556C915.827,-322.039 943.067,-313.34 965.045,-306.322"/>
<polygon fill="midnightblue" stroke="midnightblue" points="966.256,-309.609 974.718,-303.233 964.127,-302.941 966.256,-309.609"/>
</g>
<!-- Node15 -->
<g id="node15" class="node"><title>Node15</title>
<g id="a_node15"><a xlink:href="singlmesh_8F90.html#aef78ff219741b83c1ca784b869e9cacf" target="_top" xlink:title="Dummy for singlmesh. ">
<polygon fill="white" stroke="black" points="961.5,-247.5 961.5,-266.5 1041.5,-266.5 1041.5,-247.5 961.5,-247.5"/>
<text text-anchor="middle" x="1001.5" y="-254.5" font-family="Helvetica,sans-Serif" font-size="10.00">happy_check</text>
</a>
</g>
</g>
<!-- Node13&#45;&gt;Node15 -->
<g id="edge15" class="edge"><title>Node13&#45;&gt;Node15</title>
<path fill="none" stroke="midnightblue" d="M898.791,-325.157C904.811,-322.068 911.443,-318.241 917,-314 935.493,-299.885 933.753,-289.068 953,-276 955.719,-274.154 958.644,-272.445 961.659,-270.871"/>
<polygon fill="midnightblue" stroke="midnightblue" points="963.29,-273.972 970.857,-266.557 960.317,-267.635 963.29,-273.972"/>
</g>
<!-- Node16 -->
<g id="node16" class="node"><title>Node16</title>
<g id="a_node16"><a xlink:href="mpi__dummy_8F90.html#a55e9a1619aadb638b14211ce21d7d566" target="_top" xlink:title="mpi_finalize">
<polygon fill="white" stroke="black" points="965.5,-399.5 965.5,-418.5 1037.5,-418.5 1037.5,-399.5 965.5,-399.5"/>
<text text-anchor="middle" x="1001.5" y="-406.5" font-family="Helvetica,sans-Serif" font-size="10.00">mpi_finalize</text>
</a>
</g>
</g>
<!-- Node13&#45;&gt;Node16 -->
<g id="edge16" class="edge"><title>Node13&#45;&gt;Node16</title>
<path fill="none" stroke="midnightblue" d="M891.459,-342.524C904.672,-354.771 929.122,-376.113 953,-390 956.263,-391.898 959.752,-393.689 963.301,-395.357"/>
<polygon fill="midnightblue" stroke="midnightblue" points="962.161,-398.678 972.726,-399.472 964.962,-392.263 962.161,-398.678"/>
</g>
<!-- Node17 -->
<g id="node17" class="node"><title>Node17</title>
<g id="a_node17"><a xlink:href="papi_8F90.html#a3a75ccdfbe05912fda48c3b134d114c0" target="_top" xlink:title="nek_flops">
<polygon fill="white" stroke="red" points="970.5,-361.5 970.5,-380.5 1032.5,-380.5 1032.5,-361.5 970.5,-361.5"/>
<text text-anchor="middle" x="1001.5" y="-368.5" font-family="Helvetica,sans-Serif" font-size="10.00">nek_flops</text>
</a>
</g>
</g>
<!-- Node13&#45;&gt;Node17 -->
<g id="edge17" class="edge"><title>Node13&#45;&gt;Node17</title>
<path fill="none" stroke="midnightblue" d="M898.55,-338.444C914.75,-343.618 939.711,-351.588 960.879,-358.348"/>
<polygon fill="midnightblue" stroke="midnightblue" points="960.01,-361.745 970.601,-361.452 962.139,-355.076 960.01,-361.745"/>
</g>
<!-- Node18 -->
<g id="node18" class="node"><title>Node18</title>
<g id="a_node18"><a xlink:href="comm__mpi_8F90.html#a4acb4d8e379294232e9219bec063d8f3" target="_top" xlink:title="nekgsync">
<polygon fill="white" stroke="red" points="970.5,-323.5 970.5,-342.5 1032.5,-342.5 1032.5,-323.5 970.5,-323.5"/>
<text text-anchor="middle" x="1001.5" y="-330.5" font-family="Helvetica,sans-Serif" font-size="10.00">nekgsync</text>
</a>
</g>
</g>
<!-- Node13&#45;&gt;Node18 -->
<g id="edge18" class="edge"><title>Node13&#45;&gt;Node18</title>
<path fill="none" stroke="midnightblue" d="M898.55,-333C914.493,-333 938.922,-333 959.87,-333"/>
<polygon fill="midnightblue" stroke="midnightblue" points="960.132,-336.5 970.132,-333 960.132,-329.5 960.132,-336.5"/>
</g>
<!-- Node20&#45;&gt;Node9 -->
<g id="edge22" class="edge"><title>Node20&#45;&gt;Node9</title>
<path fill="none" stroke="midnightblue" d="M557.087,-285.438C561.942,-281.046 567.77,-275.766 573,-271 589.044,-256.382 590.885,-249.956 609,-238 611.588,-236.292 614.355,-234.665 617.188,-233.135"/>
<polygon fill="midnightblue" stroke="midnightblue" points="618.924,-236.18 626.318,-228.592 615.806,-229.913 618.924,-236.18"/>
</g>
<!-- Node21 -->
<g id="node21" class="node"><title>Node21</title>
<g id="a_node21"><a xlink:href="fast3d_8F90.html#ad007f6eca12b1b9307f46e56bcc40a59" target="_top" xlink:title="This routine evaluates the derivative based on all points in the stencils. It is more memory efficien...">
<polygon fill="white" stroke="black" points="609,-285.5 609,-304.5 695,-304.5 695,-285.5 609,-285.5"/>
<text text-anchor="middle" x="652" y="-292.5" font-family="Helvetica,sans-Serif" font-size="10.00">fd_weights_full</text>
</a>
</g>
</g>
<!-- Node20&#45;&gt;Node21 -->
<g id="edge21" class="edge"><title>Node20&#45;&gt;Node21</title>
<path fill="none" stroke="midnightblue" d="M573.14,-295C581.049,-295 589.997,-295 598.938,-295"/>
<polygon fill="midnightblue" stroke="midnightblue" points="598.973,-298.5 608.973,-295 598.973,-291.5 598.973,-298.5"/>
</g>
<!-- Node22 -->
<g id="node22" class="node"><title>Node22</title>
<g id="a_node22"><a xlink:href="navier1_8F90.html#a17c0ecae12cc5c6096939885da90ad2b" target="_top" xlink:title="transpose">
<polygon fill="white" stroke="black" points="620,-247.5 620,-266.5 684,-266.5 684,-247.5 620,-247.5"/>
<text text-anchor="middle" x="652" y="-254.5" font-family="Helvetica,sans-Serif" font-size="10.00">transpose</text>
</a>
</g>
</g>
<!-- Node20&#45;&gt;Node22 -->
<g id="edge23" class="edge"><title>Node20&#45;&gt;Node22</title>
<path fill="none" stroke="midnightblue" d="M572.87,-285.411C585.617,-280.776 601.114,-275.14 614.935,-270.115"/>
<polygon fill="midnightblue" stroke="midnightblue" points="616.437,-273.293 624.639,-266.586 614.045,-266.714 616.437,-273.293"/>
</g>
<!-- Node23 -->
<g id="node23" class="node"><title>Node23</title>
<g id="a_node23"><a xlink:href="classspeclib.html#a932ca9ca470532f6bae3ed77ca2e1466" target="_top" xlink:title="Generate NP Gauss Legendre points (Z) and weights (W) associated with Jacobi polynomial P(N)(alpha=0...">
<polygon fill="white" stroke="black" points="615,-323.5 615,-342.5 689,-342.5 689,-323.5 615,-323.5"/>
<text text-anchor="middle" x="652" y="-330.5" font-family="Helvetica,sans-Serif" font-size="10.00">speclib::zwgl</text>
</a>
</g>
</g>
<!-- Node20&#45;&gt;Node23 -->
<g id="edge24" class="edge"><title>Node20&#45;&gt;Node23</title>
<path fill="none" stroke="midnightblue" d="M572.87,-304.589C585.617,-309.224 601.114,-314.86 614.935,-319.885"/>
<polygon fill="midnightblue" stroke="midnightblue" points="614.045,-323.286 624.639,-323.414 616.437,-316.707 614.045,-323.286"/>
</g>
<!-- Node24 -->
<g id="node24" class="node"><title>Node24</title>
<g id="a_node24"><a xlink:href="classspeclib.html#a631f538efe1b48d5b557e06446dcb278" target="_top" xlink:title="speclib::zwgj">
<polygon fill="white" stroke="red" points="732.5,-323.5 732.5,-342.5 806.5,-342.5 806.5,-323.5 732.5,-323.5"/>
<text text-anchor="middle" x="769.5" y="-330.5" font-family="Helvetica,sans-Serif" font-size="10.00">speclib::zwgj</text>
</a>
</g>
</g>
<!-- Node23&#45;&gt;Node24 -->
<g id="edge25" class="edge"><title>Node23&#45;&gt;Node24</title>
<path fill="none" stroke="midnightblue" d="M689.228,-333C699.656,-333 711.177,-333 722.129,-333"/>
<polygon fill="midnightblue" stroke="midnightblue" points="722.401,-336.5 732.401,-333 722.4,-329.5 722.401,-336.5"/>
</g>
<!-- Node24&#45;&gt;Node13 -->
<g id="edge26" class="edge"><title>Node24&#45;&gt;Node13</title>
<path fill="none" stroke="midnightblue" d="M806.795,-333C821.553,-333 838.323,-333 852.035,-333"/>
<polygon fill="midnightblue" stroke="midnightblue" points="852.279,-336.5 862.279,-333 852.279,-329.5 852.279,-336.5"/>
</g>
<!-- Node25&#45;&gt;Node9 -->
<g id="edge28" class="edge"><title>Node25&#45;&gt;Node9</title>
<path fill="none" stroke="midnightblue" d="M459.737,-285.375C499.565,-271.553 572.925,-246.095 616.297,-231.043"/>
<polygon fill="midnightblue" stroke="midnightblue" points="617.556,-234.311 625.856,-227.726 615.261,-227.698 617.556,-234.311"/>
</g>
<!-- Node26 -->
<g id="node26" class="node"><title>Node26</title>
<g id="a_node26"><a xlink:href="interp__mod_8F90.html#a58f02ae257240ef90f8a1c9e5b092d1c" target="_top" xlink:title="Generate interpolation from np GLL points to mp GL points jgl = interpolation matrix, mapping from velocity nodes to pressure jgt = transpose of interpolation matrix w = work array of size (np+mp) np = number of points on GLL grid mp = number of points on GL grid. ">
<polygon fill="white" stroke="black" points="519.5,-323.5 519.5,-342.5 571.5,-342.5 571.5,-323.5 519.5,-323.5"/>
<text text-anchor="middle" x="545.5" y="-330.5" font-family="Helvetica,sans-Serif" font-size="10.00">gen_int</text>
</a>
</g>
</g>
<!-- Node25&#45;&gt;Node26 -->
<g id="edge29" class="edge"><title>Node25&#45;&gt;Node26</title>
<path fill="none" stroke="midnightblue" d="M460.389,-304.589C475.233,-309.603 493.54,-315.787 509.28,-321.104"/>
<polygon fill="midnightblue" stroke="midnightblue" points="508.597,-324.567 519.191,-324.451 510.837,-317.935 508.597,-324.567"/>
</g>
<!-- Node26&#45;&gt;Node21 -->
<g id="edge30" class="edge"><title>Node26&#45;&gt;Node21</title>
<path fill="none" stroke="midnightblue" d="M571.53,-323.898C584.58,-319.153 600.773,-313.264 615.13,-308.043"/>
<polygon fill="midnightblue" stroke="midnightblue" points="616.514,-311.265 624.716,-304.558 614.122,-304.686 616.514,-311.265"/>
</g>
<!-- Node26&#45;&gt;Node22 -->
<g id="edge31" class="edge"><title>Node26&#45;&gt;Node22</title>
<path fill="none" stroke="midnightblue" d="M560.908,-323.422C564.941,-320.543 569.246,-317.274 573,-314 590.533,-298.708 590.047,-289.491 609,-276 611.384,-274.303 613.943,-272.703 616.58,-271.208"/>
<polygon fill="midnightblue" stroke="midnightblue" points="618.396,-274.21 625.697,-266.533 615.202,-267.981 618.396,-274.21"/>
</g>
<!-- Node26&#45;&gt;Node23 -->
<g id="edge32" class="edge"><title>Node26&#45;&gt;Node23</title>
<path fill="none" stroke="midnightblue" d="M571.53,-333C581.424,-333 593.123,-333 604.46,-333"/>
<polygon fill="midnightblue" stroke="midnightblue" points="604.707,-336.5 614.706,-333 604.706,-329.5 604.707,-336.5"/>
</g>
<!-- Node27 -->
<g id="node27" class="node"><title>Node27</title>
<g id="a_node27"><a xlink:href="classspeclib.html#ab649647711dc444ca710b98bf943b0d8" target="_top" xlink:title="speclib::zwgll">
<polygon fill="white" stroke="black" points="613.5,-361.5 613.5,-380.5 690.5,-380.5 690.5,-361.5 613.5,-361.5"/>
<text text-anchor="middle" x="652" y="-368.5" font-family="Helvetica,sans-Serif" font-size="10.00">speclib::zwgll</text>
</a>
</g>
</g>
<!-- Node26&#45;&gt;Node27 -->
<g id="edge33" class="edge"><title>Node26&#45;&gt;Node27</title>
<path fill="none" stroke="midnightblue" d="M571.53,-342.102C584.58,-346.847 600.773,-352.736 615.13,-357.957"/>
<polygon fill="midnightblue" stroke="midnightblue" points="614.122,-361.314 624.716,-361.442 616.514,-354.735 614.122,-361.314"/>
</g>
<!-- Node28 -->
<g id="node28" class="node"><title>Node28</title>
<g id="a_node28"><a xlink:href="classspeclib.html#a7f8bbfa94e61b0b498a78f57a3b2d46d" target="_top" xlink:title="speclib::zwglj">
<polygon fill="white" stroke="red" points="731,-361.5 731,-380.5 808,-380.5 808,-361.5 731,-361.5"/>
<text text-anchor="middle" x="769.5" y="-368.5" font-family="Helvetica,sans-Serif" font-size="10.00">speclib::zwglj</text>
</a>
</g>
</g>
<!-- Node27&#45;&gt;Node28 -->
<g id="edge34" class="edge"><title>Node27&#45;&gt;Node28</title>
<path fill="none" stroke="midnightblue" d="M690.819,-371C700.389,-371 710.792,-371 720.782,-371"/>
<polygon fill="midnightblue" stroke="midnightblue" points="720.991,-374.5 730.99,-371 720.99,-367.5 720.991,-374.5"/>
</g>
<!-- Node28&#45;&gt;Node13 -->
<g id="edge35" class="edge"><title>Node28&#45;&gt;Node13</title>
<path fill="none" stroke="midnightblue" d="M798.005,-361.411C814.718,-355.585 835.962,-348.178 852.569,-342.389"/>
<polygon fill="midnightblue" stroke="midnightblue" points="853.938,-345.618 862.229,-339.021 851.634,-339.008 853.938,-345.618"/>
</g>
<!-- Node30 -->
<g id="node30" class="node"><title>Node30</title>
<g id="a_node30"><a xlink:href="mxm__wrapper_8F90.html#ab9ec2260a10061af6ce1c52f3c8a41da" target="_top" xlink:title="Compute matrix&#45;matrix product C = A*B. ">
<polygon fill="white" stroke="black" points="526.5,-494.5 526.5,-513.5 564.5,-513.5 564.5,-494.5 526.5,-494.5"/>
<text text-anchor="middle" x="545.5" y="-501.5" font-family="Helvetica,sans-Serif" font-size="10.00">mxm</text>
</a>
</g>
</g>
<!-- Node29&#45;&gt;Node30 -->
<g id="edge37" class="edge"><title>Node29&#45;&gt;Node30</title>
<path fill="none" stroke="midnightblue" d="M467.001,-342.036C472.487,-344.594 477.741,-347.855 482,-352 520.042,-389.03 535.801,-452.526 541.572,-484.456"/>
<polygon fill="midnightblue" stroke="midnightblue" points="538.123,-485.049 543.217,-494.339 545.028,-483.9 538.123,-485.049"/>
</g>
<!-- Node31 -->
<g id="node31" class="node"><title>Node31</title>
<g id="a_node31"><a xlink:href="mxm__std_8F90.html#ac63fe7516a18dc57dfe913ad2c1453be" target="_top" xlink:title="mxm44_0">
<polygon fill="white" stroke="black" points="738.5,-665.5 738.5,-684.5 800.5,-684.5 800.5,-665.5 738.5,-665.5"/>
<text text-anchor="middle" x="769.5" y="-672.5" font-family="Helvetica,sans-Serif" font-size="10.00">mxm44_0</text>
</a>
</g>
</g>
<!-- Node30&#45;&gt;Node31 -->
<g id="edge38" class="edge"><title>Node30&#45;&gt;Node31</title>
<path fill="none" stroke="midnightblue" d="M547.245,-513.841C549.906,-541.444 561.513,-619.929 609,-656 642.91,-681.758 693.117,-683.548 728.113,-680.798"/>
<polygon fill="midnightblue" stroke="midnightblue" points="728.825,-684.246 738.451,-679.82 728.166,-677.277 728.825,-684.246"/>
</g>
<!-- Node32 -->
<g id="node32" class="node"><title>Node32</title>
<g id="a_node32"><a xlink:href="mxm__std_8F90.html#af07f4b22fdc3488ca321736743f14b01" target="_top" xlink:title="mxm44_2">
<polygon fill="white" stroke="black" points="621,-589.5 621,-608.5 683,-608.5 683,-589.5 621,-589.5"/>
<text text-anchor="middle" x="652" y="-596.5" font-family="Helvetica,sans-Serif" font-size="10.00">mxm44_2</text>
</a>
</g>
</g>
<!-- Node30&#45;&gt;Node32 -->
<g id="edge39" class="edge"><title>Node30&#45;&gt;Node32</title>
<path fill="none" stroke="midnightblue" d="M552.306,-513.605C562.212,-529.313 583.776,-560.677 609,-580 611.057,-581.576 613.265,-583.057 615.554,-584.442"/>
<polygon fill="midnightblue" stroke="midnightblue" points="614.161,-587.666 624.628,-589.306 617.468,-581.497 614.161,-587.666"/>
</g>
<!-- Node33 -->
<g id="node33" class="node"><title>Node33</title>
<g id="a_node33"><a xlink:href="mxm__bgq_8F90.html#a8a70163b4dbfdbfcce7bff170597fcad" target="_top" xlink:title="mxm_bgq_10">
<polygon fill="white" stroke="black" points="612,-551.5 612,-570.5 692,-570.5 692,-551.5 612,-551.5"/>
<text text-anchor="middle" x="652" y="-558.5" font-family="Helvetica,sans-Serif" font-size="10.00">mxm_bgq_10</text>
</a>
</g>
</g>
<!-- Node30&#45;&gt;Node33 -->
<g id="edge40" class="edge"><title>Node30&#45;&gt;Node33</title>
<path fill="none" stroke="midnightblue" d="M561.108,-513.577C573.591,-521.592 592.153,-533.11 609,-542 612.309,-543.746 615.81,-545.488 619.323,-547.169"/>
<polygon fill="midnightblue" stroke="midnightblue" points="617.98,-550.405 628.524,-551.438 620.926,-544.055 617.98,-550.405"/>
</g>
<!-- Node34 -->
<g id="node34" class="node"><title>Node34</title>
<g id="a_node34"><a xlink:href="mxm__bgq_8F90.html#a27529ace9834454b8906f29e02718629" target="_top" xlink:title="mxm_bgq_12">
<polygon fill="white" stroke="black" points="612,-513.5 612,-532.5 692,-532.5 692,-513.5 612,-513.5"/>
<text text-anchor="middle" x="652" y="-520.5" font-family="Helvetica,sans-Serif" font-size="10.00">mxm_bgq_12</text>
</a>
</g>
</g>
<!-- Node30&#45;&gt;Node34 -->
<g id="edge41" class="edge"><title>Node30&#45;&gt;Node34</title>
<path fill="none" stroke="midnightblue" d="M564.703,-507.31C575.047,-509.19 588.546,-511.645 601.784,-514.052"/>
<polygon fill="midnightblue" stroke="midnightblue" points="601.335,-517.527 611.8,-515.873 602.587,-510.64 601.335,-517.527"/>
</g>
<!-- Node35 -->
<g id="node35" class="node"><title>Node35</title>
<g id="a_node35"><a xlink:href="mxm__bgq_8F90.html#a3fda9ea4bc7a5713a19d6939fa2b541f" target="_top" xlink:title="mxm_bgq_16">
<polygon fill="white" stroke="black" points="612,-475.5 612,-494.5 692,-494.5 692,-475.5 612,-475.5"/>
<text text-anchor="middle" x="652" y="-482.5" font-family="Helvetica,sans-Serif" font-size="10.00">mxm_bgq_16</text>
</a>
</g>
</g>
<!-- Node30&#45;&gt;Node35 -->
<g id="edge42" class="edge"><title>Node30&#45;&gt;Node35</title>
<path fill="none" stroke="midnightblue" d="M564.703,-500.69C575.047,-498.81 588.546,-496.355 601.784,-493.948"/>
<polygon fill="midnightblue" stroke="midnightblue" points="602.587,-497.36 611.8,-492.127 601.335,-490.473 602.587,-497.36"/>
</g>
<!-- Node36 -->
<g id="node36" class="node"><title>Node36</title>
<g id="a_node36"><a xlink:href="mxm__bgq_8F90.html#af192c3c8b982aa5bbc2a757156718a91" target="_top" xlink:title="mxm_bgq_6">
<polygon fill="white" stroke="black" points="615,-437.5 615,-456.5 689,-456.5 689,-437.5 615,-437.5"/>
<text text-anchor="middle" x="652" y="-444.5" font-family="Helvetica,sans-Serif" font-size="10.00">mxm_bgq_6</text>
</a>
</g>
</g>
<!-- Node30&#45;&gt;Node36 -->
<g id="edge43" class="edge"><title>Node30&#45;&gt;Node36</title>
<path fill="none" stroke="midnightblue" d="M561.108,-494.423C573.591,-486.408 592.153,-474.89 609,-466 612.309,-464.254 615.81,-462.512 619.323,-460.831"/>
<polygon fill="midnightblue" stroke="midnightblue" points="620.926,-463.945 628.524,-456.562 617.98,-457.595 620.926,-463.945"/>
</g>
<!-- Node37 -->
<g id="node37" class="node"><title>Node37</title>
<g id="a_node37"><a xlink:href="mxm__bgq_8F90.html#a8faaef428336095704ece51624bbfe92" target="_top" xlink:title="mxm_bgq_8">
<polygon fill="white" stroke="black" points="615,-399.5 615,-418.5 689,-418.5 689,-399.5 615,-399.5"/>
<text text-anchor="middle" x="652" y="-406.5" font-family="Helvetica,sans-Serif" font-size="10.00">mxm_bgq_8</text>
</a>
</g>
</g>
<!-- Node30&#45;&gt;Node37 -->
<g id="edge44" class="edge"><title>Node30&#45;&gt;Node37</title>
<path fill="none" stroke="midnightblue" d="M552.306,-494.395C562.212,-478.687 583.776,-447.323 609,-428 611.057,-426.424 613.265,-424.943 615.554,-423.558"/>
<polygon fill="midnightblue" stroke="midnightblue" points="617.468,-426.503 624.628,-418.694 614.161,-420.334 617.468,-426.503"/>
</g>
<!-- Node38 -->
<g id="node38" class="node"><title>Node38</title>
<g id="a_node38"><a xlink:href="mxm__std_8F90.html#aa9e8685c4a72f18fb5d1ee88ed17a3d6" target="_top" xlink:title="unrolled loop version ">
<polygon fill="white" stroke="red" points="628.5,-627.5 628.5,-646.5 675.5,-646.5 675.5,-627.5 628.5,-627.5"/>
<text text-anchor="middle" x="652" y="-634.5" font-family="Helvetica,sans-Serif" font-size="10.00">mxmf2</text>
</a>
</g>
</g>
<!-- Node30&#45;&gt;Node38 -->
<g id="edge45" class="edge"><title>Node30&#45;&gt;Node38</title>
<path fill="none" stroke="midnightblue" d="M549.409,-513.575C556.363,-535 575.88,-587.327 609,-618 612.018,-620.795 615.518,-623.234 619.184,-625.347"/>
<polygon fill="midnightblue" stroke="midnightblue" points="617.946,-628.64 628.46,-629.945 621.055,-622.368 617.946,-628.64"/>
</g>
<!-- Node38&#45;&gt;Node31 -->
<g id="edge50" class="edge"><title>Node38&#45;&gt;Node31</title>
<path fill="none" stroke="midnightblue" d="M675.544,-644.417C690.943,-649.483 711.742,-656.326 729.762,-662.255"/>
<polygon fill="midnightblue" stroke="midnightblue" points="728.842,-665.637 739.435,-665.437 731.03,-658.987 728.842,-665.637"/>
</g>
<!-- Node39 -->
<g id="node39" class="node"><title>Node39</title>
<g id="a_node39"><a xlink:href="mxm__std_8F90.html#a7d3ac03517b3934b98857b22f7f78788" target="_top" xlink:title="mxf1">
<polygon fill="white" stroke="black" points="750,-627.5 750,-646.5 789,-646.5 789,-627.5 750,-627.5"/>
<text text-anchor="middle" x="769.5" y="-634.5" font-family="Helvetica,sans-Serif" font-size="10.00">mxf1</text>
</a>
</g>
</g>
<!-- Node38&#45;&gt;Node39 -->
<g id="edge46" class="edge"><title>Node38&#45;&gt;Node39</title>
<path fill="none" stroke="midnightblue" d="M675.544,-637C693.908,-637 719.952,-637 739.803,-637"/>
<polygon fill="midnightblue" stroke="midnightblue" points="739.826,-640.5 749.826,-637 739.826,-633.5 739.826,-640.5"/>
</g>
<!-- Node40 -->
<g id="node40" class="node"><title>Node40</title>
<g id="a_node40"><a xlink:href="mxm__std_8F90.html#a5786b175fcbe28ecafe1d878687c3ccf" target="_top" xlink:title="mxf10">
<polygon fill="white" stroke="black" points="747,-589.5 747,-608.5 792,-608.5 792,-589.5 747,-589.5"/>
<text text-anchor="middle" x="769.5" y="-596.5" font-family="Helvetica,sans-Serif" font-size="10.00">mxf10</text>
</a>
</g>
</g>
<!-- Node38&#45;&gt;Node40 -->
<g id="edge47" class="edge"><title>Node38&#45;&gt;Node40</title>
<path fill="none" stroke="midnightblue" d="M675.544,-629.583C693.098,-623.808 717.67,-615.723 737.142,-609.317"/>
<polygon fill="midnightblue" stroke="midnightblue" points="738.39,-612.591 746.795,-606.141 736.203,-605.942 738.39,-612.591"/>
</g>
<!-- Node41 -->
<g id="node41" class="node"><title>Node41</title>
<g id="a_node41"><a xlink:href="mxm__std_8F90.html#a244c7a41b5b7a22acba71c34552c2774" target="_top" xlink:title="mxf11">
<polygon fill="white" stroke="black" points="747,-551.5 747,-570.5 792,-570.5 792,-551.5 747,-551.5"/>
<text text-anchor="middle" x="769.5" y="-558.5" font-family="Helvetica,sans-Serif" font-size="10.00">mxf11</text>
</a>
</g>
</g>
<!-- Node38&#45;&gt;Node41 -->
<g id="edge48" class="edge"><title>Node38&#45;&gt;Node41</title>
<path fill="none" stroke="midnightblue" d="M675.675,-628.663C682.199,-625.765 689.132,-622.177 695,-618 713.953,-604.509 712.349,-593.906 731,-580 733.099,-578.435 735.346,-576.935 737.659,-575.514"/>
<polygon fill="midnightblue" stroke="midnightblue" points="739.707,-578.378 746.727,-570.443 736.291,-572.269 739.707,-578.378"/>
</g>
<!-- Node42 -->
<g id="node42" class="node"><title>Node42</title>
<g id="a_node42"><a xlink:href="mxm__std_8F90.html#afb2e2cde9040ab037e3586b0deef3851" target="_top" xlink:title="mxf12">
<polygon fill="white" stroke="black" points="747,-513.5 747,-532.5 792,-532.5 792,-513.5 747,-513.5"/>
<text text-anchor="middle" x="769.5" y="-520.5" font-family="Helvetica,sans-Serif" font-size="10.00">mxf12</text>
</a>
</g>
</g>
<!-- Node38&#45;&gt;Node42 -->
<g id="edge49" class="edge"><title>Node38&#45;&gt;Node42</title>
<path fill="none" stroke="midnightblue" d="M675.724,-630.138C682.546,-627.235 689.634,-623.273 695,-618 721.659,-591.804 704.925,-568.778 731,-542 733.053,-539.892 735.389,-537.977 737.868,-536.246"/>
<polygon fill="midnightblue" stroke="midnightblue" points="739.817,-539.16 746.646,-531.059 736.256,-533.133 739.817,-539.16"/>
</g>
<!-- Node43&#45;&gt;Node13 -->
<g id="edge52" class="edge"><title>Node43&#45;&gt;Node13</title>
<path fill="none" stroke="midnightblue" d="M460.728,-376.793C468.544,-379.618 476.389,-383.806 482,-390 523.111,-435.387 494.6,-466.409 518,-523 549.112,-598.243 540.65,-637.753 609,-682 683.38,-730.15 739.53,-750.239 808,-694 861.439,-650.107 875.628,-422.311 878.735,-353.019"/>
<polygon fill="midnightblue" stroke="midnightblue" points="882.247,-352.788 879.168,-342.65 875.253,-352.495 882.247,-352.788"/>
</g>
<!-- Node43&#45;&gt;Node30 -->
<g id="edge53" class="edge"><title>Node43&#45;&gt;Node30</title>
<path fill="none" stroke="midnightblue" d="M460.634,-377.974C468.179,-380.802 475.906,-384.696 482,-390 511.661,-415.817 529.897,-459.293 538.521,-484.435"/>
<polygon fill="midnightblue" stroke="midnightblue" points="535.301,-485.85 541.724,-494.276 541.957,-483.684 535.301,-485.85"/>
</g>
<!-- Node44&#45;&gt;Node5 -->
<g id="edge57" class="edge"><title>Node44&#45;&gt;Node5</title>
<path fill="none" stroke="midnightblue" d="M214.843,-285.554C243.394,-306.491 314.772,-357.162 380,-390 386.843,-393.445 394.468,-396.643 401.661,-399.395"/>
<polygon fill="midnightblue" stroke="midnightblue" points="400.493,-402.695 411.087,-402.853 402.904,-396.123 400.493,-402.695"/>
</g>
<!-- Node47 -->
<g id="node47" class="node"><title>Node47</title>
<g id="a_node47"><a xlink:href="navier1_8F90.html#acfa4c928e27d1e43ed8622586e4ed7e8" target="_top" xlink:title="nekuf">
<polygon fill="white" stroke="black" points="180,-19.5 180,-38.5 222,-38.5 222,-19.5 180,-19.5"/>
<text text-anchor="middle" x="201" y="-26.5" font-family="Helvetica,sans-Serif" font-size="10.00">nekuf</text>
</a>
</g>
</g>
<!-- Node46&#45;&gt;Node47 -->
<g id="edge60" class="edge"><title>Node46&#45;&gt;Node47</title>
<path fill="none" stroke="midnightblue" d="M134.118,-29C145.041,-29 158.073,-29 169.653,-29"/>
<polygon fill="midnightblue" stroke="midnightblue" points="169.776,-32.5001 179.776,-29 169.776,-25.5001 169.776,-32.5001"/>
</g>
<!-- Node48 -->
<g id="node48" class="node"><title>Node48</title>
<g id="a_node48"><a xlink:href="classparallel.html#ac36680315d0622d84df5d5baf3fb0acc" target="_top" xlink:title="parallel::lglel">
<polygon fill="white" stroke="black" points="267.5,-38.5 267.5,-57.5 341.5,-57.5 341.5,-38.5 267.5,-38.5"/>
<text text-anchor="middle" x="304.5" y="-45.5" font-family="Helvetica,sans-Serif" font-size="10.00">parallel::lglel</text>
</a>
</g>
</g>
<!-- Node47&#45;&gt;Node48 -->
<g id="edge61" class="edge"><title>Node47&#45;&gt;Node48</title>
<path fill="none" stroke="midnightblue" d="M222.053,-32.7538C232.265,-34.6653 245.132,-37.074 257.605,-39.4088"/>
<polygon fill="midnightblue" stroke="midnightblue" points="256.992,-42.8547 267.465,-41.2545 258.28,-35.9742 256.992,-42.8547"/>
</g>
<!-- Node50 -->
<g id="node50" class="node"><title>Node50</title>
<g id="a_node50"><a xlink:href="bdry_8F90.html#a2426a0c5d510c19b0aa48112922383c3" target="_top" xlink:title="Assign NEKTON variables for definition (by user) of boundary conditions at collocation point (IX...">
<polygon fill="white" stroke="black" points="276,-0.5 276,-19.5 333,-19.5 333,-0.5 276,-0.5"/>
<text text-anchor="middle" x="304.5" y="-7.5" font-family="Helvetica,sans-Serif" font-size="10.00">nekasgn</text>
</a>
</g>
</g>
<!-- Node47&#45;&gt;Node50 -->
<g id="edge63" class="edge"><title>Node47&#45;&gt;Node50</title>
<path fill="none" stroke="midnightblue" d="M222.053,-25.2462C234.54,-22.9089 250.997,-19.8282 265.848,-17.0481"/>
<polygon fill="midnightblue" stroke="midnightblue" points="266.619,-20.4647 275.805,-15.1844 265.331,-13.5842 266.619,-20.4647"/>
</g>
<!-- Node49 -->
<g id="node49" class="node"><title>Node49</title>
<g id="a_node49"><a xlink:href="classmesh.html#a8b6a250925cdc576e3ff6f7b18dc88c4" target="_top" xlink:title="mesh::xyz_to_ieg">
<polygon fill="white" stroke="black" points="382,-38.5 382,-57.5 480,-57.5 480,-38.5 382,-38.5"/>
<text text-anchor="middle" x="431" y="-45.5" font-family="Helvetica,sans-Serif" font-size="10.00">mesh::xyz_to_ieg</text>
</a>
</g>
</g>
<!-- Node48&#45;&gt;Node49 -->
<g id="edge62" class="edge"><title>Node48&#45;&gt;Node49</title>
<path fill="none" stroke="midnightblue" d="M341.511,-48C350.882,-48 361.226,-48 371.436,-48"/>
<polygon fill="midnightblue" stroke="midnightblue" points="371.562,-51.5001 381.561,-48 371.561,-44.5001 371.562,-51.5001"/>
</g>
</g>
</svg>
