<?xml version="1.0" encoding="UTF-8" standalone="no"?>
<!DOCTYPE svg PUBLIC "-//W3C//DTD SVG 1.1//EN"
 "http://www.w3.org/Graphics/SVG/1.1/DTD/svg11.dtd">
<!-- Generated by graphviz version 2.38.0 (20140413.2041)
 -->
<!-- Title: cdtp Pages: 1 -->
<!--zoomable 940 -->
<svg id="main" version="1.1" xmlns="http://www.w3.org/2000/svg" xmlns:xlink="http://www.w3.org/1999/xlink" xml:space="preserve" onload="init(evt)">
<style type="text/css"><![CDATA[
.edge:hover path { stroke: red; }
.edge:hover polygon { stroke: red; fill: red; }
]]></style>
<script type="text/javascript"><![CDATA[
var edges = document.getElementsByTagName('g');
if (edges && edges.length) {
  for (var i=0;i<edges.length;i++) {
    if (edges[i].id.substr(0,4)=='edge') {
      edges[i].setAttribute('class','edge');
    }
  }
}
]]></script>
        <defs>
                <circle id="rim" cx="0" cy="0" r="7"/>
                <circle id="rim2" cx="0" cy="0" r="3.5"/>
                <g id="zoomPlus">
                        <use xlink:href="#rim" fill="#404040">
                                <set attributeName="fill" to="#808080" begin="zoomplus.mouseover" end="zoomplus.mouseout"/>
                        </use>
                        <path d="M-4,0h8M0,-4v8" fill="none" stroke="white" stroke-width="1.5" pointer-events="none"/>
                </g>
                <g id="zoomMin">
                        <use xlink:href="#rim" fill="#404040">
                                <set attributeName="fill" to="#808080" begin="zoomminus.mouseover" end="zoomminus.mouseout"/>
                        </use>
                        <path d="M-4,0h8" fill="none" stroke="white" stroke-width="1.5" pointer-events="none"/>
                </g>
                <g id="dirArrow">
                        <path fill="none" stroke="white" stroke-width="1.5" d="M0,-3.0v7 M-2.5,-0.5L0,-3.0L2.5,-0.5"/>
                </g>
               <g id="resetDef">
                       <use xlink:href="#rim2" fill="#404040">
                               <set attributeName="fill" to="#808080" begin="reset.mouseover" end="reset.mouseout"/>
                       </use>
               </g>
        </defs>

<script type="text/javascript">
var viewWidth = 392;
var viewHeight = 940;
var sectionId = 'dynsection-3';
</script>
<script xlink:href="svgpan.js"/>
<svg id="graph" class="graph">
<g id="viewport">
<title>cdtp</title>
<polygon fill="white" stroke="none" points="-4,4 -4,-936 388,-936 388,4 -4,4"/>
<!-- Node1 -->
<g id="node1" class="node"><title>Node1</title>
<polygon fill="#bfbfbf" stroke="black" points="0,-817.5 0,-836.5 37,-836.5 37,-817.5 0,-817.5"/>
<text text-anchor="middle" x="18.5" y="-824.5" font-family="Helvetica,sans-Serif" font-size="10.00">cdtp</text>
</g>
<!-- Node2 -->
<g id="node2" class="node"><title>Node2</title>
<g id="a_node2"><a xlink:href="math_8F90.html#a3b43508554f14bdea8e14473d7d0803c" target="_top" xlink:title="copy">
<polygon fill="white" stroke="black" points="102,-855.5 102,-874.5 141,-874.5 141,-855.5 102,-855.5"/>
<text text-anchor="middle" x="121.5" y="-862.5" font-family="Helvetica,sans-Serif" font-size="10.00">copy</text>
</a>
</g>
</g>
<!-- Node1&#45;&gt;Node2 -->
<g id="edge1" class="edge"><title>Node1&#45;&gt;Node2</title>
<path fill="none" stroke="midnightblue" d="M37.0929,-833.619C52.2114,-839.307 74.2995,-847.618 91.9477,-854.258"/>
<polygon fill="midnightblue" stroke="midnightblue" points="91.1474,-857.696 101.739,-857.942 93.6124,-851.144 91.1474,-857.696"/>
</g>
<!-- Node3 -->
<g id="node3" class="node"><title>Node3</title>
<g id="a_node3"><a xlink:href="classctimer.html#abcecbc845c8ee72e13a19eaa30b80d77" target="_top" xlink:title="ctimer::dnekclock">
<polygon fill="white" stroke="black" points="73,-817.5 73,-836.5 170,-836.5 170,-817.5 73,-817.5"/>
<text text-anchor="middle" x="121.5" y="-824.5" font-family="Helvetica,sans-Serif" font-size="10.00">ctimer::dnekclock</text>
</a>
</g>
</g>
<!-- Node1&#45;&gt;Node3 -->
<g id="edge2" class="edge"><title>Node1&#45;&gt;Node3</title>
<path fill="none" stroke="midnightblue" d="M37.0929,-827C44.3978,-827 53.3299,-827 62.602,-827"/>
<polygon fill="midnightblue" stroke="midnightblue" points="62.7359,-830.5 72.7359,-827 62.7358,-823.5 62.7359,-830.5"/>
</g>
<!-- Node5 -->
<g id="node5" class="node"><title>Node5</title>
<g id="a_node5"><a xlink:href="mxm__wrapper_8F90.html#ab9ec2260a10061af6ce1c52f3c8a41da" target="_top" xlink:title="Compute matrix&#45;matrix product C = A*B. ">
<polygon fill="white" stroke="black" points="102.5,-722.5 102.5,-741.5 140.5,-741.5 140.5,-722.5 102.5,-722.5"/>
<text text-anchor="middle" x="121.5" y="-729.5" font-family="Helvetica,sans-Serif" font-size="10.00">mxm</text>
</a>
</g>
</g>
<!-- Node1&#45;&gt;Node5 -->
<g id="edge4" class="edge"><title>Node1&#45;&gt;Node5</title>
<path fill="none" stroke="midnightblue" d="M29.9284,-817.191C47.1793,-800.965 81.8417,-768.362 102.927,-748.529"/>
<polygon fill="midnightblue" stroke="midnightblue" points="105.393,-751.015 110.279,-741.614 100.597,-745.916 105.393,-751.015"/>
</g>
<!-- Node4 -->
<g id="node4" class="node"><title>Node4</title>
<g id="a_node4"><a xlink:href="mpi__dummy_8F90.html#ae6a5ef945f87c2c27849696b70f3af2a" target="_top" xlink:title="mpi_wtime">
<polygon fill="white" stroke="black" points="213,-874.5 213,-893.5 279,-893.5 279,-874.5 213,-874.5"/>
<text text-anchor="middle" x="246" y="-881.5" font-family="Helvetica,sans-Serif" font-size="10.00">mpi_wtime</text>
</a>
</g>
</g>
<!-- Node3&#45;&gt;Node4 -->
<g id="edge3" class="edge"><title>Node3&#45;&gt;Node4</title>
<path fill="none" stroke="midnightblue" d="M147.819,-836.647C155.04,-839.528 162.879,-842.779 170,-846 186.209,-853.331 203.983,-862.294 218.159,-869.674"/>
<polygon fill="midnightblue" stroke="midnightblue" points="216.853,-872.942 227.334,-874.491 220.107,-866.744 216.853,-872.942"/>
</g>
<!-- Node6 -->
<g id="node6" class="node"><title>Node6</title>
<g id="a_node6"><a xlink:href="mxm__std_8F90.html#ac63fe7516a18dc57dfe913ad2c1453be" target="_top" xlink:title="mxm44_0">
<polygon fill="white" stroke="black" points="322,-912.5 322,-931.5 384,-931.5 384,-912.5 322,-912.5"/>
<text text-anchor="middle" x="353" y="-919.5" font-family="Helvetica,sans-Serif" font-size="10.00">mxm44_0</text>
</a>
</g>
</g>
<!-- Node5&#45;&gt;Node6 -->
<g id="edge5" class="edge"><title>Node5&#45;&gt;Node6</title>
<path fill="none" stroke="midnightblue" d="M128.838,-741.501C141.579,-760.012 172,-801.335 206,-827 237.417,-850.715 254.146,-841.875 286,-865 304.827,-878.667 304.035,-888.218 322,-903 323.535,-904.263 325.16,-905.51 326.827,-906.724"/>
<polygon fill="midnightblue" stroke="midnightblue" points="325.053,-909.749 335.298,-912.449 328.973,-903.949 325.053,-909.749"/>
</g>
<!-- Node7 -->
<g id="node7" class="node"><title>Node7</title>
<g id="a_node7"><a xlink:href="mxm__std_8F90.html#af07f4b22fdc3488ca321736743f14b01" target="_top" xlink:title="mxm44_2">
<polygon fill="white" stroke="black" points="215,-798.5 215,-817.5 277,-817.5 277,-798.5 215,-798.5"/>
<text text-anchor="middle" x="246" y="-805.5" font-family="Helvetica,sans-Serif" font-size="10.00">mxm44_2</text>
</a>
</g>
</g>
<!-- Node5&#45;&gt;Node7 -->
<g id="edge6" class="edge"><title>Node5&#45;&gt;Node7</title>
<path fill="none" stroke="midnightblue" d="M135.419,-741.694C151.508,-753.558 180.045,-773.926 206,-789 208.866,-790.664 211.898,-792.318 214.956,-793.915"/>
<polygon fill="midnightblue" stroke="midnightblue" points="213.555,-797.128 224.062,-798.492 216.699,-790.874 213.555,-797.128"/>
</g>
<!-- Node8 -->
<g id="node8" class="node"><title>Node8</title>
<g id="a_node8"><a xlink:href="mxm__bgq_8F90.html#a8a70163b4dbfdbfcce7bff170597fcad" target="_top" xlink:title="mxm_bgq_10">
<polygon fill="white" stroke="black" points="206,-760.5 206,-779.5 286,-779.5 286,-760.5 206,-760.5"/>
<text text-anchor="middle" x="246" y="-767.5" font-family="Helvetica,sans-Serif" font-size="10.00">mxm_bgq_10</text>
</a>
</g>
</g>
<!-- Node5&#45;&gt;Node8 -->
<g id="edge7" class="edge"><title>Node5&#45;&gt;Node8</title>
<path fill="none" stroke="midnightblue" d="M140.575,-737.607C157.312,-742.799 182.801,-750.706 204.406,-757.408"/>
<polygon fill="midnightblue" stroke="midnightblue" points="203.426,-760.768 214.014,-760.388 205.5,-754.082 203.426,-760.768"/>
</g>
<!-- Node9 -->
<g id="node9" class="node"><title>Node9</title>
<g id="a_node9"><a xlink:href="mxm__bgq_8F90.html#a27529ace9834454b8906f29e02718629" target="_top" xlink:title="mxm_bgq_12">
<polygon fill="white" stroke="black" points="206,-722.5 206,-741.5 286,-741.5 286,-722.5 206,-722.5"/>
<text text-anchor="middle" x="246" y="-729.5" font-family="Helvetica,sans-Serif" font-size="10.00">mxm_bgq_12</text>
</a>
</g>
</g>
<!-- Node5&#45;&gt;Node9 -->
<g id="edge8" class="edge"><title>Node5&#45;&gt;Node9</title>
<path fill="none" stroke="midnightblue" d="M140.575,-732C155.074,-732 176.139,-732 195.559,-732"/>
<polygon fill="midnightblue" stroke="midnightblue" points="195.822,-735.5 205.822,-732 195.822,-728.5 195.822,-735.5"/>
</g>
<!-- Node10 -->
<g id="node10" class="node"><title>Node10</title>
<g id="a_node10"><a xlink:href="mxm__bgq_8F90.html#a3fda9ea4bc7a5713a19d6939fa2b541f" target="_top" xlink:title="mxm_bgq_16">
<polygon fill="white" stroke="black" points="206,-684.5 206,-703.5 286,-703.5 286,-684.5 206,-684.5"/>
<text text-anchor="middle" x="246" y="-691.5" font-family="Helvetica,sans-Serif" font-size="10.00">mxm_bgq_16</text>
</a>
</g>
</g>
<!-- Node5&#45;&gt;Node10 -->
<g id="edge9" class="edge"><title>Node5&#45;&gt;Node10</title>
<path fill="none" stroke="midnightblue" d="M140.575,-726.393C157.312,-721.201 182.801,-713.294 204.406,-706.592"/>
<polygon fill="midnightblue" stroke="midnightblue" points="205.5,-709.918 214.014,-703.612 203.426,-703.232 205.5,-709.918"/>
</g>
<!-- Node11 -->
<g id="node11" class="node"><title>Node11</title>
<g id="a_node11"><a xlink:href="mxm__bgq_8F90.html#af192c3c8b982aa5bbc2a757156718a91" target="_top" xlink:title="mxm_bgq_6">
<polygon fill="white" stroke="black" points="209,-646.5 209,-665.5 283,-665.5 283,-646.5 209,-646.5"/>
<text text-anchor="middle" x="246" y="-653.5" font-family="Helvetica,sans-Serif" font-size="10.00">mxm_bgq_6</text>
</a>
</g>
</g>
<!-- Node5&#45;&gt;Node11 -->
<g id="edge10" class="edge"><title>Node5&#45;&gt;Node11</title>
<path fill="none" stroke="midnightblue" d="M135.419,-722.306C151.508,-710.442 180.045,-690.074 206,-675 208.866,-673.336 211.898,-671.682 214.956,-670.085"/>
<polygon fill="midnightblue" stroke="midnightblue" points="216.699,-673.126 224.062,-665.508 213.555,-666.872 216.699,-673.126"/>
</g>
<!-- Node12 -->
<g id="node12" class="node"><title>Node12</title>
<g id="a_node12"><a xlink:href="mxm__bgq_8F90.html#a8faaef428336095704ece51624bbfe92" target="_top" xlink:title="mxm_bgq_8">
<polygon fill="white" stroke="black" points="209,-608.5 209,-627.5 283,-627.5 283,-608.5 209,-608.5"/>
<text text-anchor="middle" x="246" y="-615.5" font-family="Helvetica,sans-Serif" font-size="10.00">mxm_bgq_8</text>
</a>
</g>
</g>
<!-- Node5&#45;&gt;Node12 -->
<g id="edge11" class="edge"><title>Node5&#45;&gt;Node12</title>
<path fill="none" stroke="midnightblue" d="M129.059,-722.241C141.955,-703.645 172.302,-662.699 206,-637 208.044,-635.441 210.235,-633.961 212.5,-632.565"/>
<polygon fill="midnightblue" stroke="midnightblue" points="214.38,-635.525 221.43,-627.616 210.987,-629.402 214.38,-635.525"/>
</g>
<!-- Node13 -->
<g id="node13" class="node"><title>Node13</title>
<g id="a_node13"><a xlink:href="mxm__std_8F90.html#aa9e8685c4a72f18fb5d1ee88ed17a3d6" target="_top" xlink:title="unrolled loop version ">
<polygon fill="white" stroke="black" points="222.5,-475.5 222.5,-494.5 269.5,-494.5 269.5,-475.5 222.5,-475.5"/>
<text text-anchor="middle" x="246" y="-482.5" font-family="Helvetica,sans-Serif" font-size="10.00">mxmf2</text>
</a>
</g>
</g>
<!-- Node5&#45;&gt;Node13 -->
<g id="edge12" class="edge"><title>Node5&#45;&gt;Node13</title>
<path fill="none" stroke="midnightblue" d="M127.302,-722.317C145.597,-685.429 211.134,-553.285 235.653,-503.846"/>
<polygon fill="midnightblue" stroke="midnightblue" points="238.923,-505.13 240.231,-494.616 232.652,-502.019 238.923,-505.13"/>
</g>
<!-- Node13&#45;&gt;Node6 -->
<g id="edge37" class="edge"><title>Node13&#45;&gt;Node6</title>
<path fill="none" stroke="midnightblue" d="M251.046,-494.559C259.058,-513.901 276.949,-559.227 286,-599 316.189,-731.664 249.493,-787.875 322,-903 322.591,-903.939 323.248,-904.84 323.958,-905.703"/>
<polygon fill="midnightblue" stroke="midnightblue" points="321.687,-908.369 331.45,-912.484 326.384,-903.179 321.687,-908.369"/>
</g>
<!-- Node14 -->
<g id="node14" class="node"><title>Node14</title>
<g id="a_node14"><a xlink:href="mxm__std_8F90.html#a7d3ac03517b3934b98857b22f7f78788" target="_top" xlink:title="mxf1">
<polygon fill="white" stroke="black" points="333.5,-874.5 333.5,-893.5 372.5,-893.5 372.5,-874.5 333.5,-874.5"/>
<text text-anchor="middle" x="353" y="-881.5" font-family="Helvetica,sans-Serif" font-size="10.00">mxf1</text>
</a>
</g>
</g>
<!-- Node13&#45;&gt;Node14 -->
<g id="edge13" class="edge"><title>Node13&#45;&gt;Node14</title>
<path fill="none" stroke="midnightblue" d="M250.99,-494.572C258.901,-513.938 276.619,-559.304 286,-599 313.438,-715.102 257.584,-764.585 322,-865 322.961,-866.498 324.087,-867.9 325.329,-869.209"/>
<polygon fill="midnightblue" stroke="midnightblue" points="323.379,-872.134 333.357,-875.697 327.78,-866.689 323.379,-872.134"/>
</g>
<!-- Node15 -->
<g id="node15" class="node"><title>Node15</title>
<g id="a_node15"><a xlink:href="mxm__std_8F90.html#a5786b175fcbe28ecafe1d878687c3ccf" target="_top" xlink:title="mxf10">
<polygon fill="white" stroke="black" points="330.5,-836.5 330.5,-855.5 375.5,-855.5 375.5,-836.5 330.5,-836.5"/>
<text text-anchor="middle" x="353" y="-843.5" font-family="Helvetica,sans-Serif" font-size="10.00">mxf10</text>
</a>
</g>
</g>
<!-- Node13&#45;&gt;Node15 -->
<g id="edge14" class="edge"><title>Node13&#45;&gt;Node15</title>
<path fill="none" stroke="midnightblue" d="M250.915,-494.59C258.692,-513.988 276.181,-559.41 286,-599 310.696,-698.572 265.658,-741.268 322,-827 322.609,-827.927 323.282,-828.818 324.004,-829.673"/>
<polygon fill="midnightblue" stroke="midnightblue" points="321.769,-832.37 331.562,-836.412 326.428,-827.145 321.769,-832.37"/>
</g>
<!-- Node16 -->
<g id="node16" class="node"><title>Node16</title>
<g id="a_node16"><a xlink:href="mxm__std_8F90.html#a244c7a41b5b7a22acba71c34552c2774" target="_top" xlink:title="mxf11">
<polygon fill="white" stroke="black" points="330.5,-798.5 330.5,-817.5 375.5,-817.5 375.5,-798.5 330.5,-798.5"/>
<text text-anchor="middle" x="353" y="-805.5" font-family="Helvetica,sans-Serif" font-size="10.00">mxf11</text>
</a>
</g>
</g>
<!-- Node13&#45;&gt;Node16 -->
<g id="edge15" class="edge"><title>Node13&#45;&gt;Node16</title>
<path fill="none" stroke="midnightblue" d="M250.812,-494.616C258.404,-514.062 275.575,-559.565 286,-599 307.966,-682.093 273.702,-717.907 322,-789 322.624,-789.918 323.308,-790.801 324.041,-791.649"/>
<polygon fill="midnightblue" stroke="midnightblue" points="321.833,-794.368 331.65,-798.354 326.461,-789.116 321.833,-794.368"/>
</g>
<!-- Node17 -->
<g id="node17" class="node"><title>Node17</title>
<g id="a_node17"><a xlink:href="mxm__std_8F90.html#afb2e2cde9040ab037e3586b0deef3851" target="_top" xlink:title="mxf12">
<polygon fill="white" stroke="black" points="330.5,-760.5 330.5,-779.5 375.5,-779.5 375.5,-760.5 330.5,-760.5"/>
<text text-anchor="middle" x="353" y="-767.5" font-family="Helvetica,sans-Serif" font-size="10.00">mxf12</text>
</a>
</g>
</g>
<!-- Node13&#45;&gt;Node17 -->
<g id="edge16" class="edge"><title>Node13&#45;&gt;Node17</title>
<path fill="none" stroke="midnightblue" d="M250.66,-494.658C257.979,-514.18 274.685,-559.811 286,-599 305.259,-665.7 281.696,-694.472 322,-751 322.745,-752.045 323.567,-753.045 324.449,-754.002"/>
<polygon fill="midnightblue" stroke="midnightblue" points="322.196,-756.68 332.087,-760.477 326.723,-751.341 322.196,-756.68"/>
</g>
<!-- Node18 -->
<g id="node18" class="node"><title>Node18</title>
<g id="a_node18"><a xlink:href="mxm__std_8F90.html#a6a048a62b47a5c2327279e158c1689df" target="_top" xlink:title="mxf13">
<polygon fill="white" stroke="black" points="330.5,-722.5 330.5,-741.5 375.5,-741.5 375.5,-722.5 330.5,-722.5"/>
<text text-anchor="middle" x="353" y="-729.5" font-family="Helvetica,sans-Serif" font-size="10.00">mxf13</text>
</a>
</g>
</g>
<!-- Node13&#45;&gt;Node18 -->
<g id="edge17" class="edge"><title>Node13&#45;&gt;Node18</title>
<path fill="none" stroke="midnightblue" d="M250.417,-494.733C257.298,-514.39 273.256,-560.252 286,-599 302.6,-649.473 289.589,-670.897 322,-713 322.783,-714.017 323.636,-714.994 324.544,-715.931"/>
<polygon fill="midnightblue" stroke="midnightblue" points="322.351,-718.658 332.291,-722.326 326.808,-713.261 322.351,-718.658"/>
</g>
<!-- Node19 -->
<g id="node19" class="node"><title>Node19</title>
<g id="a_node19"><a xlink:href="mxm__std_8F90.html#a6e57628b882cb8bcac215e9a5b523eed" target="_top" xlink:title="mxf14">
<polygon fill="white" stroke="black" points="330.5,-684.5 330.5,-703.5 375.5,-703.5 375.5,-684.5 330.5,-684.5"/>
<text text-anchor="middle" x="353" y="-691.5" font-family="Helvetica,sans-Serif" font-size="10.00">mxf14</text>
</a>
</g>
</g>
<!-- Node13&#45;&gt;Node19 -->
<g id="edge18" class="edge"><title>Node13&#45;&gt;Node19</title>
<path fill="none" stroke="midnightblue" d="M250.383,-494.571C263.325,-531.041 309.596,-660.005 322,-675 322.84,-676.015 323.749,-676.994 324.709,-677.934"/>
<polygon fill="midnightblue" stroke="midnightblue" points="322.792,-680.882 332.792,-684.384 327.158,-675.411 322.792,-680.882"/>
</g>
<!-- Node20 -->
<g id="node20" class="node"><title>Node20</title>
<g id="a_node20"><a xlink:href="mxm__std_8F90.html#a02e79201be026faf756be00e58334c4f" target="_top" xlink:title="mxf15">
<polygon fill="white" stroke="black" points="330.5,-646.5 330.5,-665.5 375.5,-665.5 375.5,-646.5 330.5,-646.5"/>
<text text-anchor="middle" x="353" y="-653.5" font-family="Helvetica,sans-Serif" font-size="10.00">mxf15</text>
</a>
</g>
</g>
<!-- Node13&#45;&gt;Node20 -->
<g id="edge19" class="edge"><title>Node13&#45;&gt;Node20</title>
<path fill="none" stroke="midnightblue" d="M249.715,-494.596C257.373,-520.278 281.275,-591.703 322,-637 323.005,-638.117 324.09,-639.194 325.232,-640.228"/>
<polygon fill="midnightblue" stroke="midnightblue" points="323.248,-643.118 333.321,-646.403 327.496,-637.553 323.248,-643.118"/>
</g>
<!-- Node21 -->
<g id="node21" class="node"><title>Node21</title>
<g id="a_node21"><a xlink:href="mxm__std_8F90.html#a2fbea6eeadc258673ba8ea5708593aee" target="_top" xlink:title="mxf16">
<polygon fill="white" stroke="black" points="330.5,-608.5 330.5,-627.5 375.5,-627.5 375.5,-608.5 330.5,-608.5"/>
<text text-anchor="middle" x="353" y="-615.5" font-family="Helvetica,sans-Serif" font-size="10.00">mxf16</text>
</a>
</g>
</g>
<!-- Node13&#45;&gt;Node21 -->
<g id="edge20" class="edge"><title>Node13&#45;&gt;Node21</title>
<path fill="none" stroke="midnightblue" d="M251.498,-494.523C261.707,-515.398 288.376,-565.954 322,-599 323.099,-600.08 324.27,-601.131 325.488,-602.147"/>
<polygon fill="midnightblue" stroke="midnightblue" points="323.802,-605.25 333.946,-608.309 327.924,-599.592 323.802,-605.25"/>
</g>
<!-- Node22 -->
<g id="node22" class="node"><title>Node22</title>
<g id="a_node22"><a xlink:href="mxm__std_8F90.html#a3829af481cd230e6aadef08feab9a278" target="_top" xlink:title="mxf17">
<polygon fill="white" stroke="black" points="330.5,-570.5 330.5,-589.5 375.5,-589.5 375.5,-570.5 330.5,-570.5"/>
<text text-anchor="middle" x="353" y="-577.5" font-family="Helvetica,sans-Serif" font-size="10.00">mxf17</text>
</a>
</g>
</g>
<!-- Node13&#45;&gt;Node22 -->
<g id="edge21" class="edge"><title>Node13&#45;&gt;Node22</title>
<path fill="none" stroke="midnightblue" d="M255.158,-494.575C268.316,-509.7 295.441,-539.598 322,-561 323.548,-562.248 325.182,-563.482 326.856,-564.688"/>
<polygon fill="midnightblue" stroke="midnightblue" points="325.092,-567.719 335.344,-570.393 328.997,-561.909 325.092,-567.719"/>
</g>
<!-- Node23 -->
<g id="node23" class="node"><title>Node23</title>
<g id="a_node23"><a xlink:href="mxm__std_8F90.html#a48ed8195cc978a87c005b3306a974894" target="_top" xlink:title="mxf18">
<polygon fill="white" stroke="black" points="330.5,-532.5 330.5,-551.5 375.5,-551.5 375.5,-532.5 330.5,-532.5"/>
<text text-anchor="middle" x="353" y="-539.5" font-family="Helvetica,sans-Serif" font-size="10.00">mxf18</text>
</a>
</g>
</g>
<!-- Node13&#45;&gt;Node23 -->
<g id="edge22" class="edge"><title>Node13&#45;&gt;Node23</title>
<path fill="none" stroke="midnightblue" d="M264.812,-494.669C281.429,-503.69 306.44,-517.267 325.418,-527.57"/>
<polygon fill="midnightblue" stroke="midnightblue" points="323.993,-530.779 334.451,-532.474 327.333,-524.627 323.993,-530.779"/>
</g>
<!-- Node24 -->
<g id="node24" class="node"><title>Node24</title>
<g id="a_node24"><a xlink:href="mxm__std_8F90.html#a28a9857286e11804e1a97875028ecb09" target="_top" xlink:title="mxf19">
<polygon fill="white" stroke="black" points="330.5,-494.5 330.5,-513.5 375.5,-513.5 375.5,-494.5 330.5,-494.5"/>
<text text-anchor="middle" x="353" y="-501.5" font-family="Helvetica,sans-Serif" font-size="10.00">mxf19</text>
</a>
</g>
</g>
<!-- Node13&#45;&gt;Node24 -->
<g id="edge23" class="edge"><title>Node13&#45;&gt;Node24</title>
<path fill="none" stroke="midnightblue" d="M269.525,-489.076C284.256,-491.741 303.721,-495.264 320.041,-498.217"/>
<polygon fill="midnightblue" stroke="midnightblue" points="319.768,-501.724 330.231,-500.061 321.014,-494.836 319.768,-501.724"/>
</g>
<!-- Node25 -->
<g id="node25" class="node"><title>Node25</title>
<g id="a_node25"><a xlink:href="mxm__std_8F90.html#acd223c583f3a9242fda7a1b8897b624d" target="_top" xlink:title="mxf2">
<polygon fill="white" stroke="black" points="333.5,-456.5 333.5,-475.5 372.5,-475.5 372.5,-456.5 333.5,-456.5"/>
<text text-anchor="middle" x="353" y="-463.5" font-family="Helvetica,sans-Serif" font-size="10.00">mxf2</text>
</a>
</g>
</g>
<!-- Node13&#45;&gt;Node25 -->
<g id="edge24" class="edge"><title>Node13&#45;&gt;Node25</title>
<path fill="none" stroke="midnightblue" d="M269.525,-480.924C285.294,-478.071 306.489,-474.235 323.444,-471.167"/>
<polygon fill="midnightblue" stroke="midnightblue" points="324.149,-474.597 333.366,-469.372 322.903,-467.708 324.149,-474.597"/>
</g>
<!-- Node26 -->
<g id="node26" class="node"><title>Node26</title>
<g id="a_node26"><a xlink:href="mxm__std_8F90.html#af60059bd60847f48acdf6461fefa3b22" target="_top" xlink:title="mxf20">
<polygon fill="white" stroke="black" points="330.5,-418.5 330.5,-437.5 375.5,-437.5 375.5,-418.5 330.5,-418.5"/>
<text text-anchor="middle" x="353" y="-425.5" font-family="Helvetica,sans-Serif" font-size="10.00">mxf20</text>
</a>
</g>
</g>
<!-- Node13&#45;&gt;Node26 -->
<g id="edge25" class="edge"><title>Node13&#45;&gt;Node26</title>
<path fill="none" stroke="midnightblue" d="M264.812,-475.331C281.429,-466.31 306.44,-452.733 325.418,-442.43"/>
<polygon fill="midnightblue" stroke="midnightblue" points="327.333,-445.373 334.451,-437.526 323.993,-439.221 327.333,-445.373"/>
</g>
<!-- Node27 -->
<g id="node27" class="node"><title>Node27</title>
<g id="a_node27"><a xlink:href="mxm__std_8F90.html#a825db174c5643aef5e4cdf57067ebbbb" target="_top" xlink:title="mxf21">
<polygon fill="white" stroke="black" points="330.5,-380.5 330.5,-399.5 375.5,-399.5 375.5,-380.5 330.5,-380.5"/>
<text text-anchor="middle" x="353" y="-387.5" font-family="Helvetica,sans-Serif" font-size="10.00">mxf21</text>
</a>
</g>
</g>
<!-- Node13&#45;&gt;Node27 -->
<g id="edge26" class="edge"><title>Node13&#45;&gt;Node27</title>
<path fill="none" stroke="midnightblue" d="M255.158,-475.425C268.316,-460.3 295.441,-430.402 322,-409 323.548,-407.752 325.182,-406.518 326.856,-405.312"/>
<polygon fill="midnightblue" stroke="midnightblue" points="328.997,-408.091 335.344,-399.607 325.092,-402.281 328.997,-408.091"/>
</g>
<!-- Node28 -->
<g id="node28" class="node"><title>Node28</title>
<g id="a_node28"><a xlink:href="mxm__std_8F90.html#a1f2059cb835b2818aef861f2f59a0a72" target="_top" xlink:title="mxf22">
<polygon fill="white" stroke="black" points="330.5,-342.5 330.5,-361.5 375.5,-361.5 375.5,-342.5 330.5,-342.5"/>
<text text-anchor="middle" x="353" y="-349.5" font-family="Helvetica,sans-Serif" font-size="10.00">mxf22</text>
</a>
</g>
</g>
<!-- Node13&#45;&gt;Node28 -->
<g id="edge27" class="edge"><title>Node13&#45;&gt;Node28</title>
<path fill="none" stroke="midnightblue" d="M251.498,-475.477C261.707,-454.602 288.376,-404.046 322,-371 323.099,-369.92 324.27,-368.869 325.488,-367.853"/>
<polygon fill="midnightblue" stroke="midnightblue" points="327.924,-370.408 333.946,-361.691 323.802,-364.75 327.924,-370.408"/>
</g>
<!-- Node29 -->
<g id="node29" class="node"><title>Node29</title>
<g id="a_node29"><a xlink:href="mxm__std_8F90.html#a3dc6491b8d44b702dbbb13a01f887c59" target="_top" xlink:title="mxf23">
<polygon fill="white" stroke="black" points="330.5,-304.5 330.5,-323.5 375.5,-323.5 375.5,-304.5 330.5,-304.5"/>
<text text-anchor="middle" x="353" y="-311.5" font-family="Helvetica,sans-Serif" font-size="10.00">mxf23</text>
</a>
</g>
</g>
<!-- Node13&#45;&gt;Node29 -->
<g id="edge28" class="edge"><title>Node13&#45;&gt;Node29</title>
<path fill="none" stroke="midnightblue" d="M249.715,-475.404C257.373,-449.722 281.275,-378.297 322,-333 323.005,-331.883 324.09,-330.806 325.232,-329.772"/>
<polygon fill="midnightblue" stroke="midnightblue" points="327.496,-332.447 333.321,-323.597 323.248,-326.882 327.496,-332.447"/>
</g>
<!-- Node30 -->
<g id="node30" class="node"><title>Node30</title>
<g id="a_node30"><a xlink:href="mxm__std_8F90.html#af0752c9a61343489900f8d812c6980ed" target="_top" xlink:title="mxf24">
<polygon fill="white" stroke="black" points="330.5,-266.5 330.5,-285.5 375.5,-285.5 375.5,-266.5 330.5,-266.5"/>
<text text-anchor="middle" x="353" y="-273.5" font-family="Helvetica,sans-Serif" font-size="10.00">mxf24</text>
</a>
</g>
</g>
<!-- Node13&#45;&gt;Node30 -->
<g id="edge29" class="edge"><title>Node13&#45;&gt;Node30</title>
<path fill="none" stroke="midnightblue" d="M248.638,-475.225C254.093,-445.214 274.081,-352.931 322,-295 322.84,-293.985 323.749,-293.006 324.709,-292.066"/>
<polygon fill="midnightblue" stroke="midnightblue" points="327.158,-294.589 332.792,-285.616 322.792,-289.118 327.158,-294.589"/>
</g>
<!-- Node31 -->
<g id="node31" class="node"><title>Node31</title>
<g id="a_node31"><a xlink:href="mxm__std_8F90.html#abff718a387aa354f77d0e8b0ffa98867" target="_top" xlink:title="mxf3">
<polygon fill="white" stroke="black" points="333.5,-228.5 333.5,-247.5 372.5,-247.5 372.5,-228.5 333.5,-228.5"/>
<text text-anchor="middle" x="353" y="-235.5" font-family="Helvetica,sans-Serif" font-size="10.00">mxf3</text>
</a>
</g>
</g>
<!-- Node13&#45;&gt;Node31 -->
<g id="edge30" class="edge"><title>Node13&#45;&gt;Node31</title>
<path fill="none" stroke="midnightblue" d="M247.869,-475.24C251.317,-441.502 266.672,-327.994 322,-257 322.947,-255.784 323.996,-254.625 325.117,-253.522"/>
<polygon fill="midnightblue" stroke="midnightblue" points="327.589,-256.029 333.257,-247.077 323.244,-250.541 327.589,-256.029"/>
</g>
<!-- Node32 -->
<g id="node32" class="node"><title>Node32</title>
<g id="a_node32"><a xlink:href="mxm__std_8F90.html#a2f4e4e1b4daebbd4d0580029d0f54016" target="_top" xlink:title="mxf4">
<polygon fill="white" stroke="black" points="333.5,-190.5 333.5,-209.5 372.5,-209.5 372.5,-190.5 333.5,-190.5"/>
<text text-anchor="middle" x="353" y="-197.5" font-family="Helvetica,sans-Serif" font-size="10.00">mxf4</text>
</a>
</g>
</g>
<!-- Node13&#45;&gt;Node32 -->
<g id="edge31" class="edge"><title>Node13&#45;&gt;Node32</title>
<path fill="none" stroke="midnightblue" d="M247.301,-475.47C248.914,-438.635 259.06,-303.443 322,-219 323.039,-217.607 324.212,-216.29 325.478,-215.05"/>
<polygon fill="midnightblue" stroke="midnightblue" points="327.751,-217.715 333.449,-208.783 323.425,-212.212 327.751,-217.715"/>
</g>
<!-- Node33 -->
<g id="node33" class="node"><title>Node33</title>
<g id="a_node33"><a xlink:href="mxm__std_8F90.html#a5a6d5c31350c601ba8327b75a72cba0a" target="_top" xlink:title="mxf5">
<polygon fill="white" stroke="black" points="333.5,-152.5 333.5,-171.5 372.5,-171.5 372.5,-152.5 333.5,-152.5"/>
<text text-anchor="middle" x="353" y="-159.5" font-family="Helvetica,sans-Serif" font-size="10.00">mxf5</text>
</a>
</g>
</g>
<!-- Node13&#45;&gt;Node33 -->
<g id="edge32" class="edge"><title>Node13&#45;&gt;Node33</title>
<path fill="none" stroke="midnightblue" d="M246.886,-475.249C246.889,-434.92 251.642,-278.713 322,-181 323.015,-179.59 324.171,-178.26 325.423,-177.009"/>
<polygon fill="midnightblue" stroke="midnightblue" points="327.698,-179.672 333.356,-170.715 323.347,-174.189 327.698,-179.672"/>
</g>
<!-- Node34 -->
<g id="node34" class="node"><title>Node34</title>
<g id="a_node34"><a xlink:href="mxm__std_8F90.html#a38a142edde1e72a918d280747a319f7a" target="_top" xlink:title="mxf6">
<polygon fill="white" stroke="black" points="333.5,-114.5 333.5,-133.5 372.5,-133.5 372.5,-114.5 333.5,-114.5"/>
<text text-anchor="middle" x="353" y="-121.5" font-family="Helvetica,sans-Serif" font-size="10.00">mxf6</text>
</a>
</g>
</g>
<!-- Node13&#45;&gt;Node34 -->
<g id="edge33" class="edge"><title>Node13&#45;&gt;Node34</title>
<path fill="none" stroke="midnightblue" d="M246.551,-475.244C245.043,-431.929 244.055,-254.273 322,-143 322.997,-141.577 324.138,-140.236 325.38,-138.978"/>
<polygon fill="midnightblue" stroke="midnightblue" points="327.656,-141.64 333.282,-132.662 323.285,-136.172 327.656,-141.64"/>
</g>
<!-- Node35 -->
<g id="node35" class="node"><title>Node35</title>
<g id="a_node35"><a xlink:href="mxm__std_8F90.html#a1919ea16c0a7b4e248e45e983c29d965" target="_top" xlink:title="mxf7">
<polygon fill="white" stroke="black" points="333.5,-76.5 333.5,-95.5 372.5,-95.5 372.5,-76.5 333.5,-76.5"/>
<text text-anchor="middle" x="353" y="-83.5" font-family="Helvetica,sans-Serif" font-size="10.00">mxf7</text>
</a>
</g>
</g>
<!-- Node13&#45;&gt;Node35 -->
<g id="edge34" class="edge"><title>Node13&#45;&gt;Node35</title>
<path fill="none" stroke="midnightblue" d="M247.875,-475.33C252.808,-422.47 278.49,-168.523 322,-105 322.982,-103.566 324.111,-102.218 325.344,-100.954"/>
<polygon fill="midnightblue" stroke="midnightblue" points="327.621,-103.614 333.221,-94.6202 323.235,-98.1584 327.621,-103.614"/>
</g>
<!-- Node36 -->
<g id="node36" class="node"><title>Node36</title>
<g id="a_node36"><a xlink:href="mxm__std_8F90.html#af4bd28930a9d674bbcad09ad75fa81ef" target="_top" xlink:title="mxf8">
<polygon fill="white" stroke="black" points="333.5,-38.5 333.5,-57.5 372.5,-57.5 372.5,-38.5 333.5,-38.5"/>
<text text-anchor="middle" x="353" y="-45.5" font-family="Helvetica,sans-Serif" font-size="10.00">mxf8</text>
</a>
</g>
</g>
<!-- Node13&#45;&gt;Node36 -->
<g id="edge35" class="edge"><title>Node13&#45;&gt;Node36</title>
<path fill="none" stroke="midnightblue" d="M247.673,-475.483C251.753,-419.922 274.592,-137.518 322,-67 322.993,-65.5227 324.144,-64.1369 325.404,-62.8408"/>
<polygon fill="midnightblue" stroke="midnightblue" points="327.856,-65.3621 333.483,-56.3853 323.486,-59.8935 327.856,-65.3621"/>
</g>
<!-- Node37 -->
<g id="node37" class="node"><title>Node37</title>
<g id="a_node37"><a xlink:href="mxm__std_8F90.html#a8ab38e8d33e92444b748159b82759c27" target="_top" xlink:title="mxf9">
<polygon fill="white" stroke="black" points="333.5,-0.5 333.5,-19.5 372.5,-19.5 372.5,-0.5 333.5,-0.5"/>
<text text-anchor="middle" x="353" y="-7.5" font-family="Helvetica,sans-Serif" font-size="10.00">mxf9</text>
</a>
</g>
</g>
<!-- Node13&#45;&gt;Node37 -->
<g id="edge36" class="edge"><title>Node13&#45;&gt;Node37</title>
<path fill="none" stroke="midnightblue" d="M247.521,-475.398C250.859,-416.718 270.749,-106.443 322,-29 322.982,-27.5155 324.125,-26.1241 325.379,-24.8238"/>
<polygon fill="midnightblue" stroke="midnightblue" points="327.83,-27.3444 333.441,-18.3571 323.45,-21.8841 327.83,-27.3444"/>
</g>
</g>
</svg>
        <g id="navigator" transform="translate(0 0)" fill="#404254">
                <rect fill="#f2f5e9" fill-opacity="0.5" stroke="#606060" stroke-width=".5" x="0" y="0" width="60" height="60"/>
                <use id="zoomplus" xlink:href="#zoomPlus" x="17" y="9" onmousedown="handleZoom(evt,'in')"/>
                <use id="zoomminus" xlink:href="#zoomMin" x="42" y="9" onmousedown="handleZoom(evt,'out')"/>
                <use id="reset" xlink:href="#resetDef" x="30" y="36" onmousedown="handleReset()"/>
                <g id="arrowUp" xlink:href="#dirArrow" transform="translate(30 24)" onmousedown="handlePan(0,-1)">
                  <use xlink:href="#rim" fill="#404040">
                        <set attributeName="fill" to="#808080" begin="arrowUp.mouseover" end="arrowUp.mouseout"/>
                  </use>
                  <path fill="none" stroke="white" stroke-width="1.5" d="M0,-3.0v7 M-2.5,-0.5L0,-3.0L2.5,-0.5"/>
                </g>
                <g id="arrowRight" xlink:href="#dirArrow" transform="rotate(90) translate(36 -43)" onmousedown="handlePan(1,0)">
                  <use xlink:href="#rim" fill="#404040">
                        <set attributeName="fill" to="#808080" begin="arrowRight.mouseover" end="arrowRight.mouseout"/>
                  </use>
                  <path fill="none" stroke="white" stroke-width="1.5" d="M0,-3.0v7 M-2.5,-0.5L0,-3.0L2.5,-0.5"/>
                </g>
                <g id="arrowDown" xlink:href="#dirArrow" transform="rotate(180) translate(-30 -48)" onmousedown="handlePan(0,1)">
                  <use xlink:href="#rim" fill="#404040">
                        <set attributeName="fill" to="#808080" begin="arrowDown.mouseover" end="arrowDown.mouseout"/>
                  </use>
                  <path fill="none" stroke="white" stroke-width="1.5" d="M0,-3.0v7 M-2.5,-0.5L0,-3.0L2.5,-0.5"/>
                </g>
                <g id="arrowLeft" xlink:href="#dirArrow" transform="rotate(270) translate(-36 17)" onmousedown="handlePan(-1,0)">
                  <use xlink:href="#rim" fill="#404040">
                        <set attributeName="fill" to="#808080" begin="arrowLeft.mouseover" end="arrowLeft.mouseout"/>
                  </use>
                  <path fill="none" stroke="white" stroke-width="1.5" d="M0,-3.0v7 M-2.5,-0.5L0,-3.0L2.5,-0.5"/>
                </g>
        </g>
        <svg viewBox="0 0 15 15" width="100%" height="30px" preserveAspectRatio="xMaxYMin meet">
         <g id="arrow_out" transform="scale(0.3 0.3)">
          <a xlink:href="navier1_8F90_a0411bdb65f6b5cb057603cea2b6b963e_cgraph_org.svg" target="_base">
           <rect id="button" ry="5" rx="5" y="6" x="6" height="38" width="38"
                fill="#f2f5e9" fill-opacity="0.5" stroke="#606060" stroke-width="1.0"/>
           <path id="arrow"
             d="M 11.500037,31.436501 C 11.940474,20.09759 22.043105,11.32322 32.158766,21.979434 L 37.068811,17.246167 C 37.068811,17.246167 37.088388,32 37.088388,32 L 22.160133,31.978069 C 22.160133,31.978069 26.997745,27.140456 26.997745,27.140456 C 18.528582,18.264221 13.291696,25.230495 11.500037,31.436501 z"
             style="fill:#404040;"/>
          </a>
         </g>
        </svg>
</svg>
