<?xml version="1.0" encoding="UTF-8" standalone="no"?>
<!DOCTYPE svg PUBLIC "-//W3C//DTD SVG 1.1//EN"
 "http://www.w3.org/Graphics/SVG/1.1/DTD/svg11.dtd">
<!-- Generated by graphviz version 2.38.0 (20140413.2041)
 -->
<!-- Title: convop Pages: 1 -->
<svg width="837pt" height="66pt"
 viewBox="0.00 0.00 837.00 66.00" xmlns="http://www.w3.org/2000/svg" xmlns:xlink="http://www.w3.org/1999/xlink">
<g id="graph0" class="graph" transform="scale(1 1) rotate(0) translate(4 62)">
<title>convop</title>
<polygon fill="white" stroke="none" points="-4,4 -4,-62 833,-62 833,4 -4,4"/>
<!-- Node1 -->
<g id="node1" class="node"><title>Node1</title>
<polygon fill="#bfbfbf" stroke="black" points="0,-19.5 0,-38.5 51,-38.5 51,-19.5 0,-19.5"/>
<text text-anchor="middle" x="25.5" y="-26.5" font-family="Helvetica,sans-Serif" font-size="10.00">convop</text>
</g>
<!-- Node2 -->
<g id="node2" class="node"><title>Node2</title>
<g id="a_node2"><a xlink:href="navier1_8F90.html#a340322c02acf88d19d4d5ffea79154ac" target="_top" xlink:title="Eulerian scheme, add convection term to forcing function at current time step. ">
<polygon fill="white" stroke="black" points="89.5,-38.5 89.5,-57.5 134.5,-57.5 134.5,-38.5 89.5,-38.5"/>
<text text-anchor="middle" x="112" y="-45.5" font-family="Helvetica,sans-Serif" font-size="10.00">advab</text>
</a>
</g>
</g>
<!-- Node1&#45;&gt;Node2 -->
<g id="edge1" class="edge"><title>Node1&#45;&gt;Node2</title>
<path fill="none" stroke="midnightblue" d="M61.4064,-36.8488C70.9038,-38.9843 80.912,-41.2346 89.4311,-43.1502"/>
<polygon fill="midnightblue" stroke="midnightblue" points="61.92,-33.3769 51.3958,-34.5979 60.3843,-40.2064 61.92,-33.3769"/>
</g>
<!-- Node10 -->
<g id="node10" class="node"><title>Node10</title>
<g id="a_node10"><a xlink:href="conduct_8F90.html#af2b8d8c53a101a9edd117d1a78a08069" target="_top" xlink:title="Eulerian scheme, add convection term to forcing function at current time step. ">
<polygon fill="white" stroke="black" points="87,-0.5 87,-19.5 137,-19.5 137,-0.5 87,-0.5"/>
<text text-anchor="middle" x="112" y="-7.5" font-family="Helvetica,sans-Serif" font-size="10.00">convab</text>
</a>
</g>
</g>
<!-- Node1&#45;&gt;Node10 -->
<g id="edge9" class="edge"><title>Node1&#45;&gt;Node10</title>
<path fill="none" stroke="midnightblue" d="M61.2207,-21.193C69.8352,-19.256 78.8813,-17.2219 86.8635,-15.4272"/>
<polygon fill="midnightblue" stroke="midnightblue" points="60.3843,-17.7936 51.3958,-23.4021 61.92,-24.6231 60.3843,-17.7936"/>
</g>
<!-- Node3 -->
<g id="node3" class="node"><title>Node3</title>
<g id="a_node3"><a xlink:href="navier1_8F90.html#a83189b3d1938d87f00ace2e7e05d9e4c" target="_top" xlink:title="Compute and add: (1) user specified forcing function (FX,FY,FZ) (2) driving force due to natural conv...">
<polygon fill="white" stroke="black" points="174.5,-38.5 174.5,-57.5 219.5,-57.5 219.5,-38.5 174.5,-38.5"/>
<text text-anchor="middle" x="197" y="-45.5" font-family="Helvetica,sans-Serif" font-size="10.00">makef</text>
</a>
</g>
</g>
<!-- Node2&#45;&gt;Node3 -->
<g id="edge2" class="edge"><title>Node2&#45;&gt;Node3</title>
<path fill="none" stroke="midnightblue" d="M145.043,-48C154.848,-48 165.397,-48 174.338,-48"/>
<polygon fill="midnightblue" stroke="midnightblue" points="144.807,-44.5001 134.807,-48 144.807,-51.5001 144.807,-44.5001"/>
</g>
<!-- Node4 -->
<g id="node4" class="node"><title>Node4</title>
<g id="a_node4"><a xlink:href="plan4_8F90.html#a5cbf852b67e73bfa44e028338c4d57ad" target="_top" xlink:title="Splitting scheme . ">
<polygon fill="white" stroke="black" points="259,-38.5 259,-57.5 302,-57.5 302,-38.5 259,-38.5"/>
<text text-anchor="middle" x="280.5" y="-45.5" font-family="Helvetica,sans-Serif" font-size="10.00">plan4</text>
</a>
</g>
</g>
<!-- Node3&#45;&gt;Node4 -->
<g id="edge3" class="edge"><title>Node3&#45;&gt;Node4</title>
<path fill="none" stroke="midnightblue" d="M229.951,-48C239.622,-48 249.986,-48 258.723,-48"/>
<polygon fill="midnightblue" stroke="midnightblue" points="229.841,-44.5001 219.841,-48 229.84,-51.5001 229.841,-44.5001"/>
</g>
<!-- Node5 -->
<g id="node5" class="node"><title>Node5</title>
<g id="a_node5"><a xlink:href="drive2_8F90.html#ab0aeca9ad3db8be87a01ba29d069d71e" target="_top" xlink:title="Driver for solving the incompressible Navier&#45;Stokes equations. ">
<polygon fill="white" stroke="black" points="341.5,-38.5 341.5,-57.5 376.5,-57.5 376.5,-38.5 341.5,-38.5"/>
<text text-anchor="middle" x="359" y="-45.5" font-family="Helvetica,sans-Serif" font-size="10.00">fluid</text>
</a>
</g>
</g>
<!-- Node4&#45;&gt;Node5 -->
<g id="edge4" class="edge"><title>Node4&#45;&gt;Node5</title>
<path fill="none" stroke="midnightblue" d="M312.262,-48C322.086,-48 332.596,-48 341.061,-48"/>
<polygon fill="midnightblue" stroke="midnightblue" points="312.001,-44.5001 302.001,-48 312.001,-51.5001 312.001,-44.5001"/>
</g>
<!-- Node6 -->
<g id="node6" class="node"><title>Node6</title>
<g id="a_node6"><a xlink:href="drive1_8F90.html#ae177ea7efac97f35241521b782a671c0" target="_top" xlink:title="take a single time&#45;step ">
<polygon fill="white" stroke="black" points="414,-19.5 414,-38.5 494,-38.5 494,-19.5 414,-19.5"/>
<text text-anchor="middle" x="454" y="-26.5" font-family="Helvetica,sans-Serif" font-size="10.00">nek_advance</text>
</a>
</g>
</g>
<!-- Node5&#45;&gt;Node6 -->
<g id="edge5" class="edge"><title>Node5&#45;&gt;Node6</title>
<path fill="none" stroke="midnightblue" d="M386.635,-42.5585C395.077,-40.8338 404.594,-38.8894 413.73,-37.0229"/>
<polygon fill="midnightblue" stroke="midnightblue" points="385.724,-39.1723 376.627,-44.6032 387.125,-46.0306 385.724,-39.1723"/>
</g>
<!-- Node7 -->
<g id="node7" class="node"><title>Node7</title>
<g id="a_node7"><a xlink:href="drive1_8F90.html#a18d3e839786263fc4cf91f7eeb714371" target="_top" xlink:title="take a chunk of time&#45;steps ">
<polygon fill="white" stroke="black" points="530,-19.5 530,-38.5 643,-38.5 643,-19.5 530,-19.5"/>
<text text-anchor="middle" x="586.5" y="-26.5" font-family="Helvetica,sans-Serif" font-size="10.00">nek__multi_advance</text>
</a>
</g>
</g>
<!-- Node6&#45;&gt;Node7 -->
<g id="edge6" class="edge"><title>Node6&#45;&gt;Node7</title>
<path fill="none" stroke="midnightblue" d="M504.191,-29C512.607,-29 521.403,-29 529.97,-29"/>
<polygon fill="midnightblue" stroke="midnightblue" points="504.154,-25.5001 494.154,-29 504.154,-32.5001 504.154,-25.5001"/>
</g>
<!-- Node8 -->
<g id="node8" class="node"><title>Node8</title>
<g id="a_node8"><a xlink:href="drive1_8F90.html#a6ad57e0cf728f343e371ef8c9a02cd8a" target="_top" xlink:title="integrate the governing equations in time ">
<polygon fill="white" stroke="black" points="679,-19.5 679,-38.5 744,-38.5 744,-19.5 679,-19.5"/>
<text text-anchor="middle" x="711.5" y="-26.5" font-family="Helvetica,sans-Serif" font-size="10.00">nek_solve</text>
</a>
</g>
</g>
<!-- Node7&#45;&gt;Node8 -->
<g id="edge7" class="edge"><title>Node7&#45;&gt;Node8</title>
<path fill="none" stroke="midnightblue" d="M653.282,-29C662.164,-29 670.927,-29 678.824,-29"/>
<polygon fill="midnightblue" stroke="midnightblue" points="653.242,-25.5001 643.242,-29 653.242,-32.5001 653.242,-25.5001"/>
</g>
<!-- Node9 -->
<g id="node9" class="node"><title>Node9</title>
<g id="a_node9"><a xlink:href="drive_8F90.html#a13048bf28dd0734640412d69349e3857" target="_top" xlink:title="NEK5000: Spectral Element Computational Fluid Dynamics Solver COPYRIGHT (c) 2008&#45;2010 UCHICAGO ARGONN...">
<polygon fill="white" stroke="black" points="780,-19.5 780,-38.5 829,-38.5 829,-19.5 780,-19.5"/>
<text text-anchor="middle" x="804.5" y="-26.5" font-family="Helvetica,sans-Serif" font-size="10.00">nekton</text>
</a>
</g>
</g>
<!-- Node8&#45;&gt;Node9 -->
<g id="edge8" class="edge"><title>Node8&#45;&gt;Node9</title>
<path fill="none" stroke="midnightblue" d="M754.192,-29C762.953,-29 771.905,-29 779.734,-29"/>
<polygon fill="midnightblue" stroke="midnightblue" points="754.072,-25.5001 744.072,-29 754.072,-32.5001 754.072,-25.5001"/>
</g>
<!-- Node11 -->
<g id="node11" class="node"><title>Node11</title>
<g id="a_node11"><a xlink:href="makeq_8F90.html#ad52d9adde8f010af2d0a8c1a55543eeb" target="_top" xlink:title="Generate forcing function for the solution of a passive scalar. !! NOTE: Do not change the content of...">
<polygon fill="white" stroke="black" points="173,-0.5 173,-19.5 221,-19.5 221,-0.5 173,-0.5"/>
<text text-anchor="middle" x="197" y="-7.5" font-family="Helvetica,sans-Serif" font-size="10.00">makeq</text>
</a>
</g>
</g>
<!-- Node10&#45;&gt;Node11 -->
<g id="edge10" class="edge"><title>Node10&#45;&gt;Node11</title>
<path fill="none" stroke="midnightblue" d="M147.231,-10C155.876,-10 164.955,-10 172.904,-10"/>
<polygon fill="midnightblue" stroke="midnightblue" points="147.007,-6.5001 137.007,-10 147.007,-13.5001 147.007,-6.5001"/>
</g>
<!-- Node12 -->
<g id="node12" class="node"><title>Node12</title>
<g id="a_node12"><a xlink:href="conduct_8F90.html#a74a7f053381975ed36df8ea959f3aa01" target="_top" xlink:title="Solve the convection&#45;diffusion equation for passive scalar IPSCAL. ">
<polygon fill="white" stroke="black" points="257,-0.5 257,-19.5 304,-19.5 304,-0.5 257,-0.5"/>
<text text-anchor="middle" x="280.5" y="-7.5" font-family="Helvetica,sans-Serif" font-size="10.00">cdscal</text>
</a>
</g>
</g>
<!-- Node11&#45;&gt;Node12 -->
<g id="edge11" class="edge"><title>Node11&#45;&gt;Node12</title>
<path fill="none" stroke="midnightblue" d="M231.293,-10C239.894,-10 248.954,-10 256.869,-10"/>
<polygon fill="midnightblue" stroke="midnightblue" points="231.137,-6.5001 221.137,-10 231.137,-13.5001 231.137,-6.5001"/>
</g>
<!-- Node13 -->
<g id="node13" class="node"><title>Node13</title>
<g id="a_node13"><a xlink:href="drive2_8F90.html#acce80cd37f20e9b52729eb52d86a9c86" target="_top" xlink:title="Driver for temperature or passive scalar. ">
<polygon fill="white" stroke="black" points="340,-0.5 340,-19.5 378,-19.5 378,-0.5 340,-0.5"/>
<text text-anchor="middle" x="359" y="-7.5" font-family="Helvetica,sans-Serif" font-size="10.00">heat</text>
</a>
</g>
</g>
<!-- Node12&#45;&gt;Node13 -->
<g id="edge12" class="edge"><title>Node12&#45;&gt;Node13</title>
<path fill="none" stroke="midnightblue" d="M314.131,-10C322.988,-10 332.256,-10 339.98,-10"/>
<polygon fill="midnightblue" stroke="midnightblue" points="314.039,-6.5001 304.039,-10 314.039,-13.5001 314.039,-6.5001"/>
</g>
<!-- Node13&#45;&gt;Node6 -->
<g id="edge13" class="edge"><title>Node13&#45;&gt;Node6</title>
<path fill="none" stroke="midnightblue" d="M388.362,-15.7945C396.415,-17.4396 405.328,-19.2605 413.897,-21.0111"/>
<polygon fill="midnightblue" stroke="midnightblue" points="388.872,-12.3264 378.374,-13.7538 387.471,-19.1847 388.872,-12.3264"/>
</g>
</g>
</svg>
