<?xml version="1.0" encoding="UTF-8" standalone="no"?>
<!DOCTYPE svg PUBLIC "-//W3C//DTD SVG 1.1//EN"
 "http://www.w3.org/Graphics/SVG/1.1/DTD/svg11.dtd">
<!-- Generated by graphviz version 2.38.0 (20140413.2041)
 -->
<!-- Title: irank Pages: 1 -->
<svg width="944pt" height="142pt"
 viewBox="0.00 0.00 944.00 142.41" xmlns="http://www.w3.org/2000/svg" xmlns:xlink="http://www.w3.org/1999/xlink">
<g id="graph0" class="graph" transform="scale(1 1) rotate(0) translate(4 138.405)">
<title>irank</title>
<polygon fill="white" stroke="none" points="-4,4 -4,-138.405 940,-138.405 940,4 -4,4"/>
<!-- Node1 -->
<g id="node1" class="node"><title>Node1</title>
<polygon fill="#bfbfbf" stroke="black" points="0,-34.0367 0,-53.0367 40,-53.0367 40,-34.0367 0,-34.0367"/>
<text text-anchor="middle" x="20" y="-41.0367" font-family="Helvetica,sans-Serif" font-size="10.00">irank</text>
</g>
<!-- Node2 -->
<g id="node2" class="node"><title>Node2</title>
<g id="a_node2"><a xlink:href="navier8_8F90.html#a928aff746415692c89ffdfbaf08fd98d" target="_top" xlink:title="setup unique ids for dssum. note: total number of unique vertices, edges and faces has to be smaller ...">
<polygon fill="white" stroke="black" points="76,-34.0367 76,-53.0367 137,-53.0367 137,-34.0367 76,-34.0367"/>
<text text-anchor="middle" x="106.5" y="-41.0367" font-family="Helvetica,sans-Serif" font-size="10.00">setvert3d</text>
</a>
</g>
</g>
<!-- Node1&#45;&gt;Node2 -->
<g id="edge1" class="edge"><title>Node1&#45;&gt;Node2</title>
<path fill="none" stroke="midnightblue" d="M50.4361,-43.5367C58.6447,-43.5367 67.566,-43.5367 75.7902,-43.5367"/>
<polygon fill="midnightblue" stroke="midnightblue" points="50.1744,-40.0368 40.1744,-43.5367 50.1743,-47.0368 50.1744,-40.0368"/>
</g>
<!-- Node3 -->
<g id="node3" class="node"><title>Node3</title>
<g id="a_node3"><a xlink:href="navier8_8F90.html#a51b2c2d951e069b7ffa9a395b2def117" target="_top" xlink:title="Given global array, vertex, pointing to hex vertices, set up a new array of global pointers for an nx...">
<polygon fill="white" stroke="black" points="173,-34.0367 173,-53.0367 228,-53.0367 228,-34.0367 173,-34.0367"/>
<text text-anchor="middle" x="200.5" y="-41.0367" font-family="Helvetica,sans-Serif" font-size="10.00">set_vert</text>
</a>
</g>
</g>
<!-- Node2&#45;&gt;Node3 -->
<g id="edge2" class="edge"><title>Node2&#45;&gt;Node3</title>
<path fill="none" stroke="midnightblue" d="M147.355,-43.5367C155.934,-43.5367 164.804,-43.5367 172.741,-43.5367"/>
<polygon fill="midnightblue" stroke="midnightblue" points="147.116,-40.0368 137.116,-43.5367 147.116,-47.0368 147.116,-40.0368"/>
</g>
<!-- Node4 -->
<g id="node4" class="node"><title>Node4</title>
<g id="a_node4"><a xlink:href="dssum_8F90.html#ac67af3a4cc3a2c90a8d596c8ab69e395" target="_top" xlink:title="setup data structures for direct stiffness operations ">
<polygon fill="white" stroke="black" points="280.5,-55.0367 280.5,-74.0367 333.5,-74.0367 333.5,-55.0367 280.5,-55.0367"/>
<text text-anchor="middle" x="307" y="-62.0367" font-family="Helvetica,sans-Serif" font-size="10.00">setupds</text>
</a>
</g>
</g>
<!-- Node3&#45;&gt;Node4 -->
<g id="edge3" class="edge"><title>Node3&#45;&gt;Node4</title>
<path fill="none" stroke="midnightblue" d="M237.992,-50.87C252.017,-53.6885 267.713,-56.8428 280.49,-59.4103"/>
<polygon fill="midnightblue" stroke="midnightblue" points="238.634,-47.4291 228.14,-48.8903 237.255,-54.2919 238.634,-47.4291"/>
</g>
<!-- Node13 -->
<g id="node13" class="node"><title>Node13</title>
<g id="a_node13"><a xlink:href="navier8_8F90.html#a809b9aa647f2046d09131be2f6074ff6" target="_top" xlink:title="? ">
<polygon fill="white" stroke="black" points="264,-14.0367 264,-33.0367 350,-33.0367 350,-14.0367 264,-14.0367"/>
<text text-anchor="middle" x="307" y="-21.0367" font-family="Helvetica,sans-Serif" font-size="10.00">set_up_h1_crs</text>
</a>
</g>
</g>
<!-- Node3&#45;&gt;Node13 -->
<g id="edge14" class="edge"><title>Node3&#45;&gt;Node13</title>
<path fill="none" stroke="midnightblue" d="M238.007,-36.5498C246.393,-34.9448 255.375,-33.2257 263.973,-31.5801"/>
<polygon fill="midnightblue" stroke="midnightblue" points="237.304,-33.1207 228.14,-38.4382 238.62,-39.9959 237.304,-33.1207"/>
</g>
<!-- Node5 -->
<g id="node5" class="node"><title>Node5</title>
<g id="a_node5"><a xlink:href="classhsmg__routines.html#ae77d2725d2058f12595e58c677dca8f2" target="_top" xlink:title="hsmg_routines::h1mg\l_setup_dssum">
<polygon fill="white" stroke="black" points="386,-74.5367 386,-104.537 502,-104.537 502,-74.5367 386,-74.5367"/>
<text text-anchor="start" x="394" y="-92.5367" font-family="Helvetica,sans-Serif" font-size="10.00">hsmg_routines::h1mg</text>
<text text-anchor="middle" x="444" y="-81.5367" font-family="Helvetica,sans-Serif" font-size="10.00">_setup_dssum</text>
</a>
</g>
</g>
<!-- Node4&#45;&gt;Node5 -->
<g id="edge4" class="edge"><title>Node4&#45;&gt;Node5</title>
<path fill="none" stroke="midnightblue" d="M343.59,-71.1275C356.514,-73.5209 371.466,-76.2897 385.785,-78.9414"/>
<polygon fill="midnightblue" stroke="midnightblue" points="344.18,-67.6774 333.71,-69.2979 342.906,-74.5604 344.18,-67.6774"/>
</g>
<!-- Node10 -->
<g id="node10" class="node"><title>Node10</title>
<g id="a_node10"><a xlink:href="classhsmg__routines.html#ac8ad367a9256351c66da876bb6c8d936" target="_top" xlink:title="hsmg_routines::hsmg\l_setup_dssum">
<polygon fill="white" stroke="black" points="386,-25.5367 386,-55.5367 502,-55.5367 502,-25.5367 386,-25.5367"/>
<text text-anchor="start" x="394" y="-43.5367" font-family="Helvetica,sans-Serif" font-size="10.00">hsmg_routines::hsmg</text>
<text text-anchor="middle" x="444" y="-32.5367" font-family="Helvetica,sans-Serif" font-size="10.00">_setup_dssum</text>
</a>
</g>
</g>
<!-- Node4&#45;&gt;Node10 -->
<g id="edge9" class="edge"><title>Node4&#45;&gt;Node10</title>
<path fill="none" stroke="midnightblue" d="M343.59,-58.2097C356.514,-55.912 371.466,-53.2539 385.785,-50.7082"/>
<polygon fill="midnightblue" stroke="midnightblue" points="342.943,-54.7697 333.71,-59.966 344.169,-61.6616 342.943,-54.7697"/>
</g>
<!-- Node12 -->
<g id="node12" class="node"><title>Node12</title>
<g id="a_node12"><a xlink:href="connect1_8F90.html#ad619b0e5766c6f9dd44ae5c8b6f485f0" target="_top" xlink:title="Parallel compatible routine to find connectivity of element structure. On Processor 0: ...">
<polygon fill="white" stroke="black" points="691.5,-110.037 691.5,-129.037 760.5,-129.037 760.5,-110.037 691.5,-110.037"/>
<text text-anchor="middle" x="726" y="-117.037" font-family="Helvetica,sans-Serif" font-size="10.00">setup_topo</text>
</a>
</g>
</g>
<!-- Node4&#45;&gt;Node12 -->
<g id="edge12" class="edge"><title>Node4&#45;&gt;Node12</title>
<path fill="none" stroke="midnightblue" d="M327.12,-80.7474C342.074,-92.329 363.962,-106.977 386,-113.537 493.757,-145.611 629.427,-133.164 691.375,-124.776"/>
<polygon fill="midnightblue" stroke="midnightblue" points="329.158,-77.895 319.167,-74.3669 324.777,-83.3549 329.158,-77.895"/>
</g>
<!-- Node6 -->
<g id="node6" class="node"><title>Node6</title>
<g id="a_node6"><a xlink:href="classhsmg__routines.html#a91e8aa59d56bbf05d75aa9c48bcd8977" target="_top" xlink:title="Sets up Poisson preconditioner. ">
<polygon fill="white" stroke="black" points="538,-74.5367 538,-104.537 654,-104.537 654,-74.5367 538,-74.5367"/>
<text text-anchor="start" x="546" y="-92.5367" font-family="Helvetica,sans-Serif" font-size="10.00">hsmg_routines::h1mg</text>
<text text-anchor="middle" x="596" y="-81.5367" font-family="Helvetica,sans-Serif" font-size="10.00">_setup</text>
</a>
</g>
</g>
<!-- Node5&#45;&gt;Node6 -->
<g id="edge5" class="edge"><title>Node5&#45;&gt;Node6</title>
<path fill="none" stroke="midnightblue" d="M512.311,-89.5367C520.728,-89.5367 529.277,-89.5367 537.525,-89.5367"/>
<polygon fill="midnightblue" stroke="midnightblue" points="512.137,-86.0368 502.136,-89.5367 512.136,-93.0368 512.137,-86.0368"/>
</g>
<!-- Node7 -->
<g id="node7" class="node"><title>Node7</title>
<g id="a_node7"><a xlink:href="navier6_8F90.html#a45317b1def173b8f1db2e5083595d095" target="_top" xlink:title="Set up arrays for overlapping Schwartz algorithm for pressure solver ">
<polygon fill="white" stroke="black" points="690,-45.0367 690,-64.0367 762,-64.0367 762,-45.0367 690,-45.0367"/>
<text text-anchor="middle" x="726" y="-52.0367" font-family="Helvetica,sans-Serif" font-size="10.00">set_overlap</text>
</a>
</g>
</g>
<!-- Node6&#45;&gt;Node7 -->
<g id="edge6" class="edge"><title>Node6&#45;&gt;Node7</title>
<path fill="none" stroke="midnightblue" d="M661.741,-71.8341C671.482,-69.1706 681.2,-66.5134 689.992,-64.1093"/>
<polygon fill="midnightblue" stroke="midnightblue" points="660.749,-68.4768 652.026,-74.4905 662.595,-75.2289 660.749,-68.4768"/>
</g>
<!-- Node8 -->
<g id="node8" class="node"><title>Node8</title>
<g id="a_node8"><a xlink:href="drive1_8F90.html#a87bd37ae2c18426f28f35cc3f24e4355" target="_top" xlink:title="initialize nek ">
<polygon fill="white" stroke="black" points="798,-77.0367 798,-96.0367 851,-96.0367 851,-77.0367 798,-77.0367"/>
<text text-anchor="middle" x="824.5" y="-84.0367" font-family="Helvetica,sans-Serif" font-size="10.00">nek_init</text>
</a>
</g>
</g>
<!-- Node7&#45;&gt;Node8 -->
<g id="edge7" class="edge"><title>Node7&#45;&gt;Node8</title>
<path fill="none" stroke="midnightblue" d="M765.396,-67.2691C776.248,-70.8676 787.794,-74.6965 797.711,-77.985"/>
<polygon fill="midnightblue" stroke="midnightblue" points="766.285,-63.8766 755.692,-64.0512 764.082,-70.5209 766.285,-63.8766"/>
</g>
<!-- Node9 -->
<g id="node9" class="node"><title>Node9</title>
<g id="a_node9"><a xlink:href="drive_8F90.html#a13048bf28dd0734640412d69349e3857" target="_top" xlink:title="NEK5000: Spectral Element Computational Fluid Dynamics Solver COPYRIGHT (c) 2008&#45;2010 UCHICAGO ARGONN...">
<polygon fill="white" stroke="black" points="887,-77.0367 887,-96.0367 936,-96.0367 936,-77.0367 887,-77.0367"/>
<text text-anchor="middle" x="911.5" y="-84.0367" font-family="Helvetica,sans-Serif" font-size="10.00">nekton</text>
</a>
</g>
</g>
<!-- Node8&#45;&gt;Node9 -->
<g id="edge8" class="edge"><title>Node8&#45;&gt;Node9</title>
<path fill="none" stroke="midnightblue" d="M861.227,-86.5367C869.846,-86.5367 878.845,-86.5367 886.759,-86.5367"/>
<polygon fill="midnightblue" stroke="midnightblue" points="861.003,-83.0368 851.003,-86.5367 861.003,-90.0368 861.003,-83.0368"/>
</g>
<!-- Node11 -->
<g id="node11" class="node"><title>Node11</title>
<g id="a_node11"><a xlink:href="classhsmg__routines.html#ac8f9bca9624d5e550d70acabfa8aef73" target="_top" xlink:title="Sets up hybrid Schwarz multi&#45;grid preconditioner. ">
<polygon fill="white" stroke="black" points="538,-25.5367 538,-55.5367 654,-55.5367 654,-25.5367 538,-25.5367"/>
<text text-anchor="start" x="546" y="-43.5367" font-family="Helvetica,sans-Serif" font-size="10.00">hsmg_routines::hsmg</text>
<text text-anchor="middle" x="596" y="-32.5367" font-family="Helvetica,sans-Serif" font-size="10.00">_setup</text>
</a>
</g>
</g>
<!-- Node10&#45;&gt;Node11 -->
<g id="edge10" class="edge"><title>Node10&#45;&gt;Node11</title>
<path fill="none" stroke="midnightblue" d="M512.311,-40.5367C520.728,-40.5367 529.277,-40.5367 537.525,-40.5367"/>
<polygon fill="midnightblue" stroke="midnightblue" points="512.137,-37.0368 502.136,-40.5367 512.136,-44.0368 512.137,-37.0368"/>
</g>
<!-- Node11&#45;&gt;Node7 -->
<g id="edge11" class="edge"><title>Node11&#45;&gt;Node7</title>
<path fill="none" stroke="midnightblue" d="M664.236,-47.8907C673.072,-48.8571 681.825,-49.8145 689.82,-50.6889"/>
<polygon fill="midnightblue" stroke="midnightblue" points="664.582,-44.4078 654.261,-46.7997 663.821,-51.3663 664.582,-44.4078"/>
</g>
<!-- Node12&#45;&gt;Node8 -->
<g id="edge13" class="edge"><title>Node12&#45;&gt;Node8</title>
<path fill="none" stroke="midnightblue" d="M764.484,-106.719C775.689,-102.887 787.71,-98.7757 797.96,-95.2705"/>
<polygon fill="midnightblue" stroke="midnightblue" points="763.241,-103.444 754.912,-109.992 765.506,-110.068 763.241,-103.444"/>
</g>
<!-- Node13&#45;&gt;Node7 -->
<g id="edge15" class="edge"><title>Node13&#45;&gt;Node7</title>
<path fill="none" stroke="midnightblue" d="M360.229,-13.6602C428.852,-2.63298 552.555,10.4908 654,-15.5367 676.068,-21.1988 698.638,-35.3124 712.238,-44.9137"/>
<polygon fill="midnightblue" stroke="midnightblue" points="359.4,-10.2496 350.107,-15.3362 360.544,-17.1556 359.4,-10.2496"/>
</g>
</g>
</svg>
