<?xml version="1.0" encoding="UTF-8" standalone="no"?>
<!DOCTYPE svg PUBLIC "-//W3C//DTD SVG 1.1//EN"
 "http://www.w3.org/Graphics/SVG/1.1/DTD/svg11.dtd">
<!-- Generated by graphviz version 2.38.0 (20140413.2041)
 -->
<!-- Title: local_grad3 Pages: 1 -->
<!--zoomable 104 -->
<svg id="main" version="1.1" xmlns="http://www.w3.org/2000/svg" xmlns:xlink="http://www.w3.org/1999/xlink" xml:space="preserve" onload="init(evt)">
<style type="text/css"><![CDATA[
.edge:hover path { stroke: red; }
.edge:hover polygon { stroke: red; fill: red; }
]]></style>
<script type="text/javascript"><![CDATA[
var edges = document.getElementsByTagName('g');
if (edges && edges.length) {
  for (var i=0;i<edges.length;i++) {
    if (edges[i].id.substr(0,4)=='edge') {
      edges[i].setAttribute('class','edge');
    }
  }
}
]]></script>
        <defs>
                <circle id="rim" cx="0" cy="0" r="7"/>
                <circle id="rim2" cx="0" cy="0" r="3.5"/>
                <g id="zoomPlus">
                        <use xlink:href="#rim" fill="#404040">
                                <set attributeName="fill" to="#808080" begin="zoomplus.mouseover" end="zoomplus.mouseout"/>
                        </use>
                        <path d="M-4,0h8M0,-4v8" fill="none" stroke="white" stroke-width="1.5" pointer-events="none"/>
                </g>
                <g id="zoomMin">
                        <use xlink:href="#rim" fill="#404040">
                                <set attributeName="fill" to="#808080" begin="zoomminus.mouseover" end="zoomminus.mouseout"/>
                        </use>
                        <path d="M-4,0h8" fill="none" stroke="white" stroke-width="1.5" pointer-events="none"/>
                </g>
                <g id="dirArrow">
                        <path fill="none" stroke="white" stroke-width="1.5" d="M0,-3.0v7 M-2.5,-0.5L0,-3.0L2.5,-0.5"/>
                </g>
               <g id="resetDef">
                       <use xlink:href="#rim2" fill="#404040">
                               <set attributeName="fill" to="#808080" begin="reset.mouseover" end="reset.mouseout"/>
                       </use>
               </g>
        </defs>

<script type="text/javascript">
var viewWidth = 1065;
var viewHeight = 104;
var sectionId = 'dynsection-8';
</script>
<script xlink:href="svgpan.js"/>
<svg id="graph" class="graph">
<g id="viewport">
<title>local_grad3</title>
<polygon fill="white" stroke="none" points="-4,4 -4,-100 1061,-100 1061,4 -4,4"/>
<!-- Node1 -->
<g id="node1" class="node"><title>Node1</title>
<polygon fill="#bfbfbf" stroke="black" points="0,-19.5 0,-38.5 72,-38.5 72,-19.5 0,-19.5"/>
<text text-anchor="middle" x="36" y="-26.5" font-family="Helvetica,sans-Serif" font-size="10.00">local_grad3</text>
</g>
<!-- Node2 -->
<g id="node2" class="node"><title>Node2</title>
<g id="a_node2"><a xlink:href="convect_8F90.html#aef829efeef773567be893471f50529b1" target="_top" xlink:title="Compute dealiased form: J^T Bf *JC .grad Ju w/ correct Jacobians. ">
<polygon fill="white" stroke="black" points="108,-38.5 108,-57.5 187,-57.5 187,-38.5 108,-38.5"/>
<text text-anchor="middle" x="147.5" y="-45.5" font-family="Helvetica,sans-Serif" font-size="10.00">convect_new</text>
</a>
</g>
</g>
<!-- Node1&#45;&gt;Node2 -->
<g id="edge1" class="edge"><title>Node1&#45;&gt;Node2</title>
<path fill="none" stroke="midnightblue" d="M82.1043,-36.8263C90.6713,-38.3128 99.5638,-39.8558 107.906,-41.3034"/>
<polygon fill="midnightblue" stroke="midnightblue" points="82.7004,-33.3775 72.2492,-35.1163 81.5036,-40.2745 82.7004,-33.3775"/>
</g>
<!-- Node16 -->
<g id="node16" class="node"><title>Node16</title>
<g id="a_node16"><a xlink:href="navier1_8F90.html#a6d3df5bfd9eeabae524e4da76ac13c51" target="_top" xlink:title="Compute gradient of T – mesh 1 to mesh 1 (vel. to vel.) ">
<polygon fill="white" stroke="black" points="117.5,-0.5 117.5,-19.5 177.5,-19.5 177.5,-0.5 117.5,-0.5"/>
<text text-anchor="middle" x="147.5" y="-7.5" font-family="Helvetica,sans-Serif" font-size="10.00">wgradm1</text>
</a>
</g>
</g>
<!-- Node1&#45;&gt;Node16 -->
<g id="edge16" class="edge"><title>Node1&#45;&gt;Node16</title>
<path fill="none" stroke="midnightblue" d="M82.3746,-21.1268C94.1354,-19.0861 106.491,-16.9422 117.183,-15.087"/>
<polygon fill="midnightblue" stroke="midnightblue" points="81.5036,-17.7255 72.2492,-22.8837 82.7004,-24.6225 81.5036,-17.7255"/>
</g>
<!-- Node3 -->
<g id="node3" class="node"><title>Node3</title>
<g id="a_node3"><a xlink:href="navier1_8F90.html#a38ba376801cfa958294fae8c90db7680" target="_top" xlink:title="Compute the convective term CONV for a passive scalar field FI. ">
<polygon fill="white" stroke="black" points="223,-38.5 223,-57.5 274,-57.5 274,-38.5 223,-38.5"/>
<text text-anchor="middle" x="248.5" y="-45.5" font-family="Helvetica,sans-Serif" font-size="10.00">convop</text>
</a>
</g>
</g>
<!-- Node2&#45;&gt;Node3 -->
<g id="edge2" class="edge"><title>Node2&#45;&gt;Node3</title>
<path fill="none" stroke="midnightblue" d="M197.088,-48C206.042,-48 215.034,-48 222.895,-48"/>
<polygon fill="midnightblue" stroke="midnightblue" points="197.059,-44.5001 187.059,-48 197.059,-51.5001 197.059,-44.5001"/>
</g>
<!-- Node4 -->
<g id="node4" class="node"><title>Node4</title>
<g id="a_node4"><a xlink:href="navier1_8F90.html#a340322c02acf88d19d4d5ffea79154ac" target="_top" xlink:title="Eulerian scheme, add convection term to forcing function at current time step. ">
<polygon fill="white" stroke="black" points="312.5,-38.5 312.5,-57.5 357.5,-57.5 357.5,-38.5 312.5,-38.5"/>
<text text-anchor="middle" x="335" y="-45.5" font-family="Helvetica,sans-Serif" font-size="10.00">advab</text>
</a>
</g>
</g>
<!-- Node3&#45;&gt;Node4 -->
<g id="edge3" class="edge"><title>Node3&#45;&gt;Node4</title>
<path fill="none" stroke="midnightblue" d="M284.406,-48C293.904,-48 303.912,-48 312.431,-48"/>
<polygon fill="midnightblue" stroke="midnightblue" points="284.396,-44.5001 274.396,-48 284.396,-51.5001 284.396,-44.5001"/>
</g>
<!-- Node12 -->
<g id="node12" class="node"><title>Node12</title>
<g id="a_node12"><a xlink:href="conduct_8F90.html#af2b8d8c53a101a9edd117d1a78a08069" target="_top" xlink:title="Eulerian scheme, add convection term to forcing function at current time step. ">
<polygon fill="white" stroke="black" points="310,-76.5 310,-95.5 360,-95.5 360,-76.5 310,-76.5"/>
<text text-anchor="middle" x="335" y="-83.5" font-family="Helvetica,sans-Serif" font-size="10.00">convab</text>
</a>
</g>
</g>
<!-- Node3&#45;&gt;Node12 -->
<g id="edge11" class="edge"><title>Node3&#45;&gt;Node12</title>
<path fill="none" stroke="midnightblue" d="M279.978,-61.7062C290.816,-66.5801 302.777,-71.9591 312.684,-76.4141"/>
<polygon fill="midnightblue" stroke="midnightblue" points="281.379,-58.4984 270.823,-57.589 278.508,-64.8825 281.379,-58.4984"/>
</g>
<!-- Node5 -->
<g id="node5" class="node"><title>Node5</title>
<g id="a_node5"><a xlink:href="navier1_8F90.html#a83189b3d1938d87f00ace2e7e05d9e4c" target="_top" xlink:title="Compute and add: (1) user specified forcing function (FX,FY,FZ) (2) driving force due to natural conv...">
<polygon fill="white" stroke="black" points="400,-38.5 400,-57.5 445,-57.5 445,-38.5 400,-38.5"/>
<text text-anchor="middle" x="422.5" y="-45.5" font-family="Helvetica,sans-Serif" font-size="10.00">makef</text>
</a>
</g>
</g>
<!-- Node4&#45;&gt;Node5 -->
<g id="edge4" class="edge"><title>Node4&#45;&gt;Node5</title>
<path fill="none" stroke="midnightblue" d="M367.839,-48C378.537,-48 390.212,-48 399.932,-48"/>
<polygon fill="midnightblue" stroke="midnightblue" points="367.575,-44.5001 357.575,-48 367.575,-51.5001 367.575,-44.5001"/>
</g>
<!-- Node6 -->
<g id="node6" class="node"><title>Node6</title>
<g id="a_node6"><a xlink:href="plan4_8F90.html#a5cbf852b67e73bfa44e028338c4d57ad" target="_top" xlink:title="Splitting scheme . ">
<polygon fill="white" stroke="black" points="487,-38.5 487,-57.5 530,-57.5 530,-38.5 487,-38.5"/>
<text text-anchor="middle" x="508.5" y="-45.5" font-family="Helvetica,sans-Serif" font-size="10.00">plan4</text>
</a>
</g>
</g>
<!-- Node5&#45;&gt;Node6 -->
<g id="edge5" class="edge"><title>Node5&#45;&gt;Node6</title>
<path fill="none" stroke="midnightblue" d="M455.277,-48C465.836,-48 477.312,-48 486.81,-48"/>
<polygon fill="midnightblue" stroke="midnightblue" points="455.132,-44.5001 445.132,-48 455.132,-51.5001 455.132,-44.5001"/>
</g>
<!-- Node7 -->
<g id="node7" class="node"><title>Node7</title>
<g id="a_node7"><a xlink:href="drive2_8F90.html#ab0aeca9ad3db8be87a01ba29d069d71e" target="_top" xlink:title="Driver for solving the incompressible Navier&#45;Stokes equations. ">
<polygon fill="white" stroke="black" points="569.5,-38.5 569.5,-57.5 604.5,-57.5 604.5,-38.5 569.5,-38.5"/>
<text text-anchor="middle" x="587" y="-45.5" font-family="Helvetica,sans-Serif" font-size="10.00">fluid</text>
</a>
</g>
</g>
<!-- Node6&#45;&gt;Node7 -->
<g id="edge6" class="edge"><title>Node6&#45;&gt;Node7</title>
<path fill="none" stroke="midnightblue" d="M540.262,-48C550.086,-48 560.596,-48 569.061,-48"/>
<polygon fill="midnightblue" stroke="midnightblue" points="540.001,-44.5001 530.001,-48 540.001,-51.5001 540.001,-44.5001"/>
</g>
<!-- Node8 -->
<g id="node8" class="node"><title>Node8</title>
<g id="a_node8"><a xlink:href="drive1_8F90.html#ae177ea7efac97f35241521b782a671c0" target="_top" xlink:title="take a single time&#45;step ">
<polygon fill="white" stroke="black" points="642,-57.5 642,-76.5 722,-76.5 722,-57.5 642,-57.5"/>
<text text-anchor="middle" x="682" y="-64.5" font-family="Helvetica,sans-Serif" font-size="10.00">nek_advance</text>
</a>
</g>
</g>
<!-- Node7&#45;&gt;Node8 -->
<g id="edge7" class="edge"><title>Node7&#45;&gt;Node8</title>
<path fill="none" stroke="midnightblue" d="M614.635,-53.4415C623.077,-55.1662 632.594,-57.1106 641.73,-58.9771"/>
<polygon fill="midnightblue" stroke="midnightblue" points="615.125,-49.9694 604.627,-51.3968 613.724,-56.8277 615.125,-49.9694"/>
</g>
<!-- Node9 -->
<g id="node9" class="node"><title>Node9</title>
<g id="a_node9"><a xlink:href="drive1_8F90.html#a18d3e839786263fc4cf91f7eeb714371" target="_top" xlink:title="take a chunk of time&#45;steps ">
<polygon fill="white" stroke="black" points="758,-57.5 758,-76.5 871,-76.5 871,-57.5 758,-57.5"/>
<text text-anchor="middle" x="814.5" y="-64.5" font-family="Helvetica,sans-Serif" font-size="10.00">nek__multi_advance</text>
</a>
</g>
</g>
<!-- Node8&#45;&gt;Node9 -->
<g id="edge8" class="edge"><title>Node8&#45;&gt;Node9</title>
<path fill="none" stroke="midnightblue" d="M732.191,-67C740.607,-67 749.403,-67 757.97,-67"/>
<polygon fill="midnightblue" stroke="midnightblue" points="732.154,-63.5001 722.154,-67 732.154,-70.5001 732.154,-63.5001"/>
</g>
<!-- Node10 -->
<g id="node10" class="node"><title>Node10</title>
<g id="a_node10"><a xlink:href="drive1_8F90.html#a6ad57e0cf728f343e371ef8c9a02cd8a" target="_top" xlink:title="integrate the governing equations in time ">
<polygon fill="white" stroke="black" points="907,-57.5 907,-76.5 972,-76.5 972,-57.5 907,-57.5"/>
<text text-anchor="middle" x="939.5" y="-64.5" font-family="Helvetica,sans-Serif" font-size="10.00">nek_solve</text>
</a>
</g>
</g>
<!-- Node9&#45;&gt;Node10 -->
<g id="edge9" class="edge"><title>Node9&#45;&gt;Node10</title>
<path fill="none" stroke="midnightblue" d="M881.282,-67C890.164,-67 898.927,-67 906.824,-67"/>
<polygon fill="midnightblue" stroke="midnightblue" points="881.242,-63.5001 871.242,-67 881.242,-70.5001 881.242,-63.5001"/>
</g>
<!-- Node11 -->
<g id="node11" class="node"><title>Node11</title>
<g id="a_node11"><a xlink:href="drive_8F90.html#a13048bf28dd0734640412d69349e3857" target="_top" xlink:title="NEK5000: Spectral Element Computational Fluid Dynamics Solver COPYRIGHT (c) 2008&#45;2010 UCHICAGO ARGONN...">
<polygon fill="white" stroke="black" points="1008,-57.5 1008,-76.5 1057,-76.5 1057,-57.5 1008,-57.5"/>
<text text-anchor="middle" x="1032.5" y="-64.5" font-family="Helvetica,sans-Serif" font-size="10.00">nekton</text>
</a>
</g>
</g>
<!-- Node10&#45;&gt;Node11 -->
<g id="edge10" class="edge"><title>Node10&#45;&gt;Node11</title>
<path fill="none" stroke="midnightblue" d="M982.192,-67C990.953,-67 999.905,-67 1007.73,-67"/>
<polygon fill="midnightblue" stroke="midnightblue" points="982.072,-63.5001 972.072,-67 982.072,-70.5001 982.072,-63.5001"/>
</g>
<!-- Node13 -->
<g id="node13" class="node"><title>Node13</title>
<g id="a_node13"><a xlink:href="makeq_8F90.html#ad52d9adde8f010af2d0a8c1a55543eeb" target="_top" xlink:title="Generate forcing function for the solution of a passive scalar. !! NOTE: Do not change the content of...">
<polygon fill="white" stroke="black" points="398.5,-76.5 398.5,-95.5 446.5,-95.5 446.5,-76.5 398.5,-76.5"/>
<text text-anchor="middle" x="422.5" y="-83.5" font-family="Helvetica,sans-Serif" font-size="10.00">makeq</text>
</a>
</g>
</g>
<!-- Node12&#45;&gt;Node13 -->
<g id="edge12" class="edge"><title>Node12&#45;&gt;Node13</title>
<path fill="none" stroke="midnightblue" d="M370.507,-86C379.868,-86 389.776,-86 398.345,-86"/>
<polygon fill="midnightblue" stroke="midnightblue" points="370.272,-82.5001 360.272,-86 370.272,-89.5001 370.272,-82.5001"/>
</g>
<!-- Node14 -->
<g id="node14" class="node"><title>Node14</title>
<g id="a_node14"><a xlink:href="conduct_8F90.html#a74a7f053381975ed36df8ea959f3aa01" target="_top" xlink:title="Solve the convection&#45;diffusion equation for passive scalar IPSCAL. ">
<polygon fill="white" stroke="black" points="485,-76.5 485,-95.5 532,-95.5 532,-76.5 485,-76.5"/>
<text text-anchor="middle" x="508.5" y="-83.5" font-family="Helvetica,sans-Serif" font-size="10.00">cdscal</text>
</a>
</g>
</g>
<!-- Node13&#45;&gt;Node14 -->
<g id="edge13" class="edge"><title>Node13&#45;&gt;Node14</title>
<path fill="none" stroke="midnightblue" d="M457.067,-86C466.382,-86 476.273,-86 484.806,-86"/>
<polygon fill="midnightblue" stroke="midnightblue" points="456.899,-82.5001 446.899,-86 456.899,-89.5001 456.899,-82.5001"/>
</g>
<!-- Node15 -->
<g id="node15" class="node"><title>Node15</title>
<g id="a_node15"><a xlink:href="drive2_8F90.html#acce80cd37f20e9b52729eb52d86a9c86" target="_top" xlink:title="Driver for temperature or passive scalar. ">
<polygon fill="white" stroke="black" points="568,-76.5 568,-95.5 606,-95.5 606,-76.5 568,-76.5"/>
<text text-anchor="middle" x="587" y="-83.5" font-family="Helvetica,sans-Serif" font-size="10.00">heat</text>
</a>
</g>
</g>
<!-- Node14&#45;&gt;Node15 -->
<g id="edge14" class="edge"><title>Node14&#45;&gt;Node15</title>
<path fill="none" stroke="midnightblue" d="M542.131,-86C550.988,-86 560.256,-86 567.98,-86"/>
<polygon fill="midnightblue" stroke="midnightblue" points="542.039,-82.5001 532.039,-86 542.039,-89.5001 542.039,-82.5001"/>
</g>
<!-- Node15&#45;&gt;Node8 -->
<g id="edge15" class="edge"><title>Node15&#45;&gt;Node8</title>
<path fill="none" stroke="midnightblue" d="M616.362,-80.2055C624.415,-78.5604 633.328,-76.7395 641.897,-74.9889"/>
<polygon fill="midnightblue" stroke="midnightblue" points="615.471,-76.8153 606.374,-82.2462 616.872,-83.6736 615.471,-76.8153"/>
</g>
<!-- Node17 -->
<g id="node17" class="node"><title>Node17</title>
<g id="a_node17"><a xlink:href="navier1_8F90.html#af9bcf25d01182572549eaca275415fd9" target="_top" xlink:title="Compute OUTi = Di*INP, i=1,2,3. the gradient of the scalar field INP. Note: OUTi is defined on the pr...">
<polygon fill="white" stroke="black" points="223.5,-0.5 223.5,-19.5 273.5,-19.5 273.5,-0.5 223.5,-0.5"/>
<text text-anchor="middle" x="248.5" y="-7.5" font-family="Helvetica,sans-Serif" font-size="10.00">opgrad</text>
</a>
</g>
</g>
<!-- Node16&#45;&gt;Node17 -->
<g id="edge17" class="edge"><title>Node16&#45;&gt;Node17</title>
<path fill="none" stroke="midnightblue" d="M187.874,-10C199.812,-10 212.571,-10 223.211,-10"/>
<polygon fill="midnightblue" stroke="midnightblue" points="187.668,-6.5001 177.668,-10 187.668,-13.5001 187.668,-6.5001"/>
</g>
<!-- Node18 -->
<g id="node18" class="node"><title>Node18</title>
<g id="a_node18"><a xlink:href="plan4_8F90.html#ab1e8c9cb142e2062d1c1c8c1e6cd30c9" target="_top" xlink:title="Compute the residual for the velocity. ">
<polygon fill="white" stroke="black" points="396,-0.5 396,-19.5 449,-19.5 449,-0.5 396,-0.5"/>
<text text-anchor="middle" x="422.5" y="-7.5" font-family="Helvetica,sans-Serif" font-size="10.00">cresvsp</text>
</a>
</g>
</g>
<!-- Node17&#45;&gt;Node18 -->
<g id="edge18" class="edge"><title>Node17&#45;&gt;Node18</title>
<path fill="none" stroke="midnightblue" d="M283.905,-10C316.981,-10 366.21,-10 395.944,-10"/>
<polygon fill="midnightblue" stroke="midnightblue" points="283.779,-6.5001 273.779,-10 283.779,-13.5001 283.779,-6.5001"/>
</g>
<!-- Node18&#45;&gt;Node6 -->
<g id="edge19" class="edge"><title>Node18&#45;&gt;Node6</title>
<path fill="none" stroke="midnightblue" d="M453.943,-23.7716C464.891,-28.7245 476.976,-34.1914 486.891,-38.6768"/>
<polygon fill="midnightblue" stroke="midnightblue" points="455.25,-20.5219 444.697,-19.589 452.365,-26.8996 455.25,-20.5219"/>
</g>
</g>
</svg>
        <g id="navigator" transform="translate(0 0)" fill="#404254">
                <rect fill="#f2f5e9" fill-opacity="0.5" stroke="#606060" stroke-width=".5" x="0" y="0" width="60" height="60"/>
                <use id="zoomplus" xlink:href="#zoomPlus" x="17" y="9" onmousedown="handleZoom(evt,'in')"/>
                <use id="zoomminus" xlink:href="#zoomMin" x="42" y="9" onmousedown="handleZoom(evt,'out')"/>
                <use id="reset" xlink:href="#resetDef" x="30" y="36" onmousedown="handleReset()"/>
                <g id="arrowUp" xlink:href="#dirArrow" transform="translate(30 24)" onmousedown="handlePan(0,-1)">
                  <use xlink:href="#rim" fill="#404040">
                        <set attributeName="fill" to="#808080" begin="arrowUp.mouseover" end="arrowUp.mouseout"/>
                  </use>
                  <path fill="none" stroke="white" stroke-width="1.5" d="M0,-3.0v7 M-2.5,-0.5L0,-3.0L2.5,-0.5"/>
                </g>
                <g id="arrowRight" xlink:href="#dirArrow" transform="rotate(90) translate(36 -43)" onmousedown="handlePan(1,0)">
                  <use xlink:href="#rim" fill="#404040">
                        <set attributeName="fill" to="#808080" begin="arrowRight.mouseover" end="arrowRight.mouseout"/>
                  </use>
                  <path fill="none" stroke="white" stroke-width="1.5" d="M0,-3.0v7 M-2.5,-0.5L0,-3.0L2.5,-0.5"/>
                </g>
                <g id="arrowDown" xlink:href="#dirArrow" transform="rotate(180) translate(-30 -48)" onmousedown="handlePan(0,1)">
                  <use xlink:href="#rim" fill="#404040">
                        <set attributeName="fill" to="#808080" begin="arrowDown.mouseover" end="arrowDown.mouseout"/>
                  </use>
                  <path fill="none" stroke="white" stroke-width="1.5" d="M0,-3.0v7 M-2.5,-0.5L0,-3.0L2.5,-0.5"/>
                </g>
                <g id="arrowLeft" xlink:href="#dirArrow" transform="rotate(270) translate(-36 17)" onmousedown="handlePan(-1,0)">
                  <use xlink:href="#rim" fill="#404040">
                        <set attributeName="fill" to="#808080" begin="arrowLeft.mouseover" end="arrowLeft.mouseout"/>
                  </use>
                  <path fill="none" stroke="white" stroke-width="1.5" d="M0,-3.0v7 M-2.5,-0.5L0,-3.0L2.5,-0.5"/>
                </g>
        </g>
        <svg viewBox="0 0 15 15" width="100%" height="30px" preserveAspectRatio="xMaxYMin meet">
         <g id="arrow_out" transform="scale(0.3 0.3)">
          <a xlink:href="navier5_8F90_ad24367e4a843f60b63a2205aef1ba551_icgraph_org.svg" target="_base">
           <rect id="button" ry="5" rx="5" y="6" x="6" height="38" width="38"
                fill="#f2f5e9" fill-opacity="0.5" stroke="#606060" stroke-width="1.0"/>
           <path id="arrow"
             d="M 11.500037,31.436501 C 11.940474,20.09759 22.043105,11.32322 32.158766,21.979434 L 37.068811,17.246167 C 37.068811,17.246167 37.088388,32 37.088388,32 L 22.160133,31.978069 C 22.160133,31.978069 26.997745,27.140456 26.997745,27.140456 C 18.528582,18.264221 13.291696,25.230495 11.500037,31.436501 z"
             style="fill:#404040;"/>
          </a>
         </g>
        </svg>
</svg>
