<?xml version="1.0" encoding="UTF-8" standalone="no"?>
<!DOCTYPE svg PUBLIC "-//W3C//DTD SVG 1.1//EN"
 "http://www.w3.org/Graphics/SVG/1.1/DTD/svg11.dtd">
<!-- Generated by graphviz version 2.38.0 (20140413.2041)
 -->
<!-- Title: opgrad Pages: 1 -->
<svg width="603pt" height="940pt"
 viewBox="0.00 0.00 603.00 940.00" xmlns="http://www.w3.org/2000/svg" xmlns:xlink="http://www.w3.org/1999/xlink">
<g id="graph0" class="graph" transform="scale(1 1) rotate(0) translate(4 936)">
<title>opgrad</title>
<polygon fill="white" stroke="none" points="-4,4 -4,-936 599,-936 599,4 -4,4"/>
<!-- Node1 -->
<g id="node1" class="node"><title>Node1</title>
<polygon fill="#bfbfbf" stroke="black" points="0,-703.5 0,-722.5 50,-722.5 50,-703.5 0,-703.5"/>
<text text-anchor="middle" x="25" y="-710.5" font-family="Helvetica,sans-Serif" font-size="10.00">opgrad</text>
</g>
<!-- Node2 -->
<g id="node2" class="node"><title>Node2</title>
<g id="a_node2"><a xlink:href="navier1_8F90.html#ae2a342d8b6189bd500acbcc1cac1c757" target="_top" xlink:title="Compute D*X . X : input variable, defined on M1 DX : output variable, defined on M2 (note: D is recta...">
<polygon fill="white" stroke="black" points="95.5,-760.5 95.5,-779.5 136.5,-779.5 136.5,-760.5 95.5,-760.5"/>
<text text-anchor="middle" x="116" y="-767.5" font-family="Helvetica,sans-Serif" font-size="10.00">multd</text>
</a>
</g>
</g>
<!-- Node1&#45;&gt;Node2 -->
<g id="edge1" class="edge"><title>Node1&#45;&gt;Node2</title>
<path fill="none" stroke="midnightblue" d="M41.0976,-722.669C54.8615,-731.484 75.418,-744.65 91.3591,-754.859"/>
<polygon fill="midnightblue" stroke="midnightblue" points="89.8167,-758.028 100.125,-760.474 93.592,-752.133 89.8167,-758.028"/>
</g>
<!-- Node6 -->
<g id="node6" class="node"><title>Node6</title>
<g id="a_node6"><a xlink:href="mxm__wrapper_8F90.html#ab9ec2260a10061af6ce1c52f3c8a41da" target="_top" xlink:title="Compute matrix&#45;matrix product C = A*B. ">
<polygon fill="white" stroke="black" points="329,-703.5 329,-722.5 367,-722.5 367,-703.5 329,-703.5"/>
<text text-anchor="middle" x="348" y="-710.5" font-family="Helvetica,sans-Serif" font-size="10.00">mxm</text>
</a>
</g>
</g>
<!-- Node1&#45;&gt;Node6 -->
<g id="edge39" class="edge"><title>Node1&#45;&gt;Node6</title>
<path fill="none" stroke="midnightblue" d="M50.1272,-713C108.309,-713 256.129,-713 318.522,-713"/>
<polygon fill="midnightblue" stroke="midnightblue" points="318.798,-716.5 328.798,-713 318.798,-709.5 318.798,-716.5"/>
</g>
<!-- Node39 -->
<g id="node39" class="node"><title>Node39</title>
<g id="a_node39"><a xlink:href="navier1_8F90.html#a6d3df5bfd9eeabae524e4da76ac13c51" target="_top" xlink:title="Compute gradient of T – mesh 1 to mesh 1 (vel. to vel.) ">
<polygon fill="white" stroke="black" points="86,-665.5 86,-684.5 146,-684.5 146,-665.5 86,-665.5"/>
<text text-anchor="middle" x="116" y="-672.5" font-family="Helvetica,sans-Serif" font-size="10.00">wgradm1</text>
</a>
</g>
</g>
<!-- Node1&#45;&gt;Node39 -->
<g id="edge40" class="edge"><title>Node1&#45;&gt;Node39</title>
<path fill="none" stroke="midnightblue" d="M48.4585,-703.411C58.9989,-698.911 71.7465,-693.468 83.252,-688.555"/>
<polygon fill="midnightblue" stroke="midnightblue" points="84.7263,-691.732 92.5487,-684.586 81.9776,-685.294 84.7263,-691.732"/>
</g>
<!-- Node3 -->
<g id="node3" class="node"><title>Node3</title>
<g id="a_node3"><a xlink:href="math_8F90.html#a3b43508554f14bdea8e14473d7d0803c" target="_top" xlink:title="copy">
<polygon fill="white" stroke="black" points="211,-817.5 211,-836.5 250,-836.5 250,-817.5 211,-817.5"/>
<text text-anchor="middle" x="230.5" y="-824.5" font-family="Helvetica,sans-Serif" font-size="10.00">copy</text>
</a>
</g>
</g>
<!-- Node2&#45;&gt;Node3 -->
<g id="edge2" class="edge"><title>Node2&#45;&gt;Node3</title>
<path fill="none" stroke="midnightblue" d="M131.885,-779.558C144.84,-787.667 164.268,-799.33 182,-808 188.074,-810.97 194.736,-813.854 201.099,-816.44"/>
<polygon fill="midnightblue" stroke="midnightblue" points="200.137,-819.823 210.724,-820.228 202.701,-813.309 200.137,-819.823"/>
</g>
<!-- Node4 -->
<g id="node4" class="node"><title>Node4</title>
<g id="a_node4"><a xlink:href="classctimer.html#abcecbc845c8ee72e13a19eaa30b80d77" target="_top" xlink:title="ctimer::dnekclock">
<polygon fill="white" stroke="black" points="182,-779.5 182,-798.5 279,-798.5 279,-779.5 182,-779.5"/>
<text text-anchor="middle" x="230.5" y="-786.5" font-family="Helvetica,sans-Serif" font-size="10.00">ctimer::dnekclock</text>
</a>
</g>
</g>
<!-- Node2&#45;&gt;Node4 -->
<g id="edge3" class="edge"><title>Node2&#45;&gt;Node4</title>
<path fill="none" stroke="midnightblue" d="M136.596,-773.31C146.431,-774.971 158.915,-777.079 171.515,-779.207"/>
<polygon fill="midnightblue" stroke="midnightblue" points="171.153,-782.695 181.596,-780.91 172.319,-775.793 171.153,-782.695"/>
</g>
<!-- Node2&#45;&gt;Node6 -->
<g id="edge5" class="edge"><title>Node2&#45;&gt;Node6</title>
<path fill="none" stroke="midnightblue" d="M136.61,-765.14C177.412,-755.028 271.57,-731.693 318.845,-719.977"/>
<polygon fill="midnightblue" stroke="midnightblue" points="319.859,-723.332 328.724,-717.529 318.176,-716.538 319.859,-723.332"/>
</g>
<!-- Node5 -->
<g id="node5" class="node"><title>Node5</title>
<g id="a_node5"><a xlink:href="mpi__dummy_8F90.html#ae6a5ef945f87c2c27849696b70f3af2a" target="_top" xlink:title="mpi_wtime">
<polygon fill="white" stroke="black" points="315,-779.5 315,-798.5 381,-798.5 381,-779.5 315,-779.5"/>
<text text-anchor="middle" x="348" y="-786.5" font-family="Helvetica,sans-Serif" font-size="10.00">mpi_wtime</text>
</a>
</g>
</g>
<!-- Node4&#45;&gt;Node5 -->
<g id="edge4" class="edge"><title>Node4&#45;&gt;Node5</title>
<path fill="none" stroke="midnightblue" d="M279.145,-789C287.621,-789 296.397,-789 304.712,-789"/>
<polygon fill="midnightblue" stroke="midnightblue" points="304.94,-792.5 314.939,-789 304.939,-785.5 304.94,-792.5"/>
</g>
<!-- Node7 -->
<g id="node7" class="node"><title>Node7</title>
<g id="a_node7"><a xlink:href="mxm__std_8F90.html#ac63fe7516a18dc57dfe913ad2c1453be" target="_top" xlink:title="mxm44_0">
<polygon fill="white" stroke="black" points="533,-912.5 533,-931.5 595,-931.5 595,-912.5 533,-912.5"/>
<text text-anchor="middle" x="564" y="-919.5" font-family="Helvetica,sans-Serif" font-size="10.00">mxm44_0</text>
</a>
</g>
</g>
<!-- Node6&#45;&gt;Node7 -->
<g id="edge6" class="edge"><title>Node6&#45;&gt;Node7</title>
<path fill="none" stroke="midnightblue" d="M354.401,-722.608C368.999,-748.498 408.707,-818.35 417,-827 451.328,-862.807 501.606,-891.731 533.301,-907.891"/>
<polygon fill="midnightblue" stroke="midnightblue" points="531.993,-911.15 542.502,-912.49 535.122,-904.888 531.993,-911.15"/>
</g>
<!-- Node8 -->
<g id="node8" class="node"><title>Node8</title>
<g id="a_node8"><a xlink:href="mxm__std_8F90.html#af07f4b22fdc3488ca321736743f14b01" target="_top" xlink:title="mxm44_2">
<polygon fill="white" stroke="black" points="426,-798.5 426,-817.5 488,-817.5 488,-798.5 426,-798.5"/>
<text text-anchor="middle" x="457" y="-805.5" font-family="Helvetica,sans-Serif" font-size="10.00">mxm44_2</text>
</a>
</g>
</g>
<!-- Node6&#45;&gt;Node8 -->
<g id="edge7" class="edge"><title>Node6&#45;&gt;Node8</title>
<path fill="none" stroke="midnightblue" d="M355.943,-722.993C367.251,-738.691 391.009,-769.36 417,-789 419.051,-790.55 421.247,-792.024 423.515,-793.415"/>
<polygon fill="midnightblue" stroke="midnightblue" points="422.008,-796.581 432.453,-798.354 425.393,-790.454 422.008,-796.581"/>
</g>
<!-- Node9 -->
<g id="node9" class="node"><title>Node9</title>
<g id="a_node9"><a xlink:href="mxm__bgq_8F90.html#a8a70163b4dbfdbfcce7bff170597fcad" target="_top" xlink:title="mxm_bgq_10">
<polygon fill="white" stroke="black" points="417,-760.5 417,-779.5 497,-779.5 497,-760.5 417,-760.5"/>
<text text-anchor="middle" x="457" y="-767.5" font-family="Helvetica,sans-Serif" font-size="10.00">mxm_bgq_10</text>
</a>
</g>
</g>
<!-- Node6&#45;&gt;Node9 -->
<g id="edge8" class="edge"><title>Node6&#45;&gt;Node9</title>
<path fill="none" stroke="midnightblue" d="M365.624,-722.634C379.304,-730.479 399.26,-741.731 417,-751 420.098,-752.619 423.354,-754.275 426.61,-755.901"/>
<polygon fill="midnightblue" stroke="midnightblue" points="425.132,-759.075 435.65,-760.353 428.225,-752.796 425.132,-759.075"/>
</g>
<!-- Node10 -->
<g id="node10" class="node"><title>Node10</title>
<g id="a_node10"><a xlink:href="mxm__bgq_8F90.html#a27529ace9834454b8906f29e02718629" target="_top" xlink:title="mxm_bgq_12">
<polygon fill="white" stroke="black" points="417,-722.5 417,-741.5 497,-741.5 497,-722.5 417,-722.5"/>
<text text-anchor="middle" x="457" y="-729.5" font-family="Helvetica,sans-Serif" font-size="10.00">mxm_bgq_12</text>
</a>
</g>
</g>
<!-- Node6&#45;&gt;Node10 -->
<g id="edge9" class="edge"><title>Node6&#45;&gt;Node10</title>
<path fill="none" stroke="midnightblue" d="M367.151,-716.223C378.09,-718.166 392.598,-720.742 406.713,-723.248"/>
<polygon fill="midnightblue" stroke="midnightblue" points="406.406,-726.748 416.864,-725.051 407.63,-719.856 406.406,-726.748"/>
</g>
<!-- Node11 -->
<g id="node11" class="node"><title>Node11</title>
<g id="a_node11"><a xlink:href="mxm__bgq_8F90.html#a3fda9ea4bc7a5713a19d6939fa2b541f" target="_top" xlink:title="mxm_bgq_16">
<polygon fill="white" stroke="black" points="417,-684.5 417,-703.5 497,-703.5 497,-684.5 417,-684.5"/>
<text text-anchor="middle" x="457" y="-691.5" font-family="Helvetica,sans-Serif" font-size="10.00">mxm_bgq_16</text>
</a>
</g>
</g>
<!-- Node6&#45;&gt;Node11 -->
<g id="edge10" class="edge"><title>Node6&#45;&gt;Node11</title>
<path fill="none" stroke="midnightblue" d="M367.151,-709.777C378.09,-707.834 392.598,-705.258 406.713,-702.752"/>
<polygon fill="midnightblue" stroke="midnightblue" points="407.63,-706.144 416.864,-700.949 406.406,-699.252 407.63,-706.144"/>
</g>
<!-- Node12 -->
<g id="node12" class="node"><title>Node12</title>
<g id="a_node12"><a xlink:href="mxm__bgq_8F90.html#af192c3c8b982aa5bbc2a757156718a91" target="_top" xlink:title="mxm_bgq_6">
<polygon fill="white" stroke="black" points="420,-646.5 420,-665.5 494,-665.5 494,-646.5 420,-646.5"/>
<text text-anchor="middle" x="457" y="-653.5" font-family="Helvetica,sans-Serif" font-size="10.00">mxm_bgq_6</text>
</a>
</g>
</g>
<!-- Node6&#45;&gt;Node12 -->
<g id="edge11" class="edge"><title>Node6&#45;&gt;Node12</title>
<path fill="none" stroke="midnightblue" d="M365.624,-703.366C379.304,-695.521 399.26,-684.269 417,-675 420.098,-673.381 423.354,-671.725 426.61,-670.099"/>
<polygon fill="midnightblue" stroke="midnightblue" points="428.225,-673.204 435.65,-665.647 425.132,-666.925 428.225,-673.204"/>
</g>
<!-- Node13 -->
<g id="node13" class="node"><title>Node13</title>
<g id="a_node13"><a xlink:href="mxm__bgq_8F90.html#a8faaef428336095704ece51624bbfe92" target="_top" xlink:title="mxm_bgq_8">
<polygon fill="white" stroke="black" points="420,-608.5 420,-627.5 494,-627.5 494,-608.5 420,-608.5"/>
<text text-anchor="middle" x="457" y="-615.5" font-family="Helvetica,sans-Serif" font-size="10.00">mxm_bgq_8</text>
</a>
</g>
</g>
<!-- Node6&#45;&gt;Node13 -->
<g id="edge12" class="edge"><title>Node6&#45;&gt;Node13</title>
<path fill="none" stroke="midnightblue" d="M355.943,-703.007C367.251,-687.309 391.009,-656.64 417,-637 419.051,-635.45 421.247,-633.976 423.515,-632.585"/>
<polygon fill="midnightblue" stroke="midnightblue" points="425.393,-635.546 432.453,-627.646 422.008,-629.419 425.393,-635.546"/>
</g>
<!-- Node14 -->
<g id="node14" class="node"><title>Node14</title>
<g id="a_node14"><a xlink:href="mxm__std_8F90.html#aa9e8685c4a72f18fb5d1ee88ed17a3d6" target="_top" xlink:title="unrolled loop version ">
<polygon fill="white" stroke="black" points="433.5,-475.5 433.5,-494.5 480.5,-494.5 480.5,-475.5 433.5,-475.5"/>
<text text-anchor="middle" x="457" y="-482.5" font-family="Helvetica,sans-Serif" font-size="10.00">mxmf2</text>
</a>
</g>
</g>
<!-- Node6&#45;&gt;Node14 -->
<g id="edge13" class="edge"><title>Node6&#45;&gt;Node14</title>
<path fill="none" stroke="midnightblue" d="M353.461,-703.493C369.641,-669.018 425.42,-550.162 447.194,-503.763"/>
<polygon fill="midnightblue" stroke="midnightblue" points="450.44,-505.087 451.52,-494.547 444.103,-502.113 450.44,-505.087"/>
</g>
<!-- Node14&#45;&gt;Node7 -->
<g id="edge38" class="edge"><title>Node14&#45;&gt;Node7</title>
<path fill="none" stroke="midnightblue" d="M462.046,-494.559C470.058,-513.901 487.949,-559.227 497,-599 527.189,-731.664 460.493,-787.875 533,-903 533.591,-903.939 534.248,-904.84 534.958,-905.703"/>
<polygon fill="midnightblue" stroke="midnightblue" points="532.687,-908.369 542.45,-912.484 537.384,-903.179 532.687,-908.369"/>
</g>
<!-- Node15 -->
<g id="node15" class="node"><title>Node15</title>
<g id="a_node15"><a xlink:href="mxm__std_8F90.html#a7d3ac03517b3934b98857b22f7f78788" target="_top" xlink:title="mxf1">
<polygon fill="white" stroke="black" points="544.5,-874.5 544.5,-893.5 583.5,-893.5 583.5,-874.5 544.5,-874.5"/>
<text text-anchor="middle" x="564" y="-881.5" font-family="Helvetica,sans-Serif" font-size="10.00">mxf1</text>
</a>
</g>
</g>
<!-- Node14&#45;&gt;Node15 -->
<g id="edge14" class="edge"><title>Node14&#45;&gt;Node15</title>
<path fill="none" stroke="midnightblue" d="M461.99,-494.572C469.901,-513.938 487.619,-559.304 497,-599 524.438,-715.102 468.584,-764.585 533,-865 533.961,-866.498 535.087,-867.9 536.329,-869.209"/>
<polygon fill="midnightblue" stroke="midnightblue" points="534.379,-872.134 544.357,-875.697 538.78,-866.689 534.379,-872.134"/>
</g>
<!-- Node16 -->
<g id="node16" class="node"><title>Node16</title>
<g id="a_node16"><a xlink:href="mxm__std_8F90.html#a5786b175fcbe28ecafe1d878687c3ccf" target="_top" xlink:title="mxf10">
<polygon fill="white" stroke="black" points="541.5,-836.5 541.5,-855.5 586.5,-855.5 586.5,-836.5 541.5,-836.5"/>
<text text-anchor="middle" x="564" y="-843.5" font-family="Helvetica,sans-Serif" font-size="10.00">mxf10</text>
</a>
</g>
</g>
<!-- Node14&#45;&gt;Node16 -->
<g id="edge15" class="edge"><title>Node14&#45;&gt;Node16</title>
<path fill="none" stroke="midnightblue" d="M461.915,-494.59C469.692,-513.988 487.181,-559.41 497,-599 521.696,-698.572 476.658,-741.268 533,-827 533.609,-827.927 534.282,-828.818 535.004,-829.673"/>
<polygon fill="midnightblue" stroke="midnightblue" points="532.769,-832.37 542.562,-836.412 537.428,-827.145 532.769,-832.37"/>
</g>
<!-- Node17 -->
<g id="node17" class="node"><title>Node17</title>
<g id="a_node17"><a xlink:href="mxm__std_8F90.html#a244c7a41b5b7a22acba71c34552c2774" target="_top" xlink:title="mxf11">
<polygon fill="white" stroke="black" points="541.5,-798.5 541.5,-817.5 586.5,-817.5 586.5,-798.5 541.5,-798.5"/>
<text text-anchor="middle" x="564" y="-805.5" font-family="Helvetica,sans-Serif" font-size="10.00">mxf11</text>
</a>
</g>
</g>
<!-- Node14&#45;&gt;Node17 -->
<g id="edge16" class="edge"><title>Node14&#45;&gt;Node17</title>
<path fill="none" stroke="midnightblue" d="M461.812,-494.616C469.404,-514.062 486.575,-559.565 497,-599 518.966,-682.093 484.702,-717.907 533,-789 533.624,-789.918 534.308,-790.801 535.041,-791.649"/>
<polygon fill="midnightblue" stroke="midnightblue" points="532.833,-794.368 542.65,-798.354 537.461,-789.116 532.833,-794.368"/>
</g>
<!-- Node18 -->
<g id="node18" class="node"><title>Node18</title>
<g id="a_node18"><a xlink:href="mxm__std_8F90.html#afb2e2cde9040ab037e3586b0deef3851" target="_top" xlink:title="mxf12">
<polygon fill="white" stroke="black" points="541.5,-760.5 541.5,-779.5 586.5,-779.5 586.5,-760.5 541.5,-760.5"/>
<text text-anchor="middle" x="564" y="-767.5" font-family="Helvetica,sans-Serif" font-size="10.00">mxf12</text>
</a>
</g>
</g>
<!-- Node14&#45;&gt;Node18 -->
<g id="edge17" class="edge"><title>Node14&#45;&gt;Node18</title>
<path fill="none" stroke="midnightblue" d="M461.66,-494.658C468.979,-514.18 485.685,-559.811 497,-599 516.259,-665.7 492.696,-694.472 533,-751 533.745,-752.045 534.567,-753.045 535.449,-754.002"/>
<polygon fill="midnightblue" stroke="midnightblue" points="533.196,-756.68 543.087,-760.477 537.723,-751.341 533.196,-756.68"/>
</g>
<!-- Node19 -->
<g id="node19" class="node"><title>Node19</title>
<g id="a_node19"><a xlink:href="mxm__std_8F90.html#a6a048a62b47a5c2327279e158c1689df" target="_top" xlink:title="mxf13">
<polygon fill="white" stroke="black" points="541.5,-722.5 541.5,-741.5 586.5,-741.5 586.5,-722.5 541.5,-722.5"/>
<text text-anchor="middle" x="564" y="-729.5" font-family="Helvetica,sans-Serif" font-size="10.00">mxf13</text>
</a>
</g>
</g>
<!-- Node14&#45;&gt;Node19 -->
<g id="edge18" class="edge"><title>Node14&#45;&gt;Node19</title>
<path fill="none" stroke="midnightblue" d="M461.417,-494.733C468.298,-514.39 484.256,-560.252 497,-599 513.6,-649.473 500.589,-670.897 533,-713 533.783,-714.017 534.636,-714.994 535.544,-715.931"/>
<polygon fill="midnightblue" stroke="midnightblue" points="533.351,-718.658 543.291,-722.326 537.808,-713.261 533.351,-718.658"/>
</g>
<!-- Node20 -->
<g id="node20" class="node"><title>Node20</title>
<g id="a_node20"><a xlink:href="mxm__std_8F90.html#a6e57628b882cb8bcac215e9a5b523eed" target="_top" xlink:title="mxf14">
<polygon fill="white" stroke="black" points="541.5,-684.5 541.5,-703.5 586.5,-703.5 586.5,-684.5 541.5,-684.5"/>
<text text-anchor="middle" x="564" y="-691.5" font-family="Helvetica,sans-Serif" font-size="10.00">mxf14</text>
</a>
</g>
</g>
<!-- Node14&#45;&gt;Node20 -->
<g id="edge19" class="edge"><title>Node14&#45;&gt;Node20</title>
<path fill="none" stroke="midnightblue" d="M461.383,-494.571C474.325,-531.041 520.596,-660.005 533,-675 533.84,-676.015 534.749,-676.994 535.709,-677.934"/>
<polygon fill="midnightblue" stroke="midnightblue" points="533.792,-680.882 543.792,-684.384 538.158,-675.411 533.792,-680.882"/>
</g>
<!-- Node21 -->
<g id="node21" class="node"><title>Node21</title>
<g id="a_node21"><a xlink:href="mxm__std_8F90.html#a02e79201be026faf756be00e58334c4f" target="_top" xlink:title="mxf15">
<polygon fill="white" stroke="black" points="541.5,-646.5 541.5,-665.5 586.5,-665.5 586.5,-646.5 541.5,-646.5"/>
<text text-anchor="middle" x="564" y="-653.5" font-family="Helvetica,sans-Serif" font-size="10.00">mxf15</text>
</a>
</g>
</g>
<!-- Node14&#45;&gt;Node21 -->
<g id="edge20" class="edge"><title>Node14&#45;&gt;Node21</title>
<path fill="none" stroke="midnightblue" d="M460.715,-494.596C468.373,-520.278 492.275,-591.703 533,-637 534.005,-638.117 535.09,-639.194 536.232,-640.228"/>
<polygon fill="midnightblue" stroke="midnightblue" points="534.248,-643.118 544.321,-646.403 538.496,-637.553 534.248,-643.118"/>
</g>
<!-- Node22 -->
<g id="node22" class="node"><title>Node22</title>
<g id="a_node22"><a xlink:href="mxm__std_8F90.html#a2fbea6eeadc258673ba8ea5708593aee" target="_top" xlink:title="mxf16">
<polygon fill="white" stroke="black" points="541.5,-608.5 541.5,-627.5 586.5,-627.5 586.5,-608.5 541.5,-608.5"/>
<text text-anchor="middle" x="564" y="-615.5" font-family="Helvetica,sans-Serif" font-size="10.00">mxf16</text>
</a>
</g>
</g>
<!-- Node14&#45;&gt;Node22 -->
<g id="edge21" class="edge"><title>Node14&#45;&gt;Node22</title>
<path fill="none" stroke="midnightblue" d="M462.498,-494.523C472.707,-515.398 499.376,-565.954 533,-599 534.099,-600.08 535.27,-601.131 536.488,-602.147"/>
<polygon fill="midnightblue" stroke="midnightblue" points="534.802,-605.25 544.946,-608.309 538.924,-599.592 534.802,-605.25"/>
</g>
<!-- Node23 -->
<g id="node23" class="node"><title>Node23</title>
<g id="a_node23"><a xlink:href="mxm__std_8F90.html#a3829af481cd230e6aadef08feab9a278" target="_top" xlink:title="mxf17">
<polygon fill="white" stroke="black" points="541.5,-570.5 541.5,-589.5 586.5,-589.5 586.5,-570.5 541.5,-570.5"/>
<text text-anchor="middle" x="564" y="-577.5" font-family="Helvetica,sans-Serif" font-size="10.00">mxf17</text>
</a>
</g>
</g>
<!-- Node14&#45;&gt;Node23 -->
<g id="edge22" class="edge"><title>Node14&#45;&gt;Node23</title>
<path fill="none" stroke="midnightblue" d="M466.158,-494.575C479.316,-509.7 506.441,-539.598 533,-561 534.548,-562.248 536.182,-563.482 537.856,-564.688"/>
<polygon fill="midnightblue" stroke="midnightblue" points="536.092,-567.719 546.344,-570.393 539.997,-561.909 536.092,-567.719"/>
</g>
<!-- Node24 -->
<g id="node24" class="node"><title>Node24</title>
<g id="a_node24"><a xlink:href="mxm__std_8F90.html#a48ed8195cc978a87c005b3306a974894" target="_top" xlink:title="mxf18">
<polygon fill="white" stroke="black" points="541.5,-532.5 541.5,-551.5 586.5,-551.5 586.5,-532.5 541.5,-532.5"/>
<text text-anchor="middle" x="564" y="-539.5" font-family="Helvetica,sans-Serif" font-size="10.00">mxf18</text>
</a>
</g>
</g>
<!-- Node14&#45;&gt;Node24 -->
<g id="edge23" class="edge"><title>Node14&#45;&gt;Node24</title>
<path fill="none" stroke="midnightblue" d="M475.812,-494.669C492.429,-503.69 517.44,-517.267 536.418,-527.57"/>
<polygon fill="midnightblue" stroke="midnightblue" points="534.993,-530.779 545.451,-532.474 538.333,-524.627 534.993,-530.779"/>
</g>
<!-- Node25 -->
<g id="node25" class="node"><title>Node25</title>
<g id="a_node25"><a xlink:href="mxm__std_8F90.html#a28a9857286e11804e1a97875028ecb09" target="_top" xlink:title="mxf19">
<polygon fill="white" stroke="black" points="541.5,-494.5 541.5,-513.5 586.5,-513.5 586.5,-494.5 541.5,-494.5"/>
<text text-anchor="middle" x="564" y="-501.5" font-family="Helvetica,sans-Serif" font-size="10.00">mxf19</text>
</a>
</g>
</g>
<!-- Node14&#45;&gt;Node25 -->
<g id="edge24" class="edge"><title>Node14&#45;&gt;Node25</title>
<path fill="none" stroke="midnightblue" d="M480.525,-489.076C495.256,-491.741 514.721,-495.264 531.041,-498.217"/>
<polygon fill="midnightblue" stroke="midnightblue" points="530.768,-501.724 541.231,-500.061 532.014,-494.836 530.768,-501.724"/>
</g>
<!-- Node26 -->
<g id="node26" class="node"><title>Node26</title>
<g id="a_node26"><a xlink:href="mxm__std_8F90.html#acd223c583f3a9242fda7a1b8897b624d" target="_top" xlink:title="mxf2">
<polygon fill="white" stroke="black" points="544.5,-456.5 544.5,-475.5 583.5,-475.5 583.5,-456.5 544.5,-456.5"/>
<text text-anchor="middle" x="564" y="-463.5" font-family="Helvetica,sans-Serif" font-size="10.00">mxf2</text>
</a>
</g>
</g>
<!-- Node14&#45;&gt;Node26 -->
<g id="edge25" class="edge"><title>Node14&#45;&gt;Node26</title>
<path fill="none" stroke="midnightblue" d="M480.525,-480.924C496.294,-478.071 517.489,-474.235 534.444,-471.167"/>
<polygon fill="midnightblue" stroke="midnightblue" points="535.149,-474.597 544.366,-469.372 533.903,-467.708 535.149,-474.597"/>
</g>
<!-- Node27 -->
<g id="node27" class="node"><title>Node27</title>
<g id="a_node27"><a xlink:href="mxm__std_8F90.html#af60059bd60847f48acdf6461fefa3b22" target="_top" xlink:title="mxf20">
<polygon fill="white" stroke="black" points="541.5,-418.5 541.5,-437.5 586.5,-437.5 586.5,-418.5 541.5,-418.5"/>
<text text-anchor="middle" x="564" y="-425.5" font-family="Helvetica,sans-Serif" font-size="10.00">mxf20</text>
</a>
</g>
</g>
<!-- Node14&#45;&gt;Node27 -->
<g id="edge26" class="edge"><title>Node14&#45;&gt;Node27</title>
<path fill="none" stroke="midnightblue" d="M475.812,-475.331C492.429,-466.31 517.44,-452.733 536.418,-442.43"/>
<polygon fill="midnightblue" stroke="midnightblue" points="538.333,-445.373 545.451,-437.526 534.993,-439.221 538.333,-445.373"/>
</g>
<!-- Node28 -->
<g id="node28" class="node"><title>Node28</title>
<g id="a_node28"><a xlink:href="mxm__std_8F90.html#a825db174c5643aef5e4cdf57067ebbbb" target="_top" xlink:title="mxf21">
<polygon fill="white" stroke="black" points="541.5,-380.5 541.5,-399.5 586.5,-399.5 586.5,-380.5 541.5,-380.5"/>
<text text-anchor="middle" x="564" y="-387.5" font-family="Helvetica,sans-Serif" font-size="10.00">mxf21</text>
</a>
</g>
</g>
<!-- Node14&#45;&gt;Node28 -->
<g id="edge27" class="edge"><title>Node14&#45;&gt;Node28</title>
<path fill="none" stroke="midnightblue" d="M466.158,-475.425C479.316,-460.3 506.441,-430.402 533,-409 534.548,-407.752 536.182,-406.518 537.856,-405.312"/>
<polygon fill="midnightblue" stroke="midnightblue" points="539.997,-408.091 546.344,-399.607 536.092,-402.281 539.997,-408.091"/>
</g>
<!-- Node29 -->
<g id="node29" class="node"><title>Node29</title>
<g id="a_node29"><a xlink:href="mxm__std_8F90.html#a1f2059cb835b2818aef861f2f59a0a72" target="_top" xlink:title="mxf22">
<polygon fill="white" stroke="black" points="541.5,-342.5 541.5,-361.5 586.5,-361.5 586.5,-342.5 541.5,-342.5"/>
<text text-anchor="middle" x="564" y="-349.5" font-family="Helvetica,sans-Serif" font-size="10.00">mxf22</text>
</a>
</g>
</g>
<!-- Node14&#45;&gt;Node29 -->
<g id="edge28" class="edge"><title>Node14&#45;&gt;Node29</title>
<path fill="none" stroke="midnightblue" d="M462.498,-475.477C472.707,-454.602 499.376,-404.046 533,-371 534.099,-369.92 535.27,-368.869 536.488,-367.853"/>
<polygon fill="midnightblue" stroke="midnightblue" points="538.924,-370.408 544.946,-361.691 534.802,-364.75 538.924,-370.408"/>
</g>
<!-- Node30 -->
<g id="node30" class="node"><title>Node30</title>
<g id="a_node30"><a xlink:href="mxm__std_8F90.html#a3dc6491b8d44b702dbbb13a01f887c59" target="_top" xlink:title="mxf23">
<polygon fill="white" stroke="black" points="541.5,-304.5 541.5,-323.5 586.5,-323.5 586.5,-304.5 541.5,-304.5"/>
<text text-anchor="middle" x="564" y="-311.5" font-family="Helvetica,sans-Serif" font-size="10.00">mxf23</text>
</a>
</g>
</g>
<!-- Node14&#45;&gt;Node30 -->
<g id="edge29" class="edge"><title>Node14&#45;&gt;Node30</title>
<path fill="none" stroke="midnightblue" d="M460.715,-475.404C468.373,-449.722 492.275,-378.297 533,-333 534.005,-331.883 535.09,-330.806 536.232,-329.772"/>
<polygon fill="midnightblue" stroke="midnightblue" points="538.496,-332.447 544.321,-323.597 534.248,-326.882 538.496,-332.447"/>
</g>
<!-- Node31 -->
<g id="node31" class="node"><title>Node31</title>
<g id="a_node31"><a xlink:href="mxm__std_8F90.html#af0752c9a61343489900f8d812c6980ed" target="_top" xlink:title="mxf24">
<polygon fill="white" stroke="black" points="541.5,-266.5 541.5,-285.5 586.5,-285.5 586.5,-266.5 541.5,-266.5"/>
<text text-anchor="middle" x="564" y="-273.5" font-family="Helvetica,sans-Serif" font-size="10.00">mxf24</text>
</a>
</g>
</g>
<!-- Node14&#45;&gt;Node31 -->
<g id="edge30" class="edge"><title>Node14&#45;&gt;Node31</title>
<path fill="none" stroke="midnightblue" d="M459.638,-475.225C465.093,-445.214 485.081,-352.931 533,-295 533.84,-293.985 534.749,-293.006 535.709,-292.066"/>
<polygon fill="midnightblue" stroke="midnightblue" points="538.158,-294.589 543.792,-285.616 533.792,-289.118 538.158,-294.589"/>
</g>
<!-- Node32 -->
<g id="node32" class="node"><title>Node32</title>
<g id="a_node32"><a xlink:href="mxm__std_8F90.html#abff718a387aa354f77d0e8b0ffa98867" target="_top" xlink:title="mxf3">
<polygon fill="white" stroke="black" points="544.5,-228.5 544.5,-247.5 583.5,-247.5 583.5,-228.5 544.5,-228.5"/>
<text text-anchor="middle" x="564" y="-235.5" font-family="Helvetica,sans-Serif" font-size="10.00">mxf3</text>
</a>
</g>
</g>
<!-- Node14&#45;&gt;Node32 -->
<g id="edge31" class="edge"><title>Node14&#45;&gt;Node32</title>
<path fill="none" stroke="midnightblue" d="M458.869,-475.24C462.317,-441.502 477.672,-327.994 533,-257 533.947,-255.784 534.996,-254.625 536.117,-253.522"/>
<polygon fill="midnightblue" stroke="midnightblue" points="538.589,-256.029 544.257,-247.077 534.244,-250.541 538.589,-256.029"/>
</g>
<!-- Node33 -->
<g id="node33" class="node"><title>Node33</title>
<g id="a_node33"><a xlink:href="mxm__std_8F90.html#a2f4e4e1b4daebbd4d0580029d0f54016" target="_top" xlink:title="mxf4">
<polygon fill="white" stroke="black" points="544.5,-190.5 544.5,-209.5 583.5,-209.5 583.5,-190.5 544.5,-190.5"/>
<text text-anchor="middle" x="564" y="-197.5" font-family="Helvetica,sans-Serif" font-size="10.00">mxf4</text>
</a>
</g>
</g>
<!-- Node14&#45;&gt;Node33 -->
<g id="edge32" class="edge"><title>Node14&#45;&gt;Node33</title>
<path fill="none" stroke="midnightblue" d="M458.301,-475.47C459.914,-438.635 470.06,-303.443 533,-219 534.039,-217.607 535.212,-216.29 536.478,-215.05"/>
<polygon fill="midnightblue" stroke="midnightblue" points="538.751,-217.715 544.449,-208.783 534.425,-212.212 538.751,-217.715"/>
</g>
<!-- Node34 -->
<g id="node34" class="node"><title>Node34</title>
<g id="a_node34"><a xlink:href="mxm__std_8F90.html#a5a6d5c31350c601ba8327b75a72cba0a" target="_top" xlink:title="mxf5">
<polygon fill="white" stroke="black" points="544.5,-152.5 544.5,-171.5 583.5,-171.5 583.5,-152.5 544.5,-152.5"/>
<text text-anchor="middle" x="564" y="-159.5" font-family="Helvetica,sans-Serif" font-size="10.00">mxf5</text>
</a>
</g>
</g>
<!-- Node14&#45;&gt;Node34 -->
<g id="edge33" class="edge"><title>Node14&#45;&gt;Node34</title>
<path fill="none" stroke="midnightblue" d="M457.886,-475.249C457.889,-434.92 462.642,-278.713 533,-181 534.015,-179.59 535.171,-178.26 536.423,-177.009"/>
<polygon fill="midnightblue" stroke="midnightblue" points="538.698,-179.672 544.356,-170.715 534.347,-174.189 538.698,-179.672"/>
</g>
<!-- Node35 -->
<g id="node35" class="node"><title>Node35</title>
<g id="a_node35"><a xlink:href="mxm__std_8F90.html#a38a142edde1e72a918d280747a319f7a" target="_top" xlink:title="mxf6">
<polygon fill="white" stroke="black" points="544.5,-114.5 544.5,-133.5 583.5,-133.5 583.5,-114.5 544.5,-114.5"/>
<text text-anchor="middle" x="564" y="-121.5" font-family="Helvetica,sans-Serif" font-size="10.00">mxf6</text>
</a>
</g>
</g>
<!-- Node14&#45;&gt;Node35 -->
<g id="edge34" class="edge"><title>Node14&#45;&gt;Node35</title>
<path fill="none" stroke="midnightblue" d="M457.551,-475.244C456.043,-431.929 455.055,-254.273 533,-143 533.997,-141.577 535.138,-140.236 536.38,-138.978"/>
<polygon fill="midnightblue" stroke="midnightblue" points="538.656,-141.64 544.282,-132.662 534.285,-136.172 538.656,-141.64"/>
</g>
<!-- Node36 -->
<g id="node36" class="node"><title>Node36</title>
<g id="a_node36"><a xlink:href="mxm__std_8F90.html#a1919ea16c0a7b4e248e45e983c29d965" target="_top" xlink:title="mxf7">
<polygon fill="white" stroke="black" points="544.5,-76.5 544.5,-95.5 583.5,-95.5 583.5,-76.5 544.5,-76.5"/>
<text text-anchor="middle" x="564" y="-83.5" font-family="Helvetica,sans-Serif" font-size="10.00">mxf7</text>
</a>
</g>
</g>
<!-- Node14&#45;&gt;Node36 -->
<g id="edge35" class="edge"><title>Node14&#45;&gt;Node36</title>
<path fill="none" stroke="midnightblue" d="M458.875,-475.33C463.808,-422.47 489.49,-168.523 533,-105 533.982,-103.566 535.111,-102.218 536.344,-100.954"/>
<polygon fill="midnightblue" stroke="midnightblue" points="538.621,-103.614 544.221,-94.6202 534.235,-98.1584 538.621,-103.614"/>
</g>
<!-- Node37 -->
<g id="node37" class="node"><title>Node37</title>
<g id="a_node37"><a xlink:href="mxm__std_8F90.html#af4bd28930a9d674bbcad09ad75fa81ef" target="_top" xlink:title="mxf8">
<polygon fill="white" stroke="black" points="544.5,-38.5 544.5,-57.5 583.5,-57.5 583.5,-38.5 544.5,-38.5"/>
<text text-anchor="middle" x="564" y="-45.5" font-family="Helvetica,sans-Serif" font-size="10.00">mxf8</text>
</a>
</g>
</g>
<!-- Node14&#45;&gt;Node37 -->
<g id="edge36" class="edge"><title>Node14&#45;&gt;Node37</title>
<path fill="none" stroke="midnightblue" d="M458.673,-475.483C462.753,-419.922 485.592,-137.518 533,-67 533.993,-65.5227 535.144,-64.1369 536.404,-62.8408"/>
<polygon fill="midnightblue" stroke="midnightblue" points="538.856,-65.3621 544.483,-56.3853 534.486,-59.8935 538.856,-65.3621"/>
</g>
<!-- Node38 -->
<g id="node38" class="node"><title>Node38</title>
<g id="a_node38"><a xlink:href="mxm__std_8F90.html#a8ab38e8d33e92444b748159b82759c27" target="_top" xlink:title="mxf9">
<polygon fill="white" stroke="black" points="544.5,-0.5 544.5,-19.5 583.5,-19.5 583.5,-0.5 544.5,-0.5"/>
<text text-anchor="middle" x="564" y="-7.5" font-family="Helvetica,sans-Serif" font-size="10.00">mxf9</text>
</a>
</g>
</g>
<!-- Node14&#45;&gt;Node38 -->
<g id="edge37" class="edge"><title>Node14&#45;&gt;Node38</title>
<path fill="none" stroke="midnightblue" d="M458.521,-475.398C461.859,-416.718 481.749,-106.443 533,-29 533.982,-27.5155 535.125,-26.1241 536.379,-24.8238"/>
<polygon fill="midnightblue" stroke="midnightblue" points="538.83,-27.3444 544.441,-18.3571 534.45,-21.8841 538.83,-27.3444"/>
</g>
<!-- Node40 -->
<g id="node40" class="node"><title>Node40</title>
<g id="a_node40"><a xlink:href="navier5_8F90.html#ad24367e4a843f60b63a2205aef1ba551" target="_top" xlink:title="Output: ur,us,ut Input:u,N,e,D,Dt. ">
<polygon fill="white" stroke="black" points="194.5,-665.5 194.5,-684.5 266.5,-684.5 266.5,-665.5 194.5,-665.5"/>
<text text-anchor="middle" x="230.5" y="-672.5" font-family="Helvetica,sans-Serif" font-size="10.00">local_grad3</text>
</a>
</g>
</g>
<!-- Node39&#45;&gt;Node40 -->
<g id="edge41" class="edge"><title>Node39&#45;&gt;Node40</title>
<path fill="none" stroke="midnightblue" d="M146.264,-675C157.874,-675 171.494,-675 184.315,-675"/>
<polygon fill="midnightblue" stroke="midnightblue" points="184.373,-678.5 194.373,-675 184.373,-671.5 184.373,-678.5"/>
</g>
<!-- Node40&#45;&gt;Node6 -->
<g id="edge42" class="edge"><title>Node40&#45;&gt;Node6</title>
<path fill="none" stroke="midnightblue" d="M260.646,-684.589C278.522,-690.47 301.291,-697.961 318.96,-703.775"/>
<polygon fill="midnightblue" stroke="midnightblue" points="318.106,-707.178 328.699,-706.979 320.293,-700.529 318.106,-707.178"/>
</g>
</g>
</svg>
