<?xml version="1.0" encoding="UTF-8" standalone="no"?>
<!DOCTYPE svg PUBLIC "-//W3C//DTD SVG 1.1//EN"
 "http://www.w3.org/Graphics/SVG/1.1/DTD/svg11.dtd">
<!-- Generated by graphviz version 2.38.0 (20140413.2041)
 -->
<!-- Title: wlaplacian Pages: 1 -->
<!--zoomable 1006 -->
<svg id="main" version="1.1" xmlns="http://www.w3.org/2000/svg" xmlns:xlink="http://www.w3.org/1999/xlink" xml:space="preserve" onload="init(evt)">
<style type="text/css"><![CDATA[
.edge:hover path { stroke: red; }
.edge:hover polygon { stroke: red; fill: red; }
]]></style>
<script type="text/javascript"><![CDATA[
var edges = document.getElementsByTagName('g');
if (edges && edges.length) {
  for (var i=0;i<edges.length;i++) {
    if (edges[i].id.substr(0,4)=='edge') {
      edges[i].setAttribute('class','edge');
    }
  }
}
]]></script>
        <defs>
                <circle id="rim" cx="0" cy="0" r="7"/>
                <circle id="rim2" cx="0" cy="0" r="3.5"/>
                <g id="zoomPlus">
                        <use xlink:href="#rim" fill="#404040">
                                <set attributeName="fill" to="#808080" begin="zoomplus.mouseover" end="zoomplus.mouseout"/>
                        </use>
                        <path d="M-4,0h8M0,-4v8" fill="none" stroke="white" stroke-width="1.5" pointer-events="none"/>
                </g>
                <g id="zoomMin">
                        <use xlink:href="#rim" fill="#404040">
                                <set attributeName="fill" to="#808080" begin="zoomminus.mouseover" end="zoomminus.mouseout"/>
                        </use>
                        <path d="M-4,0h8" fill="none" stroke="white" stroke-width="1.5" pointer-events="none"/>
                </g>
                <g id="dirArrow">
                        <path fill="none" stroke="white" stroke-width="1.5" d="M0,-3.0v7 M-2.5,-0.5L0,-3.0L2.5,-0.5"/>
                </g>
               <g id="resetDef">
                       <use xlink:href="#rim2" fill="#404040">
                               <set attributeName="fill" to="#808080" begin="reset.mouseover" end="reset.mouseout"/>
                       </use>
               </g>
        </defs>

<script type="text/javascript">
var viewWidth = 511;
var viewHeight = 1006;
var sectionId = 'dynsection-50';
</script>
<script xlink:href="svgpan.js"/>
<svg id="graph" class="graph">
<g id="viewport">
<title>wlaplacian</title>
<polygon fill="white" stroke="none" points="-4,4 -4,-1002 507,-1002 507,4 -4,4"/>
<!-- Node1 -->
<g id="node1" class="node"><title>Node1</title>
<polygon fill="#bfbfbf" stroke="black" points="0,-123.5 0,-142.5 66,-142.5 66,-123.5 0,-123.5"/>
<text text-anchor="middle" x="33" y="-130.5" font-family="Helvetica,sans-Serif" font-size="10.00">wlaplacian</text>
</g>
<!-- Node2 -->
<g id="node2" class="node"><title>Node2</title>
<g id="a_node2"><a xlink:href="hmholtz_8F90.html#aa576b5bd623cce50fd6323db12ba5376" target="_top" xlink:title="Compute the (Helmholtz) matrix&#45;vector product, AU = helm1*[A]u + helm2*[B]u, for NEL elements...">
<polygon fill="white" stroke="black" points="104.5,-171.5 104.5,-190.5 154.5,-190.5 154.5,-171.5 104.5,-171.5"/>
<text text-anchor="middle" x="129.5" y="-178.5" font-family="Helvetica,sans-Serif" font-size="10.00">axhelm</text>
</a>
</g>
</g>
<!-- Node1&#45;&gt;Node2 -->
<g id="edge1" class="edge"><title>Node1&#45;&gt;Node2</title>
<path fill="none" stroke="midnightblue" d="M53.1235,-142.714C66.7902,-149.655 85.3929,-159.104 100.698,-166.878"/>
<polygon fill="midnightblue" stroke="midnightblue" points="99.2266,-170.057 109.727,-171.465 102.397,-163.816 99.2266,-170.057"/>
</g>
<!-- Node39 -->
<g id="node39" class="node"><title>Node39</title>
<g id="a_node39"><a xlink:href="bdry_8F90.html#a8988b35c52124e8bd28cae74f255e98d" target="_top" xlink:title="Apply Neumann boundary conditions to surface of scalar, S. Use IFIELD as a guide to which boundary co...">
<polygon fill="white" stroke="black" points="102,-76.5 102,-95.5 157,-95.5 157,-76.5 102,-76.5"/>
<text text-anchor="middle" x="129.5" y="-83.5" font-family="Helvetica,sans-Serif" font-size="10.00">bcneusc</text>
</a>
</g>
</g>
<!-- Node1&#45;&gt;Node39 -->
<g id="edge40" class="edge"><title>Node1&#45;&gt;Node39</title>
<path fill="none" stroke="midnightblue" d="M53.1235,-123.489C66.6115,-116.781 84.9074,-107.681 100.096,-100.127"/>
<polygon fill="midnightblue" stroke="midnightblue" points="101.686,-103.245 109.081,-95.6583 98.5682,-96.9777 101.686,-103.245"/>
</g>
<!-- Node3 -->
<g id="node3" class="node"><title>Node3</title>
<g id="a_node3"><a xlink:href="classctimer.html#abcecbc845c8ee72e13a19eaa30b80d77" target="_top" xlink:title="ctimer::dnekclock">
<polygon fill="white" stroke="black" points="303.5,-76.5 303.5,-95.5 400.5,-95.5 400.5,-76.5 303.5,-76.5"/>
<text text-anchor="middle" x="352" y="-83.5" font-family="Helvetica,sans-Serif" font-size="10.00">ctimer::dnekclock</text>
</a>
</g>
</g>
<!-- Node2&#45;&gt;Node3 -->
<g id="edge2" class="edge"><title>Node2&#45;&gt;Node3</title>
<path fill="none" stroke="midnightblue" d="M154.932,-186.798C183.26,-192.245 230.703,-197.357 267,-181 285.055,-172.864 319.219,-129.245 337.933,-104.034"/>
<polygon fill="midnightblue" stroke="midnightblue" points="340.971,-105.81 344.07,-95.6782 335.33,-101.666 340.971,-105.81"/>
</g>
<!-- Node5 -->
<g id="node5" class="node"><title>Node5</title>
<g id="a_node5"><a xlink:href="mxm__wrapper_8F90.html#ab9ec2260a10061af6ce1c52f3c8a41da" target="_top" xlink:title="Compute matrix&#45;matrix product C = A*B. ">
<polygon fill="white" stroke="black" points="211,-275.5 211,-294.5 249,-294.5 249,-275.5 211,-275.5"/>
<text text-anchor="middle" x="230" y="-282.5" font-family="Helvetica,sans-Serif" font-size="10.00">mxm</text>
</a>
</g>
</g>
<!-- Node2&#45;&gt;Node5 -->
<g id="edge4" class="edge"><title>Node2&#45;&gt;Node5</title>
<path fill="none" stroke="midnightblue" d="M139.59,-190.598C156.302,-208.243 192.105,-246.044 212.98,-268.085"/>
<polygon fill="midnightblue" stroke="midnightblue" points="210.514,-270.572 219.932,-275.426 215.597,-265.758 210.514,-270.572"/>
</g>
<!-- Node38 -->
<g id="node38" class="node"><title>Node38</title>
<g id="a_node38"><a xlink:href="hmholtz_8F90.html#a0f322d39d4bdffa3f9ba901f72d4a1d0" target="_top" xlink:title="Set logicals for fast evaluation of A*x. ">
<polygon fill="white" stroke="black" points="206,-152.5 206,-171.5 254,-171.5 254,-152.5 206,-152.5"/>
<text text-anchor="middle" x="230" y="-159.5" font-family="Helvetica,sans-Serif" font-size="10.00">setfast</text>
</a>
</g>
</g>
<!-- Node2&#45;&gt;Node38 -->
<g id="edge38" class="edge"><title>Node2&#45;&gt;Node38</title>
<path fill="none" stroke="midnightblue" d="M154.596,-176.352C167.032,-173.953 182.392,-170.99 195.921,-168.381"/>
<polygon fill="midnightblue" stroke="midnightblue" points="196.675,-171.8 205.831,-166.469 195.349,-164.927 196.675,-171.8"/>
</g>
<!-- Node4 -->
<g id="node4" class="node"><title>Node4</title>
<g id="a_node4"><a xlink:href="mpi__dummy_8F90.html#ae6a5ef945f87c2c27849696b70f3af2a" target="_top" xlink:title="mpi_wtime">
<polygon fill="white" stroke="black" points="437,-28.5 437,-47.5 503,-47.5 503,-28.5 437,-28.5"/>
<text text-anchor="middle" x="470" y="-35.5" font-family="Helvetica,sans-Serif" font-size="10.00">mpi_wtime</text>
</a>
</g>
</g>
<!-- Node3&#45;&gt;Node4 -->
<g id="edge3" class="edge"><title>Node3&#45;&gt;Node4</title>
<path fill="none" stroke="midnightblue" d="M377.469,-76.4576C385.03,-73.4705 393.374,-70.1349 401,-67 413.056,-62.0442 426.249,-56.4561 437.779,-51.5176"/>
<polygon fill="midnightblue" stroke="midnightblue" points="439.206,-54.7139 447.012,-47.5501 436.442,-48.2826 439.206,-54.7139"/>
</g>
<!-- Node6 -->
<g id="node6" class="node"><title>Node6</title>
<g id="a_node6"><a xlink:href="mxm__std_8F90.html#ac63fe7516a18dc57dfe913ad2c1453be" target="_top" xlink:title="mxm44_0">
<polygon fill="white" stroke="black" points="439,-66.5 439,-85.5 501,-85.5 501,-66.5 439,-66.5"/>
<text text-anchor="middle" x="470" y="-73.5" font-family="Helvetica,sans-Serif" font-size="10.00">mxm44_0</text>
</a>
</g>
</g>
<!-- Node5&#45;&gt;Node6 -->
<g id="edge5" class="edge"><title>Node5&#45;&gt;Node6</title>
<path fill="none" stroke="midnightblue" d="M239.103,-294.595C251.311,-308.221 275.896,-332.57 303,-342 344.137,-356.312 368.055,-370.491 401,-342 484.911,-269.432 375.292,-187.191 437,-95 437.629,-94.0604 438.321,-93.1604 439.066,-92.2991"/>
<polygon fill="midnightblue" stroke="midnightblue" points="441.58,-94.7521 446.853,-85.5629 437.001,-89.4579 441.58,-94.7521"/>
</g>
<!-- Node7 -->
<g id="node7" class="node"><title>Node7</title>
<g id="a_node7"><a xlink:href="mxm__std_8F90.html#af07f4b22fdc3488ca321736743f14b01" target="_top" xlink:title="mxm44_2">
<polygon fill="white" stroke="black" points="321,-313.5 321,-332.5 383,-332.5 383,-313.5 321,-313.5"/>
<text text-anchor="middle" x="352" y="-320.5" font-family="Helvetica,sans-Serif" font-size="10.00">mxm44_2</text>
</a>
</g>
</g>
<!-- Node5&#45;&gt;Node7 -->
<g id="edge6" class="edge"><title>Node5&#45;&gt;Node7</title>
<path fill="none" stroke="midnightblue" d="M249.225,-290.771C265.64,-295.969 290.335,-303.79 311.289,-310.425"/>
<polygon fill="midnightblue" stroke="midnightblue" points="310.325,-313.791 320.915,-313.473 312.438,-307.117 310.325,-313.791"/>
</g>
<!-- Node8 -->
<g id="node8" class="node"><title>Node8</title>
<g id="a_node8"><a xlink:href="mxm__bgq_8F90.html#a8a70163b4dbfdbfcce7bff170597fcad" target="_top" xlink:title="mxm_bgq_10">
<polygon fill="white" stroke="black" points="312,-275.5 312,-294.5 392,-294.5 392,-275.5 312,-275.5"/>
<text text-anchor="middle" x="352" y="-282.5" font-family="Helvetica,sans-Serif" font-size="10.00">mxm_bgq_10</text>
</a>
</g>
</g>
<!-- Node5&#45;&gt;Node8 -->
<g id="edge7" class="edge"><title>Node5&#45;&gt;Node8</title>
<path fill="none" stroke="midnightblue" d="M249.225,-285C263.222,-285 283.239,-285 301.823,-285"/>
<polygon fill="midnightblue" stroke="midnightblue" points="301.953,-288.5 311.953,-285 301.953,-281.5 301.953,-288.5"/>
</g>
<!-- Node9 -->
<g id="node9" class="node"><title>Node9</title>
<g id="a_node9"><a xlink:href="mxm__bgq_8F90.html#a27529ace9834454b8906f29e02718629" target="_top" xlink:title="mxm_bgq_12">
<polygon fill="white" stroke="black" points="312,-237.5 312,-256.5 392,-256.5 392,-237.5 312,-237.5"/>
<text text-anchor="middle" x="352" y="-244.5" font-family="Helvetica,sans-Serif" font-size="10.00">mxm_bgq_12</text>
</a>
</g>
</g>
<!-- Node5&#45;&gt;Node9 -->
<g id="edge8" class="edge"><title>Node5&#45;&gt;Node9</title>
<path fill="none" stroke="midnightblue" d="M249.225,-279.229C265.64,-274.031 290.335,-266.21 311.289,-259.575"/>
<polygon fill="midnightblue" stroke="midnightblue" points="312.438,-262.883 320.915,-256.527 310.325,-256.209 312.438,-262.883"/>
</g>
<!-- Node10 -->
<g id="node10" class="node"><title>Node10</title>
<g id="a_node10"><a xlink:href="mxm__bgq_8F90.html#a3fda9ea4bc7a5713a19d6939fa2b541f" target="_top" xlink:title="mxm_bgq_16">
<polygon fill="white" stroke="black" points="312,-199.5 312,-218.5 392,-218.5 392,-199.5 312,-199.5"/>
<text text-anchor="middle" x="352" y="-206.5" font-family="Helvetica,sans-Serif" font-size="10.00">mxm_bgq_16</text>
</a>
</g>
</g>
<!-- Node5&#45;&gt;Node10 -->
<g id="edge9" class="edge"><title>Node5&#45;&gt;Node10</title>
<path fill="none" stroke="midnightblue" d="M241.033,-275.469C254.344,-263.213 278.971,-241.863 303,-228 306.396,-226.041 310.034,-224.196 313.731,-222.484"/>
<polygon fill="midnightblue" stroke="midnightblue" points="315.143,-225.687 322.939,-218.513 312.371,-219.259 315.143,-225.687"/>
</g>
<!-- Node11 -->
<g id="node11" class="node"><title>Node11</title>
<g id="a_node11"><a xlink:href="mxm__bgq_8F90.html#af192c3c8b982aa5bbc2a757156718a91" target="_top" xlink:title="mxm_bgq_6">
<polygon fill="white" stroke="black" points="315,-161.5 315,-180.5 389,-180.5 389,-161.5 315,-161.5"/>
<text text-anchor="middle" x="352" y="-168.5" font-family="Helvetica,sans-Serif" font-size="10.00">mxm_bgq_6</text>
</a>
</g>
</g>
<!-- Node5&#45;&gt;Node11 -->
<g id="edge10" class="edge"><title>Node5&#45;&gt;Node11</title>
<path fill="none" stroke="midnightblue" d="M235.998,-275.255C246.166,-256.319 271.029,-214.284 303,-190 305.342,-188.221 307.872,-186.586 310.504,-185.088"/>
<polygon fill="midnightblue" stroke="midnightblue" points="312.321,-188.093 319.716,-180.506 309.204,-181.825 312.321,-188.093"/>
</g>
<!-- Node12 -->
<g id="node12" class="node"><title>Node12</title>
<g id="a_node12"><a xlink:href="mxm__bgq_8F90.html#a8faaef428336095704ece51624bbfe92" target="_top" xlink:title="mxm_bgq_8">
<polygon fill="white" stroke="black" points="315,-522.5 315,-541.5 389,-541.5 389,-522.5 315,-522.5"/>
<text text-anchor="middle" x="352" y="-529.5" font-family="Helvetica,sans-Serif" font-size="10.00">mxm_bgq_8</text>
</a>
</g>
</g>
<!-- Node5&#45;&gt;Node12 -->
<g id="edge11" class="edge"><title>Node5&#45;&gt;Node12</title>
<path fill="none" stroke="midnightblue" d="M231.229,-294.673C232.561,-329.094 241.608,-447.085 303,-513 304.218,-514.308 305.537,-515.527 306.935,-516.663"/>
<polygon fill="midnightblue" stroke="midnightblue" points="305.34,-519.801 315.633,-522.31 309.152,-513.93 305.34,-519.801"/>
</g>
<!-- Node13 -->
<g id="node13" class="node"><title>Node13</title>
<g id="a_node13"><a xlink:href="mxm__std_8F90.html#aa9e8685c4a72f18fb5d1ee88ed17a3d6" target="_top" xlink:title="unrolled loop version ">
<polygon fill="white" stroke="black" points="328.5,-484.5 328.5,-503.5 375.5,-503.5 375.5,-484.5 328.5,-484.5"/>
<text text-anchor="middle" x="352" y="-491.5" font-family="Helvetica,sans-Serif" font-size="10.00">mxmf2</text>
</a>
</g>
</g>
<!-- Node5&#45;&gt;Node13 -->
<g id="edge12" class="edge"><title>Node5&#45;&gt;Node13</title>
<path fill="none" stroke="midnightblue" d="M236.468,-294.523C255.014,-326.825 315.74,-432.589 340.425,-475.581"/>
<polygon fill="midnightblue" stroke="midnightblue" points="337.485,-477.491 345.5,-484.421 343.556,-474.006 337.485,-477.491"/>
</g>
<!-- Node13&#45;&gt;Node6 -->
<g id="edge37" class="edge"><title>Node13&#45;&gt;Node6</title>
<path fill="none" stroke="midnightblue" d="M357.855,-484.415C367.688,-464.558 389.959,-417.244 401,-375 432.726,-253.609 368.09,-199.852 437,-95 437.621,-94.0551 438.307,-93.1506 439.045,-92.2854"/>
<polygon fill="midnightblue" stroke="midnightblue" points="441.56,-94.7363 446.803,-85.5295 436.963,-89.4573 441.56,-94.7363"/>
</g>
<!-- Node14 -->
<g id="node14" class="node"><title>Node14</title>
<g id="a_node14"><a xlink:href="mxm__std_8F90.html#a7d3ac03517b3934b98857b22f7f78788" target="_top" xlink:title="mxf1">
<polygon fill="white" stroke="black" points="450.5,-902.5 450.5,-921.5 489.5,-921.5 489.5,-902.5 450.5,-902.5"/>
<text text-anchor="middle" x="470" y="-909.5" font-family="Helvetica,sans-Serif" font-size="10.00">mxf1</text>
</a>
</g>
</g>
<!-- Node13&#45;&gt;Node14 -->
<g id="edge13" class="edge"><title>Node13&#45;&gt;Node14</title>
<path fill="none" stroke="midnightblue" d="M375.755,-497.653C385.031,-500.334 394.972,-504.974 401,-513 502.878,-648.648 346.209,-749.694 437,-893 438.392,-895.197 440.137,-897.172 442.09,-898.942"/>
<polygon fill="midnightblue" stroke="midnightblue" points="440.159,-901.864 450.345,-904.78 444.201,-896.148 440.159,-901.864"/>
</g>
<!-- Node15 -->
<g id="node15" class="node"><title>Node15</title>
<g id="a_node15"><a xlink:href="mxm__std_8F90.html#a5786b175fcbe28ecafe1d878687c3ccf" target="_top" xlink:title="mxf10">
<polygon fill="white" stroke="black" points="447.5,-864.5 447.5,-883.5 492.5,-883.5 492.5,-864.5 447.5,-864.5"/>
<text text-anchor="middle" x="470" y="-871.5" font-family="Helvetica,sans-Serif" font-size="10.00">mxf10</text>
</a>
</g>
</g>
<!-- Node13&#45;&gt;Node15 -->
<g id="edge14" class="edge"><title>Node13&#45;&gt;Node15</title>
<path fill="none" stroke="midnightblue" d="M375.715,-497.683C384.984,-500.369 394.93,-505.005 401,-513 493.421,-634.73 354.532,-726.318 437,-855 437.726,-856.132 438.545,-857.206 439.437,-858.223"/>
<polygon fill="midnightblue" stroke="midnightblue" points="437.492,-861.162 447.387,-864.949 442.013,-855.818 437.492,-861.162"/>
</g>
<!-- Node16 -->
<g id="node16" class="node"><title>Node16</title>
<g id="a_node16"><a xlink:href="mxm__std_8F90.html#a244c7a41b5b7a22acba71c34552c2774" target="_top" xlink:title="mxf11">
<polygon fill="white" stroke="black" points="447.5,-826.5 447.5,-845.5 492.5,-845.5 492.5,-826.5 447.5,-826.5"/>
<text text-anchor="middle" x="470" y="-833.5" font-family="Helvetica,sans-Serif" font-size="10.00">mxf11</text>
</a>
</g>
</g>
<!-- Node13&#45;&gt;Node16 -->
<g id="edge15" class="edge"><title>Node13&#45;&gt;Node16</title>
<path fill="none" stroke="midnightblue" d="M375.666,-497.721C384.926,-500.414 394.878,-505.045 401,-513 483.974,-620.825 362.845,-702.929 437,-817 437.733,-818.127 438.558,-819.197 439.456,-820.211"/>
<polygon fill="midnightblue" stroke="midnightblue" points="437.523,-823.159 447.427,-826.923 442.032,-817.805 437.523,-823.159"/>
</g>
<!-- Node17 -->
<g id="node17" class="node"><title>Node17</title>
<g id="a_node17"><a xlink:href="mxm__std_8F90.html#afb2e2cde9040ab037e3586b0deef3851" target="_top" xlink:title="mxf12">
<polygon fill="white" stroke="black" points="447.5,-788.5 447.5,-807.5 492.5,-807.5 492.5,-788.5 447.5,-788.5"/>
<text text-anchor="middle" x="470" y="-795.5" font-family="Helvetica,sans-Serif" font-size="10.00">mxf12</text>
</a>
</g>
</g>
<!-- Node13&#45;&gt;Node17 -->
<g id="edge16" class="edge"><title>Node13&#45;&gt;Node17</title>
<path fill="none" stroke="midnightblue" d="M375.603,-497.769C384.851,-500.471 394.812,-505.096 401,-513 474.54,-606.938 371.147,-679.522 437,-779 437.742,-780.121 438.575,-781.186 439.48,-782.195"/>
<polygon fill="midnightblue" stroke="midnightblue" points="437.563,-785.155 447.477,-788.89 442.056,-779.788 437.563,-785.155"/>
</g>
<!-- Node18 -->
<g id="node18" class="node"><title>Node18</title>
<g id="a_node18"><a xlink:href="mxm__std_8F90.html#a6a048a62b47a5c2327279e158c1689df" target="_top" xlink:title="mxf13">
<polygon fill="white" stroke="black" points="447.5,-750.5 447.5,-769.5 492.5,-769.5 492.5,-750.5 447.5,-750.5"/>
<text text-anchor="middle" x="470" y="-757.5" font-family="Helvetica,sans-Serif" font-size="10.00">mxf13</text>
</a>
</g>
</g>
<!-- Node13&#45;&gt;Node18 -->
<g id="edge17" class="edge"><title>Node13&#45;&gt;Node18</title>
<path fill="none" stroke="midnightblue" d="M375.521,-497.835C384.754,-500.549 394.725,-505.165 401,-513 465.127,-593.076 379.431,-656.087 437,-741 437.734,-742.083 438.552,-743.113 439.437,-744.093"/>
<polygon fill="midnightblue" stroke="midnightblue" points="437.308,-746.876 447.216,-750.631 441.812,-741.517 437.308,-746.876"/>
</g>
<!-- Node19 -->
<g id="node19" class="node"><title>Node19</title>
<g id="a_node19"><a xlink:href="mxm__std_8F90.html#a6e57628b882cb8bcac215e9a5b523eed" target="_top" xlink:title="mxf14">
<polygon fill="white" stroke="black" points="447.5,-712.5 447.5,-731.5 492.5,-731.5 492.5,-712.5 447.5,-712.5"/>
<text text-anchor="middle" x="470" y="-719.5" font-family="Helvetica,sans-Serif" font-size="10.00">mxf14</text>
</a>
</g>
</g>
<!-- Node13&#45;&gt;Node19 -->
<g id="edge18" class="edge"><title>Node13&#45;&gt;Node19</title>
<path fill="none" stroke="midnightblue" d="M375.902,-498.075C384.975,-500.823 394.72,-505.4 401,-513 455.746,-579.255 387.685,-632.609 437,-703 437.751,-704.072 438.583,-705.092 439.479,-706.064"/>
<polygon fill="midnightblue" stroke="midnightblue" points="437.378,-708.869 447.307,-712.568 441.852,-703.485 437.378,-708.869"/>
</g>
<!-- Node20 -->
<g id="node20" class="node"><title>Node20</title>
<g id="a_node20"><a xlink:href="mxm__std_8F90.html#a02e79201be026faf756be00e58334c4f" target="_top" xlink:title="mxf15">
<polygon fill="white" stroke="black" points="447.5,-674.5 447.5,-693.5 492.5,-693.5 492.5,-674.5 447.5,-674.5"/>
<text text-anchor="middle" x="470" y="-681.5" font-family="Helvetica,sans-Serif" font-size="10.00">mxf15</text>
</a>
</g>
</g>
<!-- Node13&#45;&gt;Node20 -->
<g id="edge19" class="edge"><title>Node13&#45;&gt;Node20</title>
<path fill="none" stroke="midnightblue" d="M375.735,-498.216C384.78,-500.988 394.55,-505.544 401,-513 446.423,-565.503 395.888,-609.058 437,-665 437.775,-666.054 438.627,-667.061 439.54,-668.02"/>
<polygon fill="midnightblue" stroke="midnightblue" points="437.481,-670.857 447.439,-674.473 441.909,-665.436 437.481,-670.857"/>
</g>
<!-- Node21 -->
<g id="node21" class="node"><title>Node21</title>
<g id="a_node21"><a xlink:href="mxm__std_8F90.html#a2fbea6eeadc258673ba8ea5708593aee" target="_top" xlink:title="mxf16">
<polygon fill="white" stroke="black" points="447.5,-636.5 447.5,-655.5 492.5,-655.5 492.5,-636.5 447.5,-636.5"/>
<text text-anchor="middle" x="470" y="-643.5" font-family="Helvetica,sans-Serif" font-size="10.00">mxf16</text>
</a>
</g>
</g>
<!-- Node13&#45;&gt;Node21 -->
<g id="edge20" class="edge"><title>Node13&#45;&gt;Node21</title>
<path fill="none" stroke="midnightblue" d="M375.964,-498.606C384.829,-501.429 394.403,-505.917 401,-513 437.213,-551.881 403.987,-585.367 437,-627 437.813,-628.025 438.697,-629.007 439.637,-629.946"/>
<polygon fill="midnightblue" stroke="midnightblue" points="437.643,-632.832 447.649,-636.313 441.998,-627.351 437.643,-632.832"/>
</g>
<!-- Node22 -->
<g id="node22" class="node"><title>Node22</title>
<g id="a_node22"><a xlink:href="mxm__std_8F90.html#a3829af481cd230e6aadef08feab9a278" target="_top" xlink:title="mxf17">
<polygon fill="white" stroke="black" points="447.5,-598.5 447.5,-617.5 492.5,-617.5 492.5,-598.5 447.5,-598.5"/>
<text text-anchor="middle" x="470" y="-605.5" font-family="Helvetica,sans-Serif" font-size="10.00">mxf17</text>
</a>
</g>
</g>
<!-- Node13&#45;&gt;Node22 -->
<g id="edge21" class="edge"><title>Node13&#45;&gt;Node22</title>
<path fill="none" stroke="midnightblue" d="M375.985,-499.236C384.645,-502.132 394.066,-506.506 401,-513 428.279,-538.549 411.835,-561.366 437,-589 438.033,-590.135 439.15,-591.222 440.326,-592.262"/>
<polygon fill="midnightblue" stroke="midnightblue" points="438.561,-595.308 448.69,-598.414 442.709,-589.669 438.561,-595.308"/>
</g>
<!-- Node23 -->
<g id="node23" class="node"><title>Node23</title>
<g id="a_node23"><a xlink:href="mxm__std_8F90.html#a48ed8195cc978a87c005b3306a974894" target="_top" xlink:title="mxf18">
<polygon fill="white" stroke="black" points="447.5,-560.5 447.5,-579.5 492.5,-579.5 492.5,-560.5 447.5,-560.5"/>
<text text-anchor="middle" x="470" y="-567.5" font-family="Helvetica,sans-Serif" font-size="10.00">mxf18</text>
</a>
</g>
</g>
<!-- Node13&#45;&gt;Node23 -->
<g id="edge22" class="edge"><title>Node13&#45;&gt;Node23</title>
<path fill="none" stroke="midnightblue" d="M375.505,-500.618C383.91,-503.663 393.279,-507.778 401,-513 420.271,-526.033 418.824,-536.478 437,-551 438.59,-552.27 440.273,-553.516 442.003,-554.723"/>
<polygon fill="midnightblue" stroke="midnightblue" points="440.511,-557.925 450.817,-560.382 444.293,-552.034 440.511,-557.925"/>
</g>
<!-- Node24 -->
<g id="node24" class="node"><title>Node24</title>
<g id="a_node24"><a xlink:href="mxm__std_8F90.html#a28a9857286e11804e1a97875028ecb09" target="_top" xlink:title="mxf19">
<polygon fill="white" stroke="black" points="447.5,-522.5 447.5,-541.5 492.5,-541.5 492.5,-522.5 447.5,-522.5"/>
<text text-anchor="middle" x="470" y="-529.5" font-family="Helvetica,sans-Serif" font-size="10.00">mxf19</text>
</a>
</g>
</g>
<!-- Node13&#45;&gt;Node24 -->
<g id="edge23" class="edge"><title>Node13&#45;&gt;Node24</title>
<path fill="none" stroke="midnightblue" d="M375.641,-501.417C393.271,-507.192 417.95,-515.277 437.506,-521.683"/>
<polygon fill="midnightblue" stroke="midnightblue" points="436.609,-525.072 447.202,-524.859 438.788,-518.42 436.609,-525.072"/>
</g>
<!-- Node25 -->
<g id="node25" class="node"><title>Node25</title>
<g id="a_node25"><a xlink:href="mxm__std_8F90.html#acd223c583f3a9242fda7a1b8897b624d" target="_top" xlink:title="mxf2">
<polygon fill="white" stroke="black" points="450.5,-484.5 450.5,-503.5 489.5,-503.5 489.5,-484.5 450.5,-484.5"/>
<text text-anchor="middle" x="470" y="-491.5" font-family="Helvetica,sans-Serif" font-size="10.00">mxf2</text>
</a>
</g>
</g>
<!-- Node13&#45;&gt;Node25 -->
<g id="edge24" class="edge"><title>Node13&#45;&gt;Node25</title>
<path fill="none" stroke="midnightblue" d="M375.641,-494C394.085,-494 420.242,-494 440.179,-494"/>
<polygon fill="midnightblue" stroke="midnightblue" points="440.245,-497.5 450.245,-494 440.245,-490.5 440.245,-497.5"/>
</g>
<!-- Node26 -->
<g id="node26" class="node"><title>Node26</title>
<g id="a_node26"><a xlink:href="mxm__std_8F90.html#af60059bd60847f48acdf6461fefa3b22" target="_top" xlink:title="mxf20">
<polygon fill="white" stroke="black" points="447.5,-446.5 447.5,-465.5 492.5,-465.5 492.5,-446.5 447.5,-446.5"/>
<text text-anchor="middle" x="470" y="-453.5" font-family="Helvetica,sans-Serif" font-size="10.00">mxf20</text>
</a>
</g>
</g>
<!-- Node13&#45;&gt;Node26 -->
<g id="edge25" class="edge"><title>Node13&#45;&gt;Node26</title>
<path fill="none" stroke="midnightblue" d="M375.641,-486.583C393.271,-480.808 417.95,-472.723 437.506,-466.317"/>
<polygon fill="midnightblue" stroke="midnightblue" points="438.788,-469.58 447.202,-463.141 436.609,-462.928 438.788,-469.58"/>
</g>
<!-- Node27 -->
<g id="node27" class="node"><title>Node27</title>
<g id="a_node27"><a xlink:href="mxm__std_8F90.html#a825db174c5643aef5e4cdf57067ebbbb" target="_top" xlink:title="mxf21">
<polygon fill="white" stroke="black" points="447.5,-408.5 447.5,-427.5 492.5,-427.5 492.5,-408.5 447.5,-408.5"/>
<text text-anchor="middle" x="470" y="-415.5" font-family="Helvetica,sans-Serif" font-size="10.00">mxf21</text>
</a>
</g>
</g>
<!-- Node13&#45;&gt;Node27 -->
<g id="edge26" class="edge"><title>Node13&#45;&gt;Node27</title>
<path fill="none" stroke="midnightblue" d="M366.508,-484.464C382.967,-472.931 411.712,-453.067 437,-437 439.147,-435.636 441.391,-434.242 443.651,-432.859"/>
<polygon fill="midnightblue" stroke="midnightblue" points="445.509,-435.826 452.275,-427.673 441.902,-429.827 445.509,-435.826"/>
</g>
<!-- Node28 -->
<g id="node28" class="node"><title>Node28</title>
<g id="a_node28"><a xlink:href="mxm__std_8F90.html#a1f2059cb835b2818aef861f2f59a0a72" target="_top" xlink:title="mxf22">
<polygon fill="white" stroke="black" points="447.5,-370.5 447.5,-389.5 492.5,-389.5 492.5,-370.5 447.5,-370.5"/>
<text text-anchor="middle" x="470" y="-377.5" font-family="Helvetica,sans-Serif" font-size="10.00">mxf22</text>
</a>
</g>
</g>
<!-- Node13&#45;&gt;Node28 -->
<g id="edge27" class="edge"><title>Node13&#45;&gt;Node28</title>
<path fill="none" stroke="midnightblue" d="M359.81,-484.493C373.144,-466.328 404.264,-426.089 437,-399 438.568,-397.702 440.235,-396.437 441.952,-395.214"/>
<polygon fill="midnightblue" stroke="midnightblue" points="444.25,-397.896 450.737,-389.52 440.442,-392.022 444.25,-397.896"/>
</g>
<!-- Node29 -->
<g id="node29" class="node"><title>Node29</title>
<g id="a_node29"><a xlink:href="mxm__std_8F90.html#a3dc6491b8d44b702dbbb13a01f887c59" target="_top" xlink:title="mxf23">
<polygon fill="white" stroke="black" points="447.5,-332.5 447.5,-351.5 492.5,-351.5 492.5,-332.5 447.5,-332.5"/>
<text text-anchor="middle" x="470" y="-339.5" font-family="Helvetica,sans-Serif" font-size="10.00">mxf23</text>
</a>
</g>
</g>
<!-- Node13&#45;&gt;Node29 -->
<g id="edge28" class="edge"><title>Node13&#45;&gt;Node29</title>
<path fill="none" stroke="midnightblue" d="M357.201,-484.229C367.727,-460.637 397.263,-399.659 437,-361 438.242,-359.792 439.574,-358.629 440.965,-357.514"/>
<polygon fill="midnightblue" stroke="midnightblue" points="443.131,-360.271 449.341,-351.686 439.133,-354.525 443.131,-360.271"/>
</g>
<!-- Node30 -->
<g id="node30" class="node"><title>Node30</title>
<g id="a_node30"><a xlink:href="mxm__std_8F90.html#af0752c9a61343489900f8d812c6980ed" target="_top" xlink:title="mxf24">
<polygon fill="white" stroke="black" points="447.5,-294.5 447.5,-313.5 492.5,-313.5 492.5,-294.5 447.5,-294.5"/>
<text text-anchor="middle" x="470" y="-301.5" font-family="Helvetica,sans-Serif" font-size="10.00">mxf24</text>
</a>
</g>
</g>
<!-- Node13&#45;&gt;Node30 -->
<g id="edge29" class="edge"><title>Node13&#45;&gt;Node30</title>
<path fill="none" stroke="midnightblue" d="M356.917,-484.256C370.023,-451.979 412.873,-349.118 437,-323 438.041,-321.873 439.165,-320.791 440.346,-319.757"/>
<polygon fill="midnightblue" stroke="midnightblue" points="442.726,-322.352 448.728,-313.621 438.592,-316.703 442.726,-322.352"/>
</g>
<!-- Node31 -->
<g id="node31" class="node"><title>Node31</title>
<g id="a_node31"><a xlink:href="mxm__std_8F90.html#abff718a387aa354f77d0e8b0ffa98867" target="_top" xlink:title="mxf3">
<polygon fill="white" stroke="black" points="450.5,-256.5 450.5,-275.5 489.5,-275.5 489.5,-256.5 450.5,-256.5"/>
<text text-anchor="middle" x="470" y="-263.5" font-family="Helvetica,sans-Serif" font-size="10.00">mxf3</text>
</a>
</g>
</g>
<!-- Node13&#45;&gt;Node31 -->
<g id="edge30" class="edge"><title>Node13&#45;&gt;Node31</title>
<path fill="none" stroke="midnightblue" d="M356.867,-484.44C365.036,-464.24 384.642,-415.723 401,-375 417.058,-335.023 408.992,-317.734 437,-285 438.468,-283.285 440.131,-281.684 441.908,-280.198"/>
<polygon fill="midnightblue" stroke="midnightblue" points="443.988,-283.015 450.187,-274.423 439.983,-277.274 443.988,-283.015"/>
</g>
<!-- Node32 -->
<g id="node32" class="node"><title>Node32</title>
<g id="a_node32"><a xlink:href="mxm__std_8F90.html#a2f4e4e1b4daebbd4d0580029d0f54016" target="_top" xlink:title="mxf4">
<polygon fill="white" stroke="black" points="450.5,-218.5 450.5,-237.5 489.5,-237.5 489.5,-218.5 450.5,-218.5"/>
<text text-anchor="middle" x="470" y="-225.5" font-family="Helvetica,sans-Serif" font-size="10.00">mxf4</text>
</a>
</g>
</g>
<!-- Node13&#45;&gt;Node32 -->
<g id="edge31" class="edge"><title>Node13&#45;&gt;Node32</title>
<path fill="none" stroke="midnightblue" d="M357.351,-484.264C366.255,-464.126 386.902,-416.324 401,-375 420.082,-319.069 401.021,-293.881 437,-247 438.406,-245.168 440.044,-243.476 441.821,-241.923"/>
<polygon fill="midnightblue" stroke="midnightblue" points="444.076,-244.615 450.216,-235.981 440.032,-238.901 444.076,-244.615"/>
</g>
<!-- Node33 -->
<g id="node33" class="node"><title>Node33</title>
<g id="a_node33"><a xlink:href="mxm__std_8F90.html#a5a6d5c31350c601ba8327b75a72cba0a" target="_top" xlink:title="mxf5">
<polygon fill="white" stroke="black" points="450.5,-180.5 450.5,-199.5 489.5,-199.5 489.5,-180.5 450.5,-180.5"/>
<text text-anchor="middle" x="470" y="-187.5" font-family="Helvetica,sans-Serif" font-size="10.00">mxf5</text>
</a>
</g>
</g>
<!-- Node13&#45;&gt;Node33 -->
<g id="edge32" class="edge"><title>Node13&#45;&gt;Node33</title>
<path fill="none" stroke="midnightblue" d="M357.558,-484.331C366.845,-464.318 388.16,-416.732 401,-375 423.2,-302.845 392.874,-270.254 437,-209 438.381,-207.083 440.02,-205.326 441.815,-203.723"/>
<polygon fill="midnightblue" stroke="midnightblue" points="444.24,-206.295 450.372,-197.655 440.19,-200.585 444.24,-206.295"/>
</g>
<!-- Node34 -->
<g id="node34" class="node"><title>Node34</title>
<g id="a_node34"><a xlink:href="mxm__std_8F90.html#a38a142edde1e72a918d280747a319f7a" target="_top" xlink:title="mxf6">
<polygon fill="white" stroke="black" points="450.5,-142.5 450.5,-161.5 489.5,-161.5 489.5,-142.5 450.5,-142.5"/>
<text text-anchor="middle" x="470" y="-149.5" font-family="Helvetica,sans-Serif" font-size="10.00">mxf6</text>
</a>
</g>
</g>
<!-- Node13&#45;&gt;Node34 -->
<g id="edge33" class="edge"><title>Node13&#45;&gt;Node34</title>
<path fill="none" stroke="midnightblue" d="M357.692,-484.371C367.226,-464.431 388.974,-416.974 401,-375 426.358,-286.493 384.648,-246.735 437,-171 438.343,-169.057 439.956,-167.281 441.733,-165.665"/>
<polygon fill="midnightblue" stroke="midnightblue" points="444.155,-168.235 450.255,-159.572 440.085,-162.54 444.155,-168.235"/>
</g>
<!-- Node35 -->
<g id="node35" class="node"><title>Node35</title>
<g id="a_node35"><a xlink:href="mxm__std_8F90.html#a1919ea16c0a7b4e248e45e983c29d965" target="_top" xlink:title="mxf7">
<polygon fill="white" stroke="black" points="450.5,-104.5 450.5,-123.5 489.5,-123.5 489.5,-104.5 450.5,-104.5"/>
<text text-anchor="middle" x="470" y="-111.5" font-family="Helvetica,sans-Serif" font-size="10.00">mxf7</text>
</a>
</g>
</g>
<!-- Node13&#45;&gt;Node35 -->
<g id="edge34" class="edge"><title>Node13&#45;&gt;Node35</title>
<path fill="none" stroke="midnightblue" d="M357.786,-484.397C367.492,-464.505 389.542,-417.133 401,-375 429.536,-270.072 376.382,-223.275 437,-133 438.317,-131.039 439.91,-129.25 441.675,-127.625"/>
<polygon fill="midnightblue" stroke="midnightblue" points="444.096,-130.195 450.173,-121.517 440.01,-124.511 444.096,-130.195"/>
</g>
<!-- Node36 -->
<g id="node36" class="node"><title>Node36</title>
<g id="a_node36"><a xlink:href="mxm__std_8F90.html#af4bd28930a9d674bbcad09ad75fa81ef" target="_top" xlink:title="mxf8">
<polygon fill="white" stroke="black" points="450.5,-978.5 450.5,-997.5 489.5,-997.5 489.5,-978.5 450.5,-978.5"/>
<text text-anchor="middle" x="470" y="-985.5" font-family="Helvetica,sans-Serif" font-size="10.00">mxf8</text>
</a>
</g>
</g>
<!-- Node13&#45;&gt;Node36 -->
<g id="edge35" class="edge"><title>Node13&#45;&gt;Node36</title>
<path fill="none" stroke="midnightblue" d="M375.814,-497.609C385.102,-500.281 395.035,-504.927 401,-513 461.405,-594.754 383.274,-882.71 437,-969 438.375,-971.208 440.108,-973.191 442.053,-974.965"/>
<polygon fill="midnightblue" stroke="midnightblue" points="440.114,-977.881 450.296,-980.811 444.163,-972.171 440.114,-977.881"/>
</g>
<!-- Node37 -->
<g id="node37" class="node"><title>Node37</title>
<g id="a_node37"><a xlink:href="mxm__std_8F90.html#a8ab38e8d33e92444b748159b82759c27" target="_top" xlink:title="mxf9">
<polygon fill="white" stroke="black" points="450.5,-940.5 450.5,-959.5 489.5,-959.5 489.5,-940.5 450.5,-940.5"/>
<text text-anchor="middle" x="470" y="-947.5" font-family="Helvetica,sans-Serif" font-size="10.00">mxf9</text>
</a>
</g>
</g>
<!-- Node13&#45;&gt;Node37 -->
<g id="edge36" class="edge"><title>Node13&#45;&gt;Node37</title>
<path fill="none" stroke="midnightblue" d="M375.787,-497.629C385.069,-500.305 395.006,-504.948 401,-513 456.671,-587.787 387.441,-852.03 437,-931 438.382,-933.203 440.121,-935.182 442.07,-936.955"/>
<polygon fill="midnightblue" stroke="midnightblue" points="440.135,-939.873 450.318,-942.797 444.181,-934.161 440.135,-939.873"/>
</g>
<!-- Node38&#45;&gt;Node3 -->
<g id="edge39" class="edge"><title>Node38&#45;&gt;Node3</title>
<path fill="none" stroke="midnightblue" d="M250.275,-152.329C255.749,-149.448 261.669,-146.202 267,-143 288.798,-129.907 312.707,-113.466 329.424,-101.611"/>
<polygon fill="midnightblue" stroke="midnightblue" points="331.81,-104.208 337.912,-95.5466 327.741,-98.5121 331.81,-104.208"/>
</g>
<!-- Node39&#45;&gt;Node3 -->
<g id="edge41" class="edge"><title>Node39&#45;&gt;Node3</title>
<path fill="none" stroke="midnightblue" d="M157.097,-86C190.677,-86 249.374,-86 293.416,-86"/>
<polygon fill="midnightblue" stroke="midnightblue" points="293.422,-89.5001 303.422,-86 293.422,-82.5001 293.422,-89.5001"/>
</g>
<!-- Node40 -->
<g id="node40" class="node"><title>Node40</title>
<g id="a_node40"><a xlink:href="connect1_8F90.html#aa1c9016b4c28e8a8512be6f6d67eefce" target="_top" xlink:title="ifcase in preprocessor notation ">
<polygon fill="white" stroke="black" points="207.5,-114.5 207.5,-133.5 252.5,-133.5 252.5,-114.5 207.5,-114.5"/>
<text text-anchor="middle" x="230" y="-121.5" font-family="Helvetica,sans-Serif" font-size="10.00">facind</text>
</a>
</g>
</g>
<!-- Node39&#45;&gt;Node40 -->
<g id="edge42" class="edge"><title>Node39&#45;&gt;Node40</title>
<path fill="none" stroke="midnightblue" d="M155.356,-95.589C168.288,-100.578 184.223,-106.726 197.959,-112.025"/>
<polygon fill="midnightblue" stroke="midnightblue" points="196.908,-115.371 207.498,-115.705 199.428,-108.84 196.908,-115.371"/>
</g>
<!-- Node41 -->
<g id="node41" class="node"><title>Node41</title>
<g id="a_node41"><a xlink:href="classparallel.html#ac36680315d0622d84df5d5baf3fb0acc" target="_top" xlink:title="parallel::lglel">
<polygon fill="white" stroke="black" points="193,-38.5 193,-57.5 267,-57.5 267,-38.5 193,-38.5"/>
<text text-anchor="middle" x="230" y="-45.5" font-family="Helvetica,sans-Serif" font-size="10.00">parallel::lglel</text>
</a>
</g>
</g>
<!-- Node39&#45;&gt;Node41 -->
<g id="edge43" class="edge"><title>Node39&#45;&gt;Node41</title>
<path fill="none" stroke="midnightblue" d="M155.356,-76.411C167.255,-71.8206 181.695,-66.2497 194.626,-61.2612"/>
<polygon fill="midnightblue" stroke="midnightblue" points="196.082,-64.4507 204.152,-57.5859 193.563,-57.9199 196.082,-64.4507"/>
</g>
<!-- Node43 -->
<g id="node43" class="node"><title>Node43</title>
<g id="a_node43"><a xlink:href="bdry_8F90.html#a2426a0c5d510c19b0aa48112922383c3" target="_top" xlink:title="Assign NEKTON variables for definition (by user) of boundary conditions at collocation point (IX...">
<polygon fill="white" stroke="black" points="201.5,-0.5 201.5,-19.5 258.5,-19.5 258.5,-0.5 201.5,-0.5"/>
<text text-anchor="middle" x="230" y="-7.5" font-family="Helvetica,sans-Serif" font-size="10.00">nekasgn</text>
</a>
</g>
</g>
<!-- Node39&#45;&gt;Node43 -->
<g id="edge45" class="edge"><title>Node39&#45;&gt;Node43</title>
<path fill="none" stroke="midnightblue" d="M139.596,-76.3071C151.224,-64.2609 172.333,-43.5221 193,-29 195.125,-27.5068 197.382,-26.0508 199.689,-24.6521"/>
<polygon fill="midnightblue" stroke="midnightblue" points="201.676,-27.5491 208.662,-19.5835 198.234,-21.4542 201.676,-27.5491"/>
</g>
<!-- Node42 -->
<g id="node42" class="node"><title>Node42</title>
<g id="a_node42"><a xlink:href="classmesh.html#a8b6a250925cdc576e3ff6f7b18dc88c4" target="_top" xlink:title="mesh::xyz_to_ieg">
<polygon fill="white" stroke="black" points="303,-38.5 303,-57.5 401,-57.5 401,-38.5 303,-38.5"/>
<text text-anchor="middle" x="352" y="-45.5" font-family="Helvetica,sans-Serif" font-size="10.00">mesh::xyz_to_ieg</text>
</a>
</g>
</g>
<!-- Node41&#45;&gt;Node42 -->
<g id="edge44" class="edge"><title>Node41&#45;&gt;Node42</title>
<path fill="none" stroke="midnightblue" d="M267.004,-48C275.042,-48 283.769,-48 292.455,-48"/>
<polygon fill="midnightblue" stroke="midnightblue" points="292.589,-51.5001 302.589,-48 292.589,-44.5001 292.589,-51.5001"/>
</g>
</g>
</svg>
        <g id="navigator" transform="translate(0 0)" fill="#404254">
                <rect fill="#f2f5e9" fill-opacity="0.5" stroke="#606060" stroke-width=".5" x="0" y="0" width="60" height="60"/>
                <use id="zoomplus" xlink:href="#zoomPlus" x="17" y="9" onmousedown="handleZoom(evt,'in')"/>
                <use id="zoomminus" xlink:href="#zoomMin" x="42" y="9" onmousedown="handleZoom(evt,'out')"/>
                <use id="reset" xlink:href="#resetDef" x="30" y="36" onmousedown="handleReset()"/>
                <g id="arrowUp" xlink:href="#dirArrow" transform="translate(30 24)" onmousedown="handlePan(0,-1)">
                  <use xlink:href="#rim" fill="#404040">
                        <set attributeName="fill" to="#808080" begin="arrowUp.mouseover" end="arrowUp.mouseout"/>
                  </use>
                  <path fill="none" stroke="white" stroke-width="1.5" d="M0,-3.0v7 M-2.5,-0.5L0,-3.0L2.5,-0.5"/>
                </g>
                <g id="arrowRight" xlink:href="#dirArrow" transform="rotate(90) translate(36 -43)" onmousedown="handlePan(1,0)">
                  <use xlink:href="#rim" fill="#404040">
                        <set attributeName="fill" to="#808080" begin="arrowRight.mouseover" end="arrowRight.mouseout"/>
                  </use>
                  <path fill="none" stroke="white" stroke-width="1.5" d="M0,-3.0v7 M-2.5,-0.5L0,-3.0L2.5,-0.5"/>
                </g>
                <g id="arrowDown" xlink:href="#dirArrow" transform="rotate(180) translate(-30 -48)" onmousedown="handlePan(0,1)">
                  <use xlink:href="#rim" fill="#404040">
                        <set attributeName="fill" to="#808080" begin="arrowDown.mouseover" end="arrowDown.mouseout"/>
                  </use>
                  <path fill="none" stroke="white" stroke-width="1.5" d="M0,-3.0v7 M-2.5,-0.5L0,-3.0L2.5,-0.5"/>
                </g>
                <g id="arrowLeft" xlink:href="#dirArrow" transform="rotate(270) translate(-36 17)" onmousedown="handlePan(-1,0)">
                  <use xlink:href="#rim" fill="#404040">
                        <set attributeName="fill" to="#808080" begin="arrowLeft.mouseover" end="arrowLeft.mouseout"/>
                  </use>
                  <path fill="none" stroke="white" stroke-width="1.5" d="M0,-3.0v7 M-2.5,-0.5L0,-3.0L2.5,-0.5"/>
                </g>
        </g>
        <svg viewBox="0 0 15 15" width="100%" height="30px" preserveAspectRatio="xMaxYMin meet">
         <g id="arrow_out" transform="scale(0.3 0.3)">
          <a xlink:href="navier1_8F90_a08e5b36029e39242bd7344bd10ed472c_cgraph_org.svg" target="_base">
           <rect id="button" ry="5" rx="5" y="6" x="6" height="38" width="38"
                fill="#f2f5e9" fill-opacity="0.5" stroke="#606060" stroke-width="1.0"/>
           <path id="arrow"
             d="M 11.500037,31.436501 C 11.940474,20.09759 22.043105,11.32322 32.158766,21.979434 L 37.068811,17.246167 C 37.068811,17.246167 37.088388,32 37.088388,32 L 22.160133,31.978069 C 22.160133,31.978069 26.997745,27.140456 26.997745,27.140456 C 18.528582,18.264221 13.291696,25.230495 11.500037,31.436501 z"
             style="fill:#404040;"/>
          </a>
         </g>
        </svg>
</svg>
