<?xml version="1.0" encoding="UTF-8" standalone="no"?>
<!DOCTYPE svg PUBLIC "-//W3C//DTD SVG 1.1//EN"
 "http://www.w3.org/Graphics/SVG/1.1/DTD/svg11.dtd">
<!-- Generated by graphviz version 2.38.0 (20140413.2041)
 -->
<!-- Title: ophx Pages: 1 -->
<svg width="453pt" height="978pt"
 viewBox="0.00 0.00 453.00 978.00" xmlns="http://www.w3.org/2000/svg" xmlns:xlink="http://www.w3.org/1999/xlink">
<g id="graph0" class="graph" transform="scale(1 1) rotate(0) translate(4 974)">
<title>ophx</title>
<polygon fill="white" stroke="none" points="-4,4 -4,-974 449,-974 449,4 -4,4"/>
<!-- Node1 -->
<g id="node1" class="node"><title>Node1</title>
<polygon fill="#bfbfbf" stroke="black" points="0,-912.5 0,-931.5 40,-931.5 40,-912.5 0,-912.5"/>
<text text-anchor="middle" x="20" y="-919.5" font-family="Helvetica,sans-Serif" font-size="10.00">ophx</text>
</g>
<!-- Node2 -->
<g id="node2" class="node"><title>Node2</title>
<g id="a_node2"><a xlink:href="hmholtz_8F90.html#aa576b5bd623cce50fd6323db12ba5376" target="_top" xlink:title="Compute the (Helmholtz) matrix&#45;vector product, AU = helm1*[A]u + helm2*[B]u, for NEL elements...">
<polygon fill="white" stroke="black" points="76,-912.5 76,-931.5 126,-931.5 126,-912.5 76,-912.5"/>
<text text-anchor="middle" x="101" y="-919.5" font-family="Helvetica,sans-Serif" font-size="10.00">axhelm</text>
</a>
</g>
</g>
<!-- Node1&#45;&gt;Node2 -->
<g id="edge1" class="edge"><title>Node1&#45;&gt;Node2</title>
<path fill="none" stroke="midnightblue" d="M40.1237,-922C47.8696,-922 57.055,-922 65.8759,-922"/>
<polygon fill="midnightblue" stroke="midnightblue" points="65.9555,-925.5 75.9555,-922 65.9555,-918.5 65.9555,-925.5"/>
</g>
<!-- Node3 -->
<g id="node3" class="node"><title>Node3</title>
<g id="a_node3"><a xlink:href="classctimer.html#abcecbc845c8ee72e13a19eaa30b80d77" target="_top" xlink:title="ctimer::dnekclock">
<polygon fill="white" stroke="black" points="246,-950.5 246,-969.5 343,-969.5 343,-950.5 246,-950.5"/>
<text text-anchor="middle" x="294.5" y="-957.5" font-family="Helvetica,sans-Serif" font-size="10.00">ctimer::dnekclock</text>
</a>
</g>
</g>
<!-- Node2&#45;&gt;Node3 -->
<g id="edge2" class="edge"><title>Node2&#45;&gt;Node3</title>
<path fill="none" stroke="midnightblue" d="M126.273,-930.679C137.096,-934.291 150.071,-938.269 162,-941 185.994,-946.494 212.833,-950.709 235.976,-953.757"/>
<polygon fill="midnightblue" stroke="midnightblue" points="235.624,-957.24 245.986,-955.033 236.51,-950.296 235.624,-957.24"/>
</g>
<!-- Node5 -->
<g id="node5" class="node"><title>Node5</title>
<g id="a_node5"><a xlink:href="mxm__wrapper_8F90.html#ab9ec2260a10061af6ce1c52f3c8a41da" target="_top" xlink:title="Compute matrix&#45;matrix product C = A*B. ">
<polygon fill="white" stroke="black" points="167,-798.5 167,-817.5 205,-817.5 205,-798.5 167,-798.5"/>
<text text-anchor="middle" x="186" y="-805.5" font-family="Helvetica,sans-Serif" font-size="10.00">mxm</text>
</a>
</g>
</g>
<!-- Node2&#45;&gt;Node5 -->
<g id="edge4" class="edge"><title>Node2&#45;&gt;Node5</title>
<path fill="none" stroke="midnightblue" d="M109.077,-912.28C122.981,-893.182 154.057,-850.5 171.84,-826.075"/>
<polygon fill="midnightblue" stroke="midnightblue" points="174.885,-827.839 177.941,-817.695 169.226,-823.719 174.885,-827.839"/>
</g>
<!-- Node38 -->
<g id="node38" class="node"><title>Node38</title>
<g id="a_node38"><a xlink:href="hmholtz_8F90.html#a0f322d39d4bdffa3f9ba901f72d4a1d0" target="_top" xlink:title="Set logicals for fast evaluation of A*x. ">
<polygon fill="white" stroke="black" points="162,-912.5 162,-931.5 210,-931.5 210,-912.5 162,-912.5"/>
<text text-anchor="middle" x="186" y="-919.5" font-family="Helvetica,sans-Serif" font-size="10.00">setfast</text>
</a>
</g>
</g>
<!-- Node2&#45;&gt;Node38 -->
<g id="edge38" class="edge"><title>Node2&#45;&gt;Node38</title>
<path fill="none" stroke="midnightblue" d="M126.007,-922C134.04,-922 143.143,-922 151.752,-922"/>
<polygon fill="midnightblue" stroke="midnightblue" points="151.904,-925.5 161.904,-922 151.904,-918.5 151.904,-925.5"/>
</g>
<!-- Node4 -->
<g id="node4" class="node"><title>Node4</title>
<g id="a_node4"><a xlink:href="mpi__dummy_8F90.html#ae6a5ef945f87c2c27849696b70f3af2a" target="_top" xlink:title="mpi_wtime">
<polygon fill="white" stroke="black" points="379,-950.5 379,-969.5 445,-969.5 445,-950.5 379,-950.5"/>
<text text-anchor="middle" x="412" y="-957.5" font-family="Helvetica,sans-Serif" font-size="10.00">mpi_wtime</text>
</a>
</g>
</g>
<!-- Node3&#45;&gt;Node4 -->
<g id="edge3" class="edge"><title>Node3&#45;&gt;Node4</title>
<path fill="none" stroke="midnightblue" d="M343.145,-960C351.621,-960 360.397,-960 368.712,-960"/>
<polygon fill="midnightblue" stroke="midnightblue" points="368.94,-963.5 378.939,-960 368.939,-956.5 368.94,-963.5"/>
</g>
<!-- Node6 -->
<g id="node6" class="node"><title>Node6</title>
<g id="a_node6"><a xlink:href="mxm__std_8F90.html#ac63fe7516a18dc57dfe913ad2c1453be" target="_top" xlink:title="mxm44_0">
<polygon fill="white" stroke="black" points="381,-912.5 381,-931.5 443,-931.5 443,-912.5 381,-912.5"/>
<text text-anchor="middle" x="412" y="-919.5" font-family="Helvetica,sans-Serif" font-size="10.00">mxm44_0</text>
</a>
</g>
</g>
<!-- Node5&#45;&gt;Node6 -->
<g id="edge5" class="edge"><title>Node5&#45;&gt;Node6</title>
<path fill="none" stroke="midnightblue" d="M189.809,-817.55C196.17,-837.306 213.693,-882.527 246,-903 283.353,-926.671 335.168,-928.8 370.712,-926.702"/>
<polygon fill="midnightblue" stroke="midnightblue" points="371.012,-930.189 380.732,-925.973 370.505,-923.208 371.012,-930.189"/>
</g>
<!-- Node7 -->
<g id="node7" class="node"><title>Node7</title>
<g id="a_node7"><a xlink:href="mxm__std_8F90.html#af07f4b22fdc3488ca321736743f14b01" target="_top" xlink:title="mxm44_2">
<polygon fill="white" stroke="black" points="263.5,-874.5 263.5,-893.5 325.5,-893.5 325.5,-874.5 263.5,-874.5"/>
<text text-anchor="middle" x="294.5" y="-881.5" font-family="Helvetica,sans-Serif" font-size="10.00">mxm44_2</text>
</a>
</g>
</g>
<!-- Node5&#45;&gt;Node7 -->
<g id="edge6" class="edge"><title>Node5&#45;&gt;Node7</title>
<path fill="none" stroke="midnightblue" d="M194.878,-817.654C205.415,-830.042 225.194,-851.537 246,-865 248.922,-866.891 252.063,-868.648 255.286,-870.268"/>
<polygon fill="midnightblue" stroke="midnightblue" points="253.929,-873.496 264.479,-874.468 256.838,-867.129 253.929,-873.496"/>
</g>
<!-- Node8 -->
<g id="node8" class="node"><title>Node8</title>
<g id="a_node8"><a xlink:href="mxm__bgq_8F90.html#a8a70163b4dbfdbfcce7bff170597fcad" target="_top" xlink:title="mxm_bgq_10">
<polygon fill="white" stroke="black" points="254.5,-836.5 254.5,-855.5 334.5,-855.5 334.5,-836.5 254.5,-836.5"/>
<text text-anchor="middle" x="294.5" y="-843.5" font-family="Helvetica,sans-Serif" font-size="10.00">mxm_bgq_10</text>
</a>
</g>
</g>
<!-- Node5&#45;&gt;Node8 -->
<g id="edge7" class="edge"><title>Node5&#45;&gt;Node8</title>
<path fill="none" stroke="midnightblue" d="M205.066,-814.446C219.155,-819.473 239.192,-826.623 256.632,-832.845"/>
<polygon fill="midnightblue" stroke="midnightblue" points="255.941,-836.315 266.535,-836.379 258.293,-829.722 255.941,-836.315"/>
</g>
<!-- Node9 -->
<g id="node9" class="node"><title>Node9</title>
<g id="a_node9"><a xlink:href="mxm__bgq_8F90.html#a27529ace9834454b8906f29e02718629" target="_top" xlink:title="mxm_bgq_12">
<polygon fill="white" stroke="black" points="254.5,-798.5 254.5,-817.5 334.5,-817.5 334.5,-798.5 254.5,-798.5"/>
<text text-anchor="middle" x="294.5" y="-805.5" font-family="Helvetica,sans-Serif" font-size="10.00">mxm_bgq_12</text>
</a>
</g>
</g>
<!-- Node5&#45;&gt;Node9 -->
<g id="edge8" class="edge"><title>Node5&#45;&gt;Node9</title>
<path fill="none" stroke="midnightblue" d="M205.066,-808C215.859,-808 230.142,-808 244.073,-808"/>
<polygon fill="midnightblue" stroke="midnightblue" points="244.101,-811.5 254.101,-808 244.101,-804.5 244.101,-811.5"/>
</g>
<!-- Node10 -->
<g id="node10" class="node"><title>Node10</title>
<g id="a_node10"><a xlink:href="mxm__bgq_8F90.html#a3fda9ea4bc7a5713a19d6939fa2b541f" target="_top" xlink:title="mxm_bgq_16">
<polygon fill="white" stroke="black" points="254.5,-760.5 254.5,-779.5 334.5,-779.5 334.5,-760.5 254.5,-760.5"/>
<text text-anchor="middle" x="294.5" y="-767.5" font-family="Helvetica,sans-Serif" font-size="10.00">mxm_bgq_16</text>
</a>
</g>
</g>
<!-- Node5&#45;&gt;Node10 -->
<g id="edge9" class="edge"><title>Node5&#45;&gt;Node10</title>
<path fill="none" stroke="midnightblue" d="M205.066,-801.554C219.155,-796.527 239.192,-789.377 256.632,-783.155"/>
<polygon fill="midnightblue" stroke="midnightblue" points="258.293,-786.278 266.535,-779.621 255.941,-779.685 258.293,-786.278"/>
</g>
<!-- Node11 -->
<g id="node11" class="node"><title>Node11</title>
<g id="a_node11"><a xlink:href="mxm__bgq_8F90.html#af192c3c8b982aa5bbc2a757156718a91" target="_top" xlink:title="mxm_bgq_6">
<polygon fill="white" stroke="black" points="257.5,-722.5 257.5,-741.5 331.5,-741.5 331.5,-722.5 257.5,-722.5"/>
<text text-anchor="middle" x="294.5" y="-729.5" font-family="Helvetica,sans-Serif" font-size="10.00">mxm_bgq_6</text>
</a>
</g>
</g>
<!-- Node5&#45;&gt;Node11 -->
<g id="edge10" class="edge"><title>Node5&#45;&gt;Node11</title>
<path fill="none" stroke="midnightblue" d="M194.878,-798.346C205.415,-785.958 225.194,-764.463 246,-751 248.922,-749.109 252.063,-747.352 255.286,-745.732"/>
<polygon fill="midnightblue" stroke="midnightblue" points="256.838,-748.871 264.479,-741.532 253.929,-742.504 256.838,-748.871"/>
</g>
<!-- Node12 -->
<g id="node12" class="node"><title>Node12</title>
<g id="a_node12"><a xlink:href="mxm__bgq_8F90.html#a8faaef428336095704ece51624bbfe92" target="_top" xlink:title="mxm_bgq_8">
<polygon fill="white" stroke="black" points="257.5,-684.5 257.5,-703.5 331.5,-703.5 331.5,-684.5 257.5,-684.5"/>
<text text-anchor="middle" x="294.5" y="-691.5" font-family="Helvetica,sans-Serif" font-size="10.00">mxm_bgq_8</text>
</a>
</g>
</g>
<!-- Node5&#45;&gt;Node12 -->
<g id="edge11" class="edge"><title>Node5&#45;&gt;Node12</title>
<path fill="none" stroke="midnightblue" d="M190.627,-798.241C198.138,-779.279 217.138,-737.2 246,-713 247.965,-711.352 250.091,-709.834 252.317,-708.438"/>
<polygon fill="midnightblue" stroke="midnightblue" points="254.108,-711.449 261.267,-703.638 250.8,-705.281 254.108,-711.449"/>
</g>
<!-- Node13 -->
<g id="node13" class="node"><title>Node13</title>
<g id="a_node13"><a xlink:href="mxm__std_8F90.html#aa9e8685c4a72f18fb5d1ee88ed17a3d6" target="_top" xlink:title="unrolled loop version ">
<polygon fill="white" stroke="black" points="271,-475.5 271,-494.5 318,-494.5 318,-475.5 271,-475.5"/>
<text text-anchor="middle" x="294.5" y="-482.5" font-family="Helvetica,sans-Serif" font-size="10.00">mxmf2</text>
</a>
</g>
</g>
<!-- Node5&#45;&gt;Node13 -->
<g id="edge12" class="edge"><title>Node5&#45;&gt;Node13</title>
<path fill="none" stroke="midnightblue" d="M190.187,-798.333C204.978,-753.476 267.051,-565.218 287.173,-504.187"/>
<polygon fill="midnightblue" stroke="midnightblue" points="290.518,-505.222 290.325,-494.629 283.87,-503.03 290.518,-505.222"/>
</g>
<!-- Node13&#45;&gt;Node6 -->
<g id="edge37" class="edge"><title>Node13&#45;&gt;Node6</title>
<path fill="none" stroke="midnightblue" d="M298.282,-494.82C306.136,-522.792 328.827,-605.365 343,-675 363.461,-775.528 321.431,-818.087 379,-903 379.634,-903.936 380.332,-904.833 381.08,-905.691"/>
<polygon fill="midnightblue" stroke="midnightblue" points="379.027,-908.541 388.889,-912.413 383.594,-903.237 379.027,-908.541"/>
</g>
<!-- Node14 -->
<g id="node14" class="node"><title>Node14</title>
<g id="a_node14"><a xlink:href="mxm__std_8F90.html#a7d3ac03517b3934b98857b22f7f78788" target="_top" xlink:title="mxf1">
<polygon fill="white" stroke="black" points="392.5,-874.5 392.5,-893.5 431.5,-893.5 431.5,-874.5 392.5,-874.5"/>
<text text-anchor="middle" x="412" y="-881.5" font-family="Helvetica,sans-Serif" font-size="10.00">mxf1</text>
</a>
</g>
</g>
<!-- Node13&#45;&gt;Node14 -->
<g id="edge13" class="edge"><title>Node13&#45;&gt;Node14</title>
<path fill="none" stroke="midnightblue" d="M298.174,-494.843C305.745,-522.875 327.761,-605.59 343,-675 361.43,-758.948 329.685,-794.609 379,-865 380.355,-866.935 381.976,-868.704 383.76,-870.317"/>
<polygon fill="midnightblue" stroke="midnightblue" points="382.119,-873.445 392.293,-876.401 386.183,-867.746 382.119,-873.445"/>
</g>
<!-- Node15 -->
<g id="node15" class="node"><title>Node15</title>
<g id="a_node15"><a xlink:href="mxm__std_8F90.html#a5786b175fcbe28ecafe1d878687c3ccf" target="_top" xlink:title="mxf10">
<polygon fill="white" stroke="black" points="389.5,-836.5 389.5,-855.5 434.5,-855.5 434.5,-836.5 389.5,-836.5"/>
<text text-anchor="middle" x="412" y="-843.5" font-family="Helvetica,sans-Serif" font-size="10.00">mxf10</text>
</a>
</g>
</g>
<!-- Node13&#45;&gt;Node15 -->
<g id="edge14" class="edge"><title>Node13&#45;&gt;Node15</title>
<path fill="none" stroke="midnightblue" d="M298.016,-494.879C305.169,-523.008 326.193,-605.953 343,-675 359.419,-742.455 337.888,-771.058 379,-827 379.775,-828.054 380.627,-829.061 381.54,-830.02"/>
<polygon fill="midnightblue" stroke="midnightblue" points="379.481,-832.857 389.439,-836.473 383.909,-827.436 379.481,-832.857"/>
</g>
<!-- Node16 -->
<g id="node16" class="node"><title>Node16</title>
<g id="a_node16"><a xlink:href="mxm__std_8F90.html#a244c7a41b5b7a22acba71c34552c2774" target="_top" xlink:title="mxf11">
<polygon fill="white" stroke="black" points="389.5,-798.5 389.5,-817.5 434.5,-817.5 434.5,-798.5 389.5,-798.5"/>
<text text-anchor="middle" x="412" y="-805.5" font-family="Helvetica,sans-Serif" font-size="10.00">mxf11</text>
</a>
</g>
</g>
<!-- Node13&#45;&gt;Node16 -->
<g id="edge15" class="edge"><title>Node13&#45;&gt;Node16</title>
<path fill="none" stroke="midnightblue" d="M297.939,-494.669C310.698,-545.15 369.541,-776.596 379,-789 379.793,-790.04 380.661,-791.035 381.588,-791.985"/>
<polygon fill="midnightblue" stroke="midnightblue" points="379.56,-794.846 389.542,-798.396 383.953,-789.396 379.56,-794.846"/>
</g>
<!-- Node17 -->
<g id="node17" class="node"><title>Node17</title>
<g id="a_node17"><a xlink:href="mxm__std_8F90.html#afb2e2cde9040ab037e3586b0deef3851" target="_top" xlink:title="mxf12">
<polygon fill="white" stroke="black" points="389.5,-760.5 389.5,-779.5 434.5,-779.5 434.5,-760.5 389.5,-760.5"/>
<text text-anchor="middle" x="412" y="-767.5" font-family="Helvetica,sans-Serif" font-size="10.00">mxf12</text>
</a>
</g>
</g>
<!-- Node13&#45;&gt;Node17 -->
<g id="edge16" class="edge"><title>Node13&#45;&gt;Node17</title>
<path fill="none" stroke="midnightblue" d="M297.572,-494.722C306.832,-537.484 345.429,-708.589 379,-751 379.812,-752.026 380.696,-753.008 381.635,-753.948"/>
<polygon fill="midnightblue" stroke="midnightblue" points="379.639,-756.832 389.645,-760.316 383.996,-751.353 379.639,-756.832"/>
</g>
<!-- Node18 -->
<g id="node18" class="node"><title>Node18</title>
<g id="a_node18"><a xlink:href="mxm__std_8F90.html#a6a048a62b47a5c2327279e158c1689df" target="_top" xlink:title="mxf13">
<polygon fill="white" stroke="black" points="389.5,-722.5 389.5,-741.5 434.5,-741.5 434.5,-722.5 389.5,-722.5"/>
<text text-anchor="middle" x="412" y="-729.5" font-family="Helvetica,sans-Serif" font-size="10.00">mxf13</text>
</a>
</g>
</g>
<!-- Node13&#45;&gt;Node18 -->
<g id="edge17" class="edge"><title>Node13&#45;&gt;Node18</title>
<path fill="none" stroke="midnightblue" d="M296.718,-494.829C301.377,-528.793 320.829,-642.951 379,-713 379.955,-714.149 380.998,-715.246 382.106,-716.291"/>
<polygon fill="midnightblue" stroke="midnightblue" points="380.041,-719.118 390.107,-722.422 384.299,-713.562 380.041,-719.118"/>
</g>
<!-- Node19 -->
<g id="node19" class="node"><title>Node19</title>
<g id="a_node19"><a xlink:href="mxm__std_8F90.html#a6e57628b882cb8bcac215e9a5b523eed" target="_top" xlink:title="mxf14">
<polygon fill="white" stroke="black" points="389.5,-684.5 389.5,-703.5 434.5,-703.5 434.5,-684.5 389.5,-684.5"/>
<text text-anchor="middle" x="412" y="-691.5" font-family="Helvetica,sans-Serif" font-size="10.00">mxf14</text>
</a>
</g>
</g>
<!-- Node13&#45;&gt;Node19 -->
<g id="edge18" class="edge"><title>Node13&#45;&gt;Node19</title>
<path fill="none" stroke="midnightblue" d="M297.565,-494.84C304.333,-525.038 328.373,-617.801 379,-675 380.017,-676.149 381.121,-677.248 382.286,-678.297"/>
<polygon fill="midnightblue" stroke="midnightblue" points="380.499,-681.329 390.613,-684.483 384.673,-675.71 380.499,-681.329"/>
</g>
<!-- Node20 -->
<g id="node20" class="node"><title>Node20</title>
<g id="a_node20"><a xlink:href="mxm__std_8F90.html#a02e79201be026faf756be00e58334c4f" target="_top" xlink:title="mxf15">
<polygon fill="white" stroke="black" points="389.5,-646.5 389.5,-665.5 434.5,-665.5 434.5,-646.5 389.5,-646.5"/>
<text text-anchor="middle" x="412" y="-653.5" font-family="Helvetica,sans-Serif" font-size="10.00">mxf15</text>
</a>
</g>
</g>
<!-- Node13&#45;&gt;Node20 -->
<g id="edge19" class="edge"><title>Node13&#45;&gt;Node20</title>
<path fill="none" stroke="midnightblue" d="M298.744,-494.65C307.82,-520.468 335.674,-592.198 379,-637 380.204,-638.245 381.507,-639.438 382.875,-640.576"/>
<polygon fill="midnightblue" stroke="midnightblue" points="381.002,-643.538 391.183,-646.471 385.053,-637.83 381.002,-643.538"/>
</g>
<!-- Node21 -->
<g id="node21" class="node"><title>Node21</title>
<g id="a_node21"><a xlink:href="mxm__std_8F90.html#a2fbea6eeadc258673ba8ea5708593aee" target="_top" xlink:title="mxf16">
<polygon fill="white" stroke="black" points="389.5,-608.5 389.5,-627.5 434.5,-627.5 434.5,-608.5 389.5,-608.5"/>
<text text-anchor="middle" x="412" y="-615.5" font-family="Helvetica,sans-Serif" font-size="10.00">mxf16</text>
</a>
</g>
</g>
<!-- Node13&#45;&gt;Node21 -->
<g id="edge20" class="edge"><title>Node13&#45;&gt;Node21</title>
<path fill="none" stroke="midnightblue" d="M300.7,-494.557C312.449,-515.5 342.856,-566.182 379,-599 380.315,-600.194 381.718,-601.351 383.172,-602.465"/>
<polygon fill="midnightblue" stroke="midnightblue" points="381.604,-605.63 391.848,-608.334 385.526,-599.832 381.604,-605.63"/>
</g>
<!-- Node22 -->
<g id="node22" class="node"><title>Node22</title>
<g id="a_node22"><a xlink:href="mxm__std_8F90.html#a3829af481cd230e6aadef08feab9a278" target="_top" xlink:title="mxf17">
<polygon fill="white" stroke="black" points="389.5,-570.5 389.5,-589.5 434.5,-589.5 434.5,-570.5 389.5,-570.5"/>
<text text-anchor="middle" x="412" y="-577.5" font-family="Helvetica,sans-Serif" font-size="10.00">mxf17</text>
</a>
</g>
</g>
<!-- Node13&#45;&gt;Node22 -->
<g id="edge21" class="edge"><title>Node13&#45;&gt;Node22</title>
<path fill="none" stroke="midnightblue" d="M304.72,-494.562C319.556,-509.669 350.008,-539.544 379,-561 380.814,-562.343 382.73,-563.673 384.684,-564.969"/>
<polygon fill="midnightblue" stroke="midnightblue" points="382.982,-568.032 393.316,-570.365 386.692,-562.096 382.982,-568.032"/>
</g>
<!-- Node23 -->
<g id="node23" class="node"><title>Node23</title>
<g id="a_node23"><a xlink:href="mxm__std_8F90.html#a48ed8195cc978a87c005b3306a974894" target="_top" xlink:title="mxf18">
<polygon fill="white" stroke="black" points="389.5,-532.5 389.5,-551.5 434.5,-551.5 434.5,-532.5 389.5,-532.5"/>
<text text-anchor="middle" x="412" y="-539.5" font-family="Helvetica,sans-Serif" font-size="10.00">mxf18</text>
</a>
</g>
</g>
<!-- Node13&#45;&gt;Node23 -->
<g id="edge22" class="edge"><title>Node13&#45;&gt;Node23</title>
<path fill="none" stroke="midnightblue" d="M314.832,-494.541C333.321,-503.665 361.425,-517.534 382.484,-527.927"/>
<polygon fill="midnightblue" stroke="midnightblue" points="381.088,-531.141 391.605,-532.428 384.186,-524.864 381.088,-531.141"/>
</g>
<!-- Node24 -->
<g id="node24" class="node"><title>Node24</title>
<g id="a_node24"><a xlink:href="mxm__std_8F90.html#a28a9857286e11804e1a97875028ecb09" target="_top" xlink:title="mxf19">
<polygon fill="white" stroke="black" points="389.5,-494.5 389.5,-513.5 434.5,-513.5 434.5,-494.5 389.5,-494.5"/>
<text text-anchor="middle" x="412" y="-501.5" font-family="Helvetica,sans-Serif" font-size="10.00">mxf19</text>
</a>
</g>
</g>
<!-- Node13&#45;&gt;Node24 -->
<g id="edge23" class="edge"><title>Node13&#45;&gt;Node24</title>
<path fill="none" stroke="midnightblue" d="M318.044,-488.708C335.517,-491.583 359.945,-495.601 379.374,-498.797"/>
<polygon fill="midnightblue" stroke="midnightblue" points="378.86,-502.26 389.295,-500.43 379.996,-495.353 378.86,-502.26"/>
</g>
<!-- Node25 -->
<g id="node25" class="node"><title>Node25</title>
<g id="a_node25"><a xlink:href="mxm__std_8F90.html#acd223c583f3a9242fda7a1b8897b624d" target="_top" xlink:title="mxf2">
<polygon fill="white" stroke="black" points="392.5,-456.5 392.5,-475.5 431.5,-475.5 431.5,-456.5 392.5,-456.5"/>
<text text-anchor="middle" x="412" y="-463.5" font-family="Helvetica,sans-Serif" font-size="10.00">mxf2</text>
</a>
</g>
</g>
<!-- Node13&#45;&gt;Node25 -->
<g id="edge24" class="edge"><title>Node13&#45;&gt;Node25</title>
<path fill="none" stroke="midnightblue" d="M318.044,-481.292C336.408,-478.271 362.452,-473.986 382.303,-470.721"/>
<polygon fill="midnightblue" stroke="midnightblue" points="383.026,-474.149 392.326,-469.072 381.89,-467.242 383.026,-474.149"/>
</g>
<!-- Node26 -->
<g id="node26" class="node"><title>Node26</title>
<g id="a_node26"><a xlink:href="mxm__std_8F90.html#af60059bd60847f48acdf6461fefa3b22" target="_top" xlink:title="mxf20">
<polygon fill="white" stroke="black" points="389.5,-418.5 389.5,-437.5 434.5,-437.5 434.5,-418.5 389.5,-418.5"/>
<text text-anchor="middle" x="412" y="-425.5" font-family="Helvetica,sans-Serif" font-size="10.00">mxf20</text>
</a>
</g>
</g>
<!-- Node13&#45;&gt;Node26 -->
<g id="edge25" class="edge"><title>Node13&#45;&gt;Node26</title>
<path fill="none" stroke="midnightblue" d="M314.832,-475.459C333.321,-466.335 361.425,-452.466 382.484,-442.073"/>
<polygon fill="midnightblue" stroke="midnightblue" points="384.186,-445.136 391.605,-437.572 381.088,-438.859 384.186,-445.136"/>
</g>
<!-- Node27 -->
<g id="node27" class="node"><title>Node27</title>
<g id="a_node27"><a xlink:href="mxm__std_8F90.html#a825db174c5643aef5e4cdf57067ebbbb" target="_top" xlink:title="mxf21">
<polygon fill="white" stroke="black" points="389.5,-380.5 389.5,-399.5 434.5,-399.5 434.5,-380.5 389.5,-380.5"/>
<text text-anchor="middle" x="412" y="-387.5" font-family="Helvetica,sans-Serif" font-size="10.00">mxf21</text>
</a>
</g>
</g>
<!-- Node13&#45;&gt;Node27 -->
<g id="edge26" class="edge"><title>Node13&#45;&gt;Node27</title>
<path fill="none" stroke="midnightblue" d="M304.72,-475.438C319.556,-460.331 350.008,-430.456 379,-409 380.814,-407.657 382.73,-406.327 384.684,-405.031"/>
<polygon fill="midnightblue" stroke="midnightblue" points="386.692,-407.904 393.316,-399.635 382.982,-401.968 386.692,-407.904"/>
</g>
<!-- Node28 -->
<g id="node28" class="node"><title>Node28</title>
<g id="a_node28"><a xlink:href="mxm__std_8F90.html#a1f2059cb835b2818aef861f2f59a0a72" target="_top" xlink:title="mxf22">
<polygon fill="white" stroke="black" points="389.5,-342.5 389.5,-361.5 434.5,-361.5 434.5,-342.5 389.5,-342.5"/>
<text text-anchor="middle" x="412" y="-349.5" font-family="Helvetica,sans-Serif" font-size="10.00">mxf22</text>
</a>
</g>
</g>
<!-- Node13&#45;&gt;Node28 -->
<g id="edge27" class="edge"><title>Node13&#45;&gt;Node28</title>
<path fill="none" stroke="midnightblue" d="M300.7,-475.443C312.449,-454.5 342.856,-403.818 379,-371 380.315,-369.806 381.718,-368.649 383.172,-367.535"/>
<polygon fill="midnightblue" stroke="midnightblue" points="385.526,-370.168 391.848,-361.666 381.604,-364.37 385.526,-370.168"/>
</g>
<!-- Node29 -->
<g id="node29" class="node"><title>Node29</title>
<g id="a_node29"><a xlink:href="mxm__std_8F90.html#a3dc6491b8d44b702dbbb13a01f887c59" target="_top" xlink:title="mxf23">
<polygon fill="white" stroke="black" points="389.5,-304.5 389.5,-323.5 434.5,-323.5 434.5,-304.5 389.5,-304.5"/>
<text text-anchor="middle" x="412" y="-311.5" font-family="Helvetica,sans-Serif" font-size="10.00">mxf23</text>
</a>
</g>
</g>
<!-- Node13&#45;&gt;Node29 -->
<g id="edge28" class="edge"><title>Node13&#45;&gt;Node29</title>
<path fill="none" stroke="midnightblue" d="M298.744,-475.35C307.82,-449.532 335.674,-377.802 379,-333 380.204,-331.755 381.507,-330.562 382.875,-329.424"/>
<polygon fill="midnightblue" stroke="midnightblue" points="385.053,-332.17 391.183,-323.529 381.002,-326.462 385.053,-332.17"/>
</g>
<!-- Node30 -->
<g id="node30" class="node"><title>Node30</title>
<g id="a_node30"><a xlink:href="mxm__std_8F90.html#af0752c9a61343489900f8d812c6980ed" target="_top" xlink:title="mxf24">
<polygon fill="white" stroke="black" points="389.5,-266.5 389.5,-285.5 434.5,-285.5 434.5,-266.5 389.5,-266.5"/>
<text text-anchor="middle" x="412" y="-273.5" font-family="Helvetica,sans-Serif" font-size="10.00">mxf24</text>
</a>
</g>
</g>
<!-- Node13&#45;&gt;Node30 -->
<g id="edge29" class="edge"><title>Node13&#45;&gt;Node30</title>
<path fill="none" stroke="midnightblue" d="M297.565,-475.16C304.333,-444.962 328.373,-352.199 379,-295 380.017,-293.851 381.121,-292.752 382.286,-291.703"/>
<polygon fill="midnightblue" stroke="midnightblue" points="384.673,-294.29 390.613,-285.517 380.499,-288.671 384.673,-294.29"/>
</g>
<!-- Node31 -->
<g id="node31" class="node"><title>Node31</title>
<g id="a_node31"><a xlink:href="mxm__std_8F90.html#abff718a387aa354f77d0e8b0ffa98867" target="_top" xlink:title="mxf3">
<polygon fill="white" stroke="black" points="392.5,-228.5 392.5,-247.5 431.5,-247.5 431.5,-228.5 392.5,-228.5"/>
<text text-anchor="middle" x="412" y="-235.5" font-family="Helvetica,sans-Serif" font-size="10.00">mxf3</text>
</a>
</g>
</g>
<!-- Node13&#45;&gt;Node31 -->
<g id="edge30" class="edge"><title>Node13&#45;&gt;Node31</title>
<path fill="none" stroke="midnightblue" d="M296.718,-475.171C301.377,-441.207 320.829,-327.049 379,-257 380.476,-255.223 382.163,-253.572 383.975,-252.046"/>
<polygon fill="midnightblue" stroke="midnightblue" points="386.228,-254.742 392.437,-246.157 382.23,-248.996 386.228,-254.742"/>
</g>
<!-- Node32 -->
<g id="node32" class="node"><title>Node32</title>
<g id="a_node32"><a xlink:href="mxm__std_8F90.html#a2f4e4e1b4daebbd4d0580029d0f54016" target="_top" xlink:title="mxf4">
<polygon fill="white" stroke="black" points="392.5,-190.5 392.5,-209.5 431.5,-209.5 431.5,-190.5 392.5,-190.5"/>
<text text-anchor="middle" x="412" y="-197.5" font-family="Helvetica,sans-Serif" font-size="10.00">mxf4</text>
</a>
</g>
</g>
<!-- Node13&#45;&gt;Node32 -->
<g id="edge31" class="edge"><title>Node13&#45;&gt;Node32</title>
<path fill="none" stroke="midnightblue" d="M296.087,-475.4C298.81,-438.31 313.06,-302.304 379,-219 380.434,-217.189 382.091,-215.513 383.881,-213.97"/>
<polygon fill="midnightblue" stroke="midnightblue" points="386.136,-216.663 392.303,-208.048 382.11,-210.937 386.136,-216.663"/>
</g>
<!-- Node33 -->
<g id="node33" class="node"><title>Node33</title>
<g id="a_node33"><a xlink:href="mxm__std_8F90.html#a5a6d5c31350c601ba8327b75a72cba0a" target="_top" xlink:title="mxf5">
<polygon fill="white" stroke="black" points="392.5,-152.5 392.5,-171.5 431.5,-171.5 431.5,-152.5 392.5,-152.5"/>
<text text-anchor="middle" x="412" y="-159.5" font-family="Helvetica,sans-Serif" font-size="10.00">mxf5</text>
</a>
</g>
</g>
<!-- Node13&#45;&gt;Node33 -->
<g id="edge32" class="edge"><title>Node13&#45;&gt;Node33</title>
<path fill="none" stroke="midnightblue" d="M295.628,-475.45C296.635,-435.276 305.319,-277.617 379,-181 380.401,-179.163 382.034,-177.469 383.808,-175.913"/>
<polygon fill="midnightblue" stroke="midnightblue" points="386.064,-178.605 392.199,-169.967 382.016,-172.894 386.064,-178.605"/>
</g>
<!-- Node34 -->
<g id="node34" class="node"><title>Node34</title>
<g id="a_node34"><a xlink:href="mxm__std_8F90.html#a38a142edde1e72a918d280747a319f7a" target="_top" xlink:title="mxf6">
<polygon fill="white" stroke="black" points="392.5,-114.5 392.5,-133.5 431.5,-133.5 431.5,-114.5 392.5,-114.5"/>
<text text-anchor="middle" x="412" y="-121.5" font-family="Helvetica,sans-Serif" font-size="10.00">mxf6</text>
</a>
</g>
</g>
<!-- Node13&#45;&gt;Node34 -->
<g id="edge33" class="edge"><title>Node13&#45;&gt;Node34</title>
<path fill="none" stroke="midnightblue" d="M295.27,-475.463C294.707,-432.353 297.545,-253.039 379,-143 380.406,-141.101 382.062,-139.357 383.87,-137.763"/>
<polygon fill="midnightblue" stroke="midnightblue" points="386.295,-140.335 392.448,-131.711 382.26,-134.615 386.295,-140.335"/>
</g>
<!-- Node35 -->
<g id="node35" class="node"><title>Node35</title>
<g id="a_node35"><a xlink:href="mxm__std_8F90.html#a1919ea16c0a7b4e248e45e983c29d965" target="_top" xlink:title="mxf7">
<polygon fill="white" stroke="black" points="392.5,-76.5 392.5,-95.5 431.5,-95.5 431.5,-76.5 392.5,-76.5"/>
<text text-anchor="middle" x="412" y="-83.5" font-family="Helvetica,sans-Serif" font-size="10.00">mxf7</text>
</a>
</g>
</g>
<!-- Node13&#45;&gt;Node35 -->
<g id="edge34" class="edge"><title>Node13&#45;&gt;Node35</title>
<path fill="none" stroke="midnightblue" d="M296.579,-475.303C302.631,-422.295 333.708,-167.691 379,-105 380.383,-103.085 382.024,-101.33 383.821,-99.7271"/>
<polygon fill="midnightblue" stroke="midnightblue" points="386.246,-102.299 392.38,-93.6605 382.197,-96.588 386.246,-102.299"/>
</g>
<!-- Node36 -->
<g id="node36" class="node"><title>Node36</title>
<g id="a_node36"><a xlink:href="mxm__std_8F90.html#af4bd28930a9d674bbcad09ad75fa81ef" target="_top" xlink:title="mxf8">
<polygon fill="white" stroke="black" points="392.5,-38.5 392.5,-57.5 431.5,-57.5 431.5,-38.5 392.5,-38.5"/>
<text text-anchor="middle" x="412" y="-45.5" font-family="Helvetica,sans-Serif" font-size="10.00">mxf8</text>
</a>
</g>
</g>
<!-- Node13&#45;&gt;Node36 -->
<g id="edge35" class="edge"><title>Node13&#45;&gt;Node36</title>
<path fill="none" stroke="midnightblue" d="M296.353,-475.456C301.488,-419.741 329.717,-136.609 379,-67 380.365,-65.072 381.993,-63.3071 383.781,-61.6982"/>
<polygon fill="midnightblue" stroke="midnightblue" points="386.204,-64.2693 392.323,-55.6197 382.146,-58.5659 386.204,-64.2693"/>
</g>
<!-- Node37 -->
<g id="node37" class="node"><title>Node37</title>
<g id="a_node37"><a xlink:href="mxm__std_8F90.html#a8ab38e8d33e92444b748159b82759c27" target="_top" xlink:title="mxf9">
<polygon fill="white" stroke="black" points="392.5,-0.5 392.5,-19.5 431.5,-19.5 431.5,-0.5 392.5,-0.5"/>
<text text-anchor="middle" x="412" y="-7.5" font-family="Helvetica,sans-Serif" font-size="10.00">mxf9</text>
</a>
</g>
</g>
<!-- Node13&#45;&gt;Node37 -->
<g id="edge36" class="edge"><title>Node13&#45;&gt;Node37</title>
<path fill="none" stroke="midnightblue" d="M296.186,-475.371C300.531,-416.531 325.781,-105.462 379,-29 380.35,-27.0611 381.966,-25.2885 383.746,-23.6741"/>
<polygon fill="midnightblue" stroke="midnightblue" points="386.169,-26.2448 392.275,-17.5858 382.102,-20.5477 386.169,-26.2448"/>
</g>
<!-- Node38&#45;&gt;Node3 -->
<g id="edge39" class="edge"><title>Node38&#45;&gt;Node3</title>
<path fill="none" stroke="midnightblue" d="M210.109,-930.245C223.759,-935.116 241.349,-941.392 256.853,-946.924"/>
<polygon fill="midnightblue" stroke="midnightblue" points="256.082,-950.365 266.677,-950.429 258.435,-943.772 256.082,-950.365"/>
</g>
</g>
</svg>
