<?xml version="1.0" encoding="UTF-8" standalone="no"?>
<!DOCTYPE svg PUBLIC "-//W3C//DTD SVG 1.1//EN"
 "http://www.w3.org/Graphics/SVG/1.1/DTD/svg11.dtd">
<!-- Generated by graphviz version 2.38.0 (20140413.2041)
 -->
<!-- Title: rand_fld_h1 Pages: 1 -->
<svg width="888pt" height="66pt"
 viewBox="0.00 0.00 888.00 66.00" xmlns="http://www.w3.org/2000/svg" xmlns:xlink="http://www.w3.org/1999/xlink">
<g id="graph0" class="graph" transform="scale(1 1) rotate(0) translate(4 62)">
<title>rand_fld_h1</title>
<polygon fill="white" stroke="none" points="-4,4 -4,-62 884,-62 884,4 -4,4"/>
<!-- Node1 -->
<g id="node1" class="node"><title>Node1</title>
<polygon fill="#bfbfbf" stroke="black" points="0,-19.5 0,-38.5 74,-38.5 74,-19.5 0,-19.5"/>
<text text-anchor="middle" x="37" y="-26.5" font-family="Helvetica,sans-Serif" font-size="10.00">rand_fld_h1</text>
</g>
<!-- Node2 -->
<g id="node2" class="node"><title>Node2</title>
<g id="a_node2"><a xlink:href="eigsolv_8F90.html#a641903cf1502c362e017e07dcb6cae02" target="_top" xlink:title="Compute startvector for finding an eigenvalue on mesh 1. Normalization: XT*B*X = 1. ">
<polygon fill="white" stroke="black" points="110,-19.5 110,-38.5 159,-38.5 159,-19.5 110,-19.5"/>
<text text-anchor="middle" x="134.5" y="-26.5" font-family="Helvetica,sans-Serif" font-size="10.00">startx1</text>
</a>
</g>
</g>
<!-- Node1&#45;&gt;Node2 -->
<g id="edge1" class="edge"><title>Node1&#45;&gt;Node2</title>
<path fill="none" stroke="midnightblue" d="M84.35,-29C93.1639,-29 102.041,-29 109.78,-29"/>
<polygon fill="midnightblue" stroke="midnightblue" points="84.1045,-25.5001 74.1045,-29 84.1044,-32.5001 84.1045,-25.5001"/>
</g>
<!-- Node3 -->
<g id="node3" class="node"><title>Node3</title>
<g id="a_node3"><a xlink:href="eigsolv_8F90.html#a40aa959fb07551b7b3fe2e5bd7ed6fda" target="_top" xlink:title="Compute maximum eigenvalue of the discrete Helmholtz operator. ">
<polygon fill="white" stroke="black" points="195,-19.5 195,-38.5 260,-38.5 260,-19.5 195,-19.5"/>
<text text-anchor="middle" x="227.5" y="-26.5" font-family="Helvetica,sans-Serif" font-size="10.00">gammam1</text>
</a>
</g>
</g>
<!-- Node2&#45;&gt;Node3 -->
<g id="edge2" class="edge"><title>Node2&#45;&gt;Node3</title>
<path fill="none" stroke="midnightblue" d="M169.543,-29C177.846,-29 186.692,-29 194.876,-29"/>
<polygon fill="midnightblue" stroke="midnightblue" points="169.409,-25.5001 159.409,-29 169.409,-32.5001 169.409,-25.5001"/>
</g>
<!-- Node4 -->
<g id="node4" class="node"><title>Node4</title>
<g id="a_node4"><a xlink:href="eigsolv_8F90.html#a91ddf7cb5ca6b19d1c736da5bf7386b3" target="_top" xlink:title="Compute the following eigenvalues:. EIGAA = minimum eigenvalue of the matrix A (=Laplacian) EIGAE = m...">
<polygon fill="white" stroke="black" points="296,-19.5 296,-38.5 344,-38.5 344,-19.5 296,-19.5"/>
<text text-anchor="middle" x="320" y="-26.5" font-family="Helvetica,sans-Serif" font-size="10.00">eigenv</text>
</a>
</g>
</g>
<!-- Node3&#45;&gt;Node4 -->
<g id="edge3" class="edge"><title>Node3&#45;&gt;Node4</title>
<path fill="none" stroke="midnightblue" d="M270.283,-29C279.049,-29 287.99,-29 295.778,-29"/>
<polygon fill="midnightblue" stroke="midnightblue" points="270.153,-25.5001 260.153,-29 270.152,-32.5001 270.153,-25.5001"/>
</g>
<!-- Node5 -->
<g id="node5" class="node"><title>Node5</title>
<g id="a_node5"><a xlink:href="drive2_8F90.html#a7f0d055bb47546a4859ac7d63339197e" target="_top" xlink:title="Compute eigenvalues. ">
<polygon fill="white" stroke="black" points="380,-19.5 380,-38.5 429,-38.5 429,-19.5 380,-19.5"/>
<text text-anchor="middle" x="404.5" y="-26.5" font-family="Helvetica,sans-Serif" font-size="10.00">geneig</text>
</a>
</g>
</g>
<!-- Node4&#45;&gt;Node5 -->
<g id="edge4" class="edge"><title>Node4&#45;&gt;Node5</title>
<path fill="none" stroke="midnightblue" d="M354.434,-29C362.911,-29 371.846,-29 379.734,-29"/>
<polygon fill="midnightblue" stroke="midnightblue" points="354.421,-25.5001 344.421,-29 354.42,-32.5001 354.421,-25.5001"/>
</g>
<!-- Node6 -->
<g id="node6" class="node"><title>Node6</title>
<g id="a_node6"><a xlink:href="drive1_8F90.html#ae177ea7efac97f35241521b782a671c0" target="_top" xlink:title="take a single time&#45;step ">
<polygon fill="white" stroke="black" points="465,-38.5 465,-57.5 545,-57.5 545,-38.5 465,-38.5"/>
<text text-anchor="middle" x="505" y="-45.5" font-family="Helvetica,sans-Serif" font-size="10.00">nek_advance</text>
</a>
</g>
</g>
<!-- Node5&#45;&gt;Node6 -->
<g id="edge5" class="edge"><title>Node5&#45;&gt;Node6</title>
<path fill="none" stroke="midnightblue" d="M439.135,-35.4879C447.403,-37.0827 456.325,-38.8039 464.829,-40.4442"/>
<polygon fill="midnightblue" stroke="midnightblue" points="439.575,-32.0084 429.093,-33.551 438.249,-38.8817 439.575,-32.0084"/>
</g>
<!-- Node10 -->
<g id="node10" class="node"><title>Node10</title>
<g id="a_node10"><a xlink:href="drive1_8F90.html#a87bd37ae2c18426f28f35cc3f24e4355" target="_top" xlink:title="initialize nek ">
<polygon fill="white" stroke="black" points="611,-0.5 611,-19.5 664,-19.5 664,-0.5 611,-0.5"/>
<text text-anchor="middle" x="637.5" y="-7.5" font-family="Helvetica,sans-Serif" font-size="10.00">nek_init</text>
</a>
</g>
</g>
<!-- Node5&#45;&gt;Node10 -->
<g id="edge9" class="edge"><title>Node5&#45;&gt;Node10</title>
<path fill="none" stroke="midnightblue" d="M439.551,-26.1992C486.164,-22.3653 568.816,-15.5671 610.672,-12.1244"/>
<polygon fill="midnightblue" stroke="midnightblue" points="439.03,-22.7302 429.351,-27.0382 439.604,-29.7066 439.03,-22.7302"/>
</g>
<!-- Node7 -->
<g id="node7" class="node"><title>Node7</title>
<g id="a_node7"><a xlink:href="drive1_8F90.html#a18d3e839786263fc4cf91f7eeb714371" target="_top" xlink:title="take a chunk of time&#45;steps ">
<polygon fill="white" stroke="black" points="581,-38.5 581,-57.5 694,-57.5 694,-38.5 581,-38.5"/>
<text text-anchor="middle" x="637.5" y="-45.5" font-family="Helvetica,sans-Serif" font-size="10.00">nek__multi_advance</text>
</a>
</g>
</g>
<!-- Node6&#45;&gt;Node7 -->
<g id="edge6" class="edge"><title>Node6&#45;&gt;Node7</title>
<path fill="none" stroke="midnightblue" d="M555.191,-48C563.607,-48 572.403,-48 580.97,-48"/>
<polygon fill="midnightblue" stroke="midnightblue" points="555.154,-44.5001 545.154,-48 555.154,-51.5001 555.154,-44.5001"/>
</g>
<!-- Node8 -->
<g id="node8" class="node"><title>Node8</title>
<g id="a_node8"><a xlink:href="drive1_8F90.html#a6ad57e0cf728f343e371ef8c9a02cd8a" target="_top" xlink:title="integrate the governing equations in time ">
<polygon fill="white" stroke="black" points="730,-38.5 730,-57.5 795,-57.5 795,-38.5 730,-38.5"/>
<text text-anchor="middle" x="762.5" y="-45.5" font-family="Helvetica,sans-Serif" font-size="10.00">nek_solve</text>
</a>
</g>
</g>
<!-- Node7&#45;&gt;Node8 -->
<g id="edge7" class="edge"><title>Node7&#45;&gt;Node8</title>
<path fill="none" stroke="midnightblue" d="M704.282,-48C713.164,-48 721.927,-48 729.824,-48"/>
<polygon fill="midnightblue" stroke="midnightblue" points="704.242,-44.5001 694.242,-48 704.242,-51.5001 704.242,-44.5001"/>
</g>
<!-- Node9 -->
<g id="node9" class="node"><title>Node9</title>
<g id="a_node9"><a xlink:href="drive_8F90.html#a13048bf28dd0734640412d69349e3857" target="_top" xlink:title="NEK5000: Spectral Element Computational Fluid Dynamics Solver COPYRIGHT (c) 2008&#45;2010 UCHICAGO ARGONN...">
<polygon fill="white" stroke="black" points="831,-19.5 831,-38.5 880,-38.5 880,-19.5 831,-19.5"/>
<text text-anchor="middle" x="855.5" y="-26.5" font-family="Helvetica,sans-Serif" font-size="10.00">nekton</text>
</a>
</g>
</g>
<!-- Node8&#45;&gt;Node9 -->
<g id="edge8" class="edge"><title>Node8&#45;&gt;Node9</title>
<path fill="none" stroke="midnightblue" d="M804.906,-39.3548C813.759,-37.5064 822.82,-35.6146 830.734,-33.9622"/>
<polygon fill="midnightblue" stroke="midnightblue" points="804.146,-35.938 795.072,-41.408 805.576,-42.7902 804.146,-35.938"/>
</g>
<!-- Node10&#45;&gt;Node9 -->
<g id="edge10" class="edge"><title>Node10&#45;&gt;Node9</title>
<path fill="none" stroke="midnightblue" d="M674.181,-13.1386C718.547,-17.0412 793.036,-23.5935 830.886,-26.9228"/>
<polygon fill="midnightblue" stroke="midnightblue" points="674.395,-9.64396 664.126,-12.2542 673.781,-16.617 674.395,-9.64396"/>
</g>
</g>
</svg>
