<?xml version="1.0" encoding="UTF-8" standalone="no"?>
<!DOCTYPE svg PUBLIC "-//W3C//DTD SVG 1.1//EN"
 "http://www.w3.org/Graphics/SVG/1.1/DTD/svg11.dtd">
<!-- Generated by graphviz version 2.38.0 (20140413.2041)
 -->
<!-- Title: setvert3d Pages: 1 -->
<!--zoomable 146 -->
<svg id="main" version="1.1" xmlns="http://www.w3.org/2000/svg" xmlns:xlink="http://www.w3.org/1999/xlink" xml:space="preserve" onload="init(evt)">
<style type="text/css"><![CDATA[
.edge:hover path { stroke: red; }
.edge:hover polygon { stroke: red; fill: red; }
]]></style>
<script type="text/javascript"><![CDATA[
var edges = document.getElementsByTagName('g');
if (edges && edges.length) {
  for (var i=0;i<edges.length;i++) {
    if (edges[i].id.substr(0,4)=='edge') {
      edges[i].setAttribute('class','edge');
    }
  }
}
]]></script>
        <defs>
                <circle id="rim" cx="0" cy="0" r="7"/>
                <circle id="rim2" cx="0" cy="0" r="3.5"/>
                <g id="zoomPlus">
                        <use xlink:href="#rim" fill="#404040">
                                <set attributeName="fill" to="#808080" begin="zoomplus.mouseover" end="zoomplus.mouseout"/>
                        </use>
                        <path d="M-4,0h8M0,-4v8" fill="none" stroke="white" stroke-width="1.5" pointer-events="none"/>
                </g>
                <g id="zoomMin">
                        <use xlink:href="#rim" fill="#404040">
                                <set attributeName="fill" to="#808080" begin="zoomminus.mouseover" end="zoomminus.mouseout"/>
                        </use>
                        <path d="M-4,0h8" fill="none" stroke="white" stroke-width="1.5" pointer-events="none"/>
                </g>
                <g id="dirArrow">
                        <path fill="none" stroke="white" stroke-width="1.5" d="M0,-3.0v7 M-2.5,-0.5L0,-3.0L2.5,-0.5"/>
                </g>
               <g id="resetDef">
                       <use xlink:href="#rim2" fill="#404040">
                               <set attributeName="fill" to="#808080" begin="reset.mouseover" end="reset.mouseout"/>
                       </use>
               </g>
        </defs>

<script type="text/javascript">
var viewWidth = 868;
var viewHeight = 146;
var sectionId = 'dynsection-25';
</script>
<script xlink:href="svgpan.js"/>
<svg id="graph" class="graph">
<g id="viewport">
<title>setvert3d</title>
<polygon fill="white" stroke="none" points="-4,4 -4,-141.843 864,-141.843 864,4 -4,4"/>
<!-- Node1 -->
<g id="node1" class="node"><title>Node1</title>
<polygon fill="#bfbfbf" stroke="black" points="0,-78.4998 0,-97.4998 61,-97.4998 61,-78.4998 0,-78.4998"/>
<text text-anchor="middle" x="30.5" y="-85.4998" font-family="Helvetica,sans-Serif" font-size="10.00">setvert3d</text>
</g>
<!-- Node2 -->
<g id="node2" class="node"><title>Node2</title>
<g id="a_node2"><a xlink:href="navier8_8F90.html#a51b2c2d951e069b7ffa9a395b2def117" target="_top" xlink:title="Given global array, vertex, pointing to hex vertices, set up a new array of global pointers for an nx...">
<polygon fill="white" stroke="black" points="97,-78.4998 97,-97.4998 152,-97.4998 152,-78.4998 97,-78.4998"/>
<text text-anchor="middle" x="124.5" y="-85.4998" font-family="Helvetica,sans-Serif" font-size="10.00">set_vert</text>
</a>
</g>
</g>
<!-- Node1&#45;&gt;Node2 -->
<g id="edge1" class="edge"><title>Node1&#45;&gt;Node2</title>
<path fill="none" stroke="midnightblue" d="M71.3545,-87.9998C79.9339,-87.9998 88.8037,-87.9998 96.7411,-87.9998"/>
<polygon fill="midnightblue" stroke="midnightblue" points="71.1158,-84.4999 61.1158,-87.9998 71.1158,-91.4999 71.1158,-84.4999"/>
</g>
<!-- Node3 -->
<g id="node3" class="node"><title>Node3</title>
<g id="a_node3"><a xlink:href="navier8_8F90.html#a809b9aa647f2046d09131be2f6074ff6" target="_top" xlink:title="? ">
<polygon fill="white" stroke="black" points="188,-111.5 188,-130.5 274,-130.5 274,-111.5 188,-111.5"/>
<text text-anchor="middle" x="231" y="-118.5" font-family="Helvetica,sans-Serif" font-size="10.00">set_up_h1_crs</text>
</a>
</g>
</g>
<!-- Node2&#45;&gt;Node3 -->
<g id="edge2" class="edge"><title>Node2&#45;&gt;Node3</title>
<path fill="none" stroke="midnightblue" d="M161.731,-99.4412C174.121,-103.354 187.841,-107.687 199.713,-111.435"/>
<polygon fill="midnightblue" stroke="midnightblue" points="162.73,-96.0864 152.14,-96.4125 160.622,-102.761 162.73,-96.0864"/>
</g>
<!-- Node7 -->
<g id="node7" class="node"><title>Node7</title>
<g id="a_node7"><a xlink:href="dssum_8F90.html#ac67af3a4cc3a2c90a8d596c8ab69e395" target="_top" xlink:title="setup data structures for direct stiffness operations ">
<polygon fill="white" stroke="black" points="204.5,-46.4998 204.5,-65.4998 257.5,-65.4998 257.5,-46.4998 204.5,-46.4998"/>
<text text-anchor="middle" x="231" y="-53.4998" font-family="Helvetica,sans-Serif" font-size="10.00">setupds</text>
</a>
</g>
</g>
<!-- Node2&#45;&gt;Node7 -->
<g id="edge6" class="edge"><title>Node2&#45;&gt;Node7</title>
<path fill="none" stroke="midnightblue" d="M161.992,-76.8254C176.017,-72.5306 191.713,-67.724 204.49,-63.8116"/>
<polygon fill="midnightblue" stroke="midnightblue" points="160.677,-73.5674 152.14,-79.8421 162.727,-80.2606 160.677,-73.5674"/>
</g>
<!-- Node4 -->
<g id="node4" class="node"><title>Node4</title>
<g id="a_node4"><a xlink:href="navier6_8F90.html#a45317b1def173b8f1db2e5083595d095" target="_top" xlink:title="Set up arrays for overlapping Schwartz algorithm for pressure solver ">
<polygon fill="white" stroke="black" points="614,-56.4998 614,-75.4998 686,-75.4998 686,-56.4998 614,-56.4998"/>
<text text-anchor="middle" x="650" y="-63.4998" font-family="Helvetica,sans-Serif" font-size="10.00">set_overlap</text>
</a>
</g>
</g>
<!-- Node3&#45;&gt;Node4 -->
<g id="edge3" class="edge"><title>Node3&#45;&gt;Node4</title>
<path fill="none" stroke="midnightblue" d="M284.196,-129.266C353.285,-138.168 478.024,-147.103 578,-115 602.527,-107.124 626.146,-87.712 639.006,-75.8208"/>
<polygon fill="midnightblue" stroke="midnightblue" points="284.383,-125.76 274.006,-127.901 283.453,-132.698 284.383,-125.76"/>
</g>
<!-- Node5 -->
<g id="node5" class="node"><title>Node5</title>
<g id="a_node5"><a xlink:href="drive1_8F90.html#a87bd37ae2c18426f28f35cc3f24e4355" target="_top" xlink:title="initialize nek ">
<polygon fill="white" stroke="black" points="722,-37.4998 722,-56.4998 775,-56.4998 775,-37.4998 722,-37.4998"/>
<text text-anchor="middle" x="748.5" y="-44.4998" font-family="Helvetica,sans-Serif" font-size="10.00">nek_init</text>
</a>
</g>
</g>
<!-- Node4&#45;&gt;Node5 -->
<g id="edge4" class="edge"><title>Node4&#45;&gt;Node5</title>
<path fill="none" stroke="midnightblue" d="M696.029,-57.134C704.926,-55.3823 713.97,-53.6017 721.943,-52.0319"/>
<polygon fill="midnightblue" stroke="midnightblue" points="695.247,-53.7207 686.112,-59.0867 696.599,-60.5888 695.247,-53.7207"/>
</g>
<!-- Node6 -->
<g id="node6" class="node"><title>Node6</title>
<g id="a_node6"><a xlink:href="drive_8F90.html#a13048bf28dd0734640412d69349e3857" target="_top" xlink:title="NEK5000: Spectral Element Computational Fluid Dynamics Solver COPYRIGHT (c) 2008&#45;2010 UCHICAGO ARGONN...">
<polygon fill="white" stroke="black" points="811,-37.4998 811,-56.4998 860,-56.4998 860,-37.4998 811,-37.4998"/>
<text text-anchor="middle" x="835.5" y="-44.4998" font-family="Helvetica,sans-Serif" font-size="10.00">nekton</text>
</a>
</g>
</g>
<!-- Node5&#45;&gt;Node6 -->
<g id="edge5" class="edge"><title>Node5&#45;&gt;Node6</title>
<path fill="none" stroke="midnightblue" d="M785.227,-46.9998C793.846,-46.9998 802.845,-46.9998 810.759,-46.9998"/>
<polygon fill="midnightblue" stroke="midnightblue" points="785.003,-43.4999 775.003,-46.9998 785.003,-50.4999 785.003,-43.4999"/>
</g>
<!-- Node8 -->
<g id="node8" class="node"><title>Node8</title>
<g id="a_node8"><a xlink:href="classhsmg__routines.html#ae77d2725d2058f12595e58c677dca8f2" target="_top" xlink:title="hsmg_routines::h1mg\l_setup_dssum">
<polygon fill="white" stroke="black" points="310,-75.9998 310,-106 426,-106 426,-75.9998 310,-75.9998"/>
<text text-anchor="start" x="318" y="-93.9998" font-family="Helvetica,sans-Serif" font-size="10.00">hsmg_routines::h1mg</text>
<text text-anchor="middle" x="368" y="-82.9998" font-family="Helvetica,sans-Serif" font-size="10.00">_setup_dssum</text>
</a>
</g>
</g>
<!-- Node7&#45;&gt;Node8 -->
<g id="edge7" class="edge"><title>Node7&#45;&gt;Node8</title>
<path fill="none" stroke="midnightblue" d="M267.59,-65.2269C280.514,-68.5776 295.466,-72.454 309.785,-76.1664"/>
<polygon fill="midnightblue" stroke="midnightblue" points="268.269,-61.7872 257.71,-62.6655 266.512,-68.5632 268.269,-61.7872"/>
</g>
<!-- Node10 -->
<g id="node10" class="node"><title>Node10</title>
<g id="a_node10"><a xlink:href="classhsmg__routines.html#ac8ad367a9256351c66da876bb6c8d936" target="_top" xlink:title="hsmg_routines::hsmg\l_setup_dssum">
<polygon fill="white" stroke="black" points="310,-26.9998 310,-56.9998 426,-56.9998 426,-26.9998 310,-26.9998"/>
<text text-anchor="start" x="318" y="-44.9998" font-family="Helvetica,sans-Serif" font-size="10.00">hsmg_routines::hsmg</text>
<text text-anchor="middle" x="368" y="-33.9998" font-family="Helvetica,sans-Serif" font-size="10.00">_setup_dssum</text>
</a>
</g>
</g>
<!-- Node7&#45;&gt;Node10 -->
<g id="edge10" class="edge"><title>Node7&#45;&gt;Node10</title>
<path fill="none" stroke="midnightblue" d="M267.974,-52.2692C280.81,-50.938 295.608,-49.4035 309.785,-47.9332"/>
<polygon fill="midnightblue" stroke="midnightblue" points="267.296,-48.8207 257.71,-53.3336 268.018,-55.7833 267.296,-48.8207"/>
</g>
<!-- Node12 -->
<g id="node12" class="node"><title>Node12</title>
<g id="a_node12"><a xlink:href="connect1_8F90.html#ad619b0e5766c6f9dd44ae5c8b6f485f0" target="_top" xlink:title="Parallel compatible routine to find connectivity of element structure. On Processor 0: ...">
<polygon fill="white" stroke="black" points="615.5,-3.49985 615.5,-22.4998 684.5,-22.4998 684.5,-3.49985 615.5,-3.49985"/>
<text text-anchor="middle" x="650" y="-10.4998" font-family="Helvetica,sans-Serif" font-size="10.00">setup_topo</text>
</a>
</g>
</g>
<!-- Node7&#45;&gt;Node12 -->
<g id="edge13" class="edge"><title>Node7&#45;&gt;Node12</title>
<path fill="none" stroke="midnightblue" d="M254.773,-41.1561C269.788,-32.2633 290.26,-21.783 310,-16.9998 418.972,9.40452 553.482,-1.27326 615.18,-8.46581"/>
<polygon fill="midnightblue" stroke="midnightblue" points="252.88,-38.2115 246.185,-46.4229 256.539,-44.1789 252.88,-38.2115"/>
</g>
<!-- Node9 -->
<g id="node9" class="node"><title>Node9</title>
<g id="a_node9"><a xlink:href="classhsmg__routines.html#a91e8aa59d56bbf05d75aa9c48bcd8977" target="_top" xlink:title="Sets up Poisson preconditioner. ">
<polygon fill="white" stroke="black" points="462,-75.9998 462,-106 578,-106 578,-75.9998 462,-75.9998"/>
<text text-anchor="start" x="470" y="-93.9998" font-family="Helvetica,sans-Serif" font-size="10.00">hsmg_routines::h1mg</text>
<text text-anchor="middle" x="520" y="-82.9998" font-family="Helvetica,sans-Serif" font-size="10.00">_setup</text>
</a>
</g>
</g>
<!-- Node8&#45;&gt;Node9 -->
<g id="edge8" class="edge"><title>Node8&#45;&gt;Node9</title>
<path fill="none" stroke="midnightblue" d="M436.311,-90.9998C444.728,-90.9998 453.277,-90.9998 461.525,-90.9998"/>
<polygon fill="midnightblue" stroke="midnightblue" points="436.137,-87.4999 426.136,-90.9998 436.136,-94.4999 436.137,-87.4999"/>
</g>
<!-- Node9&#45;&gt;Node4 -->
<g id="edge9" class="edge"><title>Node9&#45;&gt;Node4</title>
<path fill="none" stroke="midnightblue" d="M588.236,-77.8678C597.072,-76.1421 605.825,-74.4325 613.82,-72.871"/>
<polygon fill="midnightblue" stroke="midnightblue" points="587.405,-74.464 578.261,-79.816 588.747,-81.3341 587.405,-74.464"/>
</g>
<!-- Node11 -->
<g id="node11" class="node"><title>Node11</title>
<g id="a_node11"><a xlink:href="classhsmg__routines.html#ac8f9bca9624d5e550d70acabfa8aef73" target="_top" xlink:title="Sets up hybrid Schwarz multi&#45;grid preconditioner. ">
<polygon fill="white" stroke="black" points="462,-26.9998 462,-56.9998 578,-56.9998 578,-26.9998 462,-26.9998"/>
<text text-anchor="start" x="470" y="-44.9998" font-family="Helvetica,sans-Serif" font-size="10.00">hsmg_routines::hsmg</text>
<text text-anchor="middle" x="520" y="-33.9998" font-family="Helvetica,sans-Serif" font-size="10.00">_setup</text>
</a>
</g>
</g>
<!-- Node10&#45;&gt;Node11 -->
<g id="edge11" class="edge"><title>Node10&#45;&gt;Node11</title>
<path fill="none" stroke="midnightblue" d="M436.311,-41.9998C444.728,-41.9998 453.277,-41.9998 461.525,-41.9998"/>
<polygon fill="midnightblue" stroke="midnightblue" points="436.137,-38.4999 426.136,-41.9998 436.136,-45.4999 436.137,-38.4999"/>
</g>
<!-- Node11&#45;&gt;Node4 -->
<g id="edge12" class="edge"><title>Node11&#45;&gt;Node4</title>
<path fill="none" stroke="midnightblue" d="M588.236,-54.6066C597.072,-56.2633 605.825,-57.9045 613.82,-59.4035"/>
<polygon fill="midnightblue" stroke="midnightblue" points="588.735,-51.1392 578.261,-52.7363 587.445,-58.0193 588.735,-51.1392"/>
</g>
<!-- Node12&#45;&gt;Node5 -->
<g id="edge14" class="edge"><title>Node12&#45;&gt;Node5</title>
<path fill="none" stroke="midnightblue" d="M687.826,-25.975C699.193,-29.9796 711.456,-34.3005 721.892,-37.9774"/>
<polygon fill="midnightblue" stroke="midnightblue" points="688.732,-22.5833 678.137,-22.5612 686.406,-29.1855 688.732,-22.5833"/>
</g>
</g>
</svg>
        <g id="navigator" transform="translate(0 0)" fill="#404254">
                <rect fill="#f2f5e9" fill-opacity="0.5" stroke="#606060" stroke-width=".5" x="0" y="0" width="60" height="60"/>
                <use id="zoomplus" xlink:href="#zoomPlus" x="17" y="9" onmousedown="handleZoom(evt,'in')"/>
                <use id="zoomminus" xlink:href="#zoomMin" x="42" y="9" onmousedown="handleZoom(evt,'out')"/>
                <use id="reset" xlink:href="#resetDef" x="30" y="36" onmousedown="handleReset()"/>
                <g id="arrowUp" xlink:href="#dirArrow" transform="translate(30 24)" onmousedown="handlePan(0,-1)">
                  <use xlink:href="#rim" fill="#404040">
                        <set attributeName="fill" to="#808080" begin="arrowUp.mouseover" end="arrowUp.mouseout"/>
                  </use>
                  <path fill="none" stroke="white" stroke-width="1.5" d="M0,-3.0v7 M-2.5,-0.5L0,-3.0L2.5,-0.5"/>
                </g>
                <g id="arrowRight" xlink:href="#dirArrow" transform="rotate(90) translate(36 -43)" onmousedown="handlePan(1,0)">
                  <use xlink:href="#rim" fill="#404040">
                        <set attributeName="fill" to="#808080" begin="arrowRight.mouseover" end="arrowRight.mouseout"/>
                  </use>
                  <path fill="none" stroke="white" stroke-width="1.5" d="M0,-3.0v7 M-2.5,-0.5L0,-3.0L2.5,-0.5"/>
                </g>
                <g id="arrowDown" xlink:href="#dirArrow" transform="rotate(180) translate(-30 -48)" onmousedown="handlePan(0,1)">
                  <use xlink:href="#rim" fill="#404040">
                        <set attributeName="fill" to="#808080" begin="arrowDown.mouseover" end="arrowDown.mouseout"/>
                  </use>
                  <path fill="none" stroke="white" stroke-width="1.5" d="M0,-3.0v7 M-2.5,-0.5L0,-3.0L2.5,-0.5"/>
                </g>
                <g id="arrowLeft" xlink:href="#dirArrow" transform="rotate(270) translate(-36 17)" onmousedown="handlePan(-1,0)">
                  <use xlink:href="#rim" fill="#404040">
                        <set attributeName="fill" to="#808080" begin="arrowLeft.mouseover" end="arrowLeft.mouseout"/>
                  </use>
                  <path fill="none" stroke="white" stroke-width="1.5" d="M0,-3.0v7 M-2.5,-0.5L0,-3.0L2.5,-0.5"/>
                </g>
        </g>
        <svg viewBox="0 0 15 15" width="100%" height="30px" preserveAspectRatio="xMaxYMin meet">
         <g id="arrow_out" transform="scale(0.3 0.3)">
          <a xlink:href="navier8_8F90_a928aff746415692c89ffdfbaf08fd98d_icgraph_org.svg" target="_base">
           <rect id="button" ry="5" rx="5" y="6" x="6" height="38" width="38"
                fill="#f2f5e9" fill-opacity="0.5" stroke="#606060" stroke-width="1.0"/>
           <path id="arrow"
             d="M 11.500037,31.436501 C 11.940474,20.09759 22.043105,11.32322 32.158766,21.979434 L 37.068811,17.246167 C 37.068811,17.246167 37.088388,32 37.088388,32 L 22.160133,31.978069 C 22.160133,31.978069 26.997745,27.140456 26.997745,27.140456 C 18.528582,18.264221 13.291696,25.230495 11.500037,31.436501 z"
             style="fill:#404040;"/>
          </a>
         </g>
        </svg>
</svg>
