<?xml version="1.0" encoding="UTF-8" standalone="no"?>
<!DOCTYPE svg PUBLIC "-//W3C//DTD SVG 1.1//EN"
 "http://www.w3.org/Graphics/SVG/1.1/DTD/svg11.dtd">
<!-- Generated by graphviz version 2.38.0 (20140413.2041)
 -->
<!-- Title: opdiv Pages: 1 -->
<!--zoomable 940 -->
<svg id="main" version="1.1" xmlns="http://www.w3.org/2000/svg" xmlns:xlink="http://www.w3.org/1999/xlink" xml:space="preserve" onload="init(evt)">
<style type="text/css"><![CDATA[
.edge:hover path { stroke: red; }
.edge:hover polygon { stroke: red; fill: red; }
]]></style>
<script type="text/javascript"><![CDATA[
var edges = document.getElementsByTagName('g');
if (edges && edges.length) {
  for (var i=0;i<edges.length;i++) {
    if (edges[i].id.substr(0,4)=='edge') {
      edges[i].setAttribute('class','edge');
    }
  }
}
]]></script>
        <defs>
                <circle id="rim" cx="0" cy="0" r="7"/>
                <circle id="rim2" cx="0" cy="0" r="3.5"/>
                <g id="zoomPlus">
                        <use xlink:href="#rim" fill="#404040">
                                <set attributeName="fill" to="#808080" begin="zoomplus.mouseover" end="zoomplus.mouseout"/>
                        </use>
                        <path d="M-4,0h8M0,-4v8" fill="none" stroke="white" stroke-width="1.5" pointer-events="none"/>
                </g>
                <g id="zoomMin">
                        <use xlink:href="#rim" fill="#404040">
                                <set attributeName="fill" to="#808080" begin="zoomminus.mouseover" end="zoomminus.mouseout"/>
                        </use>
                        <path d="M-4,0h8" fill="none" stroke="white" stroke-width="1.5" pointer-events="none"/>
                </g>
                <g id="dirArrow">
                        <path fill="none" stroke="white" stroke-width="1.5" d="M0,-3.0v7 M-2.5,-0.5L0,-3.0L2.5,-0.5"/>
                </g>
               <g id="resetDef">
                       <use xlink:href="#rim2" fill="#404040">
                               <set attributeName="fill" to="#808080" begin="reset.mouseover" end="reset.mouseout"/>
                       </use>
               </g>
        </defs>

<script type="text/javascript">
var viewWidth = 474;
var viewHeight = 940;
var sectionId = 'dynsection-31';
</script>
<script xlink:href="svgpan.js"/>
<svg id="graph" class="graph">
<g id="viewport">
<title>opdiv</title>
<polygon fill="white" stroke="none" points="-4,4 -4,-936 470,-936 470,4 -4,4"/>
<!-- Node1 -->
<g id="node1" class="node"><title>Node1</title>
<polygon fill="#bfbfbf" stroke="black" points="0,-760.5 0,-779.5 42,-779.5 42,-760.5 0,-760.5"/>
<text text-anchor="middle" x="21" y="-767.5" font-family="Helvetica,sans-Serif" font-size="10.00">opdiv</text>
</g>
<!-- Node2 -->
<g id="node2" class="node"><title>Node2</title>
<g id="a_node2"><a xlink:href="math_8F90.html#a3b43508554f14bdea8e14473d7d0803c" target="_top" xlink:title="copy">
<polygon fill="white" stroke="black" points="184,-798.5 184,-817.5 223,-817.5 223,-798.5 184,-798.5"/>
<text text-anchor="middle" x="203.5" y="-805.5" font-family="Helvetica,sans-Serif" font-size="10.00">copy</text>
</a>
</g>
</g>
<!-- Node1&#45;&gt;Node2 -->
<g id="edge1" class="edge"><title>Node1&#45;&gt;Node2</title>
<path fill="none" stroke="midnightblue" d="M42.226,-777.822C52.7607,-781.65 65.9314,-786.056 78,-789 110.341,-796.889 148.249,-802.115 173.664,-805.055"/>
<polygon fill="midnightblue" stroke="midnightblue" points="173.413,-808.548 183.739,-806.176 174.187,-801.591 173.413,-808.548"/>
</g>
<!-- Node3 -->
<g id="node3" class="node"><title>Node3</title>
<g id="a_node3"><a xlink:href="navier1_8F90.html#ae2a342d8b6189bd500acbcc1cac1c757" target="_top" xlink:title="Compute D*X . X : input variable, defined on M1 DX : output variable, defined on M2 (note: D is recta...">
<polygon fill="white" stroke="black" points="78,-760.5 78,-779.5 119,-779.5 119,-760.5 78,-760.5"/>
<text text-anchor="middle" x="98.5" y="-767.5" font-family="Helvetica,sans-Serif" font-size="10.00">multd</text>
</a>
</g>
</g>
<!-- Node1&#45;&gt;Node3 -->
<g id="edge2" class="edge"><title>Node1&#45;&gt;Node3</title>
<path fill="none" stroke="midnightblue" d="M42.2326,-770C50.1202,-770 59.3188,-770 67.9225,-770"/>
<polygon fill="midnightblue" stroke="midnightblue" points="67.994,-773.5 77.994,-770 67.994,-766.5 67.994,-773.5"/>
</g>
<!-- Node6 -->
<g id="node6" class="node"><title>Node6</title>
<g id="a_node6"><a xlink:href="mxm__wrapper_8F90.html#ab9ec2260a10061af6ce1c52f3c8a41da" target="_top" xlink:title="Compute matrix&#45;matrix product C = A*B. ">
<polygon fill="white" stroke="black" points="184.5,-722.5 184.5,-741.5 222.5,-741.5 222.5,-722.5 184.5,-722.5"/>
<text text-anchor="middle" x="203.5" y="-729.5" font-family="Helvetica,sans-Serif" font-size="10.00">mxm</text>
</a>
</g>
</g>
<!-- Node1&#45;&gt;Node6 -->
<g id="edge40" class="edge"><title>Node1&#45;&gt;Node6</title>
<path fill="none" stroke="midnightblue" d="M42.226,-762.178C52.7607,-758.35 65.9314,-753.944 78,-751 110.527,-743.065 148.685,-737.825 174.101,-734.895"/>
<polygon fill="midnightblue" stroke="midnightblue" points="174.607,-738.36 184.16,-733.779 173.835,-731.403 174.607,-738.36"/>
</g>
<!-- Node3&#45;&gt;Node2 -->
<g id="edge3" class="edge"><title>Node3&#45;&gt;Node2</title>
<path fill="none" stroke="midnightblue" d="M119.359,-777.327C134.899,-783.06 156.714,-791.108 174.1,-797.522"/>
<polygon fill="midnightblue" stroke="midnightblue" points="173.15,-800.902 183.743,-801.08 175.573,-794.335 173.15,-800.902"/>
</g>
<!-- Node4 -->
<g id="node4" class="node"><title>Node4</title>
<g id="a_node4"><a xlink:href="classctimer.html#abcecbc845c8ee72e13a19eaa30b80d77" target="_top" xlink:title="ctimer::dnekclock">
<polygon fill="white" stroke="black" points="155,-760.5 155,-779.5 252,-779.5 252,-760.5 155,-760.5"/>
<text text-anchor="middle" x="203.5" y="-767.5" font-family="Helvetica,sans-Serif" font-size="10.00">ctimer::dnekclock</text>
</a>
</g>
</g>
<!-- Node3&#45;&gt;Node4 -->
<g id="edge4" class="edge"><title>Node3&#45;&gt;Node4</title>
<path fill="none" stroke="midnightblue" d="M119.359,-770C126.829,-770 135.749,-770 144.93,-770"/>
<polygon fill="midnightblue" stroke="midnightblue" points="144.938,-773.5 154.938,-770 144.938,-766.5 144.938,-773.5"/>
</g>
<!-- Node3&#45;&gt;Node6 -->
<g id="edge6" class="edge"><title>Node3&#45;&gt;Node6</title>
<path fill="none" stroke="midnightblue" d="M119.359,-762.673C135.095,-756.868 157.264,-748.689 174.754,-742.237"/>
<polygon fill="midnightblue" stroke="midnightblue" points="176.256,-745.413 184.426,-738.668 173.833,-738.846 176.256,-745.413"/>
</g>
<!-- Node5 -->
<g id="node5" class="node"><title>Node5</title>
<g id="a_node5"><a xlink:href="mpi__dummy_8F90.html#ae6a5ef945f87c2c27849696b70f3af2a" target="_top" xlink:title="mpi_wtime">
<polygon fill="white" stroke="black" points="295,-874.5 295,-893.5 361,-893.5 361,-874.5 295,-874.5"/>
<text text-anchor="middle" x="328" y="-881.5" font-family="Helvetica,sans-Serif" font-size="10.00">mpi_wtime</text>
</a>
</g>
</g>
<!-- Node4&#45;&gt;Node5 -->
<g id="edge5" class="edge"><title>Node4&#45;&gt;Node5</title>
<path fill="none" stroke="midnightblue" d="M237.501,-779.556C242.741,-782.057 247.806,-785.163 252,-789 278.103,-812.883 264.034,-833.973 288,-860 290.969,-863.224 294.467,-866.172 298.13,-868.814"/>
<polygon fill="midnightblue" stroke="midnightblue" points="296.501,-871.928 306.801,-874.408 300.295,-866.046 296.501,-871.928"/>
</g>
<!-- Node7 -->
<g id="node7" class="node"><title>Node7</title>
<g id="a_node7"><a xlink:href="mxm__std_8F90.html#ac63fe7516a18dc57dfe913ad2c1453be" target="_top" xlink:title="mxm44_0">
<polygon fill="white" stroke="black" points="404,-912.5 404,-931.5 466,-931.5 466,-912.5 404,-912.5"/>
<text text-anchor="middle" x="435" y="-919.5" font-family="Helvetica,sans-Serif" font-size="10.00">mxm44_0</text>
</a>
</g>
</g>
<!-- Node6&#45;&gt;Node7 -->
<g id="edge7" class="edge"><title>Node6&#45;&gt;Node7</title>
<path fill="none" stroke="midnightblue" d="M222.962,-735.929C232.58,-738.763 243.975,-743.457 252,-751 279.233,-776.599 261.586,-800.557 288,-827 315.819,-854.849 336.146,-841.875 368,-865 386.827,-878.667 386.035,-888.218 404,-903 405.535,-904.263 407.16,-905.51 408.827,-906.724"/>
<polygon fill="midnightblue" stroke="midnightblue" points="407.053,-909.749 417.298,-912.449 410.973,-903.949 407.053,-909.749"/>
</g>
<!-- Node8 -->
<g id="node8" class="node"><title>Node8</title>
<g id="a_node8"><a xlink:href="mxm__std_8F90.html#af07f4b22fdc3488ca321736743f14b01" target="_top" xlink:title="mxm44_2">
<polygon fill="white" stroke="black" points="297,-798.5 297,-817.5 359,-817.5 359,-798.5 297,-798.5"/>
<text text-anchor="middle" x="328" y="-805.5" font-family="Helvetica,sans-Serif" font-size="10.00">mxm44_2</text>
</a>
</g>
</g>
<!-- Node6&#45;&gt;Node8 -->
<g id="edge8" class="edge"><title>Node6&#45;&gt;Node8</title>
<path fill="none" stroke="midnightblue" d="M222.55,-737.164C231.827,-740.313 243.035,-744.913 252,-751 271.247,-764.068 269.241,-775.24 288,-789 290.201,-790.615 292.561,-792.153 294.991,-793.605"/>
<polygon fill="midnightblue" stroke="midnightblue" points="293.476,-796.765 303.934,-798.46 296.816,-790.613 293.476,-796.765"/>
</g>
<!-- Node9 -->
<g id="node9" class="node"><title>Node9</title>
<g id="a_node9"><a xlink:href="mxm__bgq_8F90.html#a8a70163b4dbfdbfcce7bff170597fcad" target="_top" xlink:title="mxm_bgq_10">
<polygon fill="white" stroke="black" points="288,-760.5 288,-779.5 368,-779.5 368,-760.5 288,-760.5"/>
<text text-anchor="middle" x="328" y="-767.5" font-family="Helvetica,sans-Serif" font-size="10.00">mxm_bgq_10</text>
</a>
</g>
</g>
<!-- Node6&#45;&gt;Node9 -->
<g id="edge9" class="edge"><title>Node6&#45;&gt;Node9</title>
<path fill="none" stroke="midnightblue" d="M222.575,-737.607C239.312,-742.799 264.801,-750.706 286.406,-757.408"/>
<polygon fill="midnightblue" stroke="midnightblue" points="285.426,-760.768 296.014,-760.388 287.5,-754.082 285.426,-760.768"/>
</g>
<!-- Node10 -->
<g id="node10" class="node"><title>Node10</title>
<g id="a_node10"><a xlink:href="mxm__bgq_8F90.html#a27529ace9834454b8906f29e02718629" target="_top" xlink:title="mxm_bgq_12">
<polygon fill="white" stroke="black" points="288,-722.5 288,-741.5 368,-741.5 368,-722.5 288,-722.5"/>
<text text-anchor="middle" x="328" y="-729.5" font-family="Helvetica,sans-Serif" font-size="10.00">mxm_bgq_12</text>
</a>
</g>
</g>
<!-- Node6&#45;&gt;Node10 -->
<g id="edge10" class="edge"><title>Node6&#45;&gt;Node10</title>
<path fill="none" stroke="midnightblue" d="M222.575,-732C237.074,-732 258.139,-732 277.559,-732"/>
<polygon fill="midnightblue" stroke="midnightblue" points="277.822,-735.5 287.822,-732 277.822,-728.5 277.822,-735.5"/>
</g>
<!-- Node11 -->
<g id="node11" class="node"><title>Node11</title>
<g id="a_node11"><a xlink:href="mxm__bgq_8F90.html#a3fda9ea4bc7a5713a19d6939fa2b541f" target="_top" xlink:title="mxm_bgq_16">
<polygon fill="white" stroke="black" points="288,-684.5 288,-703.5 368,-703.5 368,-684.5 288,-684.5"/>
<text text-anchor="middle" x="328" y="-691.5" font-family="Helvetica,sans-Serif" font-size="10.00">mxm_bgq_16</text>
</a>
</g>
</g>
<!-- Node6&#45;&gt;Node11 -->
<g id="edge11" class="edge"><title>Node6&#45;&gt;Node11</title>
<path fill="none" stroke="midnightblue" d="M222.575,-726.393C239.312,-721.201 264.801,-713.294 286.406,-706.592"/>
<polygon fill="midnightblue" stroke="midnightblue" points="287.5,-709.918 296.014,-703.612 285.426,-703.232 287.5,-709.918"/>
</g>
<!-- Node12 -->
<g id="node12" class="node"><title>Node12</title>
<g id="a_node12"><a xlink:href="mxm__bgq_8F90.html#af192c3c8b982aa5bbc2a757156718a91" target="_top" xlink:title="mxm_bgq_6">
<polygon fill="white" stroke="black" points="291,-646.5 291,-665.5 365,-665.5 365,-646.5 291,-646.5"/>
<text text-anchor="middle" x="328" y="-653.5" font-family="Helvetica,sans-Serif" font-size="10.00">mxm_bgq_6</text>
</a>
</g>
</g>
<!-- Node6&#45;&gt;Node12 -->
<g id="edge12" class="edge"><title>Node6&#45;&gt;Node12</title>
<path fill="none" stroke="midnightblue" d="M217.419,-722.306C233.508,-710.442 262.045,-690.074 288,-675 290.866,-673.336 293.898,-671.682 296.956,-670.085"/>
<polygon fill="midnightblue" stroke="midnightblue" points="298.699,-673.126 306.062,-665.508 295.555,-666.872 298.699,-673.126"/>
</g>
<!-- Node13 -->
<g id="node13" class="node"><title>Node13</title>
<g id="a_node13"><a xlink:href="mxm__bgq_8F90.html#a8faaef428336095704ece51624bbfe92" target="_top" xlink:title="mxm_bgq_8">
<polygon fill="white" stroke="black" points="291,-608.5 291,-627.5 365,-627.5 365,-608.5 291,-608.5"/>
<text text-anchor="middle" x="328" y="-615.5" font-family="Helvetica,sans-Serif" font-size="10.00">mxm_bgq_8</text>
</a>
</g>
</g>
<!-- Node6&#45;&gt;Node13 -->
<g id="edge13" class="edge"><title>Node6&#45;&gt;Node13</title>
<path fill="none" stroke="midnightblue" d="M211.059,-722.241C223.955,-703.645 254.302,-662.699 288,-637 290.044,-635.441 292.235,-633.961 294.5,-632.565"/>
<polygon fill="midnightblue" stroke="midnightblue" points="296.38,-635.525 303.43,-627.616 292.987,-629.402 296.38,-635.525"/>
</g>
<!-- Node14 -->
<g id="node14" class="node"><title>Node14</title>
<g id="a_node14"><a xlink:href="mxm__std_8F90.html#aa9e8685c4a72f18fb5d1ee88ed17a3d6" target="_top" xlink:title="unrolled loop version ">
<polygon fill="white" stroke="black" points="304.5,-475.5 304.5,-494.5 351.5,-494.5 351.5,-475.5 304.5,-475.5"/>
<text text-anchor="middle" x="328" y="-482.5" font-family="Helvetica,sans-Serif" font-size="10.00">mxmf2</text>
</a>
</g>
</g>
<!-- Node6&#45;&gt;Node14 -->
<g id="edge14" class="edge"><title>Node6&#45;&gt;Node14</title>
<path fill="none" stroke="midnightblue" d="M209.302,-722.317C227.597,-685.429 293.134,-553.285 317.653,-503.846"/>
<polygon fill="midnightblue" stroke="midnightblue" points="320.923,-505.13 322.231,-494.616 314.652,-502.019 320.923,-505.13"/>
</g>
<!-- Node14&#45;&gt;Node7 -->
<g id="edge39" class="edge"><title>Node14&#45;&gt;Node7</title>
<path fill="none" stroke="midnightblue" d="M333.046,-494.559C341.058,-513.901 358.949,-559.227 368,-599 398.189,-731.664 331.493,-787.875 404,-903 404.591,-903.939 405.248,-904.84 405.958,-905.703"/>
<polygon fill="midnightblue" stroke="midnightblue" points="403.687,-908.369 413.45,-912.484 408.384,-903.179 403.687,-908.369"/>
</g>
<!-- Node15 -->
<g id="node15" class="node"><title>Node15</title>
<g id="a_node15"><a xlink:href="mxm__std_8F90.html#a7d3ac03517b3934b98857b22f7f78788" target="_top" xlink:title="mxf1">
<polygon fill="white" stroke="black" points="415.5,-874.5 415.5,-893.5 454.5,-893.5 454.5,-874.5 415.5,-874.5"/>
<text text-anchor="middle" x="435" y="-881.5" font-family="Helvetica,sans-Serif" font-size="10.00">mxf1</text>
</a>
</g>
</g>
<!-- Node14&#45;&gt;Node15 -->
<g id="edge15" class="edge"><title>Node14&#45;&gt;Node15</title>
<path fill="none" stroke="midnightblue" d="M332.99,-494.572C340.901,-513.938 358.619,-559.304 368,-599 395.438,-715.102 339.584,-764.585 404,-865 404.961,-866.498 406.087,-867.9 407.329,-869.209"/>
<polygon fill="midnightblue" stroke="midnightblue" points="405.379,-872.134 415.357,-875.697 409.78,-866.689 405.379,-872.134"/>
</g>
<!-- Node16 -->
<g id="node16" class="node"><title>Node16</title>
<g id="a_node16"><a xlink:href="mxm__std_8F90.html#a5786b175fcbe28ecafe1d878687c3ccf" target="_top" xlink:title="mxf10">
<polygon fill="white" stroke="black" points="412.5,-836.5 412.5,-855.5 457.5,-855.5 457.5,-836.5 412.5,-836.5"/>
<text text-anchor="middle" x="435" y="-843.5" font-family="Helvetica,sans-Serif" font-size="10.00">mxf10</text>
</a>
</g>
</g>
<!-- Node14&#45;&gt;Node16 -->
<g id="edge16" class="edge"><title>Node14&#45;&gt;Node16</title>
<path fill="none" stroke="midnightblue" d="M332.915,-494.59C340.692,-513.988 358.181,-559.41 368,-599 392.696,-698.572 347.658,-741.268 404,-827 404.609,-827.927 405.282,-828.818 406.004,-829.673"/>
<polygon fill="midnightblue" stroke="midnightblue" points="403.769,-832.37 413.562,-836.412 408.428,-827.145 403.769,-832.37"/>
</g>
<!-- Node17 -->
<g id="node17" class="node"><title>Node17</title>
<g id="a_node17"><a xlink:href="mxm__std_8F90.html#a244c7a41b5b7a22acba71c34552c2774" target="_top" xlink:title="mxf11">
<polygon fill="white" stroke="black" points="412.5,-798.5 412.5,-817.5 457.5,-817.5 457.5,-798.5 412.5,-798.5"/>
<text text-anchor="middle" x="435" y="-805.5" font-family="Helvetica,sans-Serif" font-size="10.00">mxf11</text>
</a>
</g>
</g>
<!-- Node14&#45;&gt;Node17 -->
<g id="edge17" class="edge"><title>Node14&#45;&gt;Node17</title>
<path fill="none" stroke="midnightblue" d="M332.812,-494.616C340.404,-514.062 357.575,-559.565 368,-599 389.966,-682.093 355.702,-717.907 404,-789 404.624,-789.918 405.308,-790.801 406.041,-791.649"/>
<polygon fill="midnightblue" stroke="midnightblue" points="403.833,-794.368 413.65,-798.354 408.461,-789.116 403.833,-794.368"/>
</g>
<!-- Node18 -->
<g id="node18" class="node"><title>Node18</title>
<g id="a_node18"><a xlink:href="mxm__std_8F90.html#afb2e2cde9040ab037e3586b0deef3851" target="_top" xlink:title="mxf12">
<polygon fill="white" stroke="black" points="412.5,-760.5 412.5,-779.5 457.5,-779.5 457.5,-760.5 412.5,-760.5"/>
<text text-anchor="middle" x="435" y="-767.5" font-family="Helvetica,sans-Serif" font-size="10.00">mxf12</text>
</a>
</g>
</g>
<!-- Node14&#45;&gt;Node18 -->
<g id="edge18" class="edge"><title>Node14&#45;&gt;Node18</title>
<path fill="none" stroke="midnightblue" d="M332.66,-494.658C339.979,-514.18 356.685,-559.811 368,-599 387.259,-665.7 363.696,-694.472 404,-751 404.745,-752.045 405.567,-753.045 406.449,-754.002"/>
<polygon fill="midnightblue" stroke="midnightblue" points="404.196,-756.68 414.087,-760.477 408.723,-751.341 404.196,-756.68"/>
</g>
<!-- Node19 -->
<g id="node19" class="node"><title>Node19</title>
<g id="a_node19"><a xlink:href="mxm__std_8F90.html#a6a048a62b47a5c2327279e158c1689df" target="_top" xlink:title="mxf13">
<polygon fill="white" stroke="black" points="412.5,-722.5 412.5,-741.5 457.5,-741.5 457.5,-722.5 412.5,-722.5"/>
<text text-anchor="middle" x="435" y="-729.5" font-family="Helvetica,sans-Serif" font-size="10.00">mxf13</text>
</a>
</g>
</g>
<!-- Node14&#45;&gt;Node19 -->
<g id="edge19" class="edge"><title>Node14&#45;&gt;Node19</title>
<path fill="none" stroke="midnightblue" d="M332.417,-494.733C339.298,-514.39 355.256,-560.252 368,-599 384.6,-649.473 371.589,-670.897 404,-713 404.783,-714.017 405.636,-714.994 406.544,-715.931"/>
<polygon fill="midnightblue" stroke="midnightblue" points="404.351,-718.658 414.291,-722.326 408.808,-713.261 404.351,-718.658"/>
</g>
<!-- Node20 -->
<g id="node20" class="node"><title>Node20</title>
<g id="a_node20"><a xlink:href="mxm__std_8F90.html#a6e57628b882cb8bcac215e9a5b523eed" target="_top" xlink:title="mxf14">
<polygon fill="white" stroke="black" points="412.5,-684.5 412.5,-703.5 457.5,-703.5 457.5,-684.5 412.5,-684.5"/>
<text text-anchor="middle" x="435" y="-691.5" font-family="Helvetica,sans-Serif" font-size="10.00">mxf14</text>
</a>
</g>
</g>
<!-- Node14&#45;&gt;Node20 -->
<g id="edge20" class="edge"><title>Node14&#45;&gt;Node20</title>
<path fill="none" stroke="midnightblue" d="M332.383,-494.571C345.325,-531.041 391.596,-660.005 404,-675 404.84,-676.015 405.749,-676.994 406.709,-677.934"/>
<polygon fill="midnightblue" stroke="midnightblue" points="404.792,-680.882 414.792,-684.384 409.158,-675.411 404.792,-680.882"/>
</g>
<!-- Node21 -->
<g id="node21" class="node"><title>Node21</title>
<g id="a_node21"><a xlink:href="mxm__std_8F90.html#a02e79201be026faf756be00e58334c4f" target="_top" xlink:title="mxf15">
<polygon fill="white" stroke="black" points="412.5,-646.5 412.5,-665.5 457.5,-665.5 457.5,-646.5 412.5,-646.5"/>
<text text-anchor="middle" x="435" y="-653.5" font-family="Helvetica,sans-Serif" font-size="10.00">mxf15</text>
</a>
</g>
</g>
<!-- Node14&#45;&gt;Node21 -->
<g id="edge21" class="edge"><title>Node14&#45;&gt;Node21</title>
<path fill="none" stroke="midnightblue" d="M331.715,-494.596C339.373,-520.278 363.275,-591.703 404,-637 405.005,-638.117 406.09,-639.194 407.232,-640.228"/>
<polygon fill="midnightblue" stroke="midnightblue" points="405.248,-643.118 415.321,-646.403 409.496,-637.553 405.248,-643.118"/>
</g>
<!-- Node22 -->
<g id="node22" class="node"><title>Node22</title>
<g id="a_node22"><a xlink:href="mxm__std_8F90.html#a2fbea6eeadc258673ba8ea5708593aee" target="_top" xlink:title="mxf16">
<polygon fill="white" stroke="black" points="412.5,-608.5 412.5,-627.5 457.5,-627.5 457.5,-608.5 412.5,-608.5"/>
<text text-anchor="middle" x="435" y="-615.5" font-family="Helvetica,sans-Serif" font-size="10.00">mxf16</text>
</a>
</g>
</g>
<!-- Node14&#45;&gt;Node22 -->
<g id="edge22" class="edge"><title>Node14&#45;&gt;Node22</title>
<path fill="none" stroke="midnightblue" d="M333.498,-494.523C343.707,-515.398 370.376,-565.954 404,-599 405.099,-600.08 406.27,-601.131 407.488,-602.147"/>
<polygon fill="midnightblue" stroke="midnightblue" points="405.802,-605.25 415.946,-608.309 409.924,-599.592 405.802,-605.25"/>
</g>
<!-- Node23 -->
<g id="node23" class="node"><title>Node23</title>
<g id="a_node23"><a xlink:href="mxm__std_8F90.html#a3829af481cd230e6aadef08feab9a278" target="_top" xlink:title="mxf17">
<polygon fill="white" stroke="black" points="412.5,-570.5 412.5,-589.5 457.5,-589.5 457.5,-570.5 412.5,-570.5"/>
<text text-anchor="middle" x="435" y="-577.5" font-family="Helvetica,sans-Serif" font-size="10.00">mxf17</text>
</a>
</g>
</g>
<!-- Node14&#45;&gt;Node23 -->
<g id="edge23" class="edge"><title>Node14&#45;&gt;Node23</title>
<path fill="none" stroke="midnightblue" d="M337.158,-494.575C350.316,-509.7 377.441,-539.598 404,-561 405.548,-562.248 407.182,-563.482 408.856,-564.688"/>
<polygon fill="midnightblue" stroke="midnightblue" points="407.092,-567.719 417.344,-570.393 410.997,-561.909 407.092,-567.719"/>
</g>
<!-- Node24 -->
<g id="node24" class="node"><title>Node24</title>
<g id="a_node24"><a xlink:href="mxm__std_8F90.html#a48ed8195cc978a87c005b3306a974894" target="_top" xlink:title="mxf18">
<polygon fill="white" stroke="black" points="412.5,-532.5 412.5,-551.5 457.5,-551.5 457.5,-532.5 412.5,-532.5"/>
<text text-anchor="middle" x="435" y="-539.5" font-family="Helvetica,sans-Serif" font-size="10.00">mxf18</text>
</a>
</g>
</g>
<!-- Node14&#45;&gt;Node24 -->
<g id="edge24" class="edge"><title>Node14&#45;&gt;Node24</title>
<path fill="none" stroke="midnightblue" d="M346.812,-494.669C363.429,-503.69 388.44,-517.267 407.418,-527.57"/>
<polygon fill="midnightblue" stroke="midnightblue" points="405.993,-530.779 416.451,-532.474 409.333,-524.627 405.993,-530.779"/>
</g>
<!-- Node25 -->
<g id="node25" class="node"><title>Node25</title>
<g id="a_node25"><a xlink:href="mxm__std_8F90.html#a28a9857286e11804e1a97875028ecb09" target="_top" xlink:title="mxf19">
<polygon fill="white" stroke="black" points="412.5,-494.5 412.5,-513.5 457.5,-513.5 457.5,-494.5 412.5,-494.5"/>
<text text-anchor="middle" x="435" y="-501.5" font-family="Helvetica,sans-Serif" font-size="10.00">mxf19</text>
</a>
</g>
</g>
<!-- Node14&#45;&gt;Node25 -->
<g id="edge25" class="edge"><title>Node14&#45;&gt;Node25</title>
<path fill="none" stroke="midnightblue" d="M351.525,-489.076C366.256,-491.741 385.721,-495.264 402.041,-498.217"/>
<polygon fill="midnightblue" stroke="midnightblue" points="401.768,-501.724 412.231,-500.061 403.014,-494.836 401.768,-501.724"/>
</g>
<!-- Node26 -->
<g id="node26" class="node"><title>Node26</title>
<g id="a_node26"><a xlink:href="mxm__std_8F90.html#acd223c583f3a9242fda7a1b8897b624d" target="_top" xlink:title="mxf2">
<polygon fill="white" stroke="black" points="415.5,-456.5 415.5,-475.5 454.5,-475.5 454.5,-456.5 415.5,-456.5"/>
<text text-anchor="middle" x="435" y="-463.5" font-family="Helvetica,sans-Serif" font-size="10.00">mxf2</text>
</a>
</g>
</g>
<!-- Node14&#45;&gt;Node26 -->
<g id="edge26" class="edge"><title>Node14&#45;&gt;Node26</title>
<path fill="none" stroke="midnightblue" d="M351.525,-480.924C367.294,-478.071 388.489,-474.235 405.444,-471.167"/>
<polygon fill="midnightblue" stroke="midnightblue" points="406.149,-474.597 415.366,-469.372 404.903,-467.708 406.149,-474.597"/>
</g>
<!-- Node27 -->
<g id="node27" class="node"><title>Node27</title>
<g id="a_node27"><a xlink:href="mxm__std_8F90.html#af60059bd60847f48acdf6461fefa3b22" target="_top" xlink:title="mxf20">
<polygon fill="white" stroke="black" points="412.5,-418.5 412.5,-437.5 457.5,-437.5 457.5,-418.5 412.5,-418.5"/>
<text text-anchor="middle" x="435" y="-425.5" font-family="Helvetica,sans-Serif" font-size="10.00">mxf20</text>
</a>
</g>
</g>
<!-- Node14&#45;&gt;Node27 -->
<g id="edge27" class="edge"><title>Node14&#45;&gt;Node27</title>
<path fill="none" stroke="midnightblue" d="M346.812,-475.331C363.429,-466.31 388.44,-452.733 407.418,-442.43"/>
<polygon fill="midnightblue" stroke="midnightblue" points="409.333,-445.373 416.451,-437.526 405.993,-439.221 409.333,-445.373"/>
</g>
<!-- Node28 -->
<g id="node28" class="node"><title>Node28</title>
<g id="a_node28"><a xlink:href="mxm__std_8F90.html#a825db174c5643aef5e4cdf57067ebbbb" target="_top" xlink:title="mxf21">
<polygon fill="white" stroke="black" points="412.5,-380.5 412.5,-399.5 457.5,-399.5 457.5,-380.5 412.5,-380.5"/>
<text text-anchor="middle" x="435" y="-387.5" font-family="Helvetica,sans-Serif" font-size="10.00">mxf21</text>
</a>
</g>
</g>
<!-- Node14&#45;&gt;Node28 -->
<g id="edge28" class="edge"><title>Node14&#45;&gt;Node28</title>
<path fill="none" stroke="midnightblue" d="M337.158,-475.425C350.316,-460.3 377.441,-430.402 404,-409 405.548,-407.752 407.182,-406.518 408.856,-405.312"/>
<polygon fill="midnightblue" stroke="midnightblue" points="410.997,-408.091 417.344,-399.607 407.092,-402.281 410.997,-408.091"/>
</g>
<!-- Node29 -->
<g id="node29" class="node"><title>Node29</title>
<g id="a_node29"><a xlink:href="mxm__std_8F90.html#a1f2059cb835b2818aef861f2f59a0a72" target="_top" xlink:title="mxf22">
<polygon fill="white" stroke="black" points="412.5,-342.5 412.5,-361.5 457.5,-361.5 457.5,-342.5 412.5,-342.5"/>
<text text-anchor="middle" x="435" y="-349.5" font-family="Helvetica,sans-Serif" font-size="10.00">mxf22</text>
</a>
</g>
</g>
<!-- Node14&#45;&gt;Node29 -->
<g id="edge29" class="edge"><title>Node14&#45;&gt;Node29</title>
<path fill="none" stroke="midnightblue" d="M333.498,-475.477C343.707,-454.602 370.376,-404.046 404,-371 405.099,-369.92 406.27,-368.869 407.488,-367.853"/>
<polygon fill="midnightblue" stroke="midnightblue" points="409.924,-370.408 415.946,-361.691 405.802,-364.75 409.924,-370.408"/>
</g>
<!-- Node30 -->
<g id="node30" class="node"><title>Node30</title>
<g id="a_node30"><a xlink:href="mxm__std_8F90.html#a3dc6491b8d44b702dbbb13a01f887c59" target="_top" xlink:title="mxf23">
<polygon fill="white" stroke="black" points="412.5,-304.5 412.5,-323.5 457.5,-323.5 457.5,-304.5 412.5,-304.5"/>
<text text-anchor="middle" x="435" y="-311.5" font-family="Helvetica,sans-Serif" font-size="10.00">mxf23</text>
</a>
</g>
</g>
<!-- Node14&#45;&gt;Node30 -->
<g id="edge30" class="edge"><title>Node14&#45;&gt;Node30</title>
<path fill="none" stroke="midnightblue" d="M331.715,-475.404C339.373,-449.722 363.275,-378.297 404,-333 405.005,-331.883 406.09,-330.806 407.232,-329.772"/>
<polygon fill="midnightblue" stroke="midnightblue" points="409.496,-332.447 415.321,-323.597 405.248,-326.882 409.496,-332.447"/>
</g>
<!-- Node31 -->
<g id="node31" class="node"><title>Node31</title>
<g id="a_node31"><a xlink:href="mxm__std_8F90.html#af0752c9a61343489900f8d812c6980ed" target="_top" xlink:title="mxf24">
<polygon fill="white" stroke="black" points="412.5,-266.5 412.5,-285.5 457.5,-285.5 457.5,-266.5 412.5,-266.5"/>
<text text-anchor="middle" x="435" y="-273.5" font-family="Helvetica,sans-Serif" font-size="10.00">mxf24</text>
</a>
</g>
</g>
<!-- Node14&#45;&gt;Node31 -->
<g id="edge31" class="edge"><title>Node14&#45;&gt;Node31</title>
<path fill="none" stroke="midnightblue" d="M330.638,-475.225C336.093,-445.214 356.081,-352.931 404,-295 404.84,-293.985 405.749,-293.006 406.709,-292.066"/>
<polygon fill="midnightblue" stroke="midnightblue" points="409.158,-294.589 414.792,-285.616 404.792,-289.118 409.158,-294.589"/>
</g>
<!-- Node32 -->
<g id="node32" class="node"><title>Node32</title>
<g id="a_node32"><a xlink:href="mxm__std_8F90.html#abff718a387aa354f77d0e8b0ffa98867" target="_top" xlink:title="mxf3">
<polygon fill="white" stroke="black" points="415.5,-228.5 415.5,-247.5 454.5,-247.5 454.5,-228.5 415.5,-228.5"/>
<text text-anchor="middle" x="435" y="-235.5" font-family="Helvetica,sans-Serif" font-size="10.00">mxf3</text>
</a>
</g>
</g>
<!-- Node14&#45;&gt;Node32 -->
<g id="edge32" class="edge"><title>Node14&#45;&gt;Node32</title>
<path fill="none" stroke="midnightblue" d="M329.869,-475.24C333.317,-441.502 348.672,-327.994 404,-257 404.947,-255.784 405.996,-254.625 407.117,-253.522"/>
<polygon fill="midnightblue" stroke="midnightblue" points="409.589,-256.029 415.257,-247.077 405.244,-250.541 409.589,-256.029"/>
</g>
<!-- Node33 -->
<g id="node33" class="node"><title>Node33</title>
<g id="a_node33"><a xlink:href="mxm__std_8F90.html#a2f4e4e1b4daebbd4d0580029d0f54016" target="_top" xlink:title="mxf4">
<polygon fill="white" stroke="black" points="415.5,-190.5 415.5,-209.5 454.5,-209.5 454.5,-190.5 415.5,-190.5"/>
<text text-anchor="middle" x="435" y="-197.5" font-family="Helvetica,sans-Serif" font-size="10.00">mxf4</text>
</a>
</g>
</g>
<!-- Node14&#45;&gt;Node33 -->
<g id="edge33" class="edge"><title>Node14&#45;&gt;Node33</title>
<path fill="none" stroke="midnightblue" d="M329.301,-475.47C330.914,-438.635 341.06,-303.443 404,-219 405.039,-217.607 406.212,-216.29 407.478,-215.05"/>
<polygon fill="midnightblue" stroke="midnightblue" points="409.751,-217.715 415.449,-208.783 405.425,-212.212 409.751,-217.715"/>
</g>
<!-- Node34 -->
<g id="node34" class="node"><title>Node34</title>
<g id="a_node34"><a xlink:href="mxm__std_8F90.html#a5a6d5c31350c601ba8327b75a72cba0a" target="_top" xlink:title="mxf5">
<polygon fill="white" stroke="black" points="415.5,-152.5 415.5,-171.5 454.5,-171.5 454.5,-152.5 415.5,-152.5"/>
<text text-anchor="middle" x="435" y="-159.5" font-family="Helvetica,sans-Serif" font-size="10.00">mxf5</text>
</a>
</g>
</g>
<!-- Node14&#45;&gt;Node34 -->
<g id="edge34" class="edge"><title>Node14&#45;&gt;Node34</title>
<path fill="none" stroke="midnightblue" d="M328.886,-475.249C328.889,-434.92 333.642,-278.713 404,-181 405.015,-179.59 406.171,-178.26 407.423,-177.009"/>
<polygon fill="midnightblue" stroke="midnightblue" points="409.698,-179.672 415.356,-170.715 405.347,-174.189 409.698,-179.672"/>
</g>
<!-- Node35 -->
<g id="node35" class="node"><title>Node35</title>
<g id="a_node35"><a xlink:href="mxm__std_8F90.html#a38a142edde1e72a918d280747a319f7a" target="_top" xlink:title="mxf6">
<polygon fill="white" stroke="black" points="415.5,-114.5 415.5,-133.5 454.5,-133.5 454.5,-114.5 415.5,-114.5"/>
<text text-anchor="middle" x="435" y="-121.5" font-family="Helvetica,sans-Serif" font-size="10.00">mxf6</text>
</a>
</g>
</g>
<!-- Node14&#45;&gt;Node35 -->
<g id="edge35" class="edge"><title>Node14&#45;&gt;Node35</title>
<path fill="none" stroke="midnightblue" d="M328.551,-475.244C327.043,-431.929 326.055,-254.273 404,-143 404.997,-141.577 406.138,-140.236 407.38,-138.978"/>
<polygon fill="midnightblue" stroke="midnightblue" points="409.656,-141.64 415.282,-132.662 405.285,-136.172 409.656,-141.64"/>
</g>
<!-- Node36 -->
<g id="node36" class="node"><title>Node36</title>
<g id="a_node36"><a xlink:href="mxm__std_8F90.html#a1919ea16c0a7b4e248e45e983c29d965" target="_top" xlink:title="mxf7">
<polygon fill="white" stroke="black" points="415.5,-76.5 415.5,-95.5 454.5,-95.5 454.5,-76.5 415.5,-76.5"/>
<text text-anchor="middle" x="435" y="-83.5" font-family="Helvetica,sans-Serif" font-size="10.00">mxf7</text>
</a>
</g>
</g>
<!-- Node14&#45;&gt;Node36 -->
<g id="edge36" class="edge"><title>Node14&#45;&gt;Node36</title>
<path fill="none" stroke="midnightblue" d="M329.875,-475.33C334.808,-422.47 360.49,-168.523 404,-105 404.982,-103.566 406.111,-102.218 407.344,-100.954"/>
<polygon fill="midnightblue" stroke="midnightblue" points="409.621,-103.614 415.221,-94.6202 405.235,-98.1584 409.621,-103.614"/>
</g>
<!-- Node37 -->
<g id="node37" class="node"><title>Node37</title>
<g id="a_node37"><a xlink:href="mxm__std_8F90.html#af4bd28930a9d674bbcad09ad75fa81ef" target="_top" xlink:title="mxf8">
<polygon fill="white" stroke="black" points="415.5,-38.5 415.5,-57.5 454.5,-57.5 454.5,-38.5 415.5,-38.5"/>
<text text-anchor="middle" x="435" y="-45.5" font-family="Helvetica,sans-Serif" font-size="10.00">mxf8</text>
</a>
</g>
</g>
<!-- Node14&#45;&gt;Node37 -->
<g id="edge37" class="edge"><title>Node14&#45;&gt;Node37</title>
<path fill="none" stroke="midnightblue" d="M329.673,-475.483C333.753,-419.922 356.592,-137.518 404,-67 404.993,-65.5227 406.144,-64.1369 407.404,-62.8408"/>
<polygon fill="midnightblue" stroke="midnightblue" points="409.856,-65.3621 415.483,-56.3853 405.486,-59.8935 409.856,-65.3621"/>
</g>
<!-- Node38 -->
<g id="node38" class="node"><title>Node38</title>
<g id="a_node38"><a xlink:href="mxm__std_8F90.html#a8ab38e8d33e92444b748159b82759c27" target="_top" xlink:title="mxf9">
<polygon fill="white" stroke="black" points="415.5,-0.5 415.5,-19.5 454.5,-19.5 454.5,-0.5 415.5,-0.5"/>
<text text-anchor="middle" x="435" y="-7.5" font-family="Helvetica,sans-Serif" font-size="10.00">mxf9</text>
</a>
</g>
</g>
<!-- Node14&#45;&gt;Node38 -->
<g id="edge38" class="edge"><title>Node14&#45;&gt;Node38</title>
<path fill="none" stroke="midnightblue" d="M329.521,-475.398C332.859,-416.718 352.749,-106.443 404,-29 404.982,-27.5155 406.125,-26.1241 407.379,-24.8238"/>
<polygon fill="midnightblue" stroke="midnightblue" points="409.83,-27.3444 415.441,-18.3571 405.45,-21.8841 409.83,-27.3444"/>
</g>
</g>
</svg>
        <g id="navigator" transform="translate(0 0)" fill="#404254">
                <rect fill="#f2f5e9" fill-opacity="0.5" stroke="#606060" stroke-width=".5" x="0" y="0" width="60" height="60"/>
                <use id="zoomplus" xlink:href="#zoomPlus" x="17" y="9" onmousedown="handleZoom(evt,'in')"/>
                <use id="zoomminus" xlink:href="#zoomMin" x="42" y="9" onmousedown="handleZoom(evt,'out')"/>
                <use id="reset" xlink:href="#resetDef" x="30" y="36" onmousedown="handleReset()"/>
                <g id="arrowUp" xlink:href="#dirArrow" transform="translate(30 24)" onmousedown="handlePan(0,-1)">
                  <use xlink:href="#rim" fill="#404040">
                        <set attributeName="fill" to="#808080" begin="arrowUp.mouseover" end="arrowUp.mouseout"/>
                  </use>
                  <path fill="none" stroke="white" stroke-width="1.5" d="M0,-3.0v7 M-2.5,-0.5L0,-3.0L2.5,-0.5"/>
                </g>
                <g id="arrowRight" xlink:href="#dirArrow" transform="rotate(90) translate(36 -43)" onmousedown="handlePan(1,0)">
                  <use xlink:href="#rim" fill="#404040">
                        <set attributeName="fill" to="#808080" begin="arrowRight.mouseover" end="arrowRight.mouseout"/>
                  </use>
                  <path fill="none" stroke="white" stroke-width="1.5" d="M0,-3.0v7 M-2.5,-0.5L0,-3.0L2.5,-0.5"/>
                </g>
                <g id="arrowDown" xlink:href="#dirArrow" transform="rotate(180) translate(-30 -48)" onmousedown="handlePan(0,1)">
                  <use xlink:href="#rim" fill="#404040">
                        <set attributeName="fill" to="#808080" begin="arrowDown.mouseover" end="arrowDown.mouseout"/>
                  </use>
                  <path fill="none" stroke="white" stroke-width="1.5" d="M0,-3.0v7 M-2.5,-0.5L0,-3.0L2.5,-0.5"/>
                </g>
                <g id="arrowLeft" xlink:href="#dirArrow" transform="rotate(270) translate(-36 17)" onmousedown="handlePan(-1,0)">
                  <use xlink:href="#rim" fill="#404040">
                        <set attributeName="fill" to="#808080" begin="arrowLeft.mouseover" end="arrowLeft.mouseout"/>
                  </use>
                  <path fill="none" stroke="white" stroke-width="1.5" d="M0,-3.0v7 M-2.5,-0.5L0,-3.0L2.5,-0.5"/>
                </g>
        </g>
        <svg viewBox="0 0 15 15" width="100%" height="30px" preserveAspectRatio="xMaxYMin meet">
         <g id="arrow_out" transform="scale(0.3 0.3)">
          <a xlink:href="navier1_8F90_a58af49abaf1ee0cc07be356ad2721d90_cgraph_org.svg" target="_base">
           <rect id="button" ry="5" rx="5" y="6" x="6" height="38" width="38"
                fill="#f2f5e9" fill-opacity="0.5" stroke="#606060" stroke-width="1.0"/>
           <path id="arrow"
             d="M 11.500037,31.436501 C 11.940474,20.09759 22.043105,11.32322 32.158766,21.979434 L 37.068811,17.246167 C 37.068811,17.246167 37.088388,32 37.088388,32 L 22.160133,31.978069 C 22.160133,31.978069 26.997745,27.140456 26.997745,27.140456 C 18.528582,18.264221 13.291696,25.230495 11.500037,31.436501 z"
             style="fill:#404040;"/>
          </a>
         </g>
        </svg>
</svg>
