<?xml version="1.0" encoding="UTF-8" standalone="no"?>
<!DOCTYPE svg PUBLIC "-//W3C//DTD SVG 1.1//EN"
 "http://www.w3.org/Graphics/SVG/1.1/DTD/svg11.dtd">
<!-- Generated by graphviz version 2.38.0 (20140413.2041)
 -->
<!-- Title: wgradm1 Pages: 1 -->
<svg width="844pt" height="28pt"
 viewBox="0.00 0.00 844.00 28.00" xmlns="http://www.w3.org/2000/svg" xmlns:xlink="http://www.w3.org/1999/xlink">
<g id="graph0" class="graph" transform="scale(1 1) rotate(0) translate(4 24)">
<title>wgradm1</title>
<polygon fill="white" stroke="none" points="-4,4 -4,-24 840,-24 840,4 -4,4"/>
<!-- Node1 -->
<g id="node1" class="node"><title>Node1</title>
<polygon fill="#bfbfbf" stroke="black" points="0,-0.5 0,-19.5 60,-19.5 60,-0.5 0,-0.5"/>
<text text-anchor="middle" x="30" y="-7.5" font-family="Helvetica,sans-Serif" font-size="10.00">wgradm1</text>
</g>
<!-- Node2 -->
<g id="node2" class="node"><title>Node2</title>
<g id="a_node2"><a xlink:href="navier1_8F90.html#af9bcf25d01182572549eaca275415fd9" target="_top" xlink:title="Compute OUTi = Di*INP, i=1,2,3. the gradient of the scalar field INP. Note: OUTi is defined on the pr...">
<polygon fill="white" stroke="black" points="96,-0.5 96,-19.5 146,-19.5 146,-0.5 96,-0.5"/>
<text text-anchor="middle" x="121" y="-7.5" font-family="Helvetica,sans-Serif" font-size="10.00">opgrad</text>
</a>
</g>
</g>
<!-- Node1&#45;&gt;Node2 -->
<g id="edge1" class="edge"><title>Node1&#45;&gt;Node2</title>
<path fill="none" stroke="midnightblue" d="M70.1862,-10C78.9209,-10 87.9326,-10 95.8493,-10"/>
<polygon fill="midnightblue" stroke="midnightblue" points="70.142,-6.5001 60.1419,-10 70.1419,-13.5001 70.142,-6.5001"/>
</g>
<!-- Node3 -->
<g id="node3" class="node"><title>Node3</title>
<g id="a_node3"><a xlink:href="plan4_8F90.html#ab1e8c9cb142e2062d1c1c8c1e6cd30c9" target="_top" xlink:title="Compute the residual for the velocity. ">
<polygon fill="white" stroke="black" points="182,-0.5 182,-19.5 235,-19.5 235,-0.5 182,-0.5"/>
<text text-anchor="middle" x="208.5" y="-7.5" font-family="Helvetica,sans-Serif" font-size="10.00">cresvsp</text>
</a>
</g>
</g>
<!-- Node2&#45;&gt;Node3 -->
<g id="edge2" class="edge"><title>Node2&#45;&gt;Node3</title>
<path fill="none" stroke="midnightblue" d="M156.372,-10C164.921,-10 173.935,-10 181.974,-10"/>
<polygon fill="midnightblue" stroke="midnightblue" points="156.272,-6.5001 146.272,-10 156.272,-13.5001 156.272,-6.5001"/>
</g>
<!-- Node4 -->
<g id="node4" class="node"><title>Node4</title>
<g id="a_node4"><a xlink:href="plan4_8F90.html#a5cbf852b67e73bfa44e028338c4d57ad" target="_top" xlink:title="Splitting scheme . ">
<polygon fill="white" stroke="black" points="271,-0.5 271,-19.5 314,-19.5 314,-0.5 271,-0.5"/>
<text text-anchor="middle" x="292.5" y="-7.5" font-family="Helvetica,sans-Serif" font-size="10.00">plan4</text>
</a>
</g>
</g>
<!-- Node3&#45;&gt;Node4 -->
<g id="edge3" class="edge"><title>Node3&#45;&gt;Node4</title>
<path fill="none" stroke="midnightblue" d="M245.725,-10C254.354,-10 263.269,-10 270.914,-10"/>
<polygon fill="midnightblue" stroke="midnightblue" points="245.445,-6.5001 235.445,-10 245.445,-13.5001 245.445,-6.5001"/>
</g>
<!-- Node5 -->
<g id="node5" class="node"><title>Node5</title>
<g id="a_node5"><a xlink:href="drive2_8F90.html#ab0aeca9ad3db8be87a01ba29d069d71e" target="_top" xlink:title="Driver for solving the incompressible Navier&#45;Stokes equations. ">
<polygon fill="white" stroke="black" points="350,-0.5 350,-19.5 385,-19.5 385,-0.5 350,-0.5"/>
<text text-anchor="middle" x="367.5" y="-7.5" font-family="Helvetica,sans-Serif" font-size="10.00">fluid</text>
</a>
</g>
</g>
<!-- Node4&#45;&gt;Node5 -->
<g id="edge4" class="edge"><title>Node4&#45;&gt;Node5</title>
<path fill="none" stroke="midnightblue" d="M324.508,-10C333.226,-10 342.373,-10 349.895,-10"/>
<polygon fill="midnightblue" stroke="midnightblue" points="324.224,-6.5001 314.224,-10 324.224,-13.5001 324.224,-6.5001"/>
</g>
<!-- Node6 -->
<g id="node6" class="node"><title>Node6</title>
<g id="a_node6"><a xlink:href="drive1_8F90.html#ae177ea7efac97f35241521b782a671c0" target="_top" xlink:title="take a single time&#45;step ">
<polygon fill="white" stroke="black" points="421,-0.5 421,-19.5 501,-19.5 501,-0.5 421,-0.5"/>
<text text-anchor="middle" x="461" y="-7.5" font-family="Helvetica,sans-Serif" font-size="10.00">nek_advance</text>
</a>
</g>
</g>
<!-- Node5&#45;&gt;Node6 -->
<g id="edge5" class="edge"><title>Node5&#45;&gt;Node6</title>
<path fill="none" stroke="midnightblue" d="M395.47,-10C403.445,-10 412.341,-10 420.918,-10"/>
<polygon fill="midnightblue" stroke="midnightblue" points="395.283,-6.5001 385.283,-10 395.282,-13.5001 395.283,-6.5001"/>
</g>
<!-- Node7 -->
<g id="node7" class="node"><title>Node7</title>
<g id="a_node7"><a xlink:href="drive1_8F90.html#a18d3e839786263fc4cf91f7eeb714371" target="_top" xlink:title="take a chunk of time&#45;steps ">
<polygon fill="white" stroke="black" points="537,-0.5 537,-19.5 650,-19.5 650,-0.5 537,-0.5"/>
<text text-anchor="middle" x="593.5" y="-7.5" font-family="Helvetica,sans-Serif" font-size="10.00">nek__multi_advance</text>
</a>
</g>
</g>
<!-- Node6&#45;&gt;Node7 -->
<g id="edge6" class="edge"><title>Node6&#45;&gt;Node7</title>
<path fill="none" stroke="midnightblue" d="M511.191,-10C519.607,-10 528.403,-10 536.97,-10"/>
<polygon fill="midnightblue" stroke="midnightblue" points="511.154,-6.5001 501.154,-10 511.154,-13.5001 511.154,-6.5001"/>
</g>
<!-- Node8 -->
<g id="node8" class="node"><title>Node8</title>
<g id="a_node8"><a xlink:href="drive1_8F90.html#a6ad57e0cf728f343e371ef8c9a02cd8a" target="_top" xlink:title="integrate the governing equations in time ">
<polygon fill="white" stroke="black" points="686,-0.5 686,-19.5 751,-19.5 751,-0.5 686,-0.5"/>
<text text-anchor="middle" x="718.5" y="-7.5" font-family="Helvetica,sans-Serif" font-size="10.00">nek_solve</text>
</a>
</g>
</g>
<!-- Node7&#45;&gt;Node8 -->
<g id="edge7" class="edge"><title>Node7&#45;&gt;Node8</title>
<path fill="none" stroke="midnightblue" d="M660.282,-10C669.164,-10 677.927,-10 685.824,-10"/>
<polygon fill="midnightblue" stroke="midnightblue" points="660.242,-6.5001 650.242,-10 660.242,-13.5001 660.242,-6.5001"/>
</g>
<!-- Node9 -->
<g id="node9" class="node"><title>Node9</title>
<g id="a_node9"><a xlink:href="drive_8F90.html#a13048bf28dd0734640412d69349e3857" target="_top" xlink:title="NEK5000: Spectral Element Computational Fluid Dynamics Solver COPYRIGHT (c) 2008&#45;2010 UCHICAGO ARGONN...">
<polygon fill="white" stroke="black" points="787,-0.5 787,-19.5 836,-19.5 836,-0.5 787,-0.5"/>
<text text-anchor="middle" x="811.5" y="-7.5" font-family="Helvetica,sans-Serif" font-size="10.00">nekton</text>
</a>
</g>
</g>
<!-- Node8&#45;&gt;Node9 -->
<g id="edge8" class="edge"><title>Node8&#45;&gt;Node9</title>
<path fill="none" stroke="midnightblue" d="M761.192,-10C769.953,-10 778.905,-10 786.734,-10"/>
<polygon fill="midnightblue" stroke="midnightblue" points="761.072,-6.5001 751.072,-10 761.072,-13.5001 761.072,-6.5001"/>
</g>
</g>
</svg>
