<?xml version="1.0" encoding="UTF-8" standalone="no"?>
<!DOCTYPE svg PUBLIC "-//W3C//DTD SVG 1.1//EN"
 "http://www.w3.org/Graphics/SVG/1.1/DTD/svg11.dtd">
<!-- Generated by graphviz version 2.38.0 (20140413.2041)
 -->
<!-- Title: obbox_calc_2 Pages: 1 -->
<svg width="340pt" height="142pt"
 viewBox="0.00 0.00 340.00 142.00" xmlns="http://www.w3.org/2000/svg" xmlns:xlink="http://www.w3.org/1999/xlink">
<g id="graph0" class="graph" transform="scale(1 1) rotate(0) translate(4 138)">
<title>obbox_calc_2</title>
<polygon fill="white" stroke="none" points="-4,4 -4,-138 336,-138 336,4 -4,4"/>
<!-- Node1 -->
<g id="node1" class="node"><title>Node1</title>
<polygon fill="#bfbfbf" stroke="black" points="0,-57.5 0,-76.5 81,-76.5 81,-57.5 0,-57.5"/>
<text text-anchor="middle" x="40.5" y="-64.5" font-family="Helvetica,sans-Serif" font-size="10.00">obbox_calc_2</text>
</g>
<!-- Node2 -->
<g id="node2" class="node"><title>Node2</title>
<g id="a_node2"><a xlink:href="obbox_8c.html#adae9e120114bb2ca9aa3b430212ed684" target="_top" xlink:title="dbl_range_expand">
<polygon fill="white" stroke="black" points="117,-114.5 117,-133.5 222,-133.5 222,-114.5 117,-114.5"/>
<text text-anchor="middle" x="169.5" y="-121.5" font-family="Helvetica,sans-Serif" font-size="10.00">dbl_range_expand</text>
</a>
</g>
</g>
<!-- Node1&#45;&gt;Node2 -->
<g id="edge1" class="edge"><title>Node1&#45;&gt;Node2</title>
<path fill="none" stroke="midnightblue" d="M59.2297,-76.6384C74.3607,-84.69 96.8117,-96.2288 117,-105 121.515,-106.962 126.305,-108.905 131.075,-110.758"/>
<polygon fill="midnightblue" stroke="midnightblue" points="130.152,-114.151 140.743,-114.411 132.626,-107.603 130.152,-114.151"/>
</g>
<!-- Node3 -->
<g id="node3" class="node"><title>Node3</title>
<g id="a_node3"><a xlink:href="lob__bnd_8h.html#ad404837e95e47147dcd320eea99df8ba" target="_top" xlink:title="lob_bnd_size">
<polygon fill="white" stroke="black" points="130.5,-76.5 130.5,-95.5 208.5,-95.5 208.5,-76.5 130.5,-76.5"/>
<text text-anchor="middle" x="169.5" y="-83.5" font-family="Helvetica,sans-Serif" font-size="10.00">lob_bnd_size</text>
</a>
</g>
</g>
<!-- Node1&#45;&gt;Node3 -->
<g id="edge2" class="edge"><title>Node1&#45;&gt;Node3</title>
<path fill="none" stroke="midnightblue" d="M81.3351,-72.9596C93.6187,-74.7973 107.281,-76.8412 120.076,-78.7555"/>
<polygon fill="midnightblue" stroke="midnightblue" points="119.701,-82.2383 130.109,-80.2565 120.737,-75.3153 119.701,-82.2383"/>
</g>
<!-- Node4 -->
<g id="node4" class="node"><title>Node4</title>
<g id="a_node4"><a xlink:href="obbox_8c.html#ab9d20dae78dff605266c859c9a016823" target="_top" xlink:title="mat_inv_2">
<polygon fill="white" stroke="black" points="137,-38.5 137,-57.5 202,-57.5 202,-38.5 137,-38.5"/>
<text text-anchor="middle" x="169.5" y="-45.5" font-family="Helvetica,sans-Serif" font-size="10.00">mat_inv_2</text>
</a>
</g>
</g>
<!-- Node1&#45;&gt;Node4 -->
<g id="edge3" class="edge"><title>Node1&#45;&gt;Node4</title>
<path fill="none" stroke="midnightblue" d="M81.3351,-61.0404C95.735,-58.8861 112.03,-56.4483 126.601,-54.2683"/>
<polygon fill="midnightblue" stroke="midnightblue" points="127.483,-57.6754 136.856,-52.7342 126.448,-50.7524 127.483,-57.6754"/>
</g>
<!-- Node5 -->
<g id="node5" class="node"><title>Node5</title>
<g id="a_node5"><a xlink:href="tensor_8h.html#a1aa30c0b57153eecb9573dd8edf73c69" target="_top" xlink:title="tensor_ig2">
<polygon fill="white" stroke="black" points="136,-0.5 136,-19.5 203,-19.5 203,-0.5 136,-0.5"/>
<text text-anchor="middle" x="169.5" y="-7.5" font-family="Helvetica,sans-Serif" font-size="10.00">tensor_ig2</text>
</a>
</g>
</g>
<!-- Node1&#45;&gt;Node5 -->
<g id="edge4" class="edge"><title>Node1&#45;&gt;Node5</title>
<path fill="none" stroke="midnightblue" d="M59.2297,-57.3616C74.3607,-49.31 96.8117,-37.7712 117,-29 121.515,-27.0383 126.305,-25.0947 131.075,-23.2417"/>
<polygon fill="midnightblue" stroke="midnightblue" points="132.626,-26.3973 140.743,-19.5888 130.152,-19.8491 132.626,-26.3973"/>
</g>
<!-- Node6 -->
<g id="node6" class="node"><title>Node6</title>
<g id="a_node6"><a xlink:href="tensor_8h.html#a668a47aca721428547c6c6ba41e44b64" target="_top" xlink:title="tensor_mxm">
<polygon fill="white" stroke="black" points="258,-0.5 258,-19.5 332,-19.5 332,-0.5 258,-0.5"/>
<text text-anchor="middle" x="295" y="-7.5" font-family="Helvetica,sans-Serif" font-size="10.00">tensor_mxm</text>
</a>
</g>
</g>
<!-- Node5&#45;&gt;Node6 -->
<g id="edge5" class="edge"><title>Node5&#45;&gt;Node6</title>
<path fill="none" stroke="midnightblue" d="M203.271,-10C216.727,-10 232.557,-10 247.195,-10"/>
<polygon fill="midnightblue" stroke="midnightblue" points="247.592,-13.5001 257.592,-10 247.592,-6.5001 247.592,-13.5001"/>
</g>
</g>
</svg>
