<?xml version="1.0" encoding="UTF-8" standalone="no"?>
<!DOCTYPE svg PUBLIC "-//W3C//DTD SVG 1.1//EN"
 "http://www.w3.org/Graphics/SVG/1.1/DTD/svg11.dtd">
<!-- Generated by graphviz version 2.38.0 (20140413.2041)
 -->
<!-- Title: dbl_range_expand Pages: 1 -->
<svg width="230pt" height="66pt"
 viewBox="0.00 0.00 230.00 66.00" xmlns="http://www.w3.org/2000/svg" xmlns:xlink="http://www.w3.org/1999/xlink">
<g id="graph0" class="graph" transform="scale(1 1) rotate(0) translate(4 62)">
<title>dbl_range_expand</title>
<polygon fill="white" stroke="none" points="-4,4 -4,-62 226,-62 226,4 -4,4"/>
<!-- Node1 -->
<g id="node1" class="node"><title>Node1</title>
<polygon fill="#bfbfbf" stroke="black" points="0,-19.5 0,-38.5 105,-38.5 105,-19.5 0,-19.5"/>
<text text-anchor="middle" x="52.5" y="-26.5" font-family="Helvetica,sans-Serif" font-size="10.00">dbl_range_expand</text>
</g>
<!-- Node2 -->
<g id="node2" class="node"><title>Node2</title>
<g id="a_node2"><a xlink:href="obbox_8h.html#a9732d1196730c53ce3686b929df4afeb" target="_top" xlink:title="obbox_calc_2">
<polygon fill="white" stroke="black" points="141,-38.5 141,-57.5 222,-57.5 222,-38.5 141,-38.5"/>
<text text-anchor="middle" x="181.5" y="-45.5" font-family="Helvetica,sans-Serif" font-size="10.00">obbox_calc_2</text>
</a>
</g>
</g>
<!-- Node1&#45;&gt;Node2 -->
<g id="edge1" class="edge"><title>Node1&#45;&gt;Node2</title>
<path fill="none" stroke="midnightblue" d="M115.052,-38.2085C123.868,-39.5274 132.734,-40.8538 140.969,-42.0859"/>
<polygon fill="midnightblue" stroke="midnightblue" points="115.564,-34.7462 105.156,-36.728 114.528,-41.6692 115.564,-34.7462"/>
</g>
<!-- Node3 -->
<g id="node3" class="node"><title>Node3</title>
<g id="a_node3"><a xlink:href="obbox_8h.html#a45242dea7fc1ee231405659e41aebec9" target="_top" xlink:title="obbox_calc_3">
<polygon fill="white" stroke="black" points="141,-0.5 141,-19.5 222,-19.5 222,-0.5 141,-0.5"/>
<text text-anchor="middle" x="181.5" y="-7.5" font-family="Helvetica,sans-Serif" font-size="10.00">obbox_calc_3</text>
</a>
</g>
</g>
<!-- Node1&#45;&gt;Node3 -->
<g id="edge2" class="edge"><title>Node1&#45;&gt;Node3</title>
<path fill="none" stroke="midnightblue" d="M115.052,-19.7915C123.868,-18.4726 132.734,-17.1462 140.969,-15.9141"/>
<polygon fill="midnightblue" stroke="midnightblue" points="114.528,-16.3308 105.156,-21.272 115.564,-23.2538 114.528,-16.3308"/>
</g>
</g>
</svg>
