<?xml version="1.0" encoding="UTF-8" standalone="no"?>
<!DOCTYPE svg PUBLIC "-//W3C//DTD SVG 1.1//EN"
 "http://www.w3.org/Graphics/SVG/1.1/DTD/svg11.dtd">
<!-- Generated by graphviz version 2.38.0 (20140413.2041)
 -->
<!-- Title: jl/obbox.h Pages: 1 -->
<svg width="779pt" height="95pt"
 viewBox="0.00 0.00 778.50 95.00" xmlns="http://www.w3.org/2000/svg" xmlns:xlink="http://www.w3.org/1999/xlink">
<g id="graph0" class="graph" transform="scale(1 1) rotate(0) translate(4 91)">
<title>jl/obbox.h</title>
<polygon fill="white" stroke="none" points="-4,4 -4,-91 774.5,-91 774.5,4 -4,4"/>
<!-- Node1 -->
<g id="node1" class="node"><title>Node1</title>
<polygon fill="#bfbfbf" stroke="black" points="326.5,-67.5 326.5,-86.5 386.5,-86.5 386.5,-67.5 326.5,-67.5"/>
<text text-anchor="middle" x="356.5" y="-74.5" font-family="Helvetica,sans-Serif" font-size="10.00">jl/obbox.h</text>
</g>
<!-- Node2 -->
<g id="node2" class="node"><title>Node2</title>
<g id="a_node2"><a xlink:href="findpts__local__ext_8c.html" target="_top" xlink:title="jl/ext/findpts_local\l_ext.c">
<polygon fill="white" stroke="black" points="0,-0.5 0,-30.5 101,-30.5 101,-0.5 0,-0.5"/>
<text text-anchor="start" x="8" y="-18.5" font-family="Helvetica,sans-Serif" font-size="10.00">jl/ext/findpts_local</text>
<text text-anchor="middle" x="50.5" y="-7.5" font-family="Helvetica,sans-Serif" font-size="10.00">_ext.c</text>
</a>
</g>
</g>
<!-- Node1&#45;&gt;Node2 -->
<g id="edge1" class="edge"><title>Node1&#45;&gt;Node2</title>
<path fill="none" stroke="midnightblue" d="M316.466,-69.4759C267.489,-61.3176 182.124,-46.5248 109.5,-31 106.818,-30.4267 104.072,-29.8203 101.304,-29.1934"/>
<polygon fill="midnightblue" stroke="midnightblue" points="315.909,-72.9313 326.347,-71.114 317.054,-66.0256 315.909,-72.9313"/>
</g>
<!-- Node3 -->
<g id="node3" class="node"><title>Node3</title>
<g id="a_node3"><a xlink:href="findpts_8c.html" target="_top" xlink:title="jl/findpts.c">
<polygon fill="white" stroke="black" points="119,-6 119,-25 182,-25 182,-6 119,-6"/>
<text text-anchor="middle" x="150.5" y="-13" font-family="Helvetica,sans-Serif" font-size="10.00">jl/findpts.c</text>
</a>
</g>
</g>
<!-- Node1&#45;&gt;Node3 -->
<g id="edge2" class="edge"><title>Node1&#45;&gt;Node3</title>
<path fill="none" stroke="midnightblue" d="M316.336,-66.1085C282.547,-57.5497 233.072,-44.4609 190.5,-31 184.866,-29.2185 178.846,-27.1344 173.233,-25.1108"/>
<polygon fill="midnightblue" stroke="midnightblue" points="315.741,-69.5681 326.293,-68.6147 317.45,-62.7798 315.741,-69.5681"/>
</g>
<!-- Node4 -->
<g id="node4" class="node"><title>Node4</title>
<g id="a_node4"><a xlink:href="findpts__local_8c.html" target="_top" xlink:title="jl/findpts_local.c">
<polygon fill="white" stroke="black" points="200,-6 200,-25 291,-25 291,-6 200,-6"/>
<text text-anchor="middle" x="245.5" y="-13" font-family="Helvetica,sans-Serif" font-size="10.00">jl/findpts_local.c</text>
</a>
</g>
</g>
<!-- Node1&#45;&gt;Node4 -->
<g id="edge3" class="edge"><title>Node1&#45;&gt;Node4</title>
<path fill="none" stroke="midnightblue" d="M331.71,-62.7118C310.212,-51.1881 279.742,-34.855 261.374,-25.0091"/>
<polygon fill="midnightblue" stroke="midnightblue" points="330.129,-65.8354 340.596,-67.4751 333.436,-59.6659 330.129,-65.8354"/>
</g>
<!-- Node5 -->
<g id="node5" class="node"><title>Node5</title>
<g id="a_node5"><a xlink:href="findpts__el__2__test2_8c.html" target="_top" xlink:title="jl/tests/findpts_el\l_2_test2.c">
<polygon fill="white" stroke="black" points="309,-0.5 309,-30.5 404,-30.5 404,-0.5 309,-0.5"/>
<text text-anchor="start" x="317" y="-18.5" font-family="Helvetica,sans-Serif" font-size="10.00">jl/tests/findpts_el</text>
<text text-anchor="middle" x="356.5" y="-7.5" font-family="Helvetica,sans-Serif" font-size="10.00">_2_test2.c</text>
</a>
</g>
</g>
<!-- Node1&#45;&gt;Node5 -->
<g id="edge4" class="edge"><title>Node1&#45;&gt;Node5</title>
<path fill="none" stroke="midnightblue" d="M356.5,-57.2349C356.5,-48.5864 356.5,-38.4969 356.5,-30.523"/>
<polygon fill="midnightblue" stroke="midnightblue" points="353,-57.4751 356.5,-67.4751 360,-57.4751 353,-57.4751"/>
</g>
<!-- Node6 -->
<g id="node6" class="node"><title>Node6</title>
<g id="a_node6"><a xlink:href="findpts__el__3__test2_8c.html" target="_top" xlink:title="jl/tests/findpts_el\l_3_test2.c">
<polygon fill="white" stroke="black" points="422,-0.5 422,-30.5 517,-30.5 517,-0.5 422,-0.5"/>
<text text-anchor="start" x="430" y="-18.5" font-family="Helvetica,sans-Serif" font-size="10.00">jl/tests/findpts_el</text>
<text text-anchor="middle" x="469.5" y="-7.5" font-family="Helvetica,sans-Serif" font-size="10.00">_3_test2.c</text>
</a>
</g>
</g>
<!-- Node1&#45;&gt;Node6 -->
<g id="edge5" class="edge"><title>Node1&#45;&gt;Node6</title>
<path fill="none" stroke="midnightblue" d="M381.556,-62.8068C399.748,-53.2278 424.321,-40.2888 442.868,-30.523"/>
<polygon fill="midnightblue" stroke="midnightblue" points="379.908,-59.719 372.69,-67.4751 383.169,-65.9129 379.908,-59.719"/>
</g>
<!-- Node7 -->
<g id="node7" class="node"><title>Node7</title>
<g id="a_node7"><a xlink:href="findpts__local__test_8c.html" target="_top" xlink:title="jl/tests/findpts_local\l_test.c">
<polygon fill="white" stroke="black" points="535,-0.5 535,-30.5 644,-30.5 644,-0.5 535,-0.5"/>
<text text-anchor="start" x="543" y="-18.5" font-family="Helvetica,sans-Serif" font-size="10.00">jl/tests/findpts_local</text>
<text text-anchor="middle" x="589.5" y="-7.5" font-family="Helvetica,sans-Serif" font-size="10.00">_test.c</text>
</a>
</g>
</g>
<!-- Node1&#45;&gt;Node7 -->
<g id="edge6" class="edge"><title>Node1&#45;&gt;Node7</title>
<path fill="none" stroke="midnightblue" d="M396.707,-65.7326C434.899,-55.9798 492.615,-41.241 534.945,-30.4313"/>
<polygon fill="midnightblue" stroke="midnightblue" points="395.784,-62.3559 386.961,-68.2214 397.516,-69.1383 395.784,-62.3559"/>
</g>
<!-- Node8 -->
<g id="node8" class="node"><title>Node8</title>
<g id="a_node8"><a xlink:href="obbox__test_8c.html" target="_top" xlink:title="jl/tests/obbox_test.c">
<polygon fill="white" stroke="black" points="662.5,-6 662.5,-25 770.5,-25 770.5,-6 662.5,-6"/>
<text text-anchor="middle" x="716.5" y="-13" font-family="Helvetica,sans-Serif" font-size="10.00">jl/tests/obbox_test.c</text>
</a>
</g>
</g>
<!-- Node1&#45;&gt;Node8 -->
<g id="edge7" class="edge"><title>Node1&#45;&gt;Node8</title>
<path fill="none" stroke="midnightblue" d="M396.635,-70.9024C453.864,-63.4109 562.109,-48.4148 653.5,-31 662.651,-29.2563 672.49,-27.1191 681.61,-25.0268"/>
<polygon fill="midnightblue" stroke="midnightblue" points="396.024,-67.4524 386.559,-72.2128 396.927,-74.3939 396.024,-67.4524"/>
</g>
</g>
</svg>
