<?xml version="1.0" encoding="UTF-8" standalone="no"?>
<!DOCTYPE svg PUBLIC "-//W3C//DTD SVG 1.1//EN"
 "http://www.w3.org/Graphics/SVG/1.1/DTD/svg11.dtd">
<!-- Generated by graphviz version 2.38.0 (20140413.2041)
 -->
<!-- Title: op_curl Pages: 1 -->
<svg width="498pt" height="1016pt"
 viewBox="0.00 0.00 498.00 1016.00" xmlns="http://www.w3.org/2000/svg" xmlns:xlink="http://www.w3.org/1999/xlink">
<g id="graph0" class="graph" transform="scale(1 1) rotate(0) translate(4 1012)">
<title>op_curl</title>
<polygon fill="white" stroke="none" points="-4,4 -4,-1012 494,-1012 494,4 -4,4"/>
<!-- Node1 -->
<g id="node1" class="node"><title>Node1</title>
<polygon fill="#bfbfbf" stroke="black" points="0,-627.5 0,-646.5 51,-646.5 51,-627.5 0,-627.5"/>
<text text-anchor="middle" x="25.5" y="-634.5" font-family="Helvetica,sans-Serif" font-size="10.00">op_curl</text>
</g>
<!-- Node2 -->
<g id="node2" class="node"><title>Node2</title>
<g id="a_node2"><a xlink:href="math_8F90.html#a3b43508554f14bdea8e14473d7d0803c" target="_top" xlink:title="copy">
<polygon fill="white" stroke="black" points="97,-684.5 97,-703.5 136,-703.5 136,-684.5 97,-684.5"/>
<text text-anchor="middle" x="116.5" y="-691.5" font-family="Helvetica,sans-Serif" font-size="10.00">copy</text>
</a>
</g>
</g>
<!-- Node1&#45;&gt;Node2 -->
<g id="edge1" class="edge"><title>Node1&#45;&gt;Node2</title>
<path fill="none" stroke="midnightblue" d="M41.5976,-646.669C55.3615,-655.484 75.918,-668.65 91.8591,-678.859"/>
<polygon fill="midnightblue" stroke="midnightblue" points="90.3167,-682.028 100.625,-684.474 94.092,-676.133 90.3167,-682.028"/>
</g>
<!-- Node3 -->
<g id="node3" class="node"><title>Node3</title>
<g id="a_node3"><a xlink:href="navier1_8F90.html#aee3ef7096c2b505346f996daf6cf6cd3" target="_top" xlink:title="Compute some derviatives? DU &#45; dU/dx or dU/dy or dU/dz U &#45; a field variable defined on mesh 1 RM1 &#45; d...">
<polygon fill="white" stroke="black" points="91.5,-646.5 91.5,-665.5 141.5,-665.5 141.5,-646.5 91.5,-646.5"/>
<text text-anchor="middle" x="116.5" y="-653.5" font-family="Helvetica,sans-Serif" font-size="10.00">dudxyz</text>
</a>
</g>
</g>
<!-- Node1&#45;&gt;Node3 -->
<g id="edge2" class="edge"><title>Node1&#45;&gt;Node3</title>
<path fill="none" stroke="midnightblue" d="M51.2915,-642.293C60.6059,-644.281 71.364,-646.578 81.3792,-648.716"/>
<polygon fill="midnightblue" stroke="midnightblue" points="80.9453,-652.202 91.4556,-650.867 82.4068,-645.356 80.9453,-652.202"/>
</g>
<!-- Node4 -->
<g id="node4" class="node"><title>Node4</title>
<g id="a_node4"><a xlink:href="mxm__wrapper_8F90.html#ab9ec2260a10061af6ce1c52f3c8a41da" target="_top" xlink:title="Compute matrix&#45;matrix product C = A*B. ">
<polygon fill="white" stroke="black" points="197.5,-646.5 197.5,-665.5 235.5,-665.5 235.5,-646.5 197.5,-646.5"/>
<text text-anchor="middle" x="216.5" y="-653.5" font-family="Helvetica,sans-Serif" font-size="10.00">mxm</text>
</a>
</g>
</g>
<!-- Node1&#45;&gt;Node4 -->
<g id="edge37" class="edge"><title>Node1&#45;&gt;Node4</title>
<path fill="none" stroke="midnightblue" d="M51.3458,-635.083C75.6063,-633.661 113.512,-632.639 146,-637 159.947,-638.872 175.058,-642.768 187.616,-646.548"/>
<polygon fill="midnightblue" stroke="midnightblue" points="186.894,-649.989 197.483,-649.648 188.992,-643.311 186.894,-649.989"/>
</g>
<!-- Node37 -->
<g id="node37" class="node"><title>Node37</title>
<g id="a_node37"><a xlink:href="navier1_8F90.html#a2f89b54d1ceda6fb201432d7a61bc907" target="_top" xlink:title="opdssum">
<polygon fill="white" stroke="black" points="87,-304.5 87,-323.5 146,-323.5 146,-304.5 87,-304.5"/>
<text text-anchor="middle" x="116.5" y="-311.5" font-family="Helvetica,sans-Serif" font-size="10.00">opdssum</text>
</a>
</g>
</g>
<!-- Node1&#45;&gt;Node37 -->
<g id="edge38" class="edge"><title>Node1&#45;&gt;Node37</title>
<path fill="none" stroke="midnightblue" d="M29.1636,-627.333C41.498,-582.569 93.1821,-394.996 110.108,-333.568"/>
<polygon fill="midnightblue" stroke="midnightblue" points="113.565,-334.2 112.847,-323.629 106.816,-332.34 113.565,-334.2"/>
</g>
<!-- Node3&#45;&gt;Node4 -->
<g id="edge3" class="edge"><title>Node3&#45;&gt;Node4</title>
<path fill="none" stroke="midnightblue" d="M141.725,-656C155.456,-656 172.709,-656 187.077,-656"/>
<polygon fill="midnightblue" stroke="midnightblue" points="187.397,-659.5 197.397,-656 187.397,-652.5 187.397,-659.5"/>
</g>
<!-- Node5 -->
<g id="node5" class="node"><title>Node5</title>
<g id="a_node5"><a xlink:href="mxm__std_8F90.html#ac63fe7516a18dc57dfe913ad2c1453be" target="_top" xlink:title="mxm44_0">
<polygon fill="white" stroke="black" points="424,-988.5 424,-1007.5 486,-1007.5 486,-988.5 424,-988.5"/>
<text text-anchor="middle" x="455" y="-995.5" font-family="Helvetica,sans-Serif" font-size="10.00">mxm44_0</text>
</a>
</g>
</g>
<!-- Node4&#45;&gt;Node5 -->
<g id="edge4" class="edge"><title>Node4&#45;&gt;Node5</title>
<path fill="none" stroke="midnightblue" d="M221.979,-665.583C232.469,-687.781 259.802,-744.251 287,-789 340.537,-877.084 343.522,-909.89 420,-979 421.467,-980.326 423.043,-981.597 424.684,-982.809"/>
<polygon fill="midnightblue" stroke="midnightblue" points="422.927,-985.841 433.221,-988.346 426.736,-979.968 422.927,-985.841"/>
</g>
<!-- Node6 -->
<g id="node6" class="node"><title>Node6</title>
<g id="a_node6"><a xlink:href="mxm__std_8F90.html#af07f4b22fdc3488ca321736743f14b01" target="_top" xlink:title="mxm44_2">
<polygon fill="white" stroke="black" points="304.5,-760.5 304.5,-779.5 366.5,-779.5 366.5,-760.5 304.5,-760.5"/>
<text text-anchor="middle" x="335.5" y="-767.5" font-family="Helvetica,sans-Serif" font-size="10.00">mxm44_2</text>
</a>
</g>
</g>
<!-- Node4&#45;&gt;Node6 -->
<g id="edge5" class="edge"><title>Node4&#45;&gt;Node6</title>
<path fill="none" stroke="midnightblue" d="M222.243,-665.741C231.916,-684.672 255.677,-726.698 287,-751 289.596,-753.014 292.435,-754.844 295.39,-756.499"/>
<polygon fill="midnightblue" stroke="midnightblue" points="293.966,-759.698 304.486,-760.954 297.045,-753.412 293.966,-759.698"/>
</g>
<!-- Node7 -->
<g id="node7" class="node"><title>Node7</title>
<g id="a_node7"><a xlink:href="mxm__bgq_8F90.html#a8a70163b4dbfdbfcce7bff170597fcad" target="_top" xlink:title="mxm_bgq_10">
<polygon fill="white" stroke="black" points="295.5,-722.5 295.5,-741.5 375.5,-741.5 375.5,-722.5 295.5,-722.5"/>
<text text-anchor="middle" x="335.5" y="-729.5" font-family="Helvetica,sans-Serif" font-size="10.00">mxm_bgq_10</text>
</a>
</g>
</g>
<!-- Node4&#45;&gt;Node7 -->
<g id="edge6" class="edge"><title>Node4&#45;&gt;Node7</title>
<path fill="none" stroke="midnightblue" d="M227.129,-665.546C239.917,-677.818 263.624,-699.187 287,-713 290.169,-714.872 293.556,-716.636 297.008,-718.278"/>
<polygon fill="midnightblue" stroke="midnightblue" points="295.63,-721.496 306.192,-722.328 298.455,-715.091 295.63,-721.496"/>
</g>
<!-- Node8 -->
<g id="node8" class="node"><title>Node8</title>
<g id="a_node8"><a xlink:href="mxm__bgq_8F90.html#a27529ace9834454b8906f29e02718629" target="_top" xlink:title="mxm_bgq_12">
<polygon fill="white" stroke="black" points="295.5,-684.5 295.5,-703.5 375.5,-703.5 375.5,-684.5 295.5,-684.5"/>
<text text-anchor="middle" x="335.5" y="-691.5" font-family="Helvetica,sans-Serif" font-size="10.00">mxm_bgq_12</text>
</a>
</g>
</g>
<!-- Node4&#45;&gt;Node8 -->
<g id="edge7" class="edge"><title>Node4&#45;&gt;Node8</title>
<path fill="none" stroke="midnightblue" d="M235.525,-661.854C251.39,-667.007 275.044,-674.69 295.251,-681.252"/>
<polygon fill="midnightblue" stroke="midnightblue" points="294.252,-684.608 304.844,-684.368 296.414,-677.95 294.252,-684.608"/>
</g>
<!-- Node9 -->
<g id="node9" class="node"><title>Node9</title>
<g id="a_node9"><a xlink:href="mxm__bgq_8F90.html#a3fda9ea4bc7a5713a19d6939fa2b541f" target="_top" xlink:title="mxm_bgq_16">
<polygon fill="white" stroke="black" points="295.5,-646.5 295.5,-665.5 375.5,-665.5 375.5,-646.5 295.5,-646.5"/>
<text text-anchor="middle" x="335.5" y="-653.5" font-family="Helvetica,sans-Serif" font-size="10.00">mxm_bgq_16</text>
</a>
</g>
</g>
<!-- Node4&#45;&gt;Node9 -->
<g id="edge8" class="edge"><title>Node4&#45;&gt;Node9</title>
<path fill="none" stroke="midnightblue" d="M235.525,-656C248.814,-656 267.568,-656 285.183,-656"/>
<polygon fill="midnightblue" stroke="midnightblue" points="285.373,-659.5 295.373,-656 285.373,-652.5 285.373,-659.5"/>
</g>
<!-- Node10 -->
<g id="node10" class="node"><title>Node10</title>
<g id="a_node10"><a xlink:href="mxm__bgq_8F90.html#af192c3c8b982aa5bbc2a757156718a91" target="_top" xlink:title="mxm_bgq_6">
<polygon fill="white" stroke="black" points="298.5,-608.5 298.5,-627.5 372.5,-627.5 372.5,-608.5 298.5,-608.5"/>
<text text-anchor="middle" x="335.5" y="-615.5" font-family="Helvetica,sans-Serif" font-size="10.00">mxm_bgq_6</text>
</a>
</g>
</g>
<!-- Node4&#45;&gt;Node10 -->
<g id="edge9" class="edge"><title>Node4&#45;&gt;Node10</title>
<path fill="none" stroke="midnightblue" d="M235.525,-650.146C251.39,-644.993 275.044,-637.31 295.251,-630.748"/>
<polygon fill="midnightblue" stroke="midnightblue" points="296.414,-634.05 304.844,-627.632 294.252,-627.392 296.414,-634.05"/>
</g>
<!-- Node11 -->
<g id="node11" class="node"><title>Node11</title>
<g id="a_node11"><a xlink:href="mxm__bgq_8F90.html#a8faaef428336095704ece51624bbfe92" target="_top" xlink:title="mxm_bgq_8">
<polygon fill="white" stroke="black" points="298.5,-570.5 298.5,-589.5 372.5,-589.5 372.5,-570.5 298.5,-570.5"/>
<text text-anchor="middle" x="335.5" y="-577.5" font-family="Helvetica,sans-Serif" font-size="10.00">mxm_bgq_8</text>
</a>
</g>
</g>
<!-- Node4&#45;&gt;Node11 -->
<g id="edge10" class="edge"><title>Node4&#45;&gt;Node11</title>
<path fill="none" stroke="midnightblue" d="M227.129,-646.454C239.917,-634.182 263.624,-612.813 287,-599 290.169,-597.128 293.556,-595.364 297.008,-593.722"/>
<polygon fill="midnightblue" stroke="midnightblue" points="298.455,-596.909 306.192,-589.672 295.63,-590.504 298.455,-596.909"/>
</g>
<!-- Node12 -->
<g id="node12" class="node"><title>Node12</title>
<g id="a_node12"><a xlink:href="mxm__std_8F90.html#aa9e8685c4a72f18fb5d1ee88ed17a3d6" target="_top" xlink:title="unrolled loop version ">
<polygon fill="white" stroke="black" points="312,-532.5 312,-551.5 359,-551.5 359,-532.5 312,-532.5"/>
<text text-anchor="middle" x="335.5" y="-539.5" font-family="Helvetica,sans-Serif" font-size="10.00">mxmf2</text>
</a>
</g>
</g>
<!-- Node4&#45;&gt;Node12 -->
<g id="edge11" class="edge"><title>Node4&#45;&gt;Node12</title>
<path fill="none" stroke="midnightblue" d="M222.243,-646.259C231.916,-627.328 255.677,-585.302 287,-561 291.561,-557.461 296.869,-554.494 302.249,-552.037"/>
<polygon fill="midnightblue" stroke="midnightblue" points="303.906,-555.143 311.867,-548.152 301.284,-548.652 303.906,-555.143"/>
</g>
<!-- Node12&#45;&gt;Node5 -->
<g id="edge36" class="edge"><title>Node12&#45;&gt;Node5</title>
<path fill="none" stroke="midnightblue" d="M359.055,-545.688C368.242,-548.374 378.075,-553.01 384,-561 439.536,-635.887 369.41,-900.687 420,-979 420.605,-979.937 421.274,-980.832 421.995,-981.687"/>
<polygon fill="midnightblue" stroke="midnightblue" points="419.779,-984.398 429.616,-988.332 424.379,-979.122 419.779,-984.398"/>
</g>
<!-- Node13 -->
<g id="node13" class="node"><title>Node13</title>
<g id="a_node13"><a xlink:href="mxm__std_8F90.html#a7d3ac03517b3934b98857b22f7f78788" target="_top" xlink:title="mxf1">
<polygon fill="white" stroke="black" points="435.5,-950.5 435.5,-969.5 474.5,-969.5 474.5,-950.5 435.5,-950.5"/>
<text text-anchor="middle" x="455" y="-957.5" font-family="Helvetica,sans-Serif" font-size="10.00">mxf1</text>
</a>
</g>
</g>
<!-- Node12&#45;&gt;Node13 -->
<g id="edge12" class="edge"><title>Node12&#45;&gt;Node13</title>
<path fill="none" stroke="midnightblue" d="M359.023,-545.712C368.204,-548.403 378.04,-553.035 384,-561 485.634,-696.831 327.339,-798.897 420,-941 421.697,-943.602 423.879,-945.882 426.319,-947.872"/>
<polygon fill="midnightblue" stroke="midnightblue" points="424.953,-951.151 435.269,-953.565 428.71,-945.244 424.953,-951.151"/>
</g>
<!-- Node14 -->
<g id="node14" class="node"><title>Node14</title>
<g id="a_node14"><a xlink:href="mxm__std_8F90.html#a5786b175fcbe28ecafe1d878687c3ccf" target="_top" xlink:title="mxf10">
<polygon fill="white" stroke="black" points="432.5,-912.5 432.5,-931.5 477.5,-931.5 477.5,-912.5 432.5,-912.5"/>
<text text-anchor="middle" x="455" y="-919.5" font-family="Helvetica,sans-Serif" font-size="10.00">mxf10</text>
</a>
</g>
</g>
<!-- Node12&#45;&gt;Node14 -->
<g id="edge13" class="edge"><title>Node12&#45;&gt;Node14</title>
<path fill="none" stroke="midnightblue" d="M359.476,-545.888C368.507,-548.604 378.106,-553.208 384,-561 476.202,-682.896 335.852,-775.41 420,-903 421.145,-904.736 422.505,-906.329 424.013,-907.788"/>
<polygon fill="midnightblue" stroke="midnightblue" points="422.335,-910.899 432.461,-914.014 426.488,-905.264 422.335,-910.899"/>
</g>
<!-- Node15 -->
<g id="node15" class="node"><title>Node15</title>
<g id="a_node15"><a xlink:href="mxm__std_8F90.html#a244c7a41b5b7a22acba71c34552c2774" target="_top" xlink:title="mxf11">
<polygon fill="white" stroke="black" points="432.5,-874.5 432.5,-893.5 477.5,-893.5 477.5,-874.5 432.5,-874.5"/>
<text text-anchor="middle" x="455" y="-881.5" font-family="Helvetica,sans-Serif" font-size="10.00">mxf11</text>
</a>
</g>
</g>
<!-- Node12&#45;&gt;Node15 -->
<g id="edge14" class="edge"><title>Node12&#45;&gt;Node15</title>
<path fill="none" stroke="midnightblue" d="M359.426,-545.925C368.45,-548.648 378.056,-553.246 384,-561 466.78,-668.974 344.356,-751.911 420,-865 421.128,-866.686 422.458,-868.238 423.928,-869.664"/>
<polygon fill="midnightblue" stroke="midnightblue" points="422.038,-872.62 432.15,-875.782 426.217,-867.005 422.038,-872.62"/>
</g>
<!-- Node16 -->
<g id="node16" class="node"><title>Node16</title>
<g id="a_node16"><a xlink:href="mxm__std_8F90.html#afb2e2cde9040ab037e3586b0deef3851" target="_top" xlink:title="mxf12">
<polygon fill="white" stroke="black" points="432.5,-836.5 432.5,-855.5 477.5,-855.5 477.5,-836.5 432.5,-836.5"/>
<text text-anchor="middle" x="455" y="-843.5" font-family="Helvetica,sans-Serif" font-size="10.00">mxf12</text>
</a>
</g>
</g>
<!-- Node12&#45;&gt;Node16 -->
<g id="edge15" class="edge"><title>Node12&#45;&gt;Node16</title>
<path fill="none" stroke="midnightblue" d="M359.364,-545.974C368.376,-548.705 377.991,-553.296 384,-561 457.371,-655.07 352.849,-728.394 420,-827 421.142,-828.677 422.483,-830.221 423.961,-831.642"/>
<polygon fill="midnightblue" stroke="midnightblue" points="422.084,-834.607 432.203,-837.747 426.251,-828.982 422.084,-834.607"/>
</g>
<!-- Node17 -->
<g id="node17" class="node"><title>Node17</title>
<g id="a_node17"><a xlink:href="mxm__std_8F90.html#a6a048a62b47a5c2327279e158c1689df" target="_top" xlink:title="mxf13">
<polygon fill="white" stroke="black" points="432.5,-798.5 432.5,-817.5 477.5,-817.5 477.5,-798.5 432.5,-798.5"/>
<text text-anchor="middle" x="455" y="-805.5" font-family="Helvetica,sans-Serif" font-size="10.00">mxf13</text>
</a>
</g>
</g>
<!-- Node12&#45;&gt;Node17 -->
<g id="edge16" class="edge"><title>Node12&#45;&gt;Node17</title>
<path fill="none" stroke="midnightblue" d="M359.281,-546.039C368.28,-548.781 377.907,-553.363 384,-561 447.983,-641.191 361.323,-704.849 420,-789 421.16,-790.664 422.516,-792.199 424.004,-793.612"/>
<polygon fill="midnightblue" stroke="midnightblue" points="422.145,-796.589 432.273,-799.699 426.294,-790.952 422.145,-796.589"/>
</g>
<!-- Node18 -->
<g id="node18" class="node"><title>Node18</title>
<g id="a_node18"><a xlink:href="mxm__std_8F90.html#a6e57628b882cb8bcac215e9a5b523eed" target="_top" xlink:title="mxf14">
<polygon fill="white" stroke="black" points="432.5,-760.5 432.5,-779.5 477.5,-779.5 477.5,-760.5 432.5,-760.5"/>
<text text-anchor="middle" x="455" y="-767.5" font-family="Helvetica,sans-Serif" font-size="10.00">mxf14</text>
</a>
</g>
</g>
<!-- Node12&#45;&gt;Node18 -->
<g id="edge17" class="edge"><title>Node12&#45;&gt;Node18</title>
<path fill="none" stroke="midnightblue" d="M359.168,-546.131C368.147,-548.889 377.79,-553.457 384,-561 438.627,-627.353 369.766,-681.262 420,-751 421.186,-752.646 422.56,-754.167 424.063,-755.57"/>
<polygon fill="midnightblue" stroke="midnightblue" points="422.228,-758.563 432.369,-761.631 426.354,-752.909 422.228,-758.563"/>
</g>
<!-- Node19 -->
<g id="node19" class="node"><title>Node19</title>
<g id="a_node19"><a xlink:href="mxm__std_8F90.html#a02e79201be026faf756be00e58334c4f" target="_top" xlink:title="mxf15">
<polygon fill="white" stroke="black" points="432.5,-722.5 432.5,-741.5 477.5,-741.5 477.5,-722.5 432.5,-722.5"/>
<text text-anchor="middle" x="455" y="-729.5" font-family="Helvetica,sans-Serif" font-size="10.00">mxf15</text>
</a>
</g>
</g>
<!-- Node12&#45;&gt;Node19 -->
<g id="edge18" class="edge"><title>Node12&#45;&gt;Node19</title>
<path fill="none" stroke="midnightblue" d="M359.002,-546.27C367.954,-549.051 377.621,-553.6 384,-561 429.328,-613.584 378.158,-657.602 420,-713 421.192,-714.578 422.556,-716.044 424.036,-717.402"/>
<polygon fill="midnightblue" stroke="midnightblue" points="422.013,-720.259 432.156,-723.321 426.137,-714.602 422.013,-720.259"/>
</g>
<!-- Node20 -->
<g id="node20" class="node"><title>Node20</title>
<g id="a_node20"><a xlink:href="mxm__std_8F90.html#a2fbea6eeadc258673ba8ea5708593aee" target="_top" xlink:title="mxf16">
<polygon fill="white" stroke="black" points="432.5,-684.5 432.5,-703.5 477.5,-703.5 477.5,-684.5 432.5,-684.5"/>
<text text-anchor="middle" x="455" y="-691.5" font-family="Helvetica,sans-Serif" font-size="10.00">mxf16</text>
</a>
</g>
</g>
<!-- Node12&#45;&gt;Node20 -->
<g id="edge19" class="edge"><title>Node12&#45;&gt;Node20</title>
<path fill="none" stroke="midnightblue" d="M359.229,-546.658C368.001,-549.489 377.475,-553.969 384,-561 420.143,-599.946 386.444,-633.804 420,-675 421.249,-676.534 422.657,-677.965 424.17,-679.297"/>
<polygon fill="midnightblue" stroke="midnightblue" points="422.203,-682.192 432.377,-685.148 426.266,-676.493 422.203,-682.192"/>
</g>
<!-- Node21 -->
<g id="node21" class="node"><title>Node21</title>
<g id="a_node21"><a xlink:href="mxm__std_8F90.html#a3829af481cd230e6aadef08feab9a278" target="_top" xlink:title="mxf17">
<polygon fill="white" stroke="black" points="432.5,-646.5 432.5,-665.5 477.5,-665.5 477.5,-646.5 432.5,-646.5"/>
<text text-anchor="middle" x="455" y="-653.5" font-family="Helvetica,sans-Serif" font-size="10.00">mxf17</text>
</a>
</g>
</g>
<!-- Node12&#45;&gt;Node21 -->
<g id="edge20" class="edge"><title>Node12&#45;&gt;Node21</title>
<path fill="none" stroke="midnightblue" d="M359.247,-547.284C367.817,-550.186 377.14,-554.552 384,-561 411.233,-586.599 394.474,-609.698 420,-637 421.206,-638.29 422.521,-639.515 423.908,-640.675"/>
<polygon fill="midnightblue" stroke="midnightblue" points="422.209,-643.756 432.416,-646.597 426.208,-638.011 422.209,-643.756"/>
</g>
<!-- Node22 -->
<g id="node22" class="node"><title>Node22</title>
<g id="a_node22"><a xlink:href="mxm__std_8F90.html#a48ed8195cc978a87c005b3306a974894" target="_top" xlink:title="mxf18">
<polygon fill="white" stroke="black" points="432.5,-608.5 432.5,-627.5 477.5,-627.5 477.5,-608.5 432.5,-608.5"/>
<text text-anchor="middle" x="455" y="-615.5" font-family="Helvetica,sans-Serif" font-size="10.00">mxf18</text>
</a>
</g>
</g>
<!-- Node12&#45;&gt;Node22 -->
<g id="edge21" class="edge"><title>Node12&#45;&gt;Node22</title>
<path fill="none" stroke="midnightblue" d="M359.25,-548.83C367.442,-551.861 376.505,-555.911 384,-561 403.247,-574.068 401.636,-584.718 420,-599 421.778,-600.383 423.669,-601.728 425.614,-603.021"/>
<polygon fill="midnightblue" stroke="midnightblue" points="423.937,-606.097 434.297,-608.317 427.582,-600.121 423.937,-606.097"/>
</g>
<!-- Node23 -->
<g id="node23" class="node"><title>Node23</title>
<g id="a_node23"><a xlink:href="mxm__std_8F90.html#a28a9857286e11804e1a97875028ecb09" target="_top" xlink:title="mxf19">
<polygon fill="white" stroke="black" points="432.5,-570.5 432.5,-589.5 477.5,-589.5 477.5,-570.5 432.5,-570.5"/>
<text text-anchor="middle" x="455" y="-577.5" font-family="Helvetica,sans-Serif" font-size="10.00">mxf19</text>
</a>
</g>
</g>
<!-- Node12&#45;&gt;Node23 -->
<g id="edge22" class="edge"><title>Node12&#45;&gt;Node23</title>
<path fill="none" stroke="midnightblue" d="M359.155,-549.327C377.183,-555.157 402.613,-563.381 422.604,-569.846"/>
<polygon fill="midnightblue" stroke="midnightblue" points="421.617,-573.206 432.209,-572.953 423.771,-566.545 421.617,-573.206"/>
</g>
<!-- Node24 -->
<g id="node24" class="node"><title>Node24</title>
<g id="a_node24"><a xlink:href="mxm__std_8F90.html#acd223c583f3a9242fda7a1b8897b624d" target="_top" xlink:title="mxf2">
<polygon fill="white" stroke="black" points="435.5,-532.5 435.5,-551.5 474.5,-551.5 474.5,-532.5 435.5,-532.5"/>
<text text-anchor="middle" x="455" y="-539.5" font-family="Helvetica,sans-Serif" font-size="10.00">mxf2</text>
</a>
</g>
</g>
<!-- Node12&#45;&gt;Node24 -->
<g id="edge23" class="edge"><title>Node12&#45;&gt;Node24</title>
<path fill="none" stroke="midnightblue" d="M359.155,-542C377.923,-542 404.713,-542 425.037,-542"/>
<polygon fill="midnightblue" stroke="midnightblue" points="425.284,-545.5 435.284,-542 425.284,-538.5 425.284,-545.5"/>
</g>
<!-- Node25 -->
<g id="node25" class="node"><title>Node25</title>
<g id="a_node25"><a xlink:href="mxm__std_8F90.html#af60059bd60847f48acdf6461fefa3b22" target="_top" xlink:title="mxf20">
<polygon fill="white" stroke="black" points="432.5,-494.5 432.5,-513.5 477.5,-513.5 477.5,-494.5 432.5,-494.5"/>
<text text-anchor="middle" x="455" y="-501.5" font-family="Helvetica,sans-Serif" font-size="10.00">mxf20</text>
</a>
</g>
</g>
<!-- Node12&#45;&gt;Node25 -->
<g id="edge24" class="edge"><title>Node12&#45;&gt;Node25</title>
<path fill="none" stroke="midnightblue" d="M359.155,-534.673C377.183,-528.843 402.613,-520.619 422.604,-514.154"/>
<polygon fill="midnightblue" stroke="midnightblue" points="423.771,-517.455 432.209,-511.047 421.617,-510.794 423.771,-517.455"/>
</g>
<!-- Node26 -->
<g id="node26" class="node"><title>Node26</title>
<g id="a_node26"><a xlink:href="mxm__std_8F90.html#a825db174c5643aef5e4cdf57067ebbbb" target="_top" xlink:title="mxf21">
<polygon fill="white" stroke="black" points="432.5,-456.5 432.5,-475.5 477.5,-475.5 477.5,-456.5 432.5,-456.5"/>
<text text-anchor="middle" x="455" y="-463.5" font-family="Helvetica,sans-Serif" font-size="10.00">mxf21</text>
</a>
</g>
</g>
<!-- Node12&#45;&gt;Node26 -->
<g id="edge25" class="edge"><title>Node12&#45;&gt;Node26</title>
<path fill="none" stroke="midnightblue" d="M349.849,-532.341C366.132,-520.688 394.629,-500.705 420,-485 422.345,-483.549 424.805,-482.077 427.285,-480.63"/>
<polygon fill="midnightblue" stroke="midnightblue" points="429.221,-483.555 436.179,-475.566 425.757,-477.472 429.221,-483.555"/>
</g>
<!-- Node27 -->
<g id="node27" class="node"><title>Node27</title>
<g id="a_node27"><a xlink:href="mxm__std_8F90.html#a1f2059cb835b2818aef861f2f59a0a72" target="_top" xlink:title="mxf22">
<polygon fill="white" stroke="black" points="432.5,-418.5 432.5,-437.5 477.5,-437.5 477.5,-418.5 432.5,-418.5"/>
<text text-anchor="middle" x="455" y="-425.5" font-family="Helvetica,sans-Serif" font-size="10.00">mxf22</text>
</a>
</g>
</g>
<!-- Node12&#45;&gt;Node27 -->
<g id="edge26" class="edge"><title>Node12&#45;&gt;Node27</title>
<path fill="none" stroke="midnightblue" d="M343.193,-532.411C356.317,-514.106 387.038,-473.637 420,-447 421.752,-445.584 423.624,-444.215 425.554,-442.905"/>
<polygon fill="midnightblue" stroke="midnightblue" points="427.531,-445.798 434.207,-437.571 423.858,-439.839 427.531,-445.798"/>
</g>
<!-- Node28 -->
<g id="node28" class="node"><title>Node28</title>
<g id="a_node28"><a xlink:href="mxm__std_8F90.html#a3dc6491b8d44b702dbbb13a01f887c59" target="_top" xlink:title="mxf23">
<polygon fill="white" stroke="black" points="432.5,-380.5 432.5,-399.5 477.5,-399.5 477.5,-380.5 432.5,-380.5"/>
<text text-anchor="middle" x="455" y="-387.5" font-family="Helvetica,sans-Serif" font-size="10.00">mxf23</text>
</a>
</g>
</g>
<!-- Node12&#45;&gt;Node28 -->
<g id="edge27" class="edge"><title>Node12&#45;&gt;Node28</title>
<path fill="none" stroke="midnightblue" d="M340.596,-532.161C350.883,-508.416 379.879,-447.124 420,-409 421.434,-407.638 422.984,-406.338 424.605,-405.106"/>
<polygon fill="midnightblue" stroke="midnightblue" points="426.667,-407.939 433.091,-399.514 422.815,-402.094 426.667,-407.939"/>
</g>
<!-- Node29 -->
<g id="node29" class="node"><title>Node29</title>
<g id="a_node29"><a xlink:href="mxm__std_8F90.html#af0752c9a61343489900f8d812c6980ed" target="_top" xlink:title="mxf24">
<polygon fill="white" stroke="black" points="432.5,-342.5 432.5,-361.5 477.5,-361.5 477.5,-342.5 432.5,-342.5"/>
<text text-anchor="middle" x="455" y="-349.5" font-family="Helvetica,sans-Serif" font-size="10.00">mxf24</text>
</a>
</g>
</g>
<!-- Node12&#45;&gt;Node29 -->
<g id="edge28" class="edge"><title>Node12&#45;&gt;Node29</title>
<path fill="none" stroke="midnightblue" d="M339.001,-532.302C346.676,-504.18 372.318,-421.397 420,-371 421.214,-369.717 422.534,-368.498 423.927,-367.343"/>
<polygon fill="midnightblue" stroke="midnightblue" points="426.225,-370.008 432.449,-361.434 422.237,-364.256 426.225,-370.008"/>
</g>
<!-- Node30 -->
<g id="node30" class="node"><title>Node30</title>
<g id="a_node30"><a xlink:href="mxm__std_8F90.html#abff718a387aa354f77d0e8b0ffa98867" target="_top" xlink:title="mxf3">
<polygon fill="white" stroke="black" points="435.5,-304.5 435.5,-323.5 474.5,-323.5 474.5,-304.5 435.5,-304.5"/>
<text text-anchor="middle" x="455" y="-311.5" font-family="Helvetica,sans-Serif" font-size="10.00">mxf3</text>
</a>
</g>
</g>
<!-- Node12&#45;&gt;Node30 -->
<g id="edge29" class="edge"><title>Node12&#45;&gt;Node30</title>
<path fill="none" stroke="midnightblue" d="M337.974,-532.492C343.348,-500.634 364.566,-396.122 420,-333 421.966,-330.761 424.263,-328.73 426.718,-326.902"/>
<polygon fill="midnightblue" stroke="midnightblue" points="428.801,-329.727 435.425,-321.459 425.09,-323.792 428.801,-329.727"/>
</g>
<!-- Node31 -->
<g id="node31" class="node"><title>Node31</title>
<g id="a_node31"><a xlink:href="mxm__std_8F90.html#a2f4e4e1b4daebbd4d0580029d0f54016" target="_top" xlink:title="mxf4">
<polygon fill="white" stroke="black" points="435.5,-266.5 435.5,-285.5 474.5,-285.5 474.5,-266.5 435.5,-266.5"/>
<text text-anchor="middle" x="455" y="-273.5" font-family="Helvetica,sans-Serif" font-size="10.00">mxf4</text>
</a>
</g>
</g>
<!-- Node12&#45;&gt;Node31 -->
<g id="edge30" class="edge"><title>Node12&#45;&gt;Node31</title>
<path fill="none" stroke="midnightblue" d="M337.303,-532.304C340.72,-496.641 356.913,-370.88 420,-295 421.905,-292.709 424.161,-290.644 426.592,-288.794"/>
<polygon fill="midnightblue" stroke="midnightblue" points="428.675,-291.618 435.268,-283.324 424.942,-285.697 428.675,-291.618"/>
</g>
<!-- Node32 -->
<g id="node32" class="node"><title>Node32</title>
<g id="a_node32"><a xlink:href="mxm__std_8F90.html#a5a6d5c31350c601ba8327b75a72cba0a" target="_top" xlink:title="mxf5">
<polygon fill="white" stroke="black" points="435.5,-228.5 435.5,-247.5 474.5,-247.5 474.5,-228.5 435.5,-228.5"/>
<text text-anchor="middle" x="455" y="-235.5" font-family="Helvetica,sans-Serif" font-size="10.00">mxf5</text>
</a>
</g>
</g>
<!-- Node12&#45;&gt;Node32 -->
<g id="edge31" class="edge"><title>Node12&#45;&gt;Node32</title>
<path fill="none" stroke="midnightblue" d="M336.772,-532.471C338.347,-493.759 348.964,-346.093 420,-257 421.857,-254.67 424.083,-252.58 426.494,-250.715"/>
<polygon fill="midnightblue" stroke="midnightblue" points="428.578,-253.538 435.146,-245.226 424.827,-247.628 428.578,-253.538"/>
</g>
<!-- Node33 -->
<g id="node33" class="node"><title>Node33</title>
<g id="a_node33"><a xlink:href="mxm__std_8F90.html#a38a142edde1e72a918d280747a319f7a" target="_top" xlink:title="mxf6">
<polygon fill="white" stroke="black" points="435.5,-190.5 435.5,-209.5 474.5,-209.5 474.5,-190.5 435.5,-190.5"/>
<text text-anchor="middle" x="455" y="-197.5" font-family="Helvetica,sans-Serif" font-size="10.00">mxf6</text>
</a>
</g>
</g>
<!-- Node12&#45;&gt;Node33 -->
<g id="edge32" class="edge"><title>Node12&#45;&gt;Node33</title>
<path fill="none" stroke="midnightblue" d="M336.372,-532.38C336.3,-490.459 341.106,-321.266 420,-219 421.859,-216.591 424.114,-214.441 426.57,-212.535"/>
<polygon fill="midnightblue" stroke="midnightblue" points="428.812,-215.259 435.404,-206.965 425.079,-209.338 428.812,-215.259"/>
</g>
<!-- Node34 -->
<g id="node34" class="node"><title>Node34</title>
<g id="a_node34"><a xlink:href="mxm__std_8F90.html#a1919ea16c0a7b4e248e45e983c29d965" target="_top" xlink:title="mxf7">
<polygon fill="white" stroke="black" points="435.5,-152.5 435.5,-171.5 474.5,-171.5 474.5,-152.5 435.5,-152.5"/>
<text text-anchor="middle" x="455" y="-159.5" font-family="Helvetica,sans-Serif" font-size="10.00">mxf7</text>
</a>
</g>
</g>
<!-- Node12&#45;&gt;Node34 -->
<g id="edge33" class="edge"><title>Node12&#45;&gt;Node34</title>
<path fill="none" stroke="midnightblue" d="M336.053,-532.492C334.445,-487.891 333.07,-296.726 420,-181 421.828,-178.567 424.063,-176.402 426.507,-174.487"/>
<polygon fill="midnightblue" stroke="midnightblue" points="428.748,-177.211 435.327,-168.906 425.005,-171.296 428.748,-177.211"/>
</g>
<!-- Node35 -->
<g id="node35" class="node"><title>Node35</title>
<g id="a_node35"><a xlink:href="mxm__std_8F90.html#af4bd28930a9d674bbcad09ad75fa81ef" target="_top" xlink:title="mxf8">
<polygon fill="white" stroke="black" points="435.5,-114.5 435.5,-133.5 474.5,-133.5 474.5,-114.5 435.5,-114.5"/>
<text text-anchor="middle" x="455" y="-121.5" font-family="Helvetica,sans-Serif" font-size="10.00">mxf8</text>
</a>
</g>
</g>
<!-- Node12&#45;&gt;Node35 -->
<g id="edge34" class="edge"><title>Node12&#45;&gt;Node35</title>
<path fill="none" stroke="midnightblue" d="M337.453,-532.162C342.936,-477.218 371.91,-208.44 420,-143 421.802,-140.548 424.021,-138.371 426.455,-136.448"/>
<polygon fill="midnightblue" stroke="midnightblue" points="428.695,-139.172 435.263,-130.858 424.944,-133.261 428.695,-139.172"/>
</g>
<!-- Node36 -->
<g id="node36" class="node"><title>Node36</title>
<g id="a_node36"><a xlink:href="mxm__std_8F90.html#a8ab38e8d33e92444b748159b82759c27" target="_top" xlink:title="mxf9">
<polygon fill="white" stroke="black" points="435.5,-76.5 435.5,-95.5 474.5,-95.5 474.5,-76.5 435.5,-76.5"/>
<text text-anchor="middle" x="455" y="-83.5" font-family="Helvetica,sans-Serif" font-size="10.00">mxf9</text>
</a>
</g>
</g>
<!-- Node12&#45;&gt;Node36 -->
<g id="edge35" class="edge"><title>Node12&#45;&gt;Node36</title>
<path fill="none" stroke="midnightblue" d="M337.24,-532.381C341.817,-474.947 367.802,-177.348 420,-105 421.78,-102.532 423.985,-100.345 426.411,-98.4161"/>
<polygon fill="midnightblue" stroke="midnightblue" points="428.65,-101.14 435.209,-92.8192 424.893,-95.2336 428.65,-101.14"/>
</g>
<!-- Node38 -->
<g id="node38" class="node"><title>Node38</title>
<g id="a_node38"><a xlink:href="dssum_8F90.html#aab5cbea45cf919be4147d3f722cd56c3" target="_top" xlink:title="Direct stiffness summation of the face data, for field U. ">
<polygon fill="white" stroke="black" points="182,-38.5 182,-57.5 251,-57.5 251,-38.5 182,-38.5"/>
<text text-anchor="middle" x="216.5" y="-45.5" font-family="Helvetica,sans-Serif" font-size="10.00">vec_dssum</text>
</a>
</g>
</g>
<!-- Node37&#45;&gt;Node38 -->
<g id="edge39" class="edge"><title>Node37&#45;&gt;Node38</title>
<path fill="none" stroke="midnightblue" d="M121.104,-304.217C135.513,-265.108 189.129,-119.578 208.479,-67.0566"/>
<polygon fill="midnightblue" stroke="midnightblue" points="211.794,-68.1844 211.966,-57.591 205.225,-65.7644 211.794,-68.1844"/>
</g>
<!-- Node39 -->
<g id="node39" class="node"><title>Node39</title>
<g id="a_node39"><a xlink:href="classctimer.html#abcecbc845c8ee72e13a19eaa30b80d77" target="_top" xlink:title="ctimer::dnekclock">
<polygon fill="white" stroke="black" points="287,-38.5 287,-57.5 384,-57.5 384,-38.5 287,-38.5"/>
<text text-anchor="middle" x="335.5" y="-45.5" font-family="Helvetica,sans-Serif" font-size="10.00">ctimer::dnekclock</text>
</a>
</g>
</g>
<!-- Node38&#45;&gt;Node39 -->
<g id="edge40" class="edge"><title>Node38&#45;&gt;Node39</title>
<path fill="none" stroke="midnightblue" d="M251.028,-48C258.987,-48 267.706,-48 276.413,-48"/>
<polygon fill="midnightblue" stroke="midnightblue" points="276.582,-51.5001 286.582,-48 276.582,-44.5001 276.582,-51.5001"/>
</g>
<!-- Node41 -->
<g id="node41" class="node"><title>Node41</title>
<g id="a_node41"><a xlink:href="comm__mpi_8F90.html#a4acb4d8e379294232e9219bec063d8f3" target="_top" xlink:title="nekgsync">
<polygon fill="white" stroke="black" points="304.5,-0.5 304.5,-19.5 366.5,-19.5 366.5,-0.5 304.5,-0.5"/>
<text text-anchor="middle" x="335.5" y="-7.5" font-family="Helvetica,sans-Serif" font-size="10.00">nekgsync</text>
</a>
</g>
</g>
<!-- Node38&#45;&gt;Node41 -->
<g id="edge42" class="edge"><title>Node38&#45;&gt;Node41</title>
<path fill="none" stroke="midnightblue" d="M247.024,-38.411C261.712,-33.6406 279.66,-27.8112 295.468,-22.6771"/>
<polygon fill="midnightblue" stroke="midnightblue" points="296.556,-26.0039 304.985,-19.5859 294.393,-19.3462 296.556,-26.0039"/>
</g>
<!-- Node40 -->
<g id="node40" class="node"><title>Node40</title>
<g id="a_node40"><a xlink:href="mpi__dummy_8F90.html#ae6a5ef945f87c2c27849696b70f3af2a" target="_top" xlink:title="mpi_wtime">
<polygon fill="white" stroke="black" points="422,-38.5 422,-57.5 488,-57.5 488,-38.5 422,-38.5"/>
<text text-anchor="middle" x="455" y="-45.5" font-family="Helvetica,sans-Serif" font-size="10.00">mpi_wtime</text>
</a>
</g>
</g>
<!-- Node39&#45;&gt;Node40 -->
<g id="edge41" class="edge"><title>Node39&#45;&gt;Node40</title>
<path fill="none" stroke="midnightblue" d="M384.292,-48C393.334,-48 402.735,-48 411.597,-48"/>
<polygon fill="midnightblue" stroke="midnightblue" points="411.698,-51.5001 421.698,-48 411.698,-44.5001 411.698,-51.5001"/>
</g>
<!-- Node42 -->
<g id="node42" class="node"><title>Node42</title>
<g id="a_node42"><a xlink:href="mpi__dummy_8F90.html#a070afe564196eb48413dbf1a9fbc99aa" target="_top" xlink:title="mpi_barrier">
<polygon fill="white" stroke="black" points="420,-0.5 420,-19.5 490,-19.5 490,-0.5 420,-0.5"/>
<text text-anchor="middle" x="455" y="-7.5" font-family="Helvetica,sans-Serif" font-size="10.00">mpi_barrier</text>
</a>
</g>
</g>
<!-- Node41&#45;&gt;Node42 -->
<g id="edge43" class="edge"><title>Node41&#45;&gt;Node42</title>
<path fill="none" stroke="midnightblue" d="M366.759,-10C379.782,-10 395.268,-10 409.554,-10"/>
<polygon fill="midnightblue" stroke="midnightblue" points="409.691,-13.5001 419.691,-10 409.691,-6.5001 409.691,-13.5001"/>
</g>
</g>
</svg>
