<?xml version="1.0" encoding="UTF-8" standalone="no"?>
<!DOCTYPE svg PUBLIC "-//W3C//DTD SVG 1.1//EN"
 "http://www.w3.org/Graphics/SVG/1.1/DTD/svg11.dtd">
<!-- Generated by graphviz version 2.38.0 (20140413.2041)
 -->
<!-- Title: lagrange_setup Pages: 1 -->
<svg width="219pt" height="66pt"
 viewBox="0.00 0.00 219.00 66.00" xmlns="http://www.w3.org/2000/svg" xmlns:xlink="http://www.w3.org/1999/xlink">
<g id="graph0" class="graph" transform="scale(1 1) rotate(0) translate(4 62)">
<title>lagrange_setup</title>
<polygon fill="white" stroke="none" points="-4,4 -4,-62 215,-62 215,4 -4,4"/>
<!-- Node1 -->
<g id="node1" class="node"><title>Node1</title>
<polygon fill="#bfbfbf" stroke="black" points="0,-19.5 0,-38.5 90,-38.5 90,-19.5 0,-19.5"/>
<text text-anchor="middle" x="45" y="-26.5" font-family="Helvetica,sans-Serif" font-size="10.00">lagrange_setup</text>
</g>
<!-- Node2 -->
<g id="node2" class="node"><title>Node2</title>
<g id="a_node2"><a xlink:href="poly_8c.html#a53c15a53e99ea48b70ad55985a4cc984" target="_top" xlink:title="lagrange_coef">
<polygon fill="white" stroke="black" points="126,-38.5 126,-57.5 211,-57.5 211,-38.5 126,-38.5"/>
<text text-anchor="middle" x="168.5" y="-45.5" font-family="Helvetica,sans-Serif" font-size="10.00">lagrange_coef</text>
</a>
</g>
</g>
<!-- Node1&#45;&gt;Node2 -->
<g id="edge1" class="edge"><title>Node1&#45;&gt;Node2</title>
<path fill="none" stroke="midnightblue" d="M90.208,-35.9132C98.5961,-37.2249 107.44,-38.6079 116.03,-39.9512"/>
<polygon fill="midnightblue" stroke="midnightblue" points="115.534,-43.4161 125.955,-41.5032 116.616,-36.5001 115.534,-43.4161"/>
</g>
<!-- Node3 -->
<g id="node3" class="node"><title>Node3</title>
<g id="a_node3"><a xlink:href="poly_8c.html#adc858f5c203469428b62ee5c3c5c3fd9" target="_top" xlink:title="lagrange_eval">
<polygon fill="white" stroke="black" points="126.5,-0.5 126.5,-19.5 210.5,-19.5 210.5,-0.5 126.5,-0.5"/>
<text text-anchor="middle" x="168.5" y="-7.5" font-family="Helvetica,sans-Serif" font-size="10.00">lagrange_eval</text>
</a>
</g>
</g>
<!-- Node1&#45;&gt;Node3 -->
<g id="edge2" class="edge"><title>Node1&#45;&gt;Node3</title>
<path fill="none" stroke="midnightblue" d="M90.208,-22.0868C98.6936,-20.7598 107.645,-19.36 116.329,-18.002"/>
<polygon fill="midnightblue" stroke="midnightblue" points="117.017,-21.437 126.356,-16.434 115.936,-14.5211 117.017,-21.437"/>
</g>
</g>
</svg>
