<?xml version="1.0" encoding="UTF-8" standalone="no"?>
<!DOCTYPE svg PUBLIC "-//W3C//DTD SVG 1.1//EN"
 "http://www.w3.org/Graphics/SVG/1.1/DTD/svg11.dtd">
<!-- Generated by graphviz version 2.38.0 (20140413.2041)
 -->
<!-- Title: lagrange_eval Pages: 1 -->
<svg width="218pt" height="66pt"
 viewBox="0.00 0.00 218.00 66.00" xmlns="http://www.w3.org/2000/svg" xmlns:xlink="http://www.w3.org/1999/xlink">
<g id="graph0" class="graph" transform="scale(1 1) rotate(0) translate(4 62)">
<title>lagrange_eval</title>
<polygon fill="white" stroke="none" points="-4,4 -4,-62 214,-62 214,4 -4,4"/>
<!-- Node1 -->
<g id="node1" class="node"><title>Node1</title>
<polygon fill="#bfbfbf" stroke="black" points="0,-19.5 0,-38.5 84,-38.5 84,-19.5 0,-19.5"/>
<text text-anchor="middle" x="42" y="-26.5" font-family="Helvetica,sans-Serif" font-size="10.00">lagrange_eval</text>
</g>
<!-- Node2 -->
<g id="node2" class="node"><title>Node2</title>
<g id="a_node2"><a xlink:href="poly_8h.html#ab0af6a78da859f7b3c1d37a75cbce790" target="_top" xlink:title="gll_lag_setup">
<polygon fill="white" stroke="black" points="125.5,-38.5 125.5,-57.5 204.5,-57.5 204.5,-38.5 125.5,-38.5"/>
<text text-anchor="middle" x="165" y="-45.5" font-family="Helvetica,sans-Serif" font-size="10.00">gll_lag_setup</text>
</a>
</g>
</g>
<!-- Node1&#45;&gt;Node2 -->
<g id="edge1" class="edge"><title>Node1&#45;&gt;Node2</title>
<path fill="none" stroke="midnightblue" d="M94.4763,-37.0831C104.816,-38.7066 115.515,-40.3866 125.329,-41.9277"/>
<polygon fill="midnightblue" stroke="midnightblue" points="94.7248,-33.5793 84.3029,-35.4856 93.6389,-40.4945 94.7248,-33.5793"/>
</g>
<!-- Node3 -->
<g id="node3" class="node"><title>Node3</title>
<g id="a_node3"><a xlink:href="poly_8h.html#a28be1d672c13f1d19f1d78a0e1cbff13" target="_top" xlink:title="lagrange_setup">
<polygon fill="white" stroke="black" points="120,-0.5 120,-19.5 210,-19.5 210,-0.5 120,-0.5"/>
<text text-anchor="middle" x="165" y="-7.5" font-family="Helvetica,sans-Serif" font-size="10.00">lagrange_setup</text>
</a>
</g>
</g>
<!-- Node1&#45;&gt;Node3 -->
<g id="edge2" class="edge"><title>Node1&#45;&gt;Node3</title>
<path fill="none" stroke="midnightblue" d="M94.2099,-20.9588C102.785,-19.6122 111.616,-18.2256 119.99,-16.9107"/>
<polygon fill="midnightblue" stroke="midnightblue" points="93.6389,-17.5055 84.3029,-22.5144 94.7248,-24.4207 93.6389,-17.5055"/>
</g>
</g>
</svg>
