<?xml version="1.0" encoding="UTF-8" standalone="no"?>
<!DOCTYPE svg PUBLIC "-//W3C//DTD SVG 1.1//EN"
 "http://www.w3.org/Graphics/SVG/1.1/DTD/svg11.dtd">
<!-- Generated by graphviz version 2.38.0 (20140413.2041)
 -->
<!-- Title: lobatto_nodes_aux Pages: 1 -->
<svg width="364pt" height="28pt"
 viewBox="0.00 0.00 364.00 28.00" xmlns="http://www.w3.org/2000/svg" xmlns:xlink="http://www.w3.org/1999/xlink">
<g id="graph0" class="graph" transform="scale(1 1) rotate(0) translate(4 24)">
<title>lobatto_nodes_aux</title>
<polygon fill="white" stroke="none" points="-4,4 -4,-24 360,-24 360,4 -4,4"/>
<!-- Node1 -->
<g id="node1" class="node"><title>Node1</title>
<polygon fill="#bfbfbf" stroke="black" points="0,-0.5 0,-19.5 106,-19.5 106,-0.5 0,-0.5"/>
<text text-anchor="middle" x="53" y="-7.5" font-family="Helvetica,sans-Serif" font-size="10.00">lobatto_nodes_aux</text>
</g>
<!-- Node2 -->
<g id="node2" class="node"><title>Node2</title>
<g id="a_node2"><a xlink:href="poly_8c.html#ae27c4d73cd9e441073dd67d2c8dcc112" target="_top" xlink:title="lobatto_nodes_n">
<polygon fill="white" stroke="black" points="142,-0.5 142,-19.5 237,-19.5 237,-0.5 142,-0.5"/>
<text text-anchor="middle" x="189.5" y="-7.5" font-family="Helvetica,sans-Serif" font-size="10.00">lobatto_nodes_n</text>
</a>
</g>
</g>
<!-- Node1&#45;&gt;Node2 -->
<g id="edge1" class="edge"><title>Node1&#45;&gt;Node2</title>
<path fill="none" stroke="midnightblue" d="M116.103,-10C124.784,-10 133.579,-10 141.907,-10"/>
<polygon fill="midnightblue" stroke="midnightblue" points="116.001,-6.5001 106.001,-10 116.001,-13.5001 116.001,-6.5001"/>
</g>
<!-- Node3 -->
<g id="node3" class="node"><title>Node3</title>
<g id="a_node3"><a xlink:href="poly_8h.html#a920b0e0d1c46f1f16f2b9a12aba939e6" target="_top" xlink:title="lobatto_nodes">
<polygon fill="white" stroke="black" points="273,-0.5 273,-19.5 356,-19.5 356,-0.5 273,-0.5"/>
<text text-anchor="middle" x="314.5" y="-7.5" font-family="Helvetica,sans-Serif" font-size="10.00">lobatto_nodes</text>
</a>
</g>
</g>
<!-- Node2&#45;&gt;Node3 -->
<g id="edge2" class="edge"><title>Node2&#45;&gt;Node3</title>
<path fill="none" stroke="midnightblue" d="M247.134,-10C255.853,-10 264.703,-10 272.978,-10"/>
<polygon fill="midnightblue" stroke="midnightblue" points="247.001,-6.5001 237.001,-10 247.001,-13.5001 247.001,-6.5001"/>
</g>
</g>
</svg>
