<?xml version="1.0" encoding="UTF-8" standalone="no"?>
<!DOCTYPE svg PUBLIC "-//W3C//DTD SVG 1.1//EN"
 "http://www.w3.org/Graphics/SVG/1.1/DTD/svg11.dtd">
<!-- Generated by graphviz version 2.38.0 (20140413.2041)
 -->
<!-- Title: gauss_nodes Pages: 1 -->
<svg width="201pt" height="66pt"
 viewBox="0.00 0.00 201.00 66.00" xmlns="http://www.w3.org/2000/svg" xmlns:xlink="http://www.w3.org/1999/xlink">
<g id="graph0" class="graph" transform="scale(1 1) rotate(0) translate(4 62)">
<title>gauss_nodes</title>
<polygon fill="white" stroke="none" points="-4,4 -4,-62 197,-62 197,4 -4,4"/>
<!-- Node1 -->
<g id="node1" class="node"><title>Node1</title>
<polygon fill="#bfbfbf" stroke="black" points="0,-19.5 0,-38.5 80,-38.5 80,-19.5 0,-19.5"/>
<text text-anchor="middle" x="40" y="-26.5" font-family="Helvetica,sans-Serif" font-size="10.00">gauss_nodes</text>
</g>
<!-- Node2 -->
<g id="node2" class="node"><title>Node2</title>
<g id="a_node2"><a xlink:href="poly_8c.html#a20b755ff4969ea5434ca2c00a8355829" target="_top" xlink:title="legendre">
<polygon fill="white" stroke="black" points="125,-38.5 125,-57.5 184,-57.5 184,-38.5 125,-38.5"/>
<text text-anchor="middle" x="154.5" y="-45.5" font-family="Helvetica,sans-Serif" font-size="10.00">legendre</text>
</a>
</g>
</g>
<!-- Node1&#45;&gt;Node2 -->
<g id="edge1" class="edge"><title>Node1&#45;&gt;Node2</title>
<path fill="none" stroke="midnightblue" d="M80.0313,-35.592C91.3038,-37.4958 103.597,-39.572 114.847,-41.4719"/>
<polygon fill="midnightblue" stroke="midnightblue" points="114.382,-44.9428 124.825,-43.1571 115.547,-38.0406 114.382,-44.9428"/>
</g>
<!-- Node3 -->
<g id="node3" class="node"><title>Node3</title>
<g id="a_node3"><a xlink:href="poly_8c.html#a0432fba41a3bc3494adcd475b085d1d7" target="_top" xlink:title="legendre_d1">
<polygon fill="white" stroke="black" points="116,-0.5 116,-19.5 193,-19.5 193,-0.5 116,-0.5"/>
<text text-anchor="middle" x="154.5" y="-7.5" font-family="Helvetica,sans-Serif" font-size="10.00">legendre_d1</text>
</a>
</g>
</g>
<!-- Node1&#45;&gt;Node3 -->
<g id="edge2" class="edge"><title>Node1&#45;&gt;Node3</title>
<path fill="none" stroke="midnightblue" d="M80.0313,-22.408C88.333,-21.006 97.1884,-19.5104 105.773,-18.0606"/>
<polygon fill="midnightblue" stroke="midnightblue" points="106.399,-21.5046 115.676,-16.3881 105.233,-14.6023 106.399,-21.5046"/>
</g>
</g>
</svg>
