<?xml version="1.0" encoding="UTF-8" standalone="no"?>
<!DOCTYPE svg PUBLIC "-//W3C//DTD SVG 1.1//EN"
 "http://www.w3.org/Graphics/SVG/1.1/DTD/svg11.dtd">
<!-- Generated by graphviz version 2.38.0 (20140413.2041)
 -->
<!-- Title: lagrange_coef Pages: 1 -->
<svg width="219pt" height="66pt"
 viewBox="0.00 0.00 219.00 66.00" xmlns="http://www.w3.org/2000/svg" xmlns:xlink="http://www.w3.org/1999/xlink">
<g id="graph0" class="graph" transform="scale(1 1) rotate(0) translate(4 62)">
<title>lagrange_coef</title>
<polygon fill="white" stroke="none" points="-4,4 -4,-62 215,-62 215,4 -4,4"/>
<!-- Node1 -->
<g id="node1" class="node"><title>Node1</title>
<polygon fill="#bfbfbf" stroke="black" points="0,-19.5 0,-38.5 85,-38.5 85,-19.5 0,-19.5"/>
<text text-anchor="middle" x="42.5" y="-26.5" font-family="Helvetica,sans-Serif" font-size="10.00">lagrange_coef</text>
</g>
<!-- Node2 -->
<g id="node2" class="node"><title>Node2</title>
<g id="a_node2"><a xlink:href="poly_8h.html#ab0af6a78da859f7b3c1d37a75cbce790" target="_top" xlink:title="gll_lag_setup">
<polygon fill="white" stroke="black" points="126.5,-38.5 126.5,-57.5 205.5,-57.5 205.5,-38.5 126.5,-38.5"/>
<text text-anchor="middle" x="166" y="-45.5" font-family="Helvetica,sans-Serif" font-size="10.00">gll_lag_setup</text>
</a>
</g>
</g>
<!-- Node1&#45;&gt;Node2 -->
<g id="edge1" class="edge"><title>Node1&#45;&gt;Node2</title>
<path fill="none" stroke="midnightblue" d="M95.5081,-37.133C105.864,-38.7524 116.566,-40.426 126.377,-41.9601"/>
<polygon fill="midnightblue" stroke="midnightblue" points="95.7341,-33.6258 85.3134,-35.5387 94.6526,-40.5418 95.7341,-33.6258"/>
</g>
<!-- Node3 -->
<g id="node3" class="node"><title>Node3</title>
<g id="a_node3"><a xlink:href="poly_8h.html#a28be1d672c13f1d19f1d78a0e1cbff13" target="_top" xlink:title="lagrange_setup">
<polygon fill="white" stroke="black" points="121,-0.5 121,-19.5 211,-19.5 211,-0.5 121,-0.5"/>
<text text-anchor="middle" x="166" y="-7.5" font-family="Helvetica,sans-Serif" font-size="10.00">lagrange_setup</text>
</a>
</g>
</g>
<!-- Node1&#45;&gt;Node3 -->
<g id="edge2" class="edge"><title>Node1&#45;&gt;Node3</title>
<path fill="none" stroke="midnightblue" d="M95.3981,-20.8843C103.796,-19.571 112.424,-18.2217 120.623,-16.9397"/>
<polygon fill="midnightblue" stroke="midnightblue" points="94.6526,-17.4582 85.3134,-22.4613 95.7341,-24.3742 94.6526,-17.4582"/>
</g>
</g>
</svg>
