<?xml version="1.0" encoding="UTF-8" standalone="no"?>
<!DOCTYPE svg PUBLIC "-//W3C//DTD SVG 1.1//EN"
 "http://www.w3.org/Graphics/SVG/1.1/DTD/svg11.dtd">
<!-- Generated by graphviz version 2.38.0 (20140413.2041)
 -->
<!-- Title: outpost2 Pages: 1 -->
<svg width="928pt" height="189pt"
 viewBox="0.00 0.00 928.00 189.00" xmlns="http://www.w3.org/2000/svg" xmlns:xlink="http://www.w3.org/1999/xlink">
<g id="graph0" class="graph" transform="scale(1 1) rotate(0) translate(4 185)">
<title>outpost2</title>
<polygon fill="white" stroke="none" points="-4,4 -4,-185 924,-185 924,4 -4,4"/>
<!-- Node1 -->
<g id="node1" class="node"><title>Node1</title>
<polygon fill="#bfbfbf" stroke="black" points="0,-102.5 0,-121.5 57,-121.5 57,-102.5 0,-102.5"/>
<text text-anchor="middle" x="28.5" y="-109.5" font-family="Helvetica,sans-Serif" font-size="10.00">outpost2</text>
</g>
<!-- Node2 -->
<g id="node2" class="node"><title>Node2</title>
<g id="a_node2"><a xlink:href="prepost_8F90.html#aacb528c0b28bc79dff8db48d7ae9ac64" target="_top" xlink:title="outpost">
<polygon fill="white" stroke="black" points="93,-102.5 93,-121.5 144,-121.5 144,-102.5 93,-102.5"/>
<text text-anchor="middle" x="118.5" y="-109.5" font-family="Helvetica,sans-Serif" font-size="10.00">outpost</text>
</a>
</g>
</g>
<!-- Node1&#45;&gt;Node2 -->
<g id="edge1" class="edge"><title>Node1&#45;&gt;Node2</title>
<path fill="none" stroke="midnightblue" d="M67.5428,-112C76.102,-112 84.9675,-112 92.8115,-112"/>
<polygon fill="midnightblue" stroke="midnightblue" points="67.3438,-108.5 57.3438,-112 67.3437,-115.5 67.3438,-108.5"/>
</g>
<!-- Node3 -->
<g id="node3" class="node"><title>Node3</title>
<g id="a_node3"><a xlink:href="coef_8F90.html#ad01cc61ba84d488e68ca9e259c592465" target="_top" xlink:title="Routine to generate mapping data based on mesh 1 (Gauss&#45;Legendre Lobatto meshes). ...">
<polygon fill="white" stroke="black" points="180,-102.5 180,-121.5 239,-121.5 239,-102.5 180,-102.5"/>
<text text-anchor="middle" x="209.5" y="-109.5" font-family="Helvetica,sans-Serif" font-size="10.00">glmapm1</text>
</a>
</g>
</g>
<!-- Node2&#45;&gt;Node3 -->
<g id="edge2" class="edge"><title>Node2&#45;&gt;Node3</title>
<path fill="none" stroke="midnightblue" d="M154.533,-112C162.89,-112 171.715,-112 179.752,-112"/>
<polygon fill="midnightblue" stroke="midnightblue" points="154.291,-108.5 144.291,-112 154.291,-115.5 154.291,-108.5"/>
</g>
<!-- Node4 -->
<g id="node4" class="node"><title>Node4</title>
<g id="a_node4"><a xlink:href="coef_8F90.html#ac5d2ac0efba4a530fab5387321307d01" target="_top" xlink:title="Routine to generate all elemental geometric data for mesh 1. Velocity formulation : global&#45;to&#45;local m...">
<polygon fill="white" stroke="black" points="275,-102.5 275,-121.5 324,-121.5 324,-102.5 275,-102.5"/>
<text text-anchor="middle" x="299.5" y="-109.5" font-family="Helvetica,sans-Serif" font-size="10.00">geom1</text>
</a>
</g>
</g>
<!-- Node3&#45;&gt;Node4 -->
<g id="edge3" class="edge"><title>Node3&#45;&gt;Node4</title>
<path fill="none" stroke="midnightblue" d="M249.335,-112C258.049,-112 267.037,-112 274.907,-112"/>
<polygon fill="midnightblue" stroke="midnightblue" points="249.315,-108.5 239.314,-112 249.314,-115.5 249.315,-108.5"/>
</g>
<!-- Node5 -->
<g id="node5" class="node"><title>Node5</title>
<g id="a_node5"><a xlink:href="drive2_8F90.html#aefc07385d7e7539fb57662470f694136" target="_top" xlink:title="Generate geometry data. ">
<polygon fill="white" stroke="black" points="366,-123.5 366,-142.5 427,-142.5 427,-123.5 366,-123.5"/>
<text text-anchor="middle" x="396.5" y="-130.5" font-family="Helvetica,sans-Serif" font-size="10.00">gengeom</text>
</a>
</g>
</g>
<!-- Node4&#45;&gt;Node5 -->
<g id="edge4" class="edge"><title>Node4&#45;&gt;Node5</title>
<path fill="none" stroke="midnightblue" d="M334.34,-119.481C344.597,-121.748 355.783,-124.22 365.751,-126.424"/>
<polygon fill="midnightblue" stroke="midnightblue" points="334.992,-116.04 324.473,-117.299 333.481,-122.875 334.992,-116.04"/>
</g>
<!-- Node11 -->
<g id="node11" class="node"><title>Node11</title>
<g id="a_node11"><a xlink:href="ic_8F90.html#aaf47b255d1cfac3451a8473ee6876b4f" target="_top" xlink:title="Generate geometry data. ">
<polygon fill="white" stroke="black" points="360,-61.5 360,-80.5 433,-80.5 433,-61.5 360,-61.5"/>
<text text-anchor="middle" x="396.5" y="-68.5" font-family="Helvetica,sans-Serif" font-size="10.00">geom_reset</text>
</a>
</g>
</g>
<!-- Node4&#45;&gt;Node11 -->
<g id="edge11" class="edge"><title>Node4&#45;&gt;Node11</title>
<path fill="none" stroke="midnightblue" d="M331.957,-98.424C345.475,-92.5896 360.959,-85.9073 373.257,-80.5997"/>
<polygon fill="midnightblue" stroke="midnightblue" points="330.328,-95.3147 322.534,-102.491 333.102,-101.742 330.328,-95.3147"/>
</g>
<!-- Node6 -->
<g id="node6" class="node"><title>Node6</title>
<g id="a_node6"><a xlink:href="drive1_8F90.html#ae177ea7efac97f35241521b782a671c0" target="_top" xlink:title="take a single time&#45;step ">
<polygon fill="white" stroke="black" points="487,-161.5 487,-180.5 567,-180.5 567,-161.5 487,-161.5"/>
<text text-anchor="middle" x="527" y="-168.5" font-family="Helvetica,sans-Serif" font-size="10.00">nek_advance</text>
</a>
</g>
</g>
<!-- Node5&#45;&gt;Node6 -->
<g id="edge5" class="edge"><title>Node5&#45;&gt;Node6</title>
<path fill="none" stroke="midnightblue" d="M437.029,-144.689C455.193,-150.061 476.467,-156.352 493.657,-161.436"/>
<polygon fill="midnightblue" stroke="midnightblue" points="437.886,-141.293 427.303,-141.813 435.9,-148.006 437.886,-141.293"/>
</g>
<!-- Node10 -->
<g id="node10" class="node"><title>Node10</title>
<g id="a_node10"><a xlink:href="drive1_8F90.html#a87bd37ae2c18426f28f35cc3f24e4355" target="_top" xlink:title="initialize nek ">
<polygon fill="white" stroke="black" points="776,-85.5 776,-104.5 829,-104.5 829,-85.5 776,-85.5"/>
<text text-anchor="middle" x="802.5" y="-92.5" font-family="Helvetica,sans-Serif" font-size="10.00">nek_init</text>
</a>
</g>
</g>
<!-- Node5&#45;&gt;Node10 -->
<g id="edge9" class="edge"><title>Node5&#45;&gt;Node10</title>
<path fill="none" stroke="midnightblue" d="M437.512,-129.463C500.572,-123.856 626.921,-112.484 734,-102 747.836,-100.645 763.258,-99.0522 775.865,-97.7283"/>
<polygon fill="midnightblue" stroke="midnightblue" points="436.871,-126.007 427.22,-130.377 437.49,-132.979 436.871,-126.007"/>
</g>
<!-- Node7 -->
<g id="node7" class="node"><title>Node7</title>
<g id="a_node7"><a xlink:href="drive1_8F90.html#a18d3e839786263fc4cf91f7eeb714371" target="_top" xlink:title="take a chunk of time&#45;steps ">
<polygon fill="white" stroke="black" points="621,-161.5 621,-180.5 734,-180.5 734,-161.5 621,-161.5"/>
<text text-anchor="middle" x="677.5" y="-168.5" font-family="Helvetica,sans-Serif" font-size="10.00">nek__multi_advance</text>
</a>
</g>
</g>
<!-- Node6&#45;&gt;Node7 -->
<g id="edge6" class="edge"><title>Node6&#45;&gt;Node7</title>
<path fill="none" stroke="midnightblue" d="M577.406,-171C591.382,-171 606.684,-171 620.993,-171"/>
<polygon fill="midnightblue" stroke="midnightblue" points="577.017,-167.5 567.017,-171 577.017,-174.5 577.017,-167.5"/>
</g>
<!-- Node8 -->
<g id="node8" class="node"><title>Node8</title>
<g id="a_node8"><a xlink:href="drive1_8F90.html#a6ad57e0cf728f343e371ef8c9a02cd8a" target="_top" xlink:title="integrate the governing equations in time ">
<polygon fill="white" stroke="black" points="770,-142.5 770,-161.5 835,-161.5 835,-142.5 770,-142.5"/>
<text text-anchor="middle" x="802.5" y="-149.5" font-family="Helvetica,sans-Serif" font-size="10.00">nek_solve</text>
</a>
</g>
</g>
<!-- Node7&#45;&gt;Node8 -->
<g id="edge7" class="edge"><title>Node7&#45;&gt;Node8</title>
<path fill="none" stroke="midnightblue" d="M744.282,-160.839C753.164,-159.466 761.927,-158.113 769.824,-156.893"/>
<polygon fill="midnightblue" stroke="midnightblue" points="743.59,-157.404 734.242,-162.389 744.659,-164.322 743.59,-157.404"/>
</g>
<!-- Node9 -->
<g id="node9" class="node"><title>Node9</title>
<g id="a_node9"><a xlink:href="drive_8F90.html#a13048bf28dd0734640412d69349e3857" target="_top" xlink:title="NEK5000: Spectral Element Computational Fluid Dynamics Solver COPYRIGHT (c) 2008&#45;2010 UCHICAGO ARGONN...">
<polygon fill="white" stroke="black" points="871,-113.5 871,-132.5 920,-132.5 920,-113.5 871,-113.5"/>
<text text-anchor="middle" x="895.5" y="-120.5" font-family="Helvetica,sans-Serif" font-size="10.00">nekton</text>
</a>
</g>
</g>
<!-- Node8&#45;&gt;Node9 -->
<g id="edge8" class="edge"><title>Node8&#45;&gt;Node9</title>
<path fill="none" stroke="midnightblue" d="M843.18,-139.355C852.606,-136.351 862.371,-133.239 870.82,-130.546"/>
<polygon fill="midnightblue" stroke="midnightblue" points="842.014,-136.053 833.549,-142.424 844.14,-142.722 842.014,-136.053"/>
</g>
<!-- Node10&#45;&gt;Node9 -->
<g id="edge10" class="edge"><title>Node10&#45;&gt;Node9</title>
<path fill="none" stroke="midnightblue" d="M839.191,-105.982C849.794,-109.244 861.143,-112.736 870.784,-115.703"/>
<polygon fill="midnightblue" stroke="midnightblue" points="839.921,-102.544 829.334,-102.949 837.862,-109.235 839.921,-102.544"/>
</g>
<!-- Node11&#45;&gt;Node10 -->
<g id="edge15" class="edge"><title>Node11&#45;&gt;Node10</title>
<path fill="none" stroke="midnightblue" d="M443.528,-73.7343C528.931,-78.8078 709.295,-89.5225 775.998,-93.485"/>
<polygon fill="midnightblue" stroke="midnightblue" points="443.542,-70.2291 433.352,-73.1298 443.127,-77.2168 443.542,-70.2291"/>
</g>
<!-- Node12 -->
<g id="node12" class="node"><title>Node12</title>
<g id="a_node12"><a xlink:href="classhsmg__routines.html#a91e8aa59d56bbf05d75aa9c48bcd8977" target="_top" xlink:title="Sets up Poisson preconditioner. ">
<polygon fill="white" stroke="black" points="469,-36 469,-66 585,-66 585,-36 469,-36"/>
<text text-anchor="start" x="477" y="-54" font-family="Helvetica,sans-Serif" font-size="10.00">hsmg_routines::h1mg</text>
<text text-anchor="middle" x="527" y="-43" font-family="Helvetica,sans-Serif" font-size="10.00">_setup</text>
</a>
</g>
</g>
<!-- Node11&#45;&gt;Node12 -->
<g id="edge12" class="edge"><title>Node11&#45;&gt;Node12</title>
<path fill="none" stroke="midnightblue" d="M443.406,-63.8551C451.608,-62.5785 460.246,-61.2341 468.72,-59.9152"/>
<polygon fill="midnightblue" stroke="midnightblue" points="442.637,-60.4325 433.294,-65.4289 443.714,-67.3493 442.637,-60.4325"/>
</g>
<!-- Node14 -->
<g id="node14" class="node"><title>Node14</title>
<g id="a_node14"><a xlink:href="ic_8F90.html#acaefa33e86633e4a7a4b28347d4620d1" target="_top" xlink:title="Set initial conditions. ">
<polygon fill="white" stroke="black" points="655.5,-0.5 655.5,-19.5 699.5,-19.5 699.5,-0.5 655.5,-0.5"/>
<text text-anchor="middle" x="677.5" y="-7.5" font-family="Helvetica,sans-Serif" font-size="10.00">setics</text>
</a>
</g>
</g>
<!-- Node11&#45;&gt;Node14 -->
<g id="edge16" class="edge"><title>Node11&#45;&gt;Node14</title>
<path fill="none" stroke="midnightblue" d="M416.876,-55.1398C430.559,-44.9003 449.809,-32.3458 469,-26 534.179,-4.44782 616.907,-6.07368 655.232,-8.34453"/>
<polygon fill="midnightblue" stroke="midnightblue" points="414.502,-52.5519 408.744,-61.4458 418.792,-58.0835 414.502,-52.5519"/>
</g>
<!-- Node13 -->
<g id="node13" class="node"><title>Node13</title>
<g id="a_node13"><a xlink:href="navier6_8F90.html#a45317b1def173b8f1db2e5083595d095" target="_top" xlink:title="Set up arrays for overlapping Schwartz algorithm for pressure solver ">
<polygon fill="white" stroke="black" points="641.5,-44.5 641.5,-63.5 713.5,-63.5 713.5,-44.5 641.5,-44.5"/>
<text text-anchor="middle" x="677.5" y="-51.5" font-family="Helvetica,sans-Serif" font-size="10.00">set_overlap</text>
</a>
</g>
</g>
<!-- Node12&#45;&gt;Node13 -->
<g id="edge13" class="edge"><title>Node12&#45;&gt;Node13</title>
<path fill="none" stroke="midnightblue" d="M595.65,-52.3667C611.359,-52.684 627.466,-53.0094 641.127,-53.2854"/>
<polygon fill="midnightblue" stroke="midnightblue" points="595.483,-48.8627 585.414,-52.1599 595.341,-55.8612 595.483,-48.8627"/>
</g>
<!-- Node13&#45;&gt;Node10 -->
<g id="edge14" class="edge"><title>Node13&#45;&gt;Node10</title>
<path fill="none" stroke="midnightblue" d="M716.676,-66.7254C735.837,-73.1124 758.544,-80.6813 775.64,-86.3801"/>
<polygon fill="midnightblue" stroke="midnightblue" points="717.621,-63.3512 707.028,-63.5093 715.408,-69.992 717.621,-63.3512"/>
</g>
<!-- Node14&#45;&gt;Node10 -->
<g id="edge17" class="edge"><title>Node14&#45;&gt;Node10</title>
<path fill="none" stroke="midnightblue" d="M708.776,-21.6461C717.216,-25.4174 726.203,-29.9479 734,-35 757.159,-50.0058 780.379,-72.738 792.629,-85.4802"/>
<polygon fill="midnightblue" stroke="midnightblue" points="710.143,-18.4242 699.571,-17.7234 707.398,-24.8638 710.143,-18.4242"/>
</g>
</g>
</svg>
