<?xml version="1.0" encoding="UTF-8" standalone="no"?>
<!DOCTYPE svg PUBLIC "-//W3C//DTD SVG 1.1//EN"
 "http://www.w3.org/Graphics/SVG/1.1/DTD/svg11.dtd">
<!-- Generated by graphviz version 2.38.0 (20140413.2041)
 -->
<!-- Title: outfld Pages: 1 -->
<svg width="1095pt" height="217pt"
 viewBox="0.00 0.00 1095.00 217.00" xmlns="http://www.w3.org/2000/svg" xmlns:xlink="http://www.w3.org/1999/xlink">
<g id="graph0" class="graph" transform="scale(1 1) rotate(0) translate(4 213)">
<title>outfld</title>
<polygon fill="white" stroke="none" points="-4,4 -4,-213 1091,-213 1091,4 -4,4"/>
<!-- Node1 -->
<g id="node1" class="node"><title>Node1</title>
<polygon fill="#bfbfbf" stroke="black" points="0,-175.5 0,-194.5 42,-194.5 42,-175.5 0,-175.5"/>
<text text-anchor="middle" x="21" y="-182.5" font-family="Helvetica,sans-Serif" font-size="10.00">outfld</text>
</g>
<!-- Node2 -->
<g id="node2" class="node"><title>Node2</title>
<g id="a_node2"><a xlink:href="prepost_8F90.html#a4a3b0e4ce35b3381281c0839e5846370" target="_top" xlink:title="Store results for later postprocessing. Recent updates: p65 now indicates the number of parallel i/o ...">
<polygon fill="white" stroke="black" points="78,-175.5 78,-194.5 131,-194.5 131,-175.5 78,-175.5"/>
<text text-anchor="middle" x="104.5" y="-182.5" font-family="Helvetica,sans-Serif" font-size="10.00">prepost</text>
</a>
</g>
</g>
<!-- Node1&#45;&gt;Node2 -->
<g id="edge1" class="edge"><title>Node1&#45;&gt;Node2</title>
<path fill="none" stroke="midnightblue" d="M52.2878,-185C60.6526,-185 69.6481,-185 77.7304,-185"/>
<polygon fill="midnightblue" stroke="midnightblue" points="52.1461,-181.5 42.1461,-185 52.146,-188.5 52.1461,-181.5"/>
</g>
<!-- Node3 -->
<g id="node3" class="node"><title>Node3</title>
<g id="a_node3"><a xlink:href="drive1_8F90.html#a6ad57e0cf728f343e371ef8c9a02cd8a" target="_top" xlink:title="integrate the governing equations in time ">
<polygon fill="white" stroke="black" points="937,-161.5 937,-180.5 1002,-180.5 1002,-161.5 937,-161.5"/>
<text text-anchor="middle" x="969.5" y="-168.5" font-family="Helvetica,sans-Serif" font-size="10.00">nek_solve</text>
</a>
</g>
</g>
<!-- Node2&#45;&gt;Node3 -->
<g id="edge2" class="edge"><title>Node2&#45;&gt;Node3</title>
<path fill="none" stroke="midnightblue" d="M141.153,-192.629C177.145,-199.656 234.417,-209 284.5,-209 284.5,-209 284.5,-209 695,-209 786.944,-209 810.594,-206.748 901,-190 913.689,-187.649 927.442,-183.988 939.203,-180.504"/>
<polygon fill="midnightblue" stroke="midnightblue" points="141.636,-189.156 131.144,-190.627 140.263,-196.02 141.636,-189.156"/>
</g>
<!-- Node5 -->
<g id="node5" class="node"><title>Node5</title>
<g id="a_node5"><a xlink:href="prepost_8F90.html#aaf4c0f2e1790302116a4c719c2eb50ff" target="_top" xlink:title="outpost2">
<polygon fill="white" stroke="black" points="167,-152.5 167,-171.5 224,-171.5 224,-152.5 167,-152.5"/>
<text text-anchor="middle" x="195.5" y="-159.5" font-family="Helvetica,sans-Serif" font-size="10.00">outpost2</text>
</a>
</g>
</g>
<!-- Node2&#45;&gt;Node5 -->
<g id="edge4" class="edge"><title>Node2&#45;&gt;Node5</title>
<path fill="none" stroke="midnightblue" d="M141.063,-175.809C149.682,-173.582 158.766,-171.235 166.951,-169.119"/>
<polygon fill="midnightblue" stroke="midnightblue" points="140.049,-172.457 131.242,-178.347 141.8,-179.234 140.049,-172.457"/>
</g>
<!-- Node4 -->
<g id="node4" class="node"><title>Node4</title>
<g id="a_node4"><a xlink:href="drive_8F90.html#a13048bf28dd0734640412d69349e3857" target="_top" xlink:title="NEK5000: Spectral Element Computational Fluid Dynamics Solver COPYRIGHT (c) 2008&#45;2010 UCHICAGO ARGONN...">
<polygon fill="white" stroke="black" points="1038,-123.5 1038,-142.5 1087,-142.5 1087,-123.5 1038,-123.5"/>
<text text-anchor="middle" x="1062.5" y="-130.5" font-family="Helvetica,sans-Serif" font-size="10.00">nekton</text>
</a>
</g>
</g>
<!-- Node3&#45;&gt;Node4 -->
<g id="edge3" class="edge"><title>Node3&#45;&gt;Node4</title>
<path fill="none" stroke="midnightblue" d="M1002.97,-157.441C1014.73,-152.529 1027.77,-147.086 1038.54,-142.586"/>
<polygon fill="midnightblue" stroke="midnightblue" points="1001.34,-154.328 993.463,-161.411 1004.04,-160.787 1001.34,-154.328"/>
</g>
<!-- Node6 -->
<g id="node6" class="node"><title>Node6</title>
<g id="a_node6"><a xlink:href="prepost_8F90.html#aacb528c0b28bc79dff8db48d7ae9ac64" target="_top" xlink:title="outpost">
<polygon fill="white" stroke="black" points="260,-133.5 260,-152.5 311,-152.5 311,-133.5 260,-133.5"/>
<text text-anchor="middle" x="285.5" y="-140.5" font-family="Helvetica,sans-Serif" font-size="10.00">outpost</text>
</a>
</g>
</g>
<!-- Node5&#45;&gt;Node6 -->
<g id="edge5" class="edge"><title>Node5&#45;&gt;Node6</title>
<path fill="none" stroke="midnightblue" d="M234.261,-153.847C242.907,-151.98 251.881,-150.043 259.812,-148.33"/>
<polygon fill="midnightblue" stroke="midnightblue" points="233.38,-150.457 224.344,-155.988 234.857,-157.299 233.38,-150.457"/>
</g>
<!-- Node7 -->
<g id="node7" class="node"><title>Node7</title>
<g id="a_node7"><a xlink:href="coef_8F90.html#ad01cc61ba84d488e68ca9e259c592465" target="_top" xlink:title="Routine to generate mapping data based on mesh 1 (Gauss&#45;Legendre Lobatto meshes). ...">
<polygon fill="white" stroke="black" points="347,-128.5 347,-147.5 406,-147.5 406,-128.5 347,-128.5"/>
<text text-anchor="middle" x="376.5" y="-135.5" font-family="Helvetica,sans-Serif" font-size="10.00">glmapm1</text>
</a>
</g>
</g>
<!-- Node6&#45;&gt;Node7 -->
<g id="edge6" class="edge"><title>Node6&#45;&gt;Node7</title>
<path fill="none" stroke="midnightblue" d="M321.533,-141.032C329.89,-140.562 338.715,-140.067 346.752,-139.615"/>
<polygon fill="midnightblue" stroke="midnightblue" points="321.079,-137.552 311.291,-141.607 321.472,-144.541 321.079,-137.552"/>
</g>
<!-- Node8 -->
<g id="node8" class="node"><title>Node8</title>
<g id="a_node8"><a xlink:href="coef_8F90.html#ac5d2ac0efba4a530fab5387321307d01" target="_top" xlink:title="Routine to generate all elemental geometric data for mesh 1. Velocity formulation : global&#45;to&#45;local m...">
<polygon fill="white" stroke="black" points="442,-125.5 442,-144.5 491,-144.5 491,-125.5 442,-125.5"/>
<text text-anchor="middle" x="466.5" y="-132.5" font-family="Helvetica,sans-Serif" font-size="10.00">geom1</text>
</a>
</g>
</g>
<!-- Node7&#45;&gt;Node8 -->
<g id="edge7" class="edge"><title>Node7&#45;&gt;Node8</title>
<path fill="none" stroke="midnightblue" d="M416.335,-136.676C425.049,-136.379 434.037,-136.073 441.907,-135.804"/>
<polygon fill="midnightblue" stroke="midnightblue" points="416.189,-133.179 406.314,-137.018 416.428,-140.175 416.189,-133.179"/>
</g>
<!-- Node9 -->
<g id="node9" class="node"><title>Node9</title>
<g id="a_node9"><a xlink:href="drive2_8F90.html#aefc07385d7e7539fb57662470f694136" target="_top" xlink:title="Generate geometry data. ">
<polygon fill="white" stroke="black" points="533,-125.5 533,-144.5 594,-144.5 594,-125.5 533,-125.5"/>
<text text-anchor="middle" x="563.5" y="-132.5" font-family="Helvetica,sans-Serif" font-size="10.00">gengeom</text>
</a>
</g>
</g>
<!-- Node8&#45;&gt;Node9 -->
<g id="edge8" class="edge"><title>Node8&#45;&gt;Node9</title>
<path fill="none" stroke="midnightblue" d="M501.661,-135C511.83,-135 522.887,-135 532.751,-135"/>
<polygon fill="midnightblue" stroke="midnightblue" points="501.473,-131.5 491.473,-135 501.472,-138.5 501.473,-131.5"/>
</g>
<!-- Node13 -->
<g id="node13" class="node"><title>Node13</title>
<g id="a_node13"><a xlink:href="ic_8F90.html#aaf47b255d1cfac3451a8473ee6876b4f" target="_top" xlink:title="Generate geometry data. ">
<polygon fill="white" stroke="black" points="527,-63.5 527,-82.5 600,-82.5 600,-63.5 527,-63.5"/>
<text text-anchor="middle" x="563.5" y="-70.5" font-family="Helvetica,sans-Serif" font-size="10.00">geom_reset</text>
</a>
</g>
</g>
<!-- Node8&#45;&gt;Node13 -->
<g id="edge14" class="edge"><title>Node8&#45;&gt;Node13</title>
<path fill="none" stroke="midnightblue" d="M491.001,-119.662C508.765,-108.069 532.602,-92.5123 547.76,-82.6195"/>
<polygon fill="midnightblue" stroke="midnightblue" points="488.805,-116.916 482.344,-125.312 492.631,-122.778 488.805,-116.916"/>
</g>
<!-- Node10 -->
<g id="node10" class="node"><title>Node10</title>
<g id="a_node10"><a xlink:href="drive1_8F90.html#ae177ea7efac97f35241521b782a671c0" target="_top" xlink:title="take a single time&#45;step ">
<polygon fill="white" stroke="black" points="654,-161.5 654,-180.5 734,-180.5 734,-161.5 654,-161.5"/>
<text text-anchor="middle" x="694" y="-168.5" font-family="Helvetica,sans-Serif" font-size="10.00">nek_advance</text>
</a>
</g>
</g>
<!-- Node9&#45;&gt;Node10 -->
<g id="edge9" class="edge"><title>Node9&#45;&gt;Node10</title>
<path fill="none" stroke="midnightblue" d="M604.217,-146.127C621.696,-151.024 642.026,-156.719 658.817,-161.424"/>
<polygon fill="midnightblue" stroke="midnightblue" points="604.877,-142.677 594.303,-143.35 602.989,-149.418 604.877,-142.677"/>
</g>
<!-- Node12 -->
<g id="node12" class="node"><title>Node12</title>
<g id="a_node12"><a xlink:href="drive1_8F90.html#a87bd37ae2c18426f28f35cc3f24e4355" target="_top" xlink:title="initialize nek ">
<polygon fill="white" stroke="black" points="943,-85.5 943,-104.5 996,-104.5 996,-85.5 943,-85.5"/>
<text text-anchor="middle" x="969.5" y="-92.5" font-family="Helvetica,sans-Serif" font-size="10.00">nek_init</text>
</a>
</g>
</g>
<!-- Node9&#45;&gt;Node12 -->
<g id="edge12" class="edge"><title>Node9&#45;&gt;Node12</title>
<path fill="none" stroke="midnightblue" d="M604.528,-131.496C667.609,-125.905 793.988,-114.428 901,-103 914.846,-101.521 930.269,-99.7061 942.874,-98.1787"/>
<polygon fill="midnightblue" stroke="midnightblue" points="603.885,-128.039 594.232,-132.406 604.501,-135.011 603.885,-128.039"/>
</g>
<!-- Node11 -->
<g id="node11" class="node"><title>Node11</title>
<g id="a_node11"><a xlink:href="drive1_8F90.html#a18d3e839786263fc4cf91f7eeb714371" target="_top" xlink:title="take a chunk of time&#45;steps ">
<polygon fill="white" stroke="black" points="788,-161.5 788,-180.5 901,-180.5 901,-161.5 788,-161.5"/>
<text text-anchor="middle" x="844.5" y="-168.5" font-family="Helvetica,sans-Serif" font-size="10.00">nek__multi_advance</text>
</a>
</g>
</g>
<!-- Node10&#45;&gt;Node11 -->
<g id="edge10" class="edge"><title>Node10&#45;&gt;Node11</title>
<path fill="none" stroke="midnightblue" d="M744.406,-171C758.382,-171 773.684,-171 787.993,-171"/>
<polygon fill="midnightblue" stroke="midnightblue" points="744.017,-167.5 734.017,-171 744.017,-174.5 744.017,-167.5"/>
</g>
<!-- Node11&#45;&gt;Node3 -->
<g id="edge11" class="edge"><title>Node11&#45;&gt;Node3</title>
<path fill="none" stroke="midnightblue" d="M911.282,-171C920.164,-171 928.927,-171 936.824,-171"/>
<polygon fill="midnightblue" stroke="midnightblue" points="911.242,-167.5 901.242,-171 911.242,-174.5 911.242,-167.5"/>
</g>
<!-- Node12&#45;&gt;Node4 -->
<g id="edge13" class="edge"><title>Node12&#45;&gt;Node4</title>
<path fill="none" stroke="midnightblue" d="M1002.97,-108.559C1014.73,-113.471 1027.77,-118.914 1038.54,-123.414"/>
<polygon fill="midnightblue" stroke="midnightblue" points="1004.04,-105.213 993.463,-104.589 1001.34,-111.672 1004.04,-105.213"/>
</g>
<!-- Node13&#45;&gt;Node12 -->
<g id="edge18" class="edge"><title>Node13&#45;&gt;Node12</title>
<path fill="none" stroke="midnightblue" d="M610.528,-75.5065C695.931,-80.1571 876.295,-89.9789 942.998,-93.6113"/>
<polygon fill="midnightblue" stroke="midnightblue" points="610.528,-72.0014 600.352,-74.9524 610.147,-78.991 610.528,-72.0014"/>
</g>
<!-- Node14 -->
<g id="node14" class="node"><title>Node14</title>
<g id="a_node14"><a xlink:href="classhsmg__routines.html#a91e8aa59d56bbf05d75aa9c48bcd8977" target="_top" xlink:title="Sets up Poisson preconditioner. ">
<polygon fill="white" stroke="black" points="636,-36 636,-66 752,-66 752,-36 636,-36"/>
<text text-anchor="start" x="644" y="-54" font-family="Helvetica,sans-Serif" font-size="10.00">hsmg_routines::h1mg</text>
<text text-anchor="middle" x="694" y="-43" font-family="Helvetica,sans-Serif" font-size="10.00">_setup</text>
</a>
</g>
</g>
<!-- Node13&#45;&gt;Node14 -->
<g id="edge15" class="edge"><title>Node13&#45;&gt;Node14</title>
<path fill="none" stroke="midnightblue" d="M610.406,-65.1406C618.608,-63.7363 627.246,-62.2575 635.72,-60.8067"/>
<polygon fill="midnightblue" stroke="midnightblue" points="609.56,-61.7344 600.294,-66.8718 610.742,-68.634 609.56,-61.7344"/>
</g>
<!-- Node16 -->
<g id="node16" class="node"><title>Node16</title>
<g id="a_node16"><a xlink:href="ic_8F90.html#acaefa33e86633e4a7a4b28347d4620d1" target="_top" xlink:title="Set initial conditions. ">
<polygon fill="white" stroke="black" points="822.5,-0.5 822.5,-19.5 866.5,-19.5 866.5,-0.5 822.5,-0.5"/>
<text text-anchor="middle" x="844.5" y="-7.5" font-family="Helvetica,sans-Serif" font-size="10.00">setics</text>
</a>
</g>
</g>
<!-- Node13&#45;&gt;Node16 -->
<g id="edge19" class="edge"><title>Node13&#45;&gt;Node16</title>
<path fill="none" stroke="midnightblue" d="M583.276,-56.8103C596.934,-46.0453 616.397,-32.6978 636,-26 701.133,-3.74574 784.232,-5.75215 822.491,-8.23573"/>
<polygon fill="midnightblue" stroke="midnightblue" points="580.722,-54.3768 575.195,-63.4157 585.153,-59.7965 580.722,-54.3768"/>
</g>
<!-- Node15 -->
<g id="node15" class="node"><title>Node15</title>
<g id="a_node15"><a xlink:href="navier6_8F90.html#a45317b1def173b8f1db2e5083595d095" target="_top" xlink:title="Set up arrays for overlapping Schwartz algorithm for pressure solver ">
<polygon fill="white" stroke="black" points="808.5,-44.5 808.5,-63.5 880.5,-63.5 880.5,-44.5 808.5,-44.5"/>
<text text-anchor="middle" x="844.5" y="-51.5" font-family="Helvetica,sans-Serif" font-size="10.00">set_overlap</text>
</a>
</g>
</g>
<!-- Node14&#45;&gt;Node15 -->
<g id="edge16" class="edge"><title>Node14&#45;&gt;Node15</title>
<path fill="none" stroke="midnightblue" d="M762.65,-52.3667C778.359,-52.684 794.466,-53.0094 808.127,-53.2854"/>
<polygon fill="midnightblue" stroke="midnightblue" points="762.483,-48.8627 752.414,-52.1599 762.341,-55.8612 762.483,-48.8627"/>
</g>
<!-- Node15&#45;&gt;Node12 -->
<g id="edge17" class="edge"><title>Node15&#45;&gt;Node12</title>
<path fill="none" stroke="midnightblue" d="M883.676,-66.7254C902.837,-73.1124 925.544,-80.6813 942.64,-86.3801"/>
<polygon fill="midnightblue" stroke="midnightblue" points="884.621,-63.3512 874.028,-63.5093 882.408,-69.992 884.621,-63.3512"/>
</g>
<!-- Node16&#45;&gt;Node12 -->
<g id="edge20" class="edge"><title>Node16&#45;&gt;Node12</title>
<path fill="none" stroke="midnightblue" d="M875.776,-21.6461C884.216,-25.4174 893.203,-29.9479 901,-35 924.159,-50.0058 947.379,-72.738 959.629,-85.4802"/>
<polygon fill="midnightblue" stroke="midnightblue" points="877.143,-18.4242 866.571,-17.7234 874.398,-24.8638 877.143,-18.4242"/>
</g>
</g>
</svg>
