<?xml version="1.0" encoding="UTF-8" standalone="no"?>
<!DOCTYPE svg PUBLIC "-//W3C//DTD SVG 1.1//EN"
 "http://www.w3.org/Graphics/SVG/1.1/DTD/svg11.dtd">
<!-- Generated by graphviz version 2.38.0 (20140413.2041)
 -->
<!-- Title: mfo_write_hdr Pages: 1 -->
<svg width="1316pt" height="217pt"
 viewBox="0.00 0.00 1316.00 217.00" xmlns="http://www.w3.org/2000/svg" xmlns:xlink="http://www.w3.org/1999/xlink">
<g id="graph0" class="graph" transform="scale(1 1) rotate(0) translate(4 213)">
<title>mfo_write_hdr</title>
<polygon fill="white" stroke="none" points="-4,4 -4,-213 1312,-213 1312,4 -4,4"/>
<!-- Node1 -->
<g id="node1" class="node"><title>Node1</title>
<polygon fill="#bfbfbf" stroke="black" points="0,-175.5 0,-194.5 84,-194.5 84,-175.5 0,-175.5"/>
<text text-anchor="middle" x="42" y="-182.5" font-family="Helvetica,sans-Serif" font-size="10.00">mfo_write_hdr</text>
</g>
<!-- Node2 -->
<g id="node2" class="node"><title>Node2</title>
<g id="a_node2"><a xlink:href="prepost_8F90.html#a9872fbccba1ed7b2932227287629cf2b" target="_top" xlink:title="mult&#45;file output ">
<polygon fill="white" stroke="black" points="120,-175.5 120,-194.5 185,-194.5 185,-175.5 120,-175.5"/>
<text text-anchor="middle" x="152.5" y="-182.5" font-family="Helvetica,sans-Serif" font-size="10.00">mfo_outfld</text>
</a>
</g>
</g>
<!-- Node1&#45;&gt;Node2 -->
<g id="edge1" class="edge"><title>Node1&#45;&gt;Node2</title>
<path fill="none" stroke="midnightblue" d="M94.2036,-185C102.968,-185 111.838,-185 119.896,-185"/>
<polygon fill="midnightblue" stroke="midnightblue" points="94.0192,-181.5 84.0192,-185 94.0192,-188.5 94.0192,-181.5"/>
</g>
<!-- Node3 -->
<g id="node3" class="node"><title>Node3</title>
<g id="a_node3"><a xlink:href="prepost_8F90.html#a78b0361cf9ff06bfe5020c2114ddc924" target="_top" xlink:title="output .fld file ">
<polygon fill="white" stroke="black" points="221,-175.5 221,-194.5 263,-194.5 263,-175.5 221,-175.5"/>
<text text-anchor="middle" x="242" y="-182.5" font-family="Helvetica,sans-Serif" font-size="10.00">outfld</text>
</a>
</g>
</g>
<!-- Node2&#45;&gt;Node3 -->
<g id="edge2" class="edge"><title>Node2&#45;&gt;Node3</title>
<path fill="none" stroke="midnightblue" d="M195.101,-185C204.086,-185 213.192,-185 220.898,-185"/>
<polygon fill="midnightblue" stroke="midnightblue" points="195.09,-181.5 185.09,-185 195.089,-188.5 195.09,-181.5"/>
</g>
<!-- Node4 -->
<g id="node4" class="node"><title>Node4</title>
<g id="a_node4"><a xlink:href="prepost_8F90.html#a4a3b0e4ce35b3381281c0839e5846370" target="_top" xlink:title="Store results for later postprocessing. Recent updates: p65 now indicates the number of parallel i/o ...">
<polygon fill="white" stroke="black" points="299,-175.5 299,-194.5 352,-194.5 352,-175.5 299,-175.5"/>
<text text-anchor="middle" x="325.5" y="-182.5" font-family="Helvetica,sans-Serif" font-size="10.00">prepost</text>
</a>
</g>
</g>
<!-- Node3&#45;&gt;Node4 -->
<g id="edge3" class="edge"><title>Node3&#45;&gt;Node4</title>
<path fill="none" stroke="midnightblue" d="M273.288,-185C281.653,-185 290.648,-185 298.73,-185"/>
<polygon fill="midnightblue" stroke="midnightblue" points="273.146,-181.5 263.146,-185 273.146,-188.5 273.146,-181.5"/>
</g>
<!-- Node5 -->
<g id="node5" class="node"><title>Node5</title>
<g id="a_node5"><a xlink:href="drive1_8F90.html#a6ad57e0cf728f343e371ef8c9a02cd8a" target="_top" xlink:title="integrate the governing equations in time ">
<polygon fill="white" stroke="black" points="1158,-161.5 1158,-180.5 1223,-180.5 1223,-161.5 1158,-161.5"/>
<text text-anchor="middle" x="1190.5" y="-168.5" font-family="Helvetica,sans-Serif" font-size="10.00">nek_solve</text>
</a>
</g>
</g>
<!-- Node4&#45;&gt;Node5 -->
<g id="edge4" class="edge"><title>Node4&#45;&gt;Node5</title>
<path fill="none" stroke="midnightblue" d="M362.153,-192.629C398.145,-199.656 455.417,-209 505.5,-209 505.5,-209 505.5,-209 916,-209 1007.94,-209 1031.59,-206.748 1122,-190 1134.69,-187.649 1148.44,-183.988 1160.2,-180.504"/>
<polygon fill="midnightblue" stroke="midnightblue" points="362.636,-189.156 352.144,-190.627 361.263,-196.02 362.636,-189.156"/>
</g>
<!-- Node7 -->
<g id="node7" class="node"><title>Node7</title>
<g id="a_node7"><a xlink:href="prepost_8F90.html#aaf4c0f2e1790302116a4c719c2eb50ff" target="_top" xlink:title="outpost2">
<polygon fill="white" stroke="black" points="388,-152.5 388,-171.5 445,-171.5 445,-152.5 388,-152.5"/>
<text text-anchor="middle" x="416.5" y="-159.5" font-family="Helvetica,sans-Serif" font-size="10.00">outpost2</text>
</a>
</g>
</g>
<!-- Node4&#45;&gt;Node7 -->
<g id="edge6" class="edge"><title>Node4&#45;&gt;Node7</title>
<path fill="none" stroke="midnightblue" d="M362.063,-175.809C370.682,-173.582 379.766,-171.235 387.951,-169.119"/>
<polygon fill="midnightblue" stroke="midnightblue" points="361.049,-172.457 352.242,-178.347 362.8,-179.234 361.049,-172.457"/>
</g>
<!-- Node6 -->
<g id="node6" class="node"><title>Node6</title>
<g id="a_node6"><a xlink:href="drive_8F90.html#a13048bf28dd0734640412d69349e3857" target="_top" xlink:title="NEK5000: Spectral Element Computational Fluid Dynamics Solver COPYRIGHT (c) 2008&#45;2010 UCHICAGO ARGONN...">
<polygon fill="white" stroke="black" points="1259,-123.5 1259,-142.5 1308,-142.5 1308,-123.5 1259,-123.5"/>
<text text-anchor="middle" x="1283.5" y="-130.5" font-family="Helvetica,sans-Serif" font-size="10.00">nekton</text>
</a>
</g>
</g>
<!-- Node5&#45;&gt;Node6 -->
<g id="edge5" class="edge"><title>Node5&#45;&gt;Node6</title>
<path fill="none" stroke="midnightblue" d="M1223.97,-157.441C1235.73,-152.529 1248.77,-147.086 1259.54,-142.586"/>
<polygon fill="midnightblue" stroke="midnightblue" points="1222.34,-154.328 1214.46,-161.411 1225.04,-160.787 1222.34,-154.328"/>
</g>
<!-- Node8 -->
<g id="node8" class="node"><title>Node8</title>
<g id="a_node8"><a xlink:href="prepost_8F90.html#aacb528c0b28bc79dff8db48d7ae9ac64" target="_top" xlink:title="outpost">
<polygon fill="white" stroke="black" points="481,-133.5 481,-152.5 532,-152.5 532,-133.5 481,-133.5"/>
<text text-anchor="middle" x="506.5" y="-140.5" font-family="Helvetica,sans-Serif" font-size="10.00">outpost</text>
</a>
</g>
</g>
<!-- Node7&#45;&gt;Node8 -->
<g id="edge7" class="edge"><title>Node7&#45;&gt;Node8</title>
<path fill="none" stroke="midnightblue" d="M455.261,-153.847C463.907,-151.98 472.881,-150.043 480.812,-148.33"/>
<polygon fill="midnightblue" stroke="midnightblue" points="454.38,-150.457 445.344,-155.988 455.857,-157.299 454.38,-150.457"/>
</g>
<!-- Node9 -->
<g id="node9" class="node"><title>Node9</title>
<g id="a_node9"><a xlink:href="coef_8F90.html#ad01cc61ba84d488e68ca9e259c592465" target="_top" xlink:title="Routine to generate mapping data based on mesh 1 (Gauss&#45;Legendre Lobatto meshes). ...">
<polygon fill="white" stroke="black" points="568,-128.5 568,-147.5 627,-147.5 627,-128.5 568,-128.5"/>
<text text-anchor="middle" x="597.5" y="-135.5" font-family="Helvetica,sans-Serif" font-size="10.00">glmapm1</text>
</a>
</g>
</g>
<!-- Node8&#45;&gt;Node9 -->
<g id="edge8" class="edge"><title>Node8&#45;&gt;Node9</title>
<path fill="none" stroke="midnightblue" d="M542.533,-141.032C550.89,-140.562 559.715,-140.067 567.752,-139.615"/>
<polygon fill="midnightblue" stroke="midnightblue" points="542.079,-137.552 532.291,-141.607 542.472,-144.541 542.079,-137.552"/>
</g>
<!-- Node10 -->
<g id="node10" class="node"><title>Node10</title>
<g id="a_node10"><a xlink:href="coef_8F90.html#ac5d2ac0efba4a530fab5387321307d01" target="_top" xlink:title="Routine to generate all elemental geometric data for mesh 1. Velocity formulation : global&#45;to&#45;local m...">
<polygon fill="white" stroke="black" points="663,-125.5 663,-144.5 712,-144.5 712,-125.5 663,-125.5"/>
<text text-anchor="middle" x="687.5" y="-132.5" font-family="Helvetica,sans-Serif" font-size="10.00">geom1</text>
</a>
</g>
</g>
<!-- Node9&#45;&gt;Node10 -->
<g id="edge9" class="edge"><title>Node9&#45;&gt;Node10</title>
<path fill="none" stroke="midnightblue" d="M637.335,-136.676C646.049,-136.379 655.037,-136.073 662.907,-135.804"/>
<polygon fill="midnightblue" stroke="midnightblue" points="637.189,-133.179 627.314,-137.018 637.428,-140.175 637.189,-133.179"/>
</g>
<!-- Node11 -->
<g id="node11" class="node"><title>Node11</title>
<g id="a_node11"><a xlink:href="drive2_8F90.html#aefc07385d7e7539fb57662470f694136" target="_top" xlink:title="Generate geometry data. ">
<polygon fill="white" stroke="black" points="754,-125.5 754,-144.5 815,-144.5 815,-125.5 754,-125.5"/>
<text text-anchor="middle" x="784.5" y="-132.5" font-family="Helvetica,sans-Serif" font-size="10.00">gengeom</text>
</a>
</g>
</g>
<!-- Node10&#45;&gt;Node11 -->
<g id="edge10" class="edge"><title>Node10&#45;&gt;Node11</title>
<path fill="none" stroke="midnightblue" d="M722.661,-135C732.83,-135 743.887,-135 753.751,-135"/>
<polygon fill="midnightblue" stroke="midnightblue" points="722.473,-131.5 712.473,-135 722.472,-138.5 722.473,-131.5"/>
</g>
<!-- Node15 -->
<g id="node15" class="node"><title>Node15</title>
<g id="a_node15"><a xlink:href="ic_8F90.html#aaf47b255d1cfac3451a8473ee6876b4f" target="_top" xlink:title="Generate geometry data. ">
<polygon fill="white" stroke="black" points="748,-63.5 748,-82.5 821,-82.5 821,-63.5 748,-63.5"/>
<text text-anchor="middle" x="784.5" y="-70.5" font-family="Helvetica,sans-Serif" font-size="10.00">geom_reset</text>
</a>
</g>
</g>
<!-- Node10&#45;&gt;Node15 -->
<g id="edge16" class="edge"><title>Node10&#45;&gt;Node15</title>
<path fill="none" stroke="midnightblue" d="M712.001,-119.662C729.765,-108.069 753.602,-92.5123 768.76,-82.6195"/>
<polygon fill="midnightblue" stroke="midnightblue" points="709.805,-116.916 703.344,-125.312 713.631,-122.778 709.805,-116.916"/>
</g>
<!-- Node12 -->
<g id="node12" class="node"><title>Node12</title>
<g id="a_node12"><a xlink:href="drive1_8F90.html#ae177ea7efac97f35241521b782a671c0" target="_top" xlink:title="take a single time&#45;step ">
<polygon fill="white" stroke="black" points="875,-161.5 875,-180.5 955,-180.5 955,-161.5 875,-161.5"/>
<text text-anchor="middle" x="915" y="-168.5" font-family="Helvetica,sans-Serif" font-size="10.00">nek_advance</text>
</a>
</g>
</g>
<!-- Node11&#45;&gt;Node12 -->
<g id="edge11" class="edge"><title>Node11&#45;&gt;Node12</title>
<path fill="none" stroke="midnightblue" d="M825.217,-146.127C842.696,-151.024 863.026,-156.719 879.817,-161.424"/>
<polygon fill="midnightblue" stroke="midnightblue" points="825.877,-142.677 815.303,-143.35 823.989,-149.418 825.877,-142.677"/>
</g>
<!-- Node14 -->
<g id="node14" class="node"><title>Node14</title>
<g id="a_node14"><a xlink:href="drive1_8F90.html#a87bd37ae2c18426f28f35cc3f24e4355" target="_top" xlink:title="initialize nek ">
<polygon fill="white" stroke="black" points="1164,-85.5 1164,-104.5 1217,-104.5 1217,-85.5 1164,-85.5"/>
<text text-anchor="middle" x="1190.5" y="-92.5" font-family="Helvetica,sans-Serif" font-size="10.00">nek_init</text>
</a>
</g>
</g>
<!-- Node11&#45;&gt;Node14 -->
<g id="edge14" class="edge"><title>Node11&#45;&gt;Node14</title>
<path fill="none" stroke="midnightblue" d="M825.528,-131.496C888.609,-125.905 1014.99,-114.428 1122,-103 1135.85,-101.521 1151.27,-99.7061 1163.87,-98.1787"/>
<polygon fill="midnightblue" stroke="midnightblue" points="824.885,-128.039 815.232,-132.406 825.501,-135.011 824.885,-128.039"/>
</g>
<!-- Node13 -->
<g id="node13" class="node"><title>Node13</title>
<g id="a_node13"><a xlink:href="drive1_8F90.html#a18d3e839786263fc4cf91f7eeb714371" target="_top" xlink:title="take a chunk of time&#45;steps ">
<polygon fill="white" stroke="black" points="1009,-161.5 1009,-180.5 1122,-180.5 1122,-161.5 1009,-161.5"/>
<text text-anchor="middle" x="1065.5" y="-168.5" font-family="Helvetica,sans-Serif" font-size="10.00">nek__multi_advance</text>
</a>
</g>
</g>
<!-- Node12&#45;&gt;Node13 -->
<g id="edge12" class="edge"><title>Node12&#45;&gt;Node13</title>
<path fill="none" stroke="midnightblue" d="M965.406,-171C979.382,-171 994.684,-171 1008.99,-171"/>
<polygon fill="midnightblue" stroke="midnightblue" points="965.017,-167.5 955.017,-171 965.017,-174.5 965.017,-167.5"/>
</g>
<!-- Node13&#45;&gt;Node5 -->
<g id="edge13" class="edge"><title>Node13&#45;&gt;Node5</title>
<path fill="none" stroke="midnightblue" d="M1132.28,-171C1141.16,-171 1149.93,-171 1157.82,-171"/>
<polygon fill="midnightblue" stroke="midnightblue" points="1132.24,-167.5 1122.24,-171 1132.24,-174.5 1132.24,-167.5"/>
</g>
<!-- Node14&#45;&gt;Node6 -->
<g id="edge15" class="edge"><title>Node14&#45;&gt;Node6</title>
<path fill="none" stroke="midnightblue" d="M1223.97,-108.559C1235.73,-113.471 1248.77,-118.914 1259.54,-123.414"/>
<polygon fill="midnightblue" stroke="midnightblue" points="1225.04,-105.213 1214.46,-104.589 1222.34,-111.672 1225.04,-105.213"/>
</g>
<!-- Node15&#45;&gt;Node14 -->
<g id="edge20" class="edge"><title>Node15&#45;&gt;Node14</title>
<path fill="none" stroke="midnightblue" d="M831.528,-75.5065C916.931,-80.1571 1097.3,-89.9789 1164,-93.6113"/>
<polygon fill="midnightblue" stroke="midnightblue" points="831.528,-72.0014 821.352,-74.9524 831.147,-78.991 831.528,-72.0014"/>
</g>
<!-- Node16 -->
<g id="node16" class="node"><title>Node16</title>
<g id="a_node16"><a xlink:href="classhsmg__routines.html#a91e8aa59d56bbf05d75aa9c48bcd8977" target="_top" xlink:title="Sets up Poisson preconditioner. ">
<polygon fill="white" stroke="black" points="857,-36 857,-66 973,-66 973,-36 857,-36"/>
<text text-anchor="start" x="865" y="-54" font-family="Helvetica,sans-Serif" font-size="10.00">hsmg_routines::h1mg</text>
<text text-anchor="middle" x="915" y="-43" font-family="Helvetica,sans-Serif" font-size="10.00">_setup</text>
</a>
</g>
</g>
<!-- Node15&#45;&gt;Node16 -->
<g id="edge17" class="edge"><title>Node15&#45;&gt;Node16</title>
<path fill="none" stroke="midnightblue" d="M831.406,-65.1406C839.608,-63.7363 848.246,-62.2575 856.72,-60.8067"/>
<polygon fill="midnightblue" stroke="midnightblue" points="830.56,-61.7344 821.294,-66.8718 831.742,-68.634 830.56,-61.7344"/>
</g>
<!-- Node18 -->
<g id="node18" class="node"><title>Node18</title>
<g id="a_node18"><a xlink:href="ic_8F90.html#acaefa33e86633e4a7a4b28347d4620d1" target="_top" xlink:title="Set initial conditions. ">
<polygon fill="white" stroke="black" points="1043.5,-0.5 1043.5,-19.5 1087.5,-19.5 1087.5,-0.5 1043.5,-0.5"/>
<text text-anchor="middle" x="1065.5" y="-7.5" font-family="Helvetica,sans-Serif" font-size="10.00">setics</text>
</a>
</g>
</g>
<!-- Node15&#45;&gt;Node18 -->
<g id="edge21" class="edge"><title>Node15&#45;&gt;Node18</title>
<path fill="none" stroke="midnightblue" d="M804.276,-56.8103C817.934,-46.0453 837.397,-32.6978 857,-26 922.133,-3.74574 1005.23,-5.75215 1043.49,-8.23573"/>
<polygon fill="midnightblue" stroke="midnightblue" points="801.722,-54.3768 796.195,-63.4157 806.153,-59.7965 801.722,-54.3768"/>
</g>
<!-- Node17 -->
<g id="node17" class="node"><title>Node17</title>
<g id="a_node17"><a xlink:href="navier6_8F90.html#a45317b1def173b8f1db2e5083595d095" target="_top" xlink:title="Set up arrays for overlapping Schwartz algorithm for pressure solver ">
<polygon fill="white" stroke="black" points="1029.5,-44.5 1029.5,-63.5 1101.5,-63.5 1101.5,-44.5 1029.5,-44.5"/>
<text text-anchor="middle" x="1065.5" y="-51.5" font-family="Helvetica,sans-Serif" font-size="10.00">set_overlap</text>
</a>
</g>
</g>
<!-- Node16&#45;&gt;Node17 -->
<g id="edge18" class="edge"><title>Node16&#45;&gt;Node17</title>
<path fill="none" stroke="midnightblue" d="M983.65,-52.3667C999.359,-52.684 1015.47,-53.0094 1029.13,-53.2854"/>
<polygon fill="midnightblue" stroke="midnightblue" points="983.483,-48.8627 973.414,-52.1599 983.341,-55.8612 983.483,-48.8627"/>
</g>
<!-- Node17&#45;&gt;Node14 -->
<g id="edge19" class="edge"><title>Node17&#45;&gt;Node14</title>
<path fill="none" stroke="midnightblue" d="M1104.68,-66.7254C1123.84,-73.1124 1146.54,-80.6813 1163.64,-86.3801"/>
<polygon fill="midnightblue" stroke="midnightblue" points="1105.62,-63.3512 1095.03,-63.5093 1103.41,-69.992 1105.62,-63.3512"/>
</g>
<!-- Node18&#45;&gt;Node14 -->
<g id="edge22" class="edge"><title>Node18&#45;&gt;Node14</title>
<path fill="none" stroke="midnightblue" d="M1096.78,-21.6461C1105.22,-25.4174 1114.2,-29.9479 1122,-35 1145.16,-50.0058 1168.38,-72.738 1180.63,-85.4802"/>
<polygon fill="midnightblue" stroke="midnightblue" points="1098.14,-18.4242 1087.57,-17.7234 1095.4,-24.8638 1098.14,-18.4242"/>
</g>
</g>
</svg>
