<?xml version="1.0" encoding="UTF-8" standalone="no"?>
<!DOCTYPE svg PUBLIC "-//W3C//DTD SVG 1.1//EN"
 "http://www.w3.org/Graphics/SVG/1.1/DTD/svg11.dtd">
<!-- Generated by graphviz version 2.38.0 (20140413.2041)
 -->
<!-- Title: i_find_prefix Pages: 1 -->
<svg width="1205pt" height="217pt"
 viewBox="0.00 0.00 1205.00 217.00" xmlns="http://www.w3.org/2000/svg" xmlns:xlink="http://www.w3.org/1999/xlink">
<g id="graph0" class="graph" transform="scale(1 1) rotate(0) translate(4 213)">
<title>i_find_prefix</title>
<polygon fill="white" stroke="none" points="-4,4 -4,-213 1201,-213 1201,4 -4,4"/>
<!-- Node1 -->
<g id="node1" class="node"><title>Node1</title>
<polygon fill="#bfbfbf" stroke="black" points="0,-175.5 0,-194.5 74,-194.5 74,-175.5 0,-175.5"/>
<text text-anchor="middle" x="37" y="-182.5" font-family="Helvetica,sans-Serif" font-size="10.00">i_find_prefix</text>
</g>
<!-- Node2 -->
<g id="node2" class="node"><title>Node2</title>
<g id="a_node2"><a xlink:href="prepost_8F90.html#a78b0361cf9ff06bfe5020c2114ddc924" target="_top" xlink:title="output .fld file ">
<polygon fill="white" stroke="black" points="110,-175.5 110,-194.5 152,-194.5 152,-175.5 110,-175.5"/>
<text text-anchor="middle" x="131" y="-182.5" font-family="Helvetica,sans-Serif" font-size="10.00">outfld</text>
</a>
</g>
</g>
<!-- Node1&#45;&gt;Node2 -->
<g id="edge1" class="edge"><title>Node1&#45;&gt;Node2</title>
<path fill="none" stroke="midnightblue" d="M84.2339,-185C93.2739,-185 102.302,-185 109.921,-185"/>
<polygon fill="midnightblue" stroke="midnightblue" points="84.0968,-181.5 74.0968,-185 84.0967,-188.5 84.0968,-181.5"/>
</g>
<!-- Node3 -->
<g id="node3" class="node"><title>Node3</title>
<g id="a_node3"><a xlink:href="prepost_8F90.html#a4a3b0e4ce35b3381281c0839e5846370" target="_top" xlink:title="Store results for later postprocessing. Recent updates: p65 now indicates the number of parallel i/o ...">
<polygon fill="white" stroke="black" points="188,-175.5 188,-194.5 241,-194.5 241,-175.5 188,-175.5"/>
<text text-anchor="middle" x="214.5" y="-182.5" font-family="Helvetica,sans-Serif" font-size="10.00">prepost</text>
</a>
</g>
</g>
<!-- Node2&#45;&gt;Node3 -->
<g id="edge2" class="edge"><title>Node2&#45;&gt;Node3</title>
<path fill="none" stroke="midnightblue" d="M162.288,-185C170.653,-185 179.648,-185 187.73,-185"/>
<polygon fill="midnightblue" stroke="midnightblue" points="162.146,-181.5 152.146,-185 162.146,-188.5 162.146,-181.5"/>
</g>
<!-- Node4 -->
<g id="node4" class="node"><title>Node4</title>
<g id="a_node4"><a xlink:href="drive1_8F90.html#a6ad57e0cf728f343e371ef8c9a02cd8a" target="_top" xlink:title="integrate the governing equations in time ">
<polygon fill="white" stroke="black" points="1047,-161.5 1047,-180.5 1112,-180.5 1112,-161.5 1047,-161.5"/>
<text text-anchor="middle" x="1079.5" y="-168.5" font-family="Helvetica,sans-Serif" font-size="10.00">nek_solve</text>
</a>
</g>
</g>
<!-- Node3&#45;&gt;Node4 -->
<g id="edge3" class="edge"><title>Node3&#45;&gt;Node4</title>
<path fill="none" stroke="midnightblue" d="M251.153,-192.629C287.145,-199.656 344.417,-209 394.5,-209 394.5,-209 394.5,-209 805,-209 896.944,-209 920.594,-206.748 1011,-190 1023.69,-187.649 1037.44,-183.988 1049.2,-180.504"/>
<polygon fill="midnightblue" stroke="midnightblue" points="251.636,-189.156 241.144,-190.627 250.263,-196.02 251.636,-189.156"/>
</g>
<!-- Node6 -->
<g id="node6" class="node"><title>Node6</title>
<g id="a_node6"><a xlink:href="prepost_8F90.html#aaf4c0f2e1790302116a4c719c2eb50ff" target="_top" xlink:title="outpost2">
<polygon fill="white" stroke="black" points="277,-152.5 277,-171.5 334,-171.5 334,-152.5 277,-152.5"/>
<text text-anchor="middle" x="305.5" y="-159.5" font-family="Helvetica,sans-Serif" font-size="10.00">outpost2</text>
</a>
</g>
</g>
<!-- Node3&#45;&gt;Node6 -->
<g id="edge5" class="edge"><title>Node3&#45;&gt;Node6</title>
<path fill="none" stroke="midnightblue" d="M251.063,-175.809C259.682,-173.582 268.766,-171.235 276.951,-169.119"/>
<polygon fill="midnightblue" stroke="midnightblue" points="250.049,-172.457 241.242,-178.347 251.8,-179.234 250.049,-172.457"/>
</g>
<!-- Node5 -->
<g id="node5" class="node"><title>Node5</title>
<g id="a_node5"><a xlink:href="drive_8F90.html#a13048bf28dd0734640412d69349e3857" target="_top" xlink:title="NEK5000: Spectral Element Computational Fluid Dynamics Solver COPYRIGHT (c) 2008&#45;2010 UCHICAGO ARGONN...">
<polygon fill="white" stroke="black" points="1148,-123.5 1148,-142.5 1197,-142.5 1197,-123.5 1148,-123.5"/>
<text text-anchor="middle" x="1172.5" y="-130.5" font-family="Helvetica,sans-Serif" font-size="10.00">nekton</text>
</a>
</g>
</g>
<!-- Node4&#45;&gt;Node5 -->
<g id="edge4" class="edge"><title>Node4&#45;&gt;Node5</title>
<path fill="none" stroke="midnightblue" d="M1112.97,-157.441C1124.73,-152.529 1137.77,-147.086 1148.54,-142.586"/>
<polygon fill="midnightblue" stroke="midnightblue" points="1111.34,-154.328 1103.46,-161.411 1114.04,-160.787 1111.34,-154.328"/>
</g>
<!-- Node7 -->
<g id="node7" class="node"><title>Node7</title>
<g id="a_node7"><a xlink:href="prepost_8F90.html#aacb528c0b28bc79dff8db48d7ae9ac64" target="_top" xlink:title="outpost">
<polygon fill="white" stroke="black" points="370,-133.5 370,-152.5 421,-152.5 421,-133.5 370,-133.5"/>
<text text-anchor="middle" x="395.5" y="-140.5" font-family="Helvetica,sans-Serif" font-size="10.00">outpost</text>
</a>
</g>
</g>
<!-- Node6&#45;&gt;Node7 -->
<g id="edge6" class="edge"><title>Node6&#45;&gt;Node7</title>
<path fill="none" stroke="midnightblue" d="M344.261,-153.847C352.907,-151.98 361.881,-150.043 369.812,-148.33"/>
<polygon fill="midnightblue" stroke="midnightblue" points="343.38,-150.457 334.344,-155.988 344.857,-157.299 343.38,-150.457"/>
</g>
<!-- Node8 -->
<g id="node8" class="node"><title>Node8</title>
<g id="a_node8"><a xlink:href="coef_8F90.html#ad01cc61ba84d488e68ca9e259c592465" target="_top" xlink:title="Routine to generate mapping data based on mesh 1 (Gauss&#45;Legendre Lobatto meshes). ...">
<polygon fill="white" stroke="black" points="457,-128.5 457,-147.5 516,-147.5 516,-128.5 457,-128.5"/>
<text text-anchor="middle" x="486.5" y="-135.5" font-family="Helvetica,sans-Serif" font-size="10.00">glmapm1</text>
</a>
</g>
</g>
<!-- Node7&#45;&gt;Node8 -->
<g id="edge7" class="edge"><title>Node7&#45;&gt;Node8</title>
<path fill="none" stroke="midnightblue" d="M431.533,-141.032C439.89,-140.562 448.715,-140.067 456.752,-139.615"/>
<polygon fill="midnightblue" stroke="midnightblue" points="431.079,-137.552 421.291,-141.607 431.472,-144.541 431.079,-137.552"/>
</g>
<!-- Node9 -->
<g id="node9" class="node"><title>Node9</title>
<g id="a_node9"><a xlink:href="coef_8F90.html#ac5d2ac0efba4a530fab5387321307d01" target="_top" xlink:title="Routine to generate all elemental geometric data for mesh 1. Velocity formulation : global&#45;to&#45;local m...">
<polygon fill="white" stroke="black" points="552,-125.5 552,-144.5 601,-144.5 601,-125.5 552,-125.5"/>
<text text-anchor="middle" x="576.5" y="-132.5" font-family="Helvetica,sans-Serif" font-size="10.00">geom1</text>
</a>
</g>
</g>
<!-- Node8&#45;&gt;Node9 -->
<g id="edge8" class="edge"><title>Node8&#45;&gt;Node9</title>
<path fill="none" stroke="midnightblue" d="M526.335,-136.676C535.049,-136.379 544.037,-136.073 551.907,-135.804"/>
<polygon fill="midnightblue" stroke="midnightblue" points="526.189,-133.179 516.314,-137.018 526.428,-140.175 526.189,-133.179"/>
</g>
<!-- Node10 -->
<g id="node10" class="node"><title>Node10</title>
<g id="a_node10"><a xlink:href="drive2_8F90.html#aefc07385d7e7539fb57662470f694136" target="_top" xlink:title="Generate geometry data. ">
<polygon fill="white" stroke="black" points="643,-125.5 643,-144.5 704,-144.5 704,-125.5 643,-125.5"/>
<text text-anchor="middle" x="673.5" y="-132.5" font-family="Helvetica,sans-Serif" font-size="10.00">gengeom</text>
</a>
</g>
</g>
<!-- Node9&#45;&gt;Node10 -->
<g id="edge9" class="edge"><title>Node9&#45;&gt;Node10</title>
<path fill="none" stroke="midnightblue" d="M611.661,-135C621.83,-135 632.887,-135 642.751,-135"/>
<polygon fill="midnightblue" stroke="midnightblue" points="611.473,-131.5 601.473,-135 611.472,-138.5 611.473,-131.5"/>
</g>
<!-- Node14 -->
<g id="node14" class="node"><title>Node14</title>
<g id="a_node14"><a xlink:href="ic_8F90.html#aaf47b255d1cfac3451a8473ee6876b4f" target="_top" xlink:title="Generate geometry data. ">
<polygon fill="white" stroke="black" points="637,-63.5 637,-82.5 710,-82.5 710,-63.5 637,-63.5"/>
<text text-anchor="middle" x="673.5" y="-70.5" font-family="Helvetica,sans-Serif" font-size="10.00">geom_reset</text>
</a>
</g>
</g>
<!-- Node9&#45;&gt;Node14 -->
<g id="edge15" class="edge"><title>Node9&#45;&gt;Node14</title>
<path fill="none" stroke="midnightblue" d="M601.001,-119.662C618.765,-108.069 642.602,-92.5123 657.76,-82.6195"/>
<polygon fill="midnightblue" stroke="midnightblue" points="598.805,-116.916 592.344,-125.312 602.631,-122.778 598.805,-116.916"/>
</g>
<!-- Node11 -->
<g id="node11" class="node"><title>Node11</title>
<g id="a_node11"><a xlink:href="drive1_8F90.html#ae177ea7efac97f35241521b782a671c0" target="_top" xlink:title="take a single time&#45;step ">
<polygon fill="white" stroke="black" points="764,-161.5 764,-180.5 844,-180.5 844,-161.5 764,-161.5"/>
<text text-anchor="middle" x="804" y="-168.5" font-family="Helvetica,sans-Serif" font-size="10.00">nek_advance</text>
</a>
</g>
</g>
<!-- Node10&#45;&gt;Node11 -->
<g id="edge10" class="edge"><title>Node10&#45;&gt;Node11</title>
<path fill="none" stroke="midnightblue" d="M714.217,-146.127C731.696,-151.024 752.026,-156.719 768.817,-161.424"/>
<polygon fill="midnightblue" stroke="midnightblue" points="714.877,-142.677 704.303,-143.35 712.989,-149.418 714.877,-142.677"/>
</g>
<!-- Node13 -->
<g id="node13" class="node"><title>Node13</title>
<g id="a_node13"><a xlink:href="drive1_8F90.html#a87bd37ae2c18426f28f35cc3f24e4355" target="_top" xlink:title="initialize nek ">
<polygon fill="white" stroke="black" points="1053,-85.5 1053,-104.5 1106,-104.5 1106,-85.5 1053,-85.5"/>
<text text-anchor="middle" x="1079.5" y="-92.5" font-family="Helvetica,sans-Serif" font-size="10.00">nek_init</text>
</a>
</g>
</g>
<!-- Node10&#45;&gt;Node13 -->
<g id="edge13" class="edge"><title>Node10&#45;&gt;Node13</title>
<path fill="none" stroke="midnightblue" d="M714.528,-131.496C777.609,-125.905 903.988,-114.428 1011,-103 1024.85,-101.521 1040.27,-99.7061 1052.87,-98.1787"/>
<polygon fill="midnightblue" stroke="midnightblue" points="713.885,-128.039 704.232,-132.406 714.501,-135.011 713.885,-128.039"/>
</g>
<!-- Node12 -->
<g id="node12" class="node"><title>Node12</title>
<g id="a_node12"><a xlink:href="drive1_8F90.html#a18d3e839786263fc4cf91f7eeb714371" target="_top" xlink:title="take a chunk of time&#45;steps ">
<polygon fill="white" stroke="black" points="898,-161.5 898,-180.5 1011,-180.5 1011,-161.5 898,-161.5"/>
<text text-anchor="middle" x="954.5" y="-168.5" font-family="Helvetica,sans-Serif" font-size="10.00">nek__multi_advance</text>
</a>
</g>
</g>
<!-- Node11&#45;&gt;Node12 -->
<g id="edge11" class="edge"><title>Node11&#45;&gt;Node12</title>
<path fill="none" stroke="midnightblue" d="M854.406,-171C868.382,-171 883.684,-171 897.993,-171"/>
<polygon fill="midnightblue" stroke="midnightblue" points="854.017,-167.5 844.017,-171 854.017,-174.5 854.017,-167.5"/>
</g>
<!-- Node12&#45;&gt;Node4 -->
<g id="edge12" class="edge"><title>Node12&#45;&gt;Node4</title>
<path fill="none" stroke="midnightblue" d="M1021.28,-171C1030.16,-171 1038.93,-171 1046.82,-171"/>
<polygon fill="midnightblue" stroke="midnightblue" points="1021.24,-167.5 1011.24,-171 1021.24,-174.5 1021.24,-167.5"/>
</g>
<!-- Node13&#45;&gt;Node5 -->
<g id="edge14" class="edge"><title>Node13&#45;&gt;Node5</title>
<path fill="none" stroke="midnightblue" d="M1112.97,-108.559C1124.73,-113.471 1137.77,-118.914 1148.54,-123.414"/>
<polygon fill="midnightblue" stroke="midnightblue" points="1114.04,-105.213 1103.46,-104.589 1111.34,-111.672 1114.04,-105.213"/>
</g>
<!-- Node14&#45;&gt;Node13 -->
<g id="edge19" class="edge"><title>Node14&#45;&gt;Node13</title>
<path fill="none" stroke="midnightblue" d="M720.528,-75.5065C805.931,-80.1571 986.295,-89.9789 1053,-93.6113"/>
<polygon fill="midnightblue" stroke="midnightblue" points="720.528,-72.0014 710.352,-74.9524 720.147,-78.991 720.528,-72.0014"/>
</g>
<!-- Node15 -->
<g id="node15" class="node"><title>Node15</title>
<g id="a_node15"><a xlink:href="classhsmg__routines.html#a91e8aa59d56bbf05d75aa9c48bcd8977" target="_top" xlink:title="Sets up Poisson preconditioner. ">
<polygon fill="white" stroke="black" points="746,-36 746,-66 862,-66 862,-36 746,-36"/>
<text text-anchor="start" x="754" y="-54" font-family="Helvetica,sans-Serif" font-size="10.00">hsmg_routines::h1mg</text>
<text text-anchor="middle" x="804" y="-43" font-family="Helvetica,sans-Serif" font-size="10.00">_setup</text>
</a>
</g>
</g>
<!-- Node14&#45;&gt;Node15 -->
<g id="edge16" class="edge"><title>Node14&#45;&gt;Node15</title>
<path fill="none" stroke="midnightblue" d="M720.406,-65.1406C728.608,-63.7363 737.246,-62.2575 745.72,-60.8067"/>
<polygon fill="midnightblue" stroke="midnightblue" points="719.56,-61.7344 710.294,-66.8718 720.742,-68.634 719.56,-61.7344"/>
</g>
<!-- Node17 -->
<g id="node17" class="node"><title>Node17</title>
<g id="a_node17"><a xlink:href="ic_8F90.html#acaefa33e86633e4a7a4b28347d4620d1" target="_top" xlink:title="Set initial conditions. ">
<polygon fill="white" stroke="black" points="932.5,-0.5 932.5,-19.5 976.5,-19.5 976.5,-0.5 932.5,-0.5"/>
<text text-anchor="middle" x="954.5" y="-7.5" font-family="Helvetica,sans-Serif" font-size="10.00">setics</text>
</a>
</g>
</g>
<!-- Node14&#45;&gt;Node17 -->
<g id="edge20" class="edge"><title>Node14&#45;&gt;Node17</title>
<path fill="none" stroke="midnightblue" d="M693.276,-56.8103C706.934,-46.0453 726.397,-32.6978 746,-26 811.133,-3.74574 894.232,-5.75215 932.491,-8.23573"/>
<polygon fill="midnightblue" stroke="midnightblue" points="690.722,-54.3768 685.195,-63.4157 695.153,-59.7965 690.722,-54.3768"/>
</g>
<!-- Node16 -->
<g id="node16" class="node"><title>Node16</title>
<g id="a_node16"><a xlink:href="navier6_8F90.html#a45317b1def173b8f1db2e5083595d095" target="_top" xlink:title="Set up arrays for overlapping Schwartz algorithm for pressure solver ">
<polygon fill="white" stroke="black" points="918.5,-44.5 918.5,-63.5 990.5,-63.5 990.5,-44.5 918.5,-44.5"/>
<text text-anchor="middle" x="954.5" y="-51.5" font-family="Helvetica,sans-Serif" font-size="10.00">set_overlap</text>
</a>
</g>
</g>
<!-- Node15&#45;&gt;Node16 -->
<g id="edge17" class="edge"><title>Node15&#45;&gt;Node16</title>
<path fill="none" stroke="midnightblue" d="M872.65,-52.3667C888.359,-52.684 904.466,-53.0094 918.127,-53.2854"/>
<polygon fill="midnightblue" stroke="midnightblue" points="872.483,-48.8627 862.414,-52.1599 872.341,-55.8612 872.483,-48.8627"/>
</g>
<!-- Node16&#45;&gt;Node13 -->
<g id="edge18" class="edge"><title>Node16&#45;&gt;Node13</title>
<path fill="none" stroke="midnightblue" d="M993.676,-66.7254C1012.84,-73.1124 1035.54,-80.6813 1052.64,-86.3801"/>
<polygon fill="midnightblue" stroke="midnightblue" points="994.621,-63.3512 984.028,-63.5093 992.408,-69.992 994.621,-63.3512"/>
</g>
<!-- Node17&#45;&gt;Node13 -->
<g id="edge21" class="edge"><title>Node17&#45;&gt;Node13</title>
<path fill="none" stroke="midnightblue" d="M985.776,-21.6461C994.216,-25.4174 1003.2,-29.9479 1011,-35 1034.16,-50.0058 1057.38,-72.738 1069.63,-85.4802"/>
<polygon fill="midnightblue" stroke="midnightblue" points="987.143,-18.4242 976.571,-17.7234 984.398,-24.8638 987.143,-18.4242"/>
</g>
</g>
</svg>
