<?xml version="1.0" encoding="UTF-8" standalone="no"?>
<!DOCTYPE svg PUBLIC "-//W3C//DTD SVG 1.1//EN"
 "http://www.w3.org/Graphics/SVG/1.1/DTD/svg11.dtd">
<!-- Generated by graphviz version 2.38.0 (20140413.2041)
 -->
<!-- Title: outhis Pages: 1 -->
<svg width="551pt" height="275pt"
 viewBox="0.00 0.00 551.00 275.00" xmlns="http://www.w3.org/2000/svg" xmlns:xlink="http://www.w3.org/1999/xlink">
<g id="graph0" class="graph" transform="scale(1 1) rotate(0) translate(4 271)">
<title>outhis</title>
<polygon fill="white" stroke="none" points="-4,4 -4,-271 547,-271 547,4 -4,4"/>
<!-- Node1 -->
<g id="node1" class="node"><title>Node1</title>
<polygon fill="#bfbfbf" stroke="black" points="0,-57.5 0,-76.5 44,-76.5 44,-57.5 0,-57.5"/>
<text text-anchor="middle" x="22" y="-64.5" font-family="Helvetica,sans-Serif" font-size="10.00">outhis</text>
</g>
<!-- Node2 -->
<g id="node2" class="node"><title>Node2</title>
<g id="a_node2"><a xlink:href="comm__mpi_8F90.html#a243c9bed2592e7cd159fb36be4fda037" target="_top" xlink:title="crecv">
<polygon fill="white" stroke="black" points="99,-114.5 99,-133.5 141,-133.5 141,-114.5 99,-114.5"/>
<text text-anchor="middle" x="120" y="-121.5" font-family="Helvetica,sans-Serif" font-size="10.00">crecv</text>
</a>
</g>
</g>
<!-- Node1&#45;&gt;Node2 -->
<g id="edge1" class="edge"><title>Node1&#45;&gt;Node2</title>
<path fill="none" stroke="midnightblue" d="M36.2648,-76.5852C47.6146,-84.6044 64.5241,-96.1253 80,-105 83.0994,-106.777 86.3892,-108.548 89.6926,-110.254"/>
<polygon fill="midnightblue" stroke="midnightblue" points="88.38,-113.511 98.8909,-114.842 91.5041,-107.247 88.38,-113.511"/>
</g>
<!-- Node14 -->
<g id="node14" class="node"><title>Node14</title>
<g id="a_node14"><a xlink:href="comm__mpi_8F90.html#abd95004b45059acdcc13614c52e60eae" target="_top" xlink:title="csend">
<polygon fill="white" stroke="black" points="97.5,-76.5 97.5,-95.5 142.5,-95.5 142.5,-76.5 97.5,-76.5"/>
<text text-anchor="middle" x="120" y="-83.5" font-family="Helvetica,sans-Serif" font-size="10.00">csend</text>
</a>
</g>
</g>
<!-- Node1&#45;&gt;Node14 -->
<g id="edge13" class="edge"><title>Node1&#45;&gt;Node14</title>
<path fill="none" stroke="midnightblue" d="M44.3055,-71.2167C57.0183,-73.7328 73.394,-76.9738 87.5712,-79.7797"/>
<polygon fill="midnightblue" stroke="midnightblue" points="86.9328,-83.2212 97.4221,-81.7294 88.2919,-76.3544 86.9328,-83.2212"/>
</g>
<!-- Node16 -->
<g id="node16" class="node"><title>Node16</title>
<g id="a_node16"><a xlink:href="classparallel.html#a9a8fe6b8e5cb33426f1ebc5d75ae256f" target="_top" xlink:title="parallel::gllel">
<polygon fill="white" stroke="black" points="83,-38.5 83,-57.5 157,-57.5 157,-38.5 83,-38.5"/>
<text text-anchor="middle" x="120" y="-45.5" font-family="Helvetica,sans-Serif" font-size="10.00">parallel::gllel</text>
</a>
</g>
</g>
<!-- Node1&#45;&gt;Node16 -->
<g id="edge15" class="edge"><title>Node1&#45;&gt;Node16</title>
<path fill="none" stroke="midnightblue" d="M44.3055,-62.7833C52.7571,-61.1106 62.8276,-59.1175 72.7948,-57.1448"/>
<polygon fill="midnightblue" stroke="midnightblue" points="73.5336,-60.5665 82.6637,-55.1915 72.1745,-53.6997 73.5336,-60.5665"/>
</g>
<!-- Node18 -->
<g id="node18" class="node"><title>Node18</title>
<g id="a_node18"><a xlink:href="classparallel.html#a07e279fd1cc6f4e9189bcaad37a0d3b6" target="_top" xlink:title="parallel::gllnid">
<polygon fill="white" stroke="black" points="80,-0.5 80,-19.5 160,-19.5 160,-0.5 80,-0.5"/>
<text text-anchor="middle" x="120" y="-7.5" font-family="Helvetica,sans-Serif" font-size="10.00">parallel::gllnid</text>
</a>
</g>
</g>
<!-- Node1&#45;&gt;Node18 -->
<g id="edge17" class="edge"><title>Node1&#45;&gt;Node18</title>
<path fill="none" stroke="midnightblue" d="M36.2648,-57.4148C47.6146,-49.3956 64.5241,-37.8747 80,-29 82.8748,-27.3515 85.9134,-25.7083 88.9747,-24.1174"/>
<polygon fill="midnightblue" stroke="midnightblue" points="90.7155,-27.16 98.0853,-19.5484 87.5774,-20.9028 90.7155,-27.16"/>
</g>
<!-- Node3 -->
<g id="node3" class="node"><title>Node3</title>
<g id="a_node3"><a xlink:href="byte_8c.html#a2da8eeb074dfd3ffbfb3e9a4d301cda4" target="_top" xlink:title="exitt">
<polygon fill="white" stroke="black" points="227,-152.5 227,-171.5 263,-171.5 263,-152.5 227,-152.5"/>
<text text-anchor="middle" x="245" y="-159.5" font-family="Helvetica,sans-Serif" font-size="10.00">exitt</text>
</a>
</g>
</g>
<!-- Node2&#45;&gt;Node3 -->
<g id="edge2" class="edge"><title>Node2&#45;&gt;Node3</title>
<path fill="none" stroke="midnightblue" d="M141.036,-130.19C161.697,-136.573 194.046,-146.567 216.964,-153.647"/>
<polygon fill="midnightblue" stroke="midnightblue" points="216.167,-157.064 226.755,-156.672 218.233,-150.376 216.167,-157.064"/>
</g>
<!-- Node13 -->
<g id="node13" class="node"><title>Node13</title>
<g id="a_node13"><a xlink:href="mpi__dummy_8F90.html#a709ef20e522dddac7afb17999141cfd4" target="_top" xlink:title="mpi_recv">
<polygon fill="white" stroke="black" points="215.5,-114.5 215.5,-133.5 274.5,-133.5 274.5,-114.5 215.5,-114.5"/>
<text text-anchor="middle" x="245" y="-121.5" font-family="Helvetica,sans-Serif" font-size="10.00">mpi_recv</text>
</a>
</g>
</g>
<!-- Node2&#45;&gt;Node13 -->
<g id="edge12" class="edge"><title>Node2&#45;&gt;Node13</title>
<path fill="none" stroke="midnightblue" d="M141.036,-124C158.352,-124 183.877,-124 205.18,-124"/>
<polygon fill="midnightblue" stroke="midnightblue" points="205.244,-127.5 215.244,-124 205.244,-120.5 205.244,-127.5"/>
</g>
<!-- Node4 -->
<g id="node4" class="node"><title>Node4</title>
<g id="a_node4"><a xlink:href="classctimer.html#abcecbc845c8ee72e13a19eaa30b80d77" target="_top" xlink:title="ctimer::dnekclock">
<polygon fill="white" stroke="black" points="330,-247.5 330,-266.5 427,-266.5 427,-247.5 330,-247.5"/>
<text text-anchor="middle" x="378.5" y="-254.5" font-family="Helvetica,sans-Serif" font-size="10.00">ctimer::dnekclock</text>
</a>
</g>
</g>
<!-- Node3&#45;&gt;Node4 -->
<g id="edge3" class="edge"><title>Node3&#45;&gt;Node4</title>
<path fill="none" stroke="midnightblue" d="M254.446,-171.595C268.687,-187.288 298.969,-218.632 330,-238 332.953,-239.843 336.114,-241.567 339.352,-243.165"/>
<polygon fill="midnightblue" stroke="midnightblue" points="338.013,-246.4 348.567,-247.33 340.896,-240.022 338.013,-246.4"/>
</g>
<!-- Node6 -->
<g id="node6" class="node"><title>Node6</title>
<g id="a_node6"><a xlink:href="subs1_8F90.html#a339739b88994e5bb12bd923147f94983" target="_top" xlink:title="flush_io">
<polygon fill="white" stroke="black" points="352,-209.5 352,-228.5 405,-228.5 405,-209.5 352,-209.5"/>
<text text-anchor="middle" x="378.5" y="-216.5" font-family="Helvetica,sans-Serif" font-size="10.00">flush_io</text>
</a>
</g>
</g>
<!-- Node3&#45;&gt;Node6 -->
<g id="edge5" class="edge"><title>Node3&#45;&gt;Node6</title>
<path fill="none" stroke="midnightblue" d="M263.276,-170.086C280.189,-177.937 306.733,-190.09 330,-200 334.252,-201.811 338.737,-203.671 343.186,-205.484"/>
<polygon fill="midnightblue" stroke="midnightblue" points="342.178,-208.852 352.761,-209.345 344.796,-202.36 342.178,-208.852"/>
</g>
<!-- Node7 -->
<g id="node7" class="node"><title>Node7</title>
<g id="a_node7"><a xlink:href="singlmesh_8F90.html#aef78ff219741b83c1ca784b869e9cacf" target="_top" xlink:title="Dummy for singlmesh. ">
<polygon fill="white" stroke="black" points="338.5,-171.5 338.5,-190.5 418.5,-190.5 418.5,-171.5 338.5,-171.5"/>
<text text-anchor="middle" x="378.5" y="-178.5" font-family="Helvetica,sans-Serif" font-size="10.00">happy_check</text>
</a>
</g>
</g>
<!-- Node3&#45;&gt;Node7 -->
<g id="edge6" class="edge"><title>Node3&#45;&gt;Node7</title>
<path fill="none" stroke="midnightblue" d="M263.191,-164.484C279.747,-166.876 305.584,-170.609 328.508,-173.921"/>
<polygon fill="midnightblue" stroke="midnightblue" points="328.057,-177.392 338.454,-175.358 329.058,-170.464 328.057,-177.392"/>
</g>
<!-- Node8 -->
<g id="node8" class="node"><title>Node8</title>
<g id="a_node8"><a xlink:href="mpi__dummy_8F90.html#a55e9a1619aadb638b14211ce21d7d566" target="_top" xlink:title="mpi_finalize">
<polygon fill="white" stroke="black" points="342.5,-133.5 342.5,-152.5 414.5,-152.5 414.5,-133.5 342.5,-133.5"/>
<text text-anchor="middle" x="378.5" y="-140.5" font-family="Helvetica,sans-Serif" font-size="10.00">mpi_finalize</text>
</a>
</g>
</g>
<!-- Node3&#45;&gt;Node8 -->
<g id="edge7" class="edge"><title>Node3&#45;&gt;Node8</title>
<path fill="none" stroke="midnightblue" d="M263.191,-159.516C280.674,-156.99 308.506,-152.969 332.33,-149.527"/>
<polygon fill="midnightblue" stroke="midnightblue" points="332.856,-152.987 342.252,-148.093 331.855,-146.059 332.856,-152.987"/>
</g>
<!-- Node9 -->
<g id="node9" class="node"><title>Node9</title>
<g id="a_node9"><a xlink:href="papi_8F90.html#a3a75ccdfbe05912fda48c3b134d114c0" target="_top" xlink:title="nek_flops">
<polygon fill="white" stroke="black" points="347.5,-95.5 347.5,-114.5 409.5,-114.5 409.5,-95.5 347.5,-95.5"/>
<text text-anchor="middle" x="378.5" y="-102.5" font-family="Helvetica,sans-Serif" font-size="10.00">nek_flops</text>
</a>
</g>
</g>
<!-- Node3&#45;&gt;Node9 -->
<g id="edge8" class="edge"><title>Node3&#45;&gt;Node9</title>
<path fill="none" stroke="midnightblue" d="M263.072,-155.76C272.327,-152.249 283.904,-147.646 294,-143 310.435,-135.437 313.578,-131.592 330,-124 334.101,-122.104 338.449,-120.211 342.782,-118.395"/>
<polygon fill="midnightblue" stroke="midnightblue" points="344.211,-121.592 352.146,-114.57 341.565,-115.111 344.211,-121.592"/>
</g>
<!-- Node11 -->
<g id="node11" class="node"><title>Node11</title>
<g id="a_node11"><a xlink:href="comm__mpi_8F90.html#a4acb4d8e379294232e9219bec063d8f3" target="_top" xlink:title="nekgsync">
<polygon fill="white" stroke="black" points="347.5,-57.5 347.5,-76.5 409.5,-76.5 409.5,-57.5 347.5,-57.5"/>
<text text-anchor="middle" x="378.5" y="-64.5" font-family="Helvetica,sans-Serif" font-size="10.00">nekgsync</text>
</a>
</g>
</g>
<!-- Node3&#45;&gt;Node11 -->
<g id="edge10" class="edge"><title>Node3&#45;&gt;Node11</title>
<path fill="none" stroke="midnightblue" d="M263.376,-157.991C273.168,-155.072 285.168,-150.322 294,-143 317.067,-123.877 306.968,-105.165 330,-86 332.526,-83.8981 335.314,-82.0068 338.236,-80.3093"/>
<polygon fill="midnightblue" stroke="midnightblue" points="339.901,-83.39 347.273,-75.7808 336.765,-77.1317 339.901,-83.39"/>
</g>
<!-- Node5 -->
<g id="node5" class="node"><title>Node5</title>
<g id="a_node5"><a xlink:href="mpi__dummy_8F90.html#ae6a5ef945f87c2c27849696b70f3af2a" target="_top" xlink:title="mpi_wtime">
<polygon fill="white" stroke="black" points="470,-247.5 470,-266.5 536,-266.5 536,-247.5 470,-247.5"/>
<text text-anchor="middle" x="503" y="-254.5" font-family="Helvetica,sans-Serif" font-size="10.00">mpi_wtime</text>
</a>
</g>
</g>
<!-- Node4&#45;&gt;Node5 -->
<g id="edge4" class="edge"><title>Node4&#45;&gt;Node5</title>
<path fill="none" stroke="midnightblue" d="M427.212,-257C437.894,-257 449.154,-257 459.603,-257"/>
<polygon fill="midnightblue" stroke="midnightblue" points="459.73,-260.5 469.729,-257 459.729,-253.5 459.73,-260.5"/>
</g>
<!-- Node10 -->
<g id="node10" class="node"><title>Node10</title>
<g id="a_node10"><a xlink:href="papi_8F90.html#a838be3d39e287e29002d5a68c6ad2dd8" target="_top" xlink:title="getflops_papi">
<polygon fill="white" stroke="black" points="463,-95.5 463,-114.5 543,-114.5 543,-95.5 463,-95.5"/>
<text text-anchor="middle" x="503" y="-102.5" font-family="Helvetica,sans-Serif" font-size="10.00">getflops_papi</text>
</a>
</g>
</g>
<!-- Node9&#45;&gt;Node10 -->
<g id="edge9" class="edge"><title>Node9&#45;&gt;Node10</title>
<path fill="none" stroke="midnightblue" d="M409.781,-105C422.666,-105 438.032,-105 452.491,-105"/>
<polygon fill="midnightblue" stroke="midnightblue" points="452.811,-108.5 462.811,-105 452.811,-101.5 452.811,-108.5"/>
</g>
<!-- Node12 -->
<g id="node12" class="node"><title>Node12</title>
<g id="a_node12"><a xlink:href="mpi__dummy_8F90.html#a070afe564196eb48413dbf1a9fbc99aa" target="_top" xlink:title="mpi_barrier">
<polygon fill="white" stroke="black" points="468,-57.5 468,-76.5 538,-76.5 538,-57.5 468,-57.5"/>
<text text-anchor="middle" x="503" y="-64.5" font-family="Helvetica,sans-Serif" font-size="10.00">mpi_barrier</text>
</a>
</g>
</g>
<!-- Node11&#45;&gt;Node12 -->
<g id="edge11" class="edge"><title>Node11&#45;&gt;Node12</title>
<path fill="none" stroke="midnightblue" d="M409.781,-67C424.195,-67 441.714,-67 457.594,-67"/>
<polygon fill="midnightblue" stroke="midnightblue" points="457.745,-70.5001 467.745,-67 457.745,-63.5001 457.745,-70.5001"/>
</g>
<!-- Node15 -->
<g id="node15" class="node"><title>Node15</title>
<g id="a_node15"><a xlink:href="mpi__dummy_8F90.html#af98c20c7332635506f852083f7ee504a" target="_top" xlink:title="mpi_send">
<polygon fill="white" stroke="black" points="214,-76.5 214,-95.5 276,-95.5 276,-76.5 214,-76.5"/>
<text text-anchor="middle" x="245" y="-83.5" font-family="Helvetica,sans-Serif" font-size="10.00">mpi_send</text>
</a>
</g>
</g>
<!-- Node14&#45;&gt;Node15 -->
<g id="edge14" class="edge"><title>Node14&#45;&gt;Node15</title>
<path fill="none" stroke="midnightblue" d="M142.707,-86C159.503,-86 183.24,-86 203.514,-86"/>
<polygon fill="midnightblue" stroke="midnightblue" points="203.745,-89.5001 213.745,-86 203.745,-82.5001 203.745,-89.5001"/>
</g>
<!-- Node17 -->
<g id="node17" class="node"><title>Node17</title>
<g id="a_node17"><a xlink:href="classmesh.html#a383626b86a123c489b00681fcb13d503" target="_top" xlink:title="mesh::ieg_to_xyz">
<polygon fill="white" stroke="black" points="196,-19.5 196,-38.5 294,-38.5 294,-19.5 196,-19.5"/>
<text text-anchor="middle" x="245" y="-26.5" font-family="Helvetica,sans-Serif" font-size="10.00">mesh::ieg_to_xyz</text>
</a>
</g>
</g>
<!-- Node16&#45;&gt;Node17 -->
<g id="edge16" class="edge"><title>Node16&#45;&gt;Node17</title>
<path fill="none" stroke="midnightblue" d="M157.239,-42.4021C166.18,-41.021 175.983,-39.5067 185.68,-38.0087"/>
<polygon fill="midnightblue" stroke="midnightblue" points="186.359,-41.4455 195.707,-36.4599 185.29,-34.5276 186.359,-41.4455"/>
</g>
<!-- Node18&#45;&gt;Node17 -->
<g id="edge18" class="edge"><title>Node18&#45;&gt;Node17</title>
<path fill="none" stroke="midnightblue" d="M160.256,-16.064C168.341,-17.3129 177.019,-18.6534 185.616,-19.9813"/>
<polygon fill="midnightblue" stroke="midnightblue" points="185.213,-23.4605 195.63,-21.5282 186.281,-16.5425 185.213,-23.4605"/>
</g>
</g>
</svg>
