<?xml version="1.0" encoding="UTF-8" standalone="no"?>
<!DOCTYPE svg PUBLIC "-//W3C//DTD SVG 1.1//EN"
 "http://www.w3.org/Graphics/SVG/1.1/DTD/svg11.dtd">
<!-- Generated by graphviz version 2.38.0 (20140413.2041)
 -->
<!-- Title: restart_nfld Pages: 1 -->
<!--zoomable 217 -->
<svg id="main" version="1.1" xmlns="http://www.w3.org/2000/svg" xmlns:xlink="http://www.w3.org/1999/xlink" xml:space="preserve" onload="init(evt)">
<style type="text/css"><![CDATA[
.edge:hover path { stroke: red; }
.edge:hover polygon { stroke: red; fill: red; }
]]></style>
<script type="text/javascript"><![CDATA[
var edges = document.getElementsByTagName('g');
if (edges && edges.length) {
  for (var i=0;i<edges.length;i++) {
    if (edges[i].id.substr(0,4)=='edge') {
      edges[i].setAttribute('class','edge');
    }
  }
}
]]></script>
        <defs>
                <circle id="rim" cx="0" cy="0" r="7"/>
                <circle id="rim2" cx="0" cy="0" r="3.5"/>
                <g id="zoomPlus">
                        <use xlink:href="#rim" fill="#404040">
                                <set attributeName="fill" to="#808080" begin="zoomplus.mouseover" end="zoomplus.mouseout"/>
                        </use>
                        <path d="M-4,0h8M0,-4v8" fill="none" stroke="white" stroke-width="1.5" pointer-events="none"/>
                </g>
                <g id="zoomMin">
                        <use xlink:href="#rim" fill="#404040">
                                <set attributeName="fill" to="#808080" begin="zoomminus.mouseover" end="zoomminus.mouseout"/>
                        </use>
                        <path d="M-4,0h8" fill="none" stroke="white" stroke-width="1.5" pointer-events="none"/>
                </g>
                <g id="dirArrow">
                        <path fill="none" stroke="white" stroke-width="1.5" d="M0,-3.0v7 M-2.5,-0.5L0,-3.0L2.5,-0.5"/>
                </g>
               <g id="resetDef">
                       <use xlink:href="#rim2" fill="#404040">
                               <set attributeName="fill" to="#808080" begin="reset.mouseover" end="reset.mouseout"/>
                       </use>
               </g>
        </defs>

<script type="text/javascript">
var viewWidth = 1428;
var viewHeight = 217;
var sectionId = 'dynsection-33';
</script>
<script xlink:href="svgpan.js"/>
<svg id="graph" class="graph">
<g id="viewport">
<title>restart_nfld</title>
<polygon fill="white" stroke="none" points="-4,4 -4,-213 1424,-213 1424,4 -4,4"/>
<!-- Node1 -->
<g id="node1" class="node"><title>Node1</title>
<polygon fill="#bfbfbf" stroke="black" points="0,-175.5 0,-194.5 71,-194.5 71,-175.5 0,-175.5"/>
<text text-anchor="middle" x="35.5" y="-182.5" font-family="Helvetica,sans-Serif" font-size="10.00">restart_nfld</text>
</g>
<!-- Node2 -->
<g id="node2" class="node"><title>Node2</title>
<g id="a_node2"><a xlink:href="prepost_8F90.html#a3faa39946b56ca71cbb123811e58160d" target="_top" xlink:title="mfo_open_files">
<polygon fill="white" stroke="black" points="107,-175.5 107,-194.5 196,-194.5 196,-175.5 107,-175.5"/>
<text text-anchor="middle" x="151.5" y="-182.5" font-family="Helvetica,sans-Serif" font-size="10.00">mfo_open_files</text>
</a>
</g>
</g>
<!-- Node1&#45;&gt;Node2 -->
<g id="edge1" class="edge"><title>Node1&#45;&gt;Node2</title>
<path fill="none" stroke="midnightblue" d="M81.0847,-185C89.5411,-185 98.3808,-185 106.809,-185"/>
<polygon fill="midnightblue" stroke="midnightblue" points="81.0132,-181.5 71.0131,-185 81.0131,-188.5 81.0132,-181.5"/>
</g>
<!-- Node3 -->
<g id="node3" class="node"><title>Node3</title>
<g id="a_node3"><a xlink:href="prepost_8F90.html#a9872fbccba1ed7b2932227287629cf2b" target="_top" xlink:title="mult&#45;file output ">
<polygon fill="white" stroke="black" points="232,-175.5 232,-194.5 297,-194.5 297,-175.5 232,-175.5"/>
<text text-anchor="middle" x="264.5" y="-182.5" font-family="Helvetica,sans-Serif" font-size="10.00">mfo_outfld</text>
</a>
</g>
</g>
<!-- Node2&#45;&gt;Node3 -->
<g id="edge2" class="edge"><title>Node2&#45;&gt;Node3</title>
<path fill="none" stroke="midnightblue" d="M206.227,-185C214.962,-185 223.755,-185 231.741,-185"/>
<polygon fill="midnightblue" stroke="midnightblue" points="206.052,-181.5 196.052,-185 206.052,-188.5 206.052,-181.5"/>
</g>
<!-- Node4 -->
<g id="node4" class="node"><title>Node4</title>
<g id="a_node4"><a xlink:href="prepost_8F90.html#a78b0361cf9ff06bfe5020c2114ddc924" target="_top" xlink:title="output .fld file ">
<polygon fill="white" stroke="black" points="333,-175.5 333,-194.5 375,-194.5 375,-175.5 333,-175.5"/>
<text text-anchor="middle" x="354" y="-182.5" font-family="Helvetica,sans-Serif" font-size="10.00">outfld</text>
</a>
</g>
</g>
<!-- Node3&#45;&gt;Node4 -->
<g id="edge3" class="edge"><title>Node3&#45;&gt;Node4</title>
<path fill="none" stroke="midnightblue" d="M307.101,-185C316.086,-185 325.192,-185 332.898,-185"/>
<polygon fill="midnightblue" stroke="midnightblue" points="307.09,-181.5 297.09,-185 307.089,-188.5 307.09,-181.5"/>
</g>
<!-- Node5 -->
<g id="node5" class="node"><title>Node5</title>
<g id="a_node5"><a xlink:href="prepost_8F90.html#a4a3b0e4ce35b3381281c0839e5846370" target="_top" xlink:title="Store results for later postprocessing. Recent updates: p65 now indicates the number of parallel i/o ...">
<polygon fill="white" stroke="black" points="411,-175.5 411,-194.5 464,-194.5 464,-175.5 411,-175.5"/>
<text text-anchor="middle" x="437.5" y="-182.5" font-family="Helvetica,sans-Serif" font-size="10.00">prepost</text>
</a>
</g>
</g>
<!-- Node4&#45;&gt;Node5 -->
<g id="edge4" class="edge"><title>Node4&#45;&gt;Node5</title>
<path fill="none" stroke="midnightblue" d="M385.288,-185C393.653,-185 402.648,-185 410.73,-185"/>
<polygon fill="midnightblue" stroke="midnightblue" points="385.146,-181.5 375.146,-185 385.146,-188.5 385.146,-181.5"/>
</g>
<!-- Node6 -->
<g id="node6" class="node"><title>Node6</title>
<g id="a_node6"><a xlink:href="drive1_8F90.html#a6ad57e0cf728f343e371ef8c9a02cd8a" target="_top" xlink:title="integrate the governing equations in time ">
<polygon fill="white" stroke="black" points="1270,-161.5 1270,-180.5 1335,-180.5 1335,-161.5 1270,-161.5"/>
<text text-anchor="middle" x="1302.5" y="-168.5" font-family="Helvetica,sans-Serif" font-size="10.00">nek_solve</text>
</a>
</g>
</g>
<!-- Node5&#45;&gt;Node6 -->
<g id="edge5" class="edge"><title>Node5&#45;&gt;Node6</title>
<path fill="none" stroke="midnightblue" d="M474.153,-192.629C510.145,-199.656 567.417,-209 617.5,-209 617.5,-209 617.5,-209 1028,-209 1119.94,-209 1143.59,-206.748 1234,-190 1246.69,-187.649 1260.44,-183.988 1272.2,-180.504"/>
<polygon fill="midnightblue" stroke="midnightblue" points="474.636,-189.156 464.144,-190.627 473.263,-196.02 474.636,-189.156"/>
</g>
<!-- Node8 -->
<g id="node8" class="node"><title>Node8</title>
<g id="a_node8"><a xlink:href="prepost_8F90.html#aaf4c0f2e1790302116a4c719c2eb50ff" target="_top" xlink:title="outpost2">
<polygon fill="white" stroke="black" points="500,-152.5 500,-171.5 557,-171.5 557,-152.5 500,-152.5"/>
<text text-anchor="middle" x="528.5" y="-159.5" font-family="Helvetica,sans-Serif" font-size="10.00">outpost2</text>
</a>
</g>
</g>
<!-- Node5&#45;&gt;Node8 -->
<g id="edge7" class="edge"><title>Node5&#45;&gt;Node8</title>
<path fill="none" stroke="midnightblue" d="M474.063,-175.809C482.682,-173.582 491.766,-171.235 499.951,-169.119"/>
<polygon fill="midnightblue" stroke="midnightblue" points="473.049,-172.457 464.242,-178.347 474.8,-179.234 473.049,-172.457"/>
</g>
<!-- Node7 -->
<g id="node7" class="node"><title>Node7</title>
<g id="a_node7"><a xlink:href="drive_8F90.html#a13048bf28dd0734640412d69349e3857" target="_top" xlink:title="NEK5000: Spectral Element Computational Fluid Dynamics Solver COPYRIGHT (c) 2008&#45;2010 UCHICAGO ARGONN...">
<polygon fill="white" stroke="black" points="1371,-123.5 1371,-142.5 1420,-142.5 1420,-123.5 1371,-123.5"/>
<text text-anchor="middle" x="1395.5" y="-130.5" font-family="Helvetica,sans-Serif" font-size="10.00">nekton</text>
</a>
</g>
</g>
<!-- Node6&#45;&gt;Node7 -->
<g id="edge6" class="edge"><title>Node6&#45;&gt;Node7</title>
<path fill="none" stroke="midnightblue" d="M1335.97,-157.441C1347.73,-152.529 1360.77,-147.086 1371.54,-142.586"/>
<polygon fill="midnightblue" stroke="midnightblue" points="1334.34,-154.328 1326.46,-161.411 1337.04,-160.787 1334.34,-154.328"/>
</g>
<!-- Node9 -->
<g id="node9" class="node"><title>Node9</title>
<g id="a_node9"><a xlink:href="prepost_8F90.html#aacb528c0b28bc79dff8db48d7ae9ac64" target="_top" xlink:title="outpost">
<polygon fill="white" stroke="black" points="593,-133.5 593,-152.5 644,-152.5 644,-133.5 593,-133.5"/>
<text text-anchor="middle" x="618.5" y="-140.5" font-family="Helvetica,sans-Serif" font-size="10.00">outpost</text>
</a>
</g>
</g>
<!-- Node8&#45;&gt;Node9 -->
<g id="edge8" class="edge"><title>Node8&#45;&gt;Node9</title>
<path fill="none" stroke="midnightblue" d="M567.261,-153.847C575.907,-151.98 584.881,-150.043 592.812,-148.33"/>
<polygon fill="midnightblue" stroke="midnightblue" points="566.38,-150.457 557.344,-155.988 567.857,-157.299 566.38,-150.457"/>
</g>
<!-- Node10 -->
<g id="node10" class="node"><title>Node10</title>
<g id="a_node10"><a xlink:href="coef_8F90.html#ad01cc61ba84d488e68ca9e259c592465" target="_top" xlink:title="Routine to generate mapping data based on mesh 1 (Gauss&#45;Legendre Lobatto meshes). ...">
<polygon fill="white" stroke="black" points="680,-128.5 680,-147.5 739,-147.5 739,-128.5 680,-128.5"/>
<text text-anchor="middle" x="709.5" y="-135.5" font-family="Helvetica,sans-Serif" font-size="10.00">glmapm1</text>
</a>
</g>
</g>
<!-- Node9&#45;&gt;Node10 -->
<g id="edge9" class="edge"><title>Node9&#45;&gt;Node10</title>
<path fill="none" stroke="midnightblue" d="M654.533,-141.032C662.89,-140.562 671.715,-140.067 679.752,-139.615"/>
<polygon fill="midnightblue" stroke="midnightblue" points="654.079,-137.552 644.291,-141.607 654.472,-144.541 654.079,-137.552"/>
</g>
<!-- Node11 -->
<g id="node11" class="node"><title>Node11</title>
<g id="a_node11"><a xlink:href="coef_8F90.html#ac5d2ac0efba4a530fab5387321307d01" target="_top" xlink:title="Routine to generate all elemental geometric data for mesh 1. Velocity formulation : global&#45;to&#45;local m...">
<polygon fill="white" stroke="black" points="775,-125.5 775,-144.5 824,-144.5 824,-125.5 775,-125.5"/>
<text text-anchor="middle" x="799.5" y="-132.5" font-family="Helvetica,sans-Serif" font-size="10.00">geom1</text>
</a>
</g>
</g>
<!-- Node10&#45;&gt;Node11 -->
<g id="edge10" class="edge"><title>Node10&#45;&gt;Node11</title>
<path fill="none" stroke="midnightblue" d="M749.335,-136.676C758.049,-136.379 767.037,-136.073 774.907,-135.804"/>
<polygon fill="midnightblue" stroke="midnightblue" points="749.189,-133.179 739.314,-137.018 749.428,-140.175 749.189,-133.179"/>
</g>
<!-- Node12 -->
<g id="node12" class="node"><title>Node12</title>
<g id="a_node12"><a xlink:href="drive2_8F90.html#aefc07385d7e7539fb57662470f694136" target="_top" xlink:title="Generate geometry data. ">
<polygon fill="white" stroke="black" points="866,-125.5 866,-144.5 927,-144.5 927,-125.5 866,-125.5"/>
<text text-anchor="middle" x="896.5" y="-132.5" font-family="Helvetica,sans-Serif" font-size="10.00">gengeom</text>
</a>
</g>
</g>
<!-- Node11&#45;&gt;Node12 -->
<g id="edge11" class="edge"><title>Node11&#45;&gt;Node12</title>
<path fill="none" stroke="midnightblue" d="M834.661,-135C844.83,-135 855.887,-135 865.751,-135"/>
<polygon fill="midnightblue" stroke="midnightblue" points="834.473,-131.5 824.473,-135 834.472,-138.5 834.473,-131.5"/>
</g>
<!-- Node16 -->
<g id="node16" class="node"><title>Node16</title>
<g id="a_node16"><a xlink:href="ic_8F90.html#aaf47b255d1cfac3451a8473ee6876b4f" target="_top" xlink:title="Generate geometry data. ">
<polygon fill="white" stroke="black" points="860,-63.5 860,-82.5 933,-82.5 933,-63.5 860,-63.5"/>
<text text-anchor="middle" x="896.5" y="-70.5" font-family="Helvetica,sans-Serif" font-size="10.00">geom_reset</text>
</a>
</g>
</g>
<!-- Node11&#45;&gt;Node16 -->
<g id="edge17" class="edge"><title>Node11&#45;&gt;Node16</title>
<path fill="none" stroke="midnightblue" d="M824.001,-119.662C841.765,-108.069 865.602,-92.5123 880.76,-82.6195"/>
<polygon fill="midnightblue" stroke="midnightblue" points="821.805,-116.916 815.344,-125.312 825.631,-122.778 821.805,-116.916"/>
</g>
<!-- Node13 -->
<g id="node13" class="node"><title>Node13</title>
<g id="a_node13"><a xlink:href="drive1_8F90.html#ae177ea7efac97f35241521b782a671c0" target="_top" xlink:title="take a single time&#45;step ">
<polygon fill="white" stroke="black" points="987,-161.5 987,-180.5 1067,-180.5 1067,-161.5 987,-161.5"/>
<text text-anchor="middle" x="1027" y="-168.5" font-family="Helvetica,sans-Serif" font-size="10.00">nek_advance</text>
</a>
</g>
</g>
<!-- Node12&#45;&gt;Node13 -->
<g id="edge12" class="edge"><title>Node12&#45;&gt;Node13</title>
<path fill="none" stroke="midnightblue" d="M937.217,-146.127C954.696,-151.024 975.026,-156.719 991.817,-161.424"/>
<polygon fill="midnightblue" stroke="midnightblue" points="937.877,-142.677 927.303,-143.35 935.989,-149.418 937.877,-142.677"/>
</g>
<!-- Node15 -->
<g id="node15" class="node"><title>Node15</title>
<g id="a_node15"><a xlink:href="drive1_8F90.html#a87bd37ae2c18426f28f35cc3f24e4355" target="_top" xlink:title="initialize nek ">
<polygon fill="white" stroke="black" points="1276,-85.5 1276,-104.5 1329,-104.5 1329,-85.5 1276,-85.5"/>
<text text-anchor="middle" x="1302.5" y="-92.5" font-family="Helvetica,sans-Serif" font-size="10.00">nek_init</text>
</a>
</g>
</g>
<!-- Node12&#45;&gt;Node15 -->
<g id="edge15" class="edge"><title>Node12&#45;&gt;Node15</title>
<path fill="none" stroke="midnightblue" d="M937.528,-131.496C1000.61,-125.905 1126.99,-114.428 1234,-103 1247.85,-101.521 1263.27,-99.7061 1275.87,-98.1787"/>
<polygon fill="midnightblue" stroke="midnightblue" points="936.885,-128.039 927.232,-132.406 937.501,-135.011 936.885,-128.039"/>
</g>
<!-- Node14 -->
<g id="node14" class="node"><title>Node14</title>
<g id="a_node14"><a xlink:href="drive1_8F90.html#a18d3e839786263fc4cf91f7eeb714371" target="_top" xlink:title="take a chunk of time&#45;steps ">
<polygon fill="white" stroke="black" points="1121,-161.5 1121,-180.5 1234,-180.5 1234,-161.5 1121,-161.5"/>
<text text-anchor="middle" x="1177.5" y="-168.5" font-family="Helvetica,sans-Serif" font-size="10.00">nek__multi_advance</text>
</a>
</g>
</g>
<!-- Node13&#45;&gt;Node14 -->
<g id="edge13" class="edge"><title>Node13&#45;&gt;Node14</title>
<path fill="none" stroke="midnightblue" d="M1077.41,-171C1091.38,-171 1106.68,-171 1120.99,-171"/>
<polygon fill="midnightblue" stroke="midnightblue" points="1077.02,-167.5 1067.02,-171 1077.02,-174.5 1077.02,-167.5"/>
</g>
<!-- Node14&#45;&gt;Node6 -->
<g id="edge14" class="edge"><title>Node14&#45;&gt;Node6</title>
<path fill="none" stroke="midnightblue" d="M1244.28,-171C1253.16,-171 1261.93,-171 1269.82,-171"/>
<polygon fill="midnightblue" stroke="midnightblue" points="1244.24,-167.5 1234.24,-171 1244.24,-174.5 1244.24,-167.5"/>
</g>
<!-- Node15&#45;&gt;Node7 -->
<g id="edge16" class="edge"><title>Node15&#45;&gt;Node7</title>
<path fill="none" stroke="midnightblue" d="M1335.97,-108.559C1347.73,-113.471 1360.77,-118.914 1371.54,-123.414"/>
<polygon fill="midnightblue" stroke="midnightblue" points="1337.04,-105.213 1326.46,-104.589 1334.34,-111.672 1337.04,-105.213"/>
</g>
<!-- Node16&#45;&gt;Node15 -->
<g id="edge21" class="edge"><title>Node16&#45;&gt;Node15</title>
<path fill="none" stroke="midnightblue" d="M943.528,-75.5065C1028.93,-80.1571 1209.3,-89.9789 1276,-93.6113"/>
<polygon fill="midnightblue" stroke="midnightblue" points="943.528,-72.0014 933.352,-74.9524 943.147,-78.991 943.528,-72.0014"/>
</g>
<!-- Node17 -->
<g id="node17" class="node"><title>Node17</title>
<g id="a_node17"><a xlink:href="classhsmg__routines.html#a91e8aa59d56bbf05d75aa9c48bcd8977" target="_top" xlink:title="Sets up Poisson preconditioner. ">
<polygon fill="white" stroke="black" points="969,-36 969,-66 1085,-66 1085,-36 969,-36"/>
<text text-anchor="start" x="977" y="-54" font-family="Helvetica,sans-Serif" font-size="10.00">hsmg_routines::h1mg</text>
<text text-anchor="middle" x="1027" y="-43" font-family="Helvetica,sans-Serif" font-size="10.00">_setup</text>
</a>
</g>
</g>
<!-- Node16&#45;&gt;Node17 -->
<g id="edge18" class="edge"><title>Node16&#45;&gt;Node17</title>
<path fill="none" stroke="midnightblue" d="M943.406,-65.1406C951.608,-63.7363 960.246,-62.2575 968.72,-60.8067"/>
<polygon fill="midnightblue" stroke="midnightblue" points="942.56,-61.7344 933.294,-66.8718 943.742,-68.634 942.56,-61.7344"/>
</g>
<!-- Node19 -->
<g id="node19" class="node"><title>Node19</title>
<g id="a_node19"><a xlink:href="ic_8F90.html#acaefa33e86633e4a7a4b28347d4620d1" target="_top" xlink:title="Set initial conditions. ">
<polygon fill="white" stroke="black" points="1155.5,-0.5 1155.5,-19.5 1199.5,-19.5 1199.5,-0.5 1155.5,-0.5"/>
<text text-anchor="middle" x="1177.5" y="-7.5" font-family="Helvetica,sans-Serif" font-size="10.00">setics</text>
</a>
</g>
</g>
<!-- Node16&#45;&gt;Node19 -->
<g id="edge22" class="edge"><title>Node16&#45;&gt;Node19</title>
<path fill="none" stroke="midnightblue" d="M916.276,-56.8103C929.934,-46.0453 949.397,-32.6978 969,-26 1034.13,-3.74574 1117.23,-5.75215 1155.49,-8.23573"/>
<polygon fill="midnightblue" stroke="midnightblue" points="913.722,-54.3768 908.195,-63.4157 918.153,-59.7965 913.722,-54.3768"/>
</g>
<!-- Node18 -->
<g id="node18" class="node"><title>Node18</title>
<g id="a_node18"><a xlink:href="navier6_8F90.html#a45317b1def173b8f1db2e5083595d095" target="_top" xlink:title="Set up arrays for overlapping Schwartz algorithm for pressure solver ">
<polygon fill="white" stroke="black" points="1141.5,-44.5 1141.5,-63.5 1213.5,-63.5 1213.5,-44.5 1141.5,-44.5"/>
<text text-anchor="middle" x="1177.5" y="-51.5" font-family="Helvetica,sans-Serif" font-size="10.00">set_overlap</text>
</a>
</g>
</g>
<!-- Node17&#45;&gt;Node18 -->
<g id="edge19" class="edge"><title>Node17&#45;&gt;Node18</title>
<path fill="none" stroke="midnightblue" d="M1095.65,-52.3667C1111.36,-52.684 1127.47,-53.0094 1141.13,-53.2854"/>
<polygon fill="midnightblue" stroke="midnightblue" points="1095.48,-48.8627 1085.41,-52.1599 1095.34,-55.8612 1095.48,-48.8627"/>
</g>
<!-- Node18&#45;&gt;Node15 -->
<g id="edge20" class="edge"><title>Node18&#45;&gt;Node15</title>
<path fill="none" stroke="midnightblue" d="M1216.68,-66.7254C1235.84,-73.1124 1258.54,-80.6813 1275.64,-86.3801"/>
<polygon fill="midnightblue" stroke="midnightblue" points="1217.62,-63.3512 1207.03,-63.5093 1215.41,-69.992 1217.62,-63.3512"/>
</g>
<!-- Node19&#45;&gt;Node15 -->
<g id="edge23" class="edge"><title>Node19&#45;&gt;Node15</title>
<path fill="none" stroke="midnightblue" d="M1208.78,-21.6461C1217.22,-25.4174 1226.2,-29.9479 1234,-35 1257.16,-50.0058 1280.38,-72.738 1292.63,-85.4802"/>
<polygon fill="midnightblue" stroke="midnightblue" points="1210.14,-18.4242 1199.57,-17.7234 1207.4,-24.8638 1210.14,-18.4242"/>
</g>
</g>
</svg>
        <g id="navigator" transform="translate(0 0)" fill="#404254">
                <rect fill="#f2f5e9" fill-opacity="0.5" stroke="#606060" stroke-width=".5" x="0" y="0" width="60" height="60"/>
                <use id="zoomplus" xlink:href="#zoomPlus" x="17" y="9" onmousedown="handleZoom(evt,'in')"/>
                <use id="zoomminus" xlink:href="#zoomMin" x="42" y="9" onmousedown="handleZoom(evt,'out')"/>
                <use id="reset" xlink:href="#resetDef" x="30" y="36" onmousedown="handleReset()"/>
                <g id="arrowUp" xlink:href="#dirArrow" transform="translate(30 24)" onmousedown="handlePan(0,-1)">
                  <use xlink:href="#rim" fill="#404040">
                        <set attributeName="fill" to="#808080" begin="arrowUp.mouseover" end="arrowUp.mouseout"/>
                  </use>
                  <path fill="none" stroke="white" stroke-width="1.5" d="M0,-3.0v7 M-2.5,-0.5L0,-3.0L2.5,-0.5"/>
                </g>
                <g id="arrowRight" xlink:href="#dirArrow" transform="rotate(90) translate(36 -43)" onmousedown="handlePan(1,0)">
                  <use xlink:href="#rim" fill="#404040">
                        <set attributeName="fill" to="#808080" begin="arrowRight.mouseover" end="arrowRight.mouseout"/>
                  </use>
                  <path fill="none" stroke="white" stroke-width="1.5" d="M0,-3.0v7 M-2.5,-0.5L0,-3.0L2.5,-0.5"/>
                </g>
                <g id="arrowDown" xlink:href="#dirArrow" transform="rotate(180) translate(-30 -48)" onmousedown="handlePan(0,1)">
                  <use xlink:href="#rim" fill="#404040">
                        <set attributeName="fill" to="#808080" begin="arrowDown.mouseover" end="arrowDown.mouseout"/>
                  </use>
                  <path fill="none" stroke="white" stroke-width="1.5" d="M0,-3.0v7 M-2.5,-0.5L0,-3.0L2.5,-0.5"/>
                </g>
                <g id="arrowLeft" xlink:href="#dirArrow" transform="rotate(270) translate(-36 17)" onmousedown="handlePan(-1,0)">
                  <use xlink:href="#rim" fill="#404040">
                        <set attributeName="fill" to="#808080" begin="arrowLeft.mouseover" end="arrowLeft.mouseout"/>
                  </use>
                  <path fill="none" stroke="white" stroke-width="1.5" d="M0,-3.0v7 M-2.5,-0.5L0,-3.0L2.5,-0.5"/>
                </g>
        </g>
        <svg viewBox="0 0 15 15" width="100%" height="30px" preserveAspectRatio="xMaxYMin meet">
         <g id="arrow_out" transform="scale(0.3 0.3)">
          <a xlink:href="prepost_8F90_ad78dc09010650e7f58be203013c1a0fb_icgraph_org.svg" target="_base">
           <rect id="button" ry="5" rx="5" y="6" x="6" height="38" width="38"
                fill="#f2f5e9" fill-opacity="0.5" stroke="#606060" stroke-width="1.0"/>
           <path id="arrow"
             d="M 11.500037,31.436501 C 11.940474,20.09759 22.043105,11.32322 32.158766,21.979434 L 37.068811,17.246167 C 37.068811,17.246167 37.088388,32 37.088388,32 L 22.160133,31.978069 C 22.160133,31.978069 26.997745,27.140456 26.997745,27.140456 C 18.528582,18.264221 13.291696,25.230495 11.500037,31.436501 z"
             style="fill:#404040;"/>
          </a>
         </g>
        </svg>
</svg>
