<?xml version="1.0" encoding="UTF-8" standalone="no"?>
<!DOCTYPE svg PUBLIC "-//W3C//DTD SVG 1.1//EN"
 "http://www.w3.org/Graphics/SVG/1.1/DTD/svg11.dtd">
<!-- Generated by graphviz version 2.38.0 (20140413.2041)
 -->
<!-- Title: jl/sort.h Pages: 1 -->
<!--zoomable 95 -->
<svg id="main" version="1.1" xmlns="http://www.w3.org/2000/svg" xmlns:xlink="http://www.w3.org/1999/xlink" xml:space="preserve" onload="init(evt)">
<style type="text/css"><![CDATA[
.edge:hover path { stroke: red; }
.edge:hover polygon { stroke: red; fill: red; }
]]></style>
<script type="text/javascript"><![CDATA[
var edges = document.getElementsByTagName('g');
if (edges && edges.length) {
  for (var i=0;i<edges.length;i++) {
    if (edges[i].id.substr(0,4)=='edge') {
      edges[i].setAttribute('class','edge');
    }
  }
}
]]></script>
        <defs>
                <circle id="rim" cx="0" cy="0" r="7"/>
                <circle id="rim2" cx="0" cy="0" r="3.5"/>
                <g id="zoomPlus">
                        <use xlink:href="#rim" fill="#404040">
                                <set attributeName="fill" to="#808080" begin="zoomplus.mouseover" end="zoomplus.mouseout"/>
                        </use>
                        <path d="M-4,0h8M0,-4v8" fill="none" stroke="white" stroke-width="1.5" pointer-events="none"/>
                </g>
                <g id="zoomMin">
                        <use xlink:href="#rim" fill="#404040">
                                <set attributeName="fill" to="#808080" begin="zoomminus.mouseover" end="zoomminus.mouseout"/>
                        </use>
                        <path d="M-4,0h8" fill="none" stroke="white" stroke-width="1.5" pointer-events="none"/>
                </g>
                <g id="dirArrow">
                        <path fill="none" stroke="white" stroke-width="1.5" d="M0,-3.0v7 M-2.5,-0.5L0,-3.0L2.5,-0.5"/>
                </g>
               <g id="resetDef">
                       <use xlink:href="#rim2" fill="#404040">
                               <set attributeName="fill" to="#808080" begin="reset.mouseover" end="reset.mouseout"/>
                       </use>
               </g>
        </defs>

<script type="text/javascript">
var viewWidth = 1244;
var viewHeight = 95;
var sectionId = 'dynsection-0';
</script>
<script xlink:href="svgpan.js"/>
<svg id="graph" class="graph">
<g id="viewport">
<title>jl/sort.h</title>
<polygon fill="white" stroke="none" points="-4,4 -4,-91 1240,-91 1240,4 -4,4"/>
<!-- Node1 -->
<g id="node1" class="node"><title>Node1</title>
<polygon fill="#bfbfbf" stroke="black" points="528.5,-67.5 528.5,-86.5 578.5,-86.5 578.5,-67.5 528.5,-67.5"/>
<text text-anchor="middle" x="553.5" y="-74.5" font-family="Helvetica,sans-Serif" font-size="10.00">jl/sort.h</text>
</g>
<!-- Node2 -->
<g id="node2" class="node"><title>Node2</title>
<g id="a_node2"><a xlink:href="fcrystal_8c.html" target="_top" xlink:title="jl/fcrystal.c">
<polygon fill="white" stroke="black" points="0,-6 0,-25 65,-25 65,-6 0,-6"/>
<text text-anchor="middle" x="32.5" y="-13" font-family="Helvetica,sans-Serif" font-size="10.00">jl/fcrystal.c</text>
</a>
</g>
</g>
<!-- Node1&#45;&gt;Node2 -->
<g id="edge1" class="edge"><title>Node1&#45;&gt;Node2</title>
<path fill="none" stroke="midnightblue" d="M518.422,-75.6545C438.513,-74.2311 237.194,-67.039 73.5,-31 66.8638,-29.539 59.8263,-27.3131 53.4898,-25.0407"/>
<polygon fill="midnightblue" stroke="midnightblue" points="518.382,-79.1543 528.436,-75.8135 518.493,-72.1551 518.382,-79.1543"/>
</g>
<!-- Node3 -->
<g id="node3" class="node"><title>Node3</title>
<g id="a_node3"><a xlink:href="findpts_8c.html" target="_top" xlink:title="jl/findpts.c">
<polygon fill="white" stroke="black" points="83,-6 83,-25 146,-25 146,-6 83,-6"/>
<text text-anchor="middle" x="114.5" y="-13" font-family="Helvetica,sans-Serif" font-size="10.00">jl/findpts.c</text>
</a>
</g>
</g>
<!-- Node1&#45;&gt;Node3 -->
<g id="edge2" class="edge"><title>Node1&#45;&gt;Node3</title>
<path fill="none" stroke="midnightblue" d="M518.354,-74.8099C448.273,-71.8314 286.524,-61.9178 154.5,-31 148.171,-29.5179 141.467,-27.3413 135.393,-25.1229"/>
<polygon fill="midnightblue" stroke="midnightblue" points="518.273,-78.3094 528.406,-75.2157 518.555,-71.3151 518.273,-78.3094"/>
</g>
<!-- Node4 -->
<g id="node4" class="node"><title>Node4</title>
<g id="a_node4"><a xlink:href="findpts__local_8c.html" target="_top" xlink:title="jl/findpts_local.c">
<polygon fill="white" stroke="black" points="164,-6 164,-25 255,-25 255,-6 164,-6"/>
<text text-anchor="middle" x="209.5" y="-13" font-family="Helvetica,sans-Serif" font-size="10.00">jl/findpts_local.c</text>
</a>
</g>
</g>
<!-- Node1&#45;&gt;Node4 -->
<g id="edge3" class="edge"><title>Node1&#45;&gt;Node4</title>
<path fill="none" stroke="midnightblue" d="M517.868,-71.7356C462.936,-64.8774 354.399,-50.1974 263.5,-31 255.522,-29.3151 246.966,-27.1747 239.069,-25.0592"/>
<polygon fill="midnightblue" stroke="midnightblue" points="517.765,-75.2494 528.119,-73.002 518.623,-68.3022 517.765,-75.2494"/>
</g>
<!-- Node5 -->
<g id="node5" class="node"><title>Node5</title>
<g id="a_node5"><a xlink:href="gs_8c.html" target="_top" xlink:title="jl/gs.c">
<polygon fill="white" stroke="black" points="273,-6 273,-25 316,-25 316,-6 273,-6"/>
<text text-anchor="middle" x="294.5" y="-13" font-family="Helvetica,sans-Serif" font-size="10.00">jl/gs.c</text>
</a>
</g>
</g>
<!-- Node1&#45;&gt;Node5 -->
<g id="edge4" class="edge"><title>Node1&#45;&gt;Node5</title>
<path fill="none" stroke="midnightblue" d="M518.443,-71.7721C473.095,-65.6969 392.027,-52.765 325.5,-31 320.644,-29.4111 315.552,-27.2534 310.93,-25.0883"/>
<polygon fill="midnightblue" stroke="midnightblue" points="517.997,-75.2435 528.366,-73.0679 518.904,-68.3024 517.997,-75.2435"/>
</g>
<!-- Node6 -->
<g id="node6" class="node"><title>Node6</title>
<g id="a_node6"><a xlink:href="sarray__sort_8c.html" target="_top" xlink:title="jl/sarray_sort.c">
<polygon fill="white" stroke="black" points="334.5,-6 334.5,-25 420.5,-25 420.5,-6 334.5,-6"/>
<text text-anchor="middle" x="377.5" y="-13" font-family="Helvetica,sans-Serif" font-size="10.00">jl/sarray_sort.c</text>
</a>
</g>
</g>
<!-- Node1&#45;&gt;Node6 -->
<g id="edge5" class="edge"><title>Node1&#45;&gt;Node6</title>
<path fill="none" stroke="midnightblue" d="M518.69,-64.232C484.478,-52.666 433.1,-35.2966 402.67,-25.0091"/>
<polygon fill="midnightblue" stroke="midnightblue" points="517.689,-67.5881 528.283,-67.4751 519.931,-60.9568 517.689,-67.5881"/>
</g>
<!-- Node7 -->
<g id="node7" class="node"><title>Node7</title>
<g id="a_node7"><a xlink:href="sarray__transfer_8c.html" target="_top" xlink:title="jl/sarray_transfer.c">
<polygon fill="white" stroke="black" points="438.5,-6 438.5,-25 542.5,-25 542.5,-6 438.5,-6"/>
<text text-anchor="middle" x="490.5" y="-13" font-family="Helvetica,sans-Serif" font-size="10.00">jl/sarray_transfer.c</text>
</a>
</g>
</g>
<!-- Node1&#45;&gt;Node7 -->
<g id="edge6" class="edge"><title>Node1&#45;&gt;Node7</title>
<path fill="none" stroke="midnightblue" d="M536.902,-60.3245C524.933,-49.0202 509.234,-34.1928 499.51,-25.0091"/>
<polygon fill="midnightblue" stroke="midnightblue" points="534.8,-63.1534 544.474,-67.4751 539.607,-58.0643 534.8,-63.1534"/>
</g>
<!-- Node8 -->
<g id="node8" class="node"><title>Node8</title>
<g id="a_node8"><a xlink:href="sparse__cholesky_8c.html" target="_top" xlink:title="jl/sparse_cholesky.c">
<polygon fill="white" stroke="black" points="561,-6 561,-25 672,-25 672,-6 561,-6"/>
<text text-anchor="middle" x="616.5" y="-13" font-family="Helvetica,sans-Serif" font-size="10.00">jl/sparse_cholesky.c</text>
</a>
</g>
</g>
<!-- Node1&#45;&gt;Node8 -->
<g id="edge7" class="edge"><title>Node1&#45;&gt;Node8</title>
<path fill="none" stroke="midnightblue" d="M570.098,-60.3245C582.067,-49.0202 597.766,-34.1928 607.49,-25.0091"/>
<polygon fill="midnightblue" stroke="midnightblue" points="567.393,-58.0643 562.526,-67.4751 572.2,-63.1534 567.393,-58.0643"/>
</g>
<!-- Node9 -->
<g id="node9" class="node"><title>Node9</title>
<g id="a_node9"><a xlink:href="sarray__sort__test_8c.html" target="_top" xlink:title="jl/tests/sarray_sort\l_test.c">
<polygon fill="white" stroke="black" points="690.5,-0.5 690.5,-30.5 794.5,-30.5 794.5,-0.5 690.5,-0.5"/>
<text text-anchor="start" x="698.5" y="-18.5" font-family="Helvetica,sans-Serif" font-size="10.00">jl/tests/sarray_sort</text>
<text text-anchor="middle" x="742.5" y="-7.5" font-family="Helvetica,sans-Serif" font-size="10.00">_test.c</text>
</a>
</g>
</g>
<!-- Node1&#45;&gt;Node9 -->
<g id="edge8" class="edge"><title>Node1&#45;&gt;Node9</title>
<path fill="none" stroke="midnightblue" d="M588.458,-64.9948C619.251,-55.3007 664.277,-41.1259 697.704,-30.6024"/>
<polygon fill="midnightblue" stroke="midnightblue" points="587.085,-61.7575 578.598,-68.0989 589.187,-68.4344 587.085,-61.7575"/>
</g>
<!-- Node10 -->
<g id="node10" class="node"><title>Node10</title>
<g id="a_node10"><a xlink:href="sarray__transfer__test_8c.html" target="_top" xlink:title="jl/tests/sarray_transfer\l_test.c">
<polygon fill="white" stroke="black" points="812.5,-0.5 812.5,-30.5 934.5,-30.5 934.5,-0.5 812.5,-0.5"/>
<text text-anchor="start" x="820.5" y="-18.5" font-family="Helvetica,sans-Serif" font-size="10.00">jl/tests/sarray_transfer</text>
<text text-anchor="middle" x="873.5" y="-7.5" font-family="Helvetica,sans-Serif" font-size="10.00">_test.c</text>
</a>
</g>
</g>
<!-- Node1&#45;&gt;Node10 -->
<g id="edge9" class="edge"><title>Node1&#45;&gt;Node10</title>
<path fill="none" stroke="midnightblue" d="M588.708,-69.9616C637.153,-61.5847 727.061,-45.7938 803.5,-31 806.424,-30.434 809.416,-29.8467 812.435,-29.2471"/>
<polygon fill="midnightblue" stroke="midnightblue" points="587.994,-66.5329 578.735,-71.6825 589.185,-73.431 587.994,-66.5329"/>
</g>
<!-- Node11 -->
<g id="node11" class="node"><title>Node11</title>
<g id="a_node11"><a xlink:href="sort__test_8c.html" target="_top" xlink:title="jl/tests/sort_test.c">
<polygon fill="white" stroke="black" points="952.5,-6 952.5,-25 1050.5,-25 1050.5,-6 952.5,-6"/>
<text text-anchor="middle" x="1001.5" y="-13" font-family="Helvetica,sans-Serif" font-size="10.00">jl/tests/sort_test.c</text>
</a>
</g>
</g>
<!-- Node1&#45;&gt;Node11 -->
<g id="edge10" class="edge"><title>Node1&#45;&gt;Node11</title>
<path fill="none" stroke="midnightblue" d="M589.041,-73.4561C657.866,-68.1868 813.968,-54.5612 943.5,-31 952.384,-29.384 961.929,-27.1917 970.658,-25.0015"/>
<polygon fill="midnightblue" stroke="midnightblue" points="588.471,-69.9891 578.762,-74.2303 588.996,-76.9693 588.471,-69.9891"/>
</g>
<!-- Node12 -->
<g id="node12" class="node"><title>Node12</title>
<g id="a_node12"><a xlink:href="sort__test2_8c.html" target="_top" xlink:title="jl/tests/sort_test2.c">
<polygon fill="white" stroke="black" points="1068.5,-6 1068.5,-25 1172.5,-25 1172.5,-6 1068.5,-6"/>
<text text-anchor="middle" x="1120.5" y="-13" font-family="Helvetica,sans-Serif" font-size="10.00">jl/tests/sort_test2.c</text>
</a>
</g>
</g>
<!-- Node1&#45;&gt;Node12 -->
<g id="edge11" class="edge"><title>Node1&#45;&gt;Node12</title>
<path fill="none" stroke="midnightblue" d="M588.782,-74.6199C671.492,-71.0027 884.157,-59.4833 1059.5,-31 1068.96,-29.4641 1079.12,-27.2707 1088.38,-25.0534"/>
<polygon fill="midnightblue" stroke="midnightblue" points="588.511,-71.1282 578.669,-75.0508 588.809,-78.1219 588.511,-71.1282"/>
</g>
<!-- Node13 -->
<g id="node13" class="node"><title>Node13</title>
<g id="a_node13"><a xlink:href="xxt_8c.html" target="_top" xlink:title="jl/xxt.c">
<polygon fill="white" stroke="black" points="1191,-6 1191,-25 1236,-25 1236,-6 1191,-6"/>
<text text-anchor="middle" x="1213.5" y="-13" font-family="Helvetica,sans-Serif" font-size="10.00">jl/xxt.c</text>
</a>
</g>
</g>
<!-- Node1&#45;&gt;Node13 -->
<g id="edge12" class="edge"><title>Node1&#45;&gt;Node13</title>
<path fill="none" stroke="midnightblue" d="M588.618,-75.1111C703.588,-71.9466 1067.84,-59.8393 1181.5,-31 1186.94,-29.6199 1192.6,-27.3591 1197.62,-25.0288"/>
<polygon fill="midnightblue" stroke="midnightblue" points="588.496,-71.613 578.594,-75.3815 588.685,-78.6104 588.496,-71.613"/>
</g>
</g>
</svg>
        <g id="navigator" transform="translate(0 0)" fill="#404254">
                <rect fill="#f2f5e9" fill-opacity="0.5" stroke="#606060" stroke-width=".5" x="0" y="0" width="60" height="60"/>
                <use id="zoomplus" xlink:href="#zoomPlus" x="17" y="9" onmousedown="handleZoom(evt,'in')"/>
                <use id="zoomminus" xlink:href="#zoomMin" x="42" y="9" onmousedown="handleZoom(evt,'out')"/>
                <use id="reset" xlink:href="#resetDef" x="30" y="36" onmousedown="handleReset()"/>
                <g id="arrowUp" xlink:href="#dirArrow" transform="translate(30 24)" onmousedown="handlePan(0,-1)">
                  <use xlink:href="#rim" fill="#404040">
                        <set attributeName="fill" to="#808080" begin="arrowUp.mouseover" end="arrowUp.mouseout"/>
                  </use>
                  <path fill="none" stroke="white" stroke-width="1.5" d="M0,-3.0v7 M-2.5,-0.5L0,-3.0L2.5,-0.5"/>
                </g>
                <g id="arrowRight" xlink:href="#dirArrow" transform="rotate(90) translate(36 -43)" onmousedown="handlePan(1,0)">
                  <use xlink:href="#rim" fill="#404040">
                        <set attributeName="fill" to="#808080" begin="arrowRight.mouseover" end="arrowRight.mouseout"/>
                  </use>
                  <path fill="none" stroke="white" stroke-width="1.5" d="M0,-3.0v7 M-2.5,-0.5L0,-3.0L2.5,-0.5"/>
                </g>
                <g id="arrowDown" xlink:href="#dirArrow" transform="rotate(180) translate(-30 -48)" onmousedown="handlePan(0,1)">
                  <use xlink:href="#rim" fill="#404040">
                        <set attributeName="fill" to="#808080" begin="arrowDown.mouseover" end="arrowDown.mouseout"/>
                  </use>
                  <path fill="none" stroke="white" stroke-width="1.5" d="M0,-3.0v7 M-2.5,-0.5L0,-3.0L2.5,-0.5"/>
                </g>
                <g id="arrowLeft" xlink:href="#dirArrow" transform="rotate(270) translate(-36 17)" onmousedown="handlePan(-1,0)">
                  <use xlink:href="#rim" fill="#404040">
                        <set attributeName="fill" to="#808080" begin="arrowLeft.mouseover" end="arrowLeft.mouseout"/>
                  </use>
                  <path fill="none" stroke="white" stroke-width="1.5" d="M0,-3.0v7 M-2.5,-0.5L0,-3.0L2.5,-0.5"/>
                </g>
        </g>
        <svg viewBox="0 0 15 15" width="100%" height="30px" preserveAspectRatio="xMaxYMin meet">
         <g id="arrow_out" transform="scale(0.3 0.3)">
          <a xlink:href="sort_8h__dep__incl_org.svg" target="_base">
           <rect id="button" ry="5" rx="5" y="6" x="6" height="38" width="38"
                fill="#f2f5e9" fill-opacity="0.5" stroke="#606060" stroke-width="1.0"/>
           <path id="arrow"
             d="M 11.500037,31.436501 C 11.940474,20.09759 22.043105,11.32322 32.158766,21.979434 L 37.068811,17.246167 C 37.068811,17.246167 37.088388,32 37.088388,32 L 22.160133,31.978069 C 22.160133,31.978069 26.997745,27.140456 26.997745,27.140456 C 18.528582,18.264221 13.291696,25.230495 11.500037,31.436501 z"
             style="fill:#404040;"/>
          </a>
         </g>
        </svg>
</svg>
