<?xml version="1.0" encoding="UTF-8" standalone="no"?>
<!DOCTYPE svg PUBLIC "-//W3C//DTD SVG 1.1//EN"
 "http://www.w3.org/Graphics/SVG/1.1/DTD/svg11.dtd">
<!-- Generated by graphviz version 2.38.0 (20140413.2041)
 -->
<!-- Title: sortv Pages: 1 -->
<svg width="338pt" height="66pt"
 viewBox="0.00 0.00 338.00 66.00" xmlns="http://www.w3.org/2000/svg" xmlns:xlink="http://www.w3.org/1999/xlink">
<g id="graph0" class="graph" transform="scale(1 1) rotate(0) translate(4 62)">
<title>sortv</title>
<polygon fill="white" stroke="none" points="-4,4 -4,-62 334,-62 334,4 -4,4"/>
<!-- Node1 -->
<g id="node1" class="node"><title>Node1</title>
<polygon fill="#bfbfbf" stroke="black" points="0,-19.5 0,-38.5 40,-38.5 40,-19.5 0,-19.5"/>
<text text-anchor="middle" x="20" y="-26.5" font-family="Helvetica,sans-Serif" font-size="10.00">sortv</text>
</g>
<!-- Node2 -->
<g id="node2" class="node"><title>Node2</title>
<g id="a_node2"><a xlink:href="sparse__cholesky_8c.html#a626a3f92f73332ec24054e9f517ea6bc" target="_top" xlink:title="factor_symbolic">
<polygon fill="white" stroke="black" points="76,-38.5 76,-57.5 165,-57.5 165,-38.5 76,-38.5"/>
<text text-anchor="middle" x="120.5" y="-45.5" font-family="Helvetica,sans-Serif" font-size="10.00">factor_symbolic</text>
</a>
</g>
</g>
<!-- Node1&#45;&gt;Node2 -->
<g id="edge1" class="edge"><title>Node1&#45;&gt;Node2</title>
<path fill="none" stroke="midnightblue" d="M50.3411,-34.6597C58.2889,-36.1928 67.0685,-37.8863 75.6287,-39.5375"/>
<polygon fill="midnightblue" stroke="midnightblue" points="50.9424,-31.2112 40.4604,-32.7538 49.6165,-38.0845 50.9424,-31.2112"/>
</g>
<!-- Node4 -->
<g id="node4" class="node"><title>Node4</title>
<g id="a_node4"><a xlink:href="sort__test_8c.html#ae66f6b31b5ad750f1fe042a706a4e3d4" target="_top" xlink:title="main">
<polygon fill="white" stroke="black" points="101,-0.5 101,-19.5 140,-19.5 140,-0.5 101,-0.5"/>
<text text-anchor="middle" x="120.5" y="-7.5" font-family="Helvetica,sans-Serif" font-size="10.00">main</text>
</a>
</g>
</g>
<!-- Node1&#45;&gt;Node4 -->
<g id="edge3" class="edge"><title>Node1&#45;&gt;Node4</title>
<path fill="none" stroke="midnightblue" d="M50.5735,-23.2955C66.8593,-20.154 86.5804,-16.35 100.748,-13.6171"/>
<polygon fill="midnightblue" stroke="midnightblue" points="49.6165,-19.9155 40.4604,-25.2462 50.9424,-26.7888 49.6165,-19.9155"/>
</g>
<!-- Node3 -->
<g id="node3" class="node"><title>Node3</title>
<g id="a_node3"><a xlink:href="sparse__cholesky_8h.html#aa4f9f9e732b179adc01ed3b8a887dfe1" target="_top" xlink:title="sparse_cholesky_factor">
<polygon fill="white" stroke="black" points="201,-38.5 201,-57.5 330,-57.5 330,-38.5 201,-38.5"/>
<text text-anchor="middle" x="265.5" y="-45.5" font-family="Helvetica,sans-Serif" font-size="10.00">sparse_cholesky_factor</text>
</a>
</g>
</g>
<!-- Node2&#45;&gt;Node3 -->
<g id="edge2" class="edge"><title>Node2&#45;&gt;Node3</title>
<path fill="none" stroke="midnightblue" d="M175.455,-48C183.736,-48 192.351,-48 200.818,-48"/>
<polygon fill="midnightblue" stroke="midnightblue" points="175.182,-44.5001 165.182,-48 175.182,-51.5001 175.182,-44.5001"/>
</g>
</g>
</svg>
