<?xml version="1.0" encoding="UTF-8" standalone="no"?>
<!DOCTYPE svg PUBLIC "-//W3C//DTD SVG 1.1//EN"
 "http://www.w3.org/Graphics/SVG/1.1/DTD/svg11.dtd">
<!-- Generated by graphviz version 2.38.0 (20140413.2041)
 -->
<!-- Title: jl/sparse_cholesky.h Pages: 1 -->
<svg width="182pt" height="84pt"
 viewBox="0.00 0.00 182.00 84.00" xmlns="http://www.w3.org/2000/svg" xmlns:xlink="http://www.w3.org/1999/xlink">
<g id="graph0" class="graph" transform="scale(1 1) rotate(0) translate(4 80)">
<title>jl/sparse_cholesky.h</title>
<polygon fill="white" stroke="none" points="-4,4 -4,-80 178,-80 178,4 -4,4"/>
<!-- Node1 -->
<g id="node1" class="node"><title>Node1</title>
<polygon fill="#bfbfbf" stroke="black" points="47.5,-56.5 47.5,-75.5 159.5,-75.5 159.5,-56.5 47.5,-56.5"/>
<text text-anchor="middle" x="103.5" y="-63.5" font-family="Helvetica,sans-Serif" font-size="10.00">jl/sparse_cholesky.h</text>
</g>
<!-- Node2 -->
<g id="node2" class="node"><title>Node2</title>
<g id="a_node2"><a xlink:href="spchol__test_8c.html" target="_top" xlink:title="jl/tests/spchol_test.c">
<polygon fill="white" stroke="black" points="0,-0.5 0,-19.5 111,-19.5 111,-0.5 0,-0.5"/>
<text text-anchor="middle" x="55.5" y="-7.5" font-family="Helvetica,sans-Serif" font-size="10.00">jl/tests/spchol_test.c</text>
</a>
</g>
</g>
<!-- Node1&#45;&gt;Node2 -->
<g id="edge1" class="edge"><title>Node1&#45;&gt;Node2</title>
<path fill="none" stroke="midnightblue" d="M88.7723,-48.4314C80.3599,-38.9673 70.1513,-27.4827 63.2787,-19.7511"/>
<polygon fill="midnightblue" stroke="midnightblue" points="86.3142,-50.9342 95.5738,-56.083 91.546,-46.2836 86.3142,-50.9342"/>
</g>
<!-- Node3 -->
<g id="node3" class="node"><title>Node3</title>
<g id="a_node3"><a xlink:href="xxt_8c.html" target="_top" xlink:title="jl/xxt.c">
<polygon fill="white" stroke="black" points="129,-0.5 129,-19.5 174,-19.5 174,-0.5 129,-0.5"/>
<text text-anchor="middle" x="151.5" y="-7.5" font-family="Helvetica,sans-Serif" font-size="10.00">jl/xxt.c</text>
</a>
</g>
</g>
<!-- Node1&#45;&gt;Node3 -->
<g id="edge2" class="edge"><title>Node1&#45;&gt;Node3</title>
<path fill="none" stroke="midnightblue" d="M118.228,-48.4314C126.64,-38.9673 136.849,-27.4827 143.721,-19.7511"/>
<polygon fill="midnightblue" stroke="midnightblue" points="115.454,-46.2836 111.426,-56.083 120.686,-50.9342 115.454,-46.2836"/>
</g>
</g>
</svg>
