<?xml version="1.0" encoding="UTF-8" standalone="no"?>
<!DOCTYPE svg PUBLIC "-//W3C//DTD SVG 1.1//EN"
 "http://www.w3.org/Graphics/SVG/1.1/DTD/svg11.dtd">
<!-- Generated by graphviz version 2.38.0 (20140413.2041)
 -->
<!-- Title: sparse_cholesky_factor Pages: 1 -->
<svg width="581pt" height="85pt"
 viewBox="0.00 0.00 581.00 85.00" xmlns="http://www.w3.org/2000/svg" xmlns:xlink="http://www.w3.org/1999/xlink">
<g id="graph0" class="graph" transform="scale(1 1) rotate(0) translate(4 81)">
<title>sparse_cholesky_factor</title>
<polygon fill="white" stroke="none" points="-4,4 -4,-81 577,-81 577,4 -4,4"/>
<!-- Node1 -->
<g id="node1" class="node"><title>Node1</title>
<polygon fill="#bfbfbf" stroke="black" points="0,-38.5 0,-57.5 129,-57.5 129,-38.5 0,-38.5"/>
<text text-anchor="middle" x="64.5" y="-45.5" font-family="Helvetica,sans-Serif" font-size="10.00">sparse_cholesky_factor</text>
</g>
<!-- Node2 -->
<g id="node2" class="node"><title>Node2</title>
<g id="a_node2"><a xlink:href="sparse__cholesky_8c.html#aad5b50ae3a9c9700bf9021785ca7b6d5" target="_top" xlink:title="factor_numeric">
<polygon fill="white" stroke="black" points="166.5,-57.5 166.5,-76.5 252.5,-76.5 252.5,-57.5 166.5,-57.5"/>
<text text-anchor="middle" x="209.5" y="-64.5" font-family="Helvetica,sans-Serif" font-size="10.00">factor_numeric</text>
</a>
</g>
</g>
<!-- Node1&#45;&gt;Node2 -->
<g id="edge1" class="edge"><title>Node1&#45;&gt;Node2</title>
<path fill="none" stroke="midnightblue" d="M129.055,-56.4443C138.169,-57.6553 147.458,-58.8895 156.319,-60.0668"/>
<polygon fill="midnightblue" stroke="midnightblue" points="156.114,-63.5703 166.488,-61.418 157.036,-56.6313 156.114,-63.5703"/>
</g>
<!-- Node3 -->
<g id="node3" class="node"><title>Node3</title>
<g id="a_node3"><a xlink:href="sparse__cholesky_8c.html#a626a3f92f73332ec24054e9f517ea6bc" target="_top" xlink:title="factor_symbolic">
<polygon fill="white" stroke="black" points="165,-19.5 165,-38.5 254,-38.5 254,-19.5 165,-19.5"/>
<text text-anchor="middle" x="209.5" y="-26.5" font-family="Helvetica,sans-Serif" font-size="10.00">factor_symbolic</text>
</a>
</g>
</g>
<!-- Node1&#45;&gt;Node3 -->
<g id="edge2" class="edge"><title>Node1&#45;&gt;Node3</title>
<path fill="none" stroke="midnightblue" d="M129.055,-39.5557C137.646,-38.4142 146.392,-37.2522 154.788,-36.1365"/>
<polygon fill="midnightblue" stroke="midnightblue" points="155.371,-39.59 164.823,-34.8033 154.449,-32.6509 155.371,-39.59"/>
</g>
<!-- Node4 -->
<g id="node4" class="node"><title>Node4</title>
<g id="a_node4"><a xlink:href="sort__imp_8h.html#a505134c756da7e5a1312fa13487435b4" target="_top" xlink:title="sortv">
<polygon fill="white" stroke="black" points="290,-19.5 290,-38.5 330,-38.5 330,-19.5 290,-19.5"/>
<text text-anchor="middle" x="310" y="-26.5" font-family="Helvetica,sans-Serif" font-size="10.00">sortv</text>
</a>
</g>
</g>
<!-- Node3&#45;&gt;Node4 -->
<g id="edge3" class="edge"><title>Node3&#45;&gt;Node4</title>
<path fill="none" stroke="midnightblue" d="M254.277,-29C262.755,-29 271.452,-29 279.346,-29"/>
<polygon fill="midnightblue" stroke="midnightblue" points="279.518,-32.5001 289.518,-29 279.517,-25.5001 279.518,-32.5001"/>
</g>
<!-- Node5 -->
<g id="node5" class="node"><title>Node5</title>
<g id="a_node5"><a xlink:href="fail_8c.html#a9e0caa24596d5da82c0d6e25260e2ef0" target="_top" xlink:title="fail">
<polygon fill="white" stroke="black" points="366,-19.5 366,-38.5 396,-38.5 396,-19.5 366,-19.5"/>
<text text-anchor="middle" x="381" y="-26.5" font-family="Helvetica,sans-Serif" font-size="10.00">fail</text>
</a>
</g>
</g>
<!-- Node4&#45;&gt;Node5 -->
<g id="edge4" class="edge"><title>Node4&#45;&gt;Node5</title>
<path fill="none" stroke="midnightblue" d="M330.22,-29C338.095,-29 347.3,-29 355.638,-29"/>
<polygon fill="midnightblue" stroke="midnightblue" points="355.915,-32.5001 365.915,-29 355.915,-25.5001 355.915,-32.5001"/>
</g>
<!-- Node6 -->
<g id="node6" class="node"><title>Node6</title>
<g id="a_node6"><a xlink:href="fail_8c.html#a016d8836ade99456457a913955d1dc3b" target="_top" xlink:title="vfail">
<polygon fill="white" stroke="black" points="432,-19.5 432,-38.5 467,-38.5 467,-19.5 432,-19.5"/>
<text text-anchor="middle" x="449.5" y="-26.5" font-family="Helvetica,sans-Serif" font-size="10.00">vfail</text>
</a>
</g>
</g>
<!-- Node5&#45;&gt;Node6 -->
<g id="edge5" class="edge"><title>Node5&#45;&gt;Node6</title>
<path fill="none" stroke="midnightblue" d="M396.103,-29C403.476,-29 412.753,-29 421.446,-29"/>
<polygon fill="midnightblue" stroke="midnightblue" points="421.59,-32.5001 431.59,-29 421.59,-25.5001 421.59,-32.5001"/>
</g>
<!-- Node7 -->
<g id="node7" class="node"><title>Node7</title>
<g id="a_node7"><a xlink:href="fail_8c.html#a6a96bcb04cc5efcd64cbeed06a292419" target="_top" xlink:title="die">
<polygon fill="white" stroke="black" points="522.5,-38.5 522.5,-57.5 553.5,-57.5 553.5,-38.5 522.5,-38.5"/>
<text text-anchor="middle" x="538" y="-45.5" font-family="Helvetica,sans-Serif" font-size="10.00">die</text>
</a>
</g>
</g>
<!-- Node6&#45;&gt;Node7 -->
<g id="edge6" class="edge"><title>Node6&#45;&gt;Node7</title>
<path fill="none" stroke="midnightblue" d="M467.178,-32.6634C480.057,-35.4922 498.067,-39.4483 512.571,-42.634"/>
<polygon fill="midnightblue" stroke="midnightblue" points="511.87,-46.0634 522.388,-44.7903 513.371,-39.2264 511.87,-46.0634"/>
</g>
<!-- Node8 -->
<g id="node8" class="node"><title>Node8</title>
<g id="a_node8"><a xlink:href="fail_8c.html#a92d8c60ba2ef526cc6aca428bc8770ce" target="_top" xlink:title="vdiagnostic">
<polygon fill="white" stroke="black" points="503,-0.5 503,-19.5 573,-19.5 573,-0.5 503,-0.5"/>
<text text-anchor="middle" x="538" y="-7.5" font-family="Helvetica,sans-Serif" font-size="10.00">vdiagnostic</text>
</a>
</g>
</g>
<!-- Node6&#45;&gt;Node8 -->
<g id="edge7" class="edge"><title>Node6&#45;&gt;Node8</title>
<path fill="none" stroke="midnightblue" d="M467.178,-25.3366C474.605,-23.7053 483.739,-21.699 492.922,-19.6818"/>
<polygon fill="midnightblue" stroke="midnightblue" points="493.812,-23.0699 502.828,-17.5059 492.31,-16.2329 493.812,-23.0699"/>
</g>
</g>
</svg>
