<?xml version="1.0" encoding="UTF-8" standalone="no"?>
<!DOCTYPE svg PUBLIC "-//W3C//DTD SVG 1.1//EN"
 "http://www.w3.org/Graphics/SVG/1.1/DTD/svg11.dtd">
<!-- Generated by graphviz version 2.38.0 (20140413.2041)
 -->
<!-- Title: findpts_local_data_2 Pages: 1 -->
<svg width="441pt" height="173pt"
 viewBox="0.00 0.00 441.00 173.00" xmlns="http://www.w3.org/2000/svg" xmlns:xlink="http://www.w3.org/1999/xlink">
<g id="graph0" class="graph" transform="scale(1 1) rotate(0) translate(4 169)">
<title>findpts_local_data_2</title>
<polygon fill="white" stroke="none" points="-4,4 -4,-169 437,-169 437,4 -4,4"/>
<!-- Node1 -->
<g id="node1" class="node"><title>Node1</title>
<polygon fill="#bfbfbf" stroke="black" points="94,-0.5 94,-19.5 209,-19.5 209,-0.5 94,-0.5"/>
<text text-anchor="middle" x="151.5" y="-7.5" font-family="Helvetica,sans-Serif" font-size="10.00">findpts_local_data_2</text>
</g>
<!-- Node2 -->
<g id="node2" class="node"><title>Node2</title>
<g id="a_node2"><a xlink:href="structfindpts__local__hash__data__2.html" target="_top" xlink:title="findpts_local_hash\l_data_2">
<polygon fill="white" stroke="black" points="0,-67.5 0,-97.5 105,-97.5 105,-67.5 0,-67.5"/>
<text text-anchor="start" x="8" y="-85.5" font-family="Helvetica,sans-Serif" font-size="10.00">findpts_local_hash</text>
<text text-anchor="middle" x="52.5" y="-74.5" font-family="Helvetica,sans-Serif" font-size="10.00">_data_2</text>
</a>
</g>
</g>
<!-- Node2&#45;&gt;Node1 -->
<g id="edge1" class="edge"><title>Node2&#45;&gt;Node1</title>
<path fill="none" stroke="#9a32cd" stroke-dasharray="5,2" d="M80.7216,-61.4028C100.07,-47.6242 124.776,-30.0306 139.296,-19.6911"/>
<polygon fill="#9a32cd" stroke="#9a32cd" points="78.6496,-58.5815 72.5341,-67.2333 82.7101,-64.2835 78.6496,-58.5815"/>
<text text-anchor="middle" x="119.5" y="-41" font-family="Helvetica,sans-Serif" font-size="10.00"> hd</text>
</g>
<!-- Node3 -->
<g id="node3" class="node"><title>Node3</title>
<g id="a_node3"><a xlink:href="structdbl__range.html" target="_top" xlink:title="dbl_range">
<polygon fill="white" stroke="black" points="20.5,-145.5 20.5,-164.5 84.5,-164.5 84.5,-145.5 20.5,-145.5"/>
<text text-anchor="middle" x="52.5" y="-152.5" font-family="Helvetica,sans-Serif" font-size="10.00">dbl_range</text>
</a>
</g>
</g>
<!-- Node3&#45;&gt;Node2 -->
<g id="edge2" class="edge"><title>Node3&#45;&gt;Node2</title>
<path fill="none" stroke="#9a32cd" stroke-dasharray="5,2" d="M52.5,-135.236C52.5,-123.408 52.5,-108.383 52.5,-97.5762"/>
<polygon fill="#9a32cd" stroke="#9a32cd" points="49.0001,-135.355 52.5,-145.355 56.0001,-135.355 49.0001,-135.355"/>
<text text-anchor="middle" x="63" y="-119" font-family="Helvetica,sans-Serif" font-size="10.00"> bnd</text>
</g>
<!-- Node4 -->
<g id="node4" class="node"><title>Node4</title>
<g id="a_node4"><a xlink:href="structobbox__2.html" target="_top" xlink:title="obbox_2">
<polygon fill="white" stroke="black" points="123.5,-73 123.5,-92 179.5,-92 179.5,-73 123.5,-73"/>
<text text-anchor="middle" x="151.5" y="-80" font-family="Helvetica,sans-Serif" font-size="10.00">obbox_2</text>
</a>
</g>
</g>
<!-- Node3&#45;&gt;Node4 -->
<g id="edge4" class="edge"><title>Node3&#45;&gt;Node4</title>
<path fill="none" stroke="#9a32cd" stroke-dasharray="5,2" d="M72.7875,-139.553C92.7749,-125.319 122.657,-104.04 139.261,-92.2154"/>
<polygon fill="#9a32cd" stroke="#9a32cd" points="70.7548,-136.704 64.6393,-145.355 74.8153,-142.406 70.7548,-136.704"/>
<text text-anchor="middle" x="110" y="-119" font-family="Helvetica,sans-Serif" font-size="10.00"> x</text>
</g>
<!-- Node4&#45;&gt;Node1 -->
<g id="edge3" class="edge"><title>Node4&#45;&gt;Node1</title>
<path fill="none" stroke="#9a32cd" stroke-dasharray="5,2" d="M151.5,-62.442C151.5,-48.5305 151.5,-30.3203 151.5,-19.7154"/>
<polygon fill="#9a32cd" stroke="#9a32cd" points="148,-62.8553 151.5,-72.8553 155,-62.8553 148,-62.8553"/>
<text text-anchor="middle" x="161.5" y="-41" font-family="Helvetica,sans-Serif" font-size="10.00"> obb</text>
</g>
<!-- Node5 -->
<g id="node5" class="node"><title>Node5</title>
<g id="a_node5"><a xlink:href="structfindpts__el__data__2.html" target="_top" xlink:title="findpts_el_data_2">
<polygon fill="white" stroke="black" points="213,-73 213,-92 314,-92 314,-73 213,-73"/>
<text text-anchor="middle" x="263.5" y="-80" font-family="Helvetica,sans-Serif" font-size="10.00">findpts_el_data_2</text>
</a>
</g>
</g>
<!-- Node5&#45;&gt;Node1 -->
<g id="edge5" class="edge"><title>Node5&#45;&gt;Node1</title>
<path fill="none" stroke="#9a32cd" stroke-dasharray="5,2" d="M241.154,-67.4341C218.544,-53.2019 184.299,-31.6459 165.346,-19.7154"/>
<polygon fill="#9a32cd" stroke="#9a32cd" points="239.439,-70.4902 249.767,-72.8553 243.168,-64.5661 239.439,-70.4902"/>
<text text-anchor="middle" x="221" y="-41" font-family="Helvetica,sans-Serif" font-size="10.00"> fed</text>
</g>
<!-- Node6 -->
<g id="node6" class="node"><title>Node6</title>
<g id="a_node6"><a xlink:href="structfindpts__el__gedge__2.html" target="_top" xlink:title="findpts_el_gedge_2">
<polygon fill="white" stroke="black" points="102.5,-145.5 102.5,-164.5 212.5,-164.5 212.5,-145.5 102.5,-145.5"/>
<text text-anchor="middle" x="157.5" y="-152.5" font-family="Helvetica,sans-Serif" font-size="10.00">findpts_el_gedge_2</text>
</a>
</g>
</g>
<!-- Node6&#45;&gt;Node5 -->
<g id="edge6" class="edge"><title>Node6&#45;&gt;Node5</title>
<path fill="none" stroke="#9a32cd" stroke-dasharray="5,2" d="M178.935,-139.744C200.335,-125.51 232.538,-104.093 250.396,-92.2154"/>
<polygon fill="#9a32cd" stroke="#9a32cd" points="176.886,-136.903 170.498,-145.355 180.763,-142.732 176.886,-136.903"/>
<text text-anchor="middle" x="228.5" y="-119" font-family="Helvetica,sans-Serif" font-size="10.00"> edge</text>
</g>
<!-- Node7 -->
<g id="node7" class="node"><title>Node7</title>
<g id="a_node7"><a xlink:href="structfindpts__el__gpt__2.html" target="_top" xlink:title="findpts_el_gpt_2">
<polygon fill="white" stroke="black" points="231,-145.5 231,-164.5 326,-164.5 326,-145.5 231,-145.5"/>
<text text-anchor="middle" x="278.5" y="-152.5" font-family="Helvetica,sans-Serif" font-size="10.00">findpts_el_gpt_2</text>
</a>
</g>
</g>
<!-- Node7&#45;&gt;Node5 -->
<g id="edge7" class="edge"><title>Node7&#45;&gt;Node5</title>
<path fill="none" stroke="#9a32cd" stroke-dasharray="5,2" d="M274.534,-135.358C271.563,-121.395 267.633,-102.926 265.354,-92.2154"/>
<polygon fill="#9a32cd" stroke="#9a32cd" points="271.156,-136.303 276.661,-145.355 278.003,-134.846 271.156,-136.303"/>
<text text-anchor="middle" x="279" y="-119" font-family="Helvetica,sans-Serif" font-size="10.00"> pt</text>
</g>
<!-- Node8 -->
<g id="node8" class="node"><title>Node8</title>
<g id="a_node8"><a xlink:href="structfindpts__el__pt__2.html" target="_top" xlink:title="findpts_el_pt_2">
<polygon fill="white" stroke="black" points="344,-145.5 344,-164.5 433,-164.5 433,-145.5 344,-145.5"/>
<text text-anchor="middle" x="388.5" y="-152.5" font-family="Helvetica,sans-Serif" font-size="10.00">findpts_el_pt_2</text>
</a>
</g>
</g>
<!-- Node8&#45;&gt;Node5 -->
<g id="edge8" class="edge"><title>Node8&#45;&gt;Node5</title>
<path fill="none" stroke="#9a32cd" stroke-dasharray="5,2" d="M364.23,-140.312C339.007,-126.086 300.294,-104.252 278.953,-92.2154"/>
<polygon fill="#9a32cd" stroke="#9a32cd" points="362.743,-143.491 373.173,-145.355 366.182,-137.394 362.743,-143.491"/>
<text text-anchor="middle" x="342.5" y="-119" font-family="Helvetica,sans-Serif" font-size="10.00"> p</text>
</g>
</g>
</svg>
