<?xml version="1.0" encoding="UTF-8" standalone="no"?>
<!DOCTYPE svg PUBLIC "-//W3C//DTD SVG 1.1//EN"
 "http://www.w3.org/Graphics/SVG/1.1/DTD/svg11.dtd">
<!-- Generated by graphviz version 2.38.0 (20140413.2041)
 -->
<!-- Title: findpts_local_data Pages: 1 -->
<!--zoomable 418 -->
<svg id="main" version="1.1" xmlns="http://www.w3.org/2000/svg" xmlns:xlink="http://www.w3.org/1999/xlink" xml:space="preserve" onload="init(evt)">
<style type="text/css"><![CDATA[
.edge:hover path { stroke: red; }
.edge:hover polygon { stroke: red; fill: red; }
]]></style>
<script type="text/javascript"><![CDATA[
var edges = document.getElementsByTagName('g');
if (edges && edges.length) {
  for (var i=0;i<edges.length;i++) {
    if (edges[i].id.substr(0,4)=='edge') {
      edges[i].setAttribute('class','edge');
    }
  }
}
]]></script>
        <defs>
                <circle id="rim" cx="0" cy="0" r="7"/>
                <circle id="rim2" cx="0" cy="0" r="3.5"/>
                <g id="zoomPlus">
                        <use xlink:href="#rim" fill="#404040">
                                <set attributeName="fill" to="#808080" begin="zoomplus.mouseover" end="zoomplus.mouseout"/>
                        </use>
                        <path d="M-4,0h8M0,-4v8" fill="none" stroke="white" stroke-width="1.5" pointer-events="none"/>
                </g>
                <g id="zoomMin">
                        <use xlink:href="#rim" fill="#404040">
                                <set attributeName="fill" to="#808080" begin="zoomminus.mouseover" end="zoomminus.mouseout"/>
                        </use>
                        <path d="M-4,0h8" fill="none" stroke="white" stroke-width="1.5" pointer-events="none"/>
                </g>
                <g id="dirArrow">
                        <path fill="none" stroke="white" stroke-width="1.5" d="M0,-3.0v7 M-2.5,-0.5L0,-3.0L2.5,-0.5"/>
                </g>
               <g id="resetDef">
                       <use xlink:href="#rim2" fill="#404040">
                               <set attributeName="fill" to="#808080" begin="reset.mouseover" end="reset.mouseout"/>
                       </use>
               </g>
        </defs>

<script type="text/javascript">
var viewWidth = 661;
var viewHeight = 418;
var sectionId = 'dynsection-0';
</script>
<script xlink:href="svgpan.js"/>
<svg id="graph" class="graph">
<g id="viewport">
<title>findpts_local_data</title>
<polygon fill="white" stroke="none" points="-4,4 -4,-414 657,-414 657,4 -4,4"/>
<!-- Node1 -->
<g id="node1" class="node"><title>Node1</title>
<polygon fill="#bfbfbf" stroke="black" points="550,-194.5 550,-213.5 653,-213.5 653,-194.5 550,-194.5"/>
<text text-anchor="middle" x="601.5" y="-201.5" font-family="Helvetica,sans-Serif" font-size="10.00">findpts_local_data</text>
</g>
<!-- Node2 -->
<g id="node2" class="node"><title>Node2</title>
<g id="a_node2"><a xlink:href="structarray.html" target="_top" xlink:title="array">
<polygon fill="white" stroke="black" points="419,-253.5 419,-272.5 460,-272.5 460,-253.5 419,-253.5"/>
<text text-anchor="middle" x="439.5" y="-260.5" font-family="Helvetica,sans-Serif" font-size="10.00">array</text>
</a>
</g>
</g>
<!-- Node2&#45;&gt;Node1 -->
<g id="edge1" class="edge"><title>Node2&#45;&gt;Node1</title>
<path fill="none" stroke="#9a32cd" stroke-dasharray="5,2" d="M469.93,-253.297C478.663,-250.365 488.235,-247.101 497,-244 524.605,-234.235 555.917,-221.964 576.802,-213.606"/>
<polygon fill="#9a32cd" stroke="#9a32cd" points="468.541,-250.07 460.163,-256.555 470.756,-256.711 468.541,-250.07"/>
<text text-anchor="middle" x="523.5" y="-240" font-family="Helvetica,sans-Serif" font-size="10.00"> buf</text>
</g>
<!-- Node3 -->
<g id="node3" class="node"><title>Node3</title>
<g id="a_node3"><a xlink:href="structhash__data.html" target="_top" xlink:title="hash_data">
<polygon fill="white" stroke="black" points="297,-176.5 297,-195.5 364,-195.5 364,-176.5 297,-176.5"/>
<text text-anchor="middle" x="330.5" y="-183.5" font-family="Helvetica,sans-Serif" font-size="10.00">hash_data</text>
</a>
</g>
</g>
<!-- Node3&#45;&gt;Node1 -->
<g id="edge2" class="edge"><title>Node3&#45;&gt;Node1</title>
<path fill="none" stroke="#9a32cd" stroke-dasharray="5,2" d="M374.508,-187.956C407.927,-189.569 455.43,-192.063 497,-195 514.272,-196.22 533.145,-197.791 549.989,-199.278"/>
<polygon fill="#9a32cd" stroke="#9a32cd" points="374.333,-184.444 364.178,-187.464 374,-191.436 374.333,-184.444"/>
<text text-anchor="middle" x="439.5" y="-198" font-family="Helvetica,sans-Serif" font-size="10.00"> hd</text>
</g>
<!-- Node4 -->
<g id="node4" class="node"><title>Node4</title>
<g id="a_node4"><a xlink:href="structdbl__range.html" target="_top" xlink:title="dbl_range">
<polygon fill="white" stroke="black" points="23,-176.5 23,-195.5 87,-195.5 87,-176.5 23,-176.5"/>
<text text-anchor="middle" x="55" y="-183.5" font-family="Helvetica,sans-Serif" font-size="10.00">dbl_range</text>
</a>
</g>
</g>
<!-- Node4&#45;&gt;Node3 -->
<g id="edge3" class="edge"><title>Node4&#45;&gt;Node3</title>
<path fill="none" stroke="#9a32cd" stroke-dasharray="5,2" d="M97.12,-186C151.64,-186 246.767,-186 296.724,-186"/>
<polygon fill="#9a32cd" stroke="#9a32cd" points="97.1077,-182.5 87.1076,-186 97.1076,-189.5 97.1077,-182.5"/>
<text text-anchor="middle" x="142" y="-189" font-family="Helvetica,sans-Serif" font-size="10.00"> bnd</text>
</g>
<!-- Node6 -->
<g id="node6" class="node"><title>Node6</title>
<g id="a_node6"><a xlink:href="structfindpts__local__hash__data__2.html" target="_top" xlink:title="findpts_local_hash\l_data_2">
<polygon fill="white" stroke="black" points="174,-127 174,-157 279,-157 279,-127 174,-127"/>
<text text-anchor="start" x="182" y="-145" font-family="Helvetica,sans-Serif" font-size="10.00">findpts_local_hash</text>
<text text-anchor="middle" x="226.5" y="-134" font-family="Helvetica,sans-Serif" font-size="10.00">_data_2</text>
</a>
</g>
</g>
<!-- Node4&#45;&gt;Node6 -->
<g id="edge6" class="edge"><title>Node4&#45;&gt;Node6</title>
<path fill="none" stroke="#9a32cd" stroke-dasharray="5,2" d="M81.944,-171.679C95.3165,-164.932 112.115,-157.414 128,-153 142.607,-148.941 158.842,-146.374 173.808,-144.754"/>
<polygon fill="#9a32cd" stroke="#9a32cd" points="80.129,-168.678 72.8745,-176.399 83.3608,-174.887 80.129,-168.678"/>
<text text-anchor="middle" x="142" y="-156" font-family="Helvetica,sans-Serif" font-size="10.00"> bnd</text>
</g>
<!-- Node7 -->
<g id="node7" class="node"><title>Node7</title>
<g id="a_node7"><a xlink:href="structobbox__2.html" target="_top" xlink:title="obbox_2">
<polygon fill="white" stroke="black" points="198.5,-88.5 198.5,-107.5 254.5,-107.5 254.5,-88.5 198.5,-88.5"/>
<text text-anchor="middle" x="226.5" y="-95.5" font-family="Helvetica,sans-Serif" font-size="10.00">obbox_2</text>
</a>
</g>
</g>
<!-- Node4&#45;&gt;Node7 -->
<g id="edge8" class="edge"><title>Node4&#45;&gt;Node7</title>
<path fill="none" stroke="#9a32cd" stroke-dasharray="5,2" d="M74.9068,-169.701C88.8672,-158.278 108.716,-143.276 128,-133 150.538,-120.99 178.072,-111.535 198.124,-105.496"/>
<polygon fill="#9a32cd" stroke="#9a32cd" points="72.4653,-167.18 67.0332,-176.276 76.9522,-172.553 72.4653,-167.18"/>
<text text-anchor="middle" x="142" y="-136" font-family="Helvetica,sans-Serif" font-size="10.00"> x</text>
</g>
<!-- Node13 -->
<g id="node13" class="node"><title>Node13</title>
<g id="a_node13"><a xlink:href="structfindpts__local__hash__data__3.html" target="_top" xlink:title="findpts_local_hash\l_data_3">
<polygon fill="white" stroke="black" points="174,-253 174,-283 279,-283 279,-253 174,-253"/>
<text text-anchor="start" x="182" y="-271" font-family="Helvetica,sans-Serif" font-size="10.00">findpts_local_hash</text>
<text text-anchor="middle" x="226.5" y="-260" font-family="Helvetica,sans-Serif" font-size="10.00">_data_3</text>
</a>
</g>
</g>
<!-- Node4&#45;&gt;Node13 -->
<g id="edge15" class="edge"><title>Node4&#45;&gt;Node13</title>
<path fill="none" stroke="#9a32cd" stroke-dasharray="5,2" d="M82.1113,-200.278C95.6932,-207.578 112.628,-216.484 128,-224 148.521,-234.034 171.83,-244.583 190.511,-252.836"/>
<polygon fill="#9a32cd" stroke="#9a32cd" points="83.766,-197.194 73.3046,-195.518 80.4373,-203.352 83.766,-197.194"/>
<text text-anchor="middle" x="142" y="-240" font-family="Helvetica,sans-Serif" font-size="10.00"> bnd</text>
</g>
<!-- Node14 -->
<g id="node14" class="node"><title>Node14</title>
<g id="a_node14"><a xlink:href="structobbox__3.html" target="_top" xlink:title="obbox_3">
<polygon fill="white" stroke="black" points="198.5,-214.5 198.5,-233.5 254.5,-233.5 254.5,-214.5 198.5,-214.5"/>
<text text-anchor="middle" x="226.5" y="-221.5" font-family="Helvetica,sans-Serif" font-size="10.00">obbox_3</text>
</a>
</g>
</g>
<!-- Node4&#45;&gt;Node14 -->
<g id="edge17" class="edge"><title>Node4&#45;&gt;Node14</title>
<path fill="none" stroke="#9a32cd" stroke-dasharray="5,2" d="M96.8702,-195.163C128.303,-202.209 170.855,-211.749 198.246,-217.89"/>
<polygon fill="#9a32cd" stroke="#9a32cd" points="97.6124,-191.742 87.0889,-192.97 96.081,-198.573 97.6124,-191.742"/>
<text text-anchor="middle" x="142" y="-212" font-family="Helvetica,sans-Serif" font-size="10.00"> x</text>
</g>
<!-- Node5 -->
<g id="node5" class="node"><title>Node5</title>
<g id="a_node5"><a xlink:href="structfindpts__local__data__2.html" target="_top" xlink:title="findpts_local_data_2">
<polygon fill="white" stroke="black" points="382,-106.5 382,-125.5 497,-125.5 497,-106.5 382,-106.5"/>
<text text-anchor="middle" x="439.5" y="-113.5" font-family="Helvetica,sans-Serif" font-size="10.00">findpts_local_data_2</text>
</a>
</g>
</g>
<!-- Node5&#45;&gt;Node1 -->
<g id="edge4" class="edge"><title>Node5&#45;&gt;Node1</title>
<path fill="none" stroke="#9a32cd" stroke-dasharray="5,2" d="M470.95,-130.004C488.945,-138.519 512.042,-149.867 532,-161 551.252,-171.739 572.654,-185.479 586.328,-194.5"/>
<polygon fill="#9a32cd" stroke="#9a32cd" points="472.07,-126.663 461.53,-125.584 469.096,-133.001 472.07,-126.663"/>
<text text-anchor="middle" x="523.5" y="-164" font-family="Helvetica,sans-Serif" font-size="10.00"> d2</text>
</g>
<!-- Node6&#45;&gt;Node5 -->
<g id="edge5" class="edge"><title>Node6&#45;&gt;Node5</title>
<path fill="none" stroke="#9a32cd" stroke-dasharray="5,2" d="M289.226,-134.394C318.507,-130.786 353.256,-126.504 381.857,-122.98"/>
<polygon fill="#9a32cd" stroke="#9a32cd" points="288.613,-130.943 279.116,-135.64 289.469,-137.89 288.613,-130.943"/>
<text text-anchor="middle" x="330.5" y="-136" font-family="Helvetica,sans-Serif" font-size="10.00"> hd</text>
</g>
<!-- Node7&#45;&gt;Node5 -->
<g id="edge7" class="edge"><title>Node7&#45;&gt;Node5</title>
<path fill="none" stroke="#9a32cd" stroke-dasharray="5,2" d="M265.058,-99.9254C292.501,-101.466 330.599,-103.884 364,-107 369.837,-107.545 375.924,-108.176 381.993,-108.846"/>
<polygon fill="#9a32cd" stroke="#9a32cd" points="264.905,-96.4118 254.728,-99.3584 264.521,-103.401 264.905,-96.4118"/>
<text text-anchor="middle" x="330.5" y="-110" font-family="Helvetica,sans-Serif" font-size="10.00"> obb</text>
</g>
<!-- Node8 -->
<g id="node8" class="node"><title>Node8</title>
<g id="a_node8"><a xlink:href="structfindpts__el__data__2.html" target="_top" xlink:title="findpts_el_data_2">
<polygon fill="white" stroke="black" points="176,-44.5 176,-63.5 277,-63.5 277,-44.5 176,-44.5"/>
<text text-anchor="middle" x="226.5" y="-51.5" font-family="Helvetica,sans-Serif" font-size="10.00">findpts_el_data_2</text>
</a>
</g>
</g>
<!-- Node8&#45;&gt;Node5 -->
<g id="edge9" class="edge"><title>Node8&#45;&gt;Node5</title>
<path fill="none" stroke="#9a32cd" stroke-dasharray="5,2" d="M280.992,-65.8143C306.341,-71.7966 336.93,-79.5725 364,-88 381.415,-93.4215 400.678,-100.696 415.253,-106.472"/>
<polygon fill="#9a32cd" stroke="#9a32cd" points="281.728,-62.3921 271.194,-63.5295 280.138,-69.2092 281.728,-62.3921"/>
<text text-anchor="middle" x="330.5" y="-91" font-family="Helvetica,sans-Serif" font-size="10.00"> fed</text>
</g>
<!-- Node9 -->
<g id="node9" class="node"><title>Node9</title>
<g id="a_node9"><a xlink:href="structfindpts__el__gedge__2.html" target="_top" xlink:title="findpts_el_gedge_2">
<polygon fill="white" stroke="black" points="0,-0.5 0,-19.5 110,-19.5 110,-0.5 0,-0.5"/>
<text text-anchor="middle" x="55" y="-7.5" font-family="Helvetica,sans-Serif" font-size="10.00">findpts_el_gedge_2</text>
</a>
</g>
</g>
<!-- Node9&#45;&gt;Node8 -->
<g id="edge10" class="edge"><title>Node9&#45;&gt;Node8</title>
<path fill="none" stroke="#9a32cd" stroke-dasharray="5,2" d="M102.465,-22.0617C129.65,-29.1185 163.488,-37.9024 188.793,-44.4713"/>
<polygon fill="#9a32cd" stroke="#9a32cd" points="103.338,-18.6723 92.779,-19.5473 101.579,-25.4477 103.338,-18.6723"/>
<text text-anchor="middle" x="142" y="-39" font-family="Helvetica,sans-Serif" font-size="10.00"> edge</text>
</g>
<!-- Node10 -->
<g id="node10" class="node"><title>Node10</title>
<g id="a_node10"><a xlink:href="structfindpts__el__gpt__2.html" target="_top" xlink:title="findpts_el_gpt_2">
<polygon fill="white" stroke="black" points="7.5,-76.5 7.5,-95.5 102.5,-95.5 102.5,-76.5 7.5,-76.5"/>
<text text-anchor="middle" x="55" y="-83.5" font-family="Helvetica,sans-Serif" font-size="10.00">findpts_el_gpt_2</text>
</a>
</g>
</g>
<!-- Node10&#45;&gt;Node8 -->
<g id="edge11" class="edge"><title>Node10&#45;&gt;Node8</title>
<path fill="none" stroke="#9a32cd" stroke-dasharray="5,2" d="M112.604,-75.3136C133.102,-71.4438 156.078,-67.1062 175.925,-63.3592"/>
<polygon fill="#9a32cd" stroke="#9a32cd" points="111.942,-71.8767 102.765,-77.1712 113.241,-78.7552 111.942,-71.8767"/>
<text text-anchor="middle" x="142" y="-75" font-family="Helvetica,sans-Serif" font-size="10.00"> pt</text>
</g>
<!-- Node11 -->
<g id="node11" class="node"><title>Node11</title>
<g id="a_node11"><a xlink:href="structfindpts__el__pt__2.html" target="_top" xlink:title="findpts_el_pt_2">
<polygon fill="white" stroke="black" points="10.5,-38.5 10.5,-57.5 99.5,-57.5 99.5,-38.5 10.5,-38.5"/>
<text text-anchor="middle" x="55" y="-45.5" font-family="Helvetica,sans-Serif" font-size="10.00">findpts_el_pt_2</text>
</a>
</g>
</g>
<!-- Node11&#45;&gt;Node8 -->
<g id="edge12" class="edge"><title>Node11&#45;&gt;Node8</title>
<path fill="none" stroke="#9a32cd" stroke-dasharray="5,2" d="M109.913,-49.4874C124.842,-49.9347 141.051,-50.4531 156,-51 162.397,-51.234 169.124,-51.4997 175.77,-51.7739"/>
<polygon fill="#9a32cd" stroke="#9a32cd" points="109.912,-45.986 99.8136,-49.1897 109.706,-52.9829 109.912,-45.986"/>
<text text-anchor="middle" x="142" y="-54" font-family="Helvetica,sans-Serif" font-size="10.00"> p</text>
</g>
<!-- Node12 -->
<g id="node12" class="node"><title>Node12</title>
<g id="a_node12"><a xlink:href="structfindpts__local__data__3.html" target="_top" xlink:title="findpts_local_data_3">
<polygon fill="white" stroke="black" points="382,-215.5 382,-234.5 497,-234.5 497,-215.5 382,-215.5"/>
<text text-anchor="middle" x="439.5" y="-222.5" font-family="Helvetica,sans-Serif" font-size="10.00">findpts_local_data_3</text>
</a>
</g>
</g>
<!-- Node12&#45;&gt;Node1 -->
<g id="edge13" class="edge"><title>Node12&#45;&gt;Node1</title>
<path fill="none" stroke="#9a32cd" stroke-dasharray="5,2" d="M507.564,-216.198C521.749,-214.336 536.491,-212.401 549.942,-210.636"/>
<polygon fill="#9a32cd" stroke="#9a32cd" points="506.82,-212.765 497.361,-217.537 507.731,-219.706 506.82,-212.765"/>
<text text-anchor="middle" x="523.5" y="-219" font-family="Helvetica,sans-Serif" font-size="10.00"> d3</text>
</g>
<!-- Node13&#45;&gt;Node12 -->
<g id="edge14" class="edge"><title>Node13&#45;&gt;Node12</title>
<path fill="none" stroke="#9a32cd" stroke-dasharray="5,2" d="M289.05,-255.457C321.831,-248.776 361.505,-240.691 391.736,-234.53"/>
<polygon fill="#9a32cd" stroke="#9a32cd" points="288.216,-252.055 279.116,-257.481 289.614,-258.914 288.216,-252.055"/>
<text text-anchor="middle" x="330.5" y="-256" font-family="Helvetica,sans-Serif" font-size="10.00"> hd</text>
</g>
<!-- Node14&#45;&gt;Node12 -->
<g id="edge16" class="edge"><title>Node14&#45;&gt;Node12</title>
<path fill="none" stroke="#9a32cd" stroke-dasharray="5,2" d="M265.029,-224.178C297.414,-224.331 344.681,-224.555 381.699,-224.731"/>
<polygon fill="#9a32cd" stroke="#9a32cd" points="264.669,-220.676 254.653,-224.129 264.636,-227.676 264.669,-220.676"/>
<text text-anchor="middle" x="330.5" y="-228" font-family="Helvetica,sans-Serif" font-size="10.00"> obb</text>
</g>
<!-- Node15 -->
<g id="node15" class="node"><title>Node15</title>
<g id="a_node15"><a xlink:href="structfindpts__el__data__3.html" target="_top" xlink:title="findpts_el_data_3">
<polygon fill="white" stroke="black" points="176,-314.5 176,-333.5 277,-333.5 277,-314.5 176,-314.5"/>
<text text-anchor="middle" x="226.5" y="-321.5" font-family="Helvetica,sans-Serif" font-size="10.00">findpts_el_data_3</text>
</a>
</g>
</g>
<!-- Node15&#45;&gt;Node12 -->
<g id="edge18" class="edge"><title>Node15&#45;&gt;Node12</title>
<path fill="none" stroke="#9a32cd" stroke-dasharray="5,2" d="M275.274,-311.375C303.093,-302.404 337.743,-288.307 364,-268 374.547,-259.843 371.194,-251.81 382,-244 387.284,-240.181 393.389,-237.091 399.591,-234.602"/>
<polygon fill="#9a32cd" stroke="#9a32cd" points="273.876,-308.144 265.362,-314.451 275.95,-314.83 273.876,-308.144"/>
<text text-anchor="middle" x="330.5" y="-307" font-family="Helvetica,sans-Serif" font-size="10.00"> fed</text>
</g>
<!-- Node16 -->
<g id="node16" class="node"><title>Node16</title>
<g id="a_node16"><a xlink:href="structfindpts__el__gface__3.html" target="_top" xlink:title="findpts_el_gface_3">
<polygon fill="white" stroke="black" points="1.5,-390.5 1.5,-409.5 108.5,-409.5 108.5,-390.5 1.5,-390.5"/>
<text text-anchor="middle" x="55" y="-397.5" font-family="Helvetica,sans-Serif" font-size="10.00">findpts_el_gface_3</text>
</a>
</g>
</g>
<!-- Node16&#45;&gt;Node15 -->
<g id="edge19" class="edge"><title>Node16&#45;&gt;Node15</title>
<path fill="none" stroke="#9a32cd" stroke-dasharray="5,2" d="M94.0022,-387.015C99.3954,-385.061 104.854,-383.021 110,-381 130.75,-372.851 135.923,-370.69 156,-361 174.22,-352.206 194.602,-341.214 208.556,-333.504"/>
<polygon fill="#9a32cd" stroke="#9a32cd" points="92.6921,-383.767 84.4473,-390.42 95.0419,-390.36 92.6921,-383.767"/>
<text text-anchor="middle" x="142" y="-377" font-family="Helvetica,sans-Serif" font-size="10.00"> face</text>
</g>
<!-- Node17 -->
<g id="node17" class="node"><title>Node17</title>
<g id="a_node17"><a xlink:href="structfindpts__el__gedge__3.html" target="_top" xlink:title="findpts_el_gedge_3">
<polygon fill="white" stroke="black" points="0,-352.5 0,-371.5 110,-371.5 110,-352.5 0,-352.5"/>
<text text-anchor="middle" x="55" y="-359.5" font-family="Helvetica,sans-Serif" font-size="10.00">findpts_el_gedge_3</text>
</a>
</g>
</g>
<!-- Node17&#45;&gt;Node15 -->
<g id="edge20" class="edge"><title>Node17&#45;&gt;Node15</title>
<path fill="none" stroke="#9a32cd" stroke-dasharray="5,2" d="M108.742,-350.176C132.639,-344.818 160.515,-338.569 183.036,-333.52"/>
<polygon fill="#9a32cd" stroke="#9a32cd" points="107.764,-346.808 98.772,-352.411 109.295,-353.639 107.764,-346.808"/>
<text text-anchor="middle" x="142" y="-349" font-family="Helvetica,sans-Serif" font-size="10.00"> edge</text>
</g>
<!-- Node18 -->
<g id="node18" class="node"><title>Node18</title>
<g id="a_node18"><a xlink:href="structfindpts__el__gpt__3.html" target="_top" xlink:title="findpts_el_gpt_3">
<polygon fill="white" stroke="black" points="7.5,-314.5 7.5,-333.5 102.5,-333.5 102.5,-314.5 7.5,-314.5"/>
<text text-anchor="middle" x="55" y="-321.5" font-family="Helvetica,sans-Serif" font-size="10.00">findpts_el_gpt_3</text>
</a>
</g>
</g>
<!-- Node18&#45;&gt;Node15 -->
<g id="edge21" class="edge"><title>Node18&#45;&gt;Node15</title>
<path fill="none" stroke="#9a32cd" stroke-dasharray="5,2" d="M112.884,-324C133.311,-324 156.168,-324 175.925,-324"/>
<polygon fill="#9a32cd" stroke="#9a32cd" points="112.765,-320.5 102.765,-324 112.765,-327.5 112.765,-320.5"/>
<text text-anchor="middle" x="142" y="-327" font-family="Helvetica,sans-Serif" font-size="10.00"> pt</text>
</g>
<!-- Node19 -->
<g id="node19" class="node"><title>Node19</title>
<g id="a_node19"><a xlink:href="structfindpts__el__pt__3.html" target="_top" xlink:title="findpts_el_pt_3">
<polygon fill="white" stroke="black" points="10.5,-276.5 10.5,-295.5 99.5,-295.5 99.5,-276.5 10.5,-276.5"/>
<text text-anchor="middle" x="55" y="-283.5" font-family="Helvetica,sans-Serif" font-size="10.00">findpts_el_pt_3</text>
</a>
</g>
</g>
<!-- Node19&#45;&gt;Node15 -->
<g id="edge22" class="edge"><title>Node19&#45;&gt;Node15</title>
<path fill="none" stroke="#9a32cd" stroke-dasharray="5,2" d="M108.742,-297.824C132.639,-303.182 160.515,-309.431 183.036,-314.48"/>
<polygon fill="#9a32cd" stroke="#9a32cd" points="109.295,-294.361 98.772,-295.589 107.764,-301.192 109.295,-294.361"/>
<text text-anchor="middle" x="142" y="-312" font-family="Helvetica,sans-Serif" font-size="10.00"> p</text>
</g>
</g>
</svg>
        <g id="navigator" transform="translate(0 0)" fill="#404254">
                <rect fill="#f2f5e9" fill-opacity="0.5" stroke="#606060" stroke-width=".5" x="0" y="0" width="60" height="60"/>
                <use id="zoomplus" xlink:href="#zoomPlus" x="17" y="9" onmousedown="handleZoom(evt,'in')"/>
                <use id="zoomminus" xlink:href="#zoomMin" x="42" y="9" onmousedown="handleZoom(evt,'out')"/>
                <use id="reset" xlink:href="#resetDef" x="30" y="36" onmousedown="handleReset()"/>
                <g id="arrowUp" xlink:href="#dirArrow" transform="translate(30 24)" onmousedown="handlePan(0,-1)">
                  <use xlink:href="#rim" fill="#404040">
                        <set attributeName="fill" to="#808080" begin="arrowUp.mouseover" end="arrowUp.mouseout"/>
                  </use>
                  <path fill="none" stroke="white" stroke-width="1.5" d="M0,-3.0v7 M-2.5,-0.5L0,-3.0L2.5,-0.5"/>
                </g>
                <g id="arrowRight" xlink:href="#dirArrow" transform="rotate(90) translate(36 -43)" onmousedown="handlePan(1,0)">
                  <use xlink:href="#rim" fill="#404040">
                        <set attributeName="fill" to="#808080" begin="arrowRight.mouseover" end="arrowRight.mouseout"/>
                  </use>
                  <path fill="none" stroke="white" stroke-width="1.5" d="M0,-3.0v7 M-2.5,-0.5L0,-3.0L2.5,-0.5"/>
                </g>
                <g id="arrowDown" xlink:href="#dirArrow" transform="rotate(180) translate(-30 -48)" onmousedown="handlePan(0,1)">
                  <use xlink:href="#rim" fill="#404040">
                        <set attributeName="fill" to="#808080" begin="arrowDown.mouseover" end="arrowDown.mouseout"/>
                  </use>
                  <path fill="none" stroke="white" stroke-width="1.5" d="M0,-3.0v7 M-2.5,-0.5L0,-3.0L2.5,-0.5"/>
                </g>
                <g id="arrowLeft" xlink:href="#dirArrow" transform="rotate(270) translate(-36 17)" onmousedown="handlePan(-1,0)">
                  <use xlink:href="#rim" fill="#404040">
                        <set attributeName="fill" to="#808080" begin="arrowLeft.mouseover" end="arrowLeft.mouseout"/>
                  </use>
                  <path fill="none" stroke="white" stroke-width="1.5" d="M0,-3.0v7 M-2.5,-0.5L0,-3.0L2.5,-0.5"/>
                </g>
        </g>
        <svg viewBox="0 0 15 15" width="100%" height="30px" preserveAspectRatio="xMaxYMin meet">
         <g id="arrow_out" transform="scale(0.3 0.3)">
          <a xlink:href="structfindpts__local__data__coll__graph_org.svg" target="_base">
           <rect id="button" ry="5" rx="5" y="6" x="6" height="38" width="38"
                fill="#f2f5e9" fill-opacity="0.5" stroke="#606060" stroke-width="1.0"/>
           <path id="arrow"
             d="M 11.500037,31.436501 C 11.940474,20.09759 22.043105,11.32322 32.158766,21.979434 L 37.068811,17.246167 C 37.068811,17.246167 37.088388,32 37.088388,32 L 22.160133,31.978069 C 22.160133,31.978069 26.997745,27.140456 26.997745,27.140456 C 18.528582,18.264221 13.291696,25.230495 11.500037,31.436501 z"
             style="fill:#404040;"/>
          </a>
         </g>
        </svg>
</svg>
