<?xml version="1.0" encoding="UTF-8" standalone="no"?>
<!DOCTYPE svg PUBLIC "-//W3C//DTD SVG 1.1//EN"
 "http://www.w3.org/Graphics/SVG/1.1/DTD/svg11.dtd">
<!-- Generated by graphviz version 2.38.0 (20140413.2041)
 -->
<!-- Title: findpts_local_data_3 Pages: 1 -->
<!--zoomable 173 -->
<svg id="main" version="1.1" xmlns="http://www.w3.org/2000/svg" xmlns:xlink="http://www.w3.org/1999/xlink" xml:space="preserve" onload="init(evt)">
<style type="text/css"><![CDATA[
.edge:hover path { stroke: red; }
.edge:hover polygon { stroke: red; fill: red; }
]]></style>
<script type="text/javascript"><![CDATA[
var edges = document.getElementsByTagName('g');
if (edges && edges.length) {
  for (var i=0;i<edges.length;i++) {
    if (edges[i].id.substr(0,4)=='edge') {
      edges[i].setAttribute('class','edge');
    }
  }
}
]]></script>
        <defs>
                <circle id="rim" cx="0" cy="0" r="7"/>
                <circle id="rim2" cx="0" cy="0" r="3.5"/>
                <g id="zoomPlus">
                        <use xlink:href="#rim" fill="#404040">
                                <set attributeName="fill" to="#808080" begin="zoomplus.mouseover" end="zoomplus.mouseout"/>
                        </use>
                        <path d="M-4,0h8M0,-4v8" fill="none" stroke="white" stroke-width="1.5" pointer-events="none"/>
                </g>
                <g id="zoomMin">
                        <use xlink:href="#rim" fill="#404040">
                                <set attributeName="fill" to="#808080" begin="zoomminus.mouseover" end="zoomminus.mouseout"/>
                        </use>
                        <path d="M-4,0h8" fill="none" stroke="white" stroke-width="1.5" pointer-events="none"/>
                </g>
                <g id="dirArrow">
                        <path fill="none" stroke="white" stroke-width="1.5" d="M0,-3.0v7 M-2.5,-0.5L0,-3.0L2.5,-0.5"/>
                </g>
               <g id="resetDef">
                       <use xlink:href="#rim2" fill="#404040">
                               <set attributeName="fill" to="#808080" begin="reset.mouseover" end="reset.mouseout"/>
                       </use>
               </g>
        </defs>

<script type="text/javascript">
var viewWidth = 567;
var viewHeight = 173;
var sectionId = 'dynsection-0';
</script>
<script xlink:href="svgpan.js"/>
<svg id="graph" class="graph">
<g id="viewport">
<title>findpts_local_data_3</title>
<polygon fill="white" stroke="none" points="-4,4 -4,-169 563,-169 563,4 -4,4"/>
<!-- Node1 -->
<g id="node1" class="node"><title>Node1</title>
<polygon fill="#bfbfbf" stroke="black" points="94,-0.5 94,-19.5 209,-19.5 209,-0.5 94,-0.5"/>
<text text-anchor="middle" x="151.5" y="-7.5" font-family="Helvetica,sans-Serif" font-size="10.00">findpts_local_data_3</text>
</g>
<!-- Node2 -->
<g id="node2" class="node"><title>Node2</title>
<g id="a_node2"><a xlink:href="structfindpts__local__hash__data__3.html" target="_top" xlink:title="findpts_local_hash\l_data_3">
<polygon fill="white" stroke="black" points="0,-67.5 0,-97.5 105,-97.5 105,-67.5 0,-67.5"/>
<text text-anchor="start" x="8" y="-85.5" font-family="Helvetica,sans-Serif" font-size="10.00">findpts_local_hash</text>
<text text-anchor="middle" x="52.5" y="-74.5" font-family="Helvetica,sans-Serif" font-size="10.00">_data_3</text>
</a>
</g>
</g>
<!-- Node2&#45;&gt;Node1 -->
<g id="edge1" class="edge"><title>Node2&#45;&gt;Node1</title>
<path fill="none" stroke="#9a32cd" stroke-dasharray="5,2" d="M80.7216,-61.4028C100.07,-47.6242 124.776,-30.0306 139.296,-19.6911"/>
<polygon fill="#9a32cd" stroke="#9a32cd" points="78.6496,-58.5815 72.5341,-67.2333 82.7101,-64.2835 78.6496,-58.5815"/>
<text text-anchor="middle" x="119.5" y="-41" font-family="Helvetica,sans-Serif" font-size="10.00"> hd</text>
</g>
<!-- Node3 -->
<g id="node3" class="node"><title>Node3</title>
<g id="a_node3"><a xlink:href="structdbl__range.html" target="_top" xlink:title="dbl_range">
<polygon fill="white" stroke="black" points="20.5,-145.5 20.5,-164.5 84.5,-164.5 84.5,-145.5 20.5,-145.5"/>
<text text-anchor="middle" x="52.5" y="-152.5" font-family="Helvetica,sans-Serif" font-size="10.00">dbl_range</text>
</a>
</g>
</g>
<!-- Node3&#45;&gt;Node2 -->
<g id="edge2" class="edge"><title>Node3&#45;&gt;Node2</title>
<path fill="none" stroke="#9a32cd" stroke-dasharray="5,2" d="M52.5,-135.236C52.5,-123.408 52.5,-108.383 52.5,-97.5762"/>
<polygon fill="#9a32cd" stroke="#9a32cd" points="49.0001,-135.355 52.5,-145.355 56.0001,-135.355 49.0001,-135.355"/>
<text text-anchor="middle" x="63" y="-119" font-family="Helvetica,sans-Serif" font-size="10.00"> bnd</text>
</g>
<!-- Node4 -->
<g id="node4" class="node"><title>Node4</title>
<g id="a_node4"><a xlink:href="structobbox__3.html" target="_top" xlink:title="obbox_3">
<polygon fill="white" stroke="black" points="123.5,-73 123.5,-92 179.5,-92 179.5,-73 123.5,-73"/>
<text text-anchor="middle" x="151.5" y="-80" font-family="Helvetica,sans-Serif" font-size="10.00">obbox_3</text>
</a>
</g>
</g>
<!-- Node3&#45;&gt;Node4 -->
<g id="edge4" class="edge"><title>Node3&#45;&gt;Node4</title>
<path fill="none" stroke="#9a32cd" stroke-dasharray="5,2" d="M72.7875,-139.553C92.7749,-125.319 122.657,-104.04 139.261,-92.2154"/>
<polygon fill="#9a32cd" stroke="#9a32cd" points="70.7548,-136.704 64.6393,-145.355 74.8153,-142.406 70.7548,-136.704"/>
<text text-anchor="middle" x="110" y="-119" font-family="Helvetica,sans-Serif" font-size="10.00"> x</text>
</g>
<!-- Node4&#45;&gt;Node1 -->
<g id="edge3" class="edge"><title>Node4&#45;&gt;Node1</title>
<path fill="none" stroke="#9a32cd" stroke-dasharray="5,2" d="M151.5,-62.442C151.5,-48.5305 151.5,-30.3203 151.5,-19.7154"/>
<polygon fill="#9a32cd" stroke="#9a32cd" points="148,-62.8553 151.5,-72.8553 155,-62.8553 148,-62.8553"/>
<text text-anchor="middle" x="161.5" y="-41" font-family="Helvetica,sans-Serif" font-size="10.00"> obb</text>
</g>
<!-- Node5 -->
<g id="node5" class="node"><title>Node5</title>
<g id="a_node5"><a xlink:href="structfindpts__el__data__3.html" target="_top" xlink:title="findpts_el_data_3">
<polygon fill="white" stroke="black" points="233,-73 233,-92 334,-92 334,-73 233,-73"/>
<text text-anchor="middle" x="283.5" y="-80" font-family="Helvetica,sans-Serif" font-size="10.00">findpts_el_data_3</text>
</a>
</g>
</g>
<!-- Node5&#45;&gt;Node1 -->
<g id="edge5" class="edge"><title>Node5&#45;&gt;Node1</title>
<path fill="none" stroke="#9a32cd" stroke-dasharray="5,2" d="M258.456,-68.1242C231.704,-53.8361 190.106,-31.6193 167.479,-19.5341"/>
<polygon fill="#9a32cd" stroke="#9a32cd" points="257.108,-71.3722 267.578,-72.9961 260.406,-65.1976 257.108,-71.3722"/>
<text text-anchor="middle" x="231" y="-41" font-family="Helvetica,sans-Serif" font-size="10.00"> fed</text>
</g>
<!-- Node6 -->
<g id="node6" class="node"><title>Node6</title>
<g id="a_node6"><a xlink:href="structfindpts__el__gface__3.html" target="_top" xlink:title="findpts_el_gface_3">
<polygon fill="white" stroke="black" points="103,-145.5 103,-164.5 210,-164.5 210,-145.5 103,-145.5"/>
<text text-anchor="middle" x="156.5" y="-152.5" font-family="Helvetica,sans-Serif" font-size="10.00">findpts_el_gface_3</text>
</a>
</g>
</g>
<!-- Node6&#45;&gt;Node5 -->
<g id="edge6" class="edge"><title>Node6&#45;&gt;Node5</title>
<path fill="none" stroke="#9a32cd" stroke-dasharray="5,2" d="M180.82,-140.499C206.438,-126.278 246.022,-104.305 267.8,-92.2154"/>
<polygon fill="#9a32cd" stroke="#9a32cd" points="179.117,-137.442 172.073,-145.355 182.515,-143.562 179.117,-137.442"/>
<text text-anchor="middle" x="236.5" y="-119" font-family="Helvetica,sans-Serif" font-size="10.00"> face</text>
</g>
<!-- Node7 -->
<g id="node7" class="node"><title>Node7</title>
<g id="a_node7"><a xlink:href="structfindpts__el__gedge__3.html" target="_top" xlink:title="findpts_el_gedge_3">
<polygon fill="white" stroke="black" points="228.5,-145.5 228.5,-164.5 338.5,-164.5 338.5,-145.5 228.5,-145.5"/>
<text text-anchor="middle" x="283.5" y="-152.5" font-family="Helvetica,sans-Serif" font-size="10.00">findpts_el_gedge_3</text>
</a>
</g>
</g>
<!-- Node7&#45;&gt;Node5 -->
<g id="edge7" class="edge"><title>Node7&#45;&gt;Node5</title>
<path fill="none" stroke="#9a32cd" stroke-dasharray="5,2" d="M283.5,-134.942C283.5,-121.03 283.5,-102.82 283.5,-92.2154"/>
<polygon fill="#9a32cd" stroke="#9a32cd" points="280,-135.355 283.5,-145.355 287,-135.355 280,-135.355"/>
<text text-anchor="middle" x="297.5" y="-119" font-family="Helvetica,sans-Serif" font-size="10.00"> edge</text>
</g>
<!-- Node8 -->
<g id="node8" class="node"><title>Node8</title>
<g id="a_node8"><a xlink:href="structfindpts__el__gpt__3.html" target="_top" xlink:title="findpts_el_gpt_3">
<polygon fill="white" stroke="black" points="357,-145.5 357,-164.5 452,-164.5 452,-145.5 357,-145.5"/>
<text text-anchor="middle" x="404.5" y="-152.5" font-family="Helvetica,sans-Serif" font-size="10.00">findpts_el_gpt_3</text>
</a>
</g>
</g>
<!-- Node8&#45;&gt;Node5 -->
<g id="edge8" class="edge"><title>Node8&#45;&gt;Node5</title>
<path fill="none" stroke="#9a32cd" stroke-dasharray="5,2" d="M381.007,-140.312C356.591,-126.086 319.117,-104.252 298.458,-92.2154"/>
<polygon fill="#9a32cd" stroke="#9a32cd" points="379.261,-143.345 389.663,-145.355 382.785,-137.297 379.261,-143.345"/>
<text text-anchor="middle" x="362" y="-119" font-family="Helvetica,sans-Serif" font-size="10.00"> pt</text>
</g>
<!-- Node9 -->
<g id="node9" class="node"><title>Node9</title>
<g id="a_node9"><a xlink:href="structfindpts__el__pt__3.html" target="_top" xlink:title="findpts_el_pt_3">
<polygon fill="white" stroke="black" points="470,-145.5 470,-164.5 559,-164.5 559,-145.5 470,-145.5"/>
<text text-anchor="middle" x="514.5" y="-152.5" font-family="Helvetica,sans-Serif" font-size="10.00">findpts_el_pt_3</text>
</a>
</g>
</g>
<!-- Node9&#45;&gt;Node5 -->
<g id="edge9" class="edge"><title>Node9&#45;&gt;Node5</title>
<path fill="none" stroke="#9a32cd" stroke-dasharray="5,2" d="M476.97,-142.546C430.632,-128.404 352.885,-104.676 311.463,-92.0341"/>
<polygon fill="#9a32cd" stroke="#9a32cd" points="476.05,-145.925 486.636,-145.496 478.093,-139.229 476.05,-145.925"/>
<text text-anchor="middle" x="425.5" y="-119" font-family="Helvetica,sans-Serif" font-size="10.00"> p</text>
</g>
</g>
</svg>
        <g id="navigator" transform="translate(0 0)" fill="#404254">
                <rect fill="#f2f5e9" fill-opacity="0.5" stroke="#606060" stroke-width=".5" x="0" y="0" width="60" height="60"/>
                <use id="zoomplus" xlink:href="#zoomPlus" x="17" y="9" onmousedown="handleZoom(evt,'in')"/>
                <use id="zoomminus" xlink:href="#zoomMin" x="42" y="9" onmousedown="handleZoom(evt,'out')"/>
                <use id="reset" xlink:href="#resetDef" x="30" y="36" onmousedown="handleReset()"/>
                <g id="arrowUp" xlink:href="#dirArrow" transform="translate(30 24)" onmousedown="handlePan(0,-1)">
                  <use xlink:href="#rim" fill="#404040">
                        <set attributeName="fill" to="#808080" begin="arrowUp.mouseover" end="arrowUp.mouseout"/>
                  </use>
                  <path fill="none" stroke="white" stroke-width="1.5" d="M0,-3.0v7 M-2.5,-0.5L0,-3.0L2.5,-0.5"/>
                </g>
                <g id="arrowRight" xlink:href="#dirArrow" transform="rotate(90) translate(36 -43)" onmousedown="handlePan(1,0)">
                  <use xlink:href="#rim" fill="#404040">
                        <set attributeName="fill" to="#808080" begin="arrowRight.mouseover" end="arrowRight.mouseout"/>
                  </use>
                  <path fill="none" stroke="white" stroke-width="1.5" d="M0,-3.0v7 M-2.5,-0.5L0,-3.0L2.5,-0.5"/>
                </g>
                <g id="arrowDown" xlink:href="#dirArrow" transform="rotate(180) translate(-30 -48)" onmousedown="handlePan(0,1)">
                  <use xlink:href="#rim" fill="#404040">
                        <set attributeName="fill" to="#808080" begin="arrowDown.mouseover" end="arrowDown.mouseout"/>
                  </use>
                  <path fill="none" stroke="white" stroke-width="1.5" d="M0,-3.0v7 M-2.5,-0.5L0,-3.0L2.5,-0.5"/>
                </g>
                <g id="arrowLeft" xlink:href="#dirArrow" transform="rotate(270) translate(-36 17)" onmousedown="handlePan(-1,0)">
                  <use xlink:href="#rim" fill="#404040">
                        <set attributeName="fill" to="#808080" begin="arrowLeft.mouseover" end="arrowLeft.mouseout"/>
                  </use>
                  <path fill="none" stroke="white" stroke-width="1.5" d="M0,-3.0v7 M-2.5,-0.5L0,-3.0L2.5,-0.5"/>
                </g>
        </g>
        <svg viewBox="0 0 15 15" width="100%" height="30px" preserveAspectRatio="xMaxYMin meet">
         <g id="arrow_out" transform="scale(0.3 0.3)">
          <a xlink:href="structfindpts__local__data__3__coll__graph_org.svg" target="_base">
           <rect id="button" ry="5" rx="5" y="6" x="6" height="38" width="38"
                fill="#f2f5e9" fill-opacity="0.5" stroke="#606060" stroke-width="1.0"/>
           <path id="arrow"
             d="M 11.500037,31.436501 C 11.940474,20.09759 22.043105,11.32322 32.158766,21.979434 L 37.068811,17.246167 C 37.068811,17.246167 37.088388,32 37.088388,32 L 22.160133,31.978069 C 22.160133,31.978069 26.997745,27.140456 26.997745,27.140456 C 18.528582,18.264221 13.291696,25.230495 11.500037,31.436501 z"
             style="fill:#404040;"/>
          </a>
         </g>
        </svg>
</svg>
