<?xml version="1.0" encoding="UTF-8" standalone="no"?>
<!DOCTYPE svg PUBLIC "-//W3C//DTD SVG 1.1//EN"
 "http://www.w3.org/Graphics/SVG/1.1/DTD/svg11.dtd">
<!-- Generated by graphviz version 2.38.0 (20140413.2041)
 -->
<!-- Title: vprops Pages: 1 -->
<svg width="378pt" height="218pt"
 viewBox="0.00 0.00 378.00 218.00" xmlns="http://www.w3.org/2000/svg" xmlns:xlink="http://www.w3.org/1999/xlink">
<g id="graph0" class="graph" transform="scale(1 1) rotate(0) translate(4 214)">
<title>vprops</title>
<polygon fill="white" stroke="none" points="-4,4 -4,-214 374,-214 374,4 -4,4"/>
<!-- Node1 -->
<g id="node1" class="node"><title>Node1</title>
<polygon fill="#bfbfbf" stroke="black" points="0,-95.5 0,-114.5 49,-114.5 49,-95.5 0,-95.5"/>
<text text-anchor="middle" x="24.5" y="-102.5" font-family="Helvetica,sans-Serif" font-size="10.00">vprops</text>
</g>
<!-- Node2 -->
<g id="node2" class="node"><title>Node2</title>
<g id="a_node2"><a xlink:href="byte_8c.html#a2da8eeb074dfd3ffbfb3e9a4d301cda4" target="_top" xlink:title="exitt">
<polygon fill="white" stroke="black" points="85,-95.5 85,-114.5 121,-114.5 121,-95.5 85,-95.5"/>
<text text-anchor="middle" x="103" y="-102.5" font-family="Helvetica,sans-Serif" font-size="10.00">exitt</text>
</a>
</g>
</g>
<!-- Node1&#45;&gt;Node2 -->
<g id="edge1" class="edge"><title>Node1&#45;&gt;Node2</title>
<path fill="none" stroke="midnightblue" d="M49.2857,-105C57.215,-105 66.1167,-105 74.3157,-105"/>
<polygon fill="midnightblue" stroke="midnightblue" points="74.5483,-108.5 84.5482,-105 74.5482,-101.5 74.5483,-108.5"/>
</g>
<!-- Node3 -->
<g id="node3" class="node"><title>Node3</title>
<g id="a_node3"><a xlink:href="classctimer.html#abcecbc845c8ee72e13a19eaa30b80d77" target="_top" xlink:title="ctimer::dnekclock">
<polygon fill="white" stroke="black" points="157,-190.5 157,-209.5 254,-209.5 254,-190.5 157,-190.5"/>
<text text-anchor="middle" x="205.5" y="-197.5" font-family="Helvetica,sans-Serif" font-size="10.00">ctimer::dnekclock</text>
</a>
</g>
</g>
<!-- Node2&#45;&gt;Node3 -->
<g id="edge2" class="edge"><title>Node2&#45;&gt;Node3</title>
<path fill="none" stroke="midnightblue" d="M108.342,-114.51C116.022,-130.363 133.444,-162.293 157,-181 159.069,-182.643 161.299,-184.161 163.624,-185.561"/>
<polygon fill="midnightblue" stroke="midnightblue" points="162.438,-188.888 172.926,-190.387 165.661,-182.675 162.438,-188.888"/>
</g>
<!-- Node5 -->
<g id="node5" class="node"><title>Node5</title>
<g id="a_node5"><a xlink:href="subs1_8F90.html#a339739b88994e5bb12bd923147f94983" target="_top" xlink:title="flush_io">
<polygon fill="white" stroke="black" points="179,-152.5 179,-171.5 232,-171.5 232,-152.5 179,-152.5"/>
<text text-anchor="middle" x="205.5" y="-159.5" font-family="Helvetica,sans-Serif" font-size="10.00">flush_io</text>
</a>
</g>
</g>
<!-- Node2&#45;&gt;Node5 -->
<g id="edge4" class="edge"><title>Node2&#45;&gt;Node5</title>
<path fill="none" stroke="midnightblue" d="M115.662,-114.624C126.053,-122.884 141.908,-134.73 157,-143 160.963,-145.171 165.226,-147.23 169.515,-149.135"/>
<polygon fill="midnightblue" stroke="midnightblue" points="168.26,-152.404 178.835,-153.044 170.967,-145.949 168.26,-152.404"/>
</g>
<!-- Node6 -->
<g id="node6" class="node"><title>Node6</title>
<g id="a_node6"><a xlink:href="singlmesh_8F90.html#aef78ff219741b83c1ca784b869e9cacf" target="_top" xlink:title="Dummy for singlmesh. ">
<polygon fill="white" stroke="black" points="165.5,-114.5 165.5,-133.5 245.5,-133.5 245.5,-114.5 165.5,-114.5"/>
<text text-anchor="middle" x="205.5" y="-121.5" font-family="Helvetica,sans-Serif" font-size="10.00">happy_check</text>
</a>
</g>
</g>
<!-- Node2&#45;&gt;Node6 -->
<g id="edge5" class="edge"><title>Node2&#45;&gt;Node6</title>
<path fill="none" stroke="midnightblue" d="M121.048,-108.223C130.499,-110.01 142.785,-112.332 155.011,-114.644"/>
<polygon fill="midnightblue" stroke="midnightblue" points="154.727,-118.152 165.203,-116.571 156.028,-111.274 154.727,-118.152"/>
</g>
<!-- Node7 -->
<g id="node7" class="node"><title>Node7</title>
<g id="a_node7"><a xlink:href="mpi__dummy_8F90.html#a55e9a1619aadb638b14211ce21d7d566" target="_top" xlink:title="mpi_finalize">
<polygon fill="white" stroke="black" points="169.5,-76.5 169.5,-95.5 241.5,-95.5 241.5,-76.5 169.5,-76.5"/>
<text text-anchor="middle" x="205.5" y="-83.5" font-family="Helvetica,sans-Serif" font-size="10.00">mpi_finalize</text>
</a>
</g>
</g>
<!-- Node2&#45;&gt;Node7 -->
<g id="edge6" class="edge"><title>Node2&#45;&gt;Node7</title>
<path fill="none" stroke="midnightblue" d="M121.048,-101.777C131.58,-99.7858 145.634,-97.1288 159.202,-94.5638"/>
<polygon fill="midnightblue" stroke="midnightblue" points="160.24,-97.9296 169.416,-92.6328 158.94,-91.0514 160.24,-97.9296"/>
</g>
<!-- Node8 -->
<g id="node8" class="node"><title>Node8</title>
<g id="a_node8"><a xlink:href="papi_8F90.html#a3a75ccdfbe05912fda48c3b134d114c0" target="_top" xlink:title="nek_flops">
<polygon fill="white" stroke="black" points="174.5,-38.5 174.5,-57.5 236.5,-57.5 236.5,-38.5 174.5,-38.5"/>
<text text-anchor="middle" x="205.5" y="-45.5" font-family="Helvetica,sans-Serif" font-size="10.00">nek_flops</text>
</a>
</g>
</g>
<!-- Node2&#45;&gt;Node8 -->
<g id="edge7" class="edge"><title>Node2&#45;&gt;Node8</title>
<path fill="none" stroke="midnightblue" d="M115.662,-95.3757C126.053,-87.1157 141.908,-75.2698 157,-67 160.493,-65.086 164.22,-63.2596 167.991,-61.5488"/>
<polygon fill="midnightblue" stroke="midnightblue" points="169.53,-64.6976 177.35,-57.5502 166.779,-58.2605 169.53,-64.6976"/>
</g>
<!-- Node10 -->
<g id="node10" class="node"><title>Node10</title>
<g id="a_node10"><a xlink:href="comm__mpi_8F90.html#a4acb4d8e379294232e9219bec063d8f3" target="_top" xlink:title="nekgsync">
<polygon fill="white" stroke="black" points="174.5,-0.5 174.5,-19.5 236.5,-19.5 236.5,-0.5 174.5,-0.5"/>
<text text-anchor="middle" x="205.5" y="-7.5" font-family="Helvetica,sans-Serif" font-size="10.00">nekgsync</text>
</a>
</g>
</g>
<!-- Node2&#45;&gt;Node10 -->
<g id="edge9" class="edge"><title>Node2&#45;&gt;Node10</title>
<path fill="none" stroke="midnightblue" d="M108.342,-95.4898C116.022,-79.6369 133.444,-47.7074 157,-29 159.573,-26.9563 162.395,-25.1064 165.34,-23.437"/>
<polygon fill="midnightblue" stroke="midnightblue" points="166.998,-26.5217 174.417,-18.9572 163.9,-20.2446 166.998,-26.5217"/>
</g>
<!-- Node4 -->
<g id="node4" class="node"><title>Node4</title>
<g id="a_node4"><a xlink:href="mpi__dummy_8F90.html#ae6a5ef945f87c2c27849696b70f3af2a" target="_top" xlink:title="mpi_wtime">
<polygon fill="white" stroke="black" points="297,-190.5 297,-209.5 363,-209.5 363,-190.5 297,-190.5"/>
<text text-anchor="middle" x="330" y="-197.5" font-family="Helvetica,sans-Serif" font-size="10.00">mpi_wtime</text>
</a>
</g>
</g>
<!-- Node3&#45;&gt;Node4 -->
<g id="edge3" class="edge"><title>Node3&#45;&gt;Node4</title>
<path fill="none" stroke="midnightblue" d="M254.212,-200C264.894,-200 276.154,-200 286.603,-200"/>
<polygon fill="midnightblue" stroke="midnightblue" points="286.73,-203.5 296.729,-200 286.729,-196.5 286.73,-203.5"/>
</g>
<!-- Node9 -->
<g id="node9" class="node"><title>Node9</title>
<g id="a_node9"><a xlink:href="papi_8F90.html#a838be3d39e287e29002d5a68c6ad2dd8" target="_top" xlink:title="getflops_papi">
<polygon fill="white" stroke="black" points="290,-38.5 290,-57.5 370,-57.5 370,-38.5 290,-38.5"/>
<text text-anchor="middle" x="330" y="-45.5" font-family="Helvetica,sans-Serif" font-size="10.00">getflops_papi</text>
</a>
</g>
</g>
<!-- Node8&#45;&gt;Node9 -->
<g id="edge8" class="edge"><title>Node8&#45;&gt;Node9</title>
<path fill="none" stroke="midnightblue" d="M236.781,-48C249.666,-48 265.032,-48 279.491,-48"/>
<polygon fill="midnightblue" stroke="midnightblue" points="279.811,-51.5001 289.811,-48 279.811,-44.5001 279.811,-51.5001"/>
</g>
<!-- Node11 -->
<g id="node11" class="node"><title>Node11</title>
<g id="a_node11"><a xlink:href="mpi__dummy_8F90.html#a070afe564196eb48413dbf1a9fbc99aa" target="_top" xlink:title="mpi_barrier">
<polygon fill="white" stroke="black" points="295,-0.5 295,-19.5 365,-19.5 365,-0.5 295,-0.5"/>
<text text-anchor="middle" x="330" y="-7.5" font-family="Helvetica,sans-Serif" font-size="10.00">mpi_barrier</text>
</a>
</g>
</g>
<!-- Node10&#45;&gt;Node11 -->
<g id="edge10" class="edge"><title>Node10&#45;&gt;Node11</title>
<path fill="none" stroke="midnightblue" d="M236.781,-10C251.195,-10 268.714,-10 284.594,-10"/>
<polygon fill="midnightblue" stroke="midnightblue" points="284.745,-13.5001 294.745,-10 284.745,-6.5001 284.745,-13.5001"/>
</g>
</g>
</svg>
