<?xml version="1.0" encoding="UTF-8" standalone="no"?>
<!DOCTYPE svg PUBLIC "-//W3C//DTD SVG 1.1//EN"
 "http://www.w3.org/Graphics/SVG/1.1/DTD/svg11.dtd">
<!-- Generated by graphviz version 2.38.0 (20140413.2041)
 -->
<!-- Title: cvgnlps Pages: 1 -->
<svg width="722pt" height="978pt"
 viewBox="0.00 0.00 722.00 978.00" xmlns="http://www.w3.org/2000/svg" xmlns:xlink="http://www.w3.org/1999/xlink">
<g id="graph0" class="graph" transform="scale(1 1) rotate(0) translate(4 974)">
<title>cvgnlps</title>
<polygon fill="white" stroke="none" points="-4,4 -4,-974 718,-974 718,4 -4,4"/>
<!-- Node1 -->
<g id="node1" class="node"><title>Node1</title>
<polygon fill="#bfbfbf" stroke="black" points="0,-171.5 0,-190.5 53,-190.5 53,-171.5 0,-171.5"/>
<text text-anchor="middle" x="26.5" y="-178.5" font-family="Helvetica,sans-Serif" font-size="10.00">cvgnlps</text>
</g>
<!-- Node2 -->
<g id="node2" class="node"><title>Node2</title>
<g id="a_node2"><a xlink:href="subs1_8F90.html#a8f2e17fa9df4e1df865aa17b294f867c" target="_top" xlink:title="Norm calculation. ">
<polygon fill="white" stroke="black" points="89,-171.5 89,-190.5 135,-190.5 135,-171.5 89,-171.5"/>
<text text-anchor="middle" x="112" y="-178.5" font-family="Helvetica,sans-Serif" font-size="10.00">unorm</text>
</a>
</g>
</g>
<!-- Node1&#45;&gt;Node2 -->
<g id="edge1" class="edge"><title>Node1&#45;&gt;Node2</title>
<path fill="none" stroke="midnightblue" d="M53.0065,-181C61.1215,-181 70.2067,-181 78.7344,-181"/>
<polygon fill="midnightblue" stroke="midnightblue" points="78.7572,-184.5 88.7572,-181 78.7572,-177.5 78.7572,-184.5"/>
</g>
<!-- Node3 -->
<g id="node3" class="node"><title>Node3</title>
<g id="a_node3"><a xlink:href="navier1_8F90.html#a99a692f0ae41114b4725a9cf62458f1f" target="_top" xlink:title="Compute error norms of a (vector) field variable (X1,X2,X3) ">
<polygon fill="white" stroke="black" points="171,-152.5 171,-171.5 222,-171.5 222,-152.5 171,-152.5"/>
<text text-anchor="middle" x="196.5" y="-159.5" font-family="Helvetica,sans-Serif" font-size="10.00">normvc</text>
</a>
</g>
</g>
<!-- Node2&#45;&gt;Node3 -->
<g id="edge2" class="edge"><title>Node2&#45;&gt;Node3</title>
<path fill="none" stroke="midnightblue" d="M135.108,-175.908C142.999,-174.091 152.09,-171.998 160.783,-169.995"/>
<polygon fill="midnightblue" stroke="midnightblue" points="161.751,-173.364 170.711,-167.709 160.18,-166.543 161.751,-173.364"/>
</g>
<!-- Node42 -->
<g id="node42" class="node"><title>Node42</title>
<g id="a_node42"><a xlink:href="navier1_8F90.html#af8f288bd13e9077cfadcd76c95c59dc5" target="_top" xlink:title="Compute error norms of a (scalar) field variable X defined on mesh 1 or mesh 2. The error norms are n...">
<polygon fill="white" stroke="black" points="258,-190.5 258,-209.5 309,-209.5 309,-190.5 258,-190.5"/>
<text text-anchor="middle" x="283.5" y="-197.5" font-family="Helvetica,sans-Serif" font-size="10.00">normsc</text>
</a>
</g>
</g>
<!-- Node2&#45;&gt;Node42 -->
<g id="edge44" class="edge"><title>Node2&#45;&gt;Node42</title>
<path fill="none" stroke="midnightblue" d="M135.159,-183.484C163.743,-186.688 213.788,-192.298 247.528,-196.08"/>
<polygon fill="midnightblue" stroke="midnightblue" points="247.534,-199.602 257.862,-197.238 248.314,-192.646 247.534,-199.602"/>
</g>
<!-- Node4 -->
<g id="node4" class="node"><title>Node4</title>
<g id="a_node4"><a xlink:href="classctimer.html#abcecbc845c8ee72e13a19eaa30b80d77" target="_top" xlink:title="ctimer::dnekclock">
<polygon fill="white" stroke="black" points="515,-133.5 515,-152.5 612,-152.5 612,-133.5 515,-133.5"/>
<text text-anchor="middle" x="563.5" y="-140.5" font-family="Helvetica,sans-Serif" font-size="10.00">ctimer::dnekclock</text>
</a>
</g>
</g>
<!-- Node3&#45;&gt;Node4 -->
<g id="edge3" class="edge"><title>Node3&#45;&gt;Node4</title>
<path fill="none" stroke="midnightblue" d="M222.115,-152.401C232.942,-148.67 245.921,-144.852 258,-143 343.085,-129.954 443.123,-133.504 504.669,-137.816"/>
<polygon fill="midnightblue" stroke="midnightblue" points="504.725,-141.329 514.954,-138.569 505.237,-134.348 504.725,-141.329"/>
</g>
<!-- Node6 -->
<g id="node6" class="node"><title>Node6</title>
<g id="a_node6"><a xlink:href="navier1_8F90.html#aaf82c7bf142ad5f9c363e3dc3c39fa3c" target="_top" xlink:title="OUT = (H1*A+H2*B) * INP. ">
<polygon fill="white" stroke="black" points="263.5,-152.5 263.5,-171.5 303.5,-171.5 303.5,-152.5 263.5,-152.5"/>
<text text-anchor="middle" x="283.5" y="-159.5" font-family="Helvetica,sans-Serif" font-size="10.00">ophx</text>
</a>
</g>
</g>
<!-- Node3&#45;&gt;Node6 -->
<g id="edge5" class="edge"><title>Node3&#45;&gt;Node6</title>
<path fill="none" stroke="midnightblue" d="M222.086,-162C231.838,-162 243.131,-162 253.296,-162"/>
<polygon fill="midnightblue" stroke="midnightblue" points="253.368,-165.5 263.368,-162 253.368,-158.5 253.368,-165.5"/>
</g>
<!-- Node5 -->
<g id="node5" class="node"><title>Node5</title>
<g id="a_node5"><a xlink:href="mpi__dummy_8F90.html#ae6a5ef945f87c2c27849696b70f3af2a" target="_top" xlink:title="mpi_wtime">
<polygon fill="white" stroke="black" points="648,-0.5 648,-19.5 714,-19.5 714,-0.5 648,-0.5"/>
<text text-anchor="middle" x="681" y="-7.5" font-family="Helvetica,sans-Serif" font-size="10.00">mpi_wtime</text>
</a>
</g>
</g>
<!-- Node4&#45;&gt;Node5 -->
<g id="edge4" class="edge"><title>Node4&#45;&gt;Node5</title>
<path fill="none" stroke="midnightblue" d="M569.7,-133.443C581.449,-112.5 611.856,-61.8184 648,-29 649.315,-27.8056 650.718,-26.6485 652.172,-25.5346"/>
<polygon fill="midnightblue" stroke="midnightblue" points="654.526,-28.1682 660.848,-19.6663 650.604,-22.3701 654.526,-28.1682"/>
</g>
<!-- Node7 -->
<g id="node7" class="node"><title>Node7</title>
<g id="a_node7"><a xlink:href="hmholtz_8F90.html#aa576b5bd623cce50fd6323db12ba5376" target="_top" xlink:title="Compute the (Helmholtz) matrix&#45;vector product, AU = helm1*[A]u + helm2*[B]u, for NEL elements...">
<polygon fill="white" stroke="black" points="345,-171.5 345,-190.5 395,-190.5 395,-171.5 345,-171.5"/>
<text text-anchor="middle" x="370" y="-178.5" font-family="Helvetica,sans-Serif" font-size="10.00">axhelm</text>
</a>
</g>
</g>
<!-- Node6&#45;&gt;Node7 -->
<g id="edge6" class="edge"><title>Node6&#45;&gt;Node7</title>
<path fill="none" stroke="midnightblue" d="M303.674,-166.311C312.899,-168.386 324.242,-170.936 334.872,-173.326"/>
<polygon fill="midnightblue" stroke="midnightblue" points="334.228,-176.769 344.752,-175.548 335.764,-169.939 334.228,-176.769"/>
</g>
<!-- Node7&#45;&gt;Node4 -->
<g id="edge7" class="edge"><title>Node7&#45;&gt;Node4</title>
<path fill="none" stroke="midnightblue" d="M395.273,-172.321C406.096,-168.709 419.071,-164.731 431,-162 454.994,-156.506 481.833,-152.291 504.976,-149.243"/>
<polygon fill="midnightblue" stroke="midnightblue" points="505.51,-152.704 514.986,-147.967 504.624,-145.76 505.51,-152.704"/>
</g>
<!-- Node8 -->
<g id="node8" class="node"><title>Node8</title>
<g id="a_node8"><a xlink:href="mxm__wrapper_8F90.html#ab9ec2260a10061af6ce1c52f3c8a41da" target="_top" xlink:title="Compute matrix&#45;matrix product C = A*B. ">
<polygon fill="white" stroke="black" points="436,-418.5 436,-437.5 474,-437.5 474,-418.5 436,-418.5"/>
<text text-anchor="middle" x="455" y="-425.5" font-family="Helvetica,sans-Serif" font-size="10.00">mxm</text>
</a>
</g>
</g>
<!-- Node7&#45;&gt;Node8 -->
<g id="edge8" class="edge"><title>Node7&#45;&gt;Node8</title>
<path fill="none" stroke="midnightblue" d="M374.254,-190.683C386.624,-227.494 430.868,-359.162 447.562,-408.842"/>
<polygon fill="midnightblue" stroke="midnightblue" points="444.266,-410.02 450.769,-418.384 450.901,-407.79 444.266,-410.02"/>
</g>
<!-- Node41 -->
<g id="node41" class="node"><title>Node41</title>
<g id="a_node41"><a xlink:href="hmholtz_8F90.html#a0f322d39d4bdffa3f9ba901f72d4a1d0" target="_top" xlink:title="Set logicals for fast evaluation of A*x. ">
<polygon fill="white" stroke="black" points="431,-171.5 431,-190.5 479,-190.5 479,-171.5 431,-171.5"/>
<text text-anchor="middle" x="455" y="-178.5" font-family="Helvetica,sans-Serif" font-size="10.00">setfast</text>
</a>
</g>
</g>
<!-- Node7&#45;&gt;Node41 -->
<g id="edge42" class="edge"><title>Node7&#45;&gt;Node41</title>
<path fill="none" stroke="midnightblue" d="M395.007,-181C403.04,-181 412.143,-181 420.752,-181"/>
<polygon fill="midnightblue" stroke="midnightblue" points="420.904,-184.5 430.904,-181 420.904,-177.5 420.904,-184.5"/>
</g>
<!-- Node9 -->
<g id="node9" class="node"><title>Node9</title>
<g id="a_node9"><a xlink:href="mxm__std_8F90.html#ac63fe7516a18dc57dfe913ad2c1453be" target="_top" xlink:title="mxm44_0">
<polygon fill="white" stroke="black" points="650,-950.5 650,-969.5 712,-969.5 712,-950.5 650,-950.5"/>
<text text-anchor="middle" x="681" y="-957.5" font-family="Helvetica,sans-Serif" font-size="10.00">mxm44_0</text>
</a>
</g>
</g>
<!-- Node8&#45;&gt;Node9 -->
<g id="edge9" class="edge"><title>Node8&#45;&gt;Node9</title>
<path fill="none" stroke="midnightblue" d="M459.612,-437.777C467.096,-456.771 486.052,-498.903 515,-523 550.585,-552.622 584.129,-524.027 612,-561 663.059,-628.734 602.605,-869.347 648,-941 648.514,-941.812 649.077,-942.594 649.681,-943.346"/>
<polygon fill="midnightblue" stroke="midnightblue" points="647.616,-946.198 657.378,-950.314 652.314,-941.008 647.616,-946.198"/>
</g>
<!-- Node10 -->
<g id="node10" class="node"><title>Node10</title>
<g id="a_node10"><a xlink:href="mxm__std_8F90.html#af07f4b22fdc3488ca321736743f14b01" target="_top" xlink:title="mxm44_2">
<polygon fill="white" stroke="black" points="532.5,-456.5 532.5,-475.5 594.5,-475.5 594.5,-456.5 532.5,-456.5"/>
<text text-anchor="middle" x="563.5" y="-463.5" font-family="Helvetica,sans-Serif" font-size="10.00">mxm44_2</text>
</a>
</g>
</g>
<!-- Node8&#45;&gt;Node10 -->
<g id="edge10" class="edge"><title>Node8&#45;&gt;Node10</title>
<path fill="none" stroke="midnightblue" d="M474.066,-434.446C488.155,-439.473 508.192,-446.623 525.632,-452.845"/>
<polygon fill="midnightblue" stroke="midnightblue" points="524.941,-456.315 535.535,-456.379 527.293,-449.722 524.941,-456.315"/>
</g>
<!-- Node11 -->
<g id="node11" class="node"><title>Node11</title>
<g id="a_node11"><a xlink:href="mxm__bgq_8F90.html#a8a70163b4dbfdbfcce7bff170597fcad" target="_top" xlink:title="mxm_bgq_10">
<polygon fill="white" stroke="black" points="523.5,-418.5 523.5,-437.5 603.5,-437.5 603.5,-418.5 523.5,-418.5"/>
<text text-anchor="middle" x="563.5" y="-425.5" font-family="Helvetica,sans-Serif" font-size="10.00">mxm_bgq_10</text>
</a>
</g>
</g>
<!-- Node8&#45;&gt;Node11 -->
<g id="edge11" class="edge"><title>Node8&#45;&gt;Node11</title>
<path fill="none" stroke="midnightblue" d="M474.066,-428C484.859,-428 499.142,-428 513.073,-428"/>
<polygon fill="midnightblue" stroke="midnightblue" points="513.101,-431.5 523.101,-428 513.101,-424.5 513.101,-431.5"/>
</g>
<!-- Node12 -->
<g id="node12" class="node"><title>Node12</title>
<g id="a_node12"><a xlink:href="mxm__bgq_8F90.html#a27529ace9834454b8906f29e02718629" target="_top" xlink:title="mxm_bgq_12">
<polygon fill="white" stroke="black" points="523.5,-380.5 523.5,-399.5 603.5,-399.5 603.5,-380.5 523.5,-380.5"/>
<text text-anchor="middle" x="563.5" y="-387.5" font-family="Helvetica,sans-Serif" font-size="10.00">mxm_bgq_12</text>
</a>
</g>
</g>
<!-- Node8&#45;&gt;Node12 -->
<g id="edge12" class="edge"><title>Node8&#45;&gt;Node12</title>
<path fill="none" stroke="midnightblue" d="M474.066,-421.554C488.155,-416.527 508.192,-409.377 525.632,-403.155"/>
<polygon fill="midnightblue" stroke="midnightblue" points="527.293,-406.278 535.535,-399.621 524.941,-399.685 527.293,-406.278"/>
</g>
<!-- Node13 -->
<g id="node13" class="node"><title>Node13</title>
<g id="a_node13"><a xlink:href="mxm__bgq_8F90.html#a3fda9ea4bc7a5713a19d6939fa2b541f" target="_top" xlink:title="mxm_bgq_16">
<polygon fill="white" stroke="black" points="523.5,-342.5 523.5,-361.5 603.5,-361.5 603.5,-342.5 523.5,-342.5"/>
<text text-anchor="middle" x="563.5" y="-349.5" font-family="Helvetica,sans-Serif" font-size="10.00">mxm_bgq_16</text>
</a>
</g>
</g>
<!-- Node8&#45;&gt;Node13 -->
<g id="edge13" class="edge"><title>Node8&#45;&gt;Node13</title>
<path fill="none" stroke="midnightblue" d="M463.878,-418.346C474.415,-405.958 494.194,-384.463 515,-371 517.922,-369.109 521.063,-367.352 524.286,-365.732"/>
<polygon fill="midnightblue" stroke="midnightblue" points="525.838,-368.871 533.479,-361.532 522.929,-362.504 525.838,-368.871"/>
</g>
<!-- Node14 -->
<g id="node14" class="node"><title>Node14</title>
<g id="a_node14"><a xlink:href="mxm__bgq_8F90.html#af192c3c8b982aa5bbc2a757156718a91" target="_top" xlink:title="mxm_bgq_6">
<polygon fill="white" stroke="black" points="526.5,-304.5 526.5,-323.5 600.5,-323.5 600.5,-304.5 526.5,-304.5"/>
<text text-anchor="middle" x="563.5" y="-311.5" font-family="Helvetica,sans-Serif" font-size="10.00">mxm_bgq_6</text>
</a>
</g>
</g>
<!-- Node8&#45;&gt;Node14 -->
<g id="edge14" class="edge"><title>Node8&#45;&gt;Node14</title>
<path fill="none" stroke="midnightblue" d="M459.627,-418.241C467.138,-399.279 486.138,-357.2 515,-333 516.965,-331.352 519.091,-329.834 521.317,-328.438"/>
<polygon fill="midnightblue" stroke="midnightblue" points="523.108,-331.449 530.267,-323.638 519.8,-325.281 523.108,-331.449"/>
</g>
<!-- Node15 -->
<g id="node15" class="node"><title>Node15</title>
<g id="a_node15"><a xlink:href="mxm__bgq_8F90.html#a8faaef428336095704ece51624bbfe92" target="_top" xlink:title="mxm_bgq_8">
<polygon fill="white" stroke="black" points="526.5,-570.5 526.5,-589.5 600.5,-589.5 600.5,-570.5 526.5,-570.5"/>
<text text-anchor="middle" x="563.5" y="-577.5" font-family="Helvetica,sans-Serif" font-size="10.00">mxm_bgq_8</text>
</a>
</g>
</g>
<!-- Node8&#45;&gt;Node15 -->
<g id="edge15" class="edge"><title>Node8&#45;&gt;Node15</title>
<path fill="none" stroke="midnightblue" d="M458.105,-437.59C463.621,-460.711 480.513,-520.251 515,-556 518.428,-559.553 522.494,-562.669 526.784,-565.375"/>
<polygon fill="midnightblue" stroke="midnightblue" points="525.325,-568.568 535.767,-570.362 528.723,-562.448 525.325,-568.568"/>
</g>
<!-- Node16 -->
<g id="node16" class="node"><title>Node16</title>
<g id="a_node16"><a xlink:href="mxm__std_8F90.html#aa9e8685c4a72f18fb5d1ee88ed17a3d6" target="_top" xlink:title="unrolled loop version ">
<polygon fill="white" stroke="black" points="540,-494.5 540,-513.5 587,-513.5 587,-494.5 540,-494.5"/>
<text text-anchor="middle" x="563.5" y="-501.5" font-family="Helvetica,sans-Serif" font-size="10.00">mxmf2</text>
</a>
</g>
</g>
<!-- Node8&#45;&gt;Node16 -->
<g id="edge16" class="edge"><title>Node8&#45;&gt;Node16</title>
<path fill="none" stroke="midnightblue" d="M463.878,-437.654C474.415,-450.042 494.194,-471.537 515,-485 519.754,-488.076 525.085,-490.798 530.412,-493.152"/>
<polygon fill="midnightblue" stroke="midnightblue" points="529.288,-496.473 539.87,-496.988 531.919,-489.986 529.288,-496.473"/>
</g>
<!-- Node16&#45;&gt;Node9 -->
<g id="edge41" class="edge"><title>Node16&#45;&gt;Node9</title>
<path fill="none" stroke="midnightblue" d="M587.175,-510.103C596.383,-513.765 606.2,-519.43 612,-528 715.267,-680.593 549.977,-784.987 648,-941 648.511,-941.814 649.071,-942.597 649.672,-943.351"/>
<polygon fill="midnightblue" stroke="midnightblue" points="647.6,-946.197 657.356,-950.328 652.306,-941.015 647.6,-946.197"/>
</g>
<!-- Node17 -->
<g id="node17" class="node"><title>Node17</title>
<g id="a_node17"><a xlink:href="mxm__std_8F90.html#a7d3ac03517b3934b98857b22f7f78788" target="_top" xlink:title="mxf1">
<polygon fill="white" stroke="black" points="661.5,-684.5 661.5,-703.5 700.5,-703.5 700.5,-684.5 661.5,-684.5"/>
<text text-anchor="middle" x="681" y="-691.5" font-family="Helvetica,sans-Serif" font-size="10.00">mxf1</text>
</a>
</g>
</g>
<!-- Node16&#45;&gt;Node17 -->
<g id="edge17" class="edge"><title>Node16&#45;&gt;Node17</title>
<path fill="none" stroke="midnightblue" d="M587.056,-510.751C596.017,-514.494 605.676,-520.044 612,-528 653.852,-580.658 607.961,-620.951 648,-675 649.406,-676.898 651.063,-678.642 652.871,-680.236"/>
<polygon fill="midnightblue" stroke="midnightblue" points="651.261,-683.384 661.451,-686.288 655.296,-677.664 651.261,-683.384"/>
</g>
<!-- Node18 -->
<g id="node18" class="node"><title>Node18</title>
<g id="a_node18"><a xlink:href="mxm__std_8F90.html#a5786b175fcbe28ecafe1d878687c3ccf" target="_top" xlink:title="mxf10">
<polygon fill="white" stroke="black" points="658.5,-646.5 658.5,-665.5 703.5,-665.5 703.5,-646.5 658.5,-646.5"/>
<text text-anchor="middle" x="681" y="-653.5" font-family="Helvetica,sans-Serif" font-size="10.00">mxf10</text>
</a>
</g>
</g>
<!-- Node16&#45;&gt;Node18 -->
<g id="edge18" class="edge"><title>Node16&#45;&gt;Node18</title>
<path fill="none" stroke="midnightblue" d="M587.242,-511.208C596.017,-514.986 605.488,-520.439 612,-528 645.293,-566.658 616.04,-597.233 648,-637 648.936,-638.165 649.964,-639.274 651.06,-640.328"/>
<polygon fill="midnightblue" stroke="midnightblue" points="648.969,-643.136 659.017,-646.496 653.257,-637.603 648.969,-643.136"/>
</g>
<!-- Node19 -->
<g id="node19" class="node"><title>Node19</title>
<g id="a_node19"><a xlink:href="mxm__std_8F90.html#a244c7a41b5b7a22acba71c34552c2774" target="_top" xlink:title="mxf11">
<polygon fill="white" stroke="black" points="658.5,-608.5 658.5,-627.5 703.5,-627.5 703.5,-608.5 658.5,-608.5"/>
<text text-anchor="middle" x="681" y="-615.5" font-family="Helvetica,sans-Serif" font-size="10.00">mxf11</text>
</a>
</g>
</g>
<!-- Node16&#45;&gt;Node19 -->
<g id="edge19" class="edge"><title>Node16&#45;&gt;Node19</title>
<path fill="none" stroke="midnightblue" d="M587.175,-511.936C595.735,-515.775 605.07,-521.08 612,-528 637.035,-553 623.829,-573.164 648,-599 649.048,-600.121 650.178,-601.197 651.364,-602.227"/>
<polygon fill="midnightblue" stroke="midnightblue" points="649.619,-605.286 659.762,-608.348 653.742,-599.629 649.619,-605.286"/>
</g>
<!-- Node20 -->
<g id="node20" class="node"><title>Node20</title>
<g id="a_node20"><a xlink:href="mxm__std_8F90.html#afb2e2cde9040ab037e3586b0deef3851" target="_top" xlink:title="mxf12">
<polygon fill="white" stroke="black" points="658.5,-570.5 658.5,-589.5 703.5,-589.5 703.5,-570.5 658.5,-570.5"/>
<text text-anchor="middle" x="681" y="-577.5" font-family="Helvetica,sans-Serif" font-size="10.00">mxf12</text>
</a>
</g>
</g>
<!-- Node16&#45;&gt;Node20 -->
<g id="edge20" class="edge"><title>Node16&#45;&gt;Node20</title>
<path fill="none" stroke="midnightblue" d="M586.492,-513.556C594.775,-517.55 604.096,-522.536 612,-528 629.854,-540.343 630.576,-548.057 648,-561 649.812,-562.346 651.726,-563.679 653.679,-564.976"/>
<polygon fill="midnightblue" stroke="midnightblue" points="651.975,-568.038 662.309,-570.375 655.688,-562.104 651.975,-568.038"/>
</g>
<!-- Node21 -->
<g id="node21" class="node"><title>Node21</title>
<g id="a_node21"><a xlink:href="mxm__std_8F90.html#a6a048a62b47a5c2327279e158c1689df" target="_top" xlink:title="mxf13">
<polygon fill="white" stroke="black" points="658.5,-532.5 658.5,-551.5 703.5,-551.5 703.5,-532.5 658.5,-532.5"/>
<text text-anchor="middle" x="681" y="-539.5" font-family="Helvetica,sans-Serif" font-size="10.00">mxf13</text>
</a>
</g>
</g>
<!-- Node16&#45;&gt;Node21 -->
<g id="edge21" class="edge"><title>Node16&#45;&gt;Node21</title>
<path fill="none" stroke="midnightblue" d="M587.044,-511.417C604.598,-517.192 629.17,-525.277 648.642,-531.683"/>
<polygon fill="midnightblue" stroke="midnightblue" points="647.703,-535.058 658.295,-534.859 649.89,-528.409 647.703,-535.058"/>
</g>
<!-- Node22 -->
<g id="node22" class="node"><title>Node22</title>
<g id="a_node22"><a xlink:href="mxm__std_8F90.html#a6e57628b882cb8bcac215e9a5b523eed" target="_top" xlink:title="mxf14">
<polygon fill="white" stroke="black" points="658.5,-494.5 658.5,-513.5 703.5,-513.5 703.5,-494.5 658.5,-494.5"/>
<text text-anchor="middle" x="681" y="-501.5" font-family="Helvetica,sans-Serif" font-size="10.00">mxf14</text>
</a>
</g>
</g>
<!-- Node16&#45;&gt;Node22 -->
<g id="edge22" class="edge"><title>Node16&#45;&gt;Node22</title>
<path fill="none" stroke="midnightblue" d="M587.044,-504C604.437,-504 628.72,-504 648.105,-504"/>
<polygon fill="midnightblue" stroke="midnightblue" points="648.295,-507.5 658.295,-504 648.295,-500.5 648.295,-507.5"/>
</g>
<!-- Node23 -->
<g id="node23" class="node"><title>Node23</title>
<g id="a_node23"><a xlink:href="mxm__std_8F90.html#a02e79201be026faf756be00e58334c4f" target="_top" xlink:title="mxf15">
<polygon fill="white" stroke="black" points="658.5,-456.5 658.5,-475.5 703.5,-475.5 703.5,-456.5 658.5,-456.5"/>
<text text-anchor="middle" x="681" y="-463.5" font-family="Helvetica,sans-Serif" font-size="10.00">mxf15</text>
</a>
</g>
</g>
<!-- Node16&#45;&gt;Node23 -->
<g id="edge23" class="edge"><title>Node16&#45;&gt;Node23</title>
<path fill="none" stroke="midnightblue" d="M587.044,-496.583C604.598,-490.808 629.17,-482.723 648.642,-476.317"/>
<polygon fill="midnightblue" stroke="midnightblue" points="649.89,-479.591 658.295,-473.141 647.703,-472.942 649.89,-479.591"/>
</g>
<!-- Node24 -->
<g id="node24" class="node"><title>Node24</title>
<g id="a_node24"><a xlink:href="mxm__std_8F90.html#a2fbea6eeadc258673ba8ea5708593aee" target="_top" xlink:title="mxf16">
<polygon fill="white" stroke="black" points="658.5,-418.5 658.5,-437.5 703.5,-437.5 703.5,-418.5 658.5,-418.5"/>
<text text-anchor="middle" x="681" y="-425.5" font-family="Helvetica,sans-Serif" font-size="10.00">mxf16</text>
</a>
</g>
</g>
<!-- Node16&#45;&gt;Node24 -->
<g id="edge24" class="edge"><title>Node16&#45;&gt;Node24</title>
<path fill="none" stroke="midnightblue" d="M587.25,-497.17C595.442,-494.139 604.505,-490.089 612,-485 631.247,-471.932 629.824,-461.522 648,-447 649.59,-445.73 651.273,-444.484 653.003,-443.277"/>
<polygon fill="midnightblue" stroke="midnightblue" points="655.293,-445.966 661.817,-437.618 651.511,-440.075 655.293,-445.966"/>
</g>
<!-- Node25 -->
<g id="node25" class="node"><title>Node25</title>
<g id="a_node25"><a xlink:href="mxm__std_8F90.html#a3829af481cd230e6aadef08feab9a278" target="_top" xlink:title="mxf17">
<polygon fill="white" stroke="black" points="658.5,-380.5 658.5,-399.5 703.5,-399.5 703.5,-380.5 658.5,-380.5"/>
<text text-anchor="middle" x="681" y="-387.5" font-family="Helvetica,sans-Serif" font-size="10.00">mxf17</text>
</a>
</g>
</g>
<!-- Node16&#45;&gt;Node25 -->
<g id="edge25" class="edge"><title>Node16&#45;&gt;Node25</title>
<path fill="none" stroke="midnightblue" d="M587.247,-498.716C595.817,-495.814 605.14,-491.448 612,-485 639.233,-459.401 622.835,-436.634 648,-409 649.033,-407.865 650.15,-406.778 651.326,-405.738"/>
<polygon fill="midnightblue" stroke="midnightblue" points="653.709,-408.331 659.69,-399.586 649.561,-402.692 653.709,-408.331"/>
</g>
<!-- Node26 -->
<g id="node26" class="node"><title>Node26</title>
<g id="a_node26"><a xlink:href="mxm__std_8F90.html#a48ed8195cc978a87c005b3306a974894" target="_top" xlink:title="mxf18">
<polygon fill="white" stroke="black" points="658.5,-342.5 658.5,-361.5 703.5,-361.5 703.5,-342.5 658.5,-342.5"/>
<text text-anchor="middle" x="681" y="-349.5" font-family="Helvetica,sans-Serif" font-size="10.00">mxf18</text>
</a>
</g>
</g>
<!-- Node16&#45;&gt;Node26 -->
<g id="edge26" class="edge"><title>Node16&#45;&gt;Node26</title>
<path fill="none" stroke="midnightblue" d="M587.229,-499.342C596.001,-496.511 605.475,-492.031 612,-485 648.143,-446.054 614.987,-412.633 648,-371 648.813,-369.975 649.697,-368.993 650.637,-368.054"/>
<polygon fill="midnightblue" stroke="midnightblue" points="652.998,-370.649 658.649,-361.687 648.643,-365.168 652.998,-370.649"/>
</g>
<!-- Node27 -->
<g id="node27" class="node"><title>Node27</title>
<g id="a_node27"><a xlink:href="mxm__std_8F90.html#a28a9857286e11804e1a97875028ecb09" target="_top" xlink:title="mxf19">
<polygon fill="white" stroke="black" points="658.5,-304.5 658.5,-323.5 703.5,-323.5 703.5,-304.5 658.5,-304.5"/>
<text text-anchor="middle" x="681" y="-311.5" font-family="Helvetica,sans-Serif" font-size="10.00">mxf19</text>
</a>
</g>
</g>
<!-- Node16&#45;&gt;Node27 -->
<g id="edge27" class="edge"><title>Node16&#45;&gt;Node27</title>
<path fill="none" stroke="midnightblue" d="M587.002,-499.73C595.954,-496.949 605.621,-492.4 612,-485 657.328,-432.416 606.888,-388.942 648,-333 648.775,-331.946 649.627,-330.939 650.54,-329.98"/>
<polygon fill="midnightblue" stroke="midnightblue" points="652.909,-332.564 658.439,-323.527 648.481,-327.143 652.909,-332.564"/>
</g>
<!-- Node28 -->
<g id="node28" class="node"><title>Node28</title>
<g id="a_node28"><a xlink:href="mxm__std_8F90.html#acd223c583f3a9242fda7a1b8897b624d" target="_top" xlink:title="mxf2">
<polygon fill="white" stroke="black" points="661.5,-266.5 661.5,-285.5 700.5,-285.5 700.5,-266.5 661.5,-266.5"/>
<text text-anchor="middle" x="681" y="-273.5" font-family="Helvetica,sans-Serif" font-size="10.00">mxf2</text>
</a>
</g>
</g>
<!-- Node16&#45;&gt;Node28 -->
<g id="edge28" class="edge"><title>Node16&#45;&gt;Node28</title>
<path fill="none" stroke="midnightblue" d="M587.168,-499.869C596.147,-497.111 605.79,-492.543 612,-485 666.627,-418.647 598.685,-365.391 648,-295 649.355,-293.065 650.976,-291.296 652.76,-289.683"/>
<polygon fill="midnightblue" stroke="midnightblue" points="655.183,-292.254 661.293,-283.599 651.119,-286.555 655.183,-292.254"/>
</g>
<!-- Node29 -->
<g id="node29" class="node"><title>Node29</title>
<g id="a_node29"><a xlink:href="mxm__std_8F90.html#af60059bd60847f48acdf6461fefa3b22" target="_top" xlink:title="mxf20">
<polygon fill="white" stroke="black" points="658.5,-228.5 658.5,-247.5 703.5,-247.5 703.5,-228.5 658.5,-228.5"/>
<text text-anchor="middle" x="681" y="-235.5" font-family="Helvetica,sans-Serif" font-size="10.00">mxf20</text>
</a>
</g>
</g>
<!-- Node16&#45;&gt;Node29 -->
<g id="edge29" class="edge"><title>Node16&#45;&gt;Node29</title>
<path fill="none" stroke="midnightblue" d="M587.281,-499.961C596.28,-497.219 605.907,-492.637 612,-485 675.983,-404.809 590.431,-341.913 648,-257 648.734,-255.917 649.552,-254.887 650.437,-253.907"/>
<polygon fill="midnightblue" stroke="midnightblue" points="652.812,-256.483 658.216,-247.369 648.308,-251.124 652.812,-256.483"/>
</g>
<!-- Node30 -->
<g id="node30" class="node"><title>Node30</title>
<g id="a_node30"><a xlink:href="mxm__std_8F90.html#a825db174c5643aef5e4cdf57067ebbbb" target="_top" xlink:title="mxf21">
<polygon fill="white" stroke="black" points="658.5,-190.5 658.5,-209.5 703.5,-209.5 703.5,-190.5 658.5,-190.5"/>
<text text-anchor="middle" x="681" y="-197.5" font-family="Helvetica,sans-Serif" font-size="10.00">mxf21</text>
</a>
</g>
</g>
<!-- Node16&#45;&gt;Node30 -->
<g id="edge30" class="edge"><title>Node16&#45;&gt;Node30</title>
<path fill="none" stroke="midnightblue" d="M587.364,-500.026C596.376,-497.295 605.991,-492.704 612,-485 685.371,-390.93 582.147,-318.478 648,-219 648.742,-217.879 649.575,-216.814 650.48,-215.805"/>
<polygon fill="midnightblue" stroke="midnightblue" points="653.056,-218.212 658.477,-209.11 648.563,-212.845 653.056,-218.212"/>
</g>
<!-- Node31 -->
<g id="node31" class="node"><title>Node31</title>
<g id="a_node31"><a xlink:href="mxm__std_8F90.html#a1f2059cb835b2818aef861f2f59a0a72" target="_top" xlink:title="mxf22">
<polygon fill="white" stroke="black" points="658.5,-152.5 658.5,-171.5 703.5,-171.5 703.5,-152.5 658.5,-152.5"/>
<text text-anchor="middle" x="681" y="-159.5" font-family="Helvetica,sans-Serif" font-size="10.00">mxf22</text>
</a>
</g>
</g>
<!-- Node16&#45;&gt;Node31 -->
<g id="edge31" class="edge"><title>Node16&#45;&gt;Node31</title>
<path fill="none" stroke="midnightblue" d="M587.426,-500.075C596.45,-497.352 606.056,-492.754 612,-485 694.78,-377.026 573.845,-295.071 648,-181 648.733,-179.873 649.558,-178.803 650.456,-177.789"/>
<polygon fill="midnightblue" stroke="midnightblue" points="653.032,-180.195 658.427,-171.077 648.523,-174.841 653.032,-180.195"/>
</g>
<!-- Node32 -->
<g id="node32" class="node"><title>Node32</title>
<g id="a_node32"><a xlink:href="mxm__std_8F90.html#a3dc6491b8d44b702dbbb13a01f887c59" target="_top" xlink:title="mxf23">
<polygon fill="white" stroke="black" points="658.5,-114.5 658.5,-133.5 703.5,-133.5 703.5,-114.5 658.5,-114.5"/>
<text text-anchor="middle" x="681" y="-121.5" font-family="Helvetica,sans-Serif" font-size="10.00">mxf23</text>
</a>
</g>
</g>
<!-- Node16&#45;&gt;Node32 -->
<g id="edge32" class="edge"><title>Node16&#45;&gt;Node32</title>
<path fill="none" stroke="midnightblue" d="M587.476,-500.112C596.507,-497.396 606.106,-492.792 612,-485 704.202,-363.104 565.532,-271.682 648,-143 648.726,-141.868 649.545,-140.794 650.437,-139.777"/>
<polygon fill="midnightblue" stroke="midnightblue" points="653.013,-142.182 658.387,-133.051 648.492,-136.838 653.013,-142.182"/>
</g>
<!-- Node33 -->
<g id="node33" class="node"><title>Node33</title>
<g id="a_node33"><a xlink:href="mxm__std_8F90.html#af0752c9a61343489900f8d812c6980ed" target="_top" xlink:title="mxf24">
<polygon fill="white" stroke="black" points="658.5,-76.5 658.5,-95.5 703.5,-95.5 703.5,-76.5 658.5,-76.5"/>
<text text-anchor="middle" x="681" y="-83.5" font-family="Helvetica,sans-Serif" font-size="10.00">mxf24</text>
</a>
</g>
</g>
<!-- Node16&#45;&gt;Node33 -->
<g id="edge33" class="edge"><title>Node16&#45;&gt;Node33</title>
<path fill="none" stroke="midnightblue" d="M587.023,-500.288C596.204,-497.597 606.04,-492.965 612,-485 713.634,-349.169 557.209,-248.306 648,-105 648.72,-103.864 649.534,-102.787 650.422,-101.767"/>
<polygon fill="midnightblue" stroke="midnightblue" points="652.998,-104.172 658.356,-95.031 648.467,-98.8358 652.998,-104.172"/>
</g>
<!-- Node34 -->
<g id="node34" class="node"><title>Node34</title>
<g id="a_node34"><a xlink:href="mxm__std_8F90.html#abff718a387aa354f77d0e8b0ffa98867" target="_top" xlink:title="mxf3">
<polygon fill="white" stroke="black" points="661.5,-38.5 661.5,-57.5 700.5,-57.5 700.5,-38.5 661.5,-38.5"/>
<text text-anchor="middle" x="681" y="-45.5" font-family="Helvetica,sans-Serif" font-size="10.00">mxf3</text>
</a>
</g>
</g>
<!-- Node16&#45;&gt;Node34 -->
<g id="edge34" class="edge"><title>Node16&#45;&gt;Node34</title>
<path fill="none" stroke="midnightblue" d="M587.055,-500.312C596.242,-497.626 606.075,-492.99 612,-485 667.536,-410.113 598.441,-145.97 648,-67 649.382,-64.7973 651.121,-62.8175 653.07,-61.0451"/>
<polygon fill="midnightblue" stroke="midnightblue" points="655.181,-63.8392 661.318,-55.2033 651.135,-58.1268 655.181,-63.8392"/>
</g>
<!-- Node35 -->
<g id="node35" class="node"><title>Node35</title>
<g id="a_node35"><a xlink:href="mxm__std_8F90.html#a2f4e4e1b4daebbd4d0580029d0f54016" target="_top" xlink:title="mxf4">
<polygon fill="white" stroke="black" points="661.5,-912.5 661.5,-931.5 700.5,-931.5 700.5,-912.5 661.5,-912.5"/>
<text text-anchor="middle" x="681" y="-919.5" font-family="Helvetica,sans-Serif" font-size="10.00">mxf4</text>
</a>
</g>
</g>
<!-- Node16&#45;&gt;Node35 -->
<g id="edge35" class="edge"><title>Node16&#45;&gt;Node35</title>
<path fill="none" stroke="midnightblue" d="M587.139,-510.128C596.341,-513.794 606.163,-519.455 612,-528 706.447,-666.252 558.305,-761.619 648,-903 649.393,-905.196 651.139,-907.171 653.093,-908.94"/>
<polygon fill="midnightblue" stroke="midnightblue" points="651.163,-911.862 661.349,-914.778 655.204,-906.147 651.163,-911.862"/>
</g>
<!-- Node36 -->
<g id="node36" class="node"><title>Node36</title>
<g id="a_node36"><a xlink:href="mxm__std_8F90.html#a5a6d5c31350c601ba8327b75a72cba0a" target="_top" xlink:title="mxf5">
<polygon fill="white" stroke="black" points="661.5,-874.5 661.5,-893.5 700.5,-893.5 700.5,-874.5 661.5,-874.5"/>
<text text-anchor="middle" x="681" y="-881.5" font-family="Helvetica,sans-Serif" font-size="10.00">mxf5</text>
</a>
</g>
</g>
<!-- Node16&#45;&gt;Node36 -->
<g id="edge36" class="edge"><title>Node16&#45;&gt;Node36</title>
<path fill="none" stroke="midnightblue" d="M587.096,-510.157C596.29,-513.829 606.117,-519.487 612,-528 697.633,-651.921 566.626,-738.242 648,-865 649.405,-867.188 651.159,-869.158 653.118,-870.924"/>
<polygon fill="midnightblue" stroke="midnightblue" points="651.193,-873.85 661.382,-876.756 655.229,-868.131 651.193,-873.85"/>
</g>
<!-- Node37 -->
<g id="node37" class="node"><title>Node37</title>
<g id="a_node37"><a xlink:href="mxm__std_8F90.html#a38a142edde1e72a918d280747a319f7a" target="_top" xlink:title="mxf6">
<polygon fill="white" stroke="black" points="661.5,-836.5 661.5,-855.5 700.5,-855.5 700.5,-836.5 661.5,-836.5"/>
<text text-anchor="middle" x="681" y="-843.5" font-family="Helvetica,sans-Serif" font-size="10.00">mxf6</text>
</a>
</g>
</g>
<!-- Node16&#45;&gt;Node37 -->
<g id="edge37" class="edge"><title>Node16&#45;&gt;Node37</title>
<path fill="none" stroke="midnightblue" d="M587.042,-510.195C596.226,-513.873 606.06,-519.526 612,-528 688.829,-637.602 574.939,-714.851 648,-827 649.42,-829.179 651.184,-831.142 653.149,-832.904"/>
<polygon fill="midnightblue" stroke="midnightblue" points="651.231,-835.834 661.423,-838.73 655.261,-830.111 651.231,-835.834"/>
</g>
<!-- Node38 -->
<g id="node38" class="node"><title>Node38</title>
<g id="a_node38"><a xlink:href="mxm__std_8F90.html#a1919ea16c0a7b4e248e45e983c29d965" target="_top" xlink:title="mxf7">
<polygon fill="white" stroke="black" points="661.5,-798.5 661.5,-817.5 700.5,-817.5 700.5,-798.5 661.5,-798.5"/>
<text text-anchor="middle" x="681" y="-805.5" font-family="Helvetica,sans-Serif" font-size="10.00">mxf7</text>
</a>
</g>
</g>
<!-- Node16&#45;&gt;Node38 -->
<g id="edge38" class="edge"><title>Node16&#45;&gt;Node38</title>
<path fill="none" stroke="midnightblue" d="M587.465,-510.443C596.494,-514.134 606.095,-519.728 612,-528 680.039,-623.303 583.238,-691.44 648,-789 649.438,-791.167 651.215,-793.122 653.189,-794.878"/>
<polygon fill="midnightblue" stroke="midnightblue" points="651.28,-797.814 661.475,-800.695 655.302,-792.085 651.28,-797.814"/>
</g>
<!-- Node39 -->
<g id="node39" class="node"><title>Node39</title>
<g id="a_node39"><a xlink:href="mxm__std_8F90.html#af4bd28930a9d674bbcad09ad75fa81ef" target="_top" xlink:title="mxf8">
<polygon fill="white" stroke="black" points="661.5,-760.5 661.5,-779.5 700.5,-779.5 700.5,-760.5 661.5,-760.5"/>
<text text-anchor="middle" x="681" y="-767.5" font-family="Helvetica,sans-Serif" font-size="10.00">mxf8</text>
</a>
</g>
</g>
<!-- Node16&#45;&gt;Node39 -->
<g id="edge39" class="edge"><title>Node16&#45;&gt;Node39</title>
<path fill="none" stroke="midnightblue" d="M587.372,-510.51C596.386,-514.212 606,-519.797 612,-528 671.268,-609.032 591.519,-668.001 648,-751 649.329,-752.953 650.931,-754.736 652.701,-756.357"/>
<polygon fill="midnightblue" stroke="midnightblue" points="651.045,-759.476 661.211,-762.458 655.123,-753.787 651.045,-759.476"/>
</g>
<!-- Node40 -->
<g id="node40" class="node"><title>Node40</title>
<g id="a_node40"><a xlink:href="mxm__std_8F90.html#a8ab38e8d33e92444b748159b82759c27" target="_top" xlink:title="mxf9">
<polygon fill="white" stroke="black" points="661.5,-722.5 661.5,-741.5 700.5,-741.5 700.5,-722.5 661.5,-722.5"/>
<text text-anchor="middle" x="681" y="-729.5" font-family="Helvetica,sans-Serif" font-size="10.00">mxf9</text>
</a>
</g>
</g>
<!-- Node16&#45;&gt;Node40 -->
<g id="edge40" class="edge"><title>Node16&#45;&gt;Node40</title>
<path fill="none" stroke="midnightblue" d="M587.244,-510.605C596.237,-514.323 605.869,-519.894 612,-528 662.531,-594.807 599.768,-644.515 648,-713 649.36,-714.931 650.985,-716.699 652.77,-718.309"/>
<polygon fill="midnightblue" stroke="midnightblue" points="651.132,-721.44 661.308,-724.391 655.194,-715.738 651.132,-721.44"/>
</g>
<!-- Node41&#45;&gt;Node4 -->
<g id="edge43" class="edge"><title>Node41&#45;&gt;Node4</title>
<path fill="none" stroke="midnightblue" d="M479.109,-172.755C492.759,-167.884 510.349,-161.608 525.853,-156.076"/>
<polygon fill="midnightblue" stroke="midnightblue" points="527.435,-159.228 535.677,-152.571 525.082,-152.635 527.435,-159.228"/>
</g>
<!-- Node42&#45;&gt;Node4 -->
<g id="edge46" class="edge"><title>Node42&#45;&gt;Node4</title>
<path fill="none" stroke="midnightblue" d="M309.14,-204.545C346.745,-210.482 420.279,-218.132 479,-200 504.471,-192.135 529.108,-173.541 544.937,-159.715"/>
<polygon fill="midnightblue" stroke="midnightblue" points="547.707,-161.929 552.774,-152.624 543.01,-156.738 547.707,-161.929"/>
</g>
<!-- Node42&#45;&gt;Node7 -->
<g id="edge45" class="edge"><title>Node42&#45;&gt;Node7</title>
<path fill="none" stroke="midnightblue" d="M309.396,-194.402C317.444,-192.593 326.508,-190.554 335.094,-188.624"/>
<polygon fill="midnightblue" stroke="midnightblue" points="335.875,-192.036 344.863,-186.427 334.339,-185.206 335.875,-192.036"/>
</g>
</g>
</svg>
