<?xml version="1.0" encoding="UTF-8" standalone="no"?>
<!DOCTYPE svg PUBLIC "-//W3C//DTD SVG 1.1//EN"
 "http://www.w3.org/Graphics/SVG/1.1/DTD/svg11.dtd">
<!-- Generated by graphviz version 2.38.0 (20140413.2041)
 -->
<!-- Title: cumax Pages: 1 -->
<svg width="423pt" height="940pt"
 viewBox="0.00 0.00 423.00 940.00" xmlns="http://www.w3.org/2000/svg" xmlns:xlink="http://www.w3.org/1999/xlink">
<g id="graph0" class="graph" transform="scale(1 1) rotate(0) translate(4 936)">
<title>cumax</title>
<polygon fill="white" stroke="none" points="-4,4 -4,-936 419,-936 419,4 -4,4"/>
<!-- Node1 -->
<g id="node1" class="node"><title>Node1</title>
<polygon fill="#bfbfbf" stroke="black" points="0,-703.5 0,-722.5 47,-722.5 47,-703.5 0,-703.5"/>
<text text-anchor="middle" x="23.5" y="-710.5" font-family="Helvetica,sans-Serif" font-size="10.00">cumax</text>
</g>
<!-- Node2 -->
<g id="node2" class="node"><title>Node2</title>
<g id="a_node2"><a xlink:href="coef_8F90.html#a82cf1663c9a821049d0aad836343591a" target="_top" xlink:title="Compute global&#45;to&#45;local derivatives on mesh 1. ">
<polygon fill="white" stroke="black" points="83,-703.5 83,-722.5 127,-722.5 127,-703.5 83,-703.5"/>
<text text-anchor="middle" x="105" y="-710.5" font-family="Helvetica,sans-Serif" font-size="10.00">xyzrst</text>
</a>
</g>
</g>
<!-- Node1&#45;&gt;Node2 -->
<g id="edge1" class="edge"><title>Node1&#45;&gt;Node2</title>
<path fill="none" stroke="midnightblue" d="M47.0689,-713C55.032,-713 64.1344,-713 72.6899,-713"/>
<polygon fill="midnightblue" stroke="midnightblue" points="72.7412,-716.5 82.7412,-713 72.7411,-709.5 72.7412,-716.5"/>
</g>
<!-- Node3 -->
<g id="node3" class="node"><title>Node3</title>
<g id="a_node3"><a xlink:href="mxm__wrapper_8F90.html#ab9ec2260a10061af6ce1c52f3c8a41da" target="_top" xlink:title="Compute matrix&#45;matrix product C = A*B. ">
<polygon fill="white" stroke="black" points="163,-703.5 163,-722.5 201,-722.5 201,-703.5 163,-703.5"/>
<text text-anchor="middle" x="182" y="-710.5" font-family="Helvetica,sans-Serif" font-size="10.00">mxm</text>
</a>
</g>
</g>
<!-- Node2&#45;&gt;Node3 -->
<g id="edge2" class="edge"><title>Node2&#45;&gt;Node3</title>
<path fill="none" stroke="midnightblue" d="M127.291,-713C135.208,-713 144.319,-713 152.762,-713"/>
<polygon fill="midnightblue" stroke="midnightblue" points="152.958,-716.5 162.958,-713 152.958,-709.5 152.958,-716.5"/>
</g>
<!-- Node4 -->
<g id="node4" class="node"><title>Node4</title>
<g id="a_node4"><a xlink:href="mxm__std_8F90.html#ac63fe7516a18dc57dfe913ad2c1453be" target="_top" xlink:title="mxm44_0">
<polygon fill="white" stroke="black" points="353,-912.5 353,-931.5 415,-931.5 415,-912.5 353,-912.5"/>
<text text-anchor="middle" x="384" y="-919.5" font-family="Helvetica,sans-Serif" font-size="10.00">mxm44_0</text>
</a>
</g>
</g>
<!-- Node3&#45;&gt;Node4 -->
<g id="edge3" class="edge"><title>Node3&#45;&gt;Node4</title>
<path fill="none" stroke="midnightblue" d="M185.582,-722.551C191.623,-743.48 208.376,-794.138 237,-827 269.221,-863.991 319.231,-892.248 351.548,-907.986"/>
<polygon fill="midnightblue" stroke="midnightblue" points="350.436,-911.333 360.97,-912.465 353.441,-905.011 350.436,-911.333"/>
</g>
<!-- Node5 -->
<g id="node5" class="node"><title>Node5</title>
<g id="a_node5"><a xlink:href="mxm__std_8F90.html#af07f4b22fdc3488ca321736743f14b01" target="_top" xlink:title="mxm44_2">
<polygon fill="white" stroke="black" points="246,-798.5 246,-817.5 308,-817.5 308,-798.5 246,-798.5"/>
<text text-anchor="middle" x="277" y="-805.5" font-family="Helvetica,sans-Serif" font-size="10.00">mxm44_2</text>
</a>
</g>
</g>
<!-- Node3&#45;&gt;Node5 -->
<g id="edge4" class="edge"><title>Node3&#45;&gt;Node5</title>
<path fill="none" stroke="midnightblue" d="M187.753,-722.573C195.935,-738.234 214.036,-769.532 237,-789 238.727,-790.464 240.586,-791.846 242.523,-793.146"/>
<polygon fill="midnightblue" stroke="midnightblue" points="240.941,-796.275 251.338,-798.31 244.479,-790.235 240.941,-796.275"/>
</g>
<!-- Node6 -->
<g id="node6" class="node"><title>Node6</title>
<g id="a_node6"><a xlink:href="mxm__bgq_8F90.html#a8a70163b4dbfdbfcce7bff170597fcad" target="_top" xlink:title="mxm_bgq_10">
<polygon fill="white" stroke="black" points="237,-760.5 237,-779.5 317,-779.5 317,-760.5 237,-760.5"/>
<text text-anchor="middle" x="277" y="-767.5" font-family="Helvetica,sans-Serif" font-size="10.00">mxm_bgq_10</text>
</a>
</g>
</g>
<!-- Node3&#45;&gt;Node6 -->
<g id="edge5" class="edge"><title>Node3&#45;&gt;Node6</title>
<path fill="none" stroke="midnightblue" d="M195.491,-722.654C206.198,-730.715 222.192,-742.259 237,-751 239.702,-752.595 242.557,-754.174 245.444,-755.7"/>
<polygon fill="midnightblue" stroke="midnightblue" points="244.123,-758.954 254.626,-760.348 247.285,-752.709 244.123,-758.954"/>
</g>
<!-- Node7 -->
<g id="node7" class="node"><title>Node7</title>
<g id="a_node7"><a xlink:href="mxm__bgq_8F90.html#a27529ace9834454b8906f29e02718629" target="_top" xlink:title="mxm_bgq_12">
<polygon fill="white" stroke="black" points="237,-722.5 237,-741.5 317,-741.5 317,-722.5 237,-722.5"/>
<text text-anchor="middle" x="277" y="-729.5" font-family="Helvetica,sans-Serif" font-size="10.00">mxm_bgq_12</text>
</a>
</g>
</g>
<!-- Node3&#45;&gt;Node7 -->
<g id="edge6" class="edge"><title>Node3&#45;&gt;Node7</title>
<path fill="none" stroke="midnightblue" d="M201.374,-716.754C208.838,-718.279 217.85,-720.12 226.993,-721.988"/>
<polygon fill="midnightblue" stroke="midnightblue" points="226.398,-725.439 236.897,-724.011 227.8,-718.58 226.398,-725.439"/>
</g>
<!-- Node8 -->
<g id="node8" class="node"><title>Node8</title>
<g id="a_node8"><a xlink:href="mxm__bgq_8F90.html#a3fda9ea4bc7a5713a19d6939fa2b541f" target="_top" xlink:title="mxm_bgq_16">
<polygon fill="white" stroke="black" points="237,-684.5 237,-703.5 317,-703.5 317,-684.5 237,-684.5"/>
<text text-anchor="middle" x="277" y="-691.5" font-family="Helvetica,sans-Serif" font-size="10.00">mxm_bgq_16</text>
</a>
</g>
</g>
<!-- Node3&#45;&gt;Node8 -->
<g id="edge7" class="edge"><title>Node3&#45;&gt;Node8</title>
<path fill="none" stroke="midnightblue" d="M201.374,-709.246C208.838,-707.721 217.85,-705.88 226.993,-704.012"/>
<polygon fill="midnightblue" stroke="midnightblue" points="227.8,-707.42 236.897,-701.989 226.398,-700.561 227.8,-707.42"/>
</g>
<!-- Node9 -->
<g id="node9" class="node"><title>Node9</title>
<g id="a_node9"><a xlink:href="mxm__bgq_8F90.html#af192c3c8b982aa5bbc2a757156718a91" target="_top" xlink:title="mxm_bgq_6">
<polygon fill="white" stroke="black" points="240,-646.5 240,-665.5 314,-665.5 314,-646.5 240,-646.5"/>
<text text-anchor="middle" x="277" y="-653.5" font-family="Helvetica,sans-Serif" font-size="10.00">mxm_bgq_6</text>
</a>
</g>
</g>
<!-- Node3&#45;&gt;Node9 -->
<g id="edge8" class="edge"><title>Node3&#45;&gt;Node9</title>
<path fill="none" stroke="midnightblue" d="M195.491,-703.346C206.198,-695.285 222.192,-683.741 237,-675 239.702,-673.405 242.557,-671.826 245.444,-670.3"/>
<polygon fill="midnightblue" stroke="midnightblue" points="247.285,-673.291 254.626,-665.652 244.123,-667.046 247.285,-673.291"/>
</g>
<!-- Node10 -->
<g id="node10" class="node"><title>Node10</title>
<g id="a_node10"><a xlink:href="mxm__bgq_8F90.html#a8faaef428336095704ece51624bbfe92" target="_top" xlink:title="mxm_bgq_8">
<polygon fill="white" stroke="black" points="240,-608.5 240,-627.5 314,-627.5 314,-608.5 240,-608.5"/>
<text text-anchor="middle" x="277" y="-615.5" font-family="Helvetica,sans-Serif" font-size="10.00">mxm_bgq_8</text>
</a>
</g>
</g>
<!-- Node3&#45;&gt;Node10 -->
<g id="edge9" class="edge"><title>Node3&#45;&gt;Node10</title>
<path fill="none" stroke="midnightblue" d="M187.753,-703.427C195.935,-687.766 214.036,-656.468 237,-637 238.727,-635.536 240.586,-634.154 242.523,-632.854"/>
<polygon fill="midnightblue" stroke="midnightblue" points="244.479,-635.765 251.338,-627.69 240.941,-629.725 244.479,-635.765"/>
</g>
<!-- Node11 -->
<g id="node11" class="node"><title>Node11</title>
<g id="a_node11"><a xlink:href="mxm__std_8F90.html#aa9e8685c4a72f18fb5d1ee88ed17a3d6" target="_top" xlink:title="unrolled loop version ">
<polygon fill="white" stroke="black" points="253.5,-475.5 253.5,-494.5 300.5,-494.5 300.5,-475.5 253.5,-475.5"/>
<text text-anchor="middle" x="277" y="-482.5" font-family="Helvetica,sans-Serif" font-size="10.00">mxmf2</text>
</a>
</g>
</g>
<!-- Node3&#45;&gt;Node11 -->
<g id="edge10" class="edge"><title>Node3&#45;&gt;Node11</title>
<path fill="none" stroke="midnightblue" d="M186.878,-703.493C200.91,-669.091 249.217,-550.661 268.227,-504.057"/>
<polygon fill="midnightblue" stroke="midnightblue" points="271.57,-505.128 272.106,-494.547 265.088,-502.485 271.57,-505.128"/>
</g>
<!-- Node11&#45;&gt;Node4 -->
<g id="edge35" class="edge"><title>Node11&#45;&gt;Node4</title>
<path fill="none" stroke="midnightblue" d="M282.046,-494.559C290.058,-513.901 307.949,-559.227 317,-599 347.189,-731.664 280.493,-787.875 353,-903 353.591,-903.939 354.248,-904.84 354.958,-905.703"/>
<polygon fill="midnightblue" stroke="midnightblue" points="352.687,-908.369 362.45,-912.484 357.384,-903.179 352.687,-908.369"/>
</g>
<!-- Node12 -->
<g id="node12" class="node"><title>Node12</title>
<g id="a_node12"><a xlink:href="mxm__std_8F90.html#a7d3ac03517b3934b98857b22f7f78788" target="_top" xlink:title="mxf1">
<polygon fill="white" stroke="black" points="364.5,-874.5 364.5,-893.5 403.5,-893.5 403.5,-874.5 364.5,-874.5"/>
<text text-anchor="middle" x="384" y="-881.5" font-family="Helvetica,sans-Serif" font-size="10.00">mxf1</text>
</a>
</g>
</g>
<!-- Node11&#45;&gt;Node12 -->
<g id="edge11" class="edge"><title>Node11&#45;&gt;Node12</title>
<path fill="none" stroke="midnightblue" d="M281.99,-494.572C289.901,-513.938 307.619,-559.304 317,-599 344.438,-715.102 288.584,-764.585 353,-865 353.961,-866.498 355.087,-867.9 356.329,-869.209"/>
<polygon fill="midnightblue" stroke="midnightblue" points="354.379,-872.134 364.357,-875.697 358.78,-866.689 354.379,-872.134"/>
</g>
<!-- Node13 -->
<g id="node13" class="node"><title>Node13</title>
<g id="a_node13"><a xlink:href="mxm__std_8F90.html#a5786b175fcbe28ecafe1d878687c3ccf" target="_top" xlink:title="mxf10">
<polygon fill="white" stroke="black" points="361.5,-836.5 361.5,-855.5 406.5,-855.5 406.5,-836.5 361.5,-836.5"/>
<text text-anchor="middle" x="384" y="-843.5" font-family="Helvetica,sans-Serif" font-size="10.00">mxf10</text>
</a>
</g>
</g>
<!-- Node11&#45;&gt;Node13 -->
<g id="edge12" class="edge"><title>Node11&#45;&gt;Node13</title>
<path fill="none" stroke="midnightblue" d="M281.915,-494.59C289.692,-513.988 307.181,-559.41 317,-599 341.696,-698.572 296.658,-741.268 353,-827 353.609,-827.927 354.282,-828.818 355.004,-829.673"/>
<polygon fill="midnightblue" stroke="midnightblue" points="352.769,-832.37 362.562,-836.412 357.428,-827.145 352.769,-832.37"/>
</g>
<!-- Node14 -->
<g id="node14" class="node"><title>Node14</title>
<g id="a_node14"><a xlink:href="mxm__std_8F90.html#a244c7a41b5b7a22acba71c34552c2774" target="_top" xlink:title="mxf11">
<polygon fill="white" stroke="black" points="361.5,-798.5 361.5,-817.5 406.5,-817.5 406.5,-798.5 361.5,-798.5"/>
<text text-anchor="middle" x="384" y="-805.5" font-family="Helvetica,sans-Serif" font-size="10.00">mxf11</text>
</a>
</g>
</g>
<!-- Node11&#45;&gt;Node14 -->
<g id="edge13" class="edge"><title>Node11&#45;&gt;Node14</title>
<path fill="none" stroke="midnightblue" d="M281.812,-494.616C289.404,-514.062 306.575,-559.565 317,-599 338.966,-682.093 304.702,-717.907 353,-789 353.624,-789.918 354.308,-790.801 355.041,-791.649"/>
<polygon fill="midnightblue" stroke="midnightblue" points="352.833,-794.368 362.65,-798.354 357.461,-789.116 352.833,-794.368"/>
</g>
<!-- Node15 -->
<g id="node15" class="node"><title>Node15</title>
<g id="a_node15"><a xlink:href="mxm__std_8F90.html#afb2e2cde9040ab037e3586b0deef3851" target="_top" xlink:title="mxf12">
<polygon fill="white" stroke="black" points="361.5,-760.5 361.5,-779.5 406.5,-779.5 406.5,-760.5 361.5,-760.5"/>
<text text-anchor="middle" x="384" y="-767.5" font-family="Helvetica,sans-Serif" font-size="10.00">mxf12</text>
</a>
</g>
</g>
<!-- Node11&#45;&gt;Node15 -->
<g id="edge14" class="edge"><title>Node11&#45;&gt;Node15</title>
<path fill="none" stroke="midnightblue" d="M281.66,-494.658C288.979,-514.18 305.685,-559.811 317,-599 336.259,-665.7 312.696,-694.472 353,-751 353.745,-752.045 354.567,-753.045 355.449,-754.002"/>
<polygon fill="midnightblue" stroke="midnightblue" points="353.196,-756.68 363.087,-760.477 357.723,-751.341 353.196,-756.68"/>
</g>
<!-- Node16 -->
<g id="node16" class="node"><title>Node16</title>
<g id="a_node16"><a xlink:href="mxm__std_8F90.html#a6a048a62b47a5c2327279e158c1689df" target="_top" xlink:title="mxf13">
<polygon fill="white" stroke="black" points="361.5,-722.5 361.5,-741.5 406.5,-741.5 406.5,-722.5 361.5,-722.5"/>
<text text-anchor="middle" x="384" y="-729.5" font-family="Helvetica,sans-Serif" font-size="10.00">mxf13</text>
</a>
</g>
</g>
<!-- Node11&#45;&gt;Node16 -->
<g id="edge15" class="edge"><title>Node11&#45;&gt;Node16</title>
<path fill="none" stroke="midnightblue" d="M281.417,-494.733C288.298,-514.39 304.256,-560.252 317,-599 333.6,-649.473 320.589,-670.897 353,-713 353.783,-714.017 354.636,-714.994 355.544,-715.931"/>
<polygon fill="midnightblue" stroke="midnightblue" points="353.351,-718.658 363.291,-722.326 357.808,-713.261 353.351,-718.658"/>
</g>
<!-- Node17 -->
<g id="node17" class="node"><title>Node17</title>
<g id="a_node17"><a xlink:href="mxm__std_8F90.html#a6e57628b882cb8bcac215e9a5b523eed" target="_top" xlink:title="mxf14">
<polygon fill="white" stroke="black" points="361.5,-684.5 361.5,-703.5 406.5,-703.5 406.5,-684.5 361.5,-684.5"/>
<text text-anchor="middle" x="384" y="-691.5" font-family="Helvetica,sans-Serif" font-size="10.00">mxf14</text>
</a>
</g>
</g>
<!-- Node11&#45;&gt;Node17 -->
<g id="edge16" class="edge"><title>Node11&#45;&gt;Node17</title>
<path fill="none" stroke="midnightblue" d="M281.383,-494.571C294.325,-531.041 340.596,-660.005 353,-675 353.84,-676.015 354.749,-676.994 355.709,-677.934"/>
<polygon fill="midnightblue" stroke="midnightblue" points="353.792,-680.882 363.792,-684.384 358.158,-675.411 353.792,-680.882"/>
</g>
<!-- Node18 -->
<g id="node18" class="node"><title>Node18</title>
<g id="a_node18"><a xlink:href="mxm__std_8F90.html#a02e79201be026faf756be00e58334c4f" target="_top" xlink:title="mxf15">
<polygon fill="white" stroke="black" points="361.5,-646.5 361.5,-665.5 406.5,-665.5 406.5,-646.5 361.5,-646.5"/>
<text text-anchor="middle" x="384" y="-653.5" font-family="Helvetica,sans-Serif" font-size="10.00">mxf15</text>
</a>
</g>
</g>
<!-- Node11&#45;&gt;Node18 -->
<g id="edge17" class="edge"><title>Node11&#45;&gt;Node18</title>
<path fill="none" stroke="midnightblue" d="M280.715,-494.596C288.373,-520.278 312.275,-591.703 353,-637 354.005,-638.117 355.09,-639.194 356.232,-640.228"/>
<polygon fill="midnightblue" stroke="midnightblue" points="354.248,-643.118 364.321,-646.403 358.496,-637.553 354.248,-643.118"/>
</g>
<!-- Node19 -->
<g id="node19" class="node"><title>Node19</title>
<g id="a_node19"><a xlink:href="mxm__std_8F90.html#a2fbea6eeadc258673ba8ea5708593aee" target="_top" xlink:title="mxf16">
<polygon fill="white" stroke="black" points="361.5,-608.5 361.5,-627.5 406.5,-627.5 406.5,-608.5 361.5,-608.5"/>
<text text-anchor="middle" x="384" y="-615.5" font-family="Helvetica,sans-Serif" font-size="10.00">mxf16</text>
</a>
</g>
</g>
<!-- Node11&#45;&gt;Node19 -->
<g id="edge18" class="edge"><title>Node11&#45;&gt;Node19</title>
<path fill="none" stroke="midnightblue" d="M282.498,-494.523C292.707,-515.398 319.376,-565.954 353,-599 354.099,-600.08 355.27,-601.131 356.488,-602.147"/>
<polygon fill="midnightblue" stroke="midnightblue" points="354.802,-605.25 364.946,-608.309 358.924,-599.592 354.802,-605.25"/>
</g>
<!-- Node20 -->
<g id="node20" class="node"><title>Node20</title>
<g id="a_node20"><a xlink:href="mxm__std_8F90.html#a3829af481cd230e6aadef08feab9a278" target="_top" xlink:title="mxf17">
<polygon fill="white" stroke="black" points="361.5,-570.5 361.5,-589.5 406.5,-589.5 406.5,-570.5 361.5,-570.5"/>
<text text-anchor="middle" x="384" y="-577.5" font-family="Helvetica,sans-Serif" font-size="10.00">mxf17</text>
</a>
</g>
</g>
<!-- Node11&#45;&gt;Node20 -->
<g id="edge19" class="edge"><title>Node11&#45;&gt;Node20</title>
<path fill="none" stroke="midnightblue" d="M286.158,-494.575C299.316,-509.7 326.441,-539.598 353,-561 354.548,-562.248 356.182,-563.482 357.856,-564.688"/>
<polygon fill="midnightblue" stroke="midnightblue" points="356.092,-567.719 366.344,-570.393 359.997,-561.909 356.092,-567.719"/>
</g>
<!-- Node21 -->
<g id="node21" class="node"><title>Node21</title>
<g id="a_node21"><a xlink:href="mxm__std_8F90.html#a48ed8195cc978a87c005b3306a974894" target="_top" xlink:title="mxf18">
<polygon fill="white" stroke="black" points="361.5,-532.5 361.5,-551.5 406.5,-551.5 406.5,-532.5 361.5,-532.5"/>
<text text-anchor="middle" x="384" y="-539.5" font-family="Helvetica,sans-Serif" font-size="10.00">mxf18</text>
</a>
</g>
</g>
<!-- Node11&#45;&gt;Node21 -->
<g id="edge20" class="edge"><title>Node11&#45;&gt;Node21</title>
<path fill="none" stroke="midnightblue" d="M295.812,-494.669C312.429,-503.69 337.44,-517.267 356.418,-527.57"/>
<polygon fill="midnightblue" stroke="midnightblue" points="354.993,-530.779 365.451,-532.474 358.333,-524.627 354.993,-530.779"/>
</g>
<!-- Node22 -->
<g id="node22" class="node"><title>Node22</title>
<g id="a_node22"><a xlink:href="mxm__std_8F90.html#a28a9857286e11804e1a97875028ecb09" target="_top" xlink:title="mxf19">
<polygon fill="white" stroke="black" points="361.5,-494.5 361.5,-513.5 406.5,-513.5 406.5,-494.5 361.5,-494.5"/>
<text text-anchor="middle" x="384" y="-501.5" font-family="Helvetica,sans-Serif" font-size="10.00">mxf19</text>
</a>
</g>
</g>
<!-- Node11&#45;&gt;Node22 -->
<g id="edge21" class="edge"><title>Node11&#45;&gt;Node22</title>
<path fill="none" stroke="midnightblue" d="M300.525,-489.076C315.256,-491.741 334.721,-495.264 351.041,-498.217"/>
<polygon fill="midnightblue" stroke="midnightblue" points="350.768,-501.724 361.231,-500.061 352.014,-494.836 350.768,-501.724"/>
</g>
<!-- Node23 -->
<g id="node23" class="node"><title>Node23</title>
<g id="a_node23"><a xlink:href="mxm__std_8F90.html#acd223c583f3a9242fda7a1b8897b624d" target="_top" xlink:title="mxf2">
<polygon fill="white" stroke="black" points="364.5,-456.5 364.5,-475.5 403.5,-475.5 403.5,-456.5 364.5,-456.5"/>
<text text-anchor="middle" x="384" y="-463.5" font-family="Helvetica,sans-Serif" font-size="10.00">mxf2</text>
</a>
</g>
</g>
<!-- Node11&#45;&gt;Node23 -->
<g id="edge22" class="edge"><title>Node11&#45;&gt;Node23</title>
<path fill="none" stroke="midnightblue" d="M300.525,-480.924C316.294,-478.071 337.489,-474.235 354.444,-471.167"/>
<polygon fill="midnightblue" stroke="midnightblue" points="355.149,-474.597 364.366,-469.372 353.903,-467.708 355.149,-474.597"/>
</g>
<!-- Node24 -->
<g id="node24" class="node"><title>Node24</title>
<g id="a_node24"><a xlink:href="mxm__std_8F90.html#af60059bd60847f48acdf6461fefa3b22" target="_top" xlink:title="mxf20">
<polygon fill="white" stroke="black" points="361.5,-418.5 361.5,-437.5 406.5,-437.5 406.5,-418.5 361.5,-418.5"/>
<text text-anchor="middle" x="384" y="-425.5" font-family="Helvetica,sans-Serif" font-size="10.00">mxf20</text>
</a>
</g>
</g>
<!-- Node11&#45;&gt;Node24 -->
<g id="edge23" class="edge"><title>Node11&#45;&gt;Node24</title>
<path fill="none" stroke="midnightblue" d="M295.812,-475.331C312.429,-466.31 337.44,-452.733 356.418,-442.43"/>
<polygon fill="midnightblue" stroke="midnightblue" points="358.333,-445.373 365.451,-437.526 354.993,-439.221 358.333,-445.373"/>
</g>
<!-- Node25 -->
<g id="node25" class="node"><title>Node25</title>
<g id="a_node25"><a xlink:href="mxm__std_8F90.html#a825db174c5643aef5e4cdf57067ebbbb" target="_top" xlink:title="mxf21">
<polygon fill="white" stroke="black" points="361.5,-380.5 361.5,-399.5 406.5,-399.5 406.5,-380.5 361.5,-380.5"/>
<text text-anchor="middle" x="384" y="-387.5" font-family="Helvetica,sans-Serif" font-size="10.00">mxf21</text>
</a>
</g>
</g>
<!-- Node11&#45;&gt;Node25 -->
<g id="edge24" class="edge"><title>Node11&#45;&gt;Node25</title>
<path fill="none" stroke="midnightblue" d="M286.158,-475.425C299.316,-460.3 326.441,-430.402 353,-409 354.548,-407.752 356.182,-406.518 357.856,-405.312"/>
<polygon fill="midnightblue" stroke="midnightblue" points="359.997,-408.091 366.344,-399.607 356.092,-402.281 359.997,-408.091"/>
</g>
<!-- Node26 -->
<g id="node26" class="node"><title>Node26</title>
<g id="a_node26"><a xlink:href="mxm__std_8F90.html#a1f2059cb835b2818aef861f2f59a0a72" target="_top" xlink:title="mxf22">
<polygon fill="white" stroke="black" points="361.5,-342.5 361.5,-361.5 406.5,-361.5 406.5,-342.5 361.5,-342.5"/>
<text text-anchor="middle" x="384" y="-349.5" font-family="Helvetica,sans-Serif" font-size="10.00">mxf22</text>
</a>
</g>
</g>
<!-- Node11&#45;&gt;Node26 -->
<g id="edge25" class="edge"><title>Node11&#45;&gt;Node26</title>
<path fill="none" stroke="midnightblue" d="M282.498,-475.477C292.707,-454.602 319.376,-404.046 353,-371 354.099,-369.92 355.27,-368.869 356.488,-367.853"/>
<polygon fill="midnightblue" stroke="midnightblue" points="358.924,-370.408 364.946,-361.691 354.802,-364.75 358.924,-370.408"/>
</g>
<!-- Node27 -->
<g id="node27" class="node"><title>Node27</title>
<g id="a_node27"><a xlink:href="mxm__std_8F90.html#a3dc6491b8d44b702dbbb13a01f887c59" target="_top" xlink:title="mxf23">
<polygon fill="white" stroke="black" points="361.5,-304.5 361.5,-323.5 406.5,-323.5 406.5,-304.5 361.5,-304.5"/>
<text text-anchor="middle" x="384" y="-311.5" font-family="Helvetica,sans-Serif" font-size="10.00">mxf23</text>
</a>
</g>
</g>
<!-- Node11&#45;&gt;Node27 -->
<g id="edge26" class="edge"><title>Node11&#45;&gt;Node27</title>
<path fill="none" stroke="midnightblue" d="M280.715,-475.404C288.373,-449.722 312.275,-378.297 353,-333 354.005,-331.883 355.09,-330.806 356.232,-329.772"/>
<polygon fill="midnightblue" stroke="midnightblue" points="358.496,-332.447 364.321,-323.597 354.248,-326.882 358.496,-332.447"/>
</g>
<!-- Node28 -->
<g id="node28" class="node"><title>Node28</title>
<g id="a_node28"><a xlink:href="mxm__std_8F90.html#af0752c9a61343489900f8d812c6980ed" target="_top" xlink:title="mxf24">
<polygon fill="white" stroke="black" points="361.5,-266.5 361.5,-285.5 406.5,-285.5 406.5,-266.5 361.5,-266.5"/>
<text text-anchor="middle" x="384" y="-273.5" font-family="Helvetica,sans-Serif" font-size="10.00">mxf24</text>
</a>
</g>
</g>
<!-- Node11&#45;&gt;Node28 -->
<g id="edge27" class="edge"><title>Node11&#45;&gt;Node28</title>
<path fill="none" stroke="midnightblue" d="M279.638,-475.225C285.093,-445.214 305.081,-352.931 353,-295 353.84,-293.985 354.749,-293.006 355.709,-292.066"/>
<polygon fill="midnightblue" stroke="midnightblue" points="358.158,-294.589 363.792,-285.616 353.792,-289.118 358.158,-294.589"/>
</g>
<!-- Node29 -->
<g id="node29" class="node"><title>Node29</title>
<g id="a_node29"><a xlink:href="mxm__std_8F90.html#abff718a387aa354f77d0e8b0ffa98867" target="_top" xlink:title="mxf3">
<polygon fill="white" stroke="black" points="364.5,-228.5 364.5,-247.5 403.5,-247.5 403.5,-228.5 364.5,-228.5"/>
<text text-anchor="middle" x="384" y="-235.5" font-family="Helvetica,sans-Serif" font-size="10.00">mxf3</text>
</a>
</g>
</g>
<!-- Node11&#45;&gt;Node29 -->
<g id="edge28" class="edge"><title>Node11&#45;&gt;Node29</title>
<path fill="none" stroke="midnightblue" d="M278.869,-475.24C282.317,-441.502 297.672,-327.994 353,-257 353.947,-255.784 354.996,-254.625 356.117,-253.522"/>
<polygon fill="midnightblue" stroke="midnightblue" points="358.589,-256.029 364.257,-247.077 354.244,-250.541 358.589,-256.029"/>
</g>
<!-- Node30 -->
<g id="node30" class="node"><title>Node30</title>
<g id="a_node30"><a xlink:href="mxm__std_8F90.html#a2f4e4e1b4daebbd4d0580029d0f54016" target="_top" xlink:title="mxf4">
<polygon fill="white" stroke="black" points="364.5,-190.5 364.5,-209.5 403.5,-209.5 403.5,-190.5 364.5,-190.5"/>
<text text-anchor="middle" x="384" y="-197.5" font-family="Helvetica,sans-Serif" font-size="10.00">mxf4</text>
</a>
</g>
</g>
<!-- Node11&#45;&gt;Node30 -->
<g id="edge29" class="edge"><title>Node11&#45;&gt;Node30</title>
<path fill="none" stroke="midnightblue" d="M278.301,-475.47C279.914,-438.635 290.06,-303.443 353,-219 354.039,-217.607 355.212,-216.29 356.478,-215.05"/>
<polygon fill="midnightblue" stroke="midnightblue" points="358.751,-217.715 364.449,-208.783 354.425,-212.212 358.751,-217.715"/>
</g>
<!-- Node31 -->
<g id="node31" class="node"><title>Node31</title>
<g id="a_node31"><a xlink:href="mxm__std_8F90.html#a5a6d5c31350c601ba8327b75a72cba0a" target="_top" xlink:title="mxf5">
<polygon fill="white" stroke="black" points="364.5,-152.5 364.5,-171.5 403.5,-171.5 403.5,-152.5 364.5,-152.5"/>
<text text-anchor="middle" x="384" y="-159.5" font-family="Helvetica,sans-Serif" font-size="10.00">mxf5</text>
</a>
</g>
</g>
<!-- Node11&#45;&gt;Node31 -->
<g id="edge30" class="edge"><title>Node11&#45;&gt;Node31</title>
<path fill="none" stroke="midnightblue" d="M277.886,-475.249C277.889,-434.92 282.642,-278.713 353,-181 354.015,-179.59 355.171,-178.26 356.423,-177.009"/>
<polygon fill="midnightblue" stroke="midnightblue" points="358.698,-179.672 364.356,-170.715 354.347,-174.189 358.698,-179.672"/>
</g>
<!-- Node32 -->
<g id="node32" class="node"><title>Node32</title>
<g id="a_node32"><a xlink:href="mxm__std_8F90.html#a38a142edde1e72a918d280747a319f7a" target="_top" xlink:title="mxf6">
<polygon fill="white" stroke="black" points="364.5,-114.5 364.5,-133.5 403.5,-133.5 403.5,-114.5 364.5,-114.5"/>
<text text-anchor="middle" x="384" y="-121.5" font-family="Helvetica,sans-Serif" font-size="10.00">mxf6</text>
</a>
</g>
</g>
<!-- Node11&#45;&gt;Node32 -->
<g id="edge31" class="edge"><title>Node11&#45;&gt;Node32</title>
<path fill="none" stroke="midnightblue" d="M277.551,-475.244C276.043,-431.929 275.055,-254.273 353,-143 353.997,-141.577 355.138,-140.236 356.38,-138.978"/>
<polygon fill="midnightblue" stroke="midnightblue" points="358.656,-141.64 364.282,-132.662 354.285,-136.172 358.656,-141.64"/>
</g>
<!-- Node33 -->
<g id="node33" class="node"><title>Node33</title>
<g id="a_node33"><a xlink:href="mxm__std_8F90.html#a1919ea16c0a7b4e248e45e983c29d965" target="_top" xlink:title="mxf7">
<polygon fill="white" stroke="black" points="364.5,-76.5 364.5,-95.5 403.5,-95.5 403.5,-76.5 364.5,-76.5"/>
<text text-anchor="middle" x="384" y="-83.5" font-family="Helvetica,sans-Serif" font-size="10.00">mxf7</text>
</a>
</g>
</g>
<!-- Node11&#45;&gt;Node33 -->
<g id="edge32" class="edge"><title>Node11&#45;&gt;Node33</title>
<path fill="none" stroke="midnightblue" d="M278.875,-475.33C283.808,-422.47 309.49,-168.523 353,-105 353.982,-103.566 355.111,-102.218 356.344,-100.954"/>
<polygon fill="midnightblue" stroke="midnightblue" points="358.621,-103.614 364.221,-94.6202 354.235,-98.1584 358.621,-103.614"/>
</g>
<!-- Node34 -->
<g id="node34" class="node"><title>Node34</title>
<g id="a_node34"><a xlink:href="mxm__std_8F90.html#af4bd28930a9d674bbcad09ad75fa81ef" target="_top" xlink:title="mxf8">
<polygon fill="white" stroke="black" points="364.5,-38.5 364.5,-57.5 403.5,-57.5 403.5,-38.5 364.5,-38.5"/>
<text text-anchor="middle" x="384" y="-45.5" font-family="Helvetica,sans-Serif" font-size="10.00">mxf8</text>
</a>
</g>
</g>
<!-- Node11&#45;&gt;Node34 -->
<g id="edge33" class="edge"><title>Node11&#45;&gt;Node34</title>
<path fill="none" stroke="midnightblue" d="M278.673,-475.483C282.753,-419.922 305.592,-137.518 353,-67 353.993,-65.5227 355.144,-64.1369 356.404,-62.8408"/>
<polygon fill="midnightblue" stroke="midnightblue" points="358.856,-65.3621 364.483,-56.3853 354.486,-59.8935 358.856,-65.3621"/>
</g>
<!-- Node35 -->
<g id="node35" class="node"><title>Node35</title>
<g id="a_node35"><a xlink:href="mxm__std_8F90.html#a8ab38e8d33e92444b748159b82759c27" target="_top" xlink:title="mxf9">
<polygon fill="white" stroke="black" points="364.5,-0.5 364.5,-19.5 403.5,-19.5 403.5,-0.5 364.5,-0.5"/>
<text text-anchor="middle" x="384" y="-7.5" font-family="Helvetica,sans-Serif" font-size="10.00">mxf9</text>
</a>
</g>
</g>
<!-- Node11&#45;&gt;Node35 -->
<g id="edge34" class="edge"><title>Node11&#45;&gt;Node35</title>
<path fill="none" stroke="midnightblue" d="M278.521,-475.398C281.859,-416.718 301.749,-106.443 353,-29 353.982,-27.5155 355.125,-26.1241 356.379,-24.8238"/>
<polygon fill="midnightblue" stroke="midnightblue" points="358.83,-27.3444 364.441,-18.3571 354.45,-21.8841 358.83,-27.3444"/>
</g>
</g>
</svg>
