<?xml version="1.0" encoding="UTF-8" standalone="no"?>
<!DOCTYPE svg PUBLIC "-//W3C//DTD SVG 1.1//EN"
 "http://www.w3.org/Graphics/SVG/1.1/DTD/svg11.dtd">
<!-- Generated by graphviz version 2.38.0 (20140413.2041)
 -->
<!-- Title: vprops Pages: 1 -->
<!--zoomable 142 -->
<svg id="main" version="1.1" xmlns="http://www.w3.org/2000/svg" xmlns:xlink="http://www.w3.org/1999/xlink" xml:space="preserve" onload="init(evt)">
<style type="text/css"><![CDATA[
.edge:hover path { stroke: red; }
.edge:hover polygon { stroke: red; fill: red; }
]]></style>
<script type="text/javascript"><![CDATA[
var edges = document.getElementsByTagName('g');
if (edges && edges.length) {
  for (var i=0;i<edges.length;i++) {
    if (edges[i].id.substr(0,4)=='edge') {
      edges[i].setAttribute('class','edge');
    }
  }
}
]]></script>
        <defs>
                <circle id="rim" cx="0" cy="0" r="7"/>
                <circle id="rim2" cx="0" cy="0" r="3.5"/>
                <g id="zoomPlus">
                        <use xlink:href="#rim" fill="#404040">
                                <set attributeName="fill" to="#808080" begin="zoomplus.mouseover" end="zoomplus.mouseout"/>
                        </use>
                        <path d="M-4,0h8M0,-4v8" fill="none" stroke="white" stroke-width="1.5" pointer-events="none"/>
                </g>
                <g id="zoomMin">
                        <use xlink:href="#rim" fill="#404040">
                                <set attributeName="fill" to="#808080" begin="zoomminus.mouseover" end="zoomminus.mouseout"/>
                        </use>
                        <path d="M-4,0h8" fill="none" stroke="white" stroke-width="1.5" pointer-events="none"/>
                </g>
                <g id="dirArrow">
                        <path fill="none" stroke="white" stroke-width="1.5" d="M0,-3.0v7 M-2.5,-0.5L0,-3.0L2.5,-0.5"/>
                </g>
               <g id="resetDef">
                       <use xlink:href="#rim2" fill="#404040">
                               <set attributeName="fill" to="#808080" begin="reset.mouseover" end="reset.mouseout"/>
                       </use>
               </g>
        </defs>

<script type="text/javascript">
var viewWidth = 963;
var viewHeight = 142;
var sectionId = 'dynsection-23';
</script>
<script xlink:href="svgpan.js"/>
<svg id="graph" class="graph">
<g id="viewport">
<title>vprops</title>
<polygon fill="white" stroke="none" points="-4,4 -4,-138 959,-138 959,4 -4,4"/>
<!-- Node1 -->
<g id="node1" class="node"><title>Node1</title>
<polygon fill="#bfbfbf" stroke="black" points="0,-57.5 0,-76.5 49,-76.5 49,-57.5 0,-57.5"/>
<text text-anchor="middle" x="24.5" y="-64.5" font-family="Helvetica,sans-Serif" font-size="10.00">vprops</text>
</g>
<!-- Node2 -->
<g id="node2" class="node"><title>Node2</title>
<g id="a_node2"><a xlink:href="setprop_8F90.html#af114fff998975a6e77422a65106222ca" target="_top" xlink:title="Set variable property arrays. ">
<polygon fill="white" stroke="black" points="85,-57.5 85,-76.5 138,-76.5 138,-57.5 85,-57.5"/>
<text text-anchor="middle" x="111.5" y="-64.5" font-family="Helvetica,sans-Serif" font-size="10.00">setprop</text>
</a>
</g>
</g>
<!-- Node1&#45;&gt;Node2 -->
<g id="edge1" class="edge"><title>Node1&#45;&gt;Node2</title>
<path fill="none" stroke="midnightblue" d="M59.2448,-67C67.7789,-67 76.8053,-67 84.8657,-67"/>
<polygon fill="midnightblue" stroke="midnightblue" points="59.1773,-63.5001 49.1772,-67 59.1772,-70.5001 59.1773,-63.5001"/>
</g>
<!-- Node3 -->
<g id="node3" class="node"><title>Node3</title>
<g id="a_node3"><a xlink:href="makeq__aux_8F90.html#a5175a1919b169361f171b8909a169863" target="_top" xlink:title="makeq_aux">
<polygon fill="white" stroke="black" points="174,-76.5 174,-95.5 245,-95.5 245,-76.5 174,-76.5"/>
<text text-anchor="middle" x="209.5" y="-83.5" font-family="Helvetica,sans-Serif" font-size="10.00">makeq_aux</text>
</a>
</g>
</g>
<!-- Node2&#45;&gt;Node3 -->
<g id="edge2" class="edge"><title>Node2&#45;&gt;Node3</title>
<path fill="none" stroke="midnightblue" d="M148.084,-74.0426C156.446,-75.6976 165.348,-77.4595 173.676,-79.1078"/>
<polygon fill="midnightblue" stroke="midnightblue" points="148.716,-70.5998 138.226,-72.0917 147.356,-77.4666 148.716,-70.5998"/>
</g>
<!-- Node7 -->
<g id="node7" class="node"><title>Node7</title>
<g id="a_node7"><a xlink:href="drive1_8F90.html#ae177ea7efac97f35241521b782a671c0" target="_top" xlink:title="take a single time&#45;step ">
<polygon fill="white" stroke="black" points="540,-73.5 540,-92.5 620,-92.5 620,-73.5 540,-73.5"/>
<text text-anchor="middle" x="580" y="-80.5" font-family="Helvetica,sans-Serif" font-size="10.00">nek_advance</text>
</a>
</g>
</g>
<!-- Node2&#45;&gt;Node7 -->
<g id="edge10" class="edge"><title>Node2&#45;&gt;Node7</title>
<path fill="none" stroke="midnightblue" d="M148.282,-61.3159C186.673,-55.7179 249.489,-48 304,-48 304,-48 304,-48 391,-48 446.775,-48 510.31,-63.0732 547.4,-73.4361"/>
<polygon fill="midnightblue" stroke="midnightblue" points="147.503,-57.8933 138.129,-62.8304 148.536,-64.8167 147.503,-57.8933"/>
</g>
<!-- Node11 -->
<g id="node11" class="node"><title>Node11</title>
<g id="a_node11"><a xlink:href="drive1_8F90.html#a87bd37ae2c18426f28f35cc3f24e4355" target="_top" xlink:title="initialize nek ">
<polygon fill="white" stroke="black" points="451,-0.5 451,-19.5 504,-19.5 504,-0.5 451,-0.5"/>
<text text-anchor="middle" x="477.5" y="-7.5" font-family="Helvetica,sans-Serif" font-size="10.00">nek_init</text>
</a>
</g>
</g>
<!-- Node2&#45;&gt;Node11 -->
<g id="edge11" class="edge"><title>Node2&#45;&gt;Node11</title>
<path fill="none" stroke="midnightblue" d="M135.12,-51.9457C146.338,-45.2569 160.376,-38.0037 174,-34 273.068,-4.88621 397.758,-6.28455 450.765,-8.53929"/>
<polygon fill="midnightblue" stroke="midnightblue" points="133.076,-49.0955 126.431,-57.3479 136.772,-55.0403 133.076,-49.0955"/>
</g>
<!-- Node12 -->
<g id="node12" class="node"><title>Node12</title>
<g id="a_node12"><a xlink:href="subs1_8F90.html#ae9a3fbc5bc373045963d36015efb448d" target="_top" xlink:title="Compute new timestep based on CFL&#45;condition. ">
<polygon fill="white" stroke="black" points="187,-114.5 187,-133.5 232,-133.5 232,-114.5 187,-114.5"/>
<text text-anchor="middle" x="209.5" y="-121.5" font-family="Helvetica,sans-Serif" font-size="10.00">setdtc</text>
</a>
</g>
</g>
<!-- Node2&#45;&gt;Node12 -->
<g id="edge13" class="edge"><title>Node2&#45;&gt;Node12</title>
<path fill="none" stroke="midnightblue" d="M136.052,-81.9351C147.435,-89.0548 161.342,-97.6102 174,-105 179.315,-108.103 185.156,-111.372 190.498,-114.308"/>
<polygon fill="midnightblue" stroke="midnightblue" points="137.866,-78.941 127.536,-76.5827 134.14,-84.8676 137.866,-78.941"/>
</g>
<!-- Node4 -->
<g id="node4" class="node"><title>Node4</title>
<g id="a_node4"><a xlink:href="makeq_8F90.html#ad52d9adde8f010af2d0a8c1a55543eeb" target="_top" xlink:title="Generate forcing function for the solution of a passive scalar. !! NOTE: Do not change the content of...">
<polygon fill="white" stroke="black" points="281,-76.5 281,-95.5 329,-95.5 329,-76.5 281,-76.5"/>
<text text-anchor="middle" x="305" y="-83.5" font-family="Helvetica,sans-Serif" font-size="10.00">makeq</text>
</a>
</g>
</g>
<!-- Node3&#45;&gt;Node4 -->
<g id="edge3" class="edge"><title>Node3&#45;&gt;Node4</title>
<path fill="none" stroke="midnightblue" d="M255.052,-86C264.013,-86 273.083,-86 280.939,-86"/>
<polygon fill="midnightblue" stroke="midnightblue" points="255.05,-82.5001 245.05,-86 255.05,-89.5001 255.05,-82.5001"/>
</g>
<!-- Node5 -->
<g id="node5" class="node"><title>Node5</title>
<g id="a_node5"><a xlink:href="conduct_8F90.html#a74a7f053381975ed36df8ea959f3aa01" target="_top" xlink:title="Solve the convection&#45;diffusion equation for passive scalar IPSCAL. ">
<polygon fill="white" stroke="black" points="366.5,-76.5 366.5,-95.5 413.5,-95.5 413.5,-76.5 366.5,-76.5"/>
<text text-anchor="middle" x="390" y="-83.5" font-family="Helvetica,sans-Serif" font-size="10.00">cdscal</text>
</a>
</g>
</g>
<!-- Node4&#45;&gt;Node5 -->
<g id="edge4" class="edge"><title>Node4&#45;&gt;Node5</title>
<path fill="none" stroke="midnightblue" d="M339.377,-86C348.415,-86 357.989,-86 366.291,-86"/>
<polygon fill="midnightblue" stroke="midnightblue" points="339.12,-82.5001 329.12,-86 339.12,-89.5001 339.12,-82.5001"/>
</g>
<!-- Node6 -->
<g id="node6" class="node"><title>Node6</title>
<g id="a_node6"><a xlink:href="drive2_8F90.html#acce80cd37f20e9b52729eb52d86a9c86" target="_top" xlink:title="Driver for temperature or passive scalar. ">
<polygon fill="white" stroke="black" points="458.5,-76.5 458.5,-95.5 496.5,-95.5 496.5,-76.5 458.5,-76.5"/>
<text text-anchor="middle" x="477.5" y="-83.5" font-family="Helvetica,sans-Serif" font-size="10.00">heat</text>
</a>
</g>
</g>
<!-- Node5&#45;&gt;Node6 -->
<g id="edge5" class="edge"><title>Node5&#45;&gt;Node6</title>
<path fill="none" stroke="midnightblue" d="M424.211,-86C435.845,-86 448.471,-86 458.402,-86"/>
<polygon fill="midnightblue" stroke="midnightblue" points="423.912,-82.5001 413.912,-86 423.912,-89.5001 423.912,-82.5001"/>
</g>
<!-- Node6&#45;&gt;Node7 -->
<g id="edge6" class="edge"><title>Node6&#45;&gt;Node7</title>
<path fill="none" stroke="midnightblue" d="M506.953,-85.1507C517.176,-84.8455 528.893,-84.4957 539.865,-84.1682"/>
<polygon fill="midnightblue" stroke="midnightblue" points="506.824,-81.6528 496.933,-85.4498 507.033,-88.6497 506.824,-81.6528"/>
</g>
<!-- Node8 -->
<g id="node8" class="node"><title>Node8</title>
<g id="a_node8"><a xlink:href="drive1_8F90.html#a18d3e839786263fc4cf91f7eeb714371" target="_top" xlink:title="take a chunk of time&#45;steps ">
<polygon fill="white" stroke="black" points="656,-54.5 656,-73.5 769,-73.5 769,-54.5 656,-54.5"/>
<text text-anchor="middle" x="712.5" y="-61.5" font-family="Helvetica,sans-Serif" font-size="10.00">nek__multi_advance</text>
</a>
</g>
</g>
<!-- Node7&#45;&gt;Node8 -->
<g id="edge7" class="edge"><title>Node7&#45;&gt;Node8</title>
<path fill="none" stroke="midnightblue" d="M630.191,-75.8382C638.607,-74.6128 647.403,-73.3322 655.97,-72.0848"/>
<polygon fill="midnightblue" stroke="midnightblue" points="629.546,-72.3951 620.154,-77.2994 630.554,-79.322 629.546,-72.3951"/>
</g>
<!-- Node9 -->
<g id="node9" class="node"><title>Node9</title>
<g id="a_node9"><a xlink:href="drive1_8F90.html#a6ad57e0cf728f343e371ef8c9a02cd8a" target="_top" xlink:title="integrate the governing equations in time ">
<polygon fill="white" stroke="black" points="805,-45.5 805,-64.5 870,-64.5 870,-45.5 805,-45.5"/>
<text text-anchor="middle" x="837.5" y="-52.5" font-family="Helvetica,sans-Serif" font-size="10.00">nek_solve</text>
</a>
</g>
</g>
<!-- Node8&#45;&gt;Node9 -->
<g id="edge8" class="edge"><title>Node8&#45;&gt;Node9</title>
<path fill="none" stroke="midnightblue" d="M779.282,-59.1867C788.164,-58.5368 796.927,-57.8956 804.824,-57.3177"/>
<polygon fill="midnightblue" stroke="midnightblue" points="778.96,-55.7008 769.242,-59.9213 779.471,-62.6821 778.96,-55.7008"/>
</g>
<!-- Node10 -->
<g id="node10" class="node"><title>Node10</title>
<g id="a_node10"><a xlink:href="drive_8F90.html#a13048bf28dd0734640412d69349e3857" target="_top" xlink:title="NEK5000: Spectral Element Computational Fluid Dynamics Solver COPYRIGHT (c) 2008&#45;2010 UCHICAGO ARGONN...">
<polygon fill="white" stroke="black" points="906,-23.5 906,-42.5 955,-42.5 955,-23.5 906,-23.5"/>
<text text-anchor="middle" x="930.5" y="-30.5" font-family="Helvetica,sans-Serif" font-size="10.00">nekton</text>
</a>
</g>
</g>
<!-- Node9&#45;&gt;Node10 -->
<g id="edge9" class="edge"><title>Node9&#45;&gt;Node10</title>
<path fill="none" stroke="midnightblue" d="M879.906,-44.9897C888.759,-42.8496 897.82,-40.659 905.734,-38.7457"/>
<polygon fill="midnightblue" stroke="midnightblue" points="878.969,-41.6153 870.072,-47.3672 880.614,-48.4192 878.969,-41.6153"/>
</g>
<!-- Node11&#45;&gt;Node10 -->
<g id="edge12" class="edge"><title>Node11&#45;&gt;Node10</title>
<path fill="none" stroke="midnightblue" d="M514.142,-11.8177C602.84,-16.3411 831.673,-28.0111 905.885,-31.7957"/>
<polygon fill="midnightblue" stroke="midnightblue" points="514.205,-8.31643 504.04,-11.3025 513.849,-15.3073 514.205,-8.31643"/>
</g>
<!-- Node13 -->
<g id="node13" class="node"><title>Node13</title>
<g id="a_node13"><a xlink:href="subs1_8F90.html#a156860172f4c95a65ff7fb5b447d472e" target="_top" xlink:title="Set the new time step. All cases covered. ">
<polygon fill="white" stroke="black" points="285,-114.5 285,-133.5 325,-133.5 325,-114.5 285,-114.5"/>
<text text-anchor="middle" x="305" y="-121.5" font-family="Helvetica,sans-Serif" font-size="10.00">setdt</text>
</a>
</g>
</g>
<!-- Node12&#45;&gt;Node13 -->
<g id="edge14" class="edge"><title>Node12&#45;&gt;Node13</title>
<path fill="none" stroke="midnightblue" d="M242.504,-124C256.636,-124 272.77,-124 284.966,-124"/>
<polygon fill="midnightblue" stroke="midnightblue" points="242.186,-120.5 232.186,-124 242.186,-127.5 242.186,-120.5"/>
</g>
<!-- Node14 -->
<g id="node14" class="node"><title>Node14</title>
<g id="a_node14"><a xlink:href="drive2_8F90.html#a6f905c80a0a2b0d5ed7f0449eda3e127" target="_top" xlink:title="setup time&#45;stepping ">
<polygon fill="white" stroke="black" points="365,-114.5 365,-133.5 415,-133.5 415,-114.5 365,-114.5"/>
<text text-anchor="middle" x="390" y="-121.5" font-family="Helvetica,sans-Serif" font-size="10.00">settime</text>
</a>
</g>
</g>
<!-- Node13&#45;&gt;Node14 -->
<g id="edge15" class="edge"><title>Node13&#45;&gt;Node14</title>
<path fill="none" stroke="midnightblue" d="M335.554,-124C345.138,-124 355.65,-124 364.798,-124"/>
<polygon fill="midnightblue" stroke="midnightblue" points="335.251,-120.5 325.25,-124 335.25,-127.5 335.251,-120.5"/>
</g>
<!-- Node14&#45;&gt;Node7 -->
<g id="edge16" class="edge"><title>Node14&#45;&gt;Node7</title>
<path fill="none" stroke="midnightblue" d="M425.492,-119.287C447.979,-115.947 477.89,-111.002 504,-105 519.076,-101.534 535.598,-96.7926 549.288,-92.5985"/>
<polygon fill="midnightblue" stroke="midnightblue" points="424.805,-115.85 415.412,-120.75 425.811,-122.777 424.805,-115.85"/>
</g>
</g>
</svg>
        <g id="navigator" transform="translate(0 0)" fill="#404254">
                <rect fill="#f2f5e9" fill-opacity="0.5" stroke="#606060" stroke-width=".5" x="0" y="0" width="60" height="60"/>
                <use id="zoomplus" xlink:href="#zoomPlus" x="17" y="9" onmousedown="handleZoom(evt,'in')"/>
                <use id="zoomminus" xlink:href="#zoomMin" x="42" y="9" onmousedown="handleZoom(evt,'out')"/>
                <use id="reset" xlink:href="#resetDef" x="30" y="36" onmousedown="handleReset()"/>
                <g id="arrowUp" xlink:href="#dirArrow" transform="translate(30 24)" onmousedown="handlePan(0,-1)">
                  <use xlink:href="#rim" fill="#404040">
                        <set attributeName="fill" to="#808080" begin="arrowUp.mouseover" end="arrowUp.mouseout"/>
                  </use>
                  <path fill="none" stroke="white" stroke-width="1.5" d="M0,-3.0v7 M-2.5,-0.5L0,-3.0L2.5,-0.5"/>
                </g>
                <g id="arrowRight" xlink:href="#dirArrow" transform="rotate(90) translate(36 -43)" onmousedown="handlePan(1,0)">
                  <use xlink:href="#rim" fill="#404040">
                        <set attributeName="fill" to="#808080" begin="arrowRight.mouseover" end="arrowRight.mouseout"/>
                  </use>
                  <path fill="none" stroke="white" stroke-width="1.5" d="M0,-3.0v7 M-2.5,-0.5L0,-3.0L2.5,-0.5"/>
                </g>
                <g id="arrowDown" xlink:href="#dirArrow" transform="rotate(180) translate(-30 -48)" onmousedown="handlePan(0,1)">
                  <use xlink:href="#rim" fill="#404040">
                        <set attributeName="fill" to="#808080" begin="arrowDown.mouseover" end="arrowDown.mouseout"/>
                  </use>
                  <path fill="none" stroke="white" stroke-width="1.5" d="M0,-3.0v7 M-2.5,-0.5L0,-3.0L2.5,-0.5"/>
                </g>
                <g id="arrowLeft" xlink:href="#dirArrow" transform="rotate(270) translate(-36 17)" onmousedown="handlePan(-1,0)">
                  <use xlink:href="#rim" fill="#404040">
                        <set attributeName="fill" to="#808080" begin="arrowLeft.mouseover" end="arrowLeft.mouseout"/>
                  </use>
                  <path fill="none" stroke="white" stroke-width="1.5" d="M0,-3.0v7 M-2.5,-0.5L0,-3.0L2.5,-0.5"/>
                </g>
        </g>
        <svg viewBox="0 0 15 15" width="100%" height="30px" preserveAspectRatio="xMaxYMin meet">
         <g id="arrow_out" transform="scale(0.3 0.3)">
          <a xlink:href="subs1_8F90_a895c417a4106672b662bf2fb96b26f06_icgraph_org.svg" target="_base">
           <rect id="button" ry="5" rx="5" y="6" x="6" height="38" width="38"
                fill="#f2f5e9" fill-opacity="0.5" stroke="#606060" stroke-width="1.0"/>
           <path id="arrow"
             d="M 11.500037,31.436501 C 11.940474,20.09759 22.043105,11.32322 32.158766,21.979434 L 37.068811,17.246167 C 37.068811,17.246167 37.088388,32 37.088388,32 L 22.160133,31.978069 C 22.160133,31.978069 26.997745,27.140456 26.997745,27.140456 C 18.528582,18.264221 13.291696,25.230495 11.500037,31.436501 z"
             style="fill:#404040;"/>
          </a>
         </g>
        </svg>
</svg>
