<?xml version="1.0" encoding="UTF-8" standalone="no"?>
<!DOCTYPE svg PUBLIC "-//W3C//DTD SVG 1.1//EN"
 "http://www.w3.org/Graphics/SVG/1.1/DTD/svg11.dtd">
<!-- Generated by graphviz version 2.38.0 (20140413.2041)
 -->
<!-- Title: unorm Pages: 1 -->
<svg width="751pt" height="104pt"
 viewBox="0.00 0.00 751.00 104.00" xmlns="http://www.w3.org/2000/svg" xmlns:xlink="http://www.w3.org/1999/xlink">
<g id="graph0" class="graph" transform="scale(1 1) rotate(0) translate(4 100)">
<title>unorm</title>
<polygon fill="white" stroke="none" points="-4,4 -4,-100 747,-100 747,4 -4,4"/>
<!-- Node1 -->
<g id="node1" class="node"><title>Node1</title>
<polygon fill="#bfbfbf" stroke="black" points="0,-38.5 0,-57.5 46,-57.5 46,-38.5 0,-38.5"/>
<text text-anchor="middle" x="23" y="-45.5" font-family="Helvetica,sans-Serif" font-size="10.00">unorm</text>
</g>
<!-- Node2 -->
<g id="node2" class="node"><title>Node2</title>
<g id="a_node2"><a xlink:href="subs1_8F90.html#a4a7a49f2b10c08dee56798c23dbfbe5a" target="_top" xlink:title="Check convergence for non&#45;linear passisve scalar solver. Relevant for solving heat transport problems...">
<polygon fill="white" stroke="black" points="82,-76.5 82,-95.5 135,-95.5 135,-76.5 82,-76.5"/>
<text text-anchor="middle" x="108.5" y="-83.5" font-family="Helvetica,sans-Serif" font-size="10.00">cvgnlps</text>
</a>
</g>
</g>
<!-- Node1&#45;&gt;Node2 -->
<g id="edge1" class="edge"><title>Node1&#45;&gt;Node2</title>
<path fill="none" stroke="midnightblue" d="M54.4425,-61.8541C65.0659,-66.6887 76.7458,-72.0041 86.4362,-76.4141"/>
<polygon fill="midnightblue" stroke="midnightblue" points="55.6221,-58.5456 45.0706,-57.589 52.7226,-64.9168 55.6221,-58.5456"/>
</g>
<!-- Node4 -->
<g id="node4" class="node"><title>Node4</title>
<g id="a_node4"><a xlink:href="drive2_8F90.html#acce80cd37f20e9b52729eb52d86a9c86" target="_top" xlink:title="Driver for temperature or passive scalar. ">
<polygon fill="white" stroke="black" points="254,-38.5 254,-57.5 292,-57.5 292,-38.5 254,-38.5"/>
<text text-anchor="middle" x="273" y="-45.5" font-family="Helvetica,sans-Serif" font-size="10.00">heat</text>
</a>
</g>
</g>
<!-- Node1&#45;&gt;Node4 -->
<g id="edge10" class="edge"><title>Node1&#45;&gt;Node4</title>
<path fill="none" stroke="midnightblue" d="M56.1517,-48C108.88,-48 212.041,-48 253.802,-48"/>
<polygon fill="midnightblue" stroke="midnightblue" points="56.0084,-44.5001 46.0083,-48 56.0083,-51.5001 56.0084,-44.5001"/>
</g>
<!-- Node9 -->
<g id="node9" class="node"><title>Node9</title>
<g id="a_node9"><a xlink:href="drive2_8F90.html#ab0aeca9ad3db8be87a01ba29d069d71e" target="_top" xlink:title="Driver for solving the incompressible Navier&#45;Stokes equations. ">
<polygon fill="white" stroke="black" points="177,-0.5 177,-19.5 212,-19.5 212,-0.5 177,-0.5"/>
<text text-anchor="middle" x="194.5" y="-7.5" font-family="Helvetica,sans-Serif" font-size="10.00">fluid</text>
</a>
</g>
</g>
<!-- Node1&#45;&gt;Node9 -->
<g id="edge8" class="edge"><title>Node1&#45;&gt;Node9</title>
<path fill="none" stroke="midnightblue" d="M55.9091,-40.1473C64.3801,-38.1038 73.528,-35.934 82,-34 115.59,-26.3323 155.029,-18.0005 176.848,-13.4496"/>
<polygon fill="midnightblue" stroke="midnightblue" points="54.8947,-36.7918 46.003,-42.5528 56.5465,-43.5941 54.8947,-36.7918"/>
</g>
<!-- Node3 -->
<g id="node3" class="node"><title>Node3</title>
<g id="a_node3"><a xlink:href="conduct_8F90.html#a74a7f053381975ed36df8ea959f3aa01" target="_top" xlink:title="Solve the convection&#45;diffusion equation for passive scalar IPSCAL. ">
<polygon fill="white" stroke="black" points="171,-76.5 171,-95.5 218,-95.5 218,-76.5 171,-76.5"/>
<text text-anchor="middle" x="194.5" y="-83.5" font-family="Helvetica,sans-Serif" font-size="10.00">cdscal</text>
</a>
</g>
</g>
<!-- Node2&#45;&gt;Node3 -->
<g id="edge2" class="edge"><title>Node2&#45;&gt;Node3</title>
<path fill="none" stroke="midnightblue" d="M145.409,-86C154.036,-86 163.014,-86 170.844,-86"/>
<polygon fill="midnightblue" stroke="midnightblue" points="145.159,-82.5001 135.159,-86 145.159,-89.5001 145.159,-82.5001"/>
</g>
<!-- Node3&#45;&gt;Node4 -->
<g id="edge3" class="edge"><title>Node3&#45;&gt;Node4</title>
<path fill="none" stroke="midnightblue" d="M223.971,-71.8573C233.937,-66.907 244.852,-61.4851 253.755,-57.0627"/>
<polygon fill="midnightblue" stroke="midnightblue" points="222.203,-68.8276 214.804,-76.411 225.317,-75.0968 222.203,-68.8276"/>
</g>
<!-- Node5 -->
<g id="node5" class="node"><title>Node5</title>
<g id="a_node5"><a xlink:href="drive1_8F90.html#ae177ea7efac97f35241521b782a671c0" target="_top" xlink:title="take a single time&#45;step ">
<polygon fill="white" stroke="black" points="328,-19.5 328,-38.5 408,-38.5 408,-19.5 328,-19.5"/>
<text text-anchor="middle" x="368" y="-26.5" font-family="Helvetica,sans-Serif" font-size="10.00">nek_advance</text>
</a>
</g>
</g>
<!-- Node4&#45;&gt;Node5 -->
<g id="edge4" class="edge"><title>Node4&#45;&gt;Node5</title>
<path fill="none" stroke="midnightblue" d="M302.362,-42.2055C310.415,-40.5604 319.328,-38.7395 327.897,-36.9889"/>
<polygon fill="midnightblue" stroke="midnightblue" points="301.471,-38.8153 292.374,-44.2462 302.872,-45.6736 301.471,-38.8153"/>
</g>
<!-- Node6 -->
<g id="node6" class="node"><title>Node6</title>
<g id="a_node6"><a xlink:href="drive1_8F90.html#a18d3e839786263fc4cf91f7eeb714371" target="_top" xlink:title="take a chunk of time&#45;steps ">
<polygon fill="white" stroke="black" points="444,-19.5 444,-38.5 557,-38.5 557,-19.5 444,-19.5"/>
<text text-anchor="middle" x="500.5" y="-26.5" font-family="Helvetica,sans-Serif" font-size="10.00">nek__multi_advance</text>
</a>
</g>
</g>
<!-- Node5&#45;&gt;Node6 -->
<g id="edge5" class="edge"><title>Node5&#45;&gt;Node6</title>
<path fill="none" stroke="midnightblue" d="M418.191,-29C426.607,-29 435.403,-29 443.97,-29"/>
<polygon fill="midnightblue" stroke="midnightblue" points="418.154,-25.5001 408.154,-29 418.154,-32.5001 418.154,-25.5001"/>
</g>
<!-- Node7 -->
<g id="node7" class="node"><title>Node7</title>
<g id="a_node7"><a xlink:href="drive1_8F90.html#a6ad57e0cf728f343e371ef8c9a02cd8a" target="_top" xlink:title="integrate the governing equations in time ">
<polygon fill="white" stroke="black" points="593,-19.5 593,-38.5 658,-38.5 658,-19.5 593,-19.5"/>
<text text-anchor="middle" x="625.5" y="-26.5" font-family="Helvetica,sans-Serif" font-size="10.00">nek_solve</text>
</a>
</g>
</g>
<!-- Node6&#45;&gt;Node7 -->
<g id="edge6" class="edge"><title>Node6&#45;&gt;Node7</title>
<path fill="none" stroke="midnightblue" d="M567.282,-29C576.164,-29 584.927,-29 592.824,-29"/>
<polygon fill="midnightblue" stroke="midnightblue" points="567.242,-25.5001 557.242,-29 567.242,-32.5001 567.242,-25.5001"/>
</g>
<!-- Node8 -->
<g id="node8" class="node"><title>Node8</title>
<g id="a_node8"><a xlink:href="drive_8F90.html#a13048bf28dd0734640412d69349e3857" target="_top" xlink:title="NEK5000: Spectral Element Computational Fluid Dynamics Solver COPYRIGHT (c) 2008&#45;2010 UCHICAGO ARGONN...">
<polygon fill="white" stroke="black" points="694,-19.5 694,-38.5 743,-38.5 743,-19.5 694,-19.5"/>
<text text-anchor="middle" x="718.5" y="-26.5" font-family="Helvetica,sans-Serif" font-size="10.00">nekton</text>
</a>
</g>
</g>
<!-- Node7&#45;&gt;Node8 -->
<g id="edge7" class="edge"><title>Node7&#45;&gt;Node8</title>
<path fill="none" stroke="midnightblue" d="M668.192,-29C676.953,-29 685.905,-29 693.734,-29"/>
<polygon fill="midnightblue" stroke="midnightblue" points="668.072,-25.5001 658.072,-29 668.072,-32.5001 668.072,-25.5001"/>
</g>
<!-- Node9&#45;&gt;Node5 -->
<g id="edge9" class="edge"><title>Node9&#45;&gt;Node5</title>
<path fill="none" stroke="midnightblue" d="M222.215,-12.9597C250.485,-16.0916 295.387,-21.0662 327.694,-24.6454"/>
<polygon fill="midnightblue" stroke="midnightblue" points="222.581,-9.4789 212.256,-11.8564 221.81,-16.4363 222.581,-9.4789"/>
</g>
</g>
</svg>
