<?xml version="1.0" encoding="UTF-8" standalone="no"?>
<!DOCTYPE svg PUBLIC "-//W3C//DTD SVG 1.1//EN"
 "http://www.w3.org/Graphics/SVG/1.1/DTD/svg11.dtd">
<!-- Generated by graphviz version 2.38.0 (20140413.2041)
 -->
<!-- Title: jl/tensor.h Pages: 1 -->
<svg width="782pt" height="95pt"
 viewBox="0.00 0.00 782.00 95.00" xmlns="http://www.w3.org/2000/svg" xmlns:xlink="http://www.w3.org/1999/xlink">
<g id="graph0" class="graph" transform="scale(1 1) rotate(0) translate(4 91)">
<title>jl/tensor.h</title>
<polygon fill="white" stroke="none" points="-4,4 -4,-91 778,-91 778,4 -4,4"/>
<!-- Node1 -->
<g id="node1" class="node"><title>Node1</title>
<polygon fill="#bfbfbf" stroke="black" points="336.5,-67.5 336.5,-86.5 398.5,-86.5 398.5,-67.5 336.5,-67.5"/>
<text text-anchor="middle" x="367.5" y="-74.5" font-family="Helvetica,sans-Serif" font-size="10.00">jl/tensor.h</text>
</g>
<!-- Node2 -->
<g id="node2" class="node"><title>Node2</title>
<g id="a_node2"><a xlink:href="comm_8c.html" target="_top" xlink:title="jl/comm.c">
<polygon fill="white" stroke="black" points="0,-6 0,-25 59,-25 59,-6 0,-6"/>
<text text-anchor="middle" x="29.5" y="-13" font-family="Helvetica,sans-Serif" font-size="10.00">jl/comm.c</text>
</a>
</g>
</g>
<!-- Node1&#45;&gt;Node2 -->
<g id="edge1" class="edge"><title>Node1&#45;&gt;Node2</title>
<path fill="none" stroke="midnightblue" d="M326.1,-72.6352C267.701,-67.2495 158.136,-54.7919 67.5,-31 61.6264,-29.4582 55.4106,-27.3159 49.7455,-25.1506"/>
<polygon fill="midnightblue" stroke="midnightblue" points="326.12,-76.151 336.393,-73.5596 326.746,-69.179 326.12,-76.151"/>
</g>
<!-- Node3 -->
<g id="node3" class="node"><title>Node3</title>
<g id="a_node3"><a xlink:href="findpts__el__2_8c.html" target="_top" xlink:title="jl/findpts_el_2.c">
<polygon fill="white" stroke="black" points="77,-6 77,-25 166,-25 166,-6 77,-6"/>
<text text-anchor="middle" x="121.5" y="-13" font-family="Helvetica,sans-Serif" font-size="10.00">jl/findpts_el_2.c</text>
</a>
</g>
</g>
<!-- Node1&#45;&gt;Node3 -->
<g id="edge2" class="edge"><title>Node1&#45;&gt;Node3</title>
<path fill="none" stroke="midnightblue" d="M326.363,-66.8841C287.214,-58.0965 226.701,-44.2213 174.5,-31 167.194,-29.1497 159.351,-27.0605 151.996,-25.0561"/>
<polygon fill="midnightblue" stroke="midnightblue" points="325.802,-70.3451 336.325,-69.114 327.331,-63.5141 325.802,-70.3451"/>
</g>
<!-- Node4 -->
<g id="node4" class="node"><title>Node4</title>
<g id="a_node4"><a xlink:href="findpts__el__3_8c.html" target="_top" xlink:title="jl/findpts_el_3.c">
<polygon fill="white" stroke="black" points="184,-6 184,-25 273,-25 273,-6 184,-6"/>
<text text-anchor="middle" x="228.5" y="-13" font-family="Helvetica,sans-Serif" font-size="10.00">jl/findpts_el_3.c</text>
</a>
</g>
</g>
<!-- Node1&#45;&gt;Node4 -->
<g id="edge3" class="edge"><title>Node1&#45;&gt;Node4</title>
<path fill="none" stroke="midnightblue" d="M338.25,-63.4795C311.255,-51.9238 271.896,-35.0758 248.378,-25.0091"/>
<polygon fill="midnightblue" stroke="midnightblue" points="337.014,-66.7574 347.585,-67.4751 339.769,-60.3222 337.014,-66.7574"/>
</g>
<!-- Node5 -->
<g id="node5" class="node"><title>Node5</title>
<g id="a_node5"><a xlink:href="obbox_8c.html" target="_top" xlink:title="jl/obbox.c">
<polygon fill="white" stroke="black" points="291,-6 291,-25 350,-25 350,-6 291,-6"/>
<text text-anchor="middle" x="320.5" y="-13" font-family="Helvetica,sans-Serif" font-size="10.00">jl/obbox.c</text>
</a>
</g>
</g>
<!-- Node1&#45;&gt;Node5 -->
<g id="edge4" class="edge"><title>Node1&#45;&gt;Node5</title>
<path fill="none" stroke="midnightblue" d="M354.338,-59.3377C345.516,-48.1694 334.267,-33.9278 327.221,-25.0091"/>
<polygon fill="midnightblue" stroke="midnightblue" points="351.821,-61.7975 360.766,-67.4751 357.314,-57.4584 351.821,-61.7975"/>
</g>
<!-- Node6 -->
<g id="node6" class="node"><title>Node6</title>
<g id="a_node6"><a xlink:href="findpts__el__2__test2_8c.html" target="_top" xlink:title="jl/tests/findpts_el\l_2_test2.c">
<polygon fill="white" stroke="black" points="368,-0.5 368,-30.5 463,-30.5 463,-0.5 368,-0.5"/>
<text text-anchor="start" x="376" y="-18.5" font-family="Helvetica,sans-Serif" font-size="10.00">jl/tests/findpts_el</text>
<text text-anchor="middle" x="415.5" y="-7.5" font-family="Helvetica,sans-Serif" font-size="10.00">_2_test2.c</text>
</a>
</g>
</g>
<!-- Node1&#45;&gt;Node6 -->
<g id="edge5" class="edge"><title>Node1&#45;&gt;Node6</title>
<path fill="none" stroke="midnightblue" d="M380.787,-59.5296C388.138,-50.4173 397.176,-39.2136 404.187,-30.523"/>
<polygon fill="midnightblue" stroke="midnightblue" points="377.932,-57.4944 374.377,-67.4751 383.38,-61.8896 377.932,-57.4944"/>
</g>
<!-- Node7 -->
<g id="node7" class="node"><title>Node7</title>
<g id="a_node7"><a xlink:href="findpts__el__3__test2_8c.html" target="_top" xlink:title="jl/tests/findpts_el\l_3_test2.c">
<polygon fill="white" stroke="black" points="481,-0.5 481,-30.5 576,-30.5 576,-0.5 481,-0.5"/>
<text text-anchor="start" x="489" y="-18.5" font-family="Helvetica,sans-Serif" font-size="10.00">jl/tests/findpts_el</text>
<text text-anchor="middle" x="528.5" y="-7.5" font-family="Helvetica,sans-Serif" font-size="10.00">_3_test2.c</text>
</a>
</g>
</g>
<!-- Node1&#45;&gt;Node7 -->
<g id="edge6" class="edge"><title>Node1&#45;&gt;Node7</title>
<path fill="none" stroke="midnightblue" d="M400.037,-63.9755C426.213,-54.3016 463.039,-40.6919 490.555,-30.523"/>
<polygon fill="midnightblue" stroke="midnightblue" points="398.734,-60.7256 390.567,-67.4751 401.161,-67.2915 398.734,-60.7256"/>
</g>
<!-- Node8 -->
<g id="node8" class="node"><title>Node8</title>
<g id="a_node8"><a xlink:href="lob__bnd__test_8c.html" target="_top" xlink:title="jl/tests/lob_bnd_test.c">
<polygon fill="white" stroke="black" points="594,-6 594,-25 711,-25 711,-6 594,-6"/>
<text text-anchor="middle" x="652.5" y="-13" font-family="Helvetica,sans-Serif" font-size="10.00">jl/tests/lob_bnd_test.c</text>
</a>
</g>
</g>
<!-- Node1&#45;&gt;Node8 -->
<g id="edge7" class="edge"><title>Node1&#45;&gt;Node8</title>
<path fill="none" stroke="midnightblue" d="M408.557,-67.6468C452.398,-58.6989 523.894,-44.0244 585.5,-31 594.466,-29.1045 604.1,-27.0375 613.188,-25.0736"/>
<polygon fill="midnightblue" stroke="midnightblue" points="407.665,-64.2567 398.566,-69.6846 409.064,-71.1155 407.665,-64.2567"/>
</g>
<!-- Node9 -->
<g id="node9" class="node"><title>Node9</title>
<g id="a_node9"><a xlink:href="xxt_8c.html" target="_top" xlink:title="jl/xxt.c">
<polygon fill="white" stroke="black" points="729,-6 729,-25 774,-25 774,-6 729,-6"/>
<text text-anchor="middle" x="751.5" y="-13" font-family="Helvetica,sans-Serif" font-size="10.00">jl/xxt.c</text>
</a>
</g>
</g>
<!-- Node1&#45;&gt;Node9 -->
<g id="edge8" class="edge"><title>Node1&#45;&gt;Node9</title>
<path fill="none" stroke="midnightblue" d="M408.974,-74.8623C475.813,-72.1137 610.949,-62.7574 720.5,-31 725.636,-29.5112 730.992,-27.277 735.779,-25.0056"/>
<polygon fill="midnightblue" stroke="midnightblue" points="408.706,-71.3699 398.847,-75.2492 408.973,-78.3648 408.706,-71.3699"/>
</g>
</g>
</svg>
