<?xml version="1.0" encoding="UTF-8" standalone="no"?>
<!DOCTYPE svg PUBLIC "-//W3C//DTD SVG 1.1//EN"
 "http://www.w3.org/Graphics/SVG/1.1/DTD/svg11.dtd">
<!-- Generated by graphviz version 2.38.0 (20140413.2041)
 -->
<!-- Title: tensor_mxm Pages: 1 -->
<!--zoomable 524 -->
<svg id="main" version="1.1" xmlns="http://www.w3.org/2000/svg" xmlns:xlink="http://www.w3.org/1999/xlink" xml:space="preserve" onload="init(evt)">
<style type="text/css"><![CDATA[
.edge:hover path { stroke: red; }
.edge:hover polygon { stroke: red; fill: red; }
]]></style>
<script type="text/javascript"><![CDATA[
var edges = document.getElementsByTagName('g');
if (edges && edges.length) {
  for (var i=0;i<edges.length;i++) {
    if (edges[i].id.substr(0,4)=='edge') {
      edges[i].setAttribute('class','edge');
    }
  }
}
]]></script>
        <defs>
                <circle id="rim" cx="0" cy="0" r="7"/>
                <circle id="rim2" cx="0" cy="0" r="3.5"/>
                <g id="zoomPlus">
                        <use xlink:href="#rim" fill="#404040">
                                <set attributeName="fill" to="#808080" begin="zoomplus.mouseover" end="zoomplus.mouseout"/>
                        </use>
                        <path d="M-4,0h8M0,-4v8" fill="none" stroke="white" stroke-width="1.5" pointer-events="none"/>
                </g>
                <g id="zoomMin">
                        <use xlink:href="#rim" fill="#404040">
                                <set attributeName="fill" to="#808080" begin="zoomminus.mouseover" end="zoomminus.mouseout"/>
                        </use>
                        <path d="M-4,0h8" fill="none" stroke="white" stroke-width="1.5" pointer-events="none"/>
                </g>
                <g id="dirArrow">
                        <path fill="none" stroke="white" stroke-width="1.5" d="M0,-3.0v7 M-2.5,-0.5L0,-3.0L2.5,-0.5"/>
                </g>
               <g id="resetDef">
                       <use xlink:href="#rim2" fill="#404040">
                               <set attributeName="fill" to="#808080" begin="reset.mouseover" end="reset.mouseout"/>
                       </use>
               </g>
        </defs>

<script type="text/javascript">
var viewWidth = 1066;
var viewHeight = 524;
var sectionId = 'dynsection-16';
</script>
<script xlink:href="svgpan.js"/>
<svg id="graph" class="graph">
<g id="viewport">
<title>tensor_mxm</title>
<polygon fill="white" stroke="none" points="-4,4 -4,-519.513 1062,-519.513 1062,4 -4,4"/>
<!-- Node1 -->
<g id="node1" class="node"><title>Node1</title>
<polygon fill="#bfbfbf" stroke="black" points="0,-247.5 0,-266.5 74,-266.5 74,-247.5 0,-247.5"/>
<text text-anchor="middle" x="37" y="-254.5" font-family="Helvetica,sans-Serif" font-size="10.00">tensor_mxm</text>
</g>
<!-- Node2 -->
<g id="node2" class="node"><title>Node2</title>
<g id="a_node2"><a xlink:href="findpts__el__3_8c.html#a7af2d3a734a0e2e8883badf9eee92932" target="_top" xlink:title="compute_edge_data">
<polygon fill="white" stroke="black" points="388,-428.5 388,-447.5 501,-447.5 501,-428.5 388,-428.5"/>
<text text-anchor="middle" x="444.5" y="-435.5" font-family="Helvetica,sans-Serif" font-size="10.00">compute_edge_data</text>
</a>
</g>
</g>
<!-- Node1&#45;&gt;Node2 -->
<g id="edge1" class="edge"><title>Node1&#45;&gt;Node2</title>
<path fill="none" stroke="midnightblue" d="M37.2306,-276.612C36.6454,-322.255 42.4048,-435.46 110,-485 210.69,-558.795 375.392,-476.812 427.302,-447.558"/>
<polygon fill="midnightblue" stroke="midnightblue" points="40.7312,-276.628 37.4823,-266.544 33.7334,-276.453 40.7312,-276.628"/>
</g>
<!-- Node9 -->
<g id="node9" class="node"><title>Node9</title>
<g id="a_node9"><a xlink:href="findpts__el__2_8c.html#a1469985248f871c00a7cc32021a08850" target="_top" xlink:title="compute_edge_data_r">
<polygon fill="white" stroke="black" points="111,-266.5 111,-285.5 234,-285.5 234,-266.5 111,-266.5"/>
<text text-anchor="middle" x="172.5" y="-273.5" font-family="Helvetica,sans-Serif" font-size="10.00">compute_edge_data_r</text>
</a>
</g>
</g>
<!-- Node1&#45;&gt;Node9 -->
<g id="edge9" class="edge"><title>Node1&#45;&gt;Node9</title>
<path fill="none" stroke="midnightblue" d="M84.3054,-263.59C92.8884,-264.812 101.971,-266.104 110.905,-267.376"/>
<polygon fill="midnightblue" stroke="midnightblue" points="84.5204,-260.086 74.127,-262.142 83.5341,-267.016 84.5204,-260.086"/>
</g>
<!-- Node13 -->
<g id="node13" class="node"><title>Node13</title>
<g id="a_node13"><a xlink:href="findpts__el__3_8c.html#a9b7b556347005323d242ba0b79d88e15" target="_top" xlink:title="compute_face_data_rs">
<polygon fill="white" stroke="black" points="110,-456.5 110,-475.5 235,-475.5 235,-456.5 110,-456.5"/>
<text text-anchor="middle" x="172.5" y="-463.5" font-family="Helvetica,sans-Serif" font-size="10.00">compute_face_data_rs</text>
</a>
</g>
</g>
<!-- Node1&#45;&gt;Node13 -->
<g id="edge13" class="edge"><title>Node1&#45;&gt;Node13</title>
<path fill="none" stroke="midnightblue" d="M39.8565,-276.872C44.5131,-315.313 60.1549,-400.181 110,-447 114.154,-450.902 119.094,-454.003 124.341,-456.468"/>
<polygon fill="midnightblue" stroke="midnightblue" points="43.3358,-276.49 38.7763,-266.927 36.3767,-277.246 43.3358,-276.49"/>
</g>
<!-- Node15 -->
<g id="node15" class="node"><title>Node15</title>
<g id="a_node15"><a xlink:href="findpts__el__3_8c.html#ad2c233df5cb0edb3790d3c59eb9f19be" target="_top" xlink:title="findpt_face">
<polygon fill="white" stroke="black" points="410,-380.5 410,-399.5 479,-399.5 479,-380.5 410,-380.5"/>
<text text-anchor="middle" x="444.5" y="-387.5" font-family="Helvetica,sans-Serif" font-size="10.00">findpt_face</text>
</a>
</g>
</g>
<!-- Node1&#45;&gt;Node15 -->
<g id="edge26" class="edge"><title>Node1&#45;&gt;Node15</title>
<path fill="none" stroke="midnightblue" d="M45.0291,-276.028C55.2131,-300.597 76.5915,-342.505 110,-362 206.603,-418.372 346.496,-405.798 409.953,-396.092"/>
<polygon fill="midnightblue" stroke="midnightblue" points="48.2675,-274.699 41.3475,-266.677 41.754,-277.264 48.2675,-274.699"/>
</g>
<!-- Node16 -->
<g id="node16" class="node"><title>Node16</title>
<g id="a_node16"><a xlink:href="findpts__el__3_8c.html#a8226ddf76abad91ef3ba8a5a2c3d07a5" target="_top" xlink:title="compute_face_data_tr">
<polygon fill="white" stroke="black" points="111.5,-418.5 111.5,-437.5 233.5,-437.5 233.5,-418.5 111.5,-418.5"/>
<text text-anchor="middle" x="172.5" y="-425.5" font-family="Helvetica,sans-Serif" font-size="10.00">compute_face_data_tr</text>
</a>
</g>
</g>
<!-- Node1&#45;&gt;Node16 -->
<g id="edge18" class="edge"><title>Node1&#45;&gt;Node16</title>
<path fill="none" stroke="midnightblue" d="M42.7011,-276.76C51.0788,-307.911 71.4424,-368.53 110,-404 116.832,-410.285 125.498,-414.996 134.153,-418.499"/>
<polygon fill="midnightblue" stroke="midnightblue" points="46.0037,-275.546 40.1454,-266.718 39.22,-277.272 46.0037,-275.546"/>
</g>
<!-- Node17 -->
<g id="node17" class="node"><title>Node17</title>
<g id="a_node17"><a xlink:href="findpts__el__2_8c.html#a80a5b2ebfbcb6af3d294107c0bc27d79" target="_top" xlink:title="compute_pt_data">
<polygon fill="white" stroke="black" points="123.5,-304.5 123.5,-323.5 221.5,-323.5 221.5,-304.5 123.5,-304.5"/>
<text text-anchor="middle" x="172.5" y="-311.5" font-family="Helvetica,sans-Serif" font-size="10.00">compute_pt_data</text>
</a>
</g>
</g>
<!-- Node1&#45;&gt;Node17 -->
<g id="edge20" class="edge"><title>Node1&#45;&gt;Node17</title>
<path fill="none" stroke="midnightblue" d="M62.9367,-271.634C76.549,-279.243 93.8726,-288.321 110,-295 118.466,-298.506 127.819,-301.716 136.621,-304.459"/>
<polygon fill="midnightblue" stroke="midnightblue" points="64.5894,-268.547 54.166,-266.649 61.1304,-274.633 64.5894,-268.547"/>
</g>
<!-- Node20 -->
<g id="node20" class="node"><title>Node20</title>
<g id="a_node20"><a xlink:href="findpts__el__2_8c.html#a2bc5f8c39f8aeb300a6b30d313903bf4" target="_top" xlink:title="findpt_area">
<polygon fill="white" stroke="black" points="409,-342.5 409,-361.5 480,-361.5 480,-342.5 409,-342.5"/>
<text text-anchor="middle" x="444.5" y="-349.5" font-family="Helvetica,sans-Serif" font-size="10.00">findpt_area</text>
</a>
</g>
</g>
<!-- Node1&#45;&gt;Node20 -->
<g id="edge24" class="edge"><title>Node1&#45;&gt;Node20</title>
<path fill="none" stroke="midnightblue" d="M49.2381,-275.269C61.6097,-293.528 83.3274,-320.616 110,-333 210.204,-379.523 345.95,-367.328 408.854,-358.042"/>
<polygon fill="midnightblue" stroke="midnightblue" points="52.024,-273.133 43.6437,-266.65 46.1524,-276.944 52.024,-273.133"/>
</g>
<!-- Node21 -->
<g id="node21" class="node"><title>Node21</title>
<g id="a_node21"><a xlink:href="findpts__el__3_8c.html#aaaaad44889a0b6de44f02e50fee8d342" target="_top" xlink:title="findpt_vol">
<polygon fill="white" stroke="black" points="280.5,-228.5 280.5,-247.5 342.5,-247.5 342.5,-228.5 280.5,-228.5"/>
<text text-anchor="middle" x="311.5" y="-235.5" font-family="Helvetica,sans-Serif" font-size="10.00">findpt_vol</text>
</a>
</g>
</g>
<!-- Node1&#45;&gt;Node21 -->
<g id="edge27" class="edge"><title>Node1&#45;&gt;Node21</title>
<path fill="none" stroke="midnightblue" d="M84.196,-253.779C140.2,-249.874 232.965,-243.406 280.457,-240.095"/>
<polygon fill="midnightblue" stroke="midnightblue" points="83.9182,-250.29 74.1859,-254.477 84.4052,-257.273 83.9182,-250.29"/>
</g>
<!-- Node22 -->
<g id="node22" class="node"><title>Node22</title>
<g id="a_node22"><a xlink:href="findpts__el__2_8c.html#aec3a57eb81e8f5da518257fb3d2c470b" target="_top" xlink:title="findpts_el_eval_2">
<polygon fill="white" stroke="black" points="122.5,-190.5 122.5,-209.5 222.5,-209.5 222.5,-190.5 122.5,-190.5"/>
<text text-anchor="middle" x="172.5" y="-197.5" font-family="Helvetica,sans-Serif" font-size="10.00">findpts_el_eval_2</text>
</a>
</g>
</g>
<!-- Node1&#45;&gt;Node22 -->
<g id="edge29" class="edge"><title>Node1&#45;&gt;Node22</title>
<path fill="none" stroke="midnightblue" d="M67.4082,-243.056C80.3886,-237.023 95.8761,-229.987 110,-224 121.713,-219.035 134.831,-213.864 145.933,-209.598"/>
<polygon fill="midnightblue" stroke="midnightblue" points="65.6098,-240.034 58.0349,-247.441 68.5759,-246.374 65.6098,-240.034"/>
</g>
<!-- Node23 -->
<g id="node23" class="node"><title>Node23</title>
<g id="a_node23"><a xlink:href="findpts__el__3_8c.html#a96bad45447d3ec37d6fbc2a322f02f1a" target="_top" xlink:title="findpts_el_eval_3">
<polygon fill="white" stroke="black" points="122.5,-152.5 122.5,-171.5 222.5,-171.5 222.5,-152.5 122.5,-152.5"/>
<text text-anchor="middle" x="172.5" y="-159.5" font-family="Helvetica,sans-Serif" font-size="10.00">findpts_el_eval_3</text>
</a>
</g>
</g>
<!-- Node1&#45;&gt;Node23 -->
<g id="edge30" class="edge"><title>Node1&#45;&gt;Node23</title>
<path fill="none" stroke="midnightblue" d="M50.5462,-239.183C63.5581,-221.955 85.4172,-196.277 110,-181 116.17,-177.166 123.171,-174.054 130.184,-171.545"/>
<polygon fill="midnightblue" stroke="midnightblue" points="47.6693,-237.188 44.5807,-247.322 53.3152,-241.326 47.6693,-237.188"/>
</g>
<!-- Node24 -->
<g id="node24" class="node"><title>Node24</title>
<g id="a_node24"><a xlink:href="tensor_8h.html#aaa6a53655f18e20b9aaed498f54a74fd" target="_top" xlink:title="tensor_2t">
<polygon fill="white" stroke="black" points="141.5,-76.5 141.5,-95.5 203.5,-95.5 203.5,-76.5 141.5,-76.5"/>
<text text-anchor="middle" x="172.5" y="-83.5" font-family="Helvetica,sans-Serif" font-size="10.00">tensor_2t</text>
</a>
</g>
</g>
<!-- Node1&#45;&gt;Node24 -->
<g id="edge31" class="edge"><title>Node1&#45;&gt;Node24</title>
<path fill="none" stroke="midnightblue" d="M41.9918,-237.132C49.5323,-204.734 68.9415,-140.58 110,-105 118.783,-97.3889 130.58,-92.8261 141.492,-90.0909"/>
<polygon fill="midnightblue" stroke="midnightblue" points="38.5143,-236.652 39.8036,-247.168 45.3536,-238.143 38.5143,-236.652"/>
</g>
<!-- Node26 -->
<g id="node26" class="node"><title>Node26</title>
<g id="a_node26"><a xlink:href="tensor_8h.html#a835bd04d85cd2d786d0c137610af703c" target="_top" xlink:title="tensor_3t">
<polygon fill="white" stroke="black" points="141.5,-38.5 141.5,-57.5 203.5,-57.5 203.5,-38.5 141.5,-38.5"/>
<text text-anchor="middle" x="172.5" y="-45.5" font-family="Helvetica,sans-Serif" font-size="10.00">tensor_3t</text>
</a>
</g>
</g>
<!-- Node1&#45;&gt;Node26 -->
<g id="edge33" class="edge"><title>Node1&#45;&gt;Node26</title>
<path fill="none" stroke="midnightblue" d="M39.8565,-237.128C44.5131,-198.687 60.1549,-113.819 110,-67 118.553,-58.9666 130.435,-54.3268 141.478,-51.6482"/>
<polygon fill="midnightblue" stroke="midnightblue" points="36.3767,-236.754 38.7763,-247.073 43.3358,-237.51 36.3767,-236.754"/>
</g>
<!-- Node28 -->
<g id="node28" class="node"><title>Node28</title>
<g id="a_node28"><a xlink:href="tensor_8h.html#a1aa30c0b57153eecb9573dd8edf73c69" target="_top" xlink:title="tensor_ig2">
<polygon fill="white" stroke="black" points="139,-114.5 139,-133.5 206,-133.5 206,-114.5 139,-114.5"/>
<text text-anchor="middle" x="172.5" y="-121.5" font-family="Helvetica,sans-Serif" font-size="10.00">tensor_ig2</text>
</a>
</g>
</g>
<!-- Node1&#45;&gt;Node28 -->
<g id="edge35" class="edge"><title>Node1&#45;&gt;Node28</title>
<path fill="none" stroke="midnightblue" d="M45.1387,-237.844C55.5566,-212.476 77.3143,-168.032 110,-143 118.34,-136.613 128.847,-132.355 138.805,-129.523"/>
<polygon fill="midnightblue" stroke="midnightblue" points="41.7693,-236.849 41.3694,-247.436 48.2843,-239.409 41.7693,-236.849"/>
</g>
<!-- Node30 -->
<g id="node30" class="node"><title>Node30</title>
<g id="a_node30"><a xlink:href="tensor_8h.html#a936d982eec4b5c23380547f1371a0bdf" target="_top" xlink:title="tensor_ig3">
<polygon fill="white" stroke="black" points="139,-0.5 139,-19.5 206,-19.5 206,-0.5 139,-0.5"/>
<text text-anchor="middle" x="172.5" y="-7.5" font-family="Helvetica,sans-Serif" font-size="10.00">tensor_ig3</text>
</a>
</g>
</g>
<!-- Node1&#45;&gt;Node30 -->
<g id="edge38" class="edge"><title>Node1&#45;&gt;Node30</title>
<path fill="none" stroke="midnightblue" d="M38.3986,-236.916C40.3791,-192.913 51.3488,-87.2865 110,-29 117.689,-21.3591 128.38,-16.7807 138.695,-14.0411"/>
<polygon fill="midnightblue" stroke="midnightblue" points="34.8923,-237.047 38.0554,-247.158 41.8884,-237.281 34.8923,-237.047"/>
</g>
<!-- Node3 -->
<g id="node3" class="node"><title>Node3</title>
<g id="a_node3"><a xlink:href="findpts__el__3_8c.html#a3acbce16e4f7a28b4ad8a6d217d776b2" target="_top" xlink:title="get_edge">
<polygon fill="white" stroke="black" points="543,-428.5 543,-447.5 605,-447.5 605,-428.5 543,-428.5"/>
<text text-anchor="middle" x="574" y="-435.5" font-family="Helvetica,sans-Serif" font-size="10.00">get_edge</text>
</a>
</g>
</g>
<!-- Node2&#45;&gt;Node3 -->
<g id="edge2" class="edge"><title>Node2&#45;&gt;Node3</title>
<path fill="none" stroke="midnightblue" d="M511.205,-438C522.277,-438 533.27,-438 542.847,-438"/>
<polygon fill="midnightblue" stroke="midnightblue" points="511.052,-434.5 501.052,-438 511.052,-441.5 511.052,-434.5"/>
</g>
<!-- Node4 -->
<g id="node4" class="node"><title>Node4</title>
<g id="a_node4"><a xlink:href="findpts__el__3_8c.html#a196411139d99d1bb50c742501192796a" target="_top" xlink:title="compute_pt_data">
<polygon fill="white" stroke="black" points="647,-437.5 647,-456.5 745,-456.5 745,-437.5 647,-437.5"/>
<text text-anchor="middle" x="696" y="-444.5" font-family="Helvetica,sans-Serif" font-size="10.00">compute_pt_data</text>
</a>
</g>
</g>
<!-- Node3&#45;&gt;Node4 -->
<g id="edge3" class="edge"><title>Node3&#45;&gt;Node4</title>
<path fill="none" stroke="midnightblue" d="M615.468,-441.035C625.586,-441.794 636.535,-442.615 646.98,-443.398"/>
<polygon fill="midnightblue" stroke="midnightblue" points="615.515,-437.529 605.281,-440.271 614.991,-444.509 615.515,-437.529"/>
</g>
<!-- Node8 -->
<g id="node8" class="node"><title>Node8</title>
<g id="a_node8"><a xlink:href="findpts__el__3_8c.html#af1a3eb77cfbd30da8225576a88a12cd0" target="_top" xlink:title="findpt_edge">
<polygon fill="white" stroke="black" points="781,-399.5 781,-418.5 854,-418.5 854,-399.5 781,-399.5"/>
<text text-anchor="middle" x="817.5" y="-406.5" font-family="Helvetica,sans-Serif" font-size="10.00">findpt_edge</text>
</a>
</g>
</g>
<!-- Node3&#45;&gt;Node8 -->
<g id="edge7" class="edge"><title>Node3&#45;&gt;Node8</title>
<path fill="none" stroke="midnightblue" d="M615.152,-432.232C625.52,-430.795 636.67,-429.296 647,-428 693.128,-422.212 746.429,-416.377 780.755,-412.73"/>
<polygon fill="midnightblue" stroke="midnightblue" points="614.522,-428.786 605.103,-433.639 615.492,-435.719 614.522,-428.786"/>
</g>
<!-- Node5 -->
<g id="node5" class="node"><title>Node5</title>
<g id="a_node5"><a xlink:href="findpts__el__3_8c.html#aa8ed83eb48038a2dd41b03fadadee562" target="_top" xlink:title="get_pt">
<polygon fill="white" stroke="black" points="794,-437.5 794,-456.5 841,-456.5 841,-437.5 794,-437.5"/>
<text text-anchor="middle" x="817.5" y="-444.5" font-family="Helvetica,sans-Serif" font-size="10.00">get_pt</text>
</a>
</g>
</g>
<!-- Node4&#45;&gt;Node5 -->
<g id="edge4" class="edge"><title>Node4&#45;&gt;Node5</title>
<path fill="none" stroke="midnightblue" d="M755.633,-447C769.279,-447 783.002,-447 793.955,-447"/>
<polygon fill="midnightblue" stroke="midnightblue" points="755.261,-443.5 745.261,-447 755.261,-450.5 755.261,-443.5"/>
</g>
<!-- Node6 -->
<g id="node6" class="node"><title>Node6</title>
<g id="a_node6"><a xlink:href="findpts__el__3_8c.html#a45011f1c9ad5e46c578da17c3c306d0f" target="_top" xlink:title="findpt_pt">
<polygon fill="white" stroke="black" points="890,-437.5 890,-456.5 948,-456.5 948,-437.5 890,-437.5"/>
<text text-anchor="middle" x="919" y="-444.5" font-family="Helvetica,sans-Serif" font-size="10.00">findpt_pt</text>
</a>
</g>
</g>
<!-- Node5&#45;&gt;Node6 -->
<g id="edge5" class="edge"><title>Node5&#45;&gt;Node6</title>
<path fill="none" stroke="midnightblue" d="M851.111,-447C863.614,-447 877.762,-447 889.816,-447"/>
<polygon fill="midnightblue" stroke="midnightblue" points="851.078,-443.5 841.078,-447 851.078,-450.5 851.078,-443.5"/>
</g>
<!-- Node7 -->
<g id="node7" class="node"><title>Node7</title>
<g id="a_node7"><a xlink:href="findpts__el__3_8c.html#a3ed659b9d68af3919368cbdc12649730" target="_top" xlink:title="findpts_el_3">
<polygon fill="white" stroke="black" points="984,-380.5 984,-399.5 1058,-399.5 1058,-380.5 984,-380.5"/>
<text text-anchor="middle" x="1021" y="-387.5" font-family="Helvetica,sans-Serif" font-size="10.00">findpts_el_3</text>
</a>
</g>
</g>
<!-- Node6&#45;&gt;Node7 -->
<g id="edge6" class="edge"><title>Node6&#45;&gt;Node7</title>
<path fill="none" stroke="midnightblue" d="M945.852,-432.264C963.956,-421.945 987.617,-408.458 1003.29,-399.526"/>
<polygon fill="midnightblue" stroke="midnightblue" points="943.918,-429.338 936.964,-437.331 947.385,-435.419 943.918,-429.338"/>
</g>
<!-- Node8&#45;&gt;Node7 -->
<g id="edge8" class="edge"><title>Node8&#45;&gt;Node7</title>
<path fill="none" stroke="midnightblue" d="M864.352,-404.677C900.545,-401.264 950.344,-396.568 983.777,-393.416"/>
<polygon fill="midnightblue" stroke="midnightblue" points="863.688,-401.224 854.06,-405.647 864.345,-408.193 863.688,-401.224"/>
</g>
<!-- Node10 -->
<g id="node10" class="node"><title>Node10</title>
<g id="a_node10"><a xlink:href="findpts__el__2_8c.html#af396850f1a86af34b197d06b3254bb40" target="_top" xlink:title="get_edge">
<polygon fill="white" stroke="black" points="280.5,-266.5 280.5,-285.5 342.5,-285.5 342.5,-266.5 280.5,-266.5"/>
<text text-anchor="middle" x="311.5" y="-273.5" font-family="Helvetica,sans-Serif" font-size="10.00">get_edge</text>
</a>
</g>
</g>
<!-- Node9&#45;&gt;Node10 -->
<g id="edge10" class="edge"><title>Node9&#45;&gt;Node10</title>
<path fill="none" stroke="midnightblue" d="M244.469,-276C257.049,-276 269.518,-276 280.176,-276"/>
<polygon fill="midnightblue" stroke="midnightblue" points="244.388,-272.5 234.388,-276 244.388,-279.5 244.388,-272.5"/>
</g>
<!-- Node11 -->
<g id="node11" class="node"><title>Node11</title>
<g id="a_node11"><a xlink:href="findpts__el__2_8c.html#a702f44e1b9ffb116fc271defdbfa0a00" target="_top" xlink:title="findpt_edge">
<polygon fill="white" stroke="black" points="408,-266.5 408,-285.5 481,-285.5 481,-266.5 408,-266.5"/>
<text text-anchor="middle" x="444.5" y="-273.5" font-family="Helvetica,sans-Serif" font-size="10.00">findpt_edge</text>
</a>
</g>
</g>
<!-- Node10&#45;&gt;Node11 -->
<g id="edge11" class="edge"><title>Node10&#45;&gt;Node11</title>
<path fill="none" stroke="midnightblue" d="M352.993,-276C370.424,-276 390.635,-276 407.53,-276"/>
<polygon fill="midnightblue" stroke="midnightblue" points="352.554,-272.5 342.554,-276 352.554,-279.5 352.554,-272.5"/>
</g>
<!-- Node12 -->
<g id="node12" class="node"><title>Node12</title>
<g id="a_node12"><a xlink:href="findpts__el__2_8c.html#a1fe7500238a37c48ae642d12cf921989" target="_top" xlink:title="findpts_el_2">
<polygon fill="white" stroke="black" points="537,-304.5 537,-323.5 611,-323.5 611,-304.5 537,-304.5"/>
<text text-anchor="middle" x="574" y="-311.5" font-family="Helvetica,sans-Serif" font-size="10.00">findpts_el_2</text>
</a>
</g>
</g>
<!-- Node11&#45;&gt;Node12 -->
<g id="edge12" class="edge"><title>Node11&#45;&gt;Node12</title>
<path fill="none" stroke="midnightblue" d="M487.559,-288.535C504.904,-293.705 524.681,-299.599 540.837,-304.414"/>
<polygon fill="midnightblue" stroke="midnightblue" points="488.257,-285.091 477.674,-285.589 486.257,-291.8 488.257,-285.091"/>
</g>
<!-- Node14 -->
<g id="node14" class="node"><title>Node14</title>
<g id="a_node14"><a xlink:href="findpts__el__3_8c.html#a5dc987bca5f0dbd0ff09d44b61363c1e" target="_top" xlink:title="get_face">
<polygon fill="white" stroke="black" points="282.5,-428.5 282.5,-447.5 340.5,-447.5 340.5,-428.5 282.5,-428.5"/>
<text text-anchor="middle" x="311.5" y="-435.5" font-family="Helvetica,sans-Serif" font-size="10.00">get_face</text>
</a>
</g>
</g>
<!-- Node13&#45;&gt;Node14 -->
<g id="edge14" class="edge"><title>Node13&#45;&gt;Node14</title>
<path fill="none" stroke="midnightblue" d="M230.111,-454.43C248.104,-450.752 267.226,-446.844 282.304,-443.763"/>
<polygon fill="midnightblue" stroke="midnightblue" points="229.361,-451.011 220.264,-456.442 230.763,-457.869 229.361,-451.011"/>
</g>
<!-- Node14&#45;&gt;Node2 -->
<g id="edge15" class="edge"><title>Node14&#45;&gt;Node2</title>
<path fill="none" stroke="midnightblue" d="M350.827,-438C362.442,-438 375.444,-438 387.95,-438"/>
<polygon fill="midnightblue" stroke="midnightblue" points="350.603,-434.5 340.603,-438 350.603,-441.5 350.603,-434.5"/>
</g>
<!-- Node14&#45;&gt;Node15 -->
<g id="edge16" class="edge"><title>Node14&#45;&gt;Node15</title>
<path fill="none" stroke="midnightblue" d="M348.287,-424.887C370.122,-416.886 397.549,-406.837 417.35,-399.582"/>
<polygon fill="midnightblue" stroke="midnightblue" points="346.88,-421.675 338.695,-428.402 349.289,-428.248 346.88,-421.675"/>
</g>
<!-- Node15&#45;&gt;Node7 -->
<g id="edge17" class="edge"><title>Node15&#45;&gt;Node7</title>
<path fill="none" stroke="midnightblue" d="M489.429,-384.624C539.207,-379.006 622.809,-371 695,-371 695,-371 695,-371 818.5,-371 876.477,-371 943.426,-378.893 983.696,-384.504"/>
<polygon fill="midnightblue" stroke="midnightblue" points="488.872,-381.165 479.337,-385.783 489.671,-388.12 488.872,-381.165"/>
</g>
<!-- Node16&#45;&gt;Node14 -->
<g id="edge19" class="edge"><title>Node16&#45;&gt;Node14</title>
<path fill="none" stroke="midnightblue" d="M243.58,-433.115C257.323,-434.118 270.98,-435.115 282.339,-435.944"/>
<polygon fill="midnightblue" stroke="midnightblue" points="243.818,-429.624 233.59,-432.386 243.309,-436.605 243.818,-429.624"/>
</g>
<!-- Node18 -->
<g id="node18" class="node"><title>Node18</title>
<g id="a_node18"><a xlink:href="findpts__el__2_8c.html#ae1c9357f23169936950617bb27a17725" target="_top" xlink:title="get_pt">
<polygon fill="white" stroke="black" points="288,-304.5 288,-323.5 335,-323.5 335,-304.5 288,-304.5"/>
<text text-anchor="middle" x="311.5" y="-311.5" font-family="Helvetica,sans-Serif" font-size="10.00">get_pt</text>
</a>
</g>
</g>
<!-- Node17&#45;&gt;Node18 -->
<g id="edge21" class="edge"><title>Node17&#45;&gt;Node18</title>
<path fill="none" stroke="midnightblue" d="M231.993,-314C251.751,-314 272.643,-314 287.904,-314"/>
<polygon fill="midnightblue" stroke="midnightblue" points="231.801,-310.5 221.801,-314 231.801,-317.5 231.801,-310.5"/>
</g>
<!-- Node19 -->
<g id="node19" class="node"><title>Node19</title>
<g id="a_node19"><a xlink:href="findpts__el__2_8c.html#a210a90144657b76da9efd04736820849" target="_top" xlink:title="findpt_pt">
<polygon fill="white" stroke="black" points="415.5,-304.5 415.5,-323.5 473.5,-323.5 473.5,-304.5 415.5,-304.5"/>
<text text-anchor="middle" x="444.5" y="-311.5" font-family="Helvetica,sans-Serif" font-size="10.00">findpt_pt</text>
</a>
</g>
</g>
<!-- Node18&#45;&gt;Node19 -->
<g id="edge22" class="edge"><title>Node18&#45;&gt;Node19</title>
<path fill="none" stroke="midnightblue" d="M345.043,-314C366.643,-314 394.709,-314 415.347,-314"/>
<polygon fill="midnightblue" stroke="midnightblue" points="345.02,-310.5 335.02,-314 345.02,-317.5 345.02,-310.5"/>
</g>
<!-- Node19&#45;&gt;Node12 -->
<g id="edge23" class="edge"><title>Node19&#45;&gt;Node12</title>
<path fill="none" stroke="midnightblue" d="M484.268,-314C500.883,-314 520.187,-314 536.538,-314"/>
<polygon fill="midnightblue" stroke="midnightblue" points="483.796,-310.5 473.796,-314 483.796,-317.5 483.796,-310.5"/>
</g>
<!-- Node20&#45;&gt;Node12 -->
<g id="edge25" class="edge"><title>Node20&#45;&gt;Node12</title>
<path fill="none" stroke="midnightblue" d="M487.559,-339.465C504.904,-334.295 524.681,-328.401 540.837,-323.586"/>
<polygon fill="midnightblue" stroke="midnightblue" points="486.257,-336.2 477.674,-342.411 488.257,-342.909 486.257,-336.2"/>
</g>
<!-- Node21&#45;&gt;Node7 -->
<g id="edge28" class="edge"><title>Node21&#45;&gt;Node7</title>
<path fill="none" stroke="midnightblue" d="M352.888,-238C404.096,-238 495.1,-238 573,-238 573,-238 573,-238 818.5,-238 913.589,-238 992.254,-347.215 1014.02,-380.492"/>
<polygon fill="midnightblue" stroke="midnightblue" points="352.584,-234.5 342.584,-238 352.584,-241.5 352.584,-234.5"/>
</g>
<!-- Node25 -->
<g id="node25" class="node"><title>Node25</title>
<g id="a_node25"><a xlink:href="findpts__el__2__test2_8c.html#ae66f6b31b5ad750f1fe042a706a4e3d4" target="_top" xlink:title="main">
<polygon fill="white" stroke="black" points="292,-76.5 292,-95.5 331,-95.5 331,-76.5 292,-76.5"/>
<text text-anchor="middle" x="311.5" y="-83.5" font-family="Helvetica,sans-Serif" font-size="10.00">main</text>
</a>
</g>
</g>
<!-- Node24&#45;&gt;Node25 -->
<g id="edge32" class="edge"><title>Node24&#45;&gt;Node25</title>
<path fill="none" stroke="midnightblue" d="M213.818,-86C239.633,-86 271.916,-86 291.871,-86"/>
<polygon fill="midnightblue" stroke="midnightblue" points="213.565,-82.5001 203.565,-86 213.565,-89.5001 213.565,-82.5001"/>
</g>
<!-- Node27 -->
<g id="node27" class="node"><title>Node27</title>
<g id="a_node27"><a xlink:href="findpts__el__3__test2_8c.html#ae66f6b31b5ad750f1fe042a706a4e3d4" target="_top" xlink:title="main">
<polygon fill="white" stroke="black" points="292,-38.5 292,-57.5 331,-57.5 331,-38.5 292,-38.5"/>
<text text-anchor="middle" x="311.5" y="-45.5" font-family="Helvetica,sans-Serif" font-size="10.00">main</text>
</a>
</g>
</g>
<!-- Node26&#45;&gt;Node27 -->
<g id="edge34" class="edge"><title>Node26&#45;&gt;Node27</title>
<path fill="none" stroke="midnightblue" d="M213.818,-48C239.633,-48 271.916,-48 291.871,-48"/>
<polygon fill="midnightblue" stroke="midnightblue" points="213.565,-44.5001 203.565,-48 213.565,-51.5001 213.565,-44.5001"/>
</g>
<!-- Node28&#45;&gt;Node21 -->
<g id="edge36" class="edge"><title>Node28&#45;&gt;Node21</title>
<path fill="none" stroke="midnightblue" d="M215.914,-133.403C222.62,-135.912 229.235,-139.06 235,-143 268.918,-166.178 294.971,-209.166 305.46,-228.337"/>
<polygon fill="midnightblue" stroke="midnightblue" points="216.705,-129.979 206.112,-130.168 214.511,-136.626 216.705,-129.979"/>
</g>
<!-- Node29 -->
<g id="node29" class="node"><title>Node29</title>
<g id="a_node29"><a xlink:href="obbox_8h.html#a9732d1196730c53ce3686b929df4afeb" target="_top" xlink:title="obbox_calc_2">
<polygon fill="white" stroke="black" points="271,-114.5 271,-133.5 352,-133.5 352,-114.5 271,-114.5"/>
<text text-anchor="middle" x="311.5" y="-121.5" font-family="Helvetica,sans-Serif" font-size="10.00">obbox_calc_2</text>
</a>
</g>
</g>
<!-- Node28&#45;&gt;Node29 -->
<g id="edge37" class="edge"><title>Node28&#45;&gt;Node29</title>
<path fill="none" stroke="midnightblue" d="M216.736,-124C234.072,-124 253.918,-124 270.875,-124"/>
<polygon fill="midnightblue" stroke="midnightblue" points="216.315,-120.5 206.315,-124 216.315,-127.5 216.315,-120.5"/>
</g>
</g>
</svg>
        <g id="navigator" transform="translate(0 0)" fill="#404254">
                <rect fill="#f2f5e9" fill-opacity="0.5" stroke="#606060" stroke-width=".5" x="0" y="0" width="60" height="60"/>
                <use id="zoomplus" xlink:href="#zoomPlus" x="17" y="9" onmousedown="handleZoom(evt,'in')"/>
                <use id="zoomminus" xlink:href="#zoomMin" x="42" y="9" onmousedown="handleZoom(evt,'out')"/>
                <use id="reset" xlink:href="#resetDef" x="30" y="36" onmousedown="handleReset()"/>
                <g id="arrowUp" xlink:href="#dirArrow" transform="translate(30 24)" onmousedown="handlePan(0,-1)">
                  <use xlink:href="#rim" fill="#404040">
                        <set attributeName="fill" to="#808080" begin="arrowUp.mouseover" end="arrowUp.mouseout"/>
                  </use>
                  <path fill="none" stroke="white" stroke-width="1.5" d="M0,-3.0v7 M-2.5,-0.5L0,-3.0L2.5,-0.5"/>
                </g>
                <g id="arrowRight" xlink:href="#dirArrow" transform="rotate(90) translate(36 -43)" onmousedown="handlePan(1,0)">
                  <use xlink:href="#rim" fill="#404040">
                        <set attributeName="fill" to="#808080" begin="arrowRight.mouseover" end="arrowRight.mouseout"/>
                  </use>
                  <path fill="none" stroke="white" stroke-width="1.5" d="M0,-3.0v7 M-2.5,-0.5L0,-3.0L2.5,-0.5"/>
                </g>
                <g id="arrowDown" xlink:href="#dirArrow" transform="rotate(180) translate(-30 -48)" onmousedown="handlePan(0,1)">
                  <use xlink:href="#rim" fill="#404040">
                        <set attributeName="fill" to="#808080" begin="arrowDown.mouseover" end="arrowDown.mouseout"/>
                  </use>
                  <path fill="none" stroke="white" stroke-width="1.5" d="M0,-3.0v7 M-2.5,-0.5L0,-3.0L2.5,-0.5"/>
                </g>
                <g id="arrowLeft" xlink:href="#dirArrow" transform="rotate(270) translate(-36 17)" onmousedown="handlePan(-1,0)">
                  <use xlink:href="#rim" fill="#404040">
                        <set attributeName="fill" to="#808080" begin="arrowLeft.mouseover" end="arrowLeft.mouseout"/>
                  </use>
                  <path fill="none" stroke="white" stroke-width="1.5" d="M0,-3.0v7 M-2.5,-0.5L0,-3.0L2.5,-0.5"/>
                </g>
        </g>
        <svg viewBox="0 0 15 15" width="100%" height="30px" preserveAspectRatio="xMaxYMin meet">
         <g id="arrow_out" transform="scale(0.3 0.3)">
          <a xlink:href="tensor_8h_a668a47aca721428547c6c6ba41e44b64_icgraph_org.svg" target="_base">
           <rect id="button" ry="5" rx="5" y="6" x="6" height="38" width="38"
                fill="#f2f5e9" fill-opacity="0.5" stroke="#606060" stroke-width="1.0"/>
           <path id="arrow"
             d="M 11.500037,31.436501 C 11.940474,20.09759 22.043105,11.32322 32.158766,21.979434 L 37.068811,17.246167 C 37.068811,17.246167 37.088388,32 37.088388,32 L 22.160133,31.978069 C 22.160133,31.978069 26.997745,27.140456 26.997745,27.140456 C 18.528582,18.264221 13.291696,25.230495 11.500037,31.436501 z"
             style="fill:#404040;"/>
          </a>
         </g>
        </svg>
</svg>
