<?xml version="1.0" encoding="UTF-8" standalone="no"?>
<!DOCTYPE svg PUBLIC "-//W3C//DTD SVG 1.1//EN"
 "http://www.w3.org/Graphics/SVG/1.1/DTD/svg11.dtd">
<!-- Generated by graphviz version 2.38.0 (20140413.2041)
 -->
<!-- Title: jl/tensor.c Pages: 1 -->
<svg width="188pt" height="84pt"
 viewBox="0.00 0.00 188.00 84.00" xmlns="http://www.w3.org/2000/svg" xmlns:xlink="http://www.w3.org/1999/xlink">
<g id="graph0" class="graph" transform="scale(1 1) rotate(0) translate(4 80)">
<title>jl/tensor.c</title>
<polygon fill="white" stroke="none" points="-4,4 -4,-80 184,-80 184,4 -4,4"/>
<!-- Node1 -->
<g id="node1" class="node"><title>Node1</title>
<polygon fill="#bfbfbf" stroke="black" points="55,-56.5 55,-75.5 117,-75.5 117,-56.5 55,-56.5"/>
<text text-anchor="middle" x="86" y="-63.5" font-family="Helvetica,sans-Serif" font-size="10.00">jl/tensor.c</text>
</g>
<!-- Node2 -->
<g id="node2" class="node"><title>Node2</title>
<g id="a_node2"><a xlink:href="c99_8h.html" target="_top" xlink:title="c99.h">
<polygon fill="white" stroke="black" points="0,-0.5 0,-19.5 42,-19.5 42,-0.5 0,-0.5"/>
<text text-anchor="middle" x="21" y="-7.5" font-family="Helvetica,sans-Serif" font-size="10.00">c99.h</text>
</a>
</g>
</g>
<!-- Node1&#45;&gt;Node2 -->
<g id="edge1" class="edge"><title>Node1&#45;&gt;Node2</title>
<path fill="none" stroke="midnightblue" d="M75.5566,-56.324C65.8538,-48.2631 51.1847,-36.0765 39.5003,-26.3695"/>
<polygon fill="midnightblue" stroke="midnightblue" points="41.5619,-23.532 31.6334,-19.8339 37.0887,-28.9163 41.5619,-23.532"/>
</g>
<!-- Node3 -->
<g id="node3" class="node"><title>Node3</title>
<g id="a_node3"><a xlink:href="name_8h.html" target="_top" xlink:title="establishes some macros to establish naming conventions ">
<polygon fill="white" stroke="black" points="60.5,-0.5 60.5,-19.5 111.5,-19.5 111.5,-0.5 60.5,-0.5"/>
<text text-anchor="middle" x="86" y="-7.5" font-family="Helvetica,sans-Serif" font-size="10.00">name.h</text>
</a>
</g>
</g>
<!-- Node1&#45;&gt;Node3 -->
<g id="edge2" class="edge"><title>Node1&#45;&gt;Node3</title>
<path fill="none" stroke="midnightblue" d="M86,-56.083C86,-49.0059 86,-38.8611 86,-29.9865"/>
<polygon fill="midnightblue" stroke="midnightblue" points="89.5001,-29.751 86,-19.7511 82.5001,-29.7511 89.5001,-29.751"/>
</g>
<!-- Node4 -->
<g id="node4" class="node"><title>Node4</title>
<g id="a_node4"><a xlink:href="types_8h.html" target="_top" xlink:title="types.h">
<polygon fill="white" stroke="black" points="130,-0.5 130,-19.5 180,-19.5 180,-0.5 130,-0.5"/>
<text text-anchor="middle" x="155" y="-7.5" font-family="Helvetica,sans-Serif" font-size="10.00">types.h</text>
</a>
</g>
</g>
<!-- Node1&#45;&gt;Node4 -->
<g id="edge3" class="edge"><title>Node1&#45;&gt;Node4</title>
<path fill="none" stroke="midnightblue" d="M97.086,-56.324C107.486,-48.1849 123.261,-35.8395 135.722,-26.0874"/>
<polygon fill="midnightblue" stroke="midnightblue" points="137.994,-28.7533 143.712,-19.8339 133.68,-23.2407 137.994,-28.7533"/>
</g>
</g>
</svg>
