<?xml version="1.0" encoding="UTF-8" standalone="no"?>
<!DOCTYPE svg PUBLIC "-//W3C//DTD SVG 1.1//EN"
 "http://www.w3.org/Graphics/SVG/1.1/DTD/svg11.dtd">
<!-- Generated by graphviz version 2.38.0 (20140413.2041)
 -->
<!-- Title: tensor_i2 Pages: 1 -->
<svg width="315pt" height="104pt"
 viewBox="0.00 0.00 315.00 104.00" xmlns="http://www.w3.org/2000/svg" xmlns:xlink="http://www.w3.org/1999/xlink">
<g id="graph0" class="graph" transform="scale(1 1) rotate(0) translate(4 100)">
<title>tensor_i2</title>
<polygon fill="white" stroke="none" points="-4,4 -4,-100 311,-100 311,4 -4,4"/>
<!-- Node1 -->
<g id="node1" class="node"><title>Node1</title>
<polygon fill="#bfbfbf" stroke="black" points="0,-38.5 0,-57.5 61,-57.5 61,-38.5 0,-38.5"/>
<text text-anchor="middle" x="30.5" y="-45.5" font-family="Helvetica,sans-Serif" font-size="10.00">tensor_i2</text>
</g>
<!-- Node2 -->
<g id="node2" class="node"><title>Node2</title>
<g id="a_node2"><a xlink:href="findpts__el__3_8c.html#aaaaad44889a0b6de44f02e50fee8d342" target="_top" xlink:title="findpt_vol">
<polygon fill="white" stroke="black" points="116,-76.5 116,-95.5 178,-95.5 178,-76.5 116,-76.5"/>
<text text-anchor="middle" x="147" y="-83.5" font-family="Helvetica,sans-Serif" font-size="10.00">findpt_vol</text>
</a>
</g>
</g>
<!-- Node1&#45;&gt;Node2 -->
<g id="edge1" class="edge"><title>Node1&#45;&gt;Node2</title>
<path fill="none" stroke="midnightblue" d="M70.1465,-60.8259C85.51,-65.9247 102.879,-71.6891 117.116,-76.4141"/>
<polygon fill="midnightblue" stroke="midnightblue" points="70.9866,-57.4171 60.3932,-57.589 68.7817,-64.0608 70.9866,-57.4171"/>
</g>
<!-- Node4 -->
<g id="node4" class="node"><title>Node4</title>
<g id="a_node4"><a xlink:href="findpts__el__3_8c.html#a96bad45447d3ec37d6fbc2a322f02f1a" target="_top" xlink:title="findpts_el_eval_3">
<polygon fill="white" stroke="black" points="97,-38.5 97,-57.5 197,-57.5 197,-38.5 97,-38.5"/>
<text text-anchor="middle" x="147" y="-45.5" font-family="Helvetica,sans-Serif" font-size="10.00">findpts_el_eval_3</text>
</a>
</g>
</g>
<!-- Node1&#45;&gt;Node4 -->
<g id="edge3" class="edge"><title>Node1&#45;&gt;Node4</title>
<path fill="none" stroke="midnightblue" d="M71.3622,-48C79.5875,-48 88.3419,-48 96.8525,-48"/>
<polygon fill="midnightblue" stroke="midnightblue" points="71.2847,-44.5001 61.2846,-48 71.2846,-51.5001 71.2847,-44.5001"/>
</g>
<!-- Node5 -->
<g id="node5" class="node"><title>Node5</title>
<g id="a_node5"><a xlink:href="lob__bnd__test_8c.html#ae66f6b31b5ad750f1fe042a706a4e3d4" target="_top" xlink:title="main">
<polygon fill="white" stroke="black" points="127.5,-0.5 127.5,-19.5 166.5,-19.5 166.5,-0.5 127.5,-0.5"/>
<text text-anchor="middle" x="147" y="-7.5" font-family="Helvetica,sans-Serif" font-size="10.00">main</text>
</a>
</g>
</g>
<!-- Node1&#45;&gt;Node5 -->
<g id="edge4" class="edge"><title>Node1&#45;&gt;Node5</title>
<path fill="none" stroke="midnightblue" d="M70.1097,-35.1863C89.3416,-28.8037 111.724,-21.3755 127.173,-16.2483"/>
<polygon fill="midnightblue" stroke="midnightblue" points="68.7817,-31.9392 60.3932,-38.411 70.9866,-38.5829 68.7817,-31.9392"/>
</g>
<!-- Node3 -->
<g id="node3" class="node"><title>Node3</title>
<g id="a_node3"><a xlink:href="findpts__el__3_8c.html#a3ed659b9d68af3919368cbdc12649730" target="_top" xlink:title="findpts_el_3">
<polygon fill="white" stroke="black" points="233,-76.5 233,-95.5 307,-95.5 307,-76.5 233,-76.5"/>
<text text-anchor="middle" x="270" y="-83.5" font-family="Helvetica,sans-Serif" font-size="10.00">findpts_el_3</text>
</a>
</g>
</g>
<!-- Node2&#45;&gt;Node3 -->
<g id="edge2" class="edge"><title>Node2&#45;&gt;Node3</title>
<path fill="none" stroke="midnightblue" d="M188.311,-86C202.657,-86 218.714,-86 232.704,-86"/>
<polygon fill="midnightblue" stroke="midnightblue" points="188.221,-82.5001 178.221,-86 188.221,-89.5001 188.221,-82.5001"/>
</g>
</g>
</svg>
