<?xml version="1.0" encoding="UTF-8" standalone="no"?>
<!DOCTYPE svg PUBLIC "-//W3C//DTD SVG 1.1//EN"
 "http://www.w3.org/Graphics/SVG/1.1/DTD/svg11.dtd">
<!-- Generated by graphviz version 2.38.0 (20140413.2041)
 -->
<!-- Title: lg Pages: 1 -->
<svg width="254pt" height="28pt"
 viewBox="0.00 0.00 254.00 28.00" xmlns="http://www.w3.org/2000/svg" xmlns:xlink="http://www.w3.org/1999/xlink">
<g id="graph0" class="graph" transform="scale(1 1) rotate(0) translate(4 24)">
<title>lg</title>
<polygon fill="white" stroke="none" points="-4,4 -4,-24 250,-24 250,4 -4,4"/>
<!-- Node1 -->
<g id="node1" class="node"><title>Node1</title>
<polygon fill="#bfbfbf" stroke="black" points="0,-0.5 0,-19.5 29,-19.5 29,-0.5 0,-0.5"/>
<text text-anchor="middle" x="14.5" y="-7.5" font-family="Helvetica,sans-Serif" font-size="10.00">lg</text>
</g>
<!-- Node2 -->
<g id="node2" class="node"><title>Node2</title>
<g id="a_node2"><a xlink:href="xxt_8c.html#afc26fb811d3130e4f6ee4f808efcbecb" target="_top" xlink:title="discover_dofs">
<polygon fill="white" stroke="black" points="65,-0.5 65,-19.5 148,-19.5 148,-0.5 65,-0.5"/>
<text text-anchor="middle" x="106.5" y="-7.5" font-family="Helvetica,sans-Serif" font-size="10.00">discover_dofs</text>
</a>
</g>
</g>
<!-- Node1&#45;&gt;Node2 -->
<g id="edge1" class="edge"><title>Node1&#45;&gt;Node2</title>
<path fill="none" stroke="midnightblue" d="M39.3463,-10C47.1616,-10 56.079,-10 64.781,-10"/>
<polygon fill="midnightblue" stroke="midnightblue" points="39.1691,-6.5001 29.1691,-10 39.169,-13.5001 39.1691,-6.5001"/>
</g>
<!-- Node3 -->
<g id="node3" class="node"><title>Node3</title>
<g id="a_node3"><a xlink:href="xxt_8c.html#a7a6069f7f96ece910fe3320dc8b9ff30" target="_top" xlink:title="crs_setup">
<polygon fill="white" stroke="black" points="184,-0.5 184,-19.5 246,-19.5 246,-0.5 184,-0.5"/>
<text text-anchor="middle" x="215" y="-7.5" font-family="Helvetica,sans-Serif" font-size="10.00">crs_setup</text>
</a>
</g>
</g>
<!-- Node2&#45;&gt;Node3 -->
<g id="edge2" class="edge"><title>Node2&#45;&gt;Node3</title>
<path fill="none" stroke="midnightblue" d="M158.241,-10C166.991,-10 175.833,-10 183.816,-10"/>
<polygon fill="midnightblue" stroke="midnightblue" points="158.067,-6.5001 148.067,-10 158.067,-13.5001 158.067,-6.5001"/>
</g>
</g>
</svg>
