<?xml version="1.0" encoding="UTF-8" standalone="no"?>
<!DOCTYPE svg PUBLIC "-//W3C//DTD SVG 1.1//EN"
 "http://www.w3.org/Graphics/SVG/1.1/DTD/svg11.dtd">
<!-- Generated by graphviz version 2.38.0 (20140413.2041)
 -->
<!-- Title: apply_X Pages: 1 -->
<svg width="278pt" height="66pt"
 viewBox="0.00 0.00 278.00 66.00" xmlns="http://www.w3.org/2000/svg" xmlns:xlink="http://www.w3.org/1999/xlink">
<g id="graph0" class="graph" transform="scale(1 1) rotate(0) translate(4 62)">
<title>apply_X</title>
<polygon fill="white" stroke="none" points="-4,4 -4,-62 274,-62 274,4 -4,4"/>
<!-- Node1 -->
<g id="node1" class="node"><title>Node1</title>
<polygon fill="#bfbfbf" stroke="black" points="0,-19.5 0,-38.5 55,-38.5 55,-19.5 0,-19.5"/>
<text text-anchor="middle" x="27.5" y="-26.5" font-family="Helvetica,sans-Serif" font-size="10.00">apply_X</text>
</g>
<!-- Node2 -->
<g id="node2" class="node"><title>Node2</title>
<g id="a_node2"><a xlink:href="xxt_8c.html#ab5798c7a7da4a9243319c8d90d59b1e0" target="_top" xlink:title="crs_solve">
<polygon fill="white" stroke="black" points="100.5,-38.5 100.5,-57.5 162.5,-57.5 162.5,-38.5 100.5,-38.5"/>
<text text-anchor="middle" x="131.5" y="-45.5" font-family="Helvetica,sans-Serif" font-size="10.00">crs_solve</text>
</a>
</g>
</g>
<!-- Node1&#45;&gt;Node2 -->
<g id="edge1" class="edge"><title>Node1&#45;&gt;Node2</title>
<path fill="none" stroke="midnightblue" d="M64.9243,-35.7849C76.583,-37.9566 89.351,-40.335 100.498,-42.4113"/>
<polygon fill="midnightblue" stroke="midnightblue" points="65.5049,-32.3329 55.033,-33.9424 64.223,-39.2146 65.5049,-32.3329"/>
</g>
<!-- Node3 -->
<g id="node3" class="node"><title>Node3</title>
<g id="a_node3"><a xlink:href="xxt_8c.html#ac6781afb68f686a8d3e3da877ecc8a15" target="_top" xlink:title="orthogonalize">
<polygon fill="white" stroke="black" points="91,-0.5 91,-19.5 172,-19.5 172,-0.5 91,-0.5"/>
<text text-anchor="middle" x="131.5" y="-7.5" font-family="Helvetica,sans-Serif" font-size="10.00">orthogonalize</text>
</a>
</g>
</g>
<!-- Node1&#45;&gt;Node3 -->
<g id="edge2" class="edge"><title>Node1&#45;&gt;Node3</title>
<path fill="none" stroke="midnightblue" d="M64.8704,-22.2251C73.2232,-20.6692 82.148,-19.0067 90.6396,-17.425"/>
<polygon fill="midnightblue" stroke="midnightblue" points="64.223,-18.7854 55.033,-24.0576 65.5049,-25.6671 64.223,-18.7854"/>
</g>
<!-- Node4 -->
<g id="node4" class="node"><title>Node4</title>
<g id="a_node4"><a xlink:href="xxt_8c.html#a7a6069f7f96ece910fe3320dc8b9ff30" target="_top" xlink:title="crs_setup">
<polygon fill="white" stroke="black" points="208,-0.5 208,-19.5 270,-19.5 270,-0.5 208,-0.5"/>
<text text-anchor="middle" x="239" y="-7.5" font-family="Helvetica,sans-Serif" font-size="10.00">crs_setup</text>
</a>
</g>
</g>
<!-- Node3&#45;&gt;Node4 -->
<g id="edge3" class="edge"><title>Node3&#45;&gt;Node4</title>
<path fill="none" stroke="midnightblue" d="M182.216,-10C190.938,-10 199.772,-10 207.758,-10"/>
<polygon fill="midnightblue" stroke="midnightblue" points="182.084,-6.5001 172.084,-10 182.084,-13.5001 182.084,-6.5001"/>
</g>
</g>
</svg>
