<?xml version="1.0" encoding="UTF-8" standalone="no"?>
<!DOCTYPE svg PUBLIC "-//W3C//DTD SVG 1.1//EN"
 "http://www.w3.org/Graphics/SVG/1.1/DTD/svg11.dtd">
<!-- Generated by graphviz version 2.38.0 (20140413.2041)
 -->
<!-- Title: discover_dofs Pages: 1 -->
<svg width="194pt" height="104pt"
 viewBox="0.00 0.00 194.00 104.00" xmlns="http://www.w3.org/2000/svg" xmlns:xlink="http://www.w3.org/1999/xlink">
<g id="graph0" class="graph" transform="scale(1 1) rotate(0) translate(4 100)">
<title>discover_dofs</title>
<polygon fill="white" stroke="none" points="-4,4 -4,-100 190,-100 190,4 -4,4"/>
<!-- Node1 -->
<g id="node1" class="node"><title>Node1</title>
<polygon fill="#bfbfbf" stroke="black" points="0,-38.5 0,-57.5 83,-57.5 83,-38.5 0,-38.5"/>
<text text-anchor="middle" x="41.5" y="-45.5" font-family="Helvetica,sans-Serif" font-size="10.00">discover_dofs</text>
</g>
<!-- Node2 -->
<g id="node2" class="node"><title>Node2</title>
<g id="a_node2"><a xlink:href="xxt_8c.html#a53b22f6fa73cc0fb1bafa56a9128bdcc" target="_top" xlink:title="lg">
<polygon fill="white" stroke="black" points="138,-76.5 138,-95.5 167,-95.5 167,-76.5 138,-76.5"/>
<text text-anchor="middle" x="152.5" y="-83.5" font-family="Helvetica,sans-Serif" font-size="10.00">lg</text>
</a>
</g>
</g>
<!-- Node1&#45;&gt;Node2 -->
<g id="edge1" class="edge"><title>Node1&#45;&gt;Node2</title>
<path fill="none" stroke="midnightblue" d="M70.0053,-57.589C87.9715,-63.8525 111.174,-71.9414 128.224,-77.8854"/>
<polygon fill="midnightblue" stroke="midnightblue" points="127.348,-81.2866 137.943,-81.2737 129.652,-74.6768 127.348,-81.2866"/>
</g>
<!-- Node3 -->
<g id="node3" class="node"><title>Node3</title>
<g id="a_node3"><a xlink:href="sort__imp_8h.html#aa7bba91e4f9ed1f3e524f1dd09c2c4ea" target="_top" xlink:title="sortp">
<polygon fill="white" stroke="black" points="132,-38.5 132,-57.5 173,-57.5 173,-38.5 132,-38.5"/>
<text text-anchor="middle" x="152.5" y="-45.5" font-family="Helvetica,sans-Serif" font-size="10.00">sortp</text>
</a>
</g>
</g>
<!-- Node1&#45;&gt;Node3 -->
<g id="edge2" class="edge"><title>Node1&#45;&gt;Node3</title>
<path fill="none" stroke="midnightblue" d="M83.0876,-48C95.8779,-48 109.764,-48 121.662,-48"/>
<polygon fill="midnightblue" stroke="midnightblue" points="121.942,-51.5001 131.942,-48 121.942,-44.5001 121.942,-51.5001"/>
</g>
<!-- Node4 -->
<g id="node4" class="node"><title>Node4</title>
<g id="a_node4"><a xlink:href="xxt_8c.html#a3f95c6ef8b8fc468dd53b57a9884c231" target="_top" xlink:title="unique_ids">
<polygon fill="white" stroke="black" points="119,-0.5 119,-19.5 186,-19.5 186,-0.5 119,-0.5"/>
<text text-anchor="middle" x="152.5" y="-7.5" font-family="Helvetica,sans-Serif" font-size="10.00">unique_ids</text>
</a>
</g>
</g>
<!-- Node1&#45;&gt;Node4 -->
<g id="edge3" class="edge"><title>Node1&#45;&gt;Node4</title>
<path fill="none" stroke="midnightblue" d="M70.0053,-38.411C83.4307,-33.7306 99.78,-28.0308 114.301,-22.9685"/>
<polygon fill="midnightblue" stroke="midnightblue" points="115.713,-26.1828 124.003,-19.5859 113.409,-19.573 115.713,-26.1828"/>
</g>
</g>
</svg>
