<?xml version="1.0" encoding="UTF-8" standalone="no"?>
<!DOCTYPE svg PUBLIC "-//W3C//DTD SVG 1.1//EN"
 "http://www.w3.org/Graphics/SVG/1.1/DTD/svg11.dtd">
<!-- Generated by graphviz version 2.38.0 (20140413.2041)
 -->
<!-- Title: apply_S_col Pages: 1 -->
<svg width="297pt" height="28pt"
 viewBox="0.00 0.00 297.00 28.00" xmlns="http://www.w3.org/2000/svg" xmlns:xlink="http://www.w3.org/1999/xlink">
<g id="graph0" class="graph" transform="scale(1 1) rotate(0) translate(4 24)">
<title>apply_S_col</title>
<polygon fill="white" stroke="none" points="-4,4 -4,-24 293,-24 293,4 -4,4"/>
<!-- Node1 -->
<g id="node1" class="node"><title>Node1</title>
<polygon fill="#bfbfbf" stroke="black" points="0,-0.5 0,-19.5 74,-19.5 74,-0.5 0,-0.5"/>
<text text-anchor="middle" x="37" y="-7.5" font-family="Helvetica,sans-Serif" font-size="10.00">apply_S_col</text>
</g>
<!-- Node2 -->
<g id="node2" class="node"><title>Node2</title>
<g id="a_node2"><a xlink:href="xxt_8c.html#ac6781afb68f686a8d3e3da877ecc8a15" target="_top" xlink:title="orthogonalize">
<polygon fill="white" stroke="black" points="110,-0.5 110,-19.5 191,-19.5 191,-0.5 110,-0.5"/>
<text text-anchor="middle" x="150.5" y="-7.5" font-family="Helvetica,sans-Serif" font-size="10.00">orthogonalize</text>
</a>
</g>
</g>
<!-- Node1&#45;&gt;Node2 -->
<g id="edge1" class="edge"><title>Node1&#45;&gt;Node2</title>
<path fill="none" stroke="midnightblue" d="M84.2712,-10C92.6919,-10 101.41,-10 109.626,-10"/>
<polygon fill="midnightblue" stroke="midnightblue" points="84.2009,-6.5001 74.2009,-10 84.2008,-13.5001 84.2009,-6.5001"/>
</g>
<!-- Node3 -->
<g id="node3" class="node"><title>Node3</title>
<g id="a_node3"><a xlink:href="xxt_8c.html#a7a6069f7f96ece910fe3320dc8b9ff30" target="_top" xlink:title="crs_setup">
<polygon fill="white" stroke="black" points="227,-0.5 227,-19.5 289,-19.5 289,-0.5 227,-0.5"/>
<text text-anchor="middle" x="258" y="-7.5" font-family="Helvetica,sans-Serif" font-size="10.00">crs_setup</text>
</a>
</g>
</g>
<!-- Node2&#45;&gt;Node3 -->
<g id="edge2" class="edge"><title>Node2&#45;&gt;Node3</title>
<path fill="none" stroke="midnightblue" d="M201.216,-10C209.938,-10 218.772,-10 226.758,-10"/>
<polygon fill="midnightblue" stroke="midnightblue" points="201.084,-6.5001 191.084,-10 201.084,-13.5001 201.084,-6.5001"/>
</g>
</g>
</svg>
