<?xml version="1.0" encoding="UTF-8" standalone="no"?>
<!DOCTYPE svg PUBLIC "-//W3C//DTD SVG 1.1//EN"
 "http://www.w3.org/Graphics/SVG/1.1/DTD/svg11.dtd">
<!-- Generated by graphviz version 2.38.0 (20140413.2041)
 -->
<!-- Title: discover_sep_sizes Pages: 1 -->
<svg width="228pt" height="66pt"
 viewBox="0.00 0.00 228.00 66.00" xmlns="http://www.w3.org/2000/svg" xmlns:xlink="http://www.w3.org/1999/xlink">
<g id="graph0" class="graph" transform="scale(1 1) rotate(0) translate(4 62)">
<title>discover_sep_sizes</title>
<polygon fill="white" stroke="none" points="-4,4 -4,-62 224,-62 224,4 -4,4"/>
<!-- Node1 -->
<g id="node1" class="node"><title>Node1</title>
<polygon fill="#bfbfbf" stroke="black" points="0,-19.5 0,-38.5 110,-38.5 110,-19.5 0,-19.5"/>
<text text-anchor="middle" x="55" y="-26.5" font-family="Helvetica,sans-Serif" font-size="10.00">discover_sep_sizes</text>
</g>
<!-- Node2 -->
<g id="node2" class="node"><title>Node2</title>
<g id="a_node2"><a xlink:href="comm_8h.html#a61f3037ecf23cd5609e3eac2ce0e1b01" target="_top" xlink:title="comm_recv">
<polygon fill="white" stroke="black" points="147.5,-38.5 147.5,-57.5 218.5,-57.5 218.5,-38.5 147.5,-38.5"/>
<text text-anchor="middle" x="183" y="-45.5" font-family="Helvetica,sans-Serif" font-size="10.00">comm_recv</text>
</a>
</g>
</g>
<!-- Node1&#45;&gt;Node2 -->
<g id="edge1" class="edge"><title>Node1&#45;&gt;Node2</title>
<path fill="none" stroke="midnightblue" d="M110.167,-37.168C119.179,-38.5271 128.438,-39.9232 137.186,-41.2423"/>
<polygon fill="midnightblue" stroke="midnightblue" points="136.764,-44.7181 147.174,-42.7484 137.807,-37.7964 136.764,-44.7181"/>
</g>
<!-- Node3 -->
<g id="node3" class="node"><title>Node3</title>
<g id="a_node3"><a xlink:href="comm_8h.html#aadc6a8cdf4984083417952ebfbc0ee00" target="_top" xlink:title="comm_send">
<polygon fill="white" stroke="black" points="146,-0.5 146,-19.5 220,-19.5 220,-0.5 146,-0.5"/>
<text text-anchor="middle" x="183" y="-7.5" font-family="Helvetica,sans-Serif" font-size="10.00">comm_send</text>
</a>
</g>
</g>
<!-- Node1&#45;&gt;Node3 -->
<g id="edge2" class="edge"><title>Node1&#45;&gt;Node3</title>
<path fill="none" stroke="midnightblue" d="M110.167,-20.832C118.702,-19.5449 127.458,-18.2245 135.792,-16.9679"/>
<polygon fill="midnightblue" stroke="midnightblue" points="136.337,-20.4253 145.704,-15.4733 135.293,-13.5036 136.337,-20.4253"/>
</g>
</g>
</svg>
