<?xml version="1.0" encoding="UTF-8" standalone="no"?>
<!DOCTYPE svg PUBLIC "-//W3C//DTD SVG 1.1//EN"
 "http://www.w3.org/Graphics/SVG/1.1/DTD/svg11.dtd">
<!-- Generated by graphviz version 2.38.0 (20140413.2041)
 -->
<!-- Title: apply_S Pages: 1 -->
<svg width="278pt" height="28pt"
 viewBox="0.00 0.00 278.00 28.00" xmlns="http://www.w3.org/2000/svg" xmlns:xlink="http://www.w3.org/1999/xlink">
<g id="graph0" class="graph" transform="scale(1 1) rotate(0) translate(4 24)">
<title>apply_S</title>
<polygon fill="white" stroke="none" points="-4,4 -4,-24 274,-24 274,4 -4,4"/>
<!-- Node1 -->
<g id="node1" class="node"><title>Node1</title>
<polygon fill="#bfbfbf" stroke="black" points="0,-0.5 0,-19.5 55,-19.5 55,-0.5 0,-0.5"/>
<text text-anchor="middle" x="27.5" y="-7.5" font-family="Helvetica,sans-Serif" font-size="10.00">apply_S</text>
</g>
<!-- Node2 -->
<g id="node2" class="node"><title>Node2</title>
<g id="a_node2"><a xlink:href="xxt_8c.html#ac6781afb68f686a8d3e3da877ecc8a15" target="_top" xlink:title="orthogonalize">
<polygon fill="white" stroke="black" points="91,-0.5 91,-19.5 172,-19.5 172,-0.5 91,-0.5"/>
<text text-anchor="middle" x="131.5" y="-7.5" font-family="Helvetica,sans-Serif" font-size="10.00">orthogonalize</text>
</a>
</g>
</g>
<!-- Node1&#45;&gt;Node2 -->
<g id="edge1" class="edge"><title>Node1&#45;&gt;Node2</title>
<path fill="none" stroke="midnightblue" d="M65.146,-10C73.4193,-10 82.2413,-10 90.6396,-10"/>
<polygon fill="midnightblue" stroke="midnightblue" points="65.0331,-6.5001 55.033,-10 65.033,-13.5001 65.0331,-6.5001"/>
</g>
<!-- Node3 -->
<g id="node3" class="node"><title>Node3</title>
<g id="a_node3"><a xlink:href="xxt_8c.html#a7a6069f7f96ece910fe3320dc8b9ff30" target="_top" xlink:title="crs_setup">
<polygon fill="white" stroke="black" points="208,-0.5 208,-19.5 270,-19.5 270,-0.5 208,-0.5"/>
<text text-anchor="middle" x="239" y="-7.5" font-family="Helvetica,sans-Serif" font-size="10.00">crs_setup</text>
</a>
</g>
</g>
<!-- Node2&#45;&gt;Node3 -->
<g id="edge2" class="edge"><title>Node2&#45;&gt;Node3</title>
<path fill="none" stroke="midnightblue" d="M182.216,-10C190.938,-10 199.772,-10 207.758,-10"/>
<polygon fill="midnightblue" stroke="midnightblue" points="182.084,-6.5001 172.084,-10 182.084,-13.5001 182.084,-6.5001"/>
</g>
</g>
</svg>
